<svg xmlns="http://www.w3.org/2000/svg" width="28" height="28" fill="none" class="checkmark-round" viewBox="0 0 31 31"><style>&lt;![CDATA[
@media (width&lt;=600px){.checkmark-round{width:22px;height:22px}}
]]&gt;</style><path fill="#fff" d="M14.209 21.957a.65.65 0 0 1-.403-.14L7.347 16.65a.648.648 0 0 1 .403-1.151c.146 0 .29.05.403.14l5.934 4.747 8.644-11.73a.645.645 0 0 1 1.159.287.64.64 0 0 1-.12.481l-9.04 12.27a.64.64 0 0 1-.521.263"/><path fill="#fff" d="M15.5 30.999c-8.547 0-15.5-6.953-15.5-15.5s6.953-15.5 15.5-15.5S31 6.952 31 15.499s-6.953 15.5-15.5 15.5m0-29.708c-7.834 0-14.208 6.374-14.208 14.208S7.666 29.707 15.5 29.707s14.208-6.374 14.208-14.208S23.334 1.291 15.5 1.291"/></svg>