<svg class="logo-big-white" viewBox="0 0 1680 411" fill="none" xmlns="http://www.w3.org/2000/svg"><path class="logo-big-white-path" fill-rule="evenodd" clip-rule="evenodd" d="M666.164 192.78c0 35.111-11.844 103.615-91.173 103.615-79.816 0-91.737-68.504-91.737-103.615V.317h-152.11v203.195c0 129.36 91.16 206.583 243.847 206.583 152.326 0 243.269-77.223 243.269-206.583V.317H666.164V192.78zM1891.35 114.017V.317h-471v409.785h471V296.395h-321.72v-45.426h267.48v-91.533h-267.48v-45.419h321.72zM38.834 296.395h-103.7V114.192h103.7c53.677 0 91.089 42.693 91.089 91.014 0 48.966-37.412 91.189-91.09 91.189zM75.974.313h-292.937v409.785H75.974c101.441 0 204.988-81.827 204.988-204.892C280.962 81.353 177.415.313 75.974.313zM1128.04 296.395h-103.7V114.192h103.7c53.67 0 91.08 42.693 91.08 91.014 0 48.966-37.41 91.189-91.08 91.189zM1165.18.313H872.24v409.785h292.94c101.44 0 204.99-81.827 204.99-204.892C1370.17 81.353 1266.62.313 1165.18.313z" fill="#fff"/></svg>
