<svg width="48" height="49" fill="none" xmlns="http://www.w3.org/2000/svg" viewBox="0 0 48 49"><g stroke="currentColor" stroke-width="2" stroke-linecap="round" stroke-linejoin="round"><path d="M15 29.915c.392.202.785.402 1.18.6 7.274 3.676 6.918 2.96 13.146 2.96 2.6 0 3.922-1.692 4.69-4.17v-.016l1.89-6.308v-.012a1.975 1.975 0 0 0-1.896-2.548h-4.86a2 2 0 0 1-1.57-.768 1.961 1.961 0 0 1-.346-1.708l.874-3.298a1.676 1.676 0 0 0-.322-1.49 1.702 1.702 0 0 0-2.706.09l-4.846 7.45a2 2 0 0 1-1.62.834H15M13 19.531h2v14h-2"/><path d="M1 24.531a23 23 0 1 0 46 0 23 23 0 0 0-46 0v0Z"/></g></svg>
