<svg width="49" height="49" fill="none" viewBox="0 0 49 49" xmlns="http://www.w3.org/2000/svg"><path d="M39.117 2.72c-5 0-10 7-10 7s-5-7-10-7" stroke="currentColor" stroke-width="2" stroke-linecap="round" stroke-linejoin="round"/><path d="M20.717 6.63a7.969 7.969 0 0 0-.6 3.09c.002 1.373.155 2.742.456 4.082-1.372.316-5.056 3.906-7.456 11.918a123.051 123.051 0 0 0-4 21h4c14-2 26-14 23.674-30.214a16.201 16.201 0 0 0 1.326-6.786 7.997 7.997 0 0 0-.57-3.032m-2.11-2.868a9.822 9.822 0 0 0-6.32-2.1 9.822 9.822 0 0 0-6.32 2.1M34.117 45.72h-6M28.941 39.193l2.176 6.528" stroke="currentColor" stroke-width="2" stroke-linecap="round" stroke-linejoin="round"/><path d="m31.117 14.72-2 2-2-2M24.117 42.82a32.103 32.103 0 0 1 0-18.105" stroke="currentColor" stroke-width="2" stroke-linecap="round" stroke-linejoin="round"/><path d="M24.617 11.72a.5.5 0 1 1 0-1M24.617 11.72a.5.5 0 1 0 0-1M33.617 11.72a.5.5 0 1 1 0-1M33.617 11.72a.5.5 0 1 0 0-1" stroke="currentColor" stroke-width="2"/></svg>
