<svg width="49" height="49" viewBox="0 0 49 49" fill="none" xmlns="http://www.w3.org/2000/svg"><path d="M19.482 18.453v1.523M28.621 18.453v1.523M17.959 27.594c.508.794 2.437 2.383 6.092 2.383s5.584-1.589 6.091-2.383" stroke="currentColor" stroke-width="2" stroke-linecap="round"/><path d="M46.497 23.29c0-3.553-1.828-5.427-2.741-5.92h-5.17v11.84h5.17c.913-.494 2.74-2.369 2.74-5.92ZM1.8 23.29c0-3.553 1.828-5.427 2.741-5.92h5.17v11.84h-5.17c-.913-.494-2.74-2.369-2.74-5.92Z" stroke="currentColor" stroke-width="2" stroke-linecap="round" stroke-linejoin="round"/><path d="M38.39 29.21V15.57c.11-4.42-5.173-12.046-14.375-12.046-9.2 0-14.416 7.627-14.304 12.046V29.21" stroke="currentColor" stroke-width="2" stroke-linecap="round"/><path d="M23.117 45.632c9.495-1.57 12.759-6.71 14.341-11.454.436-1.306.934-4.325.934-5.774" stroke="currentColor" stroke-width="2" stroke-linecap="round" stroke-linejoin="round"/></svg>
