<svg width="53" height="54" viewBox="0 0 53 54" fill="none" xmlns="http://www.w3.org/2000/svg"><path d="M22.945 30.694a4.417 4.417 0 1 0 8.834 0 4.417 4.417 0 0 0-8.834 0ZM36.195 12.898a19.875 19.875 0 0 1 11.042 17.808M18.528 12.898A19.875 19.875 0 0 0 7.486 30.706M37.837 47.588a19.875 19.875 0 0 1-20.952 0" stroke="currentColor" stroke-width="2" stroke-linecap="round" stroke-linejoin="round"/><path d="m25.859 26.541-5.523-5.251L26.72 3.696a2.509 2.509 0 0 1 4.859 1.049l-1.725 22.304M24.512 34.074l-1.782 7.407L4.297 44.75a2.509 2.509 0 0 1-1.522-4.734l20.191-9.66M31.71 31.472l7.307-2.158 12.047 14.33a2.509 2.509 0 0 1-3.341 3.684l-18.455-12.65" stroke="currentColor" stroke-width="2" stroke-linecap="round" stroke-linejoin="round"/></svg>
