<svg xmlns="http://www.w3.org/2000/svg" class="logo" width="105" height="55" viewBox="0 0 692 371"><g fill="#fff"><path d="M164.8 290.9c0 8.4-1.7 15.6-5.2 21.6-3.5 6-8.3 11-14.4 14.8-6.1 3.8-13.2 6.7-21.3 8.5-8.1 1.8-16.7 2.8-25.8 2.8H6.7V152.7h107.8c6.5 0 12.3 1.4 17.5 4.2 5.2 2.8 9.7 6.4 13.4 10.9 3.7 4.4 6.5 9.5 8.5 15.2 2 5.7 3 11.5 3 17.4 0 8.7-2.2 17.1-6.7 25-4.4 7.9-11.1 13.9-20 17.9 10.6 3.1 19.1 8.6 25.3 16.4 6.2 7.7 9.3 18.1 9.3 31.2zM57.7 196.1v28.5h34.8c3.5 0 6.7-1 9.6-2.9 2.9-1.9 4.3-5.8 4.3-11.5 0-5.1-1.2-8.7-3.7-10.9-2.4-2.2-5.3-3.3-8.6-3.3H57.7zm55.3 84.3c0-4.5-1.2-8.3-3.7-11.4-2.4-3.1-5.6-4.6-9.4-4.6H57.7v31.1H98c4.2 0 7.7-1.3 10.6-3.9 2.9-2.6 4.4-6.3 4.4-11.2zm232.4 10.5c0 8.4-1.7 15.6-5.2 21.6-3.5 6-8.3 11-14.4 14.8-6.1 3.8-13.2 6.7-21.3 8.5-8.1 1.8-16.7 2.8-25.8 2.8h-91.4V152.7h107.8c6.5 0 12.3 1.4 17.5 4.2 5.2 2.8 9.7 6.4 13.4 10.9 3.7 4.4 6.5 9.5 8.5 15.2 2 5.7 3 11.5 3 17.4 0 8.7-2.2 17.1-6.7 25-4.5 7.9-11.1 13.9-20 17.9 10.6 3.1 19.1 8.6 25.3 16.4 6.2 7.7 9.3 18.1 9.3 31.2zm-107.1-94.8v28.5h34.8c3.5 0 6.7-1 9.5-2.9 2.9-1.9 4.3-5.8 4.3-11.5 0-5.1-1.2-8.7-3.7-10.9s-5.3-3.3-8.6-3.3h-36.3zm55.3 84.3c0-4.5-1.2-8.3-3.7-11.4-2.5-3.1-5.6-4.6-9.4-4.6h-42.1v31.1h40.3c4.2 0 7.7-1.3 10.6-3.9 2.8-2.6 4.3-6.3 4.3-11.2zm119.1-57.7c.9-6.4 2.8-12.2 5.8-17.6 3-5.3 7-9.9 12.2-13.7 5.2-3.8 11.6-6.3 19.2-7.3 7.5-1.1 14.2-.6 20.2 1.5 6 2 11.2 5.2 15.6 9.4s8 9.3 10.7 15.1c2.7 5.9 4.5 12.1 5.4 18.7.1.4 0 .8.1 1.2l54.3-7.2c0-.2.1-.4 0-.6-1.8-12.4-5.8-24.2-12.1-35.5-6.3-11.2-14.5-20.9-24.4-29-9.9-8.1-21.3-14.2-34.2-18.2-12.9-4.1-26.7-5-41.5-2.9-14.4 2-27.4 6.6-38.7 13.7-11.4 7.1-20.9 15.9-28.4 26.3-7.6 10.4-13 21.9-16.2 34.5-3.2 12.5-3.9 25.1-2.2 37.9l54.3-7.2c-.9-6.5-.9-12.8-.1-19.1zM550.8 298c4.3-11 6.3-22.4 6.4-34.4l-54.8-.5c-.1 4.4-.4 8.7-1.3 12.9-.9 4.6-2.4 9.1-4.4 13.3l-10.8-11.9h-50.4l32.4 35.4c-2.8.7-6.2 1.1-10.2 1.1-7.7 0-14.4-1.4-20.1-4.3-5.6-2.9-10.3-6.7-14-11.5-3.7-4.8-6.5-10.3-8.3-16.5-1.9-6.2-2.8-12.6-2.8-19.2v-.2l-54.8-.5v.2c0 12.7 2.4 25.1 7.2 37.1 4.8 12 11.5 22.7 20.2 32s19.1 16.8 31.3 22.4c12.2 5.6 25.7 8.4 40.7 8.4 8.5 0 16.6-.9 24.2-2.8 7.6-1.8 14.9-4.5 21.7-8l8.9 9.4h50.4L532.4 328c7.9-8.9 14-18.9 18.4-30zm22.9-53.6s12.6-64.3 64.3-64.3c49.5 0 44.2-34.8 44.2-34.8s14.2 77.8-108.5 99.1z"/><path class="arctic" d="M117.5 105.2l.4 1.9-.9 1.5-1.5.7-1.7.3H112l-3-.3-2-.1h-6l-8.2.5-1.7-.7-.8-.9-.7-1.5-4.1-11.1-.9-1.3-1.2-.3-1.6-.1-7.9-.5h-2.1l-9.9-.3-7.9-.1h-2l-2 .1h-6.1l-1.9.1-1 .7-.8 1.6-3 9-.8 2.1-1.5 1.7-2 .7h-2.1l-7.7-.4H21l-8.2.5-1.7.1-1.6-.8-1.1-1.5.1-1.7.3-1.1.8-2.1 1.9-4.1.8-2 3.3-7.4.8-1.9 3.4-7.4.8-2 3-7.2.8-2 3.6-7.4.8-1.9L33.6 48l3.7-7.9.9-2.1 2.9-6 .9-2.1 2.5-6.1.8-2 2.4-5.4.7-1.5 1.3-.8 2-.4 6.1-.3h10.3l6.1.1 2.3.4L78 15l.7 1.7 1.9 5.2.8 2 3.3 6.2.8 1.9 2.9 6.5.8 1.9 2.4 6.8.8 1.9 2.9 6.4.8 1.9 2.9 6.5.8 1.9 2.6 6.6.8 1.9 4.1 8.2 3.2 6.2.9 1.9 3.6 8.3 2.5 6.3zM73.3 67.8l-.5-1.7-2.9-9-.7-2-2.6-7.8-.7-1.7-1.3-.9-1.7-.4-1.5.4L60 46l-3.6 9-.8 2-3.4 8.9-.4 2 .4 1.6 1.5.7 1.9.3h8.3l6.2.4 1.7-.5 1.1-1.1.4-1.5zm147.2 40.7l-1.7.5h-9.3l-7.3-.1h-2.1l-6 .3h-1.7l-1.2-.5-1.1-1.1-4.2-6-1.2-1.6-4.2-5.7-1.2-1.6-3.7-6.1-1.2-1.6-4.2-5.7-.9-1.1-.8-.4-1.6-.1-4.2-.3-1.7.1-1.1.8-.4 1.7-.3 7.3.1 2.1.5 7.4.1 2.1.1 3.2v2.1l-.1 2.1-.3 1.6-.7.7-1.5.4h-2.1l-6.4-.4-6.1.4h-2.1l-6.1-.4-1.6-.3-.8-.5-.3-1.3-.1-1.9-.1-2 .3-3.4.1-2.1.5-7.2V88l-.4-7.2-.1-2.1-.1-7v-2.1l.4-7.2v-2.1l-.4-7.2V51l.4-7.2v-2.1l.3-7v-2.1l-.1-7.2v-2.1l-.3-4.4.1-2 .1-.8.4-1.7.8-1.1 1.6-.4 1.1-.1 2-.1 6 .3 15.8.5 9-.5h2.1l8.7.5h5l2.3.1 2 .4 2.8.8 2 .7 2 .8 2.1.8 2 .9 1.7 1.1 2.5 1.7 1.5 1.2 1.3 1.3 1.3 1.6 1.9 2.6 1.2 1.7 1.6 2.5.9 1.9.9 2 .7 2.1.4 2.1.1 2.1.3 2.9V47l-.1 2.1-.3 2.3-.4 2.3-.5 2.1-.8 2-.9 2-1.2 2-1.2 1.7-1.2 1.6-1.2 1.5-2.1 2.1-1.5 1.2-2.6 1.5-1.6.9-1.7.9-1.7.4-1.1.4.5 1.1 4.8 6.8 1.2 1.6 4.8 6.5 1.3 1.6 4.8 6.6 1.3 1.6 4.1 4.8 1.2 1.5.7 1.5-.6.9zM183.2 57l1.7-.7 1.6-.9 1.3-1.6.9-2 .5-2.1.1-2.1-.1-2.3-.3-2.3-.5-2-.9-2-1.2-1.6-1.5-1.2-1.9-.8-2.9-.7-2.1-.3-6.6-.1h-2.1l-6.8.4-1.4.3-.9.4-.8.8-.1 1.5.1 3 .3 2.1.3 2.3.1 2.3-.3 7.3.1 1.5.3.8.9.4 1.6.3 6.9.5h2.1l8.7-.5 2.9-.7zm132.5 40l-1.1 1.1-2.4 2.1-1.6 1.2-2.5 1.9-1.6 1.1-2.6 1.5-1.7.9-3 1.5-2 .7-2.3.7-2.3.4-3.3.7-4.6.5-2.4.1-3.3.3h-6.9l-2.3-.1-2.3-.3-2.3-.4-2.3-.5-2-.7-6-1.6-2.9-1.1-1.7-.8-2.5-1.5-1.6-1.2-1.7-1.2-1.9-1.2-3.4-2.9-1.6-1.6-1.5-1.7-1.5-2-1.2-1.9-1.1-1.9-.9-1.9-1.3-2.8-2-5.6-.9-2.6-1.3-4-.3-2-.1-3 .1-2 .1-2.1v-2.3l.3-4.5.1-2.1.4-2 .5-2.9.5-2 .7-2 .7-1.9.9-2.6.9-1.9.9-2 1.1-2 1.2-2 1.2-1.9 1.3-1.7 1.5-1.9 1.6-1.7 1.6-1.5 1.7-1.5 1.6-1.3 4.2-2.9 1.7-1.1 1.9-1.1 4-1.9 2.3-.8 2.1-.7 4.5-1.1 2.3-.4 2.3-.3 4.1-.3 2.9-.3 2 .1 2.9.1 4.9.7 1.9.4 3 .5 4.6 1.3 1.9.8 2.9 1.7 1.9 1.1 3.4 2.4 4.1 2.9 1.5 1.1.8.7.9.9.3 1.1-.1 1.1-.8 1.1-1.2 1.5-1.5 1.5-1.5 1.3-1.5 1.2-1.5 1.5-2.3 2.6-1.5 1.6-.7.7-1.2 1.1-.9.4-.9.1-.9-.3-1.5-.8-2.5-1.9-1.7-.9-2.9-1.3-1.9-.7-2.9-.8-2-.4-3.3-.3h-2.1l-2.9.3-2.1.5-2.9.9-2 .8-1.7.7-2.6 1.3-1.9 1.3-.9.8-1.6 1.7-1.2 1.9-.9 1.7-.9 1.9-.8 2-.7 2.1-.4 2.3-.3 2-.3 4v2.1l.1 3.3.1 2 .7 3 .7 2 .9 2.3 1.1 2 2 2.9 1.5 1.6 2.5 2.1 1.7 1.2 2.6 1.3 2 .8 2.9.8 2.1.4 3.2.1h3l1.9-.4 1.1-.3 2-.7 3.3-1.2 2.1-.9 2-.9 1.7-.9 2.5-1.6 1.7-1.3 1.3-.9.8-.3 1.2.3 1.5.9 1.5 1.3.5.8 1.3 1.5 2.1 2.6 1.3 1.6 3.6 4.1L314 94l1 1 .7 1.2v.8zm89.4-73.2l-.1 2 .1 4-.1 2.1-.1 1.1-.3 1.6-.4.9-.8.7-1.6.3h-2.1l-4-.4-2.1-.1-6.1.4h-2.1l-3.3-.3h-2l-.9.1-1.3.4-.5.8-.1 1.7-.5 7.8V49l.5 7.9-.1 2.1-.5 7.9-.1 2.1.3 7.8V89l-.3 7.8.1 2 .7 6 .1 2.1-.4 1.6-.7.7-1.7.3-2.5-.1-3.3-.4-2.3-.1-6 .4h-2.1l-6-.4-1.6-.1-.8-.4-.3-1.5v-2.3l.4-5.6.1-2.1V87l.1-7.9V77l.1-7.8V67l-.5-7.9-.1-2.1V46.9l-.3-7.8v-1.9l-.4-1.1-1.3-.3h-2l-4.2.3h-2.4l-3.6-.3-2.3-.1-2.3.1-3 .1h-2l-1.1-.1-1.5-.3-.8-.5-.5-.8-.3-1.3V32l-.1-2.1.3-4v-2l-.4-5 .1-2.1.4-1.7.5-.9.8-.4 1.3-.3h3l4.9.4h2.1l7.7-.5h2.1l7.8.7h2.1l9.8-.7 7.7.1h2.1l9.9-.1h9.8l4.4-.3 2.3.1 1.1.1 1.6.3.9.5.7.9.3 1.6v.9l.1 2-.1 4.3zm40.8 64.4v2.1l-.5 7.2v2.1l-.1 7.3v1.5l-.4.8-1.1.3-1.9.1-6.8-.1H427l-6.6-.5-.8-.3-.4-.4V107l-.3-3.3v-2.1l-.1-2v-2l-.4-7.2.1-2.1.4-7.2.1-2.1-.4-7.3v-2.1l-.1-7.2V51l-.1-7.3v-2.1l.1-7.2V23.1l-.3-7.3.4-1.5.8-.5 1.3-.1h1.1l2-.1 3.2.1h2.1l6.1-.3h8.2l1.5.3.3.8.1 1.5.3 3.4.1 2.1v13l.1 7.2v2.1l-.1 7.3v2.1l.1 7.2v2.1l-.3 7.2v11.5l.4 7zm104 8.8l-1.1 1.1-2.4 2.1-1.6 1.2-2.5 1.9-1.6 1.1-2.6 1.5-1.7.9-3 1.5-2 .7-2.3.7-2.3.4-3.3.7-4.6.5-2.4.1-3.3.3h-6.9l-2.3-.1-2.3-.3-2.3-.4-2.3-.5-2-.7-6-1.6-2.9-1.1-1.7-.8-2.5-1.5-1.6-1.2-1.7-1.2-1.9-1.2-3.4-2.9-1.6-1.6-1.5-1.7-1.5-2-1.2-1.9-1.1-1.9-.9-1.9-1.3-2.8-2-5.6-.9-2.6-1.3-4-.3-2-.1-3 .1-2 .1-2.1v-2.3l.3-4.5.1-2.1.4-2 .5-2.9.5-2 .7-2 .7-1.9.9-2.6.9-1.9.9-2 1.1-2 1.2-2 1.2-1.9 1.3-1.7 1.5-1.9 1.6-1.7 1.6-1.5 1.7-1.5 1.6-1.3 4.2-2.9 1.7-1.1 1.9-1.1 4-1.9 2.3-.8 2.1-.7 4.5-1.1 2.3-.4 2.3-.3 4.1-.3 2.9-.3 2 .1 2.9.1 4.9.7 1.9.4 3 .5 4.6 1.3 1.9.8 2.9 1.7 1.9 1.1 3.4 2.4 4.1 2.9 1.5 1.1.8.7.9.9.3 1.1-.1 1.1-.8 1.1-1.2 1.5-1.5 1.5-1.5 1.3-1.5 1.2-1.5 1.5-2.3 2.6-1.5 1.6-.7.7-1.2 1.1-.9.4-.9.1-.9-.3-1.5-.8-2.5-1.9-1.7-.9-2.9-1.3-1.9-.7-2.9-.8-2-.4-3.3-.3h-2.1l-2.9.3-2.1.5-2.9.9-2 .8-1.7.7-2.6 1.3-1.9 1.3-.9.8-1.6 1.7-1.2 1.9-.9 1.7-.9 1.9-.8 2-.7 2.1-.4 2.3-.3 2-.3 4v2.1l.1 3.3.1 2 .7 3 .7 2 .9 2.3 1.1 2 2 2.9 1.5 1.6 2.5 2.1 1.7 1.2 2.6 1.3 2 .8 2.9.8 2.1.4 3.2.1h3l1.9-.4 1.1-.3 2-.7 3.3-1.2 2.1-.9 2-.9 1.7-.9 2.5-1.6 1.7-1.3 1.3-.9.8-.3 1.2.3 1.5.9 1.5 1.3.5.8 1.3 1.5 2.1 2.6 1.3 1.6 3.6 4.1 1.2 1.6.7.7.7 1.2V97z"/></g></svg>