<svg width="157" height="42" viewBox="0 0 157 42" fill="none" xmlns="http://www.w3.org/2000/svg"><g fill="currentColor"><path d="M31.527.153c.576.937 1.038 1.94 1.377 2.987l7.955 26.392a20.584 20.584 0 002.846-10.453c0-8.362-5.017-15.618-12.288-19.046a.41.41 0 01.11.12zM10.443 3.14c.306-1.01.74-1.977 1.29-2.875C4.76 3.819-.02 10.898-.02 19.06c0 3.517.897 6.974 2.603 10.038L10.443 3.14zM30.608 28.026H16.213l2.589-8.77h9.18L23.958 5.914a2.415 2.415 0 00-.869-1.198 2.368 2.368 0 00-2.793 0c-.407.297-.71.716-.869 1.198l-9.373 30.98a22.432 22.432 0 0011.619 3.364 22.425 22.425 0 0011.672-3.168l-2.736-9.064zM55.548 17.314h1.446l6.982 19.149h-1.914l-2.864-7.62h-5.844c-.877 2.435-1.919 5.18-2.819 7.62H48.64l6.908-19.15zm2.98 9.644c-.354-1.055-.74-1.993-1.093-2.964v.028c-.46-1.194-.689-1.886-1.18-3.215-.298.832-.601 1.608-.877 2.411-.49 1.301-.876 2.355-1.377 3.717l4.526.023z"></path><path d="M61.874 36.737l-2.846-7.619h-5.486c-.863 2.392-1.873 5.059-2.754 7.433l-.069.176h-2.492l7.06-19.51.068-.182h1.837l7.184 19.697-2.502.005zM59.4 28.57l2.846 7.618h1.344l-6.784-18.582h-1.07l-6.734 18.582h1.34c.891-2.397 1.901-5.063 2.755-7.432l.064-.177 6.239-.01zm-5.775-1.338l.133-.367c.491-1.394.877-2.444 1.377-3.74.28-.808.579-1.584.881-2.41l.248-.702.257.697c.492 1.328.712 2.016 1.17 3.191.354.966.74 1.91 1.098 2.973l-.257.088.257-.088.124.363-5.288-.005zm4.521-.548c-.312-.892-.642-1.714-.954-2.565-.381-.97-.597-1.607-.919-2.522-.215.58-.426 1.138-.62 1.719-.458 1.18-.807 2.155-1.239 3.368h3.75-.018zM65.84 15.65h1.804l.027 20.813h-1.804L65.84 15.65z"></path><path d="M65.597 36.737l-.028-21.086v-.274h2.35l.028 21.369-2.35-.01zm.541-.549h1.263l-.023-20.263h-1.267l.027 20.263zM75.723 22.442c3.535 0 6.38 3.215 6.38 7.178 0 3.962-2.845 7.117-6.38 7.117-3.535 0-6.463-3.21-6.463-7.117s2.905-7.178 6.463-7.178zm0 12.441c2.493 0 4.544-2.383 4.544-5.263s-2.051-5.324-4.544-5.324c-2.575 0-4.627 2.388-4.627 5.324s2.052 5.263 4.627 5.263z"></path><path d="M68.988 29.62c0-4.098 3.007-7.433 6.734-7.433v.548c-3.392 0-6.192 3.07-6.192 6.903 0 3.768 2.8 6.838 6.192 6.843 3.36 0 6.11-3.07 6.11-6.843 0-3.837-2.754-6.898-6.11-6.903v-.548c3.705 0 6.647 3.359 6.652 7.433 0 4.037-2.947 7.386-6.652 7.39-3.727 0-6.724-3.349-6.734-7.39zm6.734 5.263v-.274c2.296 0 4.274-2.235 4.274-4.99 0-2.814-1.965-5.04-4.274-5.049-2.396 0-4.356 2.235-4.356 5.05 0 2.75 1.96 4.984 4.356 4.989v.548c-2.754 0-4.893-2.532-4.898-5.537 0-3.066 2.149-5.575 4.898-5.598 2.677 0 4.811 2.536 4.816 5.598 0 3.005-2.144 5.528-4.816 5.537v-.274zM85.55 23.771c.413-.443.912-.795 1.464-1.035a4.34 4.34 0 011.75-.359c2.575 0 4.655 2.3 4.737 5.18l.083 8.896h-1.795v-8.887c-.06-1.858-1.267-3.321-2.906-3.321-1.478 0-2.956 1.393-3.314 2.964 0 1.078.028 3.21.028 4.57v4.684H83.76l-.032-13.858h1.836l-.014 1.166z"></path><path d="M91.523 36.737l-.027-9.161c-.06-1.752-1.166-3.062-2.63-3.062-1.3 0-2.713 1.301-3.044 2.723 0 1.087.028 3.196.028 4.543v4.957h-2.378V22.336h2.35v.817a4.602 4.602 0 012.96-1.036c2.755 0 4.926 2.44 5.009 5.454l.087 9.17-2.355-.004zm.514-9.17l.028 8.617h1.262l-.078-8.608c-.082-2.755-2.06-4.92-4.466-4.915a4.056 4.056 0 00-1.652.328 4.098 4.098 0 00-1.382.973l-.198-.191.198.19-.46.488v-1.57h-1.303l.023 13.305h1.294V31.78c0-1.357-.027-3.489-.027-4.571v-.065c.39-1.668 1.928-3.16 3.576-3.173 1.836 0 3.121 1.626 3.172 3.595h.013zM105.184 33.499l.739 1.742a9.401 9.401 0 01-4.035 1.444 6.56 6.56 0 01-.712.028c-3.034 0-5.637-2.94-5.834-6.68v-.464c0-3.935 2.492-7.15 5.531-7.15 3.039 0 5.454 2.741 5.454 6.708v1.022h-9.112c.303 2.546 1.974 4.71 3.998 4.71a7.882 7.882 0 003.971-1.36zm-.684-5.185c-.414-2.271-1.919-4.018-3.645-4.018s-3.282 1.607-3.613 4.018h7.258z"></path><path d="M95.058 30.033v-.464c0-4.037 2.552-7.405 5.797-7.433 3.273 0 5.715 2.913 5.72 6.968v1.3h-9.048c.381 2.324 1.947 4.182 3.673 4.182a7.571 7.571 0 003.814-1.31l.271-.195.959 2.262-.179.13a9.646 9.646 0 01-4.168 1.487c-.234.032-.61.027-.752.032-3.214 0-5.904-3.084-6.101-6.968l.014.01zm.537-.464v.464c.188 3.628 2.708 6.43 5.563 6.42.133 0 .519 0 .68-.028a9.448 9.448 0 003.75-1.268l-.528-1.235a8.017 8.017 0 01-3.847 1.221c-2.235 0-3.952-2.322-4.264-4.952l-.041-.306h9.112v-.753c0-3.856-2.259-6.43-5.178-6.43-2.833 0-5.261 3.043-5.261 6.871l.014-.004zm1.336-.967l.046-.31c.335-2.5 1.923-4.252 3.878-4.256 1.924 0 3.484 1.89 3.911 4.246l-.266.046.266-.046.06.32h-7.895zm7.252-.562c-.459-2.025-1.836-3.484-3.309-3.47-1.529 0-2.892 1.329-3.292 3.47h6.601zM109.893 23.771c.412-.444.91-.797 1.463-1.037a4.322 4.322 0 011.751-.357c2.575 0 4.654 2.3 4.732 5.18l.083 8.896h-1.804v-8.887c-.055-1.858-1.258-3.321-2.906-3.321-1.473 0-2.956 1.393-3.309 2.964 0 1.078.027 3.21.027 4.57v4.684h-1.836l-.028-13.858h1.837l-.01 1.166z"></path><path d="M115.865 36.737l-.027-9.161c-.06-1.752-1.166-3.062-2.635-3.062-1.295 0-2.709 1.301-3.039 2.723 0 1.087.023 3.196.023 4.543v4.957h-2.373l-.028-14.401h2.364v.817a4.601 4.601 0 012.961-1.036c2.754 0 4.925 2.44 5.003 5.454l.088 9.17-2.337-.004zm.514-9.17l.023 8.621h1.267l-.082-8.612c-.078-2.755-2.057-4.92-4.462-4.915a4.09 4.09 0 00-1.654.33 4.136 4.136 0 00-1.385.97l-.193-.19.193.19-.459.488v-1.57h-1.313l.028 13.31h1.294v-4.41c0-1.356-.027-3.492-.027-4.57v-.065c.394-1.668 1.927-3.16 3.575-3.178 1.837 0 3.126 1.63 3.177 3.6h.018zM134.021 36.713c-4.655 0-8.653-4.24-8.653-9.81 0-5.376 3.861-9.7 8.653-9.7 4.925 0 8.593 4.296 8.593 9.7a10.194 10.194 0 01-2.625 7.12 7.996 7.996 0 01-2.7 1.992 7.9 7.9 0 01-3.268.698zm0-17.597c-3.782 0-6.766 3.438-6.766 7.786 0 4.348 2.956 7.898 6.766 7.898 3.888 0 6.817-3.49 6.817-7.898a8.224 8.224 0 00-2.194-5.732 6.175 6.175 0 00-2.094-1.528 6.101 6.101 0 00-2.529-.526z"></path><path d="M125.088 26.902c0-5.505 3.961-9.97 8.928-9.974 5.095 0 8.86 4.45 8.869 9.974.07 2.699-.899 5.32-2.704 7.307a8.273 8.273 0 01-2.788 2.06 8.18 8.18 0 01-3.377.728v-.548a7.647 7.647 0 003.161-.679 7.732 7.732 0 002.609-1.928 9.906 9.906 0 002.553-6.93c0-5.282-3.567-9.417-8.323-9.426-4.622 0-8.377 4.18-8.382 9.425 0 5.44 3.897 9.524 8.382 9.538v.548c-4.829 0-8.914-4.38-8.928-10.086v-.009zm1.891 0c0-4.474 3.085-8.06 7.037-8.06v.548c-3.603 0-6.491 3.285-6.495 7.512 0 4.288 2.869 7.614 6.495 7.623 3.709 0 6.541-3.335 6.546-7.623a7.945 7.945 0 00-2.121-5.551 5.894 5.894 0 00-2.005-1.46 5.831 5.831 0 00-2.42-.5v-.544a6.33 6.33 0 012.637.541c.831.368 1.575.91 2.183 1.591a8.48 8.48 0 012.268 5.928c0 4.52-3.03 8.171-7.088 8.171-3.984 0-7.028-3.647-7.037-8.171v-.005zM144.202 39.7c.389.13.794.205 1.203.223 1.423 0 2.681-1.393 3.723-4.817-.822-2.025-1.726-4.079-2.548-6.127-.822-2.049-1.804-4.488-2.626-6.537h1.887l4.163 10.42c.547-1.445 1.015-2.745 1.589-4.18.794-2.021 1.671-4.242 2.465-6.235h1.969l-5.173 12.854.027-.028c-.193.53-.413 1.027-.606 1.556l-.546 1.529a4.979 4.979 0 01-1.713 2.391 4.888 4.888 0 01-2.749.99 4.774 4.774 0 01-1.34-.222l.275-1.817z"></path><path d="M143.853 41.768l-.234-.065.312-2.04.046-.31.298.087c.366.12.745.192 1.129.214 1.194 0 2.406-1.217 3.434-4.534-.808-1.993-1.699-4.014-2.506-6.04-.854-2.104-1.809-4.487-2.631-6.535l-.151-.381h2.474l3.971 9.946c.459-1.19.858-2.323 1.345-3.535.794-2.026 1.671-4.242 2.465-6.24l.069-.171h2.556l-5.306 13.193c-.197.534-.413 1.036-.601 1.547l-.547 1.528a5.26 5.26 0 01-1.815 2.52 5.164 5.164 0 01-2.904 1.039 5.04 5.04 0 01-1.413-.233l.009.01zm1.414-.316a4.635 4.635 0 002.593-.943 4.722 4.722 0 001.616-2.258l.546-1.524c.193-.525.404-1.017.592-1.523l5.022-12.478h-1.377c-.776 1.946-1.62 4.093-2.396 6.062-.574 1.436-1.037 2.736-1.584 4.181l-.248.655-4.351-10.894h-1.304c.79 1.96 1.68 4.181 2.479 6.16.817 2.044 1.721 4.098 2.548 6.123l.036.093-.032.093c-1.042 3.424-2.341 4.994-3.98 5.013a4.192 4.192 0 01-.982-.15l-.193 1.255c.338.093.687.144 1.038.149l-.023-.014zM53.032 7.103v5.05h-1.074V.966h3.264c1.776 0 3.236 1.264 3.236 2.867 0 1.602-1.46 2.926-3.236 2.926h-1.074c.578.665 1.202 1.343 1.808 2.044.918 1.05 2.03 2.36 2.897 3.35h-1.377l-4.444-5.05zm0-5.11V5.64h2.176c1.152 0 2.144-.8 2.144-1.83 0-1.032-.992-1.817-2.176-1.817h-2.144z"></path><path d="M57.42 12.24l-4.3-4.9v4.901h-1.267V.873h3.355c1.836 0 3.319 1.292 3.324 2.96 0 1.672-1.506 3.014-3.324 3.02h-.854c.537.612 1.111 1.24 1.671 1.885.918 1.055 2.034 2.365 2.897 3.354l.133.149H57.42zm.083-.18h1.153c-.845-.966-1.896-2.198-2.755-3.201-.606-.692-1.23-1.394-1.808-2.04l-.129-.148h1.253c1.73 0 3.14-1.282 3.145-2.838 0-1.547-1.41-2.788-3.145-2.788h-3.18V12.05h.89V6.861l4.563 5.199h.013zm-4.54-4.901l.07-.056-.07.056zm0-1.394V1.942H55.2c1.226 0 2.263.864 2.268 1.904 0 1.097-1.047 1.914-2.236 1.92h-2.268zm.184-.181h2.084c1.115 0 2.052-.767 2.056-1.738 0-.905-.917-1.723-2.088-1.723h-2.052v3.46zM63.563 12.153v-.39a2.7 2.7 0 01-1.612.534 2.487 2.487 0 01-1.946-.64 2.547 2.547 0 01-.832-1.892 2.571 2.571 0 01.832-1.892 2.509 2.509 0 011.946-.64h1.616v-.255c0-1.041-.56-1.882-1.377-1.933a2.793 2.793 0 00-.96.163c-.045 0-.077 0-.128.032-.05.033-.124.033-.207.065a.404.404 0 01-.192.033l-.257-.971c.05 0 .179-.084.224-.098a3.87 3.87 0 011.538-.288c1.313.028 2.35 1.31 2.415 2.815v.182l-.032 5.193-1.028-.018zm-1.635-3.856a1.546 1.546 0 00-1.076.421 1.582 1.582 0 00-.494 1.056c.031.41.214.793.512 1.073a1.6 1.6 0 002.19 0c.298-.28.481-.663.512-1.073v-1.44l-1.644-.037z"></path><path d="M59.197 9.77c.02-.716.316-1.395.827-1.89a2.673 2.673 0 011.9-.758h1.529v-.163c0-1.013-.542-1.798-1.272-1.858a2.693 2.693 0 00-.918.158c-.06 0-.092 0-.124.032-.06 0-.133.033-.197.056a.454.454 0 01-.234.046h-.07L60.34 4.27l.083-.028c.037 0 .165-.074.22-.097a3.934 3.934 0 011.57-.293c1.377.037 2.442 1.361 2.506 2.908v.181l-.032 5.194v.088h-1.129v-.088.088h-.092v-.306a2.768 2.768 0 01-1.528.464 2.664 2.664 0 01-1.894-.745 2.728 2.728 0 01-.833-1.875l-.014.01zm.18 0a2.56 2.56 0 00.784 1.742 2.5 2.5 0 001.763.696c.563.001 1.11-.18 1.565-.515l.143-.102v.464h.863c0-.706.027-5.11.027-5.11v-.177c-.06-1.467-1.074-2.699-2.323-2.726a3.684 3.684 0 00-1.51.288l-.142.06.216.827a.232.232 0 00.091-.028c.07-.024.14-.045.212-.06a.844.844 0 01.128-.033c.318-.117.654-.173.992-.167.867.056 1.45.952 1.446 2.02v.35h-1.68A2.495 2.495 0 0060.178 8a2.555 2.555 0 00-.775 1.76l-.028.008zm.876 0c.025-.426.21-.826.517-1.117a1.633 1.633 0 011.136-.449h1.721v1.533a1.652 1.652 0 01-.534 1.136 1.611 1.611 0 01-1.174.416 1.604 1.604 0 01-1.145-.425 1.643 1.643 0 01-.526-1.113l.005.018zm.18 0c.024.377.194.73.473.983.279.253.644.385 1.018.368a1.417 1.417 0 001.046-.36 1.45 1.45 0 00.483-1.005V8.404H61.91a1.455 1.455 0 00-1.014.397 1.49 1.49 0 00-.464.996V9.77zM67.4 6.369l1.138-.952 1.566-1.361h1.634L68.984 6.34c.496.892 1.056 1.89 1.597 2.787.546.985 1.185 2.105 1.712 3.01h-1.23L68.217 7.07c-.275.228-.546.437-.835.679V12.139h-1.074V1.124h1.055L67.4 6.37z"></path><path d="M71.027 12.24L68.21 7.234c-.234.195-.46.376-.716.585V12.25h-1.249V1.031h1.235V6.18l.987-.837 1.593-1.393h1.919l-2.874 2.397a92.206 92.206 0 001.56 2.736c.547.985 1.185 2.104 1.713 3.01l.078.135-1.428.014zm.106-.18h1.023a140.556 140.556 0 01-1.634-2.871c-.541-.93-1.106-1.914-1.602-2.787l-.036-.066 2.602-2.169h-1.345l-1.547 1.338-1.133.938-.06-.074.06.074-.147.121V1.217h-.877V12.06h.89V7.72l.033-.028c.284-.242.56-.465.83-.678l.079-.07 2.878 5.11-.014.005zM78.33 10.42l.432 1.022a5.467 5.467 0 01-2.369.836 3.35 3.35 0 01-.413 0c-1.776 0-3.3-1.714-3.41-3.898v-.278c0-2.323 1.455-4.181 3.213-4.181s3.185 1.603 3.185 3.916v.6h-5.292c.174 1.49 1.152 2.754 2.331 2.754a4.577 4.577 0 002.323-.771zm-.404-3.029c-.234-1.329-1.12-2.323-2.125-2.323s-1.919.93-2.112 2.323h4.237z"></path><path d="M72.478 8.394V8.12c0-2.322 1.478-4.264 3.323-4.269 1.864 0 3.268 1.659 3.278 4.01v.691h-5.302c.206 1.417 1.143 2.574 2.23 2.57a4.482 4.482 0 002.268-.776l.092-.066.505 1.19-.06.042a5.5 5.5 0 01-2.405.859 3.663 3.663 0 01-.427 0c-1.836 0-3.388-1.765-3.502-3.995v.018zm.183-.274v.274c.11 2.142 1.602 3.814 3.319 3.814h.404a5.515 5.515 0 002.268-.785l-.363-.845a4.708 4.708 0 01-2.295.748c-1.249 0-2.245-1.315-2.424-2.839v-.102h5.325V7.88c0-2.281-1.345-3.828-3.094-3.828-1.708 0-3.14 1.82-3.14 4.088V8.12zm.918-.636v-.102c.198-1.44 1.107-2.43 2.204-2.43 1.074 0 1.969 1.069 2.217 2.425h-.087H78v.107h-4.42zm4.233-.186c-.262-1.245-1.102-2.17-2.02-2.165-.955 0-1.79.846-2.006 2.165h4.026zM81.08 4.738c.243-.26.536-.466.862-.606.325-.14.676-.21 1.03-.207 1.5 0 2.717 1.348 2.754 3.034l.045 5.194h-1.055V6.959c-.037-1.087-.74-1.946-1.699-1.946-.46.048-.895.242-1.242.552-.348.31-.59.723-.695 1.18V12.153h-1.074V4.056h1.07l.004.682z"></path><path d="M84.642 12.24V6.96c-.032-1.05-.707-1.858-1.606-1.858a2.11 2.11 0 00-1.176.524c-.329.294-.56.684-.66 1.116v5.495h-1.254V3.958H81.2v.557a2.635 2.635 0 011.799-.682c1.56 0 2.81 1.393 2.855 3.117l.05 5.286-1.262.005zm.16-5.286v5.11h.873l-.046-5.11c-.05-1.644-1.23-2.94-2.676-2.94a2.449 2.449 0 00-1.836.78l-.064-.06.064.06-.152.163v-.813h-.89v7.897h.895V9.416 6.722c.106-.478.36-.91.723-1.234.364-.323.82-.523 1.301-.568 1.02 0 1.754.929 1.786 2.034h.023zM88.011 4.738a2.551 2.551 0 011.887-.813c1.505 0 2.722 1.348 2.754 3.034l.046 5.194h-1.056V6.959c-.032-1.087-.734-1.947-1.694-1.947a2.21 2.21 0 00-1.243.552c-.347.311-.59.724-.694 1.181V12.153h-1.07V4.056h1.075l-.005.682z"></path><path d="M91.569 12.24V6.96c-.032-1.05-.707-1.858-1.607-1.858a2.113 2.113 0 00-1.175.525c-.328.294-.56.683-.66 1.115v5.495h-1.254V3.963h1.244v.557a2.626 2.626 0 011.8-.687c1.56 0 2.809 1.393 2.855 3.117l.05 5.286-1.253.005zm.165-5.281v5.11h.882l-.05-5.11c-.047-1.645-1.231-2.94-2.677-2.94a2.44 2.44 0 00-1.836.78l-.064-.065.064.065-.156.162v-.813h-.89v7.898h.89v-2.63-2.694c.106-.485.363-.922.733-1.248.37-.326.834-.524 1.323-.564 1.02 0 1.758.93 1.79 2.04l-.009.009zM98.675 11.488a2.675 2.675 0 01-1.887.809c-1.52 0-2.704-1.362-2.754-3.043l-.05-5.198h1.037l.037 5.198c-.023.488.145.966.469 1.33.323.363.774.583 1.257.612.88 0 1.661-.855 1.872-1.733V4.056h1.06v8.097h-1.041v-.665z"></path><path d="M93.951 9.258l-.046-5.29h1.217l.036 5.286c.033 1.013.716 1.858 1.635 1.858.817 0 1.588-.818 1.78-1.64v-5.49h1.24v8.273h-1.221v-.553a2.708 2.708 0 01-1.8.697c-1.579 0-2.795-1.394-2.827-3.131l-.014-.01zm.18 0c.031 1.64 1.183 2.955 2.648 2.955a2.606 2.606 0 001.836-.785l.147-.144V12.064h.863V4.167h-.882v5.338c-.22.906-1.018 1.797-1.96 1.802-1.037 0-1.78-.929-1.836-2.035l-.032-5.11h-.83l.045 5.11v-.014zM105.821 5.807a2.762 2.762 0 00-1.891-.748c-.895 0-1.597.441-1.597 1.087 0 .646.72 1.245 1.694 1.394 1.423.241 2.556 1.328 2.556 2.494 0 1.31-1.216 2.23-2.685 2.23a3.621 3.621 0 01-2.704-1.259l.817-.618a2.74 2.74 0 001.837.813c.918 0 1.666-.487 1.666-1.166 0-.599-.831-1.245-1.68-1.472-1.377-.228-2.575-1.343-2.575-2.444 0-1.282 1.262-2.155 2.754-2.155.504.01 1.001.121 1.463.327a3.82 3.82 0 011.227.871l-.882.646z"></path><path d="M101.126 11.075l-.06-.074.951-.716.059.051a2.616 2.616 0 001.777.785c.918 0 1.57-.464 1.57-1.073 0-.515-.785-1.175-1.602-1.393-1.428-.237-2.649-1.366-2.654-2.532 0-1.352 1.327-2.249 2.828-2.249.517.01 1.026.123 1.499.334.473.21.899.514 1.255.893l.069.074-.945.697-.065.042-.055-.051a2.668 2.668 0 00-1.836-.72c-.872 0-1.51.422-1.51.994 0 .557.67 1.161 1.62 1.314 1.46.251 2.63 1.357 2.635 2.588 0 1.394-1.271 2.323-2.777 2.323a3.636 3.636 0 01-1.516-.347 3.673 3.673 0 01-1.238-.95l-.005.01zm2.754 1.115c1.437 0 2.594-.897 2.598-2.142 0-1.1-1.092-2.17-2.488-2.406-.996-.167-1.762-.79-1.767-1.496 0-.73.771-1.175 1.689-1.175a2.86 2.86 0 011.892.715l.72-.525a3.65 3.65 0 00-2.547-1.092c-1.442 0-2.644.85-2.644 2.063 0 1.031 1.138 2.132 2.506 2.355.868.237 1.735.874 1.749 1.561 0 .758-.803 1.255-1.754 1.255a2.802 2.802 0 01-1.836-.78l-.675.51c.328.36.726.648 1.168.847a3.51 3.51 0 001.403.31h-.014zm1.919-6.383l.064-.07-.064.07zM110.091 1.124v3.043h2.047v1.087h-2.047v6.899h-1.038V5.254h-1.157V4.167h1.125V1.124h1.07z"></path><path d="M108.976 12.24v-.087-6.81h-1.166V4.078h1.12V1.03H110.183V4.08h2.047v1.268h-2.047v6.899l-1.207-.005zm1.042-.176V5.161h2.047V4.26h-2.047V1.217h-.891V4.26h-1.12v.901h1.152v6.903h.859zM116.155 3.981c2.065 0 3.727 1.858 3.727 4.181s-1.662 4.181-3.727 4.181c-2.066 0-3.778-1.881-3.778-4.18 0-2.3 1.698-4.182 3.778-4.182zm0 7.266c1.455 0 2.653-1.394 2.653-3.076 0-1.681-1.198-3.107-2.653-3.107s-2.704 1.393-2.704 3.107c0 1.715 1.198 3.057 2.704 3.057v.019z"></path><path d="M112.29 8.162c0-2.36 1.731-4.283 3.865-4.283v.181c-2.024 0-3.672 1.83-3.672 4.102 0 2.235 1.662 4.065 3.672 4.07 2.006 0 3.636-1.83 3.636-4.07 0-2.271-1.63-4.097-3.636-4.102v-.186c2.121 0 3.815 1.928 3.819 4.288 0 2.323-1.698 4.25-3.819 4.25-2.134 0-3.86-1.922-3.865-4.25zm1.07 0c0-1.756 1.23-3.2 2.795-3.2 1.515 0 2.754 1.444 2.754 3.2 0 1.728-1.23 3.164-2.754 3.168v-.18c1.377 0 2.566-1.348 2.566-2.988 0-1.677-1.17-3.015-2.566-3.015-1.446 0-2.612 1.343-2.616 3.015 0 1.64 1.17 2.983 2.616 2.987v.181c-1.565 0-2.791-1.44-2.795-3.168zM121.677 1.352a.646.646 0 01.454.181.66.66 0 01.202.45.68.68 0 01-.656.632.646.646 0 01-.454-.181.66.66 0 01-.202-.45.643.643 0 01.195-.458.628.628 0 01.461-.174zm-.51 2.704h1.038v8.097h-1.038V4.056z"></path><path d="M121.071 12.24V3.982h1.221v8.274l-1.221-.014zm.184-.18h.858V4.162h-.858v7.898zm-.326-10.076a.721.721 0 01.225-.519.728.728 0 01.523-.201v.18a.54.54 0 00-.396.15.56.56 0 00-.173.39.58.58 0 00.569.543.606.606 0 00.379-.169.623.623 0 00.186-.374.579.579 0 00-.177-.384.56.56 0 00-.388-.155v-.181a.73.73 0 01.517.206c.139.134.221.319.227.514a.778.778 0 01-.233.509.755.755 0 01-.511.215.738.738 0 01-.519-.209.755.755 0 01-.229-.515zM124.716 4.771c.232-.258.516-.463.833-.6a2.372 2.372 0 011.003-.194 2.7 2.7 0 011.36.377c.412.245.754.595.99 1.016.233-.426.571-.783.981-1.035.411-.253.88-.392 1.36-.405 1.502 0 2.7 1.329 2.755 3.015l.032 5.161h-1.074V6.96a1.908 1.908 0 00-.5-1.33 1.865 1.865 0 00-1.272-.603c-.918 0-1.616.846-1.836 1.72v5.374h-1.052V7.01a1.91 1.91 0 00-.525-1.347 1.867 1.867 0 00-1.311-.58c-.831 0-1.57.84-1.776 1.718v5.375h-1.07V4.079h1.07l.032.692z"></path><path d="M123.568 12.24V3.983h1.249v.585a2.475 2.475 0 011.767-.67c.47.004.932.127 1.342.359.411.231.758.563 1.009.966.246-.407.59-.745.999-.982.409-.237.87-.366 1.342-.375 1.556 0 2.791 1.394 2.836 3.103l.037 5.259h-1.253V6.959a1.818 1.818 0 00-.469-1.276 1.778 1.778 0 00-1.216-.582c-.84 0-1.537.799-1.735 1.626v5.467h-1.235V6.991a1.813 1.813 0 00-1.055-1.7 1.767 1.767 0 00-.68-.158c-.766 0-1.492.804-1.689 1.626v5.459l-1.249.023zm.166-7.228v7.048h.89V9.449 6.755c.216-.93.969-1.78 1.864-1.784a1.952 1.952 0 011.366.61 2 2 0 01.548 1.406v5.045h.877v-5.31c.216-.901.955-1.78 1.914-1.784.508.027.986.251 1.334.628.348.376.537.873.53 1.388v5.078h.89l-.032-5.073c-.046-1.645-1.212-2.927-2.658-2.927a2.624 2.624 0 00-1.314.39c-.396.245-.722.591-.944 1.004l-.078.14-.078-.135a2.668 2.668 0 00-.967-.994 2.623 2.623 0 00-1.328-.368 2.27 2.27 0 00-.979.18c-.309.132-.587.33-.812.582l-.064-.06.064.06-.151.168v-.85h-.918v.863h.046zM136.219 1.352a.652.652 0 01.456.181c.123.118.197.28.205.45a.694.694 0 01-.211.445.646.646 0 01-.904.006.666.666 0 01-.203-.45.647.647 0 01.41-.59.626.626 0 01.247-.042zm-.528 2.704h1.042v8.097h-1.042V4.056z"></path><path d="M135.618 12.24V3.982h1.221v8.274l-1.221-.014zm.179-.18h.863V4.162h-.858v7.898h-.005zm-.321-10.076a.74.74 0 01.222-.52.726.726 0 01.521-.205v.186a.533.533 0 00-.52.325.539.539 0 00-.044.214.573.573 0 00.176.383.56.56 0 00.388.155.61.61 0 00.556-.539.567.567 0 00-.569-.539V1.26a.747.747 0 01.516.211c.14.135.222.319.232.514a.784.784 0 01-.235.51.763.763 0 01-.513.214.735.735 0 01-.518-.209.752.752 0 01-.226-.515h.014zM142.848 5.807a2.764 2.764 0 00-1.891-.748c-.896 0-1.602.441-1.602 1.087 0 .646.72 1.245 1.698 1.394 1.423.241 2.557 1.328 2.557 2.494 0 1.31-1.212 2.23-2.686 2.23a3.583 3.583 0 01-1.485-.335 3.627 3.627 0 01-1.218-.924l.817-.618a2.738 2.738 0 001.836.813c.918 0 1.666-.487 1.666-1.166 0-.599-.831-1.245-1.68-1.472-1.377-.228-2.575-1.343-2.575-2.444 0-1.282 1.262-2.155 2.754-2.155a3.788 3.788 0 012.69 1.198l-.881.646z"></path><path d="M138.151 11.075l-.059-.074.95-.72.06.055c.47.481 1.104.762 1.772.785.918 0 1.574-.464 1.574-1.073 0-.515-.785-1.175-1.602-1.393-1.428-.237-2.644-1.366-2.653-2.537 0-1.347 1.326-2.244 2.823-2.244a3.862 3.862 0 012.754 1.227l.069.074-.95.692-.06.047-.05-.051a2.711 2.711 0 00-1.837-.72c-.872 0-1.505.422-1.51.994 0 .557.67 1.161 1.621 1.314 1.455.251 2.63 1.357 2.634 2.588 0 1.394-1.271 2.323-2.754 2.323a3.667 3.667 0 01-2.754-1.296l-.028.009zm2.755 1.115c1.441 0 2.593-.897 2.598-2.142 0-1.105-1.097-2.17-2.488-2.406-.996-.167-1.758-.79-1.767-1.496 0-.73.771-1.175 1.689-1.175.696 0 1.369.254 1.896.715l.72-.525a3.728 3.728 0 00-2.557-1.092c-1.441 0-2.639.85-2.639 2.058 0 1.036 1.143 2.137 2.506 2.356.873.241 1.736.878 1.745 1.565 0 .758-.799 1.255-1.754 1.255a2.81 2.81 0 01-1.836-.78l-.675.51c.328.36.725.65 1.167.849.442.199.92.304 1.404.308h-.009zm1.923-6.383l.06-.07-.06.07zM147.117 1.124v3.043h2.051v1.087h-2.047v6.899h-1.028V5.254h-1.148V4.167h1.12V1.124h1.052z"></path><path d="M146.001 12.24v-.087-6.81h-1.147V4.078h1.101V1.03h1.253V4.08h2.048v1.268h-2.048v6.899l-1.207-.005zm1.042-.18V5.166h2.047V4.26h-2.047V1.217h-.904V4.26h-1.102v.906h1.152v6.894h.863-.009zM153.181 3.981c2.066 0 3.728 1.858 3.728 4.181s-1.662 4.181-3.728 4.181c-2.065 0-3.778-1.881-3.778-4.18 0-2.3 1.699-4.182 3.778-4.182zm0 7.266c1.455 0 2.653-1.394 2.653-3.076 0-1.681-1.198-3.107-2.653-3.107s-2.704 1.393-2.704 3.107c0 1.715 1.199 3.057 2.704 3.057v.019z"></path><path d="M149.315 8.162c0-2.36 1.731-4.283 3.866-4.288v.186c-2.025 0-3.673 1.83-3.673 4.102 0 2.235 1.662 4.065 3.673 4.07 2.006 0 3.64-1.83 3.64-4.07 0-2.271-1.634-4.097-3.64-4.102v-.186c2.12 0 3.814 1.928 3.819 4.288 0 2.323-1.699 4.25-3.819 4.25-2.135 0-3.861-1.922-3.866-4.25zm1.07 0c0-1.756 1.23-3.2 2.796-3.2 1.514 0 2.754 1.444 2.754 3.2 0 1.728-1.23 3.164-2.754 3.168v-.18c1.377 0 2.566-1.348 2.566-2.988 0-1.677-1.171-3.015-2.566-3.02-1.446 0-2.612 1.343-2.612 3.02 0 1.64 1.166 2.983 2.612 2.987v.181c-1.566 0-2.791-1.44-2.796-3.168z"></path></g></svg>
