<svg fill="#000" xmlns="http://www.w3.org/2000/svg" width="70" height="33.64" viewBox="0 0 353.8 170.1"><path d="M57.8 170.1c19.1 0 30.3-5.3 35.1-8.4 2.6-1.7 4.5-3.1 6.4-3.1 2.1 0 2.9 1.7 3.6 3.3l2.2 5.3h13.6V83.8c0-26.5-17.9-38.7-58-38.7-27.2 0-43 6-53 12.2l-5.6 28C12.9 75.7 32.5 70 60.7 70c23.6 0 32.7 4.5 32.7 19.1V101c-7.9-3.1-16.2-4.5-35.6-4.5-34.9 0-57.8 9.1-57.8 34.9 0 25.8 20.1 38.7 57.8 38.7zm.7-25.6c-21.5 0-33.2-4.3-33.2-13.1 0-9.1 14.6-10 33.2-10 15.3 0 29.4 1.7 34.9 5v6.2c0 6.9-7.9 11.9-34.9 11.9zm157.7-69.7l-3.8-28.4c-2.1-.7-9.1-1.2-16.2-1.2-11.2 0-18.6 1.4-26 5.3-1.4.7-3.6 2.6-5.3 2.6-1.7 0-2.2-1.4-2.9-3.3l-.7-1.9H142l-.5 119.4h25.8V76.7c7.6-3.3 16.2-4.3 24.1-4.3 9.3 0 21.9 1.2 24.8 2.4zm16 92.4h25.6v-42.8c6.9-8.4 18.2-15.3 31.3-15.5l33.4 58.3h31.3l-46.3-78.1 44.2-41.3H319l-54 45.6c-2.6 2.4-5.7 5.7-7.2 5.7-1 0-1.4-.2-1.4-1.2 0-1.2 1.4-2.1 1.4-6.4V0h-25.6v167.2z"></path></svg>
