<svg width="70" height="35" viewBox="0 0 70 35" fill="none" xmlns="http://www.w3.org/2000/svg">
<g clip-path="url(#clip0_506_313)">
<path d="M11.4461 34.3659C15.2234 34.3659 17.4384 33.3177 18.3877 32.7047C18.9019 32.3685 19.2776 32.0916 19.6534 32.0916C20.0687 32.0916 20.2269 32.4278 20.3653 32.7442L20.8004 33.7924H23.49V17.2987C23.49 12.0579 19.95 9.64514 12.0196 9.64514C6.64036 9.64514 3.51566 10.8317 1.538 12.0579L0.430506 17.5953C2.56638 15.6968 6.44259 14.5695 12.0196 14.5695C16.6869 14.5695 18.4865 15.4595 18.4865 18.3468V20.7003C16.9242 20.0872 15.2827 19.8103 11.4461 19.8103C4.54404 19.8103 0.0151978 21.61 0.0151978 26.7123C0.0151978 31.8147 3.99029 34.3659 11.4461 34.3659ZM11.5845 29.3031C7.33254 29.3031 5.01868 28.4527 5.01868 26.7123C5.01868 24.9127 7.90606 24.7347 11.5845 24.7347C14.6103 24.7347 17.3988 25.0709 18.4865 25.7235V26.9497C18.4865 28.3143 16.9242 29.3031 11.5845 29.3031ZM42.7722 15.5188L42.0207 9.90224C41.6054 9.7638 40.221 9.66492 38.8169 9.66492C36.6019 9.66492 35.1384 9.94179 33.675 10.7131C33.3981 10.8515 32.963 11.2273 32.6268 11.2273C32.2906 11.2273 32.1917 10.9504 32.0533 10.5746L31.9149 10.1989H28.098L27.9991 33.8121H33.1015V15.8945C34.6045 15.2419 36.3053 15.0442 37.8676 15.0442C39.7068 15.0442 42.1987 15.2815 42.7722 15.5188ZM45.9365 33.7924H50.9993V25.328C52.3639 23.6668 54.5986 22.3022 57.1894 22.2626L63.7947 33.7924H69.9848L60.8282 18.3468L69.5695 10.1791H63.1026L52.4232 19.1972C51.909 19.6719 51.2959 20.3245 50.9993 20.3245C50.8015 20.3245 50.7224 20.285 50.7224 20.0872C50.7224 19.8499 50.9993 19.6719 50.9993 18.8215V0.725891H45.9365V33.7924Z" fill="#1C1E26"/>
</g>
<defs>
<clipPath id="clip0_506_313">
<rect width="70" height="33.64" fill="white" transform="translate(0 0.725891)"/>
</clipPath>
</defs>
</svg>
