<svg width="40" height="65" viewBox="0 0 40 65" fill="none" xmlns="http://www.w3.org/2000/svg">
<g clip-path="url(#clip0_491_365)">
<mask id="mask0_491_365" style="mask-type:luminance" maskUnits="userSpaceOnUse" x="0" y="0" width="40" height="65">
<path d="M0 0H39.4014V64.3556H0V0Z" fill="white"/>
</mask>
<g mask="url(#mask0_491_365)">
<path d="M5.2374 29.1531C5.17257 29.2464 5.08479 29.3307 5.04389 29.4334C4.8409 29.9483 4.78454 30.4901 4.78554 31.0388C4.78554 31.2933 4.79052 31.5492 4.79252 31.8041C4.79252 31.8824 4.799 31.9662 4.6788 32.0166C4.63791 31.617 4.599 31.2309 4.5611 30.8448L4.52419 30.8423C4.51471 30.9101 4.50125 30.9775 4.49427 31.0468C4.46733 31.3242 4.44289 31.6021 4.41347 31.8784C4.41047 31.9094 4.38653 31.9393 4.35362 32.0082C4.32968 31.9338 4.30624 31.8974 4.30624 31.862C4.31072 31.64 4.32269 31.418 4.32519 31.1945C4.32519 31.1147 4.30374 31.0333 4.30624 30.953C4.31621 30.7175 4.33915 30.4821 4.34614 30.2461C4.35511 29.8954 4.5187 29.5891 4.62045 29.2643C4.64888 29.1745 4.6788 29.0867 4.70524 28.9989C4.71222 28.977 4.7192 28.9445 4.70823 28.9281C4.62444 28.8103 4.6813 28.7185 4.75461 28.6262C4.76409 28.6138 4.76658 28.5948 4.78005 28.5569C4.61795 28.6562 4.55811 28.8113 4.48529 28.946C4.35262 29.191 4.2389 29.4469 4.1222 29.7003C3.97506 30.0216 3.92619 30.3653 3.88429 30.7111C3.8803 30.7475 3.8828 30.7864 3.87083 30.8208C3.85287 30.8747 3.77606 30.8857 3.75412 30.8358C3.70823 30.7295 3.6394 30.6297 3.66235 30.502C3.7202 30.1728 3.76908 29.8425 3.85586 29.5192C3.95462 29.1501 4.07531 28.7929 4.26983 28.4666C4.35811 28.3169 4.47431 28.1857 4.57706 28.0475C4.60399 28.0111 4.63242 27.9747 4.68678 27.9029C4.53367 27.9423 4.47282 28.0316 4.41446 28.1114C4.22095 28.3798 4.03841 28.6562 3.92768 28.9675C3.83142 29.2359 3.75711 29.5108 3.67332 29.7831C3.66334 29.8116 3.65686 29.863 3.6419 29.8655C3.49826 29.8914 3.50125 30.0336 3.43492 30.1364C3.37507 30.0795 3.37257 30.0171 3.37407 29.9602C3.37906 29.6923 3.41746 29.4255 3.52419 29.18C3.66634 28.8567 3.80998 28.53 3.98803 28.2266C4.14115 27.9652 4.33716 27.7268 4.59751 27.5262C4.55561 27.5262 4.50274 27.5073 4.47132 27.5262C4.38105 27.5776 4.2808 27.6295 4.21447 27.7063C4.04489 27.9044 3.89078 28.1154 3.73267 28.3244C3.69078 28.3793 3.69477 28.3823 3.58803 28.4082C3.61098 28.1837 3.81746 28.067 3.88429 27.8325C3.58255 28.1453 3.39302 28.4881 3.201 28.8143C3.11021 28.8102 3.01944 28.8057 2.92868 28.8009L2.95312 28.5584C2.70674 28.8996 2.67881 29.2888 2.60898 29.6599C2.4429 29.6554 2.40649 29.62 2.401 29.4853C2.39003 29.2518 2.45387 29.0298 2.51073 28.8078C2.61896 28.3838 2.78504 27.9817 3.03542 27.6225C3.15512 27.4504 3.30225 27.2932 3.45786 27.1535C3.59751 27.0288 3.76659 26.937 3.92868 26.8263C3.75162 26.7405 3.55811 26.6716 3.37008 26.7614C3.22245 26.8303 3.09377 26.948 2.97357 27.0618C2.67033 27.3476 2.51721 27.7228 2.38504 28.1074C2.34016 28.2361 2.34115 28.2361 2.21846 28.2985C2.21298 28.1169 2.26834 27.9533 2.31821 27.7931C2.39153 27.5561 2.46983 27.3192 2.61746 27.1131C2.66734 27.0428 2.72021 26.9735 2.77307 26.9046C2.81896 26.8437 2.89876 26.8003 2.85138 26.6986C2.8434 26.6826 2.88529 26.6202 2.90724 26.6187C3.003 26.6108 2.99502 26.5359 3.02594 26.4561C2.78804 26.5225 2.62295 26.6786 2.42245 26.8422C2.41996 26.6691 2.51223 26.5983 2.59203 26.5294C2.67582 26.4576 2.77457 26.4022 2.86933 26.3439C2.9626 26.2855 3.05986 26.2341 3.16709 26.1732C2.94913 26.0919 2.75961 26.1353 2.59602 26.264C2.48081 26.3548 2.38604 26.4726 2.2818 26.5793C2.23293 26.6312 2.19951 26.7056 2.09926 26.6946C2.09527 26.6691 2.0828 26.6417 2.09078 26.6227C2.25487 26.2097 2.46883 25.9458 2.96958 25.9063C3.08429 25.8969 3.20499 25.9183 3.31871 25.9413C3.64589 26.0061 3.97207 26.0745 4.29277 26.1812C4.4808 26.2436 4.67032 26.299 4.85037 26.3818C4.94015 26.4222 5.02643 26.4716 5.11471 26.5175C5.28379 26.6093 5.46633 26.6646 5.64488 26.734C5.95611 26.8557 6.25635 27.0064 6.56408 27.1406C6.67082 27.188 6.79351 27.2054 6.88827 27.2678C7.17954 27.4559 7.46383 27.6564 7.74662 27.8585C7.99999 28.0381 8.24587 28.2276 8.49475 28.4122C8.50871 28.4217 8.52767 28.4232 8.56557 28.4337C8.54762 28.3728 8.54263 28.3239 8.52069 28.2835C8.41645 28.0939 8.31121 27.9044 8.19849 27.7188C7.99001 27.3746 7.78054 27.0303 7.56508 26.6906C7.37052 26.3806 7.16981 26.0746 6.96309 25.7726C6.64388 25.3132 6.31471 24.8607 5.98753 24.4067C5.94114 24.3419 5.87082 24.2945 5.82194 24.2306C5.6773 24.045 5.53915 23.8555 5.39601 23.6689C5.32818 23.5806 5.25636 23.4943 5.18354 23.41C4.999 23.2004 4.81396 22.9914 4.62993 22.7814C4.61347 22.7624 4.6 22.7395 4.58005 22.7275C4.37806 22.6013 4.21995 22.4361 4.06434 22.2535C3.89776 22.058 3.67033 21.9173 3.46883 21.7537C3.38754 21.6868 3.30474 21.622 3.21547 21.5501C3.2429 21.5152 3.26185 21.4718 3.27781 21.4728C3.35761 21.4783 3.41048 21.4419 3.47432 21.4C3.51721 21.3715 3.60699 21.385 3.66235 21.4079C3.85836 21.4923 4.02095 21.6289 4.17257 21.7776C4.2025 21.806 4.23591 21.8295 4.2793 21.8455C4.26882 21.796 4.24797 21.7493 4.21814 21.7084C4.18831 21.6676 4.15018 21.6335 4.10624 21.6085C4.0005 21.5421 3.89776 21.4798 3.88828 21.3291C3.88579 21.2917 3.80549 21.2413 3.75312 21.2293C3.6828 21.2129 3.60549 21.2278 3.53118 21.2264C3.48479 21.2264 3.43891 21.2214 3.39302 21.2199C3.37806 21.1291 3.42295 21.0966 3.4823 21.0882C3.60399 21.0722 3.72868 21.0637 3.85038 21.0492C3.89626 21.0438 3.94115 21.0273 3.98454 21.0123C4.0005 21.0073 4.01297 20.9799 4.02743 20.9799C4.1591 20.9759 4.24838 20.8951 4.34963 20.8228C4.57855 20.6646 4.81945 20.5224 5.05337 20.3718C5.08179 20.3543 5.11421 20.3189 5.11721 20.289C5.12768 20.1782 5.201 20.1418 5.28628 20.0899C5.41197 20.0156 5.5207 19.9138 5.63541 19.822C5.64887 19.811 5.66783 19.7881 5.66384 19.7786C5.60698 19.6324 5.73715 19.6175 5.81147 19.5661C5.84096 19.5435 5.87377 19.5257 5.90872 19.5132C6.12518 19.4414 6.17406 19.2677 6.17007 19.0717C6.16458 18.8482 6.14164 18.6247 6.13216 18.4012C6.11321 17.9213 6.1581 17.4463 6.25137 16.9744C6.32967 16.5793 6.39451 16.1822 6.46782 15.7856C6.52767 15.4613 6.57605 15.1355 6.65735 14.8182C6.68977 14.6935 6.78054 14.5733 6.87381 14.4795C6.97655 14.3752 7.11171 14.3024 7.2349 14.2201C7.33815 14.1502 7.43939 14.0804 7.54912 14.023C7.64089 13.9746 7.74263 13.9432 7.83839 13.8998C7.88877 13.8783 7.93864 13.8524 7.98303 13.8215C8.1566 13.7037 8.32867 13.583 8.50173 13.4623C8.5167 13.4518 8.53814 13.4463 8.54762 13.4323C8.66832 13.2687 8.83191 13.1605 9.02542 13.0791C9.00647 13.0278 8.993 12.9913 8.97954 12.9504C8.99949 12.9409 9.01595 12.9245 9.03091 12.926C9.11769 12.93 9.20547 12.93 9.28926 12.9459C9.37056 12.9629 9.44637 12.9519 9.49674 12.8951C9.59001 12.7893 9.6738 12.674 9.7551 12.5588C9.82991 12.4535 9.88776 12.3353 9.96607 12.2325C10.1666 11.9726 10.3735 11.7177 10.578 11.4603C10.597 11.4358 10.6159 11.4089 10.6404 11.3929C10.808 11.2777 10.9745 11.1599 11.1491 11.0557C11.2314 11.0058 11.3316 10.9838 11.4234 10.9469C11.4848 10.9225 11.5456 10.8955 11.5945 10.8751C11.4533 10.446 11.3386 10.029 11.2219 9.61292C11.1131 9.21616 11.0683 8.80455 11.0893 8.39365C11.0947 8.28939 11.1152 8.18412 11.1391 8.08235C11.1476 8.04743 11.184 8.01849 11.2449 7.99555C11.2558 8.24199 11.2504 8.49143 11.2818 8.73638C11.3142 8.98732 11.3696 9.23776 11.4359 9.48171C11.5007 9.72117 11.593 9.95315 11.6753 10.1871C11.7606 10.4266 11.8623 10.6571 12.0613 10.8466C12.0558 10.7918 12.0543 10.7344 12.0434 10.68C11.9436 10.2091 11.8987 9.73215 11.9287 9.25272C11.9446 9.00628 12 8.76233 12.0489 8.51937C12.0977 8.27741 12.1561 8.03645 12.2184 7.795C12.3576 7.2587 12.5336 6.73438 12.7651 6.23051C12.8449 6.0559 12.9286 5.88129 13.006 5.70519C13.191 5.27864 13.4902 4.92643 13.7556 4.55128C13.9351 4.29535 14.1441 4.06337 14.405 3.88876C14.5541 3.78899 14.7122 3.70418 14.8638 3.58445C14.806 3.59642 14.7421 3.59642 14.6922 3.62336C14.4678 3.74509 14.2523 3.87529 14.0683 4.05788C13.8027 4.32025 13.5574 4.60243 13.3346 4.90199C13.0897 5.23375 12.9122 5.60342 12.7431 5.97857C12.6301 6.22771 12.5203 6.47834 12.4139 6.73039C12.379 6.8132 12.3212 6.83615 12.2224 6.8576C12.2523 6.73587 12.2763 6.63709 12.3022 6.53832C12.3331 6.42457 12.3601 6.31083 12.3995 6.19958C12.4484 6.05989 12.5007 5.9202 12.5621 5.78551C12.6718 5.54255 12.7865 5.30309 12.9042 5.06462C13.0558 4.75831 13.2099 4.44801 13.4389 4.19508C13.6094 4.0055 13.7461 3.77203 13.9975 3.66127C14.0693 3.62984 14.1157 3.56898 14.0598 3.47419L14.4848 3.24271C14.4823 3.23024 14.4783 3.21827 14.4753 3.20779C14.4119 3.21577 14.3456 3.21278 14.2858 3.23174C13.9815 3.3365 13.6673 3.42431 13.408 3.62486C13.2334 3.76005 13.0638 3.89824 12.9491 4.09879C12.7396 4.46447 12.5052 4.81668 12.2927 5.18136C12.2179 5.30808 12.179 5.45575 12.1262 5.59394C11.9626 6.02347 11.7985 6.45301 11.6404 6.88354C11.597 7.00028 11.578 7.1245 11.5386 7.24124C11.5047 7.34102 11.4888 7.45775 11.3396 7.51363C11.3356 7.45127 11.3262 7.41186 11.3331 7.37544C11.4818 6.63709 11.7037 5.9217 12.0124 5.23624C12.1301 4.97682 12.2912 4.73686 12.401 4.47395C12.5282 4.16913 12.7471 3.93516 12.9461 3.68273C13.0399 3.56499 13.1491 3.46771 13.3117 3.41483C13.4838 3.35795 13.6294 3.22525 13.7865 3.12598C13.7651 3.08407 13.7267 3.04216 13.7296 3.00275C13.7326 2.97182 13.7785 2.93091 13.8139 2.91495C13.9885 2.83613 14.1656 2.76578 14.3416 2.69145C14.3685 2.67898 14.393 2.66301 14.4199 2.64805C14.4997 2.60465 14.4523 2.50736 14.4972 2.45548C14.5351 2.41258 14.6134 2.41357 14.6015 2.31579C14.596 2.2689 14.6648 2.21302 14.7177 2.1362C14.6244 1.97905 14.4583 1.85034 14.2808 1.74208C13.8758 1.49514 13.4528 1.46271 13.0164 1.66076C12.9548 1.69007 12.8911 1.71492 12.8259 1.7351C12.804 1.74208 12.7596 1.72412 12.7511 1.70666C12.7431 1.6877 12.7581 1.63881 12.776 1.62933C12.9122 1.5575 13.0479 1.47368 13.194 1.42779C13.3671 1.37191 13.5496 1.32851 13.7406 1.36543C13.6908 1.32765 13.6338 1.30036 13.5731 1.28518C13.5124 1.27001 13.4493 1.26727 13.3875 1.27712C13.0883 1.32602 12.785 1.36243 12.5242 1.53854C12.4942 1.55899 12.4359 1.53754 12.3915 1.53455C12.4065 1.49264 12.4104 1.43826 12.4389 1.40883C12.5591 1.28012 12.7336 1.25567 12.8878 1.1988C13.2858 1.05113 13.3496 1.04415 13.7581 1.12846C13.9002 1.15839 14.0329 1.23672 14.1695 1.29309C14.197 1.30456 14.2209 1.31903 14.2683 1.34348C14.2563 1.24869 14.1985 1.20828 14.1536 1.16488C13.9895 1.00374 13.8284 0.8426 13.585 0.799197C13.4508 0.776249 13.386 0.695929 13.4224 0.639556C13.4823 0.54876 13.574 0.586675 13.6419 0.616108C13.8394 0.702914 14.0668 0.701417 14.2469 0.841103C14.3835 0.948363 14.5351 1.03367 14.7152 1.1524C14.6623 1.0646 14.6339 0.996754 14.588 0.943873C14.5336 0.881513 14.5067 0.826137 14.5566 0.735341C14.5905 0.754298 14.6214 0.762779 14.6409 0.782734C14.8394 0.995756 15.0384 1.20978 15.186 1.46421C15.397 1.82988 15.6109 2.19407 15.8219 2.55975C15.8867 2.67249 15.9396 2.79422 16.0099 2.90248C16.2224 3.23024 16.4364 3.5585 16.6598 3.87928C16.7261 3.97407 16.8264 4.04441 16.9077 4.12873C17.2119 4.44551 17.5152 4.7638 17.8194 5.08059C17.8264 5.08757 17.8414 5.08608 17.8793 5.09306C17.8593 5.02122 17.8468 4.95737 17.8239 4.898C17.775 4.77727 17.7291 4.65405 17.6653 4.5403C17.564 4.35572 17.6069 4.15018 17.5665 3.95761C17.5596 3.92668 17.58 3.88178 17.6015 3.85484C17.6314 3.82092 17.6748 3.79797 17.7127 3.77103C17.7371 3.80894 17.7735 3.84386 17.786 3.88577C17.8992 4.27989 18.0468 4.65903 18.2473 5.01823C18.2553 5.0332 18.2673 5.04666 18.2922 5.05115C18.2583 4.9414 18.2204 4.83264 18.192 4.7204C18.1187 4.43304 18.0498 4.14619 17.9805 3.85883C17.9765 3.84137 17.971 3.81992 17.978 3.80345C17.99 3.77103 18.0119 3.71366 18.0254 3.71515C18.0618 3.71964 18.1147 3.7386 18.1281 3.76704C18.174 3.86831 18.2054 3.97557 18.2428 4.08133L18.3895 4.47245C18.4977 4.44551 18.5491 4.49141 18.584 4.58919C18.6399 4.74085 18.7102 4.88553 18.778 5.0317C18.7979 5.07624 18.8252 5.11707 18.8588 5.15243C18.8667 4.97652 18.8401 4.80077 18.7805 4.63509C18.7221 4.47395 18.6927 4.30184 18.6478 4.13521C18.6289 4.06337 18.6005 3.99453 18.5855 3.92119C18.5065 3.53249 18.4658 3.13699 18.4638 2.74034C18.4638 2.62909 18.4788 2.51684 18.4897 2.40559C18.4923 2.37495 18.5039 2.34576 18.5231 2.32178C18.5411 2.30133 18.576 2.27938 18.599 2.28187C18.6239 2.28486 18.6518 2.3148 18.6613 2.33924C18.6738 2.37316 18.6698 2.41258 18.6738 2.44899C18.6992 2.7134 18.7062 2.9813 18.7546 3.24122C18.7925 3.44326 18.8832 3.63533 18.981 3.82391C18.9536 3.68023 18.9241 3.53506 18.8997 3.39188C18.8748 3.2467 18.8413 3.10053 18.8389 2.95436C18.8349 2.69544 18.7955 2.43153 18.8957 2.1796C18.9107 2.13969 18.9052 2.09379 18.9117 2.05089C18.9266 1.96558 18.9591 1.91819 19.0633 1.94363C19.1107 1.9561 19.1715 1.91819 19.2314 1.90023C19.388 1.9586 19.4508 2.07384 19.4154 2.24695C19.4069 2.28786 19.4204 2.33126 19.4234 2.37466C19.4344 2.53281 19.5142 2.68447 19.4628 2.85009C19.4573 2.86606 19.4653 2.88651 19.4693 2.90497C19.5276 3.15341 19.584 3.40136 19.6493 3.64631C19.6668 3.71266 19.7092 3.77203 19.7551 3.8294C19.8024 3.6044 19.763 3.38639 19.7441 3.16938C19.7157 2.85508 19.6723 2.54229 19.6443 2.22649C19.6184 1.93814 19.6398 1.6443 19.5775 1.35994C19.5047 1.03068 19.3501 0.757292 19.0339 0.601641C18.9715 0.570211 18.9172 0.524314 18.8643 0.487397C18.9052 0.39261 18.962 0.396601 19.0174 0.414561C19.2972 0.502364 19.5211 0.65552 19.6234 0.945369C19.6793 1.10102 19.7321 1.25717 19.8144 1.41432C19.8214 1.36243 19.8169 1.30706 19.8389 1.26366C19.8578 1.22724 19.9077 1.20529 19.9566 1.16637C19.9336 0.893985 19.8389 0.662504 19.5576 0.541775C19.5054 0.520389 19.4562 0.492568 19.4109 0.458961C19.3785 0.434516 19.3301 0.380637 19.3381 0.363176C19.388 0.253422 19.3122 0.177593 19.2703 0.0828054C19.4019 0.0279286 19.5152 -0.0369259 19.6603 0.0244364C19.7416 0.059358 19.8319 0.101763 19.9266 0.0379062C19.9496 0.0229398 19.997 0.0404006 20.0324 0.0473849C20.172 0.0758211 20.3097 0.111242 20.4493 0.132693C20.8743 0.19655 21.2029 0.3971 21.383 0.799197C21.4628 0.977797 21.5805 1.14841 21.5561 1.36293C21.5521 1.39386 21.575 1.44525 21.6009 1.45772C21.8403 1.57546 21.9137 1.80394 21.969 2.03143C22.0259 2.2699 22.1366 2.48392 22.2249 2.70891C22.2817 2.85259 22.3331 2.99876 22.3925 3.14094C22.4508 3.27763 22.5211 3.40934 22.5795 3.54603C22.6942 3.81992 22.7999 4.0948 22.8867 4.38066C22.968 4.65005 22.965 4.91446 22.977 5.18635C22.995 5.57548 23.0299 5.96361 23.0528 6.35273C23.0638 6.53233 23.0598 6.71292 23.0708 6.89152C23.0757 6.98631 23.1007 7.0811 23.1166 7.17489L23.1615 7.17738C23.2209 7.00976 23.2912 6.84563 23.3371 6.67501C23.5052 6.0534 23.8339 5.51561 24.1775 4.98031C24.3331 4.73935 24.5186 4.52384 24.6852 4.29385C24.9499 3.92676 25.2479 3.5849 25.5755 3.27265C25.8234 3.03817 26.0413 2.77277 26.2782 2.52632C26.3416 2.46147 26.4229 2.41108 26.5002 2.36069C26.8358 2.14967 27.2049 2.06685 27.5989 2.07783C27.7545 2.08182 27.9101 2.08282 28.0643 2.07234C28.1939 2.06286 28.3146 2.02744 28.4124 1.91918C28.6059 1.70417 28.8697 1.62784 29.1456 1.59541C29.4667 1.5565 29.786 1.58743 30.1052 1.62285C30.3436 1.64829 30.4882 1.78399 30.5805 1.98703C30.6548 2.14967 30.7251 2.31629 30.7859 2.48591C30.8578 2.68596 30.8199 2.8905 30.7914 3.09455C30.7795 3.17936 30.778 3.26566 30.7765 3.35097C30.767 3.65429 30.7795 3.9606 30.7441 4.26143C30.7226 4.44801 30.6239 4.62411 30.567 4.8072C30.5007 5.01972 30.4423 5.23524 30.3785 5.44926C30.361 5.50763 30.3336 5.564 30.3086 5.61988C30.2757 5.68623 30.2393 5.74959 30.2054 5.81444C30.1934 5.83639 30.1894 5.86483 30.173 5.88129C29.9635 6.09282 29.8498 6.38017 29.6114 6.57224C29.5042 6.65855 29.4219 6.78327 29.347 6.904C29.1929 7.15044 29.0593 7.41285 28.978 7.68973C28.9007 7.95613 28.752 8.18662 28.6628 8.44304C28.5785 8.68101 28.5341 8.93294 28.4568 9.1754C28.4031 9.34068 28.3376 9.5019 28.2608 9.65781C28.154 9.88131 28.0333 10.0993 27.9196 10.3198C27.9007 10.3577 27.8643 10.4066 27.8747 10.4366C27.9246 10.5763 27.8279 10.6436 27.752 10.7209C27.6528 10.8207 27.5491 10.9135 27.4229 10.9863C27.2513 11.0866 27.1291 11.2368 27.0373 11.4224C26.983 11.5321 26.9326 11.6553 26.8209 11.7381C26.7665 11.7776 26.6912 11.8399 26.7206 11.9626C26.7989 11.9212 26.8683 11.8858 26.9356 11.8479C27.3027 11.6364 27.6952 11.4837 28.0957 11.3465C28.3461 11.2602 28.6074 11.2343 28.8673 11.2423C29.169 11.2522 29.4583 11.1774 29.755 11.1584C30.1231 11.1355 30.4398 10.9459 30.7889 10.8606C30.9076 10.8307 31.0323 10.8022 31.154 10.8022C31.6079 10.8022 32.0598 10.8102 32.5131 10.8267C32.6468 10.8317 32.7795 10.8766 32.9151 10.8965C33.2034 10.9389 33.4912 10.9784 33.781 11.0123C33.8797 11.0242 33.98 11.0133 34.0787 11.0228C34.2074 11.0337 34.3361 11.0517 34.4627 11.0716C34.5296 11.0826 34.5944 11.1165 34.6608 11.1215C34.8039 11.1325 34.9016 11.2163 34.9924 11.3101C35.0762 11.3984 35.0897 11.4797 35.0209 11.5795C34.9388 11.6965 34.8953 11.8362 34.8962 11.9791C34.8947 12.1637 34.7026 12.3912 34.5321 12.4301C34.4822 12.4426 34.4223 12.4276 34.371 12.4111C34.3061 12.3922 34.2463 12.3533 34.1814 12.3353C34.0637 12.3029 33.9785 12.3777 34.0044 12.4949C34.0343 12.6346 34.0827 12.7489 34.2373 12.8257C34.4144 12.9165 34.6054 12.9245 34.7854 12.9843C35.0612 13.0776 35.2059 13.3595 35.0872 13.6224C35.0612 13.6803 34.9974 13.7212 34.9515 13.7701C34.8892 13.8374 34.8189 13.8988 34.7665 13.9731C34.6877 14.0844 34.6268 14.2086 34.5495 14.3213C34.4388 14.4835 34.2982 14.6107 34.0977 14.6596C34.0762 14.6651 34.0573 14.687 34.0204 14.7115C34.0478 14.7549 34.0637 14.8023 34.0977 14.8307C34.2358 14.9469 34.375 15.0622 34.5216 15.1665C34.5904 15.2153 34.6757 15.2463 34.758 15.2732C34.8842 15.3166 34.9909 15.382 35.0817 15.4822C35.144 15.5496 35.2184 15.608 35.2942 15.6618C35.4064 15.7417 35.4428 15.8804 35.3131 15.9871C35.1101 16.1537 34.8962 16.261 34.6213 16.261C34.3061 16.261 33.9909 16.2959 33.6752 16.3244C33.5823 16.3336 33.4919 16.3603 33.4089 16.4032C33.1884 16.5169 32.957 16.5179 32.7186 16.5074C32.5211 16.4995 32.3236 16.5035 32.1256 16.5035C31.95 16.5035 31.781 16.4815 31.6159 16.4127C31.4667 16.3503 31.3381 16.3693 31.2084 16.4885C30.8333 16.8337 30.56 17.2578 30.2648 17.6658C30.2583 17.6748 30.2473 17.6858 30.2463 17.6968C30.2244 18.0096 30.0348 18.2899 30.0717 18.6137C30.0892 18.7764 30.0633 18.9295 30.0149 19.0877C29.95 19.2962 29.8618 19.5212 29.9351 19.7377C29.9795 19.8709 29.9969 20.0021 30.0229 20.1348C30.0293 20.1712 30.0323 20.2096 30.0278 20.2461C29.9835 20.6506 29.6722 20.8078 29.3027 20.6197C29.248 20.5966 29.1876 20.5909 29.1296 20.6033C29.0712 20.6142 29.0174 20.6521 28.9575 20.6806C28.9725 20.8337 28.9994 20.9624 29.17 21.0193C29.2418 21.0438 29.3017 21.1091 29.3625 21.1615C29.4273 21.2184 29.4857 21.2832 29.5505 21.3401C29.6018 21.382 29.6392 21.4385 29.6575 21.5022C29.6759 21.5658 29.6744 21.6335 29.6533 21.6963C29.6324 21.7588 29.5935 21.8138 29.5415 21.8544C29.4895 21.8949 29.4267 21.9192 29.361 21.9243C29.0618 21.9542 29.0578 21.9592 29.0997 22.2491C29.1171 22.3723 29.1226 22.4955 29.1391 22.6187C29.1755 22.8966 29.0278 23.0742 28.8199 23.2229C28.7166 23.2977 28.6084 23.3072 28.5057 23.2408C28.4444 23.1979 28.3731 23.1715 28.2987 23.1641C28.2242 23.1568 28.1492 23.1688 28.0807 23.1989C28.0523 23.2109 28.0159 23.2299 27.9929 23.2204C27.8169 23.15 27.6827 23.2608 27.5341 23.3137C27.4877 23.3301 27.4363 23.3546 27.3929 23.3451C27.2173 23.3117 27.0439 23.2674 26.8737 23.2124C26.7885 23.1825 26.7316 23.181 26.6842 23.2598C26.6328 23.3436 26.5715 23.403 26.4608 23.3925C26.4244 23.3885 26.3825 23.4264 26.3431 23.4439C26.3037 23.4628 26.2633 23.4978 26.2254 23.4953C26.0778 23.4842 25.9306 23.5213 25.8059 23.601C25.7012 23.6659 25.5959 23.7307 25.4822 23.7771C25.3825 23.819 25.2727 23.846 25.164 23.8569C25.1236 23.8609 25.0558 23.815 25.0343 23.7741C24.964 23.6389 24.8314 23.5861 24.7027 23.4778C24.7341 23.5711 24.761 23.6334 24.7745 23.6983C24.8194 23.9218 24.7027 24.0575 24.4752 24.0844C24.2967 24.1064 24.1291 24.0969 23.9705 24.0096C23.8922 23.9682 23.8458 24.0061 23.7959 24.063C23.7097 24.1618 23.6563 24.1658 23.5984 24.063C23.4618 23.8215 23.2982 23.589 23.355 23.2812C23.3765 23.162 23.3251 23.0418 23.2683 22.9131C23.2508 23.0927 23.2169 23.2528 23.2234 23.41C23.2289 23.5441 23.2817 23.6754 23.3117 23.8081C23.3291 23.8869 23.355 23.9667 23.355 24.045C23.355 24.2092 23.1521 24.3473 23.0084 24.277C22.957 24.2511 22.9152 24.1767 22.9012 24.1174C22.8655 23.9596 22.8407 23.7996 22.8269 23.6384C22.8149 23.4928 22.8039 23.3586 22.6578 23.2718C22.6144 23.2458 22.589 23.17 22.5795 23.1131C22.5605 23.0034 22.563 22.8901 22.5496 22.7789C22.4887 22.2436 22.3735 21.7182 22.2912 21.1874C22.2759 21.077 22.274 20.9651 22.2857 20.8542C22.2957 20.7941 22.2822 20.7324 22.2478 20.6821C22.2059 20.6172 22.1665 20.5359 22.168 20.4626C22.172 20.2461 22.1042 20.0465 22.0448 19.845C22.0164 19.7517 21.9895 19.6564 21.9526 19.5656C21.981 19.835 22.0084 20.1049 22.0393 20.3733C22.0473 20.4411 22.0638 20.5075 22.0787 20.5738C22.1137 20.7335 22.1356 20.8866 22.0688 21.0492C22.0393 21.1221 22.0583 21.2199 22.0733 21.3022C22.1112 21.5167 22.1531 21.7277 22.0932 21.9457C22.0842 21.9797 22.0907 22.0206 22.0947 22.057C22.1112 22.2166 22.1166 22.3713 22.0937 22.5349C22.0688 22.707 22.1112 22.8941 22.1486 23.0687C22.1895 23.2623 22.2004 23.4464 22.1341 23.6374C22.1112 23.7038 22.1261 23.7836 22.1176 23.8569C22.1082 23.9547 22.1002 24.0535 22.0772 24.1483C22.0693 24.1832 22.0204 24.2376 21.9935 24.2361C21.8758 24.2281 21.8403 24.3229 21.7755 24.3823C21.7079 24.446 21.6344 24.5033 21.5561 24.5534C21.4643 24.6103 21.4064 24.5858 21.3665 24.4895C21.356 24.4668 21.3493 24.4426 21.3466 24.4177C21.3301 24.0435 21.1191 23.7402 20.981 23.4114C20.9446 23.3246 20.8902 23.2473 20.778 23.2314C20.7092 23.3072 20.7226 23.396 20.7496 23.4763C20.8269 23.6983 20.9177 23.9168 20.9975 24.1373C21.1042 24.4342 21.2069 24.732 21.3072 25.0303C21.39 25.2748 21.4658 25.5217 21.5441 25.7687C21.5521 25.7911 21.563 25.8141 21.57 25.8385C21.6359 26.077 21.6972 26.3154 21.7675 26.5524C21.8024 26.6716 21.7825 26.7759 21.7077 26.8682C21.568 27.0403 21.5281 27.2259 21.579 27.4439C21.6039 27.5492 21.597 27.6644 21.5875 27.7742C21.5645 28.0386 21.6324 28.3065 21.5645 28.5679C21.5496 28.6277 21.5276 28.6876 21.5077 28.7455C21.4763 28.8303 21.4194 28.8782 21.3246 28.8752C21.165 28.8712 21.0733 28.9525 21.0269 29.1032C20.9431 29.3766 20.8553 29.6475 20.7685 29.9198C20.7361 30.0196 20.6967 30.1174 20.6698 30.2177C20.5925 30.505 20.5301 30.7949 20.4438 31.0792C20.4019 31.2199 20.3192 31.3476 20.2568 31.4833C20.2244 31.5547 20.2054 31.636 20.1635 31.7023C20.1097 31.7901 20.0403 31.8705 19.973 31.9518C19.9331 31.9977 19.8887 32.0381 19.8309 32.0979C20.0379 32.4931 20.2448 32.8812 20.4438 33.2723C20.6872 33.7532 20.9271 34.2381 21.165 34.7231C21.2613 34.9191 21.3451 35.1197 21.5092 35.2728C21.5401 35.3028 21.5725 35.3377 21.586 35.3771C21.6608 35.6061 21.7955 35.7996 21.9311 35.9932C22.0059 36.1005 22.0907 36.1978 22.172 36.2995C22.1989 36.3334 22.2329 36.3619 22.2588 36.3968C22.4982 36.7291 22.7391 37.0578 22.973 37.3926C23.0762 37.5402 23.1805 37.6904 23.2548 37.853C23.3127 37.9803 23.3246 38.1269 23.3575 38.2651C23.4144 38.5061 23.4034 38.7376 23.4563 38.98C23.4877 39.1182 23.4483 39.2604 23.4713 39.4001C23.4822 39.4649 23.4997 39.5068 23.4413 39.5208C23.2937 39.5542 23.3506 39.664 23.3401 39.7952C23.3266 39.9608 23.3052 40.1354 23.2344 40.2816C23.1868 40.3867 23.148 40.4955 23.1181 40.6069C23.0891 40.7139 23.0472 40.8171 22.9935 40.9142C22.9152 41.0489 22.8797 41.0514 22.7376 40.99C22.7147 40.9805 22.6892 40.9601 22.6698 40.9655C22.5007 41.0144 22.3142 41.0214 22.2059 41.2015C22.0463 41.4669 21.8743 41.7243 21.7092 41.9858C21.6901 42.0177 21.675 42.0519 21.6643 42.0875C21.6531 42.1331 21.628 42.1741 21.5924 42.2047C21.5568 42.2353 21.5125 42.254 21.4658 42.2581C21.3341 42.2771 21.2433 42.3579 21.169 42.4637C21.1231 42.53 21.0693 42.5899 21.0174 42.6523C20.9975 42.6767 20.9625 42.6927 20.9541 42.7201C20.8553 43.0449 20.5127 43.1277 20.3246 43.3647C20.2543 43.4545 20.1516 43.3996 20.0783 43.42C19.9785 43.4989 19.8728 43.5717 19.7805 43.6585C19.7142 43.7209 19.6618 43.8007 19.6074 43.8765C19.5177 44.0037 19.4802 44.0212 19.3491 43.9429C19.1675 43.8331 19.0039 43.8566 18.8533 43.9918C18.786 44.0526 18.7236 44.0756 18.6359 44.0406C18.599 44.0257 18.5516 44.0446 18.5087 44.0431C18.4094 44.0431 18.377 43.9893 18.4219 43.8955C18.432 43.8727 18.4456 43.8516 18.4623 43.8331C18.5301 43.7573 18.5436 43.6899 18.4623 43.6071C18.3785 43.5218 18.3855 43.4225 18.4463 43.3173C18.5411 43.1521 18.5396 43.0953 18.391 43.007C18.2404 42.9192 18.1591 42.785 18.0768 42.6478C18.0034 42.525 17.9142 42.4342 17.7725 42.3923C17.714 42.3712 17.6621 42.3351 17.6219 42.2876C17.5476 42.2068 17.4673 42.1509 17.3526 42.1429C17.2149 42.1319 17.1147 42.0656 17.0414 41.9384C16.9955 41.857 16.9077 41.7987 16.8344 41.7353C16.7466 41.6595 16.6478 41.5941 16.5636 41.5143C16.4379 41.3966 16.3391 41.2459 16.1546 41.204C16.1132 41.1945 16.0713 41.1811 16.0289 41.1796C15.8723 41.1731 15.8059 41.1227 15.7705 40.974C15.7516 40.8952 15.7286 40.8154 15.7286 40.7371C15.7286 40.6338 15.6773 40.5799 15.599 40.531C15.4783 40.4552 15.3621 40.3714 15.2444 40.2901C15.1198 40.2062 15.016 40.095 14.9411 39.9648C14.8888 39.8813 14.8276 39.8036 14.7586 39.7333C14.6593 39.626 14.6553 39.5313 14.78 39.4554C14.8897 39.3891 15.0114 39.3392 15.1331 39.2973C15.2563 39.2549 15.2823 39.2294 15.2728 39.1007C15.2451 38.7592 15.1585 38.425 15.0169 38.1129C14.9002 37.849 14.7162 37.6161 14.5596 37.3711C14.4459 37.1935 14.3281 37.0189 14.2114 36.8443C14.1466 36.7465 14.0788 36.6502 14.0124 36.553C13.8947 36.3783 13.781 36.1992 13.6593 36.0286C13.6065 35.9538 13.5346 35.8934 13.4728 35.8241C13.4444 35.7917 13.4159 35.7592 13.393 35.7243C13.3681 35.6884 13.3521 35.6465 13.3267 35.6126C13.175 35.411 13.0259 35.205 12.8663 35.0089C12.6823 34.7824 12.4873 34.5659 12.2977 34.3434C12.0803 34.089 11.8364 33.8505 11.6553 33.5731C11.5107 33.3521 11.2898 33.2249 11.1217 33.0363C11.007 32.9066 10.9052 32.7669 10.8025 32.6303C10.7606 32.5744 10.7297 32.5165 10.6479 32.5125C10.5212 32.5055 10.4519 32.4242 10.3935 32.32C10.3207 32.1902 10.2384 32.0665 10.1611 31.9393C10.1177 31.8675 10.0613 31.835 9.97554 31.842C9.93215 31.8445 9.88876 31.832 9.84587 31.832C9.7142 31.831 9.6334 31.7607 9.60347 31.64C9.54662 31.4015 9.38951 31.2389 9.21096 31.0912C9.14861 31.0398 9.08128 30.9964 8.99051 31.0114C8.95659 31.0169 8.90772 31.0129 8.88577 30.9924C8.69525 30.8163 8.51021 30.6362 8.32069 30.4586C8.27072 30.4146 8.21826 30.3734 8.16358 30.3354C8.05385 30.2556 7.94313 30.1783 7.8359 30.0974C7.76622 30.0455 7.69976 29.9893 7.6369 29.9293C7.50357 29.7981 7.33555 29.7078 7.15261 29.6689C7.11321 29.6609 7.0778 29.626 7.04588 29.5991C6.86683 29.4459 6.73017 29.4484 6.58703 29.6245C6.35468 29.9079 6.17251 30.229 6.04837 30.5739C5.97256 30.7839 5.88179 30.9884 5.86134 31.2149C5.85336 31.3137 5.85187 31.414 5.8369 31.5113C5.81546 31.647 5.78703 31.7797 5.7571 31.9134C5.69376 32.2047 5.6394 32.4961 5.67631 32.7979C5.68917 32.8969 5.68917 32.9972 5.67631 33.0962C5.63142 33.4429 5.7182 33.7637 5.8778 34.063C6.04937 34.3883 6.25386 34.6901 6.56408 34.9071C6.78353 35.0603 6.99949 35.2184 7.20648 35.3866C7.395 35.5397 7.56009 35.7183 7.74912 35.869C8.03091 36.0935 8.32767 36.2995 8.61295 36.519C8.82941 36.6857 9.03889 36.8618 9.25036 37.0339L9.66831 37.3751C9.89425 37.5592 10.1177 37.7448 10.3476 37.9249C10.4289 37.9887 10.5277 38.0306 10.6129 38.0915C10.8349 38.2501 11.0409 38.4367 11.2763 38.5684C11.8149 38.8678 12.1586 39.3567 12.5401 39.8091C12.8525 40.1782 13.1551 40.5553 13.4479 40.9401C13.7002 41.2704 13.9301 41.6186 14.171 41.9573C14.2249 42.0331 14.2848 42.1035 14.3441 42.1768C14.5471 42.4273 14.7271 42.7007 14.9586 42.9202C15.3905 43.3307 15.8543 43.7074 16.3002 44.104C16.4997 44.2816 16.6867 44.4742 16.8788 44.6598C16.982 44.7585 17.0887 44.8533 17.1835 44.9601C17.4189 45.2245 17.6473 45.4939 17.8793 45.7608C17.9685 45.8636 18.0588 45.9653 18.1456 46.0711C18.177 46.109 18.2189 46.1549 18.2189 46.1968C18.2189 46.4263 18.3665 46.5789 18.4992 46.7291C18.7386 47 18.9536 47.2874 19.166 47.5787C19.4773 48.0077 19.7276 48.4727 19.9795 48.9372C20.2962 49.5208 20.6199 50.102 20.9406 50.6832C21.1256 51.0205 21.3221 51.3522 21.4967 51.6965C21.6453 51.9903 21.7675 52.2976 21.9067 52.5954C21.9989 52.792 22.1082 52.9816 22.1959 53.1806C22.2533 53.3093 22.2802 53.4515 22.3306 53.5842C22.3575 53.6591 22.4104 53.7224 22.4403 53.7957C22.4952 53.9324 22.5551 54.0691 22.59 54.2118C22.6523 54.4687 22.6902 54.7317 22.7526 54.9876C22.7966 55.1751 22.7966 55.3703 22.7526 55.5578C22.6594 55.9643 22.4929 56.3505 22.2613 56.6972C22.1491 56.8694 22.0623 57.0559 21.9516 57.2295C21.8109 57.4513 21.6054 57.6244 21.363 57.7254C21.2748 57.7633 21.1989 57.8322 21.1246 57.896C21.0124 57.9933 20.9027 58.0951 20.797 58.2004C20.7102 58.2887 20.6224 58.378 20.5546 58.4812C20.4626 58.6215 20.3446 58.7427 20.2069 58.8384C20.0663 58.9402 19.9416 59.0659 19.7955 59.1597C19.5601 59.3114 19.3326 59.47 19.1311 59.6661C19.0663 59.7284 18.9715 59.7599 18.8902 59.8073C18.8104 59.8547 18.7236 59.8966 18.6533 59.9559C18.4164 60.158 18.1281 60.2647 17.8503 60.3855C17.7355 60.4305 17.6099 60.4409 17.4892 60.4154C17.2479 60.3601 17.0102 60.29 16.7775 60.2054C16.6678 60.1674 16.569 60.0971 16.4703 60.0347C16.0818 59.7908 15.6962 59.5458 15.3052 59.2979C15.1316 59.486 14.9665 59.6661 14.7895 59.8596L14.7122 59.7489C14.7042 59.7544 14.6867 59.7609 14.6783 59.7743C14.6409 59.8382 14.6015 59.902 14.5715 59.9709C14.4838 60.1739 14.3306 60.3002 14.1142 60.3366C13.995 60.357 13.9666 60.4573 13.9047 60.5396C13.6434 60.5182 13.5257 60.6918 13.4334 60.8988C13.4104 60.9517 13.4134 61.0245 13.3172 61.045C13.2944 60.925 13.3017 60.8012 13.3386 60.6848C13.39 60.5261 13.4384 60.365 13.4783 60.2024C13.5162 60.0427 13.4065 59.7773 13.2603 59.6716C13.1586 60.0442 13.1656 60.4478 12.8878 60.8025V60.383C12.8269 60.5316 12.781 60.6399 12.7391 60.7496C12.7132 60.819 12.6743 60.8514 12.604 60.8175C12.5486 60.8868 12.5661 61.0235 12.4209 60.9921C12.406 60.9896 12.382 61.034 12.3591 61.056C12.3262 61.0869 12.2912 61.1168 12.2424 61.1617C12.1506 60.9731 12.3656 60.8394 12.2738 60.6673C12.2179 60.7132 12.1541 60.7676 12.1002 60.6728C12.0099 60.7471 11.984 60.8325 11.9815 60.9382C11.977 61.0679 11.9351 61.1912 11.796 61.2819C11.786 61.2361 11.771 61.2036 11.776 61.1737C11.781 61.1318 11.8 61.0914 11.8109 61.049C11.8773 60.797 11.8688 60.7701 11.6743 60.5601C11.6469 60.579 11.6184 60.5995 11.601 60.6105C11.605 60.7157 11.6159 60.812 11.609 60.9068C11.6065 60.9382 11.5521 60.9936 11.5331 60.9896C11.4234 60.9627 11.2952 60.9866 11.2139 60.8759C11.1802 60.8271 11.1364 60.7861 11.0855 60.7557C11.0345 60.7253 10.9776 60.7062 10.9187 60.6998C10.888 60.6962 10.8583 60.6871 10.8309 60.6728C10.5197 60.4992 10.1745 60.4139 9.84188 60.2972C9.53465 60.1904 9.21894 60.1944 8.90123 60.2188C8.6359 60.2393 8.37455 60.2473 8.10672 60.1919C7.83341 60.135 7.56807 60.0547 7.29725 59.9928C6.89276 59.9005 6.52069 59.6945 6.09975 59.6731C5.90723 59.6636 5.71571 59.6501 5.52319 59.6581C5.35112 59.6651 5.17905 59.696 5.00748 59.7205C4.94364 59.7299 4.89526 59.711 4.87232 59.6501C4.85436 59.6052 4.84489 59.5563 4.83292 59.5159C4.86683 59.4426 4.97257 59.4441 4.96708 59.3438C4.96708 59.3194 5.05187 59.2829 5.10174 59.2665C5.17007 59.2435 5.24289 59.234 5.31321 59.2191C5.31321 59.2071 5.31321 59.1936 5.31471 59.1812C5.26583 59.1757 5.21596 59.1717 5.16708 59.1637C5.05736 59.1462 5.03192 59.0809 5.10474 58.9971C5.13394 58.965 5.16834 58.938 5.20648 58.9173C5.24987 58.8928 5.29825 58.8803 5.34314 58.8604C5.5177 58.7831 5.69227 58.7287 5.89127 58.7666C5.96857 58.7816 6.05785 58.7342 6.14413 58.7152C6.04937 58.4782 5.94663 58.4134 5.71022 58.4174C5.59202 58.4189 5.47282 58.4174 5.35661 58.4024C5.28778 58.3944 5.22244 58.362 5.11172 58.3266C5.18753 58.2642 5.22244 58.2168 5.26733 58.2019C5.42843 58.148 5.50025 58.0043 5.5975 57.8876C5.62444 57.8566 5.61247 57.7833 5.60149 57.7319C5.55162 57.491 5.49626 57.2495 5.44339 57.01C5.42294 56.9192 5.41097 56.826 5.38354 56.7377C5.34962 56.6279 5.32868 56.5221 5.36459 56.4084C5.37157 56.3894 5.35661 56.3625 5.35262 56.338C5.15361 56.4194 5.13217 56.4548 5.12668 56.6444C5.1212 56.8489 5.11022 57.0519 5.10174 57.2565C5.09975 57.3213 5.09177 57.3812 4.97656 57.3797C4.94364 57.1063 5.00349 56.8299 4.96259 56.5361L4.53117 56.815C4.51122 56.7446 4.49626 56.6972 4.47681 56.6309C4.42693 56.6768 4.37706 56.7122 4.33915 56.7581C4.29925 56.8055 4.25486 56.8514 4.20349 56.796C4.15511 56.7431 4.17656 56.6808 4.23342 56.6349C4.32519 56.5615 4.41746 56.4887 4.51072 56.4154C4.66234 56.2961 4.81496 56.1799 4.96459 56.0577C5.01297 56.0173 5.08179 55.9779 5.03042 55.8886C5.02095 55.8721 5.05337 55.8182 5.0793 55.8017C5.24588 55.695 5.32419 55.5294 5.38254 55.3523C5.41745 55.2465 5.4374 55.1367 5.46883 55.0295C5.48528 54.9771 5.50124 54.9187 5.53366 54.8753C5.73316 54.6139 5.91172 54.3335 6.18503 54.137C6.30822 54.0492 6.39451 53.9324 6.47181 53.7997C6.6788 53.4435 6.96059 53.1617 7.33515 52.9761C7.48528 52.9018 7.62443 52.8055 7.77505 52.7311C7.90223 52.6688 8.03789 52.6214 8.17006 52.5725C8.30822 52.5226 8.44787 52.4777 8.59799 52.4278C8.49076 52.2572 8.33515 52.1839 8.19301 52.1001C8.01196 51.9913 7.81595 51.909 7.64089 51.7913C7.44737 51.661 7.23241 51.5837 7.02144 51.4944C6.76408 51.3862 6.50274 51.2874 6.25386 51.1612C6.09576 51.0813 5.9591 50.9596 5.7965 50.8454C5.72768 50.8264 5.63291 50.8025 5.49326 50.7656C5.38902 50.8184 5.26982 50.9162 5.26484 51.0963C5.01696 51.1841 4.91022 51.3602 4.94115 51.6161C4.94514 51.6516 4.95312 51.6935 4.94115 51.7234C4.92768 51.7518 4.88977 51.7858 4.86135 51.7868C4.83541 51.7868 4.79352 51.7533 4.78554 51.7259C4.76658 51.668 4.76409 51.6042 4.75312 51.5433C4.73017 51.4146 4.64838 51.3832 4.54364 51.458C4.42943 51.5393 4.30923 51.6027 4.26833 51.7613C4.23841 51.8751 4.14664 51.8277 4.07631 51.7533C4.02494 51.8127 3.98304 51.8561 3.94514 51.9035C3.83841 52.0377 3.73816 52.1784 3.62444 52.3071C3.5606 52.3789 3.4798 52.4358 3.401 52.4927C3.34564 52.5336 3.25337 52.4642 3.25088 52.3789C3.25088 52.3246 3.26684 52.2707 3.28479 52.1744C3.19003 52.2787 3.1237 52.356 3.05038 52.4278C3.00699 52.4697 2.95711 52.5321 2.90724 52.5346C2.80848 52.5401 2.76759 52.5999 2.7217 52.6663C2.64689 52.7706 2.57956 52.8843 2.42644 52.9492C2.4414 52.8599 2.45387 52.7935 2.46435 52.7271C2.49389 52.7056 2.51774 52.6771 2.53382 52.6443C2.5499 52.6114 2.55772 52.5751 2.55662 52.5386C2.52669 52.6024 2.49677 52.6673 2.46883 52.7311C2.33617 52.7501 2.33068 52.7461 2.34016 52.6389C2.35512 52.4712 2.42145 52.3435 2.55662 52.2273C2.82993 51.9928 3.08429 51.7354 3.34265 51.4834C3.5606 51.2709 3.77606 51.0554 3.98853 50.8374C4.07481 50.7481 4.14664 50.6453 4.23491 50.557C4.44988 50.343 4.67182 50.1345 4.88728 49.9204C4.9616 49.8471 5.02394 49.7618 5.09426 49.6835C5.17257 49.5952 5.25237 49.5089 5.33067 49.4191C5.36359 49.3827 5.41197 49.3447 5.41895 49.3028C5.45536 49.0674 5.63142 48.9302 5.80448 48.8244C6.19152 48.5874 6.52169 48.2896 6.82194 47.9554C7.10065 47.6467 7.39867 47.3561 7.7142 47.0853C7.82243 46.992 7.91321 46.8798 8.01046 46.7755C8.10672 46.6737 8.20398 46.5869 8.36507 46.6194C8.41246 46.6293 8.47231 46.5814 8.53315 46.556C8.47729 46.4408 8.396 46.4408 8.31869 46.4707C8.12966 46.5425 7.93864 46.557 7.73565 46.5435C7.59101 46.534 7.44239 46.5854 7.29475 46.5964C7.18353 46.6044 7.07281 46.5884 6.96059 46.5844C6.79401 46.5804 6.62344 46.5505 6.46383 46.5804C6.18902 46.6288 5.9197 46.5829 5.64738 46.5854C5.56109 46.5854 5.47431 46.5705 5.38803 46.568C5.28329 46.564 5.17257 46.5844 5.1212 46.4517C5.11321 46.4288 5.05885 46.4188 5.02494 46.4123C4.61895 46.3405 4.23491 46.1968 3.84888 46.0601C3.81992 46.0494 3.79295 46.0338 3.76908 46.0142C3.75711 46.0042 3.75162 45.9828 3.74065 45.9613C3.78255 45.8865 3.84339 45.891 3.91521 45.9055C4.09826 45.9439 4.2808 45.9803 4.46484 46.0057C4.57955 46.0222 4.69925 46.0127 4.81546 46.0247C5.11172 46.0561 5.40698 46.0955 5.70174 46.1295C5.84937 46.1469 5.998 46.1604 6.14563 46.1724C6.16708 46.1739 6.19152 46.1589 6.25536 46.1374C6.01845 46.0831 5.81945 46.0397 5.62194 45.9928C5.47182 45.9558 5.3177 45.9274 5.17257 45.872C4.60549 45.6525 4.0414 45.426 3.47681 45.1985C3.34564 45.1457 3.22245 45.0768 3.09527 45.0145C3.07332 45.0035 3.0424 44.9945 3.03292 44.975C3.00599 44.9237 2.96011 44.8588 2.97307 44.8154C2.99651 44.7451 3.06684 44.7895 3.11821 44.8029C3.69726 44.9656 4.2803 45.1162 4.85436 45.2988C5.1995 45.4086 5.54763 45.4969 5.90174 45.5587C6.3566 45.6386 6.81545 45.659 7.2758 45.6011C7.33116 45.5942 7.38802 45.5972 7.44338 45.5927C7.5546 45.5832 7.66533 45.5712 7.77106 45.4819C7.60049 45.425 7.4379 45.445 7.27979 45.432C7.01446 45.4086 6.74912 45.3871 6.48678 45.3517C6.35012 45.3342 6.32817 45.2918 6.33216 45.1522C6.08877 45.0644 5.8399 44.986 5.599 44.8872C5.25972 44.7499 4.92473 44.6022 4.59451 44.4442C4.18228 44.2417 3.77438 44.0305 3.37108 43.8107C3.00449 43.6141 2.63492 43.4165 2.34963 43.1033C2.21298 42.9531 2.07732 42.789 1.99352 42.6074C1.81098 42.2118 1.6823 41.8002 1.68929 41.3502C1.69328 40.9985 1.64839 40.6448 1.63093 40.2911C1.62545 40.1898 1.6444 40.0855 1.65238 39.9768C1.48081 39.9648 1.34116 40.0341 1.19901 40.0895C1.11921 40.1204 1.04091 40.1708 1.05837 40.2831C1.06136 40.2995 1.05338 40.3265 1.04091 40.333C0.898765 40.4228 0.901259 40.5744 0.882307 40.7141C0.859364 40.8787 0.84889 41.0459 0.832432 41.2125C0.828442 41.2559 0.834925 41.3033 0.820461 41.3412C0.804003 41.3801 0.771584 41.4305 0.735175 41.441C0.664352 41.4644 0.634926 41.4046 0.627943 41.3462C0.59264 41.0872 0.601408 40.824 0.653878 40.5679C0.664352 40.5146 0.672831 40.4622 0.687794 40.3809C0.475325 40.5066 0.360114 40.6747 0.292284 40.8683C0.223456 41.0658 0.182558 41.2749 0.131187 41.4789C0.123207 41.5088 0.128693 41.5428 0.115227 41.5697C0.107247 41.5877 0.0788181 41.5996 0.056873 41.6036C0.0434067 41.6051 0.0229579 41.5877 0.0149779 41.5727C0.00640613 41.5559 0.00261032 41.5371 0.00400534 41.5183C0.00799535 41.1611 0.0259504 40.8019 0.272334 40.5136C0.391036 40.3739 0.529191 40.2357 0.684801 40.1434C0.849888 40.0461 0.959613 39.8959 1.10425 39.7847C1.21697 39.6994 1.3262 39.5936 1.45637 39.5502C1.85138 39.4175 2.07083 39.1062 2.28579 38.7864C2.35761 38.6792 2.40749 38.556 2.46734 38.4397C2.57706 38.2242 2.74065 38.0606 2.93118 37.9129C3.03691 37.8316 3.11422 37.7133 3.20898 37.6176C3.29377 37.5293 3.37806 37.4345 3.47831 37.3671C3.59053 37.2908 3.71921 37.2409 3.8424 37.1825C4.24439 36.9945 4.66085 36.9062 5.10623 36.988C5.20898 37.0064 5.31471 37.0119 5.41895 37.0129C5.72219 37.0189 5.97356 37.184 6.24688 37.2788C6.3596 37.3182 6.46633 37.3776 6.58254 37.4195C6.70473 37.4629 6.81296 37.5632 6.91022 37.6555C7.12268 37.857 7.33665 38.0521 7.61146 38.1688C7.83889 38.2651 7.86433 38.4482 7.6748 38.5969C7.48029 38.75 7.4773 38.7675 7.63839 38.9596C7.67331 39.003 7.72069 39.0359 7.7561 39.0793C7.83989 39.1781 7.91969 39.2793 8.00248 39.3786C8.09725 39.4934 8.19849 39.6031 8.34662 39.652C8.52468 39.7119 8.68727 39.7997 8.83739 39.9119C8.88228 39.9458 8.92118 39.9823 8.88627 40.0316C8.86981 40.0541 8.80647 40.0611 8.77156 40.0516C8.65734 40.0202 8.54762 39.9758 8.4354 39.9403C8.35061 39.9134 8.26233 39.8915 8.17605 39.8675C8.17156 39.878 8.16757 39.8905 8.16358 39.9009C8.21246 39.9259 8.26084 39.9488 8.30971 39.9728C8.56009 40.0975 8.81046 40.2182 9.05934 40.3469C9.21395 40.4268 9.36657 40.4901 9.54412 40.523C9.7945 40.5679 10.0608 40.6123 10.2504 40.8224C10.2763 40.8508 10.3252 40.8628 10.3651 40.8752C10.574 40.9371 10.7795 41.005 10.9596 41.1337C11.0044 41.165 11.0575 41.1824 11.1122 41.1836C11.0893 41.1312 11.0743 41.0728 11.0434 41.0269C10.9526 40.8952 10.8538 40.771 10.7606 40.6423C10.6035 40.4268 10.4424 40.2142 10.2937 39.9917C10.0204 39.5817 9.6723 39.2319 9.3531 38.8623C9.22841 38.7176 9.11071 38.5669 8.98103 38.4272C8.82143 38.2566 8.63689 38.1065 8.45984 37.9518C8.0768 37.6176 7.67381 37.3018 7.31071 36.9471C7.05091 36.6906 6.77912 36.4465 6.49625 36.2157C6.22693 35.9972 5.95062 35.7877 5.6803 35.5707C5.57306 35.4858 5.47182 35.396 5.37007 35.3052C4.97606 34.953 4.58504 34.5993 4.19152 34.2476C4.02893 34.103 3.85985 33.9658 3.69626 33.8236C3.65713 33.7933 3.62555 33.7544 3.60399 33.7098C3.59869 33.6901 3.59764 33.6695 3.6009 33.6494C3.60417 33.6293 3.61169 33.6101 3.62295 33.5931C3.63641 33.5741 3.69078 33.5716 3.7217 33.5796C3.76346 33.5917 3.80222 33.6124 3.83541 33.6405C3.91671 33.7053 4.002 33.7123 4.11172 33.6754L3.94514 32.7834C3.93317 32.7156 3.95611 32.6747 4.04639 32.6697C4.0803 32.7395 4.12519 32.8143 4.15212 32.8927C4.22394 33.1027 4.28878 33.3157 4.35362 33.5282C4.44838 33.8346 4.59751 34.0985 4.90574 34.2416C4.99052 34.1957 5.10324 34.2302 5.24289 34.3449C5.20798 34.2381 5.18753 34.1593 5.1581 34.0865C5.06221 33.8365 5.00275 33.5741 4.98155 33.3072C4.94813 32.9675 4.90573 32.6288 4.87182 32.289C4.86384 32.2092 4.87182 32.1279 4.87182 32.0466C4.87082 31.629 4.85037 31.2119 4.87182 30.7964C4.89376 30.3449 4.93317 29.8914 5.09277 29.4604C5.11022 29.4145 5.14563 29.3766 5.16459 29.3317C5.19152 29.2708 5.21197 29.2069 5.23341 29.1451L5.64887 28.6532C5.6394 28.6437 5.62992 28.6342 5.62045 28.6262C5.599 28.6412 5.57157 28.6532 5.55561 28.6721C5.46234 28.7849 5.36758 28.8966 5.28129 29.0164C5.25536 29.0513 5.25137 29.1042 5.2374 29.1491V29.1531ZM17.2902 51.4755L17.2254 51.2694C17.2119 51.2749 17.197 51.2804 17.1835 51.2874C17.1875 51.3642 17.2433 51.4186 17.2947 51.473C17.392 51.687 17.4842 51.9035 17.5895 52.1135C17.7441 52.4168 17.9226 52.7082 18.0673 53.017C18.2663 53.4366 18.4364 53.8701 18.6314 54.2916C18.8819 54.8388 19.1402 55.3825 19.4059 55.9225C19.6413 56.3964 19.8428 56.8798 19.9605 57.3972C19.978 57.473 20.0039 57.5463 20.0254 57.6222L20.0703 57.6182C20.0718 57.5558 20.0837 57.492 20.0728 57.4311C20.0134 57.0629 19.8862 56.7147 19.7346 56.375C19.571 56.0063 19.4179 55.6336 19.2488 55.2694C19.0443 54.8319 18.8279 54.3999 18.6154 53.9664C18.3787 53.4832 18.1401 53.001 17.8997 52.5196C17.7488 52.2206 17.593 51.924 17.4324 51.6301C17.4 51.5702 17.3391 51.5283 17.2917 51.477L17.2902 51.4755ZM17.5002 17.3091C17.5167 17.2687 17.5261 17.2538 17.5261 17.2388C17.5476 16.8731 17.5735 16.5074 17.5855 16.1413C17.5975 15.8005 17.5935 15.4588 17.6005 15.1176C17.6029 14.9629 17.6154 14.8073 17.6234 14.6531L17.6763 13.5007C17.6952 13.0846 17.7331 12.6686 17.7316 12.2545C17.7316 11.7451 17.6857 11.2358 17.6818 10.7279C17.6776 10.4248 17.6481 10.1226 17.5935 9.82444C17.5417 9.53706 17.4734 9.2529 17.389 8.97335C17.3241 8.75684 17.2284 8.54831 17.2104 8.31782C17.2094 8.29388 17.193 8.27193 17.1865 8.24798C17.0887 7.88879 16.994 7.52959 16.8912 7.17339C16.8478 7.02572 16.783 6.88504 16.7276 6.73986L16.1835 5.31357C16.1456 5.21479 16.1157 5.11302 16.0673 5.02122C15.998 4.89151 15.9157 4.86407 15.7925 4.93691C15.566 5.06808 15.3663 5.2409 15.204 5.44627C15.0992 5.57797 14.9885 5.70369 14.8882 5.83939C14.7815 5.98406 14.6743 6.12874 14.588 6.28489C14.4583 6.51786 14.3486 6.76182 14.2279 7.00028C14.186 7.08259 14.1331 7.15992 14.0927 7.24373C13.999 7.44029 13.9032 7.63535 13.8234 7.8359C13.6718 8.21505 13.4359 8.5523 13.3441 8.96387C13.2384 9.43981 13.198 9.90676 13.2897 10.3837C13.3037 10.4565 13.2982 10.5408 13.3346 10.5992C13.4838 10.8347 13.5541 11.1001 13.6364 11.3605C13.776 11.802 13.998 12.1891 14.3346 12.5049C14.5391 12.696 14.795 12.8297 14.9411 13.0871C15.001 13.1919 15.1107 13.2662 15.1835 13.3635C15.3441 13.576 15.4957 13.7955 15.6513 14.012C15.8109 14.2345 15.9705 14.4555 16.1306 14.6775C16.2783 14.8836 16.4 15.1111 16.6409 15.2353C16.7925 15.3141 16.8089 15.385 16.7341 15.5391C16.7002 15.6105 16.6583 15.6788 16.6299 15.7297C16.9222 16.262 17.2049 16.7773 17.5002 17.3106V17.3091ZM3.32569 39.1536C3.39552 39.2484 3.4808 39.2674 3.56359 39.2793C3.90474 39.3307 4.15362 39.5477 4.41047 39.7493C4.4389 39.7722 4.46634 39.7992 4.48928 39.8291C4.5591 39.9214 4.5217 40.0232 4.40648 40.0287C4.33243 40.0285 4.25905 40.0146 4.19003 39.9877C4.0424 39.9379 3.90175 39.8715 3.75312 39.8266C3.6015 39.7807 3.45237 39.7144 3.2833 39.7223C3.23342 39.863 3.27382 39.9688 3.37108 40.0636C3.41995 40.111 3.50275 40.1424 3.47581 40.2571C3.36858 40.2492 3.26285 40.2397 3.12669 40.2292C3.18454 40.4662 3.21148 40.6802 3.29427 40.8807C3.30773 40.9132 3.34265 40.9346 3.36858 40.9616C3.4404 41.0374 3.5217 41.1062 3.58354 41.1895C3.77307 41.437 3.99102 41.6415 4.30374 41.7218C4.35661 41.7353 4.40349 41.7702 4.45237 41.7977C4.70673 41.9409 4.95461 42.0955 5.21446 42.2257C5.65336 42.4452 6.09725 42.6538 6.54214 42.8553C6.73964 42.9451 6.94264 43.0354 7.15261 43.0763C7.52867 43.1506 7.90523 43.2345 8.29226 43.2384C8.34064 43.2384 8.38951 43.2564 8.43939 43.2604C8.59251 43.2724 8.74961 43.3063 8.89824 43.2858C9.00946 43.2709 9.1122 43.2454 9.22592 43.2669C9.29076 43.2794 9.36108 43.2644 9.42891 43.2579C9.54512 43.2439 9.66183 43.2265 9.77953 43.213C9.86981 43.203 9.96357 43.206 10.0514 43.1901C10.2758 43.1491 10.4992 43.0963 10.7242 43.0554C10.8528 43.0329 10.9446 42.9606 11.0339 42.8633C11.008 42.8324 10.9905 42.8064 10.9691 42.7865C10.6942 42.5345 10.4184 42.2836 10.1421 42.0317C10.0189 41.9194 9.89574 41.8042 9.77006 41.6944C9.56806 41.5173 9.32717 41.4021 9.09724 41.2664C8.51919 40.9281 7.9566 40.562 7.38553 40.2097C7.197 40.0935 7.00348 39.9838 6.80448 39.8675C6.76159 39.9244 6.73715 39.9688 6.70074 40.0002C6.66533 40.0311 6.61396 40.0731 6.57855 40.0676C6.40947 40.0376 6.23241 40.0626 6.07132 39.9798C5.9167 39.8999 5.76409 39.8186 5.57855 39.8441C5.53366 39.851 5.48129 39.8281 5.43641 39.8076C5.25686 39.7303 5.07531 39.652 4.89775 39.5692C4.5593 39.4139 4.20695 39.291 3.84539 39.202C3.6828 39.1616 3.51472 39.1127 3.3212 39.1521L3.32569 39.1536ZM27.6787 16.1617C27.7386 16.0999 27.7685 16.0724 27.7934 16.0415C27.8658 15.9562 27.9331 15.8669 28.0064 15.7826C28.2064 15.5511 28.4852 15.4334 28.7356 15.2737C28.8239 15.2178 28.9116 15.154 28.975 15.0742C29.2014 14.7978 29.4812 14.6017 29.8064 14.462C30.0348 14.3633 30.2772 14.3129 30.5111 14.2375C30.8752 14.1178 31.2204 13.9432 31.5725 13.7875C31.6159 13.7686 31.6672 13.7362 31.6832 13.6967C31.7376 13.5655 31.7879 13.4298 31.8189 13.2917C31.8297 13.2253 31.8166 13.1572 31.782 13.0996C31.6548 12.8936 31.5306 12.6835 31.379 12.4954C31.2624 12.3501 31.1871 12.1761 31.161 11.9916C31.1446 11.8913 31.0987 11.8534 31.0024 11.8494C30.8917 11.8454 30.778 11.8439 30.6697 11.821C30.4029 11.7641 30.1376 11.6962 29.8727 11.6324C29.7948 11.611 29.7133 11.6057 29.6333 11.6166C29.5532 11.6276 29.4762 11.6547 29.4069 11.6962C29.0079 11.9332 28.6762 12.235 28.4702 12.6566C28.3366 12.93 28.2189 13.2103 28.1022 13.4907C28.0292 13.6623 27.9669 13.8382 27.9156 14.0175C27.7939 14.4605 27.7007 14.912 27.6653 15.3695C27.6463 15.6189 27.6722 15.8704 27.6787 16.1617ZM11.2299 45.8371C11.3845 45.9928 11.5292 46.1514 11.6878 46.2936C11.9825 46.559 12.2863 46.8164 12.586 47.0768C12.7306 47.2025 12.8773 47.3258 13.0179 47.456C13.3222 47.7373 13.6314 48.0147 13.9232 48.3076C14.2018 48.5893 14.4726 48.8788 14.7351 49.1756C14.9047 49.3642 15.0493 49.5742 15.2169 49.7653C15.5376 50.131 15.8164 50.5266 16.0887 50.9272C16.2593 51.1781 16.4214 51.4365 16.576 51.698C16.7396 51.9758 16.8927 52.2587 17.0414 52.5436C17.1132 52.6803 17.1561 52.8304 17.2244 52.9686C17.4583 53.455 17.6992 53.9369 17.9346 54.4233C18.1132 54.792 18.2852 55.1642 18.4638 55.5329C18.5935 55.8008 18.7466 56.0597 18.8578 56.3346C19.001 56.6908 19.1092 57.0619 19.2379 57.4236C19.255 57.4689 19.287 57.5071 19.3286 57.5319C19.4044 57.5728 19.4867 57.6052 19.571 57.6267C19.6832 57.6566 19.7236 57.6212 19.7037 57.5064C19.6753 57.3478 19.6538 57.1851 19.598 57.035C19.4619 56.6616 19.3134 56.2929 19.1526 55.9295C19.0024 55.5962 18.8808 55.251 18.6967 54.9312C18.5326 54.6483 18.4219 54.3355 18.2812 54.0387C18.1112 53.6801 17.9361 53.3238 17.7561 52.9701C17.584 52.6339 17.365 52.3211 17.2513 51.9539C17.2404 51.9205 17.2119 51.892 17.193 51.8591C17.0049 51.5448 16.795 51.2415 16.6344 50.9137C16.4773 50.5969 16.2349 50.3475 16.0334 50.0671C15.8099 49.7573 15.5351 49.4819 15.2783 49.1961C14.9735 48.8603 14.6648 48.5286 14.3566 48.1968C14.3102 48.1469 14.2578 48.102 14.206 48.0571C13.9865 47.8651 13.7651 47.675 13.5486 47.4804C13.3172 47.2729 13.0937 47.0589 12.8608 46.8543C12.5765 46.6049 12.2922 46.353 11.995 46.1215C11.8444 46.0052 11.6658 45.9239 11.4967 45.8346C11.4129 45.7897 11.3207 45.7977 11.2354 45.8346L11.2299 45.8371ZM9.77255 16.6367C9.77255 16.926 9.85086 17.1934 9.95011 17.4533C10.2125 18.1468 10.579 18.7888 10.9177 19.4458C11.0972 19.7966 11.3696 20.0824 11.5686 20.4187C11.6793 20.6052 11.781 20.7978 11.8878 20.9859C11.9177 21.0388 11.9476 21.0941 11.9865 21.1405C12.0937 21.2693 12.2179 21.3855 12.3142 21.5212C12.4793 21.7542 12.6199 22.0046 12.789 22.2346C12.8553 22.3254 12.9571 22.4092 13.0598 22.4491C13.1885 22.4975 13.2858 22.5738 13.379 22.6641C13.4319 22.7155 13.4863 22.7739 13.5511 22.8038C13.5905 22.8213 13.6633 22.8038 13.7002 22.7754C13.7232 22.7564 13.7202 22.6846 13.7052 22.6437C13.6877 22.5923 13.6434 22.5519 13.6149 22.503C13.5621 22.4122 13.5122 22.3184 13.4633 22.2251C13.3995 22.1059 13.3416 21.9827 13.2738 21.8649C13.206 21.7472 13.1262 21.6349 13.0543 21.5197C12.8648 21.2134 12.6743 20.9086 12.4888 20.5998C12.3641 20.3927 12.2464 20.1827 12.1287 19.9712C12.0474 19.825 11.979 19.6718 11.8962 19.5272C11.7765 19.3186 11.6364 19.1206 11.5292 18.9056C11.4469 18.7399 11.4304 18.5424 11.2668 18.4177C11.2329 18.3922 11.2319 18.3259 11.2085 18.2825C11.0947 18.0694 10.989 17.8514 10.8623 17.6469C10.7077 17.4004 10.5222 17.1729 10.376 16.9225C10.2504 16.707 10.0489 16.6541 9.83739 16.6027C9.81993 16.5987 9.79549 16.6217 9.77255 16.6337V16.6367ZM12.3885 45.3971C12.4184 45.4445 12.4234 45.4635 12.4374 45.4739C12.7945 45.7343 13.1057 46.0471 13.4279 46.3465C13.6648 46.566 13.8967 46.7935 14.1331 47.013C14.374 47.2365 14.6299 47.4435 14.8583 47.6795C15.2723 48.106 15.6867 48.5351 16.0723 48.989C16.389 49.3602 16.7207 49.7219 16.9576 50.1594C17.1431 50.5021 17.3785 50.8189 17.584 51.1522C17.6748 51.2984 17.7536 51.4545 17.8264 51.6117C17.9092 51.7848 17.971 51.9689 18.0578 52.1395C18.2688 52.561 18.4992 52.9741 18.7032 53.3991C18.8413 53.688 19.0074 53.9724 19.0144 54.3096C19.0144 54.35 19.0428 54.3909 19.0618 54.4303C19.169 54.6468 19.2812 54.8609 19.3855 55.0789C19.5236 55.3702 19.6563 55.6656 19.79 55.9579C19.8523 56.0936 19.9117 56.2303 19.9755 56.3645C20.1052 56.6409 20.2219 56.9212 20.2583 57.2271C20.2683 57.3004 20.2827 57.3747 20.3057 57.4451C20.3157 57.475 20.3491 57.5144 20.376 57.5184C20.4044 57.5224 20.4558 57.4969 20.4658 57.471C20.4967 57.3912 20.5331 57.3059 20.5316 57.2231C20.5316 56.8778 20.4019 56.5556 20.3341 56.2223C20.3301 56.2043 20.3192 56.1884 20.3097 56.1719C20.2189 56.0178 20.1935 55.8322 20.0663 55.6955C20.0364 55.6626 20.0314 55.6047 20.0214 55.5573C19.9999 55.4555 19.997 55.3473 19.9605 55.251C19.8817 55.0353 19.7928 54.8233 19.6942 54.6159C19.4533 54.117 19.2029 53.6241 18.9591 53.1273C18.8194 52.8429 18.6952 52.5515 18.5466 52.2737C18.3072 51.8257 18.0578 51.3812 17.802 50.9412C17.5526 50.5116 17.2972 50.0851 16.9765 49.7014C16.8249 49.5198 16.6693 49.3437 16.5227 49.1597C16.1576 48.6967 15.7501 48.2726 15.3266 47.8636C15.2683 47.8077 15.1885 47.7713 15.1411 47.7089C14.9381 47.4395 14.6758 47.231 14.4349 46.998C14.3631 46.9287 14.3077 46.8449 14.2344 46.7785C14.0613 46.6189 13.8828 46.4642 13.7042 46.3111C13.6144 46.2342 13.5197 46.1634 13.4279 46.0905C13.2399 45.9429 13.0723 45.7663 12.8503 45.6635C12.8274 45.6524 12.8084 45.6344 12.796 45.6121C12.7112 45.4714 12.57 45.4335 12.39 45.3981L12.3885 45.3971ZM18.8912 57.3518C18.8942 57.3029 18.9062 57.2585 18.8967 57.2206C18.8578 57.0579 18.8279 56.8913 18.7655 56.7367C18.598 56.3226 18.4164 55.9145 18.2369 55.5044C18.182 55.3797 18.1187 55.258 18.0563 55.1357C17.9401 54.9028 17.8099 54.6768 17.7072 54.4383C17.4648 53.8721 17.2025 53.3168 16.8952 52.783C16.802 52.6219 16.7371 52.4443 16.6384 52.2871C16.3806 51.8775 16.1144 51.4734 15.8399 51.0749C15.5882 50.7125 15.3254 50.3579 15.0518 50.0117C14.8164 49.7149 14.5621 49.4345 14.3102 49.1517C14.1346 48.9521 13.9531 48.7576 13.7666 48.568C13.6011 48.3997 13.431 48.2362 13.2563 48.0776C13.0912 47.9269 12.9192 47.7877 12.7501 47.6426C12.7272 47.6226 12.7052 47.5977 12.6823 47.5792C12.4065 47.3487 12.1925 47.0534 11.9002 46.8379C11.6499 46.6538 11.409 46.4587 11.1586 46.2761C11.0474 46.1948 10.8349 46.1594 10.6698 46.1878C10.9446 46.2841 11.1122 46.4682 11.2833 46.6483C11.2916 46.6576 11.3006 46.6663 11.3102 46.6742C11.796 47.1088 12.2858 47.5383 12.7636 47.9828C13.0219 48.2223 13.2573 48.4877 13.5027 48.7426C13.6149 48.8588 13.7217 48.9796 13.8354 49.0933C13.9087 49.1666 13.9855 49.238 14.0683 49.3008C14.1616 49.3707 14.2658 49.4266 14.3576 49.4984C14.4404 49.5633 14.5187 49.6366 14.589 49.7139C14.8668 50.0157 15.1616 50.3041 15.4094 50.6279C15.6463 50.9367 15.8434 51.2784 16.0384 51.6181C16.3242 52.114 16.5611 52.6329 16.6718 53.2016C16.6766 53.2195 16.6834 53.2367 16.6922 53.253C16.8453 53.5513 17.002 53.8476 17.1511 54.1485C17.1875 54.2228 17.1985 54.3111 17.2174 54.3934C17.2404 54.4952 17.2429 54.6064 17.2837 54.6997C17.4663 55.1143 17.6573 55.5244 17.8508 55.9335C18.0064 56.2642 18.1865 56.584 18.3256 56.9212C18.4339 57.1827 18.6179 57.3044 18.8912 57.3518ZM28.6249 11.4378L28.6139 11.3974C28.4742 11.4189 28.3281 11.4229 28.1959 11.4678C27.974 11.5436 27.7545 11.6314 27.5446 11.7371C27.2134 11.9038 26.8882 12.0909 26.6054 12.3333C26.4827 12.4376 26.3744 12.5579 26.2837 12.691C26.0184 13.0796 25.8678 13.5211 25.7351 13.9681C25.7082 14.0579 25.6678 14.1418 25.6393 14.2296C25.592 14.3757 25.5595 14.5274 25.5042 14.6701C25.4378 14.8407 25.4039 15.0113 25.3929 15.1939C25.37 15.598 25.4742 15.9836 25.5256 16.3762C25.5501 16.5673 25.5715 16.7584 25.5959 16.9494C25.6094 17.0607 25.6054 17.1769 25.6418 17.2802C25.7216 17.5022 25.7216 17.7122 25.6393 17.9337C25.6014 18.0355 25.5989 18.1532 25.6029 18.2645C25.6069 18.3608 25.7057 18.4286 25.8029 18.4206C25.8992 18.4122 25.9196 18.3353 25.9246 18.259C25.9301 18.1847 25.9246 18.1103 25.9206 18.036C25.9087 17.8315 25.8802 17.6269 25.8817 17.4224C25.8857 17.0238 25.9057 16.6272 25.9196 16.2301C25.9246 16.0624 25.9371 15.8983 26.0074 15.7397C26.0548 15.6344 26.0872 15.5177 26.1102 15.4039C26.2673 14.6157 26.4593 13.8424 26.8842 13.1445C27.3027 12.461 27.8034 11.8644 28.5381 11.5032C28.5695 11.4882 28.5949 11.4598 28.6234 11.4383L28.6249 11.4378ZM28.964 11.6478L28.9401 11.6179C28.9171 11.6224 28.8902 11.6224 28.8697 11.6314C28.6832 11.7262 28.4937 11.82 28.3111 11.9217C27.8777 12.1642 27.5665 12.5379 27.2807 12.9295C26.9954 13.3221 26.7979 13.7611 26.6663 14.235C26.558 14.6242 26.4323 15.0098 26.3919 15.4094C26.352 15.7965 26.3107 16.1867 26.3401 16.5798C26.3525 16.7434 26.3012 16.914 26.4109 17.0662C26.4269 17.0876 26.4199 17.1271 26.4244 17.1565C26.4473 17.3286 26.4703 17.5007 26.4917 17.6728C26.5256 17.9302 26.5565 18.1877 26.5905 18.4446C26.6338 18.1767 26.6827 17.9178 26.7949 17.6728C26.8698 17.5102 26.9441 17.3476 26.9156 17.158C26.9055 17.0725 26.9055 16.9861 26.9156 16.9006C26.956 16.4251 26.982 15.9472 27.0453 15.4758C27.1226 14.8971 27.2712 14.3323 27.4882 13.788C27.5665 13.5915 27.6573 13.4019 27.7466 13.2093C27.8872 12.905 28.0388 12.6067 28.2503 12.3428C28.4583 12.0814 28.6722 11.824 28.966 11.6478H28.964ZM10.4279 52.3076C10.4658 52.1899 10.393 52.1315 10.3092 52.0826C10.2618 52.0542 10.2129 52.0247 10.1631 52.0028C9.92218 51.896 9.84387 51.9254 9.72417 52.1639C9.64337 52.328 9.57804 52.3455 9.44437 52.2183C9.22392 52.0083 9.00198 51.7982 8.79998 51.5722C8.54562 51.2879 8.26133 51.0369 7.96208 50.807C7.77199 50.6572 7.56263 50.5337 7.33964 50.4398C7.00697 50.3041 6.65486 50.2352 6.28728 50.2652C6.18653 50.2732 6.10024 50.2677 6.02044 50.3475C5.91321 50.4518 5.90523 50.4927 5.9975 50.6104C6.05685 50.6877 6.10723 50.773 6.16359 50.8529C6.18852 50.8883 6.21097 50.9287 6.24638 50.9491C6.42892 51.0549 6.61047 51.1632 6.79999 51.255C7.04438 51.3732 7.30174 51.4665 7.54563 51.5872C8.01565 51.8132 8.46564 52.0788 8.89076 52.3809C8.94063 52.4173 9.01395 52.4363 9.07729 52.4388C9.52966 52.4578 9.98302 52.4528 10.4309 52.5391C10.5661 52.565 10.7067 52.565 10.8748 52.5785C10.7571 52.4079 10.5975 52.3754 10.4254 52.3076H10.4279ZM6.597 44.5909C6.53865 44.5505 6.48977 44.5061 6.43291 44.4802C6.15311 44.35 5.86882 44.2277 5.58853 44.0965C5.42097 44.0161 5.25581 43.9307 5.09327 43.8406C4.75511 43.6575 4.41397 43.4789 4.0823 43.2838C3.84689 43.1457 3.62095 42.997 3.3621 42.9007C3.26235 42.8628 3.15661 42.8164 3.10125 42.7041C3.07057 42.638 3.02949 42.5772 2.97956 42.5241C2.61946 42.1569 2.35013 41.7463 2.31871 41.213C2.31622 41.1696 2.29976 41.1277 2.29427 41.0843C2.26335 40.7889 2.23342 40.4921 2.204 40.1968C2.20001 40.1539 2.20001 40.1075 2.18106 40.0696C2.1646 40.0386 2.1252 40.0182 2.09677 39.9937C2.07682 40.0207 2.0429 40.0466 2.03991 40.075C2.03343 40.1429 2.0439 40.2107 2.0439 40.2781C2.0439 40.3444 2.03991 40.4108 2.03592 40.4762C2.03342 40.5245 2.02943 40.5749 2.02794 40.6238C2.01697 40.9531 2.01597 41.2823 1.99303 41.6096C1.9656 41.9848 2.09976 42.302 2.30225 42.5999C2.33218 42.6448 2.38205 42.6772 2.42694 42.7081C2.48679 42.75 2.55412 42.7815 2.61148 42.8249C2.78454 42.9546 2.95063 43.0968 3.12818 43.22C3.50175 43.4819 3.91023 43.679 4.32569 43.8596C4.73466 44.0372 5.15162 44.1983 5.56708 44.3584C5.83242 44.4597 6.10424 44.549 6.37356 44.6413C6.44239 44.6642 6.5167 44.6832 6.597 44.5924V44.5909ZM15.1985 55.0629C15.2623 55.1901 15.3232 55.3158 15.387 55.4406C15.5381 55.7384 15.6927 56.0352 15.8414 56.3331C15.8932 56.4373 15.9496 56.5446 15.977 56.6568C16.0389 56.9222 16.0852 57.1921 16.1336 57.4615C16.1461 57.5334 16.1406 57.6107 16.1406 57.6835C16.1406 57.7963 16.1336 57.907 16.1366 58.0198C16.1446 58.3381 16.2892 58.586 16.5606 58.7387C16.7451 58.8429 16.9172 58.9582 17.0867 59.0829C17.1596 59.1373 17.2488 59.1872 17.3371 59.1996C17.5441 59.2281 17.7541 59.2321 17.9755 59.247C18.0299 59.1208 18.0867 58.9936 18.1491 58.8514L17.8458 58.7347C17.4005 58.5641 17.0448 58.2662 16.7102 57.9385C16.5331 57.7648 16.3665 57.5713 16.2763 57.3438C16.1675 57.0689 16.1147 56.7721 16.0349 56.4847C15.997 56.3495 15.9606 56.2113 15.9052 56.0811C15.7755 55.7753 15.6289 55.4745 15.4992 55.1682C15.4314 55.0085 15.403 54.9911 15.2 55.0629H15.1985ZM6.96209 18.8093C7.34812 18.7918 7.33964 18.8362 7.31121 18.4396C7.28502 18.1056 7.29003 17.7699 7.32618 17.4369C7.37206 17.0308 7.44089 16.6272 7.50373 16.2236C7.56857 15.8075 7.63889 15.3919 7.70672 14.9744C7.71171 14.9445 7.72667 14.912 7.72019 14.8851C7.7147 14.8596 7.69176 14.8242 7.66882 14.8172C7.64588 14.8108 7.60647 14.8272 7.58752 14.8462C7.56857 14.8651 7.56159 14.9 7.55361 14.93C7.48079 15.2049 7.39251 15.4788 7.33964 15.7576C7.21645 16.4161 6.99201 17.0522 6.92817 17.7232C6.89009 18.085 6.90066 18.4503 6.95959 18.8093H6.96209ZM8.13016 56.6962C7.9429 56.6241 7.74738 56.5755 7.54812 56.5516C7.34513 56.5241 7.14214 56.4942 6.93964 56.4877C6.7157 56.4807 6.49276 56.4987 6.26932 56.5052C6.18254 56.5082 6.14214 56.5556 6.14862 56.6369C6.17206 56.8983 6.21945 57.1527 6.34364 57.3882C6.38852 57.4725 6.44638 57.483 6.52817 57.464C6.63092 57.4401 6.73366 57.4116 6.8374 57.4047C7.03241 57.3927 7.16408 57.3029 7.24239 57.1258C7.25735 57.0934 7.27081 57.0524 7.29775 57.0335C7.46433 56.9172 7.63191 56.795 7.85385 56.817C7.9541 56.8265 8.0339 56.784 8.13166 56.6947L8.13016 56.6962ZM18.0553 11.354C18.0379 11.354 18.0204 11.3525 18.0029 11.3515C17.9945 11.4109 17.98 11.4702 17.978 11.5301C17.9665 11.8389 17.9596 12.1487 17.9471 12.458C17.9286 12.9739 17.9082 13.4887 17.8892 14.0046C17.8822 14.1847 17.8673 14.3653 17.8693 14.5438C17.8728 14.8172 17.8892 15.0896 17.8972 15.3635C17.9042 15.587 17.9052 15.8115 17.9072 16.035C17.9082 16.271 17.9122 16.5054 17.9052 16.7409C17.8947 17.1106 17.8159 17.4793 17.8633 17.8514C17.8783 17.9667 17.8907 18.0809 18.0079 18.1887C18.0204 18.0954 18.0339 18.0305 18.0354 17.9652C18.0394 17.612 18.0354 17.2568 18.0419 16.9036C18.0463 16.6865 18.0678 16.4695 18.0718 16.252C18.0773 15.9836 18.0748 15.7167 18.0718 15.4488C18.0693 15.1076 18.0608 14.7659 18.0568 14.4246C18.0528 14.1203 18.0518 13.815 18.0488 13.5092C18.0488 13.3979 18.0379 13.2857 18.0463 13.1744C18.0663 12.909 18.0987 12.6436 18.1217 12.3762C18.1356 12.2156 18.1451 12.0544 18.1466 11.8933C18.1466 11.7077 18.1137 11.5261 18.0543 11.3525L18.0553 11.354ZM8.22093 18.4336V18.2994C8.21246 17.9527 8.18303 17.6045 8.20099 17.2593C8.21545 16.9465 8.28079 16.6347 8.32218 16.3214C8.32767 16.2785 8.33465 16.2365 8.34014 16.1931C8.36308 16.0155 8.38303 15.8369 8.40897 15.6608C8.43191 15.5012 8.46034 15.3426 8.48178 15.1824C8.49425 15.0891 8.43889 15.0213 8.36707 15.0328C8.28727 15.0447 8.28577 15.1176 8.27081 15.1744C8.23041 15.3236 8.195 15.4738 8.1546 15.6229C8.12069 15.7486 8.0748 15.8724 8.04986 15.9996C7.98503 16.3258 7.93415 16.6551 7.87031 16.9824C7.79016 17.3969 7.78644 17.8227 7.85934 18.2386C7.89425 18.4471 7.98652 18.497 8.22243 18.4351L8.22093 18.4336ZM26.2827 6.9459C26.3042 6.93642 26.3221 6.93642 26.3261 6.92844C26.5261 6.51936 26.7321 6.11277 26.9216 5.6972C27.0448 5.42781 27.1421 5.14694 27.2478 4.87056C27.2598 4.83963 27.2433 4.79772 27.2393 4.74734C27.0839 4.8544 26.9586 4.99954 26.8752 5.16889C26.7954 5.33003 26.7196 5.49117 26.6343 5.64981C26.4937 5.91222 26.3665 6.18212 26.3082 6.47446C26.2772 6.62612 26.2418 6.78377 26.2842 6.94441L26.2827 6.9459ZM5.51122 56.5805C5.58204 56.9477 5.62942 57.3014 5.75212 57.6426C5.8783 57.6112 5.98354 57.5872 6.10124 57.5573L5.79002 56.5141C5.68728 56.5386 5.60598 56.5591 5.51122 56.5805ZM16.6942 59.8981C16.7291 60.0357 16.789 60.0941 16.8932 60.1091C16.996 60.1226 17.1112 60.1186 17.1975 60.1645C17.3246 60.2338 17.4478 60.2094 17.593 60.2133C17.594 60.0996 17.6753 60.0831 17.7645 60.0592C17.8458 60.0372 17.9192 59.9819 18.0204 59.9275C17.7486 59.8681 17.5142 59.8152 17.2803 59.7693C17.2409 59.7609 17.1975 59.7853 17.1541 59.7893C17.0324 59.8018 17.0703 59.9315 17.0214 59.9874L16.6927 59.8981H16.6942ZM12.2334 45.7947C12.2229 45.8057 12.2119 45.8162 12.1995 45.8271C12.2095 45.8471 12.2119 45.8745 12.2269 45.888C12.4404 46.0925 12.6558 46.2971 12.8708 46.5001C12.9117 46.538 12.9656 46.565 12.994 46.6099C13.1187 46.8039 13.3107 46.9217 13.4828 47.0624C13.5057 47.0798 13.5406 47.0823 13.6015 47.1003C13.5651 47.0464 13.5516 47.0165 13.5301 46.996C13.3566 46.8374 13.1795 46.6847 13.0104 46.5236C12.9496 46.4652 12.9057 46.3864 12.8558 46.319C12.8194 46.2701 12.794 46.1953 12.7451 46.1769C12.6045 46.122 12.5152 46.0112 12.4095 45.9174C12.3551 45.8705 12.2927 45.8351 12.2334 45.7947ZM23.6882 22.9156L23.6299 22.8941C23.5895 22.9415 23.5231 22.9834 23.5112 23.0373C23.4473 23.3261 23.5002 23.597 23.6583 23.853C23.7521 23.7148 23.757 23.5726 23.7261 23.4239C23.7107 23.3456 23.7007 23.2662 23.6962 23.1865C23.6897 23.0967 23.6912 23.0064 23.6882 22.9156ZM18.3481 59.3383C18.5755 59.3872 18.6713 59.2979 18.7067 59.0026C18.597 58.9781 18.4872 58.9522 18.4005 58.9322C18.196 59.0714 18.4034 59.2096 18.3481 59.3368V59.3383ZM4.25387 27.2838C4.09826 27.2838 3.95711 27.3541 3.84489 27.4968C3.6803 27.7038 3.51222 27.9123 3.36709 28.1343C3.26734 28.286 3.18055 28.4516 3.15212 28.6721C3.46185 28.1373 3.71422 27.5995 4.25387 27.2838ZM6.32319 58.6773C6.45436 58.5675 6.63141 58.6109 6.75062 58.4797C6.4384 58.4343 6.2369 58.4333 6.14563 58.4767L6.32319 58.6773ZM18.8129 59.3074C19.0104 59.2665 19.165 59.1852 19.2882 59.0106C18.9187 58.9931 18.9197 59.0365 18.8129 59.3074ZM5.74763 56.1864C5.50324 56.1864 5.48379 56.2053 5.51621 56.4084L5.78703 56.376C5.77342 56.3129 5.76028 56.2497 5.74763 56.1864ZM11.1586 46.9122C11.1381 46.785 10.9147 46.6019 10.7197 46.553C10.7456 46.6318 11.0299 46.8648 11.1586 46.9122ZM26.9236 17.8699C26.8059 18.0205 26.7855 18.3523 26.8872 18.5L26.9236 17.8699ZM30.2977 11.4184C30.4543 11.4887 30.6154 11.5321 30.7899 11.4807C30.6263 11.4608 30.4613 11.4403 30.2977 11.4184ZM6.96957 59.4865C7.16608 59.5843 7.196 59.5868 7.30024 59.5219C7.19151 59.465 7.08827 59.4146 6.96957 59.4865ZM4.4788 28.6412L4.44638 28.6247C4.36808 28.7724 4.26634 28.9081 4.25187 29.0867C4.32718 28.9375 4.40299 28.7899 4.4788 28.6412ZM24.6747 22.8357C24.6598 22.8357 24.6448 22.8357 24.6314 22.8372C24.6383 22.9749 24.6438 23.1131 24.6503 23.2503C24.6992 23.1106 24.7181 22.9709 24.6762 22.8342L24.6747 22.8357ZM12.6424 60.6469C12.6653 60.5536 12.7371 60.4653 12.6424 60.3451V60.6469ZM2.03692 39.633C2.09926 39.6799 2.15861 39.671 2.21547 39.6061C2.14515 39.5692 2.08978 39.5762 2.03692 39.633ZM8.22293 56.4982C8.33665 56.5695 8.41645 56.59 8.46233 56.5605C8.38265 56.5393 8.30285 56.5185 8.22293 56.4982ZM7.89824 39.6535L7.86433 39.6869C7.8763 39.7433 7.92617 39.7852 8.01445 39.8131C7.96208 39.7413 7.92967 39.6984 7.89824 39.6535ZM4.86583 28.4905C4.90573 28.4596 4.92918 28.4447 4.94813 28.4272C4.96558 28.4107 4.97805 28.3893 4.99302 28.3688L4.9601 28.3404L4.86583 28.4905ZM7.93465 56.4707C7.93465 56.4707 7.93765 56.4573 7.93765 56.4508C7.91171 56.4453 7.88627 56.4398 7.86034 56.4358C7.86034 56.4453 7.85784 56.4533 7.85635 56.4628L7.93465 56.4707ZM4.58653 28.4541L4.61347 28.4771L4.68678 28.3838L4.65985 28.3608L4.58653 28.4541ZM6.6788 59.3588L6.65885 59.3942C6.69226 59.4047 6.72618 59.4171 6.76009 59.4276C6.76259 59.4196 6.76708 59.4116 6.76957 59.4047C6.73964 59.3897 6.70972 59.3737 6.6788 59.3588Z" fill="#1C1E26"/>
<path d="M2.14069 28.9784C2.14069 28.8782 2.20054 28.7844 2.26936 28.7779C2.34118 28.7709 2.39256 28.8442 2.39106 28.95C2.39006 29.0598 2.33021 29.1436 2.25889 29.1396C2.19106 29.1356 2.14218 29.0677 2.14218 28.9769L2.14069 28.9784ZM3.65789 31.1581C3.6539 31.0917 3.68382 31.0413 3.75814 31.0333C3.82996 31.0249 3.88682 31.0997 3.88283 31.1865C3.87883 31.2623 3.81898 31.3247 3.75564 31.3192C3.6933 31.3152 3.65539 31.2543 3.65789 31.1581Z" fill="#1C1E26"/>
<path d="M38.343 44.1394V45.1716C37.9385 45.2015 37.5301 45.1811 37.1236 45.1851C36.7136 45.1891 36.3021 45.1851 35.8922 45.1851H23.5431V64.3136C23.394 64.3595 22.7092 64.3675 22.4792 64.3296V26.5699H39.3675C39.4054 26.6971 39.4149 27.3406 39.3799 27.598H23.571C23.5276 27.7427 23.5112 43.8062 23.5521 44.1394H38.343Z" fill="#1C1E26"/>
</g>
</g>
<defs>
<clipPath id="clip0_491_365">
<rect width="39.4014" height="64.3556" fill="white"/>
</clipPath>
</defs>
</svg>
