<svg width="109" height="19" viewBox="0 0 109 19" fill="none" xmlns="http://www.w3.org/2000/svg">
<g clip-path="url(#clip0_491_369)">
<path d="M69.4462 5.94038H69.5265L70.3695 6.76212C70.9314 7.34907 71.4935 7.97516 72.0554 8.56212C72.4569 8.99255 72.8984 9.42299 73.2999 9.85342C73.6611 10.2447 74.0224 10.6752 74.4238 11.1056L76.3507 13.1012C76.7922 13.5708 77.2739 14.0795 77.7155 14.5491C78.2775 15.1752 78.8395 15.7621 79.4015 16.3882C79.8832 16.936 80.405 17.4447 80.9269 17.9926C81.0473 18.1491 81.2079 18.3447 81.3685 18.3839C81.7297 18.4621 82.1312 18.423 82.4924 18.3839V17.7578C82.4924 16.7795 82.5326 15.8012 82.5326 14.7839V11.7708C82.5326 10.9491 82.5727 10.0882 82.5727 9.26647V5.97951C82.5727 5.7056 82.5326 5.43168 82.5727 5.15777L82.6932 3.98386C82.7333 3.59255 82.8939 3.16212 83.1347 2.84907C83.496 2.41864 84.0179 2.18386 84.5798 2.14473C85.0214 2.1056 85.4228 2.1056 85.8644 2.06647V1.00994H77.5148V2.02734C77.5951 2.02734 77.7155 2.06647 77.7958 2.06647C78.2374 2.1056 78.6789 2.06647 79.1205 2.14473C79.6022 2.22299 80.0438 2.41864 80.3248 2.84907C80.4853 3.12299 80.6459 3.35777 80.686 3.70994C80.8065 4.21864 80.8466 4.68821 80.8466 5.1969V12.436C80.8466 12.5534 80.8466 12.6317 80.8065 12.8273C80.686 12.7099 80.5656 12.6317 80.4853 12.5534L79.1606 11.1447C78.7191 10.6752 78.2775 10.2447 77.7958 9.77516C77.3141 9.3056 76.8725 8.7969 76.4309 8.28821C76.1901 8.01429 75.9492 7.77951 75.6683 7.54473C75.2267 7.07516 74.7851 6.6056 74.3034 6.13603L74.183 6.01864C73.9421 5.74473 73.7013 5.43168 73.4203 5.15777C73.1794 4.88386 72.8984 4.64907 72.6576 4.37516C72.4167 4.10125 72.1759 3.82734 71.8949 3.55342C71.4533 3.08386 71.0117 2.61429 70.5702 2.18386C70.249 1.87081 69.9279 1.51864 69.6469 1.2056C69.5666 1.12734 69.4462 1.0882 69.3258 1.0882H64.4284V2.14473H64.8298C65.3517 2.14473 65.8334 2.18386 66.3151 2.34038C66.8369 2.4969 67.1982 2.84907 67.3989 3.31864C67.7201 4.06212 67.6799 4.84473 67.7201 5.62734C67.7602 6.40994 67.7201 7.23168 67.7201 8.05342C67.7201 8.83603 67.7602 9.65777 67.7201 10.4795C67.7201 11.5752 67.6799 12.6708 67.6799 13.7665C67.6799 14.3143 67.5996 14.8621 67.4792 15.3708C67.3186 15.9578 66.9975 16.3882 66.3552 16.623C65.9538 16.7404 65.5925 16.8186 65.1911 16.8186C64.9502 16.8186 64.6693 16.8969 64.3883 16.8969V17.3665C64.3883 17.523 64.3883 17.6795 64.4284 17.8752H72.7379V16.8969C72.1759 16.8186 71.654 16.8186 71.1723 16.7013C70.7307 16.623 70.2892 16.4273 70.0082 16.036C69.687 15.6056 69.5666 15.136 69.5265 14.6273C69.4462 13.8839 69.4863 13.1404 69.4462 12.436V6.48821C69.406 6.29255 69.4462 6.0969 69.4462 5.94038ZM54.5534 5.1969V5.54907C54.5935 6.0969 54.5133 6.6056 54.3125 7.11429C54.2724 7.23168 54.1921 7.34908 54.0717 7.46647C53.7104 7.8969 53.1484 7.97516 52.6266 8.05342C52.3857 8.09255 52.1449 8.09255 51.904 8.13168C51.3822 8.17081 50.8202 8.17081 50.2582 8.20994V4.49255C50.2582 3.9056 50.2582 3.27951 50.2983 2.65342C50.499 2.65342 50.6596 2.69255 50.8202 2.69255C52.0244 2.69255 53.2287 2.65342 54.433 2.69255C54.995 2.73168 55.5569 2.77081 56.0788 2.96647C56.3999 3.08386 56.7211 3.24038 56.9619 3.43603C57.3232 3.74907 57.5239 4.21864 57.6444 4.64907C57.7648 5.04038 57.8852 5.43168 57.9655 5.82299H58.8486C58.8486 5.78386 58.8888 5.74473 58.8486 5.7056C58.8085 5.04038 58.7683 4.37516 58.688 3.70994C58.6479 3.3969 58.6078 3.04473 58.6078 2.73168C58.5676 2.30125 58.5275 1.87081 58.5275 1.44038C58.5275 1.12734 58.4873 1.04907 58.1662 1.04907C57.8049 1.04907 57.4436 1.0882 57.0824 1.0882H43.6748C43.5544 1.0882 43.3938 1.0882 43.2734 1.12734V2.14473H43.434C43.9157 2.18386 44.3572 2.18386 44.7988 2.26212C45.0397 2.30125 45.2805 2.37951 45.4812 2.45777C45.9228 2.65342 46.1637 3.04473 46.3242 3.47516C46.4446 3.9056 46.5249 4.33603 46.5249 4.76647C46.5651 5.43168 46.6052 6.13603 46.6052 6.80125V8.95342C46.6052 9.65777 46.6454 10.3621 46.6454 11.0665C46.6454 11.7708 46.6052 12.5143 46.6052 13.2186C46.6052 13.8447 46.5249 14.5099 46.4446 15.136C46.3644 15.4882 46.2841 15.8012 46.0031 16.0752C45.6418 16.5056 45.1601 16.7012 44.5981 16.7404L43.2734 16.8578V17.836H59.4909C59.531 17.0143 59.5712 16.2317 59.6113 15.4491C59.6515 14.6665 59.7318 13.8447 59.7719 13.0621H58.9289C58.7683 13.5317 58.6881 14.0012 58.5275 14.4317C58.2866 15.0969 57.8852 15.6056 57.1626 15.8404C56.6007 16.036 56.0387 16.1143 55.4365 16.1534C54.7943 16.1926 54.1118 16.1926 53.4696 16.1926C52.8273 16.1926 52.185 16.2317 51.5829 16.036C51.1413 15.9186 50.8202 15.6447 50.6194 15.2534C50.499 14.9795 50.3786 14.7056 50.3385 14.3926C50.2983 14.0404 50.218 13.6491 50.1779 13.2969C50.1377 12.7882 50.1779 12.2795 50.1779 11.7317V9.85342H50.6194C50.9807 9.85342 51.3821 9.89255 51.7434 9.89255C52.3054 9.93168 52.8674 9.97081 53.4294 10.1665C53.6703 10.2447 53.871 10.3621 54.0315 10.5969C54.3125 10.9491 54.3928 11.3404 54.433 11.7708C54.433 12.123 54.4731 12.4752 54.5133 12.8273H55.5168V5.27516H54.6337C54.6738 5.15777 54.6337 5.15777 54.5534 5.1969ZM21.8776 5.78386C21.9177 5.54907 21.9578 5.35342 22.0381 5.15777C22.1586 4.76647 22.279 4.2969 22.4797 3.9056C22.7205 3.3969 23.1621 3.04473 23.7642 2.88821C24.3664 2.73168 25.0087 2.61429 25.6509 2.61429C26.7348 2.61429 27.7785 2.57516 28.8222 2.57516C29.1032 2.57516 29.1433 2.65342 29.1433 2.88821C29.1433 3.27951 29.1032 3.67081 29.1032 4.06212V8.56212C29.1032 9.42299 29.1433 10.323 29.1032 11.1839C29.1032 11.8882 29.1032 12.5926 29.063 13.336C29.0229 14.0012 29.0229 14.6665 28.8222 15.2926C28.7419 15.5665 28.5813 15.8404 28.3806 16.0752C27.939 16.5839 27.2968 16.6621 26.6545 16.7404C26.3735 16.7795 26.0524 16.8186 25.7312 16.8186C25.7312 17.1708 25.6911 17.4839 25.7714 17.7969H33.84C34.5625 17.7969 35.2449 17.7969 35.9675 17.7578H36.0076L36.0478 17.7186V16.7795C35.7668 16.7404 35.5259 16.7404 35.2851 16.7013C34.8435 16.623 34.3618 16.6621 33.9604 16.4273C33.7195 16.3099 33.4787 16.1926 33.3181 15.9578C33.0371 15.5665 32.9167 15.0969 32.8765 14.6273C32.7963 13.8447 32.7561 13.023 32.7561 12.2404C32.716 10.7143 32.7561 9.14907 32.7561 7.62299V2.80994C32.7561 2.57516 32.7963 2.57516 33.0371 2.57516H33.4385C34.4421 2.57516 35.4858 2.57516 36.4894 2.61429C37.1316 2.61429 37.7338 2.73168 38.3359 2.96647C38.6972 3.12299 39.0585 3.35777 39.2592 3.70994C39.5402 4.17951 39.6606 4.64907 39.781 5.15777L39.9015 5.62734C39.9416 5.7056 40.0219 5.78386 40.1022 5.78386C40.343 5.78386 40.5839 5.78386 40.8649 5.74473C40.7444 4.14038 40.624 2.57516 40.4634 0.970814H21.4761C21.3557 2.57516 21.1951 4.14038 21.0747 5.74473C21.2353 5.78386 21.5564 5.78386 21.8776 5.78386Z" fill="#1C1E26"/>
<path d="M69.4462 5.94038C69.4462 6.0969 69.406 6.29255 69.406 6.44907V12.3969C69.406 13.1404 69.4061 13.8839 69.4863 14.5882C69.5265 15.0969 69.6469 15.5665 69.968 15.9969C70.249 16.3882 70.6906 16.5839 71.1322 16.6621C71.654 16.7404 72.1759 16.7795 72.6977 16.8578V17.836H64.3883C64.3883 17.6404 64.3481 17.4839 64.3481 17.3273V16.8578C64.6291 16.8186 64.87 16.7795 65.151 16.7795C65.5524 16.7795 65.9538 16.7013 66.3151 16.5839C66.9574 16.3882 67.2785 15.9186 67.4391 15.3317C67.5996 14.823 67.6398 14.2752 67.6398 13.7273C67.6398 12.6317 67.6799 11.536 67.6799 10.4404V8.01429C67.6799 7.19255 67.7201 6.40994 67.6799 5.58821C67.6398 4.8056 67.6398 4.02299 67.3588 3.27951C67.1581 2.80994 66.7968 2.45777 66.2749 2.30125C65.7932 2.14473 65.2714 2.1056 64.7897 2.1056H64.3883V1.04907H69.2856C69.4061 1.04907 69.5265 1.0882 69.6068 1.16647C69.9279 1.47951 70.2089 1.83168 70.53 2.14473C70.9716 2.61429 71.4132 3.08386 71.8547 3.51429C72.0956 3.78821 72.3364 4.06212 72.6174 4.33603C72.8583 4.60994 73.1393 4.84473 73.3801 5.11864C73.6611 5.39255 73.902 5.7056 74.1428 5.97951L74.2633 6.0969C74.7048 6.56647 75.1464 7.03603 75.6281 7.5056C75.869 7.77951 76.15 8.01429 76.3908 8.24908C76.8725 8.75777 77.3141 9.22734 77.7556 9.73603C78.1972 10.2056 78.6388 10.636 79.1205 11.1056L80.4452 12.5143C80.5255 12.5926 80.6058 12.6708 80.7663 12.7882C80.7663 12.6317 80.8065 12.5143 80.8065 12.3969V5.15777C80.8065 4.64908 80.7262 4.14038 80.6459 3.67081C80.5656 3.35777 80.4452 3.08386 80.2846 2.80994C80.0036 2.37951 79.562 2.22299 79.0803 2.1056C78.6388 2.02734 78.1972 2.02734 77.7556 2.02734C77.6754 2.02734 77.5951 2.02734 77.4747 1.9882V0.970814H85.8242V2.02734C85.3827 2.02734 84.9411 2.06647 84.5397 2.1056C83.9777 2.14473 83.4559 2.37951 83.0946 2.80994C82.8537 3.12299 82.6932 3.51429 82.653 3.94473C82.6129 4.33603 82.5326 4.72734 82.5326 5.11864C82.4924 5.39255 82.5326 5.66647 82.5326 5.94038V9.22734C82.5326 10.0491 82.4924 10.9099 82.4924 11.7317V14.7447C82.4924 15.723 82.4924 16.7012 82.4523 17.7186V18.3447C82.091 18.3839 81.6896 18.423 81.3283 18.3447C81.1677 18.3056 81.0072 18.1099 80.8867 17.9534C80.3649 17.4056 79.8832 16.8969 79.3613 16.3491C78.7993 15.723 78.2374 15.136 77.6754 14.5099C77.2338 14.0404 76.7521 13.5317 76.3105 13.0621L74.3837 11.0665C74.0224 10.6752 73.6611 10.2447 73.2597 9.81429C72.8583 9.38386 72.4167 8.95342 72.0153 8.52299C71.4533 7.93603 70.8913 7.30994 70.3293 6.72299L69.4863 5.90125C69.4863 5.94038 69.4863 5.94038 69.4462 5.94038ZM54.5534 5.1969C54.6337 5.1969 54.6738 5.15777 54.714 5.15777H55.5971V12.7099H54.5935C54.5534 12.3186 54.5534 12.0056 54.5133 11.6534C54.5133 11.223 54.3928 10.8317 54.1118 10.4795C53.9513 10.2839 53.7505 10.1273 53.5097 10.0491C52.9878 9.85342 52.3857 9.81429 51.8237 9.77516C51.4624 9.77516 51.061 9.73603 50.6997 9.73603H50.2582V11.6143C50.2582 12.123 50.218 12.6317 50.2582 13.1795C50.2582 13.5317 50.3786 13.923 50.4187 14.2752C50.4589 14.5882 50.5793 14.8621 50.6997 15.136C50.9004 15.5665 51.2216 15.8012 51.6631 15.9186C52.2653 16.1143 52.9076 16.0752 53.5498 16.0752C54.1921 16.0752 54.8745 16.0752 55.5168 16.036C56.0788 15.9969 56.6809 15.9186 57.2429 15.723C57.9254 15.4491 58.3669 14.9795 58.6078 14.3143C58.7683 13.8839 58.8888 13.4143 59.0092 12.9447H59.8522C59.812 13.7665 59.7318 14.5491 59.6916 15.3317C59.6515 16.1143 59.6113 16.8969 59.5712 17.7186H43.3537V16.7404L44.6784 16.623C45.2404 16.5839 45.7221 16.3882 46.0834 15.9578C46.3242 15.6839 46.4446 15.3708 46.5249 15.0186C46.6454 14.3926 46.6855 13.7665 46.6855 13.1012C46.6855 12.3969 46.7256 11.6534 46.7256 10.9491C46.7256 10.2447 46.6855 9.54038 46.6855 8.83603C46.6855 8.13168 46.7256 7.38821 46.6855 6.68386C46.6855 6.01864 46.6052 5.31429 46.6052 4.64907C46.5651 4.21864 46.5249 3.78821 46.4045 3.35777C46.2439 2.88821 46.0031 2.53603 45.5615 2.34038C45.3608 2.26212 45.12 2.18386 44.8791 2.14473C44.4375 2.1056 43.9558 2.06647 43.5143 2.02734H43.3537V1.00994C43.4741 1.00994 43.5945 0.970814 43.7551 0.970814H57.1626C57.5239 0.970814 57.8852 0.970814 58.2465 0.931683C58.5676 0.931683 58.6078 1.00994 58.6078 1.32299C58.6078 1.75342 58.6479 2.18386 58.688 2.61429C58.7282 2.92734 58.7683 3.27951 58.7683 3.59255C58.8085 4.25777 58.8486 4.92299 58.9289 5.58821V5.7056H58.0458C57.9254 5.31429 57.8451 4.88386 57.7246 4.53168C57.5641 4.06212 57.4035 3.63168 57.0422 3.31864C56.8014 3.12299 56.4802 2.96647 56.1591 2.84907C55.6372 2.65342 55.0752 2.61429 54.5133 2.57516C53.309 2.4969 52.1047 2.53603 50.9004 2.57516C50.7399 2.57516 50.5793 2.57516 50.3786 2.53603C50.3385 3.16212 50.3385 3.74907 50.3385 4.37516V8.09255C50.9004 8.05342 51.4223 8.05342 51.9843 8.01429C52.2251 8.01429 52.466 7.97516 52.7068 7.93603C53.2287 7.85777 53.7505 7.77951 54.152 7.34907C54.2323 7.23168 54.3527 7.11429 54.3928 6.9969C54.5534 6.48821 54.6337 5.97951 54.6337 5.43168C54.5534 5.43168 54.5534 5.35342 54.5534 5.1969ZM21.8776 5.78386H20.9141C21.0346 4.17951 21.1951 2.61429 21.3156 1.00994H40.3029C40.4233 2.61429 40.5437 4.17951 40.7043 5.78386C40.4233 5.78386 40.1824 5.82299 39.9416 5.82299C39.8613 5.82299 39.781 5.74473 39.7409 5.66647C39.6606 5.50994 39.6606 5.35342 39.6205 5.1969C39.5 4.68821 39.3395 4.21864 39.0986 3.74907C38.8979 3.3969 38.5768 3.16212 38.1753 3.0056C37.5732 2.77081 36.9711 2.69255 36.3288 2.65342C35.3252 2.61429 34.2815 2.61429 33.278 2.61429H32.8765C32.6357 2.61429 32.6357 2.61429 32.5956 2.84907V12.2795C32.5956 13.0621 32.6357 13.8839 32.716 14.6665C32.7561 15.136 32.8765 15.5665 33.1575 15.9969C33.3181 16.2317 33.5991 16.3491 33.7998 16.4665C34.2012 16.7012 34.683 16.6621 35.1245 16.7404C35.3654 16.7795 35.6062 16.7795 35.8872 16.8186V17.7578L35.8471 17.7969H35.8069C35.0844 17.7969 34.402 17.836 33.6794 17.836H25.6108C25.5305 17.4839 25.5707 17.1708 25.5707 16.8578C25.8918 16.8186 26.1728 16.7795 26.4939 16.7795C27.1362 16.7404 27.7785 16.6621 28.22 16.1143C28.4208 15.8795 28.5813 15.6056 28.6616 15.3317C28.8623 14.7056 28.8623 14.0404 28.9025 13.3752C28.9426 12.6708 28.9426 11.9665 28.9426 11.223V4.10125C28.9426 3.70994 28.9426 3.31864 28.9827 2.92734C28.9827 2.65342 28.9426 2.61429 28.6616 2.61429C27.5778 2.61429 26.5341 2.65342 25.4904 2.65342C24.8481 2.65342 24.246 2.73168 23.6037 2.92734C23.1621 3.04473 22.7205 3.3969 22.4797 3.9056C22.279 4.2969 22.1987 4.76647 22.0783 5.1969C21.998 5.39255 21.9578 5.54907 21.8776 5.78386ZM21.3958 16.7404C20.9543 16.7012 20.5127 16.6621 20.0712 16.4665C19.75 16.3099 19.4289 16.1143 19.188 15.8404C18.5859 15.0969 18.1845 14.236 17.783 13.3752C17.502 12.8273 17.2612 12.2795 17.0203 11.7317C16.8598 11.4186 16.6992 11.0665 16.5386 10.7534C16.3379 10.323 16.1773 9.89255 15.9766 9.50125C15.6956 8.87516 15.3745 8.28821 15.0534 7.66212C14.9731 7.46647 14.8527 7.30994 14.7724 7.15342C14.5717 6.68386 14.3308 6.21429 14.1301 5.74473C13.9294 5.31429 13.6885 4.88386 13.4878 4.45342C13.1667 3.78821 12.8857 3.16212 12.5645 2.4969C12.3638 2.02734 12.123 1.55777 11.8821 1.0882L11.5208 0.383857H10.5173C10.3567 0.736031 10.156 1.0882 9.99543 1.44038C9.71444 1.9882 9.47358 2.53603 9.19259 3.08386C8.95173 3.63168 8.71088 4.17951 8.42988 4.68821C8.10875 5.39255 7.74747 6.05777 7.42633 6.72299C7.14533 7.30994 6.86433 7.93603 6.5432 8.56212C6.38263 8.91429 6.18192 9.22734 6.02135 9.54038C5.82063 9.97081 5.66007 10.4012 5.41921 10.8317C4.97765 11.7708 4.49594 12.7099 4.05437 13.6491C3.77338 14.1969 3.49238 14.7839 3.17124 15.3317C3.01067 15.6056 2.80996 15.8795 2.56911 16.0752C2.20783 16.3491 1.76626 16.623 1.28455 16.6621C0.923273 16.7012 0.481708 16.7795 0 16.8186V17.7969H8.22917V16.8186C7.98832 16.7795 7.74747 16.7404 7.54675 16.7404C7.18547 16.7795 6.86433 16.7012 6.5432 16.623C6.38263 16.5839 6.18192 16.5447 6.02135 16.4665C5.61992 16.3099 5.41921 15.9578 5.45935 15.5665C5.4995 15.2926 5.57978 14.9795 5.70021 14.7056L6.66362 12.5926C6.74391 12.436 6.86433 12.3578 7.06505 12.3578H13.1265C13.3272 12.3578 13.4075 12.436 13.4878 12.5926C13.6082 12.8665 13.7287 13.1012 13.8491 13.3752C14.0899 13.8839 14.3709 14.3926 14.5315 14.9404C14.7724 15.6447 14.6118 16.3099 13.7688 16.5447C13.4075 16.6621 13.0463 16.7404 12.6448 16.7404C12.404 16.7404 12.1631 16.7795 11.9223 16.8186V17.7969H21.8776V16.8186C21.717 16.7795 21.5564 16.7404 21.3958 16.7404ZM7.5869 10.7926C8.42988 9.07081 9.23273 7.34908 10.0757 5.58821C10.3567 6.17516 10.6377 6.72299 10.9187 7.30994C11.1997 7.8969 11.4807 8.48386 11.7216 9.07081C12.0026 9.65777 12.3237 10.2056 12.5645 10.8317C10.8786 10.7926 9.27287 10.7926 7.5869 10.7926ZM107.742 16.6621C107.14 16.5839 106.618 16.2708 106.217 15.8404C105.735 15.2926 105.374 14.6273 105.052 13.9621C104.812 13.4143 104.571 12.8665 104.29 12.3186L103.447 10.5578C103.126 9.89255 102.804 9.26647 102.483 8.64038C102.242 8.13168 101.961 7.62299 101.721 7.07516C101.48 6.52734 101.239 5.97951 100.958 5.47081C100.677 4.92299 100.396 4.37516 100.155 3.82734C99.8741 3.27951 99.6332 2.69255 99.3522 2.14473C99.2318 1.87081 99.0712 1.5969 98.9508 1.32299C98.7902 1.00994 98.6698 0.6969 98.5092 0.344727H97.4655C97.1845 0.970814 96.9035 1.55777 96.6225 2.18386C96.2612 2.92734 95.9 3.63168 95.5387 4.37516C95.1774 5.07951 94.8563 5.82299 94.495 6.56647L93.8929 7.85777C93.5717 8.52299 93.2506 9.18821 92.9294 9.81429C92.6886 10.3621 92.4076 10.9099 92.1667 11.4186C91.8055 12.2013 91.404 12.9447 91.0428 13.6882C90.7618 14.2752 90.4406 14.823 90.1195 15.4099C89.7582 16.036 89.1962 16.3882 88.5138 16.5447C88.0722 16.6621 87.5905 16.6621 87.1489 16.7012C87.0687 16.7012 86.9884 16.7404 86.9482 16.7404V17.7186H95.1774C95.1373 17.3665 95.2176 17.0534 95.1373 16.7404C94.8563 16.7012 94.6556 16.6621 94.4147 16.6621C93.933 16.6621 93.4513 16.623 93.0097 16.4273C92.5682 16.2317 92.3674 16.1143 92.4076 15.6056C92.4477 15.2143 92.5682 14.8621 92.6886 14.5099C92.809 14.1578 93.0097 13.8447 93.1301 13.5317C93.3309 13.1012 93.5316 12.7099 93.6921 12.2795H100.316C100.436 12.5534 100.556 12.7882 100.677 13.0621C100.958 13.6882 101.239 14.3143 101.48 14.9795C101.721 15.5665 101.6 15.9969 101.078 16.3099C100.837 16.4665 100.556 16.5056 100.275 16.5839C99.9945 16.6621 99.7135 16.6621 99.4325 16.6621C99.2318 16.7012 99.0311 16.7012 98.7902 16.7404C98.8705 17.0534 98.7099 17.4056 98.8705 17.7186H108.826V16.7404C108.545 16.7795 108.143 16.7404 107.742 16.6621ZM94.6154 10.7926C95.4584 9.07081 96.2613 7.38821 97.0641 5.66647C97.1042 5.7056 97.1845 5.74473 97.2247 5.78386L99.6332 10.7926H94.6154Z" fill="#1C1E26"/>
</g>
<defs>
<clipPath id="clip0_491_369">
<rect width="108.826" height="18.0843" fill="white" transform="translate(0 0.344727)"/>
</clipPath>
</defs>
</svg>
