<svg xmlns="http://www.w3.org/2000/svg" width="220" height="74" viewBox="0 0 1140.8 390.8"><path d="M426.2 380.4l.1-47.7 23.9.1v9.5h-14.4v9.5h12.6v9.5h-12.6v9.5H451v9.5l-24.8.1zm39.4-13c5.5 3.9 11.4 4 13.6 3.8 2.8-.2 5.2-2.2 5-4.8-.2-2.7-2.3-3.9-4.9-4.9-7.5-2.8-14.1-6.6-14.1-14.6s5.6-14.1 13.5-14.5c2.5-.1 5.7-.1 11.9 2l-1.2 9.2c-5.3-2.2-8.3-2.1-9.7-2-3.4.2-4.9 2.7-4.8 5.3.3 2.7 2.6 3.9 5.3 4.8 7.4 2.8 13.8 7.1 13.8 14.7 0 7.9-5.5 14-14.5 14.4-2.7.2-8.6-.2-15.1-3.5l1.2-9.9zm50.8 13.2l.1-38.2h-11.9v-9.5l33.4.1v9.5h-11.9l-.1 38.2-9.6-.1zm57.7-47.5l17.3.1-.1 47.7h-9.5l.1-38.1h-7.8v-9.7zm32.1 13.9c0-7.8 5.3-14.4 14.5-14.2 11.6.2 16.7 11.3 12.4 21.6L621.9 381h-10.3l8.3-20.1c-8.2 0-13.8-5-13.7-13.9zm19.1.3c0-6.2-9.3-6.4-9.5-.2-.3 6.4 9.6 6.6 9.5.2zm21.7-.2c0-7.8 5.3-14.4 14.5-14.2 11.6.2 16.7 11.3 12.4 21.6L662.7 381h-10.3l8.3-20.1c-8.2.1-13.7-4.9-13.7-13.8zm19.2.3c0-6.2-9.3-6.4-9.5-.2-.4 6.4 9.5 6.7 9.5.2zm49.7 19.8c0 7.9-5.5 13.9-14.4 14.4-2.5.1-8.9 0-15.2-2.2l.9-9.5c14.8 5.1 19.1 1.1 19-2.9 0-5.6-3.5-7.4-18.1-8.5l.1-25.1 24.3.1v9.1h-14.7v8.3c12 1.1 18.1 5.3 18.1 16.3zM501.6 4.8c0-.1.1-.2.2-.2 1.8.1 3.7.1 5.6.1.5 0 .9 0 1.4-.1 2.4 0 4.7 0 6.9-.1 2.3-.1 4.5-.1 6.6-.2h.9c1.8 0 3.5.1 5.1.2 2.6.2 5 1 7.2 2.4s3.8 3.1 4.8 5.3c.2.3.3.8.3 1.3 0 .6.1 1 .3 1.4.3.6.8 1.1 1.5 1.5.6.3 1.3.8 1.9 1.5-.4.6-.9 1.1-1.5 1.6-.6.4-1.1.9-1.7 1.4-.1 1.6-.6 3-1.3 4-.8 1-1.6 2-2.6 2.8 1.2.9 2.2 2 3.1 3.2.9 1.2 1.5 2.6 1.9 4.3.6.6 1.1 1.1 1.6 1.7.5.6 1.1 1 1.8 1.4-.5.8-1.1 1.4-1.7 1.8-.7.4-1.2 1-1.6 1.7-.2.4-.3.8-.3 1.3s-.1.9-.3 1.4c-1 2.6-2.6 4.7-4.8 6.3-2.2 1.6-4.8 2.5-7.9 2.7-1.7.1-3.4.2-5.2.2-.3 0-.6 0-.9-.1-2.2 0-4.5 0-6.8-.1s-4.7-.1-7.1-.2h-1.9c-1.8 0-3.6 0-5.5.1.2-.6.4-1.1.6-1.7s.5-1.3.8-2c.2-.6.5-1.2.8-1.8.3-.7.5-1.3.6-1.9.1-.6.2-1.2.2-1.9 0-.3 0-.7-.1-1.1-.1-1.2-.1-2.3-.1-3.4s0-2.3.1-3.5c0-.4.1-.8.1-1.1 0-.7-.1-1.3-.2-1.9-.2-.7-.5-1.4-1.1-2.1s-1-1.3-1.3-1.9c.1-.3.3-.5.5-.8.2-.3.5-.5.7-.8.3-.3.5-.5.7-.8.2-.3.4-.6.5-.9.1-.6.2-1.2.2-1.9v-1.2c-.1-1.2-.2-2.4-.2-3.6 0-1.1 0-2.3.1-3.6v-1.1c0-.8 0-1.4-.1-2-.1-.6-.3-1.2-.5-1.8-.3-.7-.5-1.3-.9-2-.3-.7-.6-1.4-.9-2-.1-.7-.3-1.3-.5-1.8zm3.4 23.9c-.1 0-.2.1-.3.1-.1 0-.2 0-.2.1.1 0 .2-.1.3-.1.2 0 .2 0 .2-.1zm.6-1.5v.3c-.2.2-.3.3-.3.4h.1s.1-.1.3-.2c.1-.1.2-.2.3-.4v-.1s0-.1-.1-.1l-.3.1zm0-6.4v1.1c0 .1-.1.3-.1.4 0 .3 0 .5.1.6 0 .3.1.6.2.9.1.3.3.4.6.5.5-.1.9-.3 1.3-.5.3-.3.8-.5 1.2-.7v-.5c0-.5.1-1 .2-1.4-.3 0-.7-.1-.9-.3-.3-.1-.6-.2-.9-.4-.3-.1-.6-.2-.8-.2-.3.1-.6.2-.9.5zm.5 26.1c0-.1-.1-.2-.1-.3 0-.1 0-.2.1-.3v-.6c0-.2 0-.3-.1-.5 0-.1-.2-.2-.4-.2 0 .1.1.2.1.3v.2c0 .3-.1.5-.1.6 0 .2 0 .4.1.5 0 .3.2.3.4.3zm-.1-21.5c.1-.1.2-.3.3-.6v-.1c0-.1-.1-.2-.3-.2h-.2c0 .3-.1.4-.2.5v.1c.1.1.2.2.4.3zm-.1 3.9c.3 0 .5-.2.6-.5v-.1c0-.2-.1-.3-.4-.3 0 .1-.1.2-.2.3 0 .1-.1.2-.1.3 0 .1 0 .2.1.3zm.7-12.7h.5c0-.1 0-.1.1-.2 0 0 .1-.1.1-.2-.1 0-.2 0-.3-.1 0 0-.1-.1-.2-.1h-.2v.6zm0 10.6h.5v-.4h-.5v.4zm.7-1.4v-.5c0-.2-.1-.3-.2-.3-.1.1-.2.3-.2.4 0 0 0 .1.1.1-.1.1.1.2.3.3zm.6-12.7c-.1 0-.2.1-.3.1-.1 0-.2 0-.2.1.1 0 .2-.1.3-.1.2.1.2 0 .2-.1zm-.4 13.7h.5v-.4h-.5v.4zm.8-11.8c.6-.1.8-.4.8-.8-.1-.2-.3-.3-.4-.3h-.1c-.2 0-.3.1-.4.2-.1.1-.2.2-.2.4 0 0-.1 0-.1.1.1.1.2.3.4.4zm0 4.5c.1.1.3.2.5.2.1 0 .2.1.3.1h.2c.2 0 .3-.1.5-.3 0-.1.1-.2.1-.3 0-.1 0-.2-.1-.3-.2-.1-.3-.1-.5-.1-.1 0-.3 0-.4.1l-.6.6zm.7 18.7c-.1 0-.2.1-.3.1-.1 0-.2 0-.2.1.1 0 .2-.1.3-.1.1.1.2 0 .2-.1zm-.1-27.4h.4v-.4h-.4v.4zm.4 9.4c-.1 0-.2.1-.3.1-.1 0-.1 0-.1.1h.3c.1-.1.1-.2.1-.2zm-.3 9.5c.1.1.3.2.5.2h.1c.2 0 .3-.2.3-.4v-.2h-.2c-.5 0-.7.2-.7.4zm.3-5.4c.2 0 .4 0 .6.1h.1c.1 0 .2-.1.2-.2s0-.2-.1-.3c-.4 0-.6.1-.8.4zm1.1-1c0-.1.1-.1.1-.2s0-.2-.1-.3c-.1 0-.2-.2-.2-.3 0 0 0-.1.1-.3h-.6c-.2.7.1 1.1.7 1.1zm1.3.6s-.1-.1-.2-.1-.2 0-.3.1c-.2.1-.3.2-.3.2 0 .1-.1.2-.1.2s0 .1.1.1c0 0 0 .1.1.1s.2 0 .3-.1c.1 0 .3-.1.4-.2l.1-.1c-.1-.1-.1-.2-.1-.2zm-.5-1.4h-.3c-.1 0-.1.1-.1.2.1 0 .2-.1.3-.1.1 0 .1 0 .1-.1zm.7 6.2h.4v-.4h-.4v.4zm.5-5c.4 0 .6.1.8.3 0 0 .1.1.2.1s.3 0 .5-.1v-.2c0-.2 0-.4-.1-.5-.1-.1-.3-.2-.5-.3h-.1c-.2 0-.3.1-.5.2-.1.1-.2.2-.3.5zm.9-18.1c-.1 0-.2.1-.3.1-.1 0-.1 0-.1.1h.3s.1-.1.1-.2zm.6 18.7l-.1-.1c-.1 0-.2 0-.2.1-.2.1-.3.2-.3.3 0 .1-.1.2-.1.3 0 0 0 .1.1.1 0 0 0 .1.1.1s.2 0 .3-.1c.1 0 .2-.1.3-.3v-.1c0-.2 0-.3-.1-.3zm.4 3.5h.3c.3 0 .5-.2.5-.5V27h-.8v.8zm15-5.3c.6-.5 1-1.1 1.3-1.9.2-.6.3-1.2.3-1.9v-.5c-.1-.8-.3-1.6-.8-2.3-.4-.7-1.1-1.3-1.9-1.6h-12.9c-.2.9-.3 2-.3 3.1 0 .4 0 .9.1 1.3 0 .8.1 1.6.1 2.4 0 .8 0 1.5-.1 2.3.8-.1 1.6-.2 2.5-.2h1.3l3.9.3c.8.1 1.6.1 2.3.1.5 0 .9 0 1.4-.1 1.1-.1 2-.4 2.8-1zm-14.1 21.3c.8-.1 1.7-.2 2.5-.2.4 0 .9 0 1.3.1l3.9.3c.7 0 1.4.1 2.1.1.5 0 1 0 1.5-.1 1.1 0 2.1-.3 3-.8.6-.3 1.2-.8 1.6-1.4.4-.6.7-1.3.9-2.1.1-.5.1-.9.1-1.4 0-.3 0-.5-.1-.8-.1-.8-.3-1.5-.6-2.1-.5-1-1.4-1.7-2.6-2.1-1.2-.4-2.6-.6-4.1-.7h-2c-.9 0-1.8 0-2.8.1-.8 0-1.6.1-2.4.1-.7 0-1.5 0-2.2-.1-.2 1.2-.3 2.4-.3 3.8 0 .5 0 1.1.1 1.6 0 1 .1 2 .1 3v2.7zm6 2.3c-.2 0-.3.1-.4.2.1.1.2.2.4.2h.1c.1 0 .2-.1.2-.2.2.1.3.3.4.5.9-.3 1.5-.9 1.7-1.9h-.9c-.2.1-.4.2-.6.2-.1 0-.2.1-.3.1-.1 0-.2 0-.2-.1-.2 0-.4-.1-.7-.2-.1.1-.2.4-.2.7v.3h.4s.1.1.1.2zm.4-34.9c0-.1-.1-.2-.2-.2h-.1c-.1 0-.2.1-.2.2s.1.1.1.1c.1.1.3 0 .4-.1zm-.4 34.9c.2 0 .3.1.3.2-.2 0-.3-.1-.3-.2zm3.5 6.2h1.2v-.8c-.1-.1-.3-.2-.5-.2-.1 0-.2 0-.3.1-.3.1-.5.3-.5.6.1 0 .1.2.1.3zm1.1-6.4c-.1 0-.2.1-.3.1-.1 0-.1 0-.1.1.1 0 .2-.1.3-.1 0 0 .1 0 .1-.1zm1.2 1.7c0-.1 0-.2-.1-.3h-.1c-.1 0-.2.1-.2.3l.1.1c.1-.1.2-.1.3-.1zm2.9-23.5c-.2.1-.2 0-.2-.2-.3 0-.5.2-.5.5s-.2.5-.5.5c-.1-.3-.2-.4-.5-.4h-.1c-.2.3-.4.6-.6.8-.2.2-.3.4-.3.7 0 .2 0 .4.1.6.1 0 .3.1.4.1h.2c.2 0 .3-.1.5-.2s.3-.1.4-.2h.1s.1 0 .1.1c.2.1.3.2.3.3 0 0 0 .1-.1.1 0 0-.1 0-.1-.1h-.1c-.2 0-.3.1-.4.3.3.2.6.3.9.3.4 0 .7-.2.8-.5.3-.5.4-1.1.5-1.8h-.1c-.5 0-.7-.2-.7-.7l-.1-.2c.1.1.2.2.3.2.1 0 .2 0 .2-.1.1 0 .1-.2.1-.3v-.2c-.3 0-.5.1-.6.4zm1.4 2.3v-.3c0-.3-.1-.5-.4-.5 0 .2 0 .4-.1.6v.1c0 .1.1.2.2.2.2 0 .3-.1.3-.1zm-.3 1.4h.6v-.3c0-.3-.1-.5-.4-.6 0 .2-.1.3-.2.4 0 0-.1.1-.1.2s0 .2.1.3zm.4 1h1c.3 0 .4-.1.4-.4v-.2c-.3-.1-.6-.1-.9-.1-.3 0-.5.3-.5.7zm.3 3.4v.6c-.1 0-.2 0-.2.1s.1.1.2.1c.2 0 .3.1.5.1h.2v-.2c0-.4-.2-.6-.5-.6l-.2-.1V32h-.1v.1s-.1 0-.1.1.2 0 .2 0zm1.4 14.3h-.5v.5h.1c.1 0 .2 0 .3-.1 0-.2 0-.3.1-.4.1 0 .1 0 .1-.1-.1-.1-.2 0-.1.1zm-.5 3.1c.2 0 .3.1.4.1 0 0 .1.1.2.1h.3v-.6h-.3c-.4 0-.6.1-.6.4zm.6-30.1h.4v-.4h-.4v.4zm.7-5v.7c0 .1.1.2.3.2 0 0 .1 0 .3-.1v-.8h-.6l-.1-.1h-.1l-.1.1h.3zm1.4 5.8c.1 0 .1.1.2.1 0 0 .1 0 .1-.1.1-.1.1-.2.1-.3 0-.1 0-.2-.1-.3l-.1-.1s-.1 0-.2.1v.6zm1 11.6h.5c0-.1.1-.2.1-.3 0-.1-.1-.2-.3-.2h-.2c-.2 0-.3.1-.3.2v.1c.2 0 .2.1.2.2zm.5-14.2h.6v-.6h-.6v.6zm.7 0h.5v-.5h-.5v.5zm1.9 19c.1-.1 0 0 0 0-.2 0-.4.1-.6.3-.2.1-.4.3-.5.5-.2.2-.3.4-.3.6h.3c0 .1.1.2.1.3 0 .1.1.2.1.2 0 .1.1.1.3.1.2-.3.5-.4.8-.5.3-.1.5-.4.5-.9-.1-.1-.2-.1-.4-.2-.1-.1-.2-.2-.3-.4zm-.2 9.6c-.1 0-.2.1-.3.1-.1 0-.1 0-.1.1h.3c.1-.1.1-.2.1-.2zm-.2-8.6c0-.1 0-.1.1-.1s.2 0 .3-.1c0 .1 0 .1-.1.2h-.3zm22-33.5h18.7c-.1.7-.2 1.3-.5 2-.2.6-.5 1.2-.7 1.8l-.6 1.8c-.2.6-.3 1.2-.3 1.8 0 .5.2 1.1.5 1.7.3.6.6 1.2.8 1.8.6 1.6 1.3 3.3 2 5.1.7 1.8 1.3 3.5 1.9 5.1.6.6 1.2 1.1 1.8 1.5l1.8 1.5c-.4.9-.6 1.7-.6 2.5 0 .1-.1.2-.1.3 0 .7.1 1.4.4 2.1.2.8.5 1.6.9 2.4.4.8.7 1.6 1.1 2.5.5 1.1.9 2.2 1.3 3.4.4 1.1.8 2.2 1.3 3.1.5.9 1 1.7 1.6 2.4.6.8 1.2 1.5 1.8 2.2.6.7 1.1 1.4 1.6 2.1.5.7.9 1.3 1.2 2h-14.1c-.8-2.4-1.7-4.7-2.6-6.9-.9-2.2-1.9-4.4-2.8-6.6h-13.5c-1.1 2.1-2.1 4.3-3 6.6-.9 2.3-1.7 4.6-2.6 6.9h-12.7c.2-.7.5-1.4.9-2 .4-.6.8-1.3 1.3-2s.9-1.4 1.4-2.1c.5-.7.9-1.5 1.3-2.2.7-1.4 1.3-3 1.9-4.8.6-1.8 1.2-3.5 1.8-5.2.2-.6.4-1.2.6-1.6.2-.5.3-1 .4-1.5 0-.2.1-.5.1-.7 0-.3 0-.5-.1-.8-.1-.5-.3-1.1-.6-1.7.5-.6 1-1.2 1.6-1.7.6-.5 1.2-.9 1.9-1.4l1.8-5.1c.7-1.7 1.4-3.5 2.1-5.3.2-.6.5-1.2.8-1.7.3-.6.5-1.1.5-1.6v-.3c0-.6-.1-1.1-.2-1.6-.2-.6-.5-1.2-.7-1.8-.3-.6-.5-1.2-.7-1.9-.5-.7-.6-1.4-.7-2.1zm-6 47.7h.5v-.4h-.5v.4zm4.6-21.6c0-.1-.1-.1-.3-.2h-.1c-.1 0-.2.1-.3.2v.1s0 .1.1.1.2.1.3.1c.1 0 .2 0 .3-.1v-.2zm1 3.1c-.1 0-.2-.1-.3-.2-.1-.1-.2-.2-.4-.3-.1.1-.2.2-.2.3v.1c0 .1.1.2.3.3.1.1.2.1.3.1l.1-.1c.1.1.2 0 .2-.2zm-.4 11.6c-.1 0-.2.1-.3.1-.1 0-.2 0-.2.1.1 0 .2-.1.3-.1.2 0 .2 0 .2-.1zm0-6c.1.1.3.2.6.2s.4-.1.5-.4c-.3 0-.5-.1-.6-.2h-.1c-.2 0-.3.2-.4.4zm1.6-10v-.3c0-.3-.2-.5-.5-.5h-.1c0 .1-.1.2-.1.3 0 .2.1.3.2.3.2.1.4.1.5.2zm-.4 4.6c0-.1.1-.2.2-.3.1-.1.2-.2.2-.4 0 0-.1-.1-.2-.1s-.2.1-.3.3c-.1.1-.1.2-.1.3 0 .1.1.1.2.2zm1.3-8.7h-.6v.6h.1c.1 0 .2 0 .2.1s.1.1.3.1v-.8c.2 0 .3 0 .3-.1v-.1c0-.1-.1-.1-.1-.1h-.1c-.1 0-.1 0-.1.1-.1 0-.1.1 0 .2zm-.2 3.1c.1.5.3 1 .4 1.5.1.4.4.6.9.6.1 0 .2 0 .4-.1.4-.3.7-.6.7-1v-.1c0-.3-.1-.6-.3-.8-.2-.3-.5-.4-.9-.5h-.3c-.3 0-.6.2-.9.4zm1-1.9c0-.1-.1-.2-.2-.2h-.1c-.1 0-.1.1-.1.2.1 0 .2 0 .3.1v.1s0-.1.1-.2zm0 4.4c-.1 0-.2.1-.3.1-.1 0-.1 0-.1.1.1 0 .2-.1.3-.1.1 0 .1 0 .1-.1zm.8-7.3c0-.1-.1-.1-.3-.2h-.1c-.1 0-.2.1-.3.2v.1c0 .1 0 .1.1.1.1.1.2.1.3.1.1 0 .2 0 .3-.1v-.2zm1.3-1.2c0-.1 0-.1-.1-.2h-.1c-.1 0-.2.1-.2.2.1 0 .2 0 .3.1 0 0 0 .1.1.1V22zm.6 6.4h-.3c-.1 0-.3 0-.4-.1h-.2c-.1 0-.2.1-.2.2v.1c.1 0 .2-.1.3-.1.1 0 .2 0 .3.1.1 0 .1.1.2.1.2 0 .3-.1.3-.3zm.6-2.9c0-.5-.2-.8-.5-.8-.1.1-.1.2-.1.3 0 0 0 .1.1.2.1.2.2.3.5.3zm-.4 11.6c.1-.2.2-.3.4-.3s.3-.1.4-.4c0 .2.1.4.2.4.1.1.3.1.5.2s.3.1.5.2c.1.1.2.2.2.4.3-.1.6-.1.6-.1.1 0 .3 0 .6.1-.2-.3-.4-.5-.6-.9l-.6-.9c-.2-.3-.5-.5-.8-.6-.3-.2-.7-.3-1.2-.3-.2.3-.3.7-.4 1.1 0 .2-.1.4-.1.6l.3.5zm.2-15.8h.5v-.4h-.5v.4zm.4 9.2h6.6c-.5-1.5-1-2.9-1.5-4.3s-1.1-2.8-1.7-4.2c0-.1-.1-.2-.3-.2h-.1c-.5 1.5-1 2.9-1.6 4.3-.4 1.4-.9 2.8-1.4 4.4zm2.5 8.3l-.3-.3h-.5s-.1.1-.1.2c0 0 0 .1.1.1.1.1.2.1.3.1l.1.1c.1 0 .2 0 .3-.1.1.1.1 0 .1-.1zm-.9-17.9c.2 0 .4 0 .6-.1.1 0 .1 0 .1-.1 0 0 0-.1-.1-.2h-.4c0 .1 0 .2-.1.2 0 .1 0 .1-.1.2zm.7-.8c.3 0 .5-.1.6-.4h-.5c-.1 0-.2.1-.2.3l.1.1zm.6-5.6c.3.1.5.2.6.4.1.1.2.1.4.1.1 0 .3 0 .5-.1 0-.1-.1-.2-.1-.3 0-.2.1-.3.2-.3s.1-.2.1-.3c0-.1 0-.2-.1-.3-.1-.1-.3-.2-.6-.2h-.8v.2c0 .1 0 .2-.1.3-.1 0-.1.1-.1.3v.2zm3.5 23.5c-.1 0-.2-.1-.2-.1-.1 0-.1.1-.1.2 0 .2-.1.3-.3.3v-.6h-.2c-.2 0-.3.1-.3.3 0 .2-.2.3-.3.3 0 0-.1 0-.2-.1.1-.1.2-.3.2-.4v-.2c-.1-.2-.2-.4-.5-.5v.3c-.1 0-.2.1-.3.1-.1 0-.2.1-.2.1-.1 0-.1.1-.1.3.3.2.4.3.4.4l-.1.1c-.1.1-.2.3-.3.6h3.1c-.2-.3-.3-.5-.3-.6.1-.2 0-.3-.3-.5l.6-.3c.2 0 .3-.2.3-.3 0-.1 0-.2-.1-.3-.3 0-.5-.1-.6-.3 0-.1-.1-.1-.2-.1s-.3.1-.4.3v.1c0 .1 0 .1.1.1 0 .1.1.2.2.2l.2.2s.1.1.1.2c-.1 0-.1.1-.2.2zm-1.8-2.2h.8v-.3c0-.3-.2-.5-.5-.5h-.3v.8zm.8-25.1c-.1 0-.2.1-.3.1-.1 0-.1.1-.1.2.1 0 .2-.1.3-.1 0 0 .1 0 .1-.2zm0 11.9c.1 0 .2 0 .3.1 0 0 .1.1.2.1 0-.1 0-.2.1-.2 0 0 .1-.1.1-.2-.1 0-.2 0-.2-.1s-.1-.1-.2-.2c0 .1 0 .2-.1.2-.1.1-.2.2-.2.3zm.7 11.2c.3-.2.7-.3 1.1-.4.4-.1.7-.3.9-.6-.5 0-1 .1-1.4.2-.3.1-.6.3-.6.8zm1.2-15.6c-.2 0-.2 0-.2-.1l-.1-.1-.1.1c0 .1.1.1.2.1 0 0 0 .1.1.1 0 .1.1 0 .1-.1zm-.4 18l.3-.3.1-.1s-.1-.1-.2-.1c-.1.2-.2.3-.2.5zm.2-26.3v.4c.1 0 .2.1.3.1.1 0 .2-.1.2-.3V10c0-.2-.1-.3-.2-.3h-.1c0 .2-.1.2-.2.2zm.8 27.4h.4v-.4h-.4v.4zm.2.7h.5v-.5h-.5v.5zm.5-15.6h.1c.2 0 .5-.1.7-.2.1-.1.2-.2.2-.3 0 0-.1-.1-.3-.2 0 .2-.1.3-.4.3-.2.1-.3.2-.3.4zm.5 3.9c0-.1 0-.2-.1-.3h-.1c-.1 0-.2.1-.2.3h.1c.1 0 .1 0 .2.1 0 0 0 .1.1.1v-.2zm.7 6.6v-.6h-.4c-.1 0-.2.1-.3.2.2 0 .3.1.4.2.1.1.2.2.3.2zm0 2.2h-.5v.6h.5v-.6l.1-.1v-.1l-.1-.1v.3zm.8-4.4c-.1 0-.2 0-.3-.1 0 0 0-.1-.1-.1 0 0-.1.1-.1.2s.1.1.2.1c0 0 0 .1.1.1s.2-.1.2-.2zm0 3.5c-.3.2-.4.4-.4.6 0 .1 0 .2.1.3.2.3.4.6.5 1h1c0-.3.1-.6.3-.7.1-.1.2-.2.2-.5 0-.1 0-.2-.1-.3h.3c-.1 0-.2-.1-.5-.2-.2-.1-.5-.1-.7-.2h-.7v-.5h-.5v.1c0 .1 0 .2.1.2.2.1.3.2.4.2zm.6-17.4h-.3c-.1 0-.1.1-.1.2.1 0 .2-.1.3-.1.1 0 .1 0 .1-.1zm.3 10.8c0 .2 0 .3.1.3l.1-.1c.1-.1.2-.2.3-.4.1-.1.1-.3.1-.4 0 0-.2.1-.4.3l-.1.1s-.1 0-.1-.1v.3zm.4 10.4h.4c0-.2.1-.3.2-.3 0 0 .1-.1.1-.2v-.1h-.5c0 .1 0 .2-.1.3 0 0-.1.1-.1.2v.1zm1.2-6.3c-.1 0-.2.1-.3.1-.1 0-.1 0-.1.1h.3c0-.1.1-.1.1-.2zm0-8.9h.5c.1 0 .2 0 .2-.1v-.1c-.2 0-.3-.1-.3-.3l.1-.1v-.1c0-.1-.1-.2-.2-.3 0 .2 0 .4-.1.4-.2.2-.2.4-.2.6zm.6 4.6h.4c.1-.1.1-.2.1-.3 0-.1-.1-.2-.3-.3 0 .2 0 .4-.2.6zm.9.4c.2 0 .3 0 .5-.1.1 0 .1 0 .1-.1 0 0 0-.1-.1-.2h-.4c0 .1 0 .2-.1.2.1 0 0 .1 0 .2zm1 19.1c-.2-.1-.4-.2-.5-.3-.1-.1-.3-.2-.5-.3v.2c0 .2.1.4.4.5.2.1.3.1.4.1.1 0 .2-.1.2-.2zm2.3-6.5c.1-.1 0-.2-.1-.3-.2-.2-.4-.4-.7-.5-.3-.2-.6-.3-1-.4-.2 0-.3-.1-.5-.1s-.4 0-.6.1c0 .4-.1.8-.1 1v.3c0 .2 0 .4.1.6 0-.4.2-.6.4-.6h.1c.3 0 .5.1.9.2.3.1.6.2.9.2h.1c.2 0 .3-.2.5-.5zm-1.1 4.6c0-.1 0-.1-.1-.2h-.1c-.1 0-.2.1-.2.2s0 .1.1.1.2 0 .3-.1zm2.4-1.7v.5h.4v-.2c0-.1 0-.1-.1-.2-.1 0-.2-.1-.3-.1 0-.3.1-.4.4-.4h.8v-.6h-.1c0-.2.1-.3.3-.3 0 .1-.1.2-.1.3 0 .1.1.2.2.2h.1c.2 0 .4-.1.6-.1-.2-.4-.3-.8-.4-1.3-.1-.5-.3-.8-.6-1-.2.2-.3.3-.4.3 0 0-.1 0-.1-.1-.2-.1-.6-.1-1.2-.2 0 .3.1.4.2.5 0 .1.1.2.1.3 0 .1 0 .2-.1.4-.1.1-.2.2-.5.2h-.6c-.3 0-.5 0-.7.1-.2 0-.3.2-.3.4.2 0 .4.1.6.1.1 0 .2.2.2.4v.1c.2 0 .4 0 .4-.1.1-.1.2-.1.4-.1v.3c0 .4.2.6.5.6h.3zM584 29.8h.5v-.4h-.5v.4zm0 16.2c.1.1.3.2.5.2h.2c.2 0 .3-.2.3-.3 0-.1 0-.2-.1-.3-.4 0-.7.2-.9.4zm1.7-7h.6v-.1c0-.4-.2-.7-.5-.7 0 .1-.1.2-.1.3 0 .1-.1.2-.1.3l.1.2zm.2 6.4c.1-.1.2-.3.3-.5v-.1c0-.1-.1-.2-.3-.2 0 0-.1 0-.2.1 0 .1.1.2.1.3v.2l-.1.1c0-.1.1 0 .2.1zm55.7-26.2c-.6.6-1.2 1-1.8 1.4-.7.4-1.3.8-1.9 1.3-.4 2.5-1.2 4.7-2.3 6.5-1.1 1.8-2.8 3.1-4.9 3.9 1 1.9 2 3.9 2.8 6 .8 2.1 1.8 4 3 5.8.5.9 1.1 1.7 1.8 2.4.7.8 1.4 1.5 2.1 2.2.7.7 1.3 1.4 2 2.1.6.7 1.2 1.5 1.6 2.2h-14.5c-1.6-3.2-3.1-6.4-4.7-9.5-1.5-3.2-3.1-6.3-4.7-9.5h-9.4v.9c0 1.7-.1 3.4-.3 5-.1.8-.2 1.7-.2 2.5 0 1.1.1 2.2.3 3.2.1.7.3 1.4.6 2 .3.6.6 1.3.8 1.9.3.6.5 1.2.8 1.8.3.6.4 1.2.5 1.7H597c.1-.6.3-1.2.5-1.8.3-.6.5-1.3.9-1.9.3-.6.6-1.3.9-2 .3-.7.5-1.4.6-2 .1-.6.1-1.2.1-1.9v-1c-.1-1.1-.1-2.2-.1-3.3 0-1.1 0-2.2.1-3.4 0-.4.1-.7.1-1 0-.7-.1-1.3-.2-1.8-.2-.8-.6-1.5-1.2-2.1-.6-.6-1.1-1.3-1.4-1.9.4-.6.8-1.2 1.3-1.6.5-.5.9-1 1.2-1.6-.1-.9-.1-1.7-.1-2.6v-.9c0-1.1.1-2.2.2-3.4.1-1.1.1-2.2.2-3.3V15c0-.9-.1-1.8-.2-2.7-.1-.7-.3-1.4-.6-2.1-.3-.7-.5-1.4-.8-2-.3-.6-.6-1.3-.9-1.9-.3-.6-.5-1.2-.6-1.8v-.1c0-.1.1-.1.2-.1 1.3 0 2.7.1 4.2.1h2.3c2.3 0 4.6-.1 7-.1 2.4 0 4.7-.1 7-.1h1c1.9 0 3.7.1 5.4.2 4 .2 7.2 1.4 9.5 3.5s3.8 5.1 4.4 8.7c.5.5 1.1 1 1.8 1.4.6.3 1.2.7 1.8 1.2zM601.4 5.7c.2 0 .3 0 .5-.1.1 0 .1-.1.1-.2v-.1h-.5c0 .1 0 .2-.1.2v.2zm1.3 23.1v-.1c0-.5-.2-.7-.7-.7h-.1v.3c0 .3.2.5.5.5h.3zm1.4 19.5c0-.1-.1-.1-.2-.2h-.1c-.1 0-.1.1-.1.2.1 0 .2 0 .3.1v.1c0-.1.1-.1.1-.2zm.4-34.6c0-.1 0-.2-.1-.3h-.1c-.1 0-.2.1-.2.3l.1.1c.1-.1.2-.1.3-.1zm2.7-8c.3 0 .6-.1.6-.4-.3 0-.5.2-.6.4zm0 18.1h.5v-.4h-.5v.4zm2.1 7.5V31c0-.4-.2-.6-.5-.6h-.1c0 .2.1.4.1.6 0 .2.2.3.3.3h.2zM609 6.2h.5v-.5h-.5v.5zm1.5 18.2c.7-.2 1.5-.3 2.5-.3.3 0 .7 0 1.1.1 1.3.1 2.7.2 4 .3 1.4.1 2.6.2 3.8.2.1 0 .2.1.2.1 1.1 0 2.1-.2 2.9-.5.7-.3 1.2-.9 1.6-1.6.4-.8.6-1.7.6-2.6v-.5c0-.7-.1-1.5-.3-2.3-.2-.9-.5-1.5-.9-2-.6-.7-1.6-1.2-2.8-1.4-1-.1-2.1-.2-3.3-.2h-.8c-1.5 0-2.9.1-4.4.2-.6 0-1.2.1-1.7.1-.8 0-1.6 0-2.3-.1-.2 1.1-.3 2.2-.3 3.5 0 .6 0 1.1.1 1.6 0 1.1.1 2.1.1 3.1 0 .8 0 1.6-.1 2.3zm3.1 1.9c-.3 0-.4.1-.4.2.1 0 .2-.1.3-.1.1 0 .1 0 .1-.1zm.2 6.4c-.1 0-.2.1-.3.1-.1 0-.1.1-.1.2.1 0 .2-.1.3-.1.1-.1.1-.1.1-.2zM615.7 6h.5v-.5h-.5V6zm2.7 1.8c0 .3.1.5.2.6.7 0 1.1-.2 1.2-.6-.1-.2-.4-.3-.7-.3-.3.1-.6.2-.7.3zm0 1.3h.4v-.5h-.4v.5zm.2 3.7c.3 0 .5 0 .7-.1.2 0 .3-.2.3-.4-.1-.1-.3-.2-.5-.2h-.2c-.2 0-.3.2-.3.4v.3zm.8-6.5c.9.6 1.9.8 3.1.8h.5c0-.3.1-.6.3-.8.1-.1.2-.2.2-.5 0-.1 0-.3-.1-.5-.3-.2-.7-.3-1.2-.3-.2 0-.4 0-.6.1-.3 0-.7.1-1 .1-.3 0-.7 0-1-.1v.2c0 .1 0 .2-.1.3-.1 0-.1.1-.1.3v.4zm.9 19.7c-.1 0-.2.1-.3.1-.1 0-.2.1-.2.2.1 0 .2-.1.3-.1.1 0 .2 0 .2-.2zm.4 6.9c0-.3-.1-.6-.4-.6-.1.1-.2.3-.2.4v.1c0 .1.2.2.3.2.1 0 .2 0 .3-.1zm-.2-21.8c0 .2.1.3.1.3s.1 0 .1-.1l.3-.3c.1-.1.1-.2.1-.3v-.1l-.1-.1s-.2.1-.4.3l-.1.1s-.1 0-.1-.1c.1.1.1.2.1.3zm.4 20h.5v-.5h-.5v.5zM623 7.8c.1 0 .2 0 .3.1 0 0 .1.1.2.1h.1c0-.3-.1-.5-.4-.6 0 .1 0 .2-.1.2-.1.1-.1.1-.1.2zm2 .2c-.3 0-.5.1-.5.2.1 0 .2-.1.3-.1.2 0 .2 0 .2-.1zm-.4 5.2h.6c-.1-.1-.2-.3-.2-.6 0 0 0-.1.1-.1v-.1c0-.3-.1-.4-.4-.4h-.1c.1.3.1.5.1.6 0 .1 0 .3-.1.6zm2.5-.7c0-.1-.1-.2-.2-.2h-.1c-.1 0-.1.1-.1.2s0 .1.1.1c.1.1.2 0 .3-.1zm1.3 11.9h.1c.3 0 .4-.1.4-.4 0-.3 0-.5.1-.6h-.6v1zM630 20h.4v-.4h-.4v.4zm.7-.4h.3c.3 0 .5-.1.6-.3.1-.3.2-.5.4-.7-.1-.1-.3-.1-.4-.1-.2 0-.3 0-.5.1-.3.2-.4.5-.4.8v.2zm.2 1.4c.1 0 .3.1.4.2 0 0 .1.1.3.1h.2v-.1c0-.3-.1-.4-.4-.5h-.1c-.3 0-.4.1-.4.3zm1.2 17.1c-.1 0-.2.1-.3.1-.1 0-.1 0-.1.1.1 0 .2-.1.3-.1.1 0 .1 0 .1-.1zM633.3 9c-.1 0-.2 0-.2-.1l-.1-.1s-.1.1-.1.2.1.1.2.1c0 0 0 .1.1.1s.1 0 .1-.2zm-.2 4.6h.5v-.5h-.5v.5zm1.2 2.3c-.1 0-.2 0-.2-.1s-.1-.1-.2-.1c-.2.1-.3.2-.3.3 0 0 .1.1.2.1s.2.1.2.1c.2-.1.3-.2.3-.3zm1.1-.5h.4V15h-.4v.4zm1.9 2.2c0-.1 0-.2-.1-.2s-.2.1-.3.2c0 .1.1.1.2.1 0 0 .1-.1.2-.1zm2.1 32.1c-.1 0-.2 0-.3-.1 0 0-.1-.1-.3-.1h-.1c0 .1-.1.2-.1.3 0 .1.1.2.3.2h.1c.3 0 .4-.1.4-.3zm-198.5-33h-14.3l-7.2 12.4 7.2 12.4h14.3l7.2-12.4zm274.6 0h-14.4l-7.2 12.4 7.2 12.4h14.4l7.1-12.4zM7.2 183.2c35.1-8.4 70.5-16.1 106-23-1.2 4.5-2.1 9.2-2.9 13.9-.7 4.7-1.7 9.3-2.8 13.9-22.4 4.4-33.6 6.8-55.9 11.8.2 3.1.7 6.4 1.5 10 .3 1.4.5 2.2.8 3.6.7 2.4 1.3 4.8 1.8 7.2.5 2.4 1 4.8 1.4 7.1 21.4-4.8 32.1-7 53.6-11.3 2 10.3 3.1 15.4 5.1 25.7-21 4.2-31.4 6.4-52.3 11 .2 3 .6 6.1 1.3 9.3.3 1.4.5 2.1.8 3.5.6 2.3 1.2 4.5 1.7 6.7.5 2.3 1 4.6 1.3 6.8 21.3-4.8 42.6-9.2 64-13.3 2.2 4.1 4.5 8.1 6.9 11.9 2.4 3.8 4.9 7.5 7.4 11.3-13.2 3-26.6 5.9-40.2 8.7-5.5 1.1-8.2 1.7-13.7 2.9-9.1 1.8-18.2 3.8-27.3 5.9s-18.2 4.2-27.2 6.5c-.2-1.5-.2-3.2.2-5.1.3-1.9.8-3.8 1.2-5.7.5-1.9.9-3.9 1.2-5.8.3-2 .5-3.9.4-5.6-.1-1.5-.4-3.3-.9-5.2-.3-1.2-.4-1.8-.7-2.9-1-3-1.8-6-2.5-9s-1.3-6-1.8-9c-.1-1-.3-2-.5-2.8-.4-1.8-1-3.5-1.7-4.9-.9-1.8-2.4-3.3-4.3-4.4-1.9-1.1-3.4-2.4-4.5-3.8-.2-.8-.1-1.6.3-2.5.4-.9.8-1.8 1.4-2.7.5-.9 1.1-1.9 1.6-2.8.5-1 .9-2 1-3-.8-2.2-1.4-4.5-2-6.8-.2-.9-.3-1.3-.5-2.2-.6-3-1.1-6-1.6-9s-1-5.9-1.6-8.8c-.1-.5-.2-.7-.3-1.2-.5-2.3-1.3-4.6-2.2-6.9-1.5-3.6-3.6-6.8-6.3-9.6-2.7-2.7-4.8-5.5-6.1-8.4-.6-.7-.9-1.3-1.1-2zm37.9 118.4c.5-.1.7-.2 1.2-.3.2-.4.2-.7.1-.9-.1-.5-.5-.7-1.3-.6.1.3 0 .6-.2.8-.1.1-.1.4 0 .7.1.1.2.2.2.3zm-24-112.4c.2-.1.5 0 .6.1.2.1.4.2.7.3-.1-.6-.2-.8-.3-1.4-.2-.3-.4-.4-.7-.4-.1 0-.3.1-.5.3.1.5.1.7.2 1.1zm7.5 21.1c.3.3.7.4 1.1.5.4 0 .8.1 1.2.2.4.1.8.2 1.1.4.1.6.2.9.4 1.5.4-.1.5-.1.9-.2.8-.2 1.6-.5 1.9-.8.4-.4.7-1 .8-1.6.1-.6.2-1.3.2-2s.3-1.3.8-1.7c-1.4.3-2.1.5-3.5.8-.5.1-1 .2-1.7.3-.6.1-1.5.1-2.7.2 0 .5-.1.9-.2 1.2-.1.3-.2.7-.3 1.2zm3.6 15.5c.4.3.8.4 1 .3.1 0 .2-.1.1-.2.4-.1.6-.3.8-.6.1-.1.1-.3.1-.4 0-.1 0-.2-.1-.3-.2-.2-.6-.3-1.2-.3.1.5 0 .7-.2.8-.3.1-.5.4-.5.7zm3.1.4c-.2.2-.4.3-.7.3-.2.1-.3.3-.2.6.2-.2.4-.3.7-.4.2-.1.3-.3.2-.5zm-3-23.8c-.2.2-.4.3-.7.3-.4.1-.5.2-.5.5.9-.2 1.3-.5 1.2-.8zm6.1 15.5c0-.2-.1-.3-.1-.5-.1-.6-.5-.8-1-.9h-.9c-.4.1-1 .2-1.2.5-.1.1-.1.5 0 .7.1.5.4.7.9.7.9-.2 1.3-.3 2.3-.5zm-3-2.2c.3.1.5.1.6 0 .1 0 .2-.1.3-.3.2-.3.2-.6.2-.9-.1-.2-.2-.4-.5-.6-.1-.1-.3-.1-.4-.1-.1 0-.3.1-.5.3.1.6.1.9.3 1.6zm1-3.2c.5-.1.8-.2 1.3-.3-.1-.4-.1-.6-.2-1-.5.1-.8.2-1.3.3 0 .4.1.6.2 1zm-1.1-15.3c-.2.1-.5.1-.7.3-.2.1-.3.3-.3.5.2-.2.4-.3.7-.3.3-.2.4-.3.3-.5zm.1 5c.7-.2 1.1-.3 1.8-.4-.1-.6-.2-.9-.4-1.5-.7.2-1.1.3-1.8.4.1.6.2.9.4 1.5zm4.1 9.6c-.1 0-.2.1-.4.1-.1 0-.3 0-.4-.1 0-.1-.1-.2-.2-.1-.1 0-.3.2-.3.4 0 .3.3.5.7.4.3-.1.5-.3.6-.7zm-3.7-32.3c-.2.2-.5.3-.7.3-.4.1-.5.2-.5.5.8-.2 1.2-.5 1.2-.8zm4.2 21.1c.4-.1.7-.1 1.1-.2-.1-.4-.1-.6-.2-1-.4.1-.7.2-1.1.3.1.3.1.5.2.9zM53.5 236c-.2.2-.4.3-.7.3-.4.1-.5.3-.4.6.2-.2.5-.3.9-.4.2 0 .3-.2.2-.5zm-7.3-35c.4-.1.7-.1 1.1-.2-.1-.5-.2-.7-.3-1.2-.4.1-.7.1-1.1.2.2.5.2.7.3 1.2zm12.1 48.6c-.2.2-.4.3-.7.3-.2.1-.3.2-.3.4.2-.2.4-.3.7-.3.3 0 .4-.2.3-.4zm-7.2-29.4c.4-.1.7-.1 1.1-.2-.1-.4-.1-.6-.2-1-.4.1-.7.1-1.1.2.1.4.1.6.2 1zM49.9 196c.5-.1.8-.2 1.3-.3-.1-.4-.1-.6-.2-1-.5.1-.8.2-1.3.3.1.4.1.6.2 1zm.9-2.3c.7-.2 1.1-.2 1.8-.4-.3-1.5-.9-2.1-1.8-2 0 .2.1.3.1.5.1.2 0 .4-.1.6-.2.3-.3.5-.2.8.1.2.1.3.2.5zm-.6-5.1c.3.1.5.1.6 0 .2-.1.4-.2.5-.5.1-.3.1-.6 0-.9-.1-.2-.2-.4-.3-.7-.2-.1-.3-.1-.6 0-.1 0-.3.1-.5.3.1.7.1 1.1.3 1.8zm.9-9.7c-.1-.2-.2-.4-.5-.4h-.2c-.2.1-.4.3-.4.6.1.2.2.3.4.3s.4-.2.7-.5zm5.6 2.3c-.2.2-.5.3-.7.3-.2.1-.4.3-.4.6.2-.2.5-.3.9-.4.2 0 .2-.2.2-.5zm2.3-3.5c-.2.2-.5.3-.7.3-.2.1-.3.3-.3.6.2-.2.4-.3.7-.4.3-.1.4-.2.3-.5zm1.4 3.9c.5-.1.8-.2 1.3-.3-.1-.5-.2-.7-.3-1.2-.5.1-.8.2-1.3.3.2.5.2.7.3 1.2zm38.8 99.3c0-.1 0-.2-.1-.3-.2-.9-.8-1.3-1.9-1-.2 0-.3.1-.5.1 0 .1 0 .2.1.3.2.9.8 1.3 1.9 1 .2-.1.3-.1.5-.1zm2.7 3.9c0-.1 0-.2-.1-.3-.1-.5-.4-.7-.7-.8h-1.8v.2c.2.9.8 1.3 1.9 1.1.3-.1.4-.1.7-.2zm2.8 7.5c0-.2-.3-.4-.6-.4h-.2c-.2 0-.4.3-.4.6.2.2.3.3.4.3.3 0 .5-.2.8-.5zm-2.5-15c-.4.1-.6 0-.8-.2 0-.1-.1-.2-.2-.1-.1 0-.2.2-.2.6 0 .2.2.3.6.2 0 .1.1.2.2.1.2 0 .3-.2.4-.6zm15.1 13.7c.4.2.6.5.7.9.1.5.3.7.7.6.2 0 .6-.2.7-.3.2-.5-.8-1.5-1.7-1.3-.2.1-.3.1-.4.1-.1-.7-.4-1.1-.8-1.1-.1 0-.2 0-.4.1-.2 0-.5.2-.8.4-.4.2-.8.3-1 .4-.1.1-.1.1-.1.2-.2 0-.4-.3-.6-1 .3-.5.3-1.3.1-2.4h.9c.2 0 .3-.2.3-.4-.2-.8-.3-1.2-.4-2.1-.8.5-1.4.8-1.8.9-.4.1-.6-.1-.8-.4-.4-.3-.7-.8-.8-1.5 0-.1.1-.4.1-.6 0-.6-.2-1.7-.2-2.7 0-.2-.1-.3-.1-.5-.1-.7-.5-1.1-1.2-1.2.2.2.3.4.3.7.1.6-.1.9-.5 1-.1-.1-.1-.1-.2-.1-.3.1-.4.1-.7.1-.4.1-.6.2-.8.5-.2.2-.3.4-.2.6 0 .1.2.3.5.4 0 .2.1.3.1.5s-.1.4-.4.6c-.1.1-.3.2-.5.3-.1 0-.3 0-.6-.1s-.6-.1-.7 0c-.2 0-.4.1-.5.3-.1.1-.1.3-.1.4 0 .1.2.3.5.4.1.1.2.3.3.5 0 .1-.1.3-.3.4-.2 0-.2-.1-.4-.1-.4.1-.7.1-.9 0h-.2c-.2 0-.3.1-.3.2-.1 0-.2.1-.1.2 0 .1.2.3.5.4.3-.2.7-.3 1-.4.5-.1.8 0 1 .2.2.3.3.7.4 1.2 0 .1 0 .2.1.3-.1.3-.1.4-.1.6.1.3.2.7.4 1 .2.4.8.5 1.9.3-.2.4-.5.6-.9.7-.3.1-.4.1-.7.1-.4.1-.5.3-.4.6 0 .2.1.3.1.5.9.3 1.8.7 2.5 1.1.8.4 1.6.7 2.6.7-.2-.8 0-1.3.6-1.6.6-.2 1-.6 1.3-1 .3.3.6.6.9 1 .3.4.7.6 1.2.7.2-.3.3-.7.3-1.3-.1-.3.1-.6.4-.6-.3.5-.1.6.2.6zm-19.2-67.5c0-.2-.2-.4-.5-.4h-.2c-.2 0-.4.3-.4.6.4-.1.6 0 .8.2 0 .1.1.2.2.1.1-.2.1-.3.1-.5zm15.6 64.1c-.2 0-.4 0-.4-.1s.1-.3.3-.4c0 .2 0 .3.1.5zm.9-4.2c0-1.7.7-3 2.1-3.9 1.3-.9 2.3-2.1 2.9-3.6-.5.1-.7 0-.8-.4 0-.1 0-.2.1-.2-.1-.6-.2-.8-.3-1.4-.9-.1-1.7-.1-2.4-.1s-1.6-.1-2.4-.1c.6.4.9.8 1 1.4.1.3.1.4.1.7-.2.9-.5 1.8-.8 2.7-.4.9-.6 1.8-.7 2.7-.1.3-.1.5 0 .7.1.6.5 1.1 1.2 1.5zm3.8 4c.4 0 .8.1 1.1.1.1.1.3.1.6.1.3-.1.4-.1.7-.1-.1-.7-.2-1-.3-1.7-.1 0-.2 0-.4.1-1.2.1-1.8.6-1.7 1.5zm13.7.7c-.2.2-.4.3-.7.3-.2 0-.4.2-.5.5.2-.2.5-.3.8-.3.3-.2.4-.3.4-.5zM128.3 158c8.1-1.5 16.5-3.1 25.4-4.7 8.9-1.6 17.6-3.2 26.1-4.9 1.3 4 2.9 7.6 4.7 10.8 1.9 3.2 3.9 6.2 6.2 8.9 2.3 2.7 4.6 5.3 7 7.8 2.4 2.5 4.8 5 7.2 7.6 1.5-3.1 3.1-6.2 4.7-9.2 1.6-3 3.1-6.2 4.4-9.5 1.3-3.3 2.4-6.8 3.2-10.5.8-3.7 1.1-7.7 1-11.9 20.2-3 30.3-4.4 50.5-7 .5.1.8.2.8.4 0 .4-.1.7-.3 1-.3.3-.6.7-.8 1-.3.3-.5.5-.6.5-2.7 3.7-6 7.5-9.8 11.5-3.8 4-7.3 7.8-10.3 11.3-2.9 6.3-5.9 12.6-9 18.7-3.1 6.1-6.2 12.2-9.2 18.4.2.8.7 1.4 1.3 1.8.6.4 1.3.7 2 1 .7.3 1.4.5 2 .9.6.3 1.1.9 1.4 1.7-.8 1.4-1.5 3-2 4.7-.6 1.7-1 3.4-1.4 5.1 5.2 6.5 10.6 12.6 16.3 18.3 5.7 5.7 11 11.8 16 18.4 4.5 2.7 9.2 5.5 14.2 8.4 4.9 2.9 9.1 5.8 12.5 8.8-20.3 2.5-30.4 3.9-50.6 6.9-.6-1.1-1.1-2.2-1.4-3.5-.3-1.2-.5-2.4-.7-3.6-.2-1-.3-2.1-.6-3.2-.2-1.1-.6-2.1-1.1-3-.6-1.1-1.4-2.3-2.7-3.4-1.2-1-2.4-2.1-3.6-3.2-2.9-3.4-5.9-6.9-8.9-10.4-3-3.6-6-7.1-9-10.4-1.9 4.1-3.9 8.2-6 12.3-2 4.1-4 8.4-6 12.7-1.5 3.2-2.5 6.5-3 9.7-.4 3.2-.3 7.4.3 12.6-20 3.3-29.9 5.1-49.8 8.8-.6 0-.9-.1-1-.4 0-.2.1-.5.3-.8.2-.3.5-.6.8-.9.2-.2.3-.3.5-.4 2.4-3.3 5.3-6.9 8.8-10.7 3.4-3.8 6.6-7.3 9.6-10.6 3.1-7.7 6.4-15.3 9.9-22.6 3.5-7.4 6.9-14.8 10.4-22.3-.9-1.8-1.9-3.3-3.1-4.6-1.2-1.3-2.2-2.7-3.2-4.2.1-1.6.8-2.7 2.1-3.5 1.3-.8 2.2-1.8 2.8-3.1-4.8-4.6-9.3-9.4-13.5-14.3-4.2-5-8.8-9.6-13.8-13.9-1.9-1.7-4.2-3.3-6.9-4.9-2.6-1.6-5.2-3.1-7.8-4.7-2.9-1.8-5.6-3.5-8.3-5.3-2.3-1.8-5-3.3-8-4.4zm36.1 120.6c-.2 0-.5.1-.7.2-.2.1-.3.3-.3.5.2-.2.4-.3.7-.3.2-.1.3-.2.3-.4zm4-1.3c.3.1.5.2.7.2.2.1.4.1.5.1-.1-.5-.1-.7-.2-1.2h-.2c-.4.1-.7.4-.8.9zm8.1-23.5c-.2 0-.3.1-.5.1-.6 2.1-1.4 4-2.5 5.7-1.1 1.7-1.7 3.7-1.9 6-.3.1-.4.1-.7.1-.2.4-.2.8-.2 1.1 0 .1 0 .2.1.3.2.3.5.4 1 .4.1 0 .3-.1.7-.3 0-.1 0-.2-.1-.3 0-.2-.1-.4-.3-.5-.2-.1-.4-.3-.5-.8.2 0 .3-.1.5-.1s.4-.1.5-.3c.2-.2.4-.4.4-.7l.3-.9c.1-.3.4-.5.7-.6.6.4.9.9 1 1.4 0 .2 0 .5-.1.7-.1 1.1-.3 1.8-.7 2.3 1.1.2 1.9.2 2.4.1.2 0 .3-.1.5-.1.6-.1 1.2.2 1.8.9.2-.8.3-1.3.3-1.5 0-.1 0-.2-.1-.3-.2-.2-.4-.4-.8-.5-.4-.1-.7-.2-1.1-.4-.3-.1-.5-.5-.6-1.1.8-.1 1.8 0 2.8.4.5.3 1 .4 1.3.3.5-.1.8-.4 1.1-.9-.6-.4-1.1-.9-1.5-1.5.8-.7 1.6-1.2 2.2-1.3h.2c0 .1.1.2.2.1.6-.1 1.2-.3 1.9-.7-.9-1.5-1.9-2.7-3.2-3.5-1.2-.8-2-2.2-2.4-4.3-.1 0-.2 0-.4.1-.7.1-1 .5-1.1 1.1-.1.7-.5 1.3-1 1.6 0-.7-.1-1.2-.2-2.1.2 0 .3-.2.3-.4h-.2c-.1 0-.2.2-.1.4zm-.3 21.4c.5-.1.8-.3 1-.5.2-.3.3-.6.2-.9-.1-.3-.2-.6-.5-.8-.1-.1-.3-.1-.6-.1-.2 0-.3.1-.5.1.2.8.2 1.3.4 2.2zM163.6 162c.1-.1.2-.4.2-.9-.1-.5-.1-.7-.2-1.2-.2-.4-.4-.8-.7-1.1-.2-.3-.6-.4-1.1-.3.2 1 .3 1.5.4 2.4.3.6.7 1 1.4 1.1zm14.8 89.3c1 0 1.5 0 1.7.2 0 .1 0 .2.1.3.1.3 0 1 0 2 .9-.3 1.7-.7 2.4-1.1.3-.2.7-.3 1.2-.4.5-.1 1-.1 1.5-.1-.4-1.1-1-1.8-1.6-2.1-.7-.2-1.3-.7-2.1-1.3-.1-.4-.1-.6-.2-1-.3-.5-.7-.8-1-.7-.2 0-.5.1-.7.3 0 .8-.2 1.5-.5 1.9-.4.5-.7 1.2-.8 2zm5.6 18.6c0-.5.2-.9.4-1.1.1-.1.1-.3.1-.6 0-.2-.1-.5-.3-.7-.6.1-1 .2-1.6.3 0 .3.1.4.1.7.2.9.6 1.4 1.3 1.4zm-3-24.2c-.2 0-.5.1-.7.2-.2.1-.3.3-.3.5.2-.2.4-.3.7-.3.2-.1.3-.2.3-.4zm2.6 18.5c.5-.1.7-.1 1.2-.2-.1-.5-.1-.7-.2-1.2-.5.1-.7.1-1.2.2.1.5.1.7.2 1.2zm3 14.4c.4-.1.6 0 .8.1.1.2.3.2.6.2-.1-.5-.2-1-.4-1.4-.1-.2-.4-.3-.6-.3-.1 0-.3.1-.5.3 0 .5 0 .7.1 1.1zm-4.6-31.5c.3 0 .4-.1.7-.1.6-.1 1.1-.3 1.4-.6.2-.2.6-.5 1.2-.6h1.1c0-.3-.1-.4-.1-.7-.2-1-.7-1.5-1.7-1.3h-.2c.1.7 0 1.1-.3 1.3-.3.2-.7.3-1 .4-.4.1-.6.2-.9.3-.3.2-.4.6-.2 1.3zm6.1 15.6c-.2.2-.4.3-.7.3-.2 0-.3.2-.3.6.2-.2.4-.3.7-.3.3 0 .4-.2.3-.6zm1.8 10.8c-.3.4-.4.7-.4 1h.2c.3.1.4.5.6 1.2.8-.1 1.6-.4 2.2-.7.4-.2.6-.6.5-1.2 0-.2-.1-.5-.3-.7-1.1.2-1.6.3-2.8.4-.2-.9-.6-1.4-1.4-1.6v.2c.2.6.6 1.1 1.4 1.4zm-3.1-24.9c-.2.2-.4.3-.7.3-.2 0-.3.2-.3.4.2 0 .5-.1.7-.2.3-.1.4-.2.3-.5zm1.5 12c.7-.1 1.1-.2 1.8-.3-.2-1.2-.8-1.7-1.7-1.5-.1 0-.2 0-.4.1.1.6.2 1 .3 1.7zm-.3-5.2c.9-.2 1.4-.2 2.3-.4 0-.2-.1-.3-.1-.5-.1-.3-.2-.6-.3-.8-.3-.2-.6-.3-1-.2-.4.1-.6.2-.8.5-.2.3-.3.6-.2.9 0 .2 0 .3.1.5zm-6.5-60.6c0 .2.1.3.1.5.1.3.2.5.5.5.2 0 .5-.1.7-.3.9-.5 1.5-.9 1.7-1.2-.7-.2-1-.5-1.1-.9-.1 0-.2 0-.2-.1 0-.2.2-.4.3-.6.1-.1.3-.5.5-.8.3-.3.4-.7.5-1.2-.6.1-1.1 0-1.4-.2s-.6-.5-.9-.8c-.3-.3-.6-.6-1-.8-.4-.2-.8-.3-1.5-.2 0 .1 0 .2.1.3.2.9-.3 1.5-1.4 1.7-.2 0-.3.1-.6.1.9.9 1.5 1.6 1.7 2.1.2.5.9 1.2 2 1.9zm9.4 64.1c.5-.1.7-.1 1.2-.2 0-.2 0-.4.1-.6.1-.1.2-.3.3-.6-.4.1-.6 0-.8-.2-.1-.1-.4-.1-.7-.1-.1 0-.2 0-.4.1.2.6.2.9.3 1.6zm-15.3-94.8v.2c.2.9.8 1.3 1.9 1.1.3 0 .4-.1.7-.1-.1-.6.1-1.1.5-1.7-.6-.4-1.2-.5-1.8-.4-.4.1-.9.4-1.3.9zm5.9 27.2c.4.1.6.2.6.4.1.3 0 .6-.1.8-.2.2-.4.3-.8.4 0 .1 0 .2-.2.2s-.5-.1-.6-.4c.1-.4.3-.6.6-.6.4-.1.5-.4.5-.8zm13.8 83c-.2.2-.4.3-.7.3-.2 0-.4.2-.5.4.9-.2 1.3-.4 1.2-.7zm-13.8-79.5c0-.2 0-.4.1-.6.1 0 .3.1.5.5-.3.1-.4.1-.6.1zm12.7 76.2c.4-.1.6-.1 1.1-.2-.1-.5-.1-.7-.2-1.2-.4.1-.6.1-1.1.2.1.5.2.7.2 1.2zm-3.4-38.1c-.8.4-1.2.7-1.1.9.2-.2.5-.3.9-.3.2-.1.3-.3.2-.6zm1.5 16.6c.5-.1.8-.1 1.3-.2-.1-.5-.1-.7-.2-1.2-.5.1-.8.1-1.3.2.1.5.1.7.2 1.2zm3.5 13.2c0-.2-.2-.4-.6-.4h-.2c-.2 0-.4.2-.4.6.1 0 .2 0 .4-.1.1 0 .2 0 .4.1 0 .1.1.2.2.1 0 .1.1 0 .2-.3zm-5.9-38.8c.8-.1 1.4-.6 1.6-1.3-.1 0-.2 0-.4.1-.7 0-1.1.5-1.2 1.2zm-.2-8c.5-.1.8-.1 1.3-.2-.1-.4-.1-.6-.2-1-.5.1-.8.1-1.3.2.1.4.1.6.2 1zm8.1 31.4c-.2-1.3-.3-1.9-.5-3.1-.4-.9-1-1.4-1.9-1.7.3.4.6 1.1.7 2 .1.5.1.7.2 1.2.1 1.1.7 1.7 1.5 1.6zm-.6 6.6c.4-.1.6-.1 1.1-.2-.1-.5-.1-.7-.2-1.2-.4.1-.6.1-1.1.2.1.4.2.7.2 1.2zm-10.3-66.4c.4.4 1.1.5 1.9.4.7-.1 1.2-.4 1.5-1 0-.1 0-.2-.1-.3-.1-.6-.3-1-.6-1.2-.5-.2-1-.3-1.4-.5 0 .6-.3 1-.7 1.3-.4.3-.6.7-.6 1.3zm9.1 48.7c.5-.1.8-.1 1.3-.2-.1-.4-.1-.6-.2-1-.5.1-.8.1-1.3.2.1.3.1.5.2 1zm-4.4-31c.4-.1.7-.1 1.1-.2-.1-.4-.1-.6-.2-1-.4.1-.7.1-1.1.2.1.3.2.6.2 1zM195 222c.4-.1.7-.1 1.1-.2-.1-.5-.1-.7-.2-1.2-.4.1-.7.1-1.1.2 0 .5.1.7.2 1.2zm-2.6-34.1c-.7.1-1.1.4-1 .7.2-.2.5-.3.7-.3.2-.1.3-.2.3-.4zm7.9 45.2c.5-.1.8-.1 1.3-.2-.1-.4-.1-.6-.2-1-.5.1-.8.1-1.3.2.1.4.1.6.2 1zm4.3 5.1c1.3-.2 2.2-.3 2.5-.2.1.1.1.1.2.1.4-.1.8-.4 1.3-1.1 0-.2 0-.3-.1-.5 0-.2-.1-.6-.3-.7-.1-.1-.4-.2-.4-.5 0-.2 0-.3-.1-.5.3.3.6.4.8.4.1 0 .2-.1.2-.2.4-.1.6-.3.8-.7.2-.4.3-.8.3-1.3-.1-.3-.3-.6-.9-.8-.2.3-.4.4-.7.5-.1 0-.3-.1-.4-.3-.2-.3-.7-.4-1.7-.3-.3 0-.4.1-.7.1-.2 1-.5 1.9-.8 2.7-.2.9-.2 2 0 3.3zm1.5-13.5c-.2-.2-.5-.3-1-.4h-.2c-.4.1-.6.3-.6.6 0 .1 0 .2.1.3 0 .2.1.3.2.3.3.2.6.3 1 .2.2 0 .5-.2.7-.5-.1-.1-.1-.2-.2-.5zm-.4-2.8c-.1-.8-.6-1.3-1.5-1.4-.2.3-.3.6-.2.9 0 .1 0 .2.1.3.2.3.5.5 1 .4 0 .1.3 0 .6-.2zm-2.6-20.2c.4-.1.7-.1 1.1-.2-.1-.5-.1-.7-.2-1.2-.4.1-.7.1-1.1.2 0 .5.1.7.2 1.2zm6.9 6.3c.2 0 .5 0 .7.2.2.1.4.3.7.3-.1-.3 0-.6.1-.7.1-.1.2-.3.3-.6-.4.1-.6 0-.8-.1-.1-.2-.3-.2-.6-.2 0 .2 0 .4-.1.6-.1 0-.2.2-.3.5zm-.4-6.2c.4-.1.6 0 .8.1.1.1.3.2.6.3-.2-.4-.3-1-.4-1.4-.1-.2-.4-.3-.6-.3-.1 0-.3.1-.5.3 0 .3 0 .5.1 1zm5 27.3c.1 0 .2 0 .4-.1.8-.1 1.4-.6 1.6-1.5 0-.2 0-.3-.1-.5-.1-.6-.7-.8-1.8-.8-.4.7-.5 1.3-.4 2 0 .3.1.5.3.9zm-2.5-23.1c.4-.1.7-.1 1.1-.2-.1-.5-.1-.7-.2-1.2-.4.1-.7.1-1.1.2.1.5.2.7.2 1.2zm5.2 17.7c0-.5.4-.8 1-.9-.1-.4-.1-.6-.2-1-.2 0-.4 0-.6-.2-.1-.2-.3-.2-.6-.2-.1.3-.2.7-.4 1.3-.1.1-.1.3-.1.4.1.3.4.5.9.6zm-4.7-27c.7-.1 1-.2 1.6-.3-.1-.4-.1-.6-.2-1-.7.1-1 .2-1.6.3.1.3.1.5.2 1zm.8-5.4c0-.2-.2-.4-.4-.5h-.2c-.2 0-.4.2-.5.6.2 0 .5 0 .8.2v.2c.2.1.3-.1.3-.5zm4.4 35.7c.6-.1 1-.1 1.6-.2 0-.1 0-.2-.1-.3-.1-.9-.8-1.3-1.8-1.1.1.5.2.9.3 1.6zm-4.4-48.2c-.1-.3-.3-.6-.7-.6h-.2c-.2 0-.4.3-.4.8.1.1.3.1.4.1.2 0 .5-.1.9-.3zm10 42.7c-.7.1-1 .1-1.6.2-.1-.3 0-.7.2-1.1.1 0 .2-.1.2-.2 0-.2-.2-.4-.6-.4-.7.8-1.1 1.6-.9 2.3h.2c.1.8.4 1.5.8 2.1.4.6.7 1.1.9 1.6v.2c.1.5-.3.9-1.1 1.4.4.2.8.2 1.3.2.5-.1.9-.3 1.4-.6 1-.7 1.8-1.4 2.3-2 .5 0 .8.1.9.3.1.2.1.4.2.6 0 .2 0 .3.1.5 0 .2.4.4 1 .4.2-.4.3-.7.2-.9 0-.2-.1-.4-.3-.5-.1-.1-.2-.3-.3-.5-.1-.3.1-.8.3-1.5-.2.2-.5.2-.7.3-.4.1-.6-.2-.6-.6-.1-.5-.3-.8-.7-1 .9-.6 1.4-1.1 1.6-1.5-.5.1-.8-.1-.8-.6l.2-.2c-.1-.6-.1-.8-.2-1.4-.9 0-1.5-.2-1.8-.6-.4-.4-1-.6-2-.4-.3.8-.4 1.4-.5 1.9-.1.1-.1.3-.1.6-.1.3.1.8.4 1.4zm-7-35.1c.1.4.1.6.2 1 .4-.1.7-.1 1.1-.2v-.2c-.1-.5-.5-.7-1.3-.6-.1-.7-.2-1.1-.4-1.2-.2 0-.4.2-.5.6v.2c.1.2.4.4.9.4zm-.1-8c-.7.1-1.1.3-1 .7.2-.2.5-.2.7-.3.3-.1.4-.2.3-.4zm1.9 15.8c.4-.1.6 0 .8.2.1.1.3.1.6.1.1 0 .2 0 .4-.1-.1-.4-.1-.6-.2-1-.1-.3-.3-.6-.7-.6.1.3-.1.6-.4.7-.3.1-.5.3-.5.7zm1.6 3.1c.3.1.5.1.6.1.2 0 .5-.1.5-.3.1-.2.1-.6.1-.9-.1-.3-.2-.6-.3-.8-.1-.1-.3-.1-.6-.1-.1 0-.3.1-.5.3 0 .7.1 1 .2 1.7zm3.2 5.3c.4-.1.7-.1 1.1-.2-.1-.4-.1-.6-.2-1-.4.1-.7.1-1.1.2.1.4.1.6.2 1zm5.7 34.2c-.1.4-.1.6-.1.7.1.5.3.7.6.6.3.1.4.3.5.6 0 .2 0 .5-.1.7 2.6-.4 3.9-1.5 3.7-3.4-.8-.5-1.5-.7-1.9-.6-.1 0-.2.1-.3.2-.6.4-1.4.8-2.4 1.2zm10.6 7.7c-.7.9-1.7 2-3 3.1s-2.5 2.3-3.7 3.6c.8.5 1.4 1.1 1.8 1.9.4.8 1.1 1.3 2.1 1.5.1-.7.5-1.3 1-1.8.5-.2.6-.6.5-1.3-.1-.4-.2-.7-.3-1 .2 0 .3 0 .5-.1.5-.1.9-.3 1.2-.7.3-.4.6-1 .7-1.7.1-.5 0-1 0-1.4 0-.2 0-.3-.1-.5-.1-.8-.4-1.3-.7-1.6 0-.2 0-.5.2-.7.2-.2.2-.4.2-.6-.3-.1-.5-.2-.6-.3-.1-.1-.3-.1-.6-.1-.2.4-.3.7-.2.9.1.4.4.6 1 .8zm-13.8-57.3c-.2.2-.5.2-.7.3-.4.1-.5.3-.5.6.2-.2.5-.3.9-.3.3-.1.4-.3.3-.6zm.6-33.3c-.8.4-1.2 1-1 1.9l-2.7.9c-.6.2-1.2.5-1.8.8.8.2 1.4.5 1.6.8.2.3.3.7.3 1 0 .1 0 .2.1.3 0 .6-.1 1.2-.1 1.8 0 .2 0 .3.1.5.1.3.2.8.6 1.3.4-.4.9-.7 1.2-.7h.2l.9.3c.3.1.7.3 1.1.4.4.1.9.1 1.5 0 .1-.2.1-.6 0-1.1-.1-.5-.1-.9 0-1.2.1-.3.3-.5.7-.7h.2c.2 0 .6.1 1.2.4-.1-.8-.3-1.5-.5-2s-.3-.9-.4-1.1c0-.2 0-.4.2-.6.2-.1.6-.3 1.2-.5-1-.5-1.8-.8-2.4-1.1-.4.1-.7.1-1.1.2-.5.1-1.2.3-2 .6 0-.2 0-.3-.1-.5.5-.1.8-.1 1.3-.2.2-.4.3-.7.2-.9v-.2c-.1.1-.3-.1-.5-.4.5-.2.7-.4.7-.6v-.2c-.3-.2-.5-.3-.6-.3h-.2c-.1 0-.2.1-.2.2 0 .3.1.5.3.9zm7.6 88.5c.4-.1.6-.1 1.1-.2.1-.2.1-.4.1-.5 0-.1 0-.2-.1-.3-.3-.2-.5-.3-.8-.4-.1 0-.2 0-.4.1-.2 0-.4.1-.5.3-.1.1-.1.3-.1.4v.2c.4-.2.7 0 .7.4zm-13.4-90.5c.1.4.1.6.2 1 .3.1.5.1.6.1.1 0 .2-.1.3-.2.1-.1.2-.4.3-.8v-.2c0-.2-.1-.4-.3-.5-.1-.1-.3-.1-.4-.1h-.2c.1.4-.1.6-.5.7zm11.5 73.5c.2 0 .4 0 .6.2.1.2.3.2.6.2 0-.2 0-.4.2-.6.2-.1.3-.3.4-.6-.4.1-.6 0-.8-.2-.1-.2-.3-.2-.6-.2 0 .2 0 .4-.1.5-.2.3-.3.5-.3.7zm3.2 5.8c-.3.2-.5.5-.4 1.1.1-.3.2-.4.3-.6.1-.1.1-.3.1-.5.4-.1.5-.3.4-.8-.1-.4-.1-.5-.1-.9.2 0 .3 0 .5-.1 0-.1 0-.2-.1-.3-.1-.7-.5-1.2-.9-1.3-.6-.1-1.5-.1-2.2-.2-.1.4-.1.7-.1.9.1.6.4.9.9 1.1.7.2 1.2.8 1.6 1.6zm-4.2-24.6c-.1-.6.1-1 .6-1.2.4-.1.5-.3.5-.6 0-.2-.1-.5-.3-.7-.4.1-.6-.1-.8-.2-.1-.1-.3-.1-.6-.1-.2 0-.3 0-.5.1-.3.4-.4 1-.3 1.7.1.8.6 1.1 1.4 1zm3.5 19.5c.9-.1 1.4-.2 2.3-.3-.1-.8-.2-1.3-.3-2.1-.4.1-.5.1-.9.1-1 .1-1.4.7-1.2 1.6 0 .3 0 .4.1.7zm1 3.4c-.2 0-.4-.1-.4-.3h-.2c0-.1.2-.2.5-.3.1.3.1.4.1.6zM225 146c-.4.1-.6 0-.8-.2-.1-.1-.4-.1-.8-.1-.1 0-.2 0-.4.1-.1.3-.1.5-.1.7 0 .2.4.4 1 .4.1 0 .2 0 .4-.1.5-.1.7-.3.7-.6v-.2zm13.4 92.2c-.7.1-1.1.2-1.8.3-.1.3-.1.4-.1.6 0 .2.1.4.3.5.3.2.6.3.9.2.2 0 .5-.2.7-.5.1-.1.1-.3.1-.5 0-.3-.1-.4-.1-.6.2-.1.3-.3.3-.4-.2 0-.3.1-.3.4zm-9.2-50.3c1-.1 1.4-.2 2.4-.3-.1-.9-.2-1.4-.3-2.3-.7.1-1.1.2-1.8.3 0 .2 0 .3.1.5.1.4 0 .5-.1.6-.3.2-.4.6-.3 1.2zm8.5 49.3c-.2-.3-.4-.5-.6-.4-.4.1-.6.3-.6.6.1 0 .2 0 .4-.1.1 0 .2 0 .4.1 0 .1.1.2.2.1 0 .1.1 0 .2-.3zm2.2 15.2c-.8.1-1.2.4-1.2.7.2-.1.4-.2.7-.3.3 0 .5-.1.5-.4zm-8.7-63.7c0-.2-.2-.4-.6-.4h-.2c-.2 0-.4.2-.5.6.2.2.3.3.4.3.3-.1.6-.2.9-.5zm10.3 42.8c-.1.4-.1.7-.1.9.1.4.3.5.6.4.4.1.7.3 1 .7-.4.1-.5.1-.9.1-1 .1-1.6.4-1.9.8 0 .2 0 .3.1.5.1.6.5.8 1.1.9.5.1.8.5.9 1.1 0 .2 0 .3.1.5-.2.2-.5.2-.7.3-.5.1-.8-.1-.8-.6-.1-.5-.3-.7-.8-.6-.2 0-.5.1-.7.3.2.3.3.6.3.8.1.6 0 1-.2 1.3-.2.3-.3.5-.3.8.1.4.3.7.7 1 .7-.2 1.3-.5 1.7-.7.5-.2 1-.5 1.5-.8.1.7.3 1.2.6 1.5.3.3.6.6.9.8.3.2.7.6 1 1 0 .3.1.4.1.7.1.4 0 .8 0 1.3-.7.9-1.2 2-1.6 2.9-.2.6-.3 1.5-.2 2.5.1.6.2 1.2.4 1.7 1.2-.4 1.8-1.1 1.8-2 0-1 .4-1.8 1.2-2.5-.1.3-.1.5-.1.7 0 .4.3.5.8.4.5-.1.9.1 1.1.4.2-1.2.8-2.1 1.7-2.7 1-.6 1.9-1.2 2.7-1.9 0-.4-.1-.7-.1-1.1v-.7c.3.1.5.1.7.1.2 0 .3-.2.3-.4v-.4c-.3-.4-.7-.6-1.2-.5-.1-.1-.1-.2-.2-.3v.4c.2.6.3 1 .4 1.2-.7 0-1.2-.1-1.3-.4 0-.3-.1-.4-.1-.7.1-.3.2-.5.3-.9.1-.3.2-.6.2-.8-.4-.9-.9-1.7-1.6-2.4-.7-.7-1.5-1.5-2.4-2.2-.9-.8-1.8-1.5-2.6-2.3-.8-.8-1.5-1.7-1.9-2.9-.7.1-1.2.3-1.5.7 0 .4-.5.8-1 1.1-.1-.5-.2-.8-.4-1l-.6-.6c-.2-.2-.4-.5-.6-.8 0-.1 0-.2-.1-.4-.1-.4 0-.7 0-1.1-.5.1-.8.2-1 .4-.2.2-.3.4-.5.6-.2.2-.3.4-.6.5-.5.1-.8.1-1.3.2.2.3.3.6.3.7.1.5 0 .7-.3.8-.3.3-.5.7-.4 1.1 0 .1 0 .2.1.3.6.1 1.4.3 2.3.6.1.1.3.1.6.1.5-.1.7-.5.7-1.2-.7.1-1.2 0-1.3-.3.3-.2.6-.3.9-.3.4-.1.6 0 .8.2.2.2.4.3.8.2h.6zm-14.2-73.2c.5 0 .8.2.8.4 0 .1 0 .3-.1.6-.3.5-.6.8-1 .9-.2 0-.4 0-.6-.1-.2-.2-.2-.4-.3-.5 0-.2.1-.4.5-.4.6-.1.8-.4.7-.9zm2.2 15.1c.1-.4.2-.7.4-1-.1-.5-.1-.7-.2-1.2-.2 0-.3 0-.6.1-.6.1-.9.4-1 1 0 .1 0 .2.1.4.2.6.6.8 1.3.7zm1 6.3c0-.2-.2-.4-.6-.4h-.2c-.2 0-.3.2-.3.6h.2c.1 0 .3 0 .4.1 0 .1.1.2.2.1.1 0 .2-.2.3-.4zm14.5 83.4c.4-.8.7-1.5.9-2.3.2-.6.2-1.3.1-2.2-.1-.3-.1-.5-.1-.9-.6.1-1 .1-1.6.2-.1 1-.1 1.9 0 2.8.1 1 .3 1.8.7 2.4zm-12.4-97.5c.2.1.6.1.8.1.5-.1.7-.4.9-.7.1-.2.6-.4 1.1-.5.1 0 .2 0 .4-.1-.1-1-.7-1.5-1.7-1.4-.1 0-.2 0-.4.1.2.2.2.4.3.5 0 .1 0 .2-.1.4-.1.1-.3.3-.6.4-.3.1-.5.2-.6.4-.1 0-.2.1-.2.2-.2.2-.1.5.1.6zm15.5 95.3c-.1 0-.2 0-.4.1-.1 0-.2 0-.4-.1 0-.1-.1-.2-.2-.1-.1.2-.1.2-.1.4s.2.3.6.3v.2c.3-.2.4-.4.5-.8zm-12.6-101.4c-.9.1-1.3.4-1.2.7.2-.1.5-.3.9-.3.2 0 .3-.2.3-.4zm2.7 15c-.1-.6-.1-.9-.2-1.6-.7.1-1.1.2-1.8.3.1 1.1.7 1.5 1.7 1.4 0-.1.1-.1.3-.1zm11.2 79.4c-.7.1-1 .3-1 .7.2-.1.4-.2.7-.3.3 0 .4-.2.3-.4zm1 10.8c.4.2 1.3-.6 1.4-1.5-.5.2-.9.3-1.2.4-.3.2-.5.4-.5.6.1.1.2.4.3.5zm-12.7-93.6c.4-.1.7-.1 1.1-.2-.1-.4-.1-.6-.1-1.1-.4.1-.7.1-1.1.2 0 .5 0 .7.1 1.1zm10.5 73.7c0-.2.1-.4.4-.6.3-.2.6-.3 1-.3.4-.1.7 0 .9.2.1.1.2.2.2.3 0 .1 0 .3-.1.6-.2 0-.3 0-.5.1-.2 0-.4-.2-.6-.3-.1-.1-.5-.1-.7-.1-.3.1-.4.1-.6.1zm3.4 20.2c.1.7.1 1 .2 1.7.3 0 .4-.1.7-.1.6-.1 1.1-.4 1.5-.6.4-.2.6-.6.6-1.1 0-.2-.1-.5-.3-.9-.3 0-.4.1-.7.1-.8.2-1.5.5-2 .9zm-10.4-98.1c.2-.3.5-.6.7-1 .3-.4.4-.8.3-1.1-.7.1-1.1.2-1.9.3.1.5.2.8.4.9.3.1.5.4.5.9zm11.1 82.5c.5-.1.8-.1 1.3-.2-.1-.4-.1-.6-.1-1-.5.1-.8.1-1.3.2 0 .4 0 .6.1 1zm4.4 18.8c-.7.3-1.1.6-1.1.9.2-.1.5-.2.9-.3.2 0 .3-.2.2-.6zm-.8-6.1c.4-.1.6-.1 1.1-.1.2-.4.3-.7.2-.9 0-.4-.4-.6-1-.8.1.5 0 .8-.2.9-.1.1-.1.3-.1.5-.1.2-.1.3 0 .4zm3.2-5.1c0-.3-.1-.4-.1-.7-.1-.9-.7-1.3-1.6-1.2h-.2c.2.6.4 1.1.6 1.5.1.3.5.5 1 .4h.3zm.5 7.4c-.2 0-.4-.1-.6-.3l-.2-.2c-.1 0-.2.2-.3.6 0 .2.2.3.6.3v.2c.3 0 .4-.2.5-.6zm-.1-4.6c-.1.4-.1.7-.1.9h.2v.2c0-.2.1-.3.1-.5.1-.3.2-.6.2-.9.1-.4.1-.6.1-.7-.2 0-.3 0-.5.1-.2 0-.4.1-.5.2-.3.3-.5.5-.4.8-.1.1-.1.3-.1.4 0 .1.1.2.4.3.2-.2.4-.4.6-.8zm2.4 3.8c.1-.2.1-.5.1-.7-.1-.6-.5-1-1.2-1.1-.5-.1-.9-.1-1.3 0-.4 0-.6.2-.7.4.6 0 1.1.3 1.4.9.2.4.6.6 1.2.6.1-.1.2-.1.5-.1zm-2.4-13.4c-.2-1.2-.8-1.7-2-1.5.1 1.2.8 1.7 2 1.5zm-.4-2.8c0-.4-.3-.5-.6-.5-.4 0-.6.3-.6.6.1.2.3.3.4.3.2 0 .5-.1.8-.4zm.2 5.7c.8-.2 1.3-.7 1.5-1.3.2-.6.5-1.1 1.1-1.4-.3-.3-.6-.5-1-.4-.4 0-.6.3-.8.6-.7.7-.9 1.5-.8 2.5zm3.8 11.4c0-.2-.2-.4-.4-.5h-.2c-.2 0-.4.2-.5.6.2.3.3.5.4.5l.2-.2c.1 0 .3-.1.5-.4zm9.9-4.2c.1.5.1.7.2 1.2.7-.1 1.1-.1 1.8-.2-.1-.5-.1-.7-.2-1.2-.8.1-1.1.1-1.8.2-.6-1.6-1.5-2.9-2.8-3.9-1.3-1-3.3-1.4-6-1.1-.1 1-.3 1.9-.5 2.7-.2.9-.8 1.6-1.7 2.2.3.7.7 1.3 1.2 2s.8 1.4 1.2 2.2c.9-.1 1.9-.4 2.9-.9.4-.1.6-.1 1.1-.1.6-.1 1.1 0 1.7.3.1-.7.4-1.4.9-2 .4-.7 1-1.1 2-1.4zm-10-5.4c.1-.5.3-.7.6-.8.2 0 .5 0 .7.1.6.3 1.2.4 1.7.3h.4c-.6-1.7-1.9-2.7-3.9-3 .3.3.4.6.5.8v.2c-.1.4-.2.7-.4.9-.2.3-.3.5-.3.7-.1 0-.2.1-.2.2.1.1.4.3.9.6zm2.7 11.6c0-.2-.2-.4-.4-.5h-.2c-.2 0-.4.2-.5.6 0 .2.2.3.4.3.1 0 .4-.1.7-.4zM258 140.9c.2 1.4 1 2.1 2.5 2 .4-.2.5-.4.5-.6v-.2c-.2-.2-.3-.5-.5-.7-.2-.3-.3-.5-.3-.8 0-.2.2-.4.7-.6.1.6.2.9.5.8l.2.2c.2 0 .5-.2.7-.4.2-.1.4-.5.6-1 .1-.2.1-.5.1-.7v-.4c-.7.3-1.3.5-1.6.6h-.2c-.4-.1-1.2-.1-2.3-.1.1.5.1.7.2 1.2-.1.4-.3.6-.7.6-.2.1-.3.1-.4.1zm22.3-8c4-.4 8.2-.8 12.6-1.3 2.7-.3 4.1-.5 6.8-.8 6.7-.9 13.5-1.8 20.4-2.7 6.9-.9 13.6-1.7 20.3-2.3 6.6-.6 12.8-1 18.5-1.2 11.1-.3 20.4 2.3 27.8 7.7 7.4 5.4 12.3 12.9 14.7 22.4 1.5 1.5 3.3 2.7 5.4 3.6 2.1.9 4.1 1.9 5.9 3-1.4 1.9-3 3.5-4.9 4.8-1.9 1.3-4.2 3.4-4.6 5.1-1.7 6.4-1.8 16.1-5.6 21.5-3.8 5.4-9 9.5-15.6 12.6-6.6 3-14.5 5.2-23.5 6.3-3.5.5-7.1.8-10.7 1.2-6 .6-12.4 1.1-19.1 1.4.5 2.2.8 4.4 1 6.5.2 2.3.4 4.7.4 6.9-.1 2-.1 4 .1 5.9.2 2.1.6 4.2 1.2 6.3.6 2 1.3 3.8 2.2 5.5.9 1.7 1.8 3.5 2.8 5.1 1 1.7 1.9 3.3 2.8 5 .9 1.6 1.5 3.3 2 5-17.8 1.8-26.7 2.8-44.5 5 .2-1.4.6-3.1 1.1-4.9.6-1.8 1.1-3.8 1.7-5.7.6-2 1.2-4 1.7-6s.9-4 1-5.7c.1-1.5 0-3.3-.3-5.3-.1-1.2-.2-1.8-.4-3-.6-3.1-1.1-6.2-1.5-9.3-.4-3-.7-6.1-.7-9.2 0-1-.1-2-.2-2.8-.2-1.9-.6-3.5-1.1-4.8-.7-1.9-2-3.6-3.8-5-1.8-1.4-3.1-2.9-4-4.4.4-1.9 1.2-3.6 2.4-5 1.3-1.4 2.3-3 3.1-4.7-.5-2.3-.9-4.6-1.2-7-.1-1-.2-1.5-.3-2.5-.2-3.1-.4-6.1-.6-9.2-.2-3.1-.4-6.1-.6-9-.1-.5-.1-.7-.1-1.2-.3-2.5-.7-5-1.4-7.3-.5-1.8-1.4-3.6-2.3-5.2-1-1.7-1.9-3.3-2.9-4.8s-2-3-2.9-4.5c-.9-1.4-1.5-3.5-2.1-4.4-.3-.5-.9-1-1-1.6zm16.3 69.6c.3 0 .4-.1.7-.1.1.2.3.4.6.5 0-.4 0-.6.1-.7.1-.1.2-.3.3-.6-.2 0-.4 0-.6-.1-.1-.1-.3-.2-.6-.3 0 .2 0 .5-.2.6-.1.2-.2.4-.3.7zm.7-9.9c.6.2 1.2.4 1.6.7.3.2.6.3 1 .2.4 0 .7-.1 1.1-.3v-.3c-.2-1.4-1.1-2.1-2.7-2.2.1.5-.1.8-.3 1-.4.3-.6.6-.7.9zm6.5 21c-.9.1-1.3.2-2.2.3.2.5.3.9.3 1.4.1.6.1 1.2 0 1.8-.1.5-.1.8-.1 1.1.1.7.4 1.1.9 1.3 0-1.1.1-2 .2-2.7.3-.8.6-1.9.9-3.2.5-.1.8-.1 1.3-.1-.1.3-.1.4-.1.5 0 .4.3.5.8.4.3-.4.5-.8.4-1.1v-.4c-.1-.1-.3-.1-.4-.1-.1 0-.3.2-.7.6.1-.4.1-.7.1-.9-.1-.6-.4-1-.9-1.1-.4-.1-1-.1-1.7 0-.3 0-.4.1-.7.1-.1.3-.1.5-.1.7.1.5.3.7.8.6.6-.1 1 .2 1.2.8zm1.1 28c1-.1 1.8-.3 2.6-.7.5-.2.7-.6.6-1.3 0-.3 0-.4-.1-.7-1.4.2-2 .2-3.4.4.1.9.2 1.3.3 2.3zm-7.3-66.8c0 .3 0 .4.1.7.1.9.6 1.5 1.3 1.8.5.2 1 .4 1.5.4.4 0 .8-.3.9-.5.2-.5-.5-1.8-1-2.5-.3-.4-.7-.6-1.2-.6s-1 .3-1.6.7zm1.5 12.5c.7-.1 1-.1 1.6-.2-.1-1.2-.6-1.9-1.4-2.2.2 1.1.1 1.8-.2 2.4zm4.7 36.1c.4-.1.6-.1 1.1-.1-.1-.5-.1-.7-.1-1.2-.4.1-.6.1-1.1.1.1.4.1.7.1 1.2zm1.9-4.4c-.2.1-.5.2-.7.3-.2 0-.4.2-.5.4.9-.1 1.3-.3 1.2-.7zm-9.8-80c.7-.1 1-.1 1.7-.2-.1-.5-.1-.7-.1-1.2-.7.1-1 .1-1.7.2 0 .5 0 .8.1 1.2zm4.6 34.9c.3.1.4.1.6.1.1 0 .2-.1.3-.2.2-.3.3-.6.3-.9 0-.2-.2-.5-.5-.7-.1-.1-.3-.1-.6-.1h-.4c.2.8.2 1.1.3 1.8zm2 7.8c-.2.1-.5.2-.7.3-.2 0-.4.2-.3.4.2-.1.5-.2.7-.3.2 0 .3-.2.3-.4zm.5 4.6c-.2 0-.4-.1-.6-.3l-.2-.2c-.1 0-.2.2-.3.6 0 .2.2.3.6.3 0 .1.1.2.2.2.3-.1.4-.3.3-.6zm12.9 2.4c.6.3 1.2.4 1.7.3.4 0 .7-.1 1.1-.3.5-.3 1.2-.5 2.2-.6.4 0 .5-.1.9-.1-.6-1-.9-1.7-1-2s0-.7 0-1c0-.3.1-.7.2-1.2 0-.2 0-.3-.1-.5-.1-.5-.1-1.6-.4-1.9-.2-.2-1.3-.3-2-.5s-1.3-.4-1.9-.9c0 .4.1.5.1.9.1.5 0 .8-.1 1.1-.2.5-.5.9-.9 1.3s-.8.9-1.2 1.5c-.4.6-.7 1.4-.7 2.5-1-.5-2.2-.8-3.3-.9-1.2-.1-2.1-.5-2.8-1.3-.6.4-1.2 1-1.8 1.8-.4.4-.9.6-1.2.7-.5.1-1-.1-1.5-.4 0 .2 0 .3.1.5.2 1.9.9 3.7 2.1 5.4 1.3 2 3 3.3 4.9 4.1.4-.4.8-.7 1.2-.8.3-.2.7-.3 1.1-.5.4-.2.7-.4 1-.7.3-.3.7-.9 1.1-1.8.1-.2.1-.7 0-1.4s0-1.2.2-1.4c.2-.3.7-.5 1.4-.7.2 0 .4-.2.3-.4 0-.2-.3-.5-.7-.8zm-13-3.7c.5.1.9.2 1.2.4.1.1.4.1.8.1.2 0 .3 0 .5-.1-.1-.5 0-1.2.3-2.2 0-.2 0-.3-.1-.5-.1-.5-.5-.7-1.2-.8 0 .2 0 .3.1.5.1.6-.2.9-.6 1.1-.6.4-.9.9-1 1.5zm4 23.6c.2 0 .3 0 .5-.1.4 0 .6-.1.7-.3.1-.2.4-.4 1.1-.5-.2-1.4-.7-2.1-1.5-2.1-.1.6-.3 1-.6 1.1-.4.2-.5.5-.4.9-.1.4 0 .6.2 1zm1.1 9.1c.4 0 .7-.1 1.1-.1-.1-.5-.1-.7-.1-1.2-.4 0-.7.1-1.1.1 0 .5 0 .7.1 1.2zm-7.7-71.9c.7-.1 1.1-.1 1.9-.2-.1-.6-.1-.9-.2-1.6-.7.1-1.1.1-1.9.2.1.7.1 1 .2 1.6zm10.9 79.6c-.1-.6-.2-1-.5-1.1-.3-.1-.6-.3-1-.5.1.8.6 1.3 1.5 1.6zm-5.6-59c.1-.4.2-.7.5-.9.1-.1.2-.3.1-.5 0-.2-.1-.5-.3-.7-1 .1-1.4.2-2.4.3 0 .2 0 .3.1.5.1 1.1.7 1.5 1.7 1.4.1-.1.2-.1.3-.1zm3.6 15.1c-.6.1-.9-.2-1-.6-.1-.3-.4-.5-.8-.4-.2 0-.5.1-.7.3v.4c.1.5.4.8 1 .9.4.1.6.1.8.1.4-.2.6-.4.7-.7zm-.3 18.9c.4 0 .7-.1 1.1-.1 0-.2 0-.4.2-.6.2-.1.2-.3.2-.6-.4 0-.6 0-.8-.3-.1-.1-.3-.1-.6-.1h-.4c.2.7.2 1 .3 1.7zm1.9 7.2c0-.2-.2-.4-.4-.5h-.2c-.2 0-.4.2-.5.6.2 0 .5.1.8.3v.2c.2 0 .3-.2.3-.6zm3.4 13.3c-.2.1-.5.2-.7.3-.2 0-.4.2-.5.6.8-.4 1.2-.6 1.2-.9zm-5.3-51.9c-.2 0-.4-.1-.6-.3l-.2-.2c-.1 0-.2.2-.3.6 0 .2.2.3.6.3v.2c.3 0 .4-.2.5-.6zm2.8 35.1c.4 0 .7-.1 1.1-.1-.1-.5-.1-.7-.1-1.2-.4 0-.7.1-1.1.1.1.5.1.7.1 1.2zm5 28.1c-.3-.4-.7-1-1.1-1.7-.3-.2-.5-.3-.6-.3-.1 0-.2.1-.3.4.5.1.9.4 1 1 .1.4.3.7.6.6h.4zm-.5 1.7c-.2.1-.5.2-.7.3-.2 0-.3.2-.3.4.2 0 .5-.1.7-.2.2-.1.3-.3.3-.5zm-2.1-13.5c.4.2 1.4-.5 1.7-1.3-.6.1-.9.1-1.4.2-.3.2-.5.4-.5.6 0 .1.1.4.2.5zm3.2 18.5c.4 0 .7 0 .9.3 0 .1.2.2.6.1h.4c-.1-.8-.5-1.3-1.3-1.5 0 .2 0 .4-.2.6-.2.1-.3.3-.4.5zm1.6 3.2c-.2.1-.5.2-.7.3-.4 0-.5.2-.5.6.2-.1.5-.2.9-.3.2-.1.3-.3.3-.6zm-1.9-22c-.2.1-.5.2-.7.3-.2 0-.3.2-.3.4.2-.1.5-.2.7-.3.2-.1.3-.2.3-.4zm-1.2-10.7c.4 0 .7-.1 1.1-.1 0-.2 0-.4.2-.6.2-.1.3-.3.4-.6-.4-.1-.6-.2-.8-.4-.1-.1-.4-.1-.7-.1h-.4c.1.7.1 1.1.2 1.8zm5.6 50.2c.3-.2.7-.3 1-.3.4 0 .7 0 1.1.1.2.1.4.1.6.1.5-.1.7-.3.6-.8-.4-.3-.8-.5-1.1-.4-.2 0-.5.1-.7.3-.7.3-1.2.6-1.5 1zm-9.5-90.4c.5-.1.8-.1 1.3-.1-.1-.5-.1-.7-.1-1.2-.5.1-.8.1-1.3.1 0 .5.1.8.1 1.2zm-.6-22.8c-.4 0-.6 0-.8-.3 0-.1-.1-.2-.2-.2s-.2.2-.3.6c0 .2.2.3.6.3 0 .1.1.2.2.2.2-.1.4-.3.5-.6zm4.6 42.3c-.9.1-1.3-.1-1.4-.7v-.2c.9-.1 1.3.2 1.4.7v.2zm1.6 9.6c-.4 0-.6 0-.8-.3 0-.1-.1-.2-.2-.2 0 .2-.1.3-.1.5s.2.3.6.3v.2c.3.1.5-.1.5-.5zm4.4 49.9c.3 0 .4 0 .7-.1 1-.1 1.4-.6 1.3-1.4-.3 0-.4 0-.7.1-.9.1-1.4.5-1.3 1.4zm.3 2.8c.3.2.6.3.9.3.4 0 .7-.4 1.2-1-.4-.4-.8-.6-1.1-.6h-.2c-.5.1-.7.6-.8 1.3zm-9-87.1c.5-.2 1-.3 1.4-.5.2 0 .4-.2.3-.4 0-.1-.1-.3-.2-.5-.4 0-.7.1-1.1.1 0 .3 0 .6-.2.7-.1.2-.2.4-.2.6zm9.1 67.7c0-.4-.2-.6-.4-.7h-.2c-.2 0-.4.3-.5.8h.4c.1 0 .2 0 .4.1 0 .1.1.2.2.2 0-.2 0-.3.1-.4zm-8.7-86.5c-.9.1-1.3.3-1.2.7.2-.1.5-.2.9-.3.2-.1.3-.2.3-.4zm9.1 95.5c.5-.1.8-.1 1.3-.1 0-.4-.1-.6-.1-1.1-.5.1-.8.1-1.3.1.1.5.1.7.1 1.1zm-3.8-61.8c.5.1.9.1 1.1.2.1.1.3.1.6.1s.4 0 .7-.1c-.1-.7-.1-1.1-.2-1.8-.3 0-.4 0-.7.1-.9.2-1.4.7-1.5 1.5zm1.3 11.2c.5-.1.8-.1 1.3-.1-.1-.5-.1-.7-.1-1.2-.5.1-.8.1-1.3.1 0 .5 0 .7.1 1.2zm7.5 58.1c-.2.1-.5.2-.7.3-.4 0-.5.2-.5.4.2-.1.5-.2.9-.3.2-.1.3-.2.3-.4zm-8.5-73.4c.4 0 .7-.1 1.1-.1 0-.4-.1-.6-.1-1.1-.4 0-.7.1-1.1.1.1.4.1.6.1 1.1zm.4-1.8c.4 0 .7-.1 1.1-.1 0-.2 0-.4.2-.6.2-.1.2-.3.2-.6-.4 0-.6 0-.8-.3-.1-.1-.3-.1-.6-.1h-.4c.2.7.2 1 .3 1.7zm7.3 57.5c-.2.1-.5.2-.7.3-.2 0-.3.2-.3.6.2-.1.5-.3.7-.3.2-.2.3-.4.3-.6zm1.3 22.8c.3.3.6.5.9.4.1 0 .3-.1.5-.4.3-.4.6-.8.8-1.3-1.1.1-1.9.5-2.2 1.3zm2.7 3.1c-.2.1-.5.2-.7.3-.4 0-.5.2-.5.4.9-.2 1.3-.4 1.2-.7zm-5-52.1c.1.1.1.2.2.3v-.4c-.2-.5-.3-.8-.3-1-.5.1-.8.1-1.3.1v.2c.1.6.6.9 1.4.8zm-.2-12.4l-.2.2c0 .1.3.2.8.3h.4c.5-.1.8-.3.9-.6-.3-.2-.6-.4-1-.4h-.4c-.2-.1-.4.1-.5.5zm.2-3.6c2.2-.6 4.4-1 6.7-1.2 1.4-.1 2.1-.2 3.5-.4 3.6 0 7.2-.1 10.7-.2 2.6 0 5-.1 7.4-.3 1.2-.1 1.8-.2 2.9-.3 3.2-.4 6.1-1.4 8.8-3.1 1.8-1.1 3.2-2.9 4.3-5.3 1.1-2.4 1.8-5 2-7.9.1-1.4.1-2.9 0-4.4-.1-1.3-.2-2.6-.5-3.9-.6-2.6-2-4.9-3.9-6.8-2-2-4.8-3.1-8.2-3.4-3.1-.2-6.5-.1-10.1.2-.5 0-.8.1-1.3.1-4.1.5-8.3 1.1-12.6 1.8-1.8.3-3.6.5-5.2.7-2.5.3-4.9.4-7.3.4-.1 3.8.1 7.9.5 12.2.2 1.7.3 2.5.4 4.2.4 3 .8 6 1.1 8.8.4 3.1.6 6 .8 8.8zm2.4 22.7c.9-.3 1.6-.8 1.9-1.4l.9-1.8c-.4-.1-.7-.1-.9-.1-.7.1-1.1.4-1.2.8-.3.8-.6 1.6-.7 2.5zm0-17.1c.5-.1.8-.1 1.3-.1-.1-.5-.1-.7-.1-1.2-.5.1-.8.1-1.3.1 0 .4.1.7.1 1.2zm-1.9-46.7c0-.2-.2-.4-.4-.5h-.2c-.3 0-.4.2-.5.6 0 .2.2.3.4.3.1 0 .4-.2.7-.4zm-1.1-5.6c.3.1.5.1.6.1.1 0 .2-.1.4-.2.2-.3.3-.6.3-.9 0-.4-.2-.6-.5-.8-.1-.1-.3-.2-.4-.1-.1 0-.3.1-.5.2 0 .6 0 1 .1 1.7zm2.1 2.1v.2c.1.9.6 1.4 1.6 1.3.3 0 .4 0 .7-.1-.1-.9-.1-1.4-.2-2.3-.9.1-1.7.4-2.1.9zm2.1-8.9c.4 0 .7-.1 1.1-.1.1-.2.1-.5.1-.7 0-.2-.3-.4-.8-.5-.2 0-.3 0-.6.1-.5.1-.7.3-.7.6v.2c.6-.1.9 0 .9.4zm7.2 70.7c.7-.1 1-.1 1.6-.2v-.4c-.1-.8-.6-1.2-1.4-1.1h-.4c.1.7.1 1 .2 1.7zm-2.6-66c0-.2-.2-.4-.4-.5h-.2c-.3 0-.4.2-.5.6.2 0 .5.1.8.3v.2c.1-.1.2-.3.3-.6zm1.6 9.6c.4 0 .6 0 .8.2.1.2.3.2.6.2 0-.5-.1-1-.3-1.4-.1-.2-.3-.3-.6-.3-.1 0-.3.1-.5.2-.1.4-.1.7 0 1.1zm1.4-4.1c0 .2 0 .3.1.5-.6.7-.8 1-.8 1.1h.2c.1 0 .4-.2.7-.5.3-.3.6-.7.8-1.1 0-.1-.1-.2-.4-.1-.2.1-.3.1-.6.1zm-.5-5.1c.4 0 .7-.1 1.1-.1 0-.5-.1-.7-.1-1.2-.4 0-.7.1-1.1.1.1.5.1.7.1 1.2zm.2-4.1c1-.1 1.6-.5 1.8-1.2-.5.1-.8.1-1.3.1-.4.2-.5.4-.5.8v.3zm3.2 2v-.4c-.1-.9-.7-1.4-1.8-1.2v.4c.1.9.7 1.3 1.8 1.2zm-.7 9.8c.6.1 1.3.1 1.9.2 0 .1.1.2.2.2.4 0 .6-.5.8-1.3-.4-.3-.8-.5-1.2-.4-.2 0-.3 0-.6.1-.5.2-.9.6-1.1 1.2zm6 61.6c.4 0 .6.1.8.3.1.1.3.1.6.1h.4v-.4c-.1-.6-.5-1-1.2-1.1 0 .2-.1.4-.2.6-.3.1-.4.3-.4.5zm3.6-67.1c.4-.6.4-1.6.4-2.2-.1-.6-.2-1-.3-1.4-.7-.9-1.6-1.4-2.8-1.7-.6-.2-1.3-.2-2.1-.2-.5 0-1 .2-1.5.3-1.4.4-2.4 1-3 1.9.5 2.3 1 4.1 1.4 5.2.5 1.1 1.9 1.9 4.2 2.3.2-1 .6-1.7 1.5-2.4.8-.5 1.8-1.2 2.2-1.8zm-1 6.9c1-.1 1.5-.1 2.4-.2-.3-.4-.5-1-.6-1.5-.1-.6-.4-1-1-1.2-.1.6-.3 1-.6 1.1-.4.2-.5.5-.5.9 0 .2.1.5.3.9zm3.2-9.9c0-.3.1-.5.3-.6h.2c0-.4-.1-.6-.1-1.1-.1-.1-.4-.1-.8-.1h-.4c.1.2.2.5.3.7v.4c-.1 0-.2.1-.2.2.1.2.3.4.7.5zm11 67.5c-.7.1-1.1.3-1 .6.2-.1.5-.2.7-.2.2-.1.3-.2.3-.4zm-1.1-57.6c2-.2 3.3-1.1 4.1-2.7-1.1.1-2 .4-2.6.8-.6.5-1.1 1.1-1.5 1.9zm6.5 51.9c-.2 0-.5.1-.7.2-.2.1-.3.2-.3.5.2-.1.5-.2.7-.2.2-.1.3-.2.3-.5zm-5.1-63.4c.4-.1.7-.2.9-.3.4 0 .6.1.8.3.3.2.6.3 1 .3h.4v-.2c-.1-.7-.5-1.1-1.4-1.3h-.6c-.8.1-1.1.5-1.1 1.2zm2.1-4.3c.5 0 .8-.1 1.3-.1 0-.4-.1-.6-.1-1.1-.5 0-.8.1-1.3.1.1.5.1.7.1 1.1zm2.7 9.6h.4c.5 0 .9-.3 1.1-.6.2-.4.3-.8.3-1.3s-.2-.9-.5-1.4c-.3-.2-.7-.3-1.2-.3h-.4c-.1.7-.2 1.3-.4 1.8-.1.2-.2.4-.1.5 0 .4.3.8.8 1.3zm5.7 58.7c.4 0 .7-.1 1.1-.1 0-.4-.1-.6-.1-1.1-.4 0-.7.1-1.1.1 0 .5 0 .7.1 1.1zm4.3-34c-.1-.2-.5-.3-1-.3s-.8.2-.9.4v.4c0 .2.1.3.2.3.3.2.6.3 1 .3.2 0 .5-.2.7-.4v-.7zm-1-32.4c-.2.1-.5.2-.7.2-.2 0-.4.2-.3.4.2 0 .5-.1.7-.2.2 0 .3-.2.3-.4zm4.1 49.8c0-.2-.2-.4-.4-.5h-.2c-.2 0-.4.2-.5.6.2.3.3.5.4.5l.2-.2c.1 0 .3-.1.5-.4zm1.7-31.5c.9-.1 1.4-.5 1.6-1.2-1 .1-1.6.5-1.6 1.2zm4.8 29.9c.1.1.3.2.4.1.2 0 .4-.2.5-.4.2-.2.3-.6.3-.9 0-.2-.2-.5-.4-.7-.1-.1-.3-.2-.4-.1-.1 0-.3.1-.5.2 0 .8 0 1.1.1 1.8zm.7-29.1c.4 0 .7-.1 1.1-.1 0-.4 0-.6.2-.7.2-.1.3-.3.2-.6-.4 0-.6-.1-.8-.3-.1-.1-.3-.2-.6-.1h-.4c.2.8.2 1.1.3 1.8zm2-5.3c-.1-.7-.3-1.2-.7-1.5-.4-.3-.9-.5-1.4-.7 0 .3 0 .4.1.7.1 1.1.6 1.5 1.6 1.5h.4zm5.2 7.6c-.2 0-.5.1-.7.1-.2.1-.4.2-.3.5.2-.1.5-.2.7-.2.2 0 .3-.2.3-.4zm25.2-34.7c5.1-.8 10.4-1.4 16-1.7 2.3-.1 4.6-.2 7-.2 4-.1 8-.2 11.9-.4 4-.2 7.9-.4 11.7-.7-.1 1.5-.4 3.2-1 5-.6 1.8-1.3 3.7-2.1 5.7s-1.5 4.1-2.1 6.3c-.6 2.2-1.1 4.5-1.4 6.7-.2 1.4-.2 3-.2 4.6 0 .8.2 1.7.3 2.6.4 2.6.4 5.4.6 8.1.1 2.7.2 5.5 0 8.1-.1.9-.1 1.8-.1 2.7.1 1.6.4 3.2.8 4.4.5 1.9 1.5 3.7 3.1 5.2s2.9 3.1 3.8 4.7c-.1 1.1-.4 2-.9 2.7-.5.7-1.1 1.4-1.8 2.1-.7.7-1.4 1.4-2 2.2-.6.8-1 1.8-1.2 3-.5 2.1-.7 4.5-.6 6.9 0 .2.2.5.2.7.6 2 .4 5.5.8 8.4.4 2.9.8 5.7 1.1 8.5.1 1.1.1 1.7.1 2.8.1 1.9.1 3.7-.1 5.5 7.7.1 15.6 0 23.6-.3 3.3-.1 5-.2 8.3-.3 5.4-.3 10.8-.5 16.2-.7 5.4-.1 10.7-.2 16-.2 1.8 4.3 3.6 8.6 5.4 12.8s3.5 8.5 5 13c-36.6.5-73.3 2.1-109.8 4.4 0-1.5.3-3.2.9-5 .6-1.8 1.3-3.6 2-5.4.7-1.8 1.4-3.7 2-5.5.6-1.9 1.1-3.7 1.3-5.5.2-1.6.1-3.5 0-5.7-.1-1.3-.1-2-.2-3.4-.4-3.4-.8-6.8-1-10.2-.2-3.4-.2-6.9-.1-10.4-.1-1.3-.1-2-.2-3.4-.1-2.1-.4-3.9-.9-5.4-.6-1.8-1.8-3.4-3.6-4.7-1.8-1.3-3-2.8-3.6-4.6 1.1-1.5 2.2-3 3.1-4.6.9-1.6 1.9-3.2 2.9-4.8-.4-2.7-.7-5.3-.9-7.9-.2-2.8-.1-5.7 0-8.5.1-2.4.1-5-.1-7.4-.2-2.7-.5-5.4-1-7.9-.4-2-1-3.9-1.8-5.7-.8-1.8-1.6-3.6-2.5-5.3-.9-1.7-1.7-3.4-2.5-5.1-.8-1.7-1.4-3.3-1.9-4.9v-.4c.1-.4-.1-.7-.5-.9zm10 15.8c.4 0 .7 0 1.1-.1 0-.4 0-.6-.1-1.1-.4 0-.7 0-1.1.1.1.5.1.7.1 1.1zm7.9 112.9c0-.2-.1-.4-.4-.5h-.2c-.2 0-.4.2-.5.6.1.3.3.5.4.5l.2-.2c.1 0 .3-.2.5-.4zm-.9-44.9c0-.8-.1-1.2-.1-1.9 0-.4-.2-.5-.6-.5-.1 0-.3.1-.5.2v.5c.1 1 .5 1.6 1.2 1.7zm2.2 36.8c1.1-.1 1.6-.1 2.7-.2.7-.2 1.2-.5 1.4-1.1h-2.7c-.9.1-1.3.5-1.4 1.3zm-2.5-64.1c0 .4 0 .6.1 1.1.2.1.4.2.6.1.1 0 .2-.1.4-.2.1-.1.2-.4.3-.7v-.2c0-.2-.1-.4-.2-.5-.1-.1-.3-.2-.4-.2h-.2c0 .4-.2.6-.6.6zm8.9 43.9c-.7 0-1.1.2-1.2.6.2-.1.5-.2.9-.2.2 0 .3-.1.3-.4zm1.6 18c-.2.1-.5.2-.7.3-.2.1-.3.2-.3.5.2-.1.5-.2.7-.2.2-.1.3-.2.3-.6zm5.6-36.6c-.3-.2-.8-.8-1.5-1.7-.8-.9-1.7-1.4-2.8-1.6.1.2.2.5.2.7 0 .7-.4 1.1-1.2 1.1v.5c0 .2.1.3.2.3.1.2.3.4.5.6.2.2.4.4.5.6.1.2.2.4.2.5 0 .2 0 .5-.1.7 1.5-.1 2.2-.1 3.6-.2-.1-.2-.2-.5-.2-.7 0-.1 0-.2.2-.4-.2-.2 0-.4.4-.4zm-1.2 43.3c0-.2-.2-.4-.6-.5h-.2c-.2 0-.4.2-.5.6.1.2.3.3.4.3.3 0 .6-.2.9-.4zm1.1-34.8v-.7c0-.9-.5-1.4-1.4-1.5v.7c.1.9.5 1.4 1.4 1.5zm-3.7-56.1c.6.1 1.1.3 1.3.6.2.3.5.5 1 .5.2 0 .8-.1.9-.2.1-.2.2-.7.1-.9 0-.7-.5-1.2-1.4-1.3h-.6c-.6.1-1.1.5-1.3 1.3zm3-3c.4 0 .7 0 1.1-.1 0-.5 0-.7-.1-1.2-.4 0-.7 0-1.1.1.1.5.1.7.1 1.2zm1.6-11.6c-.2.1-.5.2-.7.2-.3 0-.4.2-.3.5.2-.1.5-.2.7-.3.2 0 .4-.1.3-.4zm.5-17c-.2.1-.5.2-.7.2-.3 0-.4.1-.5.4.2-.1.6-.2.9-.2.2 0 .3-.1.3-.4zm7 107.1c.8-.2 1.7-.3 2.5-.3.7 0 1.1-.5 1-1.5-.6.3-1.3.5-2 .6-.8.2-1.3.6-1.5 1.2zm5 18c.8 0 1.2-.1 2-.1.1.1.2.2.4.2.4 0 .5-.2.5-.6v-.2c-.6-.1-1.1-.2-1.6-.5h-.4c-.4.1-.7.5-.9 1.2zm1.4-8.6c0-.2-.2-.4-.6-.5h-.2c-.2 0-.4.2-.5.6.1.2.3.3.4.3.2 0 .5-.1.9-.4zm1.8 4c-.2 0-.5.1-.7.1-.2.1-.3.2-.3.5.2-.1.5-.2.7-.2.2 0 .3-.1.3-.4zm8.1 2c-.2 0-.5 0-.7.1-.2.1-.3.2-.3.5.2-.1.5-.2.7-.2.2-.1.3-.2.3-.4zm37.4-17.9c.8 0 1.2 0 2-.1.6-.1.9-.5 1.1-1.1h-.7c-.5 0-1 0-1.4-.1h-.4c-.4 0-.5.3-.5.7-.1.2-.1.3-.1.6zm154.6-45.6c-.8 1.4-1.6 2.5-2.5 3.3-.9.9-1.7 1.6-2.6 2.4l-2.4 2.1c-.8.7-1.3 1.6-1.7 2.6-.3.8-.6 1.7-.6 2.8 0 .1 0 .3.2.5v1.2c0 .8-.1 1.5-.3 2.1-1.6 6.9-4.1 13.4-7.5 19.6-3.4 6.2-7.6 11.6-12.7 16.1-5.1 4.6-11 8.2-17.7 10.8-6.7 2.6-14.1 3.9-22.3 3.8-7.6-.1-14.6-1.3-21.1-3.7-6.5-2.4-12.3-5.8-17.4-10.2-5.1-4.4-9.4-9.6-13-15.5-3.6-6-6.1-12.6-7.7-19.9-.4-1.8-.7-3.3-.9-4.5-.2-1.2-.5-2.4-.8-3.3-.3-1-.8-2-1.3-2.9-.6-.9-1.4-2-2.5-3.3-.1-.1-.5-.4-1-.9-.6-.5-1.1-.9-1.7-1.4-.6-.5-1.1-.9-1.5-1.4-.4-.5-.7-.8-.7-.9 0-.8.4-1.5 1.2-2.1.8-.5 1.8-1.1 2.8-1.6 1-.5 2-1.2 2.9-1.8.9-.7 1.5-1.5 1.7-2.6.7-8.5 2.6-16.3 5.6-23.4 3-7.1 6.9-13.3 11.8-18.5 4.9-5.2 10.7-9.4 17.4-12.5 6.7-3.1 14.1-4.9 22-5.4 2-.1 4-.1 5.8-.1 7.3.1 14 1.2 20.1 3.5 7.7 2.8 14.4 6.8 20 12 5.6 5.1 10 11 13.3 17.8 3.3 6.8 5.3 13.8 6.1 21.2.1.6.1 1.2.1 1.9v1.1c-.1.2-.2.4-.2.5 0 .9.1 1.8.5 2.7.5 1.9 1.7 3.3 3.4 4.2 1.9 1 3.6 2.2 5.2 3.7zm-124.2 6.8h1.1V189h-1.1v1.1zm3.2-22.9c0-.2-.2-.4-.6-.5h-.2c-.2 0-.4.2-.4.5 0 .2.1.4.4.3.2.1.5 0 .8-.3zm-.1 34.9h.5c.6 0 .9-.3.9-.9v-.2c-.1-.8-.6-1.2-1.3-1.2h-.2c.1.9.1 1.3.1 2.3zm2-32.6c-.2.1-.5.2-.7.2-.4 0-.6.2-.5.5.7-.2 1.1-.5 1.2-.7zm1.3 22.8V190h-1.8v.7c0 1.1.5 1.6 1.5 1.6h.3zm-1-45.4h1.1v-1.2h-1.1v1.2zm1.3 16.4c0-.2-.2-.4-.6-.5h-.2c-.2 0-.4.2-.4.5.2 0 .5.1.7.3v.2c.3 0 .4-.1.5-.5zm0-1.1h1.3V161h-1.3v1.2zm3.8 11.9c.6.1 1 .3 1.3.7 0 .4.2.5.7.5.2 0 .6-.1.9-.2v-.4c0-.7-.4-1.2-1.3-1.6-.2-.1-.5-.2-.7-.2-.5.1-.8.4-.9 1.2zm1.3 27.2c0-.2-.2-.4-.5-.5h-.2c-.2 0-.4.2-.4.5 0 .2.1.4.4.3.1 0 .3-.1.7-.3zm1.1-3.4h.7c1.1 0 1.6-.5 1.6-1.4v-.4h-.7c-1.1 0-1.6.5-1.6 1.4v.4zm8.2 10.7h1.3v-1.1h-1.3v1.1zm1.7-50.5h1.1V157h-1.1v1.1zm35.3-16.8c-1.2-.1-2.4-.2-3.5-.2-3.9 0-7.4.5-10.5 1.7-4.1 1.6-7.6 4-10.4 7.2-2.9 3.2-5.1 6.9-6.7 11.2-1.6 4.3-2.6 8.9-3.1 13.9 1 1.5 2.2 2.7 3.7 3.6 1.5.9 2.8 2 4 3.3-.6 1.1-1.3 2-2.1 2.7-.8.8-1.6 1.5-2.3 2.2-.7.7-1.4 1.5-2.1 2.3-.7.8-1.1 1.8-1.2 3v.9c0 .6.1 1.2.2 1.8.2 1 .3 2.2.6 3.4.3 1.2.7 2.5 1.1 3.7.4 1.2.8 2.3 1.2 3.3 1.5 3.8 3.6 7.2 6.5 10.3 2.9 3.1 6 5.3 9 6.7 4 1.8 8 2.9 11.7 2.9 1.4 0 2.9-.1 4.5-.5 4.9-1 9.3-3.1 13.1-6.3 3.8-3.2 6.8-7.2 9.1-12s4.4-11 3.6-14.8c-.3-1.6-2.1-3.5-3.6-4.8-1.4-1.3-2.8-2.7-3.9-4.4l4.2-3 4.2-3c-.5-4.5-1.4-8.8-2.6-12.9-1.2-4.1-2.9-7.7-5.1-10.8-2.2-3.1-4.9-5.7-8.1-7.7-3.1-2.1-7-3.3-11.5-3.7zm-9.1 91.3v1.2c.4 0 .5.2.5.5h1.1c0-.4.2-.5.5-.5h.2v-1.2c-.5 0-.7-.2-.7-.5h-1.1c0 .5-.1.7-.4.7 0-.1 0-.2-.1-.2zm2.6-109.1c1 0 1.7-.2 2.1-.7.4-.5.7-1 1-1.6-.6-.1-1-.5-1.1-.9-.1-.2-.4-.4-.9-.4-.3 0-.6.1-.9.2-.4.4-.6.9-.6 1.6-.2.9 0 1.5.4 1.8zm4.2 13.1l1.5-.3c.2 0 .4-.2.4-.5v-.4h-1.3c0 .4-.1.6-.3.7-.2.1-.3.3-.3.5zm-1.2 108c.2 0 .4.1.5.2.1.1.3.2.5.4 0-.2.1-.4.3-.6.2-.2.3-.4.5-.6-.4 0-.6-.1-.7-.2-.1-.1-.3-.2-.5-.4 0 .2-.1.4-.3.6-.2.2-.3.4-.3.6zm4.8-6.8h1.1v-1.1h-1.1v1.1zm1.6-2.8c.4-.3.5-.7.6-1.1v-.4c-.1-.5-.5-.8-1.1-.9-.4.3-.5.7-.6 1.1 0 .1.1.2.2.2 0 .6.3 1 .9 1.1zm-.1 7.9h1.2v-1.1h-1.3c.1.5.1.7.1 1.1zm1.4-9.7c.2 0 .4.1.5.3.1.2.3.3.5.4v-1.4c-.1-.4-.3-.5-.5-.5-.1 0-.3.1-.5.2v1zm7.8-91.2c.5.6.9.9 1.3.9.2 0 .4 0 .6-.2h.6c.4 0 .7.3 1.1.9 0-1.3 0-2.1-.1-2.3v-.4c0-.4.1-.9.2-1.8-.4-.1-.7-.3-.9-.5-.2-.1-.6-.2-.9-.2h-.6v.5c0 .6-.2.9-.6 1-.5.2-.8.6-.8 1-.1.4 0 .7.1 1.1zm7.8 1.7c.1-.2.2-.4.2-.5 0-.1-.1-.2-.2-.4-.2-.2-.6-.4-.9-.4-.4 0-.7 0-1 .2-.3.1-.5.3-.5.5h.6c.2 0 .6.1.7.2.1.1.3.4.6.4h.5zm1.5-19.8c0-.2-.1-.4-.4-.5h-.2c-.3 0-.4.2-.6.5 0 .2.1.4.4.4.2 0 .4-.2.8-.4zm4.5 98.9c0-.2-.2-.4-.5-.5h-.2c-.2 0-.4.2-.6.5.1.2.2.4.4.4s.5-.1.9-.4zm9.1-16.7v-1.8h-1.8c0 1.2.6 1.8 1.8 1.8zm-1.2 22.6h-.4c-.1 0-.2-.1-.4-.2 0-.1-.1-.2-.2-.2s-.2.1-.4.3c0 .4.2.5.5.5.6.1.8-.1.9-.4zm8.5-10.6c.4 0 .6.1.7.4.1.2.4.4.9.4 0-.9-.3-1.5-1-1.8 0 .2-.1.4-.3.5-.2.1-.3.3-.3.5zM650 198h1.3c.3-.3.4-.6.4-.9 0-.5-.3-.8-1.1-.9 0 .4-.2.6-.4.7-.1.1-.2.3-.2.5v.6zm10.4-10.5c0-.4-.2-.6-.5-.7h-.2c-.2 0-.4.2-.6.7.1.1.2.2.4.2s.5-.1.9-.2zm-.5-1.2c.4 0 .7.1.9.2.2.1.5.3.7.4.1-.8.4-1.3.6-1.6.2-.1.4-.2.6-.2h.4c.2.1.5.2.9.2 0 .1.1.2.2.2.2 0 .6-.3 1.1-.8-.3-1.7-1.7-2.7-4.1-3 .3.6.5 1.1.5 1.4 0 .5-.2.9-.4 1.1-.3.3-.5.6-.9.9-.3.3-.5.7-.5 1.2zm122.2-2.3c-4.9-2.8-9.6-5.7-14.2-8.7s-9.2-6-14.1-8.8c.3-3.8.1-6.9-.6-9.3-.7-2.4-2.6-4.5-5.2-6.2-2.7-1.7-5.8-3.1-9.2-3.8-1.9-.4-3.9-.6-5.9-.8-1.5-.1-3.1-.2-4.7-.1-3.5.1-6.7 1.1-9.1 2.4-1.8 1-3.3 2.5-4.4 4.5-.7 1.1-1.1 2.2-1.1 3.3-.1 1.1.1 2.1.6 3.2.8 1.8 2.3 3.3 4.8 4.4 2.4 1.1 5 2.4 7.9 3.9 5 2.4 9.7 4.9 14 7.2 4.3 2.4 8.8 4.8 13.5 7.3 2.4 1.1 4.8 2.2 7.1 3.1 2.4 1 4.6 2.2 6.5 3.6 3.5 2.3 6.4 4.9 8.6 7.9 2.3 3 3.9 5.9 4.8 8.7.4 1.1.6 2.3.5 3.6-.1 1.3.2 2.6.7 3.8.7 1.7 2 3.3 3.9 4.8s3.8 3.2 5.5 5.3c-1.8 1.3-3.8 2.3-5.8 3.2-2.1.9-5 2-5.8 3.2-1.8 2.6-3.4 8.8-6.5 12.2-3.1 3.4-6.7 6.2-11 8.5s-8.9 3.9-14.1 4.9c-5.1 1-10.5 1.4-15.7 1.3-1.3 0-2.7 0-4.1-.1-3.9-.3-7.9-.9-11.8-1.8-5.3-1.2-10.4-2.9-15.1-5.1-3-1.5-6-3.2-8.8-5.2-2.9-2-5.1-4.1-6.7-6.4-2.4-3.3-4-7.1-4.9-11.5-.9-4.3-1.5-8.7-2-12.7-.5-4.3-1-9-.9-13.9 0-4.9.2-10.1.4-15.6 5.1 3.4 10 6.9 14.8 10.6 4.8 3.7 9.4 7.5 14.1 11.4 0 2.8-.1 5.3-.1 7.4-.1 2.1.4 4.2 1.2 6.3.9 2.2 2.6 4.2 5.2 5.9 2.6 1.6 5.8 2.8 9.1 3.7 2.5.7 5.3 1.2 8 1.4.8.1 1.7 0 2.3 0 3.4-.1 6.8-.3 9.7-1.3 1-.4 2.1-.9 3.2-1.6 1.1-.7 2.2-1.5 3.2-2.3 1-.9 1.8-1.8 2.5-2.9.7-1.1 1.1-2.1 1.1-3.2.2-2-.6-3.9-2.3-5.8-1.7-1.8-3.8-3.6-6.5-5.2-2.6-1.6-5.4-3.1-8.3-4.6-2.9-1.4-5.6-2.8-8-4-2.2-1.2-4.6-2.5-7.1-3.8-2.5-1.3-5-2.7-7.6-4-3.3-1.6-6.5-3.1-9.6-4.6-3-1.5-5.8-3.1-8.4-4.9-2.5-1.8-4.8-3.9-6.7-6.3-1.9-2.4-2.9-6.5-4.3-9-.8-1.6-3.2-3.2-5.1-4.4-1.9-1.2-3.8-2.4-5.9-3.5.8-1 1.7-1.9 2.6-2.5 1-.7 1.9-1.3 2.9-1.9 1-.6 1.8-1.2 2.7-1.8.8-.6 1.6-1.4 2.3-2.5 1.3-1.9 2.2-4 2.6-6.3.4-2.2 1.2-4.2 2.2-5.9 3.5-5.8 8.6-10.5 15.3-13.8 6.7-3.4 15.1-5.1 25-5 2 0 4 .1 6 .2 2.4.2 4.8.3 7.1.7 4.4.6 8.8 1.9 12.9 3.3s7.9 3.3 11.3 5.5c3.4 2.2 6.3 4.9 8.7 7.9 4.2 5.6 6.7 12.2 7.3 19.6.6 6.8.4 15.1-.5 24.4.2 1 .1 1.5 0 2.5zm-90.5-35.1c.4.1.7.2.9.2.6 0 1-.2 1.3-.6.3-.4.9-1 1.4-1.5-1.9 0-3.1.7-3.6 1.9zm11.8-9c0-.2-.2-.4-.5-.6h-.2c-.2 0-.4.2-.4.5 0 .2.1.4.4.4.1 0 .3-.1.7-.3zm-1.7 87.5c-.2.1-.5.2-.7.1-.2 0-.4.1-.4.3.2-.1.5-.2.7-.1.2.1.4 0 .4-.3zm4.9-56c.4 0 .7 0 1.1.1.4-.2.6-.4.6-.5v-.2c-.4 0-.6-.2-.8-.5-.2-.3-.4-.5-.8-.7-.1.7-.1 1.1-.1 1.8zm5.1-39.5c.4 0 .7 0 1.1.1 0-.5 0-.7.1-1.2-.4 0-.7 0-1.1-.1 0 .4 0 .7-.1 1.2zm17.6 116.5c-.2.1-.5.1-.7.1-.4 0-.5.1-.6.3.9.1 1.3-.1 1.3-.4zm6.7-63.3c-.3.1-.5.1-.7.1-.4 0-.6.1-.6.3.8.1 1.2-.1 1.3-.4zm3.4-42.5c.4 0 .7 0 1.1.1.1-.2.2-.4.2-.5v-.4c-.2-.1-.5-.3-.7-.4h-.4c-.3 0-.4 0-.6.1-.1.1-.2.2-.2.3v.2c.5.1.6.3.6.6zm10.7-15.2c-.3.1-.5.1-.8.1-.3 0-.4.1-.4.3.3-.1.5-.1.8-.1.2.1.3-.1.4-.3zm-8.4 108.2c.2 0 .4.1.6.3.2.2.4.3.6.3 0-.2.1-.4.2-.5.1-.1.3-.3.4-.5-.2 0-.4-.1-.6-.3-.2-.2-.4-.3-.6-.3 0 .2-.1.4-.2.5-.1.1-.2.3-.4.5zm8.5-43.9c.2 0 .4.1.5.3.1.2.3.3.5.5 0-.6.1-1 .1-1.6-.1-.2-.3-.4-.5-.4-.1 0-.3 0-.6.1v1.1zm7.3-50.6c-.3 0-.4-.1-.5-.4l-.2-.2c-.1 0-.3.2-.4.5 0 .2.2.4.5.4 0 .1 0 .2.2.2.3 0 .4-.2.4-.5zm-6.5 95.2c-.3.1-.5.1-.7.1-.4 0-.5.1-.6.3.8.1 1.2-.1 1.3-.4zm4.5-12.8c.4-.1.7-.1.9-.1.5 0 .8.2.9.4 0 .2 0 .4.2.4s.6-.1.9-.5c-.2-.7-.3-1.4-.5-2-.1-.6-.7-.9-1.6-1-.4.6-.6 1.3-.7 2.1-.1.3-.1.4-.1.7zm3.4-13.4c-.3.1-.5.1-.7.1-.4 0-.6.1-.6.3.2-.1.6-.1.9-.1.2.1.3 0 .4-.3zm-3.8 31.7c.5 0 .8.1 1.3.1 0-.4 0-.6.1-1.1-.5 0-.8-.1-1.3-.1 0 .4 0 .6-.1 1.1zm6.6-10.3c0-.3 0-.4.1-.7.1-.8-.1-1.4-.6-1.6-.8-.4-1.7-.7-2.7-.7 0 .3 0 .4-.1.7-.1.8.3 1.3 1 1.5.8.1 1.6.5 2.3.8zm-.5 6.8c-.4 0-.7-.4-1-1.1-.2-.3-.4-.4-.5-.4-.2 0-.4.2-.6.7.4 0 .8.4 1.2 1 .1.4.2.5.3.6.2-.1.4-.3.6-.8zm-.5-14.4c.4 0 .6.1 1.1.1 0-.4.1-.6.1-1.1-.4 0-.6-.1-1.1-.1-.1.5-.1.7-.1 1.1zm2.1 3v.5c-.7.7-1 1-1 1.2h.2c.1 0 .4-.1.8-.4.4-.3.7-.6 1-.9v-.2c0-.1-.1-.2-.3-.2-.4.1-.5.1-.7 0zm1-21c.4 0 .6.1.7.3.1.2.3.3.5.3 0-.5.1-1-.1-1.4-.1-.2-.3-.4-.5-.4-.1 0-.3 0-.6.1v1.1zm.2 19.5c-.1-.2-.3-.4-.7-.6h-.4c-.2 0-.5.1-.8.5v.4c0 .1 0 .2.2.4.2.1.5.2.9.2.2 0 .5-.1.7-.3.1-.2.1-.3.1-.6zm6.5-57.1c.4-.3.6-.7.6-1v-.4c-.1-.5-.5-.8-1.2-1-.4.3-.6.7-.6 1 0 .1 0 .2.2.2-.1.7.3 1.1 1 1.2zm-7.5 75.9c.2.3.5.4.9.4.2 0 .5-.1.7-.1.4-.1.8-.4.8-1v-.4c-.3 0-.4 0-.7-.1-.9 0-1.5.3-1.7 1.2zm11.9-16.8c-.6-.2-.9-.6-1-1-.1-.2-.4-.4-.9-.4-.2 0-.8 0-.9.1-.2.1-.2.7-.3 1 0 .6.1 1 .4 1.3.4.5.7 1.2.7 2.2-1.3-.1-2.5-.1-3.4-.1-1 0-1.6.5-1.9 1.4.2.3.5.4.9.5.4.1.6.3.7.7-.3.3-.5.5-.8.5-.1 0-.2-.1-.2-.2-.4 0-.7-.1-1.1-.3-.3-.1-.7-.2-1.1-.3-.4 0-.7.2-1 .6.8.5 1.4.8 1.7.9l.2.2c.5 0 1.1 0 2-.2.2.5.3.9.3 1.3s-.1.6-.2.7c-.3.2-.4.6-.5 1.2v2c.6-.1.9-.1 1.5-.2.6.2.8.3 1.4.5 1.1-.7 2-1.6 2.5-2.7s1-2.2 1.4-3.4c.4-1.2.8-2.4 1-3.6.3-1.2.8-2.3 1.5-3.3-.2-.7-.3-1.4-.4-2.2-.1-.7-.7-1.2-1.6-1.6.1.4.1.7.1 1.1 0 .5-.2.9-.5 1.2-.3.3-.6.7-.6 1.2 0 .2 0 .6.1.9zm0-75.9c.2.1.4.2.5.2.1 0 .3 0 .4-.1.3-.2.4-.5.4-.9 0-.2-.1-.5-.3-.7-.1-.1-.2-.2-.4-.2-.1 0-.3 0-.6.1.1.6 0 1 0 1.6zm-5.7 81.6c.2 0 .4.2.5.6v.2c0 .2-.2.4-.6.5 0-.5 0-.8.1-1.3zm8.3-77.3c0-.2-.2-.4-.5-.6h-.2c-.2 0-.4.1-.6.5.4 0 .6.2.7.4 0 .1 0 .2.2.2.1 0 .3-.2.4-.5zm-5.6 66.2c-.3.1-.5.1-.7.1-.2 0-.4.1-.6.3.9.1 1.3 0 1.3-.4zm2.5-8.3c0-.2-.1-.4-.5-.6h-.2c-.2 0-.4.1-.6.5h.4c.1 0 .2.1.3.2 0 .1 0 .2.2.2s.3-.1.4-.3zm.1-9.2c.5 0 .8.1 1.3.1 0-.4.1-.6.1-1.1-.5 0-.8-.1-1.3-.1 0 .5-.1.7-.1 1.1zm.4 22.9c.2 0 .4.2.5.6v.2c0 .2-.2.3-.6.3.1-.5.1-.7.1-1.1zm8.1-5.5c0-.4-.1-.5-.5-.6-.4 0-.6.1-.6.5 0 .2.1.4.3.4.2 0 .4-.1.8-.3zm-.3 3.4c.7-.8 1.5-1.2 2.6-1.4 1-.1 1.8-.7 2.4-1.6-.6-.1-1-.2-1.2-.4-.2-.2-.4-.5-.6-.8-.2-.3-.3-.6-.6-.9-.4 0-.6-.1-1.1-.1 0 .3 0 .4-.1.7-.1.9-.3 1.7-.7 2.2-.4.6-.6 1.1-.7 1.7v.6zm27.8-97.2c6.7.4 13.5 1 20.5 1.7 6.6.7 9.9 1.1 16.5 1.8 6.1.7 12.3 1.3 18.4 2-.8 1.6-2 3.2-3.4 5-1.5 1.8-3 3.8-4.5 6-.6.6-1.2 1.6-1.8 2.6-.5.9-1.4 2-2.3 3.5-.9 1.4-2 3.1-3.2 5.1-1.4 11.9-2.1 17.9-3.4 29.9 1 1.9 1.9 3.5 2.6 4.8.7 1.3 1.4 2.5 1.8 3.5.5 1.1.9 2 1.4 2.7-.4.9-.9 1.7-1.7 2.4-.8.7-1.5 1.4-2.4 2-.8.7-1.6 1.4-2.4 2-.8.7-1.3 1.5-1.7 2.4-.5 1.5-.9 3.2-1.1 5-.1.9-.1 2-.2 3-.1 3.2-.4 6.5-.7 9.5-.3 3-.8 6.1-1.4 9.1-.2 1-.4 2-.5 3-.2 2-.2 3.8-.1 5.3.2 2 .6 4.1 1.4 6.3.8 2.2 1.8 4.4 2.9 6.6 1.1 2.2 2 4.4 2.9 6.5.9 2.1 1.5 4 1.9 5.7-5.8-.2-11.8-.7-18-1.4-2.6-.3-5.2-.7-7.8-1-5-.7-10-1.3-14.9-1.7-4-.4-7.9-.7-11.7-1 .8-1.6 1.8-3.3 3.1-5.1 1.3-1.8 2.7-3.9 4.3-6.1 1.1-1.5 2.4-3.3 3.9-5.4 1.5-2 2.5-4.1 3.1-6 .3-1.1.8-3.4 1.2-6.7.5-3.3.9-6.9 1.3-10.8.4-3.8.7-7.3.9-10.7.2-3.3.3-5.7.1-6.8-.2-2-1.2-3.9-2.9-5.4-1.6-1.6-2.7-3.4-3.2-5.5.7-.4 1.4-1 2.2-1.9.7-.7 1.5-1.7 2.5-2.8 1-1.1 2.1-2.5 3.4-4.1 1.2-12 1.8-18 3.1-30.1-1.9-4.7-2.9-7.1-4.8-11.9-1.1-2.6-2-5-2.7-7.2-.6-2.1-1.5-4.1-2.6-5.8zm15.3 55.9c-.4 0-.6-.2-.7-.4 0-.1 0-.2-.2-.2-.1.2-.1.3-.2.5 0 .2.1.4.5.4v.2c.3 0 .5-.2.6-.5zm-1.6 27.2c-.3.1-.5.1-.7.1-.4 0-.6.1-.6.3.3-.1.6-.1.9-.1.3 0 .4-.1.4-.3zm3.2 18.6c0-.4-.1-.5-.3-.6-.4 0-.6.1-.8.4h.4c.1 0 .2.1.3.2 0 .1 0 .2.2.2 0 0 .1 0 .2-.2zm.4 28.7c0-.4-.1-.6-.5-.8h-.2c-.2 0-.4.2-.6.6h.4c.1 0 .2.1.3.2 0 .1 0 .2.2.2.2.2.3.1.4-.2zm11.7-105.7c.4 0 .7.1 1.1.1 0-.4.1-.6.1-1.1-.4 0-.7-.1-1.1-.1 0 .4-.1.6-.1 1.1zm-5.7 82.9c.6.1 1 0 1.2-.2.2-.2.4-.5.7-.8-.8-.1-1.4.2-1.9 1zm.6 25.7c1 .1 1.5.2 2.5.3 0 .1 0 .2.2.2.6.1 1.1-.1 1.5-.5.1-.2.2-.4.3-.7 0-.1 0-.3-.1-.5s-.2-.5-.4-.7c-.2-.2-.3-.4-.5-.6-.2-.2-.2-.5-.2-1-1.1-.1-1.7-.2-2.8-.3 0 .4-.1.6-.1 1.1-.1.6-.2.9-.3 1-.1.1-.2.3-.2.5-.2.2-.1.6.1 1.2zm3.1-27.6c-.1.7.1 1.2.6 1.4.5.2.8.6 1 1.1-.1-.2-.1-.5-.1-.9 0-.2.1-.6.3-1 .1-.1.2-.3.2-.5s-.1-.4-.5-.4h-.2c-.3.3-.7.4-1.3.3zm2.4-15.2c.2 0 .4.1.5.3.1.2.3.3.5.3.1-.6.1-.8.2-1.4-.1-.2-.3-.4-.5-.4-.1 0-.3 0-.6.1 0 .5 0 .7-.1 1.1zm-2.9 35.1c.2.1.4.2.5.2.1 0 .2 0 .4-.1.3-.2.4-.5.5-.8 0-.2-.1-.5-.3-.7-.1-.1-.2-.2-.3-.2-.1 0-.3 0-.6.1-.1.5-.1.9-.2 1.5zm33.2-119.8c8.5 1 16.7 2.1 24.7 3.1s16.1 2 24.2 2.9c.1 1.3 0 2.6-.2 3.7-.2 1.6-.6 3.3-1.2 4.6-.6 1.4-1.2 3-1.4 4.6-.2 1.2-.2 2.4-.2 3.7.1 1.4.3 2.9.9 4.3.6 1.4 1 3 1.4 4.8 2.5 10.5 4.9 21 7.2 31.4 2.3 10.5 4.8 21 7.5 31.5 5.8-8.8 11.2-17.7 16.4-26.7 5.1-9 10.5-18.3 16.3-27.9.8-1.3 1.7-2.5 2.7-3.7 1-1.2 1.7-2.4 2.1-3.6.7-1.8 1.2-3.5 1.4-5.1.2-1.4.3-2.8.3-4.2 0-1.6.2-3.4.5-5.1.2-1.3.5-2.6.9-4 19 3.1 28.4 4.8 47.3 8.3.6.2.9.5.8.9 0 .2-.2.5-.3.7-.8.6-1.3 1-1.6 1.1-2.7 2.6-6 5.4-9.9 8.3-3.9 2.9-8.3 5.7-10.4 8.3-3.5 4.3-6.7 11.3-10.3 16.8-3.5 5.4-7.1 10.9-10.7 16.4.3 1.4.6 2.7.9 3.9.3 1.3.8 2.7.7 3.9 0 1-.8 2.1-1.7 2.8-.9.7-2 1.3-3.1 1.8s-2.4 1.1-3.6 1.6c-1.3.6-2.4 1.3-3.3 2.2-1 1-2 2.5-2.9 4.4-.9 1.9-1.8 3.8-2.9 5.6-1.9 3.1-3.8 6.3-5.8 9.4-2 3.1-4.1 6.4-6.2 9.9-1.1 1.7-2.3 3.4-3.4 5.1-1.1 1.7-1.9 3.1-2.4 4.4-.3.8-.4 1.6-.6 2.4-.3 1.9-.3 3.7 0 5.6.4 2.4.3 4.8 0 7-.1.4-.1.6-.2 1-14.7-2.4-22.1-3.5-36.9-5.7.1-.7.2-1.1.3-1.8.3-1.9.9-3.8 1.8-5.8.8-1.9 1.3-3.8 1.6-5.7.1-.7.2-1.1.3-1.8.1-1.4-.2-3.2-.8-5.2-.6-2.1-1.1-4.1-1.6-6-.4-1.8-1-3.7-1.7-5.5-.7-1.8-1.2-3.6-1.5-5.3-.9-3.7-1.7-7.6-2.3-11.7-.6-4.1-1.6-7.5-2.9-10.3-.6-1.2-1.3-2.2-2.2-3.3-.9-1-1.9-2-2.8-2.9-1-.9-1.8-1.9-2.6-2.8-.7-1-1.2-2-1.4-3.1 1.1-.7 1.8-1.7 2.3-3.1.4-1.4 1.2-2.4 2.3-3.1-2.2-6.4-3.9-12.7-5-19-1.1-6.3-2.8-12.5-5.2-18.5-1.9-4.8-4.4-9.1-7.5-13.1-2.9-3.9-5.7-8.1-8.1-12.4zm27.7 36.2c.1-.8.2-1.2.3-1.9 0-.2-.1-.4-.3-.4-.2 0-.8-.1-.9 0-.5.4.1 2.2.9 2.3zm1.5 11.2c-.1 1-.2 1.5-.3 2.4 0 .7.3 1.2.9 1.6.2-.4.3-.7.5-.7.1 0 .3.1.5.3.2.5.5.8.8.8.1 0 .3 0 .6-.1.2-.6.4-1.1.7-1.5.2-.4.5-.9.7-1.3v-.2c0-.4 0-.6-.1-.9-.2-.4-.6-.8-1.1-1.2-.3.3-.6.4-1 .4-.1 0-.2-.1-.2-.2h-.2c-.5-.1-1.1.1-1.8.6zm.4 14.9c-.3.1-.5.1-.8.1-.4-.1-.6 0-.6.3.9.1 1.3 0 1.4-.4zm6.1-22.7c0-.2-.1-.4-.5-.6h-.2c-.2 0-.5.1-.6.4.4.1.7.2.9.5v.2c.1 0 .2-.2.4-.5zm3.3-19.5c-.3.1-.5.1-.8.1-.2 0-.4.1-.4.3.3-.1.5-.1.8-.1.2 0 .4-.1.4-.3zm-7.9 52.8c.3.3 1.5-.1 2-.8-.6-.1-.9-.1-1.5-.2-.4.1-.6.2-.6.4 0 .1 0 .5.1.6zm.6 3.4h-.2c-.2 0-.4-.1-.3-.2-.1-.1-.2-.2-.3-.2-.1.1-.1.2-.2.3 0 .4.1.6.5.6.3 0 .5-.1.5-.5zm2.9 6.2c.2 0 .3 0 .5.1.6.1 1-.2 1.2-.7v-.4c.1-.6-.2-.9-1-1-.2.3-.4.6-.7.8-.1.1-.2.3-.3.5.2 0 .2.3.3.7zm5.2-25c-.3.1-.5.1-.8.1-.2 0-.4.1-.4.3.3-.1.5-.1.8-.1.2 0 .3-.1.4-.3zm-3 24.7c.4.1.6.2.7.4.1.2.3.3.5.3 0-.2.1-.4.3-.5.2-.1.3-.3.3-.5-.2 0-.4-.2-.5-.3-.1-.2-.3-.3-.5-.3 0 .2-.1.4-.3.5-.2.1-.3.2-.5.4zm4.9-25c.7.1 1.1.2 1.8.3.1-.7.2-1 .3-1.7-.5-.1-.8-.1-1.3-.2 0 .4-.3.5-.5.6-.1.1-.2.3-.3.5v.5zm-1.4 26.8c-.5-.1-1-.2-1.4-.4h-.2c-.4-.1-.6.1-.8.6.3.4.6.6 1 .7.1 0 .3-.1.4-.1.2-.1.8-.3 1-.8.1 0 .2 0 .4.1.7.1 1.2.5 1.3 1.1.2.7.6 1.3 1.4 1.6 0-.3.1-.4.1-.7.1-.5.2-.9.4-1.4.3-.7.7-1.3 1-2 .1-.7.2-1 .3-1.7-.1-.5-.5-1-1.2-1.6-.6.9-1.2 1.3-1.8 1.4-.6.1-1.2.2-2 .3-.2.3-.3.6-.3.8-.1.4 0 .5.3.6.2.3.3.6.2.9-.1.3-.1.4-.1.6zm2.3-12.4c-.3.1-.5.1-.8.1-.2 0-.4.1-.4.3.3-.1.5-.1.8-.1.2.1.4 0 .4-.3zm-3.6 17.4c.4.1.6.1 1.1.2.1-.5.1-.7.2-1.2-.4-.1-.6-.1-1.1-.2-.1.4-.1.7-.2 1.2zm4.6-20.6h-.7c-.2 0-.4.2-.4.4.3-.1.5-.1.8-.1.1 0 .3-.1.3-.3zm2.4-7.7c-.3-.2-.6-.4-.7-.6-.1-.1-.3-.2-.7-.3-.1 0-.2 0-.4-.1-.2.2-.3.4-.3.7-.1.4.5.5.8.7.1.1.3.2.5.3.4.1.6-.1.6-.4.2-.2.2-.2.2-.3zm-6 36.5c-.4.3-.6.7-.7 1.1-.1.5 0 1 .3 1.7.2 0 .3 0 .5.1.6.1 1-.1 1.4-.5.1-.8.2-1.3.3-2.1-.7-.2-1.1-.2-1.8-.3.1-.4 0-.5-.1-.6-.1.1-.1.1-.2.1v.2c0 .2.1.2.3.3zm13.6-3.2c-1.3 1.5-2.8 2.8-4.4 4.1-1.6 1.3-2.8 2.4-3.7 3.3-.3.1-.5.1-.7.1-.4-.1-.5-.3-.5-.6-.1-.5-.4-.8-1-.9-.3.4-.8.7-1.5.7s-1.2.2-1.6.5c.2.6.2 1.1.2 1.5 0 .2-.1.3-.2.3-.4.2-.8.7-1.1 1.4.1.1.3.2.5.3.2 0 .3 0 .5.1.4-.1.8-.1 1.1-.2.1 0 .2 0 .4.1.2 0 .5.1.7.3.2.3.2.9.1 1.8 1-.8 1.8-1.2 2.5-1.1.1 0 .2 0 .4.1.8.4 1.8 1 2.8 1.8.1-.7.4-1.2.9-1.5.5-.3.9-.6 1.3-1.1.1.4.5.8 1.3 1.3.2.2.4.2.5.3.5.1.8-.1 1-.6-.8-.2-1.3-.7-1.5-1.3-.2-.6-.5-1.1-1.1-1.4 1 .1 1.6-.4 1.9-1.5 0-.3.1-.4.1-.7.1-.8 0-1.5-.3-2 .1 0 .2 0 .4.1.2 0 .5 0 .6-.1.2-.2.5-.3 1-.4-.1-.8-.1-1.6 0-2.2.1-.3.2-.6.3-.8v-.2c0-.7-.3-1.2-.9-1.5.1-.8.1-1.2-.2-1.3-.2 0-.4.1-.6.4v.2c-.1.2.2.5.8.7zm-5.9-20.5c.1-.4.1-.6.2-1-.2-.4-.4-.6-.7-.6-.4.1-.6.2-.8.4 0 .2 0 .3-.1.5 0 .1 0 .2.1.4 0 .2.1.4.5.4.2-.1.4-.1.8-.1zm-2.4 12.8c-.2.3-.3.6-.3.8 0 .2 0 .5.1.7.2.4.5.7 1 .9.5.1.8.1 1.3.2.5 0 .9-.2 1.2-.4 0-.2 0-.3.1-.5 0-.2 0-.6-.1-.7-.1-.1-.3-.3-.3-.6 0-.2 0-.3.1-.5-.3-.2-.6-.3-.7-.3-.5-.1-.7 0-.8.2-.2.3-.4.5-.8.4-.4.1-.6 0-.8-.2zm2-5.9c.6.3 1 .7 1.4 1.1.4.4.8.8 1.2 1.1.1-.8-.1-1.7-.7-2.6-.2-.3-.4-.4-.7-.5-.5-.1-.9.2-1.2.9zm-.4 11.3c0-.2-.1-.4-.5-.6h-.2c-.2 0-.4.1-.6.4.4.1.6.2.7.5 0 .1 0 .2.2.2.1 0 .2-.1.4-.5zm-4.7 23.5c-.1 1.4.1 2.6.6 3.7.5 1 .7 2.2.8 3.5.2.2.4.2.5.3.5.1.9-.2 1-.6.1-.4.4-.7 1-.6.2 0 .3 0 .5.1-.2-1.7-.3-3-.1-4 .1-.9-.3-1.8-1.3-2.5-.3.6-.8.8-1.4.9-.1 0-.2 0-.4-.1-.5-.1-.9-.3-1.2-.7zm1-3.3c.4-.1.7-.1.9 0 .5.1.8.3.8.7l.3 1.5c1.9 0 3-.7 3.3-2.4-1.2-.4-1.8-1.1-2-2.1-.2-1-.6-1.8-1.4-2.5-.4.9-.6 1.6-.8 2.2 0 .5-.5 1.4-1.1 2.6zm0 16.1c1.1 0 1.7-.5 1.9-1.7.2-1 .4-2.1.6-3.1-.7-.1-1.1-.2-1.8-.3-.2.4-.3.8-.4 1.2-.1.7 0 1.3.3 1.8.1.4.1.7 0 1.1 0 .4-.2.7-.6 1zm.3 10.4c0-.3.1-.4.1-.7.1-.9-.2-1.5-1-1.8-.2.7-.4 1.2-.4 1.5-.1.1-.1.1-.2.1-.1.5.4.7 1.5.9zm6.9-55.3c.3.4.6.6 1 .7.1 0 .3 0 .6-.1.1-.1.3-.1.6-.1.2 0 .5.2.9.5.1-.4.1-.6.2-1 .1-.3.3-.6.6-.6.6 0 1.1.4 1.3.9.1.5.4.9.8 1.2-.2 0-.3 0-.5-.1-.8-.1-1.3.2-1.5 1 0 .2 0 .3-.1.5.1 0 .2 0 .4.1.6.1 1.1.3 1.2.5.2.4.3.9.5 1.3-.9-.4-1.5-.6-1.8-.6-.2 0-.8 0-1.7.1 0 .2 0 .3-.1.5 0 .1 0 .2.1.4.1.1.3.3.5.4.2.1.4.4.5.6 0 .1 0 .2-.1.3 0 .1-.1.3-.3.7 1.3.1 2.3 0 2.8-.3.1-.1.4-.1.7-.1.5.1 1.1.3 1.8.6 0-1.5-.3-3-.7-4.2-.5-1.3-.8-2.6-1-4.1H926c-.2 0-.4-.1-.5-.3-.3-.2-.6-.5-.8-.8-.2-.4-.4-.7-.7-1.1-.3-.3-.6-.6-1.1-.8 0 .2 0 .3-.1.5-.1.8-.4 1.3-.8 1.5-.6.6-1.1 1.2-1.4 1.9zm-7.3 49c.5.1.7.1 1.2.2.1-.5.1-.7.2-1.2-.5-.1-.7-.1-1.2-.2-.1.5-.1.7-.2 1.2zm8.2-43.1c-.3.1-.5.1-.7.1-.2 0-.4.1-.4.3.3-.1.5-.1.7-.1.3 0 .4-.1.4-.3zm-5.7 38.8c.5.1.7.1 1.2.2.1-.5.1-.7.2-1.2-.5-.1-.7-.1-1.2-.2-.1.5-.2.7-.2 1.2zm-.4 2.8c.5.1.7.1 1.2.2.1-.5.1-.7.2-1.2-.5-.1-.7-.1-1.2-.2-.1.5-.2.7-.2 1.2zm8.5-53.9c.2 0 .4.2.6.4.2.2.4.3.6.4-.1-.5.1-1.1 0-1.4 0-.2-.3-.4-.5-.4-.1 0-.3 0-.6.1 0 .2 0 .4-.1.9zm-5.6 42.9c.4-.1.7-.1.9 0 .4.1.6.2.7.5.1.3.3.4.7.5.2 0 .3 0 .5.1-.1-.7-.4-1.3-.7-1.8-.4-.5-.7-.9-1.2-1.3-.2.3-.5.6-.7.8-.2.2-.2.4-.3.7 0-.1 0 .1.1.5zm.5 4c.1.1.3.2.5.3.4.1.7-.1 1.2-.5.2-.2.2-.4.3-.5.1-.3-.2-.6-.6-.8-.1.5-.4.6-.8.6-.3 0-.6.2-.6.4-.2.1-.1.3 0 .5zm4.2-21.2c.2 0 .3 0 .5.1.4.1.6 0 .7-.1.3-.2.4-.5.5-.8.1-.3-.1-.7-.3-.9-.3-.3-.6-.5-1.1-.5-.1.9-.1 1.3-.3 2.2zm-1 18.8c-.3.1-.5.1-.7.1-.2 0-.4.1-.4.3.3-.1.5-.1.7-.1.3.1.4 0 .4-.3zm.3 1.9c.2 0 .3 0 .5.1.5.1.9-.2 1.2-.7.2-.2.2-.4.3-.7.1-.3-.1-.6-.4-.8-.3.4-.6.6-1 .6-.4.1-.6.3-.6.6-.1.2-.1.5 0 .9zm1.6-6.8c-.1.1-.1.1-.2.1h.2c.4-.1.6-.1.7-.1.3-.3.5-.6.5-1 0-.1 0-.2.1-.3-.1-.4-.3-.6-.8-.7-.1 0-.4 0-.7.1 0 .2 0 .3-.1.5 0 .2 0 .5.1.6.1.2.2.5.2.8zm1.8-3.6c-.4-.1-.6-.2-.7-.5 0-.1 0-.2-.2-.2-.1 0-.3.1-.4.5 0 .2.1.4.5.4 0 .1 0 .2.2.2.2.1.4-.1.6-.4zm-5 24.4c.3.4.7.6 1.2.7.1-.1.1-.1.2-.1.5.1.8-.2 1-.7-.3-.4-.6-.6-1-.7h-.2c-.6 0-1 .3-1.2.8zm8.8-37.1c.3-1 .5-2 .6-2.8.1-.4.1-.6.2-1 0-1.1-.3-2.1-1-3.2-.5 1.6-.9 2.9-1.3 3.9-.1.1-.2.3-.3.5-.2.8.4 1.7 1.8 2.6zm-1 6.7c-.3.1-.5.1-.7.1-.4-.1-.6 0-.6.3.6 0 1.1-.1 1.3-.4zm-1.7 2.6h1.7c.5 0 1-.2 1.3-.6-.3-.4-.8-.7-1.4-.7-.2 0-.3 0-.5-.1-.6 0-1 .3-1.1.9v.5zm3 11.3c-.1.7-.2 1-.3 1.7.2.2.4.2.5.3.1 0 .2 0 .4-.1.3-.2.4-.5.5-.8 0-.2 0-.5-.2-.8-.1-.1-.3-.2-.5-.3-.2.1-.3.1-.4 0 .2-.5.3-.8.6-1.3-.1-.6-.1-.9-.1-1.5-1 0-1.8 0-2.5.2-.7.1-1.3.9-1.2 1.6 0 .3 1 .5 1.3.7.1.1.3.2.5.3.4.1.9.1 1.4 0zm-1-5.3h-.2c-.2 0-.3-.1-.3-.2-.1-.1-.2-.2-.3-.2-.1.1-.1.2-.2.3-.1.3.1.6.5.6.1 0 .3-.2.5-.5zm3-7.6c-.3.1-.5.1-.7.1-.4-.1-.6.1-.6.4.3-.1.6-.1.9 0 .2 0 .3-.1.4-.5zm-2.8 18c.4-.1.8-.4.9-.9v-.9c-.1-.7-.3-1.1-.9-1.2-.2 0-.5 0-.7.1.1.4.1.7 0 1.1-.1.4-.1.6-.2 1-.1.1-.2.2-.2.3-.1.3.1.5.5.6.1 0 .4 0 .6-.1zm-.2 1.2c-.8-.1-1.3 0-1.3.3.3-.1.6-.1.9 0 .2.1.4 0 .4-.3zm.7 5.9c-.4-.1-.6-.2-.7-.5-.1-.1-.3-.2-.5-.3-.1 0-.2 0-.4-.1-.2.2-.2.4-.3.5 0 .1 0 .2.2.2.1.3.3.4.7.5 0 .1 0 .2.2.2s.4 0 .6-.1c.1-.1.2-.2.2-.3v-.1zm3.5-17.4c.4.1.6.1 1.1.2.1-.4.1-.6.2-1-.4-.1-.6-.1-1.1-.2-.1.4-.2.6-.2 1zm-3.2 20.3c.4.1.6.1 1.1.2.1-.4.1-.6.2-1-.4-.1-.6-.1-1.1-.2-.1.3-.1.5-.2 1zm3.9-6.4c.3 0 .4.1.7.1 1.1.2 1.7-.2 1.8-1.1v-.2c-.4-.1-.6-.2-.7-.5-.1-.1-.3-.2-.7-.3-.1 0-.2 0-.4-.1-.2.3-.4.6-.7.8-.1.1-.2.3-.3.5.2.2.3.4.3.8zm3.5-14.9c-.2 0-.4-.2-.5-.4l-.2-.2c-.1 0-.3.1-.4.5 0 .2.1.4.5.4v.2c.2 0 .4-.1.6-.5zm4.1-18.4c0-.2-.1-.4-.5-.6h-.2c-.2 0-.5.1-.6.4.1.3.2.4.3.4.3 0 .7-.1 1-.2zm-1.6 2c.2 0 .4.2.6.4.2.2.3.4.6.5 0-.6.1-1.2.1-1.6 0-.2-.2-.4-.5-.4-.1 0-.3 0-.6.1-.1.4-.1.6-.2 1zm1.2-3.7c.3.4.8.7 1.5.8.8.1 1.2.2 2 .3.1-.5 0-.9-.4-1.2-.3-.3-.6-.6-1-.8-.1 0-.2 0-.4-.1-.4-.1-.7 0-.9 0-.5.2-.8.5-.8 1zm.2 10.4c.1-.1.2-.3.3-.5.1-.3-.1-.7-.6-1.2-.2-.3-.4-.4-.7-.5-.2 0-.5.2-.6.6.5.1.7.4.8.8-.1.3.1.6.5.6.1.2.1.2.3.2zm-1.6 10.1c-.4-.1-.6-.2-.7-.5 0-.1 0-.2-.2-.2-.1.2-.2.3-.3.5 0 .2.1.4.5.4v.2c.3.1.5-.1.7-.4zm-2.9 11.5c.4.1.6.1 1.1.2.1-.4.1-.6.2-1-.4-.1-.6-.1-1.1-.2-.1.4-.2.6-.2 1zm4.7-26.2c.4.1.6.1 1.1.2.1-.4.1-.6.2-1-.4-.1-.6-.1-1.1-.2-.1.3-.2.5-.2 1zm-1.6 19.9h-.7c-.3 0-.4.1-.4.4.3-.1.5-.1.7-.1.3.1.4 0 .4-.3zm2.2-8.9c-.3.1-.5.1-.7.1-.4-.1-.6 0-.6.3.8 0 1.2-.1 1.3-.4zm-.7 11.3c-.2-.2-.4-.3-.7-.5-.2-.2-.6-.3-1-.3v.2c0 .2-.2.3-.6.3-.1.5-.1.7-.2 1.2h.2c.2 0 .3.2.3.6.5.1.7.1 1.2.2v-.2c0-.2.2-.3.6-.3.1-.4.1-.7.2-1.2.5.1.7.1 1.2.2.1-.4.1-.6.2-1-.2 0-.3-.1-.5-.1s-.4 0-.4.1c-.2.2-.3.5-.5.8zm5.6-20.4c0-.3.1-.4.1-.7.1-.9-.4-1.5-1.6-1.7-.4-.1-.6-.1-1.1-.2-.2 1.5.2 2.4 1.4 2.6.5.1.9.1 1.2 0zm-2.7 5.5c.1-.3 0-.6-.2-.8h-.2c-.2 0-.5.2-.7.6h.2c.2 0 .4.1.5.3 0 .1 0 .2.1.2.2-.1.2-.2.3-.3zm8.5-29.8c.2.2.4.2.5.3.1 0 .2 0 .4-.1.3-.2.4-.5.5-.8 0-.2 0-.5-.3-.8-.1-.1-.3-.2-.5-.3-.1 0-.2 0-.4-.1 0 .8-.1 1.1-.2 1.8zm-6.2 40.9c.6 0 1.2 0 1.8.1.5.1.7-.1.8-.4 0-.1 0-.2.1-.3-.5-.2-.8-.3-1-.3-.4-.1-.6 0-.7.1-.4.2-.7.5-1 .8zm4.6-20.4h-.7c-.2 0-.4.1-.4.4.3-.1.5-.1.7-.1.2 0 .3 0 .4-.3zm-3.6 18.4c.2 0 .4.1.5.3.1.1.3.3.5.4 0-.2.2-.4.4-.5.2-.1.4-.2.5-.5-.4-.1-.6-.2-.7-.4-.1-.2-.2-.4-.5-.5-.1.3-.2.6-.3.7-.1.2-.2.3-.4.5zm5.1-12.9h-.7c-.2 0-.4.1-.4.4.3-.1.5-.1.7-.1.2 0 .3-.1.4-.3zm.8 3c-.5-.2-.8-.5-.9-.8-.1-.3-.4-.6-.7-.7-.1.1-.2.3-.3.5-.1.3.1.7.5 1.2.2.3.4.4.7.5.3-.1.5-.3.7-.7zm3.9-24.3c-.3.1-.5.1-.8.1-.4-.1-.6.1-.6.4.3-.1.5-.1.8-.1.3.1.5-.1.6-.4zm-.2 11.6c.1-.3 0-.5-.3-.6-.4-.1-.6.1-.8.4 0 .2.1.4.3.4.2.1.4 0 .8-.2zm13.7-49.7c-.5 1.2-1.1 2.2-1.9 2.8-.8.6-1.6 1.3-2.3 1.9-.7.6-1.3 1.2-1.8 1.9-.2.3-.3.7-.4 1.2-.1.5-.1 1-.1 1.6 1 .9 1.9 1.4 2.8 1.5.4.1.7.1.9 0 1.2-.2 2.3-.3 3.4-.3-.3-.3-.7-.6-1.2-.9-.4-.3-.8-.7-1-1.1.6-1.2 1.3-2.6 2.2-4.1.2-.3.3-.7.4-1.2.3-1.1-.1-2.2-1-3.3.2-.3.3-.6.3-.7 0-.2 0-.4-.1-.4-.2 0-.5.1-.6.4-.1.1-.1.1-.2.1-.1.4.1.5.6.6zm-9.9 30.1c.2 0 .3.1.5.1.6.1 1.1-.1 1.4-.7 0-.1 0-.2.1-.3.1-.6-.2-1-.9-1.2-.2.4-.4.8-.7 1-.1.1-.2.3-.3.7 0 .1-.1.2-.1.4zm1.2 15.2c-.4-.1-.6-.2-.7-.5 0-.1 0-.2-.2-.2-.1 0-.3.1-.4.5 0 .2.1.4.5.4 0 .1 0 .2.2.2.2.1.4 0 .6-.4zm8.4-50.5c0 .2-.1.3-.1.5-.1.5 0 .7.3.8 0 .1 0 .2-.1.3 0 .1-.2.3-.5.6.3.2.6.3.9.3.6.1 1-.1 1.2-.5.3-.5.9-.8 1.7-.8 0 .1 0 .2-.1.3-.1.3.1.6.5.6.1 0 .2 0 .2-.1h.2c.5.1.7.5.8 1 0 .3 0 .8-.1 1.4-.1.8-.2 1.3-.4 2.1-.1.8-.1 1.6 0 2.2.1.7.6 1.2 1.5 1.4.2-.7.4-1.3.5-1.9.1-.3.1-.5.1-.9h-.2c.1-.3.3-.5.6-.4.2 0 .6.3 1.2.7.1-.3.1-.5.1-.9.2-.9.1-1.6-.2-2 .4-.3 1-.4 1.6-.4.6 0 1.2-.1 1.6-.4-.3-1-.7-2-1-2.9-.3-.4-.4-1-.3-1.8.1-.5.2-1 .5-1.7-.4-.2-.6-.3-.9-.3-.4-.1-.7 0-1 .2-.3.2-.6.3-.8.2-.1 0-.2-.2-.3-.6.2-.3.4-.6.7-.7.3-.1.6-.3.8-.4.3-.1.5-.4.7-.7.1-.1.2-.3.3-.5 0-.2 0-.6-.1-.7-.5-.4-2.3-.5-2.9-.8-.6-.3-1.7-.8-3.4-1.6-.7 1.8-1.2 3.5-1.5 5.1-.2 2-.9 3-2.1 3.3zm-.3 20.2c-.3.1-.5.1-.8.1-.4-.1-.6 0-.6.3.3-.1.6-.1.9 0 .3-.1.4-.2.5-.4zm12.6-38.8c-.7-.1-1.2 0-1.4.3.3-.1.6-.1 1 0 .2.1.3 0 .4-.3zM980 162c.5.1.8.1 1.3.2.1-.5.1-.7.2-1.2-.5-.1-.8-.1-1.3-.2 0 .5-.1.8-.2 1.2zm4.2 12.8c-.3.1-.6.1-1 0-.2 0-.6-.1-.9-.3-.2-.1-.5-.3-.7-.3-.2 0-.4.1-.5.5v.2c.7.1 1.1.2 1.8.3.1.1.2.2.3.2.6 0 .9-.2 1-.6zm-4.7 19.4c-.2 0-.5-.1-.7 0-.3 0-.4.1-.4.4.3-.1.5-.1.8 0 .1 0 .2-.1.3-.4zm3.9-26.4c.4.1.7.1 1.1.2.1-.5.1-.7.2-1.2-.4-.1-.7-.1-1.1-.2 0 .5-.1.7-.2 1.2zm-5.8 37.6c.3-.2.6-.7 1-1.4v-.2c.1-.3-.2-.6-.6-.6-.2 0-.3-.1-.5-.1.1.4.1.7 0 .9 0 .2-.1.3-.1.5-.1.1-.1.1-.2.1-.1.3 0 .6.4.8zm9-23.8c-.1.4-.1.6-.2 1-.1.3.1.6.5.6.3-.2.6-.6.9-1.1v-.2c0-.2-.1-.4-.5-.4-.2 0-.5.1-.7.1.1-.5.1-.7.2-1.2-.4-.1-.7-.1-1.1-.2-.2.2-.3.4-.3.7 0 .1.1.2.3.2.2.2.5.4.9.5zm-.4-4.2c.6.2 1.2.5 1.9.9.1 0 .2 0 .4.1.5.1.9-.2 1.3-.9-.6-.2-1.2-.5-1.9-.9-.2 0-.3-.1-.6-.1-.5 0-.9.3-1.1.9zm3.3-12.7c.3.3.5.6.4 1 0 .1 0 .2-.1.3.9.1 1.4.1 1.8-.2 0-.2.1-.3.1-.5 0-.1 0-.3-.1-.6-.2-.4-.5-.7-.8-.9h-.2c-.4 0-.7.3-1.1.9zm-3.7 21.3c.4.1.7.1 1.1.2.1-.4.1-.6.2-1-.4-.1-.7-.1-1.1-.2-.1.4-.1.6-.2 1zm5.4-16.8c.1-.3-.1-.6-.5-.6-.4-.1-.7.1-.8.4.1.3.2.4.3.4.3 0 .6-.1 1-.2zm-1.3 17.5c.1-.6.2-.9.3-1.6-.4-.1-.6-.1-.9-.2-.5-.1-.8 0-.8.4.5.1.7.4.6.8-.1.3 0 .5.3.6 0 .1.2.1.5 0zm1.2-2.7c.2-.3.4-.6.7-.9.1-.5.1-.7.2-1.2-1-.2-1.4-.3-2.4-.4-.1.7 0 1.2.3 1.6.4.3.7.6 1.2.9zm14.1-24.6c-.3.1-.5.1-.8 0-.3 0-.4 0-.4.3.2 0 .5.1.8 0 .2.1.3 0 .4-.3zm23.6-.8c35.5 6.8 70.9 14.2 106 22.6-2.9 3.7-5.7 7.5-8.3 11.5-2.6 4-5.4 7.8-8.3 11.5-22.3-5.2-33.5-7.6-55.9-12.2-1.1 2.9-2 6.1-2.8 9.7-.3 1.5-.4 2.2-.7 3.6-.4 2.4-.8 4.9-1.3 7.3-.5 2.4-1.1 4.8-1.6 7.1 21.5 4.4 32.2 6.8 53.6 11.7-2.3 10.2-3.5 15.3-5.9 25.5-20.9-4.8-31.3-7.1-52.3-11.4-1.1 2.8-1.9 5.8-2.6 9-.3 1.4-.4 2.1-.7 3.5-.4 2.3-.8 4.6-1.2 6.8-.5 2.3-1 4.5-1.6 6.7 21.4 4.4 42.7 9.1 63.9 14.1.3 4.7.7 9.2 1.4 13.7s1.4 8.9 2.2 13.3c-13.3-2.7-26.7-5.6-40.3-8.6-5.5-1.2-8.2-1.8-13.7-3-9.1-2.1-18.2-4-27.3-5.9-9.1-1.8-18.3-3.6-27.4-5.2.4-1.5 1.2-3 2.2-4.6 1.1-1.6 2.2-3.2 3.5-4.7 1.2-1.6 2.4-3.2 3.5-4.8 1.1-1.6 2.1-3.3 2.7-5 .5-1.4 1-3.2 1.4-5.1.2-1.2.3-1.8.6-3 .4-3.2.8-6.3 1.4-9.3.6-3 1.2-6.1 2.1-9 .3-1 .6-1.9.7-2.7.4-1.9.5-3.6.4-5.1-.1-2.1-.8-4-2.1-5.8-1.3-1.8-2.1-3.6-2.5-5.3.2-.8.6-1.5 1.3-2.2.7-.6 1.5-1.3 2.3-1.9.9-.6 1.7-1.3 2.6-1.9.9-.7 1.6-1.4 2.1-2.3.2-2.4.5-4.7 1-7 .2-.9.3-1.4.4-2.3.7-3 1.4-5.9 2.2-8.8.8-2.9 1.5-5.8 2.2-8.7.1-.5.1-.7.2-1.2.4-2.3.7-4.7.8-7.2.1-3.9-.5-7.7-1.8-11.3-1.4-3.6-2.1-7-2.1-10.1-.4-.7-.4-1.3-.3-2zM1014.7 282c.5.1.7.1 1.2.2.3-.3.5-.6.5-.8.1-.5-.2-.8-.9-1.1-.1.3-.2.6-.5.6-.1.1-.2.3-.3.7.1.2 0 .3 0 .4zm24.3-112.3c.2 0 .4.2.5.4.1.2.2.4.5.5.1-.6.2-.8.3-1.4-.1-.4-.2-.6-.5-.6-.1 0-.3 0-.6.1-.1.4-.2.6-.2 1zm-1.9 22.3c.2.4.4.7.8.9.3.2.7.4 1 .6.3.2.6.5.8.8-.1.6-.2.9-.3 1.6.4.1.5.1.9.2.9.2 1.6.2 2.1.1.5-.2 1-.6 1.4-1.2.4-.5.7-1.1 1-1.7.3-.6.8-1 1.5-1.2-1.4-.3-2.1-.4-3.5-.7-.5-.1-1-.2-1.6-.4-.6-.2-1.4-.5-2.5-.9-.2.4-.4.8-.7 1-.3.2-.6.5-.9.9zm-3.1 15.7c.3.4.6.7.8.7.1 0 .2 0 .2-.1.4.1.7 0 1-.2l.3-.3c0-.1 0-.2.1-.3-.1-.3-.4-.5-1-.7-.1.5-.3.7-.5.6-.4-.2-.7-.1-.9.3zm2.7 1.6c-.3.1-.5.1-.8 0-.2 0-.4.1-.5.4.3-.1.5-.1.8-.1.4 0 .5-.1.5-.3zm7.1-23c-.3.1-.5.1-.8 0-.4-.1-.6 0-.6.2.8.3 1.3.2 1.4-.2zm-.9 16.6c0-.2.1-.3.1-.5.1-.6-.1-1-.5-1.2-.2-.1-.5-.3-.9-.4-.4-.1-1.1-.2-1.3-.1-.1.1-.3.4-.3.7-.1.5.1.8.6 1 .9.2 1.4.3 2.3.5zm-1.8-3.2c.2.2.4.3.5.3.1 0 .3 0 .4-.1.3-.2.5-.4.5-.8 0-.2 0-.5-.2-.8-.1-.1-.2-.2-.3-.2-.1 0-.3 0-.6.1-.1.5-.2.9-.3 1.5zm2.2-2.5c.5.1.8.2 1.3.3.1-.4.1-.6.2-1-.5-.1-.8-.2-1.3-.3-.1.4-.1.6-.2 1zm5.4-14.4c-.2 0-.5-.1-.8-.1-.3 0-.4.1-.5.4.3-.1.5-.1.8 0 .3 0 .4-.1.5-.3zm-2.1 4.6c.7.1 1.1.2 1.8.4.1-.6.2-.9.3-1.6-.7-.1-1.1-.2-1.8-.4-.1.7-.2 1-.3 1.6zm-.2 10.5c-.1 0-.2 0-.4-.1-.1 0-.2-.1-.3-.2 0-.1 0-.2-.1-.2s-.4.1-.4.3c-.1.2.1.6.4.6.3 0 .6-.1.8-.4zm9.9-31.1c-.3.1-.5.1-.8 0-.4-.1-.6 0-.6.2.9.3 1.3.2 1.4-.2zm-4.8 21.1c.4.1.7.1 1.1.2.1-.4.1-.6.2-1-.4-.1-.7-.1-1.1-.2-.1.4-.1.6-.2 1zm-2.2 37.8c-.3.1-.5.1-.8 0-.4-.1-.6.1-.6.4.3-.1.6-.1.9 0 .3.1.4-.1.5-.4zm7.7-34.9c.4.1.7.1 1.1.2.1-.5.1-.7.2-1.2-.4-.1-.7-.1-1.1-.2 0 .5-.1.7-.2 1.2zm-8.9 49.2c-.3.1-.5.1-.8 0-.2 0-.4 0-.4.3.3-.1.5-.1.8 0 .2.1.3 0 .4-.3zm5.5-29.7c.4.1.7.1 1.1.2.1-.4.1-.6.2-1-.4-.1-.7-.1-1.1-.2-.1.4-.1.6-.2 1zm8.8-22.5c.5.1.8.2 1.3.3.1-.4.1-.6.2-1-.5-.1-.8-.2-1.3-.3-.1.3-.1.5-.2 1zm1.7-1.9c.7.2 1.1.2 1.8.4.3-1.5 0-2.3-.8-2.5 0 .2-.1.3-.1.5s-.1.4-.3.5c-.3.2-.5.4-.5.6 0 .2 0 .3-.1.5zm1.6-4.9c.2.2.4.3.5.3.2.1.5 0 .6-.2.2-.2.3-.5.4-.8v-.7c-.1-.1-.3-.2-.5-.3-.1 0-.3 0-.6.1-.2.6-.2.9-.4 1.6zm4.8-8.3c0-.2 0-.4-.3-.6h-.2c-.2-.1-.5.1-.7.4 0 .2 0 .4.3.4s.5-.1.9-.2zm4.2 4.2c-.3.1-.5.1-.8 0-.2-.1-.5.1-.7.4.3-.1.6-.1 1 0 .2.1.4 0 .5-.4zm3.5-2.1c-.3.1-.5.1-.8 0-.2-.1-.4.1-.5.4.3-.1.5-.1.8-.1.3.1.5-.1.5-.3zm-.3 4.1c.5.1.8.2 1.3.3.1-.5.2-.7.3-1.2-.5-.1-.8-.2-1.3-.3-.1.5-.2.7-.3 1.2zm-5.4 106.4c0-.1 0-.2.1-.3.2-.9-.2-1.5-1.3-1.7-.2 0-.3-.1-.5-.1 0 .1 0 .2-.1.3-.2.9.2 1.5 1.3 1.7.2.1.3.1.5.1zm.8 4.7c0-.1 0-.2.1-.3.1-.5 0-.8-.3-1-.5-.3-1.1-.5-1.7-.7v.2c-.2.9.2 1.5 1.3 1.7.2 0 .4.1.6.1zm-.4 8.1c.1-.2-.1-.4-.4-.6h-.2c-.2-.1-.4.1-.6.4.1.3.2.4.3.4.1 0 .5-.1.9-.2zm3.8-14.8c-.4-.1-.6-.2-.6-.5 0-.1 0-.2-.1-.2s-.3.1-.5.4c-.1.2.1.4.5.5 0 .1 0 .2.1.2.2.1.4 0 .6-.4zm8.2 18.7c.3.3.4.7.3 1.2-.1.5 0 .7.4.8.2.1.7.1.7 0 .4-.4-.1-1.7-1-1.9-.2 0-.3 0-.4-.1.2-.7.1-1.1-.3-1.3-.1 0-.2 0-.4-.1s-.5 0-.9 0c-.5 0-.9 0-1.1-.1-.1.1-.1.1-.2.1-.2-.1-.3-.4-.1-1.1.5-.4.8-1.1 1-2.1.3.2.6.3.8.4.2.1.4 0 .4-.3.2-.8.3-1.2.5-2.1-.9.2-1.6.2-2.1.1-.3-.1-.5-.3-.6-.7-.3-.4-.3-1-.2-1.7 0-.1.2-.3.3-.5.3-.6.5-1.6.9-2.5 0-.2.1-.3.1-.5.2-.7 0-1.2-.6-1.6.1.3.1.5 0 .7-.1.6-.4.8-.9.7-.1-.1-.1-.1-.1-.2-.3-.1-.4-.1-.7-.2-.4-.1-.7 0-1 .1-.3.1-.4.2-.5.4 0 .1.1.3.2.6 0 .2-.1.3-.1.5-.1.2-.3.4-.6.4-.1.1-.3.1-.6.1-.1 0-.3-.2-.5-.3-.3-.2-.6-.3-.7-.3-.2-.1-.4 0-.6.1l-.3.3c0 .1.1.3.2.6.1.1.1.3.1.6 0 .1-.2.2-.4.3l-.3-.3c-.4-.1-.6-.2-.8-.4h-.2c-.2-.1-.4 0-.4.1-.1 0-.2 0-.2.1s.1.3.2.6c.4 0 .7 0 1.1.1.5.1.8.3.8.5.1.3 0 .8-.1 1.2 0 .1 0 .2-.1.3-.2.2-.3.4-.3.5-.1.3-.1.7-.1 1.1 0 .5.5.8 1.6 1.1-.3.3-.7.4-1.2.3-.3-.1-.4-.1-.7-.2-.4-.1-.6.1-.6.4 0 .2-.1.3-.1.5.7.6 1.3 1.3 1.8 2s1.2 1.3 2.1 1.7c.2-.8.6-1.2 1.2-1.2s1.1-.1 1.6-.4c.2.4.3.8.4 1.3.1.5.4.9.8 1.2.3-.2.5-.5.8-1.1.1-.3.3-.5.6-.4.7.4.8.5 1.1.6zm10.2-69.4c.1-.2 0-.4-.2-.6h-.2c-.2-.1-.5.1-.7.4.4.1.6.3.6.5 0 .1 0 .2.1.2.2-.2.3-.3.4-.5zm-12.2 64.8c-.2-.1-.3-.1-.3-.3 0-.1.2-.2.4-.3 0 .3 0 .4-.1.6zm2.7-3.4c.7-1.5 1.9-2.4 3.5-2.7 1.6-.3 3-1 4.1-2.1-.5-.1-.7-.3-.6-.7 0-.1.1-.2.2-.1.1-.6.2-.8.3-1.4-.8-.4-1.5-.8-2.2-1.1-.7-.3-1.4-.7-2.2-1.1.4.6.5 1.1.4 1.7-.1.3-.1.4-.2.7-.5.7-1.2 1.4-1.9 2.1-.7.7-1.3 1.4-1.7 2.2-.2.2-.3.4-.3.6-.1.6.1 1.2.6 1.9zm1.8 5.1c.3.2.6.4 1 .6.1.1.3.2.5.3.3.1.4.1.7.2.2-.7.2-1 .4-1.7-.1 0-.2 0-.4-.1-1.2-.3-1.9 0-2.2.7zm12.2 6.3c-.3.1-.5.1-.7 0-.2-.1-.4 0-.6.2.3-.1.6-.1.9 0 .2.1.3 0 .4-.2z"/></svg>