<svg xmlns="http://www.w3.org/2000/svg" width="70" height="70" viewBox="0 0 500 500" fill="#fff"><path d="M0 250v250h500V0H0v250zm453-69.8v132.3L321.5 181C249.2 108.7 190 49.2 190 48.8c0-.5 59.2-.8 131.5-.8H453v132.2zM240 396c.5 26.9.7 29.9 2.5 33.5 2.6 5.2 7.4 7.8 13.4 7.2 5.4-.6 9-3.2 11.6-8.3 1.8-3.6 2-6.3 2.3-33.2l.4-29.2H291v31.9c0 29.1-.2 32.5-2 38.4-4.4 14.1-18.2 21.7-37.5 20.4-10.8-.7-18.6-3.7-24.5-9.6-7.9-7.9-8.3-9.8-8.8-46.4-.2-17.5-.1-32.4.2-33.3.5-1.2 2.4-1.4 10.8-1.2l10.3.3.5 29.5zM94.5 368.4c8.6 2.6 14.5 11.2 14.5 21-.1 4.7-3.3 11-7.4 14.2-2 1.6-3.6 3.2-3.6 3.5 0 .4 1.3.9 2.9 1.2 4.8 1 9.9 6.2 11.6 12 4.2 14.3-1 25.6-14.1 30.8-5.4 2-8 2.3-28.1 2.7l-22.3.4V367h20.8c15.3 0 22.2.4 25.7 1.4zm86.8 8.3c1.9 5.4 8.8 24.2 15.2 41.8 6.5 17.6 12 32.8 12.3 33.7.4 1.6-.6 1.8-11.6 1.8h-12.1l-2.8-7.5-2.8-7.5h-29l-2.4 6.2c-1.3 3.5-2.8 6.9-3.4 7.5-1.1 1.5-23.7 1.9-23.7.4 0-.5 3.3-9.8 7.4-20.7 19.9-53.6 23.8-63.9 24.2-64.6.3-.5 6.1-.8 12.8-.8h12.4l3.5 9.7zm185.7-.2v9.4l-15.7.3-15.8.3-.3 6.7-.3 6.7 15.3.3 15.3.3v19l-15.2.3-15.3.3V434h32v20l-27.2-.2-27.3-.3-.3-42c-.1-23.1 0-42.6.3-43.2.3-1 6.8-1.3 27.5-1.3h27v9.5zm66.4-8.1c11.3 3.4 17.5 10.9 18.4 22.1.9 11.9-3.7 21.4-12.5 25.5-2.6 1.3-4.9 2.4-5.1 2.6-.2.1 5.5 7.9 12.7 17.2 7.2 9.4 13.1 17.3 13.1 17.6 0 .3-6.3.6-13.9.6h-13.9l-10.3-16.3-10.4-16.2-.5 16-.5 16h-22l-.3-43.3-.2-43.2h20.3c14.8 0 21.7.4 25.1 1.4z"/><path d="M71 391.4v8.3c-.1 1.3 7.3 1.5 11.3.3 3.9-1.1 5.7-3.8 5.7-8.5 0-4.3-2.9-6.3-10.2-7l-6.8-.7v7.6zm0 26.8c-.1.2-.2 4.2-.3 9.1l-.2 8.7h7c8.8 0 11.7-1.4 12.9-6.2 1.2-5-.6-9.3-4.6-10.7-2.6-.9-14.7-1.6-14.8-.9zm93.6-25.2c-.2.8-2.3 7.1-4.5 14-2.3 6.9-4.1 12.8-4.1 13.3 0 .4 4.1.7 9.1.7h9.1l-.7-2.8c-1.5-6.8-8.4-26.5-8.9-25.2zm246.4 2c0 12.3-.5 11.7 7.9 9.9 6.2-1.3 9.1-4.5 9.1-9.9 0-5-3.1-8.8-7.8-9.5-2-.3-4.9-.8-6.4-1l-2.8-.5v11z"/></svg>