<svg width="90" height="18" viewBox="0 0 90 18" fill="none" xmlns="http://www.w3.org/2000/svg">
<g clip-path="url(#clip0_491_370)">
<path d="M81.4302 17.4012L70.9943 8.47512V17.0806H66.981V0.00707756H67.5241L77.8176 8.84156V0.304517H81.831V17.4012H81.4302ZM3.77709 7.20013V3.62854H6.30532C6.78979 3.63978 7.25032 3.83509 7.58764 4.17239C7.92496 4.50969 8.11206 4.96196 8.10863 5.43173C8.1107 5.89784 7.92204 6.34573 7.58401 6.67722C7.24597 7.00872 6.78614 7.19676 6.30532 7.20013H3.77709ZM3.77709 13.756V10.207H7.49975C7.97951 10.2154 8.43668 10.4061 8.7729 10.7379C9.10911 11.0698 9.29749 11.5163 9.29749 11.9815C9.29749 12.4466 9.10911 12.8932 8.7729 13.2251C8.43668 13.5569 7.97951 13.7476 7.49975 13.756H3.77709ZM0 17.0922H7.8652C8.54795 17.1018 9.22589 16.98 9.85981 16.734C10.4937 16.4881 11.0711 16.1227 11.5584 15.659C12.0457 15.1954 12.4334 14.6427 12.6991 14.0329C12.9647 13.4231 13.1029 12.7684 13.1059 12.1064C13.1199 11.2969 12.8987 10.4998 12.4678 9.80625C12.0368 9.11269 11.4133 8.55056 10.6686 8.18406C11.0618 7.80807 11.3724 7.35884 11.5818 6.86341C11.7912 6.36799 11.895 5.83661 11.8869 5.30127C11.8825 3.98044 11.3393 2.71493 10.3758 1.78096C9.41234 0.846989 8.10687 0.320394 6.74433 0.316113H0V17.0922ZM64.0939 8.70414C64.0939 10.4243 63.5677 12.1057 62.5819 13.536C61.5961 14.9662 60.1949 16.0809 58.5555 16.7392C56.9161 17.3974 55.1122 17.5697 53.3719 17.2341C51.6315 16.8985 50.0329 16.0702 48.7782 14.8539C47.5235 13.6376 46.669 12.0879 46.3229 10.4009C45.9767 8.71379 46.1544 6.9651 46.8334 5.37592C47.5124 3.78674 48.6624 2.42844 50.1378 1.4728C51.6132 0.517152 53.3477 0.00707756 55.1222 0.00707756C57.5016 0.00707756 59.7836 0.923373 61.4661 2.55439C63.1487 4.18541 64.0939 6.39754 64.0939 8.70414ZM55.1222 3.78334C54.1182 3.78334 53.1368 4.07194 52.302 4.61265C51.4672 5.15335 50.8166 5.92188 50.4324 6.82103C50.0482 7.72019 49.9477 8.7096 50.1435 9.66414C50.3394 10.6187 50.8228 11.4955 51.5328 12.1837C52.2427 12.8719 53.1472 13.3405 54.1319 13.5304C55.1165 13.7203 56.1372 13.6228 57.0648 13.2504C57.9923 12.8779 58.7851 12.2472 59.3429 11.438C59.9007 10.6288 60.1984 9.67739 60.1984 8.70414C60.1984 7.39907 59.6636 6.14744 58.7116 5.22461C57.7596 4.30178 56.4685 3.78334 55.1222 3.78334ZM85.9866 17.0922V0.316113H90V17.0922H85.9866ZM24.6303 17.0922V0.316113H28.6437V17.0922H24.6303ZM16.4619 17.0922V0.316113H20.4752V17.0922H16.4619ZM42.2765 0.998543C41.1512 0.342621 39.8614 -0.000395726 38.5484 0.00707756C34.8593 0.00707756 32.6618 2.15815 32.6618 4.70001C32.6618 7.31493 34.5483 8.6566 36.3354 9.69213C38.0837 10.7056 39.7925 11.2477 39.7925 12.5222C39.7925 13.4881 38.8493 14.1236 37.278 14.1236C34.431 14.1236 32.3651 11.7446 32.3651 11.7446V15.6392C33.8283 16.7679 35.6397 17.3883 37.5095 17.4012C40.8679 17.4012 43.5463 15.5615 43.5463 12.4352C43.5463 9.93971 41.8357 8.62181 39.7626 7.4164C37.7595 6.25099 36.4072 5.88861 36.4072 4.71451C36.4072 3.75783 37.424 3.29399 38.7799 3.29399C40.0544 3.26737 41.296 3.68758 42.2765 4.47737V0.998543Z" fill="#1C1E26"/>
</g>
<defs>
<clipPath id="clip0_491_370">
<rect width="90" height="17.3943" fill="white" transform="translate(0 0.00695801)"/>
</clipPath>
</defs>
</svg>
