<svg xmlns="http://www.w3.org/2000/svg" width="200" height="36" viewBox="0 0 708.7 127.6"><path d="M.2 18v109.9h708.7V.4h-691z"/><path fill="#FFF" d="M265.6 3.7h440v120.2h-440z"/><path fill="#1D1D1B" d="M706.1 124.4h-441V3.2h441v121.2zm-440-1h439V4.2h-439v119.2z"/><path fill="#FFF" d="M135.4 111V16.6h14.1V111h-14.1zm31.7-84.3V16.6h94.2v10.1H221V111h-13.9V26.7h-40z"/><path fill="#1D1D1B" d="M269.1 16.6h14.4l28.8 81.7 28.9-81.7H361l29.1 81.7 28.8-81.7h14.5L399.1 111h-17.8l-30.1-83.1-29.7 83.1H303l-33.9-94.4zM443.4 111V16.6h14.1V111h-14.1zm39.7-30.8h14.1V82c0 5.6.6 9.8 1.7 12.4 1.1 2.7 3 4.5 5.6 5.6 2 .8 5.1 1.4 9.4 1.8 4.2.4 12.9.5 26.1.5 7.2 0 12.7-.3 16.6-1 3.9-.7 6.9-1.8 8.8-3.4 1.1-.8 1.9-2.3 2.4-4.3s.8-4.8.8-8.2c0-7-.9-11.4-2.8-13.2-1.9-1.8-5.6-2.9-11.2-3.2l-38.7-2.3c-11.9-.7-19.9-2.9-24.3-6.6-4.5-3.7-6.7-9.9-6.7-18.6 0-5.5.7-9.9 2.2-13.3 1.5-3.3 3.8-6.1 7.1-8.3 2.5-1.7 6.1-2.9 10.7-3.6 4.6-.7 12.6-1 24.2-1h4.5c12.9 0 22 .5 27.3 1.4s9.7 2.5 13.2 4.8c2.4 1.5 4.2 3.7 5.4 6.5s1.7 6.3 1.7 10.5v2.8c0 .7-.1 1.2-.1 1.7H567v-2.3c0-3.5-.3-6.1-.8-7.9-.5-1.8-1.4-3.2-2.6-4.1-1.7-1.3-4.9-2.2-9.3-2.8-4.5-.5-13-.8-25.4-.8-12.9 0-21.1 1.1-24.4 3.3s-5 6.6-5 13.2c0 5.4 1.1 9.1 3.2 11.2 2.2 2 6.3 3.3 12.5 3.6l39.5 2.5c10.4.7 17.7 2.8 21.9 6.4s6.3 9.7 6.3 18.1c0 6.2-.5 10.8-1.6 13.9s-2.8 5.7-5.3 7.8c-3 2.6-7.1 4.4-12.3 5.4s-14.6 1.6-28.2 1.6H529c-11.6 0-19.8-.4-24.7-1.3-4.8-.9-8.8-2.4-12.1-4.6-3.2-2-5.5-4.8-7-8.3S483 90 483 84.7v-4.5h.1z"/><path fill="#FFF" d="M48.6 67.1h18.6c6.7 0 12.2.3 16.3.8 4.2.5 7 1.3 8.6 2.2 1.6 1 2.8 2.6 3.6 4.8.8 2.2 1.2 5 1.2 8.4 0 4-.4 7.3-1.1 9.8s-1.8 4.2-3.2 5.2c-1.4 1-3.5 1.7-6.3 2.1-2.8.5-6.3.7-10.4.7H16.3v10h54.2c8.2 0 15.1-.4 20.6-1.3s9.6-2.2 12.3-4c2.7-1.8 4.8-4.4 6.2-7.9 1.4-3.5 2-7.8 2-13 0-3.8-.3-7.1-1-9.8-.7-2.7-1.6-4.9-2.9-6.5s-3.1-3-5.4-4.1-5.1-2-8.5-2.6c1.9-.4 4.5-.6 7.2-1.4 2.7-.8 5.3-2.1 7.2-4.7 1.1-1.5 1.9-3.5 2.5-6.1.5-2.6.8-5.7.8-9.4 0-4.8-.6-8.7-1.7-11.9s-2.8-5.5-5-7.1c-2.2-1.5-5.6-2.7-10.1-3.5s-10.1-1.2-16.9-1.2H16.3v10.2h56c5.6 0 10.1.2 13.5.6 3.5.4 5.9 1 7.2 1.9 1.4.8 2.4 2.3 3 4.3.7 2 1 4.7 1 7.9 0 3.4-.3 6.2-1 8.4-.6 2.2-1.6 3.8-2.9 4.8s-3.1 1.7-5.6 2.2-5.6.7-9.3.7h-62v9.6l32.4-.1z"/><path fill="#1D1D1B" d="M660 67.1h-18.6c-6.7 0-12.2.3-16.3.7-4.2.5-7 1.3-8.6 2.3s-2.8 2.6-3.6 4.8c-.8 2.2-1.2 5-1.2 8.4 0 4 .4 7.3 1.1 9.8.7 2.5 1.8 4.2 3.2 5.2s3.5 1.7 6.3 2.1c2.8.5 6.3.7 10.4.7h59.7v10h-54.2c-8.2 0-15.1-.4-20.6-1.3s-9.6-2.2-12.3-4-4.8-4.4-6.1-7.9c-1.4-3.5-2.1-7.8-2.1-13 0-3.8.3-7.1 1-9.8.7-2.7 1.6-4.9 3-6.5 1.3-1.6 3.1-3 5.4-4.1 2.3-1.1 5.1-2 8.5-2.6-1.9-.4-4.5-.6-7.2-1.4-2.7-.8-5.3-2.1-7.2-4.7-1.1-1.5-1.9-3.5-2.5-6.1-.5-2.6-.8-5.7-.8-9.4 0-4.8.6-8.7 1.7-11.9 1.1-3.2 2.8-5.5 5-7.1 2.2-1.5 5.6-2.7 10.1-3.5s10.1-1.2 16.9-1.2h61.6v10.2h-56c-5.6 0-10.1.2-13.5.6-3.5.4-5.9 1-7.2 1.9-1.4.8-2.4 2.3-3 4.3-.7 2-1 4.7-1 7.9 0 3.4.3 6.2 1 8.4.6 2.2 1.6 3.8 2.9 4.8 1.3 1 3.1 1.7 5.6 2.2s5.6.7 9.3.7h62v9.6l-32.7-.1z"/></svg>