<svg width="70" height="43" viewBox="0 0 70 43" fill="none" xmlns="http://www.w3.org/2000/svg">
<g clip-path="url(#clip0_491_348)">
<path d="M11.0177 14.2982C11.0177 13.2694 10.4452 12.4464 8.72812 12.4464H6.20387V16.382H8.33757C10.3671 16.382 11.0177 15.6358 11.0177 14.53V14.2982ZM10.9137 6.916C10.9137 5.91298 10.2891 5.26982 8.25965 5.26982C8.05122 5.26982 6.386 5.29557 6.20387 5.29557V8.94803H8.72812C10.4452 8.94803 10.9137 8.22784 10.9137 7.32737V6.916ZM7.6351 20.6261C6.30808 20.6261 3.86222 20.5228 2.63941 20.3175C1.41661 20.1114 1 19.7513 1 18.3625V3.26354C1 1.87444 1.41661 1.51434 2.61336 1.3343C3.70614 1.15401 6.25621 1.02571 7.55718 1.02571C12.6829 1.02571 16.0133 2.20878 16.0133 6.53039V6.96751C16.0133 8.58794 15.1806 9.9768 14.0099 10.62C15.1806 11.2886 16.1175 12.7035 16.1175 14.3497V14.684C16.1175 19.6488 11.798 20.6261 7.6351 20.6261ZM22.6597 20.3945H18.7307C18.4444 20.3945 18.1583 20.1114 18.1583 19.8284V1.58169C18.1583 1.29862 18.4444 1.06683 18.7307 1.06683H22.6597C22.9458 1.06683 23.18 1.29862 23.18 1.58169V19.8284C23.18 20.1114 22.9458 20.3945 22.6597 20.3945ZM51.2836 20.5994C50.3899 20.5994 49.2541 20.6263 47.7193 20.6263C43.7385 20.6263 41.5004 18.1054 41.5004 13.8868V11.9576C41.5004 7.76496 43.7383 5.19279 47.7193 5.19279C49.2541 5.19279 50.4938 5.19846 51.2836 5.19846C51.6218 5.27549 51.8044 5.40426 51.8044 5.7386V8.8391C51.8044 9.12217 51.5701 9.32821 51.3099 9.32821C51.2838 9.32821 49.5407 9.35963 48.2655 9.35963C47.1469 9.35963 46.4965 10.0541 46.4965 11.9576V13.8868C46.4965 15.7903 47.1471 16.4592 48.2655 16.4592C49.5407 16.4592 51.2704 16.4462 51.2962 16.4462C51.5568 16.4462 51.791 16.6523 51.791 16.9353L51.8046 20.0595C51.8044 20.3936 51.7054 20.5994 51.2836 20.5994ZM68.5762 20.3945H63.7621C63.4765 20.3945 63.1902 20.24 62.9559 19.8284L59.6513 13.9638V19.8284C59.6513 20.1114 59.417 20.3945 59.1307 20.3945H55.2281C54.9419 20.3945 54.6554 20.1114 54.6554 19.8284V1.50229C54.6554 1.21923 54.9417 0.987671 55.2281 0.987671H59.1307C59.417 0.987671 59.6513 1.21923 59.6513 1.50229V11.7775L63.2162 5.88723C63.45 5.47562 63.7103 5.42411 63.9705 5.42411H68.4722C68.7057 5.42411 68.8362 5.55289 68.8362 5.7327C68.8362 5.80996 68.8104 5.88723 68.758 5.96425L64.2569 12.6262L68.8623 19.8284C68.9141 19.9054 68.9141 19.9831 68.9141 20.0344C68.9144 20.2142 68.7839 20.3945 68.5762 20.3945ZM11.0177 36.384C11.0177 35.355 10.4452 34.532 8.72812 34.532H6.20387V38.4675H8.33757C10.3671 38.4675 11.0177 37.7211 11.0177 36.6153V36.384ZM10.9137 29.0018C10.9137 27.9988 10.2891 27.3554 8.25965 27.3554C8.05122 27.3554 6.386 27.3811 6.20387 27.3811V31.0336H8.72812C10.4452 31.0336 10.9137 30.3134 10.9137 29.4132V29.0018ZM7.6351 42.7112C6.30808 42.7112 3.86222 42.6084 2.63941 42.403C1.41661 42.197 1 41.8369 1 40.448V25.3493C1 23.96 1.41661 23.5999 2.61336 23.4201C3.70614 23.2396 6.25621 23.1113 7.55718 23.1113C12.6829 23.1113 16.0133 24.2951 16.0133 28.6162V29.0533C16.0133 30.6737 15.1806 32.0626 14.0099 32.7058C15.1806 33.3745 16.1175 34.7891 16.1175 36.4353V36.7696C16.1175 41.7337 11.798 42.7112 7.6351 42.7112ZM25.4817 31.3398C24.8311 31.3398 23.7902 31.3656 23.322 31.4428V41.8861C23.322 42.1689 23.0877 42.452 22.8014 42.452H18.8987C18.6124 42.452 18.3263 42.1689 18.3263 41.8861V28.0834C18.3263 27.672 18.54 27.2349 19.2628 27.2349C20.9464 27.2349 22.7756 27.2502 25.4817 27.2502C25.7937 27.2502 26.106 27.4301 26.106 27.7644V30.8252C26.1058 31.1085 25.872 31.3398 25.4817 31.3398ZM35.7836 42.683H35.6277C31.5164 42.683 28.9147 40.3427 28.9147 36.3811V28.0475C28.9147 27.7644 29.1487 27.4813 29.4611 27.4813H33.3638C33.6762 27.4813 33.9104 27.7644 33.9104 28.0475V36.3811C33.9104 37.6162 34.4049 38.5677 35.628 38.5677H35.7838C37.0066 38.5677 37.5014 37.6162 37.5014 36.3811V28.0475C37.5014 27.7644 37.7356 27.4813 38.0475 27.4813H41.9504C42.2628 27.4813 42.4968 27.7644 42.4968 28.0475V36.3811C42.4966 40.3427 39.8947 42.683 35.7836 42.683ZM50.491 42.452H46.6144C46.328 42.452 46.0417 42.1689 46.0417 41.8858V30.6444C46.0417 30.3616 46.3278 30.1043 46.6144 30.1043H50.491C50.7773 30.1043 51.0637 30.3616 51.0637 30.6444V41.8858C51.0634 42.1689 50.7773 42.452 50.491 42.452ZM67.9342 42.452H64.031C63.7189 42.452 63.4851 42.1689 63.4851 41.8858V32.9347C63.4851 31.9572 63.4065 31.2628 62.1841 31.2628H61.1951C59.972 31.2628 59.8944 31.9572 59.8944 32.9347V41.8858C59.8944 42.1689 59.6601 42.452 59.3477 42.452H55.4453C55.1329 42.452 54.8987 42.1689 54.8987 41.8858V32.9347C54.8987 28.9737 55.806 27.276 59.9173 27.276H63.6072C67.7181 27.276 68.4813 28.9737 68.4813 32.9347V41.8858C68.4808 42.1689 68.2463 42.452 67.9342 42.452Z" fill="#1C1E26"/>
<path d="M49.9494 27.877H46.624C46.338 27.877 46.0267 27.6474 46.0267 27.3663V23.4763C46.0267 23.1956 46.338 22.9656 46.624 22.9656H50.5427C50.8287 22.9656 51.1142 23.1956 51.1142 23.4763V27.3663C51.1142 27.6474 50.8289 27.877 50.5427 27.877H49.9494Z" fill="#1C1E26"/>
<path d="M33.8893 17.2678C33.5986 17.3189 33.1491 17.3443 32.7261 17.3443C31.5365 17.3443 30.8227 17.1403 30.8227 16.0938V15.8643C30.8227 14.7924 31.4307 14.3585 32.7261 14.3585H33.8893V17.2678ZM38.8063 19.4371V10.9896C38.8063 6.67657 35.9512 5.45145 32.118 5.45145C30.4262 5.45145 29.404 5.4632 27.8138 5.4632C27.186 5.4632 27.0127 5.53856 27.0423 6.16564V8.94152C27.0423 9.27338 27.1535 9.51006 27.5976 9.51006C28.3639 9.51006 30.3997 9.50937 32.118 9.50937C33.0168 9.50937 33.7571 9.73891 33.7571 10.9896V11.704H32.7261C28.5229 11.704 25.985 12.8271 25.985 15.8894V16.0936C25.985 19.2838 28.2056 20.7638 32.7261 20.7638C34.9202 20.7638 36.8865 20.683 37.8607 20.683C38.6619 20.683 38.8063 20.3486 38.8063 19.4371Z" fill="#1C1E26"/>
</g>
<defs>
<clipPath id="clip0_491_348">
<rect width="69.9141" height="41.7235" fill="white" transform="translate(0 0.987671)"/>
</clipPath>
</defs>
</svg>
