<svg width="165" height="56" viewBox="0 0 165 56" fill="none" xmlns="http://www.w3.org/2000/svg"><path d="m56.82 55.184-7.757-18.047h-.143v17.926c0 .796-.089.884-.904.884h-2.972c-.623 0-.794-.175-.794-.78v-29.24c0-.588.193-.775.8-.78h3.02a.879.879 0 0 1 .943.626c2.518 6.067 5.043 12.13 7.576 18.19.077.18.181.345.33.62.144-.27.248-.428.326-.604l7.508-17.964c.353-.852.375-.869 1.324-.869h2.833c.552 0 .695.154.695.71v29.377c0 .583-.132.709-.733.715H65.85c-.772 0-.916-.143-.916-.902V37.154l-.137-.05c-1.412 2.951-2.608 5.99-3.904 8.99-1.295 3-2.58 6.045-3.859 9.068l-.215.022ZM119.184 40.566V26.15c0-.785.143-.928.943-.928 3.886 0 7.779-.066 11.665 0 4.813.104 8.667 3.264 8.932 8.374.132 2.484-.386 4.77-2.051 6.71a8.272 8.272 0 0 1-2.757 2.05c-.617.297-.661.445-.347 1.05 1.985 3.828 3.971 7.656 5.96 11.485.463.895.441.945-.579.945h-3.451a1.103 1.103 0 0 1-1.103-.665c-1.913-3.687-3.859-7.37-5.756-11.056a1.278 1.278 0 0 0-1.268-.78h-4.443c-1.026 0-1.103.087-1.103 1.098v10.568c0 .785-.066.851-.871.851h-3.021c-.612 0-.778-.17-.778-.79l.028-14.498Zm9.256-10.661h-3.776c-.629 0-.811.175-.811.813v7.144c0 .648.188.83.855.83h6.698a5.53 5.53 0 0 0 2.454-.55 3.51 3.51 0 0 0 2.095-2.66 7.966 7.966 0 0 0 .105-1.73 4.063 4.063 0 0 0-1.293-2.789 4.087 4.087 0 0 0-2.881-1.091l-3.446.033ZM96.203 40.61V26.277c0-.968.066-1.028 1.053-1.028h18.089c.816 0 .91.088.91.88v2.917c0 .764-.116.874-.872.874h-13.606c-.822 0-.888.06-.888.885v6.616c0 .747.133.88.877.88h8.738c.695 0 .811.12.811.824v2.967c0 .698-.127.83-.816.83h-8.739c-.755 0-.871.12-.871.88v6.654c0 .753.111.857.882.857h13.607c.794 0 .871.077.877.852v3.017c0 .665-.116.78-.761.78H96.981c-.651 0-.772-.137-.772-.83l-.006-14.524ZM144.469 40.566V26.063c0-.741.099-.84.843-.84h18.332c.738 0 .854.115.854.835v3.017c0 .692-.127.819-.821.819H150.07c-.876 0-.932.055-.932.934v6.638c0 .682.144.825.833.83h8.788c.672 0 .827.154.827.83v3.011c0 .61-.177.78-.789.78h-8.788c-.749 0-.871.121-.871.874v6.688c0 .698.122.813.833.813h13.601c.865 0 .926.06.926.945v2.874c0 .731-.099.83-.854.83h-18.282c-.822 0-.893-.071-.893-.879V40.566ZM72.633 40.516v-14.36c0-.89.121-1.01 1.003-1.01H84.69c1.88-.03 3.733.441 5.37 1.363a7.894 7.894 0 0 1 3.86 4.912 10.124 10.124 0 0 1-.249 6.397c-1.147 3.077-3.545 4.687-6.649 5.385-.694.134-1.4.197-2.106.187h-6.704c-.755 0-.92.16-.92.901v10.683c0 .858-.116.973-.987.973h-2.757c-.733 0-.893-.154-.893-.88l-.022-14.55Zm9.3-10.617v-.066h-3.699c-.7 0-.91.204-.91.89v7.062c0 .802.155.962.965.962h6.473a5.793 5.793 0 0 0 2.635-.55 3.521 3.521 0 0 0 2.112-2.704c.1-.587.13-1.185.088-1.78-.16-2.198-1.621-3.567-3.909-3.792-1.257-.12-2.492-.022-3.755-.022ZM38.889 55.92h-1.792a.917.917 0 0 1-.992-.687c-.37-1.033-.745-2.06-1.103-3.093a1.06 1.06 0 0 0-1.197-.836h-8.23a1.105 1.105 0 0 0-1.203.836c-.363 1.016-.727 2.038-1.102 3.055a.895.895 0 0 1-1.015.72h-3.638c-.596 0-.69-.137-.469-.715 1.547-4.103 3.102-8.206 4.664-12.309l6.522-17.162a.549.549 0 0 1 .055-.132l.331-.417c.14.13.257.282.348.45a5907.48 5907.48 0 0 1 6.411 16.975l4.687 12.453c.044.115.093.23.126.351.094.352 0 .55-.408.55-.689-.044-1.334-.039-1.995-.039Zm-9.125-8.638h3.115c.452 0 .552-.143.38-.55a3957.679 3957.679 0 0 0-3.197-8.484 1.893 1.893 0 0 0-.292-.39 1.78 1.78 0 0 0-.325.417c-1.059 2.766-2.11 5.532-3.154 8.298-.21.55-.105.72.496.72.993-.006 1.985-.011 2.977-.011ZM8.439 42.765v-12.09c0-.747-.138-.879-.877-.884h-6.19C.692 29.8.5 29.615.5 28.934v-2.918c0-.67.215-.885.866-.885h18.85c.616 0 .826.203.832.808v3.088c0 .55-.199.758-.778.758h-6.28c-.71 0-.86.149-.86.852V55.18c0 .38-.176.583-.55.583H9.033a.508.508 0 0 1-.55-.55v-.423l-.045-12.024ZM12.578 11.81V1.83c0-.594.05-.621.601-.621h7.509c1.2.01 2.383.289 3.462.813 1.919.929 2.663 2.583 2.845 4.561a7.054 7.054 0 0 1-.127 2.11 4.178 4.178 0 0 1-1.907 2.699c-.447.28-.441.55 0 .846a4.348 4.348 0 0 1 2.056 3.6c.11 1.835-.309 3.5-1.692 4.802a6.146 6.146 0 0 1-4.223 1.731c-2.625.039-5.255 0-7.884 0-.607 0-.64-.038-.64-.648v-9.914Zm6.224-1.65h2.26a2.646 2.646 0 0 0 1.805-.632 2.63 2.63 0 0 0 .903-1.68c.253-1.979-.601-3.237-2.57-3.424-1.604-.154-3.235-.033-4.85-.044-.381 0-.552.165-.552.55v4.753c0 .346.149.51.513.505.821-.027 1.654-.016 2.491-.016v-.011Zm.05 3.243H16.4c-.452 0-.623.154-.618.599v4.567c0 .445.171.62.618.615 1.571 0 3.148 0 4.719-.044a2.653 2.653 0 0 0 2.365-1.396 2.85 2.85 0 0 0-1.095-3.991 2.875 2.875 0 0 0-1.49-.339l-2.046-.011ZM79.78 1.043l11.252 13.189.15-.055V1.862c0-.66.032-.693.689-.693h1.846c.38 0 .552.16.524.55V21.88c0 .214 0 .429-.027.638l-.127.06L82.862 9.451l-.121.05v12.166c0 .725 0 .747-.734.753h-1.841c-.358 0-.551-.143-.513-.506V1.11l.127-.066ZM99.21 11.81V1.873c0-.654 0-.665.652-.665h12.514c.607 0 .662.044.662.626v1.979c0 .44-.149.599-.607.599h-9.256c-.722 0-.766.044-.766.78V9.38c0 .825.038.858.887.858h5.624c.667 0 .705.038.705.725V12.8c0 .61-.093.632-.634.632h-5.893c-.618 0-.678.055-.678.664v4.49c0 .55.071.621.628.621h9.207c.766 0 .783 0 .783.802v1.6c0 .807 0 .824-.805.824H99.911c-.678 0-.7 0-.7-.682v-9.94ZM145.492 22.614a17.486 17.486 0 0 1-6.98-1.28c-1.229-.5-1.306-.578-.65-1.65.259-.428.468-.89.689-1.335.171-.34.353-.434.744-.247a11.926 11.926 0 0 0 7.801.995c1.009-.21 1.864-.654 2.205-1.753a1.71 1.71 0 0 0-.645-2.083 23.62 23.62 0 0 0-2.894-1.445c-1.252-.55-2.575-.924-3.793-1.523-1.56-.769-2.861-1.9-3.396-3.615-.899-2.858 0-6.831 4.438-7.48a13.365 13.365 0 0 1 7.509.902c.39.168.76.38 1.102.632a.582.582 0 0 1 .144.55c-.331.708-.711 1.39-1.103 2.082a.422.422 0 0 1-.46.254.423.423 0 0 1-.174-.073 13.11 13.11 0 0 0-4.962-1.302 5.937 5.937 0 0 0-1.681.099c-1.836.395-2.52 2.011-1.593 3.638a2.91 2.91 0 0 0 1.378 1.308 38.27 38.27 0 0 0 2.944 1.099 16.445 16.445 0 0 1 4.3 1.994c3.413 2.396 2.63 7.837-1.036 9.386-1.23.527-2.549.815-3.887.847ZM58.989 22.646a19.015 19.015 0 0 1-6.4-1.275h-.045c-1.262-.66-1.19-.626-.617-1.648.25-.432.481-.878.694-1.336.182-.384.359-.472.8-.269a11.794 11.794 0 0 0 8.076.885 2.369 2.369 0 0 0 1.875-1.649 1.813 1.813 0 0 0-.574-2.066 10.815 10.815 0 0 0-3.153-1.555c-1.257-.478-2.53-.945-3.744-1.517a6.57 6.57 0 0 1-2.63-2.308 5.56 5.56 0 0 1 1.147-7.597 5.6 5.6 0 0 1 2.575-1.107 13.16 13.16 0 0 1 7.873 1.038c1.24.6 1.24.6.606 1.808-.22.412-.446.825-.656 1.248-.165.324-.37.428-.722.247a13.46 13.46 0 0 0-5.22-1.313 4.861 4.861 0 0 0-1.407.126c-1.858.412-2.536 2.033-1.571 3.676a3.145 3.145 0 0 0 1.477 1.341c.833.363 1.688.676 2.553.962a17.6 17.6 0 0 1 4.14 1.78 5.504 5.504 0 0 1 2.586 3.925 5.477 5.477 0 0 1-1.4 4.483 6.741 6.741 0 0 1-4.146 1.94c-.7.099-1.411.126-2.117.181ZM125.508 22.608a17.9 17.9 0 0 1-6.473-1.204c-1.257-.456-1.295-.605-.706-1.764.226-.434.464-.857.673-1.291.21-.434.342-.44.733-.248a12.016 12.016 0 0 0 7.807.99c.948-.198 1.792-.588 2.139-1.65a1.846 1.846 0 0 0-.628-2.263 9.828 9.828 0 0 0-3.088-1.478 16.728 16.728 0 0 1-4.35-1.885c-1.384-.945-2.453-2.116-2.795-3.808a6.52 6.52 0 0 1 .27-3.572 4.773 4.773 0 0 1 3.694-3.1 12.635 12.635 0 0 1 8.507.945c1.411.704 1.152.588.551 1.748-.193.38-.397.753-.59 1.126-.297.55-.38.55-.953.314a12.056 12.056 0 0 0-6.17-1.17c-1.284.131-2.122.851-2.271 2.021a2.596 2.596 0 0 0 1.18 2.567c.846.535 1.757.96 2.712 1.264a22.558 22.558 0 0 1 4.482 1.84c1.561.951 2.669 2.254 2.785 4.127.181 2.918-1.103 5.045-3.975 5.99a11.062 11.062 0 0 1-3.534.5ZM46.682 8.765c0 2.198.05 4.363 0 6.545a7.072 7.072 0 0 1-1.973 4.905 7.117 7.117 0 0 1-4.83 2.178c-1.996.11-3.86-.225-5.452-1.522a7.192 7.192 0 0 1-2.718-5.627c-.083-4.468 0-8.941 0-13.414 0-.55.093-.654.661-.66.568-.005 1.29 0 1.935 0s.618.055.618.621v12.64c0 .682.104 1.36.308 2.01.195.711.598 1.347 1.158 1.827.56.48 1.251.782 1.985.866 2.062.32 3.898-.494 4.642-2.236.28-.679.43-1.404.441-2.138.044-4.28.044-8.578.044-12.875 0-.682.033-.715.717-.715h1.797c.601 0 .695 0 .695.676l-.028 6.919ZM71.07 11.82V1.978c0-.637.078-.714.695-.714h2.034a.448.448 0 0 1 .552.506v19.816c0 .835-.033.873-.877.873H71.92c-.75 0-.821-.071-.821-.796l-.028-9.843Z" fill="currentColor"></path></svg>
