<svg xmlns="http://www.w3.org/2000/svg" width="200" height="90" viewBox="39 52.4 185 84"><style>.st970h{fill:#6b6764}.st86423sdf{fill:#87b52d}</style><path class="st970h" d="M91.3 87.3s-.8-14.4-9.6-18.4L53 55.9l-9.8 9.8 48.1 21.6z"/><path class="st86423sdf" d="M74.7 103.8s-14.4-.8-18.4-9.6L43.4 65.4l9.8-9.8 21.5 48.2z"/><path class="st970h" d="M93.3 110.5c-.2 1.6-.6 2.7-1.2 3.3-.6.6-1.7.9-3.2.9-1.4 0-2.3-.2-2.8-.6-.5-.4-.7-1.1-.7-2.2 0-.7.1-1.5.2-2.5l.5-4.3-6.3-.1-.6 4.9c-.1 1.1-.2 2.1-.2 3 0 2.6.6 4.4 1.9 5.5 1.3 1.1 3.4 1.6 6.3 1.6h2.3c3.2 0 5.5-.8 7.1-2.3 1.6-1.5 2.5-3.9 2.9-7.3l-6.2.1z"/><path class="st86423sdf" d="M87.2 100.8c.3-.4.7-.7 1.3-.8l.9-5.6c-3 .1-5.2.8-6.6 2.2-1.2 1.2-2.1 3.2-2.7 5.8h6.4c.2-.7.4-1.2.7-1.6z"/><path class="st970h" d="M98.4 95.8c-1.3-1-3.4-1.5-6.3-1.5l-.8 5.4c.9.1 1.6.3 2.1.6.5.4.8 1.1.8 2.1v1h6v-.1c.1-.6.1-1.1.2-1.4v-1.1c-.1-2.4-.7-4-2-5z"/><path class="st86423sdf" d="M124 104.5l-.7 5.3c-.5 3.7-1.5 6.4-3 7.9s-4 2.3-7.5 2.3h-3.3c-3 0-5.1-.5-6.3-1.6-1.3-1.1-1.9-2.9-1.9-5.5 0-.9.1-1.9.2-3l.7-5.3c.5-3.7 1.5-6.4 3-7.9s4-2.3 7.5-2.3h3.3c2.9 0 5.1.5 6.3 1.6 1.3 1.1 1.9 2.9 1.9 5.5 0 .9-.1 1.9-.2 3zm-6.3.6c.1-.7.1-1.3.2-1.6 0-.3.1-.6.1-.9 0-1.1-.3-1.9-.8-2.3-.5-.4-1.5-.6-2.9-.6h-1.2c-1.8 0-2.9.3-3.5 1-.6.7-1 2.1-1.3 4.4l-.5 4.3c-.1 1-.2 1.9-.2 2.5 0 1.1.3 1.8.8 2.2.5.4 1.5.6 2.9.6h1.2c1.8 0 3-.3 3.5-1 .6-.7 1-2.1 1.3-4.3l.4-4.3zm12.5 10.1l-.1.7c-.1 1.1-.7 1.8-1.6 2.1l-2.3.6c-.2.1-.4.1-.5.2-.1.1-.1.2-.2.4l-.1.4h4.1l-.2 1.6h-5.9l.2-1.8c.1-1.1.6-1.8 1.5-2l2.4-.7c.3-.1.5-.2.6-.3s.2-.3.2-.5v-.6c0-.2-.1-.4-.2-.5-.1-.1-.4-.2-.7-.2h-.3c-.4 0-.6.1-.8.2-.2.1-.3.4-.3.7v.3h-1.7l.1-.6c.1-.7.3-1.2.8-1.5.4-.4 1.1-.5 1.8-.5h1.2c.7 0 1.2.2 1.6.5.4.3.6.7.6 1.3v.2h-.2zm23.2-20.6l-.6 5h-12.1l-.6 5.2h11.8l-.5 4.2h-11.8l-.7 5.6h12.4l-.6 5h-18.4l3.1-25.1 18 .1zm21.3 5.4l-.2 1.4h-5.8v-.6c0-.6-.2-1.1-.6-1.3-.4-.3-1.1-.4-2-.4h-1.6c-1.2 0-2 .1-2.5.4-.5.3-.8.8-.9 1.6l-.1 1.1v.4c0 .6.2 1 .6 1.2.4.2 1.1.4 2.2.5l4.9.6c3.6.5 5.4 2.1 5.4 5v.9l-.3 2.5c-.3 2-1.1 3.6-2.5 4.9-1.4 1.2-3.1 1.8-5.2 1.8h-5.5c-2.5 0-4.4-.4-5.6-1.2-1.2-.8-1.8-2-1.8-3.8v-.6c0-.2 0-.4.1-.7l.2-1.4h5.8v.7c0 .8.2 1.3.7 1.7.5.3 1.4.5 2.6.5h1.7c1.2 0 2-.2 2.5-.5s.8-.9.9-1.8l.1-1.1v-.4c0-.6-.2-1.1-.6-1.3-.4-.2-1.1-.4-2.1-.5l-5.4-.6c-1.7-.2-2.9-.7-3.7-1.5s-1.2-2-1.2-3.6c0-.4 0-.9.1-1.4l.2-1.6c.3-2.3 1.2-4.1 2.7-5.2.7-.6 1.5-.9 2.4-1.1s2.1-.3 3.6-.3h4c2.2 0 3.9.4 5 1.2 1.2.8 1.7 2 1.7 3.6v.4c.2.3.2.4.2.5zm21.7-5.4l-.6 5h-6.4l-2.5 20h-6.1l2.4-20h-6.4l.6-5h19zm22.1 9.9l-.7 5.3c-.5 3.7-1.5 6.4-3 7.9s-4 2.3-7.5 2.3H204c-3 0-5.1-.5-6.3-1.6-1.3-1.1-1.9-2.9-1.9-5.5 0-.9.1-1.9.2-3l.7-5.3c.5-3.7 1.5-6.4 3-7.9s4-2.3 7.5-2.3h3.3c2.9 0 5.1.5 6.3 1.6 1.3 1.1 1.9 2.9 1.9 5.5 0 .9 0 1.9-.2 3zm-6.2.6c.1-.7.1-1.3.2-1.6 0-.3.1-.6.1-.9 0-1.1-.3-1.9-.8-2.3-.5-.4-1.5-.6-2.9-.6h-1.3c-1.8 0-2.9.3-3.5 1-.6.7-1 2.1-1.3 4.4l-.5 4.3c-.1 1-.2 1.9-.2 2.5 0 1.1.3 1.8.8 2.2.5.4 1.5.6 2.9.6h1.2c1.8 0 3-.3 3.5-1 .6-.7 1-2.1 1.3-4.3l.5-4.3z"/><path d="M76.3 103.7h13.3m.1-1.7l1.8-13.2" fill="none" stroke="#6b6764" stroke-width=".822" stroke-linecap="round" stroke-linejoin="round" stroke-dasharray="0,1.641"/><path d="M77.8 126.7H224v26.7H77.8z" fill="none"/><path class="st970h" d="M83.6 127.4v.3s0 .1-.1.1 0 .1-.1.1h-2l-1.2 5.8v.1h-.8v-.1l1.1-5.8h-2v-.4s0-.1.1-.1 0-.1.1-.1h4.7l.2.1c0-.1 0-.1 0 0zm.6 6.3c-.1.1-.1.1 0 0l-.2.1h-.6v-.1l1.3-6.4v-.1h.8v.1l-1.3 6.4zm6.6-6.4c0 .1 0 .1 0 0v.4s0 .1-.1.1H88l-.4 2.2h2.3v.5s0 .1-.1.1h-2.3L87 133h2.7v.5s0 .1-.1.1h-3.4s-.1 0-.1-.1c0 0 0-.1-.1-.1s0-.1 0-.2l1.2-5.9c0-.1.1-.2.2-.3.1-.1.2-.1.2-.1h3.1c.1.3.1.3.1.4zm6.1 2.3v.7c0 .2-.1.5-.1.7s-.2.5-.3.7-.2.5-.4.7c-.2.2-.3.4-.5.6-.2.2-.4.3-.7.5-.3.2-.5.2-.9.3-.3.1-.7.1-1.1.1h-1.6s-.1 0-.1-.1 0-.1-.1-.1v-.2l1.2-5.9c0-.1.1-.2.2-.3.1-.1.2-.1.3-.1h1.4c.5 0 .9.1 1.3.2s.6.3.8.5c.2.2.4.5.5.8 0 .2.1.5.1.9zm-.9 0c0-.3 0-.5-.1-.7s-.2-.4-.3-.5c-.2-.2-.3-.3-.6-.4-.2-.1-.5-.1-.9-.1h-.9l-1 5.2h.9c.4 0 .8 0 1-.2.3-.1.5-.2.7-.4.2-.2.4-.4.5-.6.2-.2.3-.5.4-.7.1-.2.2-.5.2-.8 0-.3.1-.5.1-.8zm7.8-.2c0 .3 0 .6-.1.9 0 .3-.1.7-.2 1s-.3.7-.4 1c-.2.3-.4.6-.7.8-.3.2-.6.4-1 .6-.4.2-.8.2-1.3.2-.4 0-.7 0-1-.1-.3-.1-.5-.2-.7-.4-.2-.2-.3-.4-.4-.7s-.1-.6-.1-1c0-.3 0-.6.1-.9.1-.3.1-.7.3-1 .2-.3.3-.7.5-1 .2-.3.4-.6.7-.8.3-.2.6-.4 1-.6.4-.1.8-.2 1.3-.2.4 0 .7 0 1 .2.3.1.5.2.7.4.2.2.3.4.4.7-.2.2-.1.5-.1.9zm-1 .1c0-.2 0-.5-.1-.7s-.1-.4-.3-.5c-.2-.1-.3-.3-.5-.3-.2-.1-.4-.1-.7-.1-.4 0-.7.1-.9.2-.3.1-.5.3-.7.5-.2.2-.4.5-.5.7-.1.3-.2.5-.3.8-.1.3-.1.5-.2.8v.7c0 .2 0 .5.1.7s.1.4.3.5c.1.1.3.2.5.3.2.1.4.1.7.1.4 0 .7-.1.9-.2.2-.1.5-.3.7-.5.2-.2.4-.4.5-.7.1-.3.2-.5.3-.8.1-.3.1-.5.2-.8v-.7zm5.9-1.8v.4s0 .1-.1.1h-.1s-.1 0-.2-.1c-.1 0-.2-.1-.3-.1-.1 0-.2-.1-.4-.1-.1 0-.3-.1-.5-.1s-.4 0-.5.1-.3.1-.4.3c-.1.2-.2.2-.2.4-.1.1-.1.3-.1.4 0 .2 0 .3.1.4l.3.3c.1.1.2.2.4.3.1.1.3.2.4.3s.3.2.4.3c.1.1.3.2.4.3s.2.3.3.4c.1.2.1.4.1.6 0 .3-.1.6-.2.8s-.3.5-.5.7c-.2.2-.5.3-.8.5-.3.1-.7.2-1 .2-.2 0-.4 0-.6-.1-.2 0-.3-.1-.5-.1s-.3-.1-.4-.2c-.1-.1-.2-.1-.2-.2 0 0-.1-.1-.1-.2v-.4s0-.1.1-.1h.1c.1 0 .1 0 .2.1s.2.1.3.2.3.1.4.2c.1.1.4.1.6.1.2 0 .5 0 .6-.1.2-.1.3-.2.5-.3.1-.1.2-.2.3-.4.1-.2.1-.3.1-.5s0-.3-.1-.4l-.3-.3c-.1-.1-.2-.2-.4-.3-.1-.1-.3-.2-.4-.2-.1-.1-.3-.2-.4-.3-.1-.1-.3-.2-.4-.3s-.2-.3-.3-.4c-.1-.2-.1-.4-.1-.6 0-.3.1-.5.2-.8.1-.2.3-.4.5-.6.2-.2.4-.3.7-.4.3-.1.6-.2.9-.2h.5c.1 0 .3.1.4.1s.2.1.3.1.1.1.2.1l.2.1c0-.1 0-.1 0 0zm5.8-.3v.3s0 .1-.1.1 0 .1-.1.1h-2l-1.2 5.8v.1h-.8v-.1l1.1-5.8h-1.9v-.4s0-.1.1-.1 0-.1.1-.1h.1l4.7.1c0-.1 0-.1 0 0zm3.9 6.1v.2s0 .1-.1.1h-.9v-.1l-.2-1.6h-2.8l-.9 1.6s0 .1-.1.1c0 0-.1 0-.1.1h-.7v-.1s0-.1.1-.2l3.5-6.2s0-.1.1-.1c0 0 .1 0 .1-.1h1s.1 0 .1.1v.1l.9 6.1zm-1.7-5.4l-1.8 3.3h2.3l-.5-3.3zm7.7 2.9c0 .1 0 .1 0 0v.4s0 .1-.1.1H122v-.4s0-.1.1-.1 0-.1.1-.1h2.3c-.2.1-.1.1-.1.1zm5.7 2.7c-.1.1-.1.1-.2.1h-1c-.1 0-.1 0-.1-.1v-.1l-.9-6.2v-.3h.6s.1 0 .1.1v.1l.8 5.6 3-5.6s0-.1.1-.1c0 0 .1 0 .1-.1s.1 0 .2 0h.6v.1s0 .1-.1.2l-3.2 6.3zm7.9-.2v.2s0 .1-.1.1h-.9v-.1l-.2-1.6H134l-.9 1.6s0 .1-.1.1c0 0-.1 0-.1.1h-.7v-.1s0-.1.1-.2l3.5-6.2s0-.1.1-.1c0 0 .1 0 .1-.1h1s.1 0 .1.1v.1l.9 6.1zm-1.8-5.4l-1.8 3.3h2.3l-.5-3.3zm0-2.1c0 .1 0 .2-.1.2s-.1.1-.1.2c0 0-.1.1-.2.1h-.4c-.1 0-.1 0-.1-.1s0-.1-.1-.2v-.2c0-.1 0-.2.1-.2 0-.1.1-.1.1-.2 0 0 .1-.1.2-.1h.4c.1 0 .1 0 .1.1 0 0 .1.1.1.2v.2zm2.1 0c0 .1 0 .2-.1.2 0 .1-.1.1-.1.2 0 0-.1.1-.2.1h-.4c-.1 0-.1 0-.1-.1 0 0-.1-.1-.1-.2v-.2c0-.1 0-.2.1-.2 0-.1.1-.1.1-.2 0 0 .1-.1.2-.1h.4c.1 0 .1 0 .1.1 0 0 .1.1.1.2v.2zm5.5 7.7c-.1.1-.1.1 0 0l-.2.1h-.6v-.1l.6-2.9h-3l-.6 2.9v.1c0 .1 0 0-.1 0h-.7v-.1l1.3-6.4v-.1c0-.1 0 0 .1 0h.7v.1l-.5 2.7h3l.5-2.7v-.1h.8v.1l-1.3 6.4zm6.7-6.4c0 .1 0 .1 0 0v.4s0 .1-.1.1h-2.8l-.4 2.1h2.3v.5s0 .1-.1.1h-2.3l-.5 2.4h2.7v.5s0 .1-.1.1h-3.4s-.1 0-.1-.1c0 0 0-.1-.1-.1v-.2l1.2-5.9c0-.1.1-.2.2-.3s.2-.1.2-.1h3.1c.1.4.2.4.2.5zm5.2 6.1c0 .1 0 .1-.1.2l-.1.1-.1.1h-.6s-.1-.1-.2-.1c0 0-.1-.1-.1-.2s-.1-.2-.1-.3l-1.2-3.5c-.1-.3-.2-.5-.3-.8s-.2-.5-.2-.8c0 .3-.1.6-.1.8-.1.3-.1.6-.2.8l-.8 3.9v.1H150.8v-.1l1.2-6.1c0-.1.1-.2.2-.3.1-.1.2-.1.3-.1h.6c.1 0 .1 0 .2.1 0 0 .1.1.1.2s.1.2.1.3l1.3 3.6c.1.2.2.4.2.7.1.2.2.4.2.7 0-.3.1-.6.2-.9s.1-.6.2-.9l.7-3.6v-.1h.8v.1l-1.4 6.1zm6.8 0c0 .1 0 .1-.1.2l-.1.1-.1.1h-.6s-.1-.1-.2-.1c0 0-.1-.1-.1-.2s-.1-.2-.1-.3l-1.2-3.5c-.1-.3-.2-.5-.3-.8s-.2-.5-.2-.8c0 .3-.1.6-.1.8-.1.3-.1.6-.2.8l-.8 3.9v.1H157.6v-.1l1.2-6.1c0-.1.1-.2.2-.3.1-.1.2-.1.3-.1h.6c.1 0 .1 0 .2.1 0 0 .1.1.1.2s.1.2.1.3l1.3 3.6c.1.2.2.4.2.7.1.2.2.4.2.7 0-.3.1-.6.2-.9.1-.3.1-.6.2-.9l.7-3.6v-.1h.8v.1l-1.4 6.1zm6.7.1v.2c0 .1 0 .1-.1.1h-.9v-.1l-.2-1.6h-2.8l-.9 1.6s0 .1-.1.1c0 0-.1 0-.1.1s-.1 0-.2 0h-.5v-.1s0-.1.1-.2l3.5-6.2s0-.1.1-.1c0 0 .1 0 .1-.1h1c.1 0 .1 0 .1.1v.1l.9 6.1zm-1.7-5.4l-1.8 3.3h2.3l-.5-3.3zm-.1-2.1c0 .1 0 .2-.1.2s-.1.1-.1.2-.1.1-.2.1h-.4c-.1 0-.1 0-.1-.1 0 0 0-.1-.1-.2s0-.1 0-.2 0-.2.1-.2c0-.1.1-.1.1-.2s.1-.1.2-.1h.4s.1 0 .1.1.1.1.1.2c.1 0 .1.1 0 .2zm2.2 0c0 .1 0 .2-.1.2s-.1.1-.1.2-.1.1-.2.1h-.4c-.1 0-.1 0-.1-.1s-.1-.1-.1-.2v-.2c0-.1 0-.2.1-.2 0-.1.1-.1.1-.2s.1-.1.2-.1h.4s.1 0 .1.1.1.1.1.2v.2zm5.6 5c0 .1 0 .1 0 0v.4s0 .1-.1.1h-2.3v-.4s0-.1.1-.1 0-.1.1-.1h2.3l-.1.1zm10.3 2.7c-.1.1-.1.1 0 0l-.2.1h-.6v-.1l1.2-5.8-3.5 5.8-.1.1h-.6c-.1 0-.1-.1-.1-.1l-1.1-5.8-1.2 5.8v.1H178.5v-.1l1.2-6.1c0-.1 0-.1.1-.2 0-.1.1-.1.1-.1l.1-.1h.9c.1 0 .1.1.2.1 0 0 .1.1.1.2s0 .2.1.2l1 4.8 3-4.8c.1-.1.1-.2.2-.2l.2-.2c.1-.1.1-.1.2-.1h1s.1 0 .1.1c0 0 0 .1.1.1v.2l-1.6 6.1zm2.6 0c-.1.1-.1.1 0 0l-.2.1h-.6v-.1l1.3-6.4v-.1c0-.1.1 0 .1 0h.7v.1l-1.3 6.4zm7.2-6.3v.3s0 .1-.1.1 0 .1-.1.1h-2l-1.2 5.8v.1h-.8v-.1l1.1-5.8h-2v-.4s0-.1.1-.1 0-.1.1-.1h4.7l.2.1c0-.1 0-.1 0 0zm3.9 6.1v.2c0 .1 0 .1-.1.1h-.9v-.1l-.2-1.6h-2.8l-.9 1.6s0 .1-.1.1c0 0-.1 0-.1.1s-.1 0-.2 0h-.5v-.1s0-.1.1-.2l3.5-6.2s0-.1.1-.1c0 0 .1 0 .1-.1h1c.1 0 .1 0 .1.1v.1l.9 6.1zm-1.7-5.4l-1.8 3.3h2.3l-.5-3.3zm-.1-2.1c0 .1 0 .2-.1.2s-.1.1-.1.2-.1.1-.2.1h-.4c-.1 0-.1 0-.1-.1 0 0 0-.1-.1-.2s0-.1 0-.2 0-.2.1-.2c0-.1.1-.1.1-.2s.1-.1.2-.1h.4s.1 0 .1.1.1.1.1.2c.1 0 .1.1 0 .2zm2.2 0c0 .1 0 .2-.1.2s-.1.1-.1.2-.1.1-.2.1h-.4c-.1 0-.1 0-.1-.1s-.1-.1-.1-.2v-.2c0-.1 0-.2.1-.2 0-.1.1-.1.1-.2s.1-.1.2-.1h.4s.1 0 .1.1.1.1.1.2v.2zm5.3 1.4v.3s0 .1-.1.1 0 .1-.1.1h-2l-1.2 5.8v.1h-.8v-.1l1.1-5.8h-2v-.4s0-.1.1-.1 0-.1.1-.1h4.7l.2.1c-.1-.1 0-.1 0 0zm5.6 2c0 .3 0 .6-.1.9 0 .3-.1.7-.2 1-.1.3-.3.7-.4 1-.2.3-.4.6-.7.8s-.6.4-1 .6-.8.2-1.3.2c-.4 0-.7 0-1-.1-.3-.1-.5-.2-.7-.4-.2-.2-.3-.4-.4-.7-.1-.3-.1-.6-.1-1 0-.3 0-.6.1-.9.1-.3.1-.7.3-1s.3-.7.5-1 .4-.6.7-.8c.3-.2.6-.4 1-.6.4-.1.8-.2 1.3-.2.4 0 .7 0 1 .2.3.1.5.2.7.4.2.2.3.4.4.7-.1.2-.1.5-.1.9zm-.9.1c0-.2 0-.5-.1-.7s-.1-.4-.3-.5c-.1-.1-.3-.3-.5-.3s-.4-.1-.7-.1c-.4 0-.7.1-.9.2-.3.1-.5.3-.7.5s-.4.5-.5.7c-.1.3-.2.5-.3.8s-.1.5-.2.8v.7c0 .2 0 .5.1.7s.1.4.3.5c.1.1.3.2.5.3s.4.1.7.1c.4 0 .7-.1.9-.2s.5-.3.7-.5c.2-.2.4-.4.5-.7.1-.3.2-.5.3-.8s.1-.5.2-.8v-.7zm-1.7-3.5c0 .1 0 .2-.1.2s-.1.1-.1.2-.1.1-.2.1h-.4c-.1 0-.1 0-.1-.1 0 0 0-.1-.1-.2v-.2c0-.1 0-.2.1-.2 0-.1.1-.1.1-.2s.1-.1.2-.1h.4c.1 0 .1 0 .1.1s.1.1.1.2v.2zm2.1 0c0 .1 0 .2-.1.2s-.1.1-.1.2-.1.1-.2.1h-.4c-.1 0-.1 0-.1-.1s-.1-.1-.1-.2v-.2c0-.1 0-.2.1-.2 0-.1.1-.1.1-.2s.1-.1.2-.1h.4s.1 0 .1.1.1.1.1.2v.2zm2 7.7c-.1.1-.1.1 0 0l-.2.1h-.6v-.1l1.3-6.4v-.1c0-.1.1 0 .1 0h.7v.1l-1.3 6.4z"/></svg>