<svg xmlns="http://www.w3.org/2000/svg" width="170" height="56" viewBox="0 0 566.9 190.1"><path fill="#82C676" d="M74.8 74.7c-1.3 28.9-21.2 50.7-50.3 54.7C-7.5 133.8-.9 88.3 4.6 70c5.9-19.4 16-42.9 36.1-50.9C65.3 9.3 75 57.4 74.8 74.7c-.1 2.4.1-5.4 0 0z"/><path fill="#82C676" d="M112.3.6c2.5.2 33.3 1.2 31.4 21.9-2.1 24.3-28.3 42.1-50.8 30.6-13.3-6.7-31.9-31-27-47.8 2-6.7 28.7-5.1 38.5-5.1-2.2 0 4.8.1 7.9.4zM91 161.4c.6 66.5-86.2 0-64.7-22.5 22.1-23.1 66.4-12.3 64.7 22.5.1 5.7.1-3 0 0zm8.4 6.5c2.3-28.8 19.2-58.9 52.1-51.9 62.1 13.4-51.3 97.1-52.1 51.9.1-2.1 0 3.3 0 0z"/><path fill="#82C676" d="M141.4 50.6c-.8-42.8 30.1-10.4 36.7 6.8 10.7 28-36.8 21.6-36.7-6.8-.1-4.1 0 5.2 0 0zm29.3 66.7c-18.8.2-3.5-35.3 4-35.3 7.4 0 19.7 35.7-4 35.3-3.2.1 4 .1 0 0z"/><path d="M294.1 47.5c-1.5-2.4-3.3-4.4-5.5-6.2s-4.7-3.2-7.5-4.2-5.7-1.5-8.7-1.5c-5.6 0-10.3 1.1-14.1 3.2-3.9 2.1-7 5-9.4 8.6-2.4 3.6-4.2 7.7-5.3 12.3S242 69.1 242 74c0 4.7.6 9.3 1.6 13.7 1.1 4.5 2.9 8.5 5.3 12 2.4 3.6 5.6 6.4 9.4 8.6 3.9 2.1 8.6 3.2 14.1 3.2 7.5 0 13.4-2.3 17.7-6.9 4.2-4.6 6.8-10.7 7.8-18.2h23.9c-.6 7-2.3 13.4-4.9 19-2.6 5.7-6.1 10.5-10.4 14.5s-9.3 7-15.1 9.1c-5.8 2.1-12.1 3.1-19 3.1-8.6 0-16.3-1.5-23.2-4.5-6.9-3-12.6-7.1-17.4-12.3-4.7-5.2-8.3-11.4-10.8-18.5s-3.8-14.7-3.8-22.9c0-8.4 1.3-16.2 3.8-23.3 2.5-7.2 6.1-13.4 10.8-18.8 4.7-5.3 10.5-9.5 17.4-12.6 6.9-3 14.6-4.6 23.2-4.6 6.2 0 12 .9 17.5 2.7 5.5 1.8 10.4 4.4 14.8 7.8 4.3 3.4 7.9 7.6 10.8 12.6 2.8 5 4.6 10.8 5.3 17.3h-23.9c-.4-2.6-1.3-5.2-2.8-7.5zm101.8-30c5 0 9.6.8 13.6 2.4s7.5 3.8 10.4 6.7c2.9 2.8 5.1 6.1 6.6 9.8s2.3 7.7 2.3 12c0 6.6-1.4 12.3-4.2 17.1-2.8 4.8-7.3 8.5-13.6 11v.3c3 .8 5.5 2.1 7.5 3.8 2 1.7 3.6 3.8 4.9 6.1 1.3 2.4 2.2 4.9 2.8 7.8.6 2.8 1 5.7 1.2 8.5.1 1.8.2 3.9.3 6.3.1 2.4.3 4.9.5 7.4.3 2.5.7 4.9 1.3 7.2.6 2.3 1.4 4.2 2.6 5.7h-24.7c-1.4-3.6-2.2-7.8-2.5-12.7-.3-4.9-.8-9.6-1.4-14.1-.8-5.9-2.6-10.2-5.3-12.9-2.7-2.7-7.2-4.1-13.4-4.1h-24.7v43.8h-24.7V17.5h60.5zm-8.8 50.8c5.7 0 9.9-1.3 12.7-3.8 2.8-2.5 4.2-6.6 4.2-12.3 0-5.4-1.4-9.4-4.2-11.9-2.8-2.5-7.1-3.7-12.7-3.7h-27v31.6l27 .1zm93.3-50.8l26.2 77.1h.3l24.8-77.1h34.7v112.2h-23.1V50.2h-.3l-27.5 79.5h-19L469.1 51h-.3v78.7h-23.1V17.5h34.7zM341.2 174.1c.5.9 1.1 1.6 1.8 2.1.8.5 1.6.9 2.6 1.2s2.1.4 3.1.4c.7 0 1.5-.1 2.4-.2.8-.1 1.6-.4 2.4-.7.7-.4 1.3-.8 1.8-1.4.5-.6.7-1.4.7-2.3 0-1-.3-1.8-1-2.5-.6-.6-1.5-1.2-2.5-1.6-1-.4-2.2-.8-3.6-1.1-1.3-.3-2.7-.7-4-1-1.4-.3-2.8-.8-4.1-1.3-1.3-.5-2.5-1.2-3.6-2-1-.8-1.9-1.8-2.5-3s-1-2.7-1-4.4c0-1.9.4-3.6 1.2-5 .8-1.4 1.9-2.6 3.2-3.5 1.3-.9 2.8-1.6 4.5-2.1s3.4-.7 5-.7c2 0 3.8.2 5.6.7 1.8.4 3.4 1.1 4.8 2.1s2.5 2.2 3.3 3.7 1.2 3.4 1.2 5.5h-8c-.1-1.1-.3-2-.7-2.8-.4-.7-.9-1.3-1.6-1.7s-1.4-.7-2.3-.9-1.8-.3-2.8-.3c-.7 0-1.3.1-2 .2s-1.3.4-1.8.7c-.5.4-1 .8-1.3 1.3s-.5 1.2-.5 2c0 .7.1 1.3.4 1.8s.8.9 1.7 1.3c.8.4 2 .8 3.4 1.2 1.5.4 3.3.9 5.7 1.5.7.1 1.7.4 2.9.8s2.5 1 3.7 1.8 2.3 1.9 3.2 3.2c.9 1.3 1.3 3.1 1.3 5.2 0 1.7-.3 3.3-1 4.8s-1.7 2.7-3 3.8-2.9 1.9-4.9 2.5c-1.9.6-4.2.9-6.7.9-2.1 0-4.1-.3-6-.8s-3.7-1.3-5.1-2.4c-1.5-1.1-2.7-2.5-3.5-4.1-.9-1.7-1.3-3.7-1.3-6h8c.2 1.2.4 2.2.9 3.1zm57.8-28.2v6.9h-19.8v8h18.1v6.4h-18.1v9.2h20.2v6.9H371v-37.4h28zm28.2 0c1.7 0 3.2.3 4.5.8s2.5 1.3 3.5 2.2 1.7 2 2.2 3.3c.5 1.2.8 2.6.8 4 0 2.2-.5 4.1-1.4 5.7-.9 1.6-2.4 2.8-4.5 3.7v.1c1 .3 1.9.7 2.5 1.3.7.6 1.2 1.3 1.6 2 .4.8.7 1.7.9 2.6.2.9.3 1.9.4 2.8 0 .6.1 1.3.1 2.1s.1 1.6.2 2.5c.1.8.2 1.6.4 2.4.2.8.5 1.4.9 1.9h-8.2c-.5-1.2-.7-2.6-.8-4.2-.1-1.6-.3-3.2-.5-4.7-.3-2-.9-3.4-1.8-4.3-.9-.9-2.4-1.4-4.5-1.4h-8.2v14.6h-8.2v-37.4h20.1zm-2.9 16.9c1.9 0 3.3-.4 4.2-1.3.9-.8 1.4-2.2 1.4-4.1 0-1.8-.5-3.1-1.4-4-.9-.8-2.4-1.2-4.2-1.2h-9v10.5h9v.1zm29.9 20.5l-12.1-37.4h8.4l8.3 26.3h.1l8.4-26.3h8.5l-12.4 37.4h-9.2zm36.4-37.4v37.4h-8.2v-37.4h8.2zm32.1 10c-.5-.8-1.1-1.5-1.8-2.1s-1.6-1.1-2.5-1.4c-.9-.3-1.9-.5-2.9-.5-1.9 0-3.4.4-4.7 1.1-1.3.7-2.3 1.7-3.1 2.9-.8 1.2-1.4 2.6-1.8 4.1s-.5 3.1-.5 4.8c0 1.6.2 3.1.5 4.6.4 1.5 1 2.8 1.8 4s1.9 2.1 3.1 2.9c1.3.7 2.9 1.1 4.7 1.1 2.5 0 4.5-.8 5.9-2.3s2.3-3.6 2.6-6.1h8c-.2 2.3-.8 4.5-1.6 6.3-.9 1.9-2 3.5-3.5 4.8-1.4 1.3-3.1 2.3-5 3s-4 1-6.3 1c-2.9 0-5.4-.5-7.7-1.5s-4.2-2.4-5.8-4.1c-1.6-1.7-2.8-3.8-3.6-6.2-.8-2.4-1.3-4.9-1.3-7.6 0-2.8.4-5.4 1.3-7.8.8-2.4 2-4.5 3.6-6.3s3.5-3.2 5.8-4.2 4.9-1.5 7.7-1.5c2.1 0 4 .3 5.8.9 1.8.6 3.5 1.5 4.9 2.6s2.6 2.5 3.6 4.2c.9 1.7 1.5 3.6 1.8 5.8h-8c-.2-.9-.5-1.7-1-2.5zm43.8-10v6.9h-19.8v8h18.1v6.4h-18.1v9.2h20.2v6.9h-28.4v-37.4h28z" fill="#545456"/></svg>