<svg xmlns="http://www.w3.org/2000/svg" width="150" height="100" viewBox="0 0 1187 590"><g fill="#fff"><path d="M412 2.3c-7.6 3.2-15.3 8.6-30.9 22.1-7.4 6.3-16 12.9-19 14.5-8.7 4.6-19 7-35.1 8.1-8 .6-16.6 1.5-19.2 2.1-6.5 1.5-12.4 6.9-21 19.6-6.5 9.6-14.9 19.3-16.7 19.3-.4 0-4.9 4.9-10 10.9-8.6 10.1-11.6 12.9-12.9 11.7-.2-.3 1.6-4.5 4.2-9.4l4.5-8.9-3.5-.6c-15.2-2.5-33.3 11.8-46.4 36.8-4.1 7.8-4.2 8.2-3.7 15.5.8 13.2 7.2 27.4 17 37.8 3.3 3.4 10.8 6.3 20 7.6 6.1.9 21.7-.9 33.5-4 5.1-1.3 9.7-2.2 10.2-1.9 1 .6 13-7.4 17.9-11.9 4.7-4.3 12.9-17 14.2-22 .6-2.2 1.7-7.5 2.4-11.6l1.2-7.5.9 4c.5 2.2.9 9.2.9 15.5 0 10-.3 12-2.3 15.7-2.6 5-12.2 15.4-21.3 23.3l-6.7 5.8 2.5 4.1c1.3 2.2 2.6 4.1 2.9 4.1.3 0 5.4-2.5 11.2-5.5 12.6-6.4 20.7-12.6 26.5-20 2.3-3 4.3-5.2 4.6-5 .2.3-1.1 3.4-2.9 7.1-4.7 9.7-12.3 16.7-25.5 23.8-6 3.3-11.1 6-11.3 6.2-.4.2 7.2 26.8 10.5 36.4 1.4 4.1 3.9 10.1 5.5 13.2 2.8 5.3 3.3 5.8 7.3 6.4 12.8 1.9 72.6-12.7 89.5-21.8 14.7-8 44-28 63.2-43.2l9.7-7.7-1.6-4.2c-4-10-15.8-30.4-30.8-53l-9.6-14.6-6 4.1c-7.5 5-29.5 16.5-28.5 15 .3-.6 4.9-4.3 10.1-8.2 10.8-8.2 18.5-16.4 22-23.5 1.4-2.8 3.7-10.2 5.1-16.5 1.4-6.3 3-12.1 3.6-12.8 1.5-1.7 9.3-1.5 10.8.3 1 1.2 1 3 .2 8.2-.6 3.7-1 6.9-.8 7 .7.7 10.8-11.1 12.7-14.8 3.6-7.1 5.2-16.6 5.3-30.9.1-18-.8-20.6-9.5-29.2-5.3-5.3-9-7.8-17.1-11.7-17.2-8.4-27.7-10-37.8-5.8z"/><path d="M209.9 207.3c-9.3 2.7-16.6 9.4-18.9 17.5-.6 2.5-1 46.7-1 131.9V485H61v-88h86.3l4.2-4.4c9.1-9.5 11.9-22.1 7.5-33.9-2.1-5.6-6.9-11.3-10.8-12.8-1.3-.5-21-.9-43.8-.9H63v-80h42c45.7 0 44.7.1 50.2-5.7 3.8-4 5.8-10.4 5.8-18.7 0-12.5-4.3-22.9-11.2-27.1-3.1-1.9-5.5-2-51.3-2.3-26.4-.1-56.6.1-67.2.5-21.6 1-22.8 1.3-27 8.9C.1 228.1-.1 237.8.2 380c.3 125.8.4 133.8 2.1 138.9 2.5 7.3 5.5 11.6 9.9 14.1 3.6 2 4.4 2 83.5 1.8l79.8-.3 6.3-2.9c3.4-1.6 7.8-4.6 9.7-6.7 4.2-4.6 6.4-4.9 8.6-1 .9 1.5 3.3 4.1 5.4 5.7l3.8 2.8 25.1.8c13.8.5 40 .7 58.1.6 31.1-.3 33.2-.4 37-2.4 2.3-1.2 4.6-3.3 5.5-5.2 2-4.2 3.8-4.8 5.1-1.4C349 547.1 360.8 562 380 575c21.5 14.6 47.9 18.7 71.1 11 21.8-7.2 42.5-23 55.2-42.1 6.5-9.8 16.3-29.8 20.3-41.4 1.5-4.4 2.8-8.1 2.9-8.2 0-.1 1 0 2.2.3 1.4.4 1.9 1.2 1.6 2.4-.7 2.7 1.5 19.2 3.2 24.1 3 8.3 7.4 11.3 19.1 12.8 14.8 1.8 31-1.8 35.1-7.8 1.7-2.4 1.8-5.6 1.5-44.6-.1-23.1-.6-51.3-1-62.8-.4-11.4-.4-20.6-.1-20.5.4.2 23.8 29.5 52.2 65.3 55.8 70.4 54.8 69.3 67.2 72.7 7.1 1.9 244.9.9 251-1.1 2.3-.8 5.7-3.1 8.1-5.7 2.3-2.4 4.6-4.4 5.1-4.4s2.7 1.8 4.8 4.1c5.9 6 10.7 8.2 19.5 8.7 13.1.8 22.4-2.3 27.4-9.1 2.1-2.8 2.1-3.9 2.6-65l.5-62.1L1048 425c86.4 109.9 84.4 107.4 90.1 110.2 11 5.5 22.4 6 32.5 1.4 6.8-3.1 13.1-8.9 14.5-13.4 1.8-5.8 2.1-44.3 1.1-175.2l-.8-120.6-2.3-4.7c-5.2-10.8-16-16.3-30.1-15.5-12 .7-21 6.1-25.5 15.4-1.8 3.7-1.9 6.8-1.6 70.9.2 40.9-.1 66.6-.6 66-.6-.6-25.9-32.9-56.4-71.9-33.2-42.5-56.9-72.1-59.3-73.8-5.1-3.7-10.7-5.1-17-4.3-11.9 1.5-16.7 4.4-20.5 12.4l-2.6 5.6.4 127.8.3 127.7H837v-86h88.5l5.2-2.4c3.6-1.7 6-3.8 8-6.7 2.6-3.9 2.8-5 2.8-13.8 0-8.4-.3-10.3-2.6-14.6-2.8-5.6-9.1-10.9-14.7-12.5-2.3-.6-19.5-1-44.4-1H839v-81h42.1c29.1 0 43.4-.4 46-1.2 2.2-.6 5.7-2.7 7.9-4.6 14.7-12.5 9.2-35.6-10.8-45.4l-6.7-3.3-57.5.2c-37.9.2-58.9.6-61.5 1.3-5.9 1.7-11.7 6-14.5 11l-2.5 4.5-.3 127.2L781 482h-37V357.7c0-136.4.3-129.9-6-138.5-6.7-9.3-16.2-13.2-27.3-11.1-11.6 2.1-17.5 6.8-20.3 16.6-1.4 4.9-1.6 13-1.3 71l.4 65.5-2.8-3.4c-1.5-1.8-25.4-33.5-53.1-70.3-36.4-48.5-51.5-67.9-54.7-70.1-6.8-4.9-13.2-6.7-20.9-5.9-10.2 1-13.9 2.3-18.5 6.6-7.5 6.9-7.9 9.1-7.1 37.5l.7 24.6-2.1-.4c-1.9-.3-3-2.7-7.5-16.3-6.7-20.2-10.9-29.4-19.1-41.7l-6.5-9.8h-4.4c-4.1 0-5.6.9-18.7 10.7-17 12.7-46.5 32.3-56.3 37.5-11.4 6-50.3 17.2-74 21.4-8.1 1.4-26.8 2.2-30.5 1.3-2.3-.6-2.9 6.9-3.6 45.6-.5 27.4-.3 40.7 1 61 2 31.1 4.9 60.5 7.6 77.3 1.1 6.7 2 12.9 2 13.7 0 1.3-4.8 1.5-35.5 1.5H250V355.7c0-82.8-.4-127.7-1.1-130.7-1.8-8.1-7.1-13.6-16.1-16.7-6-2.1-17.4-2.6-22.9-1zm274.7 188.9c-1.2 30.9-2.7 49.1-4.6 57.3-6.7 28.5-21.7 52.9-36.8 59.8-6.5 3-16.9 2.9-23.4-.2-15.6-7.5-29-29-36.5-58.5-2.3-9.4-2.6-12.1-3-41l-.5-30.9 6.3 4.5c7.9 5.6 12.6 8 21.5 11 6 2 8.8 2.3 20.9 2.2 12.5 0 14.9-.3 22.5-2.8 10.3-3.4 20-8.3 27.7-14.2 3.2-2.4 6-4.4 6.2-4.4.2 0 0 7.8-.3 17.2z"/></g></svg>