<svg width="90" height="33" viewBox="0 0 90 33" fill="none" xmlns="http://www.w3.org/2000/svg">
<path d="M38.7852 1.26124C37.2706 1.44545 36.5337 1.14624 35.602 0.767097C34.5396 0.336303 33.217 -0.200728 30.9344 0.0760716C28.6517 0.352872 27.4958 1.19009 26.567 1.8626C25.7522 2.45324 25.1089 2.91912 23.5943 3.10235C20.5183 3.47759 18.3205 6.28361 18.6938 9.3596C18.9969 11.8615 20.9111 13.65 23.2366 13.9492C23.338 13.9619 23.4189 14.0408 23.4315 14.1422L23.9393 18.3322C23.9764 18.6402 24.2561 18.8585 24.5641 18.8215L41.6009 16.7562C41.9089 16.7192 42.1282 16.4394 42.0902 16.1315L41.5824 11.9414C41.5697 11.8401 41.6302 11.7446 41.7257 11.7075C43.9128 10.8606 45.3436 8.66662 45.0395 6.1647C44.6662 3.08871 41.8621 0.888928 38.7861 1.26027L38.7852 1.26124ZM42.3319 7.44636C42.1165 8.58183 40.8319 9.69877 38.9577 9.86446C38.7735 9.88103 38.6409 10.0506 38.6633 10.2339L39.1214 14.0116C39.1438 14.1939 39.0142 14.3586 38.8319 14.381L26.6849 15.8537C26.5026 15.8761 26.3379 15.7465 26.3155 15.5642L25.8574 11.7865C25.835 11.6023 25.6664 11.4697 25.4832 11.498C23.6235 11.7845 22.1099 11.0077 21.6284 9.95608C21.222 9.0672 21.2542 8.08281 21.7181 7.25533C22.1742 6.44053 22.9968 5.88595 23.9218 5.77484C26.1235 5.50779 27.2444 4.6959 28.1469 4.04289C28.9627 3.45225 29.6673 2.94154 31.2589 2.74856C32.8505 2.55558 33.6566 2.88306 34.5893 3.2622C35.6215 3.6813 36.9041 4.20176 39.1058 3.9347C40.0308 3.82165 40.9625 4.16277 41.5999 4.84503C42.2481 5.538 42.5142 6.48536 42.3319 7.44636Z" fill="#1C1E26"/>
<path d="M11.3741 28.8253V31.2804C11.3741 31.5904 11.1227 31.8418 10.8127 31.8418H0.561397C0.251459 31.8418 0 31.5904 0 31.2804V13.4297C0 13.1198 0.251459 12.8683 0.561397 12.8683H10.7796C11.0895 12.8683 11.341 13.1198 11.341 13.4297V15.8849C11.341 16.1948 11.0895 16.4463 10.7796 16.4463H3.95707C3.77384 16.4463 3.62569 16.5944 3.62569 16.7777V20.1538C3.62569 20.3371 3.77384 20.4852 3.95707 20.4852H10.0252C10.3352 20.4852 10.5866 20.7367 10.5866 21.0466V23.4481C10.5866 23.7581 10.3352 24.0095 10.0252 24.0095H3.95707C3.77384 24.0095 3.62569 24.1577 3.62569 24.3409V27.9335C3.62569 28.1167 3.77384 28.2649 3.95707 28.2649H10.8137C11.1237 28.2649 11.3751 28.5163 11.3751 28.8263L11.3741 28.8253ZM73.4807 28.8253V31.2804C73.4807 31.5904 73.2292 31.8418 72.9193 31.8418H62.667C62.357 31.8418 62.1056 31.5904 62.1056 31.2804V13.4297C62.1056 13.1198 62.357 12.8683 62.667 12.8683H72.8852C73.1951 12.8683 73.4466 13.1198 73.4466 13.4297V15.8849C73.4466 16.1948 73.1951 16.4463 72.8852 16.4463H66.0626C65.8794 16.4463 65.7313 16.5944 65.7313 16.7777V20.1538C65.7313 20.3371 65.8794 20.4852 66.0626 20.4852H72.1308C72.4407 20.4852 72.6922 20.7367 72.6922 21.0466V23.4481C72.6922 23.7581 72.4407 24.0095 72.1308 24.0095H66.0626C65.8794 24.0095 65.7313 24.1577 65.7313 24.3409V27.9335C65.7313 28.1167 65.8794 28.2649 66.0626 28.2649H72.9193C73.2292 28.2649 73.4807 28.5163 73.4807 28.8263V28.8253ZM24.2756 31.2804C24.2756 31.5904 24.0241 31.8418 23.7142 31.8418H14.1977C13.8878 31.8418 13.6363 31.5904 13.6363 31.2804V13.4288C13.6363 13.1188 13.8878 12.8674 14.1977 12.8674H16.7006C17.0105 12.8674 17.262 13.1188 17.262 13.4288V27.9315C17.262 28.1148 17.4101 28.2629 17.5934 28.2629H23.7142C24.0241 28.2629 24.2756 28.5144 24.2756 28.8243V31.2804ZM59.3824 13.4297V31.2814C59.3824 31.5913 59.1309 31.8428 58.821 31.8428H57.0705C56.7918 31.8428 56.5306 31.7044 56.3737 31.4734L49.0463 20.687C48.9546 20.5515 48.7431 20.6168 48.7431 20.7805V31.2814C48.7431 31.5913 48.4917 31.8428 48.1817 31.8428H45.6788C45.3689 31.8428 45.1174 31.5913 45.1174 31.2814V13.4297C45.1174 13.1198 45.3689 12.8683 45.6788 12.8683H47.4303C47.709 12.8683 47.9693 13.0058 48.1262 13.2368L55.4536 23.9978C55.5452 24.1323 55.7567 24.068 55.7567 23.9043V13.4297C55.7567 13.1198 56.0082 12.8683 56.3181 12.8683H58.821C59.1309 12.8683 59.3824 13.1198 59.3824 13.4297ZM90 13.4297V31.2814C90 31.5913 89.7486 31.8428 89.4386 31.8428H87.6881C87.4094 31.8428 87.1482 31.7044 86.9913 31.4734L79.6639 20.687C79.5722 20.5515 79.3607 20.6168 79.3607 20.7805V31.2814C79.3607 31.5913 79.1093 31.8428 78.7993 31.8428H76.2964C75.9865 31.8428 75.735 31.5913 75.735 31.2814V13.4297C75.735 13.1198 75.9865 12.8683 76.2964 12.8683H78.0479C78.3266 12.8683 78.5869 13.0058 78.7438 13.2368L86.0712 23.9978C86.1628 24.1323 86.3743 24.068 86.3743 23.9043V13.4297C86.3743 13.1198 86.6258 12.8683 86.9357 12.8683H89.4386C89.7486 12.8683 90 13.1198 90 13.4297ZM38.8427 19.6792C39.4255 20.6811 39.7228 21.8673 39.6243 23.1275C39.3914 26.0865 36.9557 28.4403 33.9909 28.5777C30.5923 28.7356 27.7765 26.0154 27.7765 22.6509C27.7765 22.0739 27.8593 21.5164 28.0143 20.9891C28.1098 20.6636 27.8447 20.3468 27.5085 20.3878L24.9305 20.6996C24.5816 20.7415 24.3038 21.0135 24.2561 21.3624C24.1888 21.8604 24.1596 22.3712 24.1723 22.8906C24.298 28.0095 28.5094 32.1498 33.6302 32.1907C38.751 32.2317 43.249 27.9461 43.249 22.6519C43.249 21.4141 43.0132 20.2318 42.5834 19.146C42.4537 18.8176 42.1194 18.6178 41.7695 18.6607L39.1887 18.9735C38.8514 19.0145 38.6711 19.3868 38.8427 19.6802V19.6792Z" fill="#1C1E26"/>
</svg>
