<svg xmlns="http://www.w3.org/2000/svg" width="382" height="200" viewBox="0 0 382 200"><path fill="currentColor" d="m359.667 197 1.667-9h6c2.667 0 4.334 1.334 4.334 3.666 0 3.334-2 5.334-6 5.334h-6zm7-11h-5l1.666-8.001h5c3 0 4.334 1.334 4.334 3.334 0 2.333-2.333 4.666-6 4.666zM361 176.666l-4 21.333c0 .667.333 1.334.999 1.334h7.334c6 0 9-3.334 9-8 0-2.667-1.667-4.334-3.667-4.666 2.333-.667 4.666-3 4.666-6s-2-4.999-6.334-4.999h-6.333c-.667-.334-1.666.333-1.666.999zm-53.334-.333-4 22.001c0 .667.333 1.334 1 1.334s1.334-.667 1.334-1.334l2-10h13.001l-2 10c0 .667.333 1.334 1 1.334s1.334-.667 1.334-1.334l4.001-22.001c0-.667-.334-1.334-1.001-1.334s-1.334.667-1.334 1.334L321.335 186h-13.001l1.667-9.667c0-.667-.334-1.334-1-1.334-.667.335-1.334.668-1.334 1.334zm-36.666 0v.334L276.334 188l-2 10c0 .667.333 1.334 1 1.334s1.334-.667 1.334-1.334l2-10 9.334-11c.333-.333.333-.333.333-.667 0-.667-.667-1.334-1.334-1.334-.333 0-.667 0-1 .334l-8.333 10.001-4.666-10.001c-.333-.334-.667-.667-1-.667-.667.668-1.001 1.001-1.001 1.667zm-23 .333c0 .667.334 1 1 1h6.667l-3.666 20.667c0 .667.333 1.334.999 1.334s1.334-.667 1.334-1.334l3.667-20.667h6.667c.667 0 1.334-.667 1.334-1.334s-.333-1-1-1h-15.667c-.668.001-1.334.668-1.334 1.334zm-9.667-.333-4.001 22.001c0 .667.334 1.334 1.001 1.334s1.334-.667 1.334-1.334l3.999-22.001c0-.667-.333-1.334-.999-1.334-.667.335-1.334.668-1.334 1.334zM208 190.667c0 6.333 3.666 9 9.667 9 3.333 0 7-1.334 9-3.668.334-.333.334-.666.334-.999 0-.667-.667-1-1.334-1-.334 0-.667 0-1 .333-2 2-4.334 3-7 3-4.666 0-7.334-1.999-7.334-7.333 0-8.333 4.334-13 11-13 2.667 0 4.667.999 6.001 3 .333.334.666.334 1 .334.667 0 1.334-.334 1.334-1.001v-.667c-1.334-2.333-4.001-4-7.667-4-8.666.334-13.999 6.001-13.999 16.002zm-20-14.334-4 22.001c0 .667.333 1.334.999 1.334s1.333-.667 1.333-1.334l4-22.001c0-.667-.333-1.334-.999-1.334s-1.333.668-1.333 1.334zm-24.001 0-4 22.001c0 .667.334 1.334 1 1.334s1.334-.667 1.334-1.334l1.333-7.333 4.001-3.668 6.332 11.668c0 .333.667.667 1 .667.667 0 1.334-.667 1.334-1.334v-.667l-6.667-12 9.334-8.333c.333-.334.333-.667.333-1.001 0-.667-.667-1.334-1.334-1.334-.333 0-.667 0-.999.334L163.999 187l2.667-10.667c0-.667-.333-1.334-1-1.334-.666.336-1.333.669-1.667 1.334zm-26.332 0-4.334 22.001c0 .667.333 1 1 1s1.334-.667 1.334-1L139 179.667l9.334 19.334c.333.333.333.333 1 .333.666 0 1.333-.667 1.333-1.334l3.999-22c0-.667-.333-1.001-.999-1.001s-1.334.667-1.334 1.001L149 194.667l-9-19c0-.333-.333-.667-1-.667-.666.335-1.332.668-1.332 1.334zm-11.334 0-4 22.001c0 .667.333 1.334 1 1.334s1.334-.667 1.334-1.334l4-22.001c0-.667-.334-1.334-1-1.334-.667.335-1.334.668-1.334 1.334zm-29 18.333V195c.667 2.333 3.333 4.666 7.667 4.666 6.666 0 10.333-3 10.333-8.001 0-7-12-5.333-12-10.333 0-2 1.667-4.334 6-4.334 3 0 4.666 1.334 5.667 2.667.333.333.667.667.999.667.667 0 1.334-.334 1.334-1.001v-.333c-.999-2.333-3.666-3.666-7.333-3.666-6 0-9 3-9 6.666 0 7 12 5 12 10.334 0 3.333-2.667 5.334-7.333 5.334-3.333 0-5.333-1.334-6-3.334 0-.333-.667-.667-1-.667-1 .001-1.333.335-1.333 1.001zm-16-18.333L77.334 198c0 .667.333 1.334.999 1.334h11.333c.667 0 1.334-.667 1.334-1.334s-.333-1-.999-1H80l3.667-20.667c0-.667-.333-1.334-1-1.334-.667.335-1.334.668-1.334 1.334zm-22.667.333-4 21.333c0 .667.333 1.334 1 1.334h12.333c.667 0 1.333-.667 1.333-1.334s-.334-1-1-1h-11l1.667-8.666h8c.667 0 1.334-.667 1.334-1.334s-.333-1-1-1h-8l1.666-8.333h10.666c.667 0 1.334-.667 1.334-1.334s-.333-.999-.999-.999H60c-.667.001-1.333.668-1.333 1.334zm-27-.333-3.999 22.001c0 .667.333 1.334.999 1.334s1.333-.667 1.333-1.334l2-10h13l-2 10c0 .667.333 1.334.999 1.334s1.334-.667 1.334-1.334l4-22.001c0-.667-.333-1.334-.999-1.334s-1.334.667-1.334 1.334L45.332 186H32.331l1.666-9.667c0-.667-.333-1.334-1-1.334-.666.335-1.332.668-1.332 1.334zm319.333-.999c-.667 0-1.334.667-1.334 1.334l-3 15.666c-.667 2.667-1.999 5.334-7 5.334-4 0-5.333-1.667-5.333-4.001v-1.334l3-15.667c0-.667-.333-1.334-.999-1.334s-1.334.667-1.334 1.334l-3 15.667c0 .667-.334 1.334-.334 2 0 3 2 5.667 7.335 5.667 7.333 0 9.333-4.001 9.999-7.666l3-15.667c.001-.999-.333-1.332-1-1.332zM177 144.333c0 1.334.333 2.333.999 3.667 3 4.666 12 11.666 24.667 11.666 20.334 0 31.667-8.666 31.667-23.667 0-19-31.667-16.999-31.667-28 0-4 3.667-6.334 10-6.334 6.001 0 10.667 2.334 13.666 5 1.334 1.334 3 2 5 2 4.001 0 7.333-3.333 7.333-7.333 0-1.334-.333-3-1-3.666-3.333-5.334-12.667-10-23.333-10-15.334 0-28.334 6.667-28.334 22.333 0 20.667 32 18 32 28.667 0 4-5 6.667-12.333 6.667-7.666 0-12.334-2.667-16.334-6-1.667-1.333-3-2-4.999-2-3.999-.334-7.333 2.999-7.333 7zm-51.334-13.334c0-13.333 5.667-29.999 21.333-29.999 9 0 13.334 4.999 13.334 14.666 0 13.334-5.667 30-21.333 30-8.666.001-13.334-5-13.334-14.667zm-16.332 2.334c0 17.667 10.333 26.333 27.332 26.333 28.667 0 40.334-22.999 40.334-46 0-17.667-10.334-26.333-27.333-26.333-28.667 0-40.333 22.666-40.333 46zM59 19.667c0 3-2 10.334-30 10.334 3.666-11 11-16 20.333-16C57 14 59 17.334 59 19.667zm16-1C75 8.667 65.999 0 50.333 0 33 0 20 10 14.333 25.667c-1.334-.667-2.334-1.334-3.333-2-1.667-.667-2.667-1.333-4.334-1.333-3.333 0-6.332 2.333-6.666 5.667 0 2.333.999 3.667 2.333 5s4.334 3.333 9.001 5c-.333 2-.333 4-.333 6.334 0 19 10.666 28 27.666 28 4.666 0 9-.667 12.333-1.334l-14.333 79.666c-1 4.999 2 7.666 6.667 7.999 4.666 0 8.666-3.333 9.334-7.666l6-33.667c1.667-9 6.667-15.333 17.667-15.333 8 0 11 4 11 10 0 1.334 0 3-.334 4.334l-6.333 34.667c-.667 4.666 2 7.666 6.667 8 4.666 0 8.667-3.334 9.333-7.667l6.667-37.667c.334-2.667.667-5 .667-7.333 0-9.334-4.667-18.667-21.333-19-9.667 0-17 4.334-21 9l7-37.667c.667-4.666-2.333-8-6.667-8-2.667 0-4.999 1.334-6.666 3-4 2.333-9.001 4.666-15.334 4.666-8.333 0-14-3.333-14-11.667 0-1 0-3 .334-4.334 42.999-.001 48.666-12.668 48.666-23.667zm63.333 25.999 6.333-35c.667-4.666-2-8-6.667-8s-9 3.666-9.667 8l-6.332 35c-1.334 7-5 13.666-15.667 13.334-9 0-11.666-4-11.666-9.333 0-1.334 0-2.667.333-4.334l6.333-35c.667-4.666-2-8-6.667-8s-9 3.667-9.667 8l-6.334 35c-.333 2.666-.666 5-.666 7.666 0 11.333 6.667 20.333 26.666 20.666 24.333.001 31.001-13.333 33.667-27.999zm57.666-37.333c0-3.666-2.333-6.667-6.666-6.667-7.334 0-13.666 4-17.667 10V9.333c.666-4.666-2-8-6.667-8s-9.001 3.666-9.667 8l-9.667 54.333c-1 4.666 2 8.001 6.667 8.001s8.666-3.666 9.334-8.001l5.667-31.333c1.666-9.999 9-16.666 19.333-16.666 5 .333 9.333-3.667 9.333-8.333zm47.001 22c0 13.334-5.667 30-21.333 30-9.001 0-13.334-4.999-13.334-14.667 0-13.334 5.667-30 21.333-30 9 .001 13.334 5.001 13.334 14.667zM259.666 27c0-17.666-10.333-26.333-27.333-26.333-28.667 0-40.333 23-40.333 46C192 64.333 202.334 73 219.333 73c28.334 0 40.333-22.667 40.333-46zm24.667 68.333c0-3-2.334-5.667-5.667-5.667h-7L273.999 77c.667-4.334-2-8.001-6.333-8.001S259 72.665 258.332 77l-2.333 12.666h-3.333c-4.334 0-8 3.666-8 7.666 0 3 2.333 5.667 5.667 5.667h3.333l-6.334 35.333c-.333 1.667-.333 3-.333 4.334 0 9.667 5.667 16.334 17.333 16.334 6 0 9.333-3.667 9.333-8 0-3.334-2.333-6-6-6-2.334 0-5-1.334-5-4.334 0-.667 0-1.667.334-2.666l6.333-35h6.667c4.666.334 8.333-3.333 8.333-7.667zm47 12c0 3.001-2 10.334-30 10.334 3.667-11 11-16.001 20.334-16.001 7.666-.333 9.667 3 9.667 5.667zm16.334-.999c0-10-9.001-18.667-24.667-18.667-24 0-39.667 18.667-39.667 44.333 0 19 10.667 27.999 27.667 27.999 15 0 23.333-5.332 26.333-7.999 1.667-1.333 3-3 3-6 0-4-3-7-7-7-2 0-3 .667-4.667 1.667-4 2.333-8.999 4.666-15.333 4.666-8.333 0-13.999-3.333-13.999-11.667 0-.999 0-3 .333-4.334 42.334.334 47.667-12.333 48-22.999zm34.667-47.001c.667-4.666-2.333-8-6.667-8-4.666 0-8.666 3.666-9.333 8L351.667 140c-.334 1.666-.334 3.333-.334 4.666 0 9.334 5.333 14.334 15.334 14.334 5.667 0 9.667-4.334 9.667-9 0-3.666-2.333-6.333-6-6.333-1 0-3-1.001-2.667-3.334l14.667-80.999z"/></svg>