<svg width="140" height="75" viewBox="0 0 140 75" fill="none" xmlns="http://www.w3.org/2000/svg">
<path d="M29.175 11.043v.477c0 3.306-2.33 5.843-5.698 5.843-3.367 0-6.079-2.905-6.079-6.24 0-3.337 2.778-6.305 6.239-6.305 1.866 0 3.719.846 4.899 2.328L27.48 8.154c-.861-1.18-2.313-1.963-3.782-1.963-2.698 0-4.802 2.185-4.802 4.885 0 2.523 2.075 4.917 4.677 4.917 1.866 0 3.878-1.611 3.94-3.574h-3.112v-1.373h4.773v-.003ZM38.148 17.108h-1.82l-3.543-5.094h-.623v5.094H30.66V5.07h1.82c1.07 0 2.218.017 3.176.56 1.004.591 1.577 1.725 1.577 2.872 0 1.725-1.15 3.16-2.887 3.37l3.799 5.236h.003Zm-5.983-6.337h.48c1.532 0 3.193-.289 3.193-2.202 0-1.914-1.787-2.156-3.272-2.156h-.397v4.361l-.004-.003ZM39.331 5.07h6.464v1.373h-4.962v3.37h4.82v1.372h-4.82v4.55h4.962v1.373H39.33V5.07ZM47.648 5.07h6.463v1.373H49.15v3.37h4.82v1.372h-4.82v4.55h4.962v1.373h-6.463V5.07ZM55.822 4.497l9.032 9.467V5.07h1.498v12.532L57.32 8.134v8.974h-1.498V4.497ZM0 24.237h1.468c2.268 0 4.406.59 4.406 3.303 0 .879-.481 1.9-1.293 2.282v.03c1.422.255 2.41 1.644 2.41 3.05 0 2.411-2.059 3.37-4.18 3.37H0V24.233v.003Zm1.502 5.333h.38c1.423 0 2.586-.289 2.586-2.01 0-1.721-1.15-1.98-2.552-1.98h-.414v3.99Zm0 5.365h1.15c1.389 0 2.84-.415 2.84-2.122 0-1.708-1.723-2.043-3.062-2.043h-.925v4.165h-.003ZM9.96 24.237v7.103c0 1.963.59 3.784 2.904 3.784s2.904-1.82 2.904-3.784v-7.103h1.498v7.614c0 2.653-1.644 4.68-4.405 4.68s-4.405-2.027-4.405-4.68v-7.614H9.96ZM20.8 36.271H19.3V24.234h1.498v12.037ZM24.552 34.898h3.652v1.373H23.05V24.234h1.502v10.664ZM29.07 24.237h2.489c3.686 0 6.751 1.947 6.751 5.956 0 4.01-3 6.082-6.798 6.082H29.07V24.237Zm1.5 10.665h.528c3.063 0 5.711-1.15 5.711-4.646 0-3.495-2.648-4.646-5.711-4.646h-.527v9.292ZM41.264 36.271h-1.498V24.234h1.498v12.037ZM43.372 23.66l9.032 9.464v-8.89h1.502v12.532L44.873 27.3v8.97h-1.501v-12.61ZM67.009 30.206v.478c0 3.303-2.33 5.843-5.698 5.843-3.368 0-6.08-2.905-6.08-6.241s2.778-6.307 6.239-6.307c1.866 0 3.719.845 4.899 2.33l-1.054 1.006c-.862-1.18-2.314-1.963-3.782-1.963-2.698 0-4.803 2.188-4.803 4.884 0 2.52 2.075 4.918 4.674 4.918 1.866 0 3.878-1.612 3.94-3.578h-3.112v-1.373h4.773l.004.003ZM9.878 45.699c-.862-.766-2.042-1.18-3.176-1.18-2.698 0-4.756 2.251-4.756 4.917s2.042 4.885 4.723 4.885c1.18 0 2.314-.448 3.209-1.247v1.774a6.54 6.54 0 0 1-3.16.846c-3.43 0-6.27-2.73-6.27-6.211 0-3.482 2.857-6.337 6.4-6.337 1.054 0 2.121.255 3.033.815v1.741l-.003-.003ZM23.431 49.42c0 3.574-2.824 6.274-6.3 6.274-3.478 0-6.305-2.7-6.305-6.274 0-3.575 2.857-6.274 6.304-6.274s6.301 2.825 6.301 6.274Zm-1.501 0c0-2.65-1.98-4.872-4.803-4.872-2.824 0-4.803 2.219-4.803 4.872 0 2.652 2.2 4.868 4.803 4.868 2.602 0 4.803-2.123 4.803-4.868ZM26.179 43.398V50.5c0 1.963.59 3.783 2.904 3.783 2.313 0 2.903-1.82 2.903-3.783v-7.103h1.498v7.613c0 2.653-1.644 4.68-4.405 4.68-2.76 0-4.405-2.027-4.405-4.68v-7.613h1.505ZM35.423 42.824l9.033 9.467v-8.893h1.501v12.531l-9.032-9.467v8.973h-1.502V42.824ZM56.856 45.699c-.862-.766-2.042-1.18-3.175-1.18-2.699 0-4.757 2.251-4.757 4.917s2.042 4.885 4.723 4.885c1.18 0 2.314-.448 3.209-1.247v1.774c-.925.54-2.105.846-3.159.846-3.43 0-6.271-2.73-6.271-6.211 0-3.482 2.857-6.337 6.4-6.337 1.054 0 2.122.255 3.03.815v1.741-.003ZM60.1 55.435h-1.5V43.398h1.5v12.037ZM63.85 54.066h3.652v1.372h-5.154V43.401h1.498v10.664h.004ZM6.195 63.28v4.375h3.974v.716H6.195V74.6H5.43V62.56h4.853v.72H6.195ZM13.282 74.602h-.766V62.565h.766v12.037ZM26.733 75l-10.1-10.744v10.346h-.766V62.405l10.1 10.665V62.565h.766V75ZM30.09 73.882h3.063v.72h-3.828V62.565h.765v11.317ZM35.725 70.643l-1.61 3.96h-.783l5.042-12.436 5.025 12.435h-.783l-1.61-3.96h-5.28Zm2.649-6.53-2.36 5.81h4.706l-2.346-5.81ZM55.643 75l-10.1-10.744v10.346h-.766V62.405l10.1 10.665V62.565h.766V75ZM58.231 62.565h2.172c1.756 0 3.142.288 4.468 1.515 1.263 1.18 1.916 2.796 1.916 4.52 0 1.724-.637 3.24-1.85 4.407-1.326 1.277-2.745 1.595-4.531 1.595h-2.171V62.565h-.004Zm2.155 11.317c1.578 0 2.887-.318 4.037-1.452a5.413 5.413 0 0 0 1.594-3.83c0-1.532-.606-2.971-1.74-4.006-1.147-1.038-2.393-1.31-3.894-1.31h-1.39v10.598H60.387Z" fill="#000"/><path d="M82.2 10.432c-3.733 4.925-6.053 13.036-7.478 21.853h22.53v4.991H78.002v13.208h18.131v4.931h-18.13V74.57c5.995.209 16.277.225 26.228-1.376V32.289h5.867v39.743c8.051-1.927 15.227-5.18 18.83-10.598C140.04 44.727 140 .212 140 .212S91.901-2.364 82.2 10.43v.003Z" fill="#000"/></svg>