<svg width="193" height="39" viewBox="0 0 193 39" fill="none" xmlns="http://www.w3.org/2000/svg"><path d="M137.866 26.392v-5.03c0-.542-.435-.936-.966-.936h-9.338c-.533 0-.968.394-.968.935v5.031c0 .543.435.937.968.937h9.337c.53 0 .965-.394.965-.937m-19.011 11.344v-21.8c0-12.082-6.192-14.35-15.963-14.35-2.081 0-7.884.443-10.354.837-2.224.345-2.949.938-2.949 3.602v31.711a.98.98 0 00.968.987h7.936c.528 0 .963-.444.963-.987V10.414c1.404-.198 3.098-.248 4.597-.248 3.243 0 4.935 1.086 4.935 5.77v21.801c0 .54.386.986.917.986h7.985a.98.98 0 00.965-.987zm-38.94 0v-21.8c0-12.082-6.193-14.35-15.966-14.35-2.078 0-7.884.443-10.35.837-2.227.345-2.953.938-2.953 3.602v31.711a.98.98 0 00.968.987h7.934a.98.98 0 00.968-.987V10.414c1.403-.198 3.095-.248 4.596-.248 3.24 0 4.933 1.086 4.933 5.77v21.801c0 .54.388.986.92.986h7.982a.98.98 0 00.968-.987zm-38.7-.098V11.052c0-.54-.533-1.035-1.066-1.035H32.94c-.531 0-1.064.495-1.064 1.035v26.586c0 .542.533 1.085 1.064 1.085h7.208c.53 0 1.065-.543 1.065-1.085zm.242-31.317V1.485c0-.542-.532-.987-1.065-.987H32.75c-.532 0-1.112.444-1.112.987v4.833c0 .543.58.987 1.113.987h7.644c.531 0 1.065-.444 1.065-.987m-18.43 2.91V3.212c0-.591-.34-.887-.968-.987-1.838-.246-4.839-.591-9.532-.591-6.19 0-12.384 1.53-12.384 11.048v25.054a.98.98 0 00.968.987h7.884a.98.98 0 00.969-.987v-13.71h11.898a.98.98 0 00.968-.988v-5.817a.98.98 0 00-.97-.988H9.968v-3.548c0-1.927.58-2.47 2.32-2.47h9.772a.98.98 0 00.968-.986M182.96 22.776c0 5.968-1.938 7.547-5.804 7.547-.631 0-2.418 0-2.758-.048V9.905c.342 0 2.178-.05 2.759-.05 3.868 0 5.805 1.579 5.805 7.498v5.425l-.002-.002zm9.919 0v-5.424c.001-11.096-6.143-16.076-15.725-16.076-4.644 0-8.563.396-11.077.84-1.062.197-1.548.59-1.548 1.921v32.06c0 1.33.486 1.725 1.55 1.921 2.515.444 6.483.84 11.078.84 9.627 0 15.723-4.982 15.723-16.08m-37.785 14.547v-26.58c0-.542-.533-1.034-1.065-1.034h-7.209c-.53 0-1.064.492-1.064 1.034v26.58c0 .544.531 1.086 1.063 1.086h7.208c.532 0 1.066-.542 1.066-1.085m.24-31.317V1.177c0-.542-.532-.987-1.064-.987h-7.644c-.534 0-1.113.447-1.113.988v4.83c0 .544.577.988 1.111.988h7.643c.533 0 1.064-.444 1.064-.987" fill="currentColor"></path></svg>
