<svg width="100" height="19" viewBox="0 0 100 19" fill="none" xmlns="http://www.w3.org/2000/svg">
<g clip-path="url(#clip0_491_346)">
<path fill-rule="evenodd" clip-rule="evenodd" d="M17.6202 8.81724H9.05684C8.99118 8.81706 8.92613 8.83 8.8654 8.85532C8.80467 8.88064 8.74945 8.91784 8.7029 8.9648C8.65635 9.01176 8.61937 9.06755 8.59408 9.129C8.56879 9.19046 8.55568 9.25636 8.55551 9.32294V11.4749C7.43951 11.2112 6.72418 10.1592 6.89351 8.99099C6.95968 8.555 7.15341 8.1492 7.44962 7.82616C7.74583 7.50311 8.13086 7.2777 8.55484 7.17912C8.91859 7.09321 9.29787 7.10216 9.65729 7.20513C10.0167 7.3081 10.3445 7.50174 10.6102 7.76798C10.706 7.86185 10.8343 7.91381 10.9675 7.91265C11.1028 7.91265 11.2335 7.85992 11.3242 7.76798L15.4682 3.5939C15.5147 3.54692 15.5516 3.49108 15.5768 3.42959C15.602 3.3681 15.615 3.30217 15.615 3.23558C15.615 3.169 15.602 3.10307 15.5768 3.04158C15.5516 2.98009 15.5147 2.92425 15.4682 2.87726C13.6228 1.01671 11.1648 0.0708847 8.54618 0.216916C6.32018 0.339962 4.23351 1.26618 2.67018 2.82521C1.10327 4.39249 0.159975 6.48979 0.0201756 8.71718C-0.145824 11.2687 0.716842 13.6998 2.44884 15.5631C3.29967 16.4751 4.32468 17.2019 5.46141 17.6993C6.59815 18.1966 7.82282 18.4541 9.06084 18.456C14.0562 18.456 18.1228 14.3604 18.1235 9.327C18.1233 9.19174 18.0702 9.06208 17.9759 8.9665C17.8815 8.87092 17.7536 8.81724 17.6202 8.81724ZM9.56551 17.4223V9.83608H17.0975C16.9755 11.7899 16.1395 13.641 14.7415 15.0493C13.3574 16.4513 11.5177 17.2943 9.56551 17.4223ZM5.85884 9.33038C5.85884 10.9029 7.01618 12.2686 8.55551 12.5147V17.423C6.51901 17.3013 4.60441 16.3985 3.20018 14.8978C1.79101 13.3964 1.00687 11.4018 1.01084 9.32903C1.01084 4.85816 4.62218 1.22021 9.06084 1.22021C11.0268 1.22021 12.9162 1.93955 14.3842 3.2464L10.9402 6.71668C10.3939 6.31553 9.73599 6.1008 9.06151 6.10348C7.29551 6.10348 5.85951 7.55028 5.85951 9.32903M62.1868 0.202043H56.5775C56.3042 0.202043 56.0815 0.425147 56.0815 0.700309V17.2817C56.0815 17.5568 56.3042 17.7799 56.5775 17.7799H62.1875C67.0168 17.7799 70.9462 13.8371 70.9462 8.99099C70.9462 4.1449 67.0168 0.202043 62.1868 0.202043ZM62.6835 11.051V6.931C63.1435 7.03752 63.5542 7.2994 63.8482 7.67369C64.1422 8.04799 64.302 8.51248 64.3015 8.99099C64.302 9.46951 64.1422 9.934 63.8482 10.3083C63.5542 10.6826 63.1435 10.9445 62.6835 11.051ZM62.6835 16.7679V12.0692C64.1735 11.8291 65.2948 10.5095 65.2948 8.99099C65.2948 7.47253 64.1735 6.15351 62.6835 5.91283V1.21412C64.6443 1.33255 66.4879 2.20033 67.8428 3.64258C69.1999 5.0828 69.9558 6.99898 69.9529 8.99099C69.9529 10.9908 69.2035 12.8899 67.8428 14.3394C66.4879 15.7817 64.6443 16.6494 62.6835 16.7679ZM57.0742 16.7834H61.6908V1.19857H57.0735L57.0742 16.7834ZM79.2222 0.202043H73.4815C73.4158 0.200879 73.3506 0.212844 73.2895 0.237256C73.2284 0.261668 73.1726 0.298048 73.1254 0.344318C73.0782 0.390588 73.0404 0.445842 73.0142 0.506924C72.988 0.568006 72.974 0.633718 72.9728 0.700309V17.2817C72.974 17.3483 72.988 17.414 73.0142 17.4751C73.0404 17.5361 73.0782 17.5914 73.1254 17.6377C73.1726 17.6839 73.2284 17.7203 73.2895 17.7447C73.3506 17.7691 73.4158 17.7811 73.4815 17.7799H79.2215C79.2872 17.7811 79.3524 17.7691 79.4135 17.7447C79.4746 17.7203 79.5304 17.6839 79.5776 17.6377C79.6249 17.5914 79.6627 17.5361 79.6888 17.4751C79.715 17.414 79.729 17.3483 79.7302 17.2817V0.700309C79.7279 0.565942 79.6731 0.437988 79.5779 0.344561C79.4826 0.251133 79.3547 0.199873 79.2222 0.202043ZM73.9888 16.7834H78.7135V1.19857H73.9895L73.9888 16.7834ZM33.7842 7.65101C33.7842 3.4046 30.4588 0.202043 26.0495 0.202043H20.0975C19.9657 0.2006 19.8388 0.252266 19.7445 0.345691C19.6503 0.439117 19.5964 0.566662 19.5948 0.700309V17.2817C19.5948 17.5568 19.8195 17.7799 20.0975 17.7799H33.2622C33.6802 17.7799 33.9155 17.304 33.6588 16.9768L30.9428 13.518C32.7488 12.1354 33.7842 9.99834 33.7842 7.65101ZM20.6002 14.1035V1.96659L29.4802 13.2773C28.4628 13.8256 27.3088 14.1035 26.0495 14.1035H20.6002ZM30.3255 12.7317L21.2715 1.19857H26.0495C29.9488 1.19857 32.7782 3.91233 32.7782 7.65101C32.7782 9.68937 31.8848 11.5398 30.3255 12.7317ZM32.2322 16.7834H20.6002V15.1H26.0495C27.5188 15.1 28.9208 14.745 30.1048 14.073L32.2322 16.7841V16.7834ZM99.9715 17.1181L94.0182 0.533319C93.9822 0.435573 93.9176 0.351379 93.8329 0.292129C93.7483 0.232878 93.6477 0.201431 93.5448 0.202043H87.5362C87.4333 0.201431 87.3327 0.232878 87.2481 0.292129C87.1634 0.351379 87.0988 0.435573 87.0628 0.533319L81.1108 17.116C80.9949 17.4399 81.2368 17.7799 81.5842 17.7799H87.5935C87.8062 17.7799 87.9962 17.6474 88.0668 17.4487L90.5402 10.5581L93.0135 17.4487C93.0848 17.6474 93.2748 17.7799 93.4868 17.7799H99.5002C99.5798 17.7802 99.6583 17.7613 99.7293 17.7249C99.8003 17.6884 99.8618 17.6355 99.9088 17.5704C99.955 17.5059 99.9848 17.431 99.9957 17.3521C100.007 17.2733 99.9983 17.1929 99.9715 17.1181ZM82.2975 16.7834L87.5362 2.18699L90.0068 9.07077L87.2388 16.7834H82.2975ZM98.7842 16.7834H93.8428L91.0742 9.07077L93.5448 2.18699L98.7842 16.7834ZM92.8322 1.19857L90.5402 7.58408L88.2488 1.19857H92.8322ZM48.0728 0.533319C48.0368 0.435628 47.9722 0.351489 47.8875 0.292251C47.8029 0.233013 47.7024 0.201528 47.5995 0.202043H41.5902C41.4873 0.201528 41.3868 0.233013 41.3022 0.292251C41.2175 0.351489 41.1529 0.435628 41.1168 0.533319L35.1648 17.116C35.0488 17.4399 35.2908 17.7799 35.6382 17.7799H41.6475C41.8608 17.7799 42.0502 17.6474 42.1208 17.4487L44.5942 10.5575L47.0675 17.4487C47.1388 17.6474 47.3288 17.7799 47.5408 17.7799H53.5542C53.6338 17.7801 53.7122 17.7612 53.7833 17.7248C53.8543 17.6884 53.9158 17.6355 53.9628 17.5704C54.0091 17.5058 54.039 17.4308 54.0499 17.3518C54.0608 17.2728 54.0525 17.1923 54.0255 17.1174L48.0728 0.533319ZM44.0602 9.07077L41.2935 16.7834H36.3522L41.5908 2.18699L44.0615 9.07077H44.0602ZM47.8962 16.7834L45.1275 9.07077L47.5982 2.18699L52.8368 16.7834H47.8962ZM46.8862 1.19857L44.5948 7.58408L42.3028 1.19857H46.8862Z" fill="#1C1E26"/>
</g>
<defs>
<clipPath id="clip0_491_346">
<rect width="100" height="18.254" fill="white" transform="translate(0 0.201965)"/>
</clipPath>
</defs>
</svg>
