<svg class="is-bigger" width="150" height="27" xmlns="http://www.w3.org/2000/svg" viewBox="0 0 150 27"><g fill-rule="evenodd"><path d="M26.43 12.743H13.585a.75.75 0 0 0-.752.748v3.183c-1.674-.39-2.747-1.946-2.493-3.674a3.258 3.258 0 0 1 2.492-2.68 3.316 3.316 0 0 1 3.083.871.762.762 0 0 0 .536.214c.203 0 .399-.078.535-.214l6.216-6.174a.748.748 0 0 0 0-1.06C20.434 1.205 16.747-.194 12.819.022 9.48.204 6.35 1.574 4.005 3.88A13.44 13.44 0 0 0 .03 12.595c-.249 3.774 1.045 7.37 3.643 10.126A13.682 13.682 0 0 0 13.591 27c7.493 0 13.593-6.058 13.594-13.503a.755.755 0 0 0-.755-.754M14.348 25.471V14.25h11.298c-.183 2.89-1.437 5.628-3.534 7.711a12.09 12.09 0 0 1-7.764 3.511m-5.56-11.97c0 2.326 1.736 4.346 4.045 4.71v7.26A12.051 12.051 0 0 1 4.8 21.737 11.914 11.914 0 0 1 1.516 13.5c0-6.613 5.417-11.994 12.075-11.994 2.949 0 5.783 1.064 7.985 2.997L16.41 9.636a4.773 4.773 0 0 0-2.818-.907c-2.649 0-4.803 2.14-4.803 4.771M93.28 0h-8.414c-.41 0-.744.33-.744.737v24.526c0 .407.334.737.744.737h8.415c7.244 0 13.138-5.832 13.138-13S100.525 0 93.28 0Zm.745 16.047V9.953A3.122 3.122 0 0 1 96.452 13a3.122 3.122 0 0 1-2.427 3.047Zm0 8.456v-6.95c2.235-.355 3.917-2.307 3.917-4.553s-1.682-4.197-3.917-4.553v-6.95a11.645 11.645 0 0 1 7.739 3.592A11.426 11.426 0 0 1 104.929 13c0 2.958-1.124 5.767-3.165 7.911a11.645 11.645 0 0 1-7.739 3.592Zm-8.414.023h6.925V1.474H85.61v23.052ZM118.833 0h-8.611a.75.75 0 0 0-.763.737v24.526a.75.75 0 0 0 .763.737h8.61a.75.75 0 0 0 .763-.737V.737a.75.75 0 0 0-.762-.737Zm-7.85 24.526h7.087V1.474h-7.086v23.052ZM50.676 11.018C50.676 4.737 45.688 0 39.074 0h-8.928a.746.746 0 0 0-.754.737v24.526c0 .407.337.737.754.737h19.747c.627 0 .98-.704.595-1.188l-4.074-5.116c2.709-2.045 4.262-5.206 4.262-8.678ZM30.9 20.562V2.61l13.32 16.73c-1.526.811-3.257 1.222-5.146 1.222H30.9Zm14.588-2.029L31.907 1.474h7.167c5.849 0 10.093 4.014 10.093 9.544 0 3.015-1.34 5.752-3.679 7.515Zm2.86 5.993H30.9v-2.49h8.174c2.204 0 4.307-.525 6.083-1.519l3.191 4.01ZM149.957 25.021 141.027.49a.753.753 0 0 0-.71-.49h-9.013a.753.753 0 0 0-.71.49l-8.928 24.528c-.174.479.189.982.71.982h9.014c.319 0 .604-.196.71-.49l3.71-10.192 3.71 10.192c.107.294.392.49.71.49h9.02a.757.757 0 0 0 .613-.31.72.72 0 0 0 .094-.669Zm-26.511-.495 7.858-21.59 3.706 10.182-4.152 11.408h-7.412Zm24.73 0h-7.412l-4.153-11.408 3.706-10.182 7.858 21.59Zm-8.928-23.052-3.438 9.445-3.437-9.445h6.875ZM72.109.49a.754.754 0 0 0-.71-.49h-9.014a.754.754 0 0 0-.71.49l-8.928 24.528c-.174.479.189.982.71.982h9.014c.32 0 .604-.196.71-.49l3.71-10.193 3.71 10.193c.107.294.392.49.71.49h9.02a.758.758 0 0 0 .613-.31.72.72 0 0 0 .094-.67L72.108.49ZM66.09 13.118 61.94 24.526h-7.412l7.858-21.59 3.706 10.182Zm5.754 11.408-4.153-11.408 3.706-10.182 7.858 21.59h-7.411ZM70.329 1.474l-3.437 9.445-3.438-9.445h6.875Z" fill="currentColor" /></g></svg>
