<svg width="100" height="32" viewBox="0 0 100 32" fill="none" xmlns="http://www.w3.org/2000/svg">
<g clip-path="url(#clip0_491_355)">
<path fill-rule="evenodd" clip-rule="evenodd" d="M28.1945 29.1476V26.9927H29.57C30.2089 26.9927 30.6789 27.4224 30.6789 28.0662C30.6789 28.7179 30.1945 29.1476 29.57 29.1476H28.1945ZM30.075 29.5626C30.7639 29.3911 31.2472 28.847 31.2472 28.0735C31.2472 27.1642 30.5806 26.4627 29.5695 26.4627H27.6117V31.4821H28.2011V29.6419H29.4856L30.8473 31.4821H31.465V31.396L30.075 29.5626ZM35.1856 26.4695H32.3289V31.4821H35.2628V30.9306H32.9184V29.155H35.1084V28.6324H32.9184V26.9927H35.1856V26.4695Z" fill="#1C1E26"/>
<mask id="mask0_491_355" style="mask-type:luminance" maskUnits="userSpaceOnUse" x="35" y="26" width="5" height="6">
<path d="M35.9506 26.3829H39.8256V31.5681H35.9506V26.3829Z" fill="white"/>
</mask>
<g mask="url(#mask0_491_355)">
<path fill-rule="evenodd" clip-rule="evenodd" d="M35.9506 30.114C35.9856 31.1445 37.0106 31.5889 37.9228 31.5674C38.8145 31.5459 39.8256 31.1592 39.8256 30.0851C39.8256 28.9753 38.9128 28.7964 37.9367 28.6815C37.3406 28.6028 36.6311 28.5739 36.6311 27.8299C36.6311 27.1708 37.3056 26.9415 37.8456 26.9206C38.4072 26.9206 39.0672 27.121 39.1233 27.758H39.6711C39.6356 26.7841 38.6811 26.3617 37.8322 26.3833C36.9683 26.3833 36.0489 26.8487 36.0489 27.8367C36.0489 28.8389 36.9472 29.0755 37.8389 29.169C38.5056 29.2618 39.25 29.276 39.25 30.0851C39.2289 30.8155 38.5056 31.0233 37.9161 31.0442C37.3122 31.0442 36.5545 30.7866 36.5195 30.114H35.9506Z" fill="#1C1E26"/>
</g>
<path fill-rule="evenodd" clip-rule="evenodd" d="M41.7561 27.0068V31.4821H42.3244V27.0068H43.8406V26.4701H40.24V27.0068H41.7561ZM46.0311 27.3862L47.0628 29.728H44.9989L46.0311 27.3862ZM47.2589 30.2432L47.835 31.4821H48.4383V31.4028L46.1717 26.4485H45.905L43.6161 31.4028V31.4821H44.2272L44.8028 30.2432H47.2589ZM50.9167 31.5466C51.9767 31.5466 52.7833 30.9017 52.7833 29.7778V26.4695H52.2083V29.7705C52.2083 30.5654 51.6611 31.0093 50.9167 31.0093C50.1656 31.0093 49.6183 30.5654 49.6183 29.7705V26.4695H49.0278V29.7778C49.0278 30.9017 49.8494 31.5466 50.9167 31.5466ZM54.6228 29.1476V26.9927H55.9989C56.6378 26.9927 57.1078 27.4224 57.1078 28.0662C57.1078 28.7179 56.6233 29.1476 55.9989 29.1476H54.6228ZM56.5044 29.5627C57.1922 29.3911 57.6767 28.847 57.6767 28.0735C57.6767 27.1642 57.01 26.4627 55.9989 26.4627H54.0406V31.4821H54.6294V29.6419H55.9144L57.2767 31.4821H57.8944V31.396L56.5044 29.5627ZM60.5828 27.3862L61.6144 29.728H59.5506L60.5828 27.3862ZM61.8106 30.2432L62.3867 31.4821H62.99V31.4028L60.7233 26.4485H60.4567L58.1678 31.4028V31.4821H58.7789L59.3539 30.2432H61.8106ZM67.455 31.4821H67.6439V26.4627H67.055V28.8079L67.1178 30.2449L63.9167 26.4553H63.7133V31.4821H64.2961V29.0689L64.2467 27.6942L67.455 31.4821ZM69.9394 27.0068V31.4821H70.5083V27.0068H72.0244V26.4701H68.4233V27.0068H69.9394ZM13.7428 28.2644H11.0667V28.4229C11.4978 28.4229 11.5622 28.5191 11.5622 28.7258V30.968C11.5622 31.2267 11.4544 31.2709 11.0711 31.2709V31.4294H13.79L13.8594 30.1894H13.7261C13.5533 31.1124 13.4111 31.2709 12.4928 31.2709C12.0494 31.2709 11.9933 31.1871 11.9933 30.9323V29.8639C12.545 29.8639 12.76 29.9828 12.8122 30.5677H12.92V29.0814H12.8078C12.7778 29.6657 12.5022 29.7053 11.9933 29.7053V28.7252C11.9933 28.4874 12.0406 28.4218 12.5406 28.4218C13.385 28.4218 13.4628 28.5492 13.6439 29.3843H13.7644L13.7428 28.2632V28.2644ZM14.4667 30.1809C14.4667 30.4267 14.4878 30.6775 14.4878 30.9238C14.4878 31.2618 14.4794 31.4028 14.4711 31.5172H14.5911C14.6261 31.3938 14.7167 31.2182 14.8672 31.2182C15.035 31.2182 15.2117 31.5172 15.7033 31.5172C16.2289 31.5172 16.7072 31.2443 16.7072 30.6684C16.7072 29.2665 14.725 29.8644 14.725 28.8974C14.725 28.5412 14.9967 28.3346 15.3194 28.3346C15.9317 28.3346 16.2594 28.8974 16.3844 29.433H16.5006C16.5006 29.2269 16.4789 29.0202 16.4789 28.8136C16.4789 28.6069 16.5006 28.3963 16.5006 28.176H16.3839C16.3494 28.2779 16.285 28.4574 16.1683 28.4574C15.9833 28.4574 15.7461 28.176 15.3589 28.176C14.8372 28.176 14.4839 28.5016 14.4839 28.9897C14.4839 30.335 16.4489 29.869 16.4489 30.7392C16.4489 31.1695 16.1083 31.3586 15.7078 31.3586C15.1128 31.3586 14.695 30.7522 14.5783 30.1809H14.4667ZM16.9783 29.4862H17.1078C17.1939 28.77 17.3317 28.4223 18.09 28.4223V30.8842C18.09 31.2352 18.0256 31.2709 17.5428 31.2709V31.4294H19.0683V31.2709C18.5856 31.2709 18.5211 31.2358 18.5211 30.8842V28.4223C19.2794 28.4223 19.4044 28.8181 19.5033 29.4862H19.6372L19.5939 28.2644H17.0128L16.9783 29.4862ZM19.965 30.9193C19.7967 30.9193 19.6722 31.0427 19.6722 31.2137C19.6722 31.3853 19.7967 31.5081 19.965 31.5081C20.1333 31.5081 20.2578 31.3853 20.2578 31.2137C20.2578 31.0427 20.1333 30.9193 19.965 30.9193ZM79.6211 30.981C80.0006 30.0671 81.4417 29.685 81.4417 28.9053C81.4417 28.3096 80.9939 27.932 80.3756 27.932C79.7817 27.932 79.3339 28.3838 79.3339 28.8759C79.3339 29.1437 79.4267 29.3673 79.7183 29.3673C79.8939 29.3673 80.03 29.2178 80.03 29.0446C80.03 28.8458 79.8983 28.7066 79.7039 28.7066C79.6794 28.7066 79.6406 28.7213 79.6117 28.7213C79.5867 28.7213 79.5672 28.7117 79.5672 28.6771C79.5672 28.4535 79.8889 28.1013 80.2683 28.1013C80.6578 28.1013 80.9161 28.2898 80.9161 28.8311C80.9161 29.4415 80.2883 29.7399 79.7139 30.4895C79.5044 30.7624 79.2417 31.0897 79.2417 31.229V31.4577H81.3783L81.4467 30.4244H81.3006C81.1839 30.9612 81.1495 30.981 80.6483 30.981H79.6211ZM82.8339 31.5172C83.3161 31.5172 83.91 30.8519 83.91 29.7246C83.91 28.5978 83.3156 27.932 82.8339 27.932C82.3522 27.932 81.7533 28.5973 81.7533 29.7246C81.7533 30.8513 82.3522 31.5172 82.8339 31.5172ZM82.8339 31.3485C82.4883 31.3485 82.2789 31.1101 82.2789 29.7246C82.2789 28.3391 82.4883 28.1013 82.8344 28.1013C83.1795 28.1013 83.3844 28.3391 83.3844 29.7246C83.3844 31.1101 83.1795 31.3485 82.8344 31.3485M86.1489 31.4577V31.2788C85.7111 31.2788 85.5556 31.229 85.5556 30.8915V27.932H85.4189C85.2 28.2547 84.8011 28.2944 84.46 28.2944V28.4931C85.0006 28.4931 85.1078 28.5678 85.1078 28.8753V30.891C85.1078 31.229 84.9522 31.2788 84.46 31.2788V31.4577H86.1489ZM88.7345 30.5535C88.7345 30.0722 88.2422 29.7099 87.605 29.6748V29.6651V29.6702C87.9606 29.6006 88.6322 29.382 88.6322 28.7864C88.6322 28.27 88.1544 27.932 87.5611 27.932C87.0306 27.932 86.685 28.2745 86.685 28.7264C86.685 28.9404 86.7972 29.1142 87.0206 29.1142C87.2011 29.1142 87.3083 28.9602 87.3083 28.8255C87.3083 28.7066 87.225 28.5084 86.9967 28.5084C86.9622 28.5084 86.9333 28.5129 86.9089 28.5186C86.9572 28.2004 87.2106 28.0815 87.5028 28.0815C87.96 28.0815 88.1361 28.3544 88.1361 28.7864C88.1361 29.2529 87.96 29.5757 87.4689 29.5757C87.4006 29.5757 87.3272 29.561 87.2595 29.561C87.1861 29.561 87.1133 29.5904 87.1133 29.6799C87.1133 29.7789 87.1911 29.7942 87.2689 29.7942C87.3422 29.7942 87.42 29.7744 87.4883 29.7744C88.0233 29.7744 88.2089 30.0377 88.2089 30.549C88.2089 31.0404 88.0478 31.3683 87.5267 31.3683C87.0156 31.3683 86.7872 30.9906 86.7822 30.8519C86.8556 30.8666 86.9139 30.8717 87.0011 30.8717C87.0889 30.8717 87.2639 30.797 87.2639 30.5835C87.2639 30.4046 87.1139 30.2664 86.9428 30.2664C86.685 30.2664 86.5872 30.5093 86.5872 30.7081C86.5872 31.1695 86.9867 31.5172 87.5761 31.5172C88.2233 31.5172 88.7345 31.1191 88.7345 30.5535ZM9.49611 5.20351C9.40444 5.54323 9.37389 5.87276 9.40389 6.19153C9.43833 6.50237 9.50556 6.8336 9.605 7.18578L13.0178 19.3257C13.1206 19.6926 13.2189 19.9769 13.3128 20.1779C13.4744 20.5119 13.6817 20.8103 13.935 21.0719L11.1144 21.8968C11.2222 21.56 11.2528 21.2044 11.2072 20.8279C11.1822 20.607 11.115 20.3024 11.0061 19.914L8.57444 11.2641C8.34778 11.1243 8.12444 11.0331 7.90333 10.9912C7.68667 10.9403 7.475 10.9442 7.26778 11.0048C7.005 11.0818 6.59389 11.336 6.03444 11.7664C5.76389 11.9758 5.50778 12.1151 5.26611 12.1853C5.05889 12.2465 4.81778 12.2941 4.54333 12.3286C4.27333 12.3541 4.04167 12.3535 3.84667 12.3263L6.36167 21.2723C6.465 21.6398 6.56333 21.9235 6.65778 22.1245C6.81889 22.4585 7.02611 22.7569 7.27889 23.0185L4.45944 23.8434C4.56667 23.5071 4.59722 23.151 4.55167 22.775C4.52611 22.5531 4.45944 22.2485 4.35056 21.8612L0.937778 9.72123C0.830556 9.34018 0.73 9.04915 0.636667 8.84758C0.469444 8.49257 0.257222 8.20381 0 7.98129L2.84056 7.15011C2.74722 7.48304 2.715 7.8086 2.745 8.12794C2.78222 8.44501 2.85 8.78077 2.94889 9.13295L3.29333 10.3593C3.49667 10.4148 3.67333 10.4465 3.82611 10.4556C3.98278 10.4556 4.165 10.425 4.37222 10.3644C4.69 10.2716 4.99556 10.121 5.28889 9.91318C5.98778 9.41888 6.465 9.13465 6.72056 9.05934C7.19056 8.92175 7.60222 8.92345 7.95611 9.06444L7.59333 7.77406C7.48667 7.39358 7.38556 7.10255 7.29167 6.90098C7.125 6.54597 6.91222 6.25721 6.65556 6.03469L9.49611 5.20351ZM21.7039 12.7397L16.855 13.7011C16.8283 12.9073 16.9228 11.9991 17.1383 10.9776C17.3856 9.77785 17.7511 8.69697 18.2344 7.73443C18.8067 6.59013 19.4844 5.74593 20.2678 5.20237L21.7039 12.7397ZM25.1778 18.9769L22.2978 19.5477C22.4339 19.2221 22.495 18.8705 22.4811 18.4917C22.4756 18.2686 22.4344 17.9595 22.3589 17.5631L21.7833 14.5396L17.1672 15.4546C17.2044 15.6488 17.26 15.9596 17.3339 16.3854C17.4072 16.8118 17.465 17.1328 17.5061 17.3485C17.6406 18.0546 17.7839 18.6497 17.935 19.1355C18.085 19.6207 18.2767 20.0091 18.5083 20.299L15.5439 20.8867C15.6894 20.5374 15.7772 20.1914 15.8072 19.8489C15.8439 19.5052 15.8333 19.1785 15.7744 18.8694L15.3094 16.4285C14.9528 14.5566 14.98 12.6236 15.3911 10.6294C15.8078 8.62676 16.5633 6.92306 17.6578 5.51775C18.8294 4.01561 20.0856 3.13177 21.4261 2.86509L21.6911 2.813C21.7683 2.79715 21.9022 2.78639 22.0911 2.77846C21.9833 3.09893 21.93 3.41544 21.9317 3.72911C21.9383 4.0343 21.9739 4.3559 22.0383 4.69392L24.4133 17.156C24.4844 17.5303 24.5578 17.8219 24.635 18.0308C24.7667 18.3785 24.9483 18.6944 25.1778 18.9769ZM31.6344 3.69231C31.6556 3.89614 31.6344 4.11696 31.5722 4.35137C31.5094 4.58691 31.4228 4.79867 31.3122 4.98778C30.8528 5.78952 30.4378 6.49784 30.0672 7.11274C29.6528 7.79105 29.2417 8.46993 28.8344 9.1471L28.2789 10.07L27.5956 3.43979L30.4917 3.12894C30.8994 3.08534 31.1833 3.10629 31.3439 3.19236C31.5111 3.27106 31.6072 3.43695 31.6344 3.69231ZM36.7283 17.3491L33.3817 17.7081C33.4444 17.5467 33.485 17.3763 33.5028 17.1974C33.5278 17.0179 33.5306 16.8373 33.5122 16.6544C33.4917 16.4573 33.4494 16.2592 33.3856 16.0599C33.3217 15.86 33.2539 15.6941 33.1822 15.5616C32.8306 14.8839 32.4772 14.192 32.1228 13.4848C32.04 13.3166 31.71 12.6372 31.1317 11.4453L30.4706 10.0779L28.8272 12.8648L29.1717 16.2127C29.2111 16.5921 29.2594 16.8888 29.3183 17.1039C29.42 17.4618 29.5739 17.7924 29.7783 18.0948L26.8606 18.4073C27.0233 18.0948 27.1144 17.75 27.1333 17.3712C27.1461 17.1492 27.1322 16.8373 27.0917 16.4358L25.7972 3.87576C25.7567 3.48168 25.7067 3.17763 25.6489 2.96248C25.5444 2.58312 25.3844 2.26039 25.1694 1.99597L32.1628 1.24632C32.7489 1.18404 33.215 1.25198 33.5611 1.45015C33.9528 1.6738 34.1761 2.04806 34.23 2.57293C34.2633 2.90133 34.2233 3.24501 34.1083 3.60398C34.0156 3.89445 33.8472 4.25908 33.6028 4.69789C33.3911 5.09706 33.0644 5.68138 32.6233 6.45141C32.3844 6.86757 32.1172 7.3279 31.8222 7.83125C32 8.22533 32.2333 8.74284 32.5239 9.38264C33.1589 10.7744 33.5833 11.6984 33.7961 12.1553C34.2333 13.0969 34.6906 14.0651 35.1694 15.0611C35.3711 15.4744 35.6206 15.8934 35.9172 16.3192C36.0783 16.5457 36.3478 16.8882 36.7283 17.3491ZM52.1872 17.4816L48.8233 17.4216C49.0011 17.1096 49.1289 16.7891 49.2067 16.4602C49.2839 16.1238 49.325 15.8022 49.3306 15.4937L48.6133 3.20198L45.0689 6.08791L41.7761 3.14649L40.6394 15.3391C40.6339 15.6692 40.6606 15.9925 40.72 16.309C40.7867 16.6261 40.9067 16.9505 41.0811 17.284L37.7167 17.2234C37.9744 16.8542 38.1744 16.5055 38.3167 16.1782C38.4661 15.8509 38.5428 15.5514 38.5478 15.2796C38.6928 13.9479 38.8561 12.3807 39.0383 10.579C39.22 8.77851 39.3822 7.0799 39.5244 5.48321C39.6739 3.87916 39.7511 2.94889 39.7556 2.69183C39.7622 2.29606 39.7494 1.98804 39.7178 1.76722C39.6594 1.37768 39.5394 1.03796 39.3578 0.748627L42.9589 0.812608C42.9989 1.01134 43.0639 1.19593 43.1544 1.36635C43.245 1.52942 43.3539 1.67776 43.4811 1.81195L45.1144 3.44828L46.9317 1.89575C47.2083 1.66644 47.4228 1.33238 47.5744 0.894707L51.1978 0.959254C50.9983 1.24972 50.8711 1.54414 50.8156 1.84366C50.7672 2.13639 50.74 2.4846 50.7333 2.88774C50.7267 3.23992 50.7611 4.17925 50.8361 5.70629C50.8833 6.72716 50.9761 8.40821 51.1161 10.7506C51.2328 12.7776 51.335 14.363 51.4233 15.509C51.4189 15.766 51.4856 16.0638 51.6233 16.4036C51.7611 16.7438 51.9489 17.1028 52.1872 17.4816ZM64.67 10.1306C64.5089 12.016 63.97 13.5397 63.0544 14.7021C62.0506 15.9744 60.7783 16.5423 59.2383 16.4041C57.7772 16.2739 56.6717 15.535 55.9211 14.1869C55.22 12.9316 54.9461 11.4198 55.0978 9.65159C55.2628 7.73047 55.78 6.19776 56.6506 5.0529C57.6106 3.7914 58.8456 3.22803 60.3572 3.36278C61.8539 3.49641 62.995 4.20586 63.7794 5.49057C64.5322 6.72829 64.8294 8.27515 64.67 10.1306ZM66.46 10.4675C66.2417 13.0097 65.4639 14.9728 64.1256 16.3549C62.7867 17.7375 61.0867 18.3366 59.0239 18.152C57.0683 17.9776 55.5683 17.1187 54.5244 15.5752C53.4883 14.0249 53.0739 12.041 53.2811 9.62215C53.5189 6.85342 54.2722 4.79697 55.5428 3.45224C56.8206 2.10128 58.5156 1.52036 60.6289 1.70834C62.6772 1.89122 64.2172 2.74675 65.2483 4.27437C66.2789 5.80198 66.6833 7.86635 66.46 10.4675ZM90.3206 22.6573L87.4622 21.984C87.7156 21.7428 87.9122 21.4467 88.0506 21.0951C88.1339 20.889 88.22 20.5895 88.3094 20.1965L89.1972 16.2733L86.0472 8.57637L83.665 19.1026C83.5806 19.4746 83.5317 19.7713 83.5183 19.9938C83.5006 20.3664 83.54 20.7299 83.6367 21.0832L80.7783 20.41C81.0322 20.1694 81.2283 19.8727 81.3672 19.5211C81.4506 19.315 81.5367 19.0154 81.6261 18.6225L84.4111 6.31722C84.4983 5.93108 84.5489 5.62646 84.5628 5.40451C84.585 5.011 84.5367 4.65316 84.4183 4.33155L87.6961 5.10385C87.5828 5.27994 87.5028 5.47189 87.4556 5.67912C87.4089 5.88635 87.3939 6.08225 87.4111 6.26683C87.4294 6.44462 87.4722 6.61675 87.5378 6.78208C87.8267 7.52777 88.1322 8.29667 88.455 9.08709L89.355 11.2749C89.5639 11.7839 89.7739 12.2918 89.9833 12.8008L91.0945 7.89127C91.1822 7.50512 91.2322 7.2005 91.2461 6.97855C91.2683 6.58504 91.22 6.2272 91.1011 5.9056L93.9594 6.57824C93.7306 6.84096 93.5522 7.12293 93.425 7.42358C93.3067 7.71971 93.2094 8.03508 93.1333 8.37141L90.3478 20.6767C90.2639 21.0487 90.2145 21.3454 90.2017 21.5679C90.1839 21.9404 90.2233 22.3039 90.3206 22.6573ZM95.0711 24.0603L92.2656 23.1855C92.5356 22.963 92.7517 22.6816 92.9139 22.3407C93.0111 22.1409 93.1172 21.8482 93.2333 21.4631L96.8533 9.38491C96.9672 9.00669 97.0378 8.7066 97.0667 8.48578C97.1167 8.0951 97.0922 7.73443 96.9961 7.4049L99.8011 8.28025C99.5545 8.52541 99.3572 8.79379 99.21 9.08482C99.0711 9.37189 98.9528 9.6799 98.8545 10.0094L95.2344 22.0865C95.1245 22.4517 95.0556 22.7444 95.0272 22.9653C94.9839 23.3356 94.9978 23.7008 95.0711 24.0603ZM79.2322 11.8966C78.9417 13.765 78.3 15.2468 77.3078 16.3413C76.2189 17.5394 74.9111 18.015 73.3844 17.7681C71.9361 17.5343 70.8833 16.7178 70.2272 15.3198C69.6139 14.0176 69.4439 12.4905 69.7161 10.7376C70.0117 8.8323 70.6328 7.34035 71.5795 6.26004C72.6228 5.06988 73.8939 4.59597 75.3928 4.8383C76.8761 5.07781 77.9661 5.86653 78.6611 7.2039C79.3272 8.49201 79.5172 10.0564 79.2322 11.8966ZM80.9944 12.3592C80.6028 14.8799 79.6922 16.7823 78.2628 18.0665C76.8333 19.3501 75.0961 19.8274 73.0511 19.4967C71.1122 19.183 69.6744 18.2194 68.7389 16.6057C67.8111 14.9852 67.5333 12.9763 67.9056 10.5785C68.3322 7.83351 69.2244 5.83539 70.5833 4.58465C71.9506 3.32768 73.6817 2.86905 75.7767 3.20708C77.8078 3.53547 79.285 4.49802 80.2094 6.09527C81.1333 7.69253 81.3944 9.78125 80.9944 12.3592Z" fill="#1C1E26"/>
</g>
<defs>
<clipPath id="clip0_491_355">
<rect width="99.8011" height="30.8195" fill="white" transform="translate(0 0.748627)"/>
</clipPath>
</defs>
</svg>
