<svg width="227" height="72" viewBox="0 0 227 72" fill="none" xmlns="http://www.w3.org/2000/svg"><path d="M226.06 46.303V29.008h-3.286v7.862l-7.012-8.314v17.3h3.286v-7.853l7.012 8.3zm-16.813-.487h3.525l-6.543-17.324-6.573 17.349h3.526l.507-1.401h5.051l.507 1.376zm-1.402-3.809h-3.262l1.646-4.35 1.616 4.35zm-9.781 3.834l-4.372-5.09c.494-.257.95-.584 1.353-.972a6.864 6.864 0 001.038-1.299 6.213 6.213 0 00.895-3.22 6.148 6.148 0 00-.479-2.433 6.336 6.336 0 00-1.32-1.99 6.16 6.16 0 00-1.956-1.342 5.884 5.884 0 00-2.392-.487h-4.18v16.833h3.281v-4.35l3.745 4.35h4.387zm-4.372-10.591c.001.385-.077.766-.23 1.119a2.98 2.98 0 01-1.521 1.547 2.658 2.658 0 01-1.1.233h-.909V32.35h.894c.379-.001.754.078 1.101.234a2.98 2.98 0 011.521 1.547c.153.352.231.734.229 1.119h.015zm-13.087 10.59h3.525l-6.544-17.348-6.572 17.349h3.53l.507-1.401h5.047l.507 1.4zm-1.402-3.809h-3.257l1.64-4.349 1.617 4.35zm-14.144 3.81h3.525l-6.543-17.349-6.549 17.349h3.526l.512-1.401h5.046l.483 1.4zm-1.401-3.81h-3.263l1.646-4.349 1.617 4.35zm-13.614 4.325l6.549-17.348h-3.526l-3.023 8.159-3.042-8.159h-3.525l6.567 17.348zm.895-25.326h3.53l-6.548-17.348-6.573 17.348h3.53l.507-1.401h5.047l.507 1.4zm-1.402-3.81h-3.257l1.641-4.349 1.616 4.35zm1.344-14.555a1.5 1.5 0 00.445-1.095 1.531 1.531 0 00-.445-1.104 1.419 1.419 0 00-1.076-.486 1.43 1.43 0 00-1.076.486 1.542 1.542 0 00-.445 1.104c0 .306.089.606.256.86.167.255.405.454.683.57a1.496 1.496 0 001.658-.335zm-3.745 0a1.51 1.51 0 00.445-1.095 1.527 1.527 0 00-.445-1.104 1.43 1.43 0 00-2.152 0 1.531 1.531 0 00-.445 1.104c0 .306.089.606.256.86.167.255.404.454.683.57a1.496 1.496 0 001.658-.335zm-15.785 10.527l7.008 8.3V4.197h-3.291v7.862l-7.008-8.314V21.03h3.287l.004-7.838zm-11.202 7.838h3.296V4.197h-3.282l-.014 16.833zm.163 33.11a5.026 5.026 0 00-1.23-.486 5.226 5.226 0 00-1.234-.156 4.82 4.82 0 00-1.856.355 4.786 4.786 0 00-1.526.973c-.431.414-.779.91-1.023 1.46a4.282 4.282 0 00-.378 1.795 4.094 4.094 0 00.354 1.756c.226.491.528.943.894 1.338.363.398.773.75 1.22 1.046.45.301.89.593 1.325.87.34.2.655.4.957.604.279.189.544.399.794.627.225.198.415.436.559.7a1.72 1.72 0 01.053 1.521 1.64 1.64 0 01-.431.567 2.199 2.199 0 01-2.693.121 1.853 1.853 0 01-.712-1.021l-2.87 1.82a5.128 5.128 0 001.028 1.425 5.396 5.396 0 002.559 1.4c.409.094.825.143 1.244.147a5.37 5.37 0 003.769-1.508 5.278 5.278 0 001.148-1.635 5.17 5.17 0 00.038-3.994 5.71 5.71 0 00-.956-1.498 7.433 7.433 0 00-1.316-1.144c-.478-.326-.956-.627-1.401-.91a14.901 14.901 0 01-1.583-1.055 1.466 1.466 0 01-.665-1.177 1.117 1.117 0 01.435-.862c.292-.245.66-.376 1.038-.37.306.009.605.094.87.249a1.145 1.145 0 01.579.788l2.975-1.552a4.638 4.638 0 00-1.961-2.184l-.004-.01zm-2.363-11.18a5.233 5.233 0 00.406-2.067V29.008h-3.257v11.89c0 .516-.202 1.01-.561 1.376-.358.365-.845.57-1.353.57a1.797 1.797 0 01-1.353-.574 1.923 1.923 0 01-.555-1.391v-11.87h-3.286v11.889c-.007.71.133 1.415.411 2.067a5.27 5.27 0 002.751 2.798 5.141 5.141 0 004.061 0 5.211 5.211 0 001.64-1.129 5.442 5.442 0 001.115-1.669l-.019-.004zm-9.931-21.93h8.816v-3.342h-5.529V4.198h-3.287V21.03zm-2.358 32.789v11.89c.007.39-.101.774-.311 1.1-.21.327-.512.582-.866.732-.355.15-.745.189-1.121.11a1.909 1.909 0 01-.988-.55 1.975 1.975 0 01-.555-1.391V53.818h-3.286v11.89c-.004.71.136 1.414.412 2.067a5.36 5.36 0 001.114 1.669 5.126 5.126 0 007.342 0 5.432 5.432 0 001.11-1.669 5.236 5.236 0 00.412-2.067v-11.89h-3.263zm-3.63-7.978h3.525l-6.548-17.349-6.568 17.349h3.526l.507-1.401h5.051l.507 1.4zm-1.402-3.81h-3.262l1.64-4.349 1.622 4.35zm-6.17-21.001h8.82v-3.342h-5.534v-3.464h5.534v-3.318h-5.534V7.54h5.534V4.197h-8.82V21.03zm-8.002 24.81h4.371l-4.371-5.088a5.673 5.673 0 001.353-.973 6.69 6.69 0 001.038-1.299 6.236 6.236 0 00.895-3.22 6.078 6.078 0 00-.479-2.433 6.215 6.215 0 00-3.272-3.332 5.897 5.897 0 00-2.391-.487h-4.162v16.833h3.287v-4.35l3.73 4.35zm0-10.59c.001.385-.077.766-.23 1.119a2.934 2.934 0 01-1.521 1.547 2.64 2.64 0 01-1.096.233h-.894V32.35h.894c.378-.001.75.078 1.096.234a2.934 2.934 0 011.52 1.547c.154.352.232.734.23 1.119zm.1-14.22h3.257V4.197h-3.257v6.709h-3.827V4.197h-3.29V21.03h3.286v-6.811h3.826l.005 6.81zm-18.655 6.324H48.988l15.02-15.276-4.525-6.275-15.67 15.942V2.986L36.25 4.158v30.163l-6.902-6.996c2-4.267 3.697-11.525-1.995-17.314-3.798-3.868-9.011-4.32-9.011-4.32L.06 2.976l2.67 18.599s.44 5.302 4.242 9.165c5.711 5.838 12.886 4.048 17.076 2.01l6.902 7.039H1.218L.065 47.48h18.449L2.844 63.417l6.17 4.602 15.02-15.275v19.255l7.572-1.284V40.46l1.87 1.907 5.965 6.135a18.245 18.245 0 00-2.655 11.562 18.129 18.129 0 005.003 10.729c.383.389.785.753 1.191 1.104l4.138-5.838a4.457 4.457 0 01-.33-.321 10.764 10.764 0 01-2.88-5.605 10.87 10.87 0 01.732-6.28L61.305 70.88l6.568 1.066-1.048-6.68-16.742-16.94a10.362 10.362 0 016.156-.73 10.466 10.466 0 015.808 3.255l5.74-4.208a18.348 18.348 0 00-1.091-1.211 17.578 17.578 0 00-10.518-5.092A17.462 17.462 0 0044.827 43l-7.845-7.945h29.656l1.263-7.7zm-45.704-1.858c-1.799 1.834-6.988 3.687-10.523.102-1.736-1.766-2.038-4.631-2.038-4.631l-1.53-9.803 9.628 1.571s2.818.307 4.554 2.073c3.525 3.58 1.703 8.858-.1 10.702l.009-.014zM19.743 23a3.914 3.914 0 001.043-1.993 3.953 3.953 0 00-.221-2.246 3.878 3.878 0 00-1.41-1.744 3.781 3.781 0 00-2.124-.654c-.756 0-1.495.227-2.124.654a3.878 3.878 0 00-1.41 1.744 3.953 3.953 0 00-.22 2.246A3.914 3.914 0 0014.319 23c.356.363.778.652 1.244.848a3.771 3.771 0 004.18-.848zm66.689 38.68l-6.994-8.313v17.299h3.287v-7.852l3.716 4.422 3.721-4.422v7.837h3.287V53.367l-7.017 8.314zm35.434-29.33h2.755v13.49h3.286V32.35h2.775v-3.342h-8.816v3.342zm13.661 21.469h-8.815v16.832h8.815V67.31h-5.534v-3.463h5.534v-3.318h-5.534V57.16h5.534V53.82zm-.478-7.978l.507-1.401h5.046l.507 1.4h3.53l-6.558-17.348-6.567 17.349h3.535zm1.401-3.81l1.641-4.349 1.617 4.35h-3.258zm3.349 16.799a8.967 8.967 0 000 6.81 8.704 8.704 0 004.592 4.646 8.562 8.562 0 006.696 0 8.65 8.65 0 004.563-4.645 8.968 8.968 0 000-6.811 9.019 9.019 0 00-1.836-2.788 8.558 8.558 0 00-2.727-1.878 8.571 8.571 0 00-6.696 0 8.734 8.734 0 00-4.592 4.666zm2.635 3.405a5.226 5.226 0 01.421-2.087 5.594 5.594 0 011.148-1.717 5.374 5.374 0 011.689-1.158 5.257 5.257 0 014.108 0 5.338 5.338 0 011.689 1.158 5.498 5.498 0 011.133 1.746 5.499 5.499 0 010 4.18 5.48 5.48 0 01-1.138 1.717 5.335 5.335 0 01-1.688 1.157 5.312 5.312 0 01-4.109 0 5.396 5.396 0 01-1.689-1.157 5.614 5.614 0 01-1.148-1.718 5.25 5.25 0 01-.421-2.092" fill="currentColor"></path></svg>
