<svg xmlns="http://www.w3.org/2000/svg" width="200" height="46.67" viewBox="0 0 488.5 114"><path d="M41.7 43.2V87c0 17.1-7.8 24.8-23.1 24.8-6.8 0-12-.8-15.8-1.8l2.4-20.1c1.3.2 3.7.6 5.9.6 1.7 0 4.7-.6 4.7-4.7V30.3h19.6l6.3 12.9zM77.1 61l5.1-16.5 5.2-14.2h26L89.1 85.8v24.8H71.4l-8.2-18.7v-6.1L39 30.3h27.1l5.3 14.2L76.8 61h.3z"/><path d="M138.1 30.3v59H170v21.2h-49l-8.8-19.4V30.3h25.9zm57.8 80.3h-17.1L170 90.3v-60h26v80.3zm21.3-80.3h31.3l-23 37.8 23.6 42.5h-33L196 69.3l21.2-39z"/><path d="M268.8 110.6h-16.1l-9.8-17.3v-63h26v80.3zm21.3-80.3h31.3l-23 37.8 23.6 42.5h-33l-20.1-41.3 21.2-39z"/><path d="M358.9 95.2H340l-3.7 15.3h-10.7l-9.4-16.3 18.2-64.5h31.3l23.7 80.8h-26.5l-4-15.3zM338.5 5.6c4.7 0 10 2.2 10 9.3 0 7.1-5.3 9.6-10 9.6s-10-2.5-10-9.6 5.3-9.3 10-9.3zM349.2 57l-4.8 19.4h10.1l-5-19.4h-.3zm12.9-51.4c4.7 0 10 2.2 10 9.3 0 7.1-5.3 9.6-10 9.6s-10-2.5-10-9.6 5.3-9.3 10-9.3zm67 105l-10.9-24.8h-4.8v24.8h-20.7l-5.3-18.2V30.3H424c18.4 0 31.3 9.9 31.3 27.7 0 10.6-4.7 18.5-12.4 23.1l15.3 29.4h-29.1zm-15.7-46h8c3.8 0 7.9-1.1 7.9-6.5 0-5.5-4.2-6.5-7.9-6.5h-8v13z"/><path d="M466.2 110.6l-9.1-18.2V30.3h6.6l19.4-10.8v91h-16.9z"/><path fill="#0d111a" d="M17.8 19.4c.5.4 1.4.7 2.2.7 1 0 1.4-.4 1.4-1.4v-12h3.5V19c0 2.4-1.4 4.2-4.8 4.2-2 0-3.1-.5-3.4-.7l1.1-3.1z"/><path d="M20.1 23.4c-2.2 0-3.4-.7-3.5-.7l-.2-.1 1.3-3.6.3.2c.5.3 1.3.7 2 .7.8 0 1.1-.3 1.1-1.2V6.5h4V19c0 2.8-1.8 4.4-5 4.4zm-3.1-1c.5.2 1.5.6 3.1.6 2.9 0 4.5-1.4 4.5-4V7h-3v11.7c0 1.2-.5 1.7-1.6 1.7-.7 0-1.5-.3-2.1-.6l-.9 2.6z"/><path fill="#0d111a" d="M34.7 17.7v5.2h-3.5v-5.2L25.8 6.8h3.9l3.3 7.4h.1l3.4-7.4h3.7l-5.5 10.9z"/><path d="M35 23.1h-4v-5.4L25.4 6.5h4.5l3.2 7.2 3.2-7.2h4.3L35 17.8v5.3zm-3.5-.5h3v-5L39.8 7h-3.2l-3.4 7.4h-.4L29.5 7h-3.3l5.3 10.7v4.9z"/><path fill="#0d111a" d="M39.4 6.8h3.9l2.5 8.7c.4 1.5.8 2.9 1.1 4.5h.1c.3-1.5.6-2.9 1.1-4.5l2.5-8.7h3.7l-5.2 16.1h-4.6L39.4 6.8z"/><path d="M49.3 23.1h-4.9V23L39.1 6.5h4.4l2.7 9.5c.3 1 .5 2 .8 3 .3-1.2.5-2.3.9-3.6l2.5-8.9h4.2l-5.3 16.6zm-4.5-.5H49L54 7h-3.2l-2.4 8.5c-.4 1.6-.8 3-1.1 4.5v.2h-.5V20c-.3-1.3-.6-2.6-1-3.9l-.2-.6L43.2 7h-3.4l5 15.6z"/><path fill="#0d111a" d="M63.7 6.8l4.9 16.1h-3.7l-1-3.7h-5.4l-1 3.7H54l4.9-16.1h4.8zm-5.3-5.3c1.1 0 1.8.8 1.8 1.8s-.8 1.8-1.8 1.8c-1.1 0-1.8-.8-1.8-1.8s.7-1.8 1.8-1.8zm.9 14.8h3.8l-.6-2.3c-.6-2.2-.9-3.4-1.2-4.8h-.1c-.3 1.4-.6 2.7-1.2 4.7l-.7 2.4zm4.8-14.8c1.1 0 1.8.8 1.8 1.8s-.8 1.8-1.8 1.8c-1.1 0-1.8-.8-1.8-1.8s.7-1.8 1.8-1.8z"/><path d="M68.9 23.1h-4.2l-1-3.7h-5l-1 3.7h-4.1l5-16.6h5.3l5 16.6zm-3.8-.5h3.2L63.5 7H59l-4.7 15.6h3l1-3.7h5.8l1 3.7zm-1.7-6.1h-4.5l.8-2.7c.6-2 .9-3.3 1.2-4.7v-.2h.5v.2c.3 1.4.6 2.5 1.2 4.8l.8 2.6zm-3.8-.5h3.1l-.5-1.9c-.5-1.8-.8-2.8-1-3.9-.2 1.1-.6 2.3-1 3.8l-.6 2zm4.5-10.7c-1.2 0-2.1-.9-2.1-2.1s.9-2.1 2.1-2.1c1.2 0 2.1.9 2.1 2.1s-.9 2.1-2.1 2.1zm0-3.6c-.9 0-1.6.7-1.6 1.6s.7 1.6 1.6 1.6 1.6-.7 1.6-1.6-.7-1.6-1.6-1.6zm-5.7 3.6c-1.2 0-2.1-.9-2.1-2.1s.9-2.1 2.1-2.1c1.2 0 2.1.9 2.1 2.1s-1 2.1-2.1 2.1zm0-3.6c-.9 0-1.6.7-1.6 1.6s.7 1.6 1.6 1.6S60 4.2 60 3.3s-.7-1.6-1.6-1.6z"/><path fill="#0d111a" d="M76.7 18.6c0-2.6-7.4-2.2-7.4-7.3 0-2.7 2.3-4.8 5.7-4.8 2.7 0 4.4 1.2 4.9 1.9L77.7 11c-.4-.5-1.3-1.5-3-1.5-1.1 0-1.8.6-1.8 1.4 0 2.6 7.4 2.2 7.4 7.3 0 2.4-2 4.8-6.1 4.8-3.1 0-5-1.4-5.6-2l2-2.9c.7.7 2.1 1.9 4 1.9 1.4.2 2.1-.6 2.1-1.4z"/><path d="M74.1 23.4c-3.1 0-5.1-1.4-5.8-2.1l-.1-.1 2.3-3.3.2.2c1.2 1.3 2.5 1.9 3.9 1.9 1.1 0 1.8-.5 1.8-1.3 0-.9-1.2-1.4-2.6-2-2.1-.9-4.8-2.1-4.8-5.2 0-2.9 2.5-5 5.9-5 2.8 0 4.6 1.3 5.1 2l.1.2-2.5 3-.2-.2c-.8-.9-1.7-1.4-2.8-1.4-.9 0-1.5.5-1.5 1.2 0 .9 1.2 1.5 2.6 2.1 2.1.9 4.8 2.1 4.8 5.3 0 2.1-2 4.7-6.4 4.7zm-5.2-2.3c.7.7 2.5 1.8 5.3 1.8 4 0 5.8-2.3 5.8-4.5 0-2.8-2.4-3.9-4.5-4.8-1.6-.7-2.9-1.3-2.9-2.5 0-.8.6-1.7 2-1.7 1.2 0 2.2.5 3 1.4l1.9-2.2c-.6-.7-2.2-1.7-4.6-1.7-3.1 0-5.4 1.9-5.4 4.5 0 2.8 2.4 3.9 4.5 4.8 1.6.7 2.9 1.3 2.9 2.5 0 .8-.6 1.8-2.3 1.8-1.4 0-2.7-.6-4-1.8l-1.7 2.4z"/><path fill="#0d111a" d="M85.6 22.9H82V6.8h3.5v16.1zm4.8-16.1h4l-5 7.8 5.5 8.3h-4.4l-4.9-8.1v-.1l4.8-7.9z"/><path d="M95.5 23.1h-5l-4.6-7.6v7.6h-4V6.5h4v7.4l4.5-7.4H95l-5.2 8.1 5.7 8.5zm-4.8-.5h3.8l-5.3-8L94 7h-3.4l-4.7 7.7 4.8 7.9zm-8.4 0h3V7h-3v15.6z"/><path fill="#0d111a" d="M103.1 17.7v5.2h-3.5v-5.2L94.2 6.8h3.9l3.3 7.4h.1l3.4-7.4h3.7l-5.5 10.9z"/><path d="M103.4 23.1h-4v-5.4L93.8 6.5h4.5l3.2 7.2 3.2-7.2h4.3l-5.6 11.3v5.3zm-3.6-.5h3v-5L108.1 7H105l-3.4 7.4h-.4L97.9 7h-3.3l5.3 10.7v4.9z"/><path fill="#0d111a" d="M113 6.8V20h5.9v2.9h-9.5V6.8h3.6z"/><path d="M119.2 23.1h-10V6.5h4v13.2h5.9v3.4zm-9.5-.5h9v-2.4h-5.9V7h-3v15.6z"/><path fill="#0d111a" d="M128.5 6.8l4.9 16.1h-3.7l-1-3.7h-5.4l-1 3.7h-3.5l4.9-16.1h4.8zm-5.4-5.3c1.1 0 1.8.8 1.8 1.8s-.8 1.8-1.8 1.8-1.8-.8-1.8-1.8.8-1.8 1.8-1.8zm1 14.8h3.8l-.6-2.3c-.6-2.2-.9-3.4-1.2-4.8h-.1c-.3 1.4-.6 2.7-1.2 4.7l-.7 2.4zm4.8-14.8c1.1 0 1.8.8 1.8 1.8s-.8 1.8-1.8 1.8c-1.1 0-1.8-.8-1.8-1.8s.7-1.8 1.8-1.8z"/><path d="M133.7 23.1h-4.2l-1-3.7h-5l-1 3.7h-4.1l5-16.6h5.3l5 16.6zm-3.8-.5h3.2L128.3 7h-4.5L119 22.6h3l1-3.7h5.8l1.1 3.7zm-1.7-6.1h-4.5l.8-2.7c.6-2 .9-3.3 1.2-4.7v-.2h.5v.2c.3 1.4.6 2.6 1.2 4.8l.8 2.6zm-3.8-.5h3.1l-.5-1.9c-.5-1.8-.8-2.8-1-3.9-.3 1.1-.6 2.3-1 3.8l-.6 2zm4.5-10.7c-1.2 0-2.1-.9-2.1-2.1s.9-2.1 2.1-2.1c1.2 0 2.1.9 2.1 2.1s-.9 2.1-2.1 2.1zm0-3.6c-.9 0-1.6.7-1.6 1.6s.7 1.6 1.6 1.6c.9 0 1.6-.7 1.6-1.6s-.7-1.6-1.6-1.6zm-5.8 3.6c-1.2 0-2.1-.9-2.1-2.1s.9-2.1 2.1-2.1 2.1.9 2.1 2.1-.9 2.1-2.1 2.1zm0-3.6c-.9 0-1.6.7-1.6 1.6s.7 1.6 1.6 1.6 1.6-.7 1.6-1.6-.6-1.6-1.6-1.6z"/><path fill="#0d111a" d="M137.8 11.2c.2 1.6.2 2.9.2 5.6v6.1h-3.4V6.8h4.2l3.3 6.3c.8 1.5 1.7 3.3 2.3 4.9h.1c-.2-2.3-.2-4.5-.2-6.2v-5h3.3v16.1h-4.1l-3.5-6.8c-.8-1.6-1.5-3.2-2.2-4.9z"/><path d="M147.9 23.1h-4.5l-3.6-6.9c-.6-1.1-1.1-2.3-1.6-3.6.1 1.1.1 2.3.1 4.2v6.3h-3.9V6.5h4.6l3.4 6.5c.7 1.4 1.3 2.7 1.8 3.8-.1-1.8-.1-3.6-.1-4.9V6.5h3.8v16.6zm-4.2-.5h3.7V7h-2.8v4.9c0 1.7 0 3.9.2 6.2v.3h-.5l-.1-.2c-.5-1.3-1.3-3-2.3-4.9L138.7 7h-3.8v15.6h2.9v-5.8c0-2.8-.1-4.1-.2-5.6v-.3h.5l.1.2c.7 2 1.4 3.5 2.1 4.9l3.4 6.6z"/><path fill="#0d111a" d="M163.1 17.7v5.2h-3.5v-5.2l-5.4-10.9h3.9l3.3 7.4h.1l3.4-7.4h3.7l-5.5 10.9z"/><path d="M163.3 23.1h-4v-5.4l-5.6-11.3h4.5l3.2 7.2 3.2-7.2h4.3l-5.6 11.3v5.4zm-3.5-.5h3v-5L168.1 7H165l-3.4 7.4h-.4L157.9 7h-3.3l5.3 10.7v4.9z"/><path fill="#0d111a" d="M173 6.8V20h5.9v2.9h-9.5V6.8h3.6z"/><path d="M179.2 23.1h-10V6.5h4v13.2h5.9v3.4zm-9.5-.5h9v-2.4h-5.9V7h-3v15.6z"/><path fill="#0d111a" d="M180.4 6.8h3.5v16.1h-3.5V6.8z"/><path d="M184.2 23.1h-4V6.5h4v16.6zm-3.6-.5h3V7h-3v15.6z"/><path fill="#0d111a" d="M192.6 23.1c-4 0-6.6-2.2-6.6-8.2 0-5.9 2.9-8.4 6.8-8.4 4 0 6.6 2.2 6.6 8.2 0 5.9-2.8 8.4-6.8 8.4zm.2-2.9c1.8 0 3-1.3 3-5.3s-1.2-5.4-3.2-5.4c-1.7 0-2.9 1.2-2.9 5.2 0 4.1 1.2 5.5 3.1 5.5z"/><path d="M192.6 23.4c-4.6 0-6.8-2.8-6.8-8.4 0-5.5 2.6-8.6 7-8.6 4.5 0 6.8 2.8 6.8 8.5.1 5.3-2.5 8.5-7 8.5zm.2-16.6c-4.2 0-6.5 2.9-6.5 8.1 0 5.4 2 7.9 6.3 7.9 4.2 0 6.6-2.9 6.6-8.1 0-5.3-2.1-7.9-6.4-7.9zm0 13.6c-2.3 0-3.4-1.8-3.4-5.7 0-3.7 1-5.5 3.2-5.5 2.3 0 3.4 1.9 3.4 5.7.1 3.8-1 5.5-3.2 5.5zm-.2-10.7c-1.2 0-2.7.5-2.7 5 0 4.7 1.7 5.2 2.9 5.2 1.3 0 2.7-.6 2.7-5 .1-4.7-1.6-5.2-2.9-5.2z"/><path fill="#0d111a" d="M212.6 11.6c0 3-1.6 5.6-6.3 5.6H205v5.7h-3.5V6.8h5.5c3.2 0 5.6 1.2 5.6 4.8zm-7.7-1.9v4.6h1.1c2.3 0 2.9-1 2.9-2.3 0-1.6-.8-2.3-2.6-2.3h-1.4z"/><path d="M205.2 23.1h-4V6.5h5.8c3.9 0 5.9 1.7 5.9 5 0 2.2-.9 5.9-6.6 5.9h-1.1v5.7zm-3.5-.5h3v-5.7h1.6c5 0 6.1-2.9 6.1-5.4 0-3.1-1.8-4.5-5.4-4.5h-5.3v15.6zm4.4-8.1h-1.4v-5h1.7c1.9 0 2.8.8 2.8 2.5s-1 2.5-3.1 2.5zm-.9-.5h.9c2.3 0 2.6-1 2.6-2 0-1.5-.7-2-2.3-2h-1.2v4z"/><path fill="#0d111a" d="M225.4 11.6c0 3-1.6 5.6-6.3 5.6h-1.3v5.7h-3.5V6.8h5.5c3.2 0 5.6 1.2 5.6 4.8zm-7.6-1.9v4.6h1.1c2.3 0 2.9-1 2.9-2.3 0-1.6-.8-2.3-2.6-2.3h-1.4z"/><path d="M218 23.1h-4V6.5h5.8c3.9 0 5.9 1.7 5.9 5 0 2.2-.9 5.9-6.6 5.9H218v5.7zm-3.5-.5h3v-5.7h1.6c5 0 6.1-2.9 6.1-5.4 0-3.1-1.8-4.5-5.4-4.5h-5.3v15.6zm4.4-8.1h-1.4v-5h1.7c1.9 0 2.8.8 2.8 2.5s-1 2.5-3.1 2.5zm-.9-.5h.9c2.3 0 2.6-1 2.6-2 0-1.5-.7-2-2.3-2H218v4z"/><path fill="#0d111a" d="M227.3 6.8h3.5v16.1h-3.5V6.8z"/><path d="M231 23.1h-4V6.5h4v16.6zm-3.5-.5h3V7h-3v15.6z"/><path fill="#0d111a" d="M237.3 6.8V20h5.9v2.9h-9.5V6.8h3.6z"/><path d="M243.5 23.1h-10V6.5h4v13.2h5.9v3.4zm-9.5-.5h9v-2.4h-6V7h-3v15.6z"/><path fill="#0d111a" d="M252.7 6.8l4.9 16.1h-3.7l-1-3.7h-5.4l-1 3.7H243l4.9-16.1h4.8zm-4.4 9.5h3.8l-.6-2.3c-.6-2.2-.9-3.4-1.2-4.8h-.1c-.3 1.4-.6 2.7-1.2 4.7l-.7 2.4z"/><path d="M258 23.1h-4.2l-1-3.7h-5l-1 3.7h-4.1l5-16.6h5.3l5 16.6zm-3.9-.5h3.2L252.5 7H248l-4.7 15.6h3l1-3.7h5.8l1 3.7zm-1.6-6.1H248l.8-2.7c.6-2 .9-3.3 1.2-4.7v-.2h.5v.2c.3 1.4.6 2.6 1.2 4.8l.8 2.6zm-3.8-.5h3.1l-.5-1.9c-.5-1.8-.8-2.8-1-3.9-.3 1.1-.6 2.3-1 3.8l-.6 2z"/><g><path fill="#0d111a" d="M265.7 18.6c0-2.6-7.4-2.2-7.4-7.3 0-2.7 2.3-4.8 5.7-4.8 2.7 0 4.4 1.2 4.9 1.9l-2.2 2.6c-.4-.5-1.3-1.5-3-1.5-1.2 0-1.8.6-1.8 1.4 0 2.6 7.4 2.2 7.4 7.3 0 2.4-2 4.8-6.1 4.8-3.1 0-5-1.4-5.6-2l2-2.9c.7.7 2.1 1.9 4 1.9 1.5.2 2.1-.6 2.1-1.4z"/><path d="M263.2 23.4c-3.1 0-5.1-1.4-5.8-2.1l-.1-.1 2.3-3.3.2.2c1.2 1.3 2.5 1.9 3.9 1.9 1.1 0 1.8-.5 1.8-1.3 0-.9-1.2-1.4-2.6-2-2.1-.9-4.8-2.1-4.8-5.2 0-2.9 2.5-5 5.9-5 2.8 0 4.6 1.3 5.1 2l.1.2-2.5 3-.2-.2c-.8-.9-1.7-1.4-2.8-1.4-.9 0-1.5.5-1.5 1.2 0 .9 1.2 1.5 2.6 2.1 2.1.9 4.8 2.1 4.8 5.3-.1 2.1-2 4.7-6.4 4.7zm-5.3-2.3c.7.7 2.5 1.8 5.3 1.8 4 0 5.8-2.3 5.8-4.5 0-2.8-2.4-3.9-4.5-4.8-1.6-.7-2.9-1.3-2.9-2.5 0-.8.6-1.7 2-1.7 1.2 0 2.2.5 3 1.4l1.9-2.2c-.6-.7-2.2-1.7-4.6-1.7-3.1 0-5.4 1.9-5.4 4.5 0 2.8 2.4 3.9 4.5 4.8 1.6.7 2.9 1.3 2.9 2.5 0 .8-.6 1.8-2.3 1.8-1.4 0-2.7-.6-4-1.8l-1.7 2.4z"/></g><g><path fill="#0d111a" d="M274.6 6.8V20h5.9v2.9H271V6.8h3.6z"/><path d="M280.8 23.1h-10V6.5h4v13.2h5.9v3.4zm-9.4-.5h9v-2.4h-5.9V7h-3v15.6z"/></g><g><path fill="#0d111a" d="M281.8 22.9V6.8h9.5v2.9h-6v3.6h5.2v2.9h-5.2V20h6.3v2.9h-9.8z"/><path d="M291.9 23.1h-10.3V6.5h10v3.4h-6V13h5.2v3.4h-5.2v3.3h6.3v3.4zm-9.8-.5h9.3v-2.4h-6.3v-4.3h5.2v-2.4h-5.2V9.4h6V7h-9v15.6z"/></g><g><path fill="#0d111a" d="M306.8 6.8v16.1h-3.5v-6.6h-5.9v6.6h-3.5V6.8h3.5v6.6h5.9V6.8h3.5z"/><path d="M307 23.1h-4v-6.6h-5.4v6.6h-4V6.5h4v6.6h5.4V6.5h4v16.6zm-3.5-.5h3V7h-3v6.6h-6.4V7h-3v15.6h3V16h6.4v6.6z"/></g><g><path fill="#0d111a" d="M311.7 9.7h-4V6.8h11.5v2.9h-4v13.2h-3.5V9.7z"/><path d="M315.5 23.1h-4V9.9h-4V6.5h12v3.4h-4v13.2zm-3.5-.5h3V9.4h4V7h-11v2.4h4v13.2z"/></g><g><path fill="#0d111a" d="M320.4 6.8h3.5v16.1h-3.5V6.8z"/><path d="M324.2 23.1h-4V6.5h4v16.6zm-3.5-.5h3V7h-3v15.6z"/></g></svg>