<svg width="56" height="45" viewBox="0 0 56 45" fill="none" xmlns="http://www.w3.org/2000/svg">
<path fill-rule="evenodd" clip-rule="evenodd" d="M44.6204 40.9048L47.2691 40.8878L45.9589 37.9369L44.6204 40.9048ZM30.9028 44.4446V37.784H26.7124V34.9974H39.6789V37.784H35.5789V44.4446H30.9028ZM18.9923 40.8991H21.6579L20.3421 37.9426L18.9923 40.8991ZM12.8536 44.4446L17.9758 34.9974H22.7083L27.8249 44.4446H23.1884L22.6462 43.1929H18.0097L17.4449 44.4446H12.8536ZM7.11012 44.4333L12.1702 44.456L9.39734 40.0099L12.1702 34.9974L7.47156 34.9521L4.73255 39.9929L7.11012 44.4333ZM0 34.9861H4.67043V44.4276H0V34.9861ZM53.1706 34.7935H53.5547C53.8031 34.7935 53.9613 34.7822 54.0234 34.7595C54.0855 34.7369 54.1363 34.7029 54.1702 34.6463C54.2041 34.5953 54.2211 34.5273 54.2267 34.4537C54.2267 34.3687 54.2041 34.2951 54.1533 34.2441C54.1081 34.1875 54.0403 34.1535 53.9556 34.1422C53.9104 34.1365 53.7862 34.1365 53.5716 34.1365H53.165V34.7935H53.1706ZM53.6281 32.6073C54.2775 32.6073 54.8649 32.8678 55.2941 33.2926L55.3054 33.3039C55.7346 33.7344 56 34.3291 56 34.9861C56 35.6374 55.7402 36.2208 55.3223 36.6512L55.311 36.6626C54.8818 37.093 54.2888 37.3592 53.6337 37.3592C52.9786 37.3592 52.3913 37.093 51.9621 36.6626C51.5329 36.2321 51.2674 35.6374 51.2674 34.9804C51.2674 34.3234 51.5329 33.7344 51.9621 33.3039C52.3856 32.8735 52.9786 32.6073 53.6281 32.6073ZM53.6337 33.0151C53.0916 33.0151 52.6002 33.236 52.2445 33.5928C51.8887 33.9496 51.6684 34.4424 51.6684 34.9804V34.9861C51.6684 35.5298 51.8887 36.0226 52.2445 36.3794C52.6002 36.7362 53.0916 36.9571 53.6337 36.9571C54.1759 36.9571 54.6672 36.7362 55.023 36.3794L55.0343 36.3737C55.3844 36.0169 55.599 35.5298 55.599 34.9918C55.599 34.448 55.3788 33.9553 55.023 33.5985L55.0117 33.5871C54.6559 33.2303 54.1702 33.0151 53.6337 33.0151ZM52.6511 36.2944V33.6947H53.7523C54.029 33.6947 54.2323 33.7174 54.3566 33.7627C54.4808 33.808 54.5825 33.893 54.6559 34.0119C54.7293 34.1309 54.7689 34.2668 54.7689 34.4197C54.7689 34.6123 54.7124 34.7765 54.5994 34.9011C54.4865 35.0257 54.3114 35.1107 54.0855 35.139C54.1985 35.207 54.2945 35.2806 54.3679 35.3599C54.4413 35.4392 54.543 35.5808 54.6672 35.779L54.9835 36.2888H54.3566L53.9782 35.7224C53.8427 35.5185 53.7523 35.3939 53.7015 35.3429C53.6507 35.2919 53.5998 35.2523 53.5434 35.2353C53.4869 35.2183 53.4022 35.207 53.2779 35.207H53.1706V36.2944H52.6511ZM39.8144 27.9007H42.6495C43.6547 27.9007 44.9197 28.7049 45.4675 29.6848L46.4558 31.4689H43.6208C42.6156 31.4689 41.3505 30.6703 40.8027 29.6848L39.8144 27.9007ZM39.8144 4.35629H42.6495C43.6547 4.35629 44.9197 3.55203 45.4675 2.57219L46.4558 0.788097H43.6208C42.6156 0.788097 41.3505 1.58669 40.8027 2.57219L39.8144 4.35629ZM37.403 23.4546H40.238C41.2432 23.4546 42.5083 24.2589 43.0561 25.2387L44.05 27.0171H41.215C40.2098 27.0171 38.9447 26.2129 38.3969 25.233L37.403 23.4546ZM37.403 8.80237H40.238C41.2432 8.80237 42.5083 7.99811 43.0561 7.01827L44.05 5.23984H41.215C40.2098 5.23984 38.9447 6.0441 38.3969 7.02394L37.403 8.80237ZM35.2457 19.422C36.0024 19.3314 36.7479 19.2124 37.4877 19.0482C38.877 18.7423 40.1025 19.8128 40.6503 20.7926L41.6386 22.5767H38.7979C37.7927 22.5767 36.5107 21.7781 35.9798 20.7926L35.2457 19.422ZM35.2457 12.8407C36.0024 12.9313 36.7479 13.0502 37.4877 13.2145C38.877 13.5203 40.1025 12.4499 40.6503 11.47L41.6386 9.68592H38.7979C37.7927 9.68592 36.5163 10.4845 35.9798 11.47L35.2457 12.8407ZM34.1388 27.9007H36.9738C37.979 27.9007 39.244 28.7049 39.7918 29.6848L40.7802 31.4689H37.9451C36.9399 31.4689 35.6749 30.6646 35.1271 29.6848L34.1388 27.9007ZM34.1388 4.35629H36.9738C37.979 4.35629 39.244 3.55203 39.7918 2.57219L40.7802 0.788097H37.9451C36.9399 0.788097 35.6749 1.59236 35.1271 2.57219L34.1388 4.35629ZM31.7273 23.4546H34.5623C35.5676 23.4546 36.8326 24.2589 37.3804 25.2387L38.3687 27.0228H35.5337C34.5284 27.0228 33.2634 26.2185 32.7156 25.2387L31.7273 23.4546ZM31.7273 8.80237H34.5623C35.5676 8.80237 36.8326 7.99811 37.3804 7.02394L38.3687 5.23984H35.5337C34.5284 5.23984 33.2634 6.0441 32.7156 7.02394L31.7273 8.80237ZM29.7338 19.6372C30.6712 19.6769 31.5748 19.6938 32.6253 19.6372C33.8282 19.5749 34.6922 20.2546 35.2287 21.2344L35.9572 22.5711H33.1222C32.117 22.5711 30.8011 21.7894 30.3042 20.787L29.7338 19.6372ZM29.7338 12.6198C30.6712 12.5801 31.5748 12.5631 32.6253 12.6198C33.8282 12.6821 34.6922 12.0024 35.2287 11.0226L35.9572 9.68592H33.1222C32.117 9.68592 30.8011 10.4675 30.3042 11.47L29.7338 12.6198ZM28.4574 27.9007H31.2925C32.2977 27.9007 33.5627 28.7049 34.1105 29.6848L35.0988 31.4689H33.0149C31.5184 31.4689 29.9484 30.6363 29.2198 29.3053L28.4574 27.9007ZM28.4574 4.35629H31.2925C32.2977 4.35629 33.5627 3.55203 34.1105 2.57219L35.0988 0.788097H33.0149C31.5184 0.788097 29.9484 1.62067 29.2198 2.95167L28.4574 4.35629ZM26.046 23.4546H28.881C29.8862 23.4546 31.1513 24.2589 31.6991 25.2387L32.6874 27.0228H29.8524C28.8471 27.0228 27.5821 26.2185 27.0343 25.2387L26.046 23.4546ZM26.046 8.80237H28.881C29.8862 8.80237 31.1513 7.99811 31.6991 7.02394L32.6874 5.23984H29.8524C28.8471 5.23984 27.5821 6.0441 27.0343 7.02394L26.046 8.80237ZM23.6063 18.9519C24.6172 19.1728 25.5208 19.2747 26.7124 19.439C27.7402 19.5636 28.9827 20.2602 29.5305 21.2344L30.2759 22.5711H27.4409C26.4357 22.5711 25.165 21.7725 24.6228 20.787L23.6063 18.9519ZM23.6063 13.3051C24.6172 13.0842 25.5208 12.9822 26.7124 12.818C27.7402 12.6934 28.9827 11.9967 29.5305 11.0226L30.2759 9.68592H27.4409C26.4357 9.68592 25.165 10.4845 24.6228 11.47L23.6063 13.3051ZM22.5841 0.765442L22.4429 13.6732C14.6495 16.1257 13.3449 9.50468 7.83864 16.3692C7.60145 16.6637 7.75958 17.1168 8.20008 17.1168C13.9661 17.0942 16.9818 17.0658 22.4316 18.7367L22.5785 31.4519L4.68173 31.4406L4.67043 0.765442L22.5841 0.765442ZM38.4704 44.4446L43.5926 34.9974H48.3251L53.4417 44.4446H48.8052L48.263 43.1929H43.6265L43.0617 44.4446H38.4704Z" fill="#1C1E26"/>
</svg>
