<svg width="93" height="55" viewBox="0 0 93 55" fill="none" xmlns="http://www.w3.org/2000/svg"><g clip-path="url(#a)"><path fill-rule="evenodd" clip-rule="evenodd" d="m67.355 49.19 3.42-.02-1.692-3.573-1.728 3.594ZM49.64 53.478v-8.065H44.23v-3.374h16.744v3.374h-5.295v8.065h-6.038Zm-15.38-4.293h3.441l-1.699-3.58-1.743 3.58Zm-7.928 4.293 6.615-11.44h6.11l6.608 11.44H39.68l-.7-1.515H32.99l-.729 1.515h-5.929Zm-7.417-.014 6.535.028-3.581-5.384 3.58-6.07-6.067-.054-3.537 6.104 3.07 5.376Zm-9.181-11.44h6.031v11.433H9.735V42.024Zm68.661-.232h.496c.32 0 .525-.014.605-.041a.344.344 0 0 0 .19-.138.47.47 0 0 0 .073-.233.336.336 0 0 0-.095-.253.386.386 0 0 0-.255-.124c-.059-.007-.22-.007-.496-.007h-.525v.796h.007Zm.59-2.647c.84 0 1.598.315 2.152.83l.015.013c.554.521.897 1.241.897 2.037a2.79 2.79 0 0 1-.876 2.016l-.014.014a3.153 3.153 0 0 1-2.166.843 3.135 3.135 0 0 1-2.159-.843 2.789 2.789 0 0 1-.897-2.037c0-.796.343-1.509.897-2.03a3.117 3.117 0 0 1 2.152-.843Zm.008.493c-.7 0-1.335.268-1.794.7a2.307 2.307 0 0 0-.744 1.68v.007c0 .658.284 1.255.744 1.687.46.432 1.094.7 1.794.7s1.335-.268 1.794-.7l.015-.007c.452-.432.729-1.022.729-1.673a2.31 2.31 0 0 0-.744-1.687l-.015-.014a2.585 2.585 0 0 0-1.779-.693Zm-1.269 3.971V40.46h1.422c.357 0 .62.028.78.083.16.054.292.157.387.301a.88.88 0 0 1 .146.494.811.811 0 0 1-.219.583c-.146.15-.372.254-.664.288.146.082.27.172.365.268.095.096.226.267.387.507l.408.617h-.81l-.488-.685c-.175-.247-.292-.398-.357-.46a.514.514 0 0 0-.205-.13 1.314 1.314 0 0 0-.343-.035h-.138v1.317h-.671ZM61.149 33.444h3.66c1.299 0 2.932.974 3.64 2.16l1.276 2.161h-3.661c-1.298 0-2.932-.967-3.64-2.16l-1.275-2.16Zm0-28.51h3.66c1.299 0 2.932-.973 3.64-2.16l1.276-2.16h-3.661c-1.298 0-2.932.967-3.64 2.16l-1.275 2.16Zm-3.114 23.127h3.66c1.299 0 2.932.974 3.64 2.16l1.283 2.153h-3.66c-1.299 0-2.932-.973-3.64-2.16l-1.283-2.153Zm0-17.742h3.66c1.299 0 2.932-.974 3.64-2.16l1.283-2.154h-3.66c-1.299 0-2.932.974-3.64 2.16l-1.283 2.154Zm-2.786 12.859c.977-.11 1.94-.254 2.895-.453 1.794-.37 3.377.926 4.084 2.112l1.276 2.16h-3.668c-1.298 0-2.954-.966-3.64-2.16l-.947-1.66Zm0-7.97c.977.11 1.94.254 2.895.453 1.794.37 3.377-.926 4.084-2.112l1.276-2.16h-3.668c-1.298 0-2.946.966-3.64 2.16l-.947 1.66Zm-1.43 18.236h3.661c1.299 0 2.932.974 3.64 2.16l1.276 2.161h-3.661c-1.298 0-2.932-.974-3.64-2.16l-1.276-2.16Zm0-28.51h3.661c1.299 0 2.932-.973 3.64-2.16l1.276-2.16h-3.661c-1.298 0-2.932.974-3.64 2.16l-1.276 2.16Zm-3.114 23.127h3.661c1.298 0 2.932.974 3.64 2.16l1.276 2.16H55.62c-1.298 0-2.932-.974-3.64-2.16l-1.276-2.16Zm0-17.742h3.661c1.298 0 2.932-.974 3.64-2.154l1.276-2.16H55.62c-1.298 0-2.932.974-3.64 2.16l-1.276 2.154Zm-2.574 13.12c1.21.047 2.377.068 3.734 0 1.553-.076 2.67.747 3.362 1.933l.94 1.619h-3.66c-1.298 0-2.998-.947-3.64-2.16l-.736-1.393Zm0-8.498a39.845 39.845 0 0 1 3.734 0c1.553.075 2.67-.748 3.362-1.934l.94-1.619h-3.66c-1.298 0-2.998.947-3.64 2.16l-.736 1.393Zm-1.648 18.503h3.66c1.299 0 2.933.974 3.64 2.16l1.276 2.161h-2.69c-1.933 0-3.96-1.008-4.901-2.62l-.985-1.7Zm0-28.51h3.66c1.299 0 2.933-.973 3.64-2.16l1.276-2.16h-2.69c-1.933 0-3.96 1.008-4.901 2.62l-.985 1.7Zm-3.114 23.127h3.66c1.299 0 2.933.974 3.64 2.16l1.276 2.16h-3.66c-1.299 0-2.932-.974-3.64-2.16l-1.276-2.16Zm0-17.742h3.66c1.299 0 2.933-.974 3.64-2.154l1.276-2.16h-3.66c-1.299 0-2.932.974-3.64 2.16l-1.276 2.154Zm-3.15 12.29c1.305.267 2.472.39 4.01.59 1.328.15 2.932.994 3.64 2.173l.962 1.619h-3.66c-1.299 0-2.94-.967-3.64-2.16l-1.313-2.223Zm0-6.838c1.305-.268 2.472-.391 4.01-.59 1.328-.151 2.932-.994 3.64-2.174l.962-1.619h-3.66c-1.299 0-2.94.967-3.64 2.16l-1.313 2.223ZM38.898.587l-.183 15.63c-10.064 2.97-11.748-5.048-18.859 3.264-.306.357-.102.905.467.905 7.446-.027 11.34-.061 18.378 1.962l.19 15.396-23.112-.013L15.767.587h23.133Zm20.514 52.89 6.615-11.44h6.11l6.608 11.44h-5.987l-.7-1.515H66.07l-.729 1.515h-5.929Z" fill="#000"/></g><defs><clipPath id="a"><path fill="#000" d="M.336.587H92.06V54.08H.336z"/></clipPath></defs></svg>