<svg width="130" height="40" viewBox="0 0 130 40" fill="none" xmlns="http://www.w3.org/2000/svg">
<g clip-path="url(#clip0_506_265)">
<path d="M23.6778 23.8831C23.6778 21.9481 21.635 20.2722 18.6531 19.4495L16.5025 23.1653L23.6196 24.4451C23.6574 24.2602 23.6778 24.0724 23.6778 23.8831ZM22.4198 26.3933L15.3523 25.1222L13.1595 28.8044C13.589 28.8395 14.0273 28.8569 14.4743 28.8569C17.8625 28.8569 20.8225 27.8668 22.4198 26.3933ZM15.3625 18.9326C15.0698 18.9181 14.7742 18.9108 14.4743 18.9108C11.0847 18.9108 8.12461 19.8994 6.52735 21.3729L13.2731 22.5858L15.3625 18.9326ZM30.4382 19.8441C30.4192 19.8441 30.3989 19.847 30.3813 19.8529C30.3071 19.8761 30.2299 19.8936 30.1499 19.9169C29.6125 20.0727 28.9487 20.3188 28.2336 20.6537C28.2075 20.6653 28.1783 20.6755 28.1463 20.6755C28.0415 20.6755 27.9556 20.591 27.9556 20.4848L27.9584 20.4527C28.1143 19.5151 28.1988 18.5148 28.1988 17.4475C28.1988 13.8293 26.9102 10.859 25.0188 8.45511L19.6403 17.7431C23.391 18.8904 25.9638 21.2477 25.9638 23.9676C25.9638 27.8158 20.8197 30.9347 14.4728 30.9347C13.6953 30.9347 12.9382 30.8867 12.2044 30.7976L9.3098 34.0928C9.07246 34.3767 8.76088 34.4539 8.43911 34.2703C8.11731 34.0884 8.02268 33.7812 8.14499 33.4316C8.14499 33.4302 8.14645 33.4288 8.14645 33.426L9.22099 30.1659C5.5154 29.0097 2.98194 26.6685 2.98194 23.9676C2.98194 20.1207 8.12607 17.002 14.4728 17.002C15.1339 17.002 15.7803 17.0354 16.4108 17.101L22.7372 6.04539C18.7346 2.47232 13.6007 0.612985 11.2128 0.00582408C11.1997 0.00291203 11.1852 0 11.1706 0C11.0643 0 10.9784 0.0859053 10.9784 0.192195C10.9784 0.219859 10.9842 0.246068 10.9959 0.269364C13.7084 5.88378 11.3424 9.18749 8.04453 12.7926C4.61121 16.5433 0 19.8747 0 27.165C0 29.4406 0.854684 32.7154 4.63013 35.9536C7.73146 38.6137 13.145 39.9139 17.1985 39.4203C17.1985 39.4203 17.8013 39.3358 17.8974 39.3184C17.9935 39.301 18.0838 39.285 18.1566 39.2704C18.2469 39.253 18.3138 39.1744 18.3138 39.0811C18.3138 39.046 18.3066 39.014 18.2891 38.9848C18.0416 38.5016 17.5203 37.3134 17.6048 35.9609C17.7154 34.1858 19.2267 32.9686 20.2765 32.3251C20.4469 32.2218 20.6173 32.1125 20.7847 32.0047C20.907 32.3689 21.041 32.7415 21.1764 33.1289C21.6772 34.5559 21.8811 35.9929 21.4588 37.1853C21.2725 37.6469 21.0162 38.0734 20.6799 38.4317C20.6595 38.4536 20.6464 38.4825 20.6464 38.5145C20.6464 38.5802 20.6988 38.6327 20.7643 38.6327C20.7803 38.6327 20.7934 38.6297 20.808 38.6224C22.8843 37.8174 29.7363 34.7187 29.7363 28.6896C29.7363 25.8021 28.9004 24.2864 29.362 22.561C29.665 21.4253 30.1527 20.674 30.575 20.1717C30.6056 20.1339 30.6303 20.0902 30.6303 20.0378C30.6303 19.9315 30.5444 19.8456 30.4397 19.8456M5.27078 23.8846C5.27078 25.7745 7.22331 27.4183 10.0975 28.26L12.1651 24.5514L5.32905 23.3211C5.29117 23.506 5.27078 23.6938 5.27078 23.8846Z" fill="#1C1E26"/>
<path d="M35.4689 22.724L35.9757 21.8518C36.0895 21.6553 36.3281 21.6553 36.4548 21.7543C36.5247 21.7965 37.6646 22.6265 38.5791 22.6265C39.3114 22.6265 39.8589 22.1489 39.8589 21.5432C39.8589 20.8254 39.2533 20.3332 38.0723 19.8542C36.7504 19.3198 35.4268 18.4753 35.4268 16.8155C35.4268 15.5633 36.3556 14.1145 38.5923 14.1145C40.0265 14.1145 41.1244 14.8455 41.4051 15.0566C41.545 15.141 41.5888 15.3798 41.4897 15.5211L40.9553 16.3233C40.8433 16.4922 40.6322 16.6043 40.4631 16.4922C40.3511 16.4223 39.2825 15.7176 38.5078 15.7176C37.7331 15.7176 37.2701 16.252 37.2701 16.7019C37.2701 17.3629 37.7899 17.8128 38.9301 18.2773C40.2944 18.8262 41.8698 19.6416 41.8698 21.4558C41.8698 22.9046 40.6176 24.2412 38.6344 24.2412C36.8624 24.2412 35.8199 23.4113 35.5389 23.1433C35.4122 23.0167 35.3423 22.9468 35.4689 22.7211" fill="#1C1E26"/>
<path d="M43.3911 14.5207C43.3911 14.3794 43.5177 14.2527 43.6589 14.2527H44.9957C45.1499 14.2527 45.2636 14.3794 45.2636 14.5207V20.2749C45.2636 21.4717 46.079 22.4137 47.3034 22.4137C48.5279 22.4137 49.3579 21.4717 49.3579 20.2894V14.5207C49.3579 14.3794 49.4699 14.2527 49.6243 14.2527H50.9608C51.1021 14.2527 51.229 14.3794 51.229 14.5207V20.3724C51.229 22.5113 49.5266 24.2411 47.3034 24.2411C45.08 24.2411 43.3925 22.5113 43.3925 20.3724V14.5207H43.3911Z" fill="#1C1E26"/>
<path d="M57.8567 22.4142C59.6287 22.4142 61.0921 20.964 61.0921 19.1921C61.0921 17.4201 59.6287 15.9422 57.8567 15.9422C56.0848 15.9422 54.6348 17.4201 54.6348 19.1921C54.6348 20.964 56.0834 22.4142 57.8567 22.4142ZM57.8567 14.1135C60.6699 14.1135 62.9208 16.379 62.9208 19.1921C62.9208 22.0051 60.6699 24.243 57.8567 24.243C55.0439 24.243 52.8058 22.0066 52.8058 19.1921C52.8058 16.3776 55.0425 14.1135 57.8567 14.1135Z" fill="#1C1E26"/>
<path d="M65.6528 14.3246C65.6671 14.2125 65.7502 14.1135 65.9061 14.1135H66.1318C66.2452 14.1135 66.3284 14.1703 66.3705 14.2547L69.466 20.8956H69.5082L72.6037 14.2547C72.6459 14.1703 72.7158 14.1135 72.8424 14.1135H73.0681C73.2226 14.1135 73.3071 14.2125 73.3217 14.3246L74.9814 23.7785C75.0238 23.9751 74.9115 24.1018 74.7281 24.1018H73.4483C73.3217 24.1018 73.2094 23.9897 73.1805 23.8906L72.3505 18.5587H72.3081L69.8459 24.0872C69.8184 24.1717 69.7339 24.243 69.6073 24.243H69.354C69.2271 24.243 69.1575 24.1731 69.1151 24.0872L66.6254 18.5587H66.583L65.7676 23.8906C65.753 23.9882 65.641 24.1018 65.5144 24.1018H64.2475C64.0656 24.1018 63.9521 23.9751 63.9797 23.7785L65.6542 14.3246H65.6528Z" fill="#1C1E26"/>
<path d="M76.7685 14.5207C76.7685 14.3794 76.8805 14.2527 77.0364 14.2527H82.7628C82.9173 14.2527 83.0293 14.3794 83.0293 14.5207V15.6753C83.0293 15.8151 82.9173 15.9417 82.7628 15.9417H78.5986V18.2495H82.0744C82.2156 18.2495 82.3422 18.3762 82.3422 18.5174V19.6852C82.3422 19.8395 82.2156 19.9531 82.0744 19.9531H78.5986V22.4152H82.7628C82.9173 22.4152 83.0293 22.5419 83.0293 22.6817V23.8348C83.0293 23.9746 82.9173 24.1027 82.7628 24.1027H77.0364C76.8822 24.1027 76.7685 23.9761 76.7685 23.8348V14.5207Z" fill="#1C1E26"/>
<path d="M84.9015 14.3668C84.9015 14.2256 85.0282 14.1135 85.168 14.1135H85.5203L91.3737 20.3321H91.3866V14.5211C91.3866 14.3799 91.5004 14.2547 91.6545 14.2547H92.9489C93.0901 14.2547 93.217 14.3814 93.217 14.5211V23.9897C93.217 24.1294 93.0901 24.243 92.9489 24.243H92.6111L86.7302 17.7855H86.7159V23.8353C86.7159 23.9765 86.6022 24.1032 86.4478 24.1032H85.1666C85.0267 24.1032 84.9001 23.9765 84.9001 23.8353V14.3668H84.9015Z" fill="#1C1E26"/>
<path d="M98.6077 14.5207C98.6077 14.3794 98.72 14.2527 98.8741 14.2527H100.169C100.31 14.2527 100.437 14.3794 100.437 14.5207V22.4137H104.026C104.18 22.4137 104.292 22.5404 104.292 22.6802V23.8334C104.292 23.9731 104.179 24.1013 104.026 24.1013H98.8755C98.7214 24.1013 98.6093 23.9746 98.6093 23.8334V14.5192L98.6077 14.5207Z" fill="#1C1E26"/>
<path d="M111.385 20.7391L109.977 17.6436H109.935L108.556 20.7391H111.385ZM105.307 23.7356L109.683 14.2671C109.725 14.1826 109.795 14.1113 109.922 14.1113H110.063C110.204 14.1113 110.259 14.1811 110.301 14.2671L114.635 23.7356C114.719 23.919 114.606 24.101 114.396 24.101H113.171C112.96 24.101 112.863 24.0166 112.764 23.82L112.075 22.2999H107.869L107.18 23.82C107.123 23.9612 106.996 24.101 106.772 24.101H105.548C105.337 24.101 105.224 23.9176 105.309 23.7356" fill="#1C1E26"/>
<path d="M116.578 15.9417H114.426C114.27 15.9417 114.158 15.8151 114.158 15.6753V14.5207C114.158 14.3794 114.27 14.2527 114.426 14.2527H120.573C120.729 14.2527 120.841 14.3794 120.841 14.5207V15.6753C120.841 15.8151 120.728 15.9417 120.573 15.9417H118.421V23.8348C118.421 23.9746 118.293 24.1027 118.153 24.1027H116.846C116.705 24.1027 116.578 23.9761 116.578 23.8348V15.9417Z" fill="#1C1E26"/>
<path d="M122.024 14.5207C122.024 14.3794 122.151 14.2527 122.292 14.2527H123.629C123.783 14.2527 123.897 14.3794 123.897 14.5207V20.2749C123.897 21.4717 124.712 22.4137 125.937 22.4137C127.161 22.4137 127.991 21.4717 127.991 20.2894V14.5207C127.991 14.3794 128.103 14.2527 128.257 14.2527H129.594C129.734 14.2527 129.862 14.3794 129.862 14.5207V20.3724C129.862 22.5113 128.158 24.2411 125.937 24.2411C123.715 24.2411 122.026 22.5113 122.026 20.3724V14.5207H122.024Z" fill="#1C1E26"/>
<path d="M35.5453 34.1776V28.2951C35.5453 28.1777 35.6354 28.0786 35.7618 28.0786H36.5558C36.6732 28.0786 36.7723 28.1777 36.7723 28.2951V30.7311L39.046 28.1687C39.082 28.1235 39.1362 28.0786 39.2173 28.0786H40.1197C40.291 28.0786 40.3811 28.2681 40.2641 28.4035L37.9092 31.056L40.4353 34.0783C40.5257 34.1956 40.4536 34.3941 40.273 34.3941H39.2895C39.1994 34.3941 39.1452 34.3582 39.1272 34.3309L36.7723 31.4257V34.1776C36.7723 34.295 36.6732 34.3941 36.5558 34.3941H35.7618C35.6354 34.3941 35.5453 34.295 35.5453 34.1776ZM41.431 34.2229V28.2499C41.431 28.1597 41.5121 28.0786 41.6025 28.0786H42.4415C42.5316 28.0786 42.6128 28.1597 42.6128 28.2499V34.2229C42.6128 34.313 42.5316 34.3941 42.4415 34.3941H41.6025C41.5121 34.3941 41.431 34.313 41.431 34.2229ZM44.2592 34.2229V28.2499C44.2592 28.1597 44.3404 28.0786 44.4308 28.0786H45.2698C45.3599 28.0786 45.4413 28.1597 45.4413 28.2499V34.2229C45.4413 34.313 45.3599 34.3941 45.2698 34.3941H44.4308C44.3404 34.3941 44.2592 34.313 44.2592 34.2229ZM47.0875 34.2229V28.2499C47.0875 28.1597 47.1597 28.0786 47.2591 28.0786H48.0891C48.1792 28.0786 48.2603 28.1597 48.2603 28.2499V33.3114H50.561C50.6604 33.3114 50.7326 33.3926 50.7326 33.483V34.2229C50.7326 34.313 50.6604 34.3941 50.561 34.3941H47.2591C47.1597 34.3941 47.0875 34.313 47.0875 34.2229ZM51.1299 31.2455C51.1299 29.4409 52.5646 27.9883 54.3689 27.9883C56.1735 27.9883 57.617 29.4409 57.617 31.2455C57.617 33.0498 56.1735 34.4843 54.3689 34.4843C52.5646 34.4843 51.1299 33.0498 51.1299 31.2455ZM52.303 31.2455C52.303 32.3821 53.2321 33.3114 54.3689 33.3114C55.5058 33.3114 56.4441 32.3821 56.4441 31.2455C56.4441 30.1086 55.5058 29.1613 54.3689 29.1613C53.2321 29.1613 52.303 30.1086 52.303 31.2455ZM58.7971 34.2229V28.2499C58.7971 28.1597 58.8695 28.0786 58.9686 28.0786H61.0888C62.1987 28.0786 63.1098 28.9807 63.1098 30.0724C63.1098 31.1913 62.1987 32.1024 61.0978 32.1024H59.9702V34.2229C59.9702 34.313 59.889 34.3941 59.7986 34.3941H58.9686C58.8695 34.3941 58.7971 34.313 58.7971 34.2229ZM59.9702 31.0018H61.0166C61.522 31.0018 61.946 30.5958 61.946 30.0634C61.946 29.5673 61.522 29.1882 61.0166 29.1882H59.9702V31.0018ZM63.1165 34.3941C62.9812 34.3941 62.909 34.2768 62.9632 34.1597L65.7691 28.0876C65.796 28.0334 65.8412 27.9883 65.9224 27.9883H66.0128C66.1029 27.9883 66.1388 28.0334 66.1661 28.0876L68.9449 34.1597C68.9991 34.2768 68.927 34.3941 68.7916 34.3941H68.0066C67.8712 34.3941 67.8081 34.3399 67.7449 34.2136L67.3029 33.2393H64.6052L64.163 34.2136C64.1271 34.304 64.0459 34.3941 63.9013 34.3941H63.1165ZM65.0472 32.2378H66.8607L65.9586 30.2529H65.9313L65.0472 32.2378ZM67.0592 27.4018C66.7434 27.4018 66.4909 27.1402 66.4909 26.8244C66.4909 26.5086 66.7434 26.256 67.0592 26.256C67.3751 26.256 67.6368 26.5086 67.6368 26.8244C67.6368 27.1402 67.3751 27.4018 67.0592 27.4018ZM64.8307 27.4018C64.5148 27.4018 64.2624 27.1402 64.2624 26.8244C64.2624 26.5086 64.5148 26.256 64.8307 26.256C65.1466 26.256 65.4082 26.5086 65.4082 26.8244C65.4082 27.1402 65.1466 27.4018 64.8307 27.4018ZM69.0991 34.3941C68.9637 34.3941 68.8907 34.2768 68.9449 34.1597L71.7516 28.0876C71.7788 28.0334 71.8237 27.9883 71.9049 27.9883H71.9953C72.0854 27.9883 72.1216 28.0334 72.1486 28.0876L74.9275 34.1597C74.9816 34.2768 74.9095 34.3941 74.7741 34.3941H73.9891C73.8538 34.3941 73.7906 34.3399 73.7274 34.2136L73.2855 33.2393H70.5878L70.1455 34.2136C70.1096 34.304 70.0285 34.3941 69.8841 34.3941H69.0991ZM71.03 32.2378H72.8432L71.9411 30.2529H71.9141L71.03 32.2378ZM73.0417 27.4018C72.7262 27.4018 72.4735 27.1402 72.4735 26.8244C72.4735 26.5086 72.7262 26.256 73.0417 26.256C73.3576 26.256 73.6193 26.5086 73.6193 26.8244C73.6193 27.1402 73.3576 27.4018 73.0417 27.4018ZM70.8132 27.4018C70.4976 27.4018 70.2449 27.1402 70.2449 26.8244C70.2449 26.5086 70.4976 26.256 70.8132 26.256C71.1291 26.256 71.3908 26.5086 71.3908 26.8244C71.3908 27.1402 71.1291 27.4018 70.8132 27.4018Z" fill="#1C1E26"/>
</g>
<defs>
<clipPath id="clip0_506_265">
<rect width="129.862" height="39.5233" fill="white"/>
</clipPath>
</defs>
</svg>
