<svg width="131" height="35" viewBox="0 0 131 35" fill="none" xmlns="http://www.w3.org/2000/svg">
<g clip-path="url(#clip0_491_344)">
<path d="M75.2321 31.6709H76.846L84.1824 23.3808L84.9894 24.3346L76.846 33.5784H78.5334L85.7964 25.2883L91.2986 31.6709L92.986 33.5784H94.6L84.1824 21.5468L75.2321 31.6709Z" fill="#1D1D1B"/>
<path d="M6.71062 31.2307L2.30882 21.5468L0.401367 33.6517H1.72191L2.82236 25.7285L6.71062 34.1653L10.5989 25.7285L11.626 33.6517H12.9465L11.1858 21.5468L6.71062 31.2307Z" fill="#1D1D1B"/>
<path d="M20.723 22.207V33.6517H26.6655V32.4779H22.0436V28.0027H26.5187V26.8289H22.0436V23.4542H26.6655V22.207H20.723Z" fill="#1D1D1B"/>
<path d="M34.1486 22.207H36.4962C37.67 22.207 39.284 22.3538 40.7513 23.5276C41.7784 24.4079 42.7321 25.8752 42.7321 27.9294C42.7321 29.9836 41.5583 31.5976 40.7513 32.3312C39.7242 33.2115 38.6237 33.6517 36.5696 33.6517H34.2219V22.207H34.1486ZM35.3957 32.4779H36.4962C37.3766 32.4779 38.6237 32.4046 39.7975 31.4508C40.6779 30.7172 41.3382 29.6167 41.3382 28.0027C41.3382 25.2883 39.4307 23.4542 36.4962 23.4542H35.3957V32.4779Z" fill="#1D1D1B"/>
<path d="M51.3889 22.207H50.1417V33.6517H51.3889V22.207Z" fill="#1D1D1B"/>
<path d="M65.7682 30.4237H60.9262L59.5323 33.6517H58.1384L63.4206 21.6935L68.556 33.6517H67.1621L65.8416 30.4237H65.7682ZM65.328 29.2499L63.4206 24.7014L61.4398 29.2499H65.328Z" fill="#1D1D1B"/>
<path d="M130.401 8.6348H127.76V9.88197H130.401V8.6348Z" fill="#1D1D1B"/>
<path d="M1.64855 8.12125L6.5639 3.2059H8.25125L2.89572 8.56143L8.39798 14.6506H6.71062L2.01536 9.44179L1.64855 9.73525V14.6506H0.401367V3.2059H1.64855V8.12125Z" fill="#1D1D1B"/>
<path d="M16.5414 3.2059H15.2942V14.6506H16.5414V3.2059Z" fill="#1D1D1B"/>
<path d="M25.9319 3.2059H24.6847V14.6506H25.9319V3.2059Z" fill="#1D1D1B"/>
<path d="M34.0018 14.6506V2.76572L42.9522 12.0829V3.2059H44.1993V15.1641L35.249 5.84698V14.6506H34.0018Z" fill="#1D1D1B"/>
<path d="M55.1304 4.45308V14.6506H53.8099V4.45308H51.0221V3.2059H57.8449V4.45308H55.1304Z" fill="#1D1D1B"/>
<path d="M70.6835 4.45308H65.9883V7.8278H70.5368V9.00161H65.9883V13.4768H70.6835V14.6506H64.7411V3.2059H70.6835V4.45308Z" fill="#1D1D1B"/>
<path d="M79.4138 3.2059H78.1666V14.6506H79.4138V3.2059Z" fill="#1D1D1B"/>
<path d="M92.6192 5.48017C92.4725 5.18671 92.179 4.8199 91.9589 4.59981C91.7388 4.45308 91.2987 4.23299 90.6384 4.23299C89.5379 4.23299 88.7309 4.96662 88.7309 5.99371C88.7309 7.0208 88.8777 6.72735 89.1711 7.0208C89.5379 7.38762 89.9781 7.53434 90.3449 7.75443L91.4454 8.26798C92.1057 8.56143 92.7659 8.85489 93.2061 9.36843C93.793 9.95534 94.0131 10.6156 94.0131 11.4226C94.0131 13.5501 92.4725 14.944 90.4183 14.944C88.3641 14.944 88.7309 14.7973 87.9239 13.9903C87.337 13.4768 87.0436 12.6698 86.8969 11.9361L88.144 11.5693C88.2174 12.1562 88.5108 12.6698 88.8043 13.0366C89.3178 13.5501 89.9047 13.6969 90.4183 13.6969C91.9589 13.6969 92.6926 12.5964 92.6926 11.4226C92.6926 10.2488 92.5458 10.4689 92.1057 10.1021C91.8122 9.80861 91.2987 9.58852 90.7117 9.29507L89.6847 8.78152C89.2445 8.56143 88.6576 8.34134 88.144 7.8278C87.6305 7.31425 87.337 6.80071 87.337 5.99371C87.337 4.23299 88.6576 3.05917 90.565 3.05917C92.4725 3.05917 91.8122 3.2059 92.3991 3.57272C92.8393 3.86617 93.2795 4.37972 93.4996 4.8199L92.4725 5.48017H92.6192Z" fill="#1D1D1B"/>
<path d="M103.624 4.45308V14.6506H102.377V4.45308H99.5887V3.2059H106.412V4.45308H103.624Z" fill="#1D1D1B"/>
<path d="M112.061 8.92825C112.061 5.48017 114.702 2.98581 118.003 2.98581C121.304 2.98581 123.945 5.48017 123.945 8.92825C123.945 12.3763 121.304 14.8707 118.003 14.8707C114.702 14.8707 112.061 12.3763 112.061 8.92825ZM113.381 8.92825C113.381 11.5693 115.435 13.6235 118.003 13.6235C120.571 13.6235 122.625 11.496 122.625 8.92825C122.625 6.36053 120.571 4.23299 118.003 4.23299C115.435 4.23299 113.381 6.36053 113.381 8.92825ZM116.389 0.344727C116.903 0.344727 117.269 0.711544 117.269 1.22509C117.269 1.73863 116.903 2.10545 116.389 2.10545C115.875 2.10545 115.509 1.73863 115.509 1.22509C115.509 0.711544 115.875 0.344727 116.389 0.344727ZM119.617 0.344727C120.131 0.344727 120.497 0.711544 120.497 1.22509C120.497 1.73863 120.131 2.10545 119.617 2.10545C119.103 2.10545 118.737 1.73863 118.737 1.22509C118.737 0.711544 119.103 0.344727 119.617 0.344727Z" fill="#1D1D1B"/>
</g>
<defs>
<clipPath id="clip0_491_344">
<rect width="130" height="33.8205" fill="white" transform="translate(0.401367 0.344727)"/>
</clipPath>
</defs>
</svg>
