<svg xmlns="http://www.w3.org/2000/svg" class="is-biggest" x="0" y="0" viewBox="0 0 453.54 119.06" xml:space="preserve"><path fill="currentColor" d="M328.23 116.36l-36.17-41.93-31.07 35.31h5.7l25.33-28.78 2.87 3.34-28.19 32.06h5.69l25.32-28.79 19.11 22.18 5.72 6.61zM.96 116.57l6.61-41.95 15.25 33.54 15.55-33.6 6.2 42.01h-4.53l-3.75-27.65-13.53 29.31L9.42 88.92l-3.93 27.65H.96zM92.24 80.99H76.03v11.8h15.73v4.17H76.03v15.43h16.21v4.17H71.63V76.82h20.62v4.17zM118.22 76.82h8.1c3.99 0 9.65.42 14.66 4.65 3.63 3.04 6.79 8.1 6.79 15.25 0 8.34-4.11 12.81-6.97 15.25-3.63 3.1-7.45 4.59-14.54 4.59h-8.04V76.82zm4.41 35.57h3.87c3.16 0 7.51-.36 11.38-3.57 2.98-2.5 5.36-6.43 5.36-12.1 0-9.53-6.67-15.73-16.74-15.73h-3.87v31.4zM178.16 76.82v39.74h-4.41V76.82h4.41zM228.21 105.36h-16.92l-4.77 11.2h-4.89l18.29-41.65 17.82 41.65h-4.89l-4.64-11.2zm-1.73-4.17l-6.67-15.91-6.79 15.91h13.46z"/><path fill="currentColor" d="M443.45 29.72h9.14v4.41h-9.14v-4.41z"/><path fill="currentColor" d="M5.37 27.87l16.92-17.04h5.96L9.66 29.36l19.18 21.21h-6.08L6.5 32.34l-1.13 1.13v17.1H.96V10.83h4.41v17.04zM57.09 10.83v39.74h-4.41V10.83h4.41zM89.62 10.83v39.74h-4.41V10.83h4.41zM117.74 50.57V9.16l30.98 32.47v-30.8h4.41v41.53l-30.98-32.47v30.68h-4.41zM191.03 15v35.57h-4.41V15h-9.65v-4.17h23.71V15h-9.65zM245.13 15h-16.21v11.8h15.73v4.17h-15.73V46.4h16.21v4.17h-20.61V10.83h20.61V15zM275.52 10.83v39.74h-4.41V10.83h4.41zM321.4 18.7c-.54-1.07-1.43-2.26-2.32-2.98-.77-.6-2.21-1.37-4.47-1.37-3.93 0-6.67 2.44-6.67 6.14 0 1.55.42 2.44 1.49 3.46 1.19 1.19 2.68 1.85 4.17 2.5l3.81 1.67c2.32 1.01 4.47 2.09 6.14 3.75 2.02 2.03 2.86 4.35 2.86 7.21 0 7.33-5.42 12.21-12.57 12.21-2.62 0-5.9-.54-8.64-3.22-1.96-1.91-3.16-4.65-3.69-7.03l4.29-1.19c.3 2.09 1.25 3.87 2.38 5.06 1.73 1.73 3.69 2.21 5.72 2.21 5.42 0 7.99-3.87 7.99-7.87 0-1.79-.54-3.34-1.97-4.65-1.13-1.07-2.68-1.79-4.77-2.74l-3.58-1.67c-1.55-.71-3.51-1.55-5.3-3.28-1.73-1.67-2.74-3.52-2.74-6.49 0-6.14 4.71-10.25 11.14-10.25 2.44 0 4.41.48 6.38 1.79 1.61 1.07 2.98 2.68 3.87 4.41l-3.52 2.33zM359.65 15v35.57h-4.41V15h-9.65v-4.17h23.71V15h-9.65zM388.91 30.73c0-11.86 9.23-20.56 20.67-20.56 11.44 0 20.68 8.7 20.68 20.56 0 11.8-9.18 20.56-20.68 20.56-11.49 0-20.67-8.76-20.67-20.56zm4.53 0c0 9.12 7.21 16.39 16.15 16.39 8.94 0 16.15-7.27 16.15-16.39s-7.21-16.38-16.15-16.38c-8.94 0-16.15 7.27-16.15 16.38zM403.92.82c1.67 0 3.04 1.37 3.04 3.04s-1.37 3.04-3.04 3.04-3.04-1.37-3.04-3.04 1.38-3.04 3.04-3.04zm11.33 0c1.67 0 3.04 1.37 3.04 3.04s-1.37 3.04-3.04 3.04-3.04-1.37-3.04-3.04 1.37-3.04 3.04-3.04z"/></svg>
