<svg class="is-biggest" xmlns="http://www.w3.org/2000/svg" viewBox="0 0 441 114" width="124" height="52.3"><path d="M392.69 0h1.54c1.59 1.43 2.39 1.69 2 4.06-1.03 1.38-2.83 2.49-4.35 1.1-2.26-1.71-1.09-3.79.81-5.16ZM403.83 0h1.29c1.09.84 2.51 1.31 2.21 2.98.19 2.5-3.45 3.91-4.96 1.66-1.53-2.07-.17-3.29 1.46-4.64ZM114.01 8.14c10.2 10.49 20.19 21.18 30.44 31.63-.07-10 .01-20-.06-29.99l4.21.03c-.05 13.39-.07 26.78.01 40.17-10.05-10.57-20.21-21.04-30.3-31.58-.04 9.97-.01 19.93-.01 29.9-1.42 0-2.84-.01-4.27-.01.12-13.37.17-26.79-.02-40.15ZM310.87 10.02c2.48 1.05 3.88 2.98 5.59 4.93-1.11.76-2.22 1.51-3.34 2.26-2.02-2.48-3.65-4.33-7.14-4.18-4.41-.15-7.87 4.62-5.58 8.56 3.34 3.7 9.42 4.56 13.39 7.63 5.35 3.43 4.95 12.12.66 16.2-3.38 3.61-9.13 4.06-13.62 2.72-4.25-1.58-5.9-5.01-7.48-8.96 1.36-.39 2.71-.77 4.07-1.15.95 2.05 1.75 4.52 3.77 5.78 2.11 1.46 4.98 1.4 7.36.7 4.65-1.3 6.73-8.67 2.78-11.81-3.84-3.12-9.82-4.17-13.37-7.69-2.94-2.35-2.93-7.29-1.47-10.41 2.62-5.24 9.27-6.47 14.38-4.58ZM0 9.79h4.25c0 5.53-.01 11.07 0 16.6C9.82 20.87 15.3 15.27 20.88 9.77l5.81.03C20.51 15.64 14.5 21.67 8.43 27.63c6.22 6.92 12.43 13.87 18.76 20.7-1.95-.02-3.91-.04-5.86-.05-5.56-6-10.8-12.31-16.46-18.22-1.27 5.89-.36 12.23-.62 18.24-1.42 0-2.83-.01-4.25-.01V9.79ZM50.54 9.77c1.41 0 2.81.01 4.21.01-.05 12.81-.05 25.63 0 38.44-1.4 0-2.8 0-4.21.01.05-12.82.05-25.65 0-38.46ZM82.27 9.78c1.39 0 2.79-.01 4.19-.01-.05 12.81-.05 25.64 0 38.46-1.4-.01-2.8-.01-4.19-.01.06-12.81.06-25.63 0-38.44ZM171.89 9.78c7.72.02 15.45.01 23.17.01-.01 1.26-.02 2.51-.02 3.77-3.17.04-6.33.09-9.5.12.01 11.54-.02 23.08.02 34.61-1.39.01-2.78.02-4.17.02.09-11.53.04-23.07.03-34.61-3.18-.01-6.36-.01-9.53.04V9.78ZM218.4 9.78c6.66.02 13.32.02 19.98 0v3.96c-5.28-.07-10.56-.03-15.84-.05 0 3.88.01 7.76-.01 11.64h15.51c0 1.31.01 2.62.02 3.93-5.17.05-10.35.04-15.52 0v15.12c5.3 0 10.59.02 15.88-.02 0 1.32-.01 2.63-.01 3.94-6.66-.02-13.33-.03-19.99.01.01-12.84.05-25.68-.02-38.53ZM263.8 9.78h4.32V48.2c-1.44.01-2.88.02-4.32.02.01-12.81.01-25.63 0-38.44ZM336.55 9.78c7.71.02 15.42.01 23.13.01v3.79c-3.16.02-6.31.07-9.46.11-.02 11.53-.02 23.07 0 34.61-1.45-.01-2.9-.01-4.34-.01-.01-11.54.02-23.07-.02-34.61-3.1.02-6.2.02-9.3.04 0-1.31-.01-2.62-.01-3.94ZM394.19 10.13c5.88-1.47 12.34-.17 17.14 3.54 6.55 5.09 9.91 14.3 6.43 22.16-3.52 9.36-14.11 14.69-23.76 12.06-8.26-2.01-14.48-9.35-14.88-17.89-.53-9.29 6.07-17.77 15.07-19.87Z" fill="currentColor"/><path class="do-not-fill" d="M394.45 13.6c5.16-1.38 10.79-.48 14.82 3.15 7.2 5.82 7.48 17.85.62 24.05-4.24 4.2-10.53 5.2-16.11 3.46-6.28-2.27-10.8-8.59-10.52-15.32-.23-6.91 4.68-13.31 11.19-15.34Z" fill="#fff"/><path d="M432.21 28H441v4.21c-2.96 0-5.91 0-8.87.01.03-1.41.06-2.82.08-4.22ZM6.29 71.73c5.28 10.72 9.85 21.78 15.09 32.52 5.23-10.78 9.97-21.81 15.35-32.52 1.49 13.55 3.87 27 5.75 40.5h-4.36c-1.09-8.96-2.28-17.92-3.62-26.84-4.36 9.53-9.01 18.96-13.09 28.61h-.2c-4.13-9.52-8.45-19.09-13.04-28.4-1.34 8.86-2.45 17.76-3.78 26.63-1.46 0-2.93 0-4.39-.01v-.43c2.34-13.22 4.55-26.75 6.29-40.06ZM213.88 72.06c5.74 13.42 11.4 26.89 17.38 40.19-1.65-.02-3.3-.03-4.94-.05-1.33-3.65-2.85-7.21-4.42-10.75-5.49-.04-10.99-.01-16.48-.03-1.58 3.58-3.18 7.16-4.67 10.78-1.56.01-3.12.03-4.68.04 5.93-13.39 11.83-26.8 17.81-40.18Z" fill="currentColor"/><path d="M284.31 71.68c11.72 13.49 23.47 26.97 35.13 40.5l-5.31.06c-8.18-9.32-16.26-18.73-24.39-28.08-8.25 9.38-16.49 18.78-24.82 28.08-1.78-.02-3.56-.03-5.34-.05 9.13-10.44 18.42-20.74 27.48-31.24-.96-1.06-1.93-2.12-2.89-3.18-8.25 9.3-16.43 18.65-24.7 27.92l-5.5.06c9.54-10.7 18.96-21.54 28.51-32.22.61-.63 1.22-1.24 1.83-1.85Z" fill="#0074bc"/><path d="M68.98 73.9h20.16c.01 1.28.01 2.56.02 3.84-5.33-.03-10.66-.03-15.99 0 .04 3.91.03 7.82.01 11.73 5.15.01 10.29.03 15.44-.01v3.79c-5.14-.01-10.29 0-15.43-.01.01 5.08.02 10.15-.01 15.23 5.33.02 10.65.01 15.98.01-.01 1.25-.01 2.5-.01 3.74H68.98V73.9ZM114.55 73.89c5.35.14 11.17-.57 16.21 1.18 4.89 1.75 9.08 5.23 11.12 10.09 2.96 8.15 1.53 17.63-5.7 23.04-6.74 5.39-13.62 3.8-21.59 4.02-.01-12.77.03-25.55-.04-38.33ZM168.8 73.82c1.41.01 2.81.01 4.22.01v38.41c-1.41-.01-2.81-.02-4.22-.02 0-12.8.01-25.6 0-38.4Z" fill="currentColor"/><path d="M118.76 77.66c4.43.08 8.48-.05 12.52 2.07 8.82 4.29 10.48 18.32 2.98 24.58-4.13 4.29-9.99 3.94-15.5 4.26.01-10.31.01-20.61 0-30.91ZM213.68 81.81c2.19 5.24 4.47 10.43 6.61 15.7-4.46 0-8.91.01-13.37-.02 1.93-4.28 3.72-8.62 5.58-12.93.39-.92.79-1.84 1.18-2.75ZM8.17 85.6c4.59 9.31 8.91 18.88 13.04 28.4H0v-1.78c1.46.01 2.93.01 4.39.01 1.33-8.87 2.44-17.77 3.78-26.63Z" class="do-not-fill" fill="#fff"/></svg>
