<svg width="328" height="38" viewBox="0 0 328 38" fill="none" xmlns="http://www.w3.org/2000/svg"><path d="M.225 2.7H15.17v.931h-2.695v15.484l.392-.098L26.685 3.631h-3.871V2.7h8.575v.931h-2.94l-8.428 9.408 11.76 23.03h2.646V37H18.698v-.931h2.303l-8.085-15.631-.441.098v15.533h2.695V37H.225v-.931H2.92V3.631H.225V2.7zm42.452 7.595c-1.731 0-2.972-.441-3.724-1.323-.718-.882-1.078-1.976-1.078-3.283s.392-2.385 1.176-3.234c.817-.85 2.042-1.274 3.675-1.274 1.634 0 2.875.392 3.724 1.176.85.751 1.274 1.846 1.274 3.283 0 1.405-.408 2.532-1.225 3.381-.816.85-2.09 1.274-3.822 1.274zm-7.399 3.381h12.005v22.442h2.744V37H35.474v-.882h2.695v-21.56h-2.89v-.882zm22.951-3.381c-1.731 0-2.972-.441-3.724-1.323-.719-.882-1.078-1.976-1.078-3.283s.392-2.385 1.176-3.234c.817-.85 2.042-1.274 3.675-1.274s2.875.392 3.724 1.176c.85.751 1.274 1.846 1.274 3.283 0 1.405-.408 2.532-1.225 3.381-.817.85-2.09 1.274-3.822 1.274zm-7.399 3.381h12.005v22.442h2.744V37H51.026v-.882h2.695v-21.56h-2.89v-.882zm15.846 0h11.809v4.508c.523-1.503 1.323-2.711 2.4-3.626 1.079-.915 2.712-1.372 4.9-1.372 5.064 0 7.596 2.728 7.596 8.183v14.749h2.744V37H82.258v-.882h2.009V20.193c0-1.96-.13-3.218-.392-3.773-.261-.588-.735-.882-1.421-.882-1.045 0-1.976.686-2.793 2.058-.784 1.372-1.176 3.038-1.176 4.998v13.524h2.107V37H66.676v-.882h2.695v-21.56h-2.695v-.882zm32.307 16.317V14.558h-2.695v-.882h2.695V7.355l9.114-2.254v8.575h6.37v.882h-6.37v16.513c0 1.535.147 2.662.441 3.381.327.719.98 1.078 1.96 1.078s1.829-.49 2.548-1.47c.751-.98 1.241-2.32 1.47-4.018l.833.098c-.261 2.254-.98 4.05-2.156 5.39-1.176 1.307-3.12 1.96-5.831 1.96-2.711 0-4.786-.539-6.223-1.617-1.437-1.078-2.156-3.038-2.156-5.88zm29.721 7.497c-4.214 0-7.383-1.078-9.506-3.234-2.091-2.189-3.136-5.21-3.136-9.065 0-3.887 1.176-6.86 3.528-8.918 2.385-2.058 5.406-3.087 9.065-3.087 7.415 0 10.976 3.724 10.682 11.172h-13.818v1.911c0 3.201.408 5.619 1.225 7.252.817 1.633 2.238 2.45 4.263 2.45 3.789 0 6.272-2.025 7.448-6.076l.882.147c-.621 2.352-1.748 4.181-3.381 5.488-1.601 1.307-4.018 1.96-7.252 1.96zm-3.136-14.112h5.047v-2.401c0-2.646-.163-4.443-.49-5.39-.294-.98-.915-1.47-1.862-1.47-.915 0-1.601.523-2.058 1.568-.425 1.013-.637 2.777-.637 5.292v2.401zm22.718-13.083c-1.732 0-2.973-.441-3.724-1.323-.719-.882-1.078-1.976-1.078-3.283s.392-2.385 1.176-3.234c.816-.85 2.041-1.274 3.675-1.274 1.633 0 2.874.392 3.724 1.176.849.751 1.274 1.846 1.274 3.283 0 1.405-.409 2.532-1.225 3.381-.817.85-2.091 1.274-3.822 1.274zm-7.399 3.381h12.005v22.442h2.744V37h-14.553v-.882h2.695v-21.56h-2.891v-.882zm16.875 23.814v-8.771h.588c.849 2.842 1.992 4.835 3.43 5.978 1.437 1.143 3.234 1.715 5.39 1.715 3.332 0 4.998-1.062 4.998-3.185 0-.915-.409-1.6-1.225-2.058-1.274-.719-2.908-1.274-4.9-1.666-2.222-.588-4.084-1.372-5.586-2.352-1.797-1.176-2.695-3.038-2.695-5.586 0-2.548.784-4.573 2.352-6.076 1.568-1.535 3.658-2.303 6.272-2.303 1.6 0 3.25.376 4.949 1.127.62.261 1.094.392 1.421.392.326 0 .604-.114.833-.343.228-.229.506-.653.833-1.274h.539v7.497h-.588c-1.666-4.247-4.247-6.37-7.742-6.37-1.536 0-2.679.278-3.43.833-.752.523-1.127 1.192-1.127 2.009 0 .49.114.882.343 1.176.228.261.408.457.539.588.13.13.343.278.637.441.294.13.539.245.735.343l.882.294c.424.13.735.212.931.245 2.221.555 3.822 1.045 4.802 1.47.98.392 1.911.882 2.793 1.47 1.796 1.241 2.695 3.25 2.695 6.027 0 2.744-.817 4.835-2.45 6.272-1.634 1.405-3.871 2.107-6.713 2.107-2.026 0-3.986-.474-5.88-1.421-.392-.261-.703-.392-.931-.392-.719 0-1.421.604-2.107 1.813h-.588zm22.09-7.497V14.558h-2.695v-.882h2.695V7.355l9.114-2.254v8.575h6.37v.882h-6.37v16.513c0 1.535.147 2.662.441 3.381.327.719.98 1.078 1.96 1.078s1.829-.49 2.548-1.47c.751-.98 1.241-2.32 1.47-4.018l.833.098c-.261 2.254-.98 4.05-2.156 5.39-1.176 1.307-3.12 1.96-5.831 1.96-2.711 0-4.786-.539-6.223-1.617-1.437-1.078-2.156-3.038-2.156-5.88zm32.661-2.646v-4.165c0-3.169-.179-5.472-.539-6.909-.326-1.47-1.11-2.205-2.352-2.205-.718 0-1.306.212-1.764.637-.424.392-.735 1.062-.931 2.009-.294 1.47-.441 3.708-.441 6.713v3.822c0 3.56.098 5.7.294 6.419.229.719.458 1.307.686 1.764.36.784 1.062 1.176 2.107 1.176 1.274 0 2.107-.735 2.499-2.205.294-1.045.441-3.397.441-7.056zm-3.038 10.143c-4.083 0-7.17-1.045-9.261-3.136-2.09-2.09-3.136-5.08-3.136-8.967 0-3.92 1.111-6.925 3.332-9.016 2.254-2.123 5.407-3.185 9.457-3.185 4.051 0 7.073.98 9.065 2.94 1.993 1.927 2.989 4.884 2.989 8.869 0 8.33-4.148 12.495-12.446 12.495zm2.107-28.91c-.588-.719-.882-1.584-.882-2.597s.311-1.862.931-2.548c.654-.686 1.536-1.029 2.646-1.029 1.144 0 2.042.31 2.695.931.686.588 1.029 1.454 1.029 2.597s-.326 2.058-.98 2.744c-.62.653-1.535.98-2.744.98-1.208 0-2.107-.36-2.695-1.078zm-9.457 0c-.588-.719-.882-1.584-.882-2.597s.311-1.862.931-2.548c.654-.686 1.536-1.029 2.646-1.029 1.144 0 2.042.31 2.695.931.686.588 1.029 1.454 1.029 2.597s-.326 2.058-.98 2.744c-.62.653-1.535.98-2.744.98-1.208 0-2.107-.36-2.695-1.078zM223.096.25h12.005v35.868h2.744V37h-14.553v-.882h2.695V1.132h-2.891V.25zm28.587 37.24c-4.214 0-7.383-1.078-9.506-3.234-2.091-2.189-3.136-5.21-3.136-9.065 0-3.887 1.176-6.86 3.528-8.918 2.384-2.058 5.406-3.087 9.065-3.087 7.415 0 10.976 3.724 10.682 11.172h-13.818v1.911c0 3.201.408 5.619 1.225 7.252.816 1.633 2.237 2.45 4.263 2.45 3.789 0 6.272-2.025 7.448-6.076l.882.147c-.621 2.352-1.748 4.181-3.381 5.488-1.601 1.307-4.018 1.96-7.252 1.96zm-3.136-14.112h5.047v-2.401c0-2.646-.164-4.443-.49-5.39-.294-.98-.915-1.47-1.862-1.47-.915 0-1.601.523-2.058 1.568-.425 1.013-.637 2.777-.637 5.292v2.401zM264.061.25h11.809v17.934c.523-1.503 1.323-2.711 2.401-3.626 1.078-.915 2.712-1.372 4.9-1.372 5.064 0 7.595 2.728 7.595 8.183v14.749h2.744V37h-13.867v-.882h2.009V20.193c0-1.96-.13-3.218-.392-3.773-.261-.588-.735-.882-1.421-.882-1.045 0-1.976.686-2.793 2.058-.784 1.372-1.176 3.038-1.176 4.998v13.524h2.107V37h-13.916v-.882h2.695V1.132h-2.695V.25zm32.405 29.743V14.558h-2.695v-.882h2.695V7.355l9.114-2.254v8.575h6.37v.882h-6.37v16.513c0 1.535.147 2.662.441 3.381.327.719.98 1.078 1.96 1.078s1.83-.49 2.548-1.47c.752-.98 1.242-2.32 1.47-4.018l.833.098c-.261 2.254-.98 4.05-2.156 5.39-1.176 1.307-3.119 1.96-5.831 1.96-2.711 0-4.785-.539-6.223-1.617-1.437-1.078-2.156-3.038-2.156-5.88zm24.038-19.698c-1.732 0-2.973-.441-3.724-1.323-.719-.882-1.078-1.976-1.078-3.283s.392-2.385 1.176-3.234c.816-.85 2.041-1.274 3.675-1.274 1.633 0 2.874.392 3.724 1.176.849.751 1.274 1.846 1.274 3.283 0 1.405-.409 2.532-1.225 3.381-.817.85-2.091 1.274-3.822 1.274zm-7.399 3.381h12.005v22.442h2.744V37h-14.553v-.882h2.695v-21.56h-2.891v-.882z" fill="currentColor"></path></svg>
