<svg width="130" height="29" viewBox="0 0 130 29" fill="none" xmlns="http://www.w3.org/2000/svg">
<g clip-path="url(#clip0_506_276)">
<path d="M7.98855 20.145H28.1336L24.4618 16.4733H11.6107V3.67176L7.98855 0V20.145Z" fill="#1C1E26"/>
<path d="M0 0V28.1336H28.1336V22.626H24.4618V24.4618H3.62214V3.62214H5.45802V0H0Z" fill="#1C1E26"/>
<path d="M20.6412 0C17.416 0 14.687 2.03435 13.645 4.81298L16.8702 8.03817C16.8206 7.83969 16.8206 7.64122 16.8206 7.49237C16.8206 5.35878 18.5573 3.67176 20.6412 3.67176C22.7252 3.67176 24.4618 5.4084 24.4618 7.49237C24.4618 9.57634 22.7252 11.313 20.6412 11.313C20.4427 11.313 20.2443 11.313 20.0954 11.2634L23.3206 14.4886C26.1489 13.3969 28.1832 10.6679 28.1832 7.49237C28.1336 3.37405 24.7595 0 20.6412 0Z" fill="#1C1E26"/>
<path d="M44.5573 26.2977L43.8626 26.8931V28.1336H43.2672V23.9656H43.8626V25.8015H44.0114L45.8473 23.9656H46.7901L44.9542 25.9008L46.8397 28.1336H46.0954L44.5573 26.2977ZM47.3359 26.0496C47.3359 24.8092 48.2786 23.916 49.5191 23.916C50.7595 23.916 51.7023 24.8588 51.7023 26.0496C51.7023 27.2901 50.7595 28.1832 49.5191 28.1832C48.2786 28.1832 47.3359 27.2901 47.3359 26.0496ZM51.1069 26.0496C51.1069 25.2557 50.4122 24.6603 49.5191 24.6603C48.626 24.6603 47.9313 25.2557 47.9313 26.0496C47.9313 26.8435 48.626 27.4389 49.5191 27.4389C50.4122 27.4389 51.1069 26.8435 51.1069 26.0496ZM52.9427 26.5458V23.9656H53.5382V26.4962C53.5382 27.042 54.0344 27.4389 54.6794 27.4389C55.3244 27.4389 55.8206 27.042 55.8206 26.4962V23.9656H56.3664V26.5458C56.3664 27.4886 55.6221 28.2328 54.6794 28.2328C53.6374 28.1832 52.9427 27.4886 52.9427 26.5458ZM60.4351 27.3893V28.1336H57.7557V23.9656H58.3511V27.3893H60.4351ZM61.3779 26.5458V23.9656H61.9237V26.4962C61.9237 27.042 62.4198 27.4389 63.0649 27.4389C63.7099 27.4389 64.2061 27.042 64.2061 26.4962V23.9656H64.8015V26.5458C64.8015 27.4886 64.0573 28.2328 63.0649 28.2328C62.1221 28.1832 61.3779 27.4886 61.3779 26.5458ZM69.2672 24.7099H67.8779V28.1336H67.2824V24.7099H65.8931V23.9656H69.2176V24.7099H69.2672ZM70.4084 26.5458V23.9656H70.9542V26.4962C70.9542 27.042 71.4504 27.4389 72.0954 27.4389C72.7405 27.4389 73.2366 27.042 73.2366 26.4962V23.9656H73.8321V26.5458C73.8321 27.4886 73.0878 28.2328 72.145 28.2328C71.1527 28.1832 70.4084 27.4886 70.4084 26.5458ZM74.9733 26.8931H75.5687C75.5687 27.2405 76.0153 27.4886 76.6603 27.4886C77.2061 27.4886 77.7023 27.2901 77.7023 26.9427C77.7023 26.5458 77.0076 26.3969 76.4618 26.3473C75.6679 26.1985 75.0725 25.8015 75.0725 25.1069C75.0725 24.3626 75.7672 23.8664 76.6107 23.8664C77.5534 23.8664 78.1985 24.4122 78.1985 25.1069H77.6031C77.6031 24.8092 77.1565 24.5611 76.6107 24.5611C76.0649 24.5611 75.6679 24.7595 75.6679 25.0573C75.6679 25.4542 76.4618 25.6031 76.8092 25.6527C77.6527 25.8015 78.2977 26.1489 78.2977 26.8931C78.2977 27.687 77.5534 28.1832 76.6603 28.1832C75.7176 28.1832 75.0229 27.6374 74.9733 26.8931ZM80.8282 26.2977L80.1336 26.8931V28.1336H79.5382V23.9656H80.1336V25.8015H80.2824L82.1183 23.9656H83.0611L81.2252 25.9008L83.1107 28.1336H82.3664L80.8282 26.2977ZM84.0534 26.5458V23.9656H84.5992V26.4962C84.5992 27.042 85.0954 27.4389 85.7405 27.4389C86.3855 27.4389 86.8817 27.042 86.8817 26.4962V23.9656H87.4771V26.5458C87.4771 27.4886 86.7328 28.2328 85.7901 28.2328C84.7977 28.1832 84.0534 27.4886 84.0534 26.5458ZM88.916 23.9656H89.6107L91.7939 26.9427H91.8931V23.9656H92.4885V28.1336H91.7939L89.6107 25.1565H89.5115V28.1336H88.916V23.9656ZM97.0038 24.7099H95.6145V28.1336H95.0191V24.7099H93.6298V23.9656H96.9542V24.7099H97.0038ZM100.527 27.2405H98.3435L97.9962 28.1336H97.3511L98.9885 23.9656H99.8817L101.519 28.1336H100.924L100.527 27.2405ZM100.229 26.4962L99.5344 24.7595H99.3855L98.6908 26.4962H100.229ZM103.206 26.6947L101.569 23.9656H102.214L103.405 25.8015H103.553L104.744 23.9656H105.439L103.802 26.6947V28.1336H103.206V26.6947ZM109.954 23.9656V28.1336H109.408V26.4466H107.076V28.1336H106.531V23.9656H107.076V25.6527H109.408V23.9656H109.954ZM114.519 24.7099H113.13V28.1336H112.534V24.7099H111.145V23.9656H114.469V24.7099H114.519ZM117.099 26.6947L115.462 23.9656H116.107L117.298 25.8015H117.447L118.637 23.9656H119.332L117.695 26.6947V28.1336H117.099V26.6947ZM120.374 23.9656H121.218L122.408 26.2481H122.557L123.748 23.9656H124.641V28.1336H124.046V25.0573H123.897L122.756 27.2901H122.16L121.019 25.0573H120.87V28.1336H120.275L120.374 23.9656ZM129.008 27.2405H126.824L126.477 28.1336H125.832L127.469 23.9656H128.363L130 28.1336H129.405L129.008 27.2405ZM126.824 23.2214C126.824 22.9733 127.023 22.8244 127.271 22.8244C127.519 22.8244 127.718 22.9733 127.718 23.2214C127.718 23.4198 127.519 23.6183 127.271 23.6183C126.973 23.6183 126.824 23.4198 126.824 23.2214ZM128.71 26.4962L128.015 24.8092H127.866L127.172 26.5458H128.71V26.4962ZM128.115 23.2214C128.115 22.9733 128.313 22.8244 128.561 22.8244C128.809 22.8244 129.008 22.9733 129.008 23.2214C129.008 23.4198 128.809 23.6183 128.561 23.6183C128.313 23.6183 128.115 23.4198 128.115 23.2214ZM51.4046 0.942748H37.5115V4.01908H43.2672V18.3092H45.6489V4.01908H51.4046V0.942748ZM61.0802 5.50763V8.53435C60.1374 6.5 58.3015 5.20992 55.9695 5.20992C52.3473 5.20992 49.6679 8.08779 49.6679 11.9084C49.6679 15.729 52.3473 18.6069 55.9695 18.6069C58.3015 18.6069 60.1374 17.3168 61.0802 15.2824V18.3092H63.313V5.50763H61.0802ZM56.5153 15.6794C53.8855 15.6794 51.9504 14.0916 51.9504 11.9084C51.9504 9.72519 53.9351 8.1374 56.5153 8.1374C59.0954 8.1374 61.0802 9.72519 61.0802 11.9084C61.0802 14.0916 59.145 15.6794 56.5153 15.6794ZM68.7214 18.3092H71.8969L76.9084 5.50763H74.3282L70.458 14.8855H69.9122L66.042 5.50763H63.7099L68.7214 18.3092ZM87.7748 5.50763V8.53435C86.8321 6.5 84.9962 5.20992 82.6641 5.20992C79.042 5.20992 76.3626 8.08779 76.3626 11.9084C76.3626 15.729 79.042 18.6069 82.6641 18.6069C84.9962 18.6069 86.8321 17.3168 87.7748 15.2824V18.3092H90.0076V5.50763H87.7748ZM83.2595 15.6794C80.6298 15.6794 78.6947 14.0916 78.6947 11.9084C78.6947 9.72519 80.6794 8.1374 83.2595 8.1374C85.8397 8.1374 87.8244 9.72519 87.8244 11.9084C87.8244 14.0916 85.8397 15.6794 83.2595 15.6794ZM96.8054 18.6069C100.031 18.6069 102.611 17.1183 102.611 14.5382C102.611 12.1069 100.279 11.0649 97.5496 10.6679C94.9695 10.3206 93.5305 9.92366 93.5305 9.17939C93.5305 8.43511 94.8702 7.93893 96.8054 7.93893C98.7901 7.93893 100.179 8.58397 100.179 9.42748H102.412C102.412 6.99618 100.08 5.16031 96.8054 5.16031C93.7786 5.16031 91.2977 6.54962 91.2977 9.08015C91.2977 11.4122 93.4809 12.6031 96.2595 12.9504C98.8397 13.2977 100.378 13.645 100.378 14.4389C100.378 15.2328 98.9389 15.7786 96.855 15.7786C94.771 15.7786 93.2824 15.084 93.2824 14.1412H91.0496C91.0496 16.6718 93.4313 18.6069 96.8054 18.6069ZM111.592 8.3855V5.45802H107.573V1.73664L105.34 2.33206V5.50763H102.71V8.43511H105.389V14.6374C105.389 17.1183 106.679 18.3588 109.26 18.3588H111.393V15.3817H109.508C108.267 15.3817 107.622 14.9351 107.622 13.9924V8.3855H111.592ZM114.122 3.27481C115.214 3.27481 116.008 2.58015 116.008 1.6374C116.008 0.694656 115.214 0 114.122 0C113.031 0 112.187 0.744275 112.187 1.68702C112.187 2.62977 113.031 3.27481 114.122 3.27481ZM113.031 18.3092H115.263V5.50763H113.031V18.3092ZM127.767 5.50763V8.53435C126.824 6.5 124.989 5.20992 122.656 5.20992C119.034 5.20992 116.355 8.08779 116.355 11.9084C116.355 15.729 119.034 18.6069 122.656 18.6069C124.989 18.6069 126.824 17.3168 127.767 15.2824V18.3092H130V5.50763H127.767ZM123.202 15.6794C120.573 15.6794 118.637 14.0916 118.637 11.9084C118.637 9.72519 120.622 8.1374 123.202 8.1374C125.782 8.1374 127.767 9.72519 127.767 11.9084C127.767 14.0916 125.782 15.6794 123.202 15.6794Z" fill="#1C1E26"/>
</g>
<defs>
<clipPath id="clip0_506_276">
<rect width="130" height="28.2328" fill="white"/>
</clipPath>
</defs>
</svg>
