<svg xmlns="http://www.w3.org/2000/svg" class="is-biggest" width="262" height="56.8" xml:space="preserve" viewBox="0 0 262 56.8"><path fill="currentColor" d="M16.1 40.6h40.6l-7.4-7.4H23.4V7.4L16.1 0v40.6z"/><path fill="currentColor" d="M0 0v56.7h56.7V45.6h-7.4v3.7h-42v-42H11V0H0z"/><path fill="currentColor" d="M41.6 0c-6.5 0-12 4.1-14.1 9.7l6.5 6.5c-.1-.4-.1-.8-.1-1.1 0-4.3 3.5-7.7 7.7-7.7s7.7 3.5 7.7 7.7-3.5 7.7-7.7 7.7c-.4 0-.8 0-1.1-.1l6.5 6.5c5.7-2.2 9.8-7.7 9.8-14.1C56.7 6.8 49.9 0 41.6 0"/><path fill="currentColor" d="m89.8 53-1.4 1.2v2.5h-1.2v-8.4h1.2V52h.3l3.7-3.7h1.9l-3.7 3.9 3.8 4.5h-1.5L89.8 53zm5.6-.5c0-2.5 1.9-4.3 4.4-4.3 2.5 0 4.4 1.9 4.4 4.3 0 2.5-1.9 4.3-4.4 4.3-2.5 0-4.4-1.8-4.4-4.3m7.6 0c0-1.6-1.4-2.8-3.2-2.8-1.8 0-3.2 1.2-3.2 2.8s1.4 2.8 3.2 2.8c1.8 0 3.2-1.2 3.2-2.8m3.7 1v-5.2h1.2v5.1c0 1.1 1 1.9 2.3 1.9 1.3 0 2.3-.8 2.3-1.9v-5.1h1.1v5.2c0 1.9-1.5 3.4-3.4 3.4-2.1-.1-3.5-1.5-3.5-3.4m15.1 1.7v1.5h-5.4v-8.4h1.2v6.9h4.2zm1.9-1.7v-5.2h1.1v5.1c0 1.1 1 1.9 2.3 1.9 1.3 0 2.3-.8 2.3-1.9v-5.1h1.2v5.2c0 1.9-1.5 3.4-3.5 3.4-1.9-.1-3.4-1.5-3.4-3.4m15.9-3.7h-2.8v6.9h-1.2v-6.9h-2.8v-1.5h6.7v1.5zm2.3 3.7v-5.2h1.1v5.1c0 1.1 1 1.9 2.3 1.9 1.3 0 2.3-.8 2.3-1.9v-5.1h1.2v5.2c0 1.9-1.5 3.4-3.4 3.4-2-.1-3.5-1.5-3.5-3.4m9.2.7h1.2c0 .7.9 1.2 2.2 1.2 1.1 0 2.1-.4 2.1-1.1 0-.8-1.4-1.1-2.5-1.2-1.6-.3-2.8-1.1-2.8-2.5 0-1.5 1.4-2.5 3.1-2.5 1.9 0 3.2 1.1 3.2 2.5h-1.2c0-.6-.9-1.1-2-1.1s-1.9.4-1.9 1c0 .8 1.6 1.1 2.3 1.2 1.7.3 3 1 3 2.5 0 1.6-1.5 2.6-3.3 2.6-1.9 0-3.3-1.1-3.4-2.6m11.8-1.2-1.4 1.2v2.5h-1.2v-8.4h1.2V52h.3l3.7-3.7h1.9l-3.7 3.9 3.8 4.5H166l-3.1-3.7zm6.5.5v-5.2h1.1v5.1c0 1.1 1 1.9 2.3 1.9 1.3 0 2.3-.8 2.3-1.9v-5.1h1.2v5.2c0 1.9-1.5 3.4-3.4 3.4-2-.1-3.5-1.5-3.5-3.4m9.8-5.2h1.4l4.4 6h.2v-6h1.2v8.4H185l-4.4-6h-.2v6h-1.2v-8.4zm16.3 1.5h-2.8v6.9h-1.2v-6.9h-2.8v-1.5h6.7v1.5zm7.1 5.1h-4.4l-.7 1.8h-1.3l3.3-8.4h1.8l3.3 8.4h-1.2l-.8-1.8zm-.6-1.5-1.4-3.5h-.3l-1.4 3.5h3.1zm6 .4-3.3-5.5h1.3l2.4 3.7h.3l2.4-3.7h1.4l-3.3 5.5v2.9H208v-2.9zm13.6-5.5v8.4h-1.1v-3.4h-4.7v3.4h-1.1v-8.4h1.1v3.4h4.7v-3.4h1.1zm9.2 1.5H228v6.9h-1.2v-6.9H224v-1.5h6.7v1.5zm5.2 4-3.3-5.5h1.3l2.4 3.7h.3l2.4-3.7h1.4l-3.3 5.5v2.9H236v-2.9zm6.6-5.5h1.7l2.4 4.6h.3l2.4-4.6h1.8v8.4H250v-6.2h-.3l-2.3 4.5h-1.2l-2.3-4.5h-.3v6.2h-1.2l.2-8.4zm17.4 6.6h-4.4l-.7 1.8h-1.3l3.3-8.4h1.8l3.3 8.4h-1.2l-.8-1.8zm-4.4-8.1c0-.5.4-.8.9-.8s.9.3.9.8c0 .4-.4.8-.9.8-.6 0-.9-.4-.9-.8m3.8 6.6L258 50h-.3l-1.4 3.5h3.1zm-1.2-6.6c0-.5.4-.8.9-.8s.9.3.9.8c0 .4-.4.8-.9.8s-.9-.4-.9-.8M103.6 1.9h-28v6.2h11.6v28.8H92V8.1h11.6V1.9zm19.5 9.2v6.1c-1.9-4.1-5.6-6.7-10.3-6.7-7.3 0-12.7 5.8-12.7 13.5s5.4 13.5 12.7 13.5c4.7 0 8.4-2.6 10.3-6.7v6.1h4.5V11.1h-4.5zm-9.2 20.5c-5.3 0-9.2-3.2-9.2-7.6s4-7.6 9.2-7.6c5.2 0 9.2 3.2 9.2 7.6s-3.9 7.6-9.2 7.6m24.6 5.3h6.4L155 11.1h-5.2L142 30h-1.1l-7.8-18.9h-4.7l10.1 25.8zm38.4-25.8v6.1c-1.9-4.1-5.6-6.7-10.3-6.7-7.3 0-12.7 5.8-12.7 13.5s5.4 13.5 12.7 13.5c4.7 0 8.4-2.6 10.3-6.7v6.1h4.5V11.1h-4.5zm-9.1 20.5c-5.3 0-9.2-3.2-9.2-7.6s4-7.6 9.2-7.6c5.2 0 9.2 3.2 9.2 7.6s-4 7.6-9.2 7.6m27.3 5.9c6.5 0 11.7-3 11.7-8.2 0-4.9-4.7-7-10.2-7.8-5.2-.7-8.1-1.5-8.1-3s2.7-2.5 6.6-2.5c4 0 6.8 1.3 6.8 3h4.5c0-4.9-4.7-8.6-11.3-8.6-6.1 0-11.1 2.8-11.1 7.9 0 4.7 4.4 7.1 10 7.8 5.2.7 8.3 1.4 8.3 3s-2.9 2.7-7.1 2.7-7.2-1.4-7.2-3.3h-4.5c0 5.1 4.8 9 11.6 9m29.8-20.6V11h-8.1V3.5l-4.5 1.2v6.4H207V17h5.4v12.5c0 5 2.6 7.5 7.8 7.5h4.3v-6h-3.8c-2.5 0-3.8-.9-3.8-2.8V16.9h8zM230 6.6c2.2 0 3.8-1.4 3.8-3.3S232.2 0 230 0c-2.2 0-3.9 1.5-3.9 3.4s1.7 3.2 3.9 3.2m-2.2 30.3h4.5V11.1h-4.5v25.8zm29.7-25.8v6.1c-1.9-4.1-5.6-6.7-10.3-6.7-7.3 0-12.7 5.8-12.7 13.5s5.4 13.5 12.7 13.5c4.7 0 8.4-2.6 10.3-6.7v6.1h4.5V11.1h-4.5zm-9.2 20.5c-5.3 0-9.2-3.2-9.2-7.6s4-7.6 9.2-7.6c5.2 0 9.2 3.2 9.2 7.6s-4 7.6-9.2 7.6"/></svg>
