<svg fill="#000" height="71" viewBox="0 0 229 71" width="229" xmlns="http://www.w3.org/2000/svg"><path d="m70.3164 44.684v-.0452c-.2467-3.3913-1.8207-6.7373-4.4371-9.4302l-.0417-.0417.0556-.0556c2.5608-2.6928 4.048-5.8478 4.4198-9.3781l.0312-1.4941-.0243-1.3863v-.0487c-.2432-3.3912-1.8172-6.7373-4.4336-9.4267-1.5497-1.5497-3.367-2.7241-5.4066-3.4955-.7748-2.04309-1.9597-3.87076-3.5233-5.43435-2.6928-2.56082-5.8478-4.047966-9.3781-4.4197528l-1.501-.0277972h-.0104l-1.376.0243225h-.0486c-3.3948.2466995-6.7408 1.8207175-9.4302 4.4371275l-.0417.04169-.0556-.05559c-2.6929-2.56082-5.8444-4.044491-9.3746-4.4162782l-1.4941-.0312718-1.3829.0243225h-.0487c-3.3912.2466995-6.7408 1.8207175-9.4302 4.4371275-1.5497 1.54622-2.7241 3.36693-3.49546 5.41002-2.04309.77483-3.87075 1.95973-5.43434 3.52333-2.56082 2.6928-4.047966 5.8478-4.4197534 9.378l-.03127187 1.4941.02432237 1.3864v.0487c.2432249 3.3912 1.8172429 6.7373 4.4336529 9.4302l.04169.0417-.05212.0556c-2.56081 2.6928-4.047961 5.8478-4.4197481 9.378l-.0312719 1.4941.0243224 1.3864v.0521c.2432256 3.3913 1.8172376 6.7374 4.4336476 9.4267 1.5497 1.5497 3.36694 2.7242 5.40655 3.499.77138 2.0396 1.95968 3.8673 3.52328 5.4344 2.6929 2.5608 5.8478 4.0479 9.3781 4.4197l1.4941.0313 1.3829-.0243h.0486c3.3913-.2467 6.7374-1.8208 9.4302-4.4372l.0417-.0417.0556.0556c2.6929 2.5608 5.8479 4.048 9.3781 4.4198l1.4941.0313 1.3829-.0244h.0486c3.3913-.2467 6.7374-1.8207 9.4268-4.4371 1.5497-1.5462 2.7241-3.3669 3.4955-5.4065 2.0431-.7714 3.8707-1.9597 5.4343-3.5233 2.5608-2.6929 4.048-5.8479 4.4198-9.3781l.0312-1.4941-.0243-1.3829v-.007zm-56.5881-31.1537c.2676-1.5045.8548-2.9326 1.7478-4.23909.3648-.53162.7714-1.03545 1.2057-1.4941 1.7998-1.75122 4.0792-2.84921 6.4107-3.08549l1.1536-.02085 1.1501.02085c2.2481.2328 4.4927 1.31342 6.4698 3.12371l3.1167 3.11677.1877.1876.1876-.1876 3.1446-3.14109c1.8103-1.76165 4.0896-2.86311 6.4211-3.09591l1.1536-.02085 1.1501.02085c2.2481.23627 4.4892 1.30994 6.4559 3.10633.3197.32662.6254.68798.9104 1.06672-3.9611.10076-7.6616 1.68865-10.4657 4.48925l-15.4691 15.4691h.0035c-1.0251 1.0528-1.793 2.3524-2.2134 3.8013l-9.7394-9.7395c-2.4879-2.599-3.5754-6.018-2.9813-9.378zm-.1945 43.0821c-1.5046-.2675-2.9327-.8547-4.23912-1.7477-.53162-.3649-1.03544-.7714-1.4941-1.2057-1.75122-1.8034-2.84921-4.0793-3.08548-6.4073l-.02085-1.1536.02085-1.1501c.2328-2.2481 1.31341-4.4927 3.1237-6.4698l3.1168-3.1132.1876-.1877-.1876-.1876-3.14112-3.1411c-1.76164-1.8103-2.86311-4.0931-3.09591-6.4246l-.02085-1.1536.02085-1.1501c.23628-2.2481 1.30994-4.4892 3.10633-6.4559.32662-.3197.68799-.6254 1.06672-.9069.10077 3.9611 1.68518 7.6581 4.48928 10.4657 0 0 15.1668 15.1598 15.1633 15.1564 1.1015 1.1779 2.5157 2.0604 4.1036 2.5226l-9.7395 9.7394c-2.1125 2.0223-4.8019 3.1411-7.5643 3.1411-.6045 0-1.2161-.0521-1.8137-.1598m43.0821.1945c-.2675 1.5046-.8547 2.9326-1.7477 4.2391-.3649.5316-.7679 1.0354-1.2057 1.4941-1.7999 1.7512-4.0793 2.8492-6.4107 3.0855l-1.1536.0208-1.1501-.0208c-2.2481-.2328-4.4928-1.3134-6.4698-3.1202l-3.1133-3.1168-.1876-.1876-.1877.1876-3.1411 3.1411c-1.8103 1.7616-4.0896 2.8631-6.4246 3.0959l-1.1536.0208-1.1501-.0208c-2.2481-.2363-4.4892-1.31-6.4559-3.1063-.3196-.3267-.6254-.6846-.9068-1.0668 3.9576-.1042 7.6615-1.6886 10.4621-4.4927 0 0 15.6707-15.6811 15.6672-15.6776.9243-1.0146 1.6192-2.2377 2.0118-3.5893l9.7394 9.7394c2.4879 2.5991 3.5789 6.0181 2.9813 9.3781m2.7728-21.4525 3.141 3.1446c1.7617 1.8103 2.8632 4.0897 3.096 6.4211l.0208 1.1536-.0208 1.1501c-.2363 2.2481-1.31 4.4893-3.1064 6.4559-.3266.3197-.688.6255-1.0667.9104-.1008-3.9611-1.6852-7.6581-4.4892-10.4657l-15.358-15.3579c-1.0736-1.0771-2.4149-1.8867-3.9124-2.3211l9.7394-9.7394c2.1126-2.0257 4.802-3.1411 7.5643-3.1411.6046 0 1.2161.0521 1.8138.1599 1.508.2675 2.9326.8547 4.2391 1.7477.5316.3648 1.0354.7714 1.494 1.2057 1.7513 1.7999 2.8493 4.0792 3.0855 6.4107l.0209 1.1536-.0209 1.1501c-.2328 2.2481-1.3134 4.4927-3.1237 6.4698l-3.1167 3.1168-.1877.1876z"></path><path d="m179.119 30.5715c0 1.8188-.443 3.1001-2.545 3.1001-2.103 0-2.546-1.2813-2.546-3.1001v-7.6332h-5.091v8.6115c0 4.7122 3.334 6.1589 7.637 6.1589 4.302 0 7.65-1.4467 7.65-6.1589v-8.6115h-5.091v7.6332z"></path><path d="m208.019 30.5715c0 1.8188-.443 3.1001-2.545 3.1001-2.103 0-2.546-1.2813-2.546-3.1001v-7.6332h-5.091v8.6115c0 4.7122 3.334 6.1589 7.637 6.1589 4.302 0 7.65-1.4467 7.65-6.1589v-8.6115h-5.091v7.6332z"></path><path d="m158.105 22.6902c-2.823 0-5.41 1.0334-7.014 2.9486-.429.5098-.775 1.0885-1.052 1.7085-.373.8818-.595 1.8739-.595 2.9761 0 4.8776 4.054 7.6194 8.647 7.6194s8.646-2.7556 8.646-7.6194c0-4.8637-4.026-7.6332-8.646-7.6332m.733 10.7885c-.235.0413-.484.0689-.733.0689-1.937 0-3.127-1.2263-3.265-2.8659 0-.1103-.014-.2205-.014-.3307s0-.2205.014-.3307c.138-1.612 1.314-2.9072 3.265-2.9072.263 0 .498.0275.733.0689 1.619.3031 2.546 1.6258 2.546 3.169s-.927 2.8521-2.546 3.1415"></path><path d="m149.624 22.1943h-4.496v-4.2851h-5.105v19.3172h5.105v-10.3061h4.496z"></path><path d="m191.28 17.9092h-5.092v19.3172h5.092v-10.3061h4.51v-4.726h-4.51z"></path><path d="m114.734 30.5715c0 1.8188-.443 3.1001-2.546 3.1001s-2.545-1.2813-2.545-3.1001v-7.6332h-5.091v8.6115c0 4.7122 3.334 6.1589 7.65 6.1589s7.637-1.4467 7.637-6.1589v-8.6115h-5.092v7.6332z"></path><path d="m132.248 22.4561c-1.992 0-3.417.5924-4.593 2.3147h-.055v-1.8463h-5.091v14.3019h5.091v-7.4127c0-1.7774.581-3.3206 2.656-3.3206 2.518 0 2.296 2.3974 2.296 3.7615v6.9718h5.091v-8.8457c0-3.5134-1.535-5.9384-5.409-5.9384"></path><path d="m103.666 18.6256h-6.1978l-4.9804 7.6746h-.0415v-7.6746h-4.9943v18.6008h4.9943v-8.0741h.0415l5.3954 8.0741h6.4748l-7.2772-9.7964z"></path><path d="m221.826 27.8571c-.885-.0275-1.093-.4409-1.093-.7027 0-.5236.54-.7027 1.301-.7027 1.175-.0275 2.863.3858 3.666.8818l2.31-3.2379c-1.425-1.0609-3.611-1.7636-5.976-1.7636-3.431 0-6.752 1.2676-6.752 4.7673s3.431 4.6846 6.267 4.7673c1.066.0827 1.536.3307 1.536.7991 0 .4685-.498.7027-1.48.7027-1.176-.0551-2.961-.1791-5.174-1.6258l-1.771 3.9544c1.66 1.2125 4.524 1.9152 7.069 1.9152 3.514 0 6.807-1.3503 6.807-4.9465 0-3.8579-3.666-4.7121-6.71-4.8086z"></path><path d="m92.6538 46.1134-2.5455 3.0037 2.7669 3.1277v.0827h-1.674l-2.3242-2.6593v2.6593h-1.3973v-6.2416h1.3973v2.5765l2.089-2.5765h1.6878z"></path><path d="m101.964 52.479c-2.0056 0-3.389-1.24-3.389-3.2792s1.3834-3.2793 3.389-3.2793c2.006 0 3.39 1.2401 3.39 3.2793s-1.384 3.2792-3.39 3.2792zm0-5.3046c-1.189 0-2.0194.8956-2.0194 2.0254s.8304 2.0116 2.0194 2.0116c1.19 0 2.02-.8542 2.02-2.0116s-.802-2.0254-2.02-2.0254z"></path><path d="m117.791 46.0996v3.4859c0 1.8601-1.038 2.8384-2.684 2.8935-1.632.0551-3.03-.8818-3.03-2.8935v-3.4859h1.384v3.4859c0 1.1161.622 1.6948 1.646 1.6534.955-.0551 1.287-.7164 1.287-1.6534v-3.4859h1.383z"></path><path d="m126.272 46.0859v4.974h3.14v1.2676h-4.538v-6.2416z"></path><path d="m141.559 46.0996v3.4859c0 1.8601-1.038 2.8384-2.684 2.8935-1.633.0551-3.03-.8818-3.03-2.8935v-3.4859h1.383v3.4859c0 1.1161.623 1.6948 1.647 1.6534.954-.0551 1.286-.7164 1.286-1.6534v-3.4859h1.384z"></path><path d="m149.997 47.3259h-1.895v-1.24h5.202v1.24h-1.909v5.0016h-1.398z"></path><path d="m161.3 47.3259h-1.909v-1.24h5.202v1.24h-1.909v5.0016h-1.384z"></path><path d="m175.107 51.2527h-3.209l-.457 1.0748h-1.508l2.808-6.2416h1.522l2.809 6.2416h-1.522l-.457-1.0748zm-1.605-3.7614-1.079 2.5352h2.158z"></path><path d="m184.266 49.7371c.041 1.0334.622 1.4054 1.424 1.4054.914 0 1.467-.5373 1.467-1.5018v-3.5548h1.397v3.5686c0 1.6396-.982 2.8107-2.836 2.8107-1.757 0-2.781-.8267-2.794-2.7281h1.355z"></path><path d="m199.857 51.2527h-3.21l-.456 1.0748h-1.508l2.808-6.2416h1.522l2.808 6.2416h-1.521l-.457-1.0748zm-1.605-3.7614-1.079 2.5352h2.158z"></path><path d="m209.084 47.3259h-1.909v-1.24h5.202v1.24h-1.909v5.0016h-1.384z"></path></svg>
