<svg width="90" height="32" viewBox="0 0 90 32" fill="none" xmlns="http://www.w3.org/2000/svg">
<g clip-path="url(#clip0_491_356)">
<path d="M81.9914 4.01663C81.9914 6.26403 83.7552 8.03326 85.9957 8.03326C88.2362 8.03326 90 6.26403 90 4.01663C90 1.76922 88.2362 0 85.9957 0C83.7552 0 81.9914 1.76923 81.9914 4.01663ZM89.2849 10.0998H79.3695V15.6466H82.7064V31.2827H89.2849V10.0998ZM80.5139 26.0229V31.6653C79.9895 31.8565 78.7978 32 77.3676 32C69.3114 32 65.164 28.0312 65.164 18.8025V2.68557H71.6472V10.0998H77.6537V15.6466H71.6472V18.8503C71.6472 24.3015 73.6017 26.1663 78.321 26.1663C79.0838 26.1663 79.7988 26.1185 80.5139 26.0229ZM55.3919 9.43037C52.77 9.43037 50.6249 10.3867 49.1471 11.9647V0.775491H42.5686V31.2827H49.1471V19.4719C49.1471 16.7942 50.6249 15.1206 53.0084 15.1206C55.2966 15.1206 56.679 16.6507 56.679 19.4719V31.2349H63.2575V19.1372C63.2575 12.7776 59.9682 9.43037 55.3919 9.43037ZM23.4533 20.6674C23.4533 17.5114 25.5985 15.4075 28.3634 15.4075C31.1759 15.4075 33.2734 17.5114 33.2734 20.6674C33.2734 23.8233 31.1759 25.9272 28.3634 25.9272C25.5985 25.9272 23.4533 23.8233 23.4533 20.6674ZM39.7089 10.0998H33.1304V12.1559C31.605 10.4345 29.4121 9.526 26.8856 9.526C21.3082 9.526 16.7318 13.973 16.7318 20.6674C16.7318 27.3617 21.3082 31.8565 26.8856 31.8565C29.4121 31.8565 31.605 30.948 33.1304 29.2266V31.2827H39.7089V10.0998ZM16.2556 25.4491V31.5696C14.8731 31.8565 13.443 32 12.2036 32C5.19606 32 0 27.3618 0 19.2807V2.68557H6.9122V17.9896C6.9122 23.3451 9.58173 25.6403 13.586 25.6403C14.1581 25.6403 15.3022 25.5925 16.2556 25.4491Z" fill="#1C1E26"/>
</g>
<defs>
<clipPath id="clip0_491_356">
<rect width="90" height="32" fill="white"/>
</clipPath>
</defs>
</svg>
