<svg xmlns="http://www.w3.org/2000/svg" viewBox="0 0 1110 944" width="1480" height="944pt"><path d="M576.38 0h16.5l.81.02c55.19 1.31 109.99 13.48 160.43 35.93 67.01 29.69 125.92 77.13 169.15 136.32 19.11-10.97 39.17-19.42 59.74-27.19 42.29-16.23 84.75-32.36 126.99-48.69v16.25c-8.18 43.93-16.29 87.9-24.44 131.84 8.12-3.21 16.35-6.17 24.44-9.44v18.93c-6.81 36.13-13.36 72.3-20.19 108.42-16.27 6.21-32.52 12.51-48.81 18.68-12.38 4.55-25.5 6.31-38.43 2.99 8.2 90.7-14.42 183.44-63.17 260.34-30.63 48.63-71.29 90.87-118.77 123.26-55.95 38.3-121.29 62.55-188.66 70.12-39.26 4.59-79.21 3.56-118.17-3.1-56.97-9.6-111.7-31.29-159.99-62.96C235.88 825.59 117.94 879.43.01 933.28c5.1-29.13 10.74-58.18 16.03-87.27 12.88-69.52 25.79-139.06 38.63-208.58.39-1.72.47-1.87 2.14-2.52 21.26-8.11 42.64-16.24 63.88-24.37 15.95-86.09 31.89-172.17 47.83-258.26-21.86 8.24-43.66 16.65-65.54 24.83 8.86-48.8 18.1-97.55 27.03-146.34 33.74-12.88 67.52-25.69 101.27-38.54 20.04-30.83 43.9-59.12 71.2-83.76 39.06-35.44 84.89-63.36 134.3-81.83C481.41 9.94 528.76 1.1 576.38 0z" fill="#1e1a1b"/><path d="M592.88 0H1110v96.39c-42.24 16.33-84.7 32.46-126.99 48.69-20.57 7.77-40.63 16.22-59.74 27.19-43.23-59.19-102.14-106.63-169.15-136.32C703.68 13.5 648.88 1.33 593.69.02l-.81-.02z" class="do-not-fill" fill="#fff"/><path d="M642.02 33.38c61.25 9.09 120.15 33.13 170.33 69.4 1.97 1.41 3.95 2.8 5.97 4.13-6.02-2.88-11.48-6.85-17.36-10.03a409.797 409.797 0 00-55.99-26.53c-14.26-5.51-28.88-10.19-43.67-14.09-79.47-20.96-164.59-18.01-242.79 6.97-15.94 5.13-31.6 11.15-46.84 18.1-20.4 9.33-40.19 20.22-58.85 32.69a417.687 417.687 0 00-22.99 16.46c-11.06 8.55-21.8 17.58-31.89 27.28-8.19 7.3-15.27 15.72-23.22 23.24 4.21-4.92 8.09-10.09 12.35-14.96a390.971 390.971 0 0141.36-41.65c45.74-39.72 100.84-68.5 159.6-83.23 50.19-12.66 102.78-15.44 153.99-7.78z" class="do-not-fill" fill="#fff"/><path d="M701.3 56.26c-.57 1.04-1.14 2.07-1.71 3.11l-3.16-.27c.35.62.7 1.24 1.05 1.85-3.42 1.48-6.73 2.56-9.73 4.87-3.61 3.42-10.47 1.79-15.14 2.35-.44 1.63-.75 3.39-1.48 4.92-3.91 3.04-9.11 2.77-13.79 3.2-1.56 1.3-2.83 2.9-4.93 3.22-3.63.61-7.4.45-11.07.68-3.74 4.68-8.85 5.08-14.36 5.95-4.14.49-8.11 1.61-12.12 2.7-5.42 1.46-10.41 1.01-16.03 1.77-4.62.62-9.16 1.4-13.83 1.42-11.67 0-23.34-.09-35 .04-3.84.08-7.46-.81-11.18-1.57-8.59-1.55-17.2-2.63-25.66-4.86-6.69-1.42-13.28-2.89-19.81-4.91-6.98-1.65-13.66-4.09-20.2-7-1.91-.87-3.3-2.63-5.18-3.51-2.61-.56-5.5-.38-8.03-1.21-2.18-.69-1.11-4.09-1.43-5.78 78.2-24.98 163.32-27.93 242.79-6.97z" fill="#3d393a"/><path d="M701.3 56.26c14.79 3.9 29.41 8.58 43.67 14.09-1.13.95-2.23 1.91-3.32 2.9l2.62.48c.48 1.19 1 2.38 1.48 3.57.4-.71.79-1.43 1.19-2.14.75-.01 1.5-.02 2.25-.02-1.57 1.99-2.67 3.98-5.3 4.69-2.78.93-5.44-.69-7.98-1.62.07 1.5.1 3.05.34 4.53.76.79 1.56 1.55 2.39 2.28-3.05 2.9-6.82 4.07-10.31 6.27-4.19 2.61-8.84 4.27-13.04 6.89-7.57 4.56-15.69 7.65-23.62 11.5-3.01 1.34-6.15 2.93-9.41 3.52-2.94-.02-5.94-1.18-8.82-1.75-.87-1.1-1.73-2.28-2.72-3.28-4.06-.1-7.46 1.66-10.9 3.55 3.61.24 7.33.04 10.9.64 1.75.76 1.03 3.57 1.33 5.16-6.43 1.2-12.54 3.42-18.88 4.96-3.46.87-6.82 2.89-10.35 3.25-2.66-.47-5.03-1.64-7.81-1.8-3.46-.21-6.98.09-10.44.28-.38 1.2-.76 2.41-1.14 3.61-15.76.59-31.57-.16-47.33.32-.02 1.25-.02 2.49 0 3.74 5.25.17 10.5.06 15.75.24v1.74c-9.27.38-18.57.02-27.85.18-6.78.16-13.54-.44-20.22-1.59 5.39-.87 10.63-.25 16.12-.58.01-1.25.01-2.49 0-3.74-6.07-.24-12.12.04-18.19-.48-4.36-.39-8.34.35-12.63-.73-3.67-.94-7.32-1-11.08-.9-4.31.24-7.71-2.21-12-2.15-6.67-.21-11.97 2.07-18.21-1.46 2.7-.27 5.4-.48 8.1-.67.02-1.19.03-2.38.01-3.57-6.45-.11-12.11-1.34-18.08 1.77-3.34-1.12-6.6-2.43-9.85-3.78 3.98-.1 7.95-.2 11.93-.32.02-1.24.02-2.48 0-3.72-5.11-.15-10.22-.04-15.33-.29l-1.14-3.66c-5.06-.24-10.12-.13-15.17-.29-.18-2.53-.34-5.06-.52-7.59-2.39-.21-4.79-.37-7.18-.58-.39-1.21-.77-2.41-1.14-3.62-2.29-.03-4.58-.03-6.87-.01-.37 1.29-.76 2.58-1.14 3.87-6.27-2.45-12.1-5.74-17.81-9.27a36.54 36.54 0 005.54-6.85c-2.47-1.6-4.46-2.53-7.47-2.5 15.24-6.95 30.9-12.97 46.84-18.1.32 1.69-.75 5.09 1.43 5.78 2.53.83 5.42.65 8.03 1.21 1.88.88 3.27 2.64 5.18 3.51 6.54 2.91 13.22 5.35 20.2 7 6.53 2.02 13.12 3.49 19.81 4.91 8.46 2.23 17.07 3.31 25.66 4.86 3.72.76 7.34 1.65 11.18 1.57 11.66-.13 23.33-.04 35-.04 4.67-.02 9.21-.8 13.83-1.42 5.62-.76 10.61-.31 16.03-1.77 4.01-1.09 7.98-2.21 12.12-2.7 5.51-.87 10.62-1.27 14.36-5.95 3.67-.23 7.44-.07 11.07-.68 2.1-.32 3.37-1.92 4.93-3.22 4.68-.43 9.88-.16 13.79-3.2.73-1.53 1.04-3.29 1.48-4.92 4.67-.56 11.53 1.07 15.14-2.35 3-2.31 6.31-3.39 9.73-4.87-.35-.61-.7-1.23-1.05-1.85l3.16.27c.57-1.04 1.14-2.07 1.71-3.11z" fill="#373435"/><path d="M744.97 70.35a409.797 409.797 0 0155.99 26.53c-.07 1.57.22 3.39-.23 4.92-1.96 3.94-5.15 6.74-8.76 9.13-3.81 2.5-7.44 5.18-11.05 7.96-3.18 2.45-7.06 3.24-10.08 5.99-4.76 4.29-10.34 6.77-15.67 10.24-5.19 3.26-10.69 5.98-15.9 9.22-5.24 3.3-11.48 5.27-17.2 7.92-3.38 1.51-6.3 3.59-9.76 4.94-3.7 1.4-7.47 2.59-11.2 3.89-7.3 2.31-13.94 5.93-21.47 7.59-6.67 1.46-12.97 4.04-19.61 5.55-4.23 1-8.03 2.75-12.38 3.29-4.91.63-9.55 2.09-14.53 2.21-4.21.19-7.92 1.62-12.1 2.15-3.57.45-7.1.97-10.64 1.58-5.75.97-11.41.19-17.21.88-11.56 1.14-22.72 2.68-34.35 1.03-10.61-.57-21.07-.99-31.65-2.75-5.45-.95-10.58.01-15.93-1.73-10.24-3.33-20.91-3.56-31.22-6.93-2.96-1.1-5.92-2.14-9.04-2.7-10.24-2.12-19.9-5.37-29.37-9.82-7.28-2.48-14.16-5.82-21.33-8.59-4.46-1.68-8.25-4.55-12.68-6.28-8.78-3.22-16.43-9.4-24.92-13.3-5.57-2.21-9.23-6.7-14.5-9.41-4.7-2.36-8.29-6.19-12.98-8.56-.72.4-1.44.81-2.16 1.21-.07-.83-.14-1.66-.22-2.49 18.66-12.47 38.45-23.36 58.85-32.69 3.01-.03 5 .9 7.47 2.5a36.54 36.54 0 01-5.54 6.85c5.71 3.53 11.54 6.82 17.81 9.27.38-1.29.77-2.58 1.14-3.87 2.29-.02 4.58-.02 6.87.01.37 1.21.75 2.41 1.14 3.62 2.39.21 4.79.37 7.18.58.18 2.53.34 5.06.52 7.59 5.05.16 10.11.05 15.17.29l1.14 3.66c5.11.25 10.22.14 15.33.29.02 1.24.02 2.48 0 3.72-3.98.12-7.95.22-11.93.32 3.25 1.35 6.51 2.66 9.85 3.78 5.97-3.11 11.63-1.88 18.08-1.77.02 1.19.01 2.38-.01 3.57-2.7.19-5.4.4-8.1.67 6.24 3.53 11.54 1.25 18.21 1.46 4.29-.06 7.69 2.39 12 2.15 3.76-.1 7.41-.04 11.08.9 4.29 1.08 8.27.34 12.63.73 6.07.52 12.12.24 18.19.48.01 1.25.01 2.49 0 3.74-5.49.33-10.73-.29-16.12.58 6.68 1.15 13.44 1.75 20.22 1.59 9.28-.16 18.58.2 27.85-.18v-1.74c-5.25-.18-10.5-.07-15.75-.24-.02-1.25-.02-2.49 0-3.74 15.76-.48 31.57.27 47.33-.32.38-1.2.76-2.41 1.14-3.61 3.46-.19 6.98-.49 10.44-.28 2.78.16 5.15 1.33 7.81 1.8 3.53-.36 6.89-2.38 10.35-3.25 6.34-1.54 12.45-3.76 18.88-4.96-.3-1.59.42-4.4-1.33-5.16-3.57-.6-7.29-.4-10.9-.64 3.44-1.89 6.84-3.65 10.9-3.55.99 1 1.85 2.18 2.72 3.28 2.88.57 5.88 1.73 8.82 1.75 3.26-.59 6.4-2.18 9.41-3.52 7.93-3.85 16.05-6.94 23.62-11.5 4.2-2.62 8.85-4.28 13.04-6.89 3.49-2.2 7.26-3.37 10.31-6.27-.83-.73-1.63-1.49-2.39-2.28-.24-1.48-.27-3.03-.34-4.53 2.54.93 5.2 2.55 7.98 1.62 2.63-.71 3.73-2.7 5.3-4.69-.75 0-1.5.01-2.25.02-.4.71-.79 1.43-1.19 2.14-.48-1.19-1-2.38-1.48-3.57l-2.62-.48c1.09-.99 2.19-1.95 3.32-2.9z" fill="#322f30"/><path d="M800.96 96.88c5.88 3.18 11.34 7.15 17.36 10.03 4.46 2.85 8.03 6.86 12.37 9.92-.17.6-.34 1.2-.5 1.8-9.17 5.41-16.23 15.15-25.66 20.11-3.14 1.84-5.31 4.39-8.24 6.49-3.18 2.28-6.75 3.86-10 6.08-1.99 1.29-3.92 2.89-6.08 3.87-2.73.88-5.77.7-8.52 1.55-1.37 1.95-1.19 4.43-3.28 5.68-5.92 4.07-12.31 7.47-19.04 10.02-5.18 1.91-9.22 5.66-14.48 7.45-5.04 1.77-9.77 4.09-14.57 6.41-4.24 2.03-8.28 1.41-12.72 2.29-2.56.36-3.8 3.96-6.23 4.68-3.33 1.07-6.76 1.74-10.02 3.05-5.64 2.3-11.57 3.57-17.26 5.72-9.69 1.99-19.12 4.86-28.88 6.54-6.45 1.75-13.12 1.42-19.57 3.09-3.84.97-7.67 1.75-11.66 1.56-6.45-.36-12.53 1.73-18.97 1.56-5.41-.1-10.56 1.61-16.01 1.29-9.46-.4-18.87.57-28.18-.71-3.27-.4-6.54-.29-9.83-.37-3.57-.03-6.42-1.95-9.98-1.99-4.4-.04-8.72.11-13.06-.84-4.93-.77-10.14-2.68-15.1-2.42-1.5.02-3.04.11-4.54-.07-1.47-1.13-2.66-2.68-4.1-3.86-5.69-2.5-13.08-.79-18.32-1.69-11.98-3.12-23.69-7.03-35.58-10.35-5.13-1.79-10.08-4.05-15.21-5.85-8.38-3.08-16.16-7.55-24.58-10.49-.35-1.43-.7-2.87-1.04-4.31-4.47-1.4-9.79-.41-13.51-3.06-3.54-2.2-6.81-4.59-10.67-6.26-2.54-1.14-5.02-1.96-7.02-4.01-3.51-3.65-8.04-5-12.06-8.01-3.81-2.81-8.14-4.02-11.33-7.7-2.86-3.06-6.56-3.72-8.69-7.21-1.7-2.68-3.79-4.58-6.37-6.39 7.48-5.74 15.14-11.24 22.99-16.46.08.83.15 1.66.22 2.49.72-.4 1.44-.81 2.16-1.21 4.69 2.37 8.28 6.2 12.98 8.56 5.27 2.71 8.93 7.2 14.5 9.41 8.49 3.9 16.14 10.08 24.92 13.3 4.43 1.73 8.22 4.6 12.68 6.28 7.17 2.77 14.05 6.11 21.33 8.59 9.47 4.45 19.13 7.7 29.37 9.82 3.12.56 6.08 1.6 9.04 2.7 10.31 3.37 20.98 3.6 31.22 6.93 5.35 1.74 10.48.78 15.93 1.73 10.58 1.76 21.04 2.18 31.65 2.75 11.63 1.65 22.79.11 34.35-1.03 5.8-.69 11.46.09 17.21-.88 3.54-.61 7.07-1.13 10.64-1.58 4.18-.53 7.89-1.96 12.1-2.15 4.98-.12 9.62-1.58 14.53-2.21 4.35-.54 8.15-2.29 12.38-3.29 6.64-1.51 12.94-4.09 19.61-5.55 7.53-1.66 14.17-5.28 21.47-7.59 3.73-1.3 7.5-2.49 11.2-3.89 3.46-1.35 6.38-3.43 9.76-4.94 5.72-2.65 11.96-4.62 17.2-7.92 5.21-3.24 10.71-5.96 15.9-9.22 5.33-3.47 10.91-5.95 15.67-10.24 3.02-2.75 6.9-3.54 10.08-5.99 3.61-2.78 7.24-5.46 11.05-7.96 3.61-2.39 6.8-5.19 8.76-9.13.45-1.53.16-3.35.23-4.92z" fill="#2e2a2b"/><path d="M1110 112.64v122.4c-8.09 3.27-16.32 6.23-24.44 9.44 8.15-43.94 16.26-87.91 24.44-131.84z" class="do-not-fill" fill="#fff"/><path d="M830.69 116.83c5.29 3.96 10.09 8.45 15.02 12.83-2.86 1.81-5.54 3.77-7.9 6.21-6.52 5.97-13.79 10.83-20.48 16.53-2.68 1.98-5.55 3.67-8.11 5.83-4.6 3.84-9.82 5.93-14.8 9.19-4.85 3-8.55 6.83-13.62 9.36-8.4 4.17-16.43 9.03-24.75 13.33-8.37 3.82-16.64 8.28-25.22 11.57-8.18 2.54-15.9 6.23-24 9.01-7.6 3.35-15.68 4.82-23.5 7.53-7.69 1.94-15.29 4.18-22.95 6.23-4.74 1.31-9.57 1.56-14.37 2.6-2.64.57-5.32.79-8.01.95-6.14.23-11.7 3.05-17.99 3.82-3.13.34-6.11.78-9.02 2.08l.41-2.19c-18.6 7.04-37.16 14.19-55.75 21.26-1.3-1.5-2.58-3.01-3.88-4.5-1.06 1.52-2.18 3-3.33 4.44-1.05-.87-1.71-1.59-3.15-1.63-6.44-.44-12.83-1.27-19.3-1.4-14.28-1.36-28.38-4.79-42.57-6.48-5.63-1.16-11.22-2.04-16.65-4.02-4.79-1.54-9.79-1.38-14.46-3.55-7.18-3.07-14.74-4.73-22.15-7.1a855.96 855.96 0 01-43.86-17.94c-13.25-6.56-26.06-13.85-38.98-21.02-5.09-3.95-11.17-5.82-15.93-10.19-4-3.48-8.77-5.79-12.71-9.34-4.65-4.05-9.57-7.72-14.98-10.69.05-1.01.12-2.02.18-3.02-2.11 1.13-3.42 1.93-5.94 1.23 10.09-9.7 20.83-18.73 31.89-27.28 2.58 1.81 4.67 3.71 6.37 6.39 2.13 3.49 5.83 4.15 8.69 7.21 3.19 3.68 7.52 4.89 11.33 7.7 4.02 3.01 8.55 4.36 12.06 8.01 2 2.05 4.48 2.87 7.02 4.01 3.86 1.67 7.13 4.06 10.67 6.26 3.72 2.65 9.04 1.66 13.51 3.06.34 1.44.69 2.88 1.04 4.31 8.42 2.94 16.2 7.41 24.58 10.49 5.13 1.8 10.08 4.06 15.21 5.85 11.89 3.32 23.6 7.23 35.58 10.35 5.24.9 12.63-.81 18.32 1.69 1.44 1.18 2.63 2.73 4.1 3.86 1.5.18 3.04.09 4.54.07 4.96-.26 10.17 1.65 15.1 2.42 4.34.95 8.66.8 13.06.84 3.56.04 6.41 1.96 9.98 1.99 3.29.08 6.56-.03 9.83.37 9.31 1.28 18.72.31 28.18.71 5.45.32 10.6-1.39 16.01-1.29 6.44.17 12.52-1.92 18.97-1.56 3.99.19 7.82-.59 11.66-1.56 6.45-1.67 13.12-1.34 19.57-3.09 9.76-1.68 19.19-4.55 28.88-6.54 5.69-2.15 11.62-3.42 17.26-5.72 3.26-1.31 6.69-1.98 10.02-3.05 2.43-.72 3.67-4.32 6.23-4.68 4.44-.88 8.48-.26 12.72-2.29 4.8-2.32 9.53-4.64 14.57-6.41 5.26-1.79 9.3-5.54 14.48-7.45 6.73-2.55 13.12-5.95 19.04-10.02 2.09-1.25 1.91-3.73 3.28-5.68 2.75-.85 5.79-.67 8.52-1.55 2.16-.98 4.09-2.58 6.08-3.87 3.25-2.22 6.82-3.8 10-6.08 2.93-2.1 5.1-4.65 8.24-6.49 9.43-4.96 16.49-14.7 25.66-20.11.16-.6.33-1.2.5-1.8z" fill="#2a2627"/><path d="M845.71 129.66c5.11 4.1 9.34 9.03 14.16 13.44 3.3 3.06 6.26 6.42 9.35 9.68 4.75 5.02 9.59 9.41 12.46 15.87-3.98 3.06-7.7 6.24-11.33 9.71-2.72 2.61-5.62 4.75-9.16 6.1-1.92 4-5.41 5.34-8.6 8.14-9.28 7.92-19.51 13.67-29.49 20.59-4.78 3.35-10.14 5.5-14.71 9.16-5.18 4.09-11.23 5.78-16.72 9.34-3.37 2.15-6.72 4.23-10.51 5.58-4.96 1.81-9.33 4.65-14.12 6.82-4.35 2.03-8.81 3.62-13.08 5.83-6.99 3.68-14.95 5.73-22.25 8.82-4.25 1.86-8.7 3.08-13.03 4.73-12.72 5.18-26.5 7.41-39.81 11.38-6.98 2.25-14.25 2.59-21.29 4.54-4.13 1.17-8.33 1.36-12.55 1.96-14.4 2.98-29.34 3.85-43.9 5.93 3.23-17.8 6.61-35.58 9.86-53.38 2.91-1.3 5.89-1.74 9.02-2.08 6.29-.77 11.85-3.59 17.99-3.82 2.69-.16 5.37-.38 8.01-.95 4.8-1.04 9.63-1.29 14.37-2.6 7.66-2.05 15.26-4.29 22.95-6.23 7.82-2.71 15.9-4.18 23.5-7.53 8.1-2.78 15.82-6.47 24-9.01 8.58-3.29 16.85-7.75 25.22-11.57 8.32-4.3 16.35-9.16 24.75-13.33 5.07-2.53 8.77-6.36 13.62-9.36 4.98-3.26 10.2-5.35 14.8-9.19 2.56-2.16 5.43-3.85 8.11-5.83 6.69-5.7 13.96-10.56 20.48-16.53 2.36-2.44 5.04-4.4 7.9-6.21z" fill="#262223"/><path d="M1079.45 135.77c-7.31 39.93-14.78 79.82-22.12 119.74-.77 4.71-1.19 9.76-.33 14.47.76 3.46 2.59 6.55 6.19 7.54 5.88 1.32 11.39-1.36 16.78-3.33-4.18 23.11-8.58 46.17-12.79 69.27-9.54 3.76-19.13 7.36-28.7 11.05-7.34 2.77-15.47 4.85-23.28 2.93-6.5-1.46-11.83-5.64-15.5-11.11-5.42-8.09-7.45-18.01-8.59-27.53-7.28 15.12-16.15 29.52-26.83 42.49-14.49 17.66-32.16 32.51-53.15 41.82-8.07 3.58-17.24 6.67-26.12 6.79-6.92.02-13.67-2.3-18.35-7.56-5.6-6.24-7.71-15.23-8.62-23.35-1.3-14 .49-27.42 3-41.15 3.08-16.44 6.05-32.91 9.18-49.34 3.57-17.9 8.4-35.65 17.89-51.41 9.6-16.01 23.35-28.11 39.06-37.92 19.99-12.48 42.32-21.42 64.29-29.73 28.44-10.88 56.89-21.75 85.32-32.66.89-.34 1.78-.67 2.67-1.01z" class="do-not-fill" fill="#fff"/><path d="M1072.15 144.62c-1.12 7.83-2.8 15.59-4.19 23.38-1.66 8.27-2.9 16.63-4.8 24.85-1.16 3.14-2.45 6.23-3.68 9.34-.74-1.68-1.49-3.36-2.21-5.04-.21 1.5-.41 3-.61 4.51-2.92.31-6.59.21-9.11 1.83-3.83 2.27-5.57 5.95-8.96 9.13-2.92 2.75-5.79 5.52-8.4 8.56-1.76 1.8-3.07 3.95-5.79 4.22-4.1.46-8.29 1.9-12.4 1.57-.44 1.84-.86 3.7-1.29 5.55-.68-.14-1.36-.27-2.05-.4 1.93-10.73 4.13-21.43 5.79-32.21-13.84 4.81-27.29 10.86-41.19 15.45 3.61-3.62 7.87-6.13 11.97-9.11 25.86-18.51 51.8-36.89 77.65-55.41 3-2.21 6.05-4.33 9.27-6.22z" class="do-not-fill" fill="#d4d4d4"/><path d="M303.88 156.53c-.06 1-.13 2.01-.18 3.02 5.41 2.97 10.33 6.64 14.98 10.69 3.94 3.55 8.71 5.86 12.71 9.34 4.76 4.37 10.84 6.24 15.93 10.19 12.92 7.17 25.73 14.46 38.98 21.02a855.96 855.96 0 0043.86 17.94c7.41 2.37 14.97 4.03 22.15 7.1 4.67 2.17 9.67 2.01 14.46 3.55 5.43 1.98 11.02 2.86 16.65 4.02 14.19 1.69 28.29 5.12 42.57 6.48 6.47.13 12.86.96 19.3 1.4 1.44.04 2.1.76 3.15 1.63 1.15-1.44 2.27-2.92 3.33-4.44 1.3 1.49 2.58 3 3.88 4.5-5.21 2.05-10.51 3.88-15.68 6.02-1.4.34-1.27 1.91-1.62 3.02-2.51 13.85-5.08 27.7-7.67 41.53-6.54 2.29-12.94 1.19-19.38-.8-4.54-1.47-8.65-.25-13.26-1.03-2.67-.45-5.27-1.15-7.99-1.35-5.29-.38-10.51-1.84-15.7-2.91-1.96-.4-2.92-1.78-4.3-3.06.59-1.2 1.19-2.4 1.78-3.6-.79-.75-1.58-1.51-2.37-2.25.16-.94.33-1.88.49-2.82-2.06.77-4.12 1.55-6.18 2.33a37.75 37.75 0 00-1.84-3.07c-2.12-.83-4.51-1.05-6.73-1.52-6.13-1.12-11.88-3.1-17.85-4.74-9.3-2.29-18.18-5.89-27.37-8.66-5.51-1.6-10.61-4.1-15.98-6.05-7.19-2.59-13.69-6.53-20.88-9.14-6.47-2.26-11.93-5.97-18.09-8.86-8.13-3.63-15.77-8.27-23.58-12.56-6.32-4.5-13.36-7.72-19.67-12.24-6.28-4.4-12.94-8.23-18.92-13.01-8.18-6.21-16.6-11.25-24.11-18.2 1.72-3.2 3.5-6.31 5.97-9 7.95-7.52 15.03-15.94 23.22-23.24 2.52.7 3.83-.1 5.94-1.23z" fill="#252122"/><path d="M1063.16 192.85c-.74 5.47-1.73 10.88-2.81 16.3-2.45 12.47-4.44 25.08-7.22 37.48-1.65 2.69-2.18 4.95-2.4 8.09-.73-.99-1.46-1.97-2.21-2.95.02 1.14.02 2.27.02 3.4-5.43 1.15-9.79 6.03-13.22 10.13-2.31 3.27-5.66 5.19-8.28 8.15-6.26 1.19-12.32 1.75-17.09 6.49-5.7 5.88-11.77 10.69-16.49 17.42-.67-.74-1.34-1.47-2.01-2.21-2.2 1.52-4.18 3.18-6.11 5.02.13-1.13.28-2.26.43-3.38a117.14 117.14 0 0017.54-38.61c1.99-8.64 3.62-17.37 5.35-26.06.69.13 1.37.26 2.05.4.43-1.85.85-3.71 1.29-5.55 4.11.33 8.3-1.11 12.4-1.57 2.72-.27 4.03-2.42 5.79-4.22 2.61-3.04 5.48-5.81 8.4-8.56 3.39-3.18 5.13-6.86 8.96-9.13 2.52-1.62 6.19-1.52 9.11-1.83.2-1.51.4-3.01.61-4.51.72 1.68 1.47 3.36 2.21 5.04 1.23-3.11 2.52-6.2 3.68-9.34z" class="do-not-fill" fill="#dbdbdb"/><path d="M1007.45 208.36c-2.95 15.58-5.56 31.19-9.02 46.67-6.53 28.36-25.04 54.39-50.32 69-5.06 2.8-10.94 6.05-16.91 4.51-4.16-1.36-5.76-5.44-6.33-9.42-1.06-8.09 1.31-17.15 2.72-25.15 1.98-9.94 3.29-20.33 6.39-29.97 3.9-12.72 11.17-24.16 21.95-32.12 14.58-11 34.59-16.66 51.52-23.52z" fill="#1e1a1b"/><path d="M254.52 214.84c7.21-1.09 15.4-1.45 21.62 2.99 6.15 4.32 8.67 12.02 9.62 19.16 1.8 13.78-.53 28.63-3.07 42.21-17.05 91.48-33.52 183.07-50.28 274.6-1.35 7.59-2.72 15.48-2.71 23.2.02 3.82.42 8.4 2.66 11.63 1.74 2.58 4.61 3.76 7.65 3.87 4.77.11 9.74-1.71 14.15-3.4 17.12-6.53 34.24-13.04 51.34-19.61 10.31-3.85 19.7-10.81 27.54-18.44 16.45-16.1 27.71-37.36 31.68-60.04 5.38-29.45 10.82-58.9 16.15-88.36 24.16-9.3 48.36-18.49 72.55-27.71-7.25 39.42-14.61 78.83-21.89 118.25-1.01 5.61-1.78 12.05-.36 17.64.95 3.45 3.07 6.48 6.8 7.15 5.29.93 10.99-2 15.51-4.49 23.16-13.23 40.76-36.05 48.65-61.44 2.3-7.13 3.4-14.26 5.03-21.57 5.08-27.28 10.13-54.57 15.17-81.86 24.19-9.23 48.37-18.49 72.57-27.69-7.22 38.68-14.32 77.38-21.54 116.05-1.14 6.33-2.41 13.79-.58 20.07.98 3.42 3.47 6.46 7.21 6.78 6.1.65 11.32-2.55 16.44-5.4 22.69-13.53 39.84-36.22 47.45-61.44 2.96-9.59 4.03-19.06 6.18-28.82 3.16-15.05 7.49-30.54 14.98-44.06 8.08-14.84 20.02-26.73 33.91-36.2 20.34-13.89 44.6-23.73 67.57-32.42 31.77-12.15 63.53-24.35 95.31-36.48-14.78 79.65-29.48 159.32-44.28 238.96-4.79 25.26-13.22 49.8-29.67 69.94-8.16 9.94-17.99 18.27-28.84 25.14-12.93 8.27-27.04 14.4-40.78 21.21-14.69 7.06-29.49 13.84-44.27 20.7-212.2 97.66-424.77 194.53-637.27 291.54 6.77-36.97 13.59-73.93 20.56-110.86 151.68-60.41 303.29-121 454.98-181.37 68.15-27.16 136.37-54.37 204.61-81.29 13.1-5.4 23.97-14.96 30.52-27.57 5.77-10.8 8.72-22.67 10.96-34.62 2.18-11.84 4.44-23.67 6.57-35.52-7.81 13.69-16.71 26.62-27.37 38.26-15.05 16.41-33.78 30.05-55.05 37.04-10.01 3.11-20.82 3.15-29.23-3.83-9.9-8.37-12.81-21.35-14.74-33.56-7.36 16.11-17.28 31.14-28.71 44.65-16.43 19.21-37.03 35.54-61.02 44.07-10.72 3.67-22.55 4.19-32.24-2.46-11.13-7.7-16.05-21.2-18.45-33.97-7.6 16.15-17.1 31.36-28.56 45.06-15.34 18.39-34.48 34.15-56.71 43.41-7.02 2.97-14.13 5.08-21.85 4.75-8.02-.11-15.68-3.72-21.13-9.56-7.39-7.71-11.37-18.9-13.06-29.28-5.22 10.78-11.05 21.23-17.96 31.02-15.17 21.65-34.54 40.65-58.21 52.79-7.07 3.69-14.41 6.3-21.83 9.14-64.13 24.39-128.26 48.8-192.37 73.22 4.35-23.42 8.5-46.89 13.11-70.25 13.14-4.85 26.19-9.94 39.3-14.89 8.13-3.11 15.51-7.07 20.95-14.07 6.82-8.77 9.68-20.11 11.69-30.83 16.17-87.27 32.34-174.54 48.52-261.8.85-4.81 2.31-10.13 1.49-14.98-.46-2.48-1.83-4.9-4.43-5.53-3.95-.8-8.2 1.35-11.85 2.68-15.37 5.83-30.72 11.75-46.14 17.45 5.19-27.62 10.08-55.32 15.48-82.9 20.2-7.49 40.31-15.24 60.45-22.87 12.76-4.8 26.1-10.79 39.52-13.19z" class="do-not-fill" fill="#fff"/><path d="M611.4 231.71l-.41 2.19c-3.25 17.8-6.63 35.58-9.86 53.38-.25 1.38-.52 2.75-.77 4.13-24.18 9.21-48.33 18.52-72.55 27.62.98-5.16 1.93-10.32 2.87-15.49 2.59-13.83 5.16-27.68 7.67-41.53.35-1.11.22-2.68 1.62-3.02 5.17-2.14 10.47-3.97 15.68-6.02 18.59-7.07 37.15-14.22 55.75-21.26z" class="do-not-fill" fill="#fff"/><path d="M940.64 238.49c-2.63 4.77-5.87 9.05-8.07 14.08-6.68 14.1-7.99 29.18-11.31 44.94-3.1 2.47-6.28 4.89-9.23 7.54-1.94 1.75-3.34 4-5.24 5.76-4.77 2.33-10.86 2.04-15.57 4.4-6.51 5.62-12.18 12.16-18.56 17.88-1.45 1.39-2.35 3.08-3.44 4.79-.55-1.74-1.08-3.48-1.55-5.24 2.49-14.36 5.3-28.66 7.83-43.01.7-3.05.58-5.76 3.48-7.63 15.96-11.39 31.94-22.77 47.91-34.16 4.63-3.17 8.8-6.68 13.75-9.35z" class="do-not-fill" fill="#d4d4d4"/><path d="M1053.13 246.63c-.85 7.95-2.94 14.95-1.7 22.99.84 4.8 2.63 9.33 7.05 11.86 4.19 2.59 9.5 1.79 14.21 1.74-.99 5.96-2.31 11.84-3.48 17.76-1.35 1.89-2.04 3.1-4.47 3.27-1.85 2.16-3.51 5.02-5.92 6.55-4.21 2.31-9.36 2.74-13.12 5.89-2.73 2.11-4.18 5.07-6.52 7.45-3.58 2.2-9.14 3.44-12.39 6.64-2.49 2.88-3.7 6.76-6.8 9.2-3.98 3.23-8.67 4.26-13.34 6.15a33.397 33.397 0 01-5.61-9.18c-5.25-12.66-4.32-24.87-6.35-38.03-5.9 11.27-10.39 22.72-17.1 33.65-15.09 26.15-37.25 50.03-64.6 63.46-7.97 3.88-17.06 7.69-25.99 8.23-4.9.26-9.85-.3-13.85-3.38-4.81-3.73-7.1-9.13-8.38-14.93 3.04-1.2 6.41-2.37 9.09-4.25 1.78-1.41 2.84-3.63 4.63-5.06 2.11-1.65 4.27-3.14 6.03-5.18 4.1-4.6 9.59-7.86 14.26-11.76 2.68-2.27 4.18-5.83 6.91-7.96 3.7-1.09 7.68-.83 11.36-2.66 2.03-.99 3.32-2.57 4.75-4.25 3.43-4.65 8.59-5.84 13.26-9.64-1.88.18-3.76.37-5.64.56l.36-1.63c10.66 1.33 18.68-3.62 27.15-9.22 11.4-7.51 20.67-17.26 28.84-28.11-.15 1.12-.3 2.25-.43 3.38 1.93-1.84 3.91-3.5 6.11-5.02.67.74 1.34 1.47 2.01 2.21 4.72-6.73 10.79-11.54 16.49-17.42 4.77-4.74 10.83-5.3 17.09-6.49 2.62-2.96 5.97-4.88 8.28-8.15 3.43-4.1 7.79-8.98 13.22-10.13 0-1.13 0-2.26-.02-3.4.75.98 1.48 1.96 2.21 2.95.22-3.14.75-5.4 2.4-8.09z" class="do-not-fill" fill="#e3e3e3"/><path d="M469.95 285.72c-.16.94-.33 1.88-.49 2.82-3.55 18.99-6.97 38.01-10.63 56.98-24.17 9.11-48.27 18.41-72.42 27.57 3.61-19.92 7.37-39.81 11.02-59.73 22.12-8.42 44.23-16.87 66.34-25.31 2.06-.78 4.12-1.56 6.18-2.33z" class="do-not-fill" fill="#fff"/><path d="M787.79 292.32c-3.01 15.93-5.65 31.85-9.24 47.65-6.67 27.89-24.91 53.33-49.72 67.85-4.54 2.58-10.42 5.81-15.79 5.11-4.03-.5-6.4-3.69-7.4-7.39-1.64-6.57-.27-13.98.94-20.52 2.03-10.26 3.6-20.64 5.96-30.83 3.46-14.34 10.16-27.5 21.85-36.84 14.67-12.03 35.92-17.78 53.4-25.03z" fill="#1e1a1b"/><path d="M921.26 297.51c-1.39 8.54-3.67 18.56-.76 26.98 1.56 4.62 4.84 7.75 9.28 9.63l-.36 1.63c1.88-.19 3.76-.38 5.64-.56-4.67 3.8-9.83 4.99-13.26 9.64-1.43 1.68-2.72 3.26-4.75 4.25-3.68 1.83-7.66 1.57-11.36 2.66-2.73 2.13-4.23 5.69-6.91 7.96-4.67 3.9-10.16 7.16-14.26 11.76-1.76 2.04-3.92 3.53-6.03 5.18-1.79 1.43-2.85 3.65-4.63 5.06-2.68 1.88-6.05 3.05-9.09 4.25-3.56-17.11-.64-36.38 2.9-53.31.47 1.76 1 3.5 1.55 5.24 1.09-1.71 1.99-3.4 3.44-4.79 6.38-5.72 12.05-12.26 18.56-17.88 4.71-2.36 10.8-2.07 15.57-4.4 1.9-1.76 3.3-4.01 5.24-5.76 2.95-2.65 6.13-5.07 9.23-7.54z" class="do-not-fill" fill="#dbdbdb"/><path d="M1069.21 300.98c-1.33 10.07-3.6 19.95-5.37 29.95-.53 2.59-.87 5.42-1.99 7.83-1.37 1.36-3.49 2.07-5.25 2.8-7.02 2.6-14 5.31-20.99 8.02-6.23 2.36-13.82 4.15-20.37 2.15-3.43-.95-6.2-3.03-8.59-5.6 4.67-1.89 9.36-2.92 13.34-6.15 3.1-2.44 4.31-6.32 6.8-9.2 3.25-3.2 8.81-4.44 12.39-6.64 2.34-2.38 3.79-5.34 6.52-7.45 3.76-3.15 8.91-3.58 13.12-5.89 2.41-1.53 4.07-4.39 5.92-6.55 2.43-.17 3.12-1.38 4.47-3.27z" class="do-not-fill" fill="#eaeaea"/><path d="M839.19 310.59c-3.03 18.29-6.75 36.48-10.09 54.71a84.53 84.53 0 00-1.65-3.13c-.46 1.59-.9 3.19-1.34 4.79-2.23.17-4.29.75-6.1 2.13-5.41 3.96-9.32 10.19-14.75 14.17-2.6 1.9-5.33 3.52-8.42 4.45-3.87 1.16-7.61 1.82-11.1 4.01-4.56 2.59-7.27 6.8-12.38 8.56.97-5.14 2.04-10.21 2.58-15.42-7.91 12.87-14.57 26.55-22.85 39.22-13.97 21.91-32.7 41.9-55.87 54.13-9.17 4.54-18.7 9.41-29.25 8.58-7.6-.32-13.52-5.18-17.2-11.55-4.28-7.48-6.39-16.68-6.72-25.24 1.76-2.16 4.46-3.66 6.7-5.29 16.64-11.86 33.28-23.75 49.95-35.58 2.2 3.43 3.99 6.61 7.97 8.21 6.14 2.73 13.4.25 19.03-2.63 23.94-12.45 42.74-34.73 51.97-60 .85-2.49 2.66-3.9 4.74-5.34 18.36-12.77 36.29-26.21 54.78-38.78z" class="do-not-fill" fill="#d4d4d4"/><path d="M827.45 362.17a84.53 84.53 0 011.65 3.13c-3.7 21.27-7.96 42.45-11.8 63.69-6.09-.49-11.43.72-16.66 3.84-2.25 1.97-3.47 4.96-5.85 6.88-6.92 5.91-14.54 9.44-20.24 16.86-2.14 3.14-5.16 4.93-8.34 6.85-.19-.73-.37-1.45-.56-2.17-.8 1.67-1.67 3.3-2.5 4.96-.52-1.42-1.02-2.84-1.48-4.29 4.31-20.46 7.57-41.14 11.69-61.64 5.11-1.76 7.82-5.97 12.38-8.56 3.49-2.19 7.23-2.85 11.1-4.01 3.09-.93 5.82-2.55 8.42-4.45 5.43-3.98 9.34-10.21 14.75-14.17 1.81-1.38 3.87-1.96 6.1-2.13.44-1.6.88-3.2 1.34-4.79z" class="do-not-fill" fill="#dbdbdb"/><path d="M817.3 428.99c-4.13 22.39-7.17 44.87-16.21 65.67-1.42.6-3.06 1.04-4.32 1.94-.97 1-1.58 2.38-2.3 3.56-.7-.1-1.41-.2-2.11-.31-3.6 3.14-7.82 5.11-11.81 7.65-3.6 2.28-5.69 6.12-9.52 7.6-3.59 1.6-6.99 3.71-10.4 5.69-2.91 1.67-4.16 5.13-7.03 6.74-4.47 2.5-9.46 4.44-13.79 7.32-3.22 2.18-5.43 5.96-8.25 8.71-6.16 6.04-12.37 11.4-21.15 12.99-3.45 5.93-9.83 7.91-15.43 11.42-3.04 1.7-4.97 4.25-7.4 6.61-2.93 2.93-7.61 3.83-10.98 6.03-2.24 1.7-3.64 4.36-5.87 6.14-1.88 1.45-4.16 2.51-6.25 3.63-.16.99-.32 1.99-.47 2.98-65.11 30.16-130.42 60.11-195.7 89.91-.56-.52-1.13-1.03-1.69-1.55 2.42-2.56 4.6-5.23 7.5-7.27l-.36-1.17c4.82-2.14 9.62-4.57 13.94-7.6 2.44-1.5 2.67-5.41 4.76-7.01 4.42-2.5 9.36-3.76 13.65-6.6 5.57-3.63 10.86-6.06 15.54-10.43 2.99-2.66 5.34-6.02 8.42-8.53 3.78-3.07 9.19-1.39 13.1-4.89 3.82-3.33 8.56-5.42 11.68-9.28 2.78-3.34 5.5-6.47 9.01-9.09 3-2.2 7.27-2.26 9.73-5.23 2.62-2.85 3.42-7.22 6.17-9.84 2.91-1.37 7.73-.06 10.7-2.3 5.07-3.3 10.1-5.6 14.14-9.86 3.51-3.75 7.07-7.71 10.98-11.06 2.25-1.87 5.38-2.73 7.66-4.3 2.6-2.41 4.09-7.2 7.38-8.68 3.31-.67 7.65 1.25 10.72-.21 2.46-2.63 3.91-5.84 6.83-8.16 2.09-1.9 4.59-2.74 7.27-3.41-.31-.52-.62-1.05-.93-1.57 1.6-.24 3.2-.48 4.8-.73-.76-.64-1.51-1.28-2.26-1.92 15.82-6.47 31.79-12.6 47.67-18.92 10.13-4.06 20.88-7.58 29.62-14.33 8.85-6.56 15.68-15.84 20.13-25.86 3.06-6.92 5.3-14.23 7.2-21.55.46 1.45.96 2.87 1.48 4.29.83-1.66 1.7-3.29 2.5-4.96.19.72.37 1.44.56 2.17 3.18-1.92 6.2-3.71 8.34-6.85 5.7-7.42 13.32-10.95 20.24-16.86 2.38-1.92 3.6-4.91 5.85-6.88 5.23-3.12 10.57-4.33 16.66-3.84z" class="do-not-fill" fill="#e3e3e3"/><path d="M628.22 461.08c-4.67 9.26-10.77 17.86-16.97 26.14-16.85 21.71-38.36 40.16-64.49 49.53-8 2.84-16.28 3.37-24.22-.02 3.12-3.1 6.78-5.35 10.32-7.89 29.16-20.86 58.38-41.61 87.54-62.46 2.56-1.84 5.13-3.65 7.82-5.3z" class="do-not-fill" fill="#d2d2d2"/><path d="M801.09 494.66c-9.08 23.31-26.39 42.98-48.01 55.47-11.67 7.19-23.99 12.59-36.23 18.69-17.56 8.29-35.08 16.71-52.84 24.54.15-.99.31-1.99.47-2.98 2.09-1.12 4.37-2.18 6.25-3.63 2.23-1.78 3.63-4.44 5.87-6.14 3.37-2.2 8.05-3.1 10.98-6.03 2.43-2.36 4.36-4.91 7.4-6.61 5.6-3.51 11.98-5.49 15.43-11.42 8.78-1.59 14.99-6.95 21.15-12.99 2.82-2.75 5.03-6.53 8.25-8.71 4.33-2.88 9.32-4.82 13.79-7.32 2.87-1.61 4.12-5.07 7.03-6.74 3.41-1.98 6.81-4.09 10.4-5.69 3.83-1.48 5.92-5.32 9.52-7.6 3.99-2.54 8.21-4.51 11.81-7.65.7.11 1.41.21 2.11.31.72-1.18 1.33-2.56 2.3-3.56 1.26-.9 2.9-1.34 4.32-1.94z" class="do-not-fill" fill="#e9e9e9"/><path d="M657.05 542.58c.75.64 1.5 1.28 2.26 1.92-1.6.25-3.2.49-4.8.73.31.52.62 1.05.93 1.57-2.68.67-5.18 1.51-7.27 3.41-2.92 2.32-4.37 5.53-6.83 8.16-3.07 1.46-7.41-.46-10.72.21-3.29 1.48-4.78 6.27-7.38 8.68-2.28 1.57-5.41 2.43-7.66 4.3-3.91 3.35-7.47 7.31-10.98 11.06-4.04 4.26-9.07 6.56-14.14 9.86-2.97 2.24-7.79.93-10.7 2.3-2.75 2.62-3.55 6.99-6.17 9.84-2.46 2.97-6.73 3.03-9.73 5.23-3.51 2.62-6.23 5.75-9.01 9.09-3.12 3.86-7.86 5.95-11.68 9.28-3.91 3.5-9.32 1.82-13.1 4.89-3.08 2.51-5.43 5.87-8.42 8.53-4.68 4.37-9.97 6.8-15.54 10.43-4.29 2.84-9.23 4.1-13.65 6.6-2.09 1.6-2.32 5.51-4.76 7.01-4.32 3.03-9.12 5.46-13.94 7.6l.36 1.17c-2.9 2.04-5.08 4.71-7.5 7.27.56.52 1.13 1.03 1.69 1.55-45.99 20.95-91.92 42.14-137.91 63.11-5.81 2.74-11.63 5.41-17.57 7.86.79-1.46 1.44-3.54 2.86-4.5 2.35-1.61 5.07-2.75 7.62-4.01-.18-.4-.37-.81-.55-1.21 2.74-1.18 4.66-3 6.69-5.1 3.03-3.11 7.55-3.66 11.08-5.94 1.99-1.6 3.27-4.07 5.19-5.74 2.8-1.63 6.9-2.18 9.66-4.32 3.2-2.4 4.15-7.43 7.39-9.65 4.19-2.57 9.94-2.45 14.24-4.77 4.05-3.55 6.74-8.13 7.6-13.48 4.11-1.91 8.15-4.07 12.38-5.6 2.91-1.11 6.31-2.18 8.77-4.13 2.79-2.29 4.37-6.34 7.45-8.59 4.15-3.06 9.51-3.92 13.83-6.13 1.41-.68 2.09-1.86 3-3.05 3.03-4.56 8.01-7.03 11.73-11.25 2.93-2.99 5.14-7.45 9.04-9.08 4.51-2.12 9.71-4.13 13.98-6.96 3.49-2.33 5.95-6.35 9.58-8.34 3.54-1.66 7.53-2.17 11.07-3.88 3.06-1.5 6.22-3.1 8.85-5.27 2.25-2.36 3.08-6.04 5.36-8.41 2-1.53 4.66-2.25 6.88-3.46 3.04-1.51 5.23-4.88 7.67-7.23 3.67-3.8 9.36-5.4 14.08-7.7-1.52-.28-3.03-.54-4.55-.78 44.36-17.88 88.89-35.36 133.32-53.08z" class="do-not-fill" fill="#dcdcdc"/><path d="M523.73 595.66c1.52.24 3.03.5 4.55.78-4.72 2.3-10.41 3.9-14.08 7.7-2.44 2.35-4.63 5.72-7.67 7.23-2.22 1.21-4.88 1.93-6.88 3.46-2.28 2.37-3.11 6.05-5.36 8.41-2.63 2.17-5.79 3.77-8.85 5.27-3.54 1.71-7.53 2.22-11.07 3.88-3.63 1.99-6.09 6.01-9.58 8.34-4.27 2.83-9.47 4.84-13.98 6.96-3.9 1.63-6.11 6.09-9.04 9.08-3.72 4.22-8.7 6.69-11.73 11.25-.91 1.19-1.59 2.37-3 3.05-4.32 2.21-9.68 3.07-13.83 6.13-3.08 2.25-4.66 6.3-7.45 8.59-2.46 1.95-5.86 3.02-8.77 4.13-4.23 1.53-8.27 3.69-12.38 5.6-.86 5.35-3.55 9.93-7.6 13.48-4.3 2.32-10.05 2.2-14.24 4.77-3.24 2.22-4.19 7.25-7.39 9.65-2.76 2.14-6.86 2.69-9.66 4.32-1.92 1.67-3.2 4.14-5.19 5.74-3.53 2.28-8.05 2.83-11.08 5.94-2.03 2.1-3.95 3.92-6.69 5.1.18.4.37.81.55 1.21-2.55 1.26-5.27 2.4-7.62 4.01-1.42.96-2.07 3.04-2.86 4.5-49.37 22.71-98.79 45.31-148.24 67.84-1.51-.67-3.02-1.34-4.54-2 .11-.55.19-1.1.24-1.65 2.48-1.87 4.9-3.91 7.53-5.54 2.94-1.81 6.01-2.63 9.15-3.95 4.08-1.69 7.47-4.46 11.52-6.26 3-1.35 5.83-2.62 7.96-5.25 3.19-3.87 6.3-7.61 10.61-10.3 2.98-2.09 6.58-3.09 9.57-5.11 2.81-3.05 4.59-6.72 8.05-9.26 4.74-3.86 10.35-4.79 15.43-7.73 4.58-3.13 8.31-7.82 12.29-11.65 2.33-2.33 6.17-3.15 9.09-4.74 4.08-2.07 6.41-5.71 10.5-7.63 3.4-1.57 6.78-2.87 9.69-5.3 2.94-2.12 4.94-5.03 7.51-7.5 4.53-2.99 10.74-4.48 14.83-8.09 3.47-4.83 6.12-9.7 11.97-12.11 4.98-1.83 9.66-4.14 14.23-6.83 3.82-2.18 5.38-6.37 9.09-8.89 2.73-1.85 6.29-2.22 9.04-3.9 2.78-2.2 4.7-5.24 7.69-7.28 4.83-3.28 9.81-6.38 14.94-9.18 3.36-1.79 5.04-4.63 7.79-7.16 2.58-2.51 5.37-4.12 7.25-7.26 2.03-4.39 7.67-5.61 11.68-7.89l.33-2c-.88-.29-1.76-.57-2.64-.84 42.69-17.24 85.58-34.05 128.34-51.12z" class="do-not-fill" fill="#d6d6d6"/><path d="M915.12 627.72c-.86 1.61-1.76 3.19-2.73 4.74-37.57 58.24-90.63 106.25-152.64 137.31-78.29 39.57-169.94 51.55-255.77 33.36-41.28-8.59-81.12-24.1-117.45-45.47 2.46-1.47 5.44-3.48 8.36-3.64 3.16.9 6.11 2.66 9.14 3.95 48.02 21.22 100 33.15 152.44 35.35 61.58 2.61 123.82-7.86 181.06-30.78 65.25-26 123.8-68.34 168.01-123.02 3.29-3.91 6.08-8.1 9.58-11.8z" fill="#585657"/><path d="M395.39 646.78c.88.27 1.76.55 2.64.84l-.33 2c-4.01 2.28-9.65 3.5-11.68 7.89-1.88 3.14-4.67 4.75-7.25 7.26-2.75 2.53-4.43 5.37-7.79 7.16-5.13 2.8-10.11 5.9-14.94 9.18-2.99 2.04-4.91 5.08-7.69 7.28-2.75 1.68-6.31 2.05-9.04 3.9-3.71 2.52-5.27 6.71-9.09 8.89-4.57 2.69-9.25 5-14.23 6.83-5.85 2.41-8.5 7.28-11.97 12.11-4.09 3.61-10.3 5.1-14.83 8.09-2.57 2.47-4.57 5.38-7.51 7.5-2.91 2.43-6.29 3.73-9.69 5.3-4.09 1.92-6.42 5.56-10.5 7.63-2.92 1.59-6.76 2.41-9.09 4.74-3.98 3.83-7.71 8.52-12.29 11.65-5.08 2.94-10.69 3.87-15.43 7.73-3.46 2.54-5.24 6.21-8.05 9.26-2.99 2.02-6.59 3.02-9.57 5.11-4.31 2.69-7.42 6.43-10.61 10.3-2.13 2.63-4.96 3.9-7.96 5.25-4.05 1.8-7.44 4.57-11.52 6.26-3.14 1.32-6.21 2.14-9.15 3.95-2.63 1.63-5.05 3.67-7.53 5.54-.05.55-.13 1.1-.24 1.65 1.52.66 3.03 1.33 4.54 2-33.76 15.39-67.5 30.86-101.27 46.24-4.68 2.11-9.11 4.48-14.05 5.98 2.74-2.7 5.86-4.86 9.01-7.02 88.33-63.01 176.68-126.01 265.03-188.99 4.2-3.04 8.03-6.21 12.97-8.03 19.74-7.74 39.35-15.79 59.11-23.48z" class="do-not-fill" fill="#d2d2d2"/></svg>
