<svg enable-background="new 0 0 789.44 159.73" width="789.44" height="159.73" viewBox="0 0 789.44 159.73" xmlns="http://www.w3.org/2000/svg" xmlns:xlink="http://www.w3.org/1999/xlink"><defs><path id="a" d="m412.9 41.31c0 3.63 2.93 6.56 6.56 6.56s6.56-2.94 6.56-6.56-2.94-6.56-6.56-6.56c-3.63 0-6.56 2.94-6.56 6.56"></path><linearGradient id="b" gradientUnits="userSpaceOnUse" x1=".2549" x2="153.6859" y1="80.3218" y2="80.3218"><stop offset="0" stop-color="#e51779"></stop><stop offset="1" stop-color="#ed7124"></stop></linearGradient><clipPath id="c"><use xlink:href="#a"></use></clipPath></defs><path d="m95.44 60.94c.69-.65 1.47-.96 2.25-.96h.01c1.33 0 2.63.91 3.34 2.55l10.82 24.91c3.5 7.39-2.34 10.18-6 6.18l-7.22-9.04c-1.17-1.47-2.92-1.81-4.37-.87l-25.2 16.42c-1.37.89-3 .64-4.17-.64l-9.02-9.85c-.81-.88-1.2-1.56-2.54-1.36-1.67.24-7.22 6.49-10.46 4.49-5.12-3.17 1.58-10.08 3.86-12.46l5.39-5.61c1.48-1.89 3.83-1.9 5.33-.03l8.06 10.02c1.34 1.68 3.21 1.64 4.71.22zm58.25 19.38c0-42.3-34.42-76.72-76.72-76.72s-76.72 34.42-76.72 76.72 34.41 76.71 76.71 76.71 76.73-34.41 76.73-76.71zm-8.49 0c0 37.62-30.61 68.23-68.23 68.23s-68.23-30.61-68.23-68.23 30.61-68.23 68.23-68.23 68.23 30.61 68.23 68.23z" fill="url(#b)"></path><path d="m394.26 34.63c-3.62 0-6.56 2.91-6.56 6.49v16.53c-4.2-2.65-9.06-4.08-14.11-4.08-9.11 0-17.25 4.64-22.06 11.85-11.75 17.61.7 41.64 22.07 41.64 5.25 0 10.34-1.54 14.69-4.46 1.03 2.25 3.31 3.82 5.97 3.82 3.62 0 6.56-2.9 6.56-6.48 0-.01 0-.02 0-.04v-58.78c0-3.58-2.93-6.49-6.56-6.49m-20.66 59.46c-7.41 0-13.45-6.14-13.45-13.78 0-13.57 17.15-18.88 24.56-7.76 6.1 9.14-.34 21.54-11.11 21.54"></path><use xlink:href="#a"></use><path clip-path="url(#c)" d="m412.9 34.75h13.12v13.12h-13.12z"></path><path d="m419.46 53.28c-3.62 0-6.56 2.99-6.56 6.69v40.4c0 3.7 2.94 6.69 6.56 6.69s6.56-2.99 6.56-6.69v-40.4c0-3.69-2.94-6.69-6.56-6.69"></path><path d="m486.04 53.97c-3.13 0-5.74 2.17-6.39 5.07h-.01c-4.65-3.62-10.32-5.58-16.22-5.58h-.01-.01c-19.07 0-31.8 19.66-24.49 37.18 4.07 9.76 13.59 16.42 24.49 16.42h.01.01c5.72 0 11.45-1.85 16.26-5.61h.02c.71 2.83 3.27 4.93 6.35 4.93 3.62 0 6.56-2.91 6.56-6.5v-39.41c-.01-3.59-2.95-6.5-6.57-6.5m-22.63 40.1c-7.43-.01-13.45-6.17-13.45-13.81 0-7.61 5.99-13.8 13.45-13.81 4.58 0 8.66 2.34 11.11 6.03 6.09 9.16-.34 21.58-11.11 21.59"></path><path d="m251.48 53.72c-6.68 0-12.88 2.7-17.31 7.27-4.39-4.55-10.55-7.27-17.25-7.27-4.14 0-8.16 1.04-11.75 3.02-7.37 4.08-12.1 11.75-12.1 20.29v23.33c.01 3.59 2.92 6.5 6.52 6.5 3.59 0 6.5-2.91 6.51-6.5v-23.33-.01c.02-11.6 17.46-14.34 21.06-3.01.3.95.46 1.96.46 3.02v23.33c.01 3.59 2.92 6.5 6.51 6.5s6.51-2.91 6.52-6.5v-23.33c.01-11.59 17.46-14.37 21.06-3.02.3.95.46 1.95.46 3.02v23.32c.01 3.59 2.92 6.5 6.52 6.5 3.59 0 6.5-2.91 6.51-6.5v-23.32c.03-12.86-10.54-23.31-23.72-23.31"></path><path d="m521.97 72.51c-.98-.34-3.25-1.27-3.64-2.22-.03-.08-.06-.17-.07-.44 0-1.8.27-3.57 5.52-3.57 4.7 0 7.37 1.93 9.9 2.96.81.37 1.7.59 2.64.61.04 0 .08.01.12.01h.01c3.62 0 6.55-2.9 6.55-6.48 0-2.5-1.45-4.65-3.55-5.73l.01-.03c-1.9-.97-3.96-1.91-6.16-2.67-13.6-4.69-28.14.63-28.14 14.8h.01c0 .03-.01.06-.01.09v.06.01c.03 9.5 8.03 14.09 17.44 16.2 2.09.44 8.71 1.96 9.46 3.97.03.1.07.25.08.57 0 2.87-3.42 3.57-6.32 3.57-4.86 0-8.4-1.65-12.06-4.02l-.03.05c-1.03-.66-2.24-1.05-3.56-1.05-3.62 0-6.55 2.9-6.55 6.48 0 2.54 1.49 4.71 3.63 5.77 5.75 3.61 11.47 5.73 18.57 5.73 12.26 0 19.43-7.45 19.43-16.53.01-14.9-18.97-16.63-23.28-18.14"></path><path d="m569.5 56.13v-15.14c0-3.62-2.93-6.55-6.55-6.55s-6.55 2.93-6.55 6.55v59.43.04c0 3.62 2.93 6.55 6.55 6.55s6.55-2.93 6.55-6.55c0-.01 0-.02 0-.04v-23.4c0-1.42.29-2.73.82-3.95 4.44-10.19 20.83-7.57 20.83 3.95v23.45c.01 3.61 2.94 6.54 6.55 6.54s6.54-2.92 6.55-6.54v-23.44-.08c-.04-17.52-18.92-28.7-34.75-20.82"></path><path d="m663.98 53.62c-3.12 0-5.73 2.19-6.38 5.12h-.01s.01.01.01.01-.01 0-.01-.01c-4.64-3.65-10.32-5.63-16.21-5.63h-.01-.01c-19.05 0-31.77 19.84-24.47 37.51 4.07 9.85 13.58 16.56 24.47 16.56h.01.01c5.71 0 11.44-1.87 16.24-5.65h.02c.71 2.85 3.27 4.98 6.34 4.98 3.62 0 6.55-2.93 6.55-6.55v-39.79c0-3.62-2.93-6.55-6.55-6.55m-22.61 40.45c-7.42-.01-13.43-6.22-13.43-13.93 0-7.68 5.99-13.93 13.43-13.93 4.57 0 8.65 2.36 11.1 6.08 6.09 9.24-.34 21.78-11.1 21.78"></path><path d="m727.75 96.06-17.2-18.83 13.74-12.09-.02-.02c1.36-1.2 2.24-2.94 2.24-4.9 0-3.62-2.93-6.55-6.55-6.55-1.66 0-3.16.64-4.31 1.66l-.02-.02-18.71 16.47c-.01 0-.01.01-.01.01-.02.02-.04.03-.06.05s-.04.04-.06.06l-1.12.99v-31.91c0-3.62-2.93-6.55-6.55-6.55s-6.55 2.93-6.55 6.55v46.33.12 13.01.04c0 3.62 2.93 6.55 6.55 6.55s6.55-2.94 6.55-6.55c0-.01 0-.03 0-.04v-10.11l5.04-4.44 17.36 19.01.02-.01c1.2 1.31 2.91 2.15 4.82 2.15 3.62 0 6.55-2.94 6.55-6.55 0-1.7-.67-3.24-1.73-4.41z"></path><path d="m323.06 94.12c-1.68 0-4.38-.05-4.38-.05-1.12 0-5.62 0-5.61 0-.02 0-.15 0-.76 0h-.02c-2.64 0-4.8-.44-6.56-1.13-1.32-.52-2.44-1.19-3.4-1.98-1.41-1.17-2.5-2.64-3.28-4.41h32.02c3.62 0 6.56-2.86 6.56-6.39 0-14.89-11.05-26.69-26.63-26.69h-.02-.01c-14.37 0-26.32 11.98-26.32 26.69 0 3.5.59 6.92 1.79 10.11.9 2.39 2.15 4.65 3.75 6.69 1.19 1.53 2.59 2.93 4.15 4.16 2.35 1.84 5.09 3.3 8.12 4.27 3.02.97 6.32 1.47 9.82 1.47h.01c3.45 0 11.61.02 11.61.02h.2c3.16 0 5.77-3.07 5.77-6.37 0-3.52-2.85-6.37-6.37-6.37m-.31-20.37h-23.84c2.25-4.46 6.69-7.52 11.63-7.53 5.81.01 10.12 2.92 12.21 7.53z"></path><path d="m313.07 94.08 9.99.05z"></path><path d="m774.88 94.09c-1.68 0-4.38-.05-4.38-.05-1.12 0-5.62 0-5.61 0-.02 0-.15 0-.76 0h-.02c-2.64 0-4.8-.44-6.56-1.13-1.32-.52-2.44-1.19-3.4-1.98-1.41-1.17-2.5-2.64-3.28-4.41h32.02c3.62 0 6.56-2.86 6.56-6.39 0-14.89-11.05-26.69-26.63-26.69h-.02-.01c-14.37 0-26.32 11.98-26.32 26.69 0 3.5.59 6.92 1.79 10.11.9 2.39 2.15 4.65 3.75 6.69 1.19 1.53 2.59 2.93 4.15 4.16 2.35 1.84 5.09 3.3 8.12 4.27 3.02.97 6.32 1.47 9.82 1.47h.01c3.45 0 11.61.02 11.61.02h.2c3.16 0 5.77-3.07 5.77-6.37 0-3.52-2.85-6.37-6.37-6.37m-.32-20.37h-23.84c2.25-4.46 6.69-7.52 11.63-7.53 5.82.01 10.12 2.92 12.21 7.53z"></path></svg>
