<svg width="90" height="36" viewBox="0 0 90 36" fill="none" xmlns="http://www.w3.org/2000/svg">
<path d="M27.4937 28.775L14.7404 0.851959C13.1552 3.78573 10.7773 7.88639 13.9478 15.0144L20.2666 28.775C22.1326 32.9693 20.4538 34.8297 17.5641 35.7654H35.4088C31.8256 34.8297 29.4477 32.9638 27.4937 28.775Z" fill="#1C1E26"/>
<path d="M7.84356 27.9219C6.27485 32.628 4.70614 34.1967 0 35.7654H15.6816C10.981 34.1912 9.41227 32.628 7.84356 27.9219Z" fill="#1C1E26"/>
<path d="M86.9727 10.1707C86.9727 5.23334 87.4405 3.51051 90 0.851959H77.8852C80.4501 3.50501 80.9125 5.23334 80.9125 10.1707V26.4467C80.9125 31.384 80.4446 33.1069 77.8852 35.7654H90C87.435 33.1124 86.9727 31.384 86.9727 26.4467V10.1707Z" fill="#1C1E26"/>
<path d="M43.9404 28.775L31.1926 0.851959C29.6074 3.78573 27.235 7.88639 30.4 15.0144L36.7189 28.775C38.9536 33.8555 42.0745 35.7654 51.8611 35.7654C48.2723 34.8297 45.8944 32.9638 43.9404 28.775Z" fill="#1C1E26"/>
<path d="M71.5993 10.2972C70.0141 15.0474 68.4288 16.6326 63.6787 18.2179C68.4288 19.8031 70.0141 21.3883 71.5993 26.1385C73.1845 21.3883 74.7697 19.8031 79.5199 18.2179C74.7642 16.6326 73.1845 15.0529 71.5993 10.2972Z" fill="#1C1E26"/>
<path d="M62.2806 10.1707C62.2806 5.23334 62.7485 3.51051 65.308 0.851959H53.1931C55.7581 3.50501 56.2205 5.23334 56.2205 10.1707V26.4467C56.2205 31.384 55.7526 33.1069 53.1931 35.7654H65.308C62.743 33.1124 62.2806 31.384 62.2806 26.4467V10.1707Z" fill="#1C1E26"/>
</svg>
