<svg class="is-biggest" width="130" height="52" viewBox="0 0 130 52" fill="none" xmlns="http://www.w3.org/2000/svg"><g clip-path="url(#prefix__clip0_491_367)"><path d="M23.034 10.594a.96.96 0 01-1.825.588.951.951 0 01.616-1.198.96.96 0 011.209.61zm1.747-2.177a1.073 1.073 0 01-.962 1.177 1.078 1.078 0 01-1.187-.953 1.073 1.073 0 01.961-1.178 1.078 1.078 0 011.188.954zM22.73 5.793c.2.608-.137 1.261-.75 1.459a1.17 1.17 0 01-1.47-.743c-.2-.608.136-1.262.75-1.459a1.17 1.17 0 011.47.743zm-.241-2.25a1.216 1.216 0 011.09-1.333 1.22 1.22 0 011.343 1.079 1.216 1.216 0 01-1.09 1.333 1.22 1.22 0 01-1.343-1.08zm2.101 9.263a.885.885 0 01-.792.97.887.887 0 01-.976-.785.885.885 0 01.792-.97.887.887 0 01.976.785zm-4.743-1.74a.948.948 0 01-.353 1.3.961.961 0 01-1.31-.347.948.948 0 01.354-1.3.961.961 0 011.31.347zm1.255-2.492a1.071 1.071 0 01-.695 1.35 1.08 1.08 0 01-1.36-.686 1.071 1.071 0 01.694-1.35 1.08 1.08 0 011.36.686zm-2.553-2.142c.322.553.13 1.261-.428 1.581-.558.32-1.271.132-1.593-.422a1.154 1.154 0 01.429-1.582 1.168 1.168 0 011.592.423zm-.705-2.151a1.212 1.212 0 01.787-1.529 1.223 1.223 0 011.54.779 1.212 1.212 0 01-.787 1.528 1.223 1.223 0 01-1.54-.778zm3.988 8.625a.882.882 0 01-.571 1.111.889.889 0 01-1.12-.564.882.882 0 01.572-1.112.889.889 0 011.12.565zm-5.002-.72a.95.95 0 01-.072 1.345.962.962 0 01-1.353-.068.95.95 0 01.073-1.345.962.962 0 011.353.069zm.707-2.698a1.07 1.07 0 01-.397 1.465 1.082 1.082 0 01-1.473-.39 1.07 1.07 0 01.397-1.464 1.082 1.082 0 011.473.39zm-2.943-1.566c.43.474.39 1.208-.09 1.636a1.17 1.17 0 01-1.646-.083 1.154 1.154 0 01.09-1.636 1.17 1.17 0 011.646.083zm-1.139-1.957a1.211 1.211 0 01.451-1.66 1.224 1.224 0 011.668.443c.337.58.136 1.322-.45 1.659a1.224 1.224 0 01-1.669-.442zm5.702 7.61a.88.88 0 01-.328 1.206.89.89 0 01-1.213-.32.889.889 0 011.54-.883v-.003zm-5.044.333c.427.308.52.904.208 1.33a.962.962 0 01-1.338.214.948.948 0 01-.208-1.331.961.961 0 011.338-.213zm.13-2.786a1.07 1.07 0 01-.084 1.515 1.08 1.08 0 01-1.522-.077 1.07 1.07 0 01.083-1.515 1.08 1.08 0 011.522.077zm-3.208-.923c.52.375.634 1.1.255 1.618a1.17 1.17 0 01-1.628.26 1.156 1.156 0 01-.255-1.62 1.17 1.17 0 011.628-.26v.002zM9.513 8.52a1.211 1.211 0 01.094-1.715 1.226 1.226 0 011.725.086 1.21 1.21 0 01-.096 1.715c-.503.451-1.274.411-1.725-.086h.002zm7.166 6.264a.88.88 0 01-.069 1.246.89.89 0 01-1.253-.062.88.88 0 01.069-1.247.89.89 0 011.253.063zm-4.864 1.37c.482.213.698.776.482 1.258a.96.96 0 01-1.263.486c-.482-.213-.698-.777-.482-1.258a.96.96 0 011.263-.487zm-.455-2.752c.48.347.586 1.019.235 1.499a1.08 1.08 0 01-1.505.24 1.068 1.068 0 01-.235-1.499 1.082 1.082 0 011.506-.24h-.001zm-3.33-.239c.585.26.849.946.585 1.532-.261.585-.95.85-1.537.591a1.155 1.155 0 01-.586-1.531c.262-.586.95-.851 1.537-.592zm-1.84-1.326a1.209 1.209 0 01-.265-1.698 1.226 1.226 0 011.705-.273c.545.393.664 1.154.265 1.698a1.226 1.226 0 01-1.705.273zm8.316 4.643a.88.88 0 01.193 1.233.89.89 0 01-1.24.199.88.88 0 01-.193-1.234.89.89 0 011.24-.198zm-4.47 2.346a.95.95 0 01.733 1.131.96.96 0 01-1.136.737.95.95 0 01-.733-1.131.958.958 0 011.134-.737h.001zm-1.02-2.597c.543.24.786.875.543 1.417a1.08 1.08 0 01-1.423.547 1.07 1.07 0 01-.543-1.417c.243-.543.88-.787 1.423-.547zm-3.307.457c.628.132 1.028.748.893 1.377a1.167 1.167 0 01-1.381.897 1.157 1.157 0 01-.893-1.378 1.168 1.168 0 011.381-.896zm-2.076-.918a1.212 1.212 0 01-.615-1.606 1.224 1.224 0 011.61-.62c.615.274.89.991.615 1.606a1.223 1.223 0 01-1.61.62zm9.103 2.82c.447.197.648.72.447 1.166a.891.891 0 01-1.171.45.88.88 0 01-.447-1.166.89.89 0 011.171-.45zm-3.884 3.22a.958.958 0 01.883.59.957.957 0 01-1.767.732.957.957 0 01.884-1.321zM7.313 19.48c.58.123.951.694.828 1.275a1.074 1.074 0 11-2.104-.445 1.078 1.078 0 011.276-.83zm-3.138 1.131c.641 0 1.162.519 1.16 1.16 0 .643-.52 1.163-1.163 1.165a1.16 1.16 0 01-1.161-1.161c0-.642.52-1.162 1.164-1.164zm-2.224-.467a1.215 1.215 0 01-.936-1.444 1.222 1.222 0 011.447-.94c.657.14 1.077.786.936 1.444a1.222 1.222 0 01-1.447.94zm9.494.872c.477.1.782.57.68 1.05a.888.888 0 01-1.051.683.882.882 0 01-.68-1.048.888.888 0 011.05-.684v-.001zM8.318 24.97a.956.956 0 11.397 1.87.956.956 0 01-.397-1.87zm-1.991-1.958a1.075 1.075 0 11-.001 2.15 1.075 1.075 0 010-2.15zM3.49 24.769a1.162 1.162 0 11.484 2.273 1.162 1.162 0 01-.484-2.273zm-2.27.003a1.219 1.219 0 11.001 0H1.22zm9.468-1.113c.488 0 .885.396.884.885 0 .49-.398.885-.886.886a.883.883 0 01-.884-.885c0-.489.397-.885.886-.886zm-2.233 4.517a.958.958 0 011.262.485.954.954 0 11-1.744.776.953.953 0 01.484-1.261h-.002zM6.1 26.673a1.076 1.076 0 11.446 2.105 1.076 1.076 0 01-.446-2.105zm-2.407 2.305a1.165 1.165 0 011.536.59 1.16 1.16 0 01-.588 1.534 1.165 1.165 0 01-1.535-.59 1.16 1.16 0 01.587-1.534zm-2.22.473a1.219 1.219 0 01-.507-2.385 1.218 1.218 0 01.505 2.385h.002zM10.5 26.4a.888.888 0 011.05.682.884.884 0 01-.681 1.05.885.885 0 11-.37-1.732zm-1.242 4.88a.957.957 0 011.126 1.547.957.957 0 01-1.126-1.547zM6.64 30.3a1.08 1.08 0 011.421.547c.243.542 0 1.178-.543 1.418a1.078 1.078 0 01-1.421-.547c-.243-.542 0-1.178.543-1.418zm-1.872 2.754a1.166 1.166 0 011.625.26c.378.52.265 1.245-.254 1.621-.52.377-1.248.26-1.626-.26a1.159 1.159 0 01.255-1.621zm-2.073.922a1.22 1.22 0 01-.994-2.227 1.22 1.22 0 01.994 2.227zm8.194-4.852a.887.887 0 01.722 1.619.887.887 0 01-.722-1.619zm-.195 5.03a.958.958 0 011.424 1.28.959.959 0 01-1.351.068.952.952 0 01-.073-1.348zm-2.768-.418a1.08 1.08 0 011.505.24c.35.48.245 1.153-.236 1.5a1.08 1.08 0 01-1.504-.24 1.072 1.072 0 01.235-1.5zm-1.256 3.08A1.165 1.165 0 018.4 38.372a1.165 1.165 0 01-1.643.083 1.158 1.158 0 01-.09-1.64zm-1.835 1.333a1.221 1.221 0 01-1.703-.273 1.213 1.213 0 01.267-1.699 1.221 1.221 0 011.702.273 1.215 1.215 0 01-.266 1.7zm7.002-6.444a.889.889 0 011.238.199.881.881 0 01-.193 1.235.889.889 0 01-1.239-.2.882.882 0 01.194-1.234zm.859 4.962A.956.956 0 0114 36.32a.954.954 0 01.353 1.303.958.958 0 01-1.66-.956v-.001zm-2.794.163a1.078 1.078 0 011.521-.076c.444.397.481 1.076.084 1.517a1.077 1.077 0 01-1.521.075A1.071 1.071 0 019.9 36.83zm-.586 3.274a1.165 1.165 0 011.59-.42 1.16 1.16 0 01.431 1.584 1.165 1.165 0 01-1.59.421 1.16 1.16 0 01-.431-1.585zm-1.518 1.683c-.45.498-1.22.537-1.723.086a1.215 1.215 0 111.63-1.804c.5.45.542 1.22.093 1.718zm5.505-7.753a.888.888 0 011.32 1.186.888.888 0 01-1.32-1.186zm1.877 4.674a.957.957 0 011.207-.61c.503.164.78.702.617 1.201a.957.957 0 01-1.207.61.955.955 0 01-.617-1.201zm-2.7.74a1.079 1.079 0 011.472-.39 1.071 1.071 0 11-1.075 1.856 1.071 1.071 0 01-.397-1.466zm.11 3.323c.198-.608.854-.94 1.467-.741.614.199.95.854.752 1.462-.198.608-.856.94-1.467.74a1.16 1.16 0 01-.752-1.46zm-1.133 1.961a1.22 1.22 0 01-1.666.44 1.215 1.215 0 01-.451-1.66 1.22 1.22 0 011.667-.44c.585.337.787 1.08.45 1.66zm3.766-8.724a.888.888 0 011.539.887.888.888 0 01-1.54-.886zm2.811 4.184a.955.955 0 011.052-.847c.527.057.91.525.854 1.047a.954.954 0 01-1.052.846.955.955 0 01-.854-1.046zm-2.487 1.282c.183-.563.792-.87 1.359-.686.567.184.878.788.695 1.352-.183.563-.792.87-1.359.686a1.074 1.074 0 01-.695-1.352zm.802 3.229a1.161 1.161 0 011.282-1.029 1.162 1.162 0 011.04 1.273 1.16 1.16 0 01-1.281 1.03 1.163 1.163 0 01-1.04-1.274zm-.7 2.152a1.22 1.22 0 01-1.538.777 1.216 1.216 0 01-.787-1.531 1.22 1.22 0 011.539-.777c.643.209.994.894.787 1.531zm1.864-9.314a.887.887 0 011.118-.565.883.883 0 11-.546 1.679.883.883 0 01-.572-1.114zm3.622 3.51a.947.947 0 01.497-.935.96.96 0 011.412.737.947.947 0 01-.497.936.96.96 0 01-1.412-.739v.002zm-2.163 1.77a1.076 1.076 0 011.186-.954c.593.062 1.024.59.963 1.178a1.076 1.076 0 01-1.187.954 1.077 1.077 0 01-.962-1.179zm1.457 2.99a1.16 1.16 0 011.038-1.271 1.164 1.164 0 011.283 1.03 1.16 1.16 0 01-1.039 1.272 1.164 1.164 0 01-1.282-1.03zm-.234 2.251a1.218 1.218 0 01-1.344 1.078 1.219 1.219 0 01-1.09-1.335 1.217 1.217 0 011.343-1.077 1.22 1.22 0 011.09 1.334zm-.122-9.495a.886.886 0 01.976-.784.885.885 0 01.792.97.886.886 0 01-.976.784.886.886 0 01-.792-.97zm4.277 2.683a.96.96 0 011.825-.588.96.96 0 01-1.825.588zM22.6 43.43a1.073 1.073 0 01.962-1.178 1.078 1.078 0 011.187.954 1.072 1.072 0 01-.961 1.177 1.078 1.078 0 01-1.188-.954zm2.051 2.623c-.2-.608.137-1.261.75-1.458a1.168 1.168 0 011.47.742c.2.608-.136 1.262-.75 1.459a1.169 1.169 0 01-1.47-.743zm.241 2.25a1.216 1.216 0 01-1.09 1.333 1.22 1.22 0 01-1.343-1.079 1.216 1.216 0 011.09-1.333 1.22 1.22 0 011.343 1.08zm-2.101-9.263a.885.885 0 01.792-.97c.488-.05.925.301.976.785a.884.884 0 01-.792.97.887.887 0 01-.976-.785zm4.743 1.739a.95.95 0 01.353-1.302.961.961 0 011.31.347.95.95 0 01-.354 1.3.961.961 0 01-1.31-.347v.002zm-1.256 2.493a1.071 1.071 0 01.695-1.35 1.08 1.08 0 011.36.686 1.071 1.071 0 01-.695 1.35 1.08 1.08 0 01-1.36-.686zm2.554 2.142a1.155 1.155 0 01.428-1.581 1.17 1.17 0 011.593.42c.321.554.13 1.262-.429 1.582a1.17 1.17 0 01-1.592-.42zm.705 2.151a1.212 1.212 0 01-.787 1.529 1.223 1.223 0 01-1.54-.779 1.212 1.212 0 01.787-1.528 1.223 1.223 0 011.54.778zm-3.988-8.626a.882.882 0 01.571-1.112.882.882 0 11.548 1.677.888.888 0 01-1.12-.565zm5.002.72a.951.951 0 01.072-1.347.962.962 0 011.353.068c.353.39.32.994-.073 1.346a.96.96 0 01-1.352-.068zm-.707 2.697a1.07 1.07 0 01.397-1.464 1.08 1.08 0 011.473.39 1.07 1.07 0 01-.397 1.464 1.082 1.082 0 01-1.473-.39zm2.945 1.567a1.154 1.154 0 01.09-1.636 1.168 1.168 0 011.645.082c.43.475.39 1.209-.09 1.637a1.17 1.17 0 01-1.645-.083zm1.137 1.958c.336.58.135 1.323-.451 1.66a1.226 1.226 0 01-1.67-.443 1.211 1.211 0 01.451-1.658 1.224 1.224 0 011.668.441h.002zm-5.702-7.61a.889.889 0 011.54-.883.889.889 0 01-1.54.883zm5.044-.332a.948.948 0 01-.208-1.332.961.961 0 011.338-.213c.427.308.52.904.208 1.331a.962.962 0 01-1.338.214zm-.13 2.785a1.07 1.07 0 01.084-1.515 1.082 1.082 0 011.522.076 1.07 1.07 0 01-.083 1.515 1.082 1.082 0 01-1.522-.076zm3.21.922a1.156 1.156 0 01-.255-1.62 1.17 1.17 0 011.628-.26c.52.375.634 1.1.254 1.62a1.17 1.17 0 01-1.628.26zm1.52 1.68a1.21 1.21 0 01-.094 1.715 1.224 1.224 0 01-1.724-.086 1.21 1.21 0 01.093-1.715 1.226 1.226 0 011.725.086zm-7.166-6.265a.88.88 0 01.069-1.247.89.89 0 011.253.063.88.88 0 01-.069 1.246.89.89 0 01-1.253-.062zm4.864-1.37a.95.95 0 01-.482-1.258.96.96 0 011.263-.487.95.95 0 01.482 1.259.96.96 0 01-1.263.486zm.455 2.752a1.068 1.068 0 01-.235-1.5 1.083 1.083 0 011.506-.24c.48.346.587 1.018.235 1.498a1.083 1.083 0 01-1.506.242zm3.33.238c-.585-.26-.849-.946-.585-1.531.262-.586.95-.851 1.537-.592.586.26.85.946.586 1.532a1.17 1.17 0 01-1.537.591zm1.84 1.327a1.21 1.21 0 01.267 1.697 1.225 1.225 0 01-1.706.273 1.21 1.21 0 01-.266-1.697 1.226 1.226 0 011.705-.273zm-8.317-4.643a.88.88 0 01-.194-1.233.89.89 0 011.24-.199.88.88 0 01.193 1.233.89.89 0 01-1.24.2zm4.472-2.347a.952.952 0 01-.735-1.13.959.959 0 011.135-.737.952.952 0 01.735 1.13.959.959 0 01-1.135.737zm1.02 2.598a1.07 1.07 0 01-.544-1.418c.243-.542.88-.787 1.423-.547s.786.875.543 1.418a1.08 1.08 0 01-1.423.547zm3.306-.457a1.157 1.157 0 01-.893-1.377 1.167 1.167 0 011.381-.897c.628.132 1.029.749.893 1.377a1.167 1.167 0 01-1.38.897zm2.076.918c.615.272.89.99.615 1.605a1.223 1.223 0 01-1.61.62c-.615-.273-.89-.992-.615-1.606a1.223 1.223 0 011.61-.62zm-9.103-2.82a.88.88 0 01-.447-1.167.888.888 0 011.171-.45c.447.197.648.72.447 1.166a.888.888 0 01-1.171.451zm3.884-3.221a.956.956 0 01-.883-.59.957.957 0 011.767-.732.957.957 0 01-.884 1.321zm1.539 2.329a1.074 1.074 0 01-.828-1.275 1.074 1.074 0 112.104.445 1.079 1.079 0 01-1.276.83zm3.14-1.133a1.16 1.16 0 01-1.16-1.162c0-.642.52-1.162 1.163-1.164.641 0 1.162.519 1.16 1.16 0 .643-.52 1.163-1.163 1.165v.001zm2.222.468c.658.14 1.077.786.936 1.444a1.222 1.222 0 01-1.447.94 1.215 1.215 0 01-.936-1.444 1.222 1.222 0 011.447-.94zm-9.494-.871a.883.883 0 01-.68-1.05.888.888 0 011.051-.683c.478.1.783.57.68 1.05a.888.888 0 01-1.05.683zm3.127-3.957a.956.956 0 11-.397-1.867.956.956 0 01.397 1.866v.001zm1.991 1.96a1.075 1.075 0 110-2.15 1.075 1.075 0 010 2.15zm2.835-1.758a1.162 1.162 0 11-.483-2.275 1.162 1.162 0 01.483 2.275zm2.272-.003a1.218 1.218 0 11-.001 2.435 1.218 1.218 0 010-2.435zm-9.469 1.113a.886.886 0 11.885-.886c0 .489-.396.885-.886.886h.001zm2.233-4.517a.958.958 0 01-1.262-.484.954.954 0 111.745-.777.953.953 0 01-.483 1.261zm2.357 1.505a1.076 1.076 0 11-.446-2.103 1.076 1.076 0 01.446 2.101v.002zm2.407-2.307a1.165 1.165 0 01-1.536-.59 1.16 1.16 0 01.588-1.534 1.165 1.165 0 011.535.59 1.16 1.16 0 01-.587 1.534zm2.22-.473a1.22 1.22 0 01.508 2.386 1.219 1.219 0 01-.508-2.386zm-9.029 3.051a.888.888 0 01-1.05-.682.884.884 0 01.68-1.05c.48-.1.949.205 1.052.683a.884.884 0 01-.682 1.05zm1.241-4.881a.957.957 0 01-1.125-1.548.957.957 0 011.125 1.546v.002zm2.62.983a1.078 1.078 0 01-1.422-.547c-.242-.543 0-1.179.543-1.42a1.078 1.078 0 011.422.548c.242.542 0 1.178-.544 1.419zm1.873-2.753c-.52.376-1.247.26-1.625-.26a1.159 1.159 0 01.255-1.621 1.166 1.166 0 011.625.259c.378.52.264 1.247-.255 1.622zm2.073-.924a1.22 1.22 0 01.994 2.227 1.22 1.22 0 01-.994-2.227zm-8.195 4.854a.887.887 0 01-.724-1.62.887.887 0 01.724 1.62zm.195-5.032a.958.958 0 01-1.426-1.28.958.958 0 011.425 1.28zm2.768.42a1.08 1.08 0 01-1.505-.24 1.072 1.072 0 01.235-1.5 1.08 1.08 0 011.505.24 1.07 1.07 0 01-.235 1.5zm1.256-3.082a1.165 1.165 0 01-1.733-1.557 1.165 1.165 0 011.643-.083c.48.43.52 1.164.09 1.64zm1.835-1.333a1.221 1.221 0 011.702.273 1.212 1.212 0 01-.266 1.699 1.221 1.221 0 01-1.436-1.973v.001zm-7.002 6.444a.89.89 0 01-1.239-.197.881.881 0 01.194-1.235.89.89 0 011.238.197.881.881 0 01-.194 1.235zm-.86-4.96a.956.956 0 01-1.306.345.953.953 0 01-.353-1.303.958.958 0 011.66.957v.001zm2.796-.165a1.079 1.079 0 01-1.605-1.439 1.079 1.079 0 011.521-.077c.444.397.481 1.076.084 1.517zm.585-3.273a1.165 1.165 0 01-1.591.421 1.16 1.16 0 01-.43-1.584 1.164 1.164 0 011.59-.421 1.16 1.16 0 01.43 1.584zm1.518-1.684a1.223 1.223 0 011.723-.086 1.215 1.215 0 11-1.63 1.804 1.214 1.214 0 01-.093-1.718zm-5.505 7.755a.888.888 0 01-1.32-1.186.888.888 0 011.32 1.186zm-1.876-4.676a.957.957 0 01-1.206.61.955.955 0 01-.618-1.201.957.957 0 011.207-.61c.503.164.78.702.617 1.201zm2.699-.738a1.079 1.079 0 01-1.472.39 1.071 1.071 0 111.074-1.856c.517.298.695.953.398 1.466zm-.11-3.325c-.198.608-.856.94-1.468.741a1.162 1.162 0 01-.752-1.462c.199-.607.855-.94 1.468-.74.613.198.95.852.752 1.46zm1.132-1.96a1.22 1.22 0 011.667-.44c.585.336.787 1.08.45 1.66a1.22 1.22 0 01-1.666.44 1.214 1.214 0 01-.451-1.66zm-3.765 8.724a.888.888 0 01-1.539-.886.887.887 0 011.211-.32.882.882 0 01.328 1.206zm-2.812-4.185a.954.954 0 01-1.052.847.956.956 0 01-.854-1.047.955.955 0 011.052-.846c.527.056.91.524.854 1.046zm2.486-1.28c-.183.563-.792.87-1.359.686a1.074 1.074 0 01-.695-1.352c.183-.563.792-.87 1.359-.686.567.183.878.788.695 1.351zm-.8-3.23a1.16 1.16 0 01-1.282 1.03 1.163 1.163 0 01-1.04-1.274 1.16 1.16 0 011.28-1.029 1.163 1.163 0 011.041 1.274zm.697-2.152a1.22 1.22 0 011.539-.776c.643.209.996.893.787 1.53a1.22 1.22 0 01-1.538.778 1.216 1.216 0 01-.788-1.532zm-1.862 9.314a.887.887 0 01-1.117.565.883.883 0 11.546-1.678c.467.151.723.65.571 1.113zm-3.622-3.512a.949.949 0 01-.853 1.046.96.96 0 01-1.055-.847.948.948 0 01.496-.936.96.96 0 011.412.739v-.002zm2.164-1.768a1.076 1.076 0 01-1.186.953 1.077 1.077 0 01-.963-1.178 1.076 1.076 0 011.186-.954c.594.063 1.024.59.963 1.179zm-1.458-2.992a1.16 1.16 0 01-1.04 1.272 1.165 1.165 0 01-1.282-1.03 1.16 1.16 0 011.039-1.272 1.164 1.164 0 011.283 1.03zm.233-2.25a1.217 1.217 0 011.342-1.078c.672.072 1.16.669 1.09 1.335a1.217 1.217 0 01-1.343 1.077 1.22 1.22 0 01-1.089-1.334zm.124 9.497a.886.886 0 01-.977.784.885.885 0 01-.791-.97.886.886 0 01.976-.784.885.885 0 01.792.97zM18.786 24.22c0-.583-.476-1.054-1.063-1.054a1.06 1.06 0 00-1.064 1.054 1.06 1.06 0 001.065 1.054c.587 0 1.062-.473 1.062-1.054zm.542-3.229c0-.582-.476-1.054-1.064-1.054-.588 0-1.064.472-1.064 1.054 0 .583.476 1.054 1.064 1.054.588 0 1.064-.471 1.064-1.054zm2.713 2.373c0-.582-.476-1.054-1.063-1.054a1.06 1.06 0 00-1.064 1.054c0 .583.476 1.054 1.064 1.054.588 0 1.063-.471 1.063-1.054zm2.713 2.375c0-.582-.476-1.054-1.063-1.054a1.06 1.06 0 00-1.064 1.054c0 .583.476 1.054 1.064 1.054.588 0 1.063-.471 1.063-1.054zm4.926 4.938c0-.582.476-1.054 1.064-1.054a1.06 1.06 0 011.064 1.054 1.06 1.06 0 01-1.064 1.054 1.06 1.06 0 01-1.064-1.054zm-.542-3.229c0-.582.476-1.054 1.063-1.054a1.06 1.06 0 011.064 1.055c0 .582-.476 1.053-1.064 1.053a1.057 1.057 0 01-1.063-1.053zm-.543-3.228c0-.583.476-1.054 1.063-1.054a1.06 1.06 0 011.064 1.054c0 .582-.477 1.054-1.064 1.054a1.057 1.057 0 01-1.063-1.054zm-.543-3.229c0-.582.476-1.054 1.064-1.054a1.06 1.06 0 011.064 1.054 1.06 1.06 0 01-1.064 1.054 1.059 1.059 0 01-1.064-1.054zm-2.712 2.373c0-.582.477-1.054 1.063-1.054a1.06 1.06 0 011.064 1.054c0 .583-.476 1.054-1.064 1.054a1.057 1.057 0 01-1.063-1.054zm-7.639 7.313c0-.582-.476-1.054-1.064-1.054-.588 0-1.063.472-1.063 1.054 0 .583.477 1.054 1.063 1.054a1.06 1.06 0 001.064-1.054zm.542-3.229c0-.582-.476-1.054-1.063-1.054a1.06 1.06 0 00-1.064 1.055c0 .582.476 1.053 1.064 1.053.588 0 1.063-.471 1.063-1.053zm43.368 2.067l-1.02-7.147h-1.008l-1.822 5.085c-.18.508-.29.81-.4 1.291h-.013c-.069-.37-.236-.839-.428-1.374l-1.766-5.003h-.91l-1.05 7.147h.746l.579-4.48c.096-.743.165-1.32.193-1.87h.013c.069.386.29.949.47 1.47l1.724 4.88h.842l1.849-5.21c.165-.467.29-.866.358-1.141h.014c.041.37.096.948.22 1.856l.634 4.495h.775zm8.608-2.694V22.37h-.73v4.48c0 1.251-.566 2.159-2.194 2.159-1.353 0-2.18-.619-2.18-1.966v-4.673h-.746v4.728c0 1.663 1.034 2.515 2.856 2.515 2.152 0 2.994-1.306 2.994-2.79zm6.976.619c0-2.35-3.864-1.512-3.864-3.257 0-.783.607-1.292 1.877-1.292.455 0 1.118.097 1.531.22l.042-.701a8.96 8.96 0 00-1.518-.138c-1.655 0-2.69.783-2.69 2.007 0 2.253 3.85 1.47 3.85 3.215 0 1.1-1.022 1.471-1.92 1.471-.675 0-1.31-.123-1.766-.316l-.041.77c.4.11 1.09.192 1.683.192 1.448 0 2.814-.782 2.814-2.171h.002zm3.2 2.075v-7.147h-.746v7.147h.745zm3.835 0v-7.147h-.746v7.147h.746zm8.292 0l-3.56-3.697 3.435-3.45h-.966l-3.366 3.491v-3.49h-.746v7.146h.746V25.86l3.408 3.656h1.049zm7.158 0l-3.56-3.697 3.437-3.45h-.966l-3.368 3.491v-3.49h-.744v7.146h.744V25.86l3.408 3.656h1.05zm2.703 0v-7.147h-.746v7.147h.746zm7.105-6.555v-.592h-5.285v.592h2.264v6.555h.744V22.96h2.277zm7.2 6.555l-2.856-7.147h-.786l-2.897 7.147h.759l.69-1.731h3.588l.676 1.73h.827-.001zm-1.738-2.308h-3.118l1.104-2.763c.18-.467.345-.934.455-1.32h.014c.11.358.275.838.455 1.291l1.09 2.79v.002zm7.215 2.308v-.59h-2.801v-6.557h-.746v7.147h3.547zM130 25.902c0-2.282-1.146-3.63-3.298-3.63-1.89 0-3.45 1.334-3.45 3.725 0 2.062.94 3.614 3.243 3.614 1.987 0 3.505-1.306 3.505-3.71zm-.801.11c0 1.937-1.131 2.982-2.635 2.982-1.919 0-2.526-1.457-2.526-3.092 0-1.966 1.215-3.024 2.581-3.024 1.615 0 2.58 1.1 2.58 3.134z" fill="#1C1E26"/></g><defs><clipPath id="prefix__clip0_491_367"><path fill="#fff" transform="translate(0 .203)" d="M0 0h130v51.439H0z"/></clipPath></defs></svg>
