<svg xmlns="http://www.w3.org/2000/svg" viewBox="0 0 363 135" width="240" height="100"><path fill="currentColor" d="M12.4 99.1h9.9v2.4h-7.2v5.2h7.2v2.3h-7.2v8.7h-2.7zM27.4 99.1h2.7v18.6h-2.7zM51.1 99.1h2.5v18.6h-2.3l-12.4-14.3v14.3h-2.5V99.1h2.2l12.5 14.4zM74.5 99.1h2.6v18.6h-2.3l-12.4-14.3v14.3h-2.5V99.1H62l12.5 14.4zM83.3 99.1H86v18.6h-2.7zM96.8 109.9l-2-1.2c-1.3-.8-2.2-1.5-2.7-2.3-.5-.8-.8-1.6-.8-2.6 0-1.5.5-2.7 1.5-3.6 1-.9 2.3-1.4 4-1.4 1.6 0 3 .4 4.3 1.3v3c-1.3-1.3-2.8-1.9-4.3-1.9-.9 0-1.6.2-2.1.6-.6.4-.8.9-.8 1.5s.2 1.1.6 1.6c.4.5 1.1 1 2 1.5l2 1.2c2.3 1.4 3.4 3.1 3.4 5.2 0 1.5-.5 2.7-1.5 3.6-1 .9-2.3 1.4-3.9 1.4-1.8 0-3.5-.6-5-1.7v-3.4c1.4 1.8 3.1 2.7 5 2.7.8 0 1.5-.2 2.1-.7.6-.5.8-1 .8-1.8-.1-.9-.9-2-2.6-3M120 99.1h2.6v18.6H120v-8.1h-10.4v8.1h-2.7V99.1h2.7v8.1H120zM153.4 99.1h2.5v18.6h-2.6v-14.5l-5.7 7.2h-.5l-5.8-7.2v14.5h-2.7V99.1h2.6l6.1 7.7z"></path><g fill="currentColor"><path d="M175.1 99.1h2.7v10.5c0 1.4-.1 2.5-.3 3.2-.2.7-.5 1.3-.8 1.8-.3.5-.7.9-1.1 1.3-1.5 1.3-3.4 1.9-5.8 1.9s-4.4-.6-5.8-1.9c-.4-.4-.8-.8-1.1-1.3-.3-.5-.6-1.1-.8-1.8-.2-.7-.3-1.8-.3-3.3V99.1h2.7v10.5c0 1.7.2 3 .6 3.6.4.7 1 1.2 1.8 1.6.8.4 1.8.6 2.9.6 1.6 0 2.9-.4 3.9-1.2.5-.4.9-1 1.1-1.6.2-.6.3-1.6.3-3.1V99.1zM188.2 109.9l-2-1.2c-1.3-.8-2.2-1.5-2.7-2.3-.5-.8-.8-1.6-.8-2.6 0-1.5.5-2.7 1.5-3.6 1-.9 2.3-1.4 4-1.4 1.6 0 3 .4 4.3 1.3v3c-1.3-1.3-2.8-1.9-4.3-1.9-.9 0-1.6.2-2.1.6-.6.4-.8.9-.8 1.5s.2 1.1.6 1.6c.4.5 1.1 1 2 1.5l2 1.2c2.3 1.4 3.4 3.1 3.4 5.2 0 1.5-.5 2.7-1.5 3.6-1 .9-2.3 1.4-3.9 1.4-1.8 0-3.5-.6-5-1.7v-3.4c1.4 1.8 3.1 2.7 5 2.7.8 0 1.5-.2 2.1-.7.6-.5.8-1 .8-1.8-.2-.9-1-2-2.6-3"></path></g><path fill="currentColor" d="M198.3 99.1h2.7v18.6h-2.7z"></path><g fill="currentColor"><path d="M223.3 113.4v2.9c-1.9 1.1-4.2 1.6-6.7 1.6-2.1 0-3.8-.4-5.3-1.3-1.4-.8-2.6-2-3.4-3.4-.8-1.5-1.3-3-1.3-4.8 0-2.7 1-5 2.9-6.8 1.9-1.8 4.3-2.8 7.1-2.8 1.9 0 4.1.5 6.5 1.5v2.9c-2.2-1.2-4.3-1.9-6.4-1.9-2.1 0-3.9.7-5.3 2s-2.1 3-2.1 5.1c0 2 .7 3.7 2.1 5 1.4 1.3 3.1 2 5.3 2 2.2.1 4.4-.6 6.6-2M254.5 113.4v2.9c-2 1.1-4.2 1.6-6.7 1.6-2.1 0-3.8-.4-5.3-1.3-1.4-.8-2.6-2-3.4-3.4-.8-1.5-1.3-3-1.3-4.8 0-2.7 1-5 2.9-6.8 1.9-1.8 4.3-2.8 7.1-2.8 1.9 0 4.1.5 6.5 1.5v2.9c-2.2-1.2-4.3-1.9-6.4-1.9-2.1 0-3.9.7-5.3 2s-2.1 3-2.1 5.1c0 2 .7 3.7 2.1 5 1.4 1.3 3.1 2 5.3 2 2.3.1 4.5-.6 6.6-2"></path></g><path fill="currentColor" d="M270.4 109.8l-3-6.7-2.8 6.7h5.8zM266.5 99h1.9l8.3 18.7H274l-2.5-5.5h-7.9l-2.3 5.5h-2.7l7.9-18.7zM295.6 99.1h2.5v18.6h-2.6v-14.5l-5.7 7.2h-.5l-5.8-7.2v14.5h-2.7V99.1h2.6l6.1 7.7z"></path><g fill="currentColor"><path d="M309.6 101.5h-2.8v5.8h2.9c1.1 0 1.9-.3 2.5-.8.6-.5.9-1.2.9-2.2 0-1.9-1.1-2.8-3.5-2.8m-5.4 16.2V99.1h5.9c1.8 0 3.2.5 4.2 1.4 1.1 1 1.6 2.2 1.6 3.9 0 1.1-.3 2-.8 2.9-.5.8-1.3 1.4-2.2 1.8-.9.4-2.3.6-4 .6h-2v8h-2.7zM333.3 99.1h2.7v10.5c0 1.4-.1 2.5-.3 3.2-.2.7-.5 1.3-.8 1.8-.3.5-.7.9-1.1 1.3-1.5 1.3-3.4 1.9-5.8 1.9s-4.4-.6-5.8-1.9c-.4-.4-.8-.8-1.1-1.3-.3-.5-.6-1.1-.8-1.8-.2-.7-.3-1.8-.3-3.3V99.1h2.7v10.5c0 1.7.2 3 .6 3.6.4.7 1 1.2 1.8 1.6.8.4 1.8.6 2.9.6 1.6 0 2.9-.4 3.9-1.2.5-.4.9-1 1.1-1.6.2-.6.3-1.6.3-3.1V99.1zM346.5 109.9l-2-1.2c-1.3-.8-2.2-1.5-2.7-2.3-.5-.8-.8-1.6-.8-2.6 0-1.5.5-2.7 1.5-3.6 1-.9 2.3-1.4 4-1.4 1.6 0 3 .4 4.3 1.3v3c-1.3-1.3-2.8-1.9-4.3-1.9-.9 0-1.6.2-2.1.6-.6.4-.8.9-.8 1.5s.2 1.1.6 1.6c.4.5 1.1 1 2 1.5l2 1.2c2.3 1.4 3.4 3.1 3.4 5.2 0 1.5-.5 2.7-1.5 3.6-1 .9-2.3 1.4-3.9 1.4-1.8 0-3.5-.6-5-1.7v-3.4c1.4 1.8 3.1 2.7 5 2.7.8 0 1.5-.2 2.1-.7.6-.5.8-1 .8-1.8-.2-.9-1-2-2.6-3"></path></g><path fill="currentColor" d="M35.4 59.9h3.8v27.8h-4V66.1l-8.5 10.7h-.8l-8.6-10.7v21.6h-4V59.9h3.8l9.2 11.4z"></path><g fill="currentColor"><path d="M66.6 59.9h4v15.7c0 2.1-.2 3.7-.5 4.8-.3 1.1-.7 2-1.2 2.7s-1 1.4-1.7 1.9c-2.1 2-5 3-8.6 3-3.6 0-6.5-.9-8.7-2.8-.7-.6-1.2-1.2-1.7-2-.5-.7-.8-1.6-1.1-2.6-.3-1-.4-2.7-.4-4.9V59.9h4v15.7c0 2.6.3 4.4.9 5.4.6 1 1.5 1.8 2.7 2.5 1.2.6 2.7.9 4.3.9 2.4 0 4.3-.6 5.8-1.8.8-.7 1.3-1.4 1.7-2.3.3-.9.5-2.4.5-4.6V59.9zM85.1 76l-3-1.8c-1.9-1.2-3.2-2.3-4-3.4-.8-1.1-1.2-2.4-1.2-3.9 0-2.2.8-4 2.3-5.3 1.5-1.4 3.5-2 5.9-2 2.3 0 4.4.7 6.4 2V66c-2-1.9-4.2-2.9-6.5-2.9-1.3 0-2.4.3-3.2.9-.8.6-1.2 1.4-1.2 2.3 0 .8.3 1.6.9 2.3.6.7 1.6 1.5 3 2.3l3 1.8c3.4 2 5.1 4.6 5.1 7.7 0 2.2-.7 4-2.2 5.4-1.5 1.4-3.4 2.1-5.8 2.1-2.7 0-5.2-.8-7.5-2.5v-5c2.1 2.7 4.6 4.1 7.4 4.1 1.2 0 2.3-.3 3.1-1 .8-.7 1.2-1.6 1.2-2.6-.1-1.8-1.3-3.4-3.7-4.9"></path></g><path fill="currentColor" d="M99 59.9h4v27.7h-4zM111.3 59.9h4v27.7h-4zM139.2 59.9h5l-12.1 13.2 15 14.6h-5.4L127.5 74v13.7h-4V59.9h4v12.7zM168 59.9h5l-12.1 13.2 15 14.6h-5.4L156.3 74v13.7h-4V59.9h4v12.7zM181.2 59.9h4v27.7h-4zM209.1 59.9h4.9l-12 13.2 15 14.6h-5.4L197.4 74v13.7h-4V59.9h4v12.7zM237 75.9l-4.5-10-4.2 10h8.7zm-5.9-16.1h2.8l12.4 27.9h-4.1l-3.7-8.2h-11.8l-3.5 8.2h-4.1l12-27.9zM273.5 59.9h3.8v27.8h-4V66.1l-8.5 10.7h-.8l-8.6-10.7v21.6h-4V59.9h3.8l9.2 11.4z"></path><g fill="currentColor"><path d="M293.2 63.5h-4.1v8.7h4.3c1.6 0 2.9-.4 3.7-1.1.9-.8 1.3-1.8 1.3-3.3.1-2.9-1.6-4.3-5.2-4.3m-8 24.2V59.9h8.8c2.6 0 4.8.7 6.3 2.1 1.6 1.4 2.4 3.3 2.4 5.8 0 1.6-.4 3-1.2 4.3-.8 1.2-1.9 2.1-3.3 2.7-1.4.6-3.4.8-6 .8h-2.9v12h-4.1zM327.6 59.9h4v15.7c0 2.1-.2 3.7-.5 4.8-.3 1.1-.7 2-1.2 2.7-.5.7-1 1.4-1.7 1.9-2.2 1.9-5.1 2.8-8.6 2.8-3.6 0-6.5-.9-8.7-2.8-.7-.6-1.2-1.2-1.7-2s-.8-1.6-1.1-2.6c-.3-1-.4-2.7-.4-4.9V59.9h4v15.7c0 2.6.3 4.4.9 5.4.6 1 1.5 1.8 2.7 2.5 1.2.6 2.7.9 4.3.9 2.4 0 4.3-.6 5.8-1.8.8-.7 1.3-1.4 1.7-2.3.3-.9.5-2.4.5-4.6V59.9zM346 76l-3-1.8c-1.9-1.2-3.2-2.3-4-3.4-.8-1.1-1.2-2.4-1.2-3.9 0-2.2.8-4 2.3-5.3 1.5-1.4 3.5-2 5.9-2 2.3 0 4.4.7 6.4 2V66c-2-1.9-4.1-2.9-6.5-2.9-1.3 0-2.4.3-3.2.9-.8.6-1.3 1.4-1.3 2.3 0 .8.3 1.6.9 2.3.6.7 1.6 1.5 3 2.3l3 1.8c3.4 2 5.1 4.6 5.1 7.7 0 2.2-.7 4-2.2 5.4-1.5 1.4-3.4 2.1-5.8 2.1-2.7 0-5.2-.8-7.5-2.5v-5c2.1 2.7 4.6 4.1 7.4 4.1 1.2 0 2.3-.3 3.1-1 .8-.7 1.2-1.6 1.2-2.6.1-1.8-1.1-3.4-3.6-4.9M22.5 32.7l-3.7-2.2c-2.3-1.4-4-2.8-5-4.2-1-1.4-1.5-3-1.5-4.7 0-2.7.9-4.9 2.8-6.5 1.9-1.7 4.3-2.5 7.2-2.5 2.8 0 5.5.8 7.8 2.4v5.5c-2.5-2.4-5.1-3.6-7.9-3.6-1.6 0-2.9.4-3.9 1.1-1 .7-1.5 1.7-1.5 2.8 0 1 .4 2 1.1 2.9.8.9 2 1.8 3.6 2.8l3.7 2.2c4.2 2.5 6.2 5.6 6.2 9.5 0 2.7-.9 5-2.7 6.7-1.8 1.7-4.2 2.6-7.1 2.6-3.4 0-6.4-1-9.2-3.1v-6.2c2.6 3.3 5.7 5 9.1 5 1.5 0 2.8-.4 3.8-1.3s1.5-1.9 1.5-3.2c.2-2.1-1.3-4.1-4.3-6M60.9 13h4.9v19.3c0 2.6-.2 4.6-.6 5.9-.4 1.3-.9 2.4-1.4 3.3-.6.9-1.2 1.7-2.1 2.4-2.7 2.3-6.2 3.5-10.6 3.5-4.4 0-8-1.2-10.7-3.5-.8-.7-1.5-1.5-2.1-2.4-.6-.9-1-2-1.4-3.3-.4-1.3-.6-3.3-.6-6V13h4.9v19.3c0 3.2.4 5.4 1.1 6.7.7 1.3 1.8 2.3 3.3 3 1.5.8 3.3 1.1 5.3 1.1 2.9 0 5.3-.8 7.1-2.3 1-.8 1.6-1.8 2.1-2.9.4-1.1.6-3 .6-5.7V13zM89.6 17.1c-3.9 0-7.1 1.2-9.6 3.7-2.5 2.4-3.8 5.5-3.8 9.3 0 3.7 1.3 6.7 3.8 9.2 2.5 2.4 5.7 3.7 9.4 3.7 3.8 0 7-1.2 9.5-3.7s3.8-5.6 3.8-9.3c0-3.6-1.3-6.6-3.8-9.1s-5.6-3.8-9.3-3.8m-.2-4.6c5.3 0 9.6 1.7 13.1 5s5.2 7.5 5.2 12.5-1.8 9.2-5.3 12.5c-3.5 3.3-8 4.9-13.3 4.9-5.1 0-9.4-1.6-12.8-4.9-3.4-3.3-5.1-7.4-5.1-12.4 0-5.1 1.7-9.3 5.2-12.6 3.4-3.3 7.8-5 13-5"></path></g><path fill="currentColor" d="M139.7 13h4.6v34h-4.9V20.5l-10.5 13.2h-.9l-10.6-13.2V47h-4.9V13h4.7l11.3 14zM170.6 32.6l-5.5-12.3-5.1 12.3h10.6zm-7.2-19.8h3.4L182.1 47h-5l-4.5-10.1H158L153.8 47h-5l14.6-34.2zM186.7 13h4.9v29.6h15.3V47h-20.2zM232.3 32.6l-5.5-12.3-5.1 12.3h10.6zm-7.2-19.8h3.4L243.8 47h-5l-4.5-10.1h-14.5L215.5 47h-5l14.6-34.2zM247.8 13h4.9v34h-4.9zM286.1 13h4.6v34h-4.2l-22.7-26.2V47h-4.6V13h4l22.9 26.4zM296.8 13h19.3v4.3h-14.4v10.4h13.9V32h-13.9v10.7h14.9V47h-19.8zM349.1 13h4.6v34h-4.2l-22.7-26.2V47h-4.6V13h4l22.9 26.4z"></path></svg>
