<svg xmlns="http://www.w3.org/2000/svg" width="200" height="81" viewBox="0 0 353.4 144.5"><path d="M256.5 14.1c.5 0 1 0 1.6.1.6.1 1.2.1 1.8.2.6.1 1.1.2 1.6.3.5.1.8.2 1.1.3l-.9 4.7c-.4-.2-1.1-.3-2.1-.5s-2.2-.3-3.8-.3c-1 0-2 .1-3 .3-1 .2-1.6.4-1.9.4v25.2h-5.4V16c1.3-.5 2.8-.9 4.7-1.3 1.8-.4 3.9-.6 6.3-.6m-52.3 30.6c-.8-1.4-1.8-3-2.9-4.8-1.1-1.8-2.3-3.6-3.5-5.5-1.3-1.9-2.6-3.8-3.9-5.8-1.4-2-2.7-3.9-4.1-5.7-1.3-1.8-2.7-3.5-3.9-5.2-1.3-1.6-2.4-3-3.5-4.3v31.2h-5.5v-40h4.4c1.8 1.9 3.7 4.2 5.8 6.7 2.1 2.6 4.1 5.2 6.1 7.9s3.9 5.4 5.7 8c1.8 2.6 3.3 4.9 4.5 7V4.8h5.5v40h-4.7zm37.1-15c0 2.4-.3 4.5-1 6.5-.7 1.9-1.7 3.6-2.9 5s-2.7 2.5-4.5 3.2c-1.7.7-3.6 1.1-5.7 1.1-2 0-3.9-.4-5.6-1.1-1.7-.8-3.2-1.8-4.5-3.2-1.2-1.4-2.2-3-2.9-5-.7-1.9-1-4.1-1-6.5 0-2.3.3-4.5 1-6.4.7-1.9 1.7-3.6 2.9-5s2.7-2.5 4.5-3.2c1.7-.7 3.6-1.1 5.6-1.1 2 0 3.9.4 5.7 1.1 1.7.7 3.2 1.8 4.5 3.2 1.2 1.4 2.2 3 2.9 5 .6 2 1 4.1 1 6.4m-5.6 0c0-3.4-.8-6.1-2.3-8s-3.6-3-6.2-3-4.7 1-6.2 3-2.3 4.7-2.3 8c0 3.4.8 6.1 2.3 8 1.5 2 3.6 3 6.2 3s4.7-1 6.2-3c1.5-1.9 2.3-4.6 2.3-8M271 14.8h11.4v4.5H271v13.8c0 1.5.1 2.7.3 3.7.2 1 .6 1.8 1 2.3.5.6 1 1 1.7 1.2.7.2 1.5.3 2.4.3 1.6 0 2.9-.2 3.9-.5 1-.4 1.7-.6 2-.8l1 4.4c-.5.3-1.5.6-2.8 1-1.3.4-2.9.6-4.6.6-2 0-3.7-.3-5-.8-1.3-.5-2.4-1.3-3.2-2.3-.8-1-1.4-2.3-1.7-3.8s-.5-3.3-.5-5.3V6.4l5.4-.9v9.3zm15.5 29.9V.9l5.4-.9v15.3c1-.4 2.1-.7 3.2-.9 1.1-.2 2.3-.3 3.4-.3 2.4 0 4.4.3 5.9 1 1.6.7 2.8 1.6 3.8 2.8s1.6 2.7 2 4.4c.4 1.7.6 3.6.6 5.6v16.8h-5.4V29.1c0-1.8-.1-3.4-.4-4.7-.3-1.3-.7-2.4-1.2-3.2-.6-.8-1.3-1.4-2.3-1.8-1-.4-2.2-.5-3.6-.5-.6 0-1.2 0-1.8.1l-1.8.3c-.6.1-1.1.2-1.5.3-.4.1-.8.2-1 .3v24.9h-5.3z" fill="#58574c"/><path fill="#D7AF00" d="M27.4 33.3c15.3 0 26.8 2.9 34.3 8.8C69.2 47.9 73 56.2 73 67c0 6.2-1.1 11.4-3.3 15.7-2.2 4.3-5.3 7.8-9.4 10.5-4.1 2.7-9.1 4.6-14.9 5.8-5.9 1.2-12.5 1.8-20 1.8H10.6v41.9H0V36.2c3.8-1 8.2-1.8 13.2-2.3 5.1-.4 9.8-.6 14.2-.6m.5 9.2c-4 0-7.3.1-10.1.4-2.8.3-5.1.5-7.1.7v47.9h13.5c5.7 0 10.9-.3 15.6-1 4.6-.7 8.6-1.9 11.9-3.8 3.3-1.8 5.8-4.4 7.6-7.6 1.8-3.2 2.7-7.4 2.7-12.4 0-4.8-1-8.8-2.9-11.9-1.9-3.1-4.5-5.6-7.7-7.4-3.2-1.8-6.8-3.1-10.9-3.8-4.2-.7-8.4-1.1-12.6-1.1m72.3 17.4c5.3 0 9.8.8 13.5 2.3 3.7 1.5 6.7 3.6 9 6.3 2.3 2.7 4 5.8 5 9.5s1.6 7.6 1.6 11.9v51c-1 .3-2.6.7-4.5 1-2 .4-4.3.8-6.9 1.2-2.6.4-5.5.8-8.7 1-3.2.3-6.4.4-9.8.4-4.3 0-8.2-.5-11.8-1.4-3.6-.9-6.7-2.4-9.4-4.5-2.7-2-4.7-4.6-6.3-7.8-1.5-3.2-2.3-7.1-2.3-11.7 0-4.4.8-8.1 2.5-11.3 1.7-3.1 4-5.7 7-7.7s6.6-3.5 10.8-4.5c4.2-.9 8.7-1.4 13.6-1.4 1.5 0 3 .1 4.6.2 1.6.2 3.2.4 4.7.6 1.5.3 2.8.5 3.9.8 1.1.3 1.9.5 2.3.7v-5c0-2.8-.2-5.6-.6-8.2-.4-2.7-1.3-5.1-2.7-7.2-1.4-2.1-3.4-3.9-5.9-5.2-2.6-1.3-5.9-2-10.1-2-5.9 0-10.5 1.5-13.4 2.3l-2.5-8.8c6.5-1.7 11.2-2.5 16.4-2.5m.9 75.4c4 0 7.4-.1 10.4-.4 3-.3 5.5-.6 7.6-1v-28.5c-1.1-.5-3-1.1-5.5-1.6-2.5-.6-5.9-.9-10.3-.9-2.5 0-5.1.2-7.8.5-2.7.4-5.2 1.1-7.5 2.3-2.3 1.2-4.2 2.8-5.6 4.9-1.5 2.1-2.2 4.9-2.2 8.3 0 3 .5 5.6 1.5 7.7 1 2.1 2.4 3.8 4.2 5 1.8 1.3 4 2.2 6.6 2.7 2.5.7 5.4 1 8.6 1m54-73.6h32.2v8.6h-32.2v43c0 4.6.4 8.3 1.2 11.2.8 2.9 1.9 5.1 3.4 6.7 1.5 1.6 3.2 2.6 5.3 3.1 2.1.5 4.4.8 6.9.8 4.3 0 7.7-.5 10.3-1.5 2.6-1 4.6-1.9 6.1-2.7l2.5 8.5c-1.5.9-4 2-7.7 3.2-3.7 1.2-7.6 1.8-11.9 1.8-5 0-9.2-.7-12.6-2-3.4-1.3-6.1-3.3-8.1-5.9-2-2.7-3.5-6-4.3-9.9-.8-4-1.3-8.7-1.3-14.1V37.9l10.2-1.9v25.7zm74.2-1.5c3.3 0 6.5.3 9.5.8s5 1 6.2 1.6l-2 8.8c-.8-.4-2.5-.9-5.1-1.3-2.6-.5-5.9-.7-10.1-.7-4.4 0-7.9.3-10.6.9-2.7.6-4.4 1.1-5.2 1.6v70.9h-10.2V65.5c2.6-1.1 6.2-2.3 10.8-3.5 4.5-1.2 10.1-1.8 16.7-1.8m88.7 42.1c0 6.4-.9 12.2-2.7 17.4-1.8 5.2-4.4 9.7-7.7 13.3-3.3 3.7-7.2 6.5-11.7 8.5-4.5 2-9.4 3.1-14.9 3.1-5.4 0-10.4-1-14.9-3.1-4.5-2-8.4-4.9-11.7-8.5-3.3-3.6-5.8-8.1-7.7-13.3-1.8-5.2-2.7-11-2.7-17.4 0-6.4.9-12.2 2.7-17.4 1.8-5.2 4.4-9.7 7.7-13.4 3.3-3.7 7.2-6.6 11.7-8.6 4.5-2 9.4-3.1 14.9-3.1 5.4 0 10.4 1 14.9 3.1 4.5 2 8.4 4.9 11.7 8.6 3.3 3.7 5.8 8.2 7.7 13.4 1.7 5.2 2.7 11 2.7 17.4m-10.8 0c0-10.1-2.3-18.2-7-24.2s-11.1-9-19.1-9c-8 0-14.4 3-19.1 9-4.7 6-7 14.1-7 24.2s2.3 18.2 7 24.1c4.7 5.9 11.1 8.9 19.1 8.9 8 0 14.4-3 19.1-8.9 4.6-6 7-14 7-24.1"/><path fill="#D8B100" d="M352 144.1c-3.4-.1-6.4-.5-9-1.3-2.6-.8-4.7-2-6.4-3.6-1.7-1.6-3-3.7-3.9-6.3-.9-2.6-1.3-5.8-1.3-9.6V23.1l10.2-1.9v101.7c0 2.5.2 4.5.7 6 .5 1.5 1.2 2.7 2.1 3.6.9.9 2.2 1.5 3.7 2 1.5.4 3.3.8 5.4 1.1l-1.5 8.5z"/></svg>
