<svg width="90" height="37" viewBox="0 0 90 37" fill="none" xmlns="http://www.w3.org/2000/svg">
<g clip-path="url(#clip0_491_374)">
<path d="M64.7019 4.1345C64.828 4.1345 64.9541 4.1345 65.1055 4.15928C65.2569 4.18407 65.4082 4.18407 65.5595 4.20886C65.7109 4.23364 65.837 4.25843 65.9632 4.28322C66.0893 4.308 66.1649 4.33279 66.2406 4.35758L66.0136 5.52254C65.9127 5.47296 65.7361 5.44818 65.4839 5.3986C65.2316 5.34903 64.9289 5.32424 64.5253 5.32424C64.2731 5.32424 64.0208 5.34903 63.7686 5.3986C63.5163 5.44818 63.365 5.49775 63.2893 5.49775V11.7439H61.9272V4.60544C62.2551 4.48151 62.6335 4.38236 63.1127 4.28322C63.5668 4.18407 64.0965 4.1345 64.7019 4.1345ZM51.5093 11.7191C51.3075 11.3721 51.0552 10.9755 50.7778 10.5294C50.5003 10.0832 50.1976 9.63708 49.8949 9.16613C49.567 8.69519 49.239 8.22425 48.9111 7.72852C48.558 7.2328 48.23 6.76185 47.8769 6.3157C47.549 5.86954 47.1958 5.44818 46.8931 5.02681C46.5652 4.63023 46.2877 4.28322 46.0102 3.96099V11.6943H44.6229V1.77979H45.7328C46.1868 2.25073 46.6661 2.82082 47.1958 3.44048C47.7255 4.08493 48.23 4.72937 48.7345 5.3986C49.239 6.06784 49.7183 6.73707 50.1724 7.38151C50.6264 8.02596 51.0048 8.59605 51.3075 9.11656V1.82936H52.6948V11.7439H51.5093V11.7191ZM60.8677 8.00117C60.8677 8.59605 60.792 9.11656 60.6155 9.61229C60.4389 10.0832 60.1866 10.5046 59.8839 10.8516C59.5812 11.1986 59.2029 11.4713 58.7488 11.6448C58.32 11.8183 57.8407 11.9174 57.311 11.9174C56.8065 11.9174 56.3272 11.8183 55.8984 11.6448C55.4696 11.4465 55.0912 11.1986 54.7633 10.8516C54.4606 10.5046 54.2083 10.108 54.0318 9.61229C53.8552 9.14135 53.7795 8.59605 53.7795 8.00117C53.7795 7.43109 53.8552 6.88579 54.0318 6.41484C54.2083 5.9439 54.4606 5.52253 54.7633 5.17553C55.066 4.82852 55.4444 4.55587 55.8984 4.38236C56.3272 4.20886 56.8065 4.10971 57.311 4.10971C57.8155 4.10971 58.2948 4.20886 58.7488 4.38236C59.1776 4.55587 59.556 4.82852 59.8839 5.17553C60.1866 5.52253 60.4389 5.91912 60.6155 6.41484C60.7668 6.91057 60.8677 7.43109 60.8677 8.00117ZM59.4551 8.00117C59.4551 7.15844 59.2533 6.4892 58.8749 6.01826C58.4966 5.54732 57.9669 5.27467 57.311 5.27467C56.6552 5.27467 56.1254 5.52254 55.7471 6.01826C55.3687 6.51399 55.1669 7.18322 55.1669 8.00117C55.1669 8.84391 55.3687 9.51314 55.7471 9.98408C56.1254 10.4798 56.6552 10.7277 57.311 10.7277C57.9669 10.7277 58.4966 10.4798 58.8749 9.98408C59.2533 9.51314 59.4551 8.84391 59.4551 8.00117ZM71.2352 4.308V5.42339H68.3595V8.84391C68.3595 9.21571 68.3847 9.51314 68.4352 9.76101C68.4856 10.0089 68.5865 10.2072 68.6874 10.3311C68.8136 10.4798 68.9397 10.579 69.1163 10.6285C69.2928 10.6781 69.4946 10.7029 69.7217 10.7029C70.1253 10.7029 70.4532 10.6533 70.7054 10.579C70.9577 10.4798 71.1342 10.4302 71.2099 10.3807L71.4622 11.4713C71.3361 11.5456 71.0838 11.62 70.7559 11.7191C70.428 11.8183 70.0244 11.8678 69.5955 11.8678C69.091 11.8678 68.6622 11.7935 68.3343 11.6696C68.0064 11.5456 67.7289 11.3473 67.5271 11.0995C67.3253 10.8516 67.1739 10.5294 67.0983 10.1576C67.0226 9.78579 66.9721 9.33964 66.9721 8.84391V2.22595L68.3343 2.00287V4.308H71.2352ZM72.2694 0.862695L73.6315 0.639618V4.43193C73.8838 4.33279 74.1612 4.25843 74.4387 4.20886C74.7162 4.15928 75.0189 4.1345 75.2964 4.1345C75.9018 4.1345 76.4063 4.20886 76.7846 4.38236C77.1882 4.55587 77.4909 4.77894 77.7432 5.07638C77.9954 5.37382 78.1468 5.74561 78.2477 6.16698C78.3486 6.58835 78.399 7.05929 78.399 7.55502V11.7191H77.0369V7.85246C77.0369 7.4063 77.0117 7.00972 76.936 6.6875C76.8603 6.36527 76.7594 6.09262 76.6333 5.89433C76.4819 5.69604 76.3054 5.54732 76.0531 5.44818C75.8009 5.34903 75.4982 5.32424 75.145 5.32424C74.9937 5.32424 74.8423 5.32424 74.691 5.34903L74.2369 5.42339C74.0856 5.44818 73.9594 5.47296 73.8585 5.49775C73.7576 5.52254 73.6567 5.54732 73.6063 5.57211V11.7439H72.2694V0.862695Z" fill="#1C1E26"/>
<path d="M6.91163 8.89348C10.771 8.89348 13.6719 9.61229 15.5638 11.0747C17.4556 12.5123 18.4142 14.5696 18.4142 17.2465C18.4142 18.7833 18.1367 20.0721 17.5818 21.138C17.0268 22.2038 16.2448 23.0713 15.2106 23.7405C14.1764 24.4098 12.9152 24.8807 11.4521 25.1781C9.96384 25.4756 8.299 25.6243 6.40713 25.6243H2.67384V36.0098H0V9.61229C0.958547 9.36443 2.06844 9.16613 3.32969 9.0422C4.61616 8.94306 5.80173 8.89348 6.91163 8.89348ZM7.03775 11.1738C6.02875 11.1738 5.19633 11.1986 4.49003 11.273C3.78374 11.3473 3.20356 11.3969 2.69907 11.4465V23.3192H6.10443C7.54225 23.3192 8.85394 23.2448 10.0395 23.0713C11.1999 22.8978 12.2089 22.6004 13.0413 22.1294C13.8737 21.6833 14.5043 21.0388 14.9584 20.2456C15.4124 19.4525 15.6394 18.4115 15.6394 17.1721C15.6394 15.9824 15.3872 14.9909 14.9079 14.2226C14.4286 13.4542 13.7728 12.8345 12.9656 12.3884C12.1584 11.9422 11.2503 11.62 10.2161 11.4465C9.15664 11.273 8.0972 11.1738 7.03775 11.1738ZM25.2754 15.4867C26.6123 15.4867 27.7474 15.685 28.6807 16.0567C29.614 16.4285 30.3708 16.9491 30.951 17.6183C31.5311 18.2875 31.96 19.0559 32.2122 19.973C32.4645 20.8901 32.6158 21.8568 32.6158 22.9226V35.5636C32.3636 35.638 31.96 35.7371 31.4807 35.8115C30.9762 35.9106 30.396 36.0098 29.7402 36.1089C29.0843 36.2081 28.3528 36.3072 27.5456 36.3568C26.7384 36.4312 25.9312 36.4559 25.0736 36.4559C23.9889 36.4559 23.0051 36.332 22.097 36.1089C21.1889 35.8859 20.407 35.5141 19.7259 34.9935C19.0448 34.4978 18.5403 33.8534 18.1367 33.0602C17.7583 32.267 17.5565 31.3004 17.5565 30.1602C17.5565 29.0696 17.7583 28.1525 18.1872 27.3593C18.616 26.591 19.1962 25.9465 19.9529 25.4508C20.7097 24.9551 21.6178 24.5833 22.6772 24.3354C23.7366 24.1123 24.8718 23.9884 26.1078 23.9884C26.4862 23.9884 26.8645 24.0132 27.2681 24.038C27.6717 24.0875 28.0753 24.1371 28.4537 24.1867C28.8321 24.261 29.16 24.3106 29.4375 24.385C29.7149 24.4593 29.9167 24.5089 30.0176 24.5585V23.3192C30.0176 22.6251 29.9672 21.9311 29.8663 21.2867C29.7654 20.6174 29.5384 20.0226 29.1852 19.5021C28.8321 18.9815 28.3276 18.5354 27.697 18.2132C27.0411 17.8909 26.2087 17.7174 25.1492 17.7174C23.661 17.7174 22.5006 18.0892 21.7691 18.2875L21.1385 16.1063C22.7781 15.685 23.9637 15.4867 25.2754 15.4867ZM25.5024 34.1756C26.5114 34.1756 27.369 34.1508 28.1258 34.0765C28.8825 34.0021 29.5131 33.9277 30.0429 33.8286V26.7645C29.7654 26.6405 29.2861 26.4918 28.6555 26.3679C28.0249 26.2192 27.1672 26.1448 26.0573 26.1448C25.4267 26.1448 24.7709 26.1944 24.0898 26.2687C23.4087 26.3679 22.7781 26.5414 22.1979 26.8388C21.6177 27.1363 21.1385 27.5328 20.7853 28.0534C20.407 28.5739 20.2304 29.2679 20.2304 30.1106C20.2304 30.8542 20.3565 31.4987 20.6088 32.0192C20.861 32.5397 21.2142 32.9611 21.6682 33.2585C22.1222 33.5807 22.6772 33.8038 23.333 33.9277C23.9637 34.1012 24.6952 34.1756 25.5024 34.1756ZM39.1238 15.9328H47.2463V18.0644H39.1238V28.7226C39.1238 29.8628 39.2247 30.7799 39.4265 31.4987C39.6283 32.2175 39.9058 32.7628 40.2842 33.1594C40.6626 33.5559 41.0914 33.8038 41.6211 33.9277C42.1508 34.0517 42.731 34.126 43.3616 34.126C44.4463 34.126 45.3039 34.0021 45.9598 33.7542C46.6156 33.5064 47.1201 33.2833 47.4985 33.085L48.1291 35.1918C47.7508 35.4149 47.1201 35.6876 46.1868 35.985C45.2535 36.2824 44.2697 36.4312 43.185 36.4312C41.9238 36.4312 40.8644 36.2577 40.0067 35.9354C39.1491 35.6132 38.468 35.1175 37.9635 34.473C37.459 33.8038 37.0806 32.9859 36.8788 32.0192C36.677 31.0277 36.5509 29.8628 36.5509 28.5243V10.0337L39.1238 9.56272V15.9328ZM57.8407 15.561C58.6731 15.561 59.4803 15.6354 60.2371 15.7593C60.9938 15.8832 61.4983 16.0072 61.801 16.1559L61.2965 18.3371C61.0947 18.238 60.6659 18.114 60.0101 18.0149C59.3542 17.8909 58.5218 17.8414 57.4623 17.8414C56.3525 17.8414 55.4696 17.9157 54.7885 18.0644C54.1074 18.2132 53.6786 18.3371 53.4768 18.461V36.0346H50.9039V16.8747C51.5597 16.6021 52.4678 16.3046 53.6282 16.0072C54.7633 15.7097 56.1759 15.561 57.8407 15.561ZM80.2152 25.9961C80.2152 27.5824 79.9882 29.02 79.5341 30.3089C79.0801 31.5978 78.4243 32.7132 77.5918 33.6055C76.7594 34.5226 75.7756 35.2166 74.6405 35.7124C73.5054 36.2081 72.2694 36.4807 70.882 36.4807C69.5199 36.4807 68.2586 36.2329 67.1235 35.7124C65.9884 35.2166 65.0046 34.4978 64.1722 33.6055C63.3398 32.7132 62.7091 31.5978 62.2299 30.3089C61.7758 29.02 61.5488 27.5824 61.5488 25.9961C61.5488 24.4098 61.7758 22.9722 62.2299 21.6833C62.6839 20.3944 63.3398 19.279 64.1722 18.3619C65.0046 17.4448 65.9884 16.726 67.1235 16.2303C68.2586 15.7345 69.4946 15.4619 70.882 15.4619C72.2441 15.4619 73.5054 15.7097 74.6405 16.2303C75.7756 16.726 76.7594 17.4448 77.5918 18.3619C78.4243 19.279 79.0549 20.3944 79.5341 21.6833C79.963 22.9722 80.2152 24.4098 80.2152 25.9961ZM77.4909 25.9961C77.4909 23.4927 76.9108 21.485 75.7252 19.9978C74.5396 18.5106 72.9252 17.767 70.9072 17.767C68.8892 17.767 67.2748 18.5106 66.0893 19.9978C64.9037 21.485 64.3235 23.4927 64.3235 25.9961C64.3235 28.4995 64.9037 30.5072 66.0893 31.9696C67.2748 33.432 68.8892 34.1756 70.9072 34.1756C72.9252 34.1756 74.5396 33.432 75.7252 31.9696C76.8855 30.4824 77.4909 28.4995 77.4909 25.9961Z" fill="#1C1E26"/>
<path d="M88.7917 36.3568C87.934 36.332 87.1773 36.2329 86.5214 36.0346C85.8656 35.8363 85.3359 35.5388 84.9071 35.1423C84.4782 34.7457 84.1503 34.2252 83.9233 33.5807C83.6963 32.9363 83.5954 32.1431 83.5954 31.2012V6.36527L86.1683 5.89433V31.1021C86.1683 31.7217 86.2188 32.2175 86.3449 32.5893C86.471 32.9611 86.6476 33.2585 86.8746 33.4816C87.1016 33.7047 87.4295 33.8534 87.8079 33.9773C88.1863 34.0764 88.6403 34.1756 89.1701 34.25L88.7917 36.3568Z" fill="#1C1E26"/>
</g>
<defs>
<clipPath id="clip0_491_374">
<rect width="89.1701" height="35.8411" fill="white" transform="translate(0 0.639618)"/>
</clipPath>
</defs>
</svg>
