<svg xmlns="http://www.w3.org/2000/svg" viewBox="0 0 823 386" width="300" height="140"><path d="M205.79.91c2.25.06 4.49.12 6.73.27 1.53 2.23 3.32 4.24 5 6.35 1.31 1.77 1.52 4.75 3.38 5.97 2.01-.54 3.98-1.22 6-1.72.19 3.61-.03 6.38-1.44 9.72-.9 4.29-.48 9.09.09 13.41 2.28.06 5.75.91 7.59-.71 2.04-2.13 3.52-4.88 5.05-7.38 2.01-3.35 3.17-6.96 4.8-10.44 1.87.91 1.84 1.69 2.03 3.6-.04 6.26-2.65 10.95-4.4 16.72-1.76 5.13-6.21 10.86-5.58 16.38 1.02 4.16 6.72 5.75 9.7 2.7 5.41-4.36 8.64-10.08 12.35-15.8 1.09.25 2.18.51 3.26.77.42 4.52-1.45 8.25-3.53 12.09-2.11 3.36-5.48 5.92-8.05 8.99-2.35 2.46-3.64 5.54-6.25 7.77-3.83 3.92-8.09 7.92-7.53 13.91 2.63.65 4.9 1.21 7.52.15 5.43-1.54 8.07-5.39 12.72-8.39 2.83-1.85 4.59-4.48 6.34-7.3 1.09.1 2.17.2 3.26.31.39 1.41.75 2.83 1.11 4.24-1.06 1.74-2 3.6-3.27 5.2-1.46 1.29-3.09 2.19-4.2 3.86-2 1.63-4.14 3.02-6.36 4.33-2.98 4.88-7.79 4.71-11.97 8.24-3.07 2.51-6.46 4.25-10 5.98-4.28 1.82-6.22 6.7-7.13 10.94 1.09 2.66 4.27 5.09 6.88 6.13 4.29.55 9.5.39 13.26-2.01 3.05-1.62 5.15-5.21 7.12-7.95 2.04-3.01 4.14-5.86 6.47-8.65.47-.32.94-.64 1.42-.95 1.77-3.13 4.46-4.03 7.76-4.83.18 1.1.35 2.2.51 3.3-1.83 2.37-3.2 4.83-5.36 6.93-2.01 2.03-4.33 4.16-5.4 6.87-.88 2.9 1.26 6.15 4.29 6.34 3.53.83 6.84-2.77 10.23-3.73 1.96 1.34.68 4.49-.98 5.57-4.42 3.29-10.95 4.03-16.09 5.95-3.54 1.06-6.4 2.6-10.11 2.67-7.39.95-15.28-1.46-23.06.08-5.66 1.99-10.99 5.78-15.66 9.48-2.16 1.63-3.13 4.15-5.26 5.83-1.94 1.53-3.01 3.57-4.12 5.71 3.59.27 7.36-.18 7.71 4.49-8.82 5.56-17.72 4.79-27.58 6.09-7.66 1.18-15.32 2.51-23.02 3.55-2.93.28-6.03-.11-8.9.5-1.64.26-2.67 2.23-3.62 3.43-5.17-.43-9.99.64-14.98 1.73-5.34 3.21-12-1.07-17.76 2.13-1.69.8-1.8 2.28-2.44 3.87 1.59.1 3.18.16 4.78.18 3.98 1.19 7.33 3.61 11.29 4.83-1.97 2.2-4.97 4.03-7.73 5.02-3.07.52-5.89.28-8.57 2.18.89 4.79 5.81 8.67 8.23 12.82 1.87 3.42 4.41 6.3 6.59 9.51.99 1.77 3.25 2.35 4.97 3.3.93 4.11-3.12 4.81-3.37 8.69-1.09 10.07.05 20.36-.7 30.46-2.1-1.56-3.25-3.69-4.51-5.91-.02-4.59-3.42-7.17-4.4-11.53-.89-3.86-3.62-6.59-4.73-10.36-1.9-5.47-5.34-9.83-8.28-14.7-1.49-5.21-4.34-9.64-6.54-14.56-3.5-5.56-5.37-10.89-9.58-15.33-2.63-2.18-6.28-3.41-9.67-3.53-8.64-.42-17.45.23-26.09-.45-10.34-.64-20.66-.24-31.01-.38-2.58-.06-5.12.14-7.67.49-2.83 4.49-1.4 8.76-1.24 13.71.44 3.13.07 6.02 3.35 7.66 3.31 1.49 6.11 3.63 9.18 5.51 5.69 2.68 11.11 5.85 16.79 8.53 6.1 2.81 9.31 8.38 14.5 13.27 1.81 5.07 3.62 10 6.41 14.66 4.07 6.55 8.14 12.99 13.25 18.8 2.97 4.57 6.71 8.2 8.74 13.2 1.59 3.68 4.37 6.97 6.9 10.08 2.94 3.17 5.14 6.85 7.87 10.2 2.96 4.02 6.52 7.43 10.16 10.81 4.12 4.03 9.48 5.99 13.33 10.39 1.26 9.55.38 19.27 1.38 28.87-1.12-3.28-2.81-5.8-3.01-9.26-1.84-3.89-2.98-7.58-3.9-11.76-1.29-4.23-5.27-5.14-8.11-7.93-2.91-3.55-7.35-5.25-10.83-8.28-6.66-5.1-13.45-10.21-20.75-14.36-3.78-3.05-8.16-4.61-11.5-8.29-2.96-2.55-3.27-6.32-5.9-9.06-3.59-3.34-3.9-7.46-6.19-11.81-1.4-2.76-1.09-5.67-1.9-8.79-1.31-5.01-1.19-10.19-2.24-15.27-1.77-6.55-5.48-11.91-10.17-16.71-2.81-4.56-7.24-5.71-11.46-8.51-3.38-2.23-6.25-5.14-9.5-7.49-2.77-1.83-5.88-3.43-7.73-6.34-2.14-3.52-1.85-6.98-2.91-11.01-1.07-7.02-1.31-13.83.38-20.78 1.29-.54 2.35-1.21 3.75-1.31 14.35-1.52 28.61.32 42.97-1.57 8.6-1.36 16.84-.17 25.2-2.38.24-1.62.4-3.26.54-4.89-2.49-1.39-4.7-3.16-6.83-5.05a275.88 275.88 0 0 0-16.87-12.8c-5.65-4.54-12.8-6.6-17.76-11.57-2.25-2.1-4.72-3.97-7.22-5.78-3.19-2.38-6.78-3.52-9.46-6.61-3.27-2.66-4.88-6.71-6.35-10.6-.44-6.84-.26-13.87-.09-20.72 1.7-10.52-.19-20.3 2.45-30.53.56-1.82.73-3.54.72-5.44.54-.79 1.08-1.59 1.63-2.37l2.01 1.29c-1.57 4.54-.93 8.93.67 13.34 1.16 2.82-.16 6.75 2.56 8.42 1.41.93 3.83.8 4.2-1.29.89-4.16 2.78-11.29 7.61-12.4-2.73 5.12-1.93 10.42-3.35 15.83-1.46 4.89-1.63 10.02-2.44 15.06.1 6.89-.87 13.07 1.69 19.18 2.83 4.39 6.24 8.04 11.84 8.26.57-3.22-1.32-5.38-1.78-8.45-.61-3.6-.73-7.36-.48-11.01.39-2.21 1.52-4.31 2.25-6.43.4.15.81.31 1.22.46-.67 5.07-.03 9.94.58 14.98.48 3.85 2.59 6.63 4.82 9.64 1.5 1.92 2.76 4.3 5.12 5.27 2.24.31 4.5.33 6.73.76 3.14-.83 4.37-3.01 5.84-5.65 2.64-5.24 5.32-10.5 8.37-15.51.35-3.77.94-7.38 2.16-10.98.5-1.82 1.31-2.74 2.79-3.9.59 2.17.94 4.21.62 6.46-.76 6.31-.85 12.63-1.04 18.96-4.13 9.24-8.09 20.59-5.67 30.75 3.35 5.9 8.33 11.32 14.13 14.88 3.39 2.21 6.49 4.34 10.68 4.59 5.41 1.2 10.56.36 15.97-.21 11-.23 22.05.23 33.04-.27 9.39-1.05 18.91-2.22 27.54-6.04 4.74-2.26 9.01-5.74 12.65-9.5 3.34-3.46 6.96-6.4 9.48-10.57 2.51-4.08 6.6-6.79 9.06-10.84 3.16-6.67 6.78-12.96 9.11-20.02 2.7-5.77 5.01-11.29 4.99-17.8.04-14-.05-28.01.03-42.01.31-6.12-1.77-11.92-2.08-18.06-1.49-6.79-5.99-13.48-10.04-19.03z" fill="#131113"/><path d="M162.77 176.86c-.12 2.4.06 4.51.64 6.85-2.51 3.64-.98 9.19-.58 13.3-1.46-.08-2.93-.14-4.4-.2-.88 1.51-1.8 2.77-3.06 3.99.78 1.13 1.57 2.25 2.36 3.37 1.03 0 2.07 0 3.1.01.96 1.13 1.93 2.13 3.12 3.02-1.81 1.9-3.63 3.79-5.5 5.62-.45 2.11-.74 4.32-1.48 6.35-1.35 2.14-3.56 3.81-5.35 5.59 2.32 6.38 1.87 12.44 2.76 19.2 2.63 1.03 5.16 2.19 7.63 3.55-.62 1.2-1.39 2.29-2.19 3.37 1.62 2.6 2.91 5.64 1.75 8.69-.9 1.15-2.12 2.08-3.2 3.04 1.35 1.95 2.87 4.05 3.46 6.4-.22 2.69-1.08 5.24-.99 7.99.04 7.26 0 14.52.05 21.78-1.05.74-2.1 1.47-3.14 2.21.92 1.91 1.94 3.71 3.08 5.49-.08 6.84.61 13.72.3 20.55-.82 3.92-1.25 7.84-1.86 11.79-1.05 3.28-2.04 6.47-2.36 9.93 1.06.13 2.11.26 3.16.4 1.76 6.29.22 13.44.78 19.93.04.77.34 1.42.9 1.95 6.62 3.37 14.03 2.45 20.74 4.38 3.37.89 6.8.21 10.14.78 1.42 1.34 2.59 3.05 3.75 4.62 2.64-1.03 5.19-2.27 7.82-3.32 2.88-1.48 6.53-.26 9.59.19 3.8.92 7.41-.11 11.22.38 4.05.66 7.94-.32 12-.07 4.37.27 8.66.21 13-.39 7.06-.92 14.16-1.47 21.2-2.48 3.08.79 5.78.98 8.97.81-.04-1.21-.08-2.42-.13-3.63 1.13-.36 2.25-.73 3.36-1.1-.07-1.43-.16-2.85-.25-4.27 3.88.35 2.97-.45 4.37 2.38-.05-.9-.04-1.8-.13-2.69 1.64-.41 3.3-.71 4.97-.98 2.37-2.9 6.14-3.3 8.89-5.89l-.24 2.78c-1.28.9-2.54 1.83-3.81 2.75-.32 2.01.84 3.75-2.06 3.71-.31 1.05-.76 2.02-1.35 2.9-2.86 3.8-5.72 7.55-9.25 10.78-2.06.36-3.41.32-4.74 2.2-2.42-1.56-4.76-3.2-7.07-4.92-3.98 1.18-7.88 2.57-11.82 3.87-1.95.55-3.64 1.33-5.71.92-9.14-1.32-17.62.63-27.22.67-2.69-.06-5.34-.66-8.02-.76-1.97.08-3.99.51-5.96.37-2.85-.86-5.31-3.35-7.73-5.04-3.96 1.51-8.02 3.29-12.19 4.1-4.07.11-8-1.02-12.09-.94-3.49.14-6.71-.98-10.16-1.2-.28.73-.55 1.46-.83 2.19-1.9-.88-3.9-2.05-5.95-2.45-1.59.07-3.1 1.16-4.6 1.7-3.65 1.62-7.77.4-11.59.63-2.45.52-4.36 1.75-6.89 1.36-3.85-.61-7.78-1.31-11.57-2.23 2.46-2.17 5.33-3.78 7.84-5.86.74-1.68 1-3.34 2.22-4.79 3.85-4.54 7.63-9.1 11.86-13.31-3.09-.7-6.19-1.38-9.28-2.08 3.32-1.84 6.66-3.57 9.74-5.8-3.47-2.84-6.86-5.76-10.04-8.91-.09-5.82 3.16-10.39 2.39-16.24 1.01-.7 2.02-1.39 3.03-2.08 1.11.14 2.21.28 3.32.41-.31-2.33-1.37-3.23-2.99-4.73l.03-2.76c-1.48.07-2.96.15-4.45.23 1.31-3.78.45-7.34.73-11.22.21-3.38.52-6.65-.23-10.01-.44-2.32-.29-5.31 2.05-6.58.41-1.78.81-3.56 1.21-5.34-1.22-.48-2.45-.96-3.67-1.45 1.18-5.38.81-11.22.47-16.68.44-1.4 2.77-1.29 3.37-3.2l-2.49-.83c1.07-3.14 1.78-4.08 4.69-5.73-.62-1.4-1.59-1.68-2.89-2.37.28-.92.56-1.84.83-2.75-1.3.38-2.61.77-3.91 1.16-.8-3.1-.16-5.94-.31-9.22-.35-6.83-1.3-14.3.38-21-2.55-3.24-1.21-9.21-.41-12.97-.72-3.12-2.5-6.01-3.13-9.18-.25-1.93-.25-3.9-.34-5.84-2 .77-4.21 2.21-6.39 2.16-5.08.07-10.17-.06-15.25.01-1.41-.85-2.85-1.63-4.31-2.39 1.92-.14 3.24.51 4.37-1.53 3.37.54 4.19-1.17 6.33-3.21.59.22 1.19.44 1.78.66 1.36-1.42 2.74-2.83 4.17-4.2 2.41.22 4.16-.08 6.4-.98 3.43-1.43 7.4-1.76 10.45-3.75 4.09-2.83 9.83-4.9 14.79-3.92z" fill="#131113"/><path d="M250.91 193.62c1.14-.16 2.27-.31 3.41-.46 2 2.28 4.54 2 7.17 3.12 4.34 1.94 8.54 3.7 11.78 7.32l-.33 3.02c2.22-.12 3.34 1.48 5.02 2.65.17 1.54.32 3.09.45 4.64 3.98 3.62 2.58 10.03 1.96 14.77.46.67.94 1.32 1.45 1.95.68 7.12-1.54 13.93-5.35 19.87-1.88 2.42-4.15 4.5-5.88 7.06-4.94 4.2-9.63 8.24-15.79 10.61.18-.78.35-1.57.53-2.35 2.09-1.63 4.07-2.27 6.62-2.83.95-3.25 3.74-3.79 5.88-6.15 2.06-2.32 3.69-5.06 5.36-7.68.86-1.21.86-2.52 1-3.96 1.86.35 2.31-.13 3.65-1.14-2.53-1.09-1.7-2.46-1.96-4.72 1.2-.35 2.39-.72 3.58-1.09-.99-.57-1.99-1.14-3-1.7 2-1.13 2.53-2.67 3.36-4.69l-2.88-.36c-.07-1.62-.85-2.34-1.6-3.64-.51-3.13-.89-6.25-1.66-9.33-1.19-2.31-2.06-4.75-3.38-6.96-.87-1.66-2.13-2.76-1.8-4.79-3.02-.69-4.39-2.91-6.85-4.57-2.59-2.06-5.05-2.88-8.3-3.3-.31-1.26-.63-2.52-.95-3.78-1.13.6-2.24 1.32-3.45 1.72-3.07-.5-6.01-1.13-9.15-.82-5.24.08-10.58.56-14.96 3.74-5.58 4.41-11.28 7.81-14.86 14.24-2.61 4.84-5.4 10.4-5.93 15.92.04 3.81-.35 7.89.24 11.63 1.35 2.56 1.15 5.9 2.98 8.07.21 1.61 1.26 2.61 2.04 3.95.9 1.34.52 3.32 1.39 4.64 2.85 1.06 6.17 2.23 6.64 5.7 1.25.72 2.51 1.43 3.77 2.14-.71.67-1.42 1.35-2.12 2.03-.36 1.04-.73 2.07-1.11 3.1-2.69-1.87-6.03-3.04-7.16-6.34-1.08-1.47-3.85-1.89-4.69-3.81-1.4-2.62-2.89-5.08-4.55-7.55-1.08-1.6-.27-2.65.21-4.27-.68-.73-1.35-1.47-2.03-2.2-.74-5.05-.86-9.86-.52-14.96l2.43.25c-.5-1.08-1.01-2.16-1.53-3.24 2.12-5.46 4.18-10.65 7.49-15.54 2.33-2.73 4.25-5.76 6.83-8.26 2.97-.58 3.88-3.05 6.14-4.74 2.5-1.15 4.87-2.34 6.95-4.17 3-1.11 5.37-2.57 8.43-2.87 4.93-.47 10.27-1.27 15.03.13zm49.59 14.42c.31.89.62 1.78.93 2.66l-2.81 2.09a31.966 31.966 0 0 1-5.12 3.58c1.13-3.4 4.89-5.43 7-8.33zm181.92.36c.75.53 1.45 1.11 2.16 1.68-2.78 2.34-5.42 5.11-8.91 6.29 1.22-2.16 2.35-3.56 4.58-4.75.71-1.08 1.4-2.18 2.17-3.22zm-13.62 18.06c-.3.69-.61 1.38-.93 2.07-1.65.5-2.28 1.7-3.23 3-1.05.29-2.1.57-3.15.85-1.19-1.36-1.41-1.71-3.41-1.52-1.56 2.71 1.39 3.74 2.83 5.64-.58 1.84-.97 3.83-1.85 5.55-3.55 4.63-8.44 7.98-14.42 8.33l.23 1.7c-3.7.61-7.22 1.67-10.7 3.04-.33.92-.65 1.83-.98 2.75 1.95.31 3.32-.06 4.6 1.68 3.71-.12 5.82-.31 8.58 2.54.9-.95 1.72-2.13 2.83-2.86 2.12-.68 4.17-.36 6.15.56.54-.32 1.09-.63 1.64-.95 3.41.44 7.15.85 8.95 4.23.89.05 1.77.09 2.66.13 1.27 4.22 1.6 7.01.13 11.27-1.48 1.63-2.8 3.33-4.05 5.14-3.9 2.61-8.16 5.07-12.81 6.01-4.12.92-7.94 2.02-12.2 1.22.75-.63 1.5-1.27 2.25-1.9 5.99.55 11.17-1.47 16.89-2.76 2.14-1.76 4.35-3.14 5.99-5.43-.05-2.4 1.64-5.53.13-7.56-.83-1.59-1.56-3.24-2.26-4.89-4.01-1.94-9.02-1.74-13.4-1.94-3.01.42-4.07.93-6.5-1.35l-.96 1.67c-2.58.24-5.13.42-7.72.29-1.66-1.81-2.45-3.19-3.1-5.56 1.01-1.07 1.97-2.26 3.12-3.18 2.14-1.15 4.4-1.56 6.15-3.42-1.69-.08-3.37-.21-5.04-.4-1.73-1.29-3.45-3.06-4.78-4.77-.61-2.38.8-5.27 1.52-7.54.74-2.43 3.57-4.03 5.34-5.76 5.76-2.41 9.62-3.05 15.8-2.1l1.82-1.37c3.05-.02 6.05-.1 9.03.68.42-.72.85-1.44 1.28-2.15 1.18-.34 2.38-.64 3.57-.94zm-169.61 2.45c-.53 2.62-1.39 5.42-1.31 8.08.46 6.91-.24 13.71 1.2 20.56-1.9 1.27-3.8 2.53-5.76 3.7 1.03-4.48.18-8.89 1.98-13.16-.74-2.04-1.33-3.35-.82-5.6-.19-.69-.37-1.38-.56-2.07 1.02-.43 2.03-.87 3.03-1.32-1-.54-2-1.08-3.01-1.61-.04-1.95-.07-3.76-.88-5.57 1.95-1.47 3.63-2.7 6.13-3.01zm70.58 1.94c.13.86.25 1.72.37 2.59.7-.28 1.41-.56 2.11-.83.54.62 1.09 1.25 1.63 1.88.02.88.05 1.76.08 2.65 1.16 1.93 1.48 4.02 1.85 6.21-.54.7-1.07 1.4-1.6 2.1.43.39.86.79 1.28 1.18.06 2.18.15 4.35.34 6.51-.25.47-.49.93-.74 1.4.51 1.25 1.01 2.51 1.51 3.76-2.1 1.53-3.9 1.93-6.48 2.15l1.42-2.82c-8.14 1.12-14.23 4.41-22.58 2.49-3.48-.5-4.42-3.18-5.95-5.86 1.64-2.38 3.01-5.16 5.75-6.43 4.05-1.82 7.92-3.73 12.33-4.51 2.87-.72 6.09-.29 8.83-1.33 1.63-.32.97-2.46.87-3.6.71-.82 1.41-1.64 2.13-2.44-2.69-.88-4.69-1.58-6.38-3.96-2.82-.41-5.71-1.04-8.55-1-2.71 1.16-4.79 2.79-6.61 5.1-1.63-.43-3.24-.91-4.84-1.46 2.53-2.2 5.79-2.92 9.01-4.03 4.81-1.52 9.42-.81 14.22.25z" fill="#131113"/><path d="M413.49 230.16c2.55 1.09 3.86 1.91 5.44 4.23-.03.71-.05 1.42-.08 2.13l2.03.89c-1.28 4.17-.47 8.23-.97 12.46-.37 2.97-.22 5.94-.46 8.93l.67.56c-2.32 1.21-1.27 3.47-1.46 5.65-.19 3.38 2.38 5.62 2.2 8.96-.15 7.09.53 14.13-.71 21.03.02 1.31.79 2.57 1.27 3.78-.21 2.65.1 5.32-.06 7.95-1.04 1.54-2.31 2.95-3.5 4.39 1.2.79 2.4 1.58 3.59 2.39-.34 2.37-.35 4.35.27 6.68 3.16-2.21 6.74-4.29 9.39-7.11 4.48-4.84 9.28-9.36 13.65-14.32 2.36-2.41 4.3-5.37 7.86-5.88.67.65 1.33 1.3 2 1.94-.27.94-.57 1.87-.89 2.79-2.23 1.79-5.08 3.83-7.88 4.54.02.88.05 1.75.08 2.63-2.3 1.99-4.7 3.76-7.43 5.12-.23.54-.46 1.09-.69 1.63-3.08 1.88-5.63 4.27-8.38 6.57 1.85 3.16 4.74 4.77 7.66 6.78 2.7 1.61 2.84 5.46 5.92 6.63 3.61-.59 6.04 1.39 9.3 2.58l.3 1.99c.72.24 1.43.48 2.15.72.58-.22 1.15-.44 1.73-.66 3.4 1.84 5.04 2.11 8.85 1.15-1.14 2.27-1.43 5.06-4.1 5.97-5.01 2.09-9.28.36-13.97-1.58-1.06-.44-1.1-2.33-1.67-3.27-2.31-.54-4.32-.04-6.16-1.8-4.38-3.72-9.37-6.43-13.57-10.39-.95-.53-3.55-2.94-4.46-1.81-.22 4.79.74 9.73.96 14.53.13 1.18-.06 2.12-.59 2.8-2.4.96-4.93 1.5-7.28 2.57-.26-.41-.52-.82-.79-1.23 1.3-5.9 1.13-11.75 1.5-17.72l2.03-.98c-.56-1.14-1.14-2.27-1.72-3.41.51-1.28 1.01-2.55 1.51-3.84l-1.82-.57c1.36-.8 2.7-1.62 4.04-2.45a40.075 40.075 0 0 0-4.08-3.39c-.09-2.65-.21-5.3-.35-7.95.67-.74 1.28-1.54 1.96-2.28-.99-1.11-1.84-1.85-1.82-3.46-.23-4.22-.5-8.42-.9-12.64.68-.98 1.35-1.97 2.02-2.97-.61-.61-1.22-1.23-1.82-1.84-.26-2.56-.69-5.09-1.03-7.64-.43-2.73.78-5.28.1-8.03-.96-5.13-.54-10.3-.8-15.33.32-1.81.31-3.37-.02-5.18 1.35-4.1-1.07-5.93-2.89-9.15-3.38-1.11-6.73-1-10.25-1.29-3.79 1.69-6.66 3.61-6.26 8.25-.68.81-1.37 1.62-2.06 2.43 1.08.78 2.14 1.57 3.2 2.36l-.03 3.33c-.34.73-.68 1.46-1.01 2.19.95 2.25 1.26 4.6 1.6 6.99-2.01.55-4.1 2.01-6.17 1.64.56-.66 1.13-1.31 1.71-1.96.15-3.92-.21-7.84-.02-11.74l1.35-1.75c-2.3-1.27-.87-3.82-2.24-6.07.96-2.27-.51-3.81-.86-6.13 1.39-1.28 3.1-2.07 4.81-2.83 1.04 1.53.98 3.78 1.42 5.54 1.73-1.56 3.49-3.08 5.29-4.55.62.12 1.24.23 1.86.33 3.93-1.11 7.48-1.35 11.53-.83zm68.45-1.47c-1.06 3.05-1.61 6.09-1.48 9.33.48 6.58-.28 13.04.9 19.58a75.846 75.846 0 0 1-5.22 3.63c.04-4.82.71-9.21 1.91-13.86-1.88-2.31-.33-4.23-1.29-6.7.82-.6 1.64-1.21 2.47-1.82-1-.37-2-.74-3.01-1.1.02-1.98.25-3.82-.71-5.64 2.08-1.91 3.65-2.79 6.43-3.42zm38.5 2.26c3.4.88 3.76 4.6 3.8 7.54-1.14.43-2.26.89-3.37 1.37.68.81 1.56 1.46 2.66 1.96.62 4.77 1.28 9.76.95 14.59.61.42 1.22.85 1.82 1.27-2.44.5-4.53 1.07-6.57 2.56.13-1.98.26-3.96.38-5.93.96-.32 1.93-.63 2.9-.95-1.09-.8-2.18-1.6-3.27-2.39 1.31-1.51 2.33-2.7 2.66-4.77l-2.61-.51c.08-2.78.09-5.54.03-8.32-1.57-1.94-3.05-4.02-4.8-5.82-1.36-.12-2.44 1.41-3.47 2.16-1.9-.05-3.72-.34-5.59-.66-2.24-.38-4.42 1.4-5.98 2.81-1.36 1.27-.83 3.64-.99 5.35-.8.71-1.6 1.41-2.4 2.12.96.94 1.93 1.87 2.9 2.8-.45 4.37-.31 8.07.52 12.39-1.87.67-3.5 1.47-5.11 2.63.77-4.92.35-9.76.44-14.69l1.86-1.57-1.86-1.23c-.15-3.88.1-7.55-1.08-11.32 1.31-1.37 3.19-2.14 4.85-3.04.28 1.93.51 3.87.78 5.8 1.76-1.42 3.54-2.77 5.52-3.88 5.16-.92 9.9-2.44 15.03-.27zm-209.22-1.23c2.28 2.3 1.52 5.28 3.26 7.86 1.93 2.67 2.68 5.78 4.29 8.61.85 1.43 1.03 2.32.86 3.99.67.31 1.33.61 1.99.92.67 1.46.61 4.28 2.87 3.88 2.3-3.44 3.45-7.82 6.26-10.84-1.21-2.5 1.28-3.75 1.58-6.17.41-2.65 1.02-4.81 2.4-7.13l3.03-.48c-1.57 3.34-3.02 6.73-4.49 10.12-2.27 6.31-5.86 12.02-8.56 18.16-1.2.75-2.39 1.52-3.58 2.31-1.4-3.26-3.18-6.38-4.77-9.55-.27-.97-.5-1.94-.71-2.91-.59-3.31-4.36-4.36-3.78-8.41-2.19-2.02-3.61-4.47-4.96-7.1 1.44-1.07 2.86-2.19 4.31-3.26z" fill="#131113"/><path d="M441.9 232.03c3.76-.6 6.27-.77 9.73 1.03 1.8 2.23 4.86 3.74 4.37 7 .09 1.49-.93 3.01-1.77 4.18-2.31 2.86-5.97 3.21-9.35 3.98-3.38.88-5.08-1.48-8.22-2.3-.12-.77-.23-1.54-.34-2.31-.58-.5-1.16-1-1.75-1.49-.21-3.13.76-5.5 2.66-7.94 1.39-.97 3.1-1.53 4.67-2.15zm-79.93 12.13c3.11.29 6.01 1.17 9.2.94-.17 2.65.08 4.9.67 7.47-1.04 1.7-2.4 2.92-3.74 4.38-4.38 1.41-8.68 2.55-13.34 2.35-1.37-.73-2.78-1.38-4.2-2.02-.97.11-1.73 1.08-2.25-.17.52-2.3.65-4.03-.07-6.34 1.72-1.4 3.32-3.15 5.23-4.27 2.73-1.03 5.65-1.78 8.5-2.34z" fill="#f0f0f0"/><path d="M222.81 267.69c5.27 3.52 10.87 3.51 16.93 3.98 2.42-.41 4.84-.77 7.26-1.15 2.54-.98 4.67-2.39 7.5-2.51-4.6 2.99-9.58 4.16-14.8 5.48-4.01 1.62-8.05 1.36-12.27 1.22-1.67-.58-3.1-.89-4.23-2.36-.74-.04-1.47-.07-2.21-.11-.3-1.73-.6-3.47-.9-5.21.91.21 1.82.43 2.72.66zm209.6 3.23c-.67 1.29-1.67 1.95-2.81 2.77-.53 1.6-1.05 3.15-2.05 4.53 2.52 3.26 5.87 5.09 9.47 6.91.65-.25 1.31-.5 1.97-.74-.06.75-.12 1.51-.17 2.27-2.55-1.45-2.08-1.39-4.22.29-.83-.49-1.65-.99-2.48-1.49-1.19-.19-2.39-.39-3.58-.61-1.16-1.13-2.4-2.06-3.77-2.92-.31-1.55-.81-3.28-.6-4.85 1.53-3.31 4.99-4.97 8.24-6.16zm166.32 1.27c.4.84.8 1.67 1.2 2.5-.74 3.97-.46 8.1-1.26 12.02-.83 2.27-3.77 4.95-.26 6.48-.01.93-.02 1.85-.04 2.78 2.53.5 5.02 1.2 7.56 1.61 4.96-.01 10.45-1.74 15.28-2.7-.27 3.58-2.87 4.27-5.28 6.31-1.36.96-2.11 2.09-3.98 1.56-2.4-.82-4.66-2.13-6.94-3.27-.82.78-1.64 1.57-2.46 2.35-1.51 0-3.03 0-4.54.01.06 2.86.13 5.71.1 8.57-2.23 1.11-2.06.92-2.48 3.46.97.32 1.93.65 2.89.97-.09 2.32-.18 4.65-.23 6.98-.89.03-1.78.07-2.66.11l.18 2.94c1-.04 2.01-.07 3.01-.11-.92 4.73.4 8.86 1.52 13.37 2.59 1.4 5.4 1.55 8.12.36 4.18-1.62 5.68-5.68 10.09-6.73-.23 1.99-.5 3.98-.79 5.97-5.28 2.07-10.72 3.9-15.86 6.31-.86-.43-1.72-.85-2.58-1.28l-2.19 1.86c-2.37-.93-4.45-1.68-5.57-4.17-2.54-4.82-.84-9.42-.24-14.45-.08-5.79-1.51-10.85 1.34-16.29-.84-.2-1.69-.41-2.53-.61.35-2.31 1.34-5.45.42-7.64-3.38-1.07-7.63-.13-11.06.49.21-.52.41-1.04.61-1.56 1.2-1.19 2.29-2.42 3.31-3.76 2.75.15 5.35-.07 8.06-.52-.26-6.14.64-11.8-2.16-17.31 2.27-3.83 6.28-3.55 9.42-6.61zm-329.24 22.08c2.16 2.76 1.65 5.65 1.79 8.92 4-1.07 6.09-4.58 9.93-5.88 2.02-.75 4.09-1.38 6.18-1.91.55.59.96 1.39 1.24 2.41.59.01 1.19.02 1.79.04.28-.84.56-1.67.84-2.51 1.88-.14 3.76-.26 5.64-.37 1.37 2.29 2.23 4.82 3.63 7.09 2.37-2.76 5.3-4.51 8.68-5.76 6.47-.98 12.33-1.95 17.8 2.49-.52.8-1.05 1.6-1.57 2.39.7.44 1.4.88 2.11 1.32.31 5.25 1.55 10.87-.51 15.86-.07 3.77 2.15 9.5-.29 12.82.4.64.8 1.28 1.21 1.92.05 2.17.24 4.27.61 6.4-2.74 1.09-5.66 4.16-8.46 4.38-.47-2.88.31-5.9.14-8.83-.27-4.17.37-8.28 1.72-12.22-.44-.7-.87-1.41-1.31-2.12 1.18-.76 2.33-1.54 3.48-2.35-1.11-.83-2.29-1.6-3.32-2.53.28-1.32.73-2.61 1.1-3.9-2.54-2.78-1.2-6.55-3.54-9.22-1.5-1.68-2.78-4.85-5.36-4.68-4.42-.38-9.09 3-11.82 6.23-1.57 1.72-1.02 3.77-1.2 5.93-.42.54-.83 1.08-1.25 1.63 1.83 3.5 1.56 8.12 1.4 11.98l-2.11.43c.61 1.14 1.21 2.29 1.81 3.44-.05 4.08.94 7.96 1.23 12.02-2.54 1.82-4.93 2.98-7.93 3.89-.27-3.88-.15-7.72.02-11.63-.06-1.57.93-2.41 1.65-3.71-.9-2.67-2.35-5.31-1.76-8.21.71-1.48 1.68-2.85 2.53-4.26-.86-.38-1.73-.77-2.59-1.16-.11-3.97.43-8.27-1.71-11.84-1.93-.53-3.82-.43-5.59-1.55-3.49 1.07-7.03 2.02-10.52 3.09-4.71 5.31-2.76 10.62-3.49 16.94l-1.53 1.35c.56.63 1.12 1.27 1.68 1.91.08 5.45.11 10.85.56 16.3-2.48 1.38-4.72 2.89-7.61 3.27.06-3.7.02-7.39-.07-11.09l1.23-2.1c-.61-.93-1.11-1.9-1.5-2.92.55-1.44 1.23-2.81 1.9-4.2-2.86-3.55-1.34-6.65-.58-10.58-.18-3.08-1.35-6.1-1.6-9.23-.1-1.92-1.08-3.03-2.24-4.44 2.27-2.31 4.63-3.89 7.56-5.25zm279.24-.11c1.27 2.2 1.35 4.47 1.9 6.95 5.39-2.12 9.76-5.51 15.36-6.22 3.15-.68 5.41-1.81 8.08.79 1.27-.31 2.54-.47 3.79-.47.83.81 1.58 1.73 2.33 2.62a83.98 83.98 0 0 0-5.85 5.14c-.97-.7-1.95-1.41-2.91-2.13-2.57-.3-4.98-.9-7.42-1.7l-1.45 1.27c-4.41.88-8.29 1.09-11.5 4.61-3.42 3.03-.65 7.38-2.76 11.53 2.61 5.68 1.64 11.06 1.75 17.13-1.8.55-3.53.97-4.95 2.3 1.7.35 3.41.62 5.12.86-.15 1.39.78 3.68-1.16 4.12-2.56.89-5.14 1.71-7.68 2.65-.07-3.27 1.47-5.88.6-9.26.68-.25 1.37-.51 2.05-.77-1.08-3.58-1.54-6.84-1.33-10.6 1.15-1.16 2.56-1.43 2.31-3.35l-2.42-.77c-.09-3.64.02-7.26.09-10.9-.3-3.2-1.15-6.39-1.74-9.55 2.63-1.36 5.15-2.91 7.79-4.25zm-322.29.86c.49.69 1.01 1.35 1.55 1.99 4.63-2 8.95.67 11.6 4.46 1.21 1.9 3.07 2.28 5.02 3.08 1.61 3.4 2.2 6.98 2.64 10.68-.79 1.17-1.57 2.34-2.34 3.52.69.72 1.38 1.43 2.07 2.15-1.02 4.86-2.8 10.19-6.12 13.98-3.16 3.58-7.16 4.37-11.28 6.67-3.43 2.1-6.74 1.3-10.59 2.14-5.31 1.03-10.63.78-15.96.02-3.76-2.03-7.73-2.63-11.1-5.58-1.08-1.66-2.09-3.15-3.61-4.46-.48-1.28-.95-2.57-1.43-3.85.62-.7 1.23-1.4 1.85-2.1-.72-.72-1.45-1.43-2.18-2.15.18-5.18 1.21-8.9 3.69-13.41 1.45-3.23 4.64-4.79 6.17-8 2.96-1.62 5.88-3.13 8.56-5.21 6.73-3.22 13.95-5.23 21.46-3.93zm479.19-.26c.45 2.97.06 5.63 2.25 7.99 2.41-2.68 5.34-4.58 8.28-6.6.61.48 1.21.97 1.82 1.45 1.8-.92 3.94-2.29 6.02-2.24 2.33.09 4.53.02 6.85-.21 3.61.02 7.53 1.83 10.88 3.08 2.8 3.45 2.89 7.16 3.28 11.39-2.01.34-3.5.99-5.23 2.09 1.76.98 3.53 1.92 5.32 2.85-.47 1.75-.97 3.49-1.46 5.24 2.87 5.26 1.9 13.39 2.73 19.05-2.58 1.4-5.19 2.74-7.68 4.29l-1.62-2.34c.67-2.57 1.12-5.11 1.32-7.76 1.58-.24 3.16-.49 4.74-.77-1.23-2.21-3.28-2.09-5.45-2.73.23-1.04.46-2.09.7-3.14 1.71-1.41 3.12-2.6 3.77-4.82-1.33-.55-2.73-1.06-3.98-1.75-.65-4.44.23-10.18-1.65-14.37-1.89-2.76-4.49-5.04-6.47-7.79-1.76 1.18-3.47 2.53-5.37 3.47-1.78.49-3.55-.24-5.33.59-.73-.94-1.48-1.86-2.26-2.77-3.44 1.47-7.68 3.07-10.34 5.79-1.49 2.18-.73 5.7-.92 8.25a95.46 95.46 0 0 0-4.11 3.68c1.54 1.07 3.11 2.12 4.67 3.17-.09 3.24.29 6.26-1.12 9.31 1.36 3.73 1.8 7.59 1.89 11.53-3.08.6-4.95 1.21-7.18 3.53-1.61-2.74-.71-5.27-.62-8.25.63-5.12.05-10.14.13-15.3.82-.56 1.65-1.12 2.47-1.68-.94-.6-1.88-1.19-2.83-1.78.32-2.95.34-5.68-.28-8.59.36-.59.72-1.17 1.08-1.76-.99-2.27-1.92-4.56-2.99-6.8 2.24-2.77 5.33-4.3 8.69-5.3zm93.36-.08c1.97-.02 2.5.74 3.82 2.01.79.89 2.42-.48 3.23-.8 1.97.68 3.85 1.35 5.63 2.45 1.76 1.11 2.67 3.53 4.21 4.8 1.14.57 2.39.97 3.58 1.41 1.61 3.09 2.21 6.13 2.5 9.58.35.44.69.88 1.04 1.32v.27c-.67.07-1.35.16-2.02.25-.36 1.06-.72 2.11-1.08 3.17.66.48 1.31.96 1.97 1.44-.36 4.45-2.45 7.92-4.28 12.05-1.74 2.53-4.17 4.84-7.08 5.96-2.96 1.23-5.71 2.91-8.67 4.12-8.33.87-15.37 2.78-23.79.85-3.3-1.32-6.52-2.21-9.51-4.19-2.04-1.08-3.13-3.5-4.73-5.24-1.24-1.33-1.24-2.89-1.69-4.59l1.5-2.55c-.74-.44-1.48-.87-2.22-1.3.26-7.14 2.89-14.24 8.22-19.11 2.52-4.13 6.8-4.58 10.28-7.66 5.83-2.88 12.55-4.69 19.09-4.24zm-431.86 1.42l.15-.27c6.02-1.16 11.41.5 17.24 1.67.21 1.18.26 2.42.14 3.72 1.3-.39 2.6-.79 3.89-1.2.81 1.53 2.36 3.18 2.4 4.95.16 2.25.39 3.82 1.83 5.63.38 3.52.74 6.38-1.16 9.55.68.48 1.35.96 2.03 1.44-.54 3.37-.58 6.25.15 9.6-2.17 3.24.18 5.1 1.4 8.15-2.91 2.99-6.55 3.77-10.44 4.74.25-1.75.51-3.5.76-5.25-4.16 1.59-8.02 2.76-12.45 3.35-7.55 1.93-14.99 2.91-22.56.38-2.97-.71-4.16-3.13-6.35-5.1-.42-1.48-.89-2.88-1.09-4.41 1.65-3.95 4.27-7.73 8.2-9.68 5.23-2.52 10.85-5.36 16.55-6.53 5.2-1.16 10.57-.99 15.82-2.09 2.37-1.27 1.77-2.71 1.49-4.97 1.01-1.28 2.09-2.53 2.97-3.89-.85-1.67-4.24-1.53-5.87-2.11-1.13-1.25-2.25-2.52-3.34-3.81-3.23-.66-6.49-.88-9.76-1.24-1.14-.01-1.84-1.68-2-2.63zm128.67-.11c6.33-1.43 12.04.29 18.19 1.89-.53.99-.85 2.02-.94 3.08 1.54-.05 2.96-.51 4.43-.95.61 1.19 1.29 2.34 2.01 3.47-.51 5.05 3.13 8.73 2.44 13.99-.64.81-1.27 1.63-1.89 2.45l2.11 1.75c-.35 3.24-.2 6.41.16 9.64-1.62 3 .24 4.93 1.23 7.72l-.69 1.74c-3.13 1.5-6.32 2.57-9.67 3.44.32-1.78.63-3.57.92-5.36-3.98 1.49-7.78 2.77-12.04 3.21-8.18 2.13-16.12 3.22-24.21.01-2.18-.81-3.64-3.25-5.2-4.93-.31-1.41-.63-2.83-.96-4.24 1.31-2.44 2.44-4.79 4.49-6.72 2.63-2.69 5.9-3.87 9.25-5.42 2.3-1.42 4.83-2.04 7.35-2.96 6.7-2.25 13.22-1.65 19.92-3.18 1.71-.62 1.11-3.46 1.19-4.85.99-1.49 2.04-2.94 3.07-4.41-2.16-.68-4.34-1.27-6.54-1.81-.97-1.23-1.94-2.45-2.92-3.67-3.34-.54-6.7-.84-10.08-1.1-.68-.81-2.46-1.52-1.62-2.79zm161.18-.57c4.31.2 8.88 1.27 13.01 2.52-.55.97-.87 1.98-.97 3.03 1.46-.03 2.77-.51 4.15-.92.76 1.12 1.52 2.25 2.28 3.37-.22 2.3.21 4.01 1.04 6.13 1.1 2.59 1.12 5.24 1.3 7.99-.54.7-1.08 1.4-1.61 2.1.63.73 1.23 1.49 1.79 2.27-.04 3.21-.1 6.36.31 9.55-2.18 3.26.92 4.79 1.13 8.06-1.68 2.95-7.32 3.6-10.24 4.7.32-1.78.62-3.57.92-5.35-3.99 1.34-7.62 3.04-11.94 2.95-7.56 2.56-16.01 3.25-23.63.55-2.75-.93-3.98-3.03-5.79-5.09-.36-1.45-.73-2.89-1.11-4.33 1.34-2.46 2.48-4.83 4.55-6.78 2.66-2.7 5.84-3.93 9.24-5.41 2.29-1.47 4.82-2.05 7.34-2.98 6.47-2.24 13.66-1.66 19.9-3.17 1.78-.44 1.15-3.5 1.16-4.81.98-1.54 2.06-3 3.17-4.46-2.17-.65-4.35-1.22-6.55-1.75-1.38-1.67-2.1-3.65-4.49-3.9-3.64-.6-7.29-.91-10.91-1.62-3.08 1.86-6.43 3.41-9.23 5.67-.85.54-1.75 1.68-2.76 1.81-2.36-.33-4.73-1.43-6.81-2.57 2.49-2.34 5.54-2.89 8.6-4.13 5.07-2.11 10.73-2.84 16.15-3.43z" fill="#131113"/><path d="M360.38 297.33l.73-.14c1.43-.29 2.86-.47 4.29-.55.73 1.07.69 1.93-.54 2.53-3.59 1.82-7.06 3.57-9.89 6.54-2.61-.67-5.09-1.52-7.48-2.78 3.71-2.73 8.65-3.83 12.89-5.6zm133.89-.71c.47.78.38 1.49-.28 2.13-2.02 1.47-4.45 2.23-6.5 3.69-1.51.99-2.82 2.44-4.47 3.16-2.4-.49-4.62-1.42-6.75-2.61 3.79-3.29 9.51-4.12 14.07-6.07 1.31-.13 2.62-.23 3.93-.3z" fill="#131113"/><path d="M225.46 297.93c1.61 1.82 3.69 2.69 5.73 3.9 2.46 1.98 3.06 4.91 6.25 6.1.45 3.19 1.41 6.21 2.23 9.31.17 2.18-.49 4.49-.7 6.68.42 1.31 1.47 2.12.34 3.4-2.26 2.58-3.51 5.72-5.48 8.47a75.272 75.272 0 0 1-8.05 4.37c-4.78 1.94-8.91.57-13.8.44-5 .06-8.03-4.13-13.23-3.61.17-2.46.2-3.49-1.2-5.56-1.63-2.28-1.67-5.72-4.85-6.21.76-.81 1.59-1.55 2.36-2.36-.73-.92-1.49-1.84-2.13-2.83.49-.57 1-1.14 1.52-1.69 1.36-3.27 3.25-6.16 3.99-9.54 4.11-3.45 8.13-7.22 12.73-10 4.86-.84 9.33-1.23 14.29-.87zm564.63.2c3.39-.5 6.93-.25 10.35-.2 1.58 1.85 3.66 2.72 5.68 3.95 2.43 1.92 3.01 4.85 6.12 6.03.63 3.34 1.5 6.61 2.4 9.88-.71 3.16-.95 5.68.09 8.79-2.45 2.78-3.79 6.19-5.96 9.13-2.4 1.61-5.11 3-7.7 4.31-4.84 2.02-9.11.78-14.09.6-5.02.11-7.96-4.18-13.17-3.56.02-1.17.03-2.33.03-3.5-1.74-2.36-2.95-4.95-4.2-7.57l-1.98-.69c.76-.86 1.57-1.68 2.38-2.48-.59-.84-1.74-1.73-1.95-2.72 2.4-3.56 3.81-7.51 5.59-11.38 3.72-3.69 8.05-7.18 12.49-9.98 1.43.02 2.57-.18 3.92-.61zM502.7 318.62c3.94.86 7.9.55 11.88 1.04-.35 3.05-.25 6.1-.18 9.17.44.55.88 1.11 1.32 1.67-.66 1.04-1.33 2.08-1.98 3.14-1.41 1.1-2.61 2.24-3.73 3.64-6.72 2.41-13.2 4.53-20.43 4.36-3.2-2.15-6.11-3.98-10.16-3.04.56-1.28 1.12-2.55 1.68-3.82-.78-2.12-1.25-4.31-1.64-6.54 1.41-.87 2.64-1.82 3.82-2.97 2.71-2.82 7.11-4.15 10.68-5.61 2.82-.66 5.85-.82 8.74-1.04zm-137.23.96c6.49-1.61 13.82-.42 20.47.23-.09 3.79-.36 7.42.94 11.06-.57.91-1.14 1.83-1.71 2.75-1.67 1.4-3.25 3.33-5.24 4.25-5.92 1.84-11.65 3.74-17.92 3.86-2.79-1.03-5.36-2.71-8.14-3.82l-1.92 1.35c-1.47-1.94.05-2.83.76-4.69-.89-1.97-1.37-4.05-1.72-6.17 1.26-.9 2.42-1.83 3.51-2.93 2.78-2.92 7.3-4.35 10.97-5.89zm293.2-.94c3.94.94 7.88.47 11.88 1.05-.42 3.69-.32 6.82.4 10.45.29 1.21-.77 2.61-1.12 3.77-.85.48-1.71.95-2.56 1.43-.36.65-.72 1.3-1.08 1.96-6.82 2.25-13.36 4.53-20.65 4.37-3.18-2.13-6-4.1-10.03-3.02.45-1.24.9-2.48 1.36-3.72-.55-2.22-1.01-4.47-1.45-6.71 2.84-1.41 4.44-4.16 7.29-5.5 2.59-1.24 5.28-2.44 8.02-3.31 2.63-.34 5.29-.64 7.94-.77z" fill="#f0f0f0"/></svg>