<svg width="89" height="39" viewBox="0 0 89 39" fill="none" xmlns="http://www.w3.org/2000/svg">
<path fill-rule="evenodd" clip-rule="evenodd" d="M4.84831 37.5471C3.91223 37.5471 3.32285 36.8199 3.32285 35.8849C3.32285 34.9153 3.91223 34.2228 4.84831 34.2228C5.78438 34.2228 6.37376 34.9153 6.37376 35.8849C6.37376 36.8199 5.74971 37.5471 4.84831 37.5471ZM4.84831 37.9973C6.06174 37.9973 6.89381 37.097 6.89381 35.8849C6.89381 34.6729 6.06174 33.7726 4.84831 33.7726C3.63488 33.7726 2.80281 34.6729 2.80281 35.8849C2.80281 37.097 3.63488 37.9973 4.84831 37.9973ZM9.286 35.8503H8.21124V34.292H9.286C9.77137 34.292 10.1181 34.6037 10.1181 35.0885C10.0834 35.504 9.77137 35.8503 9.286 35.8503ZM10.6728 37.928L9.56335 36.2659C10.1181 36.2312 10.6381 35.8157 10.6381 35.0539C10.6381 34.292 10.0834 33.8072 9.35534 33.8072H7.6912V37.928H8.21124V36.3005H9.04331L10.0834 37.928H10.6728ZM13.377 37.9973C14.0357 37.9973 14.6251 37.7203 15.0065 37.2701V35.7811H13.0996V36.2312H14.5211V37.0623C14.3131 37.2701 13.897 37.5125 13.4117 37.5125C12.5103 37.5125 11.8169 36.8199 11.8169 35.8503C11.8169 34.8807 12.5103 34.1881 13.4117 34.1881C13.897 34.1881 14.3477 34.4305 14.5904 34.7422L15.0065 34.4998C14.6598 34.0496 14.1397 33.738 13.4117 33.738C12.2329 33.738 11.2968 34.5691 11.2968 35.8503C11.2622 37.1662 12.1982 37.9973 13.377 37.9973ZM18.2307 36.5429H16.4972L17.364 34.3267L18.2307 36.5429ZM19.3401 37.928L17.676 33.8072H17.052L15.3878 37.928H15.9772L16.3239 36.9931H18.3694L18.7161 37.928H19.3401ZM23.2925 37.928V33.8072H22.7724V37.0277L20.3802 33.8072H19.8602V37.928H20.3802V34.6383L22.7724 37.928H23.2925ZM24.2285 33.8072H24.7486V37.928H24.2285V33.8072ZM27.6608 37.9973C28.3889 37.9973 28.8742 37.651 29.2209 37.1662L28.8049 36.9238C28.5622 37.2701 28.1462 37.5125 27.6608 37.5125C26.7594 37.5125 26.066 36.8199 26.066 35.8503C26.066 34.8807 26.7594 34.1881 27.6608 34.1881C28.1462 34.1881 28.5622 34.4305 28.8049 34.7768L29.2209 34.5344C28.9089 34.0496 28.3889 33.738 27.6608 33.738C26.482 33.738 25.546 34.6037 25.546 35.8503C25.546 37.1316 26.482 37.9973 27.6608 37.9973ZM33.4159 37.9973C34.144 37.9973 34.6294 37.651 34.9761 37.1662L34.56 36.9238C34.3173 37.2701 33.9013 37.5125 33.4159 37.5125C32.5145 37.5125 31.8211 36.8199 31.8211 35.8503C31.8211 34.8807 32.5145 34.1881 33.4159 34.1881C33.9013 34.1881 34.3173 34.4305 34.56 34.7768L34.9761 34.5344C34.664 34.0496 34.144 33.738 33.4159 33.738C32.2372 33.738 31.3011 34.6037 31.3011 35.8503C31.3011 37.1316 32.2372 37.9973 33.4159 37.9973ZM37.5069 37.5471C36.5709 37.5471 35.9815 36.8199 35.9815 35.8849C35.9815 34.9153 36.5709 34.2228 37.5069 34.2228C38.443 34.2228 39.0324 34.9153 39.0324 35.8849C39.0324 36.8199 38.443 37.5471 37.5069 37.5471ZM37.5069 37.9973C38.7204 37.9973 39.5524 37.097 39.5524 35.8849C39.5524 34.6729 38.7204 33.7726 37.5069 33.7726C36.2935 33.7726 35.4614 34.6729 35.4614 35.8849C35.4961 37.097 36.2935 37.9973 37.5069 37.9973ZM40.8699 37.928V36.0581H43.0194V35.6079H40.8699V34.2574H43.054V33.8072H40.3498V37.928H40.8699ZM44.2675 37.928V36.0581H46.417V35.6079H44.2675V34.2574H46.4516V33.8072H43.7474V37.928H44.2675ZM49.8493 37.928V37.4779H47.6651V36.0581H49.8146V35.6079H47.6651V34.2574H49.8493V33.8072H47.145V37.928H49.8493ZM53.3509 37.928V37.4779H51.1667V36.0581H53.3162V35.6079H51.1667V34.2574H53.3509V33.8072H50.6813V37.928H53.3509ZM57.3725 35.8503H56.2978V34.292H57.3725C57.8579 34.292 58.2046 34.6037 58.2046 35.0885C58.2046 35.504 57.8579 35.8503 57.3725 35.8503ZM58.7593 37.928L57.6499 36.2659C58.2046 36.2312 58.7246 35.8157 58.7246 35.0539C58.7246 34.292 58.1699 33.8072 57.4419 33.8072H55.7777V37.928H56.2978V36.3005H57.1298L58.1699 37.928H58.7593ZM61.3942 37.5471C60.4581 37.5471 59.8687 36.8199 59.8687 35.8849C59.8687 34.9153 60.4581 34.2228 61.3942 34.2228C62.3302 34.2228 62.9196 34.9153 62.9196 35.8849C62.9196 36.8199 62.3302 37.5471 61.3942 37.5471ZM61.3942 37.9973C62.6076 37.9973 63.4397 37.097 63.4397 35.8849C63.4397 34.6729 62.6076 33.7726 61.3942 33.7726C60.1807 33.7726 59.3487 34.6729 59.3487 35.8849C59.3487 37.097 60.1807 37.9973 61.3942 37.9973ZM66.4212 36.5429H64.6878L65.5545 34.3267L66.4212 36.5429ZM67.5307 37.928L65.8665 33.8072H65.2425L63.5783 37.928H64.1677L64.5144 36.9931H66.5599L66.9066 37.928H67.5307ZM69.3335 37.9973C70.4429 37.9973 70.8589 37.374 70.8589 36.7853C70.8589 35.2616 68.4321 35.7811 68.4321 34.8461C68.4321 34.4652 68.7788 34.1881 69.2641 34.1881C69.7148 34.1881 70.1309 34.3267 70.4429 34.6729L70.7549 34.292C70.4082 33.9457 69.9229 33.7033 69.2988 33.7033C68.5014 33.7033 67.8774 34.1881 67.8774 34.8461C67.8774 36.3005 70.3042 35.7118 70.3042 36.7853C70.3042 37.097 70.0615 37.5125 69.3335 37.5125C68.7441 37.5125 68.2934 37.2355 68.0507 36.9238L67.7387 37.3047C68.0854 37.7203 68.6054 37.9973 69.3335 37.9973ZM73.0778 37.928V34.2574H74.3952V33.8072H71.275V34.2574H72.5924V37.928H73.0778ZM77.7582 37.928V37.4779H75.574V36.0581H77.7235V35.6079H75.574V34.2574H77.7582V33.8072H75.0886V37.928H77.7582ZM80.185 35.8503H79.1103V34.292H80.185C80.6704 34.292 81.0171 34.6037 81.0171 35.0885C81.0171 35.504 80.6704 35.8503 80.185 35.8503ZM81.5718 37.928L80.4624 36.2659C81.0171 36.2312 81.5371 35.8157 81.5371 35.0539C81.5371 34.292 80.9824 33.8072 80.2543 33.8072H78.5902V37.928H79.1103V36.3005H79.9423L80.9824 37.928H81.5718ZM83.964 37.928V36.1966L85.5588 33.8072H84.9694L83.6866 35.7118L82.4039 33.8072H81.8145L83.4439 36.1966V37.928H83.964ZM16.0119 3.611C17.5027 3.611 17.884 4.68448 17.156 8.97844C16.0812 15.454 14.5558 17.601 12.6836 17.601C10.8115 17.601 10.6034 15.8349 11.2275 12.095C12.2329 6.38129 14.1397 3.611 16.0119 3.611ZM8.86996 1.36013C5.22967 1.36013 3.77356 5.48095 3.42686 8.8053L4.84831 8.94382C5.22967 5.89649 6.13108 3.611 7.17116 3.611C8.0379 3.611 8.00323 4.37283 7.37918 7.8357C6.85914 10.9523 5.36835 18.1551 4.60562 21.3063C4.25893 22.7953 3.60021 23.3494 2.2481 23.3494H1.48537C1.4507 23.5571 1.06934 25.4963 1 25.7734C1 25.7734 4.39761 25.7041 6.30442 25.7041C8.17658 25.7041 11.5742 25.7734 11.5742 25.7734L12.0942 23.3494H11.0541C9.52868 23.3494 9.11265 22.7953 9.42467 21.3063L10.1181 17.601C10.7074 19.0208 11.8862 19.8865 14.001 19.8865C17.8493 19.8865 21.2816 16.4929 22.287 9.01307C22.9804 3.54174 20.9696 1.36013 18.1614 1.36013C15.7345 1.36013 13.6543 2.88379 12.3022 5.7926C12.4409 3.05694 11.5742 1.36013 8.86996 1.36013ZM31.6131 17.601C30.0877 17.601 29.741 16.4929 30.469 12.2335C31.5438 5.7926 33.0692 3.611 34.9414 3.611C36.8482 3.611 37.0562 5.37706 36.4322 9.08233C35.4268 14.8307 33.5199 17.601 31.6131 17.601ZM44.3368 12.5798L42.95 12.4413C42.534 15.5233 41.7019 17.7049 40.5925 17.7049C39.7951 17.7049 39.7258 16.666 40.2458 13.5841C40.7312 10.7791 41.9793 4.78837 42.638 1.98345C42.326 2.01807 40.5232 2.01807 40.2111 1.98345C39.6564 2.98768 38.6163 4.0958 37.7843 4.99614C37.5069 2.84916 36.3282 1.39476 33.5893 1.39476C29.9143 1.36013 26.274 4.89226 25.3726 12.2335C24.6099 17.9126 26.6554 19.8865 29.4289 19.8865C31.8211 19.8865 33.9706 18.3975 35.3574 15.5233C35.0107 18.6745 36.1548 19.8865 38.859 19.8865C41.7019 19.8865 43.9901 17.2201 44.3368 12.5798ZM57.7192 3.611C59.21 3.611 59.5914 4.68448 58.8633 8.97844C57.7539 15.4194 56.2631 17.601 54.3563 17.601C52.4841 17.601 52.2761 15.8349 52.9002 12.095C53.9056 6.38129 55.8124 3.611 57.7192 3.611ZM50.5426 1.36013C46.937 1.36013 45.4809 5.48095 45.0995 8.8053L46.521 8.94382C46.9023 5.89649 47.8037 3.611 48.8438 3.611C49.7106 3.611 49.6759 4.37283 49.0519 7.8357C48.5318 10.9523 47.041 18.1551 46.2783 21.3063C45.9316 22.7953 45.2729 23.3494 43.9208 23.3494H43.1234C43.0887 23.5571 42.7073 25.4963 42.638 25.7734C42.638 25.7734 46.0356 25.7041 47.9424 25.7041C49.8146 25.7041 53.2122 25.7734 53.2122 25.7734L53.7322 23.3494H52.6921C51.1667 23.3494 50.7507 22.7953 51.0627 21.3063L51.8254 17.601C52.4148 19.0208 53.5935 19.8865 55.7084 19.8865C59.5567 19.8865 62.989 16.4929 63.9944 9.01307C64.6878 3.54174 62.6769 1.36013 59.8687 1.36013C57.4419 1.36013 55.3617 2.88379 54.0096 5.7926C54.1136 3.05694 53.2815 1.36013 50.5426 1.36013ZM86.0095 12.4067C85.5934 15.4886 84.7614 17.6702 83.652 17.6702C82.7852 17.6702 82.8892 16.6314 83.5826 13.2378C84.1027 10.5021 85.3854 4.61523 86.0095 1.94882C86.0095 1.94882 84.484 1.98345 83.6173 1.98345C82.7505 1.98345 81.2251 1.94882 81.2251 1.94882L79.8036 8.59753C78.2089 16.0427 76.0247 17.601 74.6032 17.601C73.3205 17.601 72.9391 16.112 73.9792 12.2682L75.1233 8.04347C76.1287 4.3382 75.3313 1.3255 71.7257 1.3255C68.0854 1.3255 66.5599 5.37706 66.2826 8.77067L67.6693 8.90919C68.0507 5.86186 68.8481 3.57637 70.1655 3.57637C70.9283 3.57637 71.0669 4.51134 70.2349 7.62792L69.0908 12.1643C67.808 17.1854 68.6054 19.8172 72.3497 19.8172C74.7766 19.8172 76.9608 18.536 78.4862 15.4194C78.1742 18.6745 79.3183 19.8172 82.0572 19.8172C85.4548 19.8172 87.1189 15.9042 87.3963 12.5106L86.0095 12.4067Z" fill="#1C1E26"/>
</svg>
