<svg xmlns="http://www.w3.org/2000/svg" width="170" height="74" viewBox="0 0 256.7 113"><path fill-rule="evenodd" clip-rule="evenodd" d="M12.8 108.6c-2.7 0-4.4-2.1-4.4-4.8 0-2.8 1.7-4.8 4.4-4.8s4.4 2 4.4 4.8c0 2.7-1.8 4.8-4.4 4.8zm0 1.3c3.5 0 5.9-2.6 5.9-6.1 0-3.5-2.4-6.1-5.9-6.1s-5.9 2.6-5.9 6.1c0 3.5 2.4 6.1 5.9 6.1zm12.8-6.2h-3.1v-4.5h3.1c1.4 0 2.4.9 2.4 2.3-.1 1.2-1 2.2-2.4 2.2zm4 6l-3.2-4.8c1.6-.1 3.1-1.3 3.1-3.5s-1.6-3.6-3.7-3.6H21v11.9h1.5V105h2.4l3 4.7h1.7zm7.8.2c1.9 0 3.6-.8 4.7-2.1v-4.3h-5.5v1.3h4.1v2.4c-.6.6-1.8 1.3-3.2 1.3-2.6 0-4.6-2-4.6-4.8s2-4.8 4.6-4.8c1.4 0 2.7.7 3.4 1.6l1.2-.7c-1-1.3-2.5-2.2-4.6-2.2-3.4 0-6.1 2.4-6.1 6.1-.1 3.8 2.6 6.2 6 6.2zm14-4.2h-5l2.5-6.4 2.5 6.4zm3.2 4l-4.8-11.9H48l-4.8 11.9h1.7l1-2.7h5.9l1 2.7h1.8zm11.4 0V97.8h-1.5v9.3l-6.9-9.3h-1.5v11.9h1.5v-9.5l6.9 9.5zm2.7-11.9h1.5v11.9h-1.5zm9.9 12.1c2.1 0 3.5-1 4.5-2.4l-1.2-.7c-.7 1-1.9 1.7-3.3 1.7-2.6 0-4.6-2-4.6-4.8s2-4.8 4.6-4.8c1.4 0 2.6.7 3.3 1.7l1.2-.7c-.9-1.4-2.4-2.3-4.5-2.3-3.4 0-6.1 2.5-6.1 6.1 0 3.7 2.7 6.2 6.1 6.2zm16.6 0c2.1 0 3.5-1 4.5-2.4l-1.2-.7c-.7 1-1.9 1.7-3.3 1.7-2.6 0-4.6-2-4.6-4.8s2-4.8 4.6-4.8c1.4 0 2.6.7 3.3 1.7l1.2-.7c-.9-1.4-2.4-2.3-4.5-2.3-3.4 0-6.1 2.5-6.1 6.1 0 3.7 2.7 6.2 6.1 6.2zm11.8-1.3c-2.7 0-4.4-2.1-4.4-4.8 0-2.8 1.7-4.8 4.4-4.8s4.4 2 4.4 4.8c0 2.7-1.7 4.8-4.4 4.8zm0 1.3c3.5 0 5.9-2.6 5.9-6.1 0-3.5-2.4-6.1-5.9-6.1-3.5 0-5.9 2.6-5.9 6.1.1 3.5 2.4 6.1 5.9 6.1zm9.7-.2v-5.4h6.2V103h-6.2v-3.9h6.3v-1.3h-7.8v11.9zm9.8 0v-5.4h6.2V103h-6.2v-3.9h6.3v-1.3H125v11.9zm16.1 0v-1.3h-6.3v-4.1h6.2V103h-6.2v-3.9h6.3v-1.3h-7.8v11.9zm10.1 0v-1.3h-6.3v-4.1h6.2V103h-6.2v-3.9h6.3v-1.3H145v11.9zm11.6-6h-3.1v-4.5h3.1c1.4 0 2.4.9 2.4 2.3 0 1.2-1 2.2-2.4 2.2zm4 6l-3.2-4.8c1.6-.1 3.1-1.3 3.1-3.5s-1.6-3.6-3.7-3.6h-4.8v11.9h1.5V105h2.4l3 4.7h1.7zm7.6-1.1c-2.7 0-4.4-2.1-4.4-4.8 0-2.8 1.7-4.8 4.4-4.8s4.4 2 4.4 4.8c0 2.7-1.7 4.8-4.4 4.8zm0 1.3c3.5 0 5.9-2.6 5.9-6.1 0-3.5-2.4-6.1-5.9-6.1s-5.9 2.6-5.9 6.1c0 3.5 2.4 6.1 5.9 6.1zm14.5-4.2h-5l2.5-6.4 2.5 6.4zm3.2 4l-4.8-11.9H187l-4.8 11.9h1.7l1-2.7h5.9l1 2.7h1.8zm5.2.2c3.2 0 4.4-1.8 4.4-3.5 0-4.4-7-2.9-7-5.6 0-1.1 1-1.9 2.4-1.9 1.3 0 2.5.4 3.4 1.4l.9-1.1c-1-1-2.4-1.7-4.2-1.7-2.3 0-4.1 1.4-4.1 3.3 0 4.2 7 2.5 7 5.6 0 .9-.7 2.1-2.8 2.1-1.7 0-3-.8-3.7-1.7l-.9 1.1c1 1.2 2.5 2 4.6 2zm10.8-.2V99.1h3.8v-1.3h-9v1.3h3.8v10.6zm13.5 0v-1.3h-6.3v-4.1h6.2V103h-6.2v-3.9h6.3v-1.3h-7.7v11.9zm7-6H227v-4.5h3.1c1.4 0 2.4.9 2.4 2.3 0 1.2-1 2.2-2.4 2.2zm4 6l-3.2-4.8c1.6-.1 3.1-1.3 3.1-3.5s-1.6-3.6-3.7-3.6h-4.8v11.9h1.5V105h2.4l3 4.7h1.7zm6.9 0v-5l4.6-6.9h-1.7l-3.7 5.5-3.7-5.5h-1.7l4.7 6.9v5zM45 10.6c4.3 0 5.4 3.1 3.3 15.5C45.2 44.8 40.8 51 35.4 51s-6-5.1-4.2-15.9c2.9-16.5 8.4-24.5 13.8-24.5zM24.4 4.1C13.9 4.1 9.7 16 8.7 25.6l4.1.4c1.1-8.8 3.7-15.4 6.7-15.4 2.5 0 2.4 2.2.6 12.2-1.5 9-5.8 29.8-8 38.9-1 4.3-2.9 5.9-6.8 5.9H3.1c-.1.6-1.2 6.2-1.4 7 0 0 9.8-.2 15.3-.2 5.4 0 15.2.2 15.2.2l1.5-7h-3c-4.4 0-5.6-1.6-4.7-5.9L28 51c1.7 4.1 5.1 6.6 11.2 6.6 11.1 0 21-9.8 23.9-31.4 2-15.8-3.8-22.1-11.9-22.1-7 0-13 4.4-16.9 12.8.4-7.9-2.1-12.8-9.9-12.8zM90 51c-4.4 0-5.4-3.2-3.3-15.5 3.1-18.6 7.5-24.9 12.9-24.9 5.5 0 6.1 5.1 4.3 15.8C101 43 95.5 51 90 51zm36.7-14.5l-4-.4c-1.2 8.9-3.6 15.2-6.8 15.2-2.3 0-2.5-3-1-11.9 1.4-8.1 5-25.4 6.9-33.5-.9.1-6.1.1-7 0-1.6 2.9-4.6 6.1-7 8.7-.8-6.2-4.2-10.4-12.1-10.4C85.1 4.1 74.6 14.3 72 35.5c-2.2 16.4 3.7 22.1 11.7 22.1 6.9 0 13.1-4.3 17.1-12.6-1 9.1 2.3 12.6 10.1 12.6 8.2 0 14.8-7.7 15.8-21.1zm38.6-25.9c4.3 0 5.4 3.1 3.3 15.5-3.2 18.6-7.5 24.9-13 24.9-5.4 0-6-5.1-4.2-15.9 2.9-16.5 8.4-24.5 13.9-24.5zm-20.7-6.5c-10.4 0-14.6 11.9-15.7 21.5l4.1.4c1.1-8.8 3.7-15.4 6.7-15.4 2.5 0 2.4 2.2.6 12.2-1.5 9-5.8 29.8-8 38.9-1 4.3-2.9 5.9-6.8 5.9h-2.3c-.1.6-1.2 6.2-1.4 7 0 0 9.8-.2 15.3-.2 5.4 0 15.2.2 15.2.2l1.5-7h-3c-4.4 0-5.6-1.6-4.7-5.9l2.2-10.7c1.7 4.1 5.1 6.6 11.2 6.6 11.1 0 21-9.8 23.9-31.4 2-15.8-3.8-22.1-11.9-22.1-7 0-13 4.4-16.9 12.8.3-7.9-2.1-12.8-10-12.8zM246.9 36c-1.2 8.9-3.6 15.2-6.8 15.2-2.5 0-2.2-3-.2-12.8 1.5-7.9 5.2-24.9 7-32.6 0 0-4.4.1-6.9.1s-6.9-.1-6.9-.1L229 25c-4.6 21.5-10.9 26-15 26-3.7 0-4.8-4.3-1.8-15.4l3.3-12.2c2.9-10.7.6-19.4-9.8-19.4-10.5 0-14.9 11.7-15.7 21.5l4 .4c1.1-8.8 3.4-15.4 7.2-15.4 2.2 0 2.6 2.7.2 11.7l-3.3 13.1c-3.7 14.5-1.4 22.1 9.4 22.1 7 0 13.3-3.7 17.7-12.7-.9 9.4 2.4 12.7 10.3 12.7 9.8 0 14.6-11.3 15.4-21.1l-4-.3z"/></svg>