<svg width="636" height="147" fill="currentColor" viewBox="0 0 636 147" xmlns="http://www.w3.org/2000/svg"><path d="M212.114 49.499c.184.052.368.052.605.105h.946c2.262 0 4.076-.761 5.391-2.232 1.315-1.47 1.999-3.44 1.999-5.96 0-1.419-.368-2.496-1.183-3.205-.763-.709-1.946-1.076-3.498-1.076h-.763c-.184 0-.341.052-.526.052a62.51 62.51 0 0 0-.71 2.311 43.204 43.204 0 0 0-.473 1.996l-1.788 8.035V49.5Zm-11.545 17.016c1.894-7.221 3.445-13.76 4.629-19.537 1.183-5.777 1.84-10.031 1.998-12.762h.237c1.525.131 2.656.184 3.419.184.604 0 1.84-.053 3.55-.105 1.709-.053 3.129-.105 4.207-.105 3.445 0 6.049.709 7.863 2.074 1.762 1.418 2.656 3.493 2.656 6.197 0 3.31-1.236 5.804-3.681 7.616-2.42 1.759-5.97 2.652-10.519 2.652-.421 0-.842 0-1.315-.053-.474 0-1.078-.052-1.946-.131l-.999 4.674a88.56 88.56 0 0 0-.895 4.858c-.236 1.55-.42 3.02-.578 4.386a51.573 51.573 0 0 0-2.472-.237c-.763-.052-1.42-.105-2.025-.105-.526 0-1.841.105-3.839.289l-.29.053v.052Zm46.915 0v-1.13c0-.892-.105-2.231-.29-4.017-.105-.473-.105-.814-.131-1.05l-.342-3.02a85.263 85.263 0 0 0-3.129-.236c-.947-.053-1.71-.053-2.42-.053-.42 0-1.052 0-1.84.053-.789.052-1.762.131-2.841.236l-1.761 3.072-.237.42c-1.289 2.233-2.262 4.123-2.972 5.725-.578-.052-1.052-.105-1.525-.131-.421-.053-.815-.053-1.078-.053-.368 0-.763 0-1.236.053-.473.052-.999.105-1.525.131a717.031 717.031 0 0 0 10.229-15.887 646.505 646.505 0 0 0 10.046-16.596c.421.053.894.105 1.288.132a8 8 0 0 0 1.052.052c.29 0 .579 0 .894-.053.369-.052.763-.105 1.184-.13l1.656 11.028c.763 4.858 1.473 9.138 2.183 12.762.71 3.598 1.368 6.512 1.999 8.692-1-.131-1.841-.236-2.656-.341-.842-.053-1.552-.105-2.183-.105-.473 0-1.078.052-1.841.105-.71.105-1.551.183-2.498.341h-.026Zm-9.099-12.71c.762.053 1.472.105 2.13.105.605.053 1.183.053 1.709.053.579 0 1.131 0 1.841-.053.657 0 1.42-.052 2.235-.104-.131-1.655-.342-3.362-.578-5.095-.184-1.76-.474-3.545-.763-5.435-1.078 1.601-2.183 3.256-3.208 5.015-1.078 1.707-2.235 3.545-3.366 5.54v-.026Zm13.359-27.467c0-.84.342-1.602.999-2.232.658-.656 1.473-.998 2.314-.998.894 0 1.657.342 2.314.946a3.11 3.11 0 0 1 .947 2.258c0 .998-.342 1.76-.947 2.363-.604.604-1.367.946-2.314.946-.946 0-1.709-.342-2.366-.946-.605-.656-.947-1.418-.947-2.363v.026Zm-8.862 0c0-.84.342-1.602.999-2.232.657-.656 1.473-.998 2.314-.998.894 0 1.657.342 2.314.946a3.11 3.11 0 0 1 .947 2.258c0 .998-.342 1.76-.947 2.363-.605.604-1.367.946-2.314.946-.947 0-1.709-.342-2.367-.946-.604-.656-.946-1.418-.946-2.363v.026Zm31.819 7.904a212.02 212.02 0 0 0-4.128 16.727 159.544 159.544 0 0 0-2.42 15.546 49.476 49.476 0 0 0-2.498-.236c-.762-.053-1.473-.105-2.077-.105-.474 0-1.052 0-1.71.052a37.06 37.06 0 0 0-2.498.289c1.762-6.434 3.208-12.473 4.365-18.119 1.158-5.646 1.894-10.346 2.236-14.18.841.105 1.604.184 2.314.236.71.053 1.288.105 1.657.105.762 0 1.525-.052 2.314-.105a37.628 37.628 0 0 0 2.472-.236l-.027.026Zm-4.602 40.098a6.847 6.847 0 0 1-.657-1.234c-.184-.42-.342-.893-.473-1.365 2.13-.053 3.655-.368 4.628-.998.973-.63 1.709-1.76 2.235-3.414.474-1.418.894-3.204 1.368-5.33a232.612 232.612 0 0 0 1.709-8.561l.289-1.418c1.604-8.692 2.42-14.653 2.42-17.778.894.105 1.762.184 2.55.237.789.052 1.473.105 2.025.105.526 0 1.131-.053 1.841-.105.71-.053 1.473-.132 2.314-.237-.473 1.47-1.052 3.65-1.656 6.486-.605 2.836-1.71 8.456-3.314 16.938a39.188 39.188 0 0 0-.368 2.232c-.71 4.149-1.552 7.09-2.603 8.85-1.079 1.89-2.604 3.308-4.603 4.253-1.946.893-4.391 1.366-7.284 1.366h-.421v-.027Zm38.684-7.799v-1.129c0-.893-.106-2.232-.29-4.018-.105-.472-.105-.814-.131-1.05l-.342-3.02a85.263 85.263 0 0 0-3.129-.236c-.947-.053-1.71-.053-2.42-.053-.42 0-1.052 0-1.84.053-.789.052-1.762.131-2.841.236l-1.761 3.073-.237.42c-1.289 2.232-2.262 4.122-2.972 5.724-.578-.052-1.052-.105-1.525-.131-.421-.052-.815-.052-1.078-.052-.368 0-.763 0-1.236.052-.474.053-.999.105-1.525.131a717.5 717.5 0 0 0 10.229-15.887 646.34 646.34 0 0 0 10.046-16.596c.421.053.894.105 1.288.132.421.052.763.052 1.052.052.29 0 .579 0 .894-.052a14.88 14.88 0 0 1 1.184-.132l1.656 11.03c.763 4.857 1.473 9.138 2.183 12.761.71 3.598 1.368 6.513 1.999 8.692-1-.131-1.841-.236-2.656-.341-.842-.053-1.552-.105-2.183-.105-.473 0-1.078.052-1.841.105-.71.105-1.551.184-2.498.341h-.026Zm-9.099-12.71c.762.053 1.472.106 2.13.106.605.052 1.183.052 1.709.052.579 0 1.131 0 1.841-.052.657 0 1.42-.053 2.235-.105-.131-1.655-.342-3.361-.578-5.095-.184-1.759-.474-3.545-.763-5.435-1.078 1.602-2.183 3.256-3.208 5.015-1.078 1.707-2.235 3.545-3.366 5.541v-.026Zm13.359-27.467c0-.84.342-1.601.999-2.232.658-.656 1.473-.998 2.314-.998.894 0 1.657.342 2.314.946a3.11 3.11 0 0 1 .947 2.258c0 .998-.342 1.76-.947 2.363-.604.604-1.367.946-2.314.946-.946 0-1.709-.341-2.366-.945-.605-.657-.947-1.419-.947-2.364v.026Zm-8.862 0c0-.84.342-1.601.999-2.232.657-.656 1.473-.998 2.314-.998.894 0 1.657.342 2.314.946a3.11 3.11 0 0 1 .947 2.258c0 .998-.342 1.76-.947 2.363-.605.604-1.367.946-2.314.946-.947 0-1.709-.341-2.367-.945-.604-.657-.946-1.419-.946-2.364v.026Zm16.409 40.177c1.604-5.96 2.972-11.738 4.076-17.305 1.131-5.62 1.946-10.582 2.42-14.994.473 0 1.051.053 1.709.105.657.105 1.078.132 1.288.132.132 0 .605-.053 1.368-.132.763-.052 1.42-.105 1.999-.105 1.525 2.364 3.786 6.04 6.863 11.056 3.13 5.067 5.496 8.849 7.048 11.343l2.13-11.396.052-.236c.842-4.49 1.526-8.088 1.894-10.793.605.105 1.078.131 1.42.184.342.052.605.052.815.052.342 0 .658 0 1.052-.052.395-.053.842-.105 1.473-.184-.763 2.258-1.71 5.96-2.84 11.16-1.131 5.147-2.604 12.342-4.366 21.56a26.437 26.437 0 0 1-1.42-.185c-.421-.052-.815-.052-1.131-.052-.368 0-.815 0-1.288.052-.474.053-.947.105-1.473.184a352.295 352.295 0 0 0-7.205-12.867c-2.314-3.913-4.629-7.668-6.969-11.108l-1.893 10.215c-.369 2.18-.71 4.36-1.052 6.513-.342 2.232-.658 4.49-1 6.8-.815-.13-1.42-.236-1.762-.288-.341-.053-.578-.053-.815-.053-.289 0-.605.053-1.052.105-.447.053-.841.132-1.367.237l.026.052Zm35.922 0c1.604-5.96 2.972-11.738 4.076-17.305 1.131-5.62 1.946-10.582 2.42-14.994.473 0 1.052.053 1.709.105.657.105 1.078.132 1.289.132.131 0 .604-.053 1.367-.132.763-.052 1.42-.105 1.999-.105 1.525 2.364 3.786 6.04 6.863 11.056 3.13 5.067 5.496 8.849 7.048 11.343l2.13-11.396.053-.236c.841-4.49 1.525-8.088 1.893-10.793.605.105 1.078.131 1.42.184.342.052.605.052.815.052.342 0 .658 0 1.052-.052.395-.053.842-.105 1.473-.184-.763 2.258-1.71 5.96-2.84 11.16-1.131 5.147-2.604 12.342-4.366 21.56a26.437 26.437 0 0 1-1.42-.185c-.42-.052-.815-.052-1.13-.052-.369 0-.816 0-1.289.052-.473.053-.947.105-1.473.184a352.295 352.295 0 0 0-7.205-12.867c-2.314-3.913-4.628-7.668-6.969-11.108l-1.893 10.215c-.368 2.18-.71 4.36-1.052 6.513-.342 2.232-.658 4.49-1 6.8-.815-.13-1.42-.236-1.761-.288-.342-.053-.579-.053-.816-.053-.289 0-.605.053-1.052.105-.447.053-.841.132-1.367.237l.026.052Zm35.554 0a221.027 221.027 0 0 0 4.024-16.648c1.078-5.436 1.946-10.635 2.498-15.65 1.42.104 2.84.183 4.313.236 1.472.052 2.945.105 4.391.105 1.131 0 2.472-.053 3.971-.105 1.552-.053 3.656-.132 6.338-.237a6.638 6.638 0 0 0-.71 1.943c-.184.657-.289 1.418-.342 2.232-1.42-.236-2.788-.367-4.129-.525a48.114 48.114 0 0 0-3.839-.131c-.579 0-1.368.052-2.419.105h-.106c-.341.814-.71 2.232-1.13 4.149v.131l-1.052 5.331c.368.053.946.105 1.656.105 1.315.105 2.131.131 2.499.131 1.078 0 2.945-.105 5.548-.236.342-.052.579-.052.71-.052-.236.603-.42 1.181-.526 1.785a7.707 7.707 0 0 0-.184 1.76v.603c-1.367-.13-2.787-.236-4.155-.34-1.42-.053-2.787-.106-4.155-.106h-1.051c-.474.053-.816.053-1.052.053l-1.315 6.144c-.237 1.234-.474 2.259-.605 3.125-.132.867-.237 1.602-.289 2.258 1.656 0 3.445-.105 5.338-.183 1.893-.08 4.024-.237 6.338-.42a16.32 16.32 0 0 0-.579 2.021 15.203 15.203 0 0 0-.421 2.364 269.029 269.029 0 0 0-5.627-.237c-1.762-.052-3.314-.052-4.734-.052-.999 0-2.261 0-3.839.052-1.578.053-3.366.132-5.444.237l.079.052Zm48.808-17.646c.184 0 .368.052.579.052h.999c2.656 0 4.733-.604 6.153-1.785 1.473-1.182 2.183-2.941 2.183-5.147 0-1.602-.421-2.784-1.315-3.492-.894-.762-2.314-1.13-4.207-1.13h-.763c-.289 0-.579.053-.894.053-.132.525-.289 1.129-.473 1.785-.185.657-.342 1.419-.526 2.233l-1.71 7.457-.026-.026Zm-11.466 17.646c1.894-7.221 3.445-13.76 4.629-19.537 1.183-5.777 1.84-10.03 1.998-12.762.71.053 1.473.105 2.236.132.762.026 1.551.052 2.419.052.947 0 2.235-.053 3.839-.105 1.552-.052 2.709-.105 3.314-.105 3.602 0 6.285.657 8.047 1.943 1.762 1.287 2.656 3.204 2.656 5.803 0 2.6-.815 4.675-2.42 6.198-1.551 1.47-3.918 2.31-6.968 2.547a245.987 245.987 0 0 0 3.26 8.035c1.131 2.6 2.262 5.2 3.498 7.747-.131 0-.342-.053-.579-.105-2.314-.184-3.839-.342-4.549-.342-.526 0-1.078.053-1.762.105-.605.053-1.525.132-2.656.342-.657-2.731-1.367-5.305-2.183-7.8a96.965 96.965 0 0 0-2.498-7.09h-1.288l-1.079 5.62c-.131.762-.368 1.943-.604 3.545a168.226 168.226 0 0 0-.71 5.725 51.826 51.826 0 0 0-2.472-.237c-.763-.052-1.42-.105-2.025-.105-.579 0-1.841.105-3.84.29l-.289.052.026.052Zm45.021-32.299a212.02 212.02 0 0 0-4.128 16.727 159.544 159.544 0 0 0-2.42 15.546 49.476 49.476 0 0 0-2.498-.236c-.763-.053-1.473-.105-2.077-.105-.474 0-1.052 0-1.71.052a37.06 37.06 0 0 0-2.498.289c1.762-6.434 3.208-12.473 4.365-18.119 1.157-5.646 1.894-10.346 2.236-14.18.841.105 1.604.184 2.314.236.71.053 1.288.105 1.657.105.762 0 1.525-.052 2.314-.105a37.628 37.628 0 0 0 2.472-.236l-.027.026Zm-.946 30.225c.368-1.13.762-2.311 1.078-3.598a77.766 77.766 0 0 0 1.131-4.201l.526.289c.368 2.363 1.235 4.149 2.498 5.33 1.262 1.182 3.024 1.786 5.207 1.786 1.551 0 2.84-.42 3.839-1.287.999-.814 1.525-1.89 1.525-3.203 0-1.419-1.315-3.257-3.918-5.489-.237-.184-.421-.341-.526-.42-2.945-2.468-4.839-4.385-5.68-5.724-.815-1.366-1.236-2.836-1.236-4.386 0-2.888 1.052-5.252 3.077-7.142 2.077-1.838 4.733-2.784 7.994-2.784 1.762 0 3.445.184 5.075.578 1.631.394 3.182.945 4.629 1.707-.421.945-.763 1.996-1.131 2.967a53.286 53.286 0 0 0-.947 3.256l-.578-.131c-.368-1.707-1.184-2.967-2.314-3.913-1.079-.892-2.499-1.365-4.208-1.365-1.473 0-2.656.367-3.498 1.129-.894.762-1.314 1.76-1.314 3.02 0 1.47 1.551 3.492 4.628 6.04.289.183.473.367.605.472 2.472 2.022 4.076 3.676 4.838 4.963.816 1.234 1.184 2.6 1.184 4.123 0 3.256-1.131 5.856-3.366 7.799-2.235 1.943-5.26 2.888-9.099 2.888a21.7 21.7 0 0 1-5.26-.656 20.64 20.64 0 0 1-4.786-2.022l.027-.026Zm29.716 2.074c.999-3.177 1.998-7.09 3.024-11.764 1.025-4.674 2.13-10.32 3.261-16.937h-.947c-3.366.131-6.022.289-7.942.367.237-.577.421-1.129.526-1.759a8.192 8.192 0 0 0 .184-1.838v-.368c3.13.132 5.68.237 7.705.29 2.025.052 3.734.104 5.023.104 1.289 0 2.972-.052 4.97-.105 1.999-.052 4.602-.131 7.705-.289a9.259 9.259 0 0 0-.473 1.76 6.815 6.815 0 0 0-.184 1.654v.578c-1.709-.105-3.182-.184-4.55-.29-1.314-.052-2.55-.104-3.734-.104a142.778 142.778 0 0 0-3.418 13.707c-1 4.78-1.762 9.795-2.315 14.994a44.063 44.063 0 0 0-2.419-.236c-.763-.053-1.42-.105-1.998-.105-.579 0-1.289.052-1.999.105-.763.052-1.604.131-2.472.236h.053Zm19.46 0a220.525 220.525 0 0 0 4.023-16.648c1.078-5.436 1.946-10.635 2.498-15.65 1.42.104 2.84.183 4.313.236 1.473.052 2.945.105 4.392.105 1.13 0 2.472-.053 3.971-.105 1.551-.053 3.655-.132 6.337-.237a6.667 6.667 0 0 0-.71 1.943c-.184.657-.289 1.418-.342 2.232-1.42-.236-2.787-.367-4.128-.525a48.138 48.138 0 0 0-3.84-.131c-.578 0-1.367.052-2.419.105h-.105c-.342.814-.71 2.232-1.131 4.149v.131l-1.052 5.331c.368.053.947.105 1.657.105 1.315.105 2.13.131 2.498.131 1.078 0 2.945-.105 5.549-.236.342-.052.578-.052.71-.052-.237.603-.421 1.181-.526 1.785a7.652 7.652 0 0 0-.184 1.76v.603c-1.368-.13-2.788-.236-4.155-.34-1.42-.053-2.788-.106-4.155-.106h-1.052c-.473.053-.815.053-1.052.053l-1.315 6.144c-.237 1.234-.473 2.259-.605 3.125-.131.867-.236 1.602-.289 2.258 1.657 0 3.445-.105 5.338-.183 1.894-.08 4.024-.237 6.338-.42a16.147 16.147 0 0 0-.578 2.021 15.086 15.086 0 0 0-.421 2.364 269.393 269.393 0 0 0-5.628-.237c-1.762-.052-3.313-.052-4.733-.052-1 0-2.262 0-3.84.052a319.73 319.73 0 0 0-5.443.237l.079.052Zm40.05-32.299a212.02 212.02 0 0 0-4.128 16.727 159.544 159.544 0 0 0-2.42 15.546 49.476 49.476 0 0 0-2.498-.236c-.763-.053-1.473-.105-2.077-.105-.474 0-1.052 0-1.71.052a37.06 37.06 0 0 0-2.498.289c1.762-6.434 3.208-12.473 4.365-18.119 1.157-5.646 1.894-10.346 2.236-14.18.841.105 1.604.184 2.314.236.71.053 1.288.105 1.656.105.763 0 1.526-.052 2.315-.105a37.628 37.628 0 0 0 2.472-.236l-.027.026Zm15.437 0c-1.604 5.804-2.945 11.213-3.971 16.176-1.052 5.016-1.709 9.138-2.025 12.342 1.604-.053 3.366-.131 5.26-.236 1.84-.105 3.891-.29 6.022-.473-.29.814-.474 1.55-.658 2.31-.131.71-.236 1.471-.289 2.18-1.946-.052-3.839-.105-5.733-.131a416.58 416.58 0 0 0-5.785-.052c-1.526 0-2.946 0-4.26.052-1.289.053-2.551.105-3.735.131 1.894-7.457 3.419-13.89 4.497-19.3 1.078-5.41 1.788-9.743 2.025-12.999.894.105 1.709.184 2.419.237.763.052 1.368.105 1.841.105.526 0 1.184-.053 1.946-.105a54.952 54.952 0 0 0 2.472-.237h-.026ZM587.429 66.515c.421-1.365.947-3.781 1.657-7.221.184-.814.289-1.418.368-1.786l.947-4.543c-.605-3.02-1.315-6.04-2.262-9.164a123.151 123.151 0 0 0-3.182-9.559c1.315.132 2.235.184 2.788.236.525.053.946.106 1.314.106.526 0 1.131-.053 1.841-.106.71-.052 1.657-.13 2.893-.236.342 2.232.815 4.49 1.315 6.749.578 2.258 1.183 4.543 1.946 6.854a143.112 143.112 0 0 0 4.786-6.513c1.525-2.258 2.971-4.621 4.392-7.09.052 0 .105.053.184.053 1.236.183 2.025.289 2.419.289.289 0 .657-.053 1.078-.106a98.845 98.845 0 0 0 1.788-.236 254.888 254.888 0 0 0-7.1 9.165 162.881 162.881 0 0 0-6.338 9.086l-1.051 4.726c-.342 1.366-.605 2.784-.842 4.36-.237 1.575-.473 3.203-.605 4.962-1.183-.131-2.077-.184-2.656-.289-.578-.052-1.078-.052-1.472-.052-.579 0-1.236.052-1.946.105-.71.052-1.473.131-2.315.236l.053-.026Zm25.035 0c.999-3.177 1.999-7.09 3.024-11.764 1.026-4.674 2.13-10.32 3.261-16.938h-.947c-3.366.132-6.022.29-7.941.368.236-.578.42-1.129.526-1.76a8.251 8.251 0 0 0 .184-1.837v-.368c3.129.131 5.68.236 7.705.289 2.025.052 3.734.105 5.022.105 1.289 0 2.972-.053 4.971-.105 1.998-.053 4.602-.132 7.705-.29-.237.605-.368 1.183-.474 1.76a6.815 6.815 0 0 0-.184 1.655v.577c-1.709-.105-3.182-.183-4.549-.288-1.315-.053-2.551-.105-3.734-.105a143.073 143.073 0 0 0-3.419 13.707c-.999 4.78-1.762 9.795-2.314 14.994a44.258 44.258 0 0 0-2.419-.236c-.763-.053-1.421-.105-1.999-.105-.579 0-1.289.052-1.999.105-.762.052-1.604.13-2.472.236h.053ZM211.93 98.263l-1.552 7.273a46.155 46.155 0 0 0-.71 3.966 94.824 94.824 0 0 0-.473 4.254 42.975 42.975 0 0 0-2.367-.237c-.71-.052-1.367-.105-1.946-.105-.578 0-1.236.053-1.946.105-.71.053-1.525.132-2.367.237a333.853 333.853 0 0 0 4.313-18.146c1.131-5.54 1.894-10.215 2.314-14.127 1.289.131 2.236.236 2.735.289.579.052.999.052 1.368.052.578 0 1.236-.052 1.998-.105a46.824 46.824 0 0 0 2.42-.236c-.605 1.943-1.131 4.123-1.657 6.565-.105.288-.132.472-.132.577l-1.288 5.778c1.288.052 2.498.104 3.603.104 1.13.053 2.13.053 3.024.053.473 0 1.183 0 2.235-.053.999 0 2.262-.052 3.787-.105l.999-4.674c.289-1.234.526-2.547.71-3.912.237-1.418.421-2.836.579-4.307a42.34 42.34 0 0 0 2.366.236c.71.053 1.368.105 1.946.105.579 0 1.184-.052 1.946-.105.71-.052 1.526-.13 2.367-.236-1.762 6.617-3.182 12.683-4.313 18.198-1.13 5.488-1.893 10.215-2.314 14.101a43.143 43.143 0 0 0-2.235-.236c-.684-.053-1.183-.105-1.604-.105-.579 0-1.184 0-1.894.052-.71.053-1.656.132-2.84.289.342-1.129.605-2.311.894-3.44.29-1.076.579-2.363.895-3.676l1.788-8.377c-.132 0-.342 0-.579-.052-2.892-.105-4.97-.132-6.285-.132-.605 0-1.42 0-2.419.053-.999.052-2.13.105-3.366.131v-.052Zm39.814-16.78a212.037 212.037 0 0 0-4.129 16.727 159.522 159.522 0 0 0-2.419 15.546 50.103 50.103 0 0 0-2.498-.237c-.763-.052-1.473-.105-2.078-.105-.473 0-1.052 0-1.709.053-.605.052-1.473.131-2.498.289 1.761-6.434 3.208-12.474 4.365-18.12 1.157-5.645 1.893-10.346 2.235-14.18.842.106 1.604.184 2.314.237.71.052 1.289.105 1.657.105.763 0 1.525-.053 2.314-.105a37.497 37.497 0 0 0 2.472-.236l-.026.026Zm15.436 0c-1.604 5.803-2.945 11.213-3.971 16.176-1.051 5.015-1.709 9.138-2.024 12.342a236.85 236.85 0 0 0 5.259-.237c1.841-.105 3.892-.289 6.022-.472-.289.814-.473 1.549-.657 2.31a20.601 20.601 0 0 0-.29 2.18c-1.946-.053-3.839-.105-5.732-.131a406.18 406.18 0 0 0-5.786-.053c-1.525 0-2.945 0-4.26.053-1.289.052-2.551.105-3.734.131 1.893-7.458 3.418-13.891 4.497-19.3 1.078-5.41 1.788-9.743 2.025-13 .894.106 1.709.185 2.419.237.763.053 1.367.105 1.841.105.526 0 1.183-.052 1.946-.105a55.23 55.23 0 0 0 2.472-.236h-.027Zm6.575 32.299a231 231 0 0 0 4.023-16.832c1.078-5.489 1.946-10.583 2.498-15.467.816.105 1.473.131 2.025.184.553.052 1.052.052 1.526.052.71 0 2.024-.052 3.97-.131 1.946-.053 3.551-.105 4.839-.105 2.498 0 4.55.131 6.101.472 1.552.29 2.893.762 4.024 1.419 1.788 1.05 3.208 2.494 4.207 4.359.999 1.785 1.525 3.886 1.525 6.092 0 6.328-1.946 11.265-5.811 14.758-3.919 3.492-9.415 5.251-16.515 5.251-1.236 0-2.787-.052-4.628-.183-1.841-.132-3.024-.184-3.656-.184-.368 0-.815 0-1.314.052-.5.053-1.473.132-2.788.289l-.026-.026Zm9.046-3.309c.71.131 1.367.237 1.946.289.579.053 1.078.105 1.552.105 4.154 0 7.521-1.523 10.098-4.49 2.603-3.02 3.892-6.906 3.892-11.738 0-3.309-.816-5.856-2.42-7.563-1.604-1.707-4.023-2.547-7.205-2.547-.421 0-.815 0-1.236.053-.421 0-.842.052-1.315.105-1.289 4.542-2.314 8.98-3.208 13.234-.842 4.307-1.552 8.456-2.078 12.578l-.026-.026Zm26.928 3.309a220.016 220.016 0 0 0 4.024-16.649c1.078-5.435 1.946-10.635 2.498-15.65 1.42.105 2.84.184 4.313.236 1.473.053 2.945.105 4.392.105 1.13 0 2.471-.052 3.97-.105 1.552-.052 3.656-.131 6.338-.236a6.667 6.667 0 0 0-.71 1.943c-.184.656-.289 1.418-.342 2.232-1.42-.236-2.787-.368-4.129-.525a48.098 48.098 0 0 0-3.839-.131c-.578 0-1.367.052-2.419.105h-.105c-.342.814-.71 2.232-1.131 4.149v.13l-1.052 5.332c.368.052.947.105 1.657.105 1.314.105 2.13.13 2.498.13 1.078 0 2.945-.104 5.549-.235.341-.053.578-.053.71-.053-.237.604-.421 1.182-.526 1.786a7.652 7.652 0 0 0-.184 1.76v.603c-1.368-.131-2.788-.236-4.155-.341-1.42-.053-2.788-.105-4.155-.105h-1.052c-.474.052-.815.052-1.052.052l-1.315 6.145c-.237 1.234-.473 2.258-.605 3.125-.131.866-.237 1.602-.289 2.258 1.657 0 3.445-.105 5.338-.184 1.894-.079 4.024-.236 6.338-.42a16.352 16.352 0 0 0-.579 2.022 15.09 15.09 0 0 0-.42 2.363 272.71 272.71 0 0 0-5.628-.236c-1.762-.052-3.313-.052-4.734-.052-.999 0-2.261 0-3.839.052-1.578.053-3.366.131-5.443.236l.078.053Zm24.667 0c1.604-5.961 2.972-11.738 4.076-17.305 1.131-5.62 1.946-10.583 2.42-14.994.473 0 1.052.052 1.709.105.657.105 1.078.131 1.289.131.131 0 .604-.052 1.367-.131.763-.053 1.42-.105 1.999-.105 1.525 2.363 3.786 6.04 6.863 11.055 3.13 5.068 5.496 8.849 7.048 11.344l2.13-11.397.053-.236c.841-4.49 1.525-8.088 1.893-10.792.605.105 1.078.13 1.42.183.342.053.605.053.815.053.342 0 .658 0 1.052-.053.395-.052.842-.105 1.473-.183-.763 2.258-1.71 5.96-2.84 11.16-1.131 5.147-2.604 12.342-4.366 21.559-.473-.053-.946-.105-1.42-.184-.42-.053-.815-.053-1.13-.053-.369 0-.816 0-1.289.053-.473.052-.947.105-1.473.184a351.868 351.868 0 0 0-7.205-12.867c-2.314-3.913-4.628-7.668-6.969-11.108l-1.893 10.215c-.369 2.179-.71 4.359-1.052 6.512-.342 2.232-.658 4.491-1 6.801-.815-.131-1.42-.236-1.761-.288-.342-.053-.579-.053-.816-.053-.289 0-.605.053-1.052.105-.447.053-.841.131-1.367.236l.026.053Zm69.688-29.83c-3.261 0-5.969 1.601-8.047 4.831-2.077 3.23-3.129 7.379-3.129 12.526 0 3.256.657 5.724 1.998 7.379 1.341 1.654 3.261 2.494 5.812 2.494 3.419 0 6.154-1.549 8.231-4.726 2.13-3.178 3.182-7.327 3.182-12.447 0-3.31-.657-5.804-2.025-7.51-1.367-1.707-3.366-2.548-6.022-2.548Zm-3.839 30.408c-4.971 0-8.915-1.287-11.755-3.834-2.84-2.495-4.26-6.014-4.26-10.399 0-2.783.578-5.436 1.709-7.983 1.131-2.547 2.709-4.779 4.733-6.565 1.789-1.549 3.84-2.73 6.101-3.545 2.262-.814 4.787-1.234 7.521-1.234 5.313 0 9.283 1.182 12.071 3.598 2.735 2.416 4.129 5.908 4.129 10.503 0 5.725-1.894 10.347-5.628 13.997-3.787 3.65-8.652 5.488-14.621 5.488v-.026ZM424.938 113.782c.421-1.366.946-3.781 1.657-7.221.184-.814.289-1.418.368-1.786l.946-4.543c-.604-3.02-1.314-6.04-2.261-9.165a123.137 123.137 0 0 0-3.182-9.558c1.315.131 2.235.184 2.787.236.526.053.947.105 1.315.105.526 0 1.131-.052 1.841-.105.71-.052 1.657-.13 2.893-.236.342 2.232.815 4.49 1.315 6.749.578 2.258 1.183 4.543 1.946 6.854a143.874 143.874 0 0 0 4.786-6.513c1.525-2.258 2.971-4.621 4.391-7.09.053 0 .106.053.184.053 1.236.183 2.025.288 2.42.288.289 0 .657-.052 1.078-.105a98.845 98.845 0 0 0 1.788-.236 254.888 254.888 0 0 0-7.1 9.165 162.314 162.314 0 0 0-6.338 9.085l-1.052 4.727c-.341 1.366-.604 2.784-.841 4.359-.237 1.576-.474 3.204-.605 4.963-1.183-.131-2.077-.184-2.656-.289-.579-.052-1.078-.052-1.473-.052-.578 0-1.236.052-1.946.105-.71.052-1.472.131-2.314.236l.053-.026Z"/><path fill-rule="evenodd" clip-rule="evenodd" d="m52.937 89.702.42-2.337h.973c.737 0 1.815.131 1.63 1.103-.157.893-.788 1.234-1.603 1.234h-1.42Zm-1 5.725.579-3.257h1.735c3.025 0 4.602-1.418 5.023-3.676.368-2.153-.841-3.545-3.866-3.545H50.36l-1.84 10.504h3.445l-.027-.026ZM63.928 87.365h1.605c.815 0 1.314.341 1.183 1.103-.132.735-.736.998-1.815.998h-1.367l.368-2.075.026-.026Zm.263 4.385c1.605 0 1.762.447 1.526 1.812-.158.945-.184 1.602-.158 1.838h3.497l.053-.315c-.42 0-.29-.472-.053-1.838.368-2.127-.263-2.363-1.288-2.783 1.288-.342 1.998-1.366 2.209-2.574.368-2.048-.631-2.993-4.129-2.993h-4.97L59.038 95.4h3.444l.657-3.65h1.052Z"/><path d="m73.974 95.4.737-4.07h3.234l-.71 4.07h3.445l1.84-10.503h-3.444l-.605 3.545h-3.26l.63-3.545h-3.445L70.53 95.4h3.445Z"/><path d="M174.351 38.759c6.338 12.473 9.572 26.102 8.284 41.831-10.703 4.543-21.906 9.559-35.055 8.114l-14.936-3.886-17.199-5.2c-2.603-.157-6.495-2.441-7.942.657-2.261 4.543-5.022 8.928-6.968 13.629l.657.499h78.419c-6.969 27.231-34.424 48.947-61.694 52.046-19.486 2.442-38.157-2.757-53.725-12.972l2.261-4.701L92.908 80.8v-.499H7.784l-1.473-2.757h91.41l-25.482 46.19c1.946 1.628 4.865.657 7.152.814l2.604-3.229 27.928-51.39c0-.315-.5-.657-.658-.972H1.63L0 66.357l12.333.158H30.69l3.576-.315C36.87 41.227 54.567 15.94 78.576 6.066c25.64-11.554 59.248-6.197 79.707 12.92 5.996 5.514 12.334 12.473 16.068 19.773Z"/></svg>