<svg width="170" height="54" xmlns="http://www.w3.org/2000/svg" viewBox="0 0 272.7 88"><path fill="#EC1C24" d="M30.4 36.9l-1.7-6.1 5-1.2c2.5-.6 5-1.1 5-1.1.4-.1.8-.2 1.2-.2.4 0 .7-.1 1.1-.1.3 0 .7 0 1 .1.3 0 .6.1.9.2.1 0 .3.1.4.1.1.1.2.1.3.2.1.1.2.1.3.2.1.1.2.2.3.2.1.1.2.2.2.3l.1.1s.1.1.1.2.1.1.1.2 0 .1.1.2v1l-5.4 1.2c-2.7.6-5.3 1.2-5.3 1.2l.5 1.9c0 .4-4.2 1.4-4.2 1.4"/><path fill="#808184" d="M14.5 66.4c9.8-3 19.7-5.6 29.7-7.8-.7-2.6-1.4-5.1-2.1-7.7 1.6.6 3.2 1.2 4.8 1.9.8 3 1.5 5.9 2.3 8.9-9.4 2-18.8 4.3-28.2 7-2.1-.8-4.3-1.5-6.5-2.3m84.1-15.9c8.8-.7 17.7-1.2 26.5-1.3 0-2.7 0-5.3.1-8 1.3 1 2.6 2.1 3.9 3.1-.1 3-.1 6-.2 8.9-8.1 0-16.3.3-24.4.9-2-1.1-4-2.3-5.9-3.6m124.9-.9c5.4 1 10.9 2 16.3 3-.2-1.1-.5-2.2-.7-3.4-4.6-.8-9.1-1.7-13.7-2.5-.6 1-1.2 2-1.9 2.9m-189-3.1s.9-.2 2.3-.6c1.4-.3 3.2-.8 5.1-1.2 1.9-.4 3.7-.8 5.1-1.1 1.4-.3 2.3-.5 2.3-.5.9-.2 1.8-.4 2.6-.6.8-.2 1.5-.4 2.2-.5l.9-.3c.3-.1.6-.2.8-.3.3-.1.5-.2.7-.3.1 0 .2-.1.3-.1.1 0 .2-.1.3-.1.1 0 .2-.1.3-.1.1 0 .2-.1.3-.1l.6-.3c.2-.1.4-.2.5-.3.2-.1.3-.2.5-.3.2-.1.3-.2.5-.4.2-.1.3-.3.5-.4.1-.1.2-.1.2-.2l.2-.2.1-.1.1-.1.1-.1.1-.1.1-.1.1-.1.1-.1.1-.1c.1-.1.2-.2.2-.3.1-.1.1-.2.2-.3.1-.2.3-.4.4-.6.1-.2.2-.4.4-.6l.3-.6.3-.6c.2-.4.3-.9.5-1.3.1-.2.1-.4.2-.7 0-.2.1-.5.1-.7.1-.5.1-.9.1-1.4v-1.4c0-.2 0-.5-.1-.7 0-.1 0-.2-.1-.4v-.8c0-.1-.1-.3-.1-.4-.1-.3-.1-.5-.2-.7-.1-.2-.2-.5-.2-.7-.1-.2-.2-.5-.3-.7-.1-.2-.2-.4-.3-.7-.1-.1-.1-.2-.2-.3-.1-.1-.1-.2-.2-.3-.1-.1-.1-.2-.2-.3-.1-.1-.1-.2-.2-.3l-.1-.1-.1-.1-.1-.1-.1-.1-.1-.1s0-.1-.1-.1c0 0 0-.1-.1-.1 0-.1-.1-.1-.2-.2l-.2-.2-.2-.2c-.1-.1-.1-.2-.2-.2-.1-.2-.3-.3-.5-.5l-.5-.5c-.2-.2-.4-.3-.6-.5-.2-.2-.4-.3-.7-.5-.1-.1-.2-.1-.4-.2-.1-.1-.3-.1-.4-.2-.1-.1-.3-.1-.4-.2-.1-.1-.3-.1-.4-.2-.3-.1-.5-.2-.8-.3-.3-.1-.5-.2-.8-.3-.3-.1-.5-.2-.8-.3-.3-.1-.5-.1-.8-.2-.1 0-.3-.1-.4-.1-.1 0-.3-.1-.4-.1-.1 0-.3 0-.4-.1h-4.4c-.2 0-.4 0-.6.1-.4 0-.8.1-1.2.1-.4.1-.8.1-1.2.2-.4.1-.8.1-1.2.2-.2 0-.4.1-.6.1-.2 0-.4.1-.6.1-.1 0-.2 0-.3.1h-1c-.1 0-.2 0-.3.1-.1 0-.2 0-.3.1-.2 0-.5.1-.8.2-.3.1-.6.1-.9.2-.3.1-.7.2-1.1.2l-1.2.3c-.4.1-.9.2-1.4.3-1 .2-2 .5-3.1.7-1.1.3-2.2.5-3.4.8l-3.6.9c-1.2.3-2.5.6-3.7 1-2.5.6-4.9 1.3-7.2 1.9-2.3.6-4.4 1.2-6.1 1.8-1.8.5-3.2 1-4.3 1.3-1 .3-1.6.5-1.6.5l1.4-1.3 1.5-.5c1-.3 2.4-.7 4.1-1.2 1.7-.5 3.7-1.1 5.9-1.7 2.2-.6 4.5-1.2 6.9-1.8 2.4-.6 4.8-1.2 7-1.8 2.3-.5 4.4-1 6.2-1.5 1.8-.4 3.4-.8 4.5-1 1.1-.2 1.7-.4 1.7-.4.7-.2 1.5-.3 2.3-.4.4-.1.8-.1 1.2-.2.4-.1.8-.1 1.2-.2.4 0 .8-.1 1.2-.1h4.2c.2 0 .3 0 .5.1.2 0 .3 0 .5.1.2 0 .3 0 .5.1.2 0 .3.1.5.1.3.1.7.1 1 .2.3.1.6.2.9.2l.9.3c.3.1.6.2.8.3.1.1.2.1.4.2.1.1.2.1.3.2.1.1.2.1.3.2.1.1.2.1.3.2.2.1.3.2.5.3.2.1.3.2.4.2.1.1.3.2.4.2.1.1.2.2.4.2.1.1.2.2.4.2.1.1.3.2.4.3l.2.2.2.2c.1.1.2.1.2.2.1.1.2.1.2.2.2.1.3.3.5.4l.9.9.5.5c.1.2.3.3.4.5.1.2.3.3.4.5.1.1.1.2.2.3.1.1.1.2.2.3l.1.1.1.1c.1.1.1.2.2.3.1.1.1.2.2.3.1.1.2.2.2.4.2.2.3.5.5.8.2.3.3.5.5.8.2.3.3.5.5.8.1.1.1.3.2.4.1.1.1.3.2.4.1.1.1.3.2.4.1.1.1.3.1.4 0 .1 0 .1.1.2 0 .1 0 .1.1.2v3.6c0 .3 0 .5-.1.8 0 .3-.1.5-.1.8-.1.3-.1.5-.2.8s-.1.5-.2.8c-.1.3-.2.5-.3.8-.1.3-.2.5-.3.7-.1.2-.2.5-.4.7-.1.2-.3.5-.4.7-.1.2-.3.4-.5.7-.2.2-.3.4-.5.6l-.3.3-.3.3-.3.3c-.1 0-.1.1-.2.1 0 0-.1 0-.1.1 0 0-.1 0-.1.1l-.1.1-.1.1-.1.1c-.1.1-.2.2-.3.2-.1.1-.2.2-.3.2-.1.1-.2.2-.3.2-.2.2-.4.3-.6.5-.2.1-.4.3-.6.4-.2.1-.4.3-.7.4-.2.1-.4.3-.7.4-.2.1-.5.2-.7.4-.1.1-.2.1-.4.2-.1.1-.2.1-.4.2-.1.1-.3.1-.4.2-.1.1-.3.1-.4.2l-.9.3c-.3.1-.6.2-1 .3-.3.1-.7.2-1 .3-.2 0-.4.1-.6.1-.2 0-.4.1-.6.1-.2 0-.4.1-.6.1-.2 0-.4.1-.6.1-.2 0-.4.1-.6.1-.1 0-.2 0-.3.1-.1 0-.2 0-.3.1-.1 0-.2 0-.3.1H49.4c-.1 0-.2 0-.3.1-.1 0-.2 0-.3.1-.1 0-.3.1-.4.1-.1 0-.3.1-.5.1s-.3.1-.5.1c.6 0 .2 0-.2.1s-.8.2-1.3.3c-.4.1-.9.2-1.4.3-.5.1-.9.2-1.4.3-.9.2-1.9.4-2.7.6-.9.2-1.7.4-2.4.6-.7.2-1.3.3-1.7.4-.4.1-.6.2-.6.2l-1.2-4.3m90.4-38.9h8.6c1.4 0 2.8 0 4.3.1h2.1c.7 0 1.4 0 2.1.1.7 0 1.4 0 2.1.1.7 0 1.4 0 2.1.1.7 0 1.4.1 2.1.1.7 0 1.4.1 2.1.1.3 0 .7 0 1 .1.3 0 .7 0 1 .1.3 0 .7 0 1 .1.3 0 .7 0 1 .1h5.2c.1.1.2.2.3.2l.1.1.1.1.1.1.1.1.1.1.1.1.1.1.1.1.1.1.1.1.1.1.1.1.3.3.3.3.3.3c.2.2.4.4.6.5.2.2.4.4.6.5.2.2.4.4.6.5l1.1 1.1c.9 2.8 2.6 6.7 3.4 9.5-1 1.6-2 3.1-3 4.7-2-5.8-4.7-12.8-7-18.6-11.5-.8-23.2-1.1-35.1-.9 1.1 0 1.4-.3 1.7-.6m54.2 3c1.4.2 2.8.3 4.1.5 1.4.2 2.7.3 4.1.5 1.4.2 2.7.4 4.1.6.7.1 1.3.2 2 .3.7.1 1.3.2 2 .3.7.1 1.3.2 2 .3.7.1 1.3.2 2 .3.7.1 1.3.2 2 .3.7.1 1.3.2 2 .3.3.1.6.1 1 .2.3.1.6.1 1 .2.3.1.6.1 1 .2.3.1.6.1 1 .2.2 0 .3.1.5.1s.3.1.5.1.3.1.5.1.3.1.5.1.3.1.5.1h1.5c0 .1.1.2.1.2v.8c0 .1 0 .1.1.2 0 .1 0 .1.1.2 0 .1 0 .1.1.2 0 .1 0 .1.1.2 0 .1.1.2.1.3 0 .1.1.2.1.3 0 .1.1.2.1.3.1.2.2.5.2.7.1.2.2.5.2.7.1.2.2.5.2.7.2.5.3.9.5 1.4-2.1 2.4-4.2 5.6-6.3 8-2.5-.4-4.9-.9-7.4-1.3-1 5.4-2 10.8-2.9 16.3-1.4-.2-2.8-.5-4.2-.7 1.2-6.8 2.4-13.5 3.6-20.3 2.5.4 5.1.8 7.6 1.3 2.1-2.7 4.3-6.3 6.5-9-1.3-.2-2.6-.5-3.9-.7-1.3-.2-2.6-.5-3.9-.7-1.3-.2-2.6-.4-4-.7-1.3-.2-2.7-.4-4-.6-5.4-.8-10.9-1.5-16.5-2.2.8.2 1-.1 1.2-.3m51 8.4c.7.1 1.5.3 2.2.4.7.1 1.5.3 2.2.4.7.1 1.5.3 2.2.4.7.1 1.5.3 2.2.4.4.1.7.1 1.1.2.4.1.7.1 1.1.2.4.1.7.1 1.1.2.4.1.7.1 1.1.2.2 0 .4.1.6.1.2 0 .4.1.6.1.2 0 .4.1.6.1.2 0 .4.1.6.1.2 0 .4.1.6.1h2.3l.1.1.1.1.1.1.1.1v.8s0 .1.1.1c0 0 0 .1.1.1 0 0 0 .1.1.1 0 0 0 .1.1.1 0 .1.1.1.1.2s.1.1.1.2.1.1.1.2c.1.1.2.3.3.4.1.1.2.3.3.4.1.1.2.3.3.4.1.1.2.3.3.4.1.1.2.3.3.4.2.3.4.5.6.8.2.3.4.5.6.8.2.3.4.5.6.8.2.3.4.5.6.8 2 8.5 4.2 17.8 6.3 26.3-1.4-.3-2.9-.5-4.3-.8-2.6-10.6-5.4-21.8-8-32.4l-18.3-3.3c.5.4.6.1.8-.1M80.8 11.3c.8-.1 1.7-.2 2.5-.3s1.7-.2 2.5-.3c.8-.1 1.7-.2 2.5-.2.8-.1 1.7-.2 2.5-.2.4 0 .8-.1 1.3-.1.4 0 .8-.1 1.3-.1.4 0 .8-.1 1.3-.1.4 0 .8-.1 1.3-.1h5.7c2.7 2 5.3 4 7.8 6 4.3 7.9 8.8 16.1 12.5 24.1-1.5 0-3 .1-4.5.1-4.8-9.8-10.6-19.7-16.4-29.3-7.2.5-14.5 1.1-21.6 2 .6-.9.9-1.2 1.3-1.5M63.2 55.1c9.1-1.6 18.3-2.9 27.5-3.8-.3-2.6-.6-5.3-1-7.9 1.5.9 3.1 1.8 4.6 2.7.3 3 .6 6 1 8.9-8.3.7-16.5 1.7-24.7 3-2.4-1-4.9-2-7.4-2.9"/><path fill="#929497" d="M83.9 42.1c5.6-.7 11.3-1.2 17-1.6-.5-1-1.1-2-1.6-3.1-4.8.4-9.6.8-14.4 1.4-.4 1.1-.7 2.2-1 3.3"/><path fill="#808184" d="M173.8 51.1c8.4.9 16.9 2.1 25.2 3.6.5-2.6.9-4.7 1.3-7.3.9 1.4 1.8 2.8 2.6 4.1-.5 2.8-.9 5-1.4 7.8-7.8-1.4-15.5-2.6-23.3-3.6-1.4-1.5-2.9-3.1-4.4-4.6m-43.4-2.4c7.5 0 15 .2 22.5.6.3-2.6.5-4.8.8-7.4.6.5 1.2 1 1.8 1.6.5 1.5 1 3 1.5 4.6-.2 2-.4 3.6-.6 5.6-6.7-.4-13.3-.7-20-.8l-6-4.2m29.9 1.2c1.7 1.5 3.3 3 5 4.5 1.4.1 2.9.3 4.3.4.8-1.3 1.3-2.2 2.2-3.4.5-3.3 1-6.5 1.5-9.8 1.4.2 2.9.3 4.3.5.4-.4.7-.9 1.1-1.3.6-3.7 1.2-7.4 1.8-11-4.5 7-8.6 13.6-12.9 20.7-2.5-.2-4.9-.4-7.3-.6"/><path fill="#EC1C24" d="M148.4 39.7c.4-4.2.7-8.4 1.1-12.6 1.2 3.1 2.4 6.2 3.6 9.2-.1 1.2-.2 2.4-.4 3.6-1.4 0-2.9-.1-4.3-.2"/><path fill="#808184" d="M129.9 18.7c2 1.4 4.1 2.8 6.1 4.2.1-1.4.1-2.7.2-4.1-2.1-.1-4.2-.1-6.3-.1m105.2 42.5c8.8 1.6 17.5 3.2 26.3 4.8.5-2.6.8-4.7 1.3-7.3 1.2 1.4 2.3 2.7 3.5 4.1-.5 2.8-.9 5.1-1.4 8l-24.9-4.5-4.8-5.1m-31.2-5.8l23.4 4.2c.5-2.6.8-4.6 1.3-7.2 1.2 1.3 2.4 2.5 3.6 3.8-.5 2.9-1 5.3-1.5 8.2-7-1.3-13.9-2.5-20.9-3.8-2-1.7-3.9-3.4-5.9-5.2"/><path fill="#231F20" d="M39.4 26.7l-6 1.4c-3 .7-5.9 1.4-5.9 1.4l2.8 9.7 5.8-1.4c2.9-.7 5.8-1.3 5.8-1.3.7-.2 1.4-.3 1.9-.5.6-.2 1.1-.4 1.6-.6.5-.2.9-.4 1.2-.6.2-.1.3-.2.5-.3.1-.1.3-.2.4-.4.1-.1.2-.3.3-.4.1-.1.2-.3.2-.4.1-.3.2-.6.3-1 0-.2.1-.3.1-.5v-1.2c0-.1 0-.2-.1-.3 0-.1 0-.2-.1-.3-.1-.2-.1-.4-.2-.6-.1-.2-.1-.4-.2-.5-.2-.3-.4-.7-.6-.9-.2-.3-.5-.5-.8-.7-.3-.2-.6-.4-1-.5-.7-.3-1.6-.4-2.7-.4-.9-.1-2 .1-3.3.3M13.7 65.1l1.4-3.6 1.4-3.6s1.8-.5 3.6-1.1c1.8-.5 3.7-1 3.7-1l-7.1-23.4s-1.9.5-3.7 1.1c-2 .5-3.8 1-3.8 1.1L6 32.4l-3.2-2.2s.5-.2 1.5-.5c.9-.3 2.3-.7 3.9-1.2s3.5-1 5.6-1.6c2.1-.6 4.3-1.2 6.6-1.8 2.3-.6 4.5-1.2 6.7-1.7s4.2-1 5.9-1.4c1.7-.4 3.2-.7 4.2-1 1-.2 1.6-.4 1.6-.4 1-.2 1.9-.4 2.7-.6.9-.2 1.7-.3 2.4-.5.8-.1 1.4-.2 2.1-.3.3 0 .6-.1.9-.1.3 0 .6-.1.8-.1.3 0 .5-.1.8-.1.3 0 .5 0 .7-.1h4.1c.1 0 .1 0 .2.1.1 0 .1 0 .2.1.1 0 .1 0 .2.1.1 0 .3.1.4.1.1 0 .3.1.4.1.1 0 .3.1.4.1.3.1.5.2.8.3.2.1.5.2.7.4.2.1.5.3.7.4.2.2.4.3.6.5.2.2.4.3.6.5.2.2.4.4.5.6.2.2.3.4.5.6.2.2.3.4.5.7.1.2.3.5.4.7.1.2.2.5.4.8.1.1.1.3.2.4.1.1.1.3.1.4 0 .1.1.3.1.4 0 .1.1.3.1.4 0 .1 0 .1.1.2 0 .1 0 .1.1.2v3.7c0 .2 0 .4-.1.6l-.3 1.2c-.1.2-.1.4-.2.6-.1.2-.1.4-.2.6l-.3.6c-.1.2-.2.4-.3.5-.1.2-.2.3-.3.5-.1.2-.2.3-.4.5-.1.1-.1.2-.2.2-.1.1-.1.2-.2.2l-.1.1-.1.1.6.7-.1.1-.1.1-.1.1-.2.2-.2.2-.2.2c-.1.1-.3.2-.4.3-.1.1-.3.2-.4.3-.1.1-.3.2-.5.3-.2.1-.3.2-.5.3-.2.1-.3.2-.5.2-.1 0-.2.1-.3.1-.1 0-.2.1-.3.1-.1 0-.2.1-.3.1-.1 0-.2.1-.3.1-.2.1-.4.1-.6.2-.4.1-.9.3-1.5.4-.1 0-.3.1-.4.1-.1 0-.3.1-.4.1-.1 0-.3.1-.4.1-.2 0-.3.1-.5.1s-.3.1-.5.1c-.1 0-.2 0-.2.1-.1 0-.2 0-.3.1-.1 0-.2 0-.3.1H48.9c-.1 0-.2 0-.3.1-.1 0-.3.1-.4.1-.1 0-.3.1-.5.1-.3.1-.7.1-1.1.2-.4.1-.9.2-1.3.3l-1.5.3c-.5.1-1 .2-1.6.3-.5.1-1.1.2-1.6.4-1.1.2-2.2.5-3.2.7-1 .2-1.9.5-2.8.7-.8.2-1.5.4-1.9.5-.5.1-.7.2-.7.2l2.3 7.9s1.8-.5 3.7-.9c1.8-.4 3.7-.9 3.7-.9l1.6 5.8s-1.9.4-4.7 1.1c-1.4.3-3 .7-4.8 1.2-1.7.4-3.6.9-5.4 1.4-1.9.5-3.7 1-5.4 1.5-1.7.5-3.3 1-4.7 1.4-2.8 1-4.6 1.6-4.6 1.6zm71.2-32.9c1.5-4.9 3.1-9.9 4.8-14.8 2.9 4.5 5.6 9 8.2 13.5-4.3.4-8.7.9-13 1.3zM61.2 53.5c9.1-1.6 18.3-2.9 27.5-3.9-.3-2-.5-4-.8-6-2.2.2-4.4.5-6.6.8l2.1-7.2c5.7-.7 11.4-1.2 17.1-1.6 1.3 2.2 2.6 4.4 3.8 6.7-2.2.1-4.3.3-6.5.5l.6 6c8.2-.7 16.5-1.1 24.8-1.3v-6c-2.2 0-4.4.1-6.6.2-4.9-10-10.3-19.9-16.2-29.7-6.7.5-13.4 1.1-20 1.9-3.6 10.7-6.6 21.3-9.2 32-2.2.3-4.4.7-6.5 1-1.3 2.2-2.4 4.4-3.5 6.6zm69.1-6.6c.1-2 .1-4 .2-6 2.2 0 4.5 0 6.7.1.4-8.2.8-16.3 1.2-24.5-2.8 0-5.6-.1-8.4-.1-1.7-2-3.5-4-5.3-6 11.1-.2 22.1.1 32.9.8 2.8 7.2 5.5 14.3 7.9 21.6 4-6.7 8.2-13.2 12.5-19.8 10.3 1.1 20.3 2.6 29.8 4.3-1.4 1.8-2.7 3.6-4.1 5.4-2.8-.5-5.6-.9-8.5-1.3-1.4 8-2.8 16.1-4.2 24.1l7.5 1.2c-.4 2-.7 4-1.1 5.9-7.8-1.3-15.5-2.4-23.4-3.3l.9-6 5.1.6c1.3-7.8 2.5-15.6 3.8-23.5-6.1 9.2-12 18.6-17.6 28.1-2.4-.2-4.7-.4-7.1-.6-3.3-10.1-6.9-20.2-10.9-30.3-.6 7.8-1.3 15.7-1.9 23.5 1.8.1 3.6.2 5.3.2l-.6 6c-6.8-.3-13.8-.4-20.7-.4zm97.5-6.8c4 .7 8.1 1.5 12.1 2.2-1.2-5-2.4-10.1-3.6-15.1-2.9 4.3-5.7 8.6-8.5 12.9zm-23.7 13.6c.4-2 .7-4 1.1-5.9 1.9.3 3.8.7 5.6 1 6.2-9.2 12.4-18.4 18.5-27.6 5.8 1.1 11.6 2.1 17.4 3.2 2.7 10.8 5.3 21.6 8 32.5 2.1.4 4.3.8 6.4 1.2-.4 2-.7 4-1.1 5.9-8.2-1.5-16.3-3-24.5-4.4.4-2 .7-4 1.1-5.9 2.1.4 4.2.8 6.3 1.1-.6-2.5-1.3-4.9-1.9-7.4-5.4-1-10.8-2-16.2-2.9l-4.2 6.3c2.1.4 4.3.8 6.4 1.2-.4 2-.7 4-1.1 5.9-7.2-1.5-14.5-2.8-21.8-4.2z"/><path class="red-parts" fill="#EC1C24" d="M88 30.2c.8-2.6 1.6-5.3 2.5-7.9l3.3 5.4c-.2.7-.4 1.4-.6 2-1.8.1-3.5.3-5.2.5m143 9.1c1.5-2.3 2.9-4.6 4.4-6.9.5 2 .9 4 1.4 6-.4.6-.8 1.2-1.1 1.8-1.6-.3-3.2-.6-4.7-.9"/><path fill="#231F20" d="M254.4 77.3l-11.2 3.1-1.1 4.7-4-.9 1.1-4.7-8.7-7.7 5.1 1.2 6 5.2 7.5-2.1 5.3 1.2zm-61.9-4.5c0 .2 0 .3.2.5.1.2.3.3.5.4l.6.3c.2.1.4.1.5.1l18.1 2.5-.3 2.1-19.8-2.8c-.4-.1-.9-.2-1.4-.3-.5-.2-.9-.4-1.4-.6-.4-.3-.8-.6-1-.9-.3-.3-.4-.7-.3-1.1l.8-5.4c.1-.4.3-.7.6-1 .4-.3.8-.5 1.2-.6.5-.1 1-.2 1.5-.2s1 0 1.4.1l19.8 2.8-.3 2.1-18.1-2.5h-.5c-.2 0-.5.1-.7.1l-.6.3c-.2.1-.3.3-.3.4l-.5 3.7zm20.6-.3l-.3 2.1-18.9-2.6.3-2.1 18.9 2.6zm-60.8-3.2l-.1 4.2-4.1-.1.4-10.3 4.1.1-.1 3.5 13.2-3 7.3.3-16.8 4.3 16.4 6-7.2-.3-13.1-4.7zm-41.6-2.9c0-.2.1-.3.2-.5.2-.1.4-.3.6-.4.2-.1.4-.2.7-.2.2-.1.4-.1.5-.1l18.3-.3v-2.1l-20 .3c-.4 0-.9.1-1.4.2-.5.1-1 .3-1.4.5-.4.2-.8.5-1.1.8-.3.3-.5.7-.4 1.1l.1 5.5c0 .4.2.8.5 1.1.3.3.7.5 1.2.7.5.2.9.3 1.4.4.5.1 1 .1 1.4.1l20-.3v-2.1l-18.3.3c-.1 0-.3 0-.5-.1-.2 0-.4-.1-.7-.2l-.6-.3c-.2-.1-.3-.3-.3-.5l-.2-3.9zM68.8 70c0-.2 0-.3.2-.5s.3-.3.6-.4c.2-.1.4-.2.7-.3.2-.1.4-.1.5-.1l12.1-1.3h.5c.2 0 .5.1.7.1.2.1.5.2.6.3.2.1.3.3.3.4l.4 3.8c0 .2 0 .3-.2.5s-.3.3-.6.4c-.2.1-.4.2-.7.3-.2.1-.4.1-.5.1l-12.1 1.3h-.5c-.2 0-.5-.1-.7-.1-.2-.1-.5-.2-.6-.3-.2-.1-.3-.3-.3-.4l-.4-3.8zm16.6 5.4c.4 0 .9-.1 1.4-.3.5-.1 1-.3 1.4-.6.4-.2.8-.5 1.1-.9.3-.3.4-.7.4-1.1l-.7-5.4c0-.4-.2-.8-.6-1-.3-.3-.8-.5-1.2-.6-.5-.2-1-.2-1.5-.3h-1.4l-15.5 1.6c-.4 0-.9.1-1.4.3-.5.1-1 .3-1.4.6-.4.2-.8.5-1.1.9-.3.3-.4.7-.4 1.1l.6 5.5c0 .4.2.8.6 1 .3.3.7.5 1.2.6.5.2 1 .2 1.5.3h1.4l15.6-1.7zm-56.6 8.9l-2-10.2-4 .8 2 10.2 4-.8zm20-3.9l-2-10.2-4 .8.8 3.9-14.7 2.9.4 2.1L43.9 77l.8 4.2 4.1-.8z"/></svg>