<svg width="229" height="103" fill="none" aria-hidden="true" viewBox="0 0 229 103" xmlns="http://www.w3.org/2000/svg"><path d="M.105-.098h15.367c4.936 0 9.114 1.884 12.56 5.638 2.442 3.025 3.67 6.341 3.67 9.976 0 4.709-1.972 8.728-5.902 12.071-3.081 2.348-6.554 3.529-10.42 3.529H6.138v16.09l-.066.093H.105l-.092-.093V-.004l.092-.094Zm6.019 6.315V24.84h9.622c3.056 0 5.693-1.287 7.9-3.847 1.227-1.724 1.854-3.489 1.854-5.28v-.424c0-2.825-1.345-5.253-4.022-7.282-1.658-1.247-3.956-1.884-6.92-1.884H6.202l-.091.093h.013ZM66.498-.098s.992 2.322 2.768 6.965l16.19 40.406-.066.026h-6.658c-.092 0-.392-.73-.927-2.175l-3.225-8.026H52.436L48.388 47.3h-6.594v-.026L57.92 6.827l2.808-6.925h5.77ZM54.995 30.824h17.078L63.56 9.454s-1.227 2.918-3.512 8.741l-5.066 12.629h.013ZM98.878-.098h5.954l.065.093v28.852c0 3.476.587 6.05 1.749 7.707 1.058 1.884 2.847 3.25 5.354 4.113.953.238 1.867.358 2.742.358h4.556c3.63 0 6.45-1.672 8.448-5.014.914-1.791 1.371-3.887 1.371-6.288V-.005l.091-.093h5.993l.092.093v28.11c0 3.753-.327 6.473-.993 8.158-1.292 3.74-3.42 6.58-6.371 8.516-2.572 1.684-5.693 2.52-9.375 2.52h-3.055c-4.844 0-8.748-1.472-11.699-4.43-1.292-1.314-2.285-2.64-2.964-3.953-1.384-2.76-2.076-5.704-2.076-8.835V-.005l.092-.093h.026ZM148.258-.098h30.918l.039.027v6.182l-.039.026h-12.364V47.26l-.027.027h-6.123l-.039-.027V6.137h-12.365l-.026-.026V-.071l.026-.027Z" fill="currentColor"></path><path d="M213.437 31.54c8.602 0 15.576-7.085 15.576-15.825 0-8.74-6.974-15.826-15.576-15.826-8.603 0-15.577 7.085-15.577 15.826 0 8.74 6.974 15.825 15.577 15.825Z" fill="currentColor"></path><path d="M199.675 64.04c8.603 0 15.576-7.085 15.576-15.826 0-8.74-6.973-15.825-15.576-15.825-8.603 0-15.577 7.085-15.577 15.825 0 8.74 6.974 15.826 15.577 15.826Z" fill="currentColor"></path><path d="M172.83 86.737c8.603 0 15.577-7.085 15.577-15.826 0-8.74-6.974-15.825-15.577-15.825-8.602 0-15.576 7.085-15.576 15.825 0 8.74 6.974 15.826 15.576 15.826Z" fill="currentColor"></path><path d="M141.26 99.14c8.602 0 15.576-7.085 15.576-15.826 0-8.74-6.974-15.825-15.576-15.825-8.603 0-15.577 7.085-15.577 15.825 0 8.74 6.974 15.826 15.577 15.826Z" fill="currentColor"></path><path d="M106.673 103c8.602 0 15.576-7.085 15.576-15.826 0-8.74-6.974-15.825-15.576-15.825-8.603 0-15.577 7.085-15.577 15.825 0 8.74 6.974 15.826 15.577 15.826Z" fill="currentColor"></path></svg>
