
<svg xmlns="http://www.w3.org/2000/svg" viewBox="0 0 216 216" width="216" height="216"><g id="Layer_2" data-name="Layer 2"><g id="Layer_1-2" data-name="Layer 1"><path d="M44.54,138.11a5,5,0,0,0-2.06-1.06,13.11,13.11,0,0,0-3.5-.38H34v11.76H39a12,12,0,0,0,3.29-.38A6.46,6.46,0,0,0,44.44,147a4.21,4.21,0,0,0,1.2-1.61,6.31,6.31,0,0,0,.43-2.52,8.57,8.57,0,0,0-.43-3A4.58,4.58,0,0,0,44.54,138.11Z" fill="#000"/><path d="M158.34,156.93a14.78,14.78,0,0,0-2-.86,8.09,8.09,0,0,0-2.83-.48,6.81,6.81,0,0,0-2.23.31,3.69,3.69,0,0,0-1.42.84,3.37,3.37,0,0,0-1.2,2.64,3.05,3.05,0,0,0,.91,2.16,3,3,0,0,0,1.06.67,4.45,4.45,0,0,0,1.58.24,7.67,7.67,0,0,0,3.41-.91,10.27,10.27,0,0,0,2.69-1.92Z" fill="#000"/><path d="M0,0V216H216V0ZM175.09,131.92a3.55,3.55,0,0,1,1,2.45,3.39,3.39,0,0,1-1,2.5,3.46,3.46,0,0,1-5.9-2.45,3.39,3.39,0,0,1,1-2.5,3.48,3.48,0,0,1,4.9,0ZM55.2,18.21a8.9,8.9,0,0,1,9,8.79,8.79,8.79,0,0,1-5.6,8.13,50.1,50.1,0,0,0,99.07,0,9,9,0,1,1,6,.54,56.09,56.09,0,0,1-111.06-.3,8.76,8.76,0,0,1,2.61-17.2ZM48.52,150.69a10.59,10.59,0,0,1-3.84,2.26,15,15,0,0,1-4.75.72H34V167.1H23.94v-5.23h4.32v-25.2H23.94v-5.23h15.5a17.12,17.12,0,0,1,5,.7,10.63,10.63,0,0,1,4,2.23A9.44,9.44,0,0,1,51,137.94a12.39,12.39,0,0,1,.82,4.63,12.16,12.16,0,0,1-.82,4.51A9.62,9.62,0,0,1,48.52,150.69ZM76.31,167.1H67v-1.73a15.76,15.76,0,0,1-3.19,1.49,10.81,10.81,0,0,1-3.48.58A8.33,8.33,0,0,1,54.14,165a8.1,8.1,0,0,1,.43-12,8.42,8.42,0,0,1,3.19-1.8,13.46,13.46,0,0,1,4-.55,14.32,14.32,0,0,1,3.55.48l.82.22a6.23,6.23,0,0,1,.86.31v-3a3.41,3.41,0,0,0-.26-1.49,2.07,2.07,0,0,0-.7-.82,4.59,4.59,0,0,0-1.44-.6,8.85,8.85,0,0,0-2.11-.22,7.23,7.23,0,0,0-1.44.17,17,17,0,0,0-1.66.43q-.84.26-1.58.53l-1.27.46-1.73-4.27q1.68-.67,2.88-1.08t2.54-.74a9.87,9.87,0,0,1,2.35-.34,16.33,16.33,0,0,1,4,.46,9.82,9.82,0,0,1,3.19,1.42,6.69,6.69,0,0,1,2.11,2.64,8.56,8.56,0,0,1,.67,3.46v13.2h3.79ZM104,146.56H100L88.41,177.28H83L87.35,165l-7.54-18.43H75.54v-5.23h8l1.2,3.12,5.42,13.3,4.22-11.18H91.43v-5.23H104Zm6.67,15.26V146.56h-4v-5.23h4v-5l5.57-.14v5.18H121v5.23H116.2v14.78a1.93,1.93,0,0,0,.14,1h.24l4.37-.72v5.28l-4.56.77a7.64,7.64,0,0,1-2.42-.36,4.56,4.56,0,0,1-1.9-1.22,4.34,4.34,0,0,1-1.13-1.9A8.32,8.32,0,0,1,110.63,161.82Zm11.7,28.93c0,3.05-.93,5.1-5.8,5.1a28.5,28.5,0,0,1-4.89-.44V177.83l3.16-.44v6.08a10.34,10.34,0,0,1,3.73-.75c2.72,0,3.8,1.66,3.8,4.32Zm9.5,4.84-1.68,5.1h-3l1.58-5.1h-1.11l-4-12.6h3.23l2.87,9.58,2.9-9.58h3.23Zm5.92-33.72v5.23H127.53V146.56h-4.32v-5.23h9.89V144q.19-.1.86-.55a11.78,11.78,0,0,1,1.34-.79,13.27,13.27,0,0,1,2.9-1.06,12.47,12.47,0,0,1,3-.24l2.4,0v5h-2.45a11.73,11.73,0,0,0-3.82.53,7.11,7.11,0,0,0-2.42,1.34,5.41,5.41,0,0,0-1.34,1.82,7.69,7.69,0,0,0-.48,3.07v8.64Zm18.47,33.92H153V185.07a1.16,1.16,0,0,0-1.33-1.32h-3.95v12H144.4v-14.7h8.73c2.08,0,3.09,1.35,3.09,4.14Zm-1.07-28.92a10.8,10.8,0,0,1-3.48.58,8.33,8.33,0,0,1-6.14-2.45,8.1,8.1,0,0,1,.43-12,8.42,8.42,0,0,1,3.19-1.8,13.47,13.47,0,0,1,4-.55,14.32,14.32,0,0,1,3.55.48l.82.22a6.22,6.22,0,0,1,.86.31v-3a3.41,3.41,0,0,0-.26-1.49,2.06,2.06,0,0,0-.7-.82,4.57,4.57,0,0,0-1.44-.6,8.83,8.83,0,0,0-2.11-.22,7.23,7.23,0,0,0-1.44.17,17,17,0,0,0-1.66.43q-.84.26-1.59.53l-1.27.46-1.73-4.27q1.68-.67,2.88-1.08t2.54-.74a9.87,9.87,0,0,1,2.35-.34,16.32,16.32,0,0,1,4,.46,9.82,9.82,0,0,1,3.19,1.42,6.69,6.69,0,0,1,2.11,2.64,8.56,8.56,0,0,1,.67,3.46v13.2h3.79v5.23h-9.36v-1.73A15.75,15.75,0,0,1,155.15,166.86Zm14.95,22.69h-6.31v-2.47H167v-.89c0-1.23-.28-2.49-2.37-2.49a2.27,2.27,0,0,0-2.58,2.49v4.37c0,1.67.79,2.57,2.33,2.57H170v2.66h-5.25c-4.11,0-5.94-1.67-5.94-5.41v-3.83c0-3.63,2-5.47,5.82-5.47s5.49,1.74,5.49,5.64Zm.44-24.61V146.56h-4v-5.23h9.55v20.54H180v5.23h-9.36ZM181,195.8h-5.26c-1.82,0-3-1.41-3-3.61V177.79l3.27-.45v3.95h4.81v2.47h-4.81v7.93a1.31,1.31,0,0,0,1.48,1.46H181Zm-2.32-59.13v-5.23h9.7v30.43h4.08v5.23h-9.65V136.67Zm9.62,59.11H183v-2.66h5.35c1,0,1.21-.64,1.21-1.59s-.4-1.53-2.66-2.07c-3.36-.82-3.81-1.62-3.81-4.37,0-2.53.82-4,5.19-4H192v2.65h-4.49c-1,0-1.26.6-1.26,1.39,0,1.26.16,1.4,2.18,1.92,4,1.06,4.29,1.59,4.29,4.4C192.77,194.09,192,195.65,188.26,195.78Z" fill="#000"/><path d="M117.56,185.42a7.32,7.32,0,0,0-2.77.72v6.91a14.44,14.44,0,0,0,1.89.1c2.07,0,2.48-.83,2.48-2.3V187C119.17,186,118.73,185.42,117.56,185.42Z" fill="#000"/><path d="M62.15,155.58a6.81,6.81,0,0,0-2.23.31,3.69,3.69,0,0,0-1.42.84,3.37,3.37,0,0,0-1.2,2.64,3.05,3.05,0,0,0,.91,2.16,3,3,0,0,0,1.06.67,4.45,4.45,0,0,0,1.58.24,7.67,7.67,0,0,0,3.41-.91A10.27,10.27,0,0,0,67,159.61v-2.69a14.83,14.83,0,0,0-2-.86A8.1,8.1,0,0,0,62.15,155.58Z" fill="#000"/></g></g></svg>
