<svg xmlns="http://www.w3.org/2000/svg" width="218" height="65" viewBox="0 0 1753 375"><path fill="currentColor" d="M189 346.9h-2.3c-42.4-.6-81.9-17.5-111.3-48s-45.2-70.6-44.6-113 17.5-81.9 48-111.3 70.6-45.2 113-44.6c87.6 1.1 157.6 73.4 156.5 161-1.6 85.9-72.8 155.9-159.3 155.9zm0-310.7c-39.5 0-77.4 15.3-105.7 42.9-29.3 28.3-45.7 66.1-46.2 106.8-.6 40.7 14.7 79.1 42.9 107.9s66.1 45.8 106.8 46.3c83.6 1.1 153.1-66.1 154.2-149.7 1.1-84.2-65.5-153.1-149.7-154.2H189z"></path><path fill="currentColor" d="M189 370.7c-48.6 0-94.4-18.6-128.3-53.1-34.4-34.5-53-80.3-53-128.9S26.3 95 60.8 60.5 140.5 7.4 189 7.4 283.4 26 317.9 60.5 371 140.2 371 188.7s-18.6 94.4-53.1 128.3c-34.5 34.5-80.3 53.7-128.9 53.7zm0-350.9c-93.2 0-168.9 75.7-168.9 168.9s75.7 169 168.9 169 169-75.7 169-169S282.3 19.8 189 19.8z"></path><path d="M126.7 255.8l55.3 34v-54.2l-55.3-31.8zM126.7 184.7l55.3 34v-54.2l-55.3-31.8zM182 110l-37.2-21.8v37.2l37.2 21.8z"></path><path d="M251.9 203.8l-55.2 31.8v54.2l55.2-34zM251.9 132.7l-55.2 31.8v54.2l55.2-34zM196.6 147.2l37.2-21.8V88.2L196.6 110z"></path><path d="M430.1 241.3V133.7h40.3c10.3 0 19 3.5 26.2 10.5 7.1 6.9 10.6 15.4 10.6 25.7 0 10.2-3.5 18.8-10.6 25.7-7.1 7-15.9 10.4-26.2 10.4h-19v35.4h-21.3zm21.2-55.2h18.9c4.5 0 8.2-1.6 11.2-4.7s4.5-7 4.5-11.7c0-4.7-1.5-8.6-4.4-11.7-3-3.1-6.7-4.6-11.3-4.6h-18.9v32.7zM520.8 241.3V133.7H542v107.7h-21.2zM561.9 241.3V133.7h65.8V154h-44.6v23.1h40.7v19.8h-40.7V221h45.3v20.3h-66.5zM643.4 241.3V133.7h16.1l46.2 65.7v-65.7h21.2v107.7h-16.2l-46.1-65.8v65.8h-21.2zM746.8 241.3V133.7h40.3c10.3 0 19 3.5 26.2 10.5 7.1 6.9 10.6 15.4 10.6 25.7 0 10.2-3.5 18.8-10.6 25.7-7.1 7-15.9 10.4-26.2 10.4h-19v35.4h-21.3zm21.3-55.2H787c4.5 0 8.2-1.6 11.2-4.7s4.5-7 4.5-11.7c0-4.7-1.5-8.6-4.4-11.7-3-3.1-6.7-4.6-11.3-4.6h-18.9v32.7zM817.1 241.3l37.7-107.7h26.3l37.8 107.7h-23l-6.5-19.4h-42.9l-6.5 19.4h-22.9zm36.1-39.2h29.6l-14.8-44-14.8 44zM929.3 241.3V133.7h16.1l46.2 65.7v-65.7h21.2v107.7h-16.2l-46.1-65.8v65.8h-21.2zM1032.8 241.3V133.7h21.2v107.7h-21.2zM1073.9 241.3V133.7h21.8l30.9 50.9 30.7-50.9h22v107.7h-21.2v-69.8l-30.3 50h-2.5l-30.3-49.9v69.7h-21.1zM1194.4 187.6c0-15.6 5.4-28.8 16.2-39.7 10.9-10.9 24.2-16.4 39.7-16.4 15.5 0 28.8 5.5 39.6 16.4 10.9 10.8 16.3 24 16.3 39.7 0 15.7-5.4 28.9-16.3 39.8-10.9 10.7-24.1 16.1-39.6 16.1s-28.7-5.4-39.7-16.1c-10.8-10.9-16.2-24.2-16.2-39.8zm31.2-25.3c-6.7 6.6-10 15.1-10 25.3 0 10.2 3.3 18.7 10 25.3 6.5 6.5 14.8 9.8 24.7 9.8 9.9 0 18.2-3.3 24.7-9.8 6.6-6.6 10-15.1 10-25.3 0-10.2-3.3-18.7-10-25.3-6.7-6.6-14.9-10-24.7-10-9.8.1-18.1 3.4-24.7 10zM1321 241.3V133.7h21.2V221h41.1v20.3H1321zM1395.3 241.3V133.7h21.2v107.7h-21.2zM1436.4 241.3V133.7h21.2v107.7h-21.2zM1469.7 153.9v-20.3h79.1v20.3h-29v87.4h-21.2v-87.4h-28.9zM1552.6 153.9v-20.3h79.1v20.3h-29v87.4h-21.2v-87.4h-28.9zM1632.4 187.6c0-15.6 5.4-28.8 16.2-39.7 10.9-10.9 24.2-16.4 39.7-16.4 15.5 0 28.8 5.5 39.6 16.4 10.9 10.8 16.3 24 16.3 39.7 0 15.7-5.4 28.9-16.3 39.8-10.9 10.7-24.1 16.1-39.6 16.1s-28.7-5.4-39.7-16.1c-10.7-10.9-16.2-24.2-16.2-39.8zm31.3-25.3c-6.7 6.6-10 15.1-10 25.3 0 10.2 3.3 18.7 10 25.3 6.5 6.5 14.8 9.8 24.7 9.8 9.9 0 18.2-3.3 24.7-9.8 6.6-6.6 10-15.1 10-25.3 0-10.2-3.3-18.7-10-25.3-6.7-6.6-14.9-10-24.7-10-9.8.1-18.1 3.4-24.7 10z"></path></svg>
