<svg width="164" height="149" id="Layer_1" xmlns="http://www.w3.org/2000/svg" viewBox="0 0 1200 1000"><style>.st0{fill-rule:evenodd;clip-rule:evenodd;fill:#1d1d1b}.st1{fill:#fff}.st3{fill:#1d1d1b}</style><path class="st0" d="M631.5 739.6c-96.2-2-288.7-23.4-369.2 59.1-63.5 65.1-73.9 112.4-95.6 91.7-22.4-21.3-134.8-248.2-11.8-489.5 63-123.7 180.4-213.8 370.5-205.1 0 0 115.6 3.5 204.8-2 89.3-5.5 145.5-23.5 177.6-62.9 50.1-61.3 55.7-104.8 82.7-78.5 24.6 23.9 133 249.2 10.1 490.5-63.1 123.7-169.1 200.9-369.1 196.7z"/><path class="st0" d="M631.5 739.6c-96.2-2-288.7-23.4-369.2 59.1-63.5 65.1-73.9 112.4-95.6 91.7-22.4-21.3-134.8-248.2-11.8-489.5 63-123.7 180.4-213.8 370.5-205.1 0 0 115.6 3.5 204.8-2 89.3-5.5 145.5-23.5 177.6-62.9 50.1-61.3 55.7-104.8 82.7-78.5 24.6 23.9 133 249.2 10.1 490.5-63.1 123.7-169.1 200.9-369.1 196.7z"/><path class="st1" d="M177.7 907.3C171 897.6 163 886 163 886c3.6 3.2 4.5 4.9 9 7 4.2 2 10.6-.1 15.2-3.9 4.4-3.8 9.9-10.5 16.3-19.2 13-17.5 29.9-42.7 56.1-69.6 27.6-28.3 66-44.2 107.8-53.5 42-9.2 87.8-11.7 131.7-11.7 52.5 0 102.2 3.6 137.6 4.1 3.5.1 6.9.1 10.3.1 95 0 166.3-19.4 221.2-51.4 54.8-32 93.6-76.9 122.6-129.5 49.2-89.4 65.6-177.5 65.6-254.8 0-90.6-20.8-161.7-39.4-204.8l-1.9-4.5c-6.2-14.3-16.7-32.1-19.5-36.1-1.4-1.9-3.4-4.4-6-6.8-6.9-6.8-12.9-6.9-12.9-6.9s13.8-1.4 29.1 11.7c7.1 6.1 38.3 30.8 62.4 108.8 6.4 20.6 8.8 37.4 10.9 55.2 2.6 22 4.2 45.9 4.8 83.4 0 81-17.3 174.1-69 267.9-30.7 55.9-73 105-132.7 139.9-59.7 34.8-136.3 55.2-235 55.2-3.5 0-7 0-10.6-.1-36.7-.6-85.9-4.1-137.2-4.1-42.8 0-87 2.5-125.8 11.1-38.9 8.5-72.1 23.1-94.1 45.9-18.3 18.8-31.7 36.7-43 52.2-11.4 15.5-20.2 28.5-31 38.1-12.5 10.8-20.7 6.4-20.7 6.4s-2.5-2.1-7.1-8.8z"/><path d="M1091.8 259.6c-5.3-34.5-13.9-65.3-22.5-90.2 5.4 18.7 7.6 34.3 9.6 50.9 2.6 22 4.2 45.9 4.8 83.4 0 81-17.3 174.1-69 267.9-30.7 55.9-73 105-132.7 139.9-59.7 34.8-136.3 55.2-235 55.2-3.5 0-7 0-10.6-.1-36.7-.6-85.9-4.1-137.2-4.1-42.8 0-87 2.5-125.8 11.1-38.9 8.5-72.1 23.1-94.1 45.9-18.3 18.8-31.7 36.7-43 52.2-11.4 15.5-20.2 28.5-31 38.1-12.5 10.8-20.7 6.4-20.7 6.4 1.3 1.7 2.6 3.3 3.9 4.7 4.4 4.9 8.5 9.1 13 13.1 33.2 29.6 53-7.8 107.6-68.6 76.2-84.7 237.8-43 368.4-47.9 190.2-7.1 307.4-79.4 370.4-203.1 64.7-127.4 58.8-257.2 43.9-354.8z" fill-rule="evenodd" clip-rule="evenodd" fill="#1d1d1b"/><path class="st3" d="M454.3 287.8c-5.4-3.8-9.1-5.3-9.1-9-.2-5.3 3.3-10.1 10.5-14.6 15.7-10.1 31.1-17.9 49.7-18.3 34.3-.7 64.7 25.1 65.6 57.4.9 30-17.3 57.8-49.8 76.7-11.8 7-21.1 14.6-21 17.2 0 .3.1 2.9.5 4.2.4 1.3-.3-.9 2.2 6.7.7 2.3 7.8 18 9.4 20.2 11 15.1 6.3 3.6 15.1 9.1 2.4 1.2 8.8 12.4 8.8 13.7.2 7.7-13.5 14.7-25.8 15-13.6.4-23.1-3.6-32.5-28.6-5.8-15.5-8.1-27.8-11.7-35.4-1.8-3.6-3.2-5.3-5.1-5.2-2.7.1-3.3 1.5-7.5 16.2-7 23.9-8.4 27.8-7.2 31.4 1.2 3.6 5.8 9.3 2.3 15.5-2.3 4.1-10.5 8-20.1 8.2-6.6.2-11.6 0-18.3-6.7-5.7-5.8-8-18.1-8.1-21.4-.2-6.3 5.5-14 13.4-40.2 5.2-17.5 11.3-35.6 19.4-56.2 7.1-18.9 14.6-38.1 19.6-49.2l1.3-3-1.6-3.7zm43.2 6.6c-5.1 9.8-8.5 17.9-16.9 37.4-4.7 11.8-7.2 17.5-9.3 23.6-.6 2-.9 3-.9 4 0 1.3.7 2 2.7 1.9 3-.1 13.5-5 21.7-10.6 23.6-15.3 38.3-34.4 37.9-49.4-.2-8.7-7.7-14.4-17.7-14.2-6 .2-11.6 2-16.5 5.1l-1 2.2zM655 380.1c13.1-18.1 22.9-30.3 34-31.1 8.4-.6 13.5-.4 23.9 5.6 14.2 8.3 20.5 21.5 14.8 42.1-1.7 6.3-5.7 12.9-7.7 18.3-2.5 6.7-3.5 10.4-3.5 13.1 0 2 .8 3.2 2.5 3.2 2.2 0 4.7-1.7 8.4-6 4-4.5 10.7-13.4 14.6-19.6 2.2-3.5-3.5-8.6-2-8.7 1.8-.1 9.4 5.7 11.4 8.2 2.4 2.9 2.5 5.5 2.5 7.5 0 6.2-6.7 19.6-15.4 31.2-10.7 14.9-20.6 21.6-31 21.6-8.4 0-18.5-7.5-21.2-18.1l4-6.8c-.2-1.5 2.6-2.5 1.9-2.5-.8 0-5.8 10.9-7 12.1-9.2 10.7-17.1 15.1-26.8 15.1-14.6 0-25.8-12.4-25.8-30.3 0-16.9 9-36.5 22.4-54.9zm25.5 11.7c-9.1 12.4-16.1 28.5-16.1 37.7 0 3.7 1.7 6.4 4.2 6.4 4 0 10.2-5.5 16.4-14.6 8.4-11.9 16.1-30.2 16.1-38.4 0-3.7-1.2-5.4-3.9-5.4-3.5-.1-10.5 5.6-16.7 14.3z"/><path class="st1" d="M652.1 377.2c12.5-17.2 27.9-28.6 38.5-28.6 6.8 0 11.9.4 20.2 6.8 13 10 15.4 18.6 10.5 37.6-1.7 6.5-5.5 12.3-7.3 17.5-2.4 6.4-3.3 9.9-3.3 12.5 0 1.9.7 3.1 2.4 3.1 2.1 0 4.5-1.7 8-5.7 3.8-4.2 10.1-12.8 13.9-18.6 2.1-3.3 3.3-4.5 4.7-4.5 1.2 0 2.6 1.4 4.2 4 1.4 2.4 2.4 5.2 2.4 7.1 0 5.9-6.4 18.7-14.6 29.8-10.2 14.2-19.6 20.6-29.5 20.6-8 0-14.2-4.5-16.5-12.5 0 0-1.4-3.7-2.4-3.8-.7-.1-1.2.5-2.3 1.6-8.7 10.1-16.3 14.4-25.5 14.4-13.9 0-23.1-11.3-23.1-28.3-.1-16.4 7-35.6 19.7-53zm24.3 11c-8.7 11.8-15.3 27.2-15.3 35.9 0 3.5 1.6 6.1 4 6.1 3.8 0 9.7-5.2 15.6-13.9 8-11.3 15.3-28.8 15.3-36.6 0-3.6-1.2-5.2-3.8-5.2-3.3.1-9.9 5.5-15.8 13.7zM449 285.7c-5.2-3.7-7.5-6.8-7.6-10.3-.1-5.1 3.2-9.6 10.1-13.9 15-9.6 32.9-15.2 50.6-15.7 32.6-.9 58.4 22.1 59.2 52.9.8 28.5-16.5 55-47.4 73.1-11.2 6.7-15.3 9.9-15.2 12.5 0 .3.4.9.7 2.2.3 1.2 1.4 3.4 3.8 10.6.7 2.2 1.4 4.7 2.1 7.2 5.2 16 12.5 27.3 20.9 32.4 2.3 1.2 2.9 2.1 3 3.4.2 7.3-13.8 16.2-25.6 16.6-13 .4-19.5-6.8-28.5-30.6-5.5-14.8-10.3-26.1-13.6-33.3-1.7-3.4-3-5-4.9-4.9-2.5.1-3.1 1.4-7.2 15.4-6.6 22.7-8.1 27.8-7.9 32.6 0 1.6.4 3.5.8 4.7l1.8 6c.3.6.4 1.3.4 1.6.1 4.4-10.8 9.8-20 10-6.3.2-10.2-1.9-16.4-8.7-4.6-5.6-5.9-7.4-6-10.7-.2-6 3.8-23.2 11.3-48.2 4.9-16.6 10.8-33.9 18.5-53.5 6.8-18 13.9-36.2 18.7-46.8l1.2-2.9-2.8-1.7zm42.3 4.5c-4.8 9.4-8.1 17.1-16.1 35.7-4.4 11.3-6.8 16.7-8.9 22.5-.6 1.9-.9 2.9-.8 3.8 0 1.3.7 1.9 2.6 1.8 2.9-.1 12.9-4.8 20.6-10.1 22.4-14.6 36.5-32.8 36.1-47-.2-8.2-7.3-13.7-16.9-13.4-5.7.2-11 1.9-15.7 4.9l-.9 1.8z"/><path class="st3" d="M579.5 429.8c.4 6 4.2 9.1 9.7 8.7 6-.4 13.9-5.9 22.7-16.4 2.8-3.2-1.2-9 .5-9.1 2-.1 8.3 3 8.2 11-.1 9.5-2 14.8-6.9 22.7-7.2 11.5-18.4 18.2-29.6 18.9-17.7 1.1-34.5-15.8-35.8-35.5-2.2-35.7 24.6-80 50.7-82.7 15.4-1.6 29.6 10.8 30.5 24.5 1.5 23.4-17.3 47.7-38.8 48.5-4.2.1-10-.7-10-.7-.9 3.8-1.4 7.1-1.2 10.1zm8.5-29.3c.8.2 1.3.2 2.3.1 5.5-.4 10.1-2.9 14-8.4 3.5-4.7 6.1-10.6 5.9-13.9-.1-2.2-3.7-5.3-5.5-5.2-2.7.2-6.7 3.1-11.4 9.2-2.6 3.4-4.9 8-6.3 12.1-.5 1.6.8 2.7.4 4.3-.4 1-.7 1.8-.7 1.8s.6.1 1.3 0z"/><path class="st1" d="M576.2 424.3c.4 5.7 3.6 8.8 8.9 8.5 5.7-.3 13.3-5.6 21.7-15.7 2.7-3 4-4.1 5.7-4.2 1.9-.1 3.2 1.5 3.3 4.3.5 6.9-2.3 15.6-7.3 23.3-7 10.7-17.5 17.3-28.2 18-16.9 1-31.3-13.1-32.5-31.8-2.1-34 26.3-78 51.3-79.5 12.8-.8 23.7 9 24.5 22 1.4 22.3-16.5 44.9-36.9 46.2-2.1.2-8.9-.6-8.9-.6-1.3 3.6-1.8 6.7-1.6 9.5zm10-27.5c5.2-.4 9.6-2.8 13.3-8 3.3-4.5 5.8-10.1 5.6-13.2-.2-2.1-1.4-3.2-3.1-3.1-2.6.2-6.2 3-10.9 8.8-2.2 2.7-4.4 6.2-6.1 9.6-.6 1.5-1.2 2.7-1.6 4.2-.4 1-.6 1.7-.6 1.7h3.4z"/><path class="st3" d="M836.9 324.6c-.4 2.3-.8 3.4-5.2 12.5-10.8 22.1-23.2 49.6-31.2 71.3-4.2 11.3-6.1 17.5-6.1 21 0 1.9.7 2.8 2.1 2.8 1.2 0 2.8-.9 4.9-2.8 3.8-3.8 10.9-13 14.6-18.6 4-6.9 1-14.3 2.7-13.6 2.6 1.2 10.3 12.4 10.3 17.6 0 4-1.9 9-6.6 16.8-13.4 22.9-25 33.3-36.1 33.3-11.6 0-24-12-24.9-27-.6-11.3 8.8-26.1 16.8-47.8 7.3-19.6 17.5-43 23.9-57.4 3-6.7 4.3-10.5 7.3-16.3 2.2-4.2 2.9-15.2 9.6-13.5 14.7 3.8 18.6 17 17.9 21.7z"/><path class="st1" d="M831.8 318c0 2.4 0 2.1-5.2 12.5-11.1 22-23.1 49.6-31.2 71.3-4.2 11.3-6.1 17.5-6.1 21 0 1.9.7 2.8 2.1 2.8 1.2 0 2.8-1 5-2.8 3.8-3.8 10.9-13 14.6-18.7 4-6.9 4.5-7.3 6.4-7.3 2.8 0 6.6 6.1 6.6 11.3 0 4-1.9 9-6.6 16.8-13.5 22.9-25 33.3-36.1 33.3-11.6 0-20.1-10.6-20.1-25.3 0-11.3 4-27.9 12-49.6 7.3-19.6 17.5-43 23.9-57.4 3-6.7 4.3-10.5 7.3-16.3 2.2-4.3 5.6-9.3 12.3-7.6 14.6 3.9 15.1 14.5 15.1 16z"/><path class="st3" d="M418.7 531.4c.1 1.5-.5 3.3-1.8 6.3-.5 1.8-.8 2.5-.8 3.3 0 1 .5 1.5 1 1.5.8 0 1.5-.5 4-3.2l2.8-3c9.8-10.8 13.5-19.5 19.8-19.5 4.5 0 13.6 5.8 17.6 11.6 3.3 4.2 5 8 5 11.6 0 4.3-1.5 9-6.3 19l-5.8 12c-6.3 13.5-9.6 22.3-9.6 26.1 0 1.8 1 3 2.5 3 2 0 4.2-1.5 7.5-5 4-4.7 11.3-14.5 15.9-21.8 1.2-2-2.4-8-1.4-8 1.5 0 8.1 5.7 9.6 7.7 2 2.8 2.6 5.9 2.6 7.6 0 7-6.6 21-15.2 32.6-10.8 14.7-20.9 21.3-31.2 21.7-14 .5-26.6-9.9-26.3-25.8.4-15.7 3.7-25.3 10.4-39.6 1.8-3.8 7.1-4.2 7.1-5.2 0-1.3-.5-2-1.7-2-3 0-7 3.7-12.8 11-13.1 16.3-17.7 31.1-17.8 44.7 0 .7.2 4.5.2 5 0 4-8.9 12.5-16.5 11.9-11.4-.8-14.3-5.7-16.3-9s-.6-14.2-.6-17c0-4.8 3-5.7 6.8-19.7 5.1-17.5 10.4-31.6 19.2-51.1 1.8-4 2.3-5.7 2.3-8.5.3-4.5 1-5.5 4.1-7.5 2.8-1.5 4.2-5.5 8.6-4.7 12.5 2.1 16.9 11.1 17.1 14z"/><path class="st1" d="M415.2 527.8c.1 1.5-.5 3.1-1.7 6-.5 1.7-.7 2.4-.7 3.1 0 .9.5 1.4 1 1.4.7 0 1.4-.5 3.8-3.1l2.6-2.8c9.4-10.2 17.5-15.7 23.5-15.7 4.3 0 8.4 2.7 12.2 8.2 3.1 4.1 4.8 7.7 4.7 11 0 4.1-1.5 8.6-6 18.1l-5.5 11.4c-6 12.9-9.2 21.2-9.2 24.8 0 1.7 1 2.9 2.4 2.9 1.9 0 4.1-1.4 7.2-4.8 3.9-4.5 10.8-13.8 15.1-20.7 1.2-1.9 2.1-2.6 3.1-2.6 1.4 0 2.9 1 4.3 2.9 1.9 2.6 2.8 5 2.8 6.7 0 6.7-6.3 20-14.5 31-10.3 14.1-19.9 20.7-29.7 20.7-11.7 0-20.8-10.6-20.7-24.4.1-9.6 3.5-21.3 10.4-37.3 1.7-3.6 1.9-4.5 1.9-5.5 0-1.2-.5-1.9-1.7-1.9-2.9 0-6.7 3.6-12.2 10.5-12.5 15.4-20.2 32.9-20.2 45.8 0 .7.2 4.3.2 4.7 0 3.8-6.8 8.8-12.5 8.1-10.8-1.4-13.4-6.7-13.4-6.7-2.2-3.3-2.1-6.8-2.1-9.4 0-4.5 2.2-14.1 5.9-27.5 4.8-16.7 9.9-30 18.3-48.7 1.7-3.8 2.2-5.5 2.2-8.1.2-4.3 1-5.3 3.9-7.2 2.6-1.4 6.6-2.2 10.8-1.6 10.3 1.8 13.6 7.9 13.8 10.7z"/><path class="st3" d="M670.3 516.1c14.6-.6 26.2 10.7 26.7 26.3.2 8-1.7 18.4-4.3 24-1.9 4-7 7.5-11.3 7.6-4.5.2-13.5-2.8-14.9-13.5-.2-1.5 5.7-.5 7.1-4.3 1.4-3.6 1.6-4.8 1.6-6.1 0-1.5-.8-2.2-2.1-2.2-1.5 0-4.2 2.6-7.8 7.8-8.6 12.3-16.1 32.1-15.8 42.4.2 6.8 3.8 10.9 9.1 10.8 6.3-.2 8.2-9.2 21.1-23.4 1.2-1.1.8-2.7 1.8-2.7 3.1-.1 8.7 7.1 8.8 10.6.2 7.5-3.7 18.2-9.7 26.6-7.2 10-17.8 14.3-28.3 14.6-18.5.6-35.9-12.9-36.6-34.2-1.5-38.9 27.7-83.2 54.6-84.3z"/><path class="st1" d="M670.3 516.1c11.7-.4 19.6 8.5 20.1 23.3.2 7.6-1.6 17.5-4.1 22.8-1.8 3.9-6.7 7.1-10.8 7.3-4.3.1-9-5.2-9.1-10.2-.1-1.4.4-3.1 1.7-6.7 1.3-3.4 1.5-4.6 1.5-5.8-.1-1.4-.8-2.1-2-2.1-1.4.1-4 2.5-7.4 7.4-8.2 11.7-15.3 30.6-15 40.4.2 6.4 3.7 10.4 8.7 10.2 6-.2 12.5-4.9 24.8-18.4 1.2-1 1.6-1.5 2.6-1.5 1.4-.1 2.7 1.8 2.8 5.2.2 7.1-3.5 17.3-9.2 25.4-6.9 9.5-16.5 15.1-26.6 15.4-17.7.5-31-13.9-31.6-34.2-1.3-34.9 28-77.7 53.6-78.5z"/><path class="st3" d="M510.6 548.9c13.1-18.1 22.9-30.3 34-31.1 8.4-.6 13.6-.3 23.9 5.6 14.3 8.2 20.4 21.6 14.8 42.1-1.7 6.3-5.7 12.9-7.7 18.3-2.5 6.7-3.5 10.4-3.5 13.1 0 2 .8 3.2 2.5 3.2 2.2 0 4.7-1.7 8.4-5.9 3.9-4.5 10.7-13.4 14.6-19.6 2.3-3.5-3.5-8.6-2-8.7 1.8-.1 9.4 5.7 11.5 8.2 2.4 2.8 2.5 5.4 2.5 7.4 0 6.2-6.7 19.6-15.4 31.2-10.7 14.9-20.6 21.6-31 21.6-8.4 0-18.5-7.4-21.2-18.1l4-6.9c-.2-1.5 2.6-2.5 1.9-2.5-.7 0-5.8 10.9-7 12.1-9.2 10.7-17.1 15.1-26.8 15.1-14.6 0-25.9-12.4-25.9-30.3 0-16.9 9-36.5 22.4-54.8zm25.5 11.6c-9.2 12.4-16.1 28.5-16.1 37.7 0 3.7 1.7 6.4 4.2 6.4 4 0 10.2-5.4 16.4-14.6 8.4-11.9 16.1-30.3 16.1-38.5 0-3.7-1.2-5.4-4-5.4-3.4 0-10.4 5.7-16.6 14.4z"/><path class="st1" d="M507.7 545.9c12.5-17.2 27.9-28.6 38.5-28.6 6.9 0 11.9.3 20.2 6.8 13 10.1 15.4 18.6 10.5 37.6-1.7 6.5-5.4 12.3-7.3 17.5-2.4 6.4-3.3 9.9-3.3 12.5 0 1.9.7 3.1 2.4 3.1 2.1 0 4.5-1.7 8-5.7 3.8-4.2 10.1-12.7 13.9-18.6 2.1-3.3 3.3-4.5 4.7-4.5 1.2 0 2.6 1.4 4.3 4 1.4 2.4 2.4 5.2 2.4 7.1 0 5.9-6.4 18.7-14.6 29.8-10.2 14.2-19.6 20.5-29.5 20.5-8 0-14.1-4.5-16.5-12.5 0 0-1.4-3.7-2.4-3.8-.7-.1-1.2.5-2.3 1.7-8.7 10.1-16.3 14.4-25.5 14.4-13.9 0-23.1-11.3-23.1-28.3-.2-16.4 6.9-35.5 19.6-53zM532 557c-8.7 11.8-15.3 27.2-15.3 35.9 0 3.5 1.7 6.1 4 6.1 3.8 0 9.7-5.2 15.6-13.9 8-11.3 15.3-28.8 15.3-36.6 0-3.6-1.2-5.2-3.8-5.2-3.3 0-9.9 5.4-15.8 13.7z"/><path class="st3" d="M777 491.5c-.2 2.1-1.5 5.8-6.9 16.2-4.9 9.7-7.6 15.5-11 23.1-2.5 5.3-4.7 10.4-5.8 13.3l-1.1 2.7c-.9 2.4-1.1 3.1-1.1 3.8 0 .5.5.9 1 .9s1-.3 2.6-2l2.3-2.5c14.3-15.7 24.7-30.5 35.8-29.4 9.6 1 14.8 10.2 15.8 17.8.4 3.1-.6 8.5-2.8 12.2-1.6 2.7-2.5 3.2-4.9 3.5-8.8.5-17.3 4.4-20.3 9-1.6 2.4-2.2 6.3-3 18.5-.3 6.5-.6 12-.5 14.4.2 5.8 1.4 8.3 3.6 8.3 1.9-.1 4-1.6 7.2-5.5 4.8-5.6 10.6-13.9 13.3-19 2.5-4.4-.6-11.2 1.1-11.2 3.1-.1 11.2 7.3 11.3 16.1.1 6-5.4 18.6-12.7 29.6-9.8 14.9-20.3 22.9-30.4 23.2-12.4.4-21.9-8.7-24.6-26.5-.8-5 3.8-15.1 4.3-20.6l.4-3.6c0-.5.2-1 .2-1.5 0-.9-.5-1.4-1.3-1.4-.7 0-2.3 1.5-4.6 4.4-7.4 9.3-14 26.2-13.7 35.3 0 1 .9 4.3.8 6-.3 4.1-8.5 8.2-14.7 7.9-7-.4-21.9-6.2-20-17.8 1.1-6.9 10.2-21.2 16.5-41 4.2-12.8 8.3-24.6 12.3-34.8 4.9-12.6 9.2-23.5 12.7-31 0 0 8.8-22.5 10.8-26.6 2.7-5.6 2.7-12.7 9.4-11.9 12.8 1.7 18.4 14.7 18 20.1z"/><path class="st1" d="M772.3 486.1c.1 2.2-1.5 5.8-6.9 16.2-4.9 9.7-7.6 15.5-11 23-2.5 5.3-4.7 10.4-5.8 13.3l-1.1 2.7c-.9 2.4-1.1 3.1-1.1 3.8 0 .5.5 1 1 .9.5 0 1-.3 2.6-2l2.3-2.5c14.3-15.7 26.8-23.8 38-24.1 7.9-.2 12.4 5.3 13.7 12.6.5 3.1-.6 8.6-2.9 12.2-1.6 2.7-2.5 3.2-4.9 3.5-8.8.5-17.3 4.3-20.3 9-1.6 2.4-2.2 6.3-3 18.5-.3 6.4-.6 12-.5 14.3.2 5.7 1.5 8.3 3.6 8.3 1.9-.1 4-1.6 7.2-5.5 4.9-5.6 10.6-13.9 13.3-19 2.5-4.4 3.7-5.9 5.3-5.9 3.1-.1 6.9 6 7 10.8.2 6-5.4 18.6-12.7 29.6-9.8 14.9-20.3 22.9-30.4 23.2-12.4.4-20.4-11.6-21-31.1-.2-5 .1-10.5.7-16.1l.4-3.6c0-.5.2-.9.2-1.4 0-1-.5-1.4-1.2-1.4s-2.4 1.5-4.6 4.5c-7.4 9.3-14 26.2-13.7 35.3 0 .9.7 5.7.7 6.2.1 4.1-8.4 8.1-14.6 7.7-4.8-.3-17.1-2.4-15.3-13.9 1.1-6.8 5.4-25 11.8-44.8 4.1-12.8 8.3-24.6 12.3-34.8 4.9-12.6 9.1-23.5 12.7-31 0 0 8.8-22.5 10.8-26.6 2.7-5.6 4.9-8.1 11.5-7.3 12.9 1.6 15.8 14.2 15.9 15.4z"/><path class="st3" d="M829.9 599.5c5.2 0 10.3 4.9 12.7 8.6 3.5 5 7.2 1.5 11.2 1.2 5.2-.4 9.7-4.6 9.4-8.9-.2-2.4-1.8-4.6-4.9-6.8l-6.6-4.5c-11.2-7.7-16-14.6-16.7-23.4-1.5-18.6 20.1-49.6 40.8-48.9 8.5.3 18.8 7.8 22.5 16.1 2.1 4.7 3.3 9 1.8 20.3-.7 4.5-1.7 9.7-4.7 14.5-1.7 2.8-3.9 4.7-6.1 4.9-8 .8-12.8-5.6-15.7-8.8-6.4-7.2 7.4-10.9 6.7-14.5-.3-1.6-1.4-3-3.3-2.8-2.1.1-4.6 1.8-7.3 4.9-4.2 4.7-6.7 9.9-6.3 14 .4 5 3.7 9.3 14.4 17.3 8.6 6.3 12 10 12.6 17.2 1.3 16-16.8 32.5-37.3 34.2-16.2 1.3-28.6-3.8-34.3-16.3-3-7.1 3.3-18.3 11.1-18.3z"/><path class="st1" d="M829.2 594.7c3.8-.3 6 .7 8.5 4.4 3.5 5 5.8 6.2 9.8 5.9 5.2-.4 9.7-4.6 9.4-8.9-.2-2.4-1.8-4.6-4.9-6.8l-6.6-4.5c-11.2-7.7-16-14.5-16.7-23.3-1.5-18.6 22.2-43 42.9-44.7 7.9-.6 16.2 4.4 20.5 11.9 2.5 4.5 3.3 9 1.8 20.4-.6 4.5-2.5 10.8-5.4 15.6-1.7 2.8-3.8 4-6 4.2-2.9.2-5.8-1.6-8.7-4.9-6.4-7.2 1-15.1.4-18.8-.3-1.6-1.4-3-3.3-2.8-2.2.2-4.6 1.8-7.3 4.9-4.2 4.7-6.6 9.9-6.3 13.9.4 5 4.3 9.2 15.1 17.2 8.6 6.3 11.3 10.1 11.9 17.3 1.3 16-16.8 32.5-37.3 34.2-16.2 1.3-29.6-7.2-30.6-20.1-.8-7.8 4.9-14.5 12.8-15.1z"/><g><path class="st3" d="M283.8 460.4c15.5-17.7 32.1-38.6 45.9-40.1 11.4-1.2 19.9 7.5 27.2 17.4 19.6 26.5 16.7 39 6.9 70.2-3.3 10.4-7.5 15.5-13.9 15.7-15.9.7-28.3-15.4-26.3-33.5 1-9 15.3-18.1 15-21.5-.2-2.1-1.9-3.5-4.1-3.3-4.3.5-12.1 5.6-18.2 12.5-12 12.7-17.3 24.4-16.2 35.2.7 6.8 3.4 12 8.4 18.1 3.1 3.4 8.8.9 20.3 10 17.3 13.7 20 25.5 21.2 36.9 3.1 29.8-28.1 60.6-65.3 64.5-28.2 2.9-54.1-14.8-57.6-39.3-1.8-12.5 12.1-16.2 24.7-17.5 6.1-.6 10.1 1.8 15.2 9.3 6.3 9.3 11.5 12.1 20.1 11.2 13.5-1.4 25.1-12.8 23.9-23.6-.7-6.8-5.3-12.8-18.5-22.9-22.7-17.8-32.3-31.1-35-47.8-2.7-17.3 9.4-32.3 26.3-51.5z"/><path class="st1" d="M279.4 450.7c15.5-17.8 33.6-29.3 47.4-30.7 11.4-1.2 21.6 4.3 26.7 14.9l4.7 9.1 4.4 9.5c1.9 3.9 3 7.8 3.3 11.1.7 7.1-1.9 20.4-6.4 33.6-3.6 10.3-8 15.1-13.9 15.7-7 .7-13.8-2.7-17.8-8 0 0-10.1-11.2.2-29.8 4.4-8 6.6-13.7 6.3-17.1-.2-2.1-1.9-3.5-4.1-3.3-4.3.4-12.1 5.6-18.2 12.5-12 12.7-17.3 24.4-16.2 35.2.7 6.7 3.4 12.1 8.4 18.1 3.1 3.4 8.6 7.8 20.3 16.5 14.1 10.3 20 19 21.2 30.4 3.1 29.8-28.1 60.6-65.3 64.5-28.2 3-51-10.5-53.3-31.7-1.3-12.6 7.8-23.8 20.4-25.1 6.1-.7 10.1 1.7 15.2 9.2 6.3 9.3 11.5 12.1 20.1 11.3 13.5-1.4 25.1-12.9 23.9-23.6-.7-6.7-5.4-12.8-18.5-22.9-22.6-17.8-29.9-27.9-31.6-43.9-1.8-17.5 5.9-36.3 22.8-55.5z"/></g></svg>