<svg xmlns="http://www.w3.org/2000/svg" class="redanredan-logo" width="160" height="92" viewBox="0 0 980 554.5"><path fill="#2C2C2C" d="M928.2 348.3l-.2.2s0 .1-.1.1c-.1.1-.2.3-.3.4s-.1.2-.2.3c-.1.1-.1.2-.2.3-.1.1-.2.3-.3.4l-.1.1c-.1.2-.3.3-.4.5-8.5 10.7-19.8 19-32.5 23.9-.2.1-.4.1-.6.2h-.1c-.2.1-.3.1-.5.2-.1 0-.1.1-.2.1-.2.1-.3.1-.5.2-.1 0-.1 0-.2.1s-.3.1-.4.1c-.1 0-.2.1-.2.1 14.8-4.9 27.9-14.6 37-27.2z"/><g class="text" fill="#161616"><path d="M849 416.6c-8.5-1.3-17.1-1.8-25.7-2.2-1.5-.1-3.1-.1-4.6-.1-2.1.1-4.2.1-6.3.2-4.5.1-9 .2-13.5.5-1.1-.7-2.4-1.2-3.8-1.2-3.7-.2-7.2 3-7 6.9v1.5c0 .5.1.9.1 1.4.5 9.3 1 18.6 1.4 27.9-1 .4-1.9.8-2.7 1.3-3.2 2.1-4.5 6.2-2.5 9.6 1.2 2.1 3.6 3.4 5.9 3.5.3 6.7.6 13.4.8 20.1.1 3.8 3.1 7 7 7 3.8 0 7.2-3.2 7-7-.2-7.6-.6-15.1-.9-22.7 3-.1 5.9-.2 8.9-.2h12.8c3.8 0 7-3.2 7-7 0-3.9-3.2-7-7-7-2.8 0-5.7-.1-8.5-.1-1.8.1-3.5.1-5.2.1-2.5 0-4.9.1-7.4.1-.4 0-.9 0-1.3.1-.3-6.8-.7-13.6-1-20.4 3-.1 6.1-.2 9.2-.4 3.5-.1 6.9-.2 10.4-.1 4.1.2 8.2.3 12.3.6 3.5.3 7 .6 10.5 1 .1 0 .3 0 .4.1 2 .3 3.6.3 5.4-.7 1.6-.9 2.8-2.4 3.2-4.2.5-1.8.2-3.8-.7-5.4-.8-1.4-2.5-3-4.2-3.2zm-672.9 96.5c-1.5-2.5-3.3-4.8-5-7.1-2.2-3-4.4-6-6.6-8.9 4-3.1 7.8-6.4 11.1-10.2 2.5-2.8 4.6-6 5.7-9.6.5-1.5.5-4 0-5.6-.2-.9-.6-1.7-1-2.5-.7-1.2-1.9-2.3-3-3.1-2.4-1.6-5.2-2.2-8.1-2.2-3.2.2-6.7.9-9.9 1.6-2.9.6-5.8 1.2-8.7 1.9-7.2 1.6-14.4 3.6-21.8 4.8-.8.1-1.6.1-2.4.1-.1 0-.2 0-.3-.1-2.6-1.7-6.4-1-8.5 1.1-2.3 2.3-2.7 5.8-1.1 8.5 1.9 3.3 3.4 6.8 5 10.3 1.2 2.6 2.3 5.3 3.5 8 2.4 6.4 4.9 12.7 7.1 19.2 3.3 10 6.6 19.9 9.8 29.9 1.2 3.7 4.9 6 8.7 4.9 3.6-1 6.1-5 4.9-8.7-2.3-7.4-4.7-14.7-7.2-22-1.6-4.7-3.1-9.4-4.8-14.1 1.6.4 3.8.2 5.1-.8 1.6-1.2 3.1-2.3 4.7-3.4.3.3.5.7.8 1 .2.2.3.5.5.7-.1-.2-.3-.3-.4-.5.2.2.3.4.5.6 1.9 2.5 3.7 5.2 5.6 7.8 1.5 2.1 3 4.1 4.3 6.3 3.6 5.7 7.2 11.4 10 17.6.7 1.6 2.6 2.8 4.2 3.2 1.8.5 3.8.2 5.4-.7 1.6-.9 2.8-2.5 3.2-4.2.5-2 .1-3.6-.7-5.4-3-6.5-6.8-12.4-10.6-18.4zm-20.2-26.9c-2.1 1.6-4.2 3.1-6.3 4.6-2.7 1.9-5.4 3.7-8.1 5.7-.8.6-1.6 1.2-2.1 2-1-2.5-2-5-3.1-7.5-.8-1.8-1.6-3.6-2.4-5.5 2.2-.3 4.3-.8 6.4-1.3 3.4-.8 6.9-1.6 10.3-2.4 4.5-1 8.9-2.1 13.4-2.9-2.5 2.6-5.3 5-8.1 7.3zm82.6-.9c-.7 0-1.3.1-1.9.3-8.5 2.3-17.1 4.7-25.6 7.4-.3-2.8-.7-5.5-1.2-8.3-.5-2.5-1.1-5.1-1.8-7.6-.1-.2-.2-.5-.2-.7 7-1.8 14.1-3.4 21.2-5.1 3.7-.9 5.9-5.1 4.9-8.7-.9-3.2-3.8-5.1-6.9-5.1-.5 0-1.1.1-1.7.2-6 1.4-12 2.9-18.1 4.3-1.5.4-3.1.7-4.6 1.1-1 .3-2.1.5-3.1.8-2.3.7-4.9 1.9-6 4.2-.4.7-.7 1.5-1 2.2-.4 1.3-.4 3.2 0 4.5.5 1.7 1 3.3 1.6 4.9 1.4 4 2.2 8.3 2.8 12.5.3 2.5.6 5 .8 7.5-.7 1.4-.8 3.1-.4 4.8.2.7.5 1.4.9 2 .1 1.6.3 3.2.4 4.7.2 2.2.5 4.3.8 6.5.3 1.7.6 3.3 1.2 4.9.7 1.6 1.4 3 2.4 4.4.6.8 1.1 1.5 1.8 2.2.9.9 2 1.6 3 2.3.6.3 1.2.6 1.9.9 1.2.5 2.4 1 3.7 1.4 2.2.6 4.5.9 6.8 1 1.9.1 3.8-.3 5.7-.6 2-.4 4-1.1 5.9-1.7 2.1-.7 4.2-1.5 6.2-2.3 1.8-.7 3.2-1.5 4.2-3.2 1-1.6 1.2-3.6.7-5.4-.5-1.8-1.7-3.3-3.2-4.2s-3.7-1.4-5.4-.7c-4.1 1.6-8.2 3.2-12.5 4-1 .1-2 0-3 0-1.1-.2-2.1-.5-3.1-.9-.3-.2-.7-.4-1-.6l-.2-.2c-.3-.4-.5-.8-.7-1.2-.4-1.4-.7-2.9-.9-4.4l-.6-6c9.3-2.9 18.6-5.7 28.1-8.2 3.7-1 5.9-5 4.9-8.7-.9-3.1-3.7-5.2-6.8-5.2zm72.4-16c-4.3-5.8-10.4-9.4-17.1-11.8-3.3-1.2-6.8-1.7-10.3-2.1-2.6-.3-5.1-.5-7.7-.5-.8.1-1.6.1-2.4.1-3.6.1-7.3.7-10.8 1.6-1.8.5-3.4 1.2-5 1.9-.6-.1-1.2-.2-1.8-.2-.7.2-1.3.3-1.8.4-1.8.5-3.3 1.7-4.2 3.2-1 1.7-1.1 3.5-.7 5.4 1.3 6.7 2.6 13.3 4 19.9.9 4.2 1.6 8.5 2.6 12.7 2.1 9.2 4.2 18.4 6.9 27.4 1.1 3.7 4.9 6 8.7 4.9 2.5-.7 4.5-2.9 5-5.5.9 1.3 2.2 2.2 3.8 2.6 1.7.5 4 .3 5.4-.7 4.2-3 8.2-6.1 12.3-9.2 4.8-3.8 9.1-8.4 12.5-13.5 1.9-2.8 3.2-5.8 4.4-8.8 1.2-3.1 1.6-6.7 1.8-10 .1-2.9-.4-5.9-1.1-8.8-.8-3.2-2.5-6.4-4.5-9zm-8.6 19.5c-.3 1.7-.7 3.3-1.3 4.9-1.1 2.3-2.4 4.5-3.8 6.5-2.5 3.1-5.4 5.9-8.4 8.5-1.2 1-2.4 1.9-3.6 2.9-2.2 1.7-4.5 3.3-6.8 4.9-1.4 1-2.6 2.2-3.1 3.9-2.3-7.9-4-16-5.9-24-1-4.1-1.7-8.2-2.6-12.4-.9-4.4-1.8-8.7-2.6-13 2.1-.7 4.1-1.2 6.3-1.6 4-.4 8-.4 12.1.1 3.1.5 6.1 1.2 9 2.3 1.7.8 3.3 1.7 4.9 2.8 1 .8 1.9 1.7 2.8 2.7.7 1.1 1.4 2.2 2 3.4.4 1.2.7 2.5 1 3.8.1 1.5.1 2.9 0 4.3zm69.4 6.9c.6-.6 1.2-1.2 1.5-1.8.9-1.6 1.2-3.6.7-5.4s-1.7-3.3-3.2-4.2c-1.1-.7-2.3-.9-3.4-.9-.8-.2-1.4-.1-2.1.1h-.2c-3.3-6.2-6.5-12.5-9.3-18.9-.6-1.4-1.1-2.7-1.7-4.1-.8-1.8-1.7-3.3-2.8-4.9-1.5-2.2-3.7-3.4-6.1-3.4-1.2-.1-2.4.2-3.5.8-1.3.7-2.5 1.6-3.2 2.9-.5 1-.9 2-1.3 3.1-.4 1.2-.9 2.4-1.3 3.6l-2.4 6.9c-1.5 4.4-3.1 8.8-4.7 13.3-1.7 4.7-3.1 9.5-4.6 14.2-.6 1.9-.9 3.9-1.4 5.9-.8 3.6-1.6 7.3-2.4 10.9-.4 1.9-.3 3.7.7 5.4.9 1.6 2.5 2.8 4.2 3.2 3.5 1 7.9-1.2 8.7-4.9.7-3.2 1.3-6.4 2.1-9.6.3-1.5.6-2.9.9-4.3 1.1.2 2.2.2 3.4-.1 5.7-1.4 11.5-2.8 17.2-4.1.9 1.5 1.7 3.1 2.6 4.6 2.1 3.7 4.1 7.4 5.9 11.2.7 1.6 2.6 2.8 4.2 3.2 1.8.5 3.8.2 5.4-.7s2.8-2.4 3.2-4.2c.6-2 .1-3.6-.7-5.4-1.9-4.2-4.2-8.3-6.4-12.4zm-30.2-7c0-.1.1-.2.1-.3 1.4-3.9 2.8-7.9 4.2-11.8 1.5 3.3 3.1 6.6 4.8 9.9-3 .7-6.1 1.4-9.1 2.2zm96.5-9.8c-.4-3.9-.9-7.9-1.4-11.8-.9-7.3-1.9-14.5-2.6-21.8-.2-1.9-.6-3.6-2.1-5-1.3-1.3-3.1-2.1-5-2.1-1.9.1-3.7.8-5 2.1-1.2 1.2-2.2 3.2-2.1 5 .7 7.1 1.7 14.2 2.6 21.2l1.2 9.9.6 5.1c-.7-.7-1.3-1.4-2-2-2.8-2.8-5.5-5.6-8.3-8.3-5.1-4.9-10.1-9.8-15.5-14.2-2.5-2-5-4-7.8-5.7-1.1-.7-2.2-1.2-3.4-1.7-.9-.4-1.8-.6-2.8-.6-.9-.2-1.8-.1-2.7.1-1.4.5-2.6 1-3.7 2.1-1.3 1.3-2 2.6-2.5 4.4-.4 1.6-.2 3.3-.1 5 .1 1.4.3 2.9.5 4.3.5 3.8.8 7.6 1.5 11.4.7 3.9 1.4 7.8 2 11.7 1.3 7.6 3.1 15.2 4.6 22.8.8 3.8 5.1 5.9 8.7 4.9 3.9-1.1 5.7-4.9 4.9-8.7-1.4-6.7-2.8-13.4-4.1-20-1-4.7-1.7-9.5-2.5-14.3-.2-1.3-.3-2.7-.5-4 6.6 5.5 12.7 11.6 18.7 17.7 2.7 2.7 5.4 5.4 8 8.1 1.1 1.1 2.3 2.3 3.5 3.4 1.9 1.8 3.8 3.9 6.4 4.6 1.5.5 3 .7 4.6.3 2-.6 3.8-2 4.9-3.7 2.7-4.1 2.3-9.4 2-14.2l-.6-6zm61.4 3.3c-2.2-3.9-4.5-7.7-6.8-11.5.8-.5 1.6-1.1 2.3-1.6 2.5-1.7 4.6-3.6 6.4-6 1.7-2.2 3-4.4 3.8-7 .4-1.3.4-2.8.4-4.1 0-1.3-.3-2.8-.7-4-.7-2.4-2.4-4.2-4.2-5.9-2.1-1.9-4.5-3.5-6.9-5-4.4-2.7-9.2-4.6-14-6.5-5-1.9-10-3.4-15.2-4.6-1.4-.3-2.8-.5-4.1-.5-1.5.1-2.8.3-4.1.5-1.2.2-2.4.9-3.4 1.6-1.1.7-2.4 1.9-3 3.1-1.3 2.4-1.8 4.6-1.8 7.3 0 2.3.3 4.7.5 7 .4 3.6.7 7.3 1.2 10.9 1 7.3 1.9 14.7 2.8 22 .9 7.5 1.8 14.9 2.7 22.4.2 1.9.6 3.6 2.1 5 1.3 1.3 3.1 2.1 5 2.1s3.7-.7 5-2.1c1.2-1.2 2.3-3.2 2.1-5-.7-6.5-1.5-13.1-2.3-19.6.9-.2 1.8-.5 2.7-.7 2-.5 3.9-1.2 5.8-1.7 1.4-.4 2.8-.9 4.2-1.4 2.5 3.9 4.8 7.8 7 11.8 2.7 4.9 5.3 9.9 7.9 14.8 1.8 3.4 6.4 4.4 9.6 2.5 3.4-2 4.3-6.2 2.5-9.6-2.5-4.8-4.9-9.5-7.5-14.2zm-37.1-45.3c0 .1-.1.2-.1.3 0-.2 0-.2.1-.3zm28 17.2c-.8 1-1.7 1.9-2.7 2.7-3.1 2.2-6.3 4-9.7 5.5-3.6 1.4-7.2 2.5-10.9 3.6-.6.2-1.3.4-1.9.5-.5-3.4-1-7-1.4-10.7-.3-2.7-.6-5.3-.9-8-.3-2.6-.6-5.2-.7-7.8 5.7 1.2 11.3 3.3 16.7 5.5 3.8 1.7 7.5 3.6 10.8 6 .5.4 1 .9 1.5 1.3-.3.5-.5.9-.8 1.4zm63.6 28.9c-5.6 1.4-11.3 2.9-17 3.8-1.1.1-2.3.2-3.4.3-.1-1.8-.1-3.7-.1-5.5-.1-2.3-.2-4.6-.3-6.8 7-.9 14-1.7 21-2.4 1.9-.2 3.6-.6 5-2.1 1.3-1.3 2.1-3.1 2.1-5s-.7-3.7-2.1-5c-1.1-1.1-2.9-2.1-4.6-2.1h-.4c-7.5.7-15 1.6-22.4 2.6-.3-1.7-.5-3.3-.9-5-.7-3.4-1.7-6.7-3-9.9 1.6-.1 3.3-.3 4.9-.4 5.8-.5 11.7-.7 17.6-.8 3.8-.1 7-3.1 7-7 0-3.7-3.1-7-6.9-7h-.2c-7.4.2-14.7.6-22.1 1.2-2.6.2-5.2.5-7.8.7-1 .1-1.9.2-2.9.3-.9 0-1.8.2-2.7.5-1.9.5-3.1 1.7-4.2 3.2-1.2 1.6-1.5 4.1-1 6 .5 1.8 1.6 3.1 2.8 4.4.9 1.4 1.8 2.9 2.5 4.5 1.6 4.1 2.5 8.3 3.1 12.7v-.5c.1.3.1.5.1.8 0 .2.1.5.1.7.6 4.8.8 9.6 1.1 14.5.1 1.8.1 3.6.2 5.4.1 2.9-.2 6.2.9 8.9.2.9.7 1.8 1.3 2.5.4.5.7 1 1.1 1.4.7.6 1.5 1.2 2.3 1.7 1 .7 2.5 1.1 3.7 1.3 1.3.3 2.8.4 4.2.4 2.6 0 5.4-.5 8-.9 1.6-.2 3.2-.6 4.8-.9 4-.8 8-1.8 12-2.9 3.7-1 5.9-5 4.9-8.7-1-3.8-5-5.9-8.7-4.9z"/><path d="M518 464.9v-.4c0-.1 0-.2-.1-.3.1.2.1.5.1.7zm114.2-8.4c.6-3 .3-6.1-.8-8.9-1.2-3-3-5.6-5.8-7.4-2.6-1.7-5.4-3-8.2-4.3-5.6-2.5-11.4-4.5-17.2-6.2-3.1-.9-6.2-1.3-9.4-1.7-.8-.1-1.5-.1-2.3-.1-.8.4-1.7.4-2.5.4-1.8.1-3.6.3-5.2.8-1.4.4-2.5 1.2-3.4 2.2-1.6.6-2.9 1.7-3.7 3-1.1 1.8-1 3.4-.7 5.4 1.4 9.9 2.8 19.9 4.6 29.7 1 5.4 1.9 10.9 2.9 16.4-1.3 2.2-1.4 5.1-.1 7.3.5.9 1.2 1.6 2 2.1.1.4.2.8.2 1.2.8 3.8 5.1 5.9 8.7 4.9 3.9-1.1 5.7-4.9 4.9-8.7 0-.1 0-.2-.1-.3 1.8-1 3.6-2 5.4-3.1 5.4-3 10.4-6.6 15.2-10.5 4.9-4 9.1-8.8 12.3-14.2 1.5-2.5 2.6-5.2 3.2-8zm-13.7-1.5c-.1-.1-.1-.2 0-.3v.3zm-.5.5c-.9 1.9-2 3.8-3.3 5.5-2.6 3.2-5.7 6.1-8.9 8.7-4 2.9-8.2 5.6-12.4 8.1-.7-3.9-1.4-7.7-2.1-11.6-1.4-8-2.6-15.9-3.8-23.9 1.3 0 2.6 0 3.9.1 6.4 1.1 12.8 3.3 18.8 5.8 2.7 1.2 5.4 2.5 7.9 4.1 0 .1.1.2.1.3.1.4.2.8.3 1.1-.2.6-.3 1.2-.5 1.8zm66.1 17.5c-1.1-2.9-2.4-5.7-3.6-8.6-3.1-7.1-6.2-14.2-10-21-1.8-3.2-4-6.2-6.4-9.1-.4-.5-.9-.9-1.4-1.2-1.1-.8-2.4-1.9-3.8-2.2-.9-.2-1.8-.3-2.7-.3-1.4.1-2.6.4-3.8 1.3-1.1.6-1.9 1.5-2.5 2.5-.3.3-.5.7-.7 1-.8 1.3-1.5 3-2 4.5l-1.5 3.9c-2.4 6.8-4.9 13.6-7.6 20.3-3.2 7.4-7.1 14.3-11.5 21-2.1 3.2-.6 7.8 2.5 9.6 3.4 2 7.5.7 9.6-2.5 2.2-3.4 4.3-6.8 6.2-10.3 8.8-1.1 17.6-2.3 26.3-3 1 2.5 1.8 5.1 2.3 7.8v.4c.2 1.9.6 3.6 2.1 5 1.3 1.3 3.1 2.1 5 2.1s3.7-.7 5-2.1c1.2-1.2 2.2-3.2 2.1-5-.3-3.3-.8-6.5-2-9.6-.5-1.5-1-3-1.6-4.5zm-32.1-6.2c1.1-2.6 2.1-5.3 3.1-8 1-2.8 2-5.6 3-8.3 2.3 4 4.3 8.2 6.3 12.4.4.8.7 1.5 1.1 2.3-4.5.5-9 1-13.5 1.6z"/><path d="M637.5 465.3c.2-.3.3-.6.4-.9-.1.3-.3.6-.4.9zm108.6-3c-.3-2.4-.7-4.9-1-7.3-.5-4.9-.9-9.7-1.1-14.6-.2-4.5-.2-9.1-.1-13.7.1-3.8-3.3-7-7-7-4.1.2-7.1 3.4-7.2 7.2-.2 6.6 0 13.1.4 19.6.2 3.6.6 7.3 1.1 10.9.3 2.3.6 4.6 1 6.9l-6.3-6.3c-2.4-2.4-4.6-4.9-6.9-7.4-3.3-3.6-6.6-7.6-10.5-10.6-1.9-1.5-3.7-2.9-6.1-3.4-2.9-.7-6 .3-8.2 2.4-3.1 3.1-2.4 8-2.3 11.9.1 4.1.4 8.1.7 12.2.2 3.4.7 6.8 1.1 10.2.7 5.8 1.4 11.5 2.3 17.2.2 1.7 1.8 3.4 3.2 4.2 1.6 1 3.6 1.2 5.4.7 1.8-.5 3.3-1.7 4.2-3.2 1-1.8 1-3.5.7-5.4-.3-2-.6-3.9-.9-5.9-.3-2.8-.7-5.5-1-8.3-.3-2.3-.7-4.7-.8-7l-.6-8.1c.9 1 1.8 2 2.8 3 2.5 2.7 5 5.5 7.7 8.2 2.9 2.9 5.9 5.8 8.9 8.6 1.2 1.1 2.5 2.2 3.8 3.3.7.7 1.5 1.3 2.3 2s1.5 1.3 2.4 2c1.2.9 2.4 1.4 3.8 1.9 2.8 1.1 6.7-.6 8-3.2.5-.9.8-1.7 1.2-2.7.4-.9.6-1.9.6-2.9.2-1.8 0-3.6-.2-5.4-.3-3.4-.9-6.7-1.4-10zm-3.8 11.1c.1 0 .2.1.2.1-.1 0-.1-.1-.2-.1zm23.3-7.9c-3.8-.1-6.9 3.1-7 7v2.3c0 3.8 3.2 7 7 7 3.9 0 7-3.2 7-7v-2.3c0-3.8-3.2-7-7-7zm105.6-40.9c-.1-3.8-3.1-7-7-7-3.8-.1-7.1 3.1-7 7 .1 5.6.2 11.3.2 16.9 0 3.8-.1 7.5-.2 11.3-.2 8.3-.4 16.7-.5 25 0 3.8 3.2 7 7 7 3.9 0 7-3.2 7-7 .1-8.3.3-16.6.5-24.9.3-9.4.2-18.8 0-28.3z"/></g><path class="stain" fill="#161616" d="M777.8 6.6h-9.4c-16.7 0-33.7.3-48.1.7-34.1.8-68.3 2.5-101.4 4.1l-10.9.5c-9.9.5-20 1.2-29.8 2l-1.3.1-10.1.7-13.8.9-2.7.2c-11.2.7-22.7 1.4-34 2.5-9 .9-18.1 1.8-27.2 2.7-25.9 2.5-52.5 5.2-78.5 8.9-6.9 1-13.8 2-20.6 2.9h-.4c-26.4 3.7-53.7 7.6-80.4 12.6L284 50.2l-31.1 5.9c-19.7 3.8-41 9-65.4 16-10.8 3.1-22.4 6.6-33.9 11.1-12.9 5-26.5 11-38.4 21.1-6.5 5.6-9.4 15.4-9.4 22.8 0 7.2 2.5 14.3 6.9 20l-1.2.9c-8.5 6.5-12.4 18.5-9.5 29l.1.4c-1.6.7-3.1 1.3-4.7 2-5.6 2.3-11.2 4.7-16.8 7.2l-2.8 1c-8.9 3.3-18 6.7-24.3 13.9-5.1 5.1-8.6 11.3-10.6 18.2-.7 2.6-1.2 5.3-1.4 8.1C32.2 238.3 27 251.9 27 266c0 9.3 2.2 18.1 6.4 26.3-7.3 5.2-13.3 11.8-18 19.7-8.7 14.9-11.1 33-6.5 49.7 3.2 11.8 9.8 22.4 19.1 30.6.7 10.1 3.8 20 8.9 28.7 11.8 20.2 33.9 32.7 57.7 32.7 5.8 0 11.6-.8 17.2-2.2 33.3-8.7 67.3-18.7 101-29.6l13.3-4.3 3-.6 2.9-.6 6.6-1.4 29.6-6.4c1.6-.3 3.2-.7 4.7-1.1 3.3-.8 6.6-1.6 9.9-2.1l27.3-4.1 24.2-3.6 6.7-1 24.5-3.7 1.4-.2 31.3-3.2 70-7c9.6-1 19.6-1.5 28.5-1.9l2.2-.1 11.7-.6 8.2-.5 57.6-3.6c8.9-.6 18.1-.7 26.2-.7 3.2 0 6.3-.1 9.5-.1l34.1-.6 34.3-.6c2 0 4-.1 6-.1 8.1 0 16.3.3 24.3.5h.4l11.1.3 12.3.3c12.2.3 24.2.6 35.8 1.1 7 .3 14 .6 21 1 25 1.2 50.9 2.5 76.5 2.5 32.9 0 63-23 71.7-54.6 3.9-14 3.5-28.8-1-42.7 21-14.7 34-39.5 34-64.9 0-13.1-3.4-26.2-9.7-37.8 2.1-7 3.2-14.2 3.2-21.5 0-19.5-7.9-38.7-21.7-52.5l-15-11.6c-11.5-6.7-24.2-10.1-37.5-10.2-8.3-.8-16.9-.8-24.5-.9h-4.8c-5.5-8.6-13.3-15.7-22.5-20.7.7-.2 1.5-.3 2.2-.5 4.4-1.2 8.1-3.4 11.2-6.6 5.1-5.2 8.1-12.3 8.1-19.6s-3-14.4-8.1-19.6c-1.9-1.4-3.7-2.9-5.6-4.3-4.3-2.5-9-3.8-14-3.8-5.3-.6-10.7-.6-15.9-.7h-5.4l-9-.1-9.2-.2c-4.3-.1-8.7-.1-13-.1h-3.6zM604.7 166.8zM549.6 229s0 .1 0 0c0 .1 0 0 0 0zM281 250.7h.2l1.3 1.2-1.5-1.2zm252.8 11.2h.3c-.1.1-.1.1-.3 0zm-187.6 35.4v-.1.1z"/><path class="text-inside" fill="#fff" d="M291.8 121.9c-4.3 1.2-6.4 5.5-5.5 9.6 2.4 10.8 4.8 21.7 7.3 32.5 1.7 7.6 3.3 15.3 4.8 22.9 1.5 7.1 2.8 14.2 4.6 21.2 1.7 6.7 3.4 13.4 5.2 20.1-5.3 2.7-10.8 5.2-16.3 7.5-5.1 2.1-10.3 3.9-15.6 5.6-2.8.9-5.7 1.6-8.5 2.4-2.3.6-4.6 1.2-6.9 1.6-2.8.3-5.7.6-8.4 1.4-1.9.6-4.1 1.6-5.5 3-1.1 1.1-1.9 2.3-2.8 3.6-1.8 2.8-1.3 7.2 1.2 9.5 4.2 3.8 8.4 7.6 12.7 11.4 5.1 4.5 10.1 9 15.3 13.3 5.8 4.8 11.7 9.4 17.7 13.9 6.2 4.5 12.7 8.7 19.2 12.8 6.1 3.8 12.3 7.4 18.7 10.8 3.2 1.7 6.4 3.4 9.7 4.9 1.9.8 3.6 1.4 5.6 1.7 1.4.4 2.8.4 4.2 0 .8 0 1.6-.2 2.3-.5 3.9-1.1 6.9-5.6 5.5-9.6-2.8-8.2-6.1-16.2-9.1-24.3-2.9-7.7-6-15.4-8.5-23.2-3.4-10.5-6.9-21.1-10.3-31.6-.7-2-1.3-4.1-1.9-6.2 8.1-4.5 16.1-9.3 24.1-14.1 12.2-7.5 24.5-14.9 36.5-22.7 3.6-2.3 5-6.9 2.8-10.7-2.1-3.5-7.1-5.1-10.7-2.8-9.3 6.1-18.7 11.8-28.1 17.6-5.6 3.4-11.2 6.9-16.9 10.2-3.9 2.3-7.8 4.6-11.8 6.9l-3.6-13.8c-.6-2.4-1.3-4.7-1.8-7.1-1.7-8.3-3.5-16.7-5.2-25-2.7-12.9-5.6-25.8-8.5-38.7.2-1.1.2-2.3-.2-3.5-.6-1.7-1.1-3.4-1.7-5.1-1.1-3.4-4.1-5.8-7.5-5.8-.7 0-1.4.1-2.1.3zM272 258.8c4.8-1.3 9.5-2.6 14.2-4.2 9-3 17.6-6.9 26.1-11 1.4 4.6 3 9.2 4.5 13.8 2.5 7.6 5 15.3 7.5 22.9 1.1 3.5 2.6 6.9 3.8 10.3l4.5 12.3c1 2.7 2 5.3 3 8-.9-.4-1.7-.9-2.6-1.4-4.6-2.5-9.1-5.2-13.6-8-8.8-5.4-17.4-11.2-25.6-17.5-9.6-7.5-18.9-15.6-28-23.8 2.2-.2 4.2-.8 6.2-1.4z"/><path class="text-inside" fill="#fff" d="M360.7 150.4c-.8.8-2 2.6-2.2 3.7-.1.5-.1 1-.2 1.5-.3 2.1-.6 4.3-.8 6.4-.2 1.9 1 4.2 2.3 5.5 1.5 1.5 3.5 2.3 5.5 2.3 2.1 0 4.1-.8 5.5-2.3 1.6-1.6 2-3.4 2.3-5.5.1-.6.1-1.2.2-1.8.8-1.2 1.2-2.7 1.2-4.2 0-2.1-.8-4.1-2.3-5.5-.5-.4-1.1-.8-1.6-1.2-1.2-.7-2.5-1.1-4-1.1h-.7c-1.8-.1-3.9.9-5.2 2.2zm13 7.1c0 .2 0 .4-.1.5.1-.1.1-.3.1-.5zm195.9-31.7c-2.1.6-4.3 1-6.4 1.6-2.3.7-4.4 2-6.4 3.2-4.3 2.6-8.2 6.1-11.8 9.5-7.2 6.8-13.4 14.7-18.9 22.8-5.7 8.4-10.3 17.6-14.2 26.9-.9 2.1-1.7 4.2-2.5 6.4-.2.7-.5 1.3-.7 2-2 1.4-3.9 2.9-5.8 4.6-4.6 4-8.3 9.2-11.6 14.2-2 3-3.6 6.1-5.1 9.3-3 1-6 1.9-9.1 2.4-3.1.3-6.2.4-9.4.1-1.7-.3-3.3-.7-4.9-1.3-1.5-.7-2.9-1.6-4.3-2.5-.9-.8-1.8-1.6-2.6-2.6-.8-1.2-1.5-2.4-2.1-3.7l-.9-2.7v-.1c1.1-7.7 1.9-15.5 2.7-23.2 0-1.4-.4-2.7-1.1-4-1-1.7-2.7-3.1-4.7-3.6-3.5-1-7 .6-8.8 3.6-3.1 5-3.9 10.8-4.4 16.5-.4 3.9-.3 7.8.4 11.6-1.1 6.9-2.3 13.7-4.2 20.4l-.3-2.1c-1-8.6-1.3-17.2-1.6-25.9 0-1.9-.1-3.7-.1-5.6 0-2.2.2-4.3.2-6.4 0-2.3-.3-4.7-.8-7-.6-2.5-2.1-4.5-3.7-6.3-1.8-2-5-2.7-7.6-2-2.8.8-4.6 2.8-5.5 5.5-3.1 9-5.9 18-8.6 27.1-2.5 8.2-4.6 16.6-6.5 24.9-1 4.6-1.7 9.2-2 13.9-.1 1.9-.1 3.8 0 5.7.1 1.1.3 2.3.5 3.5.3 1.4.8 2.7 1.4 4 1.9 3.8 7.2 4.8 10.7 2.8 1.7-1 3.1-2.7 3.6-4.7.5-1.9.3-3.6-.4-5.3 0-.2-.1-.3-.1-.5-.3-3.1-.1-6.1.3-9.1 1-6.3 2.6-12.4 4.1-18.5.5 4.8 1.1 9.6 2.1 14.4 1.1 5.2 2.7 10.6 5.5 15.1 2.3 3.6 6.9 5 10.7 2.8 1.4-.8 2.8-1.6 4.1-2.7 1.7-1.5 2.9-3.4 3.9-5.3 1.1-2.1 1.9-4.4 2.7-6.7.7-2.1 1.5-4.2 2.1-6.4.5-1.7 1-3.4 1.4-5.2 4.2 3.2 9.2 5.5 14.4 6.5 5.2 1 10.5.9 15.7.2-.5 1.8-1.1 3.6-1.5 5.4-.7 2.9-1.5 5.7-1.9 8.7-.4 2.9.1 5.8 1.3 8.4.5 1.1 1.3 2.1 2.2 3 1.2 1.2 2.7 1.7 4.2 2.3 1.1.4 2.8.4 4 .4 1.8-.1 3.7-.5 5.4-1.1 7-2.2 12.8-6.7 18-11.7 5.4-5.2 10.2-10.9 14.7-16.9 5.4-7.2 10.4-14.6 15.1-22.3 3.5-1.3 7-2.9 10.4-4.5 4.7-2.3 9.2-5.1 13.7-7.8 5.6-3.4 10.9-7.2 16.4-10.8.1-.1.2-.1.3-.2v1.1c-.1 2.9.1 5.7.3 8.6.4 6.3.9 12.7 2.8 18.7 1.6 5 3.7 9.9 6.6 14.3 3.2 5 7.6 8.9 12.5 12.2 4.3 2.9 9.4 4.9 14.5 6 6.1 1.2 12.2.9 18.4 0 5.8-.8 11.3-3.3 16.4-5.9 5.6-2.9 10.7-6.6 15.5-10.6 8.9-7.5 16.1-17.2 21.4-27.5 2.6-5.1 4.9-10.5 6.3-16 .7-2.7.9-5.6 1.1-8.3.1-3.2-.4-6.5-1.8-9.4-2.2-4.6-6.8-7.6-11.3-9.7-2.7-1.3-5.4-2.3-8.3-2.8-3.7-.7-7.2-.4-10.8.6-2.9.8-5.6 2.2-8.3 3.5-2.3 1.1-4.4 2.7-6.4 4.2-2.6 1.9-5.2 3.8-7.9 5.6-2.7 1.9-5.4 3.9-8 6-1.5 1.2-2.3 3.7-2.3 5.5 0 2.1.8 4.1 2.3 5.5 1.5 1.5 3.5 2.3 5.5 2.3 2.3 0 3.9-.9 5.5-2.3.3-.2.5-.4.8-.6 2.1-1.6 4.3-3.1 6.5-4.6 1.8-1.3 3.7-2.6 5.5-3.9l4.2-3c1.5-1 3.1-1.8 4.8-2.5 1.2-.5 2.5-.9 3.7-1.2h1.6c1.2.3 2.4.6 3.5 1 1.5.7 3 1.5 4.5 2.5.3.2.5.5.8.7 0 .1.1.2.1.3.1 1.5 0 3-.1 4.6-.6 3.1-1.5 6-2.7 8.9-2.9 6.5-6.3 12.6-10.5 18.3-3.9 4.8-8.3 9.2-13.1 13.1-4.4 3.2-9.1 6-14 8.3-2.9 1.1-5.8 1.9-8.8 2.4-3.2.3-6.3.3-9.5 0-2.2-.4-4.2-1-6.3-1.7-2.3-1.1-4.4-2.3-6.5-3.8-1.6-1.3-3.1-2.8-4.5-4.4-1.7-2.4-3.1-5-4.3-7.6-1.4-3.6-2.5-7.3-3.2-11.1-.3-2.5-.4-5-.6-7.4-.2-2.9-.4-5.7-.3-8.6.1-2.9.2-5.8 0-8.7-.1-1.5-.4-3.1-.7-4.5-.3-1-.8-2.1-1.1-3.1-.7-2-1.7-3.6-3.6-4.7-2.5-1.5-5.4-1.3-7.9 0-4.9 2.6-9.4 5.8-14 8.9-5 3.3-10 6.8-15.2 10 2.6-5 5.1-10.1 7.4-15.2 2.6-5.5 5.1-11 7.4-16.7 2.4-5.9 4.7-11.7 7-17.6.8-1.8 1.6-3.7 2.3-5.6.9-2.5 1.1-5.2 1-7.8-.1-4.4-3.7-7.8-7.9-7.8-.7.2-1.4.3-2 .5zm-11 23c-1.5 3.9-3.1 7.7-4.6 11.6-5.8 13.3-12.1 26.4-19.2 39l-2.4 4.2c-.1-.8-.3-1.5-.5-2.2-.9-2.8-3-4.9-5.5-6.4 4.9-11.1 10.9-21.7 18.3-31.4 4.2-5.3 8.8-10.3 13.9-14.8zm122.9 39c0 .1.1.2.1.3 0-.1 0-.2-.1-.3zM526.8 194c-.1.3-.2.5-.3.8.1-.3.2-.5.3-.8zm-28.1 44.1c5.2-2.3 10.1-5 14.8-8.2 1.5-1 2.9-2 4.3-3.1-2.3 3.3-4.6 6.5-7 9.7-4.6 5.8-9.6 11.2-15.3 15.9-1 .7-1.9 1.3-2.9 1.9.5-2 1-4 1.6-6 1-3.3 2.2-6.6 3.5-9.8.2-.1.6-.3 1-.4zm-13.3 18.6c.2 0 .5.1.7.1-.2 0-.4-.1-.7-.1z"/></svg>