<svg width="91" height="23" viewBox="0 0 91 23" fill="none" xmlns="http://www.w3.org/2000/svg">
<g clip-path="url(#clip0_491_361)">
<path fill-rule="evenodd" clip-rule="evenodd" d="M14.7487 2.08672C12.9451 1.04219 10.8349 0.432678 8.79211 0.432678C4.73382 0.432678 1.80289 3.18335 1.80289 7.39176C1.80289 11.4075 3.98066 12.2872 7.28816 13.2506C8.41671 13.5802 10.4855 14.1036 10.4855 15.6159C10.4855 17.0736 9.16868 17.7062 7.93118 17.7062C6.13118 17.7062 4.15 16.5526 2.83316 15.3711L1 19.9079C3.06882 21.3911 5.56987 22.2721 8.12303 22.2721C10.1658 22.2721 12.2903 21.694 13.8747 20.3199C15.4888 18.9155 15.9732 16.7998 15.9732 14.735C15.9732 11.3784 13.7942 9.92311 10.9711 9.06882L9.62697 8.65683C8.71395 8.3551 7.29053 7.88615 7.29053 6.67683C7.29053 5.52203 8.57895 4.94402 9.54882 4.94402C10.8372 4.94402 12.0747 5.49416 13.0422 6.31936L14.7487 2.08672ZM64.3174 5.54869L64.2961 0.982813H50.1163V21.7219H55.3837V13.9958H60.9104V9.42992H55.3837V5.54869H64.3174ZM89.6441 21.7219L82.0118 0.982813H76.2566L68.4621 21.7219H74.0528L75.4501 18.1194H82.7082L84.0262 21.7219H89.6441ZM81.2859 13.9934H76.902L79.0809 7.39055L81.2859 13.9934ZM43.2029 21.8673L35.5683 1.12822H29.8154L22.0209 21.8673H27.6128L29.0101 18.2648H36.267L37.5838 21.8673H43.2029ZM34.917 13.9934H30.5354L32.7143 7.39176L34.917 13.9934Z" fill="#1C1E26"/>
</g>
<defs>
<clipPath id="clip0_491_361">
<rect width="90.6441" height="21.8394" fill="white" transform="translate(0 0.432678)"/>
</clipPath>
</defs>
</svg>
