<svg width="130" height="17" viewBox="0 0 130 17" fill="none" xmlns="http://www.w3.org/2000/svg">
<g clip-path="url(#clip0_491_376)">
<path d="M4.58305 9.20975L6.21356 4.63523H6.25763L7.8 9.20975H4.58305ZM0 15.4601C0.749153 15.4148 1.49831 15.3695 2.29153 15.3695C3.08475 15.3695 3.92203 15.3695 4.71525 15.4601V15.0072C4.05424 14.8713 3.04068 14.5089 3.04068 13.8748C3.04068 13.3766 3.21695 13.0596 3.34915 12.6972L4.31864 9.93442H8.10847L8.76949 11.882C8.94576 12.4255 9.38644 13.4219 9.38644 13.9201C9.38644 14.5995 8.76949 14.9166 7.44746 15.0072V15.4601C8.50508 15.4148 9.56271 15.3695 10.6203 15.3695C11.5898 15.3695 13.0441 15.3695 14.0576 15.4601V15.0072C13.2644 15.0072 12.4271 14.6448 12.1186 13.8296L7.97627 2.32533C7.27119 2.64237 6.4339 2.86883 5.64068 3.00471L5.99322 3.95585L2.24746 12.8784C1.76271 14.1013 1.41017 14.826 0 15.0072V15.4601Z" fill="#1C1E26"/>
<path d="M22.8271 9.16445C23.3119 9.39091 23.9288 9.43621 24.8102 9.43621C25.339 9.43621 25.9119 9.34562 26.4407 9.20975C27.1898 9.84384 27.7627 10.8856 27.7627 11.882C27.7627 13.739 26.5288 14.7354 24.7661 14.7354C24.1051 14.7354 23.4881 14.5995 22.8712 14.3278V9.16445H22.8271ZM18.2881 15.4601C19.0814 15.4148 19.7424 15.3695 21.3288 15.3695C23.7085 15.3695 25.1186 15.5507 25.9119 15.5507C28.5119 15.5507 30.539 14.6901 30.539 12.1084C30.539 10.4326 29.0847 9.07387 27.5424 8.75682V8.71153C28.6441 8.3039 29.5254 7.35276 29.5254 6.12987C29.5254 3.81997 27.322 2.59708 25.2949 2.59708C22.9153 2.59708 20.5356 2.73296 18.2441 2.73296V3.14059C19.8746 3.18588 20.2271 4.09172 20.2271 5.45049V12.6972C20.2271 14.4636 20.0949 14.826 18.2441 15.0072V15.4601H18.2881ZM22.8271 3.45763C23.2237 3.45763 23.6203 3.41234 24.0169 3.41234C25.7356 3.41234 26.8373 4.27289 26.8373 6.12987C26.8373 7.62452 25.8678 8.75682 24.3254 8.75682C23.7085 8.75682 23.2237 8.62095 22.8271 8.48507V3.45763Z" fill="#1C1E26"/>
<path d="M55.922 6.49221C55.3932 4.58994 53.5864 3.05 51.7356 3.05C50.5898 3.05 49.7085 3.68409 49.7085 4.86169C49.7085 7.66981 57.0237 7.35276 57.0237 12.1084C57.0237 14.3278 55.261 15.7771 52.5288 15.7771C51.2508 15.7771 50.0169 15.2336 48.739 15.2336C48.5627 15.2336 47.9898 15.3695 47.7695 15.5054C47.5932 14.056 47.3729 12.5614 47.0203 11.0667H47.4169C47.9458 13.0143 50.1051 14.9619 52.0441 14.9619C53.7186 14.9619 54.8203 14.5089 54.8203 12.969C54.8203 9.79854 47.4169 10.1156 47.4169 5.85812C47.4169 3.45763 48.8712 2.37062 51.7797 2.37062C53.278 2.37062 54.6 2.95942 55.5695 2.95942H56.2305C56.2305 3.36705 56.1864 3.77468 56.1864 4.18231C56.1864 4.95228 56.2746 5.76754 56.3186 6.5375H55.922V6.49221Z" fill="#1C1E26"/>
<path d="M66.1898 9.20975L67.8644 4.63523H67.9085L69.4509 9.20975H66.1898ZM61.6068 15.4601C62.3559 15.4148 63.1051 15.3695 63.8983 15.3695C64.6915 15.3695 65.5288 15.3695 66.322 15.4601V15.0072C65.661 14.8713 64.6475 14.5089 64.6475 13.8748C64.6475 13.3766 64.8237 13.0596 64.9559 12.6972L65.9254 9.93442H69.7153L70.3763 11.882C70.5525 12.4255 70.9932 13.4219 70.9932 13.9201C70.9932 14.5995 70.3763 14.9166 69.0542 15.0072V15.4601C70.1119 15.4148 71.1695 15.3695 72.2271 15.3695C73.1966 15.3695 74.6508 15.3695 75.6644 15.4601V15.0072C74.8712 15.0072 74.0339 14.6448 73.7254 13.8296L69.6271 2.37062C68.922 2.68767 68.0847 2.91413 67.2915 3.05L67.6441 4.00114L63.9424 12.9237C63.4136 14.1466 63.1051 14.8713 61.6949 15.0524V15.4601H61.6068Z" fill="#1C1E26"/>
<path d="M91.2644 6.85455C90.6475 4.86169 89.3695 3.18588 86.9017 3.18588C83.7288 3.18588 82.3186 6.03929 82.3186 9.02858C82.3186 12.0179 83.7288 14.8713 86.9017 14.8713C87.8712 14.8713 89.0169 14.4184 89.678 13.6937V11.7461C89.678 10.6591 89.2373 10.3873 87.6508 10.1609V9.70796C88.4881 9.75325 89.5458 9.79854 90.7797 9.79854C92.0136 9.79854 93.0271 9.75325 93.8644 9.70796V10.1609C92.7627 10.2062 92.2339 10.7497 92.2339 11.4744V14.4636C90.2509 15.0977 88.8407 15.7771 86.9017 15.7771C82.6271 15.7771 79.6305 13.286 79.6305 9.07387C79.6305 4.86169 82.6271 2.37062 86.9017 2.37062C88.4441 2.37062 89.8983 2.82354 91.3525 3.0953C91.3525 4.49935 91.4847 5.54108 91.8373 6.89984H91.2644V6.85455Z" fill="#1C1E26"/>
<path d="M102.149 9.20975L103.78 4.63523H103.824L105.366 9.20975H102.149ZM97.5661 15.4601C98.3153 15.4148 99.0644 15.3695 99.8576 15.3695C100.651 15.3695 101.488 15.3695 102.281 15.4601V15.0072C101.62 14.8713 100.607 14.5089 100.607 13.8748C100.607 13.3766 100.783 13.0596 100.915 12.6972L101.885 9.93442H105.675L106.336 11.882C106.512 12.4255 106.953 13.4219 106.953 13.9201C106.953 14.5995 106.336 14.9166 105.014 15.0072V15.4601C106.071 15.4148 107.129 15.3695 108.186 15.3695C109.156 15.3695 110.61 15.3695 111.624 15.4601V15.0072C110.831 15.0072 109.993 14.6448 109.685 13.8296L105.586 2.37062C104.881 2.68767 104.044 2.91413 103.251 3.05L103.603 4.00114L99.9017 12.9237C99.3729 14.1466 99.0644 14.8713 97.6542 15.0524V15.4601H97.5661Z" fill="#1C1E26"/>
<path d="M115.722 2.59708C116.824 2.68767 117.837 2.73296 118.939 2.73296C120.041 2.73296 121.01 2.68767 122.068 2.59708V3.05C121.451 3.05 120.878 3.18588 120.878 3.81997C120.878 4.45406 122.773 6.80926 123.169 7.48864C123.61 6.67338 125.285 4.72582 125.285 3.91056C125.285 3.23117 124.403 3.05 123.875 3.05V2.59708C124.668 2.64237 125.505 2.73296 126.298 2.73296C127.136 2.73296 128.017 2.68767 128.854 2.59708V3.05C126.783 3.05 125.241 5.85812 123.566 8.03215L127.092 13.0143C127.753 14.0107 128.722 15.0072 130 15.0072V15.4601C128.854 15.4148 127.664 15.3695 126.475 15.3695C125.285 15.3695 124.095 15.3695 122.905 15.4601V15.0072C123.698 15.0072 124.536 14.8713 124.536 13.8748C124.536 13.3313 122.905 11.5196 121.847 9.79854C121.319 10.6591 119.203 13.286 119.203 13.9654C119.203 14.7354 119.997 14.9166 121.054 14.9619V15.4148C120.085 15.3695 119.071 15.3242 118.102 15.3242C116.736 15.3242 115.854 15.3242 115.414 15.4148V14.9166C117.264 14.826 118.586 13.0596 119.6 11.7461L121.495 9.25504L118.19 4.77111C117.308 3.59351 116.78 3.05 115.722 3.00471V2.59708Z" fill="#1C1E26"/>
<path d="M38.9119 0.875977H38.2509V17H38.9119V0.875977Z" fill="#1C1E26"/>
</g>
<defs>
<clipPath id="clip0_491_376">
<rect width="130" height="16.124" fill="white" transform="translate(0 0.875977)"/>
</clipPath>
</defs>
</svg>
