<svg xmlns="http://www.w3.org/2000/svg" viewBox="0 0 1635 641" width="2180" height="641pt"><path d="M347.99 75.14c53.14 2.38 104.97 22.95 145.58 57.27 31.64 26.57 56.44 61.14 71.28 99.71 23.64 60.78 21.56 130.73-5.79 189.94-17.23 37.71-44.18 70.88-77.54 95.5-26.01 19.3-55.86 33.37-87.33 41.06-32.71 8.06-67.16 9.15-100.36 3.49-29.8-5.16-58.56-15.86-84.45-31.49-33.24-19.98-61.65-47.95-82.15-80.87-22.28-35.56-35.07-76.85-36.81-118.78-1.61-36.58 5.01-73.47 19.49-107.12 17.25-40.4 45.63-75.92 81.12-101.8 44.94-33.09 101.22-49.96 156.96-46.91z" fill="#01448a"/><path class="do-not-fill" d="M388.03 116.99c34.78 8.89 67.17 27.06 93 51.98 24.48 23.43 43.18 52.87 53.86 85.04 8.82 26.31 12.22 54.35 10.12 82.02-2.52 34.76-14.02 68.74-33 97.97-16.65 25.73-39 47.77-64.97 64.05-30.72 19.36-66.74 30.62-103.05 31.8-21.65 1-43.62-1.62-64.51-7.42-34.44-9.53-66.26-28.11-91.56-53.34-24.79-24.45-43.32-55.24-53.32-88.59-13.03-43.21-11.62-90.46 4.11-132.78 12.92-35.17 35.63-66.73 64.72-90.33 29.58-24.09 65.71-39.95 103.55-45.05 26.95-3.7 54.71-2.18 81.05 4.65z" fill="#fff"/><path d="M782.53 187.55c11.55 3.97 21.09 12.23 26.78 23.03 5.37 9.64 6.81 20.53 6.14 31.42-1.03 13.29-6.65 26.44-14.1 37.38-9.54 13.88-22.43 25.58-38.14 31.99-9.75 4.18-20.91 4.98-31.21 2.62-4.48-1.13-9.28-3.84-9.99-8.84-.47-4.57-.52-9.46.39-13.98.56-2.58 1.92-5.39 4.66-6.16 3.45-1.03 7.4 1.59 10.89 2.13 6.71 1.09 13.99-.43 20.22-3.03 17.15-7.19 30-25.3 29.61-44.11-.06-8.04-1.97-16.01-8.32-21.44-7.58-6.7-18.78-7.36-28.25-5.37-12.8 3.02-24.5 12.24-33.2 21.82-9.92 11.12-17.95 24.11-24.58 37.42-8.2 16.81-14.48 34.71-18.1 53.08-2.63 13.94-3.64 28.02-.64 42 2.36 9.87 7.01 19.35 15.23 25.61 8.62 6.71 20.41 8.77 31.08 8.34 19.61-.39 37.63-8.19 53.96-18.52 15.43-10.03 29.71-21.84 45.28-31.69 1.73-1.21 3.52-1.81 4.13-4.03 6.76-19.7 17.72-39.49 34.69-52.14 8.94-6.74 20.56-12.29 32-11.26 4.87.83 5.71 5.52 9.15 8 4.69 2.52 11.56.56 16.61 1.75 2.73.85 4.14 3.98 4.56 6.6.57 4.15.25 8.49-.2 12.64-1.85 14.12-5.66 28.31-8.14 42.18-1.01 6.57-2.03 14.38.24 20.77.72 1.98 2.75 2.73 4.73 2.58 3.57-.24 7.14-2.28 10.05-4.24 8.54-6.02 14.85-13.63 21.29-21.72 1.06-1.35 1.82-2.58 1.95-4.34 2.24-17.18 6.28-34.3 10.83-51.01 1.4-3.9 2.81-10.12 6.67-12.26 3.97-1.51 8.97-1.39 13.09-.59 2.81.69 2.78 3.47 3.06 5.81.59 9.97-1.11 20.02-.87 30 .11 1.17.34 2.33.69 3.47 4-6.77 6.62-14.27 10.6-21.08 3.8-6.54 8.91-12.7 15.59-16.44 4.87-2.48 11.7-3.38 16.56-.46 3.74 2.22 5.64 6.21 5.3 10.52-.56 9.72-4.01 19.25-5 28.95-.41 4.56.01 9.78 2.4 13.8 1.28 2.23 3.36 3.77 5.96 4.06 6.42.69 13.19-1.74 18.65-4.98 4.86-10.44 10-20.61 17.5-29.48 8.2-9.95 19.13-18.61 31.46-22.74 4.76-1.39 10.22-2.51 15.15-1.62 4.19 1.26 5.23 5.51 8.32 7.79 4.72 2.59 11.48.58 16.57 1.78 3.16 1.1 4.44 4.35 4.74 7.44.56 6.31-.27 12.97-1.42 19.18-2.05 11.26-4.64 22.41-6.82 33.65-1.17 5.95-1.54 12.15-.94 18.19.33 2.52.87 5.24 3.63 6.14 3.43.82 7.39-1.17 10.28-2.88 7.96-4.94 14.64-12.35 20.47-19.61 1.6-1.68.87-3.56.93-5.68-1.08-16.71-1.86-34.23-.65-50.97.48-3.73.85-10.29 4.72-12.23 4.62-1.23 9.53-1.46 14.23-2.34 3.17-.34 7.06-1.7 9.63.91 3.73 3.71 2.5 9.89 2.37 14.64-.77 24.67-1.32 49.48-2.2 74.14 1.91-1.25 2.37-4.02 3.31-6.04 10.7-26.28 21.5-52.53 32.22-78.8 1.96-4.03 7.47-6.12 11.65-6.65 5.19-.47 12.06.57 15.68 4.72 2.87 3.01 2.23 7.38 1.45 11.09-1.59 7.17-5.67 12.64-8.19 19.46-3.58 8.99-8.36 18.14-7.74 28.09.1 4.64 1.78 9.39 5.83 12 5.31 3.56 12.55 3.21 18.39 1.25 3.35-16.81 10.98-33.02 20.9-46.95 8.52-11.5 20.05-21.49 33.64-26.4 5.02-1.62 10.8-2.81 16.04-1.93 4.13.94 5.76 6.59 9.05 8.15 4.58 1.99 10.72.41 15.56 1.33 2.89.76 4.52 3.76 4.94 6.53.72 4.98.19 10.2-.44 15.16-2.02 12.34-4.84 24.58-7.34 36.83-1.36 6.76-2.24 14.18-1.14 21.03.43 2.19 1.03 4.38 3.43 5.1 3.38.94 7.44-1.09 10.3-2.79 9.39-5.88 16.3-14.3 23.11-22.87 1.58-1.79 1.37-4.18 1.73-6.43 1.53-16.5 4.11-32.87 7.86-49 1.46-5.67 5.37-11.25 11.41-12.51 3.49-.64 7.85-.77 11.03 1.03 3.11 1.84 4.57 6.04 5.01 9.44.79 6.49-.75 13.54-1.64 20-1.33 7.96-2.02 15.99-3.12 23.98.92-.05 1.85-.11 2.77-.17 4.42-7.8 6.58-16.5 11.02-24.26 3.75-6.83 7.25-13.98 11.39-20.59 4.71-7.84 14.16-11.17 22.92-9.37 4.06 1.09 6.7 4.74 8.18 8.48 1.75 4.79 2.04 10.15 1.14 15.15-2.79 14.49-5.12 29.13-6.77 43.79-.74 7.25-1.07 14.18 1.22 21.23 1.04 2.88 2.96 5.7 6.41 5.44 5.21-.71 9.03-3.48 13.08-6.56 11.46-6.75 22.64-14.34 33.79-21.66-.06 9.32.05 18.65-.2 27.97-3.41 2.44-6.52 5.09-10.29 6.98-11.56 6.1-23.16 12.79-35.25 17.68-5.67 2.31-12.05 3.75-18.19 3.33-5.09-.6-8.38-5.72-10.38-9.96-4.09-9.2-4.55-20.52-4.41-30.44-.13-11 2.12-22.23 3.25-33.13-2.82.49-3.05 3.07-4.33 5.21-9.76 19.54-19.67 39.01-29.45 58.54-1.94 3.77-3.81 7.31-8 8.92-5.24 1.88-12.1 1.15-15.89-3.29-3.62-4.23-4.23-9.16-4.97-14.46-3.54 2.78-6.49 6.19-10.15 8.87-6.18 4.66-13.68 9.3-21.5 10.25-6.22 1.01-13.14-.84-17.6-5.41-4.2-4.19-6.65-9.2-9.03-14.54-7.8 8.01-16.9 14.45-27.62 17.89-7.31 2.43-15.2 2.7-22.39-.31-8.29-3.31-14.25-10.15-17.56-18.33-10.04 2.85-20.31 3.75-29.84-1.29-7.88-4.15-12.63-11.81-13.69-20.58-2.15 5.21-5.1 10.23-7.93 15.11-5.47 9.15-12.04 18.85-20.51 25.47-5 4.28-12.76 3.49-18.03.21-6.44-4.48-8.59-11.82-9.84-19.18-7.55 7.97-15.64 14.97-25.94 19.14-7.31 2.74-15.21 3.17-21.94-1.29-5.55-3.89-9.22-10.75-11.77-16.87-5.32 5.39-11.07 10.17-17.8 13.71-6.79 3.58-14.85 6.53-22.64 6.06-10.15-.48-19.44-6.43-24.52-15.17-4.31-7.1-5.5-15.12-5.14-23.32-10.64 3.97-24.48 4.1-32.8-4.73-8.79-9-10.52-23.44-12.23-35.33l-2.06.03c-7.79 21.57-15.45 43.21-23.29 64.76-1.82 4.25-4.1 10.29-8.39 12.57-5.24 2.3-12.49.57-15.81-4.25-3.02-4.22-3.59-8.87-4.18-13.89-6.72 7.09-14.68 13.59-23.75 17.4-7.26 2.9-15.11 3.64-22.05-.54-5.96-3.82-9.78-10.98-12.48-17.33-8.75 9.22-19.76 16.44-32.28 19.19-9.3 1.97-19.15-.5-26.26-6.84-5.08-4.38-8.11-10.14-10.21-16.42-3.85 3-7.36 6.47-10.99 9.75-9.81 9.59-21.34 17.13-33.5 23.4-21.36 10.72-46.32 14.78-70.05 14.27-16.88-.47-32.96-7.48-45.03-19.22-12.14-11.59-19.77-27.52-23.02-43.85-3.49-17.88-1.57-36.85 2.9-54.38 4.58-18.22 11.67-35.82 20.67-52.3 9.28-16.8 20.47-32.32 34.38-45.6 13.52-13 29.99-23.57 48.3-28.21 12.3-2.95 25.28-3.48 37.33.86zM272 235.38c15.85-.61 32.2 1 47.18 6.47 1.58.63 3.45 1.11 4.8 2.17-.22 1.99-.74 3.85-1.25 5.77-2.76 10.34-5.4 20.71-8.2 31.04-12.74-5.71-26.55-8.71-40.54-8.02-5.15.37-10.38 1.38-14.51 4.69-3.63 2.93-4.87 8.32-2.65 12.46 1.73 3.2 5.19 5.23 8.33 6.84 9.7 4.85 20.62 7.95 30.55 12.5 7.52 3.46 14.61 7.64 20.74 13.26 6.75 6.27 11.7 14.35 13.52 23.43 2.61 11.97.93 25.2-5.06 35.93-5.98 10.74-15.82 18.36-27.05 23.03-16.15 6.77-33.66 7.63-50.94 6.55-13.33-1.31-27.38-4-39.44-10.02 3.02-12.52 5.78-25.11 8.65-37.66 15.58 6.86 31.7 11.23 48.87 10.29 5.24-.36 11.05-1.43 15.19-4.91 4.06-3.32 5.23-9.45 2.79-14.08-1.82-3.6-5.74-5.91-9.19-7.76-9.38-4.81-19.76-7.18-29.25-11.9-12.23-5.75-24.3-13.97-30.82-26.17-5.77-10.75-6.16-23.72-2.67-35.26 3.36-10.76 10.59-19.86 19.88-26.15 12.16-8.25 26.55-11.73 41.07-12.5zM350.93 237.77c36.8-.03 73.59-.04 110.38.01.04 12.56 0 25.12.02 37.68-21.38.07-42.76-.01-64.14.04.02 10.55-.07 21.09.05 31.64 20.07.04 40.15 0 60.22.02.01 12.36.03 24.73 0 37.1-20.09 0-40.18.02-60.26-.01-.13 21.74.2 43.52-.17 65.26-15.33-.09-30.67 0-46-.04-.12-3.16-.14-6.31-.12-9.47.03-54.08-.02-108.15.02-162.23z" fill="#01448a"/><path d="M892.03 307.35c-2.82 14.62-6.82 29.02-9.65 43.65-1.95 9.53-5.49 19.98-11.98 27.41-3.03 3.54-7.26 5.43-11.9 3.95-3.74-1.7-5.44-5.89-6.04-9.71-1.87-11.04 1.49-22.31 5.82-32.38 4.33-10.24 10.52-20.72 19.56-27.46 4.41-3.34 8.68-4.96 14.19-5.46zM1346 307.35c-.5 5.37-2.1 10.3-3.21 15.64-1.81 8.36-3.9 16.66-5.68 25.02-1.52 9.17-4.27 18-9.16 25.95-2.31 3.42-5.23 7.38-9.39 8.56-2.53.53-5.71.59-7.71-1.33-3.96-3.28-4.59-9.4-4.67-14.19-.2-11.12 3.54-20.82 8.09-30.75 4.08-8.66 9.88-17.62 17.66-23.38 4.34-3.3 8.64-4.96 14.07-5.52zM1119.28 307.36c-3.36 15.24-7.18 30.38-10.25 45.67-1.65 7.48-4.36 14.99-8.53 21.46-2.19 3.22-5.06 6.85-8.94 8-2.97.65-6.08.61-8.31-1.72-3.58-3.64-4.07-8.93-4.17-13.77-.26-10.42 3.29-20.07 7.49-29.44 4.22-9.35 10.41-19.09 18.87-25.14 4.28-3.11 8.54-4.66 13.84-5.06z" class="do-not-fill" fill="#fff"/></svg>
