<svg xmlns="http://www.w3.org/2000/svg" width="129" height="47.7" xmlns:xlink="http://www.w3.org/1999/xlink" viewBox="0 0 292 114"><defs><path id="a" d="M-70-68.4h429.4V184H-70z"/></defs><clipPath id="b"><use xlink:href="#a" overflow="visible"/></clipPath><path clip-path="url(#b)" fill="#1B324B" d="M98.3 25.8c5.4-3.2 5.6-8.1 4.2-10.9-2.5-5.2-9.2-5.5-13-3.5-3.6 1.8-6.4 6.6-3.9 11.5 2.2 4.3 7.8 5.8 12.7 2.9m190.6 8.1c0-2.5-1.8-3.1-4.9-2.5-6.4 1.1-7.8 3.5-8.1 6.6-.1 1.8-1 4.6-2.4 6.4-1-.5-2.1-1.1-3.2-1.8-4.1-7.7-10.7-12.6-18.6-12.6-8.5 0-15 4.4-19.7 10.7-1.2.9-2.8 1.2-4.6 1.2-3 0-8.6-1.5-11.7-4.4.1-2.8.1-5.9-.3-7.7-.3-2.5-2-3.5-4.1-3.2-1.8.1-5.3.8-7.4 2-3.4 1.7-2.8 5-2.7 9.4.7 15.5-4.6 47.9-15.9 56.2-5.4-8.7-6.4-24.7-6.1-37.7.1-3.9 1-11.6 1.7-16.3 1.1-3.9-.6-5.6-3.4-5.5-5.3.8-10.2 1.8-10.9 6.1-.4 2.8-.8 6-1.3 9.2-2.4 13.4-18 43.3-32.6 43.7-4.5.1-9.2-3.6-10.8-9.9 7.3-2.9 14.9-7.5 19.8-13.6 5.2-6.4 8.7-14 8.5-22.6 0-6.8-2.9-17.3-15.2-17.3-22.5 0-28.4 24.3-28.1 42.8.1 4.6.7 8.8 1.7 12.6-5.1 6.2-11.8 8.1-13.8 8.1-5.6 0-5.7-8.4-5.7-14.4 0-8.5 2.4-22.6 5.2-34.2 1.3-5 .7-6.4-3.8-6-5.6.6-9.4 2.2-10.3 6.3-3.2 13.8-4.6 27.1-4.6 37.4 0 9.8 2.9 19.7 13.8 19.7 8.6 0 16.6-4.7 22.3-9.7 3.7 6.1 9.6 9.7 17.4 9.7 15.8 0 30.9-16.2 37.3-30.9 0 5.6.7 12.2 2 16.8 2 7.5 6.6 14.3 12.6 14.5 3.6 0 7.4-1.3 11.3-3.8 15.1-9.9 20.7-32.3 22.6-53 3.1 1.6 7.1 2.8 10.3 2.8.7 0 1.4 0 2-.1-2.5 5.7-4 11.9-4.5 17.4-1.4 14.8 4.1 36.3 21.1 36.3 18.6 0 29.2-18.6 30.5-38.6.3-4.8-.2-9.3-1.2-13.5 8.3-.7 15.8-9.3 15.8-16.6m-157.6 4.2c3.2 1 5.9 7.1 5.9 12.7 0 12.7-9.2 21.2-16.5 25.6-2.6-10.7 2.3-33.3 10.6-38.3M261 65c-.3 9.2-3.9 24.9-14.8 28.6C238 89.4 235.4 76 236.1 65c.5-7.8 3.3-19.9 9.1-25.5 3.5 2.7 7.2 4.6 10.9 6.1 3.4 6 5.1 14.1 4.9 19.4M44.5 4.7c-19 0-30.5 14.4-30.9 33.4-.3 12.4 6 22.8 21.4 28.1 10.8 3.8 17.9 7 17.9 16.6 0 12.4-12 18.4-22.8 18.4-9.9 0-15.2-5.3-15.2-12.3 0-3.9 2.2-7.7 5.2-9.8.8-.7-.7-2.2-1.8-2.8-3.1-1.5-7.4-.6-10.5 2.7-2.8 2.8-4.6 6.7-4.6 11.7 0 11.5 9.8 20.1 24.9 20.1 18.4 0 39-10.8 39-31.4 0-13-9.5-19.3-21.7-23.8-12.4-4.4-18.2-8-17.8-20.3.4-11.5 6.6-21 15-21 9.9 0 11.3 10.3 11.3 21v3.6c0 2.9 2.4 4.6 6.8 3.9 2.9-.4 7.4-1.1 7.8-5.4.1-1.3.3-3.1.3-4.5 0-14.4-6.4-28.2-24.3-28.2"/></svg>