<svg class="is-biggest" xmlns="http://www.w3.org/2000/svg" width="830.847" height="88.654" viewBox="0 0 830.847 88.654"><path d="M695.967 72.745c-15.544-.131-27.814-12.5-27.533-27.639s13.077-27.31 28.717-27.19 28.131 12.495 27.754 27.636-13.394 27.319-28.938 27.193m1.451-61.751c-20.556-.156-37.326 15.086-37.668 34.046s15.767 34.465 36.18 34.635 37.549-15.073 38.025-34.046c.494-18.975-15.981-34.478-36.537-34.635"/><path d="M695.861 82.197c-21.9-.184-39.172-16.825-38.818-37.178.37-20.351 18.35-36.714 40.414-36.546s39.766 16.807 39.234 37.178-18.934 36.73-40.83 36.546m1.688-80.177c-25.94-.2-47.026 19.035-47.449 42.948-.4 23.913 19.868 43.463 45.577 43.684s47.38-19.008 48.026-42.946S723.49 2.217 697.549 2.019M377.9 7.839q-7.013 12.277-14 24.564 8.721 15.334 17.421 30.677 17.655-31.006 35.467-61.993-4.181 0-8.362-.012-13.3 23.741-26.537 47.49-4.533-8.155-9.07-16.312 6.527-11.681 13.074-23.359l-8-1.056M362.376 29.707q6.536-11.491 13.086-22.981-2.8-2.867-5.616-5.738-3.615 6.471-7.221 12.936-3.6-6.475-7.214-12.95-2.974 3.025-5.94 6.048 6.458 11.343 12.906 22.68"/><path d="M419.858 1.094q-19.332 33.672-38.54 67.363-9.456-16.683-18.943-33.365-9.469 16.662-18.886 33.326-19.3-33.731-38.671-67.448h-8.845l4.721 7.891q21.412 38.077 42.776 76.173l.009-.018q9.542-17.255 19.15-34.5 9.638 17.266 19.249 34.54l.012.021q21.15-38.053 42.571-76.079 2.349-3.94 4.712-7.879-4.66-.01-9.321-.016"/><path d="M316.781.976h-8.889q17.794 31.026 35.571 62.069 8.669-15.323 17.375-30.642-6.968-12.264-13.957-24.529-3.771.486-7.536.975l13.083 23.386q-4.533 8.148-9.056 16.3-13.285-23.779-26.59-47.55M498.096 7.735q1.376-3.184 2.748-6.368-30.436-.138-60.815-.228c-.011 2.127-.014 4.255-.023 6.382q29.032.083 58.09.214M447.699 78.9q.159-31.285.278-62.568c.9 0 1.8.007 2.7.007q-.121 30.019-.276 60.033 23.582.079 47.187.184 1.384-3.195 2.771-6.391-20.967-.1-41.916-.17.035-5.754.062-11.508 15.834.055 31.664.122l.041-5.77-31.7-.122.007-2.537q15.858.059 31.714.124.031-3.477.053-6.952-15.855-.069-31.691-.122l.122-26.772q21.012.072 42.047.166-1.335-3.177-2.677-6.354-29.064-.128-58.083-.214v.129q-.007 3.108-.021 6.214l-.1 26.772q-.024 7.627-.06 15.254-.021 5.757-.048 11.51-.031 7.51-.067 15.015v.246q30.24.09 60.514.232-1.311-3.17-2.631-6.336-24.959-.114-49.889-.193M534.892 4.136q-4.015-1.325-8.026-2.645-.259 42.028-.768 84.066 4.026-1.28 8.04-2.567.493-39.433.754-78.855M537.608 4.164q-.266 39.419-.766 78.841l7.966 2.656q.573-42.041.862-84.073l-8.063 2.576M268.02 3.588q-4.033-1.3-8.065-2.594.128 42.031.6 84.08 3.995-1.314 7.989-2.624-.4-39.437-.52-78.862M270.733 3.6q.117 39.419.506 78.848 4.022 1.3 8.035 2.6-.393-42.044-.492-84.078-4.019 1.315-8.049 2.626M137.876 3.86l-8.178-2.583q.4 42.055 1.43 84.149l8.033-2.645q-.9-39.478-1.286-78.921M140.625 3.864q.376 39.437 1.269 78.906l8.153 2.587q-.935-42.086-1.292-84.135l-8.13 2.642M93.36 3.989l-8.236-2.583q.528 42.069 1.771 84.19 4.029-1.324 8.068-2.649-1.107-39.5-1.6-78.958M96.128 3.996q.486 39.447 1.575 78.94l8.2 2.585q-1.142-42.107-1.617-84.17-4.081 1.325-8.162 2.645M577.346 4.375l-8.038-2.654q-.328 42.034-.993 84.08l8.056-2.249q.642-39.6.975-79.177M580.065 4.405q-.242 28.022-.637 56.05 24.852-29.015 49.8-58.005-5.509-.076-11-.156-15.241 17.673-30.449 35.35.221-17.907.38-35.808-4.053 1.283-8.1 2.569M601.436 48.029q.907-1.042 1.815-2.081l1 1.43q13.519 19.415 26.885 38.852l9.521.071q-16.023-23.13-32.275-46.232 16.358-18.728 32.747-37.447l-8.463-.12q-26.683 31.02-53.3 62.062-.141 9.5-.3 19 3.995 1.173 7.985 2.348.193-10.9.359-21.813l8.433-9.668q11.035 15.841 21.974 31.7 5.026.038 10.052.073-12.753-18.552-25.654-37.088a84.73 84.73 0 0 1-.784-1.088M827.907 9.92q1.473-3.146 2.939-6.3-36.1-.259-71.8-.543 1.321 3.167 2.638 6.333 32.954.259 66.224.506M761.674 11.951q-1.469 3.2-2.935 6.4l26.114.207q-.828 34.448-2.176 68.943 4.095.034 8.19.074 1.386-34.469 2.233-68.9c.931.007 1.858.016 2.79.021q-.866 34.431-2.258 68.9l8.2.074q1.442-34.5 2.323-68.966l26.291.2q-1.321-3.229-2.658-6.451-33.228-.252-66.114-.51M192.418 16.868q4.947-.01 9.889-.023c9.965.879 17.768 8.139 17.846 17.136.074 9.335-8.167 16.947-18.63 17.407l-8.735.014q-.231-17.269-.37-34.533m10.37-15.285c-.159 0-.31.007-.471.009v-.007l-10.011.021q-9.469.021-18.966.046.021 2.946.046 5.89 13.209-.038 26.385-.064c20.47-.041 31.537 13.385 31.638 26.036.034 7.161.278 26.167-38.505 26.263-.014-.849-.028-1.693-.039-2.539 36.067-.09 35.863-16.641 35.826-23.72-.09-11.423-10.207-23.543-28.9-23.5q-13.174.028-26.383.062.035 3.419.064 6.837.162 17.258.412 34.522l.244 15.471q.162 9.179.336 18.364l8.022-2.638q-.607-32.889-.9-65.758c.908 0 1.821 0 2.732-.009q.29 32.872.885 65.76 4.053 1.3 8.107 2.59-.166-9.18-.3-18.361 4.364-.01 8.725-.023v-.039c.568.023 1.134.039 1.706.037 20.408-.053 36.746-14.687 36.622-32.7s-16.752-32.59-37.27-32.547M28.734 49.927c3.121.982 8.5 3.006 10.6 3.974 7.311 3.376 6.879 7.146 6.833 8.995-.126 4.905-4.1 7.686-11.765 7.817-2.422.041-8.944-.161-13.553-4.036-1.313-1.1-5.7-5.409-5.7-5.409q-2.573 2.432-5.147 4.859c8.334 8.764 17 11.131 22.9 11.529 8.132.554 14.521-2.268 16.657-4.169 4-3.576 5.752-7.826 5.059-12.3-.8-5.168-4.855-10.218-10.6-13.18a109.706 109.706 0 0 0-10.738-4.864 90.108 90.108 0 0 1-12.387-5.9 16.357 16.357 0 0 1-8.537-15.533c.476-6.333 4.577-11.517 10.935-13.868 12.062-4.466 20.238.214 26.107 5.538q3.581-1.335 7.15-2.675a28.556 28.556 0 0 0-2.868-3.33C49.961 3.507 43.559-.03 33.141 0 24.176.025 14.375 2.592 8.768 8.958c-7.06 8.019-7.254 16.287-3.038 24.5 4.595 8.939 18.826 15.162 22.989 16.473"/><path d="M48.052 38.546c.011 0-21.282-6.515-24.435-12.934-2.955-6.065 4.5-11.094 9.926-10.4 3.647.465 8.33 3.015 10.193 6.506l3.7-6.577c-5.381-4.864-12.529-8.843-23.053-4.947a13.543 13.543 0 0 0-9.231 11.736 13.834 13.834 0 0 0 7.18 13.153 86.587 86.587 0 0 0 12.03 5.731 111.151 111.151 0 0 1 10.991 4.979c6.495 3.353 11.083 9.13 12.007 15.087.563 3.7.016 9.206-5.851 14.45-2.865 2.555-9.2 4.908-16.379 4.938-.78 0-1.561-.023-2.348-.073-6.511-.442-16.078-3.052-25.16-12.755l-7.626 1.9s4.195 4.618 6.685 7.079c6.665 6.575 15.634 9.68 26.176 9.866q15.148.269 23.55-5.552a21.715 21.715 0 0 0 9.843-18.909c-.327-12.171-5.076-18.442-18.2-23.274"/></svg>
