<svg class="is-biggest" xmlns="http://www.w3.org/2000/svg" version="1.0" width="130" height="49.98" viewBox="0 0 1914 534"><path d="M933.6 2.2c-3.2 5.2-39.5 73.2-53.1 99.5-3.2 6.2-6.1 11.1-6.5 10.8-1-.6-21-36-21-37.1 0-.9 12.6-25.6 23.6-46l5.4-10.1-9.3-1.1c-5-.6-9.5-.7-9.9-.4-.3.4-7.5 13.7-15.8 29.6-12 22.8-15.1 29.3-14.3 30.6.6.9 9.3 15.8 19.3 33.1 10.1 17.2 19.1 32.7 20 34.3l1.8 2.9 3.2-6.4c9.3-18.3 42.7-79.8 63.6-117.2C948 11.6 954 .7 954 .5c0-.3-4.3-.5-9.5-.5-8.7 0-9.6.2-10.9 2.2z"/><path d="M961.3 1.2c-3.4 4.4-52.3 93.1-73.9 134.3-7.1 13.5-13.2 24.5-13.6 24.5-.3 0-2.3-3-4.4-6.8-5.2-9.3-38.4-66.3-39.9-68.5-1.1-1.6-3.9 3.4-21.5 38.4-11.1 22-20.5 39.7-20.9 39.3-.4-.5-8.1-13.1-17.1-27.9-16.8-27.7-43.6-70.5-66.5-106.2l-13-20.2-10 .6c-5.5.3-10.1.7-10.3.8-.2.1 5.3 8.7 12.1 19.1 23 35.1 72.3 115.3 98.7 160.6 4.1 7.1 7.7 12.8 8 12.8.3 0 9.6-18.6 20.8-41.3l20.3-41.2 4.9 8.5c2.7 4.7 12.9 22.8 22.7 40.2 9.8 17.4 18.1 31.3 18.5 31 .4-.4 7.8-14.4 16.4-31.2 27.7-54 72.5-136.9 85.8-158.8L984 0h-10.9c-7.5 0-11.2.4-11.8 1.2zM1009.4 1.3c-.3.8-.4 4.3-.2 7.8l.3 6.4 29 .6c16 .4 44.8 1.3 64 2 19.3.8 36.9 1.4 39.2 1.4h4.3l3.4-7.1 3.4-7.2-10.6-.6c-20.5-1.2-59.9-2.6-90.7-3.1-17-.3-33.4-.8-36.3-1-3.9-.4-5.4-.2-5.8.8z"/><path d="M835.5 17c-4.1 8.2-7.7 15-8 15-.2 0-4.2-6.5-8.9-14.5-4.8-8-9-14.5-9.4-14.4-1 .1-12.7 13.8-12.5 14.6.3 1.6 30.4 50.8 31.1 51.1.4.1 7.2-12 15-26.9l14.4-27.2-6.3-6.3c-3.5-3.5-6.7-6.4-7.1-6.4-.3 0-4.1 6.7-8.3 15zM699.8 7.8c-1.5.6.3 3.8 10.9 20.2 14.5 22.5 56.2 89.2 67.9 108.7 4.3 7.3 8.1 13.3 8.4 13.3.3 0 8.9-16.6 19.1-36.8l18.6-36.7-16.4-27c-9-14.9-16.8-27.6-17.2-28.4-.8-1.2-2.1-1.3-9.5-.2-4.7.7-8.6 1.6-8.6 1.9 0 .3 7.2 12.5 16 27.2l16.1 26.6-9.7 19.8c-5.3 10.8-9.7 19.6-9.9 19.4-.2-.2-8.2-13.4-17.8-29.4-9.7-15.9-24.5-40.2-33-54L719.2 7.5l-8.8-.2c-4.9-.1-9.7.1-10.6.5zM1213.5 20.2c-.4 6.2-3.2 51-6.4 99.5-3.1 48.6-5.6 88.3-5.6 88.3.6 0 17.8-5 18-5.2.3-.3 12-167.9 12.8-182.1l.2-4.9-8.4-3.4c-4.7-1.9-8.8-3.4-9.2-3.4-.4 0-1 5.1-1.4 11.2zM1247.5 14.2c-4.4 1.2-8.1 2.1-8.2 2.2-.3.2-13.4 186.9-13.1 187.1.9.8 15.3 6.5 16.4 6.5.9 0 1.4-1.1 1.4-2.9 0-1.6 3.2-44.9 7-96.1 3.9-51.2 7-94.5 7-96.1 0-3.4.1-3.4-10.5-.7zM619 16.5c-4.1 1.9-7.6 4-7.8 4.8-.6 2.9 14.9 185.2 15.9 185.7 1.9 1.2 16 4.2 16.7 3.6.6-.6-13.2-185.1-14.5-193.9-.3-2-1.1-3.7-1.7-3.6-.6 0-4.5 1.6-8.6 3.4zM585.3 20.6c.3 2.7 4.3 47.2 8.8 98.9 4.5 51.7 8.5 94.3 8.8 94.6.3.4 4-.8 8.1-2.7 4.1-1.8 7.8-3.5 8.2-3.6.7-.3-13.4-176.4-14.7-184.4-.5-2.9-.8-3.1-8.6-4.8-4.5-1-8.8-2-9.7-2.3-1.3-.5-1.4.1-.9 4.3zM1314 16.8c-.1.4-4 45-8.9 99.2-4.8 54.2-8.7 98.6-8.5 98.8.4.5 16.8-2.9 17.6-3.6 1.1-1.1 18-186.4 17.1-187.2-1.4-1.3-17.3-7.9-17.3-7.2zM1348.2 22.4c-7.6 1.7-9.4 2.4-9.7 4.1-.2 1.1-2.9 29-6 62-3 33-5.8 61.9-6.1 64.3-.6 4.2-.3 3.9 41.8-38 23.3-23.3 51.9-51.3 63.6-62.2 11.6-11 20.9-20.3 20.7-20.6-.2-.4-5.9-1.3-12.5-2l-12.1-1.3-6.7 6.4c-3.7 3.6-21.2 20.6-38.9 37.8-19.5 18.9-32.3 30.6-32.3 29.6s1.8-19.8 4-41.8c2.2-22 3.9-40.1 3.8-40.1-.2-.1-4.5.7-9.6 1.8zM1008.7 56.6c-.4 19.2-1 59.2-1.4 89l-.6 54.1 7.8.6c4.3.4 13.8.7 21.2.7 14.2 0 61.2 1.5 89.8 2.9 9.4.5 17.1.8 17.2.6.2-.1-.9-3.5-2.3-7.7l-2.5-7.5-17.2-.7c-46.2-1.8-69.4-2.6-81.9-2.6H1025v-4.8c-.1-14.3 2.2-129 2.6-136l.6-8.2h2.9c2.7 0 2.9.3 2.9 3.7 0 2.1-.7 32.8-1.5 68.3s-1.5 66-1.5 67.7v3.3h11.8c10.7 0 34.6.8 78.4 2.6l16.6.7 3.1-6.1c4.4-8.7 4.2-9.2-2.6-9.2-3.2 0-14.8-.5-25.8-1s-29.6-1.2-41.2-1.6l-21.3-.7v-27l26.8.7c14.7.3 31.1.9 36.5 1.3l9.7.6v-14l-16.2-.6c-9-.4-25.2-1-36-1.3l-19.8-.7v-6l20.8.7c11.4.3 27.8.9 36.5 1.3l15.7.6v-16.1l-5.7-.6c-3.2-.3-15.5-.8-27.3-1.1-11.8-.3-25.6-.8-30.7-1.1l-9.2-.6.5-20.1c.2-11.1.7-25.3 1-31.6l.6-11.4 24.2.6c13.2.4 35 1.2 48.4 1.8 13.4.6 24.5 1 24.7.7.2-.2-.8-3.6-2.2-7.5l-2.5-7.1-9.2-.6c-15.2-1-58.2-2.5-93.7-3.2l-33.6-.7-.6 34.9zM443 32.1c-3.6.5-18.4 2.5-32.9 4.4-14.6 2-26.6 3.6-26.7 3.8-.1.1.3 3.3.8 7l1 6.9 3.2-.6c5.5-1 55.8-7.5 63.7-8.2 15.2-1.3 34 3.2 46.5 11.1 10.9 7 20 18.5 24.6 31.1 3 8.4 3.7 28 1.3 37-6.1 22.4-30.5 38.6-68.1 45-10.6 1.8-12.4 1.5-12.4-1.9 0-2.2.5-2.5 5.9-3.1 3.2-.4 10.4-1.8 16-3.1 42.2-10.3 59.2-31 53-65.1-2.8-15.4-14.4-30.5-29-37.6-17.4-8.6-28.7-9-73.2-3-16.4 2.2-30 4.2-30.2 4.4-.2.2 5.1 40 11.8 88.5l12.1 88.1 8.3-4.1c6.4-3.2 8.3-4.6 8.3-6.2 0-1.1-4.5-35.8-10-77s-10-75.3-10-75.7c0-.7 5.9-1.2 6.1-.6 0 .2 4.6 34.9 10.3 77.3l10.2 77 8.8 1.8c4.8 1.1 9 1.7 9.3 1.4.3-.3-.7-9.9-2.2-21.2-1.4-11.4-2.5-20.8-2.3-21 .2-.2 7.5-1.3 16.3-2.5 29.3-3.9 45.4-11.4 61.5-28.7 41.6-44.5 18.3-111.9-43.2-124.8-7.7-1.7-28.2-1.8-38.8-.4zm28.9 38.1c11.3 3.8 20.2 11.6 25 21.7 2.3 4.9 2.6 6.9 2.6 15.6 0 8.8-.3 10.7-2.7 15.8-5.1 10.9-17.8 21.5-29.5 24.6-3.7 1-24.5 4.1-25 3.7-.3-.3-10.4-80.8-10.1-81.1.2-.2 5.3-1 11.3-1.8 12.4-1.7 20.5-1.3 28.4 1.5zM1436.4 56.7c-29.3 28-99.5 97.4-106.4 105.3l-4.9 5.6-2.1 21.8c-1.2 12-1.8 22.2-1.3 22.7.4.4 4.2 2.1 8.3 3.7 5.2 2.1 7.7 2.6 8.1 1.8.3-.6 1.6-12 2.9-25.3l2.3-24.1 10.7-10.7 10.7-10.7 12.6 23.4c6.8 12.8 16.4 30.8 21.1 39.9l8.6 16.6 10.6 1.2c5.9.7 10.8 1.1 11 .9.4-.5-18.8-38-36.8-71.7l-13-24.4 2.1-2.1c1.3-1.2 2.4-1.7 3-1.1 1.1 1.3 25.1 46.7 40.6 77 6.5 12.6 11.9 23.1 12.1 23.3.2.3 18.6 3.1 20.7 3.2 1.1 0-34.4-68.6-55.2-107-2.9-5.2-5-10-4.9-10.6.3-1.4 23.5-23.6 59.2-56.8l24.8-23.1-7.8-1.2c-4.4-.6-8.8-1.2-10-1.2-1.3-.1-10.3 7.8-27 23.6zM316.8 52.1c-6.3 3.1-7.8 4.4-7.8 6.2 0 1.2 6.5 42.9 14.3 92.7l14.3 90.5 9.2 1.6c9.2 1.6 9.2 1.6 9.1-.5-.2-6.4-29.6-194-30.4-194.2-.5-.2-4.5 1.5-8.7 3.7zM1571.2 53c-23.7 5.2-45.9 18.6-60 36.3-31.3 39.3-28.7 95.4 6.2 132.4 9.8 10.4 17.1 16.1 27.9 21.8 25.6 13.6 53.4 16.7 80.5 8.9 39.3-11.2 68.6-43.5 75.3-82.8 1.7-10.2.6-32.3-2.1-41.6-5-17.3-14.8-33.7-27.8-46.2-13.6-13.1-30.4-22.6-48.9-27.5-13.8-3.6-37.5-4.2-51.1-1.3zm44.6 15.4c28.4 7 51.9 26 63.3 51.2 11.5 25.4 8.7 58.1-7.1 81.4-13.4 19.9-34.3 33.8-57.9 38.5-11.3 2.3-31.4 1.6-42-1.5-31.9-9.2-55.7-33.1-64.2-64.5-1.8-6.5-2.2-10.7-2.2-22 0-12.3.3-15.1 2.7-22.8 4.7-15.9 11.1-26.2 23.3-37.8 13.9-13.3 28.3-20.3 50.3-24.3 4.9-.9 27.6.3 33.8 1.8z"/><path d="M1578.5 73.4c-26.6 5.3-48 21.3-59 44.1-6 12.6-7.9 20.6-7.8 34.5 0 17.9 3.8 30.4 13.9 45.6 12.6 19.1 33.9 32.8 56.7 36.4 9.5 1.6 27.8.8 36.2-1.5 24.1-6.7 44.6-24 54.6-46.1 8.6-18.9 9.2-42.6 1.6-61.4-9.7-23.8-30.1-41.8-56.3-49.5-11.1-3.3-29.1-4.2-39.9-2.1zM1616 92c18.8 6.3 34.4 22.2 40.6 41.3 2.3 7 2.7 9.9 2.7 19.7 0 9.7-.4 12.7-2.6 19.5-3.7 11.3-9 19.6-17.7 27.9-11.7 11.1-24.2 16.7-40.5 18.2-23.6 2-49.6-13.4-60.4-35.7-9.5-19.7-9.5-39.6 0-58.9 7.2-14.6 22.1-27.5 37.7-32.5 11.5-3.7 28.4-3.5 40.2.5zM283 55.7c0 2.1 30.9 192.2 31.5 194.1.4.9 2.7.1 8.5-2.9 6.2-3.2 8-4.6 8-6.3-.1-2.8-28.7-182.6-29.2-183.1-.2-.2-3.5-.9-7.3-1.5-3.9-.5-8-1.2-9.2-1.5-1.7-.4-2.3-.1-2.3 1.2zM215.3 68.8c-4.6 2.5-8.3 5.1-8.3 5.8 0 1.5 33.1 182.8 33.4 183.1.4.4 18.1 3.1 18.4 2.8.4-.4-33.8-192.7-34.6-194.5-.6-1.3-2.1-.9-8.9 2.8zM181 73.3c-.1 1.4 36.2 194 36.6 194.6.5.6 16.4-8.4 16.4-9.3 0-2.5-33.2-181.3-33.9-182.6-.5-.9-3.1-1.8-6.7-2.2-3.2-.4-7.4-.9-9.1-1.2-2.2-.3-3.3-.1-3.3.7zM1753 80.3c0 2.4 2.3 13.2 2.9 13.9.4.4 10.8 2.8 23.1 5.3 28.1 5.7 64.5 13.7 98.9 21.7l26.4 6.1 1.8-2.4c1-1.3 3.2-4.3 4.9-6.6l3-4.1-13.3-3.2c-33.7-8-144.1-32-147.2-32-.3 0-.5.6-.5 1.3zM71.6 91.1c-18.7 2-37.1 9.9-49 20.9-14.2 13.1-21 35.2-16 52.1 7.6 25.7 31.4 41.3 72.4 47.3 23.1 3.4 32.7 6.6 36.9 12.5 2.9 4.1 4.3 11.9 2.9 16.7-2.5 9.3-14.7 16.1-30.9 17.1-11.9.8-17.2-.7-28.2-7.9-5-3.3-9.3-5.6-9.4-5.2-.2.5-2.1 3.6-4.3 6.9l-4 6 2.1 1.8c4.2 3.4 14.5 8.6 22.4 11.2 28.1 9.4 61.2-1.7 69.6-23.3 3.3-8.6 3.2-18.1-.5-25.5-6.4-13.2-18-20.5-40.3-25.7-44.8-10.3-50.7-12.4-58.7-21-2.6-2.8-5.9-7.6-7.4-10.8-2.4-5-2.7-6.9-2.7-16.2 0-9.6.2-11 2.9-16.3 3.7-7.2 12.3-15.5 20.4-19.6 16.3-8.2 31.8-8.1 48.5.4l6.9 3.4 6.9-4.6c3.8-2.5 6.9-4.9 6.9-5.2 0-1-9.2-7.6-13.8-10-8.6-4.4-21.6-6.3-33.6-5zM1750.1 107.3c-4.5 7-4.8 7.7-2.6 7.7 1.4 0 55.7 11.1 56.2 11.5.2.1-7.4 36.1-16.7 80-9.4 43.9-16.9 79.9-16.8 80 .7.5 17 3.7 17.3 3.3.3-.3 34.5-156.8 34.5-158.1 0-.9 4.2-.9 5.6.1.7.5-4.8 26.8-16.2 78.7-9.5 42.9-17.3 78.7-17.3 79.6-.1 1.3 1.9 2.1 8.4 3.4 4.7 1 8.7 1.6 8.8 1.4.2-.2 8.3-35.9 18-79.3s17.8-79 18-79.2c.2-.3 12 2.3 26.3 5.6 34.6 8.1 31.4 7.6 31.4 5.5 0-1-.5-4.6-1.1-8.1l-1.1-6.2-11.1-2.7c-34.9-8.2-133.2-29.5-136.5-29.5-.5 0-2.8 2.8-5.1 6.3z"/><path d="M63.6 113.1c-6.8 1.7-16.7 7.1-21.5 11.9-7.2 6.9-9.5 12.7-9.6 23 0 10.2 2.3 16.1 8.8 22.8 7.1 7.3 16 10.7 42.7 16.2 29 6 40.5 11 50.2 21.8 11.6 13 13.7 28.1 6.2 43.8-5.8 11.9-18.9 21.2-36.4 25.5-19.6 4.9-43.6-.1-62.6-13.2l-4.1-2.8-7.7 4.1c-4.3 2.2-7.4 4.4-6.9 4.8 2.8 2.6 18 13.3 22.5 15.8 7.1 4.1 16.2 6.9 26.4 8.3 22.1 2.9 55-6.1 71.8-19.8 7.2-5.8 14.4-16.1 17.7-25.1 3.4-9.4 3.4-25.4 0-36.2-7.7-25-20.9-34.6-54.1-39.5-32-4.7-49.6-10.8-55.1-19.1-4.8-7.4-.6-18.6 9.3-24.4 4.9-2.9 5.9-3.1 12.8-2.7 8 .4 14.2 2.8 19.2 7.4l2.6 2.5 2.6-8.3c1.7-5.8 2.2-8.7 1.5-9.5-.6-.7-4.5-2.7-8.7-4.5-8.4-3.5-20.2-4.7-27.6-2.8zM1122 298.4c-.3.2-45.5.8-100.5 1.1-55 .4-109.9.8-122 1.1-25.5.5-22.9.5-66.5.4-18.4 0-36 .4-39 .9-3.7.6-5.9.6-6.8-.1-.9-.8-10.8-.9-31-.4-16.3.3-56.2.7-88.7.7-47.8.1-60 .4-64.4 1.6-3.1.7-7.1 1.2-9.1 1.1l-3.5-.4 4.5-1c3.6-.9.1-1.1-17-.9-12.2.2-23 .8-25 1.4-1.9.6-4.6 1.1-6 1.1-2 0-2.2-.2-1-1.1 1.1-.8.7-.9-1.9-.5-1.8.3-4.3.6-5.5.6-1.9.1-1.9.2-.4 1 1 .6 10.8 1 24 .9 12.3-.1 27.9.1 34.8.6 6.9.4 27 .7 44.8.7 17.7 0 32.2.3 32.2.7 0 .3 10.5.5 23.2.4 36.6-.2 37-.2 36.3-1.3-.4-.6.6-1 2.4-1 1.6 0 3.2.4 3.5.9.3.4 2.8 1.1 5.5 1.5 2.7.3 6 1.5 7.3 2.5 2 1.6 3.9 1.9 11.1 1.8 4.8-.1 8.7-.5 8.7-1 0-.4-1-.8-2.2-.8-2.8-.2 5.6-1.8 13.1-2.6 3.2-.3 5.7-.1 6.4.6.8.8.1 1.1-2.7 1.1-3.3 0-3.7.2-2.6 1.5 1.7 2 3.2 1.9 8.7-.6 4.6-2.1 4.7-2.1 9.9-.3 4.2 1.4 5.8 1.5 7.6.7 1.3-.6 3.5-1.4 5.1-1.7 1.5-.4 2.7-1.1 2.7-1.6 0-1.4 6.7-1.3 7.6.1.3.6.1 1.5-.6 1.9-3 1.9 15.1 2.2 22.7.5 3.8-.9 10.6.2 9.8 1.6-.9 1.3 1.6 1 4.5-.6 3.3-1.9 6.8-1.9 8.7.1 1.1 1.1 2.6 1.4 4.6 1 1.6-.3 5.9-.6 9.6-.6 4.1 0 6.1-.4 5.2-.9-.8-.5 6.3-.8 17-.7 10.1 0 18.7.4 19 .9.3.4 2.5.1 4.8-.8 4.3-1.5 7.6-1.1 5 .6-.9.6.5.9 3.8.9 2.8 0 5.5-.5 5.9-1.1.4-.7 2.2-.9 5.1-.4 2.4.3 5 .2 5.6-.3.7-.5 5-1.2 9.5-1.4 4.6-.3 8.7-1 9.1-1.6 1.5-2.4 10.1-2.6 10.1-.2 0 .4-1.7 1.2-3.7 1.8-2.1.5-3 1-2 1.1.9.1 1.7.5 1.7.9 0 .9 4.7.6 14.3-.9 5.2-.8 7.1-.8 8.2.1 1.2 1 8.3 1.1 31.3.6 34.7-.9 30.4-.8 64.7-.8 14.9.1 29 .1 31.5 0 2.5 0 10.4 0 17.5.1 7.5 0 13.1-.4 13.3-.9.5-1.3 6.2-1.3 6.2 0 0 1.4 74.7.7 81.5-.7 3.4-.8 5.4-.8 6.3-.1 1.5 1.3 32 1.7 45.1.6 7.2-.6 9.7-.5 10.3.4.6 1 1 1 2 0 1.3-1.3 8.2-1.7 7.5-.5-.3.5 4.2.7 9.9.5 5.7-.2 10.2-.6 10-1-.6-1 21.7-.2 22.9.8.6.4 6.4.5 13 .3 6.6-.3 14.4-.6 17.3-.7l5.3-.1-.2 25c-.4 32-.1 43.4 1.3 56.9.8 8.5.8 11-.2 11.6-.9.5-1 3.4-.6 11.1.8 13.8.8 11.8 0 33.7l-.7 19.4-3.1-.5c-3.5-.5-20.9.8-24.5 1.9-1.7.5-2.2.4-1.7-.4.9-1.5-7.5-1.6-19.8-.2-5.5.7-9.2.7-9.5.1-.8-1.3-16.5-1.4-75.1-.6-55.2.8-65.8 1-81.8 2.2-5.6.5-10.2.4-10.2 0 0-.5-7.1-.6-15.7-.2-8.7.4-18.7.7-22.3.6-3.6 0-10.3.6-15 1.4-11.1 1.9-19.4 1.9-21.3 0-1.2-1.1-4.5-1.4-14.8-1.4-18.3 0-22.8.2-22.1 1.3.3.5-.9.5-2.9 0-3.6-1-32.8-1.1-78.2-.4-15.2.3-27.7.1-27.7-.3 0-.5-.4-.6-.8-.3-.5.3-7.6.4-15.8.3-8.2 0-38.5-.1-67.4-.2-28.9 0-66.4-.1-83.5-.2-31.3-.2-52 .3-53.5 1.2-.5.3-1.2.1-1.5-.5-.4-.6-1.4-.9-2.3-.6-1 .3-25.2.7-54 1-31.6.3-53.7.9-56.1 1.6-2.1.6-5 .7-6.3.3-1.2-.5-9.3-.6-17.8-.3s-19.1.2-23.5-.2c-4.4-.4-19.4-1-33.2-1.4l-25.3-.7-.1-11.6c-.1-6.4-.3-33.9-.4-61.1-.1-48.6-1-67.3-4-83.3-1.1-6.4-1.3-1.3-1.4 45.8-.1 29.1-.5 53.5-.9 54.1-.4.7-3.1 1-6.7.9-3.3-.2-6.6.2-7.3.7-.9.8-1.2.6-1.2-.6 0-.9-.7-1.6-1.5-1.6s-1.5.5-1.5 1.1c0 .6-.7.9-1.5.6-.8-.4-1.7-.2-2 .3-.4.6-1.5 1-2.5 1-1.1 0-2.8.9-3.9 2.1-2.1 2.3-4.1.8-2.1-1.6 1.7-2.1-1.6-3.2-4.3-1.6-1.5 1-2.1 1-2.7.1-.6-.9-3.2-1.1-10.1-.6-12.6.9-13.6 1-19.4.7-11.1-.6-23 .1-23.8 1.2-.7.9-1 .9-1.4 0-.3-.9-3.1-1.3-9-1.3h-8.5l3.2 3.7c1.8 2.1 6.3 7.1 9.9 11.2 3.6 4 6.8 7.7 7.1 8.1.3.4 1.4.9 2.5 1.2 1.1.2 2 1 2 1.9 0 .9 1.5 3.4 3.3 5.5 1.8 2.1 3.6 4.3 4.1 4.9.4.5 2 1.9 3.4 3 1.5 1.1 2.7 2.4 2.7 3 .1.5 1.2 2.3 2.6 4 1.5 1.6 2.3 2.3 1.9 1.5-.4-.8.6 0 2.3 1.8 1.7 1.8 2.9 3.8 2.6 4.6-.3.7.2 1.6 1 1.9 2 .8 2.1 3.6.2 4.3-2.2.8-10.9 12.2-12.1 15.7-.5 1.8-1.7 3.2-2.5 3.2-1.2 0-4.3 3.7-4.5 5.5 0 .3-3.1 3.6-6.8 7.5-3.8 3.8-7.5 8.3-8.4 9.9-.8 1.7-2.4 3.7-3.5 4.5-1.2 1.1-2.1 3.5-2.5 6.9l-.6 5.3 3.4-2c2.9-1.6 4.2-1.8 8.7-1.1 2.9.5 5.8.7 6.5.5.7-.3 9.7-.6 20-.9 11.9-.2 19.3-.8 20-1.5 1.4-1.4 6.7-1.4 6.7 0 0 1.3 6.7.7 9.7-.9 1.4-.8 2.4-.9 2.8-.2.4.6 1.7.4 3.5-.5 3.9-2 8-2 8 .1 0 1.4.9 1.6 5.8 1 4.9-.5 77.1-.8 99.7-.4 12.6.2 27.6-.2 30-.8 2.2-.5 2.3-.9 1.9-11.2-.8-23.1-.8-27.9-.1-32.4l.8-4.7 52.2-.4c28.7-.2 82.4-.4 119.2-.3 283.4.2 385.9-.5 461.4-3.1l15.4-.5-.7 22.8c-.3 12.6-.9 25.8-1.2 29.2l-.7 6.4 27.9-.7c15.4-.4 29.5-.6 31.4-.5 1.9.2 32.1.3 67.1.3 50-.1 64.5-.4 67.5-1.4 4.2-1.4 26.3-1.9 27.1-.7.5 1 18.9.9 22.3-.1 2.3-.6 2.2-.9-4.6-8.1-8.8-9.4-17.4-19.6-17.4-20.5 0-.4-2-3-4.3-5.8-2.4-2.9-5.8-7.2-7.6-9.7-1.7-2.5-5.1-6.9-7.5-9.9l-4.4-5.4 5.1-6.6c2.8-3.6 8.1-9.8 11.9-13.7 3.7-4 6.8-7.9 6.8-8.8 0-.9.4-1.6.9-1.6 1 0 22.3-26.2 23-28.2.2-.7-1.4-.8-5-.3-3 .4-12.9.8-22.2.8-9.2-.1-17 .3-17.3.8-.8 1.3-4.4 1.1-4.4-.2 0-.8-5.4-.9-19.2-.5-10.6.4-24.9.9-31.8 1.1l-12.5.3.3-57.9.4-57.9-126.4.4c-69.4.2-131.9.5-138.8.5-6.9 0-14.7-.2-17.5-.5-2.7-.3-5.2-.3-5.5 0zM1442.5 419c-.3.5-.1 1 .6 1 .8 0 .6.7-.5 1.9-2.3 2.6-.4 3.7 3.6 2 2.2-.9 3.2-.9 3.7-.1.8 1.3 15.2.9 19.1-.6 1.4-.5 3.5-.6 4.7-.1 1.2.4 6.7.6 12.2.4 5.6-.2 10.3 0 10.6.5.3.4-.4 1.9-1.5 3.3s-2 3.5-2 4.6c0 1.3-.6 2.1-1.8 2.1-1 0-2.6 1.3-3.5 3-1 1.6-2.6 3.4-3.6 4-1 .5-2.4 2.3-3.1 3.9-.7 1.7-1.6 2.8-2.1 2.5-.5-.3-.9.4-.9 1.6 0 1.2-.3 1.9-.7 1.7-.5-.2-1.9.9-3.3 2.6-1.4 1.7-1.8 2.7-1 2.2s.2.6-1.4 2.5c-1.6 1.9-3.5 3.4-4.3 3.2-.7-.2-1.3.3-1.3 1 0 .8-.9 2.1-2 3.1-2.4 2-2.7 7.2-.4 8.1.8.3 1.2 1 .9 1.6-.3.5-.1 1 .4 1 .6 0 1.1.6 1.1 1.3 0 1.8 10.8 15.1 12.8 15.8 2.5 1 4.9 3.9 3.1 3.9-.7 0-.3 1 1.1 2.5 1.3 1.4 2.9 2.5 3.6 2.5.7 0 1.6 1 1.9 2.2.6 2 5.8 9.5 10.1 14.8 1.4 1.7.7 1.7-28.9 2.5-8.3.2-14.3.7-15 1.4-1.4 1.4-5.4 1.4-6.2.1-.8-1.3-7.2-.8-10.2.8-1.6.9-2.2.9-2.5.1-.3-.8-1.4-.7-3.5.5-4.2 2.1-8.3 2.1-8.3 0 0-1.4-.8-1.6-5.7-1-3.2.4-24.9.6-48.3.5-23.4-.1-47.8-.2-54.2-.2-9.1-.1-11.5-.3-10.7-1.3.5-.7 2.1-1.1 3.4-.9 1.7.1 2.5-.3 2.5-1.2 0-.9.6-1.3 1.5-.9 1.1.4 1.5-.2 1.5-2.2 0-1.5.4-2.3.8-1.7 1.1 1.6 2.9 1.6 4.2 0 .7-.8 1.9-1.5 2.6-1.5.8 0 1.4-.4 1.4-.9s1.4-1.4 3-2c1.7-.5 3-1.5 3-2 0-.6.6-1.1 1.3-1.1.7 0 2.2-.8 3.3-1.8 1-.9 3-1.8 4.4-2 1.4-.2 3-1 3.6-1.8.6-.7 1.4-1.1 1.7-.7.4.3.7 0 .7-.7s.3-1.1.6-.7c.9.8 7.9-3 11.4-6.3 1.6-1.5 3.1-2.6 3.3-2.3.3.2.8-.8 1.1-2.4.6-2.2.9-2.4 1.7-1.2.8 1.1 1.2 1.1 1.6.1.2-.6 1-1.2 1.6-1.2.7 0 2.3-.9 3.7-2 1.4-1.1 3.2-2 4.1-2 .9 0 2.2-.6 2.9-1.4.6-.8 1.7-1.3 2.4-1 .7.3 2.5-.7 4.2-2.1 2.7-2.4 3.5-2.5 14.6-2.5h11.7v-24.4c-.1-13.5.2-25 .6-25.5.3-.6 1.1-.9 1.6-.6.5.4.9.1.9-.5 0-.7 2.3-1 6.4-.8 3.6.1 6.8-.1 7.2-.5 1-1 2.6-.9 2 .2-.3.5 0 1.1.8 1.4.8.3 1.7-.1 2-.8.3-.8 1.2-1.2 2-.9.8.3 1.7.1 2.1-.5.3-.6 1.4-1.1 2.4-1.1s2.6-.9 3.6-2c1.9-2.1 3-2.7 2-1zm-937.7 32.4-.3 26.1 5.3.3c4.4.3 6.5 1.1 12 4.9 3.6 2.4 7.5 4.7 8.5 4.9 4 .7 6.3 1.7 8.2 3.4 2.7 2.5 17.2 8.2 21.5 8.5 4.9.3 5 .3 5 2 0 .8.7 1.5 1.6 1.5.9 0 4.2 1.6 7.4 3.5s6.3 3.5 6.9 3.5c.7 0 2.4.9 3.9 2s3.6 2.1 4.7 2.3c2.2.4 4.6 1.3 8.8 3.2 2.6 1.1 2.1 1.3-6.5 2-5.1.4-10.6.6-12.3.4-1.6-.2-31.4-.3-66.1-.3-49.2.1-64 .5-67 1.5-3.8 1.3-26.4 2-26.4.8 0-.8 7.1-10 9.6-12.4 6.2-5.7 30.4-35.2 30.4-36.8 0-.7-5.2-7-11.5-14.1S437 445.4 437 445c0-.4-3-4.1-6.6-8.1-9-10.1-9.3-10.7-4.6-10.7 20.5.1 57.2-.5 63.2-1.1 4.1-.3 9.4-.4 11.8-.2l4.2.3-.2 26.2zm809.2 24.4c5.2.3 18.8.5 30.3.6 14.2.1 20.3.4 19.2 1.1-.8.5-4 2.6-6.9 4.5-3 1.9-5.7 4.3-6 5.4-.3 1.3-1.1 1.7-2.5 1.3-1.2-.3-3.1.3-4.5 1.4-1.3 1-3 1.9-3.8 1.9-.7 0-3.5 1.2-6.3 2.5-2.7 1.4-5.4 2.5-5.9 2.5s-2.4 1.1-4.2 2.5c-1.8 1.4-3.5 2.5-3.8 2.5-1 0-11 6.3-13 8.2-1.1 1-2.6 1.8-3.3 1.8-.7 0-1.3.4-1.3.9 0 .9-2 2.1-8.7 5.5-1.3.6-2.3 1.4-2.3 1.8 0 .5-.7.8-1.5.8s-1.5.8-1.5 1.7c0 1.1-.3 1.3-.9.7-.5-.5-1.2-5.2-1.4-10.4-.2-5.2-.6-12.7-.8-16.5-.2-3.9.1-10.2.6-14l1.1-7 3.5.3c1.9.2 4.6-.1 5.9-.7 1.4-.5 3.9-.7 5.5-.4 1.7.3 7.3.8 12.5 1.1zm-690.9 20.7c-.2 9.9-.7 18.1-1.2 18.3-.4.2-.5 1-.2 1.8s-.1 1.4-1.1 1.4c-1.2 0-1.4-.5-.6-2.5.8-2 .6-2.5-.6-2.5-.8 0-1.3.4-.9.9.3.5.1 1.2-.5 1.6-.5.3-1 .1-1-.5s-.4-.8-1-.5c-.6.4-.7-.1-.3-1.1.4-1.2.3-1.5-.5-1-.7.4-1.2.1-1.2-.9 0-1.1-.5-1.5-1.5-1.2-.8.4-1.7.1-2.1-.4-.4-.7-1-.7-1.7 0-.6.6-1.5 1.1-2.1 1.1-.5 0-.6-.3-.3-.7 1-.9-1.3-3.3-3.2-3.3-.9 0-3.5-.9-5.6-2-2.2-1.2-4.8-1.9-5.8-1.6-.9.2-1.5 0-1.1-.5.3-.5 0-1-.5-1-.6-.1-1.5-.3-2.1-.4-.5-.1-1.7-.3-2.6-.4-.9 0-1.2-.6-.8-1.3.5-.7.2-.9-.9-.5-.9.3-1.8 0-2.1-.9-.3-.9-1.4-1.4-2.5-1.2-1 .2-2.8-.5-3.9-1.5s-2.6-2-3.4-2.1c-.7-.1-3-1-5-1.9-2.1-.9-5.6-1.5-7.8-1.4-2.7.2-4-.2-4-1 0-.7-.3-1.2-.7-1.1-1.1.2-4.2-1-8.5-3.2-2-1.1-4.4-2-5.2-2-.8 0-1.6-.5-1.8-1.2-.3-.7-2.4-1.8-4.9-2.4-3.5-1 4.7-1.2 42.6-1.1l47 .2-.4 18z"/><path d="M668.7 345.1c.4 1.2 1.4 2.4 2.5 2.6 2.3.7 2.4 2.3.1 2.4-1.5 0-1.4.2.3.9 1.6.6 2 1.5 1.7 3.4-.3 1.4-1.2 2.6-1.9 2.6-1.2 0-1.4 4.6-1.3 27.5 0 16.4.5 28.9 1.1 30.8.6 1.8 2.3 4.4 3.9 5.8 3.9 3.6 3.7 4.3-.6 1.9-1.9-1.1-3.5-1.9-3.5-1.7-.1.1-.3 2.8-.6 5.9-.5 5-.4 5.8 1.1 5.8 1 0 1.5.5 1.2 1.4-.3.7 0 1.9.6 2.5.8.8.7 1.1-.3 1.1-.9 0-.5.9 1 2.5 2 2.1 3.2 2.5 8.3 2.5h5.9l-.6-3.3c-.3-1.7-.6-10.5-.7-19.5-.1-13.7-.3-16.5-1.7-17.9-1.8-1.8-2.4-4.5-1.6-8 .3-1.7 1-2.2 2.7-1.9 1.2.3 5.5.5 9.5.5l7.4.1-.4 25-.3 25h9.8c5.3 0 9.7-.3 9.7-.8-.1-2.5-2.8-9.4-3.3-8.2-.3 1-.6.7-.6-.8-.1-1.2-.6-2.2-1.2-2.2s-.8-.9-.4-2 .2-2-.4-2c-.6 0-1.1-.6-1.1-1.3 0-1.6 3.2-1.8 4.2-.3.4.6.8-16.5.9-37.9.2-44.5.1-43.5 1.2-42.8.4.2.7 0 .7-.6 0-.7-3.8-1-10.1-1-8.6 0-10 .2-9.5 1.5.3.9.6 3.8.6 6.5 0 2.8.3 4.8.8 4.6.4-.3.8.6.8 1.9.1 1.3-.2 2.4-.7 2.4-.5 0-.9 3.6-.9 8v8h-16l-.1-7.3c-.2-12.1.3-21 1.2-23.4.8-2.2.6-2.3-2.9-2.2-2 .1-2.9.3-1.9.6 2.7.7 2.2 4.3-.7 4.3-1.4 0-2.8-.5-3.1-1-1-1.6-2.2-1.1-3 1.2-.4 1.5-.8 1.8-1.2 1-.3-.7.5-2.4 1.8-3.8l2.2-2.4h-5.5c-5.2 0-5.6.1-5.1 2.1zM748.5 346.6c.4 2.6.3 3.4-.5 2.9-.6-.4-.9-.9-.6-1.3.3-.3-.2-1.1-1.2-1.8-1.5-1.1-2.1-.8-4.9 1.8l-3.1 3-.1 40c-.1 35.4 0 40 1.4 39.4.8-.3 1.5-.1 1.5.4 0 .6-.4 1-1 1-2 0-.9 2.3 3.2 6.5 3.4 3.7 4.4 4.2 6 3.4 1.9-1 1.9-1.2.2-3.7l-1.7-2.7 2.7 2.5c2.5 2.2 2.9 2.3 3.9.9 1.1-1.4 1.4-1.4 3.1.3 1.9 1.7 1.9 1.8.1 1.8-1 0-1.5.3-1.2.7 1.1 1 5.6 1.2 6.2.2.4-.5 1.1-.9 1.6-.9.6 0 .8.4.5.8-.2.4.4.9 1.6.9 1.4.1 1.8-.3 1.4-1.3-.4-1 .1-1.8 1.4-2.1 1.1-.3 2-1.3 2-2.3 0-1.3.6-1.7 2-1.3 1.1.3 2 0 2-.6s.7-1.1 1.5-1.1 1.5-.5 1.5-1c0-.6.5-1 1.1-1 .5 0 .8.4.4.9-.4.8 1 5.3 2.2 7 .2.3 1.7-.8 3.3-2.4l3-2.9v-41.2c0-40.7 0-41.2-2-40.7-1.1.3-2 .1-2-.5s.8-1.2 1.8-1.4c1.4-.3.9-1.1-2.2-4l-4-3.7h-15.9l-15.9-.1.7 3.6zm22 46.4v32.5h-15l-.3-18.8-.2-18.7h-2.7c-1.5 0-3.4.6-4.2 1.4-.9.8-2.8 1.8-4.3 2.1-2.8.7-2.8.7-1.3-2.1.8-1.6 1.5-3.5 1.5-4.2 0-1 1.4-1.3 5.5-1l5.5.3v-11.6c0-6.4.3-11.9.7-12.3.4-.4 3.9-.5 7.8-.4l7 .3V393zM807.5 344.3c-1 3.3-2.5 14.9-2 15.7 1 1.6 2.5 1.1 2.5-.7 0-1.3.3-1.4 1.2-.5.7.7 4.3 1.2 9 1.2h7.8v18.7c.1 52.5.4 59.8 2.2 59.7 1.4-.1 1.6.4 1.2 2.1-.5 2-.2 2.2 2 1.8 2.6-.5 3.2-1.4 1.9-2.7-.4-.3-.8-1.2-.9-1.9-.2-.7-.6-2.3-1-3.6l-.7-2.4 2 2c3 3 5.4 8.1 4 8.6-.7.2.8.4 3.2.5l4.3.2-.7-3.8c-.3-2.1-.6-5.8-.7-8.1 0-2.2-.4-4.4-.9-4.7-.5-.3-.7-1-.4-1.5.4-.5 0-1.2-.8-1.5-1.2-.4-1.2-1.1.4-4.4 2.3-4.7 2.3-5 .4-5-.8 0-1.5-.2-1.5-.5s.7-2.2 1.5-4.2c.8-1.9 1.5-4.2 1.5-4.9 0-2.4-1.6-1.5-2.6 1.3-.9 2.5-1 2.3-1-2.2.1-4.8 1.6-8.2 3.1-6.7.4.4.6-2 .5-5.3-.1-3.3-.2-11.7-.1-18.8l.1-12.7h7.9c4.4 0 9.1.4 10.5 1 3 1.1 3 1.4 1.5-8.3-1.4-8.4-2.2-9.7-5.9-9.7h-2.8l.4 6.7.5 6.8-2.2-5.4c-1.3-3.2-2.9-5.5-4-5.8-1.1-.3-1.9-.9-1.9-1.4 0-1.4-39-1.1-39.5.4zM895.7 343.6c.7.3.9 1.2.6 2-.3.8 0 1.4.6 1.4s1 .3.9.7c-.3 1.2 1.4 7.7 2.1 8.3 1 .8 3.4 10.1 3.9 15.2.3 3.3.8 4.8 1.8 4.8 1.7 0 1.8 1.2.3 2.7-.8.8-.4 2.3 1.1 5.3 1.3 2.5 1.9 5.2 1.6 6.5-.3 1.2.3 3.9 1.3 6.1 1.1 2.1 1.5 4 1 4.2-.5.2-.4 1.3.3 2.5.8 1.5.8 2.2 0 2.5-.8.2-.8 1.1-.1 2.8.5 1.4.9 3.6.9 4.9 0 1.3.7 3 1.5 3.9.8.8 1.2 2.2.9 3-.3.9 0 4.7.7 8.4 1.4 7.8 1.4 7.9.5 11.5-.5 2-.3 2.7.9 2.7 1.9 0 5.2-6.3 3.6-6.8-.7-.2-.8-.8-.3-1.5s1.3-2.6 1.7-4.2l.8-3 .6 2.5c.4 1.4 1.6 2.7 2.6 2.9 3.3.6 3.3 2 .3 5.3-1.5 1.6-2.8 3.4-2.8 3.9s2.1.6 4.8.3c8.6-1 9.5-1.3 8.9-3.5-.5-1.8 9.5-56.5 10.5-57.5.3-.2 3 12 6 27.3 3.7 19 5.2 28.7 4.7 30.6-.9 3.4 1.2 4.7 4.4 2.8 1.2-.8 2.2-.9 2.6-.3.3.5 3.6 1 7.4 1l6.7.1-.1-4.2c-.3-6.3.3-11.7 1.3-12.3.4-.3.8-2.7.8-5.5 0-2.7.4-5.7 1-6.7 1.1-2 3.1-10.4 6-25.2 1.1-5.8 2.3-11.5 2.5-12.8.4-1.5.1-2.2-1-2.2-1.7 0-2.1-3.5-.5-4.5.6-.3 1-.1 1 .4 0 .6.4 1.1.9 1.1s1.6-3.8 2.6-8.3c1.4-6.7 1.5-8.8.6-10.6-1-1.8-1-2.6.1-3.8.9-1.1.2-1-2.6.5-3 1.6-4.1 1.8-5.1.9-1.2-1.1-1.1-2.1.3-2.2 2.4-.2 5.2-1.9 5.2-3.1 0-1.1-1.5-1.4-6.2-1.4h-6.3l-.3 5.8c-.2 3.1-.4 6.9-.5 8.4-.1 1.6-.5 2.8-.8 2.8-.3 0-2.5 10.3-4.9 23-2.5 12.6-4.6 22.7-4.8 22.5-.2-.2-3-13.2-6.3-28.9-4.4-21.7-5.6-29.2-4.9-31.1l1-2.5h-20.5v6c0 3.8.4 5.9 1 5.6.6-.2 1.9.2 3 1 1.8 1.3 1.8 1.4-.3 1.4-1.3 0-2.5.7-2.8 1.5-.4.8-1 1.3-1.4 1-.9-.6-.9-.5-6.6 27.7-2.1 10.3-3.9 18.6-4.1 18.4-.8-.7-11.5-55.4-11.5-58.9l-.1-3.7-10.1.1c-5.5 0-9.6.3-8.9.5zM1017.1 345.9c.6 1.7.9 20.5.7 50l-.3 47.1h6.2c4 0 6.3-.4 6.6-1.3.4-1 .6-1 .6 0 .1 1.5 3.7 1.7 4.6.3.4-.6-.1-.7-1-.3-1.5.5-1.5.3-.4-1.5 1.7-2.7.4-4-2.1-2.4-1.6 1-2 1-2-.2 0-.8.5-1.8 1-2.1 1.7-1 1.2-4.8-.5-4.2-2.2.9-2.8-1.1-.6-2.2 1.5-.9 2-.7 2.4.9.9 3.3 2.7 2.3 2.7-1.5 0-2.5-.4-3.5-1.6-3.5-.9 0-1.2.5-.8 1.1.4.7.1 1-.7.7-.8-.3-1.3-1.3-1.1-2.3.2-.9-.1-1.4-.6-1.1-1.7 1-2.2-2.2-.8-4.9l1.4-2.6.6 3.7c.7 3.3.8 3.5 2.1 1.8 1.7-2.2 1.9-5.6.5-7-.7-.7-.7-3.3 0-8 1.5-10.5 1.3-55.1-.2-55.7-1-.4-1-.6 0-.6 1.4-.1 1.7-4.1.2-4.1-.5 0-1 .5-1 1.2 0 .9-.3.9-1.2 0-1.8-1.8-2.8-1.5-2.8.8 0 1.1.5 2 1.1 2 .5 0 .8.4.4 1s-1.5.6-3.1 0c-3-1.2-4.8-.4-4 1.6.3.8-.1 1.4-.8 1.4-2.1 0-2.5-2.3-.8-3.6 1.8-1.3 2.4-5.4.8-5.4-.6 0-.4-.5.4-1 1.1-.7.4-1-2.7-1-4.2 0-4.2 0-3.2 2.9zM1056.7 343.7c-1.3 1.3-.7 3.5.8 2.9.9-.3 1.5 0 1.5 1 0 .8.5 1.2 1 .9 1.5-.9 1.2.2-.6 3.1-1 1.4-2.3 2.3-3 2-1.1-.4-1.3 3.1-1.4 18.1 0 18.7.5 23.7 2.1 22.7s.9.9-.8 2.2c-1.2.9-1.4 1.6-.7 2.1.6.5 1.3 1.6 1.7 2.5.4 1.2.2 1.5-.9 1.1-1.7-.6-2 4.7-.3 6.4 1.5 1.5 2.3 11.9 1 12.7-.7.5-.9-.3-.4-2.5.4-2.1.3-3-.4-2.6-.6.4-1.1 4.9-1.2 10.3 0 5.3-.4 10-.7 10.5-.3.5-.1.9.5.9.5 0 1.2-.6 1.5-1.3.4-.6.4-.1.2 1.2-.7 3.4 1 5.1 5.1 5.1 2.9 0 3.3-.2 2.4-1.4-.9-1.1-.9-1.5.1-2s1-.7.1-1.2c-1.9-.8-1.6-2.1.7-2.7 2.4-.6 4.2 1.5 3.8 4.5-.2 1.8.2 2.4 2.1 2.6 2 .3 2.2.1 1.5-1.5-.5-1-1-14.6-1.1-30.3l-.2-28.5 8.6 21.5c4.7 11.8 8.9 21.7 9.4 21.8.5.2.7.7.4 1.2-.8 1.4 5.2 15 6.7 15 .5 0 .6-.5.3-1-1-1.6 1.1-1.2 2.5.5.9 1 3.2 1.5 7.5 1.5 6.9 0 7.9-.5 6.5-3-.5-1-1-20.5-1-45.9-.1-43-.2-44.1-2.1-44.1-1 0-1.9.5-1.9 1.1 0 .6.8.8 1.8.5 1.5-.5 1.5-.4-.2.8-1.4 1.1-2.2 1.2-3.6.4-1.5-1-1.6-1.4-.4-2.5.8-.8 1.4-2.1 1.4-2.9 0-.9 1.1-1.4 2.9-1.4 1.7 0 3.1-.6 3.5-1.5.5-1.4-.9-1.5-9.8-1.4l-10.4.1.9 3.1c1.3 4.4 1.2 56.6-.1 54.7-.6-1-1-1.1-1-.3 0 .7-.4 1.3-.8 1.3s-.9-2.1-1-4.7c-.1-2.6-.6-5.1-1.2-5.7-.5-.5-1-1.8-1-2.8 0-1-.5-1.7-1.1-1.6-.6.2-1.4-.3-1.7-1.1-.3-.8 0-1.1.7-.7.6.4.2-1.7-1-4.6-1.1-2.9-4.8-12.3-8.1-20.8-3.4-8.5-6.6-15.8-7.2-16.2-1.4-1-13-1-13.9-.1zM1137.6 344.6c-.3.9-.6 2.2-.6 3 0 .8-.9 2.4-2 3.6-1.5 1.7-2.2 1.9-3.3.9-1.3-1-1.5.5-1.6 10-.2 8.3.1 11.4 1.1 12 1 .7 1 .9.1.9-.8 0-1.3 1.5-1.3 4.1 0 2.4.4 3.8 1 3.4.6-.3 1 .3 1 1.4 0 1-.6 2.1-1.2 2.4-1 .3-1 1 .1 3.1 1.1 2 1.2 2.9.3 3.8-.8.8-1.2 7.2-1.2 21.3v20.1l2.8 2.7c1.7 1.7 3.5 2.5 4.4 2.2.9-.4 1.9-.1 2.3.5.5.8 1.1.8 2.1-.1 1.1-.9 1.4-.9 1.4 0 0 .8.9 1 2.3.7 1.2-.3 1.6-.3 1 0-3.6 1.6-.2 2.4 10.3 2.4 11.7 0 14.6-.8 13.6-3.9-.4-1.2-.3-1.2 1.1 0 .8.8 1.2 1.8.9 2.4-.2.5 1.4-.8 3.7-3 2.8-2.6 4.1-4.8 4.1-6.5 0-3.6-.8-4.2-3.6-2.3-1.3.8-2.4 1.1-2.4.5 0-.5.7-1.2 1.5-1.6.8-.3 1.5-1.5 1.5-2.6s.7-2.3 1.5-2.6c1-.4 1.3-1.4.9-3.3-.3-1.4-.5-3.1-.4-3.6.1-.6.4-6.1.7-12.3l.4-11.2H1157l.1 2.7c0 1.6.6 5.3 1.2 8.3 1 4.5 1.6 5.6 3.5 5.8 2 .3 2.2.9 2.2 7.1 0 3.9-.5 7.2-1.2 7.9-.7.7-4.2 1.2-8.5 1.2h-7.3v-5.9c0-3.3-.4-6.1-1-6.3-.6-.2-.6-3.2 0-8.8.5-4.7 1-16.9 1-27.3V359h7.5c9 0 9.5.6 9.5 11.5v7.7l5.8-.7c11.1-1.3 10.2 0 10.2-13.9v-12.2l-4.4-4.3-4.4-4.3-11.4.3c-6.2.2-11.9.7-12.5 1.2-.9.6-1.3.5-1.3-.3 0-.9-.4-.9-1.3-.2-.8.7-1.8.7-2.7.2-2.2-1.4-3.7-1.2-4.4.6zM1202.4 345.1c-.8.9-1.2 1.9-.7 2.1.4.3.3.4-.3.2-.7-.1-2.1.8-3.3 2-2.4 2.6-3.1 11.6-.8 11.6.9 0 .9.2 0 .8-.6.4-1 2-1 3.5.2 2.1.6 2.7 2 2.3 1-.2 2.1.4 2.8 1.6 1.4 2.6.8 3.1-2.3 1.9l-2.5-1-.2 6.9-.1 6.8 14.6 12.2c10.7 8.9 14.9 11.9 15.7 11.1.8-.8.8-1.1-.1-1.1-.7 0-1.2-.6-1.2-1.3 0-1.9 3.7-1.8 4.5.1 1.1 2.6.5 18.5-.7 19.9-.7.8-3.6 1.3-8.4 1.3h-7.4v-14.8l-6.3-1.1c-11.5-2-10.6-3-10.6 11.8l-.1 12.8 4.5 4.2 4.5 4.1h32.7l4.1-4.4c2.7-2.9 4.2-5.4 4.2-7 0-3.5-2-3.3-2.1.1 0 2.5-.1 2.6-.9.8-.5-1.1-.9-1.5-.9-.8-.1 1.2-6.1 4.7-6.1 3.5 0-.4 1.1-1.6 2.5-2.6 1.3-1 2.9-3.3 3.5-5.1.6-1.8 1.8-3.9 2.6-4.5 1.8-1.6 2-7.5.2-6.4-1 .6-1 .5-.1-.7.8-1 1.2-4.3 1.2-8.2l-.1-6.6-16.4-13.6-16.4-13.7V360h7.3c4.3 0 7.8.5 8.5 1.2.7.7 1.2 4.3 1.2 9.4v8.1l4.8-.8c2.6-.5 6.2-1.1 8-1.4l3.2-.6V350.2l-4-3.5-3.9-3.6-17.1.1c-14.7.1-17.2.4-18.6 1.9zM545.8 382c.3 6.4.6 7 2.5 7.1h2.2l-2.2 1.1c-2 1-2.2 1.9-2.5 12.4l-.3 11.4h7.2c8.9 0 10.3-.5 10.3-3.9 0-2.6-.2-2.7-5.2-2.6h-5.3l-.3-6.3-.3-6.2h3.6c3.4 0 3.5-.1 3.5-3.8 0-3.8 0-3.8-3.6-3.4-3.5.4-3.5.4-3.2-2.9.3-3.4.3-3.4 5.6-3.4 4.8.1 5.2-.1 5.2-2.2 0-2.2-.9-2.8-3.9-2.4-.7.2-1-.2-.6-.8.4-.7-1.6-1.1-6.2-1.1h-6.8l.3 7zM573.7 376.4c-1.6 1.2-1.8 2.4-1.4 7.3.3 3.2.7 6.5.9 7.4.2.9 2.9 3.8 6.1 6.5 4.7 3.8 5.7 5.2 5.5 7.3-.2 2.1-.9 2.7-3.5 2.9-3.1.3-3.3.1-3.3-2.6 0-2.9-1.4-4.2-4.6-4.2-1.6 0-1.8 9.7-.2 11.7s6.6 1.6 7.1-.5c.4-1.5.5-1.5.6.2.1 1.5.4 1.6 1.6.6 1-.9 1.5-.9 1.5-.1 0 1.5 4.3 1.4 5.8-.1.7-.7 1.2-4.1 1.2-8.1 0-6.5-.2-7-3.2-9.5-8.9-7.3-11.8-10.5-10.8-11.7.5-.6.7-1.5.3-1.9-.4-.4 0-.4 1 0 .9.3 1.7.2 1.7-.4 0-.6.9-.6 2.5.1 1.9.9 2.5 2 2.5 4.6 0 3 .2 3.3 2.3 2.7 1.2-.3 2.5-.6 3-.6 1.2 0 .8-4-.5-4-.9 0-.9-.3 0-1.2 1.6-1.6 1.5-5.3 0-6.5-2.1-1.6-14-1.5-16.1.1zM600.6 377.2c-1.1 4.3-.7 4.8 3.4 4.8h4l.1 15.7c.1 9.5.4 14.6.9 12.8l.8-3 .1 3.2c.1 2.8.5 3.3 2.6 3.3h2.5l-.2-15.8-.2-15.7 4.2-.3c4.3-.3 4.7-.9 3.6-5-.7-2.4-4.9-3.1-5.7-1-.4 1-.6 1-.6 0-.1-.8-2.3-1.2-7.5-1.2-6.8 0-7.4.2-8 2.2zM1304.5 377.5c-1.6 1.9-2.2 2.1-3.4 1.2-1.2-1-1.4-.9-.8.5.3 1 .2 1.8-.3 1.8-.6 0-1 3.6-1 8.3 0 10.1 1.1 11.7 8.3 11.7h4.7v7.2l-6.3-.4-6.2-.4.3 3.3c.4 3.1.7 3.3 4.2 3.3 2.2 0 4.5-.7 5.4-1.6 1.5-1.4 1.7-1.4 2.2 0 .7 1.9 3.3 2 5.7.2 1.5-1.2 1.7-3.3 1.7-17.8v-16.6l-2.6-1.6c-3-2.1-6-1.7-5.6.7.3 2.1-1.1 2.2-2.7.3-.9-1.1-.9-1.5.1-1.9.9-.4.9-.6-.2-.6-.8 0-2.4 1.1-3.5 2.4zM1333 375.8c0 .6-.7.9-1.5.6-3.2-1.3-4.5 1.5-4.5 9.7 0 4.6.5 8.1 1.1 8.5.8.4.7.9-.2 1.5-1 .6-.9 1.2.5 2.8 1.4 1.6 3.1 2.1 6.8 2.1h4.8v7.2l-6.5-.4c-5.3-.3-6.5-.1-6 1 .3.7.5 2.2.5 3.3 0 1.7.8 1.9 6 1.9 4.7 0 6-.3 6-1.5 0-.8.6-1.5 1.3-1.5.7 0 1.8-.9 2.5-2 .7-1.2 1.7-1.8 2.2-1.5.6.4 1-5 .9-14.1 0-14.8-.5-16.9-3.9-17.2-.8 0-3.4-.4-5.7-.8-2.9-.4-4.3-.3-4.3.4zM1356.7 376.8c-1.1 1.2-1.7 3.6-1.7 6.6 0 4.5.1 4.8 2.3 4.2 1.2-.3 2.8-.6 3.5-.6.7 0 1.2-1.3 1.2-3.1 0-2.7.3-3 2.8-2.7 2.5.3 2.7.7 3 5 .3 4.7.3 4.8-2.7 4.8-2.9 0-3.1.3-3.1 3.5s.2 3.5 3.1 3.5c3 0 3 .1 2.7 4.7-.3 4.4-.5 4.8-3 5.1-2.5.3-2.8 0-2.8-2.8 0-2.6-.3-3-1.9-2.5-1.1.3-2.2.1-2.6-.5-.3-.5-1.1-1-1.6-1-1.3 0-.9 8.9.5 11.2 1.4 2.3 2.4 2.3 2.2.1 0-1 .7-1.9 1.7-2.1 1.2-.2 1.7.3 1.7 1.7 0 3 5.2 2.9 6.5-.1.6-1.2 2.1-2.5 3.5-2.8 2.2-.5 2.5-1.2 2.8-5.4.2-3.5-.2-5.3-1.4-6.7-1.6-1.8-1.6-2-.1-3.7 2.5-2.7 2.4-14.3-.1-16.5-2.7-2.5-14.3-2.4-16.5.1zM1285.3 376.8c-2.2.3-2.6 1.1-3.8 6.9-.4 2.2-.2 3.4.9 4 1 .6 1.6 3.3 1.9 9.8.3 4.9.6 9.4.7 10 0 .5-.2 2.1-.5 3.5-.6 2.4-.4 2.6 2.9 2.7l3.5.1v-17.9c0-15.9-.2-18-1.7-18.7-.9-.4-2.7-.6-3.9-.4z"/></svg>
