<svg class="is-bigger" width="150" height="43" viewBox="0 0 150 43" fill="none" xmlns="http://www.w3.org/2000/svg"><g clip-path="url(#prefix__clip0sofioksanen)"><path d="M10.508 26.102c.313-1.548-.354-3.398-1.72-4.647l-1.872-1.699c-1.252-1.197-1.823-1.998-1.564-3.295a2.636 2.636 0 01.898-1.549 2.786 2.786 0 011.705-.652c2.71 0 1.15 2.6 2.972 2.6a1.19 1.19 0 00.756-.293c.207-.183.34-.431.375-.7.156-1.15-.73-2.949-3.546-2.949-3.437 0-5.32 2.298-5.675 4.547-.312 1.6.522 3.44 1.72 4.547l1.877 1.751c.709.65 1.773 2.146 1.507 3.494-.156 1.101-1.302 2.408-2.813 2.408-3.546 0-1.716-2.947-3.642-2.947a1.448 1.448 0 00-.955.305c-.27.212-.45.512-.506.843-.259 1.349 1.252 3.399 4.48 3.399 2.5 0 5.365-1.751 5.99-5.16" fill="#000"/><path d="M10.508 26.102c.313-1.548-.354-3.398-1.72-4.647l-1.872-1.699c-1.252-1.197-1.823-1.998-1.564-3.295a2.636 2.636 0 01.898-1.549 2.786 2.786 0 011.705-.652c2.71 0 1.15 2.6 2.972 2.6a1.19 1.19 0 00.756-.293c.207-.183.34-.431.375-.7.156-1.15-.73-2.949-3.546-2.949-3.437 0-5.32 2.298-5.675 4.547-.312 1.6.522 3.44 1.72 4.547l1.877 1.751c.709.65 1.773 2.146 1.507 3.494-.156 1.101-1.302 2.408-2.813 2.408-3.546 0-1.716-2.947-3.642-2.947a1.448 1.448 0 00-.955.305c-.27.212-.45.512-.506.843-.259 1.349 1.252 3.399 4.48 3.399a6.192 6.192 0 006.003-5.163z" stroke="#000" stroke-width=".07"/><path d="M25.33 22.009c-.735 3.993-2.632 7.271-5.59 7.271-2.958 0-3.678-3.285-2.943-7.278.734-3.993 2.698-7.223 5.642-7.223 2.89 0 3.628 3.233 2.89 7.223v.007zm-2.632-8.705c-4.121 0-8.157 3.9-9.076 8.705-.833 4.815 1.774 8.75 5.888 8.75 4.113 0 8.093-3.945 8.972-8.75.88-4.805-1.716-8.705-5.784-8.705z" fill="#000"/><path d="M25.33 22.009c-.735 3.993-2.632 7.271-5.59 7.271-2.958 0-3.678-3.285-2.943-7.278.734-3.993 2.698-7.223 5.642-7.223 2.89 0 3.628 3.233 2.89 7.23zm-2.632-8.705c-4.121 0-8.157 3.9-9.076 8.705-.833 4.815 1.774 8.75 5.888 8.75 4.113 0 8.093-3.945 8.972-8.75.88-4.805-1.73-8.705-5.784-8.705z" stroke="#000" stroke-width=".07"/><path d="M37.032 15.244h6.281c.71 0 .752 1.2.554 2.318l-1.756 9.675c-.301 1.943.4 3.402 2.156 3.402.901 0 2.306-.73 3.31-1.7v-1.117c-.401.344-1.455 1.07-2.008 1.07-.71 0-.752-.878-.55-1.996l1.756-9.723c.298-1.943-.4-3.632-2.157-3.632h-7.234l.85-4.533c1.005-5.448 2.668-7.584 5.32-7.584 4.462 0 2.203 4.616 4.409 4.616 2.66 0 2.358-6.026-3.958-6.026-4.412 0-7.533 3.257-8.583 8.994l-.854 4.533h-3.256l-.355 1.703h3.256L30.666 35.21c-.854 4.667-1.755 6.37-3.259 6.37-2.706 0-.603-3.406-2.755-3.406-2.71 0-2.256 4.816 2.255 4.816 2.958 0 5.512-2.043 6.565-7.78l3.56-19.966z" fill="#000"/><path d="M37.032 15.244h6.281c.71 0 .752 1.2.554 2.318l-1.756 9.675c-.301 1.943.4 3.402 2.156 3.402.901 0 2.306-.73 3.31-1.7v-1.117c-.401.344-1.455 1.07-2.008 1.07-.71 0-.752-.878-.55-1.996l1.756-9.723c.298-1.943-.4-3.632-2.157-3.632h-7.234l.85-4.533c1.005-5.448 2.668-7.584 5.32-7.584 4.462 0 2.203 4.616 4.409 4.616 2.66 0 2.358-6.026-3.958-6.026-4.412 0-7.533 3.257-8.583 8.994l-.854 4.533h-3.256l-.355 1.703h3.256L30.666 35.21c-.854 4.667-1.755 6.37-3.259 6.37-2.706 0-.603-3.406-2.755-3.406-2.71 0-2.256 4.816 2.255 4.816 2.958 0 5.512-2.043 6.565-7.78l3.56-19.966z" stroke="#000" stroke-width=".07"/><path d="M57.755 27.509c-1.387 0-1.603-.94-1.603-1.228v-8.007c-.004-.3.062-.596.193-.868.132-.27.325-.51.566-.697.262-.158.567-.235.876-.224.268.01.532.075.773.19.408.25.844.546.844 1.564v8.025c0 .258-.16 1.262-1.65 1.262v-.017zm5.288-1.438v-7.91a4.59 4.59 0 00-.397-2.181c-1.064-2.436-4.295-2.408-4.824-2.408-2.018 0-4.23.609-5.025 2.659a4.953 4.953 0 00-.33 2.084v7.34c-.045.749.056 1.499.298 2.211.242.662.66 1.25 1.21 1.707a4.18 4.18 0 001.929.89 8.16 8.16 0 001.688.162c.66 0 3.007.062 4.493-1.668.795-.898.958-1.72.958-2.886zM79.041 30.284l-4.795-9.582 4.33-6.827h-4.362l-3.238 5.61V7.655h-3.9v22.628h3.9V21.92l3.636 8.364h4.43zM91.302 25.541c0-1.375-.231-2.115-.628-2.658a5.87 5.87 0 00-1.025-.994l-3.635-2.47c-.76-.512-1.125-.832-1.125-1.792a1.208 1.208 0 01.303-1.061c.13-.143.294-.255.476-.326a1.32 1.32 0 01.576-.088c1.522 0 1.454 1.537 1.454 1.795v1.187h3.405v-1.83c.04-.69-.12-1.378-.461-1.985-.529-.932-1.887-1.764-4.362-1.764-3.043 0-5.093.929-5.125 4.2 0 1.891.429 2.85 2.018 3.941l3.302 2.277c.96.67 1.16.929 1.16 2.115 0 .864-.334 1.376-.664 1.569-.267.16-.577.239-.89.227-.33.029-.66-.065-.923-.26a1.273 1.273 0 01-.496-.8 3.753 3.753 0 01-.099-1.032V24.51h-3.639v1.699c-.019.72.101 1.438.355 2.115.826 1.923 2.908 2.277 4.795 2.277 2.412 0 3.603-.609 4.327-1.476.893-1.056.893-2.338.893-3.59M101.448 26.824l-.429.344a2.165 2.165 0 01-1.419.575c-.794.034-.957-.671-.957-1.889 0-1.283.067-1.926.56-2.373.035-.031.199-.162.333-.258l1.915-1.217-.003 4.818zm4.692 3.464c-.163-.131-.231-.193-.262-.29-.596-.8-.497-2.82-.497-3.717v-9.136a2.937 2.937 0 00-.397-1.571c-1.188-2.085-4.132-2.064-4.611-2.064-2.18 0-3.567.543-4.255 1.218-.31.31-.555.675-.72 1.077-.164.4-.245.83-.238 1.261v1.861h3.603v-.609a4.647 4.647 0 01.131-1.54c.298-.64 1.064-.64 1.224-.64.302-.008.6.07.858.223.429.29.529.77.529 1.72v.963l-4.096 1.988a5.26 5.26 0 00-1.774 1.218c-.858.96-.79 2.177-.79 3.363 0 1.445-.1 3.399 1.287 4.393.6.408 1.317.621 2.05.608a3.82 3.82 0 001.536-.3 3.715 3.715 0 001.272-.886c.231-.193.398-.416.596-.609.068.801.131 1.09.461 1.445l4.093.024zM120.486 30.288V17.466a5.059 5.059 0 00-.131-1.603c-.398-1.538-1.852-2.308-3.405-2.308-1.553 0-2.348.543-3.373 1.506l.032-1.186h-3.997v16.413h3.933V18.46c0-.32-.166-2.212 1.685-2.212.268-.018.534.05.759.193.528.32.596.736.596 1.76v12.087h3.901zM131.26 18.202v2.019h-2.808V18.2c0-.416.031-1.633 1.454-1.633 1.422 0 1.354 1.283 1.354 1.634zm3.902 4.712v-4.678c0-1.252-.164-1.764-.462-2.342-.496-.994-2.014-2.34-4.759-2.34-1.982 0-4.164.706-4.99 2.629a5.935 5.935 0 00-.429 2.211v6.924c.022.723.122 1.443.298 2.146.461 1.476 1.617 3.144 5.089 3.144 2.245 0 4.362-.643 5.022-2.951.14-.479.196-.976.167-1.472V24.87h-3.806c0 .223.032 1.41-.131 1.857-.072.266-.236.5-.464.664a1.27 1.27 0 01-.791.234 1.372 1.372 0 01-.844-.237 1.303 1.303 0 01-.511-.692 3.087 3.087 0 01-.099-1.09v-2.693h6.71zM150.018 30.288V17.466a4.946 4.946 0 00-.135-1.603c-.394-1.538-1.848-2.308-3.401-2.308-1.553 0-2.348.543-3.373 1.506l.032-1.186h-4.015v16.413h3.934V18.46c0-.32-.167-2.212 1.684-2.212.268-.018.535.05.759.193.529.32.596.736.596 1.76v12.087h3.919z" fill="#000"/></g><defs><clipPath id="prefix__clip0sofioksanen"><path fill="#000" d="M0 0h150v43H0z"/></clipPath></defs></svg>
