<svg class="is-bigger" viewBox="0 0 131 46" width="131" height="46" fill="none" xmlns="http://www.w3.org/2000/svg"><path d="M127.827 26.922v3.542h2.323v1.858h-2.323v6.996h-1.935v-6.996h-1.494v-1.858h1.054c.281 0 .44-.16.44-.443v-3.1h1.935zm-6.882 7.069c.281 0 .371-.16.371-.356 0-1.153-.896-1.578-2.17-1.578-.794 0-1.622.143-1.622.975 0 .688.507.959 1.107.959h2.314zm.371 2.182v-.62h-2.819c-.86 0-1.477.23-1.477.957 0 .729.475 1.29 1.865 1.29 1.182 0 2.431-.602 2.431-1.63v.003zm-6.237.355c0-1.4.742-2.123 2.007-2.377.125-.017.177-.052.177-.125 0-.073-.052-.108-.159-.143-.669-.212-1.089-.62-1.089-1.401 0-1.45 1.57-2.214 3.241-2.214 2.43 0 4 1.224 4 3.207v5.85h-1.94v-.959c-.49.55-1.495 1.136-2.677 1.136-2.34 0-3.554-1.224-3.554-2.977l-.006.006v-.003zm.101-6.059l-3.452 8.856h-2.254l-3.554-8.856h2.077l2.363 6.426c.088.283.406.297.507 0l2.271-6.426h2.042zm-10.453 0v8.856h-1.935v-1.011c-.371.425-1.301 1.188-2.767 1.188-1.917 0-3.536-1.06-3.536-3.312v-5.72h1.94v5.263c0 1.153.794 2.004 2.095 2.004 1.393 0 2.271-.94 2.271-2.004v-5.264h1.935-.003zm-11.755-3.542v3.542h2.324v1.858h-2.324v6.998h-1.934v-6.998h-1.495V30.47h1.054c.28 0 .44-.16.44-.443v-3.099h1.935zM88.31 30.47v8.856h-1.935v-1.011c-.37.425-1.3 1.188-2.766 1.188-1.918 0-3.537-1.06-3.537-3.312v-5.72h1.94v5.263c0 1.153.794 2.004 2.095 2.004 1.393 0 2.271-.94 2.271-2.004v-5.264h1.935-.003zm-10.483 0v8.856h-1.94v-8.856h1.94zm-2.007-1.418v-2.124h2.112v2.123l-2.112.001zm-7.595 3.947c0 .55.617.865 1.723.993 1.248.16 1.69-.373 1.69-.941 0-.728-.777-1.113-1.748-1.113-1.112 0-1.671.425-1.671 1.06h.006zm5.124-.356c0 .781-.666 1.206-1.495 1.419-.176.035-.176.247.018.282 1.393.265 2.27.993 2.27 2.249 0 1.596-1.282 2.904-4.034 2.904-3.013 0-3.983-1.543-3.983-2.904h1.935c.035.705.793 1.171 2.007 1.171s2.077-.372 2.077-1.045c0-.674-.742-.817-1.781-.994l-1.072-.195c-2.135-.355-3.065-1.113-3.065-2.444 0-1.561 1.266-2.817 3.595-2.817 2.094 0 3.522.941 3.522 2.377h.006v-.003zM64.49 30.46v8.856h-1.935v-1.011c-.37.425-1.3 1.188-2.766 1.188-1.918 0-3.537-1.06-3.537-3.311V30.46h1.941v5.264c0 1.153.794 2.004 2.094 2.004 1.394 0 2.271-.941 2.271-2.004V30.46h1.935-.003zm-10.381 0v8.856h-1.935v-1.011c-.371.425-1.3 1.188-2.767 1.188-1.917 0-3.536-1.06-3.536-3.311V30.46h1.94v5.264c0 1.153.794 2.004 2.095 2.004 1.393 0 2.27-.941 2.27-2.004V30.46h1.935-.002zm58.583-11.832v5.348h-1.94v-4.993c0-1.24-.811-2.266-2.483-2.266-1.57 0-2.517 1.206-2.517 2.266v4.993h-1.94v-8.855h1.94v.373c0 .373.194.425.458.23.53-.39 1.393-.78 2.557-.78 2.341 0 3.925 1.435 3.925 3.684zm-18.205.125h5.073c.3 0 .405-.178.352-.46-.176-1.01-1.375-1.663-2.641-1.663-1.443 0-2.607.67-2.784 2.123zm7.505.479v.62c0 .282-.159.442-.44.442H94.47c.177 1.469 1.41 2.182 2.978 2.182 1.072 0 1.975-.442 2.305-1.188h2.17c-.475 1.84-2.364 2.869-4.475 2.869-3.841 0-4.965-2.395-4.965-4.626 0-2.231 1.2-4.585 4.794-4.585 2.995 0 4.718 1.893 4.718 4.288h-.006l.003-.002zm-11.247-.942v5.686H88.81v-5.441c0-1.401-.759-1.823-1.553-1.823-.741 0-1.511.442-1.511 1.823v5.442h-1.941v-5.442c0-1.401-.776-1.823-1.57-1.823s-1.513.515-1.513 1.823v5.442h-1.94V15.12h1.94v.355c0 .297.177.39.406.196.371-.338 1.023-.729 1.813-.729.878 0 1.765.298 2.346 1.136.49-.67 1.284-1.136 2.466-1.136 1.376 0 2.995.764 2.995 3.347h-.006.003zM69.02 19.53c0 1.664.913 2.745 3.03 2.745s3.03-1.113 3.03-2.744c0-1.63-.936-2.727-3.03-2.727s-3.03 1.189-3.03 2.727zm7.995 0c0 2.285-1.266 4.627-4.965 4.627s-4.964-2.395-4.964-4.626c0-2.231 1.358-4.585 4.964-4.585 3.606 0 4.965 2.36 4.965 4.585zm-11.682-4.412v8.855h-1.935v-1.01c-.37.424-1.3 1.188-2.766 1.188-1.918 0-3.537-1.06-3.537-3.312v-5.721h1.941v5.264c0 1.153.794 2.003 2.094 2.003 1.393 0 2.27-.94 2.27-2.003v-5.264h1.936-.003zm-20.012 4.975h2.076c.018 1.35 1.165 2.182 2.94 2.182 1.776 0 3.03-.515 3.03-1.68 0-.977-.683-1.545-1.975-1.757l-2.094-.373c-2.43-.408-3.613-1.579-3.613-3.402 0-2.004 1.341-3.668 4.6-3.668 2.694 0 4.525 1.436 4.525 3.703h-2.077c0-1.206-.953-1.824-2.483-1.824-1.53 0-2.481.655-2.481 1.792 0 .958.7 1.348 2.006 1.579L51.8 17c2.364.425 3.647 1.68 3.647 3.574 0 2.004-1.605 3.574-5.072 3.574s-5.054-1.698-5.054-4.058v.006-.003zM29.94 9.362c-3.046 4.573-4.17 9.187-2.516 10.3 1.653 1.113 5.466-1.692 8.507-6.266 3.048-4.573 4.172-9.187 2.518-10.3-1.655-1.112-5.466 1.692-8.508 6.266zm-11.15-.297c0 5.004 1.615 9.062 3.605 9.062s3.606-4.058 3.606-9.062C26.002 4.06 24.39 0 22.4 0c-1.99 0-3.606 4.057-3.606 9.062l-.003.003zm-9.142 6.059c2.558 3.702 5.958 5.773 7.59 4.632 1.63-1.143.888-5.07-1.667-8.768-2.557-3.703-5.958-5.774-7.588-4.632-1.631 1.142-.89 5.069 1.665 8.768zm-3.777 10.11c3.76 1.326 7.34.866 7.995-1.028.657-1.893-1.855-4.494-5.617-5.82-3.76-1.325-7.34-.865-7.995 1.029-.658 1.893 1.853 4.494 5.616 5.82zm2.766 9.715c3.348-.964 5.622-3.311 5.072-5.234-.55-1.923-3.71-2.703-7.059-1.74-3.348.965-5.622 3.313-5.072 5.235.547 1.923 3.71 2.703 7.06 1.74zm7.824 5.992c1.819-2.383 2.007-5.301.434-6.519-1.572-1.218-4.33-.277-6.152 2.106-1.819 2.383-2.007 5.302-.434 6.52 1.575 1.217 4.33.277 6.152-2.107zm9.541-.108c0-2.502-1.616-4.532-3.606-4.532-1.99 0-3.606 2.03-3.606 4.532 0 2.502 1.616 4.533 3.606 4.533 1.99 0 3.606-2.03 3.606-4.533zm6.86-1.124a3.588 3.588 0 01-5.078-.437 3.636 3.636 0 01.434-5.106 3.59 3.59 0 015.078.437 3.636 3.636 0 01-.435 5.106z" fill="#1C1E26"/></svg>
