<svg width="130" height="30" viewBox="0 0 130 30" fill="none" xmlns="http://www.w3.org/2000/svg">
<g clip-path="url(#clip0_491_349)">
<path d="M4.11151 24.1203L7.18179 28.1784C7.66235 28.8458 7.28858 29.1662 6.56773 29.1929V29.4332H12.0141V29.1929C11.32 29.1662 10.6525 28.5789 9.8249 27.4842L6.24735 22.6786L7.98273 20.8364C9.31763 19.4214 10.0919 18.9675 11.053 18.8608V18.6205H7.10169V18.8608C8.3832 18.9408 8.3298 19.5549 7.12839 20.8898L4.11151 24.1203V20.8097C4.11151 19.2612 4.29839 19.0476 5.6066 18.8608V18.6205H0V18.8608C1.30821 19.0476 1.46839 19.2612 1.46839 20.8097V27.2706C1.46839 28.8191 1.28151 29.0327 0 29.2196V29.4599H5.6066V29.2196C4.29839 29.0327 4.11151 28.8191 4.11151 27.2706V24.1203ZM18.395 20.8097C18.395 19.2612 18.5819 19.0476 19.8901 18.8608V18.6205H14.2835V18.8608C15.5917 19.0476 15.7519 19.2612 15.7519 20.8097V27.2706C15.7519 28.8191 15.565 29.0327 14.2835 29.2196V29.4599H19.8901V29.2196C18.5819 29.0327 18.395 28.8191 18.395 27.2706V20.8097ZM26.8583 24.2004H27.3388C27.7927 24.8678 28.2733 25.5086 28.9407 26.5765L29.3145 27.1639C29.9019 28.1517 30.2756 28.7657 30.6227 29.4332H34.574V29.1929C33.6129 29.0327 33.3993 28.8725 32.7052 27.8313L30.1688 23.9601C31.8241 23.6397 32.892 22.8655 32.892 21.3704C32.892 19.2078 30.6761 18.5671 27.6058 18.5671C27.499 18.5671 25.2831 18.5938 25.1496 18.5938H22.7468V18.8341C24.055 19.0209 24.2152 19.2345 24.2152 20.783V27.244C24.2152 28.7924 24.0283 29.006 22.7468 29.1929V29.4332H28.5403V29.1929C27.0452 29.006 26.8583 28.7924 26.8583 27.244V24.2004ZM26.8583 23.6931V19.1277H27.4189C28.9407 19.1277 30.0087 19.7685 30.0087 21.4238C30.0087 23.0791 28.9407 23.7198 27.4189 23.7198H26.8583V23.6931ZM39.5132 20.8097V26.2027C39.5132 28.8992 39.1928 29.0594 38.7389 29.0594C37.9647 29.0594 37.2171 27.3774 36.8434 26.5765H36.6832V29.4332C37.0836 29.54 37.8846 29.6468 38.4452 29.6468C40.2073 29.6468 42.1563 28.9793 42.1563 26.0158V20.8097C42.1563 19.2612 42.3432 19.0476 43.6247 18.8608V18.6205H38.0448V18.8608C39.353 19.0476 39.5132 19.2612 39.5132 20.8097ZM44.9863 29.4599H48.6439V29.2196C47.7095 29.1128 46.695 28.9259 47.7896 26.1493L47.8964 25.8823H51.7409L52.5685 27.9915C52.8622 28.7123 52.702 29.1128 51.8477 29.2196V29.4599H56.7601V29.2196C55.9325 29.0594 55.7456 28.7123 55.3184 27.6444L51.5273 17.9797H51.4472C51.1268 18.3802 50.4861 18.6472 49.9521 18.754L46.8818 26.6299C46.0275 28.8191 45.8406 29.0327 44.9863 29.1929V29.4599ZM49.8186 20.9432L51.4739 25.1615H48.1633L49.8186 20.9432ZM62.9007 29.6468C65.3035 29.6468 67.2525 28.1517 67.2525 26.2561C67.2525 24.6008 66.1045 23.6664 64.2089 22.7053L62.5536 21.8776C61.726 21.4505 61.3255 20.9966 61.3255 20.2758C61.3255 19.3413 62.1265 18.8074 63.141 18.8074C65.0098 18.8074 65.6773 20.5961 66.1312 21.9577H66.4515V18.8341C65.7841 18.487 64.3691 18.22 63.2478 18.22C61.0051 18.22 59.2965 19.5282 59.2965 21.317C59.2965 22.7587 60.3644 23.8266 61.993 24.6275L63.3813 25.3217C64.4492 25.8557 65.1433 26.3896 65.1433 27.3507C65.1433 28.392 64.289 29.0594 62.9541 29.0594C60.6581 29.0594 60.044 26.977 59.5901 25.2416H59.2965V28.8458C60.2309 29.2997 61.4056 29.6468 62.9007 29.6468ZM69.3616 29.4599H73.0193V29.2196C72.0848 29.1128 71.0703 28.9259 72.1649 26.1493L72.2717 25.8823H76.0896L76.9172 27.9915C77.2109 28.7123 77.0507 29.1128 76.1963 29.2196V29.4599H81.1088V29.2196C80.2812 29.0594 80.0943 28.7123 79.6671 27.6444L75.876 17.9797H75.8226C75.5022 18.3802 74.8614 18.6472 74.3275 18.754L71.2572 26.6299C70.4029 28.8191 70.216 29.0327 69.3616 29.1929V29.4599ZM74.194 20.9432L75.8493 25.1615H72.5387L74.194 20.9432ZM75.8226 16.6181C75.8226 17.1521 76.2764 17.5792 76.8104 17.5792C77.3444 17.5792 77.7982 17.1521 77.7982 16.6181C77.7982 16.0842 77.3444 15.6303 76.8104 15.6303C76.2764 15.6303 75.8226 16.0842 75.8226 16.6181ZM72.512 16.6181C72.512 17.1521 72.9392 17.5792 73.4731 17.5792C74.0338 17.5792 74.4877 17.1521 74.4877 16.6181C74.4877 16.0842 74.0338 15.6303 73.4731 15.6303C72.9392 15.6303 72.512 16.0842 72.512 16.6181ZM82.4704 29.4599H86.128V29.2196C85.1936 29.1128 84.1791 28.9259 85.2737 26.1493L85.3805 25.8823H89.225L90.0527 27.9915C90.3463 28.7123 90.1861 29.1128 89.3318 29.2196V29.4599H94.2443V29.2196C93.4166 29.0594 93.2297 28.7123 92.8026 27.6444L89.0114 17.9797H88.9313C88.611 18.3802 87.9702 18.6472 87.4362 18.754L84.366 26.6299C83.5116 28.8191 83.3247 29.0327 82.4704 29.1929V29.4599ZM87.3027 20.9432L88.958 25.1615H85.6475L87.3027 20.9432ZM88.9313 16.6181C88.9313 17.1521 89.3852 17.5792 89.9192 17.5792C90.4531 17.5792 90.907 17.1521 90.907 16.6181C90.907 16.0842 90.4531 15.6303 89.9192 15.6303C89.3852 15.6303 88.9313 16.0842 88.9313 16.6181ZM85.6208 16.6181C85.6208 17.1521 86.0479 17.5792 86.5819 17.5792C87.1426 17.5792 87.5964 17.1521 87.5964 16.6181C87.5964 16.0842 87.1426 15.6303 86.5819 15.6303C86.0479 15.6303 85.6208 16.0842 85.6208 16.6181ZM97.9286 29.4599H103.829V29.2196C102.36 29.0327 102.174 28.8191 102.174 27.2706V19.1811H102.681C104.977 19.1811 105.564 20.7563 106.205 23.0524H106.525L106.258 18.5938C105.057 18.6205 103.028 18.6205 101.827 18.6205H99.8775C98.6761 18.6205 96.6471 18.6205 95.419 18.5938L95.152 23.0524H95.4724C96.0864 20.7563 96.7005 19.1811 98.9965 19.1811H99.5038V27.2706C99.5038 28.8191 99.3169 29.0327 97.8485 29.2196V29.4599H97.9286ZM113.44 20.8097C113.44 19.2612 113.627 19.0476 114.935 18.8608V18.6205H109.329V18.8608C110.637 19.0476 110.797 19.2612 110.797 20.8097V27.2706C110.797 28.8191 110.61 29.0327 109.329 29.2196V29.4599H114.935V29.2196C113.627 29.0327 113.44 28.8191 113.44 27.2706V20.8097ZM129.966 23.9868C129.966 20.3024 127.056 18.3268 123.986 18.3268C120.916 18.3268 118.006 20.3024 118.006 23.9868C118.006 27.6711 120.916 29.6468 123.986 29.6468C127.056 29.6468 129.966 27.6711 129.966 23.9868ZM120.916 23.9868C120.916 20.9165 121.957 18.9141 123.986 18.9141C126.042 18.9141 127.056 20.9165 127.056 23.9868C127.056 27.0571 126.015 29.0594 123.986 29.0594C121.93 29.0594 120.916 27.0571 120.916 23.9868ZM124.653 16.6181C124.653 17.1521 125.107 17.5792 125.641 17.5792C126.175 17.5792 126.629 17.1521 126.629 16.6181C126.629 16.0842 126.175 15.6303 125.641 15.6303C125.081 15.6303 124.653 16.0842 124.653 16.6181ZM121.316 16.6181C121.316 17.1521 121.743 17.5792 122.277 17.5792C122.838 17.5792 123.292 17.1521 123.292 16.6181C123.292 16.0842 122.838 15.6303 122.277 15.6303C121.77 15.6303 121.316 16.0842 121.316 16.6181ZM4.72556 11.9192C7.12839 11.9192 9.07735 10.4242 9.07735 8.52859C9.07735 6.87331 7.92933 5.93888 6.03377 4.97775L4.37849 4.15011C3.55085 3.72294 3.15037 3.26907 3.15037 2.54822C3.15037 1.61379 3.95132 1.07982 4.96584 1.07982C6.83471 1.07982 7.50216 2.8686 7.95603 4.2302H8.27641V1.13322C7.60896 0.786146 6.19396 0.519165 5.07264 0.519165C2.8033 0.519165 1.12132 1.82737 1.12132 3.61614C1.12132 5.05784 2.18924 6.12576 3.81783 6.92671L5.20613 7.62086C6.27405 8.15482 6.9682 8.68878 6.9682 9.64991C6.9682 10.6911 6.11386 11.3586 4.77896 11.3586C2.48292 11.3319 1.86887 9.27614 1.415 7.54076H1.14802V11.145C2.05575 11.5722 3.23047 11.9192 4.72556 11.9192ZM13.0287 3.08218V7.56746C13.0287 10.7712 14.9509 11.9192 17.8343 11.9192C20.3172 11.9192 21.9992 10.6911 21.9992 7.27378V3.08218C21.9992 1.53369 22.1861 1.32011 23.4676 1.13322V0.919636H19.7299V1.15992C21.0381 1.34681 21.1983 1.56039 21.1983 3.10888V7.35388C21.1983 9.67661 20.4774 11.0916 18.4217 11.0916C16.3125 11.0916 15.6718 9.64991 15.6718 7.30048V3.08218C15.6718 1.53369 15.8587 1.32011 17.1669 1.13322V0.919636H11.5603V1.15992C12.8685 1.32011 13.0287 1.56039 13.0287 3.08218ZM37.3773 6.25925C37.3773 2.57492 34.4672 0.599259 31.397 0.599259C28.3267 0.599259 25.4166 2.57492 25.4166 6.25925C25.4166 9.94359 28.3267 11.9192 31.397 11.9192C34.4672 11.9192 37.3773 9.94359 37.3773 6.25925ZM28.3 6.25925C28.3 3.18897 29.3412 1.18662 31.3703 1.18662C33.3993 1.18662 34.4405 3.18897 34.4405 6.25925C34.4405 9.32953 33.3993 11.3319 31.3703 11.3319C29.3412 11.3319 28.3 9.32953 28.3 6.25925ZM53.8767 0.919636H49.5517L47.042 7.64755L44.4523 0.919636H39.8335V1.15992C41.1418 1.34681 41.3019 1.56039 41.3019 3.10888V9.56982C41.3019 11.1183 41.1151 11.3319 39.8335 11.5188V11.7324H43.5179V11.4921C42.2097 11.3052 42.0228 11.0916 42.0228 9.54312V2.12105L45.6537 11.3052H46.4013L49.7652 2.33464V9.54312C49.7652 11.0916 49.5784 11.3052 48.2968 11.4921V11.7324H53.8767V11.4921C52.5685 11.3052 52.4083 11.0916 52.4083 9.54312V3.08218C52.4083 1.53369 52.5952 1.32011 53.8767 1.13322V0.919636ZM62.4735 5.83208H60.8716V1.4536H61.459C64.6094 1.4536 65.4103 2.54822 66.0244 4.87095H66.3447L66.0778 0.892938C64.8497 0.919636 63.4347 0.919636 62.2332 0.919636H56.7334V1.15992C58.0416 1.34681 58.2018 1.56039 58.2018 3.10888V9.56982C58.2018 11.1183 58.0149 11.3319 56.7334 11.5188V11.7324H62.34C63.6215 11.7324 65.0899 11.7324 66.4248 11.7591L66.6918 7.78105H66.3715C65.7307 10.0771 64.9298 11.1984 62.3667 11.1984H61.7527C61.0318 11.1984 60.8449 11.0916 60.8449 10.6377V6.47284H62.4468C63.3012 6.47284 63.8351 6.90001 63.9953 8.15482H64.2623V4.15011H63.9953C63.8618 5.40492 63.3279 5.83208 62.4735 5.83208ZM79.2933 3.08218V9.22274L73.7401 0.919636H70.2427V1.10652C70.5897 1.21332 70.8567 1.34681 71.3907 2.14775L71.4174 2.20114V9.56982C71.4174 11.1183 71.2305 11.3319 69.949 11.5188V11.7324H73.6333V11.4921C72.3251 11.3052 72.1382 11.0916 72.1382 9.54312V3.24237L77.7982 11.7324H80.0142V3.08218C80.0142 1.53369 80.2011 1.32011 81.4826 1.13322V0.919636H77.7982V1.15992C79.1064 1.32011 79.2933 1.56039 79.2933 3.08218Z" fill="#1C1E26"/>
</g>
<defs>
<clipPath id="clip0_491_349">
<rect width="129.966" height="29.1276" fill="white" transform="translate(0 0.519165)"/>
</clipPath>
</defs>
</svg>
