<svg xmlns="http://www.w3.org/2000/svg" width="940" height="132" viewBox="0 0 940 132"><path d="M0 15c38.41-1.66 80.29-4.55 118-4-.3 9.74 1.03 20.89 1 33-7.92-6.04-9.27-11.43-14.26-18.75-5-7.32-20.69-2.33-29.74-4.25-.07 11.69.47 23.91.79 35.23C76.1 67.55 77.36 76.36 78 88c.64 11.64-.22 23 3 35 3.66-1.92 5.16.91 9 1-4.46 6.95-18.72 4-27 4-8.28 0-23.37 3.31-26-5 4.92 2.07 6.42-2.03 11 0-1.41-35.45-4.17-66.16-4-100-10.87.69-15.96 1.37-27 1-.64 4.54-3.3 9.73-6.59 13.75C7.12 41.78 6.98 50.52 0 50v82h882v-1c-23.32-1.34-37-26.73-38.19-46.25C842.62 65.22 837.6 36.59 837 15c-3.29-1.46-7.44-.44-7-6 17.64 1.84 30.39-1.06 46 0-.1 4.71-3.84 3.42-7 5 2.63 15.12.4 31.54 2.35 45.69 1.95 14.16-.48 23.71 7.4 34.56 7.88 10.85 24.34 10.66 32.17-.33 7.82-11 7.44-18.73 8.79-33.21 1.34-14.49-.03-32.37 1.29-47.71-3.8-.63-5.09-1.3-9-3 6.13-3.78 21.45-5.01 27 1-1.92.92-4.19 1.7-7 2 .31 11.27-2.79 25.09-2.92 38.08-.14 12.98.13 25.31-1.68 35.67-1.81 10.37-4.95 17.24-9.11 26.55-4.16 9.31-15.14 16.42-23.29 18.7h45V0H0v15M153 1c.31 7.34 5.28 13.19 7.12 19.9 1.83 6.71 6.11 12.33 8.01 19.02 1.9 6.69 6.36 12.85 8.58 19.38 2.23 6.54 5.6 12.37 8 19 2.41 6.64 5.69 11.98 8 19 2.3 7.01 7.9 11.27 12.29 17.7h-42c-1.82-4.12 3.15-5.76 7-6-1.79-10.29-6.58-19.01-9-30-10.04 1.48-24.08.78-35 1-3.04 8.91-6.45 20.52-12 29 2.41 1.55 13.59 5.25 4.99 6.99-8.6 1.74-15.14-2.43-22.99.01 3.13-7.68 8.82-3.31 10.71-12.3 1.89-9 7.26-17.32 10.42-25.62s7.32-17.84 10.26-25.83c2.94-8 3.91-7 6.32-12.55 2.42-5.56 1.94-9.1 4.87-13.47 2.92-4.37 2.04-8.54 4.81-12.98C146.17 8.8 145.14 1.4 153 1m522 1c.16 9.05 7.61 15.79 9.71 24.3 2.11 8.52 7.13 15.83 10 24 2.88 8.17 6.65 15.52 10 24 3.35 8.49 6.51 14.8 9.87 23.47 3.36 8.67 7.19 15.47 14.42 21.23-6.95 1.43-15.71 1.49-23 1-7.29-.49-17.01 2.55-22-3 3.51-2.17 5.6-3 9-4-2.18-10.93-7.97-19.57-9-30-10.63.13-23.68-1.01-36 0-2.39 10.76-10.63 20.31-11 33 2.82-.81 6.18.81 7 4h-27c-.5-4.2 4-4.66 7-4 6.81-20.29 16.07-37.7 23.58-56.77C655.08 40.16 664.3 21.02 670 1c1.97.77 3.18.03 5 1M567 77c-2.34 12.26 1.45 25.67 0 39 3.93-.27 8.64 2.89 13 2 2.72 2.41-1.99 2.78 0 5-20.01.33-42.99-.45-62-1 1.23-8.96 9.94-6.1 17-9-1.29-32.05-.63-64.99 0-97-6.28-3.58-18.29-1.23-18-10 27.61 3.73 71.32.71 93.25 4.19 21.94 3.48 40.02 20.41 30.4 44.51C631.03 78.8 593.82 80.1 567 77M296 41c-2.37-9.53-10.93-14.65-13-23-8.55.81-19.57 1.9-28 0 .67 36.04 3.68 64.26 4 101 4.33.19 9.35-.51 11 4-8.23-.63-20.3 1.01-29 0s-21.38 3.6-24-3c4.4.73 5.87-1.3 11 0-.86-38.96-3.9-61.64-4-100-8.74 2.02-17.89-1.48-27 1-.64 4.54-3.3 9.73-6.59 13.75-3.29 4.03-3.43 12.77-10.41 12.25 1.66-11.09 1.66-23.94 0-35 8.31-3.6 16.84-.53 25.23-1.79 8.39-1.25 16.85-.37 25.99-.43 9.14-.06 16.63-1.9 25.86-.85C266.3 9.98 273.8 6.71 283 7c9.2.29 17.81.41 15.07 10.07-2.73 9.66 5.81 19.24-2.07 23.93M826 9c-1.72 12 .86 20.48 1 33-7.68-4.85-13.11-14.58-16-22-9.02-2.08-20.53-2.01-30-1 .35 37.66 4.26 66.26 4 103 4 1.04 7.94 1.95 12 3-2.35 4.2-11.08 1.82-17 2-5.92.18-15.06.6-21 0-5.94-.6-16.07 3.34-17-3 3.9 1.22 6.77-2 11 0-.49-38.11-3.88-68.03-4-103-8.83.81-18.09 1.47-27 0-1.42 6.18-4.44 10.65-7.71 15.3-3.27 4.65-3.59 11.49-10.29 12.7 1.69-12.18.32-25.05 0-37 39.27-1.75 81.42-4.29 122-3m-414 3c-1.09 3.31-5.77 4.31-8 4-1.93 17.22-.22 46.13-3.4 63.75-3.17 17.61-2.69 31.03-17.35 43.84-14.66 12.8-35.96 7.98-49-4.84-13.05-12.82-15.85-27.08-17.05-45C316 55.83 313.04 35.47 312 17c-2.48.3-7.09-.55-7-5 17.72 1.74 29.13-1.4 45 0-.1 4.71-3.84 3.42-7 5 1.33 16.91 3.41 41.26 3.98 56.03.57 14.76 4.2 29.81 21.27 29.17 17.07-.64 22.61-16.18 22.88-31.12.28-14.93 3.12-38.21 2.87-55.08-3.8-.63-5.09-1.3-9-3 4.9-5.27 19.25-1.95 27-1m53 30c-1.58.3-2.67 2.15-5 3 1.59 17.19 1 27.63-4.58 39.77C449.85 96.91 425.4 93.88 435 79c1.72.88 3.2.75 5 0 1.27 2.45 2.18 3.79 1 7 11.19-3.05 3.98-20.97 7-32 3.02-11.03-4.13-7.26-5-14 6.87 1.25 17.54-2.56 22 2m39 48c-5.28-1.53-11.7-1.51-17 0 6.22-4.32-2.36-9.62-1-15-4.97 2.04-11.01-.04-16 2 2.48 4.56-7.79 10.95 0 12-.94 3.88-8.94 1.72-11 1 7.24-5.85 7.71-14.97 11.39-22.75 3.68-7.79 7.97-16.16 9.61-24.25 4.17 3.1 6.39 10.06 8.71 15.3 2.32 5.24 3.41 10.54 6.42 15.62S497.92 86.58 504 90Z" fill="none" fill-opacity="0" stroke="#000" stroke-opacity=".02" stroke-width=".3"/><path d="M153 1c-7.86.4-6.83 7.8-9.61 12.25-2.77 4.44-1.89 8.61-4.81 12.98-2.93 4.37-2.45 7.91-4.87 13.47-2.41 5.55-3.38 4.55-6.32 12.55-2.94 7.99-7.1 17.53-10.26 25.83-3.16 8.3-8.53 16.62-10.42 25.62-1.89 8.99-7.58 4.62-10.71 12.3 7.85-2.44 14.39 1.73 22.99-.01 8.6-1.74-2.58-5.44-4.99-6.99 5.55-8.48 8.96-20.09 12-29 10.92-.22 24.96.48 35-1 2.42 10.99 7.21 19.71 9 30-3.85.24-8.82 1.88-7 6h42c-4.39-6.43-9.99-10.69-12.29-17.7-2.31-7.02-5.59-12.36-8-19-2.4-6.63-5.77-12.46-8-19-2.22-6.53-6.68-12.69-8.58-19.38-1.9-6.69-6.18-12.31-8.01-19.02-1.84-6.71-6.81-12.56-7.12-19.9m-7 34c2.58 12.9 7.52 22.11 11 35-8.61-.05-17.28-2.19-25 1 4.06-13.61 8.4-23.88 14-36ZM675 2c-1.82-.97-3.03-.23-5-1-5.7 20.02-14.92 39.16-22.42 58.23C640.07 78.3 630.81 95.71 624 116c-3-.66-7.5-.2-7 4h27c-.82-3.19-4.18-4.81-7-4 .37-12.69 8.61-22.24 11-33 12.32-1.01 25.37.13 36 0 1.03 10.43 6.82 19.07 9 30-3.4 1-5.49 1.83-9 4 4.99 5.55 14.71 2.51 22 3 7.29.49 16.05.43 23-1-7.23-5.76-11.06-12.56-14.42-21.23-3.36-8.67-6.52-14.98-9.87-23.47-3.35-8.48-7.12-15.83-10-24-2.87-8.17-7.89-15.48-10-24-2.1-8.51-9.55-15.25-9.71-24.3m-6 36c1.43 13.19 6.53 22.7 11 35-9.74-1.91-16.96.89-26 0 2.45-7.08 3.62-12.6 6.39-18.75 2.78-6.16 3.88-13.02 8.61-16.25Z" fill="none" fill-opacity="0" stroke="#000" stroke-opacity=".95" stroke-width=".3"/><path d="M567 77c26.82 3.1 64.03 1.8 73.65-22.3 9.62-24.1-8.46-41.03-30.4-44.51C588.32 6.71 544.61 9.73 517 6c-.29 8.77 11.72 6.42 18 10-.63 32.01-1.29 64.95 0 97-7.06 2.9-15.77.04-17 9 19.01.55 41.99 1.33 62 1-1.99-2.22 2.72-2.59 0-5-4.36.89-9.07-2.27-13-2 1.45-13.33-2.34-26.74 0-39m0-11c.79-14.67 1.17-32.22 1-49 15.78-5.84 40.48 7.93 38 26-2.49 18.08-20.54 25.73-39 23ZM296 41c7.88-4.69-.66-14.27 2.07-23.93C300.81 7.41 292.2 7.29 283 7c-9.2-.29-16.7 2.98-25.92 1.93-9.23-1.05-16.72.79-25.86.85-9.14.06-17.6-.82-25.99.43C196.84 11.47 188.31 8.4 180 12c1.66 11.06 1.66 23.91 0 35 6.98.52 7.12-8.22 10.41-12.25 3.29-4.02 5.95-9.21 6.59-13.75 9.11-2.48 18.26 1.02 27-1 .1 38.36 3.14 61.04 4 100-5.13-1.3-6.6.73-11 0 2.62 6.6 15.3 1.99 24 3s20.77-.63 29 0c-1.65-4.51-6.67-3.81-11-4-.32-36.74-3.33-64.96-4-101 8.43 1.9 19.45.81 28 0 2.07 8.35 10.63 13.47 13 23ZM882 131c3.86.22 8.97-.98 12 1h1c8.15-2.28 19.13-9.39 23.29-18.7 4.16-9.31 7.3-16.18 9.11-26.55 1.81-10.36 1.54-22.69 1.68-35.67.13-12.99 3.23-26.81 2.92-38.08 2.81-.3 5.08-1.08 7-2-5.55-6.01-20.87-4.78-27-1 3.91 1.7 5.2 2.37 9 3-1.32 15.34.05 33.22-1.29 47.71-1.35 14.48-.97 22.21-8.79 33.21-7.83 10.99-24.29 11.18-32.17.33-7.88-10.85-5.45-20.4-7.4-34.56-1.95-14.15.28-30.57-2.35-45.69 3.16-1.58 6.9-.29 7-5-15.61-1.06-28.36 1.84-46 0-.44 5.56 3.71 4.54 7 6 .6 21.59 5.62 50.22 6.81 69.75C845 104.27 858.68 129.66 882 131ZM826 9c-40.58-1.29-82.73 1.25-122 3 .32 11.95 1.69 24.82 0 37 6.7-1.21 7.02-8.05 10.29-12.7 3.27-4.65 6.29-9.12 7.71-15.3 8.91 1.47 18.17.81 27 0 .12 34.97 3.51 64.89 4 103-4.23-2-7.1 1.22-11 0 .93 6.34 11.06 2.4 17 3 5.94.6 15.08.18 21 0s14.65 2.2 17-2c-4.06-1.05-8-1.96-12-3 .26-36.74-3.65-65.34-4-103 9.47-1.01 20.98-1.08 30 1 2.89 7.42 8.32 17.15 16 22-.14-12.52-2.72-21-1-33Z" fill="none" fill-opacity="0" stroke="#000" stroke-opacity=".97" stroke-width=".3"/><path d="M0 15v1c1.81 5.42 1 12.82 1 19 0 4.5.82 10.33-1 14v1c6.98.52 7.12-8.22 10.41-12.25C13.7 33.73 16.36 28.54 17 24c11.04.37 16.13-.31 27-1-.17 33.84 2.59 64.55 4 100-4.58-2.03-6.08 2.07-11 0 2.63 8.31 17.72 5 26 5 8.28 0 22.54 2.95 27-4-3.84-.09-5.34-2.92-9-1-3.22-12-2.36-23.36-3-35-.64-11.64-1.9-20.45-2.21-31.77-.32-11.32-.86-23.54-.79-35.23 9.05 1.92 24.74-3.07 29.74 4.25 4.99 7.32 6.34 12.71 14.26 18.75.03-12.11-1.3-23.26-1-33-37.71-.55-79.59 2.34-118 4Z" fill="none" fill-opacity="0" stroke="#000" stroke-opacity=".96" stroke-width=".3"/><path d="M412 12c-7.75-.95-22.1-4.27-27 1 3.91 1.7 5.2 2.37 9 3 .25 16.87-2.59 40.15-2.87 55.08-.27 14.94-5.81 30.48-22.88 31.12-17.07.64-20.7-14.41-21.27-29.17-.57-14.77-2.65-39.12-3.98-56.03 3.16-1.58 6.9-.29 7-5-15.87-1.4-27.28 1.74-45 0-.09 4.45 4.52 5.3 7 5 1.04 18.47 4 38.83 5.2 56.75 1.2 17.92 4 32.18 17.05 45 13.04 12.82 34.34 17.64 49 4.84 14.66-12.81 14.18-26.23 17.35-43.84 3.18-17.62 1.47-46.53 3.4-63.75 2.23.31 6.91-.69 8-4Z" fill="none" fill-opacity="0" stroke="#000" stroke-opacity=".97" stroke-width=".3"/><path d="M567 66c18.46 2.73 36.51-4.92 39-23 2.48-18.07-22.22-31.84-38-26 .17 16.78-.21 34.33-1 49Z" fill="none" fill-opacity="0" stroke="#000" stroke-opacity=".03" stroke-width=".3"/><path d="M0 35h1c0-6.18.81-13.58-1-19v19Z" fill="none" fill-opacity="0" stroke="#000" stroke-opacity=".48" stroke-width=".3"/><path d="M0 49c1.82-3.67 1-9.5 1-14H0v14Z" fill="none" fill-opacity="0" stroke="#000" stroke-opacity=".62" stroke-width=".3"/><path d="M146 35c-5.6 12.12-9.94 22.39-14 36 7.72-3.19 16.39-1.05 25-1-3.48-12.89-8.42-22.1-11-35Z" fill="none" fill-opacity="0" stroke="#000" stroke-opacity=".07" stroke-width=".3"/><path d="M669 38c-4.73 3.23-5.83 10.09-8.61 16.25-2.77 6.15-3.94 11.67-6.39 18.75 9.04.89 16.26-1.91 26 0-4.47-12.3-9.57-21.81-11-35Z" fill="none" fill-opacity="0" stroke="#000" stroke-opacity=".06" stroke-width=".3"/><path d="M465 42c-4.46-4.56-15.13-.75-22-2 .87 6.74 8.02 2.97 5 14-3.02 11.03 4.19 28.95-7 32 1.18-3.21.27-4.55-1-7-1.8.75-3.28.88-5 0-9.6 14.88 14.85 17.91 20.42 5.77C461 72.63 461.59 62.19 460 45c2.33-.85 3.42-2.7 5-3Z" fill="none" fill-opacity="0" stroke="#000" stroke-opacity=".93" stroke-width=".3"/><path d="M504 90c-6.08-3.42-5.86-11-8.87-16.08-3.01-5.08-4.1-10.38-6.42-15.62-2.32-5.24-4.54-12.2-8.71-15.3-1.64 8.09-5.93 16.46-9.61 24.25-3.68 7.78-4.15 16.9-11.39 22.75 2.06.72 10.06 2.88 11-1-7.79-1.05 2.48-7.44 0-12 4.99-2.04 11.03.04 16-2-1.36 5.38 7.22 10.68 1 15 5.3-1.51 11.72-1.53 17 0m-25-32c2.72 4.52 3.43 8.31 5 14h-11c3.11-5.38 4-8.92 6-14Z" fill="none" fill-opacity="0" stroke="#000" stroke-opacity=".9" stroke-width=".3"/><path d="M479 58c-2 5.08-2.89 8.62-6 14h11c-1.57-5.69-2.28-9.48-5-14Z" fill="none" fill-opacity="0" stroke="#000" stroke-opacity=".18" stroke-width=".3"/><path d="M882 132h12c-3.03-1.98-8.14-.78-12-1v1Z" fill="none" fill-opacity="0" stroke="#000" stroke-opacity=".49" stroke-width=".3"/><path d="M153 1c-7.86.4-6.83 7.8-9.61 12.25-2.77 4.44-1.89 8.61-4.81 12.98-2.93 4.37-2.45 7.91-4.87 13.47-2.41 5.55-3.38 4.55-6.32 12.55-2.94 7.99-7.1 17.53-10.26 25.83-3.16 8.3-8.53 16.62-10.42 25.62-1.89 8.99-7.58 4.62-10.71 12.3 7.85-2.44 14.39 1.73 22.99-.01 8.6-1.74-2.58-5.44-4.99-6.99 5.55-8.48 8.96-20.09 12-29 10.92-.22 24.96.48 35-1 2.42 10.99 7.21 19.71 9 30-3.85.24-8.82 1.88-7 6h42c-4.39-6.43-9.99-10.69-12.29-17.7-2.31-7.02-5.59-12.36-8-19-2.4-6.63-5.77-12.46-8-19-2.22-6.53-6.68-12.69-8.58-19.38-1.9-6.69-6.18-12.31-8.01-19.02-1.84-6.71-6.81-12.56-7.12-19.9m-7 34c2.58 12.9 7.52 22.11 11 35-8.61-.05-17.28-2.19-25 1 4.06-13.61 8.4-23.88 14-36ZM675 2c-1.82-.97-3.03-.23-5-1-5.7 20.02-14.92 39.16-22.42 58.23C640.07 78.3 630.81 95.71 624 116c-3-.66-7.5-.2-7 4h27c-.82-3.19-4.18-4.81-7-4 .37-12.69 8.61-22.24 11-33 12.32-1.01 25.37.13 36 0 1.03 10.43 6.82 19.07 9 30-3.4 1-5.49 1.83-9 4 4.99 5.55 14.71 2.51 22 3 7.29.49 16.05.43 23-1-7.23-5.76-11.06-12.56-14.42-21.23-3.36-8.67-6.52-14.98-9.87-23.47-3.35-8.48-7.12-15.83-10-24-2.87-8.17-7.89-15.48-10-24-2.1-8.51-9.55-15.25-9.71-24.3m-6 36c1.43 13.19 6.53 22.7 11 35-9.74-1.91-16.96.89-26 0 2.45-7.08 3.62-12.6 6.39-18.75 2.78-6.16 3.88-13.02 8.61-16.25Z" fill-opacity=".95" stroke="None"/><path d="M567 77c26.82 3.1 64.03 1.8 73.65-22.3 9.62-24.1-8.46-41.03-30.4-44.51C588.32 6.71 544.61 9.73 517 6c-.29 8.77 11.72 6.42 18 10-.63 32.01-1.29 64.95 0 97-7.06 2.9-15.77.04-17 9 19.01.55 41.99 1.33 62 1-1.99-2.22 2.72-2.59 0-5-4.36.89-9.07-2.27-13-2 1.45-13.33-2.34-26.74 0-39m0-11c.79-14.67 1.17-32.22 1-49 15.78-5.84 40.48 7.93 38 26-2.49 18.08-20.54 25.73-39 23ZM296 41c7.88-4.69-.66-14.27 2.07-23.93C300.81 7.41 292.2 7.29 283 7c-9.2-.29-16.7 2.98-25.92 1.93-9.23-1.05-16.72.79-25.86.85-9.14.06-17.6-.82-25.99.43C196.84 11.47 188.31 8.4 180 12c1.66 11.06 1.66 23.91 0 35 6.98.52 7.12-8.22 10.41-12.25 3.29-4.02 5.95-9.21 6.59-13.75 9.11-2.48 18.26 1.02 27-1 .1 38.36 3.14 61.04 4 100-5.13-1.3-6.6.73-11 0 2.62 6.6 15.3 1.99 24 3s20.77-.63 29 0c-1.65-4.51-6.67-3.81-11-4-.32-36.74-3.33-64.96-4-101 8.43 1.9 19.45.81 28 0 2.07 8.35 10.63 13.47 13 23ZM882 131c3.86.22 8.97-.98 12 1h1c8.15-2.28 19.13-9.39 23.29-18.7 4.16-9.31 7.3-16.18 9.11-26.55 1.81-10.36 1.54-22.69 1.68-35.67.13-12.99 3.23-26.81 2.92-38.08 2.81-.3 5.08-1.08 7-2-5.55-6.01-20.87-4.78-27-1 3.91 1.7 5.2 2.37 9 3-1.32 15.34.05 33.22-1.29 47.71-1.35 14.48-.97 22.21-8.79 33.21-7.83 10.99-24.29 11.18-32.17.33-7.88-10.85-5.45-20.4-7.4-34.56-1.95-14.15.28-30.57-2.35-45.69 3.16-1.58 6.9-.29 7-5-15.61-1.06-28.36 1.84-46 0-.44 5.56 3.71 4.54 7 6 .6 21.59 5.62 50.22 6.81 69.75C845 104.27 858.68 129.66 882 131ZM826 9c-40.58-1.29-82.73 1.25-122 3 .32 11.95 1.69 24.82 0 37 6.7-1.21 7.02-8.05 10.29-12.7 3.27-4.65 6.29-9.12 7.71-15.3 8.91 1.47 18.17.81 27 0 .12 34.97 3.51 64.89 4 103-4.23-2-7.1 1.22-11 0 .93 6.34 11.06 2.4 17 3 5.94.6 15.08.18 21 0s14.65 2.2 17-2c-4.06-1.05-8-1.96-12-3 .26-36.74-3.65-65.34-4-103 9.47-1.01 20.98-1.08 30 1 2.89 7.42 8.32 17.15 16 22-.14-12.52-2.72-21-1-33Z" fill-opacity=".97" stroke="None"/><path d="M0 15v1c1.81 5.42 1 12.82 1 19 0 4.5.82 10.33-1 14v1c6.98.52 7.12-8.22 10.41-12.25C13.7 33.73 16.36 28.54 17 24c11.04.37 16.13-.31 27-1-.17 33.84 2.59 64.55 4 100-4.58-2.03-6.08 2.07-11 0 2.63 8.31 17.72 5 26 5 8.28 0 22.54 2.95 27-4-3.84-.09-5.34-2.92-9-1-3.22-12-2.36-23.36-3-35-.64-11.64-1.9-20.45-2.21-31.77-.32-11.32-.86-23.54-.79-35.23 9.05 1.92 24.74-3.07 29.74 4.25 4.99 7.32 6.34 12.71 14.26 18.75.03-12.11-1.3-23.26-1-33-37.71-.55-79.59 2.34-118 4Z" fill-opacity=".96" stroke="None"/><path d="M412 12c-7.75-.95-22.1-4.27-27 1 3.91 1.7 5.2 2.37 9 3 .25 16.87-2.59 40.15-2.87 55.08-.27 14.94-5.81 30.48-22.88 31.12-17.07.64-20.7-14.41-21.27-29.17-.57-14.77-2.65-39.12-3.98-56.03 3.16-1.58 6.9-.29 7-5-15.87-1.4-27.28 1.74-45 0-.09 4.45 4.52 5.3 7 5 1.04 18.47 4 38.83 5.2 56.75 1.2 17.92 4 32.18 17.05 45 13.04 12.82 34.34 17.64 49 4.84 14.66-12.81 14.18-26.23 17.35-43.84 3.18-17.62 1.47-46.53 3.4-63.75 2.23.31 6.91-.69 8-4Z" fill-opacity=".97" stroke="None"/><path d="M567 66c18.46 2.73 36.51-4.92 39-23 2.48-18.07-22.22-31.84-38-26 .17 16.78-.21 34.33-1 49Z" fill-opacity=".03" stroke="None"/><path d="M0 35h1c0-6.18.81-13.58-1-19v19Z" fill-opacity=".48" stroke="None"/><path d="M0 49c1.82-3.67 1-9.5 1-14H0v14Z" fill-opacity=".62" stroke="None"/><path d="M146 35c-5.6 12.12-9.94 22.39-14 36 7.72-3.19 16.39-1.05 25-1-3.48-12.89-8.42-22.1-11-35Z" fill-opacity=".07" stroke="None"/><path d="M669 38c-4.73 3.23-5.83 10.09-8.61 16.25-2.77 6.15-3.94 11.67-6.39 18.75 9.04.89 16.26-1.91 26 0-4.47-12.3-9.57-21.81-11-35Z" fill-opacity=".06" stroke="None"/><path d="M465 42c-4.46-4.56-15.13-.75-22-2 .87 6.74 8.02 2.97 5 14-3.02 11.03 4.19 28.95-7 32 1.18-3.21.27-4.55-1-7-1.8.75-3.28.88-5 0-9.6 14.88 14.85 17.91 20.42 5.77C461 72.63 461.59 62.19 460 45c2.33-.85 3.42-2.7 5-3Z" fill-opacity=".93" stroke="None"/><path d="M504 90c-6.08-3.42-5.86-11-8.87-16.08-3.01-5.08-4.1-10.38-6.42-15.62-2.32-5.24-4.54-12.2-8.71-15.3-1.64 8.09-5.93 16.46-9.61 24.25-3.68 7.78-4.15 16.9-11.39 22.75 2.06.72 10.06 2.88 11-1-7.79-1.05 2.48-7.44 0-12 4.99-2.04 11.03.04 16-2-1.36 5.38 7.22 10.68 1 15 5.3-1.51 11.72-1.53 17 0m-25-32c2.72 4.52 3.43 8.31 5 14h-11c3.11-5.38 4-8.92 6-14Z" fill-opacity=".9" stroke="None"/><path d="M882 132h12c-3.03-1.98-8.14-.78-12-1v1Z" fill-opacity=".49" stroke="None"/></svg>