<svg enable-background="new 0 0 504.3 504.3" width="142" height="142" viewBox="0 0 504.3 504.3" xmlns="http://www.w3.org/2000/svg"><path d="m0 252c0-139.1 113-252.5 253.2-252 138.8.5 251.3 113.3 251.1 252.6-.2 139.1-113.2 251.8-252.3 251.7-139.3-.1-252.1-113.1-252-252.3z" fill="#1e6c42"></path><path d="m499.4 252.1c.1 136.5-110.7 247.3-247.2 247.3s-247.2-110.8-247.2-247.3 110.9-247.3 247.3-247.1c136.5.1 247 110.6 247.1 247.1z" class="do-not-fill" fill="#fefefe"></path><path d="m495.2 252.7c.2 133-107.9 243-243.2 242.9-133.2 0-243-107.5-243-243.2 0-135.9 110.2-243.3 243.4-243.1 135.5.2 243.3 110.6 242.8 243.4z" fill="#1e6b42"></path><path d="m87.6 252.1c0-90.9 73.7-164.5 164.5-164.5 90.5 0 164.7 73.1 164.6 164.8-.1 91.6-74.4 164.4-164.7 164.4-90.9-.1-164.5-73.8-164.4-164.7z" class="do-not-fill" fill="#fefefe"></path><path d="m310.2 72.5c3.7-9.4 7.3-18.4 11.1-27.8 5.1 2.3 10.5 3.5 14.9 6.6 4.8 3.3 7.2 7.9 6.2 13.8-1.1 6.3-4.3 10.9-10.7 12.6-2.6.7-5.3.7-7.9-.1-4.6-1.3-8.9-3.2-13.6-5.1z" class="do-not-fill" fill="#fefefe"></path><path d="m201 39.6c7.1-1.3 13.8-2.6 20.5-3.8 1 1.8.8 3.6 1.4 5.4-4.8.9-9.4 1.8-14.1 2.8-.6 2.1.7 3.8.5 6.1 4.9-.9 9.5-1.7 14.1-2.5 1.1 1.5.5 3.5 1.6 5.2-4.9 1.3-9.6 1.9-14.3 2.9.1 2.2.6 4.2 1.1 6.5 4.7-.9 9.4-1.7 14.3-2.6.4 1.8.7 3.5 1.2 5.5-7 1.3-13.8 2.6-20.9 4-1.7-9.9-3.5-19.5-5.4-29.5z" class="do-not-fill" fill="#fefefe"></path><path d="m191.5 54.6c.6 1.8 1.2 3.3 1.8 5.2-4.5 1.7-8.9 3.3-13.4 4.9.4 2.2 1.4 4 2.1 6.2 4.6-1.6 9.2-3.2 13.7-4.8.9 1.7 1.4 3.3 2 5.2-6.5 2.4-13.1 4.7-19.8 7.1-3.4-9.4-6.7-18.6-10.1-28.2 6.6-2.4 13.2-4.7 19.8-7.1.8 1.8 1.5 3.4 1.9 5.3-4.6 1.7-9.1 3.3-13.7 5 .7 1.9 1.3 3.6 2 5.6 4.7-.9 8.9-3.1 13.7-4.4z" class="do-not-fill" fill="#fefefe"></path><path d="m263.8 64.3c1.1-9.9 2.2-19.5 3.4-29.5 7.1.4 13.9 1.6 20.8 2.2.5 2.1-.3 3.7-.4 5.7-4.9-.6-9.6-1.1-14.4-1.6-.8 1.9-.4 3.9-.9 6 4.7.6 9.3 1.1 14.1 1.7.2 1.9.1 3.6-.5 5.6-4.7-.5-9.3-1-14.1-1.6-.3 2.1-.5 4.2-.8 6.6 4.9.6 9.7 1.2 14.6 1.8-.2 1.8-.4 3.5-.5 5.4-7.3-.4-14.2-1.5-21.3-2.3z" class="do-not-fill" fill="#fefefe"></path><path d="m151.1 64.8c3.9 7.1 7.7 14 11.6 21.2-1.8 1-3.6 2-5.6 3.2-3.9-7-7.7-13.9-11.6-21-2.9.7-5 2.8-7.8 3.8-.9-1.6-1.7-3.1-2.7-4.8 7-3.9 13.9-7.6 20.8-11.4 1.2 1.6 2 3.1 2.8 4.9-2.5 1.3-4.9 2.6-7.5 4.1z" class="do-not-fill" fill="#fdfefe"></path><path d="m235.1 34.8c2.2-.1 4.1-.3 6.4-.4.3 8 .6 15.9 1 24 4.2.3 8.3-.1 12.3-.1.7 1.9.3 3.6.4 5.5-6.3.3-12.5.5-19 .8-.4-10-.7-19.8-1.1-29.8z" class="do-not-fill" fill="#fdfefd"></path><g class="do-not-fill" fill="#fdfdfd"><path class="do-not-fill" d="m157.2 423.5c1.2.7 2.4 1.4 3.9 2.3-4.6 4.3-9.1 8.4-13.7 12.6-1.4-.8-2.6-1.5-3.8-2.3.7-3.4 2.1-6.6 2.6-10.7-3 2.8-5.4 5-8 7.4-1.3-.8-2.5-1.5-3.8-2.3 1.5-5.9 3-11.8 4.5-17.7 1.7.3 2.7 1.4 4.1 2-.7 3.6-1.9 6.8-3 10.3 2.3.4 3-1.9 4.4-2.9 1.5-1.1 2.7-2.5 4-3.8 1.2.2 1.9.9 3 1.6-.7 3.4-1.7 6.7-2.9 10.4 3.9-1.1 5.5-4.7 8.7-6.9z"></path><path class="do-not-fill" d="m126.9 402.9c-1.6 3.6-3.1 7-4.5 10.4.1.1.2.2.4.4 3-2.2 6-4.4 9.2-6.7 1.2 1 2.4 1.9 3.7 3.1-5.3 3.6-10.3 7-15.3 10.3-1.4-.9-2.5-1.7-3.5-2.9 1.3-3 2.6-6 4.1-9.3-2.2 0-3.2 1.6-4.6 2.5s-2.7 1.9-4.1 2.9c-1.5-.4-2.2-1.7-3.7-2.6 2.4-5.8 4.7-11.4 7.1-17.2 1.4 1 2.6 1.8 3.7 3.1-1.5 3.2-2.9 6.4-4.4 9.6 3.6-1.2 6.3-3.8 9.6-5.6.6.6 1.3 1.2 2.3 2z"></path><path class="do-not-fill" d="m168.3 440.3c2.2-2.8 4.3-5.5 6.4-8.1 1.4-.1 2.2.5 3.3 1.1-.3 3.2-.7 6.3-1 9.5-.2.7-.7 1.5.7 1.3 2.1-2.8 4.2-5.6 6.4-8.4 1.5.6 2.8 1.2 4.4 1.8-3.9 4.8-7.8 9.5-11.5 14.1-1.7 0-2.9-.9-4.1-1.5-.3-2.9.9-5.6.6-8.4.1-.6.8-1.5-.7-1.4-2 2.5-4 4.9-6 7.4-1.3-.6-2.6-1.1-4.1-1.7.6-6 1.2-12 1.8-18.2 1.8.2 3 .9 4.5 1.7-.5 3.2-.9 6.3-1.4 9.5-.1.7-.7 1.6.7 1.3z"></path><path class="do-not-fill" d="m321.8 454c-2.1-5.6-4.1-10.9-6.2-16.6 3.4-1.6 6.9-3.1 10.7-3.6 3.2-.4 6.5 1.6 8.1 4.7 1.8 3.4 1.4 7.1-.9 9.8-1.3 1.4-2.8 2.4-4.6 3.1-2.3.8-4.5 1.6-7.1 2.6z"></path><path class="do-not-fill" d="m301.2 39.5c2.3.4 4.2.8 6.3 1.6-2.3 9.5-4.7 19-7 28.5-2.2.5-3.9-.9-6.4-.8 2.4-10 4.7-19.5 7.1-29.3z"></path><path class="do-not-fill" d="m358.3 61.2c2 1.2 3.7 2.1 5.6 3.2-4.9 8.7-9.8 17.2-14.8 25.9-1.9-1.1-3.6-2-5.6-3.2 4.9-8.6 9.8-17.1 14.8-25.9z"></path><path class="do-not-fill" d="m225.6 456.5c-.8.9-.7 1.8-.8 2.9 2.8 1.3 5.9.5 8.8 1.7-.1 1.1-.2 2.2-.3 3.5-4.5-.5-8.7-1-13.3-1.6.7-5.9 1.4-11.7 2.1-17.7 4.4.5 8.7 1 13.1 1.5.4 1.3.2 2.5-.3 3.8-2.9-.3-5.7-.6-8.5-.9-.5 1-.7 1.8-.4 2.9 2.7.4 5.4.7 8.1 1.1.7 1.2 0 2.3.2 3.7-3.1-.3-6-.6-8.7-.9z"></path></g><path class="do-not-fill" d="m283.1 444.9c4.6-.9 8.8-1.7 13-2.4.8 1.2.8 2.3.8 3.5-2.7 1-5.6 1-8.4 1.9-.4 1 0 1.8.6 2.8 2.6-.5 5.3-.9 8.2-1.4.7 1 .7 2.2 1 3.5-2.9 1-5.8.9-8.6 2 0 1.1.3 2 .6 3 3-.3 5.7-1.3 8.6-1.3.8 1.1.7 2.2.6 3.6-4.2.8-8.4 1.6-12.9 2.4-1.2-6-2.3-11.6-3.5-17.6z" fill="#fcfdfc"></path><path class="do-not-fill" d="m256.1 454.4c.5 1.4.3 2.4.2 3.6-2.8.7-5.7 0-8.6.4-.6.9-.5 1.9 0 3.2h8.5c.5 1.4.5 2.5 0 3.7-4.3.2-8.6.1-13.3-.1.3-5.8-.1-11.6.6-17.5 4.3-.7 8.6.3 12.8 0 .7 1.3.3 2.4.3 3.5-2.9.7-5.8-.2-8.6.2-.4 1.1-.5 1.9.1 3z" fill="#fcfdfc"></path><path class="do-not-fill" d="m371 408.9c.9 1 1.7 1.9 2 3.2-2.4 1.6-4.8 3.3-7.1 4.9.2 1.1.9 1.7 1.6 2.5 2.4-1.6 4.6-3.1 7.1-4.8 1 .8 1.6 1.9 2.2 3-2.3 1.6-4.6 3.2-7 4.9.7 2.3 2.7 3.9 3.6 6.2-1.1.8-2.2 1.5-3.4 2.3-3.3-4.9-6.6-9.7-10-14.7 3.7-2.5 7.4-5 11-7.5z" fill="#fdfdfd"></path><path class="do-not-fill" d="m205.5 446.1c-1.7-.5-3.2-.9-4.8-1.4.3-1.2.5-2.3.8-3.6 4.7 1.1 9.3 2.1 13.8 3.1.2 1.4-.5 2.3-.5 3.3-1.8.6-3.2-.7-5-.3-1 4.3-2 8.6-3.1 13.2-1.3-.4-2.7-.2-4.1-1.1.9-4.2 1.8-8.6 2.9-13.2z" fill="#fcfcfc"></path><path class="do-not-fill" d="m269.4 460.7c2.6.4 4.9-.6 7.6-.3.1 1 .5 2 .4 3.4-3.8 1-7.9.7-11.9 1.3-.6-6-1.3-11.7-1.5-17.6 1.4-.5 2.7-.5 4.2-.3.4 4.5.8 9 1.2 13.5z" fill="#fcfdfc"></path><path class="do-not-fill" d="m349.8 442.4c-1.2 1-2.3 1.4-3.8 2-2.6-5.2-5.1-10.4-7.6-15.6.9-1.3 2.4-1.6 3.8-2.3 2.5 5.4 5 10.6 7.6 15.9z" fill="#fbfcfb"></path><path class="do-not-fill" d="m391.2 415.2c-1.1 1.2-2.1 2-3.4 2.7-3.7-4.5-7.3-9.1-11-13.6.9-1.2 1.9-1.9 3.3-2.8 3.7 4.5 7.3 9 11.1 13.7z" fill="#fbfcfc"></path><path class="do-not-fill" d="m308.1 457.7c-1.6-5.6-3.1-11.2-4.7-16.8 1.4-.7 2.5-1 4.1-1.3 1.6 5.6 3.1 11.1 4.7 16.5-1.4 1.1-1.4 1.1-4.1 1.6z" fill="#fbfcfc"></path><path class="do-not-fill" d="m190.4 451c1.6.3 2.3 1.2 2.6 2.6-.1 1.6-1 2.5-2.7 2.9-1.5-.3-2.8-1.1-2.7-2.9.2-1.6 1.2-2.4 2.8-2.6z" fill="#eff3f1"></path><path class="do-not-fill" d="m361 435.2c0 1.3-1.2 2.6-2.5 2.6-1.4.1-2.7-1.3-2.7-2.8s1.4-2.7 2.8-2.6c1.4.2 2.4 1.4 2.4 2.8z" fill="#f5f7f6"></path><path d="m172.7 440.4c.1-.5.3-.9 1.1-1.1.2.9.1 1.7-.4 2.5-.2-.5 0-1.2-.7-1.4z" fill="#3a7955"></path><path d="m177.7 444.1c-.1.5-.4.9-1.1 1-.2-.8-.3-1.6.4-2.3.2.4-.1 1.1.7 1.3z" fill="#8caa98"></path><path d="m168.3 440.3c-.1.6-.5.9-1 1-.3-.8-.3-1.6.3-2.3.3.5 0 1.2.7 1.3z" fill="#9ab4a4"></path><path d="m286.2 143.4c.5-5.3 4-7 8.4-7.9 3.8-.7 6.1.6 7.5 4.3.3.9.5 1.8.7 2.9 1.8 1.2 4.1.6 6.2 1.3.7.2 1.4.2 2.1.4 3.7 1 5.1 3.2 4.4 7-.2 1.2-.7 2.4-1.2 3.7 2-.1 4-.2 6-.4 5-.4 8.4 2.2 11.1 6.1 1.8 2.6 2.6 5.6 2.8 8.8.3 4.7 0 9.3-1.3 13.7.4 1.6 1.4 2.4 2.5 3.2 3.4 2.4 5.3 5.7 5.9 9.8.5 3.7.5 7.4-.6 11.1-2.1 6.8-8.5 11.5-16.4 12.1-1.7.1-3.5 0-5.2 0-1.1 1-1 2.3-1.3 3.5-.4 1.5-.9 3-1.3 4.4-1.5 4.5-4.7 6.8-9.3 7.6-2.9.5-5.7.5-9 .6-.3 5-3.6 7.8-7.6 10-1.1.6-1.9 1.5-2.5 2.7-1.4 2.4-3.5 3.7-6.4 3.7-2.7 0-5.4-.3-8.4-.8.8 16.2 6.7 30.4 15.1 43.9-3.1 3.6-6.1 7.1-9.1 10.6-7.9 9.5-15 19.5-20.4 30.6-3.1 6.6-5.6 13.3-6.3 20.6 0 .4-.2.8-.3 1.2-.1.2-.3.3-.5.5-4.6-19-13.6-35.8-25.2-51.7.3-8.4-1.6-16.9-3.6-25.3-.6-2.6-1.4-5.2-2.7-7.5-1.6-2.8-3.9-4.3-7.3-4.3-5-.1-9.9.9-14.8 1.6-2.1.3-4.1.4-6.2.3-2.9-.2-4.6-1.7-5.1-4.5-.4-2.5-.3-4.9.3-7.4.3-1.2.7-2.4.3-3.7-.7-1.4-2.5-1.8-3-3.6-.1-2.3 2.3-3.6 3.3-5.7-1.6-1.3-4-.6-5.3-2.6-.8-2.9 2.3-4.6 2.5-7.2-.3-1.9-1.7-2.7-3.3-3.4-.9-.4-1.8-.6-2.6-1.1-2.4-1.5-3-4-1.6-6.4.4-.7.9-1.4 1.5-1.9 5.7-4.6 6.7-11.1 7.2-17.8-1-1-2.6-.5-3.7-1.6 1.2-.2 2.3-.4 3.6-.7-.5-3-.9-5.9-1.4-8.8-.4-2.4-.5-4.7-.1-7.1.2-1.5.1-2.9-.6-3.9-.8-.8-1.6-.6-2.3-.7-2.6-.2-3.4-1-3.5-3.7-.1-3.4.6-6.8 1.3-10.1.5-2.4 1.2-4.8 2.2-7.1 1-2.4 2.5-4 5-4.7 1.2-.4 2.4-.8 3.5-1.2 1-.3 2-.9 2.4-1.8 1.1-2.5 3.3-3.6 5.6-4.6 3.4-1.4 6.9-2.8 10.4-4 4.2-1.5 8.3-3.4 11.6-6.5 6.5-6 13.8-7.3 22.1-5.1 2 .5 4.1.8 6.1 1.2 3 .7 6 0 8.9-.6 3.8-.8 7.5-.6 11.3.8 6 1.9 11.6 4.4 17.6 7.2z" fill="#1e6c42"></path><path d="m388.5 192.4c3 4.7 5.3 9.5 7.4 14.4 8.1 18.8 12.5 38.5 12.2 59-.3 23.8-6.9 45.9-19.6 66-19.7 31.1-46.2 54-81.2 66.5-13.3 4.8-27 7.8-41 8.9-1.4.1-2.9 0-4.4 0-.4-.3-.1-.7.1-1 9.7-17.6 22.2-32.6 39.4-43.4 12.6-7.9 26-11.4 40.7-11.1.7-.6.5-1.3.3-2.2-6.2-.2-12.4.1-18.5.7-6.1.7-12.2 1.7-18.2 4.4 8.7-14.4 35.7-33.4 52.4-37.1.5-.6.5-1.3.1-2.2-4.4.1-8.6 1.8-13.2 1.9.2-1 1-1.4 1.5-1.9 5.7-6 11.2-12.2 17.2-17.9 7.3-7 13-10.8 21.3-14.7.4-.7.4-1.3 0-2.1-2.7-.1-4.9 2.1-8 1.7 6.6-7.9 12.9-15.6 18.5-23.8 0-.7-.4-1.1-.8-1.6-1.3.2-1.5 1.8-3 2 1-5.8 2.4-11.4 2.2-17.2-.9-.4-1.6-.2-2.3.3-3.1 15.5-8.5 30-20.7 41.9 1.3-6.7 3.1-12.7 2.4-19-2.1-.1-2.6 1.3-2.8 2.9-1 6.9-3.3 13.4-6.4 19.6-6.1 12.1-15 21.7-26.7 29.3 2.1-7.3 4.8-14.1 5.7-21.4-1.2 0-2 .5-2.8 1-7.7 22.8-22.3 40.4-41.5 55.4 1.7-8.3 3.8-15.9 4-23.7-.4-.1-.6-.2-.7-.2-.5.3-1.1.6-1.6.9-3.1 12.2-8.7 23.2-15.6 33.6-8 12.1-16.7 23.6-26.5 34.4-.6.6-1.1 1.2-1.7 1.8 0 0-.2 0-.5 0 0-1.9-.1-3.8 0-5.7 1.4-19.8 5.3-39.1 13.7-57.2 5.6-12.2 13.4-22.7 23.3-31.8 14.2-12.9 29.6-24.3 45.5-34.9 6.1-4.1 12-8.5 17.5-13.3 9.3-8 16-17.8 21-28.8 4.6-10.2 8.1-20.8 10.6-31.7.1-.6.3-1.2.5-1.8-.2-.2 0-.4.2-.9z" fill="#1e6c42"></path><path d="m132.7 281.9c-11.5-11.1-16.7-25.2-19.7-40.3-.7-.5-1.4-.7-2.3-.5-.5 5.8 1.3 11.3 1.9 17.1-1.3-.1-1.5-1.4-2.4-1.7-.8 0-.8.8-1.3 1.2 5.6 8.4 12 16 18.5 24.1-3.2.1-5.2-1.6-7.7-1.7-.7.6-.4 1.3-.2 2.1 10.9 4.5 19.3 12.4 27.4 20.8 4.5 4.6 8.8 9.3 13.5 14.3-4.9-1-9.4-2.1-13.9-2.5-.6.7-.4 1.3-.2 2.2 5.2 1.1 10.2 2.9 14.9 5.4 14 7.4 25.8 17.5 36.1 29.4.3.4.6.8.8 1.5-11.7-4-23.8-4.4-35.5-4.4-.8.5-.8.9-.7 1.3 0 .3.2.6.3 1 5.5 0 10.9.3 16.3 1.4 13.4 2.6 25 8.9 35.4 17.6 11.5 9.7 20.7 21.4 28 34.5.3.6.8 1.2.8 2.1-5.2.1-10.3-.6-15.4-1.4-21.4-3.4-41.5-10.4-59.7-22.1-28.5-18.3-49.9-42.9-62.6-74.5-6.6-16.4-9.3-33.6-8.4-51.3 1.1-22.5 7.2-43.7 18-63.5.3-.5.6-1.1 1-1.6.1-.2.3-.3.6-.5 1.1 4.1 2.1 8.2 3.2 12.2 2.3 8.2 5.3 16.1 8.8 23.8 6.5 14.4 16.9 25.7 29.6 34.7 8.8 6.3 17.8 12.4 26.7 18.7 10.9 7.8 21.1 16.4 30.7 25.6 10.1 9.7 17 21.5 22.1 34.4 5.4 13.5 8.5 27.6 10.1 42 .5 4.9.9 9.9 1.1 14.8-.8.1-1-.3-1.4-.7-12.3-13.5-23.1-28.1-32.6-43.7-4.4-7.4-7.7-15.3-10.1-23.6-.4-1.5-.8-2.8-2.8-3 .1 8.1 2.3 15.7 4 24-19.2-14.9-33.7-32.6-41.5-55.3-.7-.5-1.4-1-2.7-.8 1 7.2 3.5 13.9 5.8 21.2-9.3-5.9-16.7-13.1-22.5-22-5.8-8.8-9.5-18.5-11-28.8-.7-.8-1.4-1.3-2.4-1.2-.9 6.1.9 11.7 1.4 17.7z" fill="#1e6c42"></path><path d="m318.4 69.3c2.2-5.5 4.4-11 6.6-16.7 2.9.7 5.6 1.6 7.9 3.4 3.2 2.4 4.1 6.3 2.5 10.3-1.7 4.1-5 6.4-9.1 6-2.2-.2-5.2-1.3-7.9-3z" fill="#1e6c42"></path><path d="m320.9 439.4c2.7-1.2 5.2-2.7 7.9-.7 1.7 1.2 2.5 3.1 2.1 5.1-.6 3.5-3.6 4.1-6.5 4.9-1.1-3.1-2.3-6.1-3.5-9.3z" fill="#206d43"></path></svg>
