<svg width="131" height="17" viewBox="0 0 131 17" fill="none" xmlns="http://www.w3.org/2000/svg">
<path d="M78.7567 5.63115C78.5179 5.74576 78.3331 5.84991 78.0298 6.01463C77.8503 6.1105 77.4049 6.34539 77.3112 6.41729C77.1317 6.55587 77.1718 6.79293 77.1718 6.79293V13.6276H79.0408V5.76188C79.0408 5.76188 78.9981 5.51393 78.7567 5.63115ZM62.6474 7.58952C62.6474 7.58952 60.8075 7.38733 58.531 6.97421C57.0185 6.69967 56.8145 6.07651 56.8145 5.80982C56.8145 5.50347 56.7932 5.1518 57.2063 4.85329C58.1798 4.22708 59.0269 4.13383 59.9682 4.08023C61.4699 3.99525 62.6177 4.28809 63.6854 4.81843C63.8946 4.92258 63.9991 4.77834 63.9991 4.77834C63.9991 4.77834 64.5195 4.4027 64.8197 4.13339C64.9269 4.03752 64.9805 3.82966 64.8197 3.72856C63.4252 2.86006 62.0172 2.35369 60.3116 2.36153C56.4872 2.38332 55.1115 4.29376 55.2191 5.89785C55.3717 8.18392 57.3967 8.55695 59.2897 8.8524C60.6628 9.06593 62.9694 9.30038 62.9694 9.30038C63.4867 9.39625 63.6157 9.80413 63.6157 10.1292C63.6157 10.3584 63.5621 10.7899 63.2134 11.0243C63.2134 11.0243 62.1515 11.8745 60.3678 11.8745C58.9171 11.8745 57.7022 11.576 56.4472 10.7925C56.3909 10.7576 56.2114 10.6299 56.0933 10.7341C55.8144 10.9738 55.0902 11.6427 55.0902 11.6427C55.0902 11.6427 54.8836 11.8584 55.0958 12.0157C56.6807 13.1853 58.3484 13.6943 60.4188 13.6573C62.4007 13.6224 65.0045 12.5434 65.1949 10.5101C65.3801 8.53603 64.3957 7.73377 62.6526 7.58691" fill="#1C1E26"/>
<path d="M10.801 2.45479H0.128021V4.21357H4.58774L4.58513 13.601H6.4058L6.40318 4.21357H10.7906L10.801 2.45479Z" fill="#1C1E26"/>
<path d="M91.5353 8.72471V6.97726C91.5353 6.97726 91.5484 6.64607 91.7362 6.52144C92.3637 6.10309 93.5626 5.87387 94.5496 5.87387C95.4399 5.87387 96.4452 5.99371 97.3303 6.21988C97.6013 6.2896 98.1055 6.39593 98.1055 6.89707V7.79782L91.5353 8.72471ZM94.5496 4.16041C93.2436 4.18176 91.9428 4.50685 90.8433 5.11693C89.76 5.71917 89.8646 7.83486 89.8646 7.83486L89.875 11.091V10.7981C89.875 12.397 91.0739 12.9591 91.7362 13.1853C92.7742 13.5426 93.8737 13.6677 95.0294 13.6677C96.314 13.6677 97.4754 13.2947 98.5988 12.794C98.6738 12.7591 98.7518 12.6367 98.6738 12.5356L98.116 11.4666C98.0275 11.2858 97.899 11.3415 97.848 11.3655C97.0379 11.7093 96.2657 12.0183 94.9706 12.0183C93.8066 12.0183 93.4018 11.9813 92.3341 11.688C92.3341 11.688 91.5245 11.5442 91.5323 10.2891C91.5323 10.2865 99.4625 9.16485 99.4625 9.16485L99.7039 9.11691V8.6929V9.08728V6.88879C99.7039 5.46337 98.3818 4.93826 97.6602 4.67724C96.7272 4.33602 95.7105 4.14428 94.5439 4.16041M74.0852 10.7981C74.0852 11.2296 73.8276 11.3415 73.696 11.3895C72.9426 11.6692 72.2026 11.8959 71.2557 11.8959C70.5907 11.8959 69.7165 11.8266 68.5635 11.4588C68.4131 11.4108 68.0967 11.3254 68.0967 10.8591V6.79815C68.0967 6.50008 68.3674 6.37196 68.5016 6.32403C69.2472 6.06256 69.9632 5.89261 70.7999 5.89261C71.7973 5.89261 72.7443 6.07607 73.6481 6.36674C73.7954 6.41467 74.0878 6.59595 74.0878 6.95547V10.8007L74.0852 10.7981ZM75.6404 10.833V6.92889C75.6404 5.71917 74.8147 5.12739 74.3963 4.93304C73.3021 4.41882 72.1516 4.13382 70.7811 4.13382C69.6145 4.13382 68.6545 4.45891 67.7159 4.91168C67.3137 5.10604 66.5358 5.62592 66.4473 6.72625H66.4286V15.8819L68.0967 14.6404V13.0367C69.0676 13.4385 70.0412 13.6224 71.2557 13.6224C72.4706 13.6224 73.452 13.3134 74.4068 12.8336C74.8277 12.6232 75.6378 12.0558 75.6378 10.8352M107.864 8.53036C107.864 8.53036 106.614 8.46107 104.099 8.02137C102.64 7.76557 102.356 7.29363 102.356 7.07269C102.356 6.81689 102.49 6.60118 102.742 6.42251C103.587 6.01724 104.343 5.89784 105.381 5.89784C106.842 5.89784 107.701 6.06561 108.733 6.50793C108.935 6.59334 109.039 6.47306 109.039 6.47306C109.039 6.47306 109.503 5.97192 109.809 5.66862C109.902 5.57537 109.876 5.36489 109.718 5.28732C108.465 4.67724 107.301 4.19483 105.644 4.19483C102.107 4.19483 100.696 5.82027 100.801 7.1581C100.951 9.0607 102.914 9.50562 104.754 9.75097C106.086 9.92963 108.331 10.1214 108.331 10.1214C108.728 10.1506 108.953 10.409 108.953 10.6809C108.953 10.8727 108.835 11.1712 108.535 11.3123C108.535 11.3123 107.559 11.9834 105.826 11.9834C103.869 11.9834 103.147 11.5843 102.072 11.1363C102.015 11.1123 101.852 11.0352 101.777 11.1603C101.577 11.4886 101.38 11.8191 101.187 12.1517C101.187 12.1517 101.018 12.3674 101.192 12.4611C102.576 13.1932 103.748 13.7662 105.765 13.6865C107.687 13.6119 110.321 12.7857 110.506 11.0936C110.685 9.44984 109.744 8.73038 107.862 8.5382M85.1234 8.65543L88.9874 5.69216L86.4294 5.68736L82.4869 8.77832V2.49226C82.4869 2.49226 82.4442 2.2443 82.2028 2.35891C81.964 2.47352 81.7792 2.57767 81.4759 2.74239C81.2964 2.83826 80.851 3.07315 80.7573 3.14505C80.5778 3.28624 80.6179 3.52069 80.6179 3.52069V13.6089H82.4869V10.6752L83.7554 9.70259L87.2068 13.5984H89.4972L85.1234 8.65281V8.65543Z" fill="#1C1E26"/>
<path d="M12.7106 2.48442L12.7132 13.6119L14.5827 13.6146V2.48442H12.7106Z" fill="#1C1E26"/>
<path d="M24.2665 2.48442L18.519 8.22096V2.47614C18.519 2.47614 18.4759 2.22862 18.2345 2.34323C17.9957 2.4574 17.8109 2.56111 17.5076 2.72671C17.3281 2.82258 16.8831 3.05702 16.789 3.12893C16.6095 3.2675 16.6496 3.50457 16.6496 3.50457V13.6093H18.519V10.4543L20.0556 8.89816L23.9575 13.6145H26.261L21.2971 7.64007L26.3896 2.48442H24.2665ZM34.9717 2.48442L29.2247 8.22096V2.47614C29.2247 2.47614 29.182 2.22862 28.9406 2.34323C28.7018 2.4574 28.517 2.56111 28.2137 2.72671C28.0342 2.82258 27.5888 3.05702 27.4947 3.12893C27.3156 3.2675 27.3552 3.50457 27.3552 3.50457V13.6093H29.2247V10.4543L30.7613 8.89816L34.6632 13.6145H36.9671L32.0032 7.64007L37.0957 2.48442H34.9717ZM78.0433 2.32449C77.8019 2.32449 77.6036 2.39116 77.4106 2.48442C77.3221 2.52669 77.1447 2.64435 77.1447 2.90015V2.98251V2.88402V3.73683C77.1447 4.24538 77.7509 4.28286 78.1401 4.28286C78.3841 4.28286 78.5933 4.2188 78.7889 4.12032C78.8748 4.07761 79.0434 3.96039 79.0434 3.7072V2.90276C79.0434 2.65219 78.8722 2.5293 78.7863 2.48965C78.5536 2.37837 78.2986 2.32173 78.0407 2.32405M45.9158 8.24798L41.4779 8.88203L43.0357 4.89295L43.1861 4.56263C43.1861 4.56263 43.3146 4.18699 43.8537 4.18699C44.2481 4.18699 44.398 4.44279 44.4464 4.54433L45.9188 8.24798H45.9158ZM49.9197 13.6145L45.9506 3.73117C45.9506 3.73117 45.806 3.37383 45.6988 3.21695C45.5271 2.96421 45.0416 2.50533 44.2882 2.39639C44.1665 2.37772 44.0438 2.36608 43.9208 2.36153C43.8912 2.36153 43.8646 2.35891 43.8214 2.35891C43.6659 2.35891 43.58 2.36981 43.58 2.36981C43.5025 2.37765 43.4192 2.38288 43.3199 2.399C42.5638 2.50795 42.1054 2.83042 41.8557 3.19822C41.7485 3.35553 41.6064 3.7181 41.6064 3.7181L37.6191 13.6224L39.6245 13.6281L40.8181 10.5741L46.5058 9.72961L48.0506 13.6145H49.9223H49.9197ZM128.916 7.13675C129.01 7.58691 129.061 8.05362 129.061 8.53298C129.061 11.8928 126.615 14.6805 123.405 15.2239L125.215 8.57045L124.054 7.14198L124.108 7.13675H128.916ZM125.076 6.13229C125.076 6.27872 125.017 6.41911 124.914 6.52257C124.81 6.62604 124.67 6.6841 124.523 6.68398C124.377 6.68387 124.236 6.62558 124.133 6.52196C124.029 6.41833 123.971 6.27785 123.971 6.13142C123.972 5.98499 124.03 5.8446 124.133 5.74113C124.237 5.63767 124.378 5.57961 124.524 5.57973C124.67 5.57984 124.811 5.63812 124.914 5.74175C125.018 5.84538 125.076 5.98586 125.076 6.13229ZM115.604 7.13414H120.259L120.313 7.14198L119.152 8.57045L120.954 15.1947C117.824 14.5872 115.462 11.8348 115.462 8.53036C115.462 8.05319 115.513 7.58473 115.607 7.13414M120.396 6.13185C120.396 6.2784 120.338 6.41895 120.234 6.52257C120.131 6.6262 119.99 6.68442 119.844 6.68442C119.697 6.68442 119.557 6.6262 119.453 6.52257C119.349 6.41895 119.291 6.2784 119.291 6.13185C119.291 5.98531 119.349 5.84476 119.453 5.74113C119.557 5.63751 119.697 5.57929 119.844 5.57929C119.99 5.57929 120.131 5.63751 120.234 5.74113C120.338 5.84476 120.396 5.98531 120.396 6.13185ZM130.12 8.53036C130.12 4.19745 126.602 0.682922 122.263 0.682922C117.924 0.682922 114.405 4.19745 114.405 8.53036C114.405 12.8633 117.711 16.1621 121.866 16.3669V15.3093L121.882 5.15964H118.739L115.711 6.72102C116.505 3.84839 119.138 1.74098 122.265 1.74098C125.392 1.74098 128.085 3.89633 128.846 6.81428L125.639 5.15703H122.496L122.512 15.3171V16.3752C126.739 16.2471 130.128 12.7857 130.128 8.53298" fill="#1C1E26"/>
</svg>
