<svg width="314" height="52" viewBox="0 0 314 52" fill="none" xmlns="http://www.w3.org/2000/svg"><path d="M186.976 19.347c-.548.263-.972.502-1.668.88-.412.22-1.434.759-1.649.924-.412.318-.32.862-.32.862v15.684h4.289v-18.05s-.098-.569-.652-.3ZM150.009 23.841s-4.222-.464-9.446-1.412c-3.471-.63-3.939-2.06-3.939-2.672 0-.703-.049-1.51.899-2.195 2.234-1.437 4.178-1.651 6.338-1.774 3.446-.195 6.08.477 8.53 1.694.48.239.72-.092.72-.092s1.194-.862 1.883-1.48c.246-.22.369-.697 0-.929-3.2-1.993-6.431-3.155-10.345-3.137-8.776.05-11.933 4.434-11.686 8.115.35 5.246 4.997 6.102 9.341 6.78 3.151.49 8.444 1.028 8.444 1.028 1.187.22 1.483 1.156 1.483 1.902 0 .526-.123 1.516-.923 2.054 0 0-2.437 1.951-6.53 1.951-3.329 0-6.117-.685-8.997-2.483-.129-.08-.541-.373-.812-.134-.64.55-2.302 2.085-2.302 2.085s-.474.495.013.856c3.637 2.684 7.464 3.852 12.215 3.767 4.548-.08 10.523-2.556 10.96-7.222.425-4.53-1.834-6.371-5.834-6.708M31.034 12.058H6.542v4.036h10.234l-.006 21.542h4.178l-.006-21.542H31.01l.024-4.036ZM216.3 26.446v-4.01s.03-.76.461-1.046c1.44-.96 4.191-1.486 6.456-1.486 2.043 0 4.35.275 6.381.794.622.16 1.779.404 1.779 1.554v2.067L216.3 26.445Zm6.917-10.474c-2.997.049-5.982.795-8.505 2.195-2.486 1.382-2.246 6.237-2.246 6.237l.024 7.472v-.672c0 3.669 2.751 4.959 4.271 5.478 2.382.82 4.905 1.107 7.557 1.107 2.948 0 5.613-.856 8.191-2.005.172-.08.351-.361.172-.593l-1.28-2.453c-.203-.415-.498-.287-.615-.232-1.859.789-3.631 1.498-6.603 1.498-2.671 0-3.6-.085-6.05-.758 0 0-1.858-.33-1.84-3.21 0-.006 18.198-2.58 18.198-2.58l.554-.11v-.973.905-5.045c0-3.271-3.034-4.476-4.69-5.075-2.141-.783-4.474-1.223-7.151-1.186M176.256 31.204c0 .99-.591 1.247-.893 1.357-1.729.642-3.427 1.162-5.6 1.162-1.526 0-3.532-.159-6.178-1.003-.345-.11-1.071-.306-1.071-1.376v-9.319c0-.684.621-.978.929-1.088 1.711-.6 3.354-.99 5.274-.99 2.289 0 4.462.421 6.536 1.088.338.11 1.009.526 1.009 1.351v8.824l-.006-.006Zm3.569.08v-8.959c0-2.776-1.895-4.134-2.855-4.58-2.511-1.18-5.151-1.834-8.296-1.834-2.677 0-4.88.746-7.034 1.785-.923.446-2.708 1.639-2.911 4.164h-.043v21.01l3.828-2.849v-3.68c2.228.922 4.462 1.344 7.249 1.344 2.788 0 5.04-.709 7.231-1.81.966-.483 2.825-1.785 2.825-4.586M253.771 26s-2.868-.159-8.64-1.168c-3.348-.587-4-1.67-4-2.177 0-.587.308-1.082.886-1.492 1.939-.93 3.674-1.204 6.056-1.204 3.353 0 5.323.385 7.692 1.4.462.196.702-.08.702-.08s1.064-1.15 1.766-1.846c.215-.214.154-.697-.209-.875-2.874-1.4-5.545-2.507-9.348-2.507-8.117 0-11.354 3.73-11.114 6.8.344 4.366 4.849 5.387 9.071 5.95 3.058.41 8.209.85 8.209.85.911.067 1.428.66 1.428 1.284 0 .44-.271 1.125-.96 1.449 0 0-2.24 1.54-6.216 1.54-4.492 0-6.148-.916-8.615-1.944-.13-.055-.505-.232-.677.055a121.603 121.603 0 0 0-1.354 2.275s-.388.495.012.71c3.175 1.68 5.865 2.995 10.493 2.812 4.412-.171 10.455-2.067 10.88-5.95.412-3.772-1.748-5.423-6.068-5.864M201.586 26.287l8.867-6.8-5.87-.011-9.047 7.093V12.144s-.098-.569-.652-.306c-.548.263-.972.502-1.668.88-.412.22-1.434.759-1.649.924-.412.324-.32.862-.32.862v23.15h4.289v-6.732l2.911-2.232 7.92 8.94h5.256l-10.037-11.349v.006ZM35.416 12.126l.006 25.535 4.29.006V12.126h-4.296ZM61.934 12.126 48.745 25.29V12.107s-.099-.568-.653-.305c-.548.262-.972.5-1.668.88-.412.22-1.433.758-1.649.923-.412.318-.32.862-.32.862v23.188h4.29v-7.24l3.526-3.571 8.954 10.823h5.286L55.12 23.957l11.686-11.831h-4.873ZM86.5 12.126 73.312 25.29V12.107s-.098-.568-.652-.305c-.548.262-.972.5-1.668.88-.412.22-1.434.758-1.65.923-.411.318-.32.862-.32.862v23.188h4.29v-7.24l3.526-3.571 8.954 10.823h5.287l-11.391-13.71 11.686-11.831H86.5ZM185.339 11.759c-.554 0-1.009.153-1.452.367-.203.097-.61.367-.61.954v.189-.226V15c0 1.167 1.391 1.253 2.284 1.253.56 0 1.04-.147 1.489-.373.197-.098.584-.367.584-.948v-1.846c0-.575-.393-.857-.59-.948a3.885 3.885 0 0 0-1.711-.38M111.614 25.352l-10.184 1.455 3.575-9.154.345-.758s.295-.862 1.532-.862c.905 0 1.249.587 1.36.82l3.379 8.499h-.007Zm9.188 12.315-9.108-22.68s-.332-.82-.578-1.18c-.394-.58-1.508-1.633-3.237-1.883a7.354 7.354 0 0 0-.843-.08c-.068 0-.129-.006-.228-.006-.357 0-.554.025-.554.025-.178.018-.369.03-.597.067-1.735.25-2.787.99-3.36 1.834-.246.361-.572 1.193-.572 1.193l-9.15 22.728 4.602.013 2.739-7.008 13.052-1.938 3.545 8.915h4.295-.006ZM302.08 22.802c.215 1.033.332 2.104.332 3.204 0 7.71-5.612 14.107-12.979 15.354l4.154-15.268-2.664-3.278.123-.012h11.034Zm-8.813-2.305a1.267 1.267 0 1 1-2.534-.002 1.267 1.267 0 0 1 2.534.002Zm-21.736 2.299h10.684l.123.018-2.665 3.278 4.136 15.201c-7.182-1.394-12.604-7.71-12.604-15.293 0-1.095.117-2.17.333-3.204m10.991-2.3a1.268 1.268 0 0 1-2.536 0 1.267 1.267 0 0 1 2.536 0Z" fill="#000"/><path d="M304.843 26c0-9.943-8.074-18.008-18.031-18.008-9.957 0-18.031 8.065-18.031 18.008s7.587 17.513 17.12 17.983v-2.427l.037-23.291h-7.213l-6.947 3.583c1.821-6.592 7.864-11.428 15.04-11.428 7.175 0 13.354 4.946 15.102 11.642l-7.36-3.803h-7.213l.037 23.315v2.428c9.699-.294 17.477-8.237 17.477-17.996" fill="#000"/></svg>