<svg xmlns="http://www.w3.org/2000/svg" width="255" height="65" viewBox="0 0 125 32"><path fill="currentColor" d="M31.589 15.707a15.708 15.708 0 0 0-2.506-8.354l.038.062a27.733 27.733 0 0 0-.873-1.247 16.031 16.031 0 0 0-2.06-2.175l-.019-.016A15.714 15.714 0 0 0 15.788.087 15.736 15.736 0 0 0 5.324 4.05l.017-.014a16.121 16.121 0 0 0-1.99 2.114l-.026.035c-.328.422-.657.899-.959 1.395l-.039.068c-.248.391-.508.861-.743 1.345l-.039.089A9.661 9.661 0 0 0 .984 10.4a15.434 15.434 0 0 0-.931 4.173l-.004.058q-.05.632-.05 1.272v.015c0 2.267.479 4.422 1.341 6.37l-.04-.101c.154.353.32.702.499 1.039a14.608 14.608 0 0 0 .952 1.588c.154.225.303.416.461.636l.15.195c.129.162.262.324.395.482l.067.079a16.148 16.148 0 0 0 1.708 1.703l.021.018c.278.237.561.461.856.677l.112.083c.183.133.37.262.557.387.212.141.416.274.644.416l.262.154c.241.137.486.266.736.391s.561.27.831.416c1.839.807 3.982 1.277 6.235 1.277s4.396-.47 6.337-1.316l-.102.04c.274-.121.549-.245.831-.382s.495-.254.732-.391l.15-.083c.258-.15.511-.308.765-.474l.565-.441.104-.075a16.215 16.215 0 0 0 2.585-2.394l.017-.02c.025-.025.046-.054.067-.079.137-.162.274-.328.416-.495l.212-.278c.133-.179.262-.357.387-.54s.299-.449.416-.677c.179-.291.349-.59.507-.894l.233-.453c.091-.195.183-.391.266-.586.832-1.85 1.316-4.011 1.318-6.284zm-8.313 12.178c-.137.087-.278.17-.416.254a2.887 2.887 0 0 0-.561-.054H22.243c-.573 0-1.102.189-1.527.508l.007-.005a5.37 5.37 0 0 0-.382.303l-.125.104a1.66 1.66 0 0 1-1.154.466h-.028.001a1.783 1.783 0 0 1-1.3-.568l-.001-.001a2.764 2.764 0 0 0-1.94-.806H15.758c-.668 0-1.278.249-1.742.659l.003-.002-.179.15c-.1.083-.191.162-.287.233a1.55 1.55 0 0 1-.969.337l-.052-.001h.003-.002c-.517 0-.983-.219-1.311-.568l-.001-.001a2.757 2.757 0 0 0-1.951-.806h-.013a2.93 2.93 0 0 0-.534.049l.018-.003a13.014 13.014 0 0 1-.852-.536l-.154-.108-.108-.054.096-.075.15-.121.071-.062a1.768 1.768 0 0 1 1.305-.574h.225c.103.013.193.03.281.053l-.015-.003c.305.104.566.266.782.474l-.001-.001.042.033c.087.075.183.158.287.237.439.355 1.005.57 1.621.57h.044-.002.051c.461 0 .893-.122 1.267-.335l-.013.007c.246-.148.46-.305.657-.482l-.004.004c.109-.096.228-.19.352-.278l.014-.009a1.502 1.502 0 0 1 .964-.27h-.004c.489.003.931.206 1.247.532l.037.033c.091.075.187.158.291.237.438.355 1.002.57 1.616.57h.049-.002l.056.001c.57 0 1.097-.187 1.522-.504l-.007.005c.141-.104.266-.208.387-.308a3.33 3.33 0 0 1 .404-.321l.012-.008a1.498 1.498 0 0 1 .889-.236h-.003l.043-.001c.257 0 .499.06.714.167l-.009-.004c.211.124.393.262.559.417l-.002-.002.133.112.216.17-.216.15h-.029zm-6.962 2.145h-1.076c-.374 0-.748-.046-1.114-.087.116-.087.22-.175.32-.258h.029a.5.5 0 0 1 .065-.057l.001-.001a1.71 1.71 0 0 1 1.241-.532h.015-.001l.053-.001c.348 0 .67.116.928.311l-.004-.003c.123.087.23.173.332.265l-.003-.003.283.229.071.054c-.391.042-.761.071-1.139.083zm8.238-3.4c-.1-.075-.2-.158-.303-.245l-.216-.179a4.213 4.213 0 0 0-.303-.22l-.104-.062a2.444 2.444 0 0 0-.573-.245l-.018-.004a2.755 2.755 0 0 0-.73-.096h-.106a2.749 2.749 0 0 0-.668.1l.019-.005c-.121.033-.223.07-.322.114l.014-.006a2.885 2.885 0 0 0-.682.419l.005-.004-.216.179a4.838 4.838 0 0 1-.398.296l-.018.011a1.719 1.719 0 0 1-.911.257c-.283 0-.55-.067-.786-.187l.01.005a2.992 2.992 0 0 1-.526-.384l.002.002-.216-.179-.129-.1a2.558 2.558 0 0 0-.458-.28l-.016-.007a2 2 0 0 0-.38-.142l-.015-.003-.087-.025a2.77 2.77 0 0 0-.595-.063h-.034.002-.014c-.258 0-.508.035-.746.1l.02-.005h-.05a2.774 2.774 0 0 0-.931.519l.004-.003a4.164 4.164 0 0 0-.208.175l-.22.179a1.582 1.582 0 0 1-1.041.387l-.047-.001h.002l-.045.001a1.56 1.56 0 0 1-.745-.188l.008.004a3.234 3.234 0 0 1-.567-.367l.006.005c-.066-.058-.137-.121-.212-.179a2.793 2.793 0 0 0-.812-.472l-.019-.006-.15-.046a2.755 2.755 0 0 0-.73-.096h-.056a2.687 2.687 0 0 0-.717.1l.019-.005c-.159.039-.297.09-.428.155l.012-.005a2.33 2.33 0 0 0-.397.233l.007-.005c-.075.05-.141.104-.208.154s-.145.121-.212.179a3.924 3.924 0 0 1-.503.373l-.016.009-.237-.204-.395-.357-.046-.029c-.27-.258-.528-.524-.777-.802.193.048.414.075.642.075h.011-.001l.059.001a2.56 2.56 0 0 0 1.556-.525l-.006.005.075-.058.042-.029.229-.191c.104-.087.204-.17.303-.245.26-.202.591-.324.95-.324H9.254l.046-.001c.315 0 .608.093.854.254l-.006-.004c.147.101.274.201.395.307l-.005-.004.278.229c.223.17.48.311.758.41l.02.006c.261.092.562.146.876.146H12.554a2.543 2.543 0 0 0 1.455-.459l-.008.005c.166-.116.312-.237.449-.349.151-.138.318-.263.497-.37l.014-.008a1.53 1.53 0 0 1 .792-.191h-.002l.04-.001c.223 0 .434.046.627.129l-.01-.004c.109.048.202.099.289.158l-.007-.004c.137.096.256.191.369.294l-.003-.003c.087.075.183.15.283.229h.025c.301.238.664.412 1.06.496l.017.003.254.042h.316a2.733 2.733 0 0 0 .799-.049l-.018.003a2.844 2.844 0 0 0 1.026-.56l-.004.003.175-.145.037-.033.216-.175c.257-.216.59-.35.954-.357h.095c.514 0 .977.219 1.302.568l.001.001.133.108a2.736 2.736 0 0 0 2.554.586l-.019.005c-.254.287-.52.557-.798.831l-.025.025a6.066 6.066 0 0 1-.416.366l-.249.208a2.082 2.082 0 0 1-.229-.157l.004.003zm3.296-3.388a2.848 2.848 0 0 0-.795.453l.005-.004-.204.166-.204.17a1.7 1.7 0 0 1-1.098.399 1.7 1.7 0 0 1-1.124-.422l.002.002a3.017 3.017 0 0 1-.183-.15l-.121-.1a4.233 4.233 0 0 0-.398-.288l-.018-.011a2.534 2.534 0 0 0-1.399-.416h-.041.002-.091a2.597 2.597 0 0 0-.973.206l.017-.006c-.23.101-.428.221-.609.362l.006-.005a9.99 9.99 0 0 0-.303.245l-.125.108a2.31 2.31 0 0 1-.404.281l-.012.006a1.53 1.53 0 0 1-.715.175l-.048-.001h.002a1.465 1.465 0 0 1-.2 0h.005a1.84 1.84 0 0 1-1.105-.556l-.001-.001c-.108-.087-.22-.183-.345-.274a2.558 2.558 0 0 0-.938-.453l-.018-.004a2.798 2.798 0 0 0-.575-.059h-.05.003-.03a2.63 2.63 0 0 0-.778.117l.019-.005a2.803 2.803 0 0 0-.986.515l.005-.004-.029.025-.175.145c-.087.071-.166.141-.249.204a1.567 1.567 0 0 1-.993.362h-.063l-.054.001c-.305 0-.59-.089-.829-.242l.006.004a4.146 4.146 0 0 1-.421-.321l.006.005a3.277 3.277 0 0 0-1.017-.649l-.022-.008a2.609 2.609 0 0 0-.881-.15h-.035.002-.06c-.553 0-1.065.178-1.482.479l.007-.005c-.119.081-.222.16-.32.245l.004-.004-.104.087-.071.058a1.7 1.7 0 0 1-1.217.512h-.031.002-.005c-.487 0-.928-.202-1.241-.527l-.05-.042-.079-.067a3.145 3.145 0 0 0-.812-.536l-.02-.008a13.096 13.096 0 0 1-.669-1.232l-.037-.086c.259.016.5.058.731.122l-.025-.006c.648.194 1.205.52 1.665.95l-.002-.002c.337.283.366.295.565.295s.229 0 .565-.295a4.61 4.61 0 0 1 1.132-.757l.028-.012V10.964a.578.578 0 0 0-.578-.578h-.022.001-1.796V8.952h1.924a1.955 1.955 0 0 1 1.867 1.42l.003.014c.039.144.063.309.066.48v11.05h.069c.315 0 .621.038.914.109l-.026-.005V10.835l.002-.029-.002-.03v.001a2.906 2.906 0 0 0-.75-1.827l.002.002h.258a1.964 1.964 0 0 1 1.871 1.42l.003.014c.048.145.08.313.087.487v11.85c.129.096.237.187.337.27.332.283.362.295.561.295h.062V10.761a2.786 2.786 0 0 0-.049-.4l.003.018a2.908 2.908 0 0 0-.713-1.445l.002.002h.258c.885.02 1.623.622 1.85 1.437l.003.014c.043.144.068.31.071.481v11.46a3.49 3.49 0 0 1 .937-.333l.023-.004V10.773a3.665 3.665 0 0 0-.049-.401l.003.023a2.974 2.974 0 0 0-.721-1.445l.002.002h.258c.89.009 1.638.606 1.875 1.42l.003.014c.044.144.071.309.075.48V21.966c.358.059.679.162.978.304l-.022-.009V10.835l.002-.033-.002-.035v.001a2.66 2.66 0 0 0-.049-.391l.003.017a2.973 2.973 0 0 0-.717-1.445l.002.002h.258a1.988 1.988 0 0 1 1.875 1.42l.004.014c.042.143.069.308.075.479v12.407c.046.017.1.027.155.027l.042-.002h-.002c.204 0 .229 0 .565-.295a4.19 4.19 0 0 1 .195-.162V10.835a.388.388 0 0 0 0-.072v.002a3.59 3.59 0 0 0-.053-.4l.004.022a2.958 2.958 0 0 0-.713-1.445l.002.003h.233a1.98 1.98 0 0 1 1.896 1.428l.003.014c.043.143.071.307.079.478v11.189c.285-.082.614-.131.953-.137h.003V10.836a.486.486 0 0 0 0-.081v.002a3.312 3.312 0 0 0-.049-.382l.003.021a2.982 2.982 0 0 0-1.192-1.864l-.009-.006a2.883 2.883 0 0 0-1.662-.528H5.346V6.157h20.836v4.231h-1.883a.574.574 0 0 0-.574.574v11.222c.479.213.891.485 1.25.814l-.003-.003c.337.283.362.295.565.295s.224 0 .561-.295a4.189 4.189 0 0 1 1.716-.961l.029-.007c.206-.053.447-.092.695-.108l.011-.001q-.32.673-.698 1.309zM83.789 25.799l1.513-1.218-.054-.058z"/><path fill="currentColor" d="m83.789 25.799 1.459-1.276a25.578 25.578 0 0 1-2.283-4.481l-.062-.178c-2.078 1.974-4.156 3.978-4.156 3.978a3.73 3.73 0 0 1-2.394 1.018h-.008c-2.253 0-3.221-1.833-3.832-4.156l-.125-.586c3.18-1.222 5.1-4.194 5.1-7.752 0-4.639-2.98-8.674-8.413-8.674H57.358v12.311h-2.697v4.676h2.697v9.393h5.819v-9.393h3.508c.303 2.793 2.228 9.809 8.487 9.809 2.718 0 4.156-.906 5.885-2.265l2.752-2.436zm-15.475-9.797h-5.166V8.57h5.166c2.078 0 3.325 1.509 3.325 3.741s-1.247 3.691-3.325 3.691z"/><path fill="currentColor" d="M56.41 3.683H36.023v4.905h7.432v21.501h5.769V8.588h7.186V3.683zM107.65 19.535l-.2-.291-.183-.266-.449-.69-.615.673-.686.736c-2.103 2.22-4.385 4.227-7.419 4.747a7.168 7.168 0 0 1-6.015-1.808l.005.005a13.665 13.665 0 0 1-1.745-1.938l-.026-.037-.054-.083.865-.694 3.059-2.959C97.782 13.301 98.63 9 96.456 5.417c-1.542-2.554-4.302-4.236-7.455-4.236-1.63 0-3.156.45-4.459 1.232l.039-.022c-3.325 2.024-4.514 5.262-3.533 9.639l.087.262 2.078 6.272.025.046a31.187 31.187 0 0 0 2.362 5.075l-.081-.15c.096.158.191.303.283.416l.075.104a19.136 19.136 0 0 0 2.409 2.668l.014.013a12.826 12.826 0 0 0 8.631 3.354H96.95c.728 0 1.442-.065 2.134-.19l-.073.011c3.741-.64 6.563-2.602 8.874-4.759v-5.254l-.137-.195zM87.442 7.112a3.177 3.177 0 0 1 4.318 1.185l.008.015c1.022 1.683-.22 3.52-1.455 4.772l-2.398 2.294-.278-.798-.744-2.111-.15-.416c-1.23-3.77-.071-4.476.698-4.942z"/><path fill="currentColor" d="M124.692 4.501h-7.087l-6.064 9.975h-.037l-6.06-9.975h-6.575v.732l9.826 14.427v10.412h5.661V19.59l9.826-14.356.511-.732z"/></svg>