<svg width="70" height="59" viewBox="0 0 70 59" fill="none" xmlns="http://www.w3.org/2000/svg">
<g clip-path="url(#clip0_491_353)">
<path d="M52.8533 17.42H57.6793C57.6793 17.42 51.4695 0 28.8169 0C10.7334 0 0 16.1835 0 29.7472C0 49.9953 18.2281 58.7654 30.5915 58.7654C44.015 58.7654 51.6809 48.5719 51.6809 48.5719L50.6183 48.5933C50.6183 48.5933 43.4609 56.9842 30.5915 56.9842C16.4829 56.9842 3.11563 45.5008 3.11563 29.7259C3.11563 19.8582 11.7452 3.0925 28.8035 3.0925C46.9941 3.0925 52.8533 17.42 52.8533 17.42Z" fill="#1C1E26"/>
<path d="M12.6494 19.6256H12.0177V20.2212H12.6494V21.3642C12.6494 21.8155 12.7244 22.0211 12.9706 22.1974C13.1634 22.3469 13.431 22.4083 13.8486 22.4083H14.5713V21.8128H14.1778C13.969 21.8128 13.8138 21.7674 13.7308 21.6766C13.6639 21.6018 13.6478 21.5164 13.6478 21.2306V20.2185H14.5713V19.623H13.6478V18.5948H12.6494V19.6256Z" fill="#1C1E26"/>
<path d="M17.9952 21.8157H17.0557C16.7586 21.8157 16.5792 21.6662 16.5792 21.4151V19.6259H15.5808V21.3404C15.5808 21.7303 15.7066 22.0027 15.9609 22.1869C16.2152 22.3578 16.4534 22.4086 17.0343 22.4086H18.9936V19.6259H17.9952V21.8157Z" fill="#1C1E26"/>
<path d="M20.3642 19.6259V22.4086H21.3626V20.2187H21.6544C22.1469 20.2187 22.2941 20.3389 22.2941 20.7342V20.8837H23.255V20.6086C23.255 20.1867 23.18 19.9917 22.9579 19.8368C22.7277 19.6766 22.452 19.6259 21.8417 19.6259H20.3642Z" fill="#1C1E26"/>
<path d="M26.5688 21.8157H25.6293C25.3321 21.8157 25.1528 21.6662 25.1528 21.4151V19.6259H24.1544V21.3404C24.1544 21.7303 24.2802 22.0027 24.5345 22.1869C24.7888 22.3578 25.027 22.4086 25.6078 22.4086H27.5672V19.6259H26.5688V21.8157Z" fill="#1C1E26"/>
<path d="M28.9371 19.6259V22.4086H29.9355V20.2188H30.8001C31.1641 20.2188 31.314 20.3282 31.314 20.6087V22.4086H32.3124V20.6941C32.3124 20.3042 32.1866 20.0318 31.9323 19.8475C31.678 19.6766 31.4398 19.6259 30.859 19.6259H28.9371Z" fill="#1C1E26"/>
<path d="M53.1929 19.6231V38.2048H58.0564V32.8851H61.3594C63.4659 32.8851 64.0467 33.3578 64.0467 35.0295V38.2048H68.9102V35.1951C68.9102 33.1602 68.6559 31.9905 68.0028 31.24C67.3123 30.4309 66.0783 30.0143 64.4456 30.0143H63.1019L69.9996 24.6384H64.5553L58.059 30.0143V19.6231H53.1929Z" fill="#1C1E26"/>
<path d="M33.3938 19.6233V38.205H38.2573V32.8852H41.5603C43.6669 32.8852 44.2477 33.3579 44.2477 35.0297V38.205H49.1112V35.1953C49.1112 33.1603 48.8569 31.9906 48.2038 31.2402C47.5132 30.431 46.2793 30.0144 44.6465 30.0144H43.3028L50.2006 24.6386H44.7563L38.26 30.0144V19.6233H33.3938Z" fill="#1C1E26"/>
<path fill-rule="evenodd" clip-rule="evenodd" d="M18.1239 29.9582C16.3466 29.9582 14.9306 30.0703 14.1303 30.2653C12.2058 30.738 10.8996 32.3002 10.8996 34.1937C10.8996 35.5583 11.625 36.7574 12.9312 37.4811C14.0206 38.0927 14.928 38.2048 18.702 38.2048H28.9376V30.5724C28.9376 29.125 28.8653 28.5935 28.5388 27.8137C27.9579 26.4197 26.6865 25.3622 25.126 24.9723C23.9644 24.6945 23.3113 24.6384 20.3723 24.6384H12.1683V27.536H20.3723C23.3113 27.536 24.0741 28.038 24.0741 29.9608H18.1212L18.1239 29.9582ZM24.0768 32.8557V35.3073H18.4504C16.5634 35.3073 15.838 34.9735 15.838 34.1109C15.838 33.5527 16.2368 33.08 16.8899 32.9412C17.1558 32.886 17.676 32.8584 18.4504 32.8584H24.0768V32.8557Z" fill="#1C1E26"/>
</g>
<defs>
<clipPath id="clip0_491_353">
<rect width="69.9996" height="58.7654" fill="white"/>
</clipPath>
</defs>
</svg>
