<svg xmlns="http://www.w3.org/2000/svg" width="2040" height="706" viewBox="0 0 2040 706"><path d="M705 704V351c0-14.7.01-29.29 0-44s.01-29.24 0-44c-.01-14.76.03-30.25 0-45s.07-29.33 0-44c-.07-14.67.15-29.41 0-44s.34-29.53 0-44c-.34-14.47.75-29.78 0-44-.75-14.22 2.97-30.43-3-42H3c-1.96 6.64-.77 13.88-1 21-.23 7.12.11 14.84 0 22s.05 13.8 0 21c-.05 7.2.02 14.76 0 22s.01 14.78 0 22c-.01 7.22 0 13.78 0 21v434c0 7.22.01 13.78 0 21-.01 7.22.02 14.75 0 22s.04 14.77 0 22 .09 13.76 0 21 .2 14.71 0 22c-.2 7.29.44 14.69 0 22-.44 7.31 2.45 11.74 10 11 7.55-.74 14.6.34 22 0s14.71.16 22 0c7.29-.16 13.75.07 21 0s14.74.03 22 0 14.77.01 22 0 13.77.01 21 0 14.75 0 22 0h347c7.22 0 13.78.01 21 0 7.22-.01 14.76.01 22 0s14.8.03 22 0c7.2-.03 13.83.06 21 0s14.85.13 22 0 15 .29 22 0 14.3.68 21 0c6.7-.68 15.85 1.44 22 0s16.22 3.34 21 0M679 23c3.64 8.43-1.64 20.7 0 30s-.74 20.31 0 30c.74 9.69-.33 20.12 0 30 .33 9.88-.14 20 0 30s-.05 19.89 0 30 0 20.84 0 31v362c0 12.52.59 25.53 0 38-.59 12.47 1.59 25.71 0 38s3.52 27.23 0 39c-2.76 9.23-19.71 1.5-28 3s-23.22-.68-33 0c-9.78.68-22.54-.31-33 0s-22.23-.14-33 0-22.07-.06-33 0-21.95-.03-33 0-22.92-.01-34 0c-11.08.01-21.96-.01-33 0s-21.98 0-33 0h-99c-11.03 0-21.92.01-33 0-11.07-.01-22.95.02-34 0s-22.07.05-33 0-22.23.12-33 0-22.54.26-33 0-23.21.58-33 0-24.69 1.28-33 0c-8.31-1.28-24.31 5.99-27-3-3.98-13.3 1.75-28.98 0-43s.79-29.63 0-44c-.79-14.37.36-29.47 0-44-.36-14.53.16-29.4 0-44-.16-14.6.07-29.38 0-44-.07-14.62.03-29.39 0-44s.01-29.43 0-44 0-28.43 0-43-.02-29.38 0-44c.02-14.62-.05-29.37 0-44 .05-14.63-.11-29.39 0-44s-.24-29.43 0-44-.52-29.55 0-44-1.16-29.81 0-44c1.16-14.19-3.02-30.05 1-43 .55-1.77 2.3-2.84 2-5 16.08 1.99 32.43.76 49 1s33.28-.11 50 0 34.22-.05 51 0 33.19-.03 50 0c16.81.03 34.18-.02 51 0s33.17-.02 50 0 34.18-.04 51 0 33.19-.09 50 0c16.81.09 34.22-.2 51 0s33.3-.45 50 0c16.7.45 33.6-1.08 50-1 16.4.08 33.97-.45 50 0s32.07-2.23 45 4Z" fill="none" fill-opacity="0" stroke="#000" stroke-opacity=".99" stroke-width=".3"/><path d="M705 704c4.44-3.11-.34-16.1 1-22 1.34-5.9-.61-16.17 0-23 .61-6.83-.29-15.79 0-23 .29-7.21-.12-14.59 0-22s-.06-15.46 0-23c.06-7.54-.03-15.42 0-23s-.01-15.44 0-23c.01-7.56-.01-14.44 0-22 .01-7.56 0-15.39 0-23V0h-4c5.97 11.57 2.25 27.78 3 42 .75 14.22-.34 29.53 0 44 .34 14.47-.15 29.41 0 44s-.07 29.33 0 44c.07 14.67-.03 29.25 0 44s-.01 30.24 0 45c.01 14.76-.01 29.29 0 44s0 29.3 0 44v353Z" fill="none" fill-opacity="0" stroke="#FFF" stroke-opacity=".62" stroke-width=".3"/><path d="M29 24c-4 26.75 1.81 54.91 0 82-1.81 27.09.82 54.75 0 82s.37 54.63 0 82c-.37 27.37.19 55.6 0 83s.13 54.65 0 82 .16 54.68 0 82 .29 54.73 0 82c-.29 27.27 1.05 55.58-1 82 2.69 8.99 18.69 1.72 27 3 8.31 1.28 23.21-.58 33 0s22.54-.26 33 0 22.23-.12 33 0 22.07-.05 33 0 21.95-.02 33 0 22.93-.01 34 0c11.08.01 21.97 0 33 0h99c11.02 0 21.96.01 33 0s21.92.01 33 0c11.08-.01 22.95.03 34 0s22.07.06 33 0 22.23.14 33 0 22.54.31 33 0 23.22.68 33 0c9.78-.68 24.71 1.5 33 0s25.24 6.23 28-3c-1.83-37.43-1-76.82-1-115V204c0-60.17-.83-121.65 1-181-12.93-6.23-28.97-3.55-45-4-16.03-.45-33.6.08-50 0s-33.3 1.45-50 1c-16.7-.45-33.22.2-50 0s-34.19.09-51 0c-16.81-.09-33.18.04-50 0s-34.17.02-51 0-33.18.02-50 0-34.19.03-51 0c-16.81-.03-33.22.05-50 0s-34.28.11-51 0-33.43.24-50 0-32.92.99-49-1c.3 2.16-1.45 3.23-2 5m644 4c3.76 7.09-.03 17.54 1 26s-.45 18.15 0 27c.45 8.85-.21 19 0 28s-.1 17.96 0 27-.04 17.9 0 27c.04 9.1-.02 18.88 0 28 .02 9.12-.01 17.91 0 27s0 17.87 0 27v274c0 9.08.01 18.02 0 27s.02 18.14 0 27 .04 19.44 0 28c-.04 8.56.09 19.21 0 27-.09 7.79.19 20.78 0 27-.19 6.22 1.73 23.95-3 23-.33.17-.74.76-1 1-5.49 5.07-19.12-.62-27 1-7.88 1.62-19.32-.73-28 0s-18.96-.33-28 0-18.79-.15-28 0-18.7-.07-28 0-18.63-.03-28 0c-9.37.03-18.54-.01-28 0s-19.49 0-29 0c-41.16 0-84.78 2.89-125-1H154c-17.64 1.71-39.74 2.53-58 1-18.26-1.53-41.31 4.78-58-1-1.81-.63-2.94-1.36-4-4-6.02-15.05 1.06-35.24-1-52-2.06-16.76.93-35.74 0-53-.93-17.26.42-35.52 0-53-.42-17.48.19-35.42 0-53s.09-35.37 0-53c-.09-17.63.04-35.35 0-53s.02-35.34 0-53c-.02-17.66.01-35.34 0-53-.01-17.66 0-35.34 0-53V40c0-3.87-.27-7.83 1-11 .56-1.41 1.46-2.59 2-4 16.67.06 33.46-.03 51 0s36.24-.01 54 0c17.76.01 36.19-.01 54 0 17.81.01 35.15-.01 53 0s36.11-.01 54 0 36.14-.01 54 0 35.15-.03 53 0 36.17-.07 54 0 36.29-.15 54 0 35.5-.34 53 0 36.92-.74 54 0 35.32-3.02 49 3Z" fill="none" fill-opacity="0" stroke="#000" stroke-opacity=".01" stroke-width=".3"/><path d="M678 204c0-.04 1 0 1 0 0-10.16.05-20.89 0-31s.14-20 0-30 .33-20.12 0-30c-.33-9.88.74-20.31 0-30-.74-9.69 1.64-20.7 0-30s3.64-21.57 0-30c-1.83 59.35-1 120.83-1 181Z" fill="none" fill-opacity="0" stroke="#FFF" stroke-opacity=".16" stroke-width=".3"/><path d="M28 681c2.05-26.42.71-54.73 1-82 .29-27.27-.16-54.68 0-82s-.13-54.65 0-82-.19-54.6 0-82-.37-55.63 0-83c.37-27.37-.82-54.75 0-82s-1.81-54.91 0-82c1.81-27.09-4-55.25 0-82-4.02 12.95.16 28.81-1 43-1.16 14.19.52 29.55 0 44s.24 29.43 0 44 .11 29.39 0 44 .05 29.37 0 44c-.05 14.63.02 29.38 0 44-.02 14.62 0 29.43 0 44s-.01 28.43 0 43-.03 29.39 0 44-.07 29.38 0 44c.07 14.62-.16 29.4 0 44 .16 14.6-.36 29.47 0 44 .36 14.53-.79 29.63 0 44 .79 14.37-1.75 29.98 0 44s-3.98 29.7 0 43Z" fill="none" fill-opacity="0" stroke="#FFF" stroke-opacity=".2" stroke-width=".3"/><path d="M34 29c-.78 3.24 0 7.65 0 11v158c0 17.64-.01 35.35 0 53s-.02 35.34 0 53c.02 17.66-.03 35.34 0 53 .03 17.66-.08 35.35 0 53s-.17 35.37 0 53c.17 17.63-.37 35.42 0 53s-.82 35.53 0 53-1.81 35.77 0 53c1.81 17.23-4.02 36.3 0 53 1.06 2.64 2.19 3.37 4 4 18.63 3.34 39.04-1.25 58 0s38.94 0 58 0h292c18.59 0 37.43.29 56 0s37.52.77 56 0c18.48-.77 37.74 1.77 56 0 18.26-1.77 38.22 3.96 56 0 .26-.24.67-.83 1-1 5.94-2.95.64-18.14 2-25 1.36-6.86-.61-18.96 0-27s-.28-18.42 0-27c.28-8.58-.12-18.15 0-27 .12-8.85-.05-17.99 0-27 .05-9.01-.03-18.94 0-28 .03-9.06-.01-17.97 0-27 .01-9.03-.01-17.98 0-27s0-17.97 0-27V246c0-9.05.01-17.9 0-27-.01-9.1.02-18.91 0-28s.05-17.97 0-27c-.05-9.03.12-18.01 0-27-.12-8.99.26-18.05 0-27s.59-18.13 0-27c-.59-8.87 1.3-18.29 0-27s2.77-19.74 0-28c-13.68-6.02-31.92-2.26-49-3-17.08-.74-36.5.34-54 0s-35.29.15-53 0-36.17.07-54 0-36.15.03-54 0-35.14.01-53 0-36.11.01-54 0-36.15.01-54 0-35.19.01-53 0c-17.81-.01-36.24.01-54 0-17.76-.01-36.46.03-54 0s-34.33.06-51 0c-.54 1.41-1.44 2.59-2 4m329 86c4.55 19.38 12.14 36.46 26.3 53.7 14.16 17.23 10.48 46.7.78 65.38-9.71 18.67-19.04 38.67-34.08 52.92 6.22-18.52 4.72-40.34-4.92-58.08-9.65-17.73-24.95-32.13-25.08-51.92-.32-3.41-1.33-7.87-1-12 1.9-23.57 17.65-38.26 31-58 1.64-2.43 4.07-5.53 7-6v14m-97 119c2.42-3.53 4.84-7.55 7-11 7.14-11.42 14.84-21.01 23-29-2.85 18.59-10.93 38.75-3.69 56.7 7.24 17.95 20.75 31.02 30 48 9.24 16.97 5.86 40.35-3.24 57.37-9.09 17.02-18.25 33.18-32.07 45.93-2.13-20.02-8.49-43.11-22.92-60.08-14.44-16.96-27.94-39.59-20.75-61.59 7.18-22 11.37-27.45 22.67-46.33m162-23c-.38 6.17-.38 12.83 0 19 1.84 30.09 33.28 55.92 30.07 87.07-3.2 31.16-22.5 59.57-42.07 82.93.73-20.51-1.62-42.46-10.93-61.07-9.31-18.62-24.3-35.65-22.07-56.93 2.23-21.28 7.76-30.16 14.39-43.75 6.63-13.59 22.13-33.24 30.61-44.25 3.26 4.62.19 11.97 0 17M124 419c24.7-4.43 54.28-1 80-1h286c30.39 0 63.59-2.84 93 1 10.17.09 18.15 8.97 18 19 2.33 23.04 1.46 48.11 1 72-.46 23.89 2.1 49.16 0 73-.41 4.69-1.81 9.16-4 13-1.82 3.21-2.91 4.11-6 6-4.31 2.64-7.12 3.1-12 3-12.24 1.13-26.04 1-39 1H170c-15.02 0-32.19 2.36-47 0-2.95-.47-5.98-2.17-8-4-3.08-1.95-4.09-2.88-6-6-2.49-4.07-3.09-6.39-3-11-1.43-15.39-1.46-31.77-1-48 .46-16.23-1.16-33.71 0-50s-2.63-33.9 0-50c1.42-8.69 9.78-17.61 19-18Z" fill="none" fill-opacity="0" stroke="#000" stroke-width=".3"/><path d="M671 678c4.73.95 2.81-16.78 3-23 .19-6.22-.09-19.21 0-27 .09-7.79-.04-18.44 0-27 .04-8.56-.02-19.14 0-28s-.01-18.02 0-27 0-17.92 0-27V245c0-9.13.01-17.91 0-27s.02-17.88 0-27c-.02-9.12.04-18.9 0-28-.04-9.1.1-17.96 0-27s.21-18 0-27 .45-19.15 0-28c-.45-8.85 1.03-18.54 0-27s2.76-18.91-1-26c2.77 8.26-1.3 19.29 0 28s-.59 18.13 0 27c.59 8.87-.26 18.05 0 27s-.12 18.01 0 27c.12 8.99-.05 17.97 0 27 .05 9.03-.02 17.91 0 27s-.01 18.9 0 28c.01 9.1 0 17.95 0 27v190c0 9.03.01 17.98 0 27s.01 17.97 0 27c-.01 9.03.03 17.94 0 27-.03 9.06.05 18.99 0 28-.05 9.01.12 18.15 0 27-.12 8.85.28 18.42 0 27-.28 8.58.61 18.96 0 27s1.36 20.14 0 27c-1.36 6.86 3.94 22.05-2 25Z" fill="none" fill-opacity="0" stroke="#FFF" stroke-opacity=".33" stroke-width=".3"/><path d="M33 40c0-.04 1 0 1 0 0-3.35-.78-7.76 0-11-1.27 3.17-1 7.13-1 11Z" fill="none" fill-opacity="0" stroke="#FFF" stroke-opacity=".23" stroke-width=".3"/><path d="M34 675c-4.02-16.7 1.81-35.77 0-53-1.81-17.23.82-35.53 0-53s.37-35.42 0-53 .17-35.37 0-53c-.17-17.63.08-35.35 0-53s.03-35.34 0-53c-.03-17.66.02-35.34 0-53-.02-17.66.01-35.35 0-53s0-35.36 0-53V40s-1-.04-1 0v159c0 17.66-.01 35.34 0 53 .01 17.66-.02 35.34 0 53 .02 17.66-.04 35.35 0 53s-.09 35.37 0 53c.09 17.63-.19 35.42 0 53s-.42 35.52 0 53c.42 17.48-.93 35.74 0 53 .93 17.26-2.06 36.24 0 53 2.06 16.76-5.02 36.95 1 52Z" fill="none" fill-opacity="0" stroke="#FFF" stroke-opacity=".09" stroke-width=".3"/><path d="M356 107c1.51-1.84 4.29-3.41 6-5 .64 4.17-1.29 9.66 1 13v-14c-2.93.47-5.36 3.57-7 6Z" fill="none" fill-opacity="0" stroke="#FFF" stroke-opacity=".32" stroke-width=".3"/><path d="M356 107c-13.35 19.74-29.1 34.43-31 58 .11 3.25 1.08 8.02 1 12 .13 19.79 15.43 34.19 25.08 51.92 9.64 17.74 11.14 39.56 4.92 58.08 15.04-14.25 24.37-34.25 34.08-52.92 9.7-18.68 13.38-48.15-.78-65.38-14.16-17.24-21.75-34.32-26.3-53.7-2.29-3.34-.36-8.83-1-13-1.71 1.59-4.49 3.16-6 5Z" fill="none" fill-opacity="0" stroke="#000" stroke-opacity=".02" stroke-width=".3"/><path d="M326 177c.08-3.98-.89-8.75-1-12-.33 4.13.68 8.59 1 12Z" fill="none" fill-opacity="0" stroke="#FFF" stroke-opacity=".31" stroke-width=".3"/><path d="M812 171h-31c11.17 59.11 22.5 115.87 33 175h37c10.61-59.12 22.04-116.23 33-175h-33c-4.11 40.23-12.6 79.13-18 119-8.39-39.35-14.01-79.2-21-119ZM1037 171h-33c1.67 57.72 1.67 117.26 0 175h33V171Z" fill="none" fill-opacity="0" stroke="#000" stroke-opacity=".98" stroke-width=".3"/><path d="M1094 171h-33c1.67 57.72 1.67 117.26 0 175h33v-49c5.9-1.9 5.67-9.29 10-12 6.04 21.29 15.47 39.38 21 61h36c-10.69-26.07-23.05-51.01-32-76 12.31-15.49 21.82-32.22 32-49h-37c-8.49 17.71-19.53 31.61-30 48v-98Z" fill="none" fill-opacity="0" stroke="#000" stroke-opacity=".99" stroke-width=".3"/><path d="M1410 171h-33v175h33c2.04-21.16-6.45-47.72 10-61 5.53 21.81 15.04 39.69 21 61h36c-12.39-25.69-20.48-49.3-33-74 12.22-17.31 21.66-33.21 33-51h-37c-3.94 8.41-9.19 16.27-14.43 24.23-5.24 7.96-10.11 16.31-16.57 23.77.66-32.58-1.33-65.83 1-98Z" fill="none" fill-opacity="0" stroke="#000" stroke-opacity=".98" stroke-width=".3"/><path d="M1717 171h-33c1.67 57.72 1.66 117.26 0 175h33c-2.32-15.8-.34-32.75-1-49 5.14-.42 6.63-9.79 11-12 4.75 21.56 15.27 39.13 20 60 11.81 2.3 24.75.36 37 1-12.27-25.12-21.57-49.95-33-75 12.52-15.58 21.09-32.83 33-50-11.73 1.66-25.25 1.66-37 0-3.72 9.02-10.06 15.88-15.2 23.75-5.14 7.87-8.37 16.67-15.8 23.25.66-32.25-1.33-65.17 1-97Z" fill="none" fill-opacity="0" stroke="#000" stroke-opacity=".99" stroke-width=".3"/><path d="M273 223c-1.38 2.96-4.13 7.65-7 11-11.3 18.88-15.49 24.33-22.67 46.33-7.19 22 6.31 44.63 20.75 61.59 14.43 16.97 20.79 40.06 22.92 60.08 13.82-12.75 22.98-28.91 32.07-45.93 9.1-17.02 12.48-40.4 3.24-57.37-9.25-16.98-22.76-30.05-30-48-7.24-17.95.84-38.11 3.69-56.7-8.16 7.99-15.86 17.58-23 29ZM428 230c-1.14-5.95-1.13-13.12 0-19 .19-5.03 3.26-12.38 0-17-8.48 11.01-23.98 30.66-30.61 44.25-6.63 13.59-12.16 22.47-14.39 43.75-2.23 21.28 12.76 38.31 22.07 56.93 9.31 18.61 11.66 40.56 10.93 61.07 19.57-23.36 38.87-51.77 42.07-82.93 3.21-31.15-28.23-56.98-30.07-87.07Z" fill="none" fill-opacity="0" stroke="#000" stroke-opacity=".02" stroke-width=".3"/><path d="M678 353c0-.04 1 0 1 0V204s-1-.04-1 0v149Z" fill="none" fill-opacity="0" stroke="#FFF" stroke-opacity=".33" stroke-width=".3"/><path d="M428 230c-.38-6.17-.38-12.83 0-19-1.13 5.88-1.14 13.05 0 19Z" fill="none" fill-opacity="0" stroke="#FFF" stroke-opacity=".32" stroke-width=".3"/><path d="M982 346c-4.67-14.42-1.14-36.77-2-54-.86-17.23 2.23-41.26-3.87-53.08s-13.59-18.53-26.88-19.72c-13.3-1.2-26.49.31-36 9.05-9.51 8.73-14.22 20.79-14.25 34.75 9.18.55 14.65-2.44 23.98.02 9.33 2.47 7.54-8.33 8.44-14.25.91-5.92 11.23-7.51 14.78-3.02 3.55 4.49.59 16.31 1.8 23.25-8.55 1.85-15.48 5.37-22.32 8.68-6.84 3.31-15.84 8.91-21.49 16.07-5.65 7.16-5.72 12.94-6.21 23.22-.49 10.29 2.19 16.9 8.27 23.78 6.08 6.88 15.38 7.04 25 6.51 9.61-.52 13.22-12.63 19.75-16.26-1.61 5.02 1.92 10.12 1 15h30m-34-62v35c-4.73 3.5-8.52 6.96-15 6-13.93-15.19-1.04-34.72 15-41ZM1254 286c.42-21.14.82-47.46-12.75-58.2-13.57-10.74-31.9-11.44-49-3.99-17.09 7.45-21.56 25.24-20.25 47.19 1.31 21.95-3.97 52.06 10.25 64.75 14.22 12.7 29.34 15.6 48.52 10.02 19.18-5.58 24.48-27.1 23.23-47.77h-31c4.39 10.87-1.18 31.54-13.08 26.13s-4.63-26.66-6.92-39.13c16.47 2.32 34.09.34 51 1m-30-16c-6.44-1.64-14.58-1.64-21 0 .55-11.35-.95-21.8 7-28 14.85-1.28 14.17 14.82 14 28ZM1356 346c-2.43-19.39-4.4-47.56-3-70 1.4-22.44.87-39.92-13.25-49.75-14.11-9.84-32.29-8.77-46.83-2.38S1274.53 247.9 1274 263c10.63-1.85 19.99.82 31 1-.19-8.91-.93-15.94 6-21 2.04 1.29 4.97 1.52 7 0 6.17 6.54 4.85 16.12 5 26-14.38 3.95-32.63 10.79-44.03 23.97-11.41 13.18-8.8 34.88 2.78 47.28 11.58 12.39 37.48 8.7 40.25-9.25 5.26 1.59 3.8 9.94 4 15h30m-33-63c-2.25 12.4 6.14 36.7-7.7 41.3-13.84 4.6-14.91-12.83-12.17-21.22 2.74-8.38 11.24-16.09 19.87-20.08Z" fill="none" fill-opacity="0" stroke="#000" stroke-opacity=".98" stroke-width=".3"/><path d="M1521 219c-14.97 1.86-24.93 11.9-30.29 23.7-5.35 11.8-.67 38.64-2.71 55.3-2.04 16.66 2.63 33.55 13.25 42.61 10.62 9.05 25.4 7.19 39.52 5.6 14.12-1.59 21.52-9.05 26.97-21.46 5.44-12.41 2.35-40.13 3.26-56.75.91-16.62-2.25-30.84-12.75-39.25-10.49-8.42-21.11-11.75-37.25-9.75m4 107c-11.61-11.49-2.85-35.81-6-51-3.15-15.19 1.6-37.95 14.3-32.29 12.7 5.67 3.72 30.47 5.7 45.29s3.87 40.4-14 38Z" fill="none" fill-opacity="0" stroke="#000" stroke-opacity=".99" stroke-width=".3"/><path d="M1665 252c-2.81-10.99-10.13-24.34-21.25-29.61-11.11-5.26-24.27-4.41-36.72 1.64-12.44 6.05-18.15 20.47-17.09 33.89 1.05 13.41 13.67 22.59 23.31 31.83 9.63 9.25 27 18.72 22.14 31.5-4.85 12.77-27.89-4.78-25.39-15.25-9.1 4.3-14.9 5.47-23 10 5.26 21.35 23.13 32.83 47.25 31.6 24.11-1.22 39.91-26.81 29.05-47.9-10.86-21.09-39.55-29.98-45.3-51.7 1.98-1.38 4.84-3.36 5-6 11.02-.65 18.98 9.44 20 19 8.19-2.81 13.69-7.07 22-9ZM1876 286c1.66-21.31.47-47.15-13.25-57.75-13.71-10.6-30.98-12.96-49.45-4.95-18.48 8-19.25 32.75-19.3 53.7-.05 20.95-1.4 51.38 12.75 62.24s31.38 10.69 48.95 5.47c17.57-5.22 21.21-27.08 20.3-46.71h-31c2.51 9.62.57 19.35-3 26-22.9 5.29-13.17-22.74-15-38h49m-30-16h-20c1.28-11.65-2.91-26.64 9.03-27.02 11.93-.38 11.69 15.54 10.97 27.02ZM1982 346c-1.74-22.11-1.12-53.23-1-75 .12-21.77 3.71-41.27-12.1-49.88-15.81-8.62-27.39 4.99-39.9 12.88 2.04-3.88.55-8.7 1-13h-33v125h33c1.3-33.46-2.62-68.61 2-101 4.41-.32 9.75-3.6 15-2 4.52 14.55 1.2 31.86 2 49s-.6 36.64 0 54h33Z" fill="none" fill-opacity="0" stroke="#000" stroke-opacity=".98" stroke-width=".3"/><path d="M266 234c2.87-3.35 5.62-8.04 7-11-2.16 3.45-4.58 7.47-7 11Z" fill="none" fill-opacity="0" stroke="#E3E3E3" stroke-opacity=".29" stroke-width=".3"/><path d="M1525 326c17.87 2.4 15.98-23.18 14-38-1.98-14.82 7-39.62-5.7-45.29-12.7-5.66-17.45 17.1-14.3 32.29 3.15 15.19-5.61 39.51 6 51Z" fill="none" fill-opacity="0" stroke="#000" stroke-opacity=".02" stroke-width=".3"/><path d="M1224 270c.17-13.18.85-29.28-14-28-7.95 6.2-6.45 16.65-7 28 6.42-1.64 14.56-1.64 21 0Z" fill="none" fill-opacity="0" stroke="#000" stroke-opacity=".07" stroke-width=".3"/><path d="M1846 270c.72-11.48.96-27.4-10.97-27.02-11.94.38-7.75 15.37-9.03 27.02h20Z" fill="none" fill-opacity="0" stroke="#000" stroke-opacity=".05" stroke-width=".3"/><path d="M1323 283c-8.63 3.99-17.13 11.7-19.87 20.08-2.74 8.39-1.67 25.82 12.17 21.22 13.84-4.6 5.45-28.9 7.7-41.3Z" fill="none" fill-opacity="0" stroke="#000" stroke-opacity=".06" stroke-width=".3"/><path d="M948 284c-16.04 6.28-28.93 25.81-15 41 6.48.96 10.27-2.5 15-6v-35Z" fill="none" fill-opacity="0" stroke="#000" stroke-opacity=".02" stroke-width=".3"/><path d="M678 397c0-.04 1 0 1 0v-44s-1-.04-1 0v44Z" fill="none" fill-opacity="0" stroke="#FFF" stroke-opacity=".21" stroke-width=".3"/><path d="M678 566c0-.04 1 0 1 0V397s-1-.04-1 0v169Z" fill="none" fill-opacity="0" stroke="#FFF" stroke-opacity=".33" stroke-width=".3"/><path d="M105 437c-1.48 23.51 2.26 48.52 1 73-1.26 24.48.49 50.38 0 75-.09 4.61.51 6.93 3 11 1.61 1.83 4.24 4.4 6 6 2.02 1.83 5.05 3.53 8 4 14.36.91 31.78-1 47-1h371c12.99 0 26.01-.26 39 0 4.88.1 7.69-.36 12-3 1.73-1.53 4.59-4.28 6-6 2.19-3.84 3.59-8.31 4-13-.42-47.45-1.7-96.8-1-145 .15-10.03-7.83-18.91-18-19-30.71-.27-63.16 1.89-93-1H204c-25.78 2.5-53.49-.11-80 1-9.22.39-17.58 9.31-19 18m228 53c4.19 20.65 1.43 48.21 0 69 .17 3.81 2.62 10.91 2 14-.65 3.26-6.02 1.8-11 2-4.98.2-10.93-.15-16 0v-3c-1.2-3.08 1.22-9.27-2-12-8.54 24.71-44.1 17.53-47-6-1.07-3.95-1.15-8.1 0-12 2.81-9.52 7.97-17.38 16.08-23.92 8.11-6.54 19.21-7.17 26.92-13.08 3.41-3.62 2.16-11.71 2-17-.15-4.87-4.39-9.38-10.67-6.67-6.28 2.71-3.5 10.24-4.33 14.67-.24 1.29.19 2.7 0 4-3.83-.63-8.99 1.28-12-1-4.15-.23-7.04.01-11 0-2-.01-4 0-6 0 .53-2.19-1.14-5.62 1-7 2.7-11.25 6.82-24.4 19.08-28.92 12.25-4.53 24.65-4.99 36-.16 11.35 4.84 16.17 16.68 16.92 27.08m96-3c4.34 19.63 1.86 46.3 1 67-.24 5.81 1.29 12.48 1 18-.01.19 1.91 2.11 1 3h-28c.28-1.28-.76-3.5 1-4-.54-3.86-1.83-7.76-2-12-6.36 14.07-23.53 22.89-36.69 12.7-13.17-10.2-14.18-28.34-6.31-41.7 1.65-4.19 6.16-9.03 10-11 9.29-6.7 20.16-10.98 31-14-.87-7.73 3.72-22.66-7.01-23.99-10.73-1.33-9.36 11.52-8.99 17.99-2.18 2.78-8.71.33-11 0-6.18-.24-10.88-.62-17-1-2.3-20.5 13.72-36.21 33-38 19.28-1.79 36.98 7.66 39 27m67 89c-4.07.88-8.01.77-12 0-5.87-.36-13.76-3.06-19-7-3.41-1.85-6.72-5.33-8-9-2.3-4.56-4.63-10.4-5-15-3.24-14.95-3.17-40.11 0-55 3.82-17.95 17.16-29.07 35.08-30.07 17.91-1 34.35 6.11 38.85 24.14 4.49 18.04 1.63 42.85 1.72 60.62.08 17.78-16.95 30.12-31.65 31.31m-274-2c-5.19 1.72-12.02 1.12-18 1-5.98-.12-13.16 2.24-15-4-5.1-17.29-5.39-36.79-10.32-54.68-4.94-17.89-6.43-36.86-10.68-55.32h28c3.4 25.28 5.25 50.37 11 75 2.58-25 7.04-49.65 9-75 8.84 2.28 18.75.37 28 1-6.84 37.33-16.27 74.76-22 112Z" fill="none" fill-opacity="0" stroke="#000" stroke-opacity=".01" stroke-width=".3"/><path d="M124 419c26.51-1.11 54.22 1.5 80-1-25.72 0-55.3-3.43-80 1ZM583 419c-29.41-3.84-62.61-1-93-1 29.84 2.89 62.29.73 93 1Z" fill="none" fill-opacity="0" stroke="#FFF" stroke-opacity=".09" stroke-width=".3"/><path d="M1498 434h-33v25h33v-25Z" fill="none" fill-opacity="0" stroke="#000" stroke-opacity=".97" stroke-width=".3"/><path d="M1767 434h-33v25h33v-25Z" fill="none" fill-opacity="0" stroke="#000" stroke-opacity=".96" stroke-width=".3"/><path d="M106 585c.49-24.62-1.26-50.52 0-75 1.26-24.48-2.48-49.49-1-73-2.63 16.1 1.16 33.71 0 50s.46 33.77 0 50c-.46 16.23-.43 32.61 1 48Z" fill="none" fill-opacity="0" stroke="#FFF" stroke-opacity=".33" stroke-width=".3"/><path d="M602 583c2.1-23.84-.46-49.11 0-73s1.33-48.96-1-72c-.7 48.2.58 97.55 1 145Z" fill="none" fill-opacity="0" stroke="#FFF" stroke-opacity=".11" stroke-width=".3"/><path d="M1349 442h-33c.65 12.58-1.31 25.83 1 38-4.28-.48-9.13 1.06-13-1v22c3.88-2.04 8.7-.55 13-1-.26 27.02-4.21 62.24 1.69 86.3 5.9 24.07 32.71 18.56 51.31 17.7v-26c-4.73 1.79-10.61-.12-15 1-8.84-9.11-5.61-22.43-6-36-.39-13.57.29-29.24 0-43 5.83 2.2 12.73.43 19 1-1.64-6.75-1.64-15.22 0-22h-19v-37Z" fill="none" fill-opacity="0" stroke="#000" stroke-opacity=".98" stroke-width=".3"/><path d="M1425 442h-32v38c-4.28-.48-9.13 1.06-13-1v22c3.88-2.04 8.7-.55 13-1 1.59 26.69-3.23 65.4 2.61 88.25 5.84 22.84 31.86 15.33 51.39 15.75v-26c-4.8 1.31-10.33-1.02-15 1-1-1.71-2.78-4.05-5-4-4.27-23.19-.95-50.21-2-75 5.84 2.2 12.73.43 19 1v-22c-6.26.58-13.15-1.21-19 1v-38Z" fill="none" fill-opacity="0" stroke="#000" stroke-opacity=".99" stroke-width=".3"/><path d="M1920 442h-34v37h-12v22c4.28-.48 9.13 1.06 13-1 1.5 27.12-2.93 65.58 2.07 87.92 5 22.33 32.02 16.47 50.93 16.08v-26c-17.96 5.16-22.47-5.63-21-23 1.47-17.37-1.1-37.39 0-55 5.84 2.2 12.73.43 19 1v-22h-18v-37Z" fill="none" fill-opacity="0" stroke="#000" stroke-opacity=".98" stroke-width=".3"/><path d="M261 492c-.12 1.99.09 4.01 0 6 1.57.39 4.22-.94 5 1 3.96.01 6.85-.23 11 0 3.66.2 7.34-.15 11 0 .11-1-.47-2.73 1-3 .83-4.43-1.95-11.96 4.33-14.67 6.28-2.71 10.52 1.8 10.67 6.67.91 5.78 2.93 13.22-2 17-7.71 5.91-18.81 6.54-26.92 13.08-8.11 6.54-13.27 14.4-16.08 23.92-.57 3.49-.43 8.48 0 12 2.9 23.53 38.46 30.71 47 6 3.22 2.73.8 8.92 2 12 3.69 5.84 21.67.62 27 1 .62-3.09-1.83-10.19-2-14-1.01-22.91 1.65-46.13 0-69-.75-10.4-5.57-22.24-16.92-27.08-11.35-4.83-23.75-4.37-36 .16C267.82 467.6 263.7 480.75 261 492m44 57c-2.67 7.32-15.33 8.03-17.7 2.7-2.37-5.34-2.21-14.55.83-18.62S296.85 520.2 302 519c.56-.13 1.81-1.8 3-1v31ZM374 499c3.66.14 7.34-.1 11 0-.37-6.47-1.74-19.32 8.99-17.99 10.73 1.33 6.14 16.26 7.01 23.99-10.84 3.02-21.71 7.3-31 14-3.88 2.8-7.68 6.79-10 11-7.87 13.36-6.86 31.5 6.31 41.7 13.16 10.19 30.33 1.37 36.69-12.7.17 4.24 1.46 8.14 2 12 .43.76-.34 2.2 0 3 8.2-1.28 20.23 2.59 26-2 .29-5.52-1.24-12.19-1-18-1.38-21.42.85-44.98-1-67-2.02-19.34-19.72-28.79-39-27-19.28 1.79-35.3 17.5-33 38 6.12.38 10.82.76 17 1m10 34c2.34-5.08 5.25-8.16 10-11 2.08-1.24 3.76-2.79 7-3 .06 7.48-.07 16.7 0 24 .07 7.3-4.03 10.93-8.13 12.92-4.1 1.98-9.16-5.44-10.87-5.92 1.49-5.94-.46-12.9 2-17ZM452 490c-1.33 17.59-1.42 37.42 0 55 .37 4.6 2.7 10.44 5 15 1.86 3.67 4.87 6.65 8 9 5.24 3.94 13.13 6.64 19 7 3.87.24 8.14.31 12 0 14.7-1.19 31.73-13.53 31.65-31.31-.09-17.77 2.77-42.58-1.72-60.62-4.5-18.03-20.94-25.14-38.85-24.14-17.92 1-31.26 12.12-35.08 30.07m46-2c1.6 8.92 1.53 19.23 1 29s1.49 21.25 0 31c-1.76 11.53-14.87 10.28-16.79 2.43-1.91-7.85-1.17-20.05-1.21-31.43-.04-11.38 0-24.13 0-34 1.16-2.16 5.19-2.78 5-6 2.31 1.55 5.68 1.38 8 0 2.75 3.18 4.62 5.83 4 9Z" fill="none" fill-opacity="0" stroke="#000" stroke-opacity=".99" stroke-width=".3"/><path d="M189 571c.36.75 1.61 1.65 1 3h32c5.73-37.24 15.16-74.67 22-112-9.25-.63-19.16 1.28-28-1-1.96 25.35-6.42 50-9 75-5.75-24.63-7.6-49.72-11-75h-28c4.25 18.46 5.74 37.43 10.68 55.32 4.93 17.89 5.22 37.39 10.32 54.68Z" fill="none" fill-opacity="0" stroke="#000" stroke-width=".3"/><path d="M869 604c-5.06-15.56-.55-34.7-2-53-1.45-18.3 3.38-40.2-3.23-53.77-6.61-13.57-16.44-18.81-30.03-19.63-13.58-.82-26.27.8-34.99 10.15-8.71 9.35-11.93 18.85-12.75 33.25 10.33-1.11 21.87.3 32 1-1.19-8.6-1.24-21.32 8.92-20.93 10.16.38 9.13 16.07 9.08 25.93-17.16 3.78-29.13 10.35-42.25 22.75-13.12 12.4-12.64 34.89 2 49.5 14.63 14.62 36.23 2.61 41.25-12.25.3 6.08 2.54 10.95 2 17 9.4-1.65 20.58-1.66 30 0m-33-63v35c-5.26 4.89-8.89 7.69-16 7-13.99-15.44.19-35.87 16-42Z" fill="none" fill-opacity="0" stroke="#000" stroke-opacity=".98" stroke-width=".3"/><path d="M973 492c-4.5-8.9-13.22-15.82-24.77-14.79-11.55 1.03-18.13 4.87-27.23 12.79.42-3.62-.97-7.78 1-11h-33v125h33c-2.33-32.8-.34-66.76-1-100 5.8-1.87 9.92-5.53 18-5 6.49 12.25 1.97 30.51 3 48s-.78 39.13 0 57h33c.02-33.53-.03-68.17 0-101 5.11-1.38 10.55-4.4 17-4 7.11 14.03 3.49 31.52 4 49 .51 17.48.45 38.66-1 56h32c-1.86-22.76-.96-55.69-1-78-.04-22.31 3.45-38.91-12.7-46.29-16.15-7.38-30.69.52-40.3 12.29ZM1134 492c-5.11-7.78-12.28-16.02-24.78-14.78-12.49 1.24-16.56 3.82-26.22 10.78v-9c-10.4 1.66-22.58 1.66-33 0v125h33c.39-17.67-.52-45.32 0-62s-5.27-42.58 11.33-42.33c16.59.25 6.51 26.84 8.67 43.33s-1.62 43.55 0 61h32c-.31-13.6.42-28.53 0-42-.42-13.47.82-27.94 0-41-.82-13.06.5-21.46 11.78-21.78 11.27-.32 10.21 10.58 10.22 22.78.01 12.2.18 29.18 0 42s.96 27.49-1 40h32c-1.64-32.91 2.8-78.8-1.41-108.25-4.21-29.44-43.23-19.76-52.59-3.75Z" fill="none" fill-opacity="0" stroke="#000" stroke-opacity=".97" stroke-width=".3"/><path d="M1292 604c-3.28-25.53-4.01-66.46-2.93-93.92 1.08-27.46-23.75-34.61-46.82-31.88-23.07 2.72-32.22 22.01-32.25 42.8 10.52-1.77 20.18.64 31 1 .13-8.49-1.01-15.87 6-21 14.57-1.7 11.63 13.5 12 26-12.4 4.78-23.31 5.82-34.08 14.92s-18.71 21.13-17.69 34.85c1.01 13.72 9.96 25.24 22.52 28.43 12.56 3.19 26.61-7.68 31.25-17.2.53 6.21.94 10.27 2 16h29m-33-63c-2.05 13.03 5.67 34.97-7.1 40.91-12.77 5.93-16.22-12.56-13.7-20.16 2.52-7.59 12.95-15.36 20.8-20.75ZM1554 477c-15.01 2.16-30.2 12.58-31.87 27.08-1.66 14.5-2.25 49.75-1.52 67.17.72 17.42 10.1 27.42 24.64 32.16 14.54 4.74 37.05 3.04 48-9.16 10.96-12.19 11.84-30.14 10.75-51.25-1.09-21.1 2.56-40.38-7.9-52.1-10.46-11.72-25.61-16.28-42.1-13.9m4 22c9.11.54 14.38 2.52 13.79 13.23-.6 10.71 1.59 31.09.21 41.77-1.38 10.68 3.69 24.4-5.08 28.92-8.78 4.52-15.93-2.85-13.99-13 1.94-10.14-.96-30.67.07-41.92s-3.36-21.48 5-29ZM1658 595c10.24 10.64 32.1 15.5 44.29 2.3 12.18-13.2 8.68-31.81 9.71-55.3 1.03-23.49 1.39-45.57-11.75-58.25-13.14-12.67-30.13-5.2-42.25 5.25.38-3.3-.9-7.1 1-10h-33c1.66 54.71 1.67 111.26 0 166h33c-2.32-16.14-.34-33.42-1-50m1-13c-.7-25.74 1.36-54.01-1-80 6.62-4.85 16.42-7.17 19.8 2.25 3.38 9.42 1.83 23.93 2.2 35.75.37 11.82.02 26.33-1.8 36.25-1.82 9.91-12.67 7.97-19.2 5.75ZM1863 510c-4.12-16.07-13.85-30.65-30.3-32.65-16.45-1.99-35.61 4.37-42.49 19.42-6.88 15.04-.01 31.53 11.87 43.15 11.89 11.62 32.58 21.88 32.92 40.08-12.69 10.18-25.35-4.98-27-16-7.87 3.47-15.32 7.19-23 9 4.76 13.4 13.11 27.91 29.75 31.8 16.65 3.89 39.23-1.73 47.06-16.55 7.83-14.81 1.83-33.11-11.06-45-12.9-11.88-31.88-20.93-33.75-39.25 11.44-10.38 24.25 3.95 24 15 7.62-2.41 13.6-6.47 22-9Z" fill="none" fill-opacity="0" stroke="#000" stroke-opacity=".98" stroke-width=".3"/><path d="M2040 570v-61c-3.95-17.29-17.1-30.34-35.3-31.65-18.21-1.31-44.16 5.44-46.49 24.42-2.33 18.97-3.37 55.83-.92 76.93 2.44 21.1 27.52 28.35 46.96 26.9 19.43-1.44 34.97-16.42 35.75-35.6m-46-71c14.43-1.04 12.98 8.65 14 22 1.02 13.35-2.14 37.12-.33 49.67 1.81 12.55-13.36 18.27-17.8 8.41-4.44-9.86-1.08-28.74-1.87-42.08s-1.68-29.02 6-38Z" fill="none" fill-opacity="0" stroke="#000" stroke-opacity=".99" stroke-width=".3"/><path d="M499 548c.5-8.88-1.52-19.17-1-29 .52-9.83.42-21.08 0-31 .62-3.17-1.25-5.82-4-9-2.32 1.38-5.69 1.55-8 0 .19 3.22-3.84 3.84-5 6 0 9.87-.04 22.62 0 34 .04 11.38-.7 23.58 1.21 31.43 1.92 7.85 15.03 9.1 16.79-2.43Z" fill="none" fill-opacity="0" stroke="#000" stroke-opacity=".02" stroke-width=".3"/><path d="M1498 479h-33c1.67 41.05 1.66 83.92 0 125h33c-1.66-41.05-1.67-83.92 0-125Z" fill="none" fill-opacity="0" stroke="#000" stroke-opacity=".99" stroke-width=".3"/><path d="M1767 479h-33c-.01 41.67.01 83.33 0 125h33V479Z" fill="none" fill-opacity="0" stroke="#000" stroke-opacity=".98" stroke-width=".3"/><path d="M430 554c.86-20.7 3.34-47.37-1-67 1.85 22.02-.38 45.58 1 67Z" fill="none" fill-opacity="0" stroke="#FFF" stroke-opacity=".33" stroke-width=".3"/><path d="M302 505c4.93-3.78 2.91-11.22 2-17 .16 5.29 1.41 13.38-2 17Z" fill="none" fill-opacity="0" stroke="#FFF" stroke-opacity=".24" stroke-width=".3"/><path d="M499 548c1.49-9.75-.53-21.23 0-31s.6-20.08-1-29c.42 9.92.52 21.17 0 31-.52 9.83 1.5 20.12 1 29Z" fill="none" fill-opacity="0" stroke="#FFF" stroke-opacity=".23" stroke-width=".3"/><path d="M333 559c1.43-20.79 4.19-48.35 0-69 1.65 22.87-1.01 46.09 0 69Z" fill="none" fill-opacity="0" stroke="#FFF" stroke-opacity=".21" stroke-width=".3"/><path d="M452 545c-1.42-17.58-1.33-37.41 0-55-3.17 14.89-3.24 40.05 0 55Z" fill="none" fill-opacity="0" stroke="#FFF" stroke-opacity=".4" stroke-width=".3"/><path d="M266 499c-.78-1.94-3.43-.61-5-1 .09-1.99-.12-4.01 0-6-2.14 1.38-.47 4.81-1 7 2 0 4-.01 6 0Z" fill="none" fill-opacity="0" stroke="#FFF" stroke-opacity=".33" stroke-width=".3"/><path d="M277 499c3.01 2.28 8.17.37 12 1 .19-1.3-.24-2.71 0-4-1.47.27-.89 2-1 3-3.66-.15-7.34.2-11 0Z" fill="none" fill-opacity="0" stroke="#FFF" stroke-opacity=".25" stroke-width=".3"/><path d="M1659 582c6.53 2.22 17.38 4.16 19.2-5.75 1.82-9.92 2.17-24.43 1.8-36.25-.37-11.82 1.18-26.33-2.2-35.75-3.38-9.42-13.18-7.1-19.8-2.25 2.36 25.99.3 54.26 1 80Z" fill="none" fill-opacity="0" stroke="#000" stroke-opacity=".04" stroke-width=".3"/><path d="M385 499c-3.66-.1-7.34.14-11 0 2.29.33 8.82 2.78 11 0Z" fill="none" fill-opacity="0" stroke="#FFF" stroke-opacity=".24" stroke-width=".3"/><path d="M1558 499c-8.36 7.52-3.97 17.75-5 29-1.03 11.25 1.87 31.78-.07 41.92-1.94 10.15 5.21 17.52 13.99 13 8.77-4.52 3.7-18.24 5.08-28.92 1.38-10.68-.81-31.06-.21-41.77.59-10.71-4.68-12.69-13.79-13.23ZM1994 499c-7.68 8.98-6.79 24.66-6 38s-2.57 32.22 1.87 42.08c4.44 9.86 19.61 4.14 17.8-8.41-1.81-12.55 1.35-36.32.33-49.67-1.02-13.35.43-23.04-14-22Z" fill="none" fill-opacity="0" stroke="#000" stroke-opacity=".02" stroke-width=".3"/><path d="M302 519c.91-1.08 2.72 9.38 2 13-.72 3.62-.29 13.73 1 17v-31c-1.19-.8-2.44.87-3 1Z" fill="none" fill-opacity="0" stroke="#F5F5F5" stroke-opacity=".23" stroke-width=".3"/><path d="M360 530c2.32-4.21 6.12-8.2 10-11-3.84 1.97-8.35 6.81-10 11Z" fill="none" fill-opacity="0" stroke="#E5E5E5" stroke-opacity=".34" stroke-width=".3"/><path d="M305 549c-1.29-3.27-1.72-13.38-1-17 .72-3.62-1.09-14.08-2-13-5.15 1.2-10.83 10.01-13.87 14.08-3.04 4.07-3.2 13.28-.83 18.62 2.37 5.33 15.03 4.62 17.7-2.7ZM394 522c-3.28 2.95-7.71 7.57-10 11-2.46 4.1-.51 11.06-2 17 1.71.48 6.77 7.9 10.87 5.92 4.1-1.99 8.2-5.62 8.13-12.92-.07-7.3.06-16.52 0-24-3.24.21-4.92 1.76-7 3Z" fill="none" fill-opacity="0" stroke="#000" stroke-opacity=".02" stroke-width=".3"/><path d="M384 533c2.29-3.43 6.72-8.05 10-11-4.75 2.84-7.66 5.92-10 11Z" fill="none" fill-opacity="0" stroke="#8E8E8E" stroke-opacity=".43" stroke-width=".3"/><path d="M836 541c-15.81 6.13-29.99 26.56-16 42 7.11.69 10.74-2.11 16-7v-35Z" fill="none" fill-opacity="0" stroke="#000" stroke-opacity=".07" stroke-width=".3"/><path d="M1259 541c-7.85 5.39-18.28 13.16-20.8 20.75-2.52 7.6.93 26.09 13.7 20.16 12.77-5.94 5.05-27.88 7.1-40.91Z" fill="none" fill-opacity="0" stroke="#000" stroke-opacity=".05" stroke-width=".3"/><path d="M259 554c-.43-3.52-.57-8.51 0-12-1.15 3.9-1.07 8.05 0 12Z" fill="none" fill-opacity="0" stroke="#FFF" stroke-opacity=".29" stroke-width=".3"/><path d="M465 569c-3.13-2.35-6.14-5.33-8-9 1.28 3.67 4.59 7.15 8 9Z" fill="none" fill-opacity="0" stroke="#E0E0E0" stroke-opacity=".35" stroke-width=".3"/><path d="M679 681c3.52-11.77-1.59-26.71 0-39s-.59-25.53 0-38c.59-12.47 0-25.48 0-38 0 0-1-.04-1 0 0 38.18-.83 77.57 1 115Z" fill="none" fill-opacity="0" stroke="#FFF" stroke-opacity=".19" stroke-width=".3"/><path d="M222 574h-32c.61-1.35-.64-2.25-1-3 1.84 6.24 9.02 3.88 15 4 5.98.12 12.81.72 18-1Z" fill="none" fill-opacity="0" stroke="#FFF" stroke-opacity=".31" stroke-width=".3"/><path d="M431 572c-5.77 4.59-17.8.72-26 2-.34-.8.43-2.24 0-3-1.76.5-.72 2.72-1 4h28c.91-.89-1.01-2.81-1-3Z" fill="none" fill-opacity="0" stroke="#FFF" stroke-opacity=".3" stroke-width=".3"/><path d="M335 573c-5.33-.38-23.31 4.84-27-1v3c5.07-.15 11.02.2 16 0s10.35 1.26 11-2Z" fill="none" fill-opacity="0" stroke="#FFF" stroke-opacity=".31" stroke-width=".3"/><path d="M496 576c-3.86.31-8.13.24-12 0 3.99.77 7.93.88 12 0Z" fill="none" fill-opacity="0" stroke="#FFF" stroke-opacity=".22" stroke-width=".3"/><path d="M115 602c-1.76-1.6-4.39-4.17-6-6 1.91 3.12 2.92 4.05 6 6Z" fill="none" fill-opacity="0" stroke="#707070" stroke-opacity=".45" stroke-width=".3"/><path d="M592 602c3.09-1.89 4.18-2.79 6-6-1.41 1.72-4.27 4.47-6 6Z" fill="none" fill-opacity="0" stroke="#707070" stroke-opacity=".46" stroke-width=".3"/><path d="M123 606c14.81 2.36 31.98 0 47 0-.04 0 0-1 0-1-15.22 0-32.64 1.91-47 1Z" fill="none" fill-opacity="0" stroke="#FFF" stroke-opacity=".22" stroke-width=".3"/><path d="M170 606h371c-.04 0 0-1 0-1H170s-.04 1 0 1Z" fill="none" fill-opacity="0" stroke="#FFF" stroke-opacity=".08" stroke-width=".3"/><path d="M541 606c12.96 0 26.76.13 39-1-12.99-.26-26.01 0-39 0 0 0-.04 1 0 1Z" fill="none" fill-opacity="0" stroke="#FFF" stroke-opacity=".22" stroke-width=".3"/><path d="M154 679c-19.06 0-39.04 1.25-58 0s-39.37 3.34-58 0c16.69 5.78 39.74-.53 58 1 18.26 1.53 40.36.71 58-1Z" fill="none" fill-opacity="0" stroke="#FFF" stroke-opacity=".1" stroke-width=".3"/><path d="M446 680c-.04 0 0-1 0-1H321c40.22 3.89 83.84 1 125 1Z" fill="none" fill-opacity="0" stroke="#FFF" stroke-opacity=".08" stroke-width=".3"/><path d="M446 680c9.51 0 19.54.01 29 0s18.63.03 28 0c9.37-.03 18.7.07 28 0s18.79.15 28 0 18.96.33 28 0 19.32.73 28 0 20.12 1.62 28 0c7.88-1.62 21.51 4.07 27-1-17.78 3.96-37.74-1.77-56 0-18.26 1.77-37.52-.77-56 0-18.48.77-37.43-.29-56 0s-37.41 0-56 0c0 0-.04 1 0 1Z" fill="none" fill-opacity="0" stroke="#FFF" stroke-opacity=".2" stroke-width=".3"/><path d="M705 704V351c0-14.7.01-29.29 0-44s.01-29.24 0-44c-.01-14.76.03-30.25 0-45s.07-29.33 0-44c-.07-14.67.15-29.41 0-44s.34-29.53 0-44c-.34-14.47.75-29.78 0-44-.75-14.22 2.97-30.43-3-42H3c-1.96 6.64-.77 13.88-1 21-.23 7.12.11 14.84 0 22s.05 13.8 0 21c-.05 7.2.02 14.76 0 22s.01 14.78 0 22c-.01 7.22 0 13.78 0 21v434c0 7.22.01 13.78 0 21-.01 7.22.02 14.75 0 22s.04 14.77 0 22 .09 13.76 0 21 .2 14.71 0 22c-.2 7.29.44 14.69 0 22-.44 7.31 2.45 11.74 10 11 7.55-.74 14.6.34 22 0s14.71.16 22 0c7.29-.16 13.75.07 21 0s14.74.03 22 0 14.77.01 22 0 13.77.01 21 0 14.75 0 22 0h347c7.22 0 13.78.01 21 0 7.22-.01 14.76.01 22 0s14.8.03 22 0c7.2-.03 13.83.06 21 0s14.85.13 22 0 15 .29 22 0 14.3.68 21 0c6.7-.68 15.85 1.44 22 0s16.22 3.34 21 0M679 23c3.64 8.43-1.64 20.7 0 30s-.74 20.31 0 30c.74 9.69-.33 20.12 0 30 .33 9.88-.14 20 0 30s-.05 19.89 0 30 0 20.84 0 31v362c0 12.52.59 25.53 0 38-.59 12.47 1.59 25.71 0 38s3.52 27.23 0 39c-2.76 9.23-19.71 1.5-28 3s-23.22-.68-33 0c-9.78.68-22.54-.31-33 0s-22.23-.14-33 0-22.07-.06-33 0-21.95-.03-33 0-22.92-.01-34 0c-11.08.01-21.96-.01-33 0s-21.98 0-33 0h-99c-11.03 0-21.92.01-33 0-11.07-.01-22.95.02-34 0s-22.07.05-33 0-22.23.12-33 0-22.54.26-33 0-23.21.58-33 0-24.69 1.28-33 0c-8.31-1.28-24.31 5.99-27-3-3.98-13.3 1.75-28.98 0-43s.79-29.63 0-44c-.79-14.37.36-29.47 0-44-.36-14.53.16-29.4 0-44-.16-14.6.07-29.38 0-44-.07-14.62.03-29.39 0-44s.01-29.43 0-44 0-28.43 0-43-.02-29.38 0-44c.02-14.62-.05-29.37 0-44 .05-14.63-.11-29.39 0-44s-.24-29.43 0-44-.52-29.55 0-44-1.16-29.81 0-44c1.16-14.19-3.02-30.05 1-43 .55-1.77 2.3-2.84 2-5 16.08 1.99 32.43.76 49 1s33.28-.11 50 0 34.22-.05 51 0 33.19-.03 50 0c16.81.03 34.18-.02 51 0s33.17-.02 50 0 34.18-.04 51 0 33.19-.09 50 0c16.81.09 34.22-.2 51 0s33.3-.45 50 0c16.7.45 33.6-1.08 50-1 16.4.08 33.97-.45 50 0s32.07-2.23 45 4Z" fill-opacity=".99" stroke="None"/><path d="M705 704c4.44-3.11-.34-16.1 1-22 1.34-5.9-.61-16.17 0-23 .61-6.83-.29-15.79 0-23 .29-7.21-.12-14.59 0-22s-.06-15.46 0-23c.06-7.54-.03-15.42 0-23s-.01-15.44 0-23c.01-7.56-.01-14.44 0-22 .01-7.56 0-15.39 0-23V0h-4c5.97 11.57 2.25 27.78 3 42 .75 14.22-.34 29.53 0 44 .34 14.47-.15 29.41 0 44s-.07 29.33 0 44c.07 14.67-.03 29.25 0 44s-.01 30.24 0 45c.01 14.76-.01 29.29 0 44s0 29.3 0 44v353Z" fill="#FFF" fill-opacity=".62" stroke="None"/><path d="M29 24c-4 26.75 1.81 54.91 0 82-1.81 27.09.82 54.75 0 82s.37 54.63 0 82c-.37 27.37.19 55.6 0 83s.13 54.65 0 82 .16 54.68 0 82 .29 54.73 0 82c-.29 27.27 1.05 55.58-1 82 2.69 8.99 18.69 1.72 27 3 8.31 1.28 23.21-.58 33 0s22.54-.26 33 0 22.23-.12 33 0 22.07-.05 33 0 21.95-.02 33 0 22.93-.01 34 0c11.08.01 21.97 0 33 0h99c11.02 0 21.96.01 33 0s21.92.01 33 0c11.08-.01 22.95.03 34 0s22.07.06 33 0 22.23.14 33 0 22.54.31 33 0 23.22.68 33 0c9.78-.68 24.71 1.5 33 0s25.24 6.23 28-3c-1.83-37.43-1-76.82-1-115V204c0-60.17-.83-121.65 1-181-12.93-6.23-28.97-3.55-45-4-16.03-.45-33.6.08-50 0s-33.3 1.45-50 1c-16.7-.45-33.22.2-50 0s-34.19.09-51 0c-16.81-.09-33.18.04-50 0s-34.17.02-51 0-33.18.02-50 0-34.19.03-51 0c-16.81-.03-33.22.05-50 0s-34.28.11-51 0-33.43.24-50 0-32.92.99-49-1c.3 2.16-1.45 3.23-2 5m644 4c3.76 7.09-.03 17.54 1 26s-.45 18.15 0 27c.45 8.85-.21 19 0 28s-.1 17.96 0 27-.04 17.9 0 27c.04 9.1-.02 18.88 0 28 .02 9.12-.01 17.91 0 27s0 17.87 0 27v274c0 9.08.01 18.02 0 27s.02 18.14 0 27 .04 19.44 0 28c-.04 8.56.09 19.21 0 27-.09 7.79.19 20.78 0 27-.19 6.22 1.73 23.95-3 23-.33.17-.74.76-1 1-5.49 5.07-19.12-.62-27 1-7.88 1.62-19.32-.73-28 0s-18.96-.33-28 0-18.79-.15-28 0-18.7-.07-28 0-18.63-.03-28 0c-9.37.03-18.54-.01-28 0s-19.49 0-29 0c-41.16 0-84.78 2.89-125-1H154c-17.64 1.71-39.74 2.53-58 1-18.26-1.53-41.31 4.78-58-1-1.81-.63-2.94-1.36-4-4-6.02-15.05 1.06-35.24-1-52-2.06-16.76.93-35.74 0-53-.93-17.26.42-35.52 0-53-.42-17.48.19-35.42 0-53s.09-35.37 0-53c-.09-17.63.04-35.35 0-53s.02-35.34 0-53c-.02-17.66.01-35.34 0-53-.01-17.66 0-35.34 0-53V40c0-3.87-.27-7.83 1-11 .56-1.41 1.46-2.59 2-4 16.67.06 33.46-.03 51 0s36.24-.01 54 0c17.76.01 36.19-.01 54 0 17.81.01 35.15-.01 53 0s36.11-.01 54 0 36.14-.01 54 0 35.15-.03 53 0 36.17-.07 54 0 36.29-.15 54 0 35.5-.34 53 0 36.92-.74 54 0 35.32-3.02 49 3Z" fill-opacity=".01" stroke="None"/><path d="M678 204c0-.04 1 0 1 0 0-10.16.05-20.89 0-31s.14-20 0-30 .33-20.12 0-30c-.33-9.88.74-20.31 0-30-.74-9.69 1.64-20.7 0-30s3.64-21.57 0-30c-1.83 59.35-1 120.83-1 181Z" fill="#FFF" fill-opacity=".16" stroke="None"/><path d="M28 681c2.05-26.42.71-54.73 1-82 .29-27.27-.16-54.68 0-82s-.13-54.65 0-82-.19-54.6 0-82-.37-55.63 0-83c.37-27.37-.82-54.75 0-82s-1.81-54.91 0-82c1.81-27.09-4-55.25 0-82-4.02 12.95.16 28.81-1 43-1.16 14.19.52 29.55 0 44s.24 29.43 0 44 .11 29.39 0 44 .05 29.37 0 44c-.05 14.63.02 29.38 0 44-.02 14.62 0 29.43 0 44s-.01 28.43 0 43-.03 29.39 0 44-.07 29.38 0 44c.07 14.62-.16 29.4 0 44 .16 14.6-.36 29.47 0 44 .36 14.53-.79 29.63 0 44 .79 14.37-1.75 29.98 0 44s-3.98 29.7 0 43Z" fill="#FFF" fill-opacity=".2" stroke="None"/><path d="M34 29c-.78 3.24 0 7.65 0 11v158c0 17.64-.01 35.35 0 53s-.02 35.34 0 53c.02 17.66-.03 35.34 0 53 .03 17.66-.08 35.35 0 53s-.17 35.37 0 53c.17 17.63-.37 35.42 0 53s-.82 35.53 0 53-1.81 35.77 0 53c1.81 17.23-4.02 36.3 0 53 1.06 2.64 2.19 3.37 4 4 18.63 3.34 39.04-1.25 58 0s38.94 0 58 0h292c18.59 0 37.43.29 56 0s37.52.77 56 0c18.48-.77 37.74 1.77 56 0 18.26-1.77 38.22 3.96 56 0 .26-.24.67-.83 1-1 5.94-2.95.64-18.14 2-25 1.36-6.86-.61-18.96 0-27s-.28-18.42 0-27c.28-8.58-.12-18.15 0-27 .12-8.85-.05-17.99 0-27 .05-9.01-.03-18.94 0-28 .03-9.06-.01-17.97 0-27 .01-9.03-.01-17.98 0-27s0-17.97 0-27V246c0-9.05.01-17.9 0-27-.01-9.1.02-18.91 0-28s.05-17.97 0-27c-.05-9.03.12-18.01 0-27-.12-8.99.26-18.05 0-27s.59-18.13 0-27c-.59-8.87 1.3-18.29 0-27s2.77-19.74 0-28c-13.68-6.02-31.92-2.26-49-3-17.08-.74-36.5.34-54 0s-35.29.15-53 0-36.17.07-54 0-36.15.03-54 0-35.14.01-53 0-36.11.01-54 0-36.15.01-54 0-35.19.01-53 0c-17.81-.01-36.24.01-54 0-17.76-.01-36.46.03-54 0s-34.33.06-51 0c-.54 1.41-1.44 2.59-2 4m329 86c4.55 19.38 12.14 36.46 26.3 53.7 14.16 17.23 10.48 46.7.78 65.38-9.71 18.67-19.04 38.67-34.08 52.92 6.22-18.52 4.72-40.34-4.92-58.08-9.65-17.73-24.95-32.13-25.08-51.92-.32-3.41-1.33-7.87-1-12 1.9-23.57 17.65-38.26 31-58 1.64-2.43 4.07-5.53 7-6v14m-97 119c2.42-3.53 4.84-7.55 7-11 7.14-11.42 14.84-21.01 23-29-2.85 18.59-10.93 38.75-3.69 56.7 7.24 17.95 20.75 31.02 30 48 9.24 16.97 5.86 40.35-3.24 57.37-9.09 17.02-18.25 33.18-32.07 45.93-2.13-20.02-8.49-43.11-22.92-60.08-14.44-16.96-27.94-39.59-20.75-61.59 7.18-22 11.37-27.45 22.67-46.33m162-23c-.38 6.17-.38 12.83 0 19 1.84 30.09 33.28 55.92 30.07 87.07-3.2 31.16-22.5 59.57-42.07 82.93.73-20.51-1.62-42.46-10.93-61.07-9.31-18.62-24.3-35.65-22.07-56.93 2.23-21.28 7.76-30.16 14.39-43.75 6.63-13.59 22.13-33.24 30.61-44.25 3.26 4.62.19 11.97 0 17M124 419c24.7-4.43 54.28-1 80-1h286c30.39 0 63.59-2.84 93 1 10.17.09 18.15 8.97 18 19 2.33 23.04 1.46 48.11 1 72-.46 23.89 2.1 49.16 0 73-.41 4.69-1.81 9.16-4 13-1.82 3.21-2.91 4.11-6 6-4.31 2.64-7.12 3.1-12 3-12.24 1.13-26.04 1-39 1H170c-15.02 0-32.19 2.36-47 0-2.95-.47-5.98-2.17-8-4-3.08-1.95-4.09-2.88-6-6-2.49-4.07-3.09-6.39-3-11-1.43-15.39-1.46-31.77-1-48 .46-16.23-1.16-33.71 0-50s-2.63-33.9 0-50c1.42-8.69 9.78-17.61 19-18Z" stroke="None"/><path d="M671 678c4.73.95 2.81-16.78 3-23 .19-6.22-.09-19.21 0-27 .09-7.79-.04-18.44 0-27 .04-8.56-.02-19.14 0-28s-.01-18.02 0-27 0-17.92 0-27V245c0-9.13.01-17.91 0-27s.02-17.88 0-27c-.02-9.12.04-18.9 0-28-.04-9.1.1-17.96 0-27s.21-18 0-27 .45-19.15 0-28c-.45-8.85 1.03-18.54 0-27s2.76-18.91-1-26c2.77 8.26-1.3 19.29 0 28s-.59 18.13 0 27c.59 8.87-.26 18.05 0 27s-.12 18.01 0 27c.12 8.99-.05 17.97 0 27 .05 9.03-.02 17.91 0 27s-.01 18.9 0 28c.01 9.1 0 17.95 0 27v190c0 9.03.01 17.98 0 27s.01 17.97 0 27c-.01 9.03.03 17.94 0 27-.03 9.06.05 18.99 0 28-.05 9.01.12 18.15 0 27-.12 8.85.28 18.42 0 27-.28 8.58.61 18.96 0 27s1.36 20.14 0 27c-1.36 6.86 3.94 22.05-2 25Z" fill="#FFF" fill-opacity=".33" stroke="None"/><path d="M33 40c0-.04 1 0 1 0 0-3.35-.78-7.76 0-11-1.27 3.17-1 7.13-1 11Z" fill="#FFF" fill-opacity=".23" stroke="None"/><path d="M34 675c-4.02-16.7 1.81-35.77 0-53-1.81-17.23.82-35.53 0-53s.37-35.42 0-53 .17-35.37 0-53c-.17-17.63.08-35.35 0-53s.03-35.34 0-53c-.03-17.66.02-35.34 0-53-.02-17.66.01-35.35 0-53s0-35.36 0-53V40s-1-.04-1 0v159c0 17.66-.01 35.34 0 53 .01 17.66-.02 35.34 0 53 .02 17.66-.04 35.35 0 53s-.09 35.37 0 53c.09 17.63-.19 35.42 0 53s-.42 35.52 0 53c.42 17.48-.93 35.74 0 53 .93 17.26-2.06 36.24 0 53 2.06 16.76-5.02 36.95 1 52Z" fill="#FFF" fill-opacity=".09" stroke="None"/><path d="M356 107c1.51-1.84 4.29-3.41 6-5 .64 4.17-1.29 9.66 1 13v-14c-2.93.47-5.36 3.57-7 6Z" fill="#FFF" fill-opacity=".32" stroke="None"/><path d="M356 107c-13.35 19.74-29.1 34.43-31 58 .11 3.25 1.08 8.02 1 12 .13 19.79 15.43 34.19 25.08 51.92 9.64 17.74 11.14 39.56 4.92 58.08 15.04-14.25 24.37-34.25 34.08-52.92 9.7-18.68 13.38-48.15-.78-65.38-14.16-17.24-21.75-34.32-26.3-53.7-2.29-3.34-.36-8.83-1-13-1.71 1.59-4.49 3.16-6 5Z" fill-opacity=".02" stroke="None"/><path d="M326 177c.08-3.98-.89-8.75-1-12-.33 4.13.68 8.59 1 12Z" fill="#FFF" fill-opacity=".31" stroke="None"/><path d="M812 171h-31c11.17 59.11 22.5 115.87 33 175h37c10.61-59.12 22.04-116.23 33-175h-33c-4.11 40.23-12.6 79.13-18 119-8.39-39.35-14.01-79.2-21-119ZM1037 171h-33c1.67 57.72 1.67 117.26 0 175h33V171Z" fill-opacity=".98" stroke="None"/><path d="M1094 171h-33c1.67 57.72 1.67 117.26 0 175h33v-49c5.9-1.9 5.67-9.29 10-12 6.04 21.29 15.47 39.38 21 61h36c-10.69-26.07-23.05-51.01-32-76 12.31-15.49 21.82-32.22 32-49h-37c-8.49 17.71-19.53 31.61-30 48v-98Z" fill-opacity=".99" stroke="None"/><path d="M1410 171h-33v175h33c2.04-21.16-6.45-47.72 10-61 5.53 21.81 15.04 39.69 21 61h36c-12.39-25.69-20.48-49.3-33-74 12.22-17.31 21.66-33.21 33-51h-37c-3.94 8.41-9.19 16.27-14.43 24.23-5.24 7.96-10.11 16.31-16.57 23.77.66-32.58-1.33-65.83 1-98Z" fill-opacity=".98" stroke="None"/><path d="M1717 171h-33c1.67 57.72 1.66 117.26 0 175h33c-2.32-15.8-.34-32.75-1-49 5.14-.42 6.63-9.79 11-12 4.75 21.56 15.27 39.13 20 60 11.81 2.3 24.75.36 37 1-12.27-25.12-21.57-49.95-33-75 12.52-15.58 21.09-32.83 33-50-11.73 1.66-25.25 1.66-37 0-3.72 9.02-10.06 15.88-15.2 23.75-5.14 7.87-8.37 16.67-15.8 23.25.66-32.25-1.33-65.17 1-97Z" fill-opacity=".99" stroke="None"/><path d="M273 223c-1.38 2.96-4.13 7.65-7 11-11.3 18.88-15.49 24.33-22.67 46.33-7.19 22 6.31 44.63 20.75 61.59 14.43 16.97 20.79 40.06 22.92 60.08 13.82-12.75 22.98-28.91 32.07-45.93 9.1-17.02 12.48-40.4 3.24-57.37-9.25-16.98-22.76-30.05-30-48-7.24-17.95.84-38.11 3.69-56.7-8.16 7.99-15.86 17.58-23 29ZM428 230c-1.14-5.95-1.13-13.12 0-19 .19-5.03 3.26-12.38 0-17-8.48 11.01-23.98 30.66-30.61 44.25-6.63 13.59-12.16 22.47-14.39 43.75-2.23 21.28 12.76 38.31 22.07 56.93 9.31 18.61 11.66 40.56 10.93 61.07 19.57-23.36 38.87-51.77 42.07-82.93 3.21-31.15-28.23-56.98-30.07-87.07Z" fill-opacity=".02" stroke="None"/><path d="M678 353c0-.04 1 0 1 0V204s-1-.04-1 0v149Z" fill="#FFF" fill-opacity=".33" stroke="None"/><path d="M428 230c-.38-6.17-.38-12.83 0-19-1.13 5.88-1.14 13.05 0 19Z" fill="#FFF" fill-opacity=".32" stroke="None"/><path d="M982 346c-4.67-14.42-1.14-36.77-2-54-.86-17.23 2.23-41.26-3.87-53.08s-13.59-18.53-26.88-19.72c-13.3-1.2-26.49.31-36 9.05-9.51 8.73-14.22 20.79-14.25 34.75 9.18.55 14.65-2.44 23.98.02 9.33 2.47 7.54-8.33 8.44-14.25.91-5.92 11.23-7.51 14.78-3.02 3.55 4.49.59 16.31 1.8 23.25-8.55 1.85-15.48 5.37-22.32 8.68-6.84 3.31-15.84 8.91-21.49 16.07-5.65 7.16-5.72 12.94-6.21 23.22-.49 10.29 2.19 16.9 8.27 23.78 6.08 6.88 15.38 7.04 25 6.51 9.61-.52 13.22-12.63 19.75-16.26-1.61 5.02 1.92 10.12 1 15h30m-34-62v35c-4.73 3.5-8.52 6.96-15 6-13.93-15.19-1.04-34.72 15-41ZM1254 286c.42-21.14.82-47.46-12.75-58.2-13.57-10.74-31.9-11.44-49-3.99-17.09 7.45-21.56 25.24-20.25 47.19 1.31 21.95-3.97 52.06 10.25 64.75 14.22 12.7 29.34 15.6 48.52 10.02 19.18-5.58 24.48-27.1 23.23-47.77h-31c4.39 10.87-1.18 31.54-13.08 26.13s-4.63-26.66-6.92-39.13c16.47 2.32 34.09.34 51 1m-30-16c-6.44-1.64-14.58-1.64-21 0 .55-11.35-.95-21.8 7-28 14.85-1.28 14.17 14.82 14 28ZM1356 346c-2.43-19.39-4.4-47.56-3-70 1.4-22.44.87-39.92-13.25-49.75-14.11-9.84-32.29-8.77-46.83-2.38S1274.53 247.9 1274 263c10.63-1.85 19.99.82 31 1-.19-8.91-.93-15.94 6-21 2.04 1.29 4.97 1.52 7 0 6.17 6.54 4.85 16.12 5 26-14.38 3.95-32.63 10.79-44.03 23.97-11.41 13.18-8.8 34.88 2.78 47.28 11.58 12.39 37.48 8.7 40.25-9.25 5.26 1.59 3.8 9.94 4 15h30m-33-63c-2.25 12.4 6.14 36.7-7.7 41.3-13.84 4.6-14.91-12.83-12.17-21.22 2.74-8.38 11.24-16.09 19.87-20.08Z" fill-opacity=".98" stroke="None"/><path d="M1521 219c-14.97 1.86-24.93 11.9-30.29 23.7-5.35 11.8-.67 38.64-2.71 55.3-2.04 16.66 2.63 33.55 13.25 42.61 10.62 9.05 25.4 7.19 39.52 5.6 14.12-1.59 21.52-9.05 26.97-21.46 5.44-12.41 2.35-40.13 3.26-56.75.91-16.62-2.25-30.84-12.75-39.25-10.49-8.42-21.11-11.75-37.25-9.75m4 107c-11.61-11.49-2.85-35.81-6-51-3.15-15.19 1.6-37.95 14.3-32.29 12.7 5.67 3.72 30.47 5.7 45.29s3.87 40.4-14 38Z" fill-opacity=".99" stroke="None"/><path d="M1665 252c-2.81-10.99-10.13-24.34-21.25-29.61-11.11-5.26-24.27-4.41-36.72 1.64-12.44 6.05-18.15 20.47-17.09 33.89 1.05 13.41 13.67 22.59 23.31 31.83 9.63 9.25 27 18.72 22.14 31.5-4.85 12.77-27.89-4.78-25.39-15.25-9.1 4.3-14.9 5.47-23 10 5.26 21.35 23.13 32.83 47.25 31.6 24.11-1.22 39.91-26.81 29.05-47.9-10.86-21.09-39.55-29.98-45.3-51.7 1.98-1.38 4.84-3.36 5-6 11.02-.65 18.98 9.44 20 19 8.19-2.81 13.69-7.07 22-9ZM1876 286c1.66-21.31.47-47.15-13.25-57.75-13.71-10.6-30.98-12.96-49.45-4.95-18.48 8-19.25 32.75-19.3 53.7-.05 20.95-1.4 51.38 12.75 62.24s31.38 10.69 48.95 5.47c17.57-5.22 21.21-27.08 20.3-46.71h-31c2.51 9.62.57 19.35-3 26-22.9 5.29-13.17-22.74-15-38h49m-30-16h-20c1.28-11.65-2.91-26.64 9.03-27.02 11.93-.38 11.69 15.54 10.97 27.02ZM1982 346c-1.74-22.11-1.12-53.23-1-75 .12-21.77 3.71-41.27-12.1-49.88-15.81-8.62-27.39 4.99-39.9 12.88 2.04-3.88.55-8.7 1-13h-33v125h33c1.3-33.46-2.62-68.61 2-101 4.41-.32 9.75-3.6 15-2 4.52 14.55 1.2 31.86 2 49s-.6 36.64 0 54h33Z" fill-opacity=".98" stroke="None"/><path d="M266 234c2.87-3.35 5.62-8.04 7-11-2.16 3.45-4.58 7.47-7 11Z" fill="#E3E3E3" fill-opacity=".29" stroke="None"/><path d="M1525 326c17.87 2.4 15.98-23.18 14-38-1.98-14.82 7-39.62-5.7-45.29-12.7-5.66-17.45 17.1-14.3 32.29 3.15 15.19-5.61 39.51 6 51Z" fill-opacity=".02" stroke="None"/><path d="M1224 270c.17-13.18.85-29.28-14-28-7.95 6.2-6.45 16.65-7 28 6.42-1.64 14.56-1.64 21 0Z" fill-opacity=".07" stroke="None"/><path d="M1846 270c.72-11.48.96-27.4-10.97-27.02-11.94.38-7.75 15.37-9.03 27.02h20Z" fill-opacity=".05" stroke="None"/><path d="M1323 283c-8.63 3.99-17.13 11.7-19.87 20.08-2.74 8.39-1.67 25.82 12.17 21.22 13.84-4.6 5.45-28.9 7.7-41.3Z" fill-opacity=".06" stroke="None"/><path d="M948 284c-16.04 6.28-28.93 25.81-15 41 6.48.96 10.27-2.5 15-6v-35Z" fill-opacity=".02" stroke="None"/><path d="M678 397c0-.04 1 0 1 0v-44s-1-.04-1 0v44Z" fill="#FFF" fill-opacity=".21" stroke="None"/><path d="M678 566c0-.04 1 0 1 0V397s-1-.04-1 0v169Z" fill="#FFF" fill-opacity=".33" stroke="None"/><path d="M105 437c-1.48 23.51 2.26 48.52 1 73-1.26 24.48.49 50.38 0 75-.09 4.61.51 6.93 3 11 1.61 1.83 4.24 4.4 6 6 2.02 1.83 5.05 3.53 8 4 14.36.91 31.78-1 47-1h371c12.99 0 26.01-.26 39 0 4.88.1 7.69-.36 12-3 1.73-1.53 4.59-4.28 6-6 2.19-3.84 3.59-8.31 4-13-.42-47.45-1.7-96.8-1-145 .15-10.03-7.83-18.91-18-19-30.71-.27-63.16 1.89-93-1H204c-25.78 2.5-53.49-.11-80 1-9.22.39-17.58 9.31-19 18m228 53c4.19 20.65 1.43 48.21 0 69 .17 3.81 2.62 10.91 2 14-.65 3.26-6.02 1.8-11 2-4.98.2-10.93-.15-16 0v-3c-1.2-3.08 1.22-9.27-2-12-8.54 24.71-44.1 17.53-47-6-1.07-3.95-1.15-8.1 0-12 2.81-9.52 7.97-17.38 16.08-23.92 8.11-6.54 19.21-7.17 26.92-13.08 3.41-3.62 2.16-11.71 2-17-.15-4.87-4.39-9.38-10.67-6.67-6.28 2.71-3.5 10.24-4.33 14.67-.24 1.29.19 2.7 0 4-3.83-.63-8.99 1.28-12-1-4.15-.23-7.04.01-11 0-2-.01-4 0-6 0 .53-2.19-1.14-5.62 1-7 2.7-11.25 6.82-24.4 19.08-28.92 12.25-4.53 24.65-4.99 36-.16 11.35 4.84 16.17 16.68 16.92 27.08m96-3c4.34 19.63 1.86 46.3 1 67-.24 5.81 1.29 12.48 1 18-.01.19 1.91 2.11 1 3h-28c.28-1.28-.76-3.5 1-4-.54-3.86-1.83-7.76-2-12-6.36 14.07-23.53 22.89-36.69 12.7-13.17-10.2-14.18-28.34-6.31-41.7 1.65-4.19 6.16-9.03 10-11 9.29-6.7 20.16-10.98 31-14-.87-7.73 3.72-22.66-7.01-23.99-10.73-1.33-9.36 11.52-8.99 17.99-2.18 2.78-8.71.33-11 0-6.18-.24-10.88-.62-17-1-2.3-20.5 13.72-36.21 33-38 19.28-1.79 36.98 7.66 39 27m67 89c-4.07.88-8.01.77-12 0-5.87-.36-13.76-3.06-19-7-3.41-1.85-6.72-5.33-8-9-2.3-4.56-4.63-10.4-5-15-3.24-14.95-3.17-40.11 0-55 3.82-17.95 17.16-29.07 35.08-30.07 17.91-1 34.35 6.11 38.85 24.14 4.49 18.04 1.63 42.85 1.72 60.62.08 17.78-16.95 30.12-31.65 31.31m-274-2c-5.19 1.72-12.02 1.12-18 1-5.98-.12-13.16 2.24-15-4-5.1-17.29-5.39-36.79-10.32-54.68-4.94-17.89-6.43-36.86-10.68-55.32h28c3.4 25.28 5.25 50.37 11 75 2.58-25 7.04-49.65 9-75 8.84 2.28 18.75.37 28 1-6.84 37.33-16.27 74.76-22 112Z" fill-opacity=".01" stroke="None"/><path d="M124 419c26.51-1.11 54.22 1.5 80-1-25.72 0-55.3-3.43-80 1ZM583 419c-29.41-3.84-62.61-1-93-1 29.84 2.89 62.29.73 93 1Z" fill="#FFF" fill-opacity=".09" stroke="None"/><path d="M1498 434h-33v25h33v-25Z" fill-opacity=".97" stroke="None"/><path d="M1767 434h-33v25h33v-25Z" fill-opacity=".96" stroke="None"/><path d="M106 585c.49-24.62-1.26-50.52 0-75 1.26-24.48-2.48-49.49-1-73-2.63 16.1 1.16 33.71 0 50s.46 33.77 0 50c-.46 16.23-.43 32.61 1 48Z" fill="#FFF" fill-opacity=".33" stroke="None"/><path d="M602 583c2.1-23.84-.46-49.11 0-73s1.33-48.96-1-72c-.7 48.2.58 97.55 1 145Z" fill="#FFF" fill-opacity=".11" stroke="None"/><path d="M1349 442h-33c.65 12.58-1.31 25.83 1 38-4.28-.48-9.13 1.06-13-1v22c3.88-2.04 8.7-.55 13-1-.26 27.02-4.21 62.24 1.69 86.3 5.9 24.07 32.71 18.56 51.31 17.7v-26c-4.73 1.79-10.61-.12-15 1-8.84-9.11-5.61-22.43-6-36-.39-13.57.29-29.24 0-43 5.83 2.2 12.73.43 19 1-1.64-6.75-1.64-15.22 0-22h-19v-37Z" fill-opacity=".98" stroke="None"/><path d="M1425 442h-32v38c-4.28-.48-9.13 1.06-13-1v22c3.88-2.04 8.7-.55 13-1 1.59 26.69-3.23 65.4 2.61 88.25 5.84 22.84 31.86 15.33 51.39 15.75v-26c-4.8 1.31-10.33-1.02-15 1-1-1.71-2.78-4.05-5-4-4.27-23.19-.95-50.21-2-75 5.84 2.2 12.73.43 19 1v-22c-6.26.58-13.15-1.21-19 1v-38Z" fill-opacity=".99" stroke="None"/><path d="M1920 442h-34v37h-12v22c4.28-.48 9.13 1.06 13-1 1.5 27.12-2.93 65.58 2.07 87.92 5 22.33 32.02 16.47 50.93 16.08v-26c-17.96 5.16-22.47-5.63-21-23 1.47-17.37-1.1-37.39 0-55 5.84 2.2 12.73.43 19 1v-22h-18v-37Z" fill-opacity=".98" stroke="None"/><path d="M261 492c-.12 1.99.09 4.01 0 6 1.57.39 4.22-.94 5 1 3.96.01 6.85-.23 11 0 3.66.2 7.34-.15 11 0 .11-1-.47-2.73 1-3 .83-4.43-1.95-11.96 4.33-14.67 6.28-2.71 10.52 1.8 10.67 6.67.91 5.78 2.93 13.22-2 17-7.71 5.91-18.81 6.54-26.92 13.08-8.11 6.54-13.27 14.4-16.08 23.92-.57 3.49-.43 8.48 0 12 2.9 23.53 38.46 30.71 47 6 3.22 2.73.8 8.92 2 12 3.69 5.84 21.67.62 27 1 .62-3.09-1.83-10.19-2-14-1.01-22.91 1.65-46.13 0-69-.75-10.4-5.57-22.24-16.92-27.08-11.35-4.83-23.75-4.37-36 .16C267.82 467.6 263.7 480.75 261 492m44 57c-2.67 7.32-15.33 8.03-17.7 2.7-2.37-5.34-2.21-14.55.83-18.62S296.85 520.2 302 519c.56-.13 1.81-1.8 3-1v31ZM374 499c3.66.14 7.34-.1 11 0-.37-6.47-1.74-19.32 8.99-17.99 10.73 1.33 6.14 16.26 7.01 23.99-10.84 3.02-21.71 7.3-31 14-3.88 2.8-7.68 6.79-10 11-7.87 13.36-6.86 31.5 6.31 41.7 13.16 10.19 30.33 1.37 36.69-12.7.17 4.24 1.46 8.14 2 12 .43.76-.34 2.2 0 3 8.2-1.28 20.23 2.59 26-2 .29-5.52-1.24-12.19-1-18-1.38-21.42.85-44.98-1-67-2.02-19.34-19.72-28.79-39-27-19.28 1.79-35.3 17.5-33 38 6.12.38 10.82.76 17 1m10 34c2.34-5.08 5.25-8.16 10-11 2.08-1.24 3.76-2.79 7-3 .06 7.48-.07 16.7 0 24 .07 7.3-4.03 10.93-8.13 12.92-4.1 1.98-9.16-5.44-10.87-5.92 1.49-5.94-.46-12.9 2-17ZM452 490c-1.33 17.59-1.42 37.42 0 55 .37 4.6 2.7 10.44 5 15 1.86 3.67 4.87 6.65 8 9 5.24 3.94 13.13 6.64 19 7 3.87.24 8.14.31 12 0 14.7-1.19 31.73-13.53 31.65-31.31-.09-17.77 2.77-42.58-1.72-60.62-4.5-18.03-20.94-25.14-38.85-24.14-17.92 1-31.26 12.12-35.08 30.07m46-2c1.6 8.92 1.53 19.23 1 29s1.49 21.25 0 31c-1.76 11.53-14.87 10.28-16.79 2.43-1.91-7.85-1.17-20.05-1.21-31.43-.04-11.38 0-24.13 0-34 1.16-2.16 5.19-2.78 5-6 2.31 1.55 5.68 1.38 8 0 2.75 3.18 4.62 5.83 4 9Z" fill-opacity=".99" stroke="None"/><path d="M189 571c.36.75 1.61 1.65 1 3h32c5.73-37.24 15.16-74.67 22-112-9.25-.63-19.16 1.28-28-1-1.96 25.35-6.42 50-9 75-5.75-24.63-7.6-49.72-11-75h-28c4.25 18.46 5.74 37.43 10.68 55.32 4.93 17.89 5.22 37.39 10.32 54.68Z" stroke="None"/><path d="M869 604c-5.06-15.56-.55-34.7-2-53-1.45-18.3 3.38-40.2-3.23-53.77-6.61-13.57-16.44-18.81-30.03-19.63-13.58-.82-26.27.8-34.99 10.15-8.71 9.35-11.93 18.85-12.75 33.25 10.33-1.11 21.87.3 32 1-1.19-8.6-1.24-21.32 8.92-20.93 10.16.38 9.13 16.07 9.08 25.93-17.16 3.78-29.13 10.35-42.25 22.75-13.12 12.4-12.64 34.89 2 49.5 14.63 14.62 36.23 2.61 41.25-12.25.3 6.08 2.54 10.95 2 17 9.4-1.65 20.58-1.66 30 0m-33-63v35c-5.26 4.89-8.89 7.69-16 7-13.99-15.44.19-35.87 16-42Z" fill-opacity=".98" stroke="None"/><path d="M973 492c-4.5-8.9-13.22-15.82-24.77-14.79-11.55 1.03-18.13 4.87-27.23 12.79.42-3.62-.97-7.78 1-11h-33v125h33c-2.33-32.8-.34-66.76-1-100 5.8-1.87 9.92-5.53 18-5 6.49 12.25 1.97 30.51 3 48s-.78 39.13 0 57h33c.02-33.53-.03-68.17 0-101 5.11-1.38 10.55-4.4 17-4 7.11 14.03 3.49 31.52 4 49 .51 17.48.45 38.66-1 56h32c-1.86-22.76-.96-55.69-1-78-.04-22.31 3.45-38.91-12.7-46.29-16.15-7.38-30.69.52-40.3 12.29ZM1134 492c-5.11-7.78-12.28-16.02-24.78-14.78-12.49 1.24-16.56 3.82-26.22 10.78v-9c-10.4 1.66-22.58 1.66-33 0v125h33c.39-17.67-.52-45.32 0-62s-5.27-42.58 11.33-42.33c16.59.25 6.51 26.84 8.67 43.33s-1.62 43.55 0 61h32c-.31-13.6.42-28.53 0-42-.42-13.47.82-27.94 0-41-.82-13.06.5-21.46 11.78-21.78 11.27-.32 10.21 10.58 10.22 22.78.01 12.2.18 29.18 0 42s.96 27.49-1 40h32c-1.64-32.91 2.8-78.8-1.41-108.25-4.21-29.44-43.23-19.76-52.59-3.75Z" fill-opacity=".97" stroke="None"/><path d="M1292 604c-3.28-25.53-4.01-66.46-2.93-93.92 1.08-27.46-23.75-34.61-46.82-31.88-23.07 2.72-32.22 22.01-32.25 42.8 10.52-1.77 20.18.64 31 1 .13-8.49-1.01-15.87 6-21 14.57-1.7 11.63 13.5 12 26-12.4 4.78-23.31 5.82-34.08 14.92s-18.71 21.13-17.69 34.85c1.01 13.72 9.96 25.24 22.52 28.43 12.56 3.19 26.61-7.68 31.25-17.2.53 6.21.94 10.27 2 16h29m-33-63c-2.05 13.03 5.67 34.97-7.1 40.91-12.77 5.93-16.22-12.56-13.7-20.16 2.52-7.59 12.95-15.36 20.8-20.75ZM1554 477c-15.01 2.16-30.2 12.58-31.87 27.08-1.66 14.5-2.25 49.75-1.52 67.17.72 17.42 10.1 27.42 24.64 32.16 14.54 4.74 37.05 3.04 48-9.16 10.96-12.19 11.84-30.14 10.75-51.25-1.09-21.1 2.56-40.38-7.9-52.1-10.46-11.72-25.61-16.28-42.1-13.9m4 22c9.11.54 14.38 2.52 13.79 13.23-.6 10.71 1.59 31.09.21 41.77-1.38 10.68 3.69 24.4-5.08 28.92-8.78 4.52-15.93-2.85-13.99-13 1.94-10.14-.96-30.67.07-41.92s-3.36-21.48 5-29ZM1658 595c10.24 10.64 32.1 15.5 44.29 2.3 12.18-13.2 8.68-31.81 9.71-55.3 1.03-23.49 1.39-45.57-11.75-58.25-13.14-12.67-30.13-5.2-42.25 5.25.38-3.3-.9-7.1 1-10h-33c1.66 54.71 1.67 111.26 0 166h33c-2.32-16.14-.34-33.42-1-50m1-13c-.7-25.74 1.36-54.01-1-80 6.62-4.85 16.42-7.17 19.8 2.25 3.38 9.42 1.83 23.93 2.2 35.75.37 11.82.02 26.33-1.8 36.25-1.82 9.91-12.67 7.97-19.2 5.75ZM1863 510c-4.12-16.07-13.85-30.65-30.3-32.65-16.45-1.99-35.61 4.37-42.49 19.42-6.88 15.04-.01 31.53 11.87 43.15 11.89 11.62 32.58 21.88 32.92 40.08-12.69 10.18-25.35-4.98-27-16-7.87 3.47-15.32 7.19-23 9 4.76 13.4 13.11 27.91 29.75 31.8 16.65 3.89 39.23-1.73 47.06-16.55 7.83-14.81 1.83-33.11-11.06-45-12.9-11.88-31.88-20.93-33.75-39.25 11.44-10.38 24.25 3.95 24 15 7.62-2.41 13.6-6.47 22-9Z" fill-opacity=".98" stroke="None"/><path d="M2040 570v-61c-3.95-17.29-17.1-30.34-35.3-31.65-18.21-1.31-44.16 5.44-46.49 24.42-2.33 18.97-3.37 55.83-.92 76.93 2.44 21.1 27.52 28.35 46.96 26.9 19.43-1.44 34.97-16.42 35.75-35.6m-46-71c14.43-1.04 12.98 8.65 14 22 1.02 13.35-2.14 37.12-.33 49.67 1.81 12.55-13.36 18.27-17.8 8.41-4.44-9.86-1.08-28.74-1.87-42.08s-1.68-29.02 6-38Z" fill-opacity=".99" stroke="None"/><path d="M499 548c.5-8.88-1.52-19.17-1-29 .52-9.83.42-21.08 0-31 .62-3.17-1.25-5.82-4-9-2.32 1.38-5.69 1.55-8 0 .19 3.22-3.84 3.84-5 6 0 9.87-.04 22.62 0 34 .04 11.38-.7 23.58 1.21 31.43 1.92 7.85 15.03 9.1 16.79-2.43Z" fill-opacity=".02" stroke="None"/><path d="M1498 479h-33c1.67 41.05 1.66 83.92 0 125h33c-1.66-41.05-1.67-83.92 0-125Z" fill-opacity=".99" stroke="None"/><path d="M1767 479h-33c-.01 41.67.01 83.33 0 125h33V479Z" fill-opacity=".98" stroke="None"/><path d="M430 554c.86-20.7 3.34-47.37-1-67 1.85 22.02-.38 45.58 1 67Z" fill="#FFF" fill-opacity=".33" stroke="None"/><path d="M302 505c4.93-3.78 2.91-11.22 2-17 .16 5.29 1.41 13.38-2 17Z" fill="#FFF" fill-opacity=".24" stroke="None"/><path d="M499 548c1.49-9.75-.53-21.23 0-31s.6-20.08-1-29c.42 9.92.52 21.17 0 31-.52 9.83 1.5 20.12 1 29Z" fill="#FFF" fill-opacity=".23" stroke="None"/><path d="M333 559c1.43-20.79 4.19-48.35 0-69 1.65 22.87-1.01 46.09 0 69Z" fill="#FFF" fill-opacity=".21" stroke="None"/><path d="M452 545c-1.42-17.58-1.33-37.41 0-55-3.17 14.89-3.24 40.05 0 55Z" fill="#FFF" fill-opacity=".4" stroke="None"/><path d="M266 499c-.78-1.94-3.43-.61-5-1 .09-1.99-.12-4.01 0-6-2.14 1.38-.47 4.81-1 7 2 0 4-.01 6 0Z" fill="#FFF" fill-opacity=".33" stroke="None"/><path d="M277 499c3.01 2.28 8.17.37 12 1 .19-1.3-.24-2.71 0-4-1.47.27-.89 2-1 3-3.66-.15-7.34.2-11 0Z" fill="#FFF" fill-opacity=".25" stroke="None"/><path d="M1659 582c6.53 2.22 17.38 4.16 19.2-5.75 1.82-9.92 2.17-24.43 1.8-36.25-.37-11.82 1.18-26.33-2.2-35.75-3.38-9.42-13.18-7.1-19.8-2.25 2.36 25.99.3 54.26 1 80Z" fill-opacity=".04" stroke="None"/><path d="M385 499c-3.66-.1-7.34.14-11 0 2.29.33 8.82 2.78 11 0Z" fill="#FFF" fill-opacity=".24" stroke="None"/><path d="M1558 499c-8.36 7.52-3.97 17.75-5 29-1.03 11.25 1.87 31.78-.07 41.92-1.94 10.15 5.21 17.52 13.99 13 8.77-4.52 3.7-18.24 5.08-28.92 1.38-10.68-.81-31.06-.21-41.77.59-10.71-4.68-12.69-13.79-13.23ZM1994 499c-7.68 8.98-6.79 24.66-6 38s-2.57 32.22 1.87 42.08c4.44 9.86 19.61 4.14 17.8-8.41-1.81-12.55 1.35-36.32.33-49.67-1.02-13.35.43-23.04-14-22Z" fill-opacity=".02" stroke="None"/><path d="M302 519c.91-1.08 2.72 9.38 2 13-.72 3.62-.29 13.73 1 17v-31c-1.19-.8-2.44.87-3 1Z" fill="#F5F5F5" fill-opacity=".23" stroke="None"/><path d="M360 530c2.32-4.21 6.12-8.2 10-11-3.84 1.97-8.35 6.81-10 11Z" fill="#E5E5E5" fill-opacity=".34" stroke="None"/><path d="M305 549c-1.29-3.27-1.72-13.38-1-17 .72-3.62-1.09-14.08-2-13-5.15 1.2-10.83 10.01-13.87 14.08-3.04 4.07-3.2 13.28-.83 18.62 2.37 5.33 15.03 4.62 17.7-2.7ZM394 522c-3.28 2.95-7.71 7.57-10 11-2.46 4.1-.51 11.06-2 17 1.71.48 6.77 7.9 10.87 5.92 4.1-1.99 8.2-5.62 8.13-12.92-.07-7.3.06-16.52 0-24-3.24.21-4.92 1.76-7 3Z" fill-opacity=".02" stroke="None"/><path d="M384 533c2.29-3.43 6.72-8.05 10-11-4.75 2.84-7.66 5.92-10 11Z" fill="#8E8E8E" fill-opacity=".43" stroke="None"/><path d="M836 541c-15.81 6.13-29.99 26.56-16 42 7.11.69 10.74-2.11 16-7v-35Z" fill-opacity=".07" stroke="None"/><path d="M1259 541c-7.85 5.39-18.28 13.16-20.8 20.75-2.52 7.6.93 26.09 13.7 20.16 12.77-5.94 5.05-27.88 7.1-40.91Z" fill-opacity=".05" stroke="None"/><path d="M259 554c-.43-3.52-.57-8.51 0-12-1.15 3.9-1.07 8.05 0 12Z" fill="#FFF" fill-opacity=".29" stroke="None"/><path d="M465 569c-3.13-2.35-6.14-5.33-8-9 1.28 3.67 4.59 7.15 8 9Z" fill="#E0E0E0" fill-opacity=".35" stroke="None"/><path d="M679 681c3.52-11.77-1.59-26.71 0-39s-.59-25.53 0-38c.59-12.47 0-25.48 0-38 0 0-1-.04-1 0 0 38.18-.83 77.57 1 115Z" fill="#FFF" fill-opacity=".19" stroke="None"/><path d="M222 574h-32c.61-1.35-.64-2.25-1-3 1.84 6.24 9.02 3.88 15 4 5.98.12 12.81.72 18-1Z" fill="#FFF" fill-opacity=".31" stroke="None"/><path d="M431 572c-5.77 4.59-17.8.72-26 2-.34-.8.43-2.24 0-3-1.76.5-.72 2.72-1 4h28c.91-.89-1.01-2.81-1-3Z" fill="#FFF" fill-opacity=".3" stroke="None"/><path d="M335 573c-5.33-.38-23.31 4.84-27-1v3c5.07-.15 11.02.2 16 0s10.35 1.26 11-2Z" fill="#FFF" fill-opacity=".31" stroke="None"/><path d="M496 576c-3.86.31-8.13.24-12 0 3.99.77 7.93.88 12 0Z" fill="#FFF" fill-opacity=".22" stroke="None"/><path d="M115 602c-1.76-1.6-4.39-4.17-6-6 1.91 3.12 2.92 4.05 6 6Z" fill="#707070" fill-opacity=".45" stroke="None"/><path d="M592 602c3.09-1.89 4.18-2.79 6-6-1.41 1.72-4.27 4.47-6 6Z" fill="#707070" fill-opacity=".46" stroke="None"/><path d="M123 606c14.81 2.36 31.98 0 47 0-.04 0 0-1 0-1-15.22 0-32.64 1.91-47 1Z" fill="#FFF" fill-opacity=".22" stroke="None"/><path d="M170 606h371c-.04 0 0-1 0-1H170s-.04 1 0 1Z" fill="#FFF" fill-opacity=".08" stroke="None"/><path d="M541 606c12.96 0 26.76.13 39-1-12.99-.26-26.01 0-39 0 0 0-.04 1 0 1Z" fill="#FFF" fill-opacity=".22" stroke="None"/><path d="M154 679c-19.06 0-39.04 1.25-58 0s-39.37 3.34-58 0c16.69 5.78 39.74-.53 58 1 18.26 1.53 40.36.71 58-1Z" fill="#FFF" fill-opacity=".1" stroke="None"/><path d="M446 680c-.04 0 0-1 0-1H321c40.22 3.89 83.84 1 125 1Z" fill="#FFF" fill-opacity=".08" stroke="None"/><path d="M446 680c9.51 0 19.54.01 29 0s18.63.03 28 0c9.37-.03 18.7.07 28 0s18.79.15 28 0 18.96.33 28 0 19.32.73 28 0 20.12 1.62 28 0c7.88-1.62 21.51 4.07 27-1-17.78 3.96-37.74-1.77-56 0-18.26 1.77-37.52-.77-56 0-18.48.77-37.43-.29-56 0s-37.41 0-56 0c0 0-.04 1 0 1Z" fill="#FFF" fill-opacity=".2" stroke="None"/></svg>