<svg width="131" height="43" viewBox="0 0 131 43" fill="none" xmlns="http://www.w3.org/2000/svg">
<g clip-path="url(#clip0_491_362)">
<path d="M48.9375 9.84811H50.9247L52.2585 17.6288L53.509 9.84811H55.5789L53.4392 21.1023H51.0772L48.9375 9.84811Z" fill="#1C1E26"/>
<path d="M61.7343 19.1158V15.3786C61.7343 13.9194 60.984 12.9333 59.3587 12.9333C57.5383 12.9333 56.6497 13.8089 56.5799 15.7121L58.5529 15.7954L58.5942 15.2397C58.622 14.8086 58.7332 14.4894 59.1778 14.4894C59.6224 14.4894 59.7193 14.8364 59.7193 15.3644V16.1147C58.1632 16.684 56.4403 17.2953 56.4403 19.2961H56.4416C56.4416 20.2415 57.0943 21.2419 58.2614 21.2419C59.1093 21.2419 59.623 20.6164 59.8175 19.9494C59.8447 20.1162 59.9423 20.6991 59.9978 21.1023H61.8732C61.8176 20.6855 61.7343 20.0606 61.7343 19.1158ZM59.011 19.7543C58.6078 19.7543 58.3719 19.4208 58.3719 18.8515C58.3719 18.0178 58.9412 17.5319 59.7193 17.0873V19.2961C59.5804 19.5042 59.3167 19.7543 59.011 19.7543Z" fill="#1C1E26"/>
<path d="M63.3595 9.84811H65.4436V21.1023H63.3595V9.84811Z" fill="#1C1E26"/>
<path d="M67.069 9.84812H69.1531V16.1838L71.1674 13.0715H73.5016L71.4175 16.3363L73.4738 21.1017H71.2094L69.7786 17.2113L69.1537 18.045V21.1017H67.0696V9.84747L67.069 9.84812Z" fill="#1C1E26"/>
<path d="M79.4618 17.1977V15.7948C79.4618 13.9472 78.6146 12.9326 76.8639 12.9326C75.1133 12.9326 74.1685 13.9187 74.1685 15.7392V18.4346H74.1678C74.1678 20.2402 75.0991 21.2406 76.8633 21.2406C78.5306 21.2406 79.4476 20.3656 79.4476 18.7539V18.0592H77.5024V18.8372C77.5024 19.4764 77.2801 19.74 76.8775 19.74C76.4749 19.74 76.2526 19.4622 76.2526 18.7539V17.1977H79.4618ZM76.2526 15.5731C76.2526 14.6975 76.4335 14.4338 76.8639 14.4338C77.2943 14.4338 77.5031 14.6975 77.5031 15.4199V16.198H76.2526V15.5731Z" fill="#1C1E26"/>
<path d="M85.937 19.1158V15.3786C85.937 13.9194 85.1868 12.9333 83.5615 12.9333C81.741 12.9333 80.8524 13.8089 80.7827 15.7121L82.7556 15.7954L82.797 15.2397C82.8248 14.8086 82.9359 14.4894 83.3805 14.4894C83.8251 14.4894 83.9221 14.8364 83.9221 15.3644V16.1147C82.3659 16.684 80.6431 17.2953 80.6431 19.2961H80.6444C80.6444 20.2415 81.2971 21.2419 82.4642 21.2419C83.312 21.2419 83.8258 20.6164 84.0203 19.9494C84.0474 20.1162 84.145 20.6991 84.2006 21.1023H86.076C86.0204 20.6855 85.937 20.0606 85.937 19.1158ZM83.9221 19.2961C83.7831 19.5042 83.5195 19.7543 83.2138 19.7543C82.8105 19.7543 82.5747 19.4208 82.5747 18.8515C82.5747 18.0178 83.144 17.5319 83.9221 17.0873V19.2961Z" fill="#1C1E26"/>
<path d="M87.4655 9.84812H89.5496V16.1838L91.5639 13.0715H93.8981L91.814 16.3363L93.8703 21.1017H91.6059L90.1751 17.2113L89.5502 18.045V21.1017H87.4661V9.84747L87.4655 9.84812Z" fill="#1C1E26"/>
<path d="M97.274 12.9326C95.5375 12.9326 94.5649 13.8774 94.5649 15.6416V18.5316C94.5649 20.2958 95.5511 21.2406 97.274 21.2406C98.9968 21.2406 99.983 20.2958 99.983 18.5316V15.6416C99.983 13.8774 99.0104 12.9326 97.274 12.9326ZM97.9131 18.6847C97.9131 19.3516 97.8297 19.824 97.2882 19.824C96.7466 19.824 96.6355 19.3516 96.6355 18.6847V15.5033C96.6355 14.837 96.7602 14.3504 97.2882 14.3504C97.8162 14.3504 97.9131 14.8222 97.9131 15.5033V18.6847Z" fill="#1C1E26"/>
<path d="M100.984 19.1707L102.457 18.5594C102.72 19.3374 103.109 19.7956 103.637 19.7956C104.026 19.7956 104.221 19.6011 104.221 19.2954C104.221 18.8508 103.971 18.6007 103.221 17.9616L102.47 17.3225C101.679 16.6556 101.164 16.0862 101.164 15.0994C101.164 13.7934 102.248 12.9319 103.554 12.9319C104.86 12.9319 105.722 13.7236 106.027 15.0161L104.666 15.6274C104.512 15.0303 104.138 14.4189 103.61 14.4189C103.262 14.4189 103.054 14.6412 103.054 14.9469C103.054 15.2804 103.415 15.6416 104.026 16.1554L104.777 16.8223C105.444 17.3916 106.166 18.0585 106.166 19.0867C106.166 20.4761 105.04 21.2406 103.749 21.2406C102.359 21.2406 101.47 20.5873 100.984 19.1701V19.1707Z" fill="#1C1E26"/>
<path d="M107.292 9.84812H109.376V16.1838L111.39 13.0715H113.725L111.64 16.3363L113.697 21.1017H111.432L110.002 17.2113L109.377 18.045V21.1017H107.293V9.84747L107.292 9.84812Z" fill="#1C1E26"/>
<path d="M119.685 17.1977V15.7948C119.685 13.9472 118.838 12.9326 117.087 12.9326C115.336 12.9326 114.392 13.9187 114.392 15.7392V18.4346H114.391C114.391 20.2402 115.322 21.2406 117.086 21.2406C118.754 21.2406 119.671 20.3656 119.671 18.7539V18.0592H117.725V18.8372C117.725 19.4764 117.503 19.74 117.101 19.74C116.698 19.74 116.476 19.4622 116.476 18.7539V17.1977H119.685ZM116.476 15.5731C116.476 14.6975 116.657 14.4338 117.087 14.4338C117.517 14.4338 117.726 14.6975 117.726 15.4199V16.198H116.476V15.5731Z" fill="#1C1E26"/>
<path d="M121.075 13.0715H123.159V13.8774C123.742 13.3074 124.382 12.9326 125.104 12.9326C126.077 12.9326 126.536 13.752 126.536 14.7666V21.1023H124.438V15.1001C124.438 14.6832 124.327 14.4467 123.951 14.4467C123.729 14.4467 123.451 14.5721 123.16 14.7802V21.1017H121.075V13.0709H121.075V13.0715Z" fill="#1C1E26"/>
<path d="M54.4396 35.7887V32.0515C54.4396 30.5923 53.6893 29.6061 52.064 29.6061C50.2436 29.6061 49.355 30.4818 49.2852 32.385L51.2582 32.4683L51.2995 31.9126C51.3273 31.4815 51.4385 31.1623 51.8831 31.1623C52.3277 31.1623 52.4246 31.5093 52.4246 32.0373V32.7876C50.8685 33.3569 49.1456 33.9682 49.1456 35.969H49.1469C49.1469 36.9144 49.7996 37.9148 50.9667 37.9148C51.8146 37.9148 52.3283 37.2892 52.5229 36.6223C52.55 36.7891 52.6476 37.372 52.7032 37.7752H54.5785C54.523 37.3584 54.4396 36.7335 54.4396 35.7887ZM51.7164 36.4272C51.3131 36.4272 51.0772 36.0937 51.0772 35.5244C51.0772 34.6907 51.6466 34.2048 52.4246 33.7601V35.969C52.2857 36.1771 52.022 36.4272 51.7164 36.4272Z" fill="#1C1E26"/>
<path d="M55.9678 29.7444H58.0099V30.4113C58.5799 29.8278 59.2326 29.5919 59.8995 29.5919C60.5245 29.5919 61.0253 29.9118 61.2612 30.5645C61.8861 29.8562 62.5808 29.5919 63.3033 29.5919C64.2061 29.5919 64.8174 30.2731 64.8174 31.5229V37.7752H62.7889V31.7316C62.7889 31.2036 62.6086 31.0233 62.2609 31.0233C62.0244 31.0233 61.6909 31.1623 61.413 31.3981V37.7752H59.3845V31.7316C59.3845 31.2036 59.2042 31.0233 58.8565 31.0233C58.62 31.0233 58.2865 31.1623 58.0087 31.3981V37.7752H55.9666V29.7444H55.9678Z" fill="#1C1E26"/>
<path d="M66.3464 29.7444H68.3885V30.4113C68.9578 29.8278 69.6112 29.5919 70.2781 29.5919C70.903 29.5919 71.4038 29.9118 71.6397 30.5645C72.2646 29.8562 72.9593 29.5919 73.6818 29.5919C74.5846 29.5919 75.1959 30.2731 75.1959 31.5229V37.7752H73.1674V31.7316C73.1674 31.2036 72.9871 31.0233 72.6394 31.0233C72.4029 31.0233 72.0701 31.1623 71.7916 31.3981V37.7752H69.763V31.7316C69.763 31.2036 69.5827 31.0233 69.2351 31.0233C68.9985 31.0233 68.6651 31.1623 68.3872 31.3981V37.7752H66.3451V29.7444H66.3464Z" fill="#1C1E26"/>
<path d="M81.8108 35.7887V32.0515C81.8108 30.5923 81.0605 29.6061 79.4352 29.6061C77.6148 29.6061 76.7262 30.4818 76.6564 32.385L78.6294 32.4683L78.6707 31.9126C78.6985 31.4815 78.8097 31.1623 79.2543 31.1623C79.6989 31.1623 79.7958 31.5093 79.7958 32.0373V32.7876C78.2397 33.3569 76.5168 33.9682 76.5168 35.969H76.5181C76.5181 36.9144 77.1708 37.9148 78.3379 37.9148C79.1858 37.9148 79.6996 37.2892 79.8941 36.6223C79.9212 36.7891 80.0188 37.372 80.0744 37.7752H81.9497C81.8942 37.3584 81.8108 36.7335 81.8108 35.7887ZM79.7958 35.969H79.7952C79.6563 36.1771 79.3926 36.4272 79.0869 36.4272C78.6843 36.4272 78.4478 36.0937 78.4478 35.5244C78.4478 34.6907 79.0178 34.2048 79.7958 33.7601V35.969Z" fill="#1C1E26"/>
<path d="M83.5615 35.6769V31.1196H82.7699V29.7444H83.5615V27.3268H85.687V29.7444H86.8541V31.1196H85.687V35.4681C85.687 35.9683 85.9507 36.1764 86.3953 36.1764C86.6176 36.1764 86.8263 36.1628 86.993 36.1208V37.7603C86.7152 37.8017 86.215 37.8715 85.7006 37.8715C84.0055 37.8715 83.5609 37.0656 83.5609 35.6762H83.5615V35.6769Z" fill="#1C1E26"/>
<path d="M88.48 35.6769V31.1196H87.6884V29.7444H88.48V27.3268H90.6055V29.7444H91.7726V31.1196H90.6055V35.4681C90.6055 35.9683 90.8691 36.1764 91.3137 36.1764C91.536 36.1764 91.7448 36.1628 91.9115 36.1208V37.7603C91.6336 37.8017 91.1334 37.8715 90.619 37.8715C88.924 37.8715 88.4793 37.0656 88.4793 35.6762H88.48V35.6769Z" fill="#1C1E26"/>
<path d="M95.2597 26.8545H93.1478V28.4242H95.2597V26.8545Z" fill="#1C1E26"/>
<path d="M95.2591 29.7444H93.1614V37.7752H95.2591V29.7444Z" fill="#1C1E26"/>
<path d="M99.4001 29.6055C97.6636 29.6055 96.691 30.5503 96.691 32.3145V35.2045C96.691 36.9687 97.6772 37.9135 99.4001 37.9135C101.123 37.9135 102.109 36.9687 102.109 35.2045V32.3145C102.109 30.5503 101.136 29.6055 99.4001 29.6055ZM100.039 35.3576C100.039 36.0245 99.9558 36.4969 99.4143 36.4969C98.8727 36.4969 98.7616 36.0245 98.7616 35.3576V32.1762C98.7616 31.5099 98.8863 31.0233 99.4143 31.0233C99.9422 31.0233 100.039 31.4951 100.039 32.1762V35.3576Z" fill="#1C1E26"/>
<path d="M107.333 29.6055C106.736 29.6055 106.138 29.8691 105.625 30.3415V29.7444H103.54V40.4144H105.624V37.1632C106.124 37.6078 106.68 37.9135 107.264 37.9135C108.5 37.9135 109.07 36.7884 109.07 35.26V32.12C109.07 30.8837 108.639 29.619 107.333 29.6055ZM106.972 35.3434C106.972 35.9961 106.833 36.5105 106.333 36.5105C106.083 36.5105 105.847 36.4129 105.625 36.274V31.2308C105.833 31.064 106.083 30.9251 106.347 30.9251C106.819 30.9251 106.972 31.3975 106.972 31.981V35.3434Z" fill="#1C1E26"/>
<path d="M112.641 26.8545H110.529V28.4242H112.641V26.8545Z" fill="#1C1E26"/>
<path d="M112.64 29.7444H110.542V37.7752H112.64V29.7444Z" fill="#1C1E26"/>
<path d="M113.808 35.8436L115.281 35.2322C115.544 36.0103 115.933 36.4685 116.461 36.4685C116.85 36.4685 117.045 36.274 117.045 35.9683C117.045 35.5237 116.795 35.2736 116.045 34.6345L115.294 33.9954C114.503 33.3284 113.988 32.7591 113.988 31.7723C113.988 30.4663 115.072 29.6048 116.378 29.6048C117.684 29.6048 118.546 30.3965 118.851 31.6889L117.49 32.3003C117.336 31.7032 116.962 31.0918 116.434 31.0918C116.086 31.0918 115.878 31.3141 115.878 31.6198C115.878 31.9532 116.239 32.3145 116.85 32.8283L117.601 33.4952C118.268 34.0645 118.99 34.7314 118.99 35.7596C118.99 37.149 117.864 37.9135 116.573 37.9135C115.183 37.9135 114.294 37.2601 113.808 35.8429V35.8436Z" fill="#1C1E26"/>
<path d="M120.38 35.6769V31.1196H119.589V29.7444H120.38V27.3268H122.506V29.7444H123.673V31.1196H122.506V35.4681C122.506 35.9683 122.769 36.1764 123.214 36.1764C123.436 36.1764 123.645 36.1628 123.812 36.1208V37.7603C123.534 37.8017 123.034 37.8715 122.519 37.8715C120.824 37.8715 120.379 37.0656 120.379 35.6762H120.38V35.6769Z" fill="#1C1E26"/>
<path d="M127.577 29.6055C125.84 29.6055 124.868 30.5503 124.868 32.3145V35.2045C124.868 36.9687 125.854 37.9135 127.577 37.9135C129.299 37.9135 130.286 36.9687 130.286 35.2045V32.3145C130.286 30.5503 129.313 29.6055 127.577 29.6055ZM128.216 35.3576C128.216 36.0245 128.132 36.4969 127.591 36.4969C127.049 36.4969 126.938 36.0245 126.938 35.3576V32.1762C126.938 31.5099 127.063 31.0233 127.591 31.0233C128.119 31.0233 128.216 31.4951 128.216 32.1762V35.3576Z" fill="#1C1E26"/>
<path d="M42.3148 21.5185C42.3148 26.2864 42.3136 31.055 42.3148 35.8229C42.3155 38.044 42.3213 40.2651 42.3245 42.4863C42.3245 42.538 42.3265 42.5896 42.3226 42.6413C42.3064 42.8824 42.205 42.991 41.9665 42.9981C41.7552 43.0039 41.5439 42.9916 41.3326 42.9871C41.2809 42.9858 41.2292 42.9851 41.1775 42.9851H1.59231C1.28793 42.9851 0.983552 42.9955 0.679175 42.9987C0.438775 43.0013 0.330208 42.9102 0.29208 42.6762C0.283679 42.6258 0.286264 42.5735 0.286264 42.5218V0.506783C0.285618 0.44022 0.291434 0.373012 0.304358 0.307742C0.340548 0.124857 0.436837 0.0447241 0.620368 0.0376155C0.656557 0.0363231 0.692746 0.0363231 0.728935 0.0363231C4.75369 0.0363231 8.77845 0.0343844 12.8026 0.0363231C18.3298 0.0395543 23.8577 0.049894 29.385 0.0505403C33.5331 0.0505403 37.6813 0.0408467 41.8295 0.0376155C41.9303 0.0376155 42.0318 0.0531252 42.1307 0.0738047C42.2102 0.0906069 42.2709 0.147476 42.2883 0.228255C42.3077 0.318082 42.3213 0.41114 42.3213 0.502905C42.3232 2.57991 42.3239 4.65626 42.3226 6.73326C42.3207 8.9337 42.3142 11.1341 42.3129 13.3346C42.311 16.0623 42.3129 18.7901 42.3129 21.5172L42.3148 21.5185ZM41.9736 21.5237V0.832485C41.9736 0.785956 41.9756 0.739427 41.9736 0.692898C41.9646 0.481579 41.8651 0.383998 41.6537 0.378182C41.6279 0.377536 41.602 0.378182 41.5762 0.378182H1.04301C0.996477 0.378182 0.949302 0.374951 0.903419 0.380767C0.750261 0.4008 0.663665 0.491273 0.650741 0.645723C0.641047 0.763338 0.629415 0.881599 0.630707 0.999214C0.632646 1.23121 0.648802 1.46257 0.648802 1.69456C0.648802 15.0962 0.648802 28.4972 0.648802 41.8988C0.648802 41.9912 0.631354 42.0836 0.633292 42.1754C0.635231 42.2724 0.643632 42.3699 0.66108 42.4656C0.677236 42.5535 0.737982 42.6129 0.825871 42.6304C0.911174 42.6472 0.999062 42.6588 1.08566 42.6588C5.14079 42.6549 9.19656 42.6452 13.2517 42.6459C18.8985 42.6465 24.5453 42.6562 30.1921 42.6594C33.9739 42.662 37.7563 42.6594 41.5381 42.6594C41.5846 42.6594 41.6311 42.6601 41.6777 42.6581C41.8496 42.6497 41.9446 42.5677 41.9691 42.4003C41.9775 42.3447 41.973 42.2872 41.973 42.2303V21.5237H41.9736Z" fill="#1C1E26"/>
<path d="M17.0652 24.7548C17.0193 24.5041 16.9722 24.2799 16.9373 24.053C16.7996 23.1528 16.4565 22.3321 15.9899 21.5573C15.6519 20.9957 15.2454 20.4826 14.857 19.9572C14.5378 19.5255 14.2916 19.0589 14.1778 18.5322C14.0337 17.8673 14.0945 17.2113 14.3032 16.5677C14.5048 15.9473 14.7892 15.3637 15.1045 14.7944C15.6099 13.8819 16.2083 13.0302 16.8242 12.1907C17.0432 11.8922 17.2675 11.5975 17.4891 11.3009C17.5163 11.2647 17.5447 11.2298 17.5706 11.1968C17.6707 11.2181 17.6694 11.2718 17.6455 11.3487C17.5227 11.7474 17.3974 12.1455 17.2875 12.5481C17.1512 13.0496 17.1079 13.5633 17.1492 14.0797C17.2054 14.7828 17.4484 15.4251 17.8465 16.0029C18.1851 16.4947 18.5457 16.9716 18.8986 17.4537C19.2547 17.9403 19.4976 18.476 19.5875 19.0731C19.6721 19.6367 19.6127 20.1924 19.4434 20.7359C19.2159 21.4636 18.8676 22.135 18.4714 22.7825C18.0733 23.4333 17.6223 24.0479 17.1589 24.6527C17.1357 24.6831 17.1072 24.709 17.0646 24.7548H17.0652ZM26.223 11.2304C26.1823 11.6647 26.1397 12.099 26.1022 12.5339C26.088 12.6929 26.0815 12.8525 26.0815 13.0121C26.0841 13.8619 26.2573 14.6749 26.5991 15.4536C26.7988 15.9085 27.0741 16.3195 27.33 16.7428C27.4896 17.0071 27.6706 17.2579 27.794 17.5441C28.0073 18.0392 28.1087 18.5516 28.0887 19.0919C28.0674 19.6619 27.9065 20.195 27.6997 20.7185C27.277 21.7886 26.6954 22.7715 26.0492 23.7189C25.843 24.0207 25.633 24.3199 25.4249 24.6204C25.4139 24.6224 25.4023 24.6237 25.3913 24.6256C25.3907 24.5325 25.39 24.4395 25.3887 24.3471C25.3816 23.8734 25.3616 23.4003 25.2937 22.9318C25.2304 22.4962 25.1516 22.0626 25.0178 21.6419C24.8847 21.2245 24.7328 20.8134 24.5215 20.4296C24.2436 19.9242 23.9547 19.4247 23.6665 18.9251C23.4274 18.5109 23.2613 18.0689 23.1967 17.5965C23.1314 17.1183 23.1754 16.6426 23.3066 16.1767C23.4985 15.493 23.8016 14.8571 24.1408 14.2367C24.6294 13.3443 25.2181 12.5171 25.8139 11.6951C25.929 11.5367 26.0466 11.381 26.1629 11.2233L26.223 11.2311V11.2304ZM21.8868 5.27536C21.8629 5.89704 21.9197 6.50838 22.1026 7.10615C22.332 7.85578 22.714 8.5214 23.2019 9.12886C23.4907 9.48817 23.7453 9.86557 23.9205 10.2953C24.1648 10.895 24.2346 11.5135 24.1609 12.1558C24.0917 12.7517 23.8959 13.3068 23.6491 13.8464C23.1172 15.009 22.4264 16.0785 21.7026 17.1273C21.6444 17.212 21.5876 17.3089 21.4674 17.3354C21.4622 17.3128 21.4532 17.296 21.457 17.2837C21.605 16.8333 21.6916 16.3686 21.7252 15.8982C21.7582 15.4329 21.6961 14.9728 21.5695 14.523C21.4137 13.9718 21.1507 13.4716 20.8399 12.994C20.5562 12.5578 20.2686 12.1235 19.9959 11.6802C19.7174 11.2265 19.5506 10.7328 19.4951 10.2003C19.4356 9.63034 19.5183 9.08233 19.7109 8.5479C19.9487 7.88874 20.2919 7.28451 20.688 6.71C21.0389 6.20012 21.4221 5.71674 21.8448 5.26437L21.8868 5.27601V5.27536Z" fill="#1C1E26"/>
<path d="M21.8861 5.27464L21.8447 5.26319C21.8568 5.25173 21.8689 5.24091 21.881 5.22946C21.8829 5.2441 21.8842 5.25937 21.8861 5.274V5.27464Z" fill="#1C1E26"/>
<path d="M26.222 11.2295L26.1628 11.2219C26.1775 11.2047 26.1921 11.1869 26.2061 11.1697C26.2112 11.1894 26.2169 11.2098 26.222 11.2295Z" fill="#1C1E26"/>
<path d="M25.3906 24.6242C25.4014 24.6223 25.4129 24.6204 25.4237 24.6191C25.4129 24.621 25.4014 24.623 25.3906 24.6242Z" fill="#1C1E26"/>
<path d="M30.1217 29.7296C29.6402 29.7296 29.5265 30.1729 29.5265 30.781V33.6813C29.5265 34.2894 29.6279 34.7198 30.1217 34.7198C30.6154 34.7198 30.6917 34.2894 30.6917 33.6813V30.781C30.6917 30.1606 30.6031 29.7296 30.1217 29.7296Z" fill="#1C1E26"/>
<path d="M18.1522 32.2247C17.4426 32.6299 16.9237 33.0732 16.9237 33.8331C16.9237 34.3527 17.1389 34.6565 17.5066 34.6565C17.7851 34.6565 18.0262 34.4283 18.1528 34.2383H18.1522V32.2247Z" fill="#1C1E26"/>
<path d="M24.3708 32.2247C23.6613 32.6299 23.1423 33.0732 23.1423 33.8331C23.1423 34.3527 23.3575 34.6565 23.7252 34.6565C24.0038 34.6565 24.2448 34.4283 24.3715 34.2383V32.2247H24.3708Z" fill="#1C1E26"/>
<path d="M37.3538 28.6361C37.3531 28.1721 37.3415 27.7081 37.3337 27.2441C37.3298 27.0257 37.2846 26.815 37.2038 26.6121C37.0907 26.3278 36.9014 26.1152 36.6254 25.9749C36.3327 25.8256 36.0167 25.7843 35.7 25.7843C26.0756 25.781 16.4519 25.781 6.82752 25.7836C6.67113 25.7836 6.51022 25.7991 6.35771 25.836C5.90211 25.9458 5.55314 26.1946 5.37284 26.6451C5.29142 26.8499 5.2688 27.0632 5.2688 27.281V36.1292C5.2688 36.2733 5.27074 36.4181 5.27914 36.5622C5.3289 37.4055 5.96803 37.909 6.68793 37.9109C11.5127 37.9219 16.3382 37.9167 21.163 37.9167C25.9671 37.9167 30.7718 37.918 35.576 37.9141C35.7912 37.9141 36.0096 37.8909 36.2203 37.8495C36.7993 37.7351 37.1638 37.392 37.2756 36.8026C37.293 36.7128 37.2781 36.6152 37.3021 36.5279C37.3499 36.3522 37.3544 36.1751 37.3544 35.9967C37.3544 33.5436 37.3557 31.0899 37.3538 28.6361ZM12.769 35.8849H10.7424L9.27288 28.5637H11.1224L11.7938 33.4906L12.4272 28.5637H14.2638L12.769 35.8849ZM18.4061 35.8849C18.3557 35.5179 18.2665 34.9854 18.2413 34.8335C18.0643 35.4416 17.5951 36.0116 16.8228 36.0116C15.7591 36.0116 15.1633 35.0998 15.1633 34.2383H15.1627C15.1627 32.4147 16.733 31.857 18.1522 31.338V30.6543C18.1522 30.1729 18.0636 29.8562 17.6584 29.8562C17.2532 29.8562 17.1518 30.1477 17.1266 30.5399L17.0884 31.0466L15.29 30.9703C15.3533 29.2352 16.1637 28.4371 17.8232 28.4371C19.305 28.4371 19.9894 29.3366 19.9894 30.6666V34.0735C19.9894 34.935 20.0657 35.505 20.1161 35.8849H18.4061ZM24.6248 35.8849C24.5744 35.5179 24.4853 34.9854 24.4601 34.8335C24.283 35.4416 23.8138 36.0116 23.0416 36.0116C21.9779 36.0116 21.382 35.0998 21.382 34.2383H21.3814C21.3814 32.4147 22.9517 31.857 24.3709 31.338V30.6543C24.3709 30.1729 24.2823 29.8562 23.8772 29.8562C23.472 29.8562 23.3705 30.1477 23.3453 30.5399L23.3072 31.0466L21.5087 30.9703C21.572 29.2352 22.3824 28.4371 24.0419 28.4371C25.5238 28.4371 26.2081 29.3366 26.2081 30.6666V34.0735C26.2081 34.935 26.2844 35.505 26.3348 35.8849H24.6248ZM32.5787 33.5417C32.5787 35.1502 31.6792 36.0116 30.1088 36.0116C28.5385 36.0116 27.6389 35.1502 27.6389 33.5417V30.907C27.6389 29.2985 28.5255 28.4371 30.1088 28.4371C31.6921 28.4371 32.5787 29.2985 32.5787 30.907V33.5417Z" fill="#1C1E26"/>
</g>
<defs>
<clipPath id="clip0_491_362">
<rect width="130" height="42.9643" fill="white" transform="translate(0.285645 0.035675)"/>
</clipPath>
</defs>
</svg>
