<svg xmlns="http://www.w3.org/2000/svg" fill="#fff" width="100" height="17.92" viewBox="0 0 111 19.9"><path d="M8.9 17.2L15.7.3h2.1l-8 19.3H7.9L0 .3h2.1l6.8 16.9zm5.6 2.4L22.6.3h2.2l8.1 19.3h-2.1L28 13.1h-8.7l-2.8 6.5h-2zm5.5-8.3h7.3l-3.6-8.8-3.7 8.8zm27-4.8c0 1.5-.5 2.8-1.5 4-1 1.2-2.4 1.8-4.2 1.9l5.4 7.2h-2.4l-6.5-8.8 2.1-.1c1.8-.1 3.2-.5 4-1.3.8-.8 1.2-1.8 1.2-3 0-1.1-.4-2.1-1.2-3C43 2.5 41.6 2 39.4 2h-3.6v17.6h-1.9V.3h4.9c1.7 0 3 .1 3.9.4 1.6.5 2.7 1.4 3.5 2.7.6.9.8 2 .8 3.1z"/><path d="M46.8 15h2.3c0 .9.4 1.6 1.1 2.2.8.6 1.7.9 2.8.9 2.5 0 3.7-1.4 3.7-4.1V.3H59v13.8c0 1.9-.6 3.4-1.7 4.3-1.1 1-2.6 1.4-4.4 1.4-1.7 0-3.2-.5-4.4-1.4-1.1-.9-1.7-2.1-1.7-3.4zm14.4-4.9c0-2.9 1-5.3 3-7.2C66.2 1 68.6 0 71.4 0s5.1 1 7.2 2.9c2 1.9 3 4.3 3 7s-1 5-3 7-4.4 2.9-7.2 2.9-5.2-1-7.2-2.9-3-4.2-3-6.8zm1.9 0c0 2.2.8 4.1 2.4 5.7 1.6 1.6 3.6 2.4 5.9 2.4 2.3 0 4.2-.8 5.8-2.4 1.6-1.6 2.4-3.5 2.4-5.8s-.8-4.2-2.5-5.8c-1.7-1.6-3.6-2.4-5.8-2.4-2.3 0-4.2.8-5.9 2.5-1.5 1.5-2.3 3.5-2.3 5.8zM83.5.3h1.9v17.6h7.9v1.7h-9.9V.3z"/><path d="M92.6 19.6L100.7.3h2.2l8.1 19.3h-2.1l-2.8-6.5h-8.7l-2.8 6.5h-2zm5.5-8.3h7.3l-3.6-8.8-3.7 8.8z"/></svg>
