<svg xmlns="http://www.w3.org/2000/svg" width="937" height="164" viewBox="0 0 937 164"><path d="M0 47c7.43-1.15 29.17-10.9 31.97.03 2.81 10.93 7.29 20.96 11.78 31.22C48.25 88.5 49.65 100.01 55 110c5.87-21.29 10.1-43.93 18-65 5.71 2.62 12.71 2.71 18.67 4.33 5.96 1.62 15.86.6 13.33 9.67 8.52.01 24.44-4.74 23.02 6.02-1.41 10.76 6.22 21.41 4.31 31.65-1.91 10.24 1.81 22.2 1.45 31.55-.36 9.35 7.01 22.66.52 28.08-6.48 5.43-24.48.11-32.3 3.7-5.21-20.9-3.47-42.9-6-64-3.29 7.67-5.33 14.63-7.92 23.08-2.6 8.44-4.95 14.63-7.01 23.99-2.06 9.37-4.76 16.56-16.07 14.93-11.31-1.63-16.8 4.53-28 2C24.62 122.91 13.32 85.89 0 50v114h937v-34c-4.79 11.1-17.67 16.72-29 12-10.99 8.57-24.71 21.23-40.02 19.02-15.32-2.2-25.84-14.66-33.98-27.02-5.6 3.22 2.37 17.4-1.78 20.22-4.15 2.83-14.36 1.36-19.44 1-5.09-.36-12.17 1.35-13.78-6.22-17.61 3.87-36.24 4.42-54 6-1.04-27.97-1.68-54.63-6-81-2.75 23.63-1.35 50.88-3 75-7.43 6.13-16.91 3.01-26 5-9.09 1.99-10.33-8.14-14.3-14.7-3.97-6.57-6.33-15.48-10.7-21.3.12 12.59-1.4 26.86 0 39-10.95 3.71-11.59.82-23.22 2.78-11.64 1.96-9.44-10.36-8.78-19.78.66-9.42.45-19.5 1-29s1.12-16.18 1.78-25.22c.66-9.04-.31-20.77 1.22-29.78 8.17-2.22 17.68.58 25.68-2.32 7.99-2.9 7.74 7.87 11.58 13.06 3.83 5.2 3.8 14.21 9.74 18.26 3.11-12.06-2.43-24.94 1-37 11.47 2 23.01 1.01 34 6-.95 5.68-1.12 11.59-1 18 1.53-4.36 1.57-10.01 2-15 10.12.97 18.32-3.44 27.23-4.21S787.02 50.71 796 49c.87 9.13 6.61 18.3 6 27-7.34-.16-13.09 2.92-20.69 3.31-7.61.38-20.77-.61-15.31 11.69 12.03-4.01 25.05-3.83 37-8-.17 4.21 1.23 8 2 12 2.01-13.22 1.26-28.78 1.99-42.01.73-13.23 22.49-8.81 34.01-8.99 11.52-.18 25.05 5.12 33.75 13.25 8.7 8.12 11.56 24.15 9.47 35.97-2.09 11.83-9.98 22.7-22.22 24.78 5.79 10.58 14.15 28.71 29 19-6.25-9.28-3.93-26.09 9.22-28.78 13.16-2.68 22.53 15.76 14.78 25.78 5 3.02 12.95-.58 12-7-7.76.31-7.01-8.98-.97-10.97 6.04-1.99 9.64 3.88 10.97 8.97V0H151c10.65 1.49 14.04 13.11 7 21 9.03 1.73 4.36 14.72-.1 16.9-4.46 2.18-16.19 11.81-18.82 6.01-2.62-5.79-1.16-17.01-3.06-23.93C134.13 13.06 133.88.32 143 0H0v47M185 1c7.84 6.74 5.21 14.15 11.77 22.23S189.02 42.5 188 28c-3.56-.21-6.6 1.45-10 2 .01 3.83-.74 7.49-2 11-3.33-.6-6.31-2.63-10-2 2.64-13.95 0-37.81 19-38m-84 7c.02 6.73 4.37 20.37-2.25 25.75C92.13 39.14 80.19 35.1 76 29c2.69-2.8 4.01-8.2 9-7-.61 8.25 9.8 2.84 7-2-2.8-4.84-10.48-2.66-15-4 .43-4.37 2.92-8.25 2-13 7.85-.23 14.59 3.57 22 5m15-1c2.79 4.47-5.13 14.99 2.03 15.97 7.15.99 4.44-9.95 3.97-13.97 13.49-6.57 11.01 9.51 8.23 18.23-2.79 8.72-17.7 11.43-23.48 4.02C100.98 23.83 106.1 4.74 116 7m344 28c6.67 20.12 10.44 41.61 15 62 5.47-18.54 1.95-40.28 8-59 10.07 1.27 14.37 4.95 25.01 5.99 10.64 1.04 4.91 12.59 3.99 21.01-.92 8.43-3.79 17.36-4.98 26.02-1.18 8.66-4.16 17.42-5.95 26.05-1.78 8.64-4.95 15.95-6.05 24.95-1.09 9.01-6.19 14.62-15.05 13.96-8.85-.67-13.06 2.67-21.97.02-2.35-16.92-7.96-33.72-14-49 .52 14.02-1.84 28.22-4 43-9.17 2.93-24.69 16.87-28.78 4.78s-9.8-21.23-14.14-32.86c-4.34-11.63-8.17-22.69-12.83-34.17-4.67-11.47-8.8-23.5-11.25-35.75 10.51-3.24 21.55-6.36 30-14 9.59 16.6 11.91 36.8 18 54 2.21-17.6 4.95-35.08 6-53 10.81-1.31 22.31-1.52 33-4M275 56c5.6 5.34 25.19-5.36 25 6-.2 11.36 1.45 21.71.99 32.01-.46 10.3 1.01 20.76.01 30.99-1 10.23-3.4 18.82-3 29-10.13.47-21.52-.85-32 2-3.34-17.15-2.51-35.88-5-53-4.32 18.26-12 36.53-17 54-16.32-1.12-31.57 2.22-47 0-2.29-28.39-11.62-55.59-16-83-4.26 7.43 2.12 18.92-1 27-3.12 8.08-.18 20.33-3 28-2.82 7.67 1.17 21.35-6.03 24.97-7.2 3.63-15.32-4.52-23.66-2.62-8.35 1.9-8.73-11.42-7.09-19.57 1.64-8.16.29-20.42 0-29-.29-8.58-1.21-21.64-1.22-29.78-.01-8.14-2.08-21.52 8-21 10.08.52 18 2.74 28 3 .59-2.91-1.59-5.06-1-8 8.8-.86 23.18-6.09 32.01-3.99 8.83 2.1 6.31 18.62 10.31 26.67 4 8.04 1.15 23.58 4.68 32.32 5.77-19.48 8.82-40.54 16-60 6.79.78 15.95 2.49 22.02 4.98 6.08 2.48 17.92.88 15.98 9.02m277-11c4.96 13.28 8.63 26.95 14 40 8.04-13.17 18.15-23.68 33.03-29.97 14.87-6.3 34.69-.98 49.97 3.97.72 9.24-3.64 10.59-4.78 21.22-1.13 10.63-12.64 3.74-19.89 2.45-7.26-1.29-18.94-4.14-25.03.63-6.08 4.78-7.44 14.31-9.08 20.92-1.64 6.62 1.18 17.59 7.53 21.03 6.35 3.45 19.61 7.53 20.25-3.25-5.91-.21-20.93.61-20-8 .94-8.61 2.24-15.73 4-24 14.66 2.67 25.5 3.39 39.69 6.31 14.2 2.91 10.73 26.09 7.32 37.7-3.42 11.61-14.24 22.96-26.68 24.32-12.45 1.36-29.56 1.41-39.33-8.33-7.77 3.23-11.88 2.24-20.01 5.99-8.13 3.76-11.58-2.99-11.77-11.21-.19-8.23-2.69-14.38-5.22-21.78-3.78 1.77-7.47-.67-11 1 .75 4.21-1.46 12.87-1.99 17.01-.53 4.14 1.34 14.6-2.72 16.28-4.05 1.69-9.86-.84-14.51-1.07-4.66-.23-11.44.55-16.78-1.22.99-11.62 5.46-20.74 7.93-32.07 2.47-11.34 3.83-22.96 6.4-34.6C515.9 76.68 518.32 66.29 520 54c1.68-12.29 22.41-5.81 32-9M313 88c1.77-9.77 21.48-21.25 26.92-9.92C345.36 89.41 318.54 96.72 313 88m20 6c3.25 6.18 3.5 13.28 5 20 8.01-.24 9.47-7.46 15.75-11.25 6.27-3.8 15.23-1.04 21.25 2.25-.77 8.39-6.59 16.52-4 25 4.43-2.19 8.64-6.29 12-10 10.99 4.42 2.74 9.35-3.08 13.92-5.82 4.56-14.04 9.49-15.92-1.92-8.11 4.72-22.09.4-20-11-10.08 4.62-4.15 16.71-12.25 25.75s-23.01 4.26-20.42-7.42S320.21 123.67 329 118c-1.11-8.98-11.06-22.09 4-24Z" stroke="none" fill="none" fill-opacity="0" stroke-opacity="0" stroke-width=".3"/><path d="M151 0h-8c-9.12.32-8.87 13.06-6.98 19.98 1.9 6.92.44 18.14 3.06 23.93 2.63 5.8 14.36-3.83 18.82-6.01 4.46-2.18 9.13-15.17.1-16.9 7.04-7.89 3.65-19.51-7-21m2 22c17.5 5.08-2.19 19.73-12 20-2.53-10.6 1.09-16.48-2.78-26.22-3.87-9.74 3.61-16.55 14.85-11.85 11.24 4.69 4.78 11.82-.07 18.07ZM185 1c-19 .19-16.36 24.05-19 38 3.69-.63 6.67 1.4 10 2 1.26-3.51 2.01-7.17 2-11 3.4-.55 6.44-2.21 10-2 1.02 14.5 15.33 3.31 8.77-4.77C190.21 15.15 192.84 7.74 185 1m0 3c2.03 9.52 14.14 19.97 8 29-.96-2.84-2.87-6.01-4-9-4.46 1.94-9.36 2.52-14 4 1.87 5.95-.19 10.83-7 8 3.31-11.23.55-32.95 17-32ZM101 8c-7.41-1.43-14.15-5.23-22-5 .92 4.75-1.57 8.63-2 13 4.52 1.34 12.2-.84 15 4 2.8 4.84-7.61 10.25-7 2-4.99-1.2-6.31 4.2-9 7 4.19 6.1 16.13 10.14 22.75 4.75 6.62-5.38 2.27-19.02 2.25-25.75m-3 2c2.08 6.83 2.65 15.46-1.25 21.75-3.9 6.28-20.89-2.93-15.99-5 4.89-2.07 12.5 6.86 13.44-4 .93-10.85-8.22-6.5-15.2-9.75 1.15-2.3 1.57-4.8 3-7 4.94 2.09 10.4 2.77 16 4Z" fill="none" fill-opacity="0" stroke="#000" stroke-width=".3"/><path d="M153 22c4.85-6.25 11.31-13.38.07-18.07-11.24-4.7-18.72 2.11-14.85 11.85 3.87 9.74.25 15.62 2.78 26.22 9.81-.27 29.5-14.92 12-20m-10-1c-3.52-7.65-.27-15.15 8.07-11.07 8.35 4.08-2.39 13.21-8.07 11.07m4 15c-1.28-2.92-2.25-5.9-3-9 9.22-8.21 14.95 7.08 3 9ZM185 4c-16.45-.95-13.69 20.77-17 32 6.81 2.83 8.87-2.05 7-8 4.64-1.48 9.54-2.06 14-4 1.13 2.99 3.04 6.16 4 9 6.14-9.03-5.97-19.48-8-29m3 17c-3.86 1.42-7.94 1.86-12 3-1.97-2.33-.11-11.89 3.25-12.75 3.35-.87 8.37 7.18 8.75 9.75ZM98 10c-5.6-1.23-11.06-1.91-16-4-1.43 2.2-1.85 4.7-3 7 6.98 3.25 16.13-1.1 15.2 9.75-.94 10.86-8.55 1.93-13.44 4-4.9 2.07 12.09 11.28 15.99 5 3.9-6.29 3.33-14.92 1.25-21.75Z" fill="none" fill-opacity="0" stroke="#FFF" stroke-width=".3"/><path d="M116 7c-9.9-2.26-15.02 16.83-9.25 24.25 5.78 7.41 20.69 4.7 23.48-4.02 2.78-8.72 5.26-24.8-8.23-18.23.47 4.02 3.18 14.96-3.97 13.97-7.16-.98.76-11.5-2.03-15.97m-2 3c-2.18 8.07-3.18 19.93 9 16 4.64-4.71-1.88-16.22 7-15 2.27 12.11-3.54 23.18-15.22 20.22-11.68-2.96-9.17-18.35-.78-21.22ZM143 21c5.68 2.14 16.42-6.99 8.07-11.07-8.34-4.08-11.59 3.42-8.07 11.07m1-10c14.28-.24-1.15 14.07 0 0Z" fill="none" fill-opacity="0" stroke="#000" stroke-width=".3"/><path d="M114 10c-8.39 2.87-10.9 18.26.78 21.22C126.46 34.18 132.27 23.11 130 11c-8.88-1.22-2.36 10.29-7 15-12.18 3.93-11.18-7.93-9-16Z" fill="none" fill-opacity="0" stroke="#FFF" stroke-width=".3"/><path d="M144 11c-1.15 14.07 14.28-.24 0 0Z" stroke="none" fill="none" fill-opacity="0" stroke-opacity="0" stroke-width=".3"/><path d="M188 21c-.38-2.57-5.4-10.62-8.75-9.75-3.36.86-5.22 10.42-3.25 12.75 4.06-1.14 8.14-1.58 12-3m-7-6c4.12 4.19 1.78 7.28-4 6 .67-2.13 1.22-5.93 4-6Z" fill="none" fill-opacity="0" stroke="#000" stroke-width=".3"/><path d="M181 15c-2.78.07-3.33 3.87-4 6 5.78 1.28 8.12-1.81 4-6Z" stroke="none" fill="none" fill-opacity="0" stroke-opacity="0" stroke-width=".3"/><path d="M147 36c11.95-1.92 6.22-17.21-3-9 .75 3.1 1.72 6.08 3 9m3-9c3.03.46 1.32 5.39-1.08 4.92-2.4-.47-2.31-5.43 1.08-4.92Z" fill="none" fill-opacity="0" stroke="#000" stroke-width=".3"/><path d="M150 27c-3.39-.51-3.48 4.45-1.08 4.92 2.4.47 4.11-4.46 1.08-4.92Z" stroke="none" fill="none" fill-opacity="0" stroke-opacity="0" stroke-width=".3"/><path d="M460 35c-10.69 2.48-22.19 2.69-33 4-1.05 17.92-3.79 35.4-6 53-6.09-17.2-8.41-37.4-18-54-8.45 7.64-19.49 10.76-30 14 2.45 12.25 6.58 24.28 11.25 35.75 4.66 11.48 8.49 22.54 12.83 34.17 4.34 11.63 10.05 20.77 14.14 32.86s19.61-1.85 28.78-4.78c2.16-14.78 4.52-28.98 4-43 6.04 15.28 11.65 32.08 14 49 8.91 2.65 13.12-.69 21.97-.02 8.86.66 13.96-4.95 15.05-13.96 1.1-9 4.27-16.31 6.05-24.95 1.79-8.63 4.77-17.39 5.95-26.05 1.19-8.66 4.06-17.59 4.98-26.02.92-8.42 6.65-19.97-3.99-21.01-10.64-1.04-14.94-4.72-25.01-5.99-6.05 18.72-2.53 40.46-8 59-4.56-20.39-8.33-41.88-15-62m24 7c10.28 2.18 18.61 4.6 29 6-8.71 34.89-12.9 70.91-25 104-7.89.72-12.51-.65-20.22.78-7.71 1.43-8.23-6.89-10.56-14-2.32-7.12-3.52-14.35-5.55-21.45S447.17 102.74 445 96c-2.8 13.64-5.71 25.04-5.93 39.07-.22 14.04-12.59 18.87-25.07 21.93-2.36-8.54-6.04-17.4-9.31-25.69-3.26-8.3-7.49-17.77-10.02-25.98-2.53-8.21-8.36-18.51-9.67-26.33-1.31-7.83-12.82-19-6.92-24.92 5.91-5.91 19.03-4.57 24.92-11.08 1.82 10.22 6.86 19.22 9.92 29.08 3.07 9.86 1.52 23.11 8.08 30.92 5.15-19.29 7.16-40.26 8-61 8.6 1.42 16.59-2.86 25-2 8.41.86 6.71 11.58 9.77 18.23 3.06 6.65 2.02 15.31 4.23 22.77 2.21 7.46 2.44 15.22 4.99 23.01 2.56 7.79 6.23-5.57 6.79-12.23.55-6.66 1.35-16.2 2.2-23.8.84-7.6.65-18.25 2.02-25.98Z" fill="none" fill-opacity="0" stroke="#000" stroke-width=".3"/><path d="M484 42c-1.37 7.73-1.18 18.38-2.02 25.98-.85 7.6-1.65 17.14-2.2 23.8-.56 6.66-4.23 20.02-6.79 12.23-2.55-7.79-2.78-15.55-4.99-23.01-2.21-7.46-1.17-16.12-4.23-22.77-3.06-6.65-1.36-17.37-9.77-18.23-8.41-.86-16.4 3.42-25 2-.84 20.74-2.85 41.71-8 61-6.56-7.81-5.01-21.06-8.08-30.92-3.06-9.86-8.1-18.86-9.92-29.08-5.89 6.51-19.01 5.17-24.92 11.08C372.18 60 383.69 71.17 385 79c1.31 7.82 7.14 18.12 9.67 26.33 2.53 8.21 6.76 17.68 10.02 25.98 3.27 8.29 6.95 17.15 9.31 25.69 12.48-3.06 24.85-7.89 25.07-21.93.22-14.03 3.13-25.43 5.93-39.07 2.17 6.74 4.64 14.23 6.67 21.33 2.03 7.1 3.23 14.33 5.55 21.45 2.33 7.11 2.85 15.43 10.56 14 7.71-1.43 12.33-.06 20.22-.78 12.1-33.09 16.29-69.11 25-104-10.39-1.4-18.72-3.82-29-6m-28 4c2.61 25.38 10.29 49.2 18 73 8.01-21.56 9.68-44.34 15-67 10.96-.91 13.32 4.2 11.6 12.75-1.72 8.54-.97 16.58-4.38 24.47-3.4 7.9-2.47 16.5-4.22 24.78-1.75 8.28-4.35 16.4-5 25-7.6 2.5-13.74 4.73-22 5-8.78-20.87-11.03-44.32-22-64-3.93 18.98-4.95 39.29-7 59-7.65 3.14-19.5 12.29-22.78 1.78-3.27-10.52-6.28-17.36-10.19-26.81-3.91-9.44-7.81-16.64-10.96-26.04-3.15-9.4-6.36-18.68-10.07-27.93 4.17-3.56 11.11-3.88 16-7 10.27 22.01 14.91 46.01 25 68 7.74-22.26 7.28-48.22 12-71 7.14.75 14.52-.43 21-4Z" fill="none" fill-opacity="0" stroke="#FFF" stroke-width=".3"/><path d="M0 47v3c13.32 35.89 24.62 72.91 37 110 11.2 2.53 16.69-3.63 28-2 11.31 1.63 14.01-5.56 16.07-14.93 2.06-9.36 4.41-15.55 7.01-23.99 2.59-8.45 4.63-15.41 7.92-23.08 2.53 21.1.79 43.1 6 64 7.82-3.59 25.82 1.73 32.3-3.7 6.49-5.42-.88-18.73-.52-28.08.36-9.35-3.36-21.31-1.45-31.55 1.91-10.24-5.72-20.89-4.31-31.65 1.42-10.76-14.5-6.01-23.02-6.02 2.53-9.07-7.37-8.05-13.33-9.67C85.71 47.71 78.71 47.62 73 45c-7.9 21.07-12.13 43.71-18 65-5.35-9.99-6.75-21.5-11.25-31.75-4.49-10.26-8.97-20.29-11.78-31.22C29.17 36.1 7.43 45.85 0 47m58 73c-1.61-7.39 2.41-17.89 3.98-25.02 1.56-7.14 4.42-18.84 6.01-24.99 1.59-6.15 4.68-21.78 10.09-20.06 5.4 1.72 22.46.96 23.89 7.1 1.42 6.14-4.7 17.84-5.97 24.97-1.26 7.13-5.1 17.36-6.98 25.02-1.87 7.66-5.7 15.85-7.01 23.99-1.32 8.13-6.91 16.34-8.01 23.99-12.23.53-23.62 1.41-35 2-3.54-11.73-6.8-23.84-11.92-35.08C21.95 110.69 21.39 95.7 14 87c-2.47-10.82-.45-18.94-6.99-29.01s7.49-13.62 17.06-12.92c9.58.71 6.89 17.1 11.91 23.95 5.01 6.86 5.66 18.46 9.95 26.05 4.28 7.59 4.94 20.78 12.07 24.93m68-59c1.94 30.63 4.19 61.71 7 93-9.32 1.41-19.67.84-29 3-3.97-15.89-2.26-32.2-3.93-48.07C98.41 93.05 98.9 77.54 104 62c7.78-.55 14.91.55 22-1ZM275 56c1.94-8.14-9.9-6.54-15.98-9.02-6.07-2.49-15.23-4.2-22.02-4.98-7.18 19.46-10.23 40.52-16 60-3.53-8.74-.68-24.28-4.68-32.32-4-8.05-1.48-24.57-10.31-26.67-8.83-2.1-23.21 3.13-32.01 3.99-.59 2.94 1.59 5.09 1 8-10-.26-17.92-2.48-28-3-10.08-.52-8.01 12.86-8 21 .01 8.14.93 21.2 1.22 29.78.29 8.58 1.64 20.84 0 29-1.64 8.15-1.26 21.47 7.09 19.57 8.34-1.9 16.46 6.25 23.66 2.62 7.2-3.62 3.21-17.3 6.03-24.97 2.82-7.67-.12-19.92 3-28 3.12-8.08-3.26-19.57 1-27 4.38 27.41 13.71 54.61 16 83 15.43 2.22 30.68-1.12 47 0 5-17.47 12.68-35.74 17-54 2.49 17.12 1.66 35.85 5 53 10.48-2.85 21.87-1.53 32-2-.4-10.18 2-18.77 3-29s-.47-20.69-.01-30.99c.46-10.3-1.19-20.65-.99-32.01.19-11.36-19.4-.66-25-6m-3-2c-2.82 9.31-4.91 18.55-8.33 27.67-3.42 9.12-4.89 19.04-7.6 28.4-2.7 9.37-6.8 17.26-9 27-2.19 9.75-6.06 19.59-17.08 16.94-11.02-2.65-19.04 3.28-29.99-.01-3.19-32.21-15.92-64.57-17-97-3.81-1.69-5.76-3.6-6-8 8.93-1.66 17.81-1.8 26.22-1.78 8.42.02 5.68 13.42 9.56 21 3.88 7.59.86 20.76 4.22 28.78s-.89 21.04 6 25c-1.3 3.31-.91 8.16-5 8-5.34-26.45-8.63-52.83-13-79-8.82.33-23.09 1.54-18.07 12.07 5.02 10.54 2.18 20.04 6.39 29.61 4.21 9.56 3.4 21.46 5.67 30.33 2.27 8.86 1.58 23.6 11.03 24.97 9.46 1.36 18.02 3.57 26.98 1.02.99-7.16 3.22-14.03 4.98-21.02 1.75-7 3.96-13.2 5.8-20.2 1.84-7 4.33-13 7.15-19.85 2.81-6.86 1.7-12.95 6.4-19.6 4.69-6.66 4.17-10.94-3.41-12.26-7.58-1.33-13.92-7.27-16.84 1.01-2.93 8.27-4.19 13.22-6.01 20.99-1.81 7.78-3.78 12.72-5.99 20.01-2.22 7.28-2.3 14.8-5.08 21.92-1.3-25.31 9.36-50.39 15-75 11.17 2.69 21.51 7.22 33 9m-93 5c-4.09 30.22-1.1 62.69-10 92-7.92-.13-16.67-3.88-25-2 .37-30.62-1.23-61.89-2-93 13.06-.73 24.32 3.19 37 3m117 1c4.18 30.98-.48 61.17 0 90-9.05 1.79-18.87.5-28 2-2.42-15.61-1.45-31.75-3-48s4.9-29.68 9-45c7.29 3.69 14.84.17 22 1ZM937 130v-5c-1.33-5.09-4.93-10.96-10.97-8.97-6.04 1.99-6.79 11.28.97 10.97.95 6.42-7 10.02-12 7 7.75-10.02-1.62-28.46-14.78-25.78-13.15 2.69-15.47 19.5-9.22 28.78-14.85 9.71-23.21-8.42-29-19 12.24-2.08 20.13-12.95 22.22-24.78 2.09-11.82-.77-27.85-9.47-35.97-8.7-8.13-22.23-13.43-33.75-13.25-11.52.18-33.28-4.24-34.01 8.99-.73 13.23.02 28.79-1.99 42.01-.77-4-2.17-7.79-2-12-11.95 4.17-24.97 3.99-37 8-5.46-12.3 7.7-11.31 15.31-11.69 7.6-.39 13.35-3.47 20.69-3.31.61-8.7-5.13-17.87-6-27-8.98 1.71-19.86 3.02-28.77 3.79S750.12 57.97 740 57c-.43 4.99-.47 10.64-2 15-.12-6.41.05-12.32 1-18-10.99-4.99-22.53-4-34-6-3.43 12.06 2.11 24.94-1 37-5.94-4.05-5.91-13.06-9.74-18.26-3.84-5.19-3.59-15.96-11.58-13.06-8 2.9-17.51.1-25.68 2.32-1.53 9.01-.56 20.74-1.22 29.78-.66 9.04-1.23 15.72-1.78 25.22-.55 9.5-.34 19.58-1 29-.66 9.42-2.86 21.74 8.78 19.78 11.63-1.96 12.27.93 23.22-2.78-1.4-12.14.12-26.41 0-39 4.37 5.82 6.73 14.73 10.7 21.3 3.97 6.56 5.21 16.69 14.3 14.7 9.09-1.99 18.57 1.13 26-5 1.65-24.12.25-51.37 3-75 4.32 26.37 4.96 53.03 6 81 17.76-1.58 36.39-2.13 54-6 1.61 7.57 8.69 5.86 13.78 6.22 5.08.36 15.29 1.83 19.44-1 4.15-2.82-3.82-17 1.78-20.22 8.14 12.36 18.66 24.82 33.98 27.02 15.31 2.21 29.03-10.45 40.02-19.02 11.33 4.72 24.21-.9 29-12m-80-14c6.22 8.81 10.1 24.82 23 27-6.12 4.98-13.81-2.73-17.92-9.08-4.11-6.35-9.73-12.66-14.08-18.92 20.33-2.34 34.96-27.74 22.74-45.74C858.52 51.25 833.75 47.97 814 53c.68 32.44-3.91 61.99-5 94 6.36.37 11.98 2.56 18 0-1.79-8.63 1.87-18.52 1-27 6.38 4.2 11.01 8.38 15.77 14.23s8.75 11.7 14.98 16.02 17.45 4.56 24.47 1.97S895.69 141.74 902 142c-6.06 7.11-12.85 9.88-22.02 13.97-9.18 4.1-19.09.56-26.73-6.22-7.64-6.78-11.91-9.21-18-19-6.1-9.78-6.74 12.92-5.25 20.25-9.09 1.2-18.45.77-27 0 5.54-8.69-.09-25.3 3-36 3.09-10.71 1.77-24.81 3-36 1.23-11.19-3.87-30.14 8.07-30.93 11.94-.78 24.97-1.86 35.93.93s18.06 8.28 23.77 17.23c5.71 8.95 5.7 21.69 2.92 31.46-2.77 9.77-12.91 16.63-22.69 18.31M736 57c-1.87 14.12-1.15 25.84-1.07 40.07.08 14.24-3.41 24.5-1.93 39.93 1.48 15.43-15.2 11.94-27 15-6.24-15.56-15.26-27.45-21-43-5.34 4.7-3.03 13.67-3 21 .03 7.33-.38 16.71 0 24-9.22 2.07-17.36 1.13-27 2 .76-10.43 1.62-21.11 1.98-31.02.35-9.92-.49-21.41.95-31.05 1.44-9.65-.15-20.5 1.07-30.93s20.24-1.9 28-6c3.27 7.02 5.61 17.1 9.33 23.67 3.71 6.58 7.1 17.21 12.67 18.33-3.16-7.39-1.31-17.38-1-25 .31-7.62-5.39-22.07 4-22 9.4.08 14.91 2.64 24 5m63 15c-12.2 4.81-24.34 3.04-36 7 2.75 4.3-5.33 16.6 5 15 10.34-1.61 21.51-5.75 33-6 .96 6.23 2.56 12.36 2 19-13.95 2.73-27.94 4.79-42 8 1.44 3.1 1.65 6.02 2 9 12.45-1.15 24.48-1.31 36-4 6.32 6.03.63 17.38 4 25-18.74 4.61-36.7 2.63-55 7-.27-10.07-.32-19.85-1.21-29.23-.89-9.38-1.75-18.95-1.79-28.77-.04-9.82-2.88-16.11-3-27-.12-10.89 11.72-5.84 19.7-9.31 7.97-3.46 16.35-.05 25.52-4.47C796.39 48.8 796.04 66.34 799 72m29 32c.94-9.8.37-21.7 2-32 9-1.3 26.8 3.09 25 16-1.8 12.91-17.16 14.63-27 16m-24 6c.67 2.94-1.09 5.18-1 8-12.77-1.41-24.28 2.25-38 3 2.29-6.67 12.03-5.37 18.08-7.07 6.04-1.7 15.14-.78 20.92-3.93m101 22c14.28-5.67-5.44-20.51-9.29-9.3-3.86 11.22 11.33 13.65 19.29 15.3 7.96 1.65 23.49-10.06 9-15 5.01-10.9 14.13 5.76 6.7 11.7-7.43 5.93-17.48 6.05-26.37 3.97-8.89-2.08-15.58-8.66-13.55-17.89 2.03-9.24 12.27-11.05 18.97-5.53 6.69 5.53 5.59 22.54-4.75 16.75m-2-2c-3.72-.34-7.34-6.39-1.9-7.9 5.44-1.51 5.65 5.89 1.9 7.9Z" fill="none" fill-opacity="0" stroke="#000" stroke-width=".3"/><path d="M58 120c-7.13-4.15-7.79-17.34-12.07-24.93-4.29-7.59-4.94-19.19-9.95-26.05-5.02-6.85-2.33-23.24-11.91-23.95-9.57-.7-23.6 2.85-17.06 12.92C13.55 68.06 11.53 76.18 14 87c7.39 8.7 7.95 23.69 13.08 34.92C32.2 133.16 35.46 145.27 39 157c11.38-.59 22.77-1.47 35-2 1.1-7.65 6.69-15.86 8.01-23.99 1.31-8.14 5.14-16.33 7.01-23.99C90.9 99.36 94.74 89.13 96 82c1.27-7.13 7.39-18.83 5.97-24.97-1.43-6.14-18.49-5.38-23.89-7.1-5.41-1.72-8.5 13.91-10.09 20.06-1.59 6.15-4.45 17.85-6.01 24.99-1.57 7.13-5.59 17.63-3.98 25.02M26 53c9.64 25.49 20.42 50.7 31 76 6.77-23.48 13.12-47.98 19-72 8.52.26 23.88 2.56 19.23 12.23C90.58 78.9 91.41 87.41 87 96c-4.4 8.59-7.39 16.57-9.33 25.67-1.93 9.1-10.19 14.92-8.67 24.33-8.07 3.38-18.39 1.04-27 2-3.73-6.92-5.06-13.78-7.92-21.08-2.87-7.3-4.63-13.69-7.85-21.15-3.23-7.46-3.58-14.3-6.43-22.02-2.84-7.71-3.44-12.16-7.58-20.97C8.09 53.97 17.23 52.61 26 53ZM272 54c-11.49-1.78-21.83-6.31-33-9-5.64 24.61-16.3 49.69-15 75 2.78-7.12 2.86-14.64 5.08-21.92 2.21-7.29 4.18-12.23 5.99-20.01 1.82-7.77 3.08-12.72 6.01-20.99 2.92-8.28 9.26-2.34 16.84-1.01 7.58 1.32 8.1 5.6 3.41 12.26-4.7 6.65-3.59 12.74-6.4 19.6-2.82 6.85-5.31 12.85-7.15 19.85-1.84 7-4.05 13.2-5.8 20.2-1.76 6.99-3.99 13.86-4.98 21.02-8.96 2.55-17.52.34-26.98-1.02-9.45-1.37-8.76-16.11-11.03-24.97-2.27-8.87-1.46-20.77-5.67-30.33-4.21-9.57-1.37-19.07-6.39-29.61C181.91 52.54 196.18 51.33 205 51c4.37 26.17 7.66 52.55 13 79 4.09.16 3.7-4.69 5-8-6.89-3.96-2.64-16.98-6-25s-.34-21.19-4.22-28.78c-3.88-7.58-1.14-20.98-9.56-21-8.41-.02-17.29.12-26.22 1.78.24 4.4 2.19 6.31 6 8 1.08 32.43 13.81 64.79 17 97 10.95 3.29 18.97-2.64 29.99.01s14.89-7.19 17.08-16.94c2.2-9.74 6.3-17.63 9-27 2.71-9.36 4.18-19.28 7.6-28.4 3.42-9.12 5.51-18.36 8.33-27.67Z" fill="none" fill-opacity="0" stroke="#FFF" stroke-width=".3"/><path d="M552 45c-9.59 3.19-30.32-3.29-32 9-1.68 12.29-4.1 22.68-6.67 34.33-2.57 11.64-3.93 23.26-6.4 34.6-2.47 11.33-6.94 20.45-7.93 32.07 5.34 1.77 12.12.99 16.78 1.22 4.65.23 10.46 2.76 14.51 1.07 4.06-1.68 2.19-12.14 2.72-16.28.53-4.14 2.74-12.8 1.99-17.01 3.53-1.67 7.22.77 11-1 2.53 7.4 5.03 13.55 5.22 21.78.19 8.22 3.64 14.97 11.77 11.21 8.13-3.75 12.24-2.76 20.01-5.99 9.77 9.74 26.88 9.69 39.33 8.33 12.44-1.36 23.26-12.71 26.68-24.32 3.41-11.61 6.88-34.79-7.32-37.7C627.5 93.39 616.66 92.67 602 90c-1.76 8.27-3.06 15.39-4 24-.93 8.61 14.09 7.79 20 8-.64 10.78-13.9 6.7-20.25 3.25-6.35-3.44-9.17-14.41-7.53-21.03 1.64-6.61 3-16.14 9.08-20.92 6.09-4.77 17.77-1.92 25.03-.63 7.25 1.29 18.76 8.18 19.89-2.45 1.14-10.63 5.5-11.98 4.78-21.22-15.28-4.95-35.1-10.27-49.97-3.97C584.15 61.32 574.04 71.83 566 85c-5.37-13.05-9.04-26.72-14-40m4 110c0-10.01-3.98-15.34-4.33-25.67-.35-10.33-9.93-9.18-17.67-9.33-3.05 10.97-3.28 22.66-5 34-8.18-.96-12.63-.89-21.01-1.01-8.37-.12-3.37-11.37-1.22-17.22 2.15-5.85 2.43-15.19 4.23-21.77 1.8-6.58 2.76-14.7 4.33-21.67 1.57-6.97 3.49-14.04 4.66-21.34 1.18-7.29 2.92-13.68 4.01-20.99 7.88-1.24 14.5.38 22.01-.01 7.51-.39 7.83 9.81 10.3 16.7 2.46 6.9 4.82 14.38 7.67 21.33 2.84 6.96 2.6 14.38 6.94 21.06 4.35 6.67 4.03 13.96 7.85 21.15 3.82 7.19 7.69 15.57-1.44 17.1-9.13 1.53-12.15 7.12-21.33 7.67m90-93c-1.61 3.72.22 9.8-5 11 .42 3.95 1.46 7.42-1 11-9.38-5.34-20.54-4.67-31-6s-16.54 9.55-19.77 17.23c-3.23 7.68-3.97 24.49 2.69 29.85 6.66 5.36 17.54 13.18 25.83 4.67S610.98 115.08 601 117c.83-7.6 2.64-15.01 2-23 14.74 2.29 29.88 3.25 44 8 2.34 15.29 2.27 37.8-12.25 47.75-14.52 9.96-33.75 5.65-48.75-.75 2.91-1.3 2.94-3.53 1-6 11.81 3.4 28.6 9.09 40.23 2.23 11.63-6.86 18.61-19.42 16.38-32.98-2.24-13.56-24.45-10.3-35.61-14.25-1.65 5.48-2.35 11.23-3 17 6.86 1.5 14.03 1.84 21 3-.09 7.19-6.47 17.96-14.08 17.92-7.6-.03-14.58-4.12-20.61-9.22-6.04-5.11-7.12-15.29-6.98-22.37.15-7.09 1.63-16.15 7.92-22.08 6.29-5.92 15.03-8.08 23.75-7.25 8.72.82 19.25 6.79 22.31-3.69 3.05-10.49-6.64-10.56-14.98-11.64s-18.12.14-25.55 3.11c-7.44 2.96-12.36 7.85-18.03 13.97-5.67 6.12-6.84 16.89-8.75 24.25-8.21-17.63 7.6-29.66 21.75-39.25 14.14-9.6 37.75-6.48 53.25.25ZM456 46c-6.48 3.57-13.86 4.75-21 4-4.72 22.78-4.26 48.74-12 71-10.09-21.99-14.73-45.99-25-68-4.89 3.12-11.83 3.44-16 7 3.71 9.25 6.92 18.53 10.07 27.93 3.15 9.4 7.05 16.6 10.96 26.04 3.91 9.45 6.92 16.29 10.19 26.81 3.28 10.51 15.13 1.36 22.78-1.78 2.05-19.71 3.07-40.02 7-59 10.97 19.68 13.22 43.13 22 64 8.26-.27 14.4-2.5 22-5 .65-8.6 3.25-16.72 5-25 1.75-8.28.82-16.88 4.22-24.78 3.41-7.89 2.66-15.93 4.38-24.47 1.72-8.55-.64-13.66-11.6-12.75-5.32 22.66-6.99 45.44-15 67-7.71-23.8-15.39-47.62-18-73Z" fill="none" fill-opacity="0" stroke="#000" stroke-width=".3"/><path d="M857 116c9.78-1.68 19.92-8.54 22.69-18.31 2.78-9.77 2.79-22.51-2.92-31.46S863.96 51.79 853 49c-10.96-2.79-23.99-1.71-35.93-.93-11.94.79-6.84 19.74-8.07 30.93-1.23 11.19.09 25.29-3 36-3.09 10.7 2.54 27.31-3 36 8.55.77 17.91 1.2 27 0-1.49-7.33-.85-30.03 5.25-20.25 6.09 9.79 10.36 12.22 18 19 7.64 6.78 17.55 10.32 26.73 6.22 9.17-4.09 15.96-6.86 22.02-13.97-6.31-.26-11.76 7.63-18.78 10.22-7.02 2.59-18.24 2.35-24.47-1.97s-10.22-10.17-14.98-16.02S834.38 124.2 828 120c.87 8.48-2.79 18.37-1 27-6.02 2.56-11.64.37-18 0 1.09-32.01 5.68-61.56 5-94 19.75-5.03 44.52-1.75 56.74 16.26 12.22 18-2.41 43.4-22.74 45.74 4.35 6.26 9.97 12.57 14.08 18.92 4.11 6.35 11.8 14.06 17.92 9.08-12.9-2.18-16.78-18.19-23-27ZM556 155c9.18-.55 12.2-6.14 21.33-7.67 9.13-1.53 5.26-9.91 1.44-17.1-3.82-7.19-3.5-14.48-7.85-21.15-4.34-6.68-4.1-14.1-6.94-21.06-2.85-6.95-5.21-14.43-7.67-21.33-2.47-6.89-2.79-17.09-10.3-16.7-7.51.39-14.13-1.23-22.01.01-1.09 7.31-2.83 13.7-4.01 20.99-1.17 7.3-3.09 14.37-4.66 21.34-1.57 6.97-2.53 15.09-4.33 21.67-1.8 6.58-2.08 15.92-4.23 21.77-2.15 5.85-7.15 17.1 1.22 17.22 8.38.12 12.83.05 21.01 1.01 1.72-11.34 1.95-23.03 5-34 7.74.15 17.32-1 17.67 9.33.35 10.33 4.33 15.66 4.33 25.67m22-11c-6.29-.89-11.1 3.33-17 4-4.44-10.42-4.14-22.28-10-32-7.7 1.61-14.91.5-23 1 .16 10.42-2.93 19.89-4 30-4.71 1.71-10.38-.03-15 2-1.89-9.33 3.41-19.85 4.93-29.07 1.52-9.23 4.08-20.81 6.84-29.16 2.76-8.35 1.6-23.29 6.16-29.84 4.56-6.56 21.83-6.89 24.06 1.08 2.23 7.97 5.94 18.55 8.93 27.07 3 8.51 4.41 19.08 8.39 27.61 3.97 8.54 7.85 18 9.69 27.31ZM736 57c-9.09-2.36-14.6-4.92-24-5-9.39-.07-3.69 14.38-4 22-.31 7.62-2.16 17.61 1 25-5.57-1.12-8.96-11.75-12.67-18.33-3.72-6.57-6.06-16.65-9.33-23.67-7.76 4.1-26.78-4.43-28 6-1.22 10.43.37 21.28-1.07 30.93-1.44 9.64-.6 21.13-.95 31.05-.36 9.91-1.22 20.59-1.98 31.02 9.64-.87 17.78.07 27-2-.38-7.29.03-16.67 0-24-.03-7.33-2.34-16.3 3-21 5.74 15.55 14.76 27.44 21 43 11.8-3.06 28.48.43 27-15-1.48-15.43 2.01-25.69 1.93-39.93-.08-14.23-.8-25.95 1.07-40.07m-6 4c1.38 9.61-.21 18.68 0 28s-1.54 22.82-1.93 31.07c-.39 8.26 4.62 20.71-5.32 23.68-9.93 2.98-16.29.6-19.67-7.83-3.38-8.43-7.91-13.09-11.85-21.15-3.94-8.06-6.99-14.31-11.23-21.77-.57 7.78-1.69 13-1 21s-3.04 18.54-1.33 26.67c1.71 8.13-6.59 12.75-14.67 9.33s.42-17.2-2-25c-2.42-7.8 3.18-15.3 1.93-24.07-1.26-8.78 2.78-15.06 1.07-24.93-1.71-9.87 6.42-12.93 15.08-11.93s7.69 10.2 11.69 16.16c4 5.96 6.5 12.24 9.22 18.78 2.73 6.54 7.81 12.1 10.01 18.99 3.96-7.5 1.92-18.37 3.98-28.02 2.05-9.66-.67-20.15 2.02-29.98 4.91-.65 9.07 1.65 14 1ZM799 72c-2.96-5.66-2.61-23.2-11.78-18.78-9.17 4.42-17.55 1.01-25.52 4.47-7.98 3.47-19.82-1.58-19.7 9.31.12 10.89 2.96 17.18 3 27 .04 9.82.9 19.39 1.79 28.77.89 9.38.94 19.16 1.21 29.23 18.3-4.37 36.26-2.39 55-7-3.37-7.62 2.32-18.97-4-25-11.52 2.69-23.55 2.85-36 4-.35-2.98-.56-5.9-2-9 14.06-3.21 28.05-5.27 42-8 .56-6.64-1.04-12.77-2-19-11.49.25-22.66 4.39-33 6-10.33 1.6-2.25-10.7-5-15 11.66-3.96 23.8-2.19 36-7m-8-15c-.17 4.21 1.23 8 2 12-10.91 3.54-21.99 6.15-34 6-1.45 7.84 3.54 14.61 1 22 11.75-.86 15.14.66 26.75-4.59 11.6-5.26 12.76 15.46.58 14.92-12.18-.54-17.23 4.71-29.33 5.67 2.38 5.17 2.5 10.95 3 16 12.6-3.75 24.44-1.37 37-4 2.63 9.14 2.55 18.93-7.22 17.22-9.77-1.71-15.46 7.8-24.78 1.78-3.52 3.65-14.67 6.64-14.99-1.01-.32-7.65-1.13-15.34-2.01-22.99-.88-7.65-.22-15.11-1-23-.78-7.89.51-12.39-2-21s1.44-12.14 9.67-12.33c8.23-.19 11.79-3.28 18.4-2.6 6.62.68 10.43-4.19 16.93-4.07Z" fill="none" fill-opacity="0" stroke="#FFF" stroke-width=".3"/><path d="M26 53c-8.77-.39-17.91.97-13.78 9.78 4.14 8.81 4.74 13.26 7.58 20.97 2.85 7.72 3.2 14.56 6.43 22.02 3.22 7.46 4.98 13.85 7.85 21.15 2.86 7.3 4.19 14.16 7.92 21.08 8.61-.96 18.93 1.38 27-2-1.52-9.41 6.74-15.23 8.67-24.33 1.94-9.1 4.93-17.08 9.33-25.67 4.41-8.59 3.58-17.1 8.23-26.77C99.88 59.56 84.52 57.26 76 57c-5.88 24.02-12.23 48.52-19 72-10.58-25.3-21.36-50.51-31-76Z" fill="none" fill-opacity="0" stroke="#000" stroke-width=".3"/><path d="M646 62c-15.5-6.73-39.11-9.85-53.25-.25C578.6 71.34 562.79 83.37 571 101c1.91-7.36 3.08-18.13 8.75-24.25 5.67-6.12 10.59-11.01 18.03-13.97 7.43-2.97 17.21-4.19 25.55-3.11 8.34 1.08 18.03 1.15 14.98 11.64-3.06 10.48-13.59 4.51-22.31 3.69-8.72-.83-17.46 1.33-23.75 7.25-6.29 5.93-7.77 14.99-7.92 22.08-.14 7.08.94 17.26 6.98 22.37 6.03 5.1 13.01 9.19 20.61 9.22 7.61.04 13.99-10.73 14.08-17.92-6.97-1.16-14.14-1.5-21-3 .65-5.77 1.35-11.52 3-17 11.16 3.95 33.37.69 35.61 14.25 2.23 13.56-4.75 26.12-16.38 32.98-11.63 6.86-28.42 1.17-40.23-2.23 1.94 2.47 1.91 4.7-1 6 15 6.4 34.23 10.71 48.75.75 14.52-9.95 14.59-32.46 12.25-47.75-14.12-4.75-29.26-5.71-44-8 .64 7.99-1.17 15.4-2 23 9.98-1.92 25.04 4.24 16.75 12.75s-19.17.69-25.83-4.67c-6.66-5.36-5.92-22.17-2.69-29.85S598.54 76.67 609 78c10.46 1.33 21.62.66 31 6 2.46-3.58 1.42-7.05 1-11 5.22-1.2 3.39-7.28 5-11Z" fill="none" fill-opacity="0" stroke="#FEFEFE" stroke-width=".3"/><path d="M179 59c-12.68.19-23.94-3.73-37-3 .77 31.11 2.37 62.38 2 93 8.33-1.88 17.08 1.87 25 2 8.9-29.31 5.91-61.78 10-92m-11 81c-6.18 2.22-13.41.42-20 1-.49-7.6.62-15.29.22-22.22-.4-6.94 1.21-13.15.45-20.45-.76-7.3.61-12.63.33-21.33-.28-8.7 1.48-13.26 10.02-12.02 8.55 1.24 15.35 1.94 12.65 10.69-2.7 8.75-.54 13-1.67 21.33-1.13 8.33-.69 12.6-1.33 20.67-.64 8.07-1.71 14.83-.67 22.33Z" fill="none" fill-opacity="0" stroke="#FFF" stroke-width=".3"/><path d="M578 144c-1.84-9.31-5.72-18.77-9.69-27.31-3.98-8.53-5.39-19.1-8.39-27.61-2.99-8.52-6.7-19.1-8.93-27.07-2.23-7.97-19.5-7.64-24.06-1.08-4.56 6.55-3.4 21.49-6.16 29.84-2.76 8.35-5.32 19.93-6.84 29.16-1.52 9.22-6.82 19.74-4.93 29.07 4.62-2.03 10.29-.29 15-2 1.07-10.11 4.16-19.58 4-30 8.09-.5 15.3.61 23-1 5.86 9.72 5.56 21.58 10 32 5.9-.67 10.71-4.89 17-4m-37-71c-.62 9.51 3.75 17.66 4 27-4.45-.49-9.54 1.07-14 1 3.79-4.52.02-11.32 2.31-15.7 2.28-4.37.66-13.82 7.69-12.3ZM791 57c-6.5-.12-10.31 4.75-16.93 4.07-6.61-.68-10.17 2.41-18.4 2.6-8.23.19-12.18 3.72-9.67 12.33s1.22 13.11 2 21c.78 7.89.12 15.35 1 23s1.69 15.34 2.01 22.99c.32 7.65 11.47 4.66 14.99 1.01 9.32 6.02 15.01-3.49 24.78-1.78 9.77 1.71 9.85-8.08 7.22-17.22-12.56 2.63-24.4.25-37 4-.5-5.05-.62-10.83-3-16 12.1-.96 17.15-6.21 29.33-5.67s11.02-20.18-.58-14.92c-11.61 5.25-15 3.73-26.75 4.59 2.54-7.39-2.45-14.16-1-22 12.01.15 23.09-2.46 34-6-.77-4-2.17-7.79-2-12Z" fill="none" fill-opacity="0" stroke="#000" stroke-width=".3"/><path d="M296 60c-7.16-.83-14.71 2.69-22-1-4.1 15.32-10.55 28.75-9 45 1.55 16.25.58 32.39 3 48 9.13-1.5 18.95-.21 28-2-.48-28.83 4.18-59.02 0-90m-5 7c-.14 25.99.26 52.83-3 78-4.39 1.7-8.59-1.07-13 1-2.38-10.9-2.49-18.45-4-30-1.51-11.55 2-21.41 0-34s11.92-11.78 20-15Z" fill="none" fill-opacity="0" stroke="#FFF" stroke-width=".3"/><path d="M730 61c-4.93.65-9.09-1.65-14-1-2.69 9.83.03 20.32-2.02 29.98-2.06 9.65-.02 20.52-3.98 28.02-2.2-6.89-7.28-12.45-10.01-18.99-2.72-6.54-5.22-12.82-9.22-18.78-4-5.96-3.03-15.16-11.69-16.16S662.29 66.13 664 76c1.71 9.87-2.33 16.15-1.07 24.93 1.25 8.77-4.35 16.27-1.93 24.07 2.42 7.8-6.08 21.58 2 25 8.08 3.42 16.38-1.2 14.67-9.33-1.71-8.13 2.02-18.67 1.33-26.67s.43-13.22 1-21c4.24 7.46 7.29 13.71 11.23 21.77 3.94 8.06 8.47 12.72 11.85 21.15 3.38 8.43 9.74 10.81 19.67 7.83 9.94-2.97 4.93-15.42 5.32-23.68.39-8.25 2.14-21.75 1.93-31.07-.21-9.32 1.38-18.39 0-28Z" fill="none" fill-opacity="0" stroke="#000" stroke-width=".3"/><path d="M126 61c-7.09 1.55-14.22.45-22 1-5.1 15.54-5.59 31.05-3.93 46.93 1.67 15.87-.04 32.18 3.93 48.07 9.33-2.16 19.68-1.59 29-3-2.81-31.29-5.06-62.37-7-93m-16 88c-.02-8.66-2.69-19.14-2.33-27.67.36-8.53-5.65-18.18-3.66-26.34 1.99-8.15-6.31-18.77 2.02-23.96 8.32-5.2 16.68 4.37 14.9 14.04-1.79 9.67 1.86 18.05 2.85 27.15.98 9.1-.02 14.14 2.15 23.86 2.17 9.71-4.44 15.33-15.93 12.92Z" fill="none" fill-opacity="0" stroke="#FFF" stroke-width=".3"/><path d="M168 140c-1.04-7.5.03-14.26.67-22.33.64-8.07.2-12.34 1.33-20.67 1.13-8.33-1.03-12.58 1.67-21.33 2.7-8.75-4.1-9.45-12.65-10.69-8.54-1.24-10.3 3.32-10.02 12.02.28 8.7-1.09 14.03-.33 21.33.76 7.3-.85 13.51-.45 20.45.4 6.93-.71 14.62-.22 22.22 6.59-.58 13.82 1.22 20-1ZM291 67c-8.08 3.22-22 2.41-20 15s-1.51 22.45 0 34 1.62 19.1 4 30c4.41-2.07 8.61.7 13-1 3.26-25.17 2.86-52.01 3-78ZM110 149c11.49 2.41 18.1-3.21 15.93-12.92-2.17-9.72-1.17-14.76-2.15-23.86-.99-9.1-4.64-17.48-2.85-27.15 1.78-9.67-6.58-19.24-14.9-14.04-8.33 5.19-.03 15.81-2.02 23.96-1.99 8.16 4.02 17.81 3.66 26.34-.36 8.53 2.31 19.01 2.33 27.67Z" fill="none" fill-opacity="0" stroke="#000" stroke-width=".3"/><path d="M828 104c9.84-1.37 25.2-3.09 27-16 1.8-12.91-16-17.3-25-16-1.63 10.3-1.06 22.2-2 32m2-28c6.9-2.69 20.3 1 20.99 9.01.69 8.01-10.87 15.66-18.01 13.97-7.15-1.69 1.51-18.55-2.98-22.98Z" fill="none" fill-opacity="0" stroke="#FFF" stroke-width=".3"/><path d="M313 88c5.54 8.72 32.36 1.41 26.92-9.92-5.44-11.33-25.15.15-26.92 9.92m3-1c.57-7.33 16.79-15.88 21.25-8.25 4.46 7.63-16.56 13.44-21.25 8.25Z" fill="none" fill-opacity="0" stroke="#000" stroke-width=".3"/><path d="M541 73c-7.03-1.52-5.41 7.93-7.69 12.3-2.29 4.38 1.48 11.18-2.31 15.7 4.46.07 9.55-1.49 14-1-.25-9.34-4.62-17.49-4-27m-7 26c-1.54-4.55 2.14-23.45 6.3-16.3 4.16 7.15 3.7 17.96-6.3 16.3Z" fill="none" fill-opacity="0" stroke="#F9F9F9" stroke-width=".3"/><path d="M830 76c4.49 4.43-4.17 21.29 2.98 22.98 7.14 1.69 18.7-5.96 18.01-13.97C850.3 77 836.9 73.31 830 76m3 19c1.31-5.36-.57-11.22 1-17 4.51.49 15.59 2.32 14 9-1.59 6.69-9.42 8.21-15 8Z" fill="none" fill-opacity="0" stroke="#000" stroke-width=".3"/><path d="M316 87c4.69 5.19 25.71-.62 21.25-8.25-4.46-7.63-20.68.92-21.25 8.25Z" fill="none" fill-opacity="0" stroke="#FFF" stroke-width=".3"/><path d="M833 95c5.58.21 13.41-1.31 15-8 1.59-6.68-9.49-8.51-14-9-1.57 5.78.31 11.64-1 17Z" stroke="none" fill="none" fill-opacity="0" stroke-opacity="0" stroke-width=".3"/><path d="M534 99c10 1.66 10.46-9.15 6.3-16.3-4.16-7.15-7.84 11.75-6.3 16.3m4-15c1.4 3.56 2.25 9.62-1 12-1.87-3.11.01-8.86 1-12Z" fill="none" fill-opacity="0" stroke="#000" stroke-width=".3"/><path d="M538 84c-.99 3.14-2.87 8.89-1 12 3.25-2.38 2.4-8.44 1-12Z" stroke="none" fill="none" fill-opacity="0" stroke-opacity="0" stroke-width=".3"/><path d="M333 94c-15.06 1.91-5.11 15.02-4 24-8.79 5.67-15.08 9.65-17.67 21.33-2.59 11.68 12.32 16.46 20.42 7.42 8.1-9.04 2.17-21.13 12.25-25.75-2.09 11.4 11.89 15.72 20 11 1.88 11.41 10.1 6.48 15.92 1.92 5.82-4.57 14.07-9.5 3.08-13.92-3.36 3.71-7.57 7.81-12 10-2.59-8.48 3.23-16.61 4-25-6.02-3.29-14.98-6.05-21.25-2.25-6.28 3.79-7.74 11.01-15.75 11.25-1.5-6.72-1.75-13.82-5-20m39 12c.09 8.98-10.73 22.26 1 27 3.19-4.12 6.85-6.91 11-10 4.67 6.66-4.03 5.5-7.7 10.3-3.66 4.8-10.34 2.6-11.3-4.3-8.45 5.32-24.33-.89-17-12-4.72 1.46-9.2 3.69-14 5 6.88 8.91-4.94 33.06-16.68 25.68-11.74-7.38 6.13-26.75 14.68-28.68 1.13-7.65-11.19-18.96-1-22 1.85 6.16 4.89 26 14.07 17.07 9.19-8.93 13.81-12.99 26.93-8.07Z" fill="none" fill-opacity="0" stroke="#000" stroke-width=".3"/><path d="M372 106c-13.12-4.92-17.74-.86-26.93 8.07C335.89 123 332.85 103.16 331 97c-10.19 3.04 2.13 14.35 1 22-8.55 1.93-26.42 21.3-14.68 28.68 11.74 7.38 23.56-16.77 16.68-25.68 4.8-1.31 9.28-3.54 14-5-7.33 11.11 8.55 17.32 17 12 .96 6.9 7.64 9.1 11.3 4.3 3.67-4.8 12.37-3.64 7.7-10.3-4.15 3.09-7.81 5.88-11 10-11.73-4.74-.91-18.02-1-27m-9 1c5.5 1.66-.14 23.05-9.22 18.22-9.08-4.83 1.55-20.53 9.22-18.22m-32 17c3.99 6.97-4.72 24.65-12.25 18.24-7.52-6.4 8.42-15.68 12.25-18.24Z" fill="none" fill-opacity="0" stroke="#FFF" stroke-width=".3"/><path d="M363 107c-7.67-2.31-18.3 13.39-9.22 18.22 9.08 4.83 14.72-16.56 9.22-18.22m0 3c-.4 4.91-3.1 9.19-4 14-12.06.24-4.45-15.94 4-14Z" fill="none" fill-opacity="0" stroke="#000" stroke-width=".3"/><path d="M363 110c-8.45-1.94-16.06 14.24-4 14 .9-4.81 3.6-9.09 4-14ZM804 110c-5.78 3.15-14.88 2.23-20.92 3.93-6.05 1.7-15.79.4-18.08 7.07 13.72-.75 25.23-4.41 38-3-.09-2.82 1.67-5.06 1-8Z" stroke="none" fill="none" fill-opacity="0" stroke-opacity="0" stroke-width=".3"/><path d="M905 132c10.34 5.79 11.44-11.22 4.75-16.75-6.7-5.52-16.94-3.71-18.97 5.53-2.03 9.23 4.66 15.81 13.55 17.89s18.94 1.96 26.37-3.97c7.43-5.94-1.69-22.6-6.7-11.7 14.49 4.94-1.04 16.65-9 15-7.96-1.65-23.15-4.08-19.29-15.3 3.85-11.21 23.57 3.63 9.29 9.3Z" fill="none" fill-opacity="0" stroke="#FFF" stroke-width=".3"/><path d="M903 130c3.75-2.01 3.54-9.41-1.9-7.9-5.44 1.51-1.82 7.56 1.9 7.9Z" stroke="none" fill="none" fill-opacity="0" stroke-opacity="0" stroke-width=".3"/><path d="M331 124c-3.83 2.56-19.77 11.84-12.25 18.24 7.53 6.41 16.24-11.27 12.25-18.24m-3 4c3.2 4.73-3.54 15.72-7.74 11.74-4.21-3.98 6.07-9.2 7.74-11.74Z" fill="none" fill-opacity="0" stroke="#000" stroke-width=".3"/><path d="M328 128c-1.67 2.54-11.95 7.76-7.74 11.74 4.2 3.98 10.94-7.01 7.74-11.74Z" stroke="none" fill="none" fill-opacity="0" stroke-opacity="0" stroke-width=".3"/><path d="M151 0h-8c-9.12.32-8.87 13.06-6.98 19.98 1.9 6.92.44 18.14 3.06 23.93 2.63 5.8 14.36-3.83 18.82-6.01 4.46-2.18 9.13-15.17.1-16.9 7.04-7.89 3.65-19.51-7-21m2 22c17.5 5.08-2.19 19.73-12 20-2.53-10.6 1.09-16.48-2.78-26.22-3.87-9.74 3.61-16.55 14.85-11.85 11.24 4.69 4.78 11.82-.07 18.07ZM185 1c-19 .19-16.36 24.05-19 38 3.69-.63 6.67 1.4 10 2 1.26-3.51 2.01-7.17 2-11 3.4-.55 6.44-2.21 10-2 1.02 14.5 15.33 3.31 8.77-4.77C190.21 15.15 192.84 7.74 185 1m0 3c2.03 9.52 14.14 19.97 8 29-.96-2.84-2.87-6.01-4-9-4.46 1.94-9.36 2.52-14 4 1.87 5.95-.19 10.83-7 8 3.31-11.23.55-32.95 17-32ZM101 8c-7.41-1.43-14.15-5.23-22-5 .92 4.75-1.57 8.63-2 13 4.52 1.34 12.2-.84 15 4 2.8 4.84-7.61 10.25-7 2-4.99-1.2-6.31 4.2-9 7 4.19 6.1 16.13 10.14 22.75 4.75 6.62-5.38 2.27-19.02 2.25-25.75m-3 2c2.08 6.83 2.65 15.46-1.25 21.75-3.9 6.28-20.89-2.93-15.99-5 4.89-2.07 12.5 6.86 13.44-4 .93-10.85-8.22-6.5-15.2-9.75 1.15-2.3 1.57-4.8 3-7 4.94 2.09 10.4 2.77 16 4Z" stroke="None"/><path d="M153 22c4.85-6.25 11.31-13.38.07-18.07-11.24-4.7-18.72 2.11-14.85 11.85 3.87 9.74.25 15.62 2.78 26.22 9.81-.27 29.5-14.92 12-20m-10-1c-3.52-7.65-.27-15.15 8.07-11.07 8.35 4.08-2.39 13.21-8.07 11.07m4 15c-1.28-2.92-2.25-5.9-3-9 9.22-8.21 14.95 7.08 3 9ZM185 4c-16.45-.95-13.69 20.77-17 32 6.81 2.83 8.87-2.05 7-8 4.64-1.48 9.54-2.06 14-4 1.13 2.99 3.04 6.16 4 9 6.14-9.03-5.97-19.48-8-29m3 17c-3.86 1.42-7.94 1.86-12 3-1.97-2.33-.11-11.89 3.25-12.75 3.35-.87 8.37 7.18 8.75 9.75ZM98 10c-5.6-1.23-11.06-1.91-16-4-1.43 2.2-1.85 4.7-3 7 6.98 3.25 16.13-1.1 15.2 9.75-.94 10.86-8.55 1.93-13.44 4-4.9 2.07 12.09 11.28 15.99 5 3.9-6.29 3.33-14.92 1.25-21.75Z" fill="#FFF" stroke="None"/><path d="M116 7c-9.9-2.26-15.02 16.83-9.25 24.25 5.78 7.41 20.69 4.7 23.48-4.02 2.78-8.72 5.26-24.8-8.23-18.23.47 4.02 3.18 14.96-3.97 13.97-7.16-.98.76-11.5-2.03-15.97m-2 3c-2.18 8.07-3.18 19.93 9 16 4.64-4.71-1.88-16.22 7-15 2.27 12.11-3.54 23.18-15.22 20.22-11.68-2.96-9.17-18.35-.78-21.22ZM143 21c5.68 2.14 16.42-6.99 8.07-11.07-8.34-4.08-11.59 3.42-8.07 11.07m1-10c14.28-.24-1.15 14.07 0 0Z" stroke="None"/><path d="M114 10c-8.39 2.87-10.9 18.26.78 21.22C126.46 34.18 132.27 23.11 130 11c-8.88-1.22-2.36 10.29-7 15-12.18 3.93-11.18-7.93-9-16Z" fill="#FFF" stroke="None"/><path d="M144 11c-1.15 14.07 14.28-.24 0 0Z" fill="none" fill-opacity="0" stroke="None"/><path d="M188 21c-.38-2.57-5.4-10.62-8.75-9.75-3.36.86-5.22 10.42-3.25 12.75 4.06-1.14 8.14-1.58 12-3m-7-6c4.12 4.19 1.78 7.28-4 6 .67-2.13 1.22-5.93 4-6Z" stroke="None"/><path d="M181 15c-2.78.07-3.33 3.87-4 6 5.78 1.28 8.12-1.81 4-6Z" fill="none" fill-opacity="0" stroke="None"/><path d="M147 36c11.95-1.92 6.22-17.21-3-9 .75 3.1 1.72 6.08 3 9m3-9c3.03.46 1.32 5.39-1.08 4.92-2.4-.47-2.31-5.43 1.08-4.92Z" stroke="None"/><path d="M150 27c-3.39-.51-3.48 4.45-1.08 4.92 2.4.47 4.11-4.46 1.08-4.92Z" fill="none" fill-opacity="0" stroke="None"/><path d="M460 35c-10.69 2.48-22.19 2.69-33 4-1.05 17.92-3.79 35.4-6 53-6.09-17.2-8.41-37.4-18-54-8.45 7.64-19.49 10.76-30 14 2.45 12.25 6.58 24.28 11.25 35.75 4.66 11.48 8.49 22.54 12.83 34.17 4.34 11.63 10.05 20.77 14.14 32.86s19.61-1.85 28.78-4.78c2.16-14.78 4.52-28.98 4-43 6.04 15.28 11.65 32.08 14 49 8.91 2.65 13.12-.69 21.97-.02 8.86.66 13.96-4.95 15.05-13.96 1.1-9 4.27-16.31 6.05-24.95 1.79-8.63 4.77-17.39 5.95-26.05 1.19-8.66 4.06-17.59 4.98-26.02.92-8.42 6.65-19.97-3.99-21.01-10.64-1.04-14.94-4.72-25.01-5.99-6.05 18.72-2.53 40.46-8 59-4.56-20.39-8.33-41.88-15-62m24 7c10.28 2.18 18.61 4.6 29 6-8.71 34.89-12.9 70.91-25 104-7.89.72-12.51-.65-20.22.78-7.71 1.43-8.23-6.89-10.56-14-2.32-7.12-3.52-14.35-5.55-21.45S447.17 102.74 445 96c-2.8 13.64-5.71 25.04-5.93 39.07-.22 14.04-12.59 18.87-25.07 21.93-2.36-8.54-6.04-17.4-9.31-25.69-3.26-8.3-7.49-17.77-10.02-25.98-2.53-8.21-8.36-18.51-9.67-26.33-1.31-7.83-12.82-19-6.92-24.92 5.91-5.91 19.03-4.57 24.92-11.08 1.82 10.22 6.86 19.22 9.92 29.08 3.07 9.86 1.52 23.11 8.08 30.92 5.15-19.29 7.16-40.26 8-61 8.6 1.42 16.59-2.86 25-2 8.41.86 6.71 11.58 9.77 18.23 3.06 6.65 2.02 15.31 4.23 22.77 2.21 7.46 2.44 15.22 4.99 23.01 2.56 7.79 6.23-5.57 6.79-12.23.55-6.66 1.35-16.2 2.2-23.8.84-7.6.65-18.25 2.02-25.98Z" stroke="None"/><path d="M484 42c-1.37 7.73-1.18 18.38-2.02 25.98-.85 7.6-1.65 17.14-2.2 23.8-.56 6.66-4.23 20.02-6.79 12.23-2.55-7.79-2.78-15.55-4.99-23.01-2.21-7.46-1.17-16.12-4.23-22.77-3.06-6.65-1.36-17.37-9.77-18.23-8.41-.86-16.4 3.42-25 2-.84 20.74-2.85 41.71-8 61-6.56-7.81-5.01-21.06-8.08-30.92-3.06-9.86-8.1-18.86-9.92-29.08-5.89 6.51-19.01 5.17-24.92 11.08C372.18 60 383.69 71.17 385 79c1.31 7.82 7.14 18.12 9.67 26.33 2.53 8.21 6.76 17.68 10.02 25.98 3.27 8.29 6.95 17.15 9.31 25.69 12.48-3.06 24.85-7.89 25.07-21.93.22-14.03 3.13-25.43 5.93-39.07 2.17 6.74 4.64 14.23 6.67 21.33 2.03 7.1 3.23 14.33 5.55 21.45 2.33 7.11 2.85 15.43 10.56 14 7.71-1.43 12.33-.06 20.22-.78 12.1-33.09 16.29-69.11 25-104-10.39-1.4-18.72-3.82-29-6m-28 4c2.61 25.38 10.29 49.2 18 73 8.01-21.56 9.68-44.34 15-67 10.96-.91 13.32 4.2 11.6 12.75-1.72 8.54-.97 16.58-4.38 24.47-3.4 7.9-2.47 16.5-4.22 24.78-1.75 8.28-4.35 16.4-5 25-7.6 2.5-13.74 4.73-22 5-8.78-20.87-11.03-44.32-22-64-3.93 18.98-4.95 39.29-7 59-7.65 3.14-19.5 12.29-22.78 1.78-3.27-10.52-6.28-17.36-10.19-26.81-3.91-9.44-7.81-16.64-10.96-26.04-3.15-9.4-6.36-18.68-10.07-27.93 4.17-3.56 11.11-3.88 16-7 10.27 22.01 14.91 46.01 25 68 7.74-22.26 7.28-48.22 12-71 7.14.75 14.52-.43 21-4Z" fill="#FFF" stroke="None"/><path d="M0 47v3c13.32 35.89 24.62 72.91 37 110 11.2 2.53 16.69-3.63 28-2 11.31 1.63 14.01-5.56 16.07-14.93 2.06-9.36 4.41-15.55 7.01-23.99 2.59-8.45 4.63-15.41 7.92-23.08 2.53 21.1.79 43.1 6 64 7.82-3.59 25.82 1.73 32.3-3.7 6.49-5.42-.88-18.73-.52-28.08.36-9.35-3.36-21.31-1.45-31.55 1.91-10.24-5.72-20.89-4.31-31.65 1.42-10.76-14.5-6.01-23.02-6.02 2.53-9.07-7.37-8.05-13.33-9.67C85.71 47.71 78.71 47.62 73 45c-7.9 21.07-12.13 43.71-18 65-5.35-9.99-6.75-21.5-11.25-31.75-4.49-10.26-8.97-20.29-11.78-31.22C29.17 36.1 7.43 45.85 0 47m58 73c-1.61-7.39 2.41-17.89 3.98-25.02 1.56-7.14 4.42-18.84 6.01-24.99 1.59-6.15 4.68-21.78 10.09-20.06 5.4 1.72 22.46.96 23.89 7.1 1.42 6.14-4.7 17.84-5.97 24.97-1.26 7.13-5.1 17.36-6.98 25.02-1.87 7.66-5.7 15.85-7.01 23.99-1.32 8.13-6.91 16.34-8.01 23.99-12.23.53-23.62 1.41-35 2-3.54-11.73-6.8-23.84-11.92-35.08C21.95 110.69 21.39 95.7 14 87c-2.47-10.82-.45-18.94-6.99-29.01s7.49-13.62 17.06-12.92c9.58.71 6.89 17.1 11.91 23.95 5.01 6.86 5.66 18.46 9.95 26.05 4.28 7.59 4.94 20.78 12.07 24.93m68-59c1.94 30.63 4.19 61.71 7 93-9.32 1.41-19.67.84-29 3-3.97-15.89-2.26-32.2-3.93-48.07C98.41 93.05 98.9 77.54 104 62c7.78-.55 14.91.55 22-1ZM275 56c1.94-8.14-9.9-6.54-15.98-9.02-6.07-2.49-15.23-4.2-22.02-4.98-7.18 19.46-10.23 40.52-16 60-3.53-8.74-.68-24.28-4.68-32.32-4-8.05-1.48-24.57-10.31-26.67-8.83-2.1-23.21 3.13-32.01 3.99-.59 2.94 1.59 5.09 1 8-10-.26-17.92-2.48-28-3-10.08-.52-8.01 12.86-8 21 .01 8.14.93 21.2 1.22 29.78.29 8.58 1.64 20.84 0 29-1.64 8.15-1.26 21.47 7.09 19.57 8.34-1.9 16.46 6.25 23.66 2.62 7.2-3.62 3.21-17.3 6.03-24.97 2.82-7.67-.12-19.92 3-28 3.12-8.08-3.26-19.57 1-27 4.38 27.41 13.71 54.61 16 83 15.43 2.22 30.68-1.12 47 0 5-17.47 12.68-35.74 17-54 2.49 17.12 1.66 35.85 5 53 10.48-2.85 21.87-1.53 32-2-.4-10.18 2-18.77 3-29s-.47-20.69-.01-30.99c.46-10.3-1.19-20.65-.99-32.01.19-11.36-19.4-.66-25-6m-3-2c-2.82 9.31-4.91 18.55-8.33 27.67-3.42 9.12-4.89 19.04-7.6 28.4-2.7 9.37-6.8 17.26-9 27-2.19 9.75-6.06 19.59-17.08 16.94-11.02-2.65-19.04 3.28-29.99-.01-3.19-32.21-15.92-64.57-17-97-3.81-1.69-5.76-3.6-6-8 8.93-1.66 17.81-1.8 26.22-1.78 8.42.02 5.68 13.42 9.56 21 3.88 7.59.86 20.76 4.22 28.78s-.89 21.04 6 25c-1.3 3.31-.91 8.16-5 8-5.34-26.45-8.63-52.83-13-79-8.82.33-23.09 1.54-18.07 12.07 5.02 10.54 2.18 20.04 6.39 29.61 4.21 9.56 3.4 21.46 5.67 30.33 2.27 8.86 1.58 23.6 11.03 24.97 9.46 1.36 18.02 3.57 26.98 1.02.99-7.16 3.22-14.03 4.98-21.02 1.75-7 3.96-13.2 5.8-20.2 1.84-7 4.33-13 7.15-19.85 2.81-6.86 1.7-12.95 6.4-19.6 4.69-6.66 4.17-10.94-3.41-12.26-7.58-1.33-13.92-7.27-16.84 1.01-2.93 8.27-4.19 13.22-6.01 20.99-1.81 7.78-3.78 12.72-5.99 20.01-2.22 7.28-2.3 14.8-5.08 21.92-1.3-25.31 9.36-50.39 15-75 11.17 2.69 21.51 7.22 33 9m-93 5c-4.09 30.22-1.1 62.69-10 92-7.92-.13-16.67-3.88-25-2 .37-30.62-1.23-61.89-2-93 13.06-.73 24.32 3.19 37 3m117 1c4.18 30.98-.48 61.17 0 90-9.05 1.79-18.87.5-28 2-2.42-15.61-1.45-31.75-3-48s4.9-29.68 9-45c7.29 3.69 14.84.17 22 1ZM937 130v-5c-1.33-5.09-4.93-10.96-10.97-8.97-6.04 1.99-6.79 11.28.97 10.97.95 6.42-7 10.02-12 7 7.75-10.02-1.62-28.46-14.78-25.78-13.15 2.69-15.47 19.5-9.22 28.78-14.85 9.71-23.21-8.42-29-19 12.24-2.08 20.13-12.95 22.22-24.78 2.09-11.82-.77-27.85-9.47-35.97-8.7-8.13-22.23-13.43-33.75-13.25-11.52.18-33.28-4.24-34.01 8.99-.73 13.23.02 28.79-1.99 42.01-.77-4-2.17-7.79-2-12-11.95 4.17-24.97 3.99-37 8-5.46-12.3 7.7-11.31 15.31-11.69 7.6-.39 13.35-3.47 20.69-3.31.61-8.7-5.13-17.87-6-27-8.98 1.71-19.86 3.02-28.77 3.79S750.12 57.97 740 57c-.43 4.99-.47 10.64-2 15-.12-6.41.05-12.32 1-18-10.99-4.99-22.53-4-34-6-3.43 12.06 2.11 24.94-1 37-5.94-4.05-5.91-13.06-9.74-18.26-3.84-5.19-3.59-15.96-11.58-13.06-8 2.9-17.51.1-25.68 2.32-1.53 9.01-.56 20.74-1.22 29.78-.66 9.04-1.23 15.72-1.78 25.22-.55 9.5-.34 19.58-1 29-.66 9.42-2.86 21.74 8.78 19.78 11.63-1.96 12.27.93 23.22-2.78-1.4-12.14.12-26.41 0-39 4.37 5.82 6.73 14.73 10.7 21.3 3.97 6.56 5.21 16.69 14.3 14.7 9.09-1.99 18.57 1.13 26-5 1.65-24.12.25-51.37 3-75 4.32 26.37 4.96 53.03 6 81 17.76-1.58 36.39-2.13 54-6 1.61 7.57 8.69 5.86 13.78 6.22 5.08.36 15.29 1.83 19.44-1 4.15-2.82-3.82-17 1.78-20.22 8.14 12.36 18.66 24.82 33.98 27.02 15.31 2.21 29.03-10.45 40.02-19.02 11.33 4.72 24.21-.9 29-12m-80-14c6.22 8.81 10.1 24.82 23 27-6.12 4.98-13.81-2.73-17.92-9.08-4.11-6.35-9.73-12.66-14.08-18.92 20.33-2.34 34.96-27.74 22.74-45.74C858.52 51.25 833.75 47.97 814 53c.68 32.44-3.91 61.99-5 94 6.36.37 11.98 2.56 18 0-1.79-8.63 1.87-18.52 1-27 6.38 4.2 11.01 8.38 15.77 14.23s8.75 11.7 14.98 16.02 17.45 4.56 24.47 1.97S895.69 141.74 902 142c-6.06 7.11-12.85 9.88-22.02 13.97-9.18 4.1-19.09.56-26.73-6.22-7.64-6.78-11.91-9.21-18-19-6.1-9.78-6.74 12.92-5.25 20.25-9.09 1.2-18.45.77-27 0 5.54-8.69-.09-25.3 3-36 3.09-10.71 1.77-24.81 3-36 1.23-11.19-3.87-30.14 8.07-30.93 11.94-.78 24.97-1.86 35.93.93s18.06 8.28 23.77 17.23c5.71 8.95 5.7 21.69 2.92 31.46-2.77 9.77-12.91 16.63-22.69 18.31M736 57c-1.87 14.12-1.15 25.84-1.07 40.07.08 14.24-3.41 24.5-1.93 39.93 1.48 15.43-15.2 11.94-27 15-6.24-15.56-15.26-27.45-21-43-5.34 4.7-3.03 13.67-3 21 .03 7.33-.38 16.71 0 24-9.22 2.07-17.36 1.13-27 2 .76-10.43 1.62-21.11 1.98-31.02.35-9.92-.49-21.41.95-31.05 1.44-9.65-.15-20.5 1.07-30.93s20.24-1.9 28-6c3.27 7.02 5.61 17.1 9.33 23.67 3.71 6.58 7.1 17.21 12.67 18.33-3.16-7.39-1.31-17.38-1-25 .31-7.62-5.39-22.07 4-22 9.4.08 14.91 2.64 24 5m63 15c-12.2 4.81-24.34 3.04-36 7 2.75 4.3-5.33 16.6 5 15 10.34-1.61 21.51-5.75 33-6 .96 6.23 2.56 12.36 2 19-13.95 2.73-27.94 4.79-42 8 1.44 3.1 1.65 6.02 2 9 12.45-1.15 24.48-1.31 36-4 6.32 6.03.63 17.38 4 25-18.74 4.61-36.7 2.63-55 7-.27-10.07-.32-19.85-1.21-29.23-.89-9.38-1.75-18.95-1.79-28.77-.04-9.82-2.88-16.11-3-27-.12-10.89 11.72-5.84 19.7-9.31 7.97-3.46 16.35-.05 25.52-4.47C796.39 48.8 796.04 66.34 799 72m29 32c.94-9.8.37-21.7 2-32 9-1.3 26.8 3.09 25 16-1.8 12.91-17.16 14.63-27 16m-24 6c.67 2.94-1.09 5.18-1 8-12.77-1.41-24.28 2.25-38 3 2.29-6.67 12.03-5.37 18.08-7.07 6.04-1.7 15.14-.78 20.92-3.93m101 22c14.28-5.67-5.44-20.51-9.29-9.3-3.86 11.22 11.33 13.65 19.29 15.3 7.96 1.65 23.49-10.06 9-15 5.01-10.9 14.13 5.76 6.7 11.7-7.43 5.93-17.48 6.05-26.37 3.97-8.89-2.08-15.58-8.66-13.55-17.89 2.03-9.24 12.27-11.05 18.97-5.53 6.69 5.53 5.59 22.54-4.75 16.75m-2-2c-3.72-.34-7.34-6.39-1.9-7.9 5.44-1.51 5.65 5.89 1.9 7.9Z" stroke="None"/><path d="M58 120c-7.13-4.15-7.79-17.34-12.07-24.93-4.29-7.59-4.94-19.19-9.95-26.05-5.02-6.85-2.33-23.24-11.91-23.95-9.57-.7-23.6 2.85-17.06 12.92C13.55 68.06 11.53 76.18 14 87c7.39 8.7 7.95 23.69 13.08 34.92C32.2 133.16 35.46 145.27 39 157c11.38-.59 22.77-1.47 35-2 1.1-7.65 6.69-15.86 8.01-23.99 1.31-8.14 5.14-16.33 7.01-23.99C90.9 99.36 94.74 89.13 96 82c1.27-7.13 7.39-18.83 5.97-24.97-1.43-6.14-18.49-5.38-23.89-7.1-5.41-1.72-8.5 13.91-10.09 20.06-1.59 6.15-4.45 17.85-6.01 24.99-1.57 7.13-5.59 17.63-3.98 25.02M26 53c9.64 25.49 20.42 50.7 31 76 6.77-23.48 13.12-47.98 19-72 8.52.26 23.88 2.56 19.23 12.23C90.58 78.9 91.41 87.41 87 96c-4.4 8.59-7.39 16.57-9.33 25.67-1.93 9.1-10.19 14.92-8.67 24.33-8.07 3.38-18.39 1.04-27 2-3.73-6.92-5.06-13.78-7.92-21.08-2.87-7.3-4.63-13.69-7.85-21.15-3.23-7.46-3.58-14.3-6.43-22.02-2.84-7.71-3.44-12.16-7.58-20.97C8.09 53.97 17.23 52.61 26 53ZM272 54c-11.49-1.78-21.83-6.31-33-9-5.64 24.61-16.3 49.69-15 75 2.78-7.12 2.86-14.64 5.08-21.92 2.21-7.29 4.18-12.23 5.99-20.01 1.82-7.77 3.08-12.72 6.01-20.99 2.92-8.28 9.26-2.34 16.84-1.01 7.58 1.32 8.1 5.6 3.41 12.26-4.7 6.65-3.59 12.74-6.4 19.6-2.82 6.85-5.31 12.85-7.15 19.85-1.84 7-4.05 13.2-5.8 20.2-1.76 6.99-3.99 13.86-4.98 21.02-8.96 2.55-17.52.34-26.98-1.02-9.45-1.37-8.76-16.11-11.03-24.97-2.27-8.87-1.46-20.77-5.67-30.33-4.21-9.57-1.37-19.07-6.39-29.61C181.91 52.54 196.18 51.33 205 51c4.37 26.17 7.66 52.55 13 79 4.09.16 3.7-4.69 5-8-6.89-3.96-2.64-16.98-6-25s-.34-21.19-4.22-28.78c-3.88-7.58-1.14-20.98-9.56-21-8.41-.02-17.29.12-26.22 1.78.24 4.4 2.19 6.31 6 8 1.08 32.43 13.81 64.79 17 97 10.95 3.29 18.97-2.64 29.99.01s14.89-7.19 17.08-16.94c2.2-9.74 6.3-17.63 9-27 2.71-9.36 4.18-19.28 7.6-28.4 3.42-9.12 5.51-18.36 8.33-27.67Z" fill="#FFF" stroke="None"/><path d="M552 45c-9.59 3.19-30.32-3.29-32 9-1.68 12.29-4.1 22.68-6.67 34.33-2.57 11.64-3.93 23.26-6.4 34.6-2.47 11.33-6.94 20.45-7.93 32.07 5.34 1.77 12.12.99 16.78 1.22 4.65.23 10.46 2.76 14.51 1.07 4.06-1.68 2.19-12.14 2.72-16.28.53-4.14 2.74-12.8 1.99-17.01 3.53-1.67 7.22.77 11-1 2.53 7.4 5.03 13.55 5.22 21.78.19 8.22 3.64 14.97 11.77 11.21 8.13-3.75 12.24-2.76 20.01-5.99 9.77 9.74 26.88 9.69 39.33 8.33 12.44-1.36 23.26-12.71 26.68-24.32 3.41-11.61 6.88-34.79-7.32-37.7C627.5 93.39 616.66 92.67 602 90c-1.76 8.27-3.06 15.39-4 24-.93 8.61 14.09 7.79 20 8-.64 10.78-13.9 6.7-20.25 3.25-6.35-3.44-9.17-14.41-7.53-21.03 1.64-6.61 3-16.14 9.08-20.92 6.09-4.77 17.77-1.92 25.03-.63 7.25 1.29 18.76 8.18 19.89-2.45 1.14-10.63 5.5-11.98 4.78-21.22-15.28-4.95-35.1-10.27-49.97-3.97C584.15 61.32 574.04 71.83 566 85c-5.37-13.05-9.04-26.72-14-40m4 110c0-10.01-3.98-15.34-4.33-25.67-.35-10.33-9.93-9.18-17.67-9.33-3.05 10.97-3.28 22.66-5 34-8.18-.96-12.63-.89-21.01-1.01-8.37-.12-3.37-11.37-1.22-17.22 2.15-5.85 2.43-15.19 4.23-21.77 1.8-6.58 2.76-14.7 4.33-21.67 1.57-6.97 3.49-14.04 4.66-21.34 1.18-7.29 2.92-13.68 4.01-20.99 7.88-1.24 14.5.38 22.01-.01 7.51-.39 7.83 9.81 10.3 16.7 2.46 6.9 4.82 14.38 7.67 21.33 2.84 6.96 2.6 14.38 6.94 21.06 4.35 6.67 4.03 13.96 7.85 21.15 3.82 7.19 7.69 15.57-1.44 17.1-9.13 1.53-12.15 7.12-21.33 7.67m90-93c-1.61 3.72.22 9.8-5 11 .42 3.95 1.46 7.42-1 11-9.38-5.34-20.54-4.67-31-6s-16.54 9.55-19.77 17.23c-3.23 7.68-3.97 24.49 2.69 29.85 6.66 5.36 17.54 13.18 25.83 4.67S610.98 115.08 601 117c.83-7.6 2.64-15.01 2-23 14.74 2.29 29.88 3.25 44 8 2.34 15.29 2.27 37.8-12.25 47.75-14.52 9.96-33.75 5.65-48.75-.75 2.91-1.3 2.94-3.53 1-6 11.81 3.4 28.6 9.09 40.23 2.23 11.63-6.86 18.61-19.42 16.38-32.98-2.24-13.56-24.45-10.3-35.61-14.25-1.65 5.48-2.35 11.23-3 17 6.86 1.5 14.03 1.84 21 3-.09 7.19-6.47 17.96-14.08 17.92-7.6-.03-14.58-4.12-20.61-9.22-6.04-5.11-7.12-15.29-6.98-22.37.15-7.09 1.63-16.15 7.92-22.08 6.29-5.92 15.03-8.08 23.75-7.25 8.72.82 19.25 6.79 22.31-3.69 3.05-10.49-6.64-10.56-14.98-11.64s-18.12.14-25.55 3.11c-7.44 2.96-12.36 7.85-18.03 13.97-5.67 6.12-6.84 16.89-8.75 24.25-8.21-17.63 7.6-29.66 21.75-39.25 14.14-9.6 37.75-6.48 53.25.25ZM456 46c-6.48 3.57-13.86 4.75-21 4-4.72 22.78-4.26 48.74-12 71-10.09-21.99-14.73-45.99-25-68-4.89 3.12-11.83 3.44-16 7 3.71 9.25 6.92 18.53 10.07 27.93 3.15 9.4 7.05 16.6 10.96 26.04 3.91 9.45 6.92 16.29 10.19 26.81 3.28 10.51 15.13 1.36 22.78-1.78 2.05-19.71 3.07-40.02 7-59 10.97 19.68 13.22 43.13 22 64 8.26-.27 14.4-2.5 22-5 .65-8.6 3.25-16.72 5-25 1.75-8.28.82-16.88 4.22-24.78 3.41-7.89 2.66-15.93 4.38-24.47 1.72-8.55-.64-13.66-11.6-12.75-5.32 22.66-6.99 45.44-15 67-7.71-23.8-15.39-47.62-18-73Z" stroke="None"/><path d="M857 116c9.78-1.68 19.92-8.54 22.69-18.31 2.78-9.77 2.79-22.51-2.92-31.46S863.96 51.79 853 49c-10.96-2.79-23.99-1.71-35.93-.93-11.94.79-6.84 19.74-8.07 30.93-1.23 11.19.09 25.29-3 36-3.09 10.7 2.54 27.31-3 36 8.55.77 17.91 1.2 27 0-1.49-7.33-.85-30.03 5.25-20.25 6.09 9.79 10.36 12.22 18 19 7.64 6.78 17.55 10.32 26.73 6.22 9.17-4.09 15.96-6.86 22.02-13.97-6.31-.26-11.76 7.63-18.78 10.22-7.02 2.59-18.24 2.35-24.47-1.97s-10.22-10.17-14.98-16.02S834.38 124.2 828 120c.87 8.48-2.79 18.37-1 27-6.02 2.56-11.64.37-18 0 1.09-32.01 5.68-61.56 5-94 19.75-5.03 44.52-1.75 56.74 16.26 12.22 18-2.41 43.4-22.74 45.74 4.35 6.26 9.97 12.57 14.08 18.92 4.11 6.35 11.8 14.06 17.92 9.08-12.9-2.18-16.78-18.19-23-27ZM556 155c9.18-.55 12.2-6.14 21.33-7.67 9.13-1.53 5.26-9.91 1.44-17.1-3.82-7.19-3.5-14.48-7.85-21.15-4.34-6.68-4.1-14.1-6.94-21.06-2.85-6.95-5.21-14.43-7.67-21.33-2.47-6.89-2.79-17.09-10.3-16.7-7.51.39-14.13-1.23-22.01.01-1.09 7.31-2.83 13.7-4.01 20.99-1.17 7.3-3.09 14.37-4.66 21.34-1.57 6.97-2.53 15.09-4.33 21.67-1.8 6.58-2.08 15.92-4.23 21.77-2.15 5.85-7.15 17.1 1.22 17.22 8.38.12 12.83.05 21.01 1.01 1.72-11.34 1.95-23.03 5-34 7.74.15 17.32-1 17.67 9.33.35 10.33 4.33 15.66 4.33 25.67m22-11c-6.29-.89-11.1 3.33-17 4-4.44-10.42-4.14-22.28-10-32-7.7 1.61-14.91.5-23 1 .16 10.42-2.93 19.89-4 30-4.71 1.71-10.38-.03-15 2-1.89-9.33 3.41-19.85 4.93-29.07 1.52-9.23 4.08-20.81 6.84-29.16 2.76-8.35 1.6-23.29 6.16-29.84 4.56-6.56 21.83-6.89 24.06 1.08 2.23 7.97 5.94 18.55 8.93 27.07 3 8.51 4.41 19.08 8.39 27.61 3.97 8.54 7.85 18 9.69 27.31ZM736 57c-9.09-2.36-14.6-4.92-24-5-9.39-.07-3.69 14.38-4 22-.31 7.62-2.16 17.61 1 25-5.57-1.12-8.96-11.75-12.67-18.33-3.72-6.57-6.06-16.65-9.33-23.67-7.76 4.1-26.78-4.43-28 6-1.22 10.43.37 21.28-1.07 30.93-1.44 9.64-.6 21.13-.95 31.05-.36 9.91-1.22 20.59-1.98 31.02 9.64-.87 17.78.07 27-2-.38-7.29.03-16.67 0-24-.03-7.33-2.34-16.3 3-21 5.74 15.55 14.76 27.44 21 43 11.8-3.06 28.48.43 27-15-1.48-15.43 2.01-25.69 1.93-39.93-.08-14.23-.8-25.95 1.07-40.07m-6 4c1.38 9.61-.21 18.68 0 28s-1.54 22.82-1.93 31.07c-.39 8.26 4.62 20.71-5.32 23.68-9.93 2.98-16.29.6-19.67-7.83-3.38-8.43-7.91-13.09-11.85-21.15-3.94-8.06-6.99-14.31-11.23-21.77-.57 7.78-1.69 13-1 21s-3.04 18.54-1.33 26.67c1.71 8.13-6.59 12.75-14.67 9.33s.42-17.2-2-25c-2.42-7.8 3.18-15.3 1.93-24.07-1.26-8.78 2.78-15.06 1.07-24.93-1.71-9.87 6.42-12.93 15.08-11.93s7.69 10.2 11.69 16.16c4 5.96 6.5 12.24 9.22 18.78 2.73 6.54 7.81 12.1 10.01 18.99 3.96-7.5 1.92-18.37 3.98-28.02 2.05-9.66-.67-20.15 2.02-29.98 4.91-.65 9.07 1.65 14 1ZM799 72c-2.96-5.66-2.61-23.2-11.78-18.78-9.17 4.42-17.55 1.01-25.52 4.47-7.98 3.47-19.82-1.58-19.7 9.31.12 10.89 2.96 17.18 3 27 .04 9.82.9 19.39 1.79 28.77.89 9.38.94 19.16 1.21 29.23 18.3-4.37 36.26-2.39 55-7-3.37-7.62 2.32-18.97-4-25-11.52 2.69-23.55 2.85-36 4-.35-2.98-.56-5.9-2-9 14.06-3.21 28.05-5.27 42-8 .56-6.64-1.04-12.77-2-19-11.49.25-22.66 4.39-33 6-10.33 1.6-2.25-10.7-5-15 11.66-3.96 23.8-2.19 36-7m-8-15c-.17 4.21 1.23 8 2 12-10.91 3.54-21.99 6.15-34 6-1.45 7.84 3.54 14.61 1 22 11.75-.86 15.14.66 26.75-4.59 11.6-5.26 12.76 15.46.58 14.92-12.18-.54-17.23 4.71-29.33 5.67 2.38 5.17 2.5 10.95 3 16 12.6-3.75 24.44-1.37 37-4 2.63 9.14 2.55 18.93-7.22 17.22-9.77-1.71-15.46 7.8-24.78 1.78-3.52 3.65-14.67 6.64-14.99-1.01-.32-7.65-1.13-15.34-2.01-22.99-.88-7.65-.22-15.11-1-23-.78-7.89.51-12.39-2-21s1.44-12.14 9.67-12.33c8.23-.19 11.79-3.28 18.4-2.6 6.62.68 10.43-4.19 16.93-4.07Z" fill="#FFF" stroke="None"/><path d="M26 53c-8.77-.39-17.91.97-13.78 9.78 4.14 8.81 4.74 13.26 7.58 20.97 2.85 7.72 3.2 14.56 6.43 22.02 3.22 7.46 4.98 13.85 7.85 21.15 2.86 7.3 4.19 14.16 7.92 21.08 8.61-.96 18.93 1.38 27-2-1.52-9.41 6.74-15.23 8.67-24.33 1.94-9.1 4.93-17.08 9.33-25.67 4.41-8.59 3.58-17.1 8.23-26.77C99.88 59.56 84.52 57.26 76 57c-5.88 24.02-12.23 48.52-19 72-10.58-25.3-21.36-50.51-31-76Z" stroke="None"/><path d="M646 62c-15.5-6.73-39.11-9.85-53.25-.25C578.6 71.34 562.79 83.37 571 101c1.91-7.36 3.08-18.13 8.75-24.25 5.67-6.12 10.59-11.01 18.03-13.97 7.43-2.97 17.21-4.19 25.55-3.11 8.34 1.08 18.03 1.15 14.98 11.64-3.06 10.48-13.59 4.51-22.31 3.69-8.72-.83-17.46 1.33-23.75 7.25-6.29 5.93-7.77 14.99-7.92 22.08-.14 7.08.94 17.26 6.98 22.37 6.03 5.1 13.01 9.19 20.61 9.22 7.61.04 13.99-10.73 14.08-17.92-6.97-1.16-14.14-1.5-21-3 .65-5.77 1.35-11.52 3-17 11.16 3.95 33.37.69 35.61 14.25 2.23 13.56-4.75 26.12-16.38 32.98-11.63 6.86-28.42 1.17-40.23-2.23 1.94 2.47 1.91 4.7-1 6 15 6.4 34.23 10.71 48.75.75 14.52-9.95 14.59-32.46 12.25-47.75-14.12-4.75-29.26-5.71-44-8 .64 7.99-1.17 15.4-2 23 9.98-1.92 25.04 4.24 16.75 12.75s-19.17.69-25.83-4.67c-6.66-5.36-5.92-22.17-2.69-29.85S598.54 76.67 609 78c10.46 1.33 21.62.66 31 6 2.46-3.58 1.42-7.05 1-11 5.22-1.2 3.39-7.28 5-11Z" fill="#FEFEFE" stroke="None"/><path d="M179 59c-12.68.19-23.94-3.73-37-3 .77 31.11 2.37 62.38 2 93 8.33-1.88 17.08 1.87 25 2 8.9-29.31 5.91-61.78 10-92m-11 81c-6.18 2.22-13.41.42-20 1-.49-7.6.62-15.29.22-22.22-.4-6.94 1.21-13.15.45-20.45-.76-7.3.61-12.63.33-21.33-.28-8.7 1.48-13.26 10.02-12.02 8.55 1.24 15.35 1.94 12.65 10.69-2.7 8.75-.54 13-1.67 21.33-1.13 8.33-.69 12.6-1.33 20.67-.64 8.07-1.71 14.83-.67 22.33Z" fill="#FFF" stroke="None"/><path d="M578 144c-1.84-9.31-5.72-18.77-9.69-27.31-3.98-8.53-5.39-19.1-8.39-27.61-2.99-8.52-6.7-19.1-8.93-27.07-2.23-7.97-19.5-7.64-24.06-1.08-4.56 6.55-3.4 21.49-6.16 29.84-2.76 8.35-5.32 19.93-6.84 29.16-1.52 9.22-6.82 19.74-4.93 29.07 4.62-2.03 10.29-.29 15-2 1.07-10.11 4.16-19.58 4-30 8.09-.5 15.3.61 23-1 5.86 9.72 5.56 21.58 10 32 5.9-.67 10.71-4.89 17-4m-37-71c-.62 9.51 3.75 17.66 4 27-4.45-.49-9.54 1.07-14 1 3.79-4.52.02-11.32 2.31-15.7 2.28-4.37.66-13.82 7.69-12.3ZM791 57c-6.5-.12-10.31 4.75-16.93 4.07-6.61-.68-10.17 2.41-18.4 2.6-8.23.19-12.18 3.72-9.67 12.33s1.22 13.11 2 21c.78 7.89.12 15.35 1 23s1.69 15.34 2.01 22.99c.32 7.65 11.47 4.66 14.99 1.01 9.32 6.02 15.01-3.49 24.78-1.78 9.77 1.71 9.85-8.08 7.22-17.22-12.56 2.63-24.4.25-37 4-.5-5.05-.62-10.83-3-16 12.1-.96 17.15-6.21 29.33-5.67s11.02-20.18-.58-14.92c-11.61 5.25-15 3.73-26.75 4.59 2.54-7.39-2.45-14.16-1-22 12.01.15 23.09-2.46 34-6-.77-4-2.17-7.79-2-12Z" stroke="None"/><path d="M296 60c-7.16-.83-14.71 2.69-22-1-4.1 15.32-10.55 28.75-9 45 1.55 16.25.58 32.39 3 48 9.13-1.5 18.95-.21 28-2-.48-28.83 4.18-59.02 0-90m-5 7c-.14 25.99.26 52.83-3 78-4.39 1.7-8.59-1.07-13 1-2.38-10.9-2.49-18.45-4-30-1.51-11.55 2-21.41 0-34s11.92-11.78 20-15Z" fill="#FFF" stroke="None"/><path d="M730 61c-4.93.65-9.09-1.65-14-1-2.69 9.83.03 20.32-2.02 29.98-2.06 9.65-.02 20.52-3.98 28.02-2.2-6.89-7.28-12.45-10.01-18.99-2.72-6.54-5.22-12.82-9.22-18.78-4-5.96-3.03-15.16-11.69-16.16S662.29 66.13 664 76c1.71 9.87-2.33 16.15-1.07 24.93 1.25 8.77-4.35 16.27-1.93 24.07 2.42 7.8-6.08 21.58 2 25 8.08 3.42 16.38-1.2 14.67-9.33-1.71-8.13 2.02-18.67 1.33-26.67s.43-13.22 1-21c4.24 7.46 7.29 13.71 11.23 21.77 3.94 8.06 8.47 12.72 11.85 21.15 3.38 8.43 9.74 10.81 19.67 7.83 9.94-2.97 4.93-15.42 5.32-23.68.39-8.25 2.14-21.75 1.93-31.07-.21-9.32 1.38-18.39 0-28Z" stroke="None"/><path d="M126 61c-7.09 1.55-14.22.45-22 1-5.1 15.54-5.59 31.05-3.93 46.93 1.67 15.87-.04 32.18 3.93 48.07 9.33-2.16 19.68-1.59 29-3-2.81-31.29-5.06-62.37-7-93m-16 88c-.02-8.66-2.69-19.14-2.33-27.67.36-8.53-5.65-18.18-3.66-26.34 1.99-8.15-6.31-18.77 2.02-23.96 8.32-5.2 16.68 4.37 14.9 14.04-1.79 9.67 1.86 18.05 2.85 27.15.98 9.1-.02 14.14 2.15 23.86 2.17 9.71-4.44 15.33-15.93 12.92Z" fill="#FFF" stroke="None"/><path d="M168 140c-1.04-7.5.03-14.26.67-22.33.64-8.07.2-12.34 1.33-20.67 1.13-8.33-1.03-12.58 1.67-21.33 2.7-8.75-4.1-9.45-12.65-10.69-8.54-1.24-10.3 3.32-10.02 12.02.28 8.7-1.09 14.03-.33 21.33.76 7.3-.85 13.51-.45 20.45.4 6.93-.71 14.62-.22 22.22 6.59-.58 13.82 1.22 20-1ZM291 67c-8.08 3.22-22 2.41-20 15s-1.51 22.45 0 34 1.62 19.1 4 30c4.41-2.07 8.61.7 13-1 3.26-25.17 2.86-52.01 3-78ZM110 149c11.49 2.41 18.1-3.21 15.93-12.92-2.17-9.72-1.17-14.76-2.15-23.86-.99-9.1-4.64-17.48-2.85-27.15 1.78-9.67-6.58-19.24-14.9-14.04-8.33 5.19-.03 15.81-2.02 23.96-1.99 8.16 4.02 17.81 3.66 26.34-.36 8.53 2.31 19.01 2.33 27.67Z" stroke="None"/><path d="M828 104c9.84-1.37 25.2-3.09 27-16 1.8-12.91-16-17.3-25-16-1.63 10.3-1.06 22.2-2 32m2-28c6.9-2.69 20.3 1 20.99 9.01.69 8.01-10.87 15.66-18.01 13.97-7.15-1.69 1.51-18.55-2.98-22.98Z" fill="#FFF" stroke="None"/><path d="M313 88c5.54 8.72 32.36 1.41 26.92-9.92-5.44-11.33-25.15.15-26.92 9.92m3-1c.57-7.33 16.79-15.88 21.25-8.25 4.46 7.63-16.56 13.44-21.25 8.25Z" stroke="None"/><path d="M541 73c-7.03-1.52-5.41 7.93-7.69 12.3-2.29 4.38 1.48 11.18-2.31 15.7 4.46.07 9.55-1.49 14-1-.25-9.34-4.62-17.49-4-27m-7 26c-1.54-4.55 2.14-23.45 6.3-16.3 4.16 7.15 3.7 17.96-6.3 16.3Z" fill="#F9F9F9" stroke="None"/><path d="M830 76c4.49 4.43-4.17 21.29 2.98 22.98 7.14 1.69 18.7-5.96 18.01-13.97C850.3 77 836.9 73.31 830 76m3 19c1.31-5.36-.57-11.22 1-17 4.51.49 15.59 2.32 14 9-1.59 6.69-9.42 8.21-15 8Z" stroke="None"/><path d="M316 87c4.69 5.19 25.71-.62 21.25-8.25-4.46-7.63-20.68.92-21.25 8.25Z" fill="#FFF" stroke="None"/><path d="M833 95c5.58.21 13.41-1.31 15-8 1.59-6.68-9.49-8.51-14-9-1.57 5.78.31 11.64-1 17Z" fill="none" fill-opacity="0" stroke="None"/><path d="M534 99c10 1.66 10.46-9.15 6.3-16.3-4.16-7.15-7.84 11.75-6.3 16.3m4-15c1.4 3.56 2.25 9.62-1 12-1.87-3.11.01-8.86 1-12Z" stroke="None"/><path d="M538 84c-.99 3.14-2.87 8.89-1 12 3.25-2.38 2.4-8.44 1-12Z" fill="none" fill-opacity="0" stroke="None"/><path d="M333 94c-15.06 1.91-5.11 15.02-4 24-8.79 5.67-15.08 9.65-17.67 21.33-2.59 11.68 12.32 16.46 20.42 7.42 8.1-9.04 2.17-21.13 12.25-25.75-2.09 11.4 11.89 15.72 20 11 1.88 11.41 10.1 6.48 15.92 1.92 5.82-4.57 14.07-9.5 3.08-13.92-3.36 3.71-7.57 7.81-12 10-2.59-8.48 3.23-16.61 4-25-6.02-3.29-14.98-6.05-21.25-2.25-6.28 3.79-7.74 11.01-15.75 11.25-1.5-6.72-1.75-13.82-5-20m39 12c.09 8.98-10.73 22.26 1 27 3.19-4.12 6.85-6.91 11-10 4.67 6.66-4.03 5.5-7.7 10.3-3.66 4.8-10.34 2.6-11.3-4.3-8.45 5.32-24.33-.89-17-12-4.72 1.46-9.2 3.69-14 5 6.88 8.91-4.94 33.06-16.68 25.68-11.74-7.38 6.13-26.75 14.68-28.68 1.13-7.65-11.19-18.96-1-22 1.85 6.16 4.89 26 14.07 17.07 9.19-8.93 13.81-12.99 26.93-8.07Z" stroke="None"/><path d="M372 106c-13.12-4.92-17.74-.86-26.93 8.07C335.89 123 332.85 103.16 331 97c-10.19 3.04 2.13 14.35 1 22-8.55 1.93-26.42 21.3-14.68 28.68 11.74 7.38 23.56-16.77 16.68-25.68 4.8-1.31 9.28-3.54 14-5-7.33 11.11 8.55 17.32 17 12 .96 6.9 7.64 9.1 11.3 4.3 3.67-4.8 12.37-3.64 7.7-10.3-4.15 3.09-7.81 5.88-11 10-11.73-4.74-.91-18.02-1-27m-9 1c5.5 1.66-.14 23.05-9.22 18.22-9.08-4.83 1.55-20.53 9.22-18.22m-32 17c3.99 6.97-4.72 24.65-12.25 18.24-7.52-6.4 8.42-15.68 12.25-18.24Z" fill="#FFF" stroke="None"/><path d="M363 107c-7.67-2.31-18.3 13.39-9.22 18.22 9.08 4.83 14.72-16.56 9.22-18.22m0 3c-.4 4.91-3.1 9.19-4 14-12.06.24-4.45-15.94 4-14Z" stroke="None"/><path d="M363 110c-8.45-1.94-16.06 14.24-4 14 .9-4.81 3.6-9.09 4-14ZM804 110c-5.78 3.15-14.88 2.23-20.92 3.93-6.05 1.7-15.79.4-18.08 7.07 13.72-.75 25.23-4.41 38-3-.09-2.82 1.67-5.06 1-8Z" fill="none" fill-opacity="0" stroke="None"/><path d="M905 132c10.34 5.79 11.44-11.22 4.75-16.75-6.7-5.52-16.94-3.71-18.97 5.53-2.03 9.23 4.66 15.81 13.55 17.89s18.94 1.96 26.37-3.97c7.43-5.94-1.69-22.6-6.7-11.7 14.49 4.94-1.04 16.65-9 15-7.96-1.65-23.15-4.08-19.29-15.3 3.85-11.21 23.57 3.63 9.29 9.3Z" fill="#FFF" stroke="None"/><path d="M903 130c3.75-2.01 3.54-9.41-1.9-7.9-5.44 1.51-1.82 7.56 1.9 7.9Z" fill="none" fill-opacity="0" stroke="None"/><path d="M331 124c-3.83 2.56-19.77 11.84-12.25 18.24 7.53 6.41 16.24-11.27 12.25-18.24m-3 4c3.2 4.73-3.54 15.72-7.74 11.74-4.21-3.98 6.07-9.2 7.74-11.74Z" stroke="None"/><path d="M328 128c-1.67 2.54-11.95 7.76-7.74 11.74 4.2 3.98 10.94-7.01 7.74-11.74Z" fill="none" fill-opacity="0" stroke="None"/></svg>