<svg xmlns="http://www.w3.org/2000/svg" width="auto" height="100" viewBox="0 0 1703.75 525"><path fill="currentColor" d="M118.23 349.89l26.4-169.84c3.57-24.98 10.7-53.52-17.13-53.52-11.42 0-21.41 5.71-34.25 14.99l-2.85-5.71c36.4-29.26 85.63-53.52 129.17-53.52 72.08 0 60.66 64.94 57.09 86.35L247.4 342.05c-11.42 67.08-12.85 97.05 24.26 97.05 74.93 0 190.54-127.74 190.54-214.09 0-32.11-16.41-42.82-40.68-42.82-19.98 0-37.82 7.14-45.67 27.83-33.54-4.28-53.52-32.83-53.52-64.23 0-37.82 33.54-66.37 73.5-66.37 42.82 0 80.64 33.54 80.64 107.04 0 143.44-143.44 279.74-274.75 279.74-66.37 0-96.34-34.97-83.49-116.32zM517.8 98.47h11.97l17.69 46.62h1.81l17.69-46.62h13.15l-23.13 62.58h-16.05L517.8 98.47zM606.6 98.47h11.16v62.58H606.6V98.47zM646.32 141.91h11.52c0 4.08 6.35 7.26 14.96 7.26 7.53 0 13.51-2.45 13.51-6.08 0-4.63-9.43-6.26-17.5-7.53-11.43-1.72-21.4-7.62-21.4-18.86s10.7-19.32 24.49-19.32 24.85 8.43 24.85 19.41h-11.52c0-3.63-5.71-6.44-13.69-6.44-7.17 0-12.52 2.27-12.52 5.62 0 4.53 11.16 6.44 16.32 7.16 12.15 1.81 22.58 7.16 22.58 18.77 0 12.24-11.34 20.22-25.58 20.22-14.96 0-26.03-8.71-26.03-20.22zM726.41 98.47h11.16v62.58h-11.16V98.47zM769.49 98.47h11.16v62.58h-11.16V98.47zM837.24 141.46h-13.51v19.59h-11.16V98.47h28.66c12.61 0 22.22 9.25 22.22 21.49 0 9.25-5.44 16.78-13.6 19.95l14.42 21.13h-13.6l-13.42-19.59zm-13.51-13.7h17.23c6.71 0 10.88-3.08 10.88-7.8s-4.17-7.8-10.88-7.8h-17.23v15.6zM892.02 98.47h11.16v62.58h-11.16V98.47zM569.5 295.17h-21.49v53.51h-6.71v-53.51h-21.59v-9.07h49.79v9.07zM634.17 333.99h-34.46l-6.26 14.69h-7.71l25.58-62.58h10.79l25.49 62.58h-7.16l-6.26-14.69zm-3.9-9.07l-12.06-28.3h-2.63l-12.06 28.3h26.75zM676.8 286.1h10.34L707 322.83h2.09l19.86-36.73h10.7v62.58h-6.71v-49.34h-2.09l-18.86 36.55h-7.53l-18.77-36.55h-2.18v49.34h-6.71V286.1zM822.91 306.23c0 11.52-8.8 20.23-20.5 20.23h-21.4v22.22h-6.71V286.1h28.12c11.7 0 20.5 8.71 20.5 20.13zm-6.9 0c0-6.53-5.71-11.06-13.79-11.06H781v22.22h21.22c8.07 0 13.79-4.63 13.79-11.16zM897.19 339.61v9.07h-44.17V286.1h43.71v9.07h-37v17.69h34.01v8.71h-34.01v18.05h37.46zM953.24 326.46h-17.96v22.22h-6.71V286.1h28.12c11.7 0 20.5 8.71 20.5 20.13 0 9.98-6.53 17.78-15.87 19.77l16.51 22.67h-8.34l-16.23-22.22zm-17.96-9.07h21.22c8.07 0 13.79-4.63 13.79-11.16s-5.71-11.06-13.79-11.06h-21.22v22.22zM1052.37 339.61v9.07h-44.17V286.1h43.71v9.07h-37v17.69h34.01v8.71h-34.01v18.05h37.46zM1127.93 339.61v9.07h-44.17V286.1h43.71v9.07h-37v17.69h34.01v8.71h-34.01v18.05h37.46zM1159.31 286.1h8.43l35.55 48.25h1.54V286.1h6.71v62.58h-8.34l-35.55-48.25h-1.63v48.25h-6.71V286.1zM543.11 420.37l-25.12-40.45h7.71l19.41 29.02h2.27l19.41-29.02h8.16l-25.12 40.45v22.13h-6.71v-22.13zM643.15 433.43v9.07h-39.63v-62.58h6.71v53.51h32.92zM673.62 379.92h6.71v62.58h-6.71v-62.58zM712.26 411.21c0-18.41 14.15-32.38 32.74-32.38s32.74 13.97 32.74 32.38-14.06 32.38-32.74 32.38-32.74-13.97-32.74-32.38zm58.59 0c0-13.15-11.16-23.13-25.85-23.13s-25.76 9.98-25.76 23.13 11.07 23.13 25.76 23.13 25.85-9.98 25.85-23.13zM858.19 400.05c0 11.52-8.8 20.22-20.5 20.22h-21.41v22.22h-6.71v-62.58h28.12c11.7 0 20.5 8.71 20.5 20.13zm-6.89 0c0-6.53-5.71-11.06-13.79-11.06h-21.22v22.22h21.22c8.07 0 13.79-4.63 13.79-11.16zM937.37 400.05c0 11.52-8.8 20.22-20.5 20.22h-21.4v22.22h-6.71v-62.58h28.12c11.7 0 20.5 8.71 20.5 20.13zm-6.89 0c0-6.53-5.71-11.06-13.79-11.06h-21.22v22.22h21.22c8.07 0 13.79-4.63 13.79-11.16zM967.94 379.92h6.71v62.58h-6.71v-62.58zM1049.47 433.43v9.07h-39.63v-62.58h6.71v53.51h32.92zM1123.84 427.8h-34.46l-6.26 14.69h-7.71l25.58-62.58h10.79l25.48 62.58h-7.16l-6.26-14.69zm-3.9-9.07l-12.06-28.3h-2.63l-12.06 28.3h26.76zM1161.58 424.63h6.98c0 5.8 7.62 10.25 17.87 10.25 9.16 0 16.69-3.63 16.69-9.25 0-7.07-11.88-9.43-19.23-10.7-12.7-2.45-20.95-8.43-20.95-18.23 0-10.79 9.98-17.87 22.67-17.87 13.33 0 23.13 7.89 23.13 18.14h-6.98c0-5.35-6.89-9.43-16.42-9.43-8.62 0-15.51 3.45-15.51 8.71 0 6.89 12.61 9.34 17.87 10.25 13.51 2.45 22.31 8.16 22.31 18.41 0 11.34-10.79 18.68-23.94 18.68-13.97 0-24.49-8.16-24.49-18.96zM1280.93 433.43v9.07h-39.63v-62.58h6.71v53.51h32.92zM1355.58 433.43v9.07h-44.17v-62.58h43.71v9.07h-37v17.69h34.01v8.71h-34.01v18.05h37.46zM1438.93 379.92v62.58h-6.71v-26.66h-38.09v26.66h-6.71v-62.58h6.71v26.3h38.09v-26.3h6.71zM1519.02 388.99h-21.49v53.51h-6.71v-53.51h-21.59v-9.07h49.79v9.07zM1549.4 379.92h6.71v62.58h-6.71v-62.58z"></path></svg>
