<svg width="131" height="21" viewBox="0 0 131 21" fill="none" xmlns="http://www.w3.org/2000/svg">
<g clip-path="url(#clip0_491_340)">
<path d="M39.2289 19.0391L42.3735 1.86902H43.7905C44.8839 1.86902 45.1151 2.33846 44.9461 3.2918C44.7763 4.2603 43.3268 12.048 43.3268 12.048C43.3268 12.048 45.7318 9.39024 46.6404 8.38996C47.5497 7.38969 48.2885 6.60752 49.3372 6.60752H51.7111L46.2258 12.6417L49.9698 19.0377H46.7639L43.1889 12.8475L42.0644 19.0384L39.2289 19.0391ZM31.2484 19.0391L33.5133 6.62269H35.4243C35.7161 6.62269 35.9645 6.76424 35.8706 7.27991C35.8092 7.63957 35.6864 8.32713 35.6864 8.32713C36.1804 7.63957 36.7503 7.13907 37.3967 6.81046C38.0431 6.4833 39.0144 6.32657 39.8927 6.32657H39.9685L39.4456 9.21907C38.1976 9.25085 37.0724 9.50074 36.4708 10.0164C35.8858 10.5321 35.4691 11.4536 35.2076 12.7991L34.0528 19.0391H31.2484ZM18.7352 13.3935C18.7352 12.3297 18.9367 11.3128 19.3368 10.3761C19.7219 9.44313 20.3055 8.60521 21.047 7.92052C21.6168 7.39041 22.2481 6.98163 22.958 6.71802C23.6868 6.44535 24.4592 6.30757 25.2373 6.31141C26.8862 6.31141 28.2418 6.87474 29.2904 7.98407C30.3543 9.09413 30.8779 10.5321 30.8779 12.2849C30.8779 13.2534 30.7082 14.1923 30.3839 15.0676C30.0646 15.9321 29.5837 16.728 28.9669 17.4127C28.3913 18.0334 27.6937 18.5286 26.9179 18.8672C26.1314 19.2117 25.2691 19.3685 24.3606 19.3685C22.7269 19.3685 21.3706 18.8059 20.3241 17.6958C19.2609 16.5706 18.7373 15.1478 18.7373 13.395L18.7352 13.3935ZM25.0532 9.01685C24.0211 9.01685 23.1573 9.42202 22.4647 10.2511C21.7714 11.0802 21.4319 12.1116 21.4319 13.3639C21.4319 14.3317 21.71 15.1312 22.2798 15.74C22.8504 16.3662 23.5748 16.6789 24.4682 16.6789C25.5009 16.6789 26.3792 16.273 27.1043 15.4439C27.8287 14.6148 28.1826 13.5979 28.1826 12.3947C28.1826 11.3778 27.8901 10.566 27.3202 9.93985C26.7497 9.31441 25.9957 9.0183 25.0553 9.0183L25.0532 9.01613V9.01685ZM0 1.86974H1.30939C2.60361 1.86974 3.06583 2.04091 3.06583 3.66663C3.06583 4.5593 3.00444 15.3789 3.00444 15.3789H3.17417C3.17417 15.3789 8.55111 3.15024 8.78222 2.6353C8.95122 2.24385 9.29067 2.2908 9.70594 2.27563H11.0153C11.5556 2.27563 11.8011 2.27563 11.8011 2.77685C11.8011 3.27735 12.0936 15.5053 12.0936 15.5053L12.2482 15.5197C12.2482 15.5197 16.6573 4.27763 16.9961 3.54241C17.6569 2.11963 17.966 1.88419 19.1526 1.88419H20.8332L13.3286 19.037H9.66117L9.49144 6.32513H9.39828L4.12967 19.0362H0.385667L0 1.86974Z" fill="#1C1E26"/>
<path d="M120.446 6.63135H123.882C124.546 6.63135 124.852 6.97585 124.852 7.69446V8.66296C125.285 7.78763 125.715 7.17663 126.162 6.84874C126.609 6.52085 127.164 6.34824 127.825 6.34824C128.487 6.34824 129.275 6.5678 130.09 7.00546L128.641 10.3992C128.086 10.1645 127.656 10.0547 127.332 10.0547C126.715 10.0547 126.238 10.3205 125.9 10.8202C125.423 11.5555 125.175 12.9002 125.175 14.9008V19.0601H120.461V6.63063L120.446 6.63135ZM113.221 11.744C113.376 11.744 113.467 11.6652 113.437 11.4457C113.314 10.6801 113.098 10.1161 112.744 9.75641C112.344 9.35052 111.82 9.16202 111.187 9.16202C110.448 9.16202 109.846 9.4603 109.399 10.0691C109.121 10.444 108.937 11.008 108.859 11.7418H113.219L113.221 11.744ZM116.702 14.0276H108.844C108.92 14.7932 109.136 15.3565 109.445 15.7321C109.892 16.2788 110.494 16.5453 111.217 16.5453C111.679 16.5517 112.133 16.4269 112.526 16.1856C112.727 16.0759 112.88 15.9199 113.142 15.748C113.558 15.467 113.897 15.4035 114.606 15.4035H118.212C118.212 15.4035 118.119 15.4974 117.981 15.8267C117.534 16.858 116.424 17.9681 115.425 18.5162C114.422 19.0471 112.99 19.3302 111.125 19.3302C109.507 19.3302 108.229 19.0955 107.303 18.6426C106.379 18.1732 105.594 17.4394 104.992 16.4225C104.39 15.4056 104.083 14.2342 104.083 12.8576C104.083 10.9185 104.7 9.33896 105.916 8.15091C107.149 6.94768 108.844 6.3533 111.001 6.3533C112.757 6.3533 114.145 6.6198 115.145 7.16724C116.142 7.68059 116.951 8.49612 117.456 9.49713C117.98 10.5147 118.228 11.749 118.257 13.4686C118.257 13.9699 117.672 14.0312 116.7 14.0312L116.702 14.0276ZM81.2483 6.63135H83.9754C84.9309 6.63135 85.7629 6.53746 86.1023 7.88296C86.3031 8.67957 87.7208 14.2306 87.7208 14.2306H87.8436C87.8436 14.2306 89.9243 7.67785 90.0153 7.3348C90.1381 6.94407 90.448 6.63135 90.8632 6.63135H93.7593C94.314 6.63135 94.5133 6.81913 94.6679 7.27196C94.7762 7.61646 96.9797 14.2132 96.9797 14.2132H97.1343C97.1343 14.2132 98.552 8.83413 98.7362 8.05269C99.1067 6.55046 99.9076 6.62918 100.738 6.62918H103.543L99.0287 19.0601H94.8528L92.4947 11.1944H92.2636L89.9836 19.0435H85.7932L81.2483 6.62702V6.63135ZM71.4939 12.8685C71.4939 13.9323 71.772 14.7296 72.3101 15.2301C72.8503 15.7465 73.5429 15.9957 74.359 15.9957C75.1744 15.9957 75.8843 15.7465 76.4246 15.2453C76.9648 14.7441 77.2255 13.9323 77.2255 12.8222C77.2255 11.7902 76.9475 11.0246 76.4094 10.509C75.8692 10.0077 75.191 9.75785 74.4074 9.75785C73.5595 9.75785 72.8669 10.0077 72.3115 10.5234C71.7886 11.0398 71.4954 11.822 71.4954 12.8685H71.4939ZM67.7651 12.8858C67.7651 10.9936 68.3501 9.43069 69.5367 8.19352C70.7226 6.95852 72.3245 6.34824 74.3438 6.34824C76.6405 6.34824 78.397 7.06685 79.5662 8.50624C80.5073 9.66324 80.9839 11.1034 80.9839 12.8071C80.9839 14.7145 80.399 16.2788 79.2275 17.4994C78.0561 18.7192 76.4224 19.328 74.359 19.328C72.5094 19.328 71.0151 18.8124 69.8755 17.8114C68.4729 16.5605 67.7651 14.9196 67.7651 12.8872V12.8858ZM57.966 5.72424V9.22557H59.2451C60.2475 9.22557 60.9553 9.05441 61.3727 8.69474C61.7728 8.33507 61.9888 7.8808 61.9888 7.3348C61.9888 6.78952 61.8198 6.33452 61.4652 5.95896C61.1113 5.58268 60.4483 5.39563 59.4783 5.39563H58.3531C58.122 5.39563 57.9675 5.56752 57.9675 5.72424H57.966ZM52.7111 1.9073H61.385C63.2816 1.9073 64.6986 2.36013 65.6375 3.28385C66.5785 4.19096 67.0552 5.50396 67.0552 7.17663C67.0552 8.8493 66.5467 10.2576 65.5147 11.2427C64.4826 12.2112 62.9255 12.6973 60.8152 12.6973H58.7207C58.3199 12.6973 57.966 13.0252 57.966 13.3379V19.0615H52.7263V1.9073H52.7111Z" fill="#1C1E26"/>
</g>
<defs>
<clipPath id="clip0_491_340">
<rect width="130.09" height="19.4994" fill="white" transform="translate(0 0.869019)"/>
</clipPath>
</defs>
</svg>
