<svg class="is-biggest" fill="none" height="31" viewBox="0 0 229 31" width="229" xmlns="http://www.w3.org/2000/svg"><path d="m69.2433 30.3159 5.5135-29.822248h2.4865c1.9189 0 2.3243.814818 2.027 2.471608-.2973 1.68395-2.8378 15.20984-2.8378 15.20984s4.2162-4.6172 5.8108-6.3555 2.8919-3.09632 4.7297-3.09632h4.1622l-9.6217 10.48392 6.5676 11.1087h-5.6216l-6.2703-10.7556-1.9729 10.7556z" fill="currentColor"></path><path d="m55.2433 30.3159 3.973-21.56548h3.3513c.5135 0 .946.24445.7838 1.14075-.1081.62473-.3243 1.81973-.3243 1.81973.8648-1.195 1.8648-2.06418 3-2.63455 1.1351-.57037 2.8378-.84197 4.3784-.84197h.1351l-.9189 5.02472c-2.1892.0543-4.1622.4889-5.2162 1.3852-1.0271.8962-1.7568 2.4987-2.2163 4.8345l-2.027 10.8371z" fill="currentColor"></path><path d="m44.3784 12.9058c-1.8108 0-3.3243.7062-4.5405 2.1457s-1.8108 3.2321-1.8108 5.4049c0 1.684.4865 3.0691 1.4865 4.1284 1 1.0864 2.2703 1.6296 3.8378 1.6296 1.8108 0 3.3514-.7061 4.6216-2.1456 1.2703-1.4395 1.8919-3.205 1.8919-5.2963 0-1.7655-.5135-3.1778-1.5135-4.2642-1-1.0865-2.3243-1.6025-3.973-1.6025zm-11.081 7.6049c0-1.8469.3513-3.6123 1.054-5.2419.6757-1.6297 1.7027-3.0692 3-4.2642 1-.9235 2.1081-1.62967 3.3514-2.0914 1.2432-.46172 2.5675-.70617 4-.70617 2.8919 0 5.2702.97778 7.1081 2.90617 1.8648 1.9284 2.7838 4.4272 2.7838 7.4691 0 1.684-.2973 3.3136-.8649 4.8346s-1.4054 2.879-2.4865 4.0741c-1.027 1.0864-2.2162 1.9284-3.5946 2.5259s-2.8919.8691-4.4865.8691c-2.8648 0-5.2432-.9777-7.0811-2.9061-1.8648-1.9556-2.7837-4.4272-2.7837-7.4692z" fill="currentColor"></path><path d="m.432495.493652h2.297295c2.27027 0 3.08108.298766 3.08108 3.123458 0 1.54815-.1081 20.34319-.1081 20.34319h.29729s9.43244-21.23949 9.83784-22.13578c.2973-.67902.8919-.59753 1.6216-.62469h2.2973c.946 0 1.3784 0 1.3784.86913 0 .8963.5135 22.10864.5135 22.10864l.2703.0272s7.7297-19.52843 8.3243-20.80497c1.1622-2.47161 1.7027-2.879017 3.7838-2.879017h2.9459l-13.1621 29.795087h-6.4325l-.2973-22.08151h-.1621l-9.24326 22.08151h-6.56757z" fill="currentColor"></path><g fill="currentColor"><path d="m211.541 8.72326h6.027c1.162 0 1.702.59753 1.702 1.84694v1.6839c.757-1.521 1.514-2.58022 2.298-3.15059.783-.57037 1.756-.86913 2.919-.86913 1.216 0 2.54.38024 3.973 1.14074l-2.541 5.89378c-.973-.4074-1.73-.5975-2.297-.5975-1.081 0-1.919.4617-2.514 1.3309-.838 1.2765-1.27 3.6123-1.27 7.0889v7.2247h-8.27v-21.59264z"></path><path d="m204.973 21.5702h-13.784c.135 1.3308.514 2.3086 1.054 2.9605.784.9506 1.838 1.4123 3.108 1.4123.811 0 1.595-.1901 2.298-.6247.351-.1901.621-.4617 1.081-.7605.73-.4889 1.324-.5975 2.567-.5975h6.325s-.162.163-.406.7333c-.784 1.7926-2.729 3.721-4.486 4.6716-1.757.9235-4.27 1.4124-7.541 1.4124-2.838 0-5.081-.4074-6.702-1.1951-1.622-.8148-3-2.0913-4.055-3.8568-1.054-1.7654-1.594-3.8024-1.594-6.1926 0-3.3679 1.081-6.1111 3.216-8.1753 2.162-2.09133 5.135-3.12342 8.919-3.12342 3.081 0 5.514.46172 7.27 1.41234 1.784.92348 3.135 2.28148 4.054 4.04688.919 1.7655 1.352 3.9111 1.406 6.8988 0 .8691-1.027.9778-2.73.9778zm-6.108-3.9655c.27 0 .432-.1358.378-.516-.216-1.3309-.594-2.3086-1.216-2.9333-.703-.7062-1.622-1.0321-2.73-1.0321-1.297 0-2.351.516-3.135 1.5753-.486.6518-.811 1.6296-.946 2.9061z"></path><path d="m142.784 8.72315h4.784c1.675 0 3.135-.16297 3.729 2.17285.352 1.3852 2.838 11.0271 2.838 11.0271h.216s3.649-11.3802 3.811-11.97773c.216-.67901.757-1.22222 1.487-1.22222h5.081c.973 0 1.324.32592 1.594 1.11358.19.59757 4.054 12.05927 4.054 12.05927h.271s2.486-9.3432 2.81-10.7012c.649-2.60746 2.055-2.47165 3.514-2.47165h4.919l-7.919 21.59255h-7.324l-4.135-13.6617h-.406l-4 13.6346h-7.351z"></path><path d="m119.135 19.5875c0-3.2865 1.027-6.0025 3.108-8.1482 2.081-2.14567 4.892-3.20492 8.433-3.20492 4.027 0 7.108 1.24938 9.162 3.74812 1.649 2.0099 2.486 4.5087 2.486 7.4692 0 3.3135-1.027 6.0296-3.081 8.1481s-4.919 3.1778-8.54 3.1778c-3.243 0-5.865-.8963-7.865-2.6346-2.46-2.1728-3.703-5.0247-3.703-8.5555zm6.541-.0272c0 1.8469.486 3.2321 1.432 4.1012.946.8963 2.162 1.3309 3.595 1.3309 1.459 0 2.675-.4346 3.621-1.3037s1.406-2.2815 1.406-4.2099c0-1.7926-.487-3.1234-1.433-4.0197-.946-.8692-2.135-1.3037-3.513-1.3037-1.487 0-2.703.4345-3.676 1.3308-.919.8963-1.432 2.2543-1.432 4.0741z"></path><path d="m92.7299.520996h15.2161c3.324 0 5.811.787654 7.46 2.390124 1.648 1.57531 2.486 3.85679 2.486 6.76296 0 3.01482-.892 5.35062-2.703 7.06172-1.811 1.684-4.54 2.5259-8.243 2.5259h-3.676c-.702 0-1.324.5704-1.324 1.1136v9.9408h-9.1891v-29.795104zm9.2161 6.627164v6.08394h2.243c1.757 0 3-.2988 3.73-.9234.703-.6247 1.081-1.4124 1.081-2.36301 0-.92346-.297-1.73827-.919-2.39013-.621-.65185-1.784-.97777-3.486-.97777h-1.973c-.406 0-.676.29876-.676.57037z"></path></g></svg>
