<svg xmlns="http://www.w3.org/2000/svg" width="270" height="76.23" viewBox="0 0 412.6 116.5"><path fill="#E4032F" d="M71.5 75.6V5.5l31.8-3h-99l24.6 35.6L5.3 75.6z"/><path fill="#E4032F" d="M103.5 15.1V4.9L78.6 7c6.7 2.6 15.1 5.4 24.9 8.1zM341.2 75.6V5.5l-31.9-3h99l-24.5 35.6 23.5 37.5z"/><path fill="#E4032F" d="M309.1 15.1V4.9L334 7c-6.6 2.6-15 5.4-24.9 8.1z"/><path fill="#E4032F" d="M283.7 23.3c-26.7 5.1-53.3 8.8-77.4 8.8s-50.7-3.7-77.4-8.8c-24.3-4.6-43.4-10.8-55-16v78.6c2.1 1 4.5 2.1 6.9 3.1 20.3 7.9 72.2 24.9 125.5 24.9 54.8 0 103.4-16.1 124-24.3 3-1.3 5.8-2.6 8.4-3.8V71.4 50 28.6 7.2c-11.6 5.4-30.7 11.5-55 16.1z"/><g class="do-not-fill" fill="#fff"><path class="do-not-fill" d="M142.8 47.3c-.5-.1-2.4-.4-2.9-.5-4.5-.8-6.9-1.3-11.1-2.1-.7 3-1.6 7.3-2.2 10.2-.6 2.9-1.2 5.9-1.8 8.8-.9-3.4-1.8-6.7-2.8-10.1-.9-3.3-2-7.6-3-10.9-3.4-1-6.5-1.7-9.8-2.7-.5 2.9-1 6.2-1.5 9.1-.4 2.9-.9 5.8-1.4 8.7-.9-3.3-1.4-6.3-2.3-10-.8-3.4-1.3-6.7-2.1-10-3.4-1.2-8.2-2.9-11.2-4 2.4 10.9 3.7 16.2 5.5 24.3 1.9 8.5 3.2 14 5.2 22.3 3.8 1.6 7.8 3 10.4 3.9.6-3.7 1.1-7 1.7-10.8.6-3.7 1.3-7.5 1.9-11.2 1.2 4.3 2.4 8.7 3.6 13 1.1 4.3 2.1 7.7 3.2 12.1 3.4.8 4.6 1.2 8.3 2.1 1.7-6.9 3.2-12.4 5-19.3 1.5-5.4 3.2-10.8 5-16.3.7-1.7 1.8-5.1 2.3-6.6zM177.2 66.3c-.5-2-1.2-3.8-2-5.5-1-2-2.3-3.8-3.8-5.4-1.6-1.6-3.3-2.9-5.3-4s-4.2-1.8-6.7-2.2c-2.2-.3-4.2-.3-6-.1-1.8.3-3.5.8-4.8 1.6-1.4.8-2.6 1.8-3.7 3-1 1.2-1.9 2.5-2.5 4-.1.2-.1.3-.2.4-.6 1.4-1 2.8-1.3 4.3-.3 1.7-.4 3.4-.4 5.1.1 2.3.3 4.6.9 6.8.3 1 .5 1.9.9 2.9.5 1.3 1 2.5 1.6 3.7 1 2.1 2.3 4 3.9 5.8 1.5 1.7 3.2 3.2 5.2 4.4 1.9 1.2 4.1 2 6.5 2.5 2.1.4 4.1.4 5.8.1 1.8-.3 3.3-.9 4.7-1.8 1.4-.9 2.6-2 3.6-3.3s1.8-2.8 2.5-4.3c.5-1.1.8-2.1 1.1-3.3.2-.6.3-1.2.4-1.7.3-1.7.5-3.5.5-5.2.1-2.4-.2-4.7-.7-6.9-.1-.3-.1-.6-.2-.9zm-12 9.6c-.3 1-.6 2-1.2 2.8-.5.7-1.2 1.4-1.9 1.7-.8.4-1.7.5-2.8.3s-2-.6-2.8-1.3c-.8-.6-1.4-1.4-1.9-2.4s-.9-2-1.1-3.2c-.2-1.2-.4-2.4-.4-3.6 0-1.2.1-2.2.3-3.3s.6-2 1.1-2.8c.5-.8 1.1-1.4 1.9-1.8.8-.3 1.8-.5 2.9-.3 1.2.2 2.1.6 2.9 1.3.8.7 1.4 1.5 1.9 2.5.5.9.9 2 1.1 3.1.2 1.2.3 2.3.3 3.5.1 1.3-.1 2.4-.3 3.5zM177.5 51c-.1 3.7-.1 7.4-.2 11.1.3.1.6.1.9.1l9.3.9c-.1 5.5-.1 10.9-.2 16.3-.1 5.5-.2 10.9-.2 16.3 4 .3 8 .6 12 .8.2-5.5.2-10.9.3-16.4l.3-16.3c3.2.1 6.4.2 9.5.2.1-3.7.2-7.4.2-11.1-10.1-.2-20.5-.8-31.2-1.8-.2 0-.5 0-.7-.1zM321.4 58.6c-.3-1-.6-1.8-1-2.5-.5-.7-.9-1.3-1.4-1.7-.5-.5-1-.8-1.5-1.1-.5-.3-.9-.6-1.3-.7-.8-.4-1.6-.8-2.1-1.2-.6-.3-1-.8-1.4-1.2-.3-.5-.5-1-.5-1.7 0-.4.1-.9.2-1.3.2-.5.5-.9.7-1.3.3-.4.7-.7 1.3-1 .6-.2 1.2-.2 1.7-.1.6.1 1.2.3 1.7.6s1 .7 1.5 1.2.9.9 1.2 1.3c0-3.8 0-7.6.1-11.4-.5-.6-1.2-1.2-2-1.6s-1.7-.7-2.6-.7c-1-.1-2 .1-3.2.6-1.4.5-2.6 1.3-3.7 2.4-1 .9-1.9 2-2.7 3.2-.1.2-.3.4-.4.6-.9 1.5-1.6 3.1-2.1 4.9-.6 1.8-.9 3.7-.9 5.8-.1.4-.1.9 0 1.4 0 .6.1 1.2.2 1.9s.3 1.4.6 2.2c.3.7.7 1.4 1.3 2.1.3.4.8.8 1.3 1.2.2.2.6.4.9.6.9.5 1.6.9 2.2 1.3.6.3 1 .7 1.4 1 .3.3.6.6.7.9.2.3.2.7.2 1.2 0 .3-.1.7-.2 1.2s-.5.9-.9 1.4c-.5.5-1.1.9-2 1.2-.7.3-1.6.5-2.3.4h-.2c-.7 0-1.4-.2-2.1-.4-.7-.3-1.3-.7-2-1.2-.1 3.9-.2 7.8-.3 11.6.3.1.6.3 1.1.5.5.1 1.1.2 1.8.3.5.1 1 .1 1.6 0 .3 0 .6-.1 1-.1 1-.1 2.1-.5 3.5-.9 1.7-.7 3.1-1.5 4.3-2.5 1.2-1 2.2-2.1 3-3.3s1.4-2.3 1.9-3.5.9-2.2 1.1-3.3c.2-1 .3-2 .4-2.8.1-.7.2-1.3.2-1.7.1-1.7 0-2.9-.3-3.8zM286.9 53.9c-.2 3.5-.3 6.9-.5 10.3-2.1-2.8-4.2-5.7-6.2-8.6-2.1-2.9-4.2-5.9-6.3-8.9-3.2.6-6.4 1.2-9.8 1.8-.3 7.3-.7 14.6-1 21.8-.4 7.3-.7 14.6-1.1 21.9 3.8-.7 7.5-1.4 11.3-2.2.2-3.4.3-6.8.5-10.3.2-3.4.3-6.8.5-10.3 2.1 2.9 4.1 5.9 6.2 8.7s4.1 5.6 6.2 8.5c3.1-.9 6.2-1.8 9.3-2.8.3-7.3.5-14.4.8-21.6l.9-21.6c-3.5 1.1-6.9 2.1-10.4 3.1-.1 3.3-.2 6.8-.4 10.2zM306.5 33.1c1.5-2.4 3-4.8 4.4-7.2-1.5.5-2.9 1.1-4.4 1.6l-4.2 1.5c-1.4 3.9-2.8 7.7-4.2 11.6 1.6-.5 3.1-1 4.6-1.5 1.2-2 2.5-4.1 3.8-6zM247 50.8c-4.1.5-8.2.8-12.3 1.2-2.1 3.5-4.1 7-6.2 10.4l-6 10.2.3-10 .3-10c-3.9.1-7.7.2-11.5.2-.2 7.3-.3 14.6-.5 21.9-.2 7.3-.3 14.6-.5 22 3.7-.1 7.5-.1 11.2-.2.1-3.5.2-6.8.3-10.3l.3-10.2c1.6 3.3 3.2 6.6 4.8 10l4.8 9.9c4.4-.3 8.9-.8 13.5-1.3-2-3.6-3.9-7.2-5.8-10.9-1.9-3.6-3.8-7.3-5.7-10.9 2.1-3.6 4.3-7.3 6.4-10.9 2.2-3.7 4.3-7.4 6.6-11.1zM248.1 72.5l-.9 21.9c3.8-.5 7.7-1 11.5-1.6.3-7.3.7-14.6 1-21.9.3-7.3.7-14.6 1-21.9-3.9.6-7.8 1.1-11.7 1.6l-.9 21.9z"/></g><g><path class="do-not-fill" fill="#fff" d="M412.6 0h-106v15.6c-7.5 2-15.4 3.8-23.3 5.3-30.6 5.9-55.8 8.7-76.9 8.7s-46.3-2.9-76.9-8.7c-8-1.5-15.8-3.3-23.3-5.3V0H0l26.4 38.2L1.3 78.1h70.1v9.4l1.5.7c2.2 1 4.5 2.1 7.1 3.2 15.1 5.9 69 25.1 126.4 25.1 56.7 0 106.3-17.1 125-24.5 2.9-1.3 5.8-2.6 8.5-3.8l1.5-.7v-9.4h70.1l-25.1-39.9L412.6 0zM71.5 5.5v70.1H5.9l23.6-37.5L4.9 2.5h99l-32.4 3zm32-.6v10.2c-9.9-2.7-18.3-5.5-24.9-8.2l24.9-2zm235.2 23.8V85.9c-2.6 1.2-5.4 2.5-8.4 3.8-20.6 8.1-69.2 24.3-124 24.3-53.3 0-105.2-17-125.5-24.9-2.4-1.1-4.7-2.1-6.9-3.1V71.6 50.2 28.8 7.4c11.6 5.2 30.7 11.4 55 16 26.7 5.1 53.3 8.8 77.4 8.8s50.7-3.7 77.4-8.8c24.3-4.6 43.4-10.8 55-16v21.3zm-29.6-13.6V4.9L334 7c-6.6 2.6-15 5.4-24.9 8.1zm97.7 60.5h-65.6V5.5l-32.4-3h99l-24.6 35.6 23.6 37.5z"/></g></svg>
