<svg fill="none" height="49" viewBox="0 0 49 49" width="49" xmlns="http://www.w3.org/2000/svg" xmlns:xlink="http://www.w3.org/1999/xlink"><clipPath id="a-donation"><path d="m.272949.59375h48v48h-48z"/></clipPath><g clip-path="url(#a-donation)" stroke="currentColor" stroke-linecap="round" stroke-linejoin="round" stroke-width="2"><path d="m40.0928 39.5117-10.742 2.148"/><path d="m30.4149 29.4742-5.068 2.142c-.4006.1649-.8305.2467-1.2637.2405s-.8606-.1002-1.2563-.2765c-.4005-.1799-.7615-.4372-1.0622-.7571-.3006-.3199-.5351-.6961-.6898-1.1069-.3039-.781-.3102-1.6465-.0178-2.4319s.8631-1.436 1.6038-1.8281l5.066-2.53c.5481-.2845 1.15-.4503 1.7664-.4869.6165-.0365 1.2337.0572 1.8116.2749l10.41 4.102"/><path d="m9.27295 41.7446h3.98595l6.842 5.22c.3203.3613.7683.5842 1.2496.6215.4814.0373.9584-.1138 1.3305-.4215l9.56-7.894c.3783-.3124.62-.7599.6737-1.2475.0538-.4877-.0846-.9771-.3857-1.3645l-5.256-5.852"/><path d="m22.109 25.8122-.554-.456c-.5502-.4039-1.1941-.6612-1.8711-.7477-.6771-.0864-1.3649.0009-1.9989.2537l-8.53803 3.412"/><path d="m1.27295 44.5935h5.308c.67459.0361 1.33611-.196 1.84037-.6455.50425-.4496.81037-1.0802.85163-1.7545v-13.19c-.03872-.6761-.34374-1.3093-.84828-1.761s-1.16749-.6851-1.84372-.649h-5.308"/><path d="m47.2729 44.5935h-4.3079c-.6746.0361-1.3362-.1959-1.8404-.6455-.5043-.4495-.8104-1.0802-.8517-1.7545v-13.2c.0413-.6743.3474-1.305.8517-1.7545.5042-.4496 1.1658-.6816 1.8404-.6455h4.3079"/><path d="m23.535 19.5929-8.766-9.144c-.7699-.76985-1.278-1.76242-1.4525-2.8371-.1744-1.07468-.0063-2.17701.4805-3.15087.3674-.73508.9043-1.3723 1.5664-1.85916.662-.48685 1.4303-.80939 2.2415-.94104s1.642-.06864 2.4241.18385c.782.25248 1.4929.68721 2.074 1.26835l1.432 1.432 1.432-1.432c.581-.58114 1.2919-1.01587 2.0739-1.26835.7821-.25249 1.6129-.3155 2.4241-.18385s1.5795.45419 2.2416.94104c.662.48686 1.1989 1.12408 1.5664 1.85916.4849.97428.652 2.07617.4776 3.15042-.1743 1.07426-.6814 2.06673-1.4496 2.83755z"/></g></svg>
