<svg width="50" height="51" fill="none" xmlns="http://www.w3.org/2000/svg" viewBox="0 0 50 51"><path d="M41.695 33.693c.411 0 .818.092 1.198.27.38.178.725.439 1.016.768.29.33.52.72.678 1.15a3.954 3.954 0 0 1 0 2.712c-.157.43-.388.82-.678 1.15-.29.329-.636.59-1.016.768-.38.178-.787.27-1.198.27h-2.087c.83 0 1.627.373 2.214 1.038.587.664.917 1.566.917 2.506 0 1.958-1.403 2.362-3.13 2.362H26.042c-5.95 0-7.305-1.181-14.61-2.362V24.243C16.548 24.243 25 13.61 25 4.16c0-3.736 4.569-5.127 6.261 1.698 1.044 4.208-2.087 12.477-2.087 12.477H45.87c.83 0 1.627.374 2.214 1.038.587.665.917 1.566.917 2.506 0 1.959-1.403 4.725-3.13 4.725h-2.088c.83 0 1.627.374 2.214 1.038.587.665.917 1.566.917 2.506 0 .94-.33 1.841-.917 2.506-.587.665-1.384 1.038-2.214 1.038h-2.087Z" stroke="currentColor" stroke-width="2" stroke-linecap="round" stroke-linejoin="round"/><path d="M11.435 20.697H1v28.351h10.435v-28.35Z" stroke="currentColor" stroke-width="2" stroke-linecap="round" stroke-linejoin="round"/><path d="M6.739 44.324c-.289 0-.522-.264-.522-.59 0-.327.233-.591.522-.591" stroke="currentColor" stroke-width="2"/><path d="M6.738 44.324c.288 0 .522-.264.522-.59 0-.327-.234-.591-.522-.591" stroke="currentColor" stroke-width="2"/></svg>
