<svg width="48" height="49" fill="none" viewBox="0 0 48 49" xmlns="http://www.w3.org/2000/svg"><g stroke="currentColor" stroke-width="2" stroke-linecap="round" stroke-linejoin="round"><path d="M24 47.947v-2M35.314 43.262 33.9 41.848M40 31.947h-2M8 31.947h2M12.688 43.262l1.413-1.414M32.193 9.947H15.81M12 1.947h24M21.2 21.26 12 1.946l-5.933 6.78a2 2 0 0 0-.094 2.518l10 13.334M26.729 21.42 36 1.946l5.931 6.78a2 2 0 0 1 .094 2.518L31.715 24.993"/><path d="M13.682 30.947a10 10 0 1 0 20 0 10 10 0 0 0-20 0Z"/><path d="M19.682 30.947a4 4 0 1 0 8 0 4 4 0 0 0-8 0Z"/></g></svg>
