<svg width="49" height="49" viewBox="0 0 49 49" fill="none" xmlns="http://www.w3.org/2000/svg"><path d="m25.619 12.37 12.18-4.66a.56.56 0 0 0 0-1.04l-12.18-4.68a2.32 2.32 0 0 0-1.56 0l-13.5 5.2 13.5 5.18c.5.2 1.059.2 1.56 0ZM34.738 15.97v-7.1M14.938 8.87v7.1M10.559 7.19v7.7M31.438 25.87a5.5 5.5 0 1 0 0-11 5.5 5.5 0 0 0 0 11ZM18.238 25.87a5.5 5.5 0 1 0 0-11 5.5 5.5 0 0 0 0 11Z" stroke="currentColor" stroke-width="2" stroke-linecap="round" stroke-linejoin="round"/><path d="m20.117 25.549 4.72 4.72 4.72-4.72" stroke="currentColor" stroke-width="2" stroke-linecap="round" stroke-linejoin="round"/><path d="M36.838 28.61v7.16a12 12 0 1 1-24 0v-7.16" stroke="currentColor" stroke-width="2" stroke-linecap="round" stroke-linejoin="round"/><path d="M35.817 23.67h1.02a6.6 6.6 0 0 1 6.6 6.6v4.4a10.98 10.98 0 0 1-10.98 10.98h-.76M13.858 23.67h-1.02a6.6 6.6 0 0 0-6.6 6.6v4.4a10.98 10.98 0 0 0 10.9 10.98h.76" stroke="currentColor" stroke-width="2" stroke-linecap="round" stroke-linejoin="round"/><path d="M18.239 21.308a.938.938 0 1 1 0-1.876" stroke="currentColor" stroke-width="2"/><path d="M18.238 21.308a.938.938 0 0 0 0-1.876M31.438 21.308a.938.938 0 0 1 0-1.876M31.438 21.308a.938.938 0 0 0 0-1.876" stroke="currentColor" stroke-width="2"/></svg>
