<svg width="49" height="49" viewBox="0 0 49 49" fill="none" xmlns="http://www.w3.org/2000/svg"><path d="M1.508 24.693a22.5 22.5 0 1 0 45 0 22.5 22.5 0 0 0-45 0v0Z" stroke="currentColor" stroke-width="2" stroke-linecap="round" stroke-linejoin="round"/><path d="M24.008 16.238c-5.374-.088-10.934 3.556-14.428 7.286a2.102 2.102 0 0 0 0 2.878c3.428 3.652 8.956 7.378 14.428 7.292 5.472.088 11-3.638 14.432-7.29a2.102 2.102 0 0 0 0-2.878c-3.498-3.732-9.058-7.376-14.432-7.288Z" stroke="currentColor" stroke-width="2" stroke-linecap="round" stroke-linejoin="round"/><path d="M21.008 24.963a3 3 0 1 0 6 0 3 3 0 0 0-6 0v0Z" stroke="currentColor" stroke-width="2" stroke-linecap="round" stroke-linejoin="round"/></svg>
