<svg xmlns="http://www.w3.org/2000/svg" width="154" height="157" fill="none" viewBox="0 0 154 157"><path style="fill: var(--color-background-block);" d="m102.076 121.81-3.333-26.667-20-6.666-20 6.666-3.333 26.667h10l-6.666 33.333 20-26.667 19.999 26.667-6.667-33.333h10Zm-9.997-43.334-13.334 6.666-13.333-6.666V61.809l13.333-6.666 13.334 6.666v16.667Zm-53.334-3.332L25.41 81.81l-13.333-6.666V58.477l13.333-6.666 13.334 6.666v16.667Zm35.335-50 56.666 10L152.079 1.81H88.746l-4 6.666h-36l-12.666 20 31.333 6.667 6.667-10ZM41.411 93.81l-16-5.333-20 6.666-3.333 26.667h10l-6.667 33.333 20-26.667 20 26.667-6.667-33.333 2.667-28Z"/><path style="fill: var(--color-light-mint);" d="m2.078 15.143 30 20 4-6.667 8.666-13.333H2.078Zm65.999-6.664L53.41 31.812l14 3.333L84.743 8.479H68.077Zm10.667 46.664 13.333 6.666v16.667l-13.333 6.666v-30Zm0 73.333 20 26.667-6.667-33.333h10l-3.333-26.667-20-6.666v39.999ZM25.41 51.81l13.333 6.667v16.667L25.41 81.81v-30Zm0 76.666 20 26.667-6.667-33.333 2.667-28-16-5.333v39.999Z"/><path style="stroke: var(--color-text);" stroke-linecap="round" stroke-linejoin="round" stroke-miterlimit="10" stroke-width="2.667" d="m130.744 35.144-56.666-10L88.745 1.81h63.332L82.078 111.809"/><path style="stroke: var(--color-text);" stroke-linejoin="round" stroke-miterlimit="10" stroke-width="2.667" d="M44.744 15.143H2.078l30 20 4-6.667m56.001 50-13.334 6.666-13.333-6.666V61.809l13.333-6.666 13.334 6.666v16.667Zm9.997 43.334-3.333-26.667-20-6.666-20 6.666-3.333 26.667h10l-6.666 33.333 20-26.667 19.999 26.667-6.667-33.333h10ZM38.745 75.144 25.41 81.81l-13.333-6.666V58.477l13.333-6.666 13.334 6.666v16.667Z"/><path style="stroke: var(--color-text);" stroke-linecap="round" stroke-linejoin="round" stroke-miterlimit="10" stroke-width="2.667" d="m41.411 93.81-16-5.333-20 6.666-3.333 26.667h10l-6.667 33.333 20-26.667 20 26.667-6.667-33.333"/><path style="stroke: var(--color-text);" stroke-linejoin="round" stroke-miterlimit="10" stroke-width="2.667" d="M84.746 8.479h-36l-12.666 20 31.333 6.666 6.667-10"/></svg>
