<svg width="49" height="49" viewBox="0 0 49 49" fill="none" xmlns="http://www.w3.org/2000/svg"><path d="M24.184 47.963v-2M35.498 43.277l-1.414-1.414M40.184 31.963h-2M8.184 31.963h2M12.871 43.277l1.414-1.414M32.376 9.963H15.994M12.184 1.963h24M21.383 21.275l-9.2-19.312-5.932 6.78a2 2 0 0 0-.094 2.518l10 13.334M26.912 21.435l9.272-19.472 5.932 6.78a2 2 0 0 1 .094 2.518L31.898 25.009" stroke="currentColor" stroke-width="2" stroke-linecap="round" stroke-linejoin="round"/><path d="M13.865 30.963a10 10 0 1 0 20 0 10 10 0 0 0-20 0Z" stroke="currentColor" stroke-width="2" stroke-linecap="round" stroke-linejoin="round"/><path d="M19.865 30.963a4 4 0 1 0 8 0 4 4 0 0 0-8 0Z" stroke="currentColor" stroke-width="2" stroke-linecap="round" stroke-linejoin="round"/></svg>
