<svg width="49" height="49" fill="none" viewBox="0 0 49 49" xmlns="http://www.w3.org/2000/svg"><path d="M39.838 25.276a10.559 10.559 0 0 0 3.638-2.85M45.784 16.758a10.6 10.6 0 0 0-.6-4.582M41.478 7.3a10.2 10.2 0 0 0-4.246-1.816M7.622 27.43a10.301 10.301 0 0 0-3.706 3.116M1.842 36.611a10.292 10.292 0 0 0 1.032 4.728M7.273 46.002a10.523 10.523 0 0 0 4.67 1.276M22.832 17.303v30M17.105 23.03l5.726-5.727 5.729 5.728M18.332 6.803a4.5 4.5 0 1 0 8.998 0 4.5 4.5 0 0 0-8.998 0v0Z" stroke="currentColor" stroke-width="2" stroke-linecap="round" stroke-linejoin="round"/></svg>
