<svg fill="none" height="45" viewBox="0 0 38 45" width="38" xmlns="http://www.w3.org/2000/svg"><g stroke="currentColor" stroke-linecap="round" stroke-linejoin="round" stroke-width="2"><path d="m17.5 13.2266 6-6.00004-6-6"/><path d="m36.9379 23.7266c.04.494.062 1 .062 1.5.0017 1.5179-.1891 3.03-.568 4.5"/><path d="m32.7881 13.6562c.9773 1.1616 1.8033 2.4425 2.458 3.8121"/><path d="m32.744 36.8496c-.32.3787-.6586.7467-1.016 1.104-1.0723 1.0744-2.2766 2.0085-3.584 2.78"/><path d="m20.5 43.1646c-.494.04-1 .062-1.5.062-4.7739 0-9.35227-1.8965-12.72792-5.2721-3.37566-3.3757-5.27208-7.954-5.27208-12.7279s1.89642-9.3523 5.27208-12.728c3.37565-3.37561 7.95402-5.27204 12.72792-5.27204h4.5"/></g></svg>
