<svg width="48" height="49" viewBox="0 0 48 49" fill="none" xmlns="http://www.w3.org/2000/svg"><path d="M37.715 19.479H10.286a3.429 3.429 0 0 0-3.429 3.428v20.571a3.429 3.429 0 0 0 3.429 3.43h27.429a3.429 3.429 0 0 0 3.428-3.43v-20.57a3.429 3.429 0 0 0-3.428-3.43Z" stroke="currentColor" stroke-width="2" stroke-linecap="round" stroke-linejoin="round"/><path d="M32.469 5.867A11.795 11.795 0 0 0 24 2.336a12 12 0 0 0-12 12v5.143M24 34.907a1.714 1.714 0 1 0 0-3.428 1.714 1.714 0 0 0 0 3.428Z" stroke="currentColor" stroke-width="2" stroke-linecap="round" stroke-linejoin="round"/></svg>
