<svg xmlns="http://www.w3.org/2000/svg" width="180" height="141" fill="none" viewBox="0 0 180 141"><path style="fill: var(--color-background-block);" d="M178.245 2.16H1.912v137.25h176.333V2.16Z"/><path style="fill: var(--color-light-mint);" d="m126.48 63.999 24.932 22.036-34.5 30.5H63.245l-9.568-8.464L1.912 139.41h176.333V32.66L126.48 64Z"/><path style="fill: var(--color-light-mint);" d="M116.913 74.598v22.875l-27.056 19.062-26.61-19.062 53.666-22.875Z"/><path style="stroke: var(--color-text);" stroke-linecap="round" stroke-miterlimit="10" stroke-width="2.667" d="M17.246 17.41h7.667m15.333 0h7.667m15.333 0h7.667"/><path style="stroke: var(--color-text);" stroke-linecap="round" stroke-linejoin="round" stroke-width="2.667" d="M178.245 2.16H1.912v137.25h176.333V2.16ZM1.912 32.66h176.333"/><path style="stroke: var(--color-text);" stroke-linecap="round" stroke-linejoin="round" stroke-width="2.667" d="M116.913 116.535H63.246l-34.5-30.5 34.5-30.5h53.667l34.5 30.5-34.5 30.5Z"/><path style="stroke: var(--color-text);" stroke-linecap="round" stroke-linejoin="round" stroke-width="2.667" d="M63.246 97.473V74.598l26.611-19.063 27.056 19.063v22.875l-27.056 19.062-26.61-19.062Z"/><path style="stroke: var(--color-text);" stroke-linecap="round" stroke-linejoin="round" stroke-width="2.667" d="m90.08 82.223-3.834 3.812 3.833 3.813"/><path style="stroke: var(--color-text);" stroke-linecap="round" stroke-linejoin="round" stroke-width="2.667" d="m90.078 82.223 3.834 3.812-3.834 3.813"/></svg>
