<svg width="48" height="49" fill="none" viewBox="0 0 48 49" xmlns="http://www.w3.org/2000/svg"><path d="M3.412 24c0 8.15 4.736 15.193 11.604 18.53L5.195 15.621a20.51 20.51 0 0 0-1.783 8.38ZM37.9 22.962c0-2.545-.913-4.307-1.697-5.679-1.044-1.696-2.022-3.132-2.022-4.828 0-1.893 1.436-3.654 3.457-3.654.092 0 .178.01.267.016a20.513 20.513 0 0 0-13.903-5.405c-7.193 0-13.522 3.69-17.203 9.28.483.015.938.025 1.325.025 2.153 0 5.487-.261 5.487-.261 1.11-.066 1.24 1.565.132 1.696 0 0-1.115.131-2.357.196l7.498 22.302 4.506-13.514-3.208-8.789a37.578 37.578 0 0 1-2.159-.196c-1.11-.065-.98-1.761.13-1.696 0 0 3.4.261 5.424.261 2.153 0 5.487-.261 5.487-.261 1.11-.065 1.24 1.565.132 1.696 0 0-1.118.131-2.357.196l7.44 22.133 2.054-6.863c.89-2.847 1.568-4.893 1.568-6.655Z" fill="currentColor"/><path d="m24.361 25.8-6.177 17.951a20.59 20.59 0 0 0 12.653-.328 1.809 1.809 0 0 1-.146-.284l-6.33-17.338ZM42.068 14.121c.088.656.138 1.36.138 2.117 0 2.09-.39 4.438-1.565 7.375l-6.29 18.183C40.474 38.226 44.59 31.596 44.59 24c0-3.58-.914-6.946-2.523-9.879Z" fill="currentColor"/><path d="M24 0C10.768 0 0 10.766 0 24c0 13.235 10.767 24.001 24 24.001 13.234 0 24.003-10.766 24.003-24.001C48.003 10.766 37.234 0 24 0Zm0 46.901C11.375 46.901 1.1 36.628 1.1 24 1.1 11.373 11.374 1.1 24 1.1c12.627 0 22.9 10.273 22.9 22.9 0 12.628-10.273 22.901-22.9 22.901Z" fill="currentColor"/></svg>
