<svg xmlns="http://www.w3.org/2000/svg" viewBox="0 0 842 396" width="842pt" height="528" viewBox="0 0 842 396"><path d="M0 0h842v396H0V0z" fill="#0f9a5f"/><path d="M109.01 90c5.25 0 10.5-.01 15.75.02-.02 29.98-.01 59.97 0 89.96-5.25.03-10.51.02-15.76.01 0-29.99-.01-59.99.01-89.99zM310.24 97.9c.02 6.36 0 12.73.01 19.09 5.84.02 11.68 0 17.52.02-.02 4.58-.01 9.16-.02 13.74-5.92.01-11.83-.01-17.74.01.01 8.75-.06 17.5.01 26.25.09 3.52.75 7.08 4.23 8.77 4.05 1.94 7.78.33 11.72-.95 1.55 4.49 3 9.01 4.45 13.53-5.8 2.44-12.19 3.3-18.43 2.54-4.35-.55-8.46-2.16-11.59-5.3-4.39-4.23-6.17-10.63-6.16-16.58 0-9.42.03-18.84 0-28.26-4-.01-7.99-.01-11.99-.01 0-4.58 0-9.16-.01-13.74 4-.01 8-.01 12-.01.02-5.79-.01-11.58.03-17.37 5.33-.54 10.64-1.22 15.97-1.73zM435.24 97.9c.03 6.36 0 12.73.01 19.09 9.66.02 19.33.01 28.99.01.02-5.79 0-11.57.01-17.36 5.33-.55 10.65-1.22 15.99-1.74.02 6.36.01 12.72 0 19.09 5.84.03 11.68-.01 17.52.03-.01 4.57-.01 9.15-.01 13.73-5.91.01-11.83-.01-17.75.01.02 8.75-.05 17.5.02 26.25.09 3.53.74 7.08 4.22 8.77 4.04 1.94 7.8.34 11.73-.95 1.55 4.48 3 9 4.45 13.52-5.48 2.33-11.51 3.19-17.44 2.67-4.71-.45-9.18-2.02-12.58-5.42-4.4-4.23-6.16-10.63-6.17-16.58.01-9.42.03-18.84.01-28.26-9.74-.02-19.49-.01-29.24 0 .02 8.75-.04 17.5.01 26.25.1 3.52.76 7.08 4.23 8.77 4.04 1.93 7.79.34 11.73-.95 1.55 4.49 3 9.01 4.46 13.53-6.08 2.54-12.95 3.43-19.46 2.39-4.21-.67-8.16-2.51-11.07-5.66-4.02-4.18-5.67-10.4-5.66-16.07 0-9.42.02-18.84 0-28.26-4-.01-8-.01-11.99-.01v-13.74c3.99-.01 7.99-.01 11.99-.01.02-5.79 0-11.58.02-17.37 5.33-.54 10.64-1.21 15.98-1.73zM378.99 114.52c7.59 1.29 14.61 5 18.96 11.5 5.53 7.95 6.4 18.61 5.52 27.98-16.63.02-33.26-.04-49.9.03 1.13 5.14 3.98 9.33 8.85 11.54 8.79 3.89 19.93 2.1 27.36-3.93 3.38 3.39 6.78 6.77 10.16 10.17-5.91 5.84-13.8 8.89-21.93 9.94-12.97 1.44-27.05-1.6-34.86-12.88-5.28-7.48-6.58-16.96-5.68-25.9 1.02-9.24 5.45-17.96 13.25-23.26 8.28-5.71 18.54-6.61 28.27-5.19zM238.48 115.65c11.57-2.1 23.7.14 32.23 8.64 12.72 12.46 12.45 35.76-.4 48.03-6.52 6.27-15.38 8.96-24.31 8.74-8.72.1-17.6-2.98-23.73-9.32-9.77-9.66-11.54-26.32-6.06-38.55 4.05-9.13 12.51-15.63 22.27-17.54zM536.99 115.15c6.59.78 12.68 4.06 16.51 9.55.08-2.57.21-5.13.34-7.69 5.05-.01 10.1-.01 15.15 0 .01 20.99.01 41.99 0 62.98-4.95.01-9.91.01-14.87.01-.23-2.91-.47-5.82-.62-8.73-3.56 6.01-9.82 9.21-16.51 10.41-11.25 1.59-23.48-1.79-30.51-11.14-6.23-8.27-7.23-18.53-6.19-28.54 1.07-8.02 4.7-15.53 11.21-20.5 7.3-5.6 16.48-7.21 25.49-6.35zM687.02 115.29c6.26 1.01 11.83 4.2 15.49 9.42.07-2.57.2-5.14.33-7.7 5.05-.01 10.1-.02 15.16 0 0 20.99 0 41.99-.01 62.99h-14.87c-.23-2.91-.47-5.82-.63-8.74-3.45 5.89-9.5 9.03-16.02 10.34-11.61 1.81-24.36-1.74-31.41-11.63-5.86-8.15-6.79-18.27-5.77-27.99 1.07-8.01 4.71-15.51 11.2-20.48 7.51-5.77 17.31-7.38 26.53-6.21zM572.55 116.01c5.85-.02 11.7-.01 17.55-.01 3.02 7.29 6.13 14.53 9.06 21.85 3.13 8.44 6.23 16.89 9.25 25.37 4.16-9.97 7.26-20.38 11.44-30.36 2.36-5.62 4.62-11.28 7.02-16.88 5.82.05 11.65-.01 17.47.04-9.07 21.34-18.02 42.75-27.22 64.04-5.75-.11-11.5-.06-17.25-.04-9.18-21.31-18.18-42.69-27.32-64.01zM138.24 117.01c5.25-.02 10.51-.01 15.76 0 0 10 .01 19.99-.02 29.99.05 3.48.17 7.24 1.51 10.51 3.68 9.82 16.76 11.78 24.37 5.34 4.38-3.74 6.15-9.2 6.13-14.84.04-10.33-.01-20.67.01-31 5.26-.01 10.51-.02 15.76.01-.01 20.98-.02 41.97 0 62.96-4.78.03-9.55.05-14.33-.04-.31-2.69-.64-5.37-.96-8.06-4.03 3.59-8.15 6.72-13.46 8.16-8.16 2.03-17.2 1.24-24.05-3.98-7.3-5.57-10.65-15.1-10.72-24.04.01-11.67.02-23.34 0-35.01z" class="hole" fill="#fff"/><path d="M382.1 130.86c3.74 2.34 5.18 6 6.11 10.12-11.44 0-22.88.09-34.32-.04 1.34-3.28 2.64-6.33 5.46-8.63 5.93-5.08 16.21-5.61 22.75-1.45zM243.46 129.6c6.22-1.1 12.69 1.37 16.46 6.46 5.59 7.3 5.26 18.15-.76 25.09-5.52 6.12-15.94 6.93-22.62 2.31-6.72-4.63-8.77-13.93-6.58-21.48 1.82-6.44 6.8-11.33 13.5-12.38zM528.46 130.53c6.22-1.76 13.56-.98 18.47 3.53 7.97 7.04 8.16 21.05.52 28.4-5.63 5.69-15.62 6.25-22.44 2.54-6.83-3.79-9.93-11.44-9-19.03.67-7.25 5.4-13.37 12.45-15.44zM677.46 130.53c6.22-1.76 13.56-.98 18.48 3.52 7.96 7.06 8.15 21.05.52 28.41-5.64 5.7-15.63 6.24-22.45 2.54-6.83-3.78-9.94-11.45-9.01-19.03.67-7.25 5.43-13.37 12.46-15.44z" fill="#0f9a5f"/><path d="M708.49 194.62c4.62-1.67 10.18-.13 12.33 4.5 1.32 3.57 1.05 8.13-1.75 10.95-3.74 3.53-10.29 3.46-13.88-.26-3.99-4.65-2.79-12.91 3.3-15.19zM109.01 195c5.25 0 10.5-.01 15.75.01.01 17.28-.06 34.56.03 51.84 7.18-8.19 14.09-16.63 21.21-24.87 6.55.07 13.11-.07 19.65.1-2.43 3.43-5.38 6.29-8.14 9.43-6.08 6.7-12.12 13.44-18.21 20.13 8.01 8.68 15.98 17.39 23.97 26.09 2.15 2.26 4.31 4.45 6.01 7.09-6.62.36-13.27.11-19.89.17-8.17-9.4-16.37-18.78-24.61-28.12-.05 9.37-.02 18.75-.02 28.12-5.25.02-10.5.01-15.76.01 0-30 0-60 .01-90zM299.46 221.51c4.64 1.86 7.68 5.42 9.91 9.78 1.99-2.69 3.98-5.21 6.77-7.13 4.41-3.05 9.57-4.07 14.86-3.96 7.24-.13 14.53 1.79 19.7 7.1 5.4 5.7 7.33 14.05 7.32 21.7-.04 12-.01 24-.02 36-5.26 0-10.51.01-15.76-.01.02-10.33-.01-20.66.02-30.99-.06-5.36-.17-11.14-3.85-15.43-4.12-4.6-11.86-4.38-16.51-.71-4.4 3.51-5.81 8.71-5.88 14.13-.07 11 .01 22.01-.02 33.01-5.26 0-10.51.01-15.76-.01 0-11 .04-22-.01-33-.11-5.15-1.05-10.57-5.05-14.19-4.48-4.03-11.74-3.8-16.08.33-3.85 3.71-5.03 8.68-5.09 13.86-.05 11 .01 22.01-.01 33.01-5.26 0-10.51.01-15.76-.02.02-21.32.01-42.64 0-63.97 4.9-.02 9.8-.01 14.7-.01.37 2.31.74 4.62 1.11 6.92 5.67-8.21 16.55-9.7 25.41-6.41zM438.58 232.42c6.35 8.64 7.61 19.45 5.67 29.79-1.55 7.33-5.31 14.12-11.35 18.68-5.71 4.35-12.77 6.3-19.9 6.16-7.89.03-15.7-2.05-21.03-8.22.07 11.06.01 22.11.03 33.17h-16v-90c4.97 0 9.94-.01 14.91 0 .32 2.53.63 5.06.92 7.59 3.26-3.65 6.82-6.69 11.58-8.2 12.45-4.04 27.43.28 35.17 11.03zM521.58 232.43c6.27 8.54 7.56 19.13 5.75 29.37-1.49 7.47-5.27 14.46-11.42 19.09-5.71 4.34-12.78 6.31-19.91 6.16-7.9.02-15.7-2.05-21.03-8.21.07 11.05.01 22.11.03 33.16h-16v-90h14.91c.32 2.53.63 5.07.91 7.61 3.26-3.67 6.83-6.7 11.59-8.21 12.43-4.04 27.44.27 35.17 11.03zM576.99 220.15c6.6.78 12.67 4.06 16.51 9.55.08-2.57.21-5.13.34-7.69 5.05-.01 10.11-.01 15.16 0 0 20.99.01 41.99-.01 62.98-4.95.02-9.91.01-14.86.01-.24-2.9-.48-5.8-.64-8.71-3.55 5.98-9.84 9.2-16.5 10.39-11.24 1.58-23.49-1.79-30.51-11.15-6.22-8.25-7.24-18.55-6.19-28.55 1.09-8.22 4.95-15.97 11.76-20.89 7.23-5.27 16.17-6.78 24.94-5.94zM679.05 226.94c6.01 5.88 8.74 14.81 8.72 23.06-.02 11.66-.02 23.33-.01 34.99-5.25.02-10.51.01-15.76.01-.04-11 .07-22.01-.04-33-.11-5.19-1.24-10.14-5.02-13.92-5.21-4.8-13.9-4.92-19.41-.54-4.72 3.67-6.67 9.63-6.76 15.45-.07 10.66.01 21.33-.01 32-5.25.02-10.5.01-15.75.01-.02-21.33-.01-42.67-.01-64 4.8.02 9.58-.09 14.38.13.26 2.62.57 5.24.89 7.86 2.18-1.81 4.23-3.62 6.65-5.11 9.69-6.26 23.86-5.11 32.13 3.06zM704.23 221.01c5.34-.01 10.67-.01 16.01-.01.02 21.33.02 42.67 0 64-5.34 0-10.67.01-16-.01.01-21.32.02-42.65-.01-63.98zM178.24 222.01c5.25-.02 10.5-.01 15.76-.01 0 10 .01 20-.01 30 .06 3.78.17 7.7 1.79 11.19 4 9.3 16.75 10.91 24.08 4.66 4.39-3.75 6.15-9.2 6.14-14.84.03-10.34-.02-20.67 0-31.01 5.25 0 10.5-.01 15.75.01 0 20.99 0 41.98.01 62.97-4.78.03-9.55.06-14.33-.04-.31-2.69-.64-5.37-.96-8.06-4.05 3.59-8.16 6.73-13.47 8.17-8.14 2.02-17.21 1.22-24.04-3.99-7.32-5.58-10.65-15.08-10.72-24.04.01-11.67.02-23.34 0-35.01z" class="hole" fill="#fff"/><path d="M408.45 235.55c5.44-.7 11.42.65 15.38 4.62 6.56 6.38 7.06 17.88 1.32 24.96-5.14 6.51-14.61 8.26-21.98 4.69-7.65-3.76-11.29-12.69-9.34-20.86 1.61-7.22 7.24-12.5 14.62-13.41zM491.46 235.55c5.44-.71 11.41.65 15.37 4.62 6.73 6.57 7.09 18.45.87 25.5-5.54 6.45-15.54 7.77-22.78 3.46-6.85-4.11-9.9-12.49-8.09-20.17 1.59-7.19 7.27-12.52 14.63-13.41zM568.46 235.54c6.21-1.78 13.57-.98 18.48 3.52 7.96 7.05 8.15 21.04.52 28.4-5.64 5.69-15.63 6.25-22.45 2.54-7.17-3.96-10.16-12.13-8.87-20 .96-6.88 5.64-12.48 12.32-14.46z" fill="#0f9a5f"/></svg>
