<svg xmlns="http://www.w3.org/2000/svg" viewBox="0 0 1243 843" width="150px" height="101.72px"><path d="M1097.58 81.92c12.28-1.78 24.81-.31 35.78 5.69 14.69 7.6 24.74 22.15 27.55 38.35 1.71 11.03 1.05 22.49-3.07 32.95-4.8 12.36-14.4 22.72-26.36 28.43-19.78 9.58-45.89 6.52-61.99-8.82-11.4-10.49-17.34-26.16-17.08-41.52-.28-13.18 4.2-26.72 12.78-36.8 8.22-9.79 19.85-16.08 32.39-18.28z" fill="#010101"/><path d="M554.72 83.72c59.5.01 119.02.04 178.52-.01 4.42 11.72 8.38 23.63 12.61 35.42 31.4 88.95 62.76 177.91 94.13 266.87.88 2.59 1.76 5.16 3 7.61.95-3.25 2.06-6.43 3.21-9.6 14.95-42.36 29.89-84.71 44.82-127.06 8.18-23.51 16.75-46.93 24.73-70.49 1.41-.33 2.8-.67 4.26-.69 37.67.02 75.33.01 113 .01 3.55.1 6.71-.5 10.05.83.63 2.57 1.46 5.07 2.39 7.54 38.44 108.78 76.67 217.71 115.22 326.45-3.55.23-7.1.19-10.66.17h-119.55c-3.73-15.07-7.95-30.06-11.4-45.19-26.42-.22-52.86-.08-79.28-.07-3.99 15.06-7.63 30.22-11.69 45.27-13.38.01-26.77-.07-40.15.04a43.4 43.4 0 001.81 6.32c3.09 8.41 5.91 16.91 9.01 25.32.61 1.66.97 3.38 1.31 5.11-61.22-.05-122.44-.05-183.66.01-5.11-19.52-10.05-39.08-15.08-58.62-.54-1.71-.69-3.92-1.65-5.41-5.54-.29-11.12-.01-16.67-.11-31.72.09-63.5-.18-95.21.14-5.34 21.35-10.86 42.67-16.35 63.99-61.36-.07-122.73.01-184.09-.04 2.47-7.63 5.67-15.09 7.73-22.83-15.85-.11-31.7-.03-47.54-.05-2.42-9.57-4.91-19.12-7.33-28.69-1.12-4.63-2.61-8.82-3.03-13.59l-.39 1.38c-.48-3.62-1.51-7.07-2.46-10.58-30.05-.09-60.11-.13-90.16.02-4.15 16.58-8.55 33.11-12.67 49.7-.12.67-.38 1.22-.75 1.65-2.57.23-5.18.09-7.75.11-46.7-.01-93.4.01-140.09-.01 2.13-7.25 4.99-14.29 7.38-21.47 41.65-118.05 83.26-236.11 124.9-354.16.7-1.75 1.06-3.94 2.16-5.45 47.67-.23 96.29-.02 144.07-.1 8.84 25.15 17.77 50.31 26.6 75.46 1.14 3.19 2.46 6.22 2.84 9.63.1-.44.21-.88.31-1.33.86 3.29 2.04 6.46 3.19 9.65 15.43 43.76 30.86 87.52 46.3 131.28 1.64 4.63 3.12 9.27 5.08 13.78 35.54-100.81 71.11-201.61 106.64-302.42.68-1.98 1.36-3.94 2.34-5.79z" fill="#d51218"/><path d="M1097.12 92.21c8.45-1.76 17.85-1.51 25.89 1.88 10.59 4.15 19.12 13.21 23.21 23.76 7.01 17.89 3.73 41.09-10.93 54.33-12.51 11.68-31.88 13.84-47.12 6.52-8.75-4.23-15.54-11.7-19.42-20.56-6.59-15.14-5.77-34.12 3.26-48.12 5.79-8.87 14.76-15.38 25.11-17.81z" class="hole" fill="#fff"/><path d="M1104 107.13c6.71.11 13.99-.49 20.09 2.71 4.18 2.07 6.91 6.09 7.61 10.67.74 5.35.48 11.62-3.38 15.81-3.25 3.63-7.5 4.72-12.12 5.52 5.5 9.06 11.45 17.85 16.9 26.93-3.84-.08-7.86.36-11.67-.2-5.49-8.59-10.42-17.59-16.02-26.11-3 .12-6.01.12-9.02.05-.17 8.77 0 17.53-.09 26.3-3.54.01-7.06.12-10.59-.26.16-20.37.14-40.77.01-61.14 6.06-.58 12.2-.13 18.28-.28z" fill="#010101"/><path d="M1096.34 115.83c5.84.14 11.87-.35 17.66.49 3.12.48 6.3 1.94 7.35 5.16.8 3.26.43 7.3-2.21 9.68-2.62 2.16-5.87 2.43-9.14 2.52-4.56.05-9.12-.02-13.68 0 .01-5.95-.01-11.9.02-17.85zm-452.46 121.6l.17-.06.28-.11c6.3 25.14 11.86 50.51 17.91 75.72 5.15 22.47 10.7 44.89 15.64 67.41-22.27-.11-44.55.12-66.81-.12.31-1.75.62-3.51 1.02-5.25 5.79-24.71 11.47-49.44 17.22-74.16 4.81-21.15 9.96-42.25 14.57-63.43zm-354.84 39.84l.11.09.83.67c8.98 37.8 17.64 75.8 26.7 113.58-17.86.41-35.77.07-53.64.18.45-3.51 1.28-6.91 2.15-10.33 7.34-31.8 14.71-63.59 22.08-95.38.72-2.91 1.3-5.84 1.77-8.81zm690.44 17.35l.02.05.07.2.07.25c1.91 6.22 3.03 12.69 4.65 19 1.45 6.87 3.58 13.67 4.48 20.63.15-.46.3-.91.44-1.37.16 1.55.34 3.1.66 4.62 3.79 15.99 7.49 32.01 11.27 48 .82 3.13 1.46 6.27 1.79 9.5-15.6-.02-31.2.01-46.8-.02 1.4-7.09 3.25-14.08 4.78-21.15 6.22-26.5 12.18-53.13 18.54-79.59l.03-.12z" class="hole" fill="#fff"/><path d="M313.39 597.56c3.51.07 7.03.07 10.55.07.19 12.68-.43 25.47.34 38.12 4.54-6.63 10.52-12.3 15.69-18.46 4.34.03 8.67 0 13.01.03-5.78 6.61-11.68 13.1-17.51 19.65 6.54 9.09 12.9 18.3 19.41 27.4-4.24.06-8.48.12-12.73-.05-4.29-6.64-9.04-12.97-13.35-19.6-1.84 1.22-3.38 2.75-4.88 4.36 0 5.12.05 10.24-.04 15.36-3.52-.03-7.05-.02-10.58-.02.03-22.28-.13-44.58.09-66.86zm198.37.1c3.61-.05 7.21-.04 10.81-.05.06 22.27.05 44.55.01 66.82-3.61-.01-7.21-.01-10.82-.05 0-22.24.01-44.48 0-66.72zm243.92-.03c3.59-.02 7.18-.01 10.77 0 .01 22.26-.01 44.52.01 66.77-3.6.02-7.19.02-10.78 0 0-22.26-.01-44.52 0-66.77zm128.1-.01c3.56.01 7.13.01 10.7-.01.06 12.56-.08 25.12.07 37.67 5.39-5.88 10.57-11.99 15.91-17.93 4.32-.07 8.64-.07 12.96-.01-5.54 6.69-11.73 12.89-17.15 19.65 5.9 9.35 13.12 17.95 18.79 27.43-4.06.01-8.12-.01-12.19 0-4.6-6.66-9.17-13.34-13.83-19.97-1.41 1.58-3.49 3.1-4.47 4.96-.25 4.98.01 10.01-.09 15-3.57.01-7.14.01-10.71 0 0-22.27-.02-44.53.01-66.79zm-470.37 2.83c1.71-1.1 4.32-.92 6.2-.35 4.49 1.61 4.5 8.86.09 10.54-2.02.53-4.97.73-6.71-.63-3.16-2.16-2.91-7.66.42-9.56zm522.67-.54c2.49-.49 5.56-.39 7.14 1.91 2.27 2.82 1.17 7.66-2.33 8.86-2.62.66-6.08.66-7.76-1.85-1.79-3.08-1.04-7.99 2.95-8.92zm-766.04 1.22c3.75 0 7.5.01 11.25 0 .01 9.7-.05 19.41.02 29.11 6.88-8.06 13.56-16.3 20.43-24.37 1.36-1.48 2.56-3.64 4.29-4.65 4.38-.25 8.81-.06 13.2 0-7.73 9.35-15.61 18.58-23.38 27.9 8.14 11.84 16.52 23.54 24.86 35.26-4.54.04-9.04.12-13.58-.07-6.13-9.1-12.52-18.04-18.82-27.03-1.73 1.95-3.54 3.82-5.36 5.69-.82.95-1.74 1.6-1.65 3-.08 6.14.02 12.29-.01 18.44-3.75.01-7.5.01-11.25 0 0-21.09-.01-42.19 0-63.28zm472.54 4.93c3.6-.01 7.19-.01 10.79.04-.02 3.74-.02 7.48 0 11.22 2.73-.01 5.45-.01 8.18-.02.01 2.59.01 5.17 0 7.75-2.74-.01-5.47-.01-8.21.02.07 8.95-.06 17.93.06 26.88-.04 1.38.62 2.35 1.51 3.34 2.08.89 4.79.4 7 .28.02 2.93 0 5.86-.12 8.79-4.4.73-9.47 1.53-13.65-.5-4.09-2.22-5.43-6.45-5.55-10.85-.04-9.31-.02-18.62.01-27.93-2.63-.02-5.25-.06-7.87-.16.01-2.52.02-5.03.01-7.54 2.61-.06 5.22-.08 7.83-.08 0-3.74.01-7.49.01-11.24zm31.68.01c3.54-.02 7.07-.01 10.61-.01-.02 3.78-.15 7.53.23 11.3 2.72-.06 5.44-.06 8.17-.01-.01 2.53 0 5.05.02 7.57-2.82.1-5.64.14-8.45.19.21 9.22-.36 18.62.28 27.8.74 4.12 5.51 2.66 8.42 2.69-.02 2.9-.02 5.79-.03 8.69-4.27.82-9.38 1.57-13.46-.31-3.81-1.76-5.68-5.93-5.73-9.97-.12-9.63-.02-19.27-.04-28.9-2.61-.04-5.23-.08-7.85-.15.04-2.55.04-5.1.04-7.65 2.6 0 5.2-.01 7.8-.02 0-3.74 0-7.48-.01-11.22zm285.22-.02c3.6 0 7.21-.01 10.81.07-.02 3.73-.01 7.46 0 11.19 2.72-.01 5.45 0 8.17.01-.01 2.57-.01 5.14-.01 7.71l-8.18.03c.04 8.66-.02 17.31.01 25.96-.01 1.69.21 3.06 1.53 4.24 2.04.95 4.84.39 7.02.33-.02 2.91-.03 5.81-.07 8.72-4.47.85-10.18 1.66-14.28-.79-3.74-2.31-4.85-6.32-4.99-10.49-.05-9.32.01-18.65-.02-27.97-2.59-.01-5.18-.03-7.77-.09 0-2.54-.01-5.08-.01-7.62 2.59-.03 5.18-.04 7.77-.04.02-3.76.02-7.51.02-11.26zm-716.89 10.83c2.77-.44 5.65-.37 8.44-.18 6.81.84 12.83 5.26 15.79 11.44 2.24 4.47 2.76 9.93 2.56 14.87-.34 6.15-2.3 12.2-6.83 16.54-4.17 4.05-9.81 5.78-15.55 5.61-5.45-.02-10.73-1.59-14.61-5.56-3.83-3.59-5.94-8.45-6.71-13.58-.5-5.46-.57-10.72 1.51-15.89 2.53-6.86 8.21-11.8 15.4-13.25zm61.15-.31c.89 3.54.42 7.14.5 10.91-3.79-.11-7.29-.73-10.72 1.28-1.78 1.23-3.5 2.86-3.31 5.22-.04 10.14.01 20.29-.02 30.44-3.6-.01-7.21-.01-10.81.03-.13-15.71-.03-31.42-.05-47.13 3.41-.02 6.82-.01 10.23-.01.09 1.39.19 2.77.29 4.15 1.8-1.35 3.57-3.01 5.6-3.99 2.48-1.24 5.53-.8 8.29-.9zm413.85.3c2.43-.4 4.97-.33 7.42-.24 6.97.43 13.27 4.73 16.49 10.88 2.38 4.4 2.97 9.56 2.92 14.49-.18 6.41-2.11 13.02-6.88 17.55-4.16 4.05-9.81 5.77-15.54 5.6-5.45-.02-10.73-1.57-14.61-5.55-3.84-3.59-5.94-8.45-6.71-13.58-.51-5.47-.57-10.75 1.52-15.93 2.52-6.82 8.24-11.78 15.39-13.22zm339.41-.31c5.13-.22 10.18.96 14.26 4.18 3.35 2.62 5.04 6.56 5.25 10.75-3.56.05-7.11.05-10.67.03-.82-2.41-1.16-4.59-3.62-5.88-3.61-2.05-9.97-1.65-12.17 2.38-1.28 2.48-.04 5.4 2.52 6.41 6.54 2.86 13.63 2.48 19.82 7.23 5.73 4.24 5.57 13.6.57 18.34-5.13 4.82-12.16 5.55-18.88 4.98-5.74-.51-11.64-3.34-14.64-8.42-1.37-2.21-1.65-4.52-2.19-7.02 3.58-.09 7.15-.1 10.72.04.41 2.28.85 4.25 2.81 5.71 3.78 2.67 9.82 2.87 13.58.09 2.82-2.59 2.11-6.8-1.34-8.41-6.59-3.06-14.21-2.43-20.22-7.81-4.9-4.05-4.87-12.44-.45-16.81 3.65-4.06 9.27-5.98 14.65-5.79zm-681.9.77c7.42-1.86 16.03-.79 21.21 5.38 5.1 6.11 5.26 13.75 5.07 21.32-10.29.01-20.58-.03-30.87.03.72 4.45 2.48 8.38 6.68 10.5 6.26 2.84 13.04.96 17.85-3.68 1.93 1.81 3.84 3.64 5.74 5.48-6.12 8.86-17.63 10.5-27.33 7.38-5.89-2.21-10.37-6.86-12.37-12.82-1.68-5.45-1.74-11.46-.58-17.02 1.58-7.68 6.94-14.34 14.6-16.57zm36.37.06c3.59-.24 7.22-.1 10.81.08-.12 15.63-.03 31.28-.05 46.92-3.6.04-7.2.03-10.8.04-.01-15.66-.11-31.39.04-47.04zm43.53-.46c4.94-.79 10.38-.66 14.42 2.67 3.71 3.28 4.95 8.63 4.89 13.4-.03 10.47-.01 20.94-.01 31.42-3.57 0-7.15 0-10.72-.01-.02-10.14.02-20.3-.01-30.44-.06-2.41-.56-5.4-2.79-6.77-4.79-2.87-11.95-1.2-14.51 3.93-.31 11.04-.04 22.18-.12 33.24-3.59.05-7.18.05-10.76.08-.11-15.73-.13-31.47.01-47.2 3.35.06 6.7.06 10.05.1.03 1.57.08 3.14.12 4.71 3-2.18 5.67-4.4 9.43-5.13zm91.38.47c-.08 9.87-.05 19.74-.03 29.61.07 3.42.73 6.83 4.18 8.35 4.74 1.39 11.8-.02 13.53-5.31.3-10.88.02-21.85.12-32.75 3.53.01 7.06.01 10.59.01.03 15.68-.04 31.36.04 47.04-3.38.09-6.77.09-10.15.07l-.27-4.27c-2.51 2.16-5 4.05-8.37 4.58-5.02.86-11.76.75-15.6-3.14-3.75-3.43-4.85-8.71-4.86-13.59-.01-10.2.06-20.41-.03-30.61 3.61-.12 7.23-.13 10.85.01zm53.13.28c7.71-2.41 17.22-1.27 23.03 4.77 5.43 5.34 7.01 13.21 6.67 20.56-.5 7.04-3.06 14.13-9.03 18.32-5.77 4.22-13.51 4.6-20.25 2.91-7.7-2.32-13.14-9.53-14.31-17.35-.75-5.82-.73-12.31 1.73-17.75 2.27-5.36 6.59-9.64 12.16-11.46zm179.98-.28c3.58-.25 7.21-.09 10.8.04-.1 9.53-.02 19.05-.05 28.57.08 2.82-.06 5.56 1.93 7.83 2.27 2.6 6.68 2.19 9.7 1.51 2.64-.71 6.33-3.22 5.96-6.33.08-10.57-.12-21.16.1-31.73 3.56.02 7.12.02 10.68.03-.04 15.7.03 31.41-.04 47.11-3.35-.01-6.7-.02-10.06-.01-.12-1.42-.24-2.84-.38-4.26-2.38 2.17-4.84 3.96-8.11 4.52-5.36.98-12.21.79-16.2-3.49-3.78-3.76-4.41-9.11-4.42-14.19.09-9.86-.1-19.75.09-29.6zm89.29 7.95c3.39 4.77 3.94 10.01 4.34 15.67-.34 7.12-1.9 13.76-7.25 18.82-8.62 7.93-25.12 7.19-32.09-2.66-3.59-4.64-4.72-10.44-4.93-16.18.06-7.39 2.36-15.07 8.25-19.91 9.12-7.35 25.12-5.92 31.68 4.26zm74.76-7.99c-.08 15.68-.01 31.37-.04 47.05-3.6.02-7.19.02-10.79-.02-.03-15.66.05-31.31-.04-46.97 3.62-.16 7.24-.15 10.87-.06zm44.62-.06c3.53.01 7.06 0 10.58.02 0 9.56 0 19.12-.01 28.68.11 3.6.48 7.27 3.9 9.25 3.58 1.11 8.02.75 11.15-1.45 1.58-1.19 2.95-2.65 2.79-4.77-.01-10.55.03-21.11-.04-31.65 3.61-.1 7.21-.14 10.82.04-.13 15.66-.03 31.32-.05 46.98-3.33.02-6.66.02-9.99.02-.09-1.23-.19-2.46-.3-3.69-3.02 1.62-5.54 3.64-9.01 4.09-4.68.73-10.44.51-14.34-2.53-4.04-3.31-5.41-8.23-5.48-13.29-.06-10.56-.02-21.13-.02-31.7z" fill="#010101"/><path d="M243.45 626.53c4.43-1.65 9.73-.37 12.44 3.63 3.11 4.42 3.01 9.57 2.52 14.74-.67 4.33-2.65 8.65-6.98 10.33-4.15 1.28-8.99.72-11.91-2.76-3.41-4.06-3.79-10.45-3.07-15.47.53-4.34 2.71-8.81 7-10.47zm145.71 3.35c1.25 1.89 1.36 4.24 1.71 6.41-6.72-.02-13.44.05-20.16-.03.67-2.46 1.16-4.75 2.77-6.79 3.6-4.97 12.46-4.94 15.68.41zm215-3.64c4.01-1.18 8.69.14 11.2 3.56 3.15 4.17 3.38 9.21 2.92 14.23-.56 4.43-2.19 8.69-6.36 10.88-4.63 1.96-10.5.99-13.37-3.44-3.08-4.55-3.03-11.28-1.95-16.49.77-3.93 3.55-7.74 7.56-8.74zm114.29.29c4.4-1.68 9.75-.35 12.43 3.63 3.12 4.43 3.02 9.55 2.53 14.74-.67 4.34-2.63 8.6-6.96 10.32-4.15 1.28-8.98.74-11.92-2.73-3.45-4.13-3.79-10.4-3.09-15.49.51-4.33 2.74-8.83 7.01-10.47zm128.07.2c3.37-1.36 6.98-1.27 10.09.68 4.27 2.94 5.48 7.68 5.66 12.61-.02 3.96-.53 8.89-3.13 12.06-3.92 5.3-13.14 5.03-16.72-.56-2.95-4.3-3.21-10.57-2.22-15.54.7-3.87 2.61-7.54 6.32-9.25z" class="hole" fill="#fff"/><path d="M400.14 705.28c7.25-2.78 15.4 1.56 17.91 8.72 3.4 7.98-.93 18.44-9.47 20.92-7.54 2.34-15.32-2.76-17.45-10.07-2.44-7.77 1.19-16.68 9.01-19.57z" fill="#010101"/><path d="M402.93 706.7c4.66-.82 9.38 1.66 11.77 5.64 4.2 6.78 1.97 17.11-5.81 20.2-6.66 2.8-13.73-1.79-15.54-8.39-2.18-7.4 1.64-15.89 9.58-17.45z" fill="#fff" class="hole"/><path d="M630.18 706.67c2.15-.06 4.29-.09 6.44-.14.21 18.06.03 36.14.09 54.21h-6.01c-.1-1.19-.2-2.38-.31-3.57-5.15 5.48-14.8 6.08-20.1.54-5-4.85-5.93-12.08-5.51-18.72.39-5.64 2.5-11.55 7.35-14.85 5.63-3.6 13.04-2.53 18.08 1.69-.01-6.38.02-12.77-.03-19.16zm86.82 1.99c4.76-.26 9.43 1.02 12.83 4.49 3.3 3.67 4.12 9.07 2.54 13.7-1.79 5.5-5.97 10.48-9.87 14.66-4.18 4.41-8.17 9-12.37 13.4 8.44.44 16.93.09 25.39.2-.15 1.57.39 4.29-.34 5.56-11.06.18-22.16.01-33.22.08.15-1.82-.51-4.58.77-6.02 6.52-7.45 13.42-14.61 19.76-22.22 3.27-4 5.47-9 2.75-13.96-2.73-4.89-9.7-5.14-13.99-2.35-2.86 1.96-3.47 5.13-3.85 8.35a386.6 386.6 0 01-6.81-.1c.55-3.24.89-6.23 2.78-9.04 3.02-4.53 8.26-6.83 13.63-6.75zm-272 .75c3.68-.03 7.53.84 10.56 3 4.06 2.9 5.47 8.96 4.3 13.61-.92 3.6-3.44 5.82-6.63 7.48 3.35 1.79 6.25 3.85 7.59 7.57 1.78 5.28.65 12.24-3.8 15.92-3.4 2.9-7.66 3.78-12.02 3.76-6.14-.05-12.28.09-18.42-.11.11-17.06.04-34.12.04-51.18 6.13-.08 12.26-.05 18.38-.05zm30.03-.75c3.28-.01 3.57 3.07 3.63 5.66-1.76 2.08-4.05 3-6.52 1.55-2.87-2.32-1.24-7.96 2.89-7.21zm286.59.23c4.53.76 8.06 3.42 9.94 7.61 2.91 6.15 2.16 11.94 2.26 18.5-.07 7.12.64 13.42-2.97 19.9-2.62 4.62-7.64 6.85-12.85 6.59-4.46.22-8.88-1.23-11.74-4.78-3.46-4.22-4.3-10.43-4.52-15.7-.18-5.65-.23-11.38.42-17 .61-4.65 2.27-9.87 6.23-12.73 3.78-2.77 8.75-2.92 13.23-2.39zm41.47.15c4.63.97 8.82 4.14 10.21 8.79 1.22 4.91.31 9.83-2.45 14.05-5.32 8.51-13.42 15.35-19.85 23.1 8.44.3 16.9.03 25.35.16.02 1.83.05 3.65.08 5.48-11.2.28-22.42.02-33.63.14-.03-1.7-.06-3.39-.1-5.09 5.36-5.98 10.7-11.97 16.11-17.91 3.01-3.55 6.68-7.05 8.05-11.59 1.48-4.6-.92-10.24-5.81-11.45-3.34-.63-7.52-.2-10.02 2.32-2.15 2.11-2.4 4.68-2.85 7.49-2.22 0-4.44 0-6.65-.02.32-4.58 1.5-8.8 5.07-11.9 4.65-4.06 10.63-4.5 16.49-3.57zm41.19.17c.08 17.14-.08 34.28.08 51.41-2.3.13-4.58.13-6.88.01.17-14.38.09-28.78.04-43.16-4.39 1.62-8.72 3.29-13.2 4.66.05-2.02.13-4.05.3-6.07 6.7-1.83 12.92-5.24 19.66-6.85zM409.5 712.5c1.31 1.09 1.44 3.21 1.94 4.77l-2.71-.3c-.79-1.02-1.34-2.85-2.66-3.22-1.05-.09-2.11-.16-3.17-.19-1.16 1.44-2.44 2.38-2.42 4.42-.14 3.26-.56 7.49 3.5 8.32 3.01.35 3.64-1.17 4.66-3.57l2.77.09c-.31 1.25-.68 2.47-1.11 3.67-2.82 4.08-10.49 3.35-12.09-1.58-1.02-2.59-1.02-7.22-.03-9.83 1.6-4.53 7.88-5.6 11.32-2.58z" fill="#010101"/><path d="M433.54 715.04c4.99.16 10.65-.54 15.45.96 5.91 2.09 5.55 11.68-.03 14.03-4.59 1.88-10.52.97-15.42 1.17.01-5.39 0-10.77 0-16.16zm331.79 3.48c2.35 4.54 2.09 10.49 2.15 15.48-.05 5.55.36 12.4-2.15 17.49-2.84 5.44-11.28 5.69-14.46.47-2.9-4.75-2.5-11.59-2.55-16.96.05-5.23-.33-11.79 2.21-16.53 2.79-5.48 11.98-5.37 14.8.05z" fill="#fff" class="hole"/><path d="M505 722.18c6.22.69 11.71 5.27 11.69 11.87-2.21-.02-4.43-.05-6.64-.13-.88-6.46-9.95-8-14.17-4.02-1.92 1.82-1.67 5.03.66 6.35 5.39 2.65 12.48 2.39 17.45 6.78 3.28 2.66 3.36 7.4 2.25 11.13-2.29 5.39-8.76 7.64-14.24 7.33-5.7.23-12.08-2.49-14.42-7.98-.42-1.25-1.25-3.17-.73-4.42 1.99-.42 4.14-.25 6.17-.25.64 1.62 1.01 3.57 2.43 4.68 2.72 2.43 6.68 2.45 10.07 1.84 2.92-.72 5.63-3.07 4.54-6.36-.79-2.59-3.32-3.37-5.63-4.13-4.55-1.2-10.43-1.95-13.92-5.38-3.84-3.63-3.2-10.01.48-13.51 3.86-3.67 8.89-4.36 14.01-3.8zm34.99.11c3.83-.56 8.45-.46 11.52 2.23 3 2.63 3.77 6.66 3.92 10.47.12 8.54-.11 17.09.11 25.63-2.24.1-4.48.14-6.73.16-.12-8.6.06-17.21-.07-25.81-.07-2.71-1.04-5.29-3.64-6.48-4.71-2.23-11.49.6-12.84 5.67-.33 8.84.09 17.74-.2 26.59-2.21-.01-4.42-.01-6.64-.02.09-12.66-.11-25.34.11-38 2.07.03 4.14.03 6.21.04.07 1.37.15 2.74.22 4.11 2.51-2.06 4.71-4.01 8.03-4.59zm35.48.3c5.78-1.28 11.88-.61 16.35 3.57 5.05 4.67 6.29 11.2 5.91 17.82-.33 5.58-2.62 11.14-7.24 14.51-4.33 3.14-9.57 3.56-14.69 2.55-7.22-1.82-12.13-8.78-12.47-16.06-.17-4.52-.39-8.86 1.67-13.01 1.93-4.59 5.64-8.04 10.47-9.38zm93.69 1.18c4.86 2.75 7.06 7.86 7.58 13.23.09 1.93.97 5 .11 6.7-8.51.42-17.09.04-25.61.17.41 3.97 1.54 7.6 4.96 9.96 5.18 3.45 12.24 2.03 16.08-2.79 1.52.93 2.99 1.95 4.43 3.01-3.51 4.99-8.52 7.79-14.71 7.44-7.71.42-14.69-4.91-16.56-12.35-1.79-7.51-.91-17.13 5-22.72 4.87-4.85 12.69-5.72 18.72-2.65zm-197.85-.88l.52-.02c1.99-.08 3.99-.11 5.99-.11-.01 12.66 0 25.32-.01 37.98-2.15 0-4.3 0-6.45-.01-.04-12.61.07-25.23-.05-37.84z" fill="#010101"/><path d="M578.62 727.88c3.93-.71 7.95 1.05 10.05 4.46 3.18 4.95 3.13 11.87.94 17.2-1.6 3.84-5.39 6.48-9.63 6.13-4.53.02-8-3.45-9.3-7.58-1.29-4.42-1.13-9.64.53-13.94 1.35-3.3 3.9-5.54 7.41-6.27zm51.42 5.12c.36 2.96.12 6.02.17 9-.03 2.68.15 5.4-.11 8.06-2.13 6.01-10.89 7.55-15.22 3.06-2.99-2.97-3.66-8.11-3.52-12.12.22-4.16 1.07-9.17 4.8-11.69 4.57-3.15 11.57-1.41 13.88 3.69zm37.08-3.13c2.41 2.24 3.02 5.23 3.32 8.37-6.34-.02-12.68.03-19.03-.03.71-2.79 1.32-5.4 3.37-7.56 3.11-3.51 8.85-3.97 12.34-.78zm-233.57 6.98c5.06.09 10.55-.42 15.5.7 7.26 1.71 7.45 13.6.9 16.39-4.96 1.78-11.18 1-16.41 1.16-.01-6.08.01-12.16.01-18.25z" class="hole" fill="#fff"/></svg>
