<svg aria-hidden="true" class="c-koodiasuomesta" xmlns="http://www.w3.org/2000/svg" width="64" height="64" viewBox="0 0 4447.000000 4492.000000"><path d="M2367.5 2.2c-.2.7-4.5 38.9-9.5 84.8-8.7 78.3-9.2 84.4-8.7 98.5.6 18.1 3.4 30.1 10.1 44 17.5 35.9 53.3 56 107.7 60.5 40.7 3.4 75.5-7.7 97.5-31.1 13.4-14.3 23.5-35.8 27.4-58.2.9-4.8 19.8-172.4 19.6-172.8-.3-.3-58.2-6.6-58.5-6.3-.2.2-4.5 37.8-9.6 83.6s-9.9 85.5-10.5 88.3c-2 8.3-9.4 22.6-14.5 27.8-13.3 13.7-31.1 19.4-52.8 16.9-18.9-2.2-31.1-7.5-41.7-18.2-10.7-10.7-16-24.1-16-41.1 0-4.7 4-45.1 9-89.9 4.9-44.8 8.9-81.5 8.7-81.6-.3-.3-54.1-6.4-56.3-6.4-.8 0-1.6.6-1.9 1.2zm-313.7.8c-24.3 2.3-45.4 9.9-61.7 22-9.1 6.8-14.6 12.7-20.5 21.7-8.5 13.3-12 25.8-11.8 42.3.3 29.3 14 50.9 40.7 63.9 14.8 7.2 26.3 10.2 64 16.7 30.2 5.2 38.8 7.3 46.9 11.7 8.6 4.6 11.9 9.2 12.4 17.1.5 8.1-.9 12.2-5.9 18-5.1 5.7-10.7 9.1-20.7 12.3-10.5 3.4-32.3 4.3-46.4 1.9-18.5-3.1-37.1-11.2-52.2-22.5-7.1-5.4-8.1-5.8-9.1-4.3-.6.9-6.9 11.3-14 23.1l-12.9 21.4 2.9 2.4c10.9 9 28.9 18.9 42.7 23.7 19.8 6.8 36.9 9.1 62.6 8.3 22-.6 33.1-2.4 49.8-7.9 32.1-10.5 52.6-30.8 60-59.3 2.7-10.4 2.5-32.3-.4-42.8-6.9-25.3-24.9-42.1-55.6-52.2-12.5-4.1-23.2-6.4-50.6-11-34.6-5.8-44.6-9-51.3-16.4-8.9-9.9-3.7-26.5 10.4-33.7 8.6-4.3 16.2-5.7 30.9-5.7 24.7 0 46 6.2 65.1 18.9 3.9 2.5 7.1 4.5 7.3 4.3.7-1.2 27.4-42.6 27.9-43.5.9-1.6-16.9-13-28.1-18-18.4-8.2-36.7-12.1-59.7-12.8-7.7-.3-17.9-.1-22.7.4zm823.3 100.6c-29.1 4.9-58.3 21.6-77.5 44.4-25.3 30-38.8 71.6-35.5 109.5 2.8 33 15.6 60.4 38.8 83.5 20.8 20.6 48.6 34.8 80.3 41.2 15.8 3.1 40.7 3.1 55.5-.1 55-11.7 94.8-53.5 107.3-112.6 2.9-13.9 3.7-35.9 1.7-49-4.6-29.5-16.8-53.7-37.7-74.5-21.7-21.8-50.9-36.6-82.8-42.1-13.6-2.3-37.3-2.4-50.1-.3zm53.3 53.8c29.2 8.7 49.9 29.2 57 56.6 2.6 9.7 3.2 27.6 1.3 38.5-9.8 56-55 89.6-103.8 77.1-17.6-4.5-30.2-11.7-41.7-24.1-23.5-25.1-27.2-64.7-9.6-101.4 5.9-12.4 11.5-20.1 21.2-29.3 10.7-10 23.7-16.7 38.3-19.8 8.3-1.7 27.5-.5 37.3 2.4zM1407.2 153c-18.4 7.1-33.5 13-33.7 13.2-.2.1-.7 65.9-1.1 146l-.7 145.7 11.9-4.6c6.5-2.5 20.5-7.8 30.9-11.8l19-7.2-.3-24.6-.2-24.5 11.7-4.6c6.5-2.5 31.1-11.9 54.6-21l42.8-16.4 15.5 17.9c8.5 9.8 15.8 18 16.3 18.3.5.3 14.7-4.7 31.5-11.1l30.6-11.7-2.8-3c-1.6-1.7-44.7-49.5-95.7-106.1-51-56.7-93.7-104-94.9-105.2l-2.1-2.1-33.3 12.8zM1508 300.9c0 .9-76.9 30.5-77.6 29.9-.5-.5-2.4-84.9-2.4-107.6v-15.3l40 46.1c22 25.4 40 46.5 40 46.9zm1763.6-56.6c-.8 1.2-31 52.6-67.1 114.2-36.1 61.6-66.5 113.4-67.6 115l-1.8 3.1 24.7 14.6c18.3 10.8 25 14.3 25.8 13.4.6-.6 22.2-37 47.9-80.9 25.7-43.9 46.9-79.6 47.2-79.4.3.3-27.2 187.4-29.1 197.8-.5 2.4.3 3.1 10 8.8 5.8 3.5 11.2 6 12 5.7.7-.3 35.7-27 77.6-59.4 42-32.3 78-60.1 80.1-61.7l3.8-2.8-3.4 5.9c-89.6 152.3-92.7 157.8-91 158.8 1 .5 12.4 7.2 25.3 14.7 12.9 7.6 23.5 13.7 23.6 13.6 2.3-3.5 136.4-232.6 136.6-233.5.2-.6-15-10.2-34.6-21.7l-34.8-20.5-29.2 22.5c-16 12.4-47.3 36.6-69.6 53.8-22.3 17.2-40.6 31-40.8 30.7-.3-.7 24.1-165.2 25.4-171.1.5-2.5-1-3.5-34.6-23.2-34.5-20.2-35.1-20.5-36.4-18.4zm-2179.4 57.6c-13.3 7.6-24.5 14-24.8 14.3-.3.4 132.7 235.3 134 236.4.4.5 49.6-28.3 49.6-29 0-1.1-133.3-235.5-134-235.6-.3 0-11.4 6.2-24.8 13.9zM863 473.5c-23.2 4-45.8 13.5-65.5 27.8-3.8 2.7-26.2 20.3-49.7 39l-42.8 34 3.3 4.3c12.3 16.4 165.4 208.2 166 208.1.4-.1 20.7-16 45-35.2 58.5-46.3 69.5-57.4 83.2-83.7 10.9-21 14.9-37.2 14.8-59.8 0-21.7-4.3-38.7-14.9-59-17.8-34.3-50.1-62.2-82.9-71.9-17.2-5-39.8-6.5-56.5-3.6zm35.6 57.2c11.9 4.3 21.7 10.5 31.7 20.2 36.5 35.2 39.5 84.3 7.3 118.9-3.4 3.6-15.9 14.4-27.9 24-18.1 14.4-22.1 17.2-23.1 16.1-.7-.8-23.9-30-51.6-64.9-27.7-34.9-50.9-64.2-51.7-65.1-1.2-1.4 1.1-3.5 19.4-18.1 29.7-23.6 37.9-28.5 54.8-32.9 5.5-1.5 9.8-1.8 20-1.5 11.4.3 14 .7 21.1 3.3zm2759.9 39.5c-22.5 25.4-63.2 71-90.2 101.4l-49.3 55.3 68.3 60.7c37.5 33.4 69.8 62.2 71.8 64.1l3.6 3.4 16.7-18.8c9.1-10.3 16.5-19.1 16.3-19.7-.2-.5-22.3-20.5-49.2-44.5-26.9-24-49-44.1-49.2-44.6-.3-.9 38-44.7 39.7-45.3.4-.1 22 18.7 48.1 41.9s48.1 42.8 49 43.5c1.3 1.2 3.6-.9 18-17.2 9-10.2 16.4-18.9 16.4-19.4s-21.6-20.1-48-43.7c-26.5-23.5-48.3-43.1-48.5-43.6-.5-.8 35.9-42.5 37.2-42.6.5-.1 87 76.4 97.9 86.6l2.6 2.4 16.7-18.8c9.1-10.3 16.6-19 16.6-19.4 0-.7-141.7-127.2-142.9-127.6-.3-.1-19 20.6-41.6 45.9zM549 770.4c-34.7 6.3-64.2 23.7-87.4 51.5C428.2 862 417.7 911.6 433 957c7.4 22.1 22.9 44.8 41.7 61.3 20.3 17.7 43 29.4 68.3 34.9 12.6 2.8 38.5 3 50.5.4 39.8-8.8 72.1-31.5 95.5-67.1 23.6-36.2 29.7-80.4 16.5-119.1-15.8-46-58.9-84.2-107.5-95.5-11.2-2.6-38.2-3.4-49-1.5zm31 57.2c18.9 4.2 36.1 14.4 51.1 30.1 12.7 13.4 20.3 26.9 24 43 1.8 7.8 2.1 11.3 1.6 20.6-1 20.6-8.2 37-23.6 53.1-28 29.2-69.3 32.8-105.7 9.1-4.9-3.2-12.6-9.4-17.1-13.8-36.8-35.9-39-83.6-5.4-119.1 19.9-20.9 47.1-29.3 75.1-23zm1802.3-52.1c-17.7 4.9-29.7 15.6-38.4 34.1-6.8 14.4-8.4 23-8.3 44.9 0 17.3.3 19.9 2.6 28.7 8.9 32.6 29.7 50.9 58.3 51 29.9.2 49.9-17.5 59.7-53 1.9-6.7 2.2-10.3 2.2-27.2-.1-20.9-1-26.9-6.8-41-7.1-17.6-19.7-30.6-35.1-36.1-7.9-2.8-26.5-3.6-34.2-1.4zm26.9 25.2c9.7 4.4 17.2 16.1 20.4 32.2 2.1 10.8 1.5 38.4-1.1 47.6-5.6 19.9-16.1 29.6-31.9 29.5-22-.2-33.7-19.6-33.7-56 0-19.9 3.1-33.4 10.1-43.5 7.7-11.2 23.3-15.4 36.2-9.8zm258.4-25.1c-9.1 2.2-17.4 7.1-25.1 14.9-24.1 24.1-29.5 74.6-11.9 110.5 8.2 16.7 22 28.2 38.4 32.1 12.4 2.9 29.7.8 40.4-4.8 8.1-4.4 19.5-16.4 24.3-25.8 14.7-28.5 14.7-68.7 0-97-7.9-15.2-21.7-26.4-36.9-30-7.8-1.8-21.4-1.8-29.2.1zm24.1 23.9c10.8 3.2 19.1 14.4 23 31 2.5 11.1 2.5 38-.1 48-4 15.5-10.5 24.7-20.4 29.3-4.7 2.1-6.5 2.4-13.1 2-9.2-.6-14-2.8-20-9.3-8.8-9.6-12.6-23.4-12.6-46.5 0-18.1 1.7-27.1 7.1-38 7.5-14.9 20.9-21 36.1-16.5zm-170.4-.8l-22 22.8 7.6 8.3 7.7 8.3 12.7-13.1 12.7-13.1v120.2l13.8-.3 13.7-.3.3-77.8.2-77.7h-24.7l-22 22.7zm285.9-.4c-12.2 12.2-22.2 22.6-22.2 23.1 0 .4 3.5 4.4 7.7 8.8l7.8 7.9 12.7-13.3 12.7-13.3.1 60.2V932h27V776h-23.5l-22.3 22.3zm1139.2 28.1c-32.1 7.3-56.1 33.3-58.9 63.6-1.8 19.3 3.9 39.3 23.1 81.1 12.9 28.2 16.6 39 16.8 48.4.1 8.6-2.1 13.5-7.7 17.6-13.8 10-33.4 3.6-50.3-16.3-19.3-22.8-30.1-55.4-27.9-84.1.6-7 .4-8.7-.6-8.7-8.6.2-52.3 3.1-52.7 3.5-1.4 1.3-.5 30.2 1.1 39.3 4.9 26.7 17.9 53.5 38.4 78.9 34.9 43.3 77.1 58.3 114.8 40.9 32.1-14.8 49.6-42.1 47.1-73.3-1.5-18.2-7-34.9-23.6-71.3-15-32.8-17.9-42.6-15.9-52 .8-4 2-5.8 5.6-8.9 10.3-9.1 24.6-7.3 37.6 4.7 19.7 18.3 33.7 51.6 33.7 80v8.5l26.1-.6c14.3-.3 26.4-.8 26.7-1.2 1.4-1.4.2-24.3-1.8-34.8-10.1-52.1-51-101.4-94.2-113.7-9.6-2.8-28.8-3.6-37.4-1.6zm-1532.9 183.2c-13.1 2.1-23.4 7.4-32.4 17-27.3 28.6-29.1 88.6-3.8 121.9 11.2 14.8 28 22.3 47.7 21.2 27.7-1.5 47.1-19.6 55.7-52.2 2.4-9.1 2.6-11.7 2.6-28 0-16.4-.2-18.9-2.6-28-8.8-32.7-27.9-50.7-55.5-51.9-4.8-.2-10-.2-11.7 0zm21.3 27c8.9 4.4 15 13.4 18.8 27.9 2.6 9.7 2.6 39.8.1 49.8-3.6 14.3-9.9 23.7-19.1 28.4-4.1 2.1-6.6 2.6-12.6 2.7-13.1.1-21.6-5.6-27.9-18.9-10.5-22-8.6-63.8 3.6-80.2 6.6-9 12.9-12.1 24.4-12.2 6.2-.1 8.4.4 12.7 2.5zm235.7-26.9c-29.5 3.9-49.5 29.5-53.6 68.4-3.6 34.2 8.7 67.9 29.8 82.2 21 14.2 50.4 12.6 69-3.8 6.7-5.9 14.3-17.3 18.1-27.2 5-12.9 6.7-22.9 6.7-39.8s-1.7-26.9-6.7-39.8c-3.7-9.7-11.4-21.4-17.6-26.7-12.2-10.4-29.5-15.5-45.7-13.3zm22.7 27.6c8.1 4.7 13.2 12.8 17 26.5 1.8 6.5 2.2 10.6 2.2 25.7.1 15.8-.2 19-2.2 25.8-6 21-15.6 30-31.7 30.1-22 .1-34-19.5-34-55.9 0-30.4 7.6-47.6 24-54.2 1.8-.8 6.4-1.2 11.6-1 7.2.3 9.3.7 13.1 3zm-432.5-3.5l-22.8 22.8 8 8.5 8 8.4 12.5-13 12.5-13 .1 59.7v59.8h28l-.2-77.8-.3-77.7-11.5-.3-11.5-.2-22.8 22.8zm-679.6-20.2c-28.1 7.5-46 37.3-46.2 76.9-.1 19.6 2.9 34.2 9.8 47.8 11.4 22.8 28.4 33.7 52.6 33.7 16.5 0 27.5-4.6 39.2-16.4 14.1-14.2 21.1-32.7 22.2-58.7 1.8-42.8-16.4-75.6-46.4-83.4-7.2-1.9-24-1.9-31.2.1zm29.8 25.9c6.2 3.4 9.2 6.7 13.1 14.5 5.4 10.8 6.4 16.6 6.5 37.5 0 15.2-.4 20.3-1.8 25.5-4 14.5-10 23.5-19 28.2-3.4 1.8-5.8 2.3-12.7 2.3-7.7 0-9-.3-14-3.1-9.4-5.3-15.2-14.8-18.7-30.9-2.2-9.7-2.1-33.5.1-44 3.4-16 11.7-28.1 21.9-31.9 6.8-2.5 18.1-1.6 24.6 1.9zm110.1-3l-22.4 22.4 7.4 7.8c4.1 4.3 7.9 8 8.4 8.2.6.2 6.5-5.4 13.3-12.5l12.2-12.9.1 60.2v60.3h27v-156h-23.5l-22.5 22.5zm2462.3 82.3c-11.7 6.4-21.3 11.9-21.3 12.2 0 .3 8.5 16 18.9 35 10.4 19 18.8 34.6 18.8 34.6-.1.1-43.6 23.9-96.7 52.9s-96.6 52.9-96.7 53c-.6.4 27.7 51 28.4 50.8.4-.1 44-23.8 96.7-52.8 52.8-28.9 96.3-52.2 96.7-51.8.4.5 8.7 15.4 18.5 33.3 9.7 17.9 18.2 33 18.8 33.7 1.5 1.5 44.2-21.9 44-24.2-.3-2.6-102.6-188.5-103.8-188.4-.6 0-10.7 5.3-22.3 11.7zM303 1140.6c-8.9 1.2-20.5 3.7-27.6 6-60.9 19.8-104.4 86.4-99.3 151.7 1.4 18.2 5.8 33.6 14 49.8 19.8 38.9 59.6 67.5 106.4 76.5 13.1 2.6 36.9 2.4 49.5-.4 27.9-6.1 48-17.1 68.5-37.7 42.6-42.6 57.1-103.6 37-155.7-17-44.1-60.2-78.5-110.5-88.3-8.4-1.6-31.2-2.7-38-1.9zm28.8 60.5c18.1 4.6 33.7 13 46.9 25.3 13.1 12.3 22 26.4 25.8 41 7.2 28.1-2.6 59.5-25.2 80.6-20.3 19-46.5 25-76 17.5-28.4-7.2-54.1-27.1-66.1-51-5.8-11.7-7.7-19.7-7.7-33.5 0-17.4 4.3-31.7 14-46.5 5.1-7.9 18.6-21.1 25.8-25.4 17.9-10.6 41-13.5 62.5-8zm1715.6 47.1c-19.6 2-35.4 14-45 34.4-7.3 15.2-8.9 23.6-8.8 45.9 0 20.4 1.1 26.4 6.8 40.5 7 17.6 19.5 30.4 35.1 36.2 5.1 1.8 8.1 2.2 19.5 2.2 11.5 0 14.4-.3 19.5-2.2 19.6-7.3 32.4-23.4 39.7-50 1.9-6.6 2.2-10.4 2.2-27.2 0-17.9-.2-20.3-2.6-29.2-9.7-35.7-33.7-54-66.4-50.6zm17.9 25.4c9.7 3.3 17.3 13.2 21.3 27.9 2.5 9.2 3.1 37 1 47.4-3.4 16.6-9 26.1-18.6 31.5-5 2.8-6.3 3.1-14 3.1-7.5 0-9.1-.3-13.8-2.9-9.2-5.1-15.7-16-18.8-31.5-2.1-10.7-1.5-38.4 1-47.6 4-14.2 11.7-24.6 20.7-27.8 5.8-2 15.4-2.1 21.2-.1zm267.7-25.5c-13.7 1.5-24.2 7-34.1 17.8-25.8 28.1-27.6 87.5-3.6 119.8 11 14.9 26.2 22.3 45.7 22.3 16.2 0 28.3-5 39.5-16.4 29.3-29.7 30-95.4 1.5-125.9-3.7-4-9.3-8.7-12.4-10.6-9.8-5.9-23.2-8.5-36.6-7zm20.7 26.7c8.8 4.6 14.7 13.1 18.5 27 3 10.7 3.2 40.1.4 50.7-4.3 16.3-12.2 26.8-22.7 29.9-20 6-35.9-6.1-41.6-31.4-2.6-11.4-2.3-37.9.5-48.3 4.5-16.6 11.9-26.1 23.2-29.8 4.6-1.5 17.1-.4 21.7 1.9zm149.8-26.7c-13 1.3-26.2 8.2-35 18.2-6.2 7.1-13.1 20.9-16.3 32.5-2.4 9-2.6 11.2-2.6 29.2 0 16.8.3 20.6 2.2 27.2 7.3 26.6 20.1 42.7 39.7 50 5.1 1.9 8 2.2 19.5 2.2 11.4 0 14.4-.4 19.5-2.2 16.7-6.2 28.6-19.1 36.2-39.2 5-13.5 6.6-24.7 6-42.5-.7-18.5-2.9-28.2-9.7-42.2-11.9-24.3-32.5-35.8-59.5-33.2zm18 25.6c9.2 3.1 17.2 13.6 21.1 27.8 2.5 9.2 3.1 36.9 1 47.6-3.1 15.5-9.6 26.4-18.8 31.5-4.7 2.6-6.3 2.9-13.8 2.9-7.7 0-9-.3-14-3.1-9.6-5.4-15.2-14.9-18.6-31.5-2.1-10.4-1.5-38.2 1-47.4 3.9-14.4 11.6-24.6 20.9-27.9 5.7-2 15.3-2 21.2.1zm-743.4-1l-22 22.8 8 8 8 8 12.5-12.8 12.4-12.8.2 59.8.3 59.8h27l.3-77.8.2-77.7h-24.8l-22.1 22.7zm115.5-.1l-21.9 22.3 4.1 4.8c2.2 2.6 5.6 6.4 7.6 8.3l3.6 3.4 13-12.9 13-13V1406h27v-156l-12.2.1-12.3.1-21.9 22.4zm285.4 0l-22.2 22.7 8.2 8.1 8.2 8.1 12.4-13 12.4-13 .2 60 .3 60h27l.3-77.8.2-77.7h-24.7l-22.3 22.6zm456-.1l-22.4 22.6 8.3 8.2 8.3 8.2 12.4-13 12.4-13 .2 60 .3 60h27l.3-77.8.2-77.7h-24.6l-22.4 22.5zm-624.7 212c-15.6 4.2-29 15.8-36.7 31.7-5.7 11.7-8.3 21.3-9.8 35.6-2.1 20.1 1.4 40.8 9.8 58.1 7.9 16.2 22.1 28.2 37.8 32 6.3 1.5 22 1.5 28.2 0 20.5-4.9 36.6-22.3 43.8-47.3 7.6-26.2 5-57.6-6.7-80.1-7.8-14.9-21.3-26.1-36.4-30-7.1-1.9-23-1.8-30 0zm24.4 24c5.9 1.8 13.3 7.8 16.7 13.8 10.4 17.9 11.4 56.2 2.1 77.4-2.8 6.3-9.5 13.7-15 16.6-3.2 1.8-5.7 2.2-13 2.2-10.7 0-14.7-1.7-21.4-9-8.8-9.6-12.6-23.4-12.6-46.5 0-17.7 1.8-27.5 6.8-37.8 7.1-14.7 21.3-21.2 36.4-16.7zm376.5-23.9c-14.9 4-28.4 15.3-35.9 29.9-8.3 16.4-10.8 27.8-10.7 49.5.1 14.4.5 17.8 2.7 26.5 4.1 15.6 10.5 27.5 19.6 36.6 11.8 11.8 22.4 16 40.2 16 22.8 0 40.6-11.6 51.3-33.5 17.5-35.5 12.1-86-11.9-110.2-7.6-7.7-15.5-12.4-25.2-14.9-7.2-1.9-23-1.8-30.1.1zm24.5 23.9c10.2 3 18.2 13.4 22.5 29.2 3 11.3 3.1 39.2 0 50.5-3.8 14.1-10 23.5-18.7 28.1-5.8 3.1-20.2 3.1-26 0-8.9-4.7-15.7-14.9-19.2-28.8-2.5-10.1-2.5-38 0-48.7 5.7-24.3 21.8-36.1 41.4-30.3zm491.6-24c-14.8 4-28.4 15.3-36 30-14.7 28.3-14.7 68.5 0 97 5.5 10.7 16.5 21.9 25.7 26.2 8.9 4.2 14.7 5.4 25.5 5.4 17.3 0 28-4.4 39.7-16.1 6.1-6.2 8.6-9.7 12.2-17.1 13.8-28.5 13.8-65.3 0-93.7-7.8-16.2-21.2-27.6-37.1-31.7-7.1-1.9-23-1.8-30 0zm24.4 24c7 2.1 14.2 8.7 18 16.7 5 10.3 6.8 20.1 6.8 37.8 0 23.1-3.8 36.9-12.6 46.5-6.7 7.3-10.7 9-21.4 9-10.6 0-14.7-1.7-21.2-8.8-4.8-5.2-6.4-8-9.1-16.3-4.6-14.2-5.4-40.5-1.6-55.4 6.1-24 21.8-35.2 41.1-29.5zm-801.6-1.1c-20.4 20.5-22.3 22.6-21.1 24.3.8 1 4.3 4.8 7.9 8.6l6.6 6.7 12.7-13.2 12.7-13.3v60.2l.1 60.3h27v-156h-23.5l-22.4 22.4zm115 .1l-22.3 22.5 7.8 8.6 7.9 8.7 12.7-13.4 12.8-13.4V1641h27v-156h-23.6l-22.3 22.5zm286.1-.2c-12.2 12.2-22.2 22.7-22.2 23.2s3.4 4.4 7.6 8.6l7.7 7.7 12.8-13.1 12.8-13.2.1 60.2v60.3h27v-156h-23.5l-22.3 22.3zm114.8.2l-22.4 22.4 2.4 2.8c1.4 1.5 4.9 5.4 8 8.6l5.5 5.8 12.7-13.3 12.7-13.3.1 60.2v60.3h27v-156h-23.5l-22.5 22.5zm115.1.1l-22 22.6 7.7 8.5 7.7 8.4 12.8-13.3 12.7-13.2v120.5l13.8-.3 13.7-.3.3-77.8.2-77.7h-24.8l-22.1 22.6zm-2723 20.7c-5.7 18.2-10.4 33.5-10.5 33.8 0 .3 19.2 29 42.7 63.9 23.5 34.8 42.6 63.4 42.3 63.7-.3.3-106.9-33-113-35.3-.8-.3-4.1 8.6-10 27.2-4.8 15.2-8.6 27.7-8.4 27.8 1.9 1.4 258.3 81.5 258.8 80.9 1.2-1.2 17.2-52.3 16.8-53.5-.2-.5-17.7-6.5-38.9-13.2-21.2-6.7-39-12.5-39.6-12.9-2.1-1.3-17.5-26.9-16.7-27.6.5-.5 29.3-10.9 64.1-23.2l63.1-22.4 10.6-33.4c5.8-18.4 10.4-33.6 10.2-33.9-.2-.2-38.8 14.5-85.8 32.6-46.9 18.1-85.5 32.8-85.8 32.6-.3-.1-20.3-31.8-44.5-70.3S69.3 1495 69 1495c-.3 0-5.2 15-10.9 33.3zm4060.7 1.4c3.5 10.4 8.3 24.4 10.6 31.3l4.3 12.5 24.2.6c13.3.4 24.6 1 25 1.5.4.5 5.8 15.5 11.9 33.4 6.1 17.9 14.5 42.3 18.6 54.2l7.5 21.7-17.7 14.2c-9.7 7.8-18.3 14.8-19.1 15.5-1.1 1 .3 6 8.9 31.1 5.6 16.4 10.6 30.4 10.9 31 .5.9 38.5-30.5 109.6-90.3 60-50.4 110.1-92.6 111.3-93.9l2.4-2.2-11.6-33.9c-6.4-18.6-11.8-34-12-34.1-.2-.2-284.3-11.2-291.2-11.3 0 0 2.8 8.4 6.4 18.7zm211.1 45.2l30.4.6-47.7 38.5c-26.3 21.2-48.1 38.4-48.4 38.2-.7-.2-27.1-75.9-27.2-77.9 0-1.2 13.7-1.1 92.9.6zM1985.5 1724c-17.9 3.9-31.5 15.1-40.5 33.6-16.5 33.6-11.4 83.5 10.9 107.7 11.6 12.6 24.3 18.1 41.6 18.1 11.2 0 18.7-1.8 27.7-6.6 5.6-3 15-11.6 18.9-17.3 18.5-27.3 20.9-71.8 5.4-103-7.5-15.1-18-25-32.1-30.2-5.3-1.9-9.3-2.6-17.4-2.9-5.8-.2-12.3.1-14.5.6zm25.3 26.4c8.6 4.4 14.5 13.1 18.4 27.4 2.9 10.4 3.1 38.9.5 49.7-3.5 14.1-10.5 24.7-19.2 29-5.5 2.8-20.3 2.8-25.7.1-9.2-4.5-16-15.1-19.5-30.1-2.7-11.7-2.4-38 .5-48.7 4.7-17.2 12.5-26.7 24.7-29.9 5.2-1.4 15-.2 20.3 2.5zm373.5-26c-15.9 3.9-29.7 15.4-37.7 31.7-15.3 31-13.7 74 3.9 101.4 10.8 16.9 27.5 25.9 48 25.9 23.3 0 41.3-11.7 52-33.7 19.1-39.6 10.3-94.9-18.6-116.2-12.6-9.3-31.7-12.9-47.6-9.1zm27.2 26.1c9.3 4.5 15.8 14.5 19.2 29.6 2.3 10.1 2.3 36.7 0 46-4 16.4-10.3 26-20.2 30.5-6.1 2.9-15.8 3.2-22.8.8-5.9-2-12.7-8.5-16.2-15.4-9.1-18-10-53.2-1.9-73.5 7.4-18.4 25.3-26.2 41.9-18zm146.5-26.8c-15 2.5-29.8 12.9-38.4 27.1-9.8 16.2-14.9 41.4-12.7 63 3.7 35.4 19.9 59.9 44.6 67.4 9.1 2.8 24.3 3 33 .4 22.8-6.8 37.9-25.6 44.2-54.6 2.2-10.3 2.5-36.3.5-45.5-6.8-31.3-23.2-51.5-46.4-57-5.8-1.4-18.9-1.8-24.8-.8zm23.4 26.3c9 4.3 15.7 14.1 19.3 28.5 2.5 10 2.5 40.2 0 49.5-5.7 21.4-15.9 31-32.6 31-18.6-.1-29.9-14.8-33.2-43-2.6-23.1 1.8-46.2 11.3-58.2 7.8-10 23.2-13.4 35.2-7.8zm143.4-25.5c-19 4.8-33.8 19.5-41.8 41.4-4.8 13.1-6.3 24.2-5.7 41.6.6 18.3 2.8 27.8 9.8 42.3 10.7 22.1 28.5 33.6 51.9 33.6 31 0 52.4-20.4 60-57.4 1.9-9 2.1-12.7 1.7-26.5-.5-16.9-2.1-25.2-7.1-37.5-7.2-17.9-19.8-30.6-35.7-36.1-8.2-2.8-24.8-3.5-33.1-1.4zm26.7 25.4c15.7 6.9 23.8 31.1 21.4 63.8-1.7 22.5-9.5 37.9-22.1 43.3-7.4 3.2-19.5 2.6-26-1.3-8.3-4.9-13.7-12.9-17.4-26.2-2.5-9.2-3.1-36.8-1-47.6 2.9-14.6 10.4-27.1 18.8-31.5 7.2-3.8 18.5-4 26.3-.5zm-629.3-2.6c-12.2 12.2-22.2 22.7-22.2 23.2s3.5 4.5 7.8 8.8l7.7 7.8 12.7-13.3 12.7-13.3.1 60.2v60.3h27v-156h-23.5l-22.3 22.3zm125.3-10.1c-6.6 6.8-16.6 17.1-22.3 22.9l-10.3 10.5 7.8 8.3 7.8 8.4 12.8-13.2 12.7-13.3V1881h27v-156h-23.5l-12 12.2zm615.8 10.7l-22.1 22.6 7.7 8.3 7.7 8.3 12.7-12.8 12.7-12.8V1881h28v-156l-12.2.2-12.3.1-22.2 22.6zm115.4-.1l-22.7 22.7 8.2 8.2 8.2 8.3 12.8-13.3 12.7-13.2v60.2l.1 60.3h27v-156h-23.5l-22.8 22.8zM79.8 1896.4c-6.7 1.8-12.4 6-15.9 11.4-3.8 6-4.1 7.1-8.8 35.7-27.3 163.8-36 331.4-26.1 499 14 235.8 66.4 469.3 154.2 687.9 44.6 111 96.3 214.7 158.2 317.4 194.9 323.1 470.7 592.3 798.6 779.5 39.3 22.4 46.1 25.8 52.9 26.4 10.8 1 22.2-5.3 27.4-15.1 3.1-5.8 3.1-19.3 0-25.1-3.6-6.8-7.9-9.9-33.2-24-259.5-144.7-486-341.1-666.8-578-155.8-204.3-274.2-436-348.3-682C76.7 2613 55.7 2270.6 111.6 1945c2.3-13.2 3.4-22 3-24.8-2.2-17-18.8-28.3-34.8-23.8zm4298 0c-9.9 2.7-17.6 10.8-19.9 21.2-1.1 4.8-.8 7.6 2.9 30.1 62.8 375.9 27.1 757.4-104 1110.3-45.4 122.2-104.7 245.3-172.1 357.5-124.8 207.7-284.2 393.3-472.2 549.5-101.7 84.5-211.2 159.6-327.6 224.5-25.3 14.1-29.6 17.2-33.2 24-3.1 5.8-3.1 19.3 0 25.1 5.2 9.8 16.6 16.1 27.4 15.1 6.8-.6 13.6-4 52.9-26.4 418.5-238.9 748.5-608.7 938-1051.3 93.4-218.1 151.4-454 169.9-690.5 4.5-56.9 6-91.9 6.8-153.5 1.5-131.1-8.3-259.6-29.8-388.5-2.2-13.2-4.4-25.6-4.9-27.5-2.6-9.6-11.3-17.8-21.1-19.9-6.1-1.3-7.1-1.3-13.1.3zM1989 1960.1c-17.5 1.5-33.7 12.3-43.3 28.9-4.2 7.3-9.1 21.4-10.8 31.7-1.9 10.9-1.5 31.3.9 42.3 7.7 36.8 29 56.9 60.2 57 15.2 0 27.2-4.6 37.7-14.3 16.9-15.8 25.6-42.1 24-72.6-1.9-35.1-17.3-60.9-41.8-70.2-6.2-2.4-18-3.6-26.9-2.8zm20.9 27.4c6 3.3 10.1 8 13.6 15.7 5 11 6 16.9 6 36.8 0 16.3-.3 19.5-2.3 26.3-2.9 10.2-5.4 14.9-10.9 20.8-5.2 5.6-12.7 8.9-20.2 8.9-16.2 0-27.1-10.6-32.3-31.6-2.8-11.5-3.1-35.8-.5-47.4 3.5-15.6 11.9-27.7 22-31.4 6.8-2.5 18.1-1.6 24.6 1.9zm380.1-27.4c-13.7 1.2-25.3 7-35 17.7-24.9 27.1-27.8 84-5.8 116.7 11.4 17.2 26.9 25.5 47.3 25.5 16.7 0 28.7-4.9 40-16.4 21.9-22.2 28.8-66 15.9-101.6-3.7-10.5-7.8-17.3-14.6-24.6-12.7-13.6-27.9-19.1-47.8-17.3zm19.7 26.7c8.8 4.6 15.5 14.7 19 28.7 2.5 10.1 2.5 39.2-.1 49-4.2 16.3-12.2 26.8-22.7 29.9-19.4 5.8-34.5-4.9-41.1-29.1-1.7-6.5-2.1-10.6-2.1-25.3 0-14.9.3-18.7 2.1-25.5 4.6-16.7 11.8-25.9 23.2-29.6 4.6-1.5 17.1-.4 21.7 1.9zm435.8-26.7c-13.6 1.3-24.3 6.7-34.2 17.3-29.4 31.4-27.5 100.9 3.5 128.7 10.4 9.4 22.7 13.9 37.7 13.9 16.7 0 28.7-4.9 40-16.4 33.6-34 28.2-111.4-9.4-135.6-10.1-6.4-23.2-9.2-37.6-7.9zm20 26.7c8.9 4.5 15.7 14.8 19.1 28.7 2.6 10.2 2.6 37.1.1 48-3.9 16.8-12 27.7-23 31-19.7 5.9-35.5-6-41.4-31.2-2.5-11-2.5-35.7.1-46.8 4.1-17.5 11.7-27.7 23.6-31.6 4.5-1.5 17.1-.4 21.5 1.9zm-199.2-25.3c-20.8 5.6-35.7 23-43.1 50.4-2.3 8.7-2.6 11.3-2.6 28.1.1 16.7.3 19.4 2.7 28.2 4.1 15.6 9.7 25.9 19.2 35.4 11.7 11.8 22.8 16.4 39.5 16.4 16.5 0 28.9-4.9 39.6-15.6 14.7-14.6 22.4-36.2 22.6-63.4.3-41.2-16.9-70.7-46.1-79.4-6.8-2-24.5-2-31.8-.1zm26 24.1c10.3 3.5 17.9 14 21.8 30 2.9 11.6 3.1 34.8.5 46.9-5 23-17.3 34.7-35.1 33.3-14-1.2-23.3-10.7-28.7-29.3-2-7.1-2.3-10.1-2.3-26.5 0-14.9.4-19.9 1.9-25.5 2-7.7 5.5-15.2 9.3-20.2 6.7-8.8 21.1-12.6 32.6-8.7zm-572.2-1.2l-22.4 22.4 7.9 8.6 7.9 8.6 12.7-13.3 12.7-13.2v60.2l.1 60.3h27v-156h-23.5l-22.4 22.4zm114.9.3l-22.2 22.6 8.2 8.1 8.2 8.1 12.4-13 12.4-13 .2 60 .3 60h27l.3-77.8.2-77.7h-24.8l-22.2 22.7zm286.1-.3l-22.4 22.4 7.8 8.6 7.7 8.6 12.9-13.3 12.8-13.2.1 60.2v60.3h27v-156h-23.5l-22.4 22.4zm455.9.1l-22.4 22.5 3.4 3.7c1.9 2.1 5.4 5.9 7.9 8.4l4.3 4.7 12.9-13.2 12.8-13.1.1 60.2v60.3h27v-156h-23.5l-22.5 22.5zM2062.3 2196c-13 2.4-25.4 9.5-33.4 19.4-23.3 28.5-25.2 82.4-4 114.8 10.5 16.1 24.7 24.4 44.1 25.5 17.1 1 31.6-4.3 43-15.7 29.9-29.9 30.4-96.5.9-127.4-10.5-11.1-21.6-16.2-37.4-17.1-4.4-.2-10.3 0-13.2.5zm22.3 26.4c14.9 6.9 21.9 24.3 21.8 53.6-.1 28.9-6.8 45.6-21.2 52.7-7.9 3.9-18.3 3.9-25.8 0-9.1-4.6-15.2-13.8-19-28.2-1.5-5.5-1.8-10.7-1.9-25 0-15.7.3-19 2.3-25.8 4.3-15.1 11.4-24.8 20.3-28 6.9-2.4 17.4-2.1 23.5.7zm495.9-26.8c-21.6 3.4-38.1 17.2-46.9 39.4-10.7 27.1-9.7 61.6 2.4 86.5 11.7 24.1 30.9 35.7 56.5 34.2 15.1-.9 28.4-7.1 37.7-17.6 19.1-21.7 25.8-60.7 16.2-94-7.2-24.7-21.2-40.5-41.4-46.5-5.6-1.7-19.3-2.8-24.5-2zm21 26.9c8.7 4.3 15.7 14.8 19.2 29 2.6 10.7 2.4 39.3-.5 49.7-3.9 14.4-9.7 23-18.6 27.6-4.3 2.2-6.4 2.6-13.1 2.6-6.7 0-8.8-.4-13.1-2.6-8.9-4.6-14.7-13.2-18.6-27.6-2.9-10.4-3.1-39-.5-49.6 4.2-16.6 11.3-26.3 22.2-30.4 4.7-1.8 18.3-1 23 1.3zm262.7-26.4c-19.3 3.4-32.8 14.1-42.3 33.4-7.6 15.5-9.4 24.3-9.4 46 0 15.3.4 19.3 2.3 26.8 8.7 34.4 29.9 53.7 59.2 53.7 16.3 0 29.7-5.7 40.7-17.4 14.2-15 21.3-35.9 21.3-63.1 0-39.3-16.3-68.3-43.5-77.4-7.1-2.3-20.9-3.4-28.3-2zm22.3 26.3c14.3 6.6 21.7 24.7 21.7 53.1 0 28.6-7.7 47.3-22.1 53.8-6.6 3-18 2.9-24.3-.1-8.9-4.4-15.5-13.9-19.4-27.7-2.4-8.8-3.1-35.6-1.1-46 3.6-18.8 10.9-30 22.4-34.1 6.3-2.2 17-1.8 22.8 1zm150-26.8c-26.9 4.2-44.7 23.4-52.1 56.5-2.4 10.6-2.4 35.6 0 46.9 5.9 27.9 20.4 46.9 41.3 54.2 5.8 1.9 8.7 2.3 19.3 2.2 10.8 0 13.4-.4 19-2.5 17-6.5 28.9-19.2 36-38.7 15.9-43.6 2.2-96.9-28.9-112.7-9.3-4.7-25-7.3-34.6-5.9zm21 26.9c8.9 4.4 15.7 14.9 19.2 30 1.3 6.1 1.8 11.8 1.7 23.5 0 17.5-1.6 26.6-6.2 36.5-3.9 8.2-8.2 12.9-15 16.2-4.8 2.3-6.9 2.8-13.2 2.7-15.8-.1-25.5-9.5-31.2-30.2-1.9-6.6-2.2-10.4-2.1-25.7 0-15.1.3-19.2 2.1-25.7 4-14.7 11.4-24.9 20.5-28.2 5.9-2.1 18.9-1.7 24.2.9zm-860.7-2.4c-11.7 12.1-21.4 22.4-21.5 22.7-.1.4 3.1 4.3 7.3 8.7l7.4 8 12.5-12.8c6.8-7 12.7-12.7 13-12.7.3 0 .5 26.8.5 59.5v59.5h27v-155h-24.8l-21.4 22.1zm114.7.6l-22 22.3 7.5 7.7c4.1 4.3 7.6 8 7.8 8.2.1.3 6.1-5.3 13.2-12.4l13-13V2353h27v-155l-12.2.2-12.3.1-22 22.4zm115.5-.2l-22.5 22.5 8.2 8.2 8.2 8.2 12.5-12.9 12.5-13v59.7l.1 59.8h28v-155h-24.5l-22.5 22.5zm285.6 0l-21.7 22.5 7.3 8c4 4.4 7.6 8 7.9 8 .3 0 6.1-5.6 12.8-12.5 6.8-6.9 12.5-12.5 12.7-12.5.2 0 .4 26.8.4 59.5v59.5h27v-155h-24.6l-21.8 22.5zm-388.4 213.6c-13.6 1.7-23.7 7.2-33.8 18.3-19 20.6-25.5 59.7-15.7 93.5 7.1 24.7 23.1 41.8 43.5 46.6 8 1.9 20.6 1.9 28.6 0 26.2-6.2 43.6-31.2 47.3-68 2.1-20.1-1.4-40.5-9.7-57.5-11.8-24-34.2-36.2-60.2-32.9zm21.3 26.7c5.5 2.7 12.2 10.2 15 16.5 4.4 10.1 6 19.9 5.9 36.7-.1 18.2-1.7 27.1-6.9 37.7-7.5 15.1-20.9 21.4-36.2 16.8-7.1-2.1-14.5-9-18.2-16.8-4.3-9.3-6.1-17.8-6.8-32.3-1.5-32.3 7.2-53.6 24.4-60 5.5-2 17.7-1.3 22.8 1.4zm264.5-26.7c-12.7 1.4-25.8 8.4-34.6 18.2-5.9 6.8-13.8 22.8-16.6 34.2-2 7.8-2.3 11.5-2.2 28 0 20.4 1.1 26.4 6.8 40.5 7 17.6 19.5 30.4 35.1 36.2 5.1 1.9 8 2.2 19.5 2.2s14.4-.3 19.5-2.2c15.6-5.8 28.1-18.6 35.1-36.2 5.8-14.3 6.8-20.1 6.8-41 0-17.9-.2-20.3-2.6-29.2-9.7-35.6-34.5-54.5-66.8-50.7zm18.3 25.5c9.7 3.3 17.3 13.2 21.3 27.9 2.5 9.2 3.1 36.9 1 47.6-3.1 15.5-9.6 26.4-18.8 31.5-4.7 2.6-6.2 2.9-13.8 2.9-7.5 0-9.1-.4-13.8-3-8.3-4.5-14.1-13.2-17.9-26.5-2.6-9.3-2.6-42.5 0-52 4-14.8 11.6-25 21-28.4 5.6-1.9 15.3-2 21 0zM2896 2434c-13.6 1.6-24 7-33.9 17.6-25 26.7-27.9 84.1-5.9 117 11.3 16.9 27.1 25.4 47.3 25.4 16.5 0 28.9-5.1 40-16.4 25.1-25.4 29.9-79.2 10.2-114.6-3.9-7-16.7-19.7-23.3-23.3-9.2-4.8-22.5-7-34.4-5.7zm20.7 26.8c8.8 4.6 15.5 14.7 19 28.7 2.5 10.2 2.4 39.3-.1 49-4.2 16.1-12.4 26.9-22.9 30-19.7 5.9-35.5-6-41.4-31.2-2.5-11-2.5-35.7.1-46.8 4.1-17.5 11.7-27.7 23.6-31.6 4.6-1.5 17.1-.4 21.7 1.9zm-460.1-2.2l-21.8 22.4 4 4.7c2.2 2.7 5.6 6.4 7.6 8.3l3.6 3.4 13-12.9 13-13V2592h27v-156l-12.2.1h-12.3l-21.9 22.5zm285.4 0l-22.3 22.6 8.2 8.1 8.3 8.2 12.4-13 12.4-13 .2 60 .3 60h27l.3-77.8.2-77.7h-24.7l-22.3 22.6zm286.1-.2l-22.4 22.4 7.3 8.1c4 4.5 7.7 8.1 8.1 8.1.5 0 6.5-5.7 13.3-12.8l12.5-12.7.1 60.2v60.3h27v-156h-23.5l-22.4 22.4zm-766.5 214.2c-28.3 6.9-46.9 37.8-46.9 78.4 0 21.4 5.1 40.4 14.6 54.7 8.1 12.2 18.3 19.8 32 23.8 7.3 2.1 23.1 2.1 31.2 0 17.4-4.6 32.3-19.4 39.8-39.5 5-13.3 6.2-21.2 6.1-40-.1-15.6-.4-18.6-2.7-27.4-4.2-15.5-9.6-25.6-19.2-35.2-8.5-8.6-14.5-12.2-25-14.9-7.3-1.9-21.9-1.8-29.9.1zm27.5 25.1c8.9 4 15.6 13.6 19.6 28.3 2.6 9.4 2.6 40.7 0 50-4.2 15.1-9.7 23.3-18.9 27.9-4.8 2.5-7.4 3.1-12.3 3.1-16.7 0-27.4-10.3-32.7-31.6-3.1-12.7-3.1-36.1 0-48.6 4.4-17.7 11.4-26.7 24.2-30.9 4.1-1.4 15.2-.4 20.1 1.8zm229.5-25.1c-9 2.2-17.4 7.1-24.6 14.4-15 15.3-22.3 36.1-22.3 64s7.3 48.9 22.3 64.1c10.7 10.9 23.2 16 39.2 16 17.6.1 28.3-4.3 40.3-16.5 13.9-14.1 20.9-32.3 22.2-58.1 2.2-42.3-16.8-76-47.3-84-7.2-1.9-21.9-1.8-29.8.1zm24.3 24c10.6 3.1 19.1 14.3 22.8 30.2 2.5 10.8 2.5 37.6 0 48.2-3.4 14.5-9.8 24.3-19 29.3-6 3.1-20.3 3.2-26.3 0-8.7-4.7-15.9-16.1-19.1-30.4-2.3-10.2-2.3-35.6 0-45.9 5.6-25.3 21.6-37.4 41.6-31.4zm376.4-24.1c-14.8 4-28.4 15.3-36 30-14.7 28.3-14.7 68.6 0 97 5.6 10.7 16.6 22 25.7 26.2 9 4.2 14.7 5.4 25.5 5.4 17.2 0 28-4.4 39.6-16 16.8-16.9 25.2-45.7 22.1-75.5-3.8-35.8-20.9-60.3-46.9-67.1-7.1-1.9-23-1.8-30 0zm24.4 24c7 2.1 14.2 8.7 18 16.7 5.1 10.3 6.8 20.1 6.8 37.8 0 23.1-3.8 36.9-12.6 46.5-6.7 7.3-10.7 9-21.4 9s-14.7-1.7-21.4-9c-8.8-9.6-12.6-23.4-12.6-46.5 0-17.7 1.7-27.5 6.8-37.8 7.1-14.7 21.3-21.2 36.4-16.7zm-828.4-.6l-22.2 22.8 8 7.9 7.9 7.9 12.5-12.5 12.5-12.5.2 59.5.3 59.5 13.8.3 13.7.3V2673l-12.2.1h-12.3l-22.2 22.8zm542.7-.4l-22.4 22.4 2.9 3.3c1.6 1.8 5.2 5.7 8 8.6l5 5.3 12.7-13.3 12.7-13.3.1 60.2v60.3h27v-156h-23.5l-22.5 22.5zm115.2.2l-22.1 22.6 7.7 8.4 7.7 8.4 12.8-13.2 12.7-13.2v120.4l13.8-.3 13.7-.3.3-77.8.2-77.7h-24.8l-22 22.7zm286-.4c-12.2 12.2-22.2 22.6-22.2 23.1 0 .4 3.5 4.4 7.7 8.7l7.7 7.9 12.7-13.2 12.8-13.3v60.2l.1 60.3h27v-156h-23.5l-22.3 22.3zm-1079.9 215.1c-19.3 4.9-34.8 20.3-42.4 42.3-5.5 15.8-7.3 37.7-4.5 54.7 5.3 32.1 20.9 53 45.1 60.2 8.7 2.6 23.9 2.4 33-.4 24.6-7.5 40.8-31.9 44.5-66.9.6-5.4.8-13.2.5-17.3-3.1-37.7-18-62.2-43.3-71.2-7.3-2.6-25.3-3.4-32.9-1.4zm27.2 26.1c9.1 4.4 15.1 13.3 18.5 27.6 2.7 11.5 3.5 25.5 2.1 37.9-3.3 28.2-14.6 42.9-33.2 43-8.9 0-15.3-2.4-20.5-7.6-9-9-13.3-22.1-14.1-43.4-1.3-34.3 8.2-55.2 27.2-60.1 5.3-1.4 14.3-.3 20 2.6zm145-26.5c-10.7 2.2-22.6 8.9-29.5 16.8-22.8 25.8-27.4 73.9-10.5 108.9 10.7 22 28.7 33.7 52 33.7 30.9 0 51.6-19.5 60.2-56.5 1.2-5.5 1.7-11.9 1.6-24.4 0-15.1-.3-18.1-2.6-27-6-22.7-18-39.3-33.7-46.8-4.1-1.9-9.9-4-12.8-4.6-6-1.2-18.7-1.3-24.7-.1zm24.9 26.1c14.7 6.9 22.4 27.6 21.3 57.4-1.3 34.6-12.7 51.6-34.6 51.5-18.6-.1-29.9-14.8-33.2-43-2.6-23.2 2.2-47.6 11.6-58.8 8-9.5 23.3-12.6 34.9-7.1zm345.6-25.6c-8 2-12.7 4.2-19.7 9.1-34.4 24.5-38.9 98.2-8 132 12.6 13.9 31.4 20.4 50 17.4 25.4-4 42.3-21.4 50.4-51.6 2.3-8.8 2.6-11.9 2.7-27.4.1-13.8-.3-19.2-1.8-25.5-6.8-29.3-23.3-48.7-45.8-54-7.7-1.8-20.4-1.8-27.8 0zm26.6 25.6c4.9 2.3 11.4 9 14.3 14.7 1.1 2.2 3.1 7.6 4.3 11.9 2 6.9 2.3 10 2.3 26.3 0 20.4-1.2 27.5-6.6 38.1-6.1 12.3-12.8 17-25 17.7-9.9.6-15.4-1.3-22-7.5-9.6-9-14.2-24.3-14.2-47.8 0-32.1 8.5-50.2 26.1-55.2 6-1.7 15.3-.9 20.8 1.8zm375.9-26.1c-10.7 2.2-22.6 8.9-29.5 16.8-22.8 25.8-27.4 73.9-10.5 108.9 10.7 22 28.7 33.7 52 33.7 14.5 0 24.2-3.2 35.3-11.6 27.6-21.1 35.6-77.1 16.6-115.7-8.2-16.7-22.8-28.6-39.2-32-6-1.2-18.7-1.3-24.7-.1zm24.9 26.1c14.7 6.9 22.4 27.6 21.3 57.4-.8 21.7-5.2 35.2-14.3 44-5.3 5.2-11.5 7.5-20.3 7.5-8.4 0-15-3-20.9-9.4-7.7-8.4-11.9-21.8-12.8-41.1-1.2-25.2 5-46.6 16.1-55.1 8.7-6.6 21.1-7.9 30.9-3.3zm-655.9-7.9c-9.4 9.5-19.5 19.9-22.5 23.1l-5.4 5.7 7.9 8.1 8 8.1 12.8-13.3 12.7-13.3V3067h27v-156h-23.5l-17 17.2zm366.6 5.7l-22.1 22.8 7.8 8.3 7.7 8.3 12.8-13.2 12.7-13.3V3067h27v-156h-23.8l-22.1 22.9zm115.2 0l-22.1 22.6 7.7 8.3 7.7 8.3 12.7-12.8 12.7-12.8V3067h28v-156l-12.2.2-12.3.1-22.2 22.6zm291.2-5.7c-9.4 9.5-19.5 19.9-22.5 23.1l-5.4 5.7 7.9 8.1 8 8.1 12.8-13.3 12.7-13.3V3067h27v-156h-23.5l-17 17.2zm109.8 5.6l-22.1 22.9 7.6 8.2 7.7 8.3 12.8-13 12.7-13v119.9l13.8-.3 13.7-.3v-155l-12-.3-12-.2-22.2 22.8zM1813 3148.1c-25.7 6.7-42.3 31-46 67.4-3.5 34.6 9.3 68.4 31.4 82.7 14.2 9.2 34.2 11 51.1 4.7 18.2-6.8 31.6-23.8 38.2-48.5 2.3-8.7 2.6-11.9 2.7-26.9.1-17.4-.6-23-4.6-35.5-7.3-23.2-23.5-39.9-42.9-44.5-8.7-2-20.8-1.8-29.9.6zm28.4 25c9 4.2 15.7 14.1 19.3 28.4 2.5 10.1 2.5 40.3 0 49.5-3.8 14.1-9.5 23-17.4 27.7-6.2 3.6-18.1 4.4-25 1.8-10.4-4-18.4-15.5-22-31.7-2.4-10.6-2.3-34.8.1-45.3 4.3-18.8 11.8-28.6 24.6-32.2 5.8-1.7 14.8-.9 20.4 1.8zm232.1-26.1c-10.7 2.2-22.6 8.9-29.5 16.8-22.7 25.8-27.4 74.2-10.5 108.9 10.7 22 28.8 33.7 52 33.7 15.9 0 28.5-4.8 38.9-14.9 25.1-24.1 31.1-75.8 13-112.4-8.4-17-23.3-29-39.8-32-6.8-1.2-18.1-1.3-24.1-.1zm25.3 26.4c9.1 4.6 14.8 13.1 18.8 28.1 2.6 9.8 2.7 37.7.1 48.5-3.7 15.8-11.6 27.1-21.4 30.4-7 2.4-16.7 2.1-22.8-.8-9.9-4.5-16.2-14.1-20.2-30.5-2.3-9.3-2.3-35.8.1-46.1 1.9-8.4 5.4-16.8 9.2-21.7 8-10.5 24.2-14 36.2-7.9zm377.2-26.7c-11.5 1.9-23.8 8.9-32 18.1-5.9 6.6-13.1 20.6-16 31.2-8.4 30.8-2.2 69.4 14.5 89.8 11.8 14.3 25.2 20.6 44 20.6 17.1 0 27.8-4.4 39.6-16.3 16.7-16.8 25.2-45.8 22-75.1-4.1-38.4-22.2-62.7-50.5-68.1-4.8-.9-16.7-1-21.6-.2zm22.8 26.3c9 3.9 15.4 13 19.4 27.8 2.9 10.7 3.2 37 .5 48.7-3.5 15-10.3 25.6-19.2 30-5.7 2.8-20.3 2.8-26 0-8.7-4.3-14.9-13.3-18.7-27.3-1.8-6.5-2.1-10.6-2.1-25.7-.1-15.3.2-19.1 2.1-25.7 4.8-17.3 12.5-26.7 24.7-29.9 4.8-1.3 13.7-.3 19.3 2.1zm144.2-25.5c-17.5 4.3-30.2 15.3-39.1 34-13.5 28.3-12.1 69.4 3.2 96.1 11.9 20.9 35 32.2 58.2 28.4 25.3-4 42.4-21.5 50.4-51.5 2.4-9 2.7-11.7 2.7-28 0-15.3-.3-19.3-2.2-26.7-7.1-28.5-23.2-47.1-45.4-52.3-7.7-1.8-20.4-1.8-27.8 0zm26.6 25.6c5.5 2.6 11.9 9.7 14.9 16.2 4.4 9.6 5.7 16.4 6.2 33.2.4 13.4.2 17.5-1.5 25.6-3.2 15.6-8.9 25.3-17.9 30.6-6.6 3.9-18.7 4.5-26.1 1.3-9.7-4.2-16.7-14.4-20.1-29.3-7.1-30.4-.1-65.4 15-75.4 8.4-5.6 20.7-6.5 29.5-2.2zm143.2-25.5c-13.5 3.2-27.9 14.4-35.7 27.6-7.4 12.8-12.1 32.3-12.1 50.8 0 41.1 18.6 71.8 48 79.1 3.1.8 9.9 1.3 15.5 1.3 10.9-.2 19.1-2.3 27.5-7.2 15.4-8.9 27.1-28.1 31.6-51.9 2.3-12.4 1.5-38.4-1.6-49.8-9-33.2-30.3-51.7-59.5-51.4-4.4 0-10.6.7-13.7 1.5zm22 23.7c15.1 4 23.8 18.4 26.3 44.1 1.7 17.9-1 37.5-6.7 48.9-3.6 7-9.7 13.1-15.6 15.7-7.4 3.2-19.5 2.6-26.1-1.3-12.7-7.5-18.5-21.9-19.4-48.2-.8-22.6 2.4-37.8 10-47.7 8.4-10.9 18.9-14.7 31.5-11.5zm467.7-24.3c-22.6 4.9-39.6 23-46.4 49.5-9.2 35.3-1.6 73 18.8 93.6 11.8 11.9 22.5 16.3 39.6 16.3 18.8 0 33-6.7 44.3-21 16.5-20.7 22.5-58.8 14.2-89.4-2.9-10.5-10.1-24.6-15.9-31.1-10.9-12.2-23.3-17.9-40.1-18.5-5.8-.2-12.3.1-14.5.6zm25.3 26.4c8.8 4.5 14.4 12.8 18.5 27.5 3 11 3 40-.1 51.3-3.8 14-10 23-18.7 27.3-5.5 2.8-20.3 2.8-25.7.1-12.8-6.3-20.3-23-21.5-48.1-1.2-24.6 5-46.1 15.9-54.8 8.8-7 21.6-8.4 31.6-3.3zm-1660-2.7l-22.6 22.8 7.8 8.3 7.8 8.4 12.6-12.9 12.5-12.8.1 59.7v59.8h28v-156h-23.5l-22.7 22.7zm547.2-5c-9.7 9.8-19.8 20.2-22.5 23.1l-4.9 5.2 7.9 8.1 8 8.1 12.7-13.4 12.8-13.3V3304h27v-156h-23.5l-17.5 17.7zm110.3 5.1l-22.1 22.9 7.6 8.2 7.7 8.3 12.8-13 12.7-13v119.9l13.8-.3 13.7-.3v-155l-12-.3-12-.2-22.2 22.8zm626.5-.1l-22.7 22.8 7.9 8.3 7.9 8.4 12.5-12.9 12.5-12.8.1 59.7v59.8h28v-156h-23.5l-22.7 22.7zm115.4-.4c-12.2 12.2-22.2 22.7-22.2 23.2s3.5 4.5 7.8 8.8l7.7 7.8 12.7-13.3 12.7-13.3.1 60.2v60.3h27v-156h-23.5l-22.3 22.3zm372 0c-12.2 12.3-22.2 22.7-22.2 23.3 0 .5 3.5 4.5 7.8 8.7l7.9 7.8 12.6-13.3 12.6-13.3.1 60.2v60.3h27v-156h-23.6l-22.2 22.3zm-1734.1 214.3c-16.9 4.5-31 18.1-38.7 37.4-5.8 14.3-6.8 20.1-6.8 41s1 26.7 6.8 41c7.8 19.4 22 32.8 39.6 37.5 7.3 1.9 22.6 1.9 30.3-.1 21.3-5.5 36.6-23.2 43.8-50.9 2.1-8 2.4-11.2 2.3-28 0-17.3-.2-19.9-2.6-28.7-7.1-26-22.9-43.9-43.3-49.3-7.4-1.9-24.1-1.9-31.4.1zm29.6 25.5c13.4 6.9 20.4 25 20.4 52.4 0 28.3-6.4 45.2-20.1 52.9-5 2.8-6.3 3.1-14 3.1-7.5 0-9.1-.3-13.8-2.9-13.5-7.5-20.2-25-20.2-52.6 0-31 7.8-48.3 24.7-54.6 5.8-2.2 17.1-1.3 23 1.7zm256.6-25.6c-9.4 2.6-17.4 7.3-24.8 14.9-26.8 27.1-29.8 86.8-6 120.1 11.2 15.8 26.4 23.5 46 23.5 17.1 0 28.1-4.4 39.6-15.9 10.4-10.6 17-23.8 21.1-42.6 1.7-7.8 1.7-35.2 0-43-4.2-19.6-10-31.3-20.7-42.1-8.4-8.5-14.7-12.3-24.6-14.9-6.8-1.9-23.7-1.8-30.6 0zm28.4 25.3c9 4.7 15.7 14.8 19 29 2.5 10.7 2.5 38.6 0 48.7-2.5 9.8-5.8 16.6-10.8 22-5.5 6-10.8 8.6-18.4 9.3-17.6 1.4-30.2-10.4-35.1-32.8-2.3-10.3-2.4-35.7-.1-46 3.5-15.6 11.9-27.7 22-31.4 6-2.2 17.9-1.6 23.4 1.2zm141.6-25.3c-21.2 5.9-36.7 24.2-43.5 51.2-2 7.6-2.3 11.3-2.2 27.8 0 20.4 1.1 26.4 6.8 40.5 7.9 19.6 21.8 32.8 39.6 37.5 7.3 2 22.7 1.9 30.4-.1 17.2-4.4 31.4-18 39.2-37.4 5.7-14.1 6.8-20.1 6.8-40.5.1-22.3-1.5-30.8-8.8-45.9-7.6-15.8-18.2-26.2-32.3-31.6-7.5-3-27.9-3.8-36-1.5zm29.1 25.6c8.2 4.1 14.6 13.3 18.2 26.4 2.5 9.2 3.1 36.9 1 47.4-3.4 16.6-9 26.1-18.6 31.5-5 2.8-6.3 3.1-14 3.1s-9-.3-14-3.1c-13.5-7.6-19.9-24.4-20-52.1 0-31.6 7.6-48.5 24.9-55 5.5-2 16.7-1.2 22.5 1.8zm342.1-25.2c-3.3.9-7.6 2.5-9.5 3.5-22.2 11.5-36 40-36 74.6 0 37.9 16.5 67.8 42.5 77.2 8.4 3 25.6 3.6 34.5 1.3 21-5.4 36.4-22.7 43.7-49.2 2.6-9.2 2.8-11.1 2.8-29.3-.1-21.4-.9-26.7-6.6-40.8-7.8-19.6-22-33.1-39.4-37.7-8-2-24.2-1.9-32 .4zm26.2 23.6c10.8 3.2 19.2 15 22.9 32 2.2 10.5 2.3 34.2.1 44-3.6 16.3-9.9 26.7-19.2 31.5-4.2 2.1-6.3 2.5-13.5 2.5-7.5 0-9.1-.3-13.8-2.9-8.4-4.7-14.1-13.4-17.8-27.1-2.7-9.9-2.7-41.9 0-51.4 3.2-11.8 9.1-21.4 15.3-25.2 8.1-5 16.7-6.1 26-3.4zm491.3-24.1c-21.5 6-36.5 23.2-43.7 50.2-2.4 9-2.6 11.5-2.6 28.4 0 16.8.2 19.4 2.6 28.2 4.1 15.6 9.7 25.9 19.2 35.4 8.6 8.8 16.3 13.2 26.3 15.3 7.6 1.6 21.8 1.4 28.7-.4 28.5-7.5 46.6-37.7 46.7-78 .1-41.1-17.8-71.4-46.7-79-7.1-1.8-24-1.9-30.5-.1zm24.7 24.1c10.5 3.1 18.4 13.7 22.5 30.1 2.8 11.6 3 34.7.4 46.9-5 23-17.3 34.7-35.1 33.3-10.9-.9-19.4-7.2-24.6-18.3-4.7-9.9-6-16.8-6.6-33-.8-21.9 2.2-36.4 9.9-47.9 7-10.7 20.2-15 33.5-11.1zm260.4-23.9c-28.2 7.6-46.3 37.9-46.3 77.8 0 20 3.1 33.6 11 49 7.8 15.2 20.8 26.2 35.7 30.1 6.9 1.8 21.1 2 28.7.4 9.9-2.1 17.7-6.6 26.4-15.3 9.5-9.6 14.9-19.5 19.1-35.2 2.4-9 2.6-11.6 2.7-28.4 0-16.8-.3-19.4-2.6-28.1-7.5-27.8-22.3-44.8-43.5-50.3-7.6-2-23.9-2-31.2 0zm29.8 25.9c14.2 7.7 20.9 27 19.8 56.8-.9 26.7-7.4 41.7-21 48.9-6.3 3.4-19.4 3.3-26.2-.2-9.3-4.8-15.6-15.2-19.2-31.5-2.2-9.8-2.1-33.5.1-44 3.6-16.7 12-28.6 22.5-32 7.3-2.3 17.6-1.5 24 2zm-1804.9-3l-22.4 22.4 1.9 2.3c1.1 1.3 4.6 5.1 7.8 8.4l5.9 6.2 12.9-13.2 12.8-13.1.1 60.2v60.3h27v-156h-23.5l-22.5 22.5zm285.1.2l-22 22.8 8 8 8 8 12.5-12.9 12.4-12.9.2 59.9.3 59.9h27l.3-77.8.2-77.7h-24.8l-22.1 22.7zm455.9 0l-22.1 22.7 8.1 8 8.2 8.1 12.4-13 12.4-13v120.6l13.8-.3 13.7-.3.3-77.8.2-77.7h-24.8l-22.2 22.7zm372.2.1l-22.1 22.9 8 7.9 8 7.9 12.4-12.7 12.5-12.7.2 59.7.3 59.7h27l.3-77.8.2-77.7h-24.7l-22.1 22.8zm115.9-.4c-20.4 20.5-22.3 22.6-21.1 24.3.8 1 4.2 4.8 7.7 8.4l6.4 6.6 12.9-13.1 13-13.1V3541h27v-156h-23.5l-22.4 22.4zm115 0l-22.4 22.4 7.8 8.7 7.9 8.6 12.7-13.3 12.8-13.3v60.2l.1 60.3h27v-156h-23.5l-22.4 22.4zm285.2.5l-22.2 22.8 8 7.9 8 7.9 12.4-12.6 12.5-12.5.2 59.5.3 59.6 13.8.3 13.7.3V3385h-24.5l-22.2 22.9zm-1603 213.6c-17.4 4.7-29.7 15.6-38.4 34-6.9 14.8-8.4 22.3-8.4 44.5.1 15.2.4 21 1.8 26.4 4.2 16.8 12.4 31.6 22.3 40.4 15.1 13.5 38.2 17.5 57.9 10.1 26.9-10 42.8-41.7 41.2-81.8-.6-16.5-3.7-29.5-9.9-42-5.3-10.7-17.1-23.2-26-27.4-11.5-5.5-28.9-7.3-40.5-4.2zm26.8 25.2c8.9 4.1 15.7 13.8 19.5 27.8 2.7 10 2.7 41.9 0 51.5-5.9 21.4-16.8 30.9-34.1 29.8-20.8-1.4-31.7-20.6-31.7-55.8 0-24.9 5.8-42.6 16.4-50.2 8.4-5.9 20.6-7.2 29.9-3.1zm143.7-25.1c-21.9 5.3-37.9 23.8-45 52.1-1.9 7.5-2.2 11.4-2.2 26.8.1 16.1.3 19 2.6 27.6 9.1 33.9 29.5 52.1 58.3 52.3 5 0 11.5-.6 14.5-1.3 29.9-7.1 48.5-38.1 48.2-80.1-.3-40.9-18.2-70-47.7-77.5-7.2-1.8-21-1.8-28.7.1zm27.7 25.9c14 6.8 20.8 24.2 20.8 53 0 22.3-4 36.6-13 46.6-5.2 5.7-10.4 8.1-18.9 8.7-13.7.9-22.7-4.5-28.9-17.1-6-12.3-7-17.8-7-38.7 0-16.3.3-19.4 2.3-26.5 2.9-10 6.2-16.1 11.7-21.5 8.5-8.3 21.6-10.1 33-4.5zm257.5-25.9c-26.3 6.9-43.8 32.3-46.9 68.1-3.2 36 9.5 68.6 32.1 82.9 9.8 6.2 24.8 9.2 37.2 7.5 25.7-3.6 43-21.1 51.3-51.7 2.5-9.1 2.7-11.5 2.7-28.4-.1-16.8-.3-19.4-2.7-28.4-7.2-27-23.3-45-44.8-50.1-8-1.8-21.7-1.8-28.9.1zm24 24c10.3 3.1 18.2 13.2 22.5 28.9 2.6 9.5 3.2 34.1 1 46-3.2 18.1-11.4 30.3-22.8 34.1-6.5 2.2-17.6 1.5-23.3-1.4-8.8-4.5-15.8-15.8-19-30.7-2.3-10.9-2.3-34.1 0-44.8 3.9-18 10.9-27.7 23.1-31.9 6.3-2.2 11.7-2.2 18.5-.2zm261.8-24c-15.6 3.7-29.2 15.2-37.2 31.5-2.6 5.2-5.8 13.9-7.3 19.4-2.3 8.9-2.6 11.9-2.6 27 0 12.2.4 19 1.6 24.1 8.4 36.8 29.4 56.8 59.7 56.7 17.6 0 28-4.3 40.2-16.4 6.2-6.2 8.5-9.5 12.2-17 18.2-37.7 11.4-90.4-14.7-113.4-6-5.3-16.9-10.8-24.5-12.4-7.1-1.5-20.4-1.3-27.4.5zm28 25.8c8.7 4.4 14.5 13.1 18.4 27.4 2.8 10.2 3.1 38.1.6 48.3-4.3 16.8-10.8 26.5-20.9 30.9-6.5 2.8-18.1 2.5-24.4-.5-13.2-6.4-20.2-22.6-21.2-49-1.2-33.1 8.4-55 26.3-59.4 6.1-1.6 15.6-.5 21.2 2.3zm373-25.8c-22.4 5.4-39.2 25.6-45.5 54.5-1.4 6.4-1.8 12.5-1.7 25.4.1 14.9.4 18.2 2.7 26.8 8.9 33.5 29.5 51.9 58.2 52.1 17 0 29-4.7 40.1-15.8 15.1-15.1 22.8-37.2 22.7-65.1-.2-48.2-25-79.8-62.3-79.4-4.7 0-11.1.7-14.2 1.5zm28.3 26c9.1 5 14.4 13.2 18.1 28.2 2.8 11.3 3 35.6.4 47.2-3.2 14.4-10.4 25.8-19 30.2-5.7 3-16.8 3.6-23.5 1.3-9.8-3.2-17.5-13.6-21.8-29.5-1.4-5.1-1.8-10.4-1.8-25 0-16.3.3-19.4 2.3-26.5 1.3-4.4 3.5-10.1 5-12.8 3.4-6.4 11.2-13.3 17.1-15.2 6.9-2.2 16.8-1.3 23.2 2.1zm228.5-26c-21 5.1-37.1 23.2-44.3 50-2.4 9-2.7 11.5-2.7 28.4s.3 19.4 2.7 28.5c3.3 12.3 9 24 15.6 32.1 20.9 25.7 62.5 26.8 84.6 2.2 13.5-15.1 20.5-36.2 20.6-61.9 0-19.7-2.9-33.6-9.8-47.3-8.8-17.5-20.9-27.7-37.8-32.1-7.3-1.8-21-1.8-28.9.1zm28.2 26.1c13.7 6.9 20.4 24.3 20.5 52.3 0 22.3-4.1 37.2-12.9 46.9-5.3 5.9-10.5 8.3-19 8.9-13.4.9-22.3-4.3-28.6-16.5-6.1-11.6-7.3-18.2-7.3-39.3 0-20.4 1.1-26.5 6.5-37.5 8.1-16.7 25.1-22.9 40.8-14.8zm-1118.1-2.9l-22.7 22.7 8.1 8.2 8.2 8.1 12.1-12.5 12.1-12.6.5 59.4.5 59.4 13.8.3 13.7.3V3622h-23.5l-22.8 22.8zm294.3-9.1c-7.4 7.6-17.4 17.8-22.2 22.8l-8.8 9 7.8 8.4 7.7 8.4 12.8-13.3 12.7-13.3V3778h27v-156h-23.5l-13.5 13.7zm277.2 8.6c-12.2 12.2-22.2 22.7-22.2 23.2s3.5 4.4 7.7 8.7l7.7 7.8 12.8-13.3 12.7-13.2v60.2l.1 60.3h27v-156h-23.5l-22.3 22.3zm114.9.2l-22.3 22.4 2 2.8c1.1 1.5 4.7 5.4 8 8.6l5.9 5.8 12.6-13.3 12.7-13.3V3778h27v-156h-23.6l-22.3 22.5zm542.7.2l-22.7 22.8 7.9 8.1 7.9 8.2 12.5-12.7 12.6-12.6V3778h28v-156h-23.5l-22.7 22.7zm115.4-.4c-12.2 12.2-22.2 22.7-22.2 23.2s3.5 4.4 7.7 8.7l7.7 7.8 12.8-13.3 12.7-13.2v60.2l.1 60.3h27v-156h-23.5l-22.3 22.3zm-1508.9 214.1c-21.4 5.4-37 23.1-44.4 50.6-2.1 7.5-2.4 10.8-2.4 28 0 18.2.2 20.1 2.8 29.3 8.4 30.4 26.2 47.8 51.5 50.7 40.7 4.5 69.2-28.4 69.2-80.1 0-37.9-16.4-67.6-42.5-77-7.5-2.7-26.3-3.5-34.2-1.5zm26.9 25.3c8.7 3.9 15.6 13.5 19.5 27.4 2.6 9.3 2.6 42.5-.1 51.9-5.6 20.2-16 30-31.6 30-19.6 0-31.2-15.4-34-45.1-2-21.2 1.9-42.7 9.8-54 3.9-5.5 11.9-11.4 17.1-12.3 5.2-.9 14.8.2 19.3 2.1zm258.6-25.1c-9.6 2.3-17.7 7-25.5 14.9-16.1 16.4-24.5 45.6-21.5 74.9 2.4 23.1 9.5 40 22.1 52.7 11.4 11.4 23 16.2 39.6 16.2s28.2-4.8 39.6-16.2c16.7-16.9 25.2-45.7 22.1-75.4-3.8-36.3-21.2-61-47.4-67.2-7.8-1.8-21.4-1.8-29 .1zm23.9 23.9c7 2.1 14.2 8.7 18 16.7 5.1 10.3 6.8 20.1 6.8 37.8 0 23.1-3.8 36.9-12.6 46.5-6.7 7.3-10.7 9-21.4 9s-14.7-1.7-21.4-9c-9.1-9.8-12.6-23.5-12.5-47.5.1-18.2 1.7-26.6 7.1-37.6 6.8-13.9 21.2-20.3 36-15.9zm146.6-24.1c-26.1 6.4-44.5 33-47.1 68.4-1.9 25.6 3.1 48.4 14.4 65.3 7.9 11.9 18.2 19.5 31.8 23.4 7.4 2.2 23 2.2 30.9.1 21.3-5.8 36-22.9 43.5-50.5 2.3-8.7 2.6-11.3 2.6-28.1 0-16.9-.3-19.4-2.7-28.4-4.2-15.8-9.6-25.6-19.1-35.2-8.6-8.6-14.6-12.1-25.2-14.9-7-1.8-21.8-1.8-29.1-.1zm26.9 25.3c8.8 4 15.6 13.5 19.3 27.3 2.7 10 3.2 34.4 1 46.6-3.3 18.4-12.1 31.1-23.9 34.4-11.1 3.1-23.3-.4-30.6-8.7-15.7-17.9-17-68.2-2.2-89.4 3.9-5.5 11.9-11.4 17.1-12.3 5.2-.9 14.8.2 19.3 2.1zm345.1-25.2c-17.7 4.9-29.8 15.7-38.4 34-6.7 14.4-8.4 23.3-8.4 44.5 0 22.3 1.8 30.8 9.5 46.7 10.8 22.1 28.5 33.5 52 33.5 29.5 0 50.1-18.4 59.1-52.7 2.1-8 2.4-11.1 2.3-28-.1-20.3-1.1-26.5-6.8-40.5-7.1-17.7-19.6-30.5-35.1-36.1-7.9-2.8-26.5-3.6-34.2-1.4zm28.2 26c9.6 4.6 15.7 14.8 19.1 31.5 2.1 10.6 1.5 38.3-1 47.5-5.6 20.4-16.9 30.3-33.5 29.3-21-1.2-32.1-20.4-32.2-55.5 0-15 1.1-22.8 4.7-32.8 4.3-12.1 12-20.1 21.7-22.6 5.8-1.5 15.3-.3 21.2 2.6zm372.8-26.1c-23.3 5.7-40.5 27.3-45.9 57.6-2.1 12-1.9 33.2.5 44.5 6.1 29.3 21.5 48.3 44.5 55 7.4 2.2 23 2.2 30.9.1 21.3-5.8 36-22.9 43.5-50.5 2.3-8.7 2.6-11.3 2.6-28.1 0-16.9-.3-19.4-2.7-28.4-4.2-15.8-9.6-25.6-19.1-35.2-8.6-8.6-14.6-12.1-25.2-14.9-7-1.8-21.8-1.8-29.1-.1zm26.8 25.3c8.8 3.9 15.7 13.7 19.4 27.3 2.7 10 3.2 34.4 1 46.6-3.3 18.4-12.1 31.1-23.9 34.4-7 1.9-17.4.9-22.9-2.3-13.5-7.9-20-25.1-20-52.7 0-31.5 9.2-50.6 26.6-55.1 5-1.3 14.9-.4 19.8 1.8zm-1116.9-2l-22 22.7 7.7 8.4 7.6 8.4 12.8-13.2 12.7-13.2v120.3l13.8-.3 13.7-.3v-155l-12.1-.3-12.2-.3-22 22.8zm456 0l-22.1 22.6 7.7 8.5 7.7 8.4 12.8-13.3 12.7-13.2V4015h27v-156h-23.8l-22 22.7zm372.1.1l-22 22.7 7.7 8.3 7.7 8.2 12.7-13 12.6-13.1v120.2l13.8-.3 13.7-.3.3-77.8.2-77.7h-24.7l-22 22.8zm115.4 0l-22.7 22.7 8.1 8.1 8.1 8.1 12.1-12.5 12.2-12.4.5 59.4.5 59.3 13.8.3 13.7.3V3859h-23.5l-22.8 22.8zm285.4-.2l-22 22.7 7.7 8.5 7.7 8.4 12.8-13.3 12.7-13.2V4015h27v-156h-23.8l-22.1 22.6zm-1218.5 214c-23.4 5.2-39.3 23.3-46.8 53.1-1.9 7.5-2.2 11.4-2.2 26.3.1 15.5.4 18.6 2.6 27.1 4.8 17.9 13.4 32.6 23.9 40.9 7 5.5 11.6 7.7 20.6 10.1 22.6 5.7 45.6-1.9 59-19.6 25.4-33.4 23.5-93.2-3.8-121.9-10.6-11.3-21.7-16.2-37.9-17.1-5.6-.3-10.8.1-15.4 1.1zm25.9 25.9c13.8 6.7 21 24.9 21 53 0 36.3-12 56-34 55.9-16.3-.1-26.6-10-32.1-30.9-2.7-10.1-2.7-40 0-50 4.2-15.7 11.3-25.4 21.3-29.1 5.4-2 18.7-1.4 23.8 1.1zm232.8-26.5c-32.2 5.8-53 39.9-51 83.9 1.1 24.8 7.9 44.2 20.3 57.9 23.3 25.8 65.5 23.9 86.6-3.9 19.9-26.2 23-72 7.1-104.9-3.7-7.7-6-10.9-12.2-17.1-7.9-7.9-13.7-11.5-23.1-14.3-6.8-2-20.7-2.8-27.7-1.6zm23.2 26.4c6.5 3 13.8 11.1 16.5 18.4 9.1 24 6.9 61-4.4 77.8-10.9 16.1-33.5 17.5-46.4 2.9-8.7-9.9-12.8-27.2-11.9-50.5.3-8 1.3-17.3 2.1-20.8 3.4-13.6 10-23.2 18.8-27.6 7.1-3.6 18-3.7 25.3-.2zm377.8-26.4c-23.2 4.2-40.4 22.4-48.1 50.9-2.3 8.6-2.6 11.4-2.6 28.1-.1 15.9.2 19.7 2.1 27.2 8.3 32.7 27.5 51.5 54.8 53.5 39.5 2.9 66.5-29.7 66.5-80.2 0-39.4-16.9-69.2-43.9-77.5-7.5-2.4-21.4-3.3-28.8-2zm23.2 26.4c14.3 6.6 21.7 24.7 21.7 53.1 0 16.6-1.9 26.9-6.6 37-6.2 13.2-14.6 18.9-27.6 18.9-15.9 0-26-9.8-31.7-30.4-1.4-5.2-1.8-10.3-1.8-25.5s.4-20.3 1.8-25.5c5.7-20.7 15.5-30 31.7-30 5.8 0 8.7.6 12.5 2.4zm145-25.7c-18.9 4-34.4 18.3-42.4 39.2-4.8 12.7-6.5 22.8-6.5 39.6 0 10.7.5 17.5 1.8 23.5 7.9 37.4 31.4 58.5 63.1 56.8 32.7-1.9 54.2-27.2 58.6-68.9 2.7-26.1-4.1-53.6-17.6-70.8-13.2-16.8-34.9-24.2-57-19.4zm23.3 24.7c6.2 2.2 10.1 5.5 14.4 12 7 10.8 10.5 28.8 9.4 48.1-1.8 33-13.4 49.9-34.1 49.9-21.1 0-32.9-17.7-34.2-51.4-1.2-31.1 7.5-52.9 23.4-58.6 5-1.8 16.1-1.7 21.1 0zm150-25.4c-18.7 3.4-33.4 15-42.3 33.3-18.4 38.2-10.7 91.4 16.7 114.4 10.2 8.6 25.3 13.1 40.3 12 28.3-2 48-22.6 55.7-58.2 1.9-8.9 1.7-36.2-.4-45.5-7.7-35-27.7-55-56.5-56.5-4.8-.2-10.9 0-13.5.5zm23 26.6c13.9 6.9 21.2 25.1 21.2 52.9 0 27.6-7.3 46.1-20.9 52.9-13.5 6.8-28.9 2.7-37.6-9.8-7.9-11.5-11.8-33.7-9.6-54.7 3.1-29.4 14.3-43.8 34.2-43.9 6.1 0 8.5.5 12.7 2.6zm-1287.5-2.9c-12.2 12.6-22.1 23.1-22 23.4.1.4 3.5 4.2 7.6 8.5l7.3 7.9 12.4-12.8c6.8-7 12.6-12.7 12.9-12.7.3 0 .5 26.8.5 59.5v59.5h27v-156h-11.7l-11.8-.1-22.2 22.8zm115.2.3l-23 23 8.1 8 8 8.1 12.7-12.8 12.7-12.8V4252h27v-156h-22.5l-23 23zm542.8-.7c-12.3 12.3-22.3 22.7-22.3 23.3 0 .5 3.4 4.5 7.5 8.9l7.5 8 12.5-13 12.5-13V4252h28l-.2-77.8-.3-77.7-11.5-.3-11.5-.3-22.2 22.4zm115 .4c-12.2 12.6-22.1 23.1-22 23.4.1.4 3.5 4.2 7.6 8.5l7.3 7.8 12.5-12.7c6.8-7 12.6-12.7 12.8-12.7.3 0 .5 26.8.5 59.5v59.5h27v-156h-23.5l-22.2 22.7zm-985.8 210.7c-24.8 5.8-41.9 26.8-47.6 58.6-1.9 10.8-1.7 32.6.5 42.9 5.2 25.2 16.6 42.6 33.5 51.5 26.8 14 59.7 4.8 75.5-21.2 10.2-16.8 15.4-43.8 12.7-65.7-5.1-41.4-26.5-65.8-59.1-67.1-5.9-.2-11.7.1-15.5 1zm26.2 26.2c8.8 4.2 14.5 12.6 18.5 27.2 2.9 10.5 3.1 39 .5 49.7-5.4 21.4-15.9 31.8-32.2 31.8-16.5 0-27.3-10.9-32.2-32.5-2.4-10.3-2.4-37.6 0-47.3 2.2-8.7 5.7-16.5 9.8-21.6 8.1-10.2 22.9-13.3 35.6-7.3zm634.3-23.9c-23.4 3.9-41.8 24-48.5 52.7-9.2 39.7 3.3 82.2 28.9 98.8 14.2 9.2 34.2 11 51.1 4.7 23.9-8.9 39.5-35.7 41.2-70.6 2.1-43.6-17-77.5-47.9-84.8-5.8-1.4-18.9-1.8-24.8-.8zm23.6 26.3c4.9 2.4 11.4 9.1 14.3 14.8 1.1 2.2 3.1 7.6 4.3 11.9 2 6.9 2.3 10 2.3 26.3 0 20.4-1.2 27.5-6.6 38.1-6.1 12.3-12.8 17-25 17.7-9.9.6-15.4-1.3-22-7.5-9.6-8.9-14.1-24.2-14.3-47.8-.1-31.5 8.2-49.4 25.7-55.1 5.5-1.8 15.7-1 21.3 1.6zm375.9-26c-27.6 5.6-45.8 30.7-49.6 68.5-2.8 27.4 5.2 56.8 19.8 72.6 11.8 12.8 24.4 18.3 41.8 18.3 11.3 0 18.7-1.8 27.8-6.7 33.6-17.8 45.4-79.5 23.4-122.2-8-15.4-22.9-27.2-38.5-30.4-6-1.2-18.7-1.3-24.7-.1zm23.8 25.5c9.1 3.8 16.5 14.3 20.3 29 2.8 10.6 2.6 40-.4 50.7-4.1 15.1-11.5 25-20.9 28.2-7 2.4-16.7 2.1-22.8-.8-5.9-2.7-12.9-10-15.6-16.1-6-13.6-8.3-36.1-5.6-54.1 3.4-21.5 10.6-32.8 24-37.6 6-2.2 14.9-1.9 21 .7zm-775.1-2.2c-12.2 12.2-22.2 22.7-22.2 23.2s3.5 4.5 7.7 8.7l7.8 7.8 12.7-13.2 12.7-13.3v60.2l.1 60.3h27v-156h-23.5l-22.3 22.3zm115 .2c-12.2 12.3-22.2 22.8-22.2 23.2 0 .5 3.5 4.4 7.8 8.6l7.9 7.8 12.6-13.3 12.7-13.3V4489h27v-156h-23.7l-22.1 22.5zm380.8-8.8c-7.4 7.6-17.5 17.9-22.3 22.9l-8.9 9.1 7.9 8.3 7.9 8.3 12.7-13.3 12.7-13.3V4489h27v-156h-23.5l-13.5 13.7zm106.4 9.1l-22.1 22.7 7.5 8.3 7.6 8.3 12.8-12.8 12.8-12.8V4489h28v-156l-12.2.1-12.3.1-22.1 22.6z" fill="currentColor"/></svg>
