<svg class="c-coss" xmlns="http://www.w3.org/2000/svg" viewBox="0 0 784 345" width="784pt" height="460"><path d="M121 24.03c12.07.32 24.96 1.98 36.1 6.88 8.21 3.6 15.4 9.14 20.14 16.83 5.11 8.24 6.89 17.67 6.99 27.26.05 10.34.01 20.69.02 31.03-20 11.61-40.04 23.16-60.06 34.75.25-22.91.43-45.88.68-68.8-.05-2.01-.03-3.86-1.28-5.56-1.73-2.26-4.93-2.69-7.59-2.75-2.67.01-5.94.38-7.9 2.42-1.59 1.7-1.55 3.72-1.61 5.91.03 64.65 0 129.34.01 194 .04 2.98-.22 6.08.26 9.03.74 3 3.41 4.3 6.24 4.72 3 .4 6.76.35 9.38-1.38 2.16-1.55 2.47-3.87 2.49-6.35-.1-22.05-.27-44.11-.3-66.16 19.91 12.42 39.74 24.98 59.64 37.4.09 11.92.03 23.83.04 35.75.14 9.09-5.7 17.19-12.25 22.97-9.05 7.78-20.5 12.99-32.01 15.91-12.62 3.2-25.1 3.14-37.99 2.22-11.5-.91-23.6-3.09-34.1-8.02-7.88-3.69-14.82-9.06-19.57-16.43-5.13-7.95-7.15-17.29-7.21-26.66V80c.04-10.99 2.37-22.05 8.64-31.23 6.29-9.26 15.64-15.21 26.05-18.92C90 24.84 106.06 23.72 121 24.03zM306 24.15c12.69.58 26.22 2.61 37.79 8.08 8.53 3.98 15.95 10.02 20.83 18.15 5.39 8.95 7.31 19.28 7.32 29.62 0 62.67-.01 125.33 0 188 .02 9.38-2.24 18.59-7.59 26.37-6.19 9.08-15.81 15.2-25.83 19.3-15.66 6.31-32.79 7.52-49.5 6.8-12.44-.56-25.64-2.4-37.17-7.31-8.73-3.73-16.47-9.33-21.62-17.41-5.16-8.04-7.09-17.3-7.21-26.75-.04-9.01-.02-18.02 0-27.03 9.44 6.71 18.93 13.35 28.41 20.02-3.77-24.99-7.64-49.97-11.47-74.96-.3-2.4-1.1-5.08-.68-7.5 6.59-26.19 13.44-52.44 19.97-78.63-12.1 6.75-24.18 13.54-36.24 20.38 0-14.09-.06-28.19.03-42.28.24-13.24 3.79-26.09 13.11-35.85 9.38-9.86 22.72-14.74 35.85-17.09 11.13-1.98 22.72-2.35 34-1.91zM497.99 24.37c11 .8 22.68 2.99 32.53 8.11 7.49 3.87 13.89 9.62 17.95 17.06 4.49 8.16 5.96 17.24 5.95 26.46-.14 27.19-.33 54.37-.44 81.56-19.66-15.58-39.27-31.23-58.91-46.84-.06-12.9.07-25.83-.06-38.74.01-3.25-1.42-6.18-4.55-7.43-4.67-1.62-10.73-1.3-13.82 3.08-3.38 4.79-3.28 11.79-2.8 17.37.4 5.34.69 10.67 1.05 16.01.47 7.66 4.5 15.08 8.88 21.21 8.09 11.31 18.1 19.34 27.94 29.07 12.11 11.81 24.44 23.71 35.14 36.83 8.39 10.21 12.96 22.65 13.13 35.88.04 13.33.02 26.67.01 40-.18 13.53-3.72 26.78-13.12 36.87-10.05 10.79-24.63 15.81-38.86 18.07-11.22 1.76-22.73 2.01-34.06 1.44-12.43-.72-25.68-2.85-36.95-8.37-8.04-3.91-15-9.72-19.51-17.52-4.71-8.1-6.37-17.21-6.42-26.49-.13-29.23-.28-58.46-.39-87.68 19.93 14.21 39.86 28.42 59.75 42.69.03 15-.01 30.03.02 45.03 0 2.87.69 5.61 2.98 7.52 2.89 2.35 7 2.64 10.57 2.52 3.18-.15 6.52-.89 8.66-3.45 1.82-2.25 1.98-4.83 1.98-7.6-.04-11.02 0-22.04-.02-33.06.02-6.71-2.6-12.92-6.03-18.56-4.66-7.61-10.93-14.48-17.35-20.64-12.44-11.88-24.84-23.84-36.7-36.3-4.69-4.97-9.4-10.03-13.52-15.48-6.24-8.36-9.87-18.52-9.93-28.99-.07-10.67-.01-21.33-.03-32-.03-7.7.74-15.22 3.31-22.52 2.96-8.56 8.4-16.01 15.68-21.39 9.78-7.29 22.03-10.85 33.95-12.6 11.24-1.6 22.68-1.85 33.99-1.12zM660.99 24.49c16.98-1.16 35.98-.75 52.04 5.48 10.52 4.05 19.57 11.19 24.5 21.5 4.41 9.09 5.12 18.57 4.98 28.53.03 24.8.24 49.59.23 74.39-19.9-14.52-39.74-29.11-59.61-43.67-.03-12.57.01-25.16-.02-37.73.03-3.39-.75-6.52-3.99-8.16-4.33-1.92-10.83-1.72-14.01 2.26-3 3.67-3.58 9.35-3.45 13.91.36 6.33.87 12.67 1.21 19.01.33 8.64 4.77 16.56 9.79 23.36 7.19 9.75 15.92 17.08 24.53 25.44 11.35 10.94 22.71 22.01 33.15 33.84 5.49 6.25 10.44 12.67 13.53 20.48 2.99 7.28 4.21 15.03 4.19 22.87-.02 13 .05 26-.04 39-.34 13.21-3.94 26.07-13.13 35.89-9.85 10.57-23.97 15.56-37.9 17.9-11.19 1.86-22.74 2.14-34.06 1.64-12.52-.66-25.82-2.69-37.24-8.11-8.54-4.03-15.91-10.16-20.52-18.49-4.61-8.28-6.09-17.45-6.05-26.83.25-28.9.47-57.8.71-86.7 19.56 15.31 39.22 30.52 58.7 45.92-.08 13.59.01 27.19-.04 40.78.02 3.02.23 5.8 2.45 8.06 2.64 2.59 6.53 3.05 10.06 3.05 3.52-.05 7.28-.62 9.69-3.46 1.84-2.25 1.99-4.85 2.01-7.63-.04-11.01.01-22.03-.02-33.04.01-4.17-1.01-8.21-2.63-12.02-4.11-9.5-11.49-18-18.76-25.25-14.42-13.85-29-27.74-42.59-42.41-5.1-5.61-10.36-11.36-13.9-18.1-3.82-7.12-5.71-15.11-5.67-23.19.03-11.93-.11-23.88.08-35.82.51-13.79 5.08-27.07 15.59-36.4 12.35-11.06 30.1-15.02 46.19-16.3z" fill="#39b54a"/><path class="hole" d="M296.99 64.09c3.17-.05 6.88.3 9.2 2.71 1.95 2.07 1.99 4.52 2.06 7.19-.01 63.34 0 126.67 0 190.01-.1 3.5.36 7.35-.56 10.75-1.2 3.4-4.35 4.73-7.71 5.08-3.57.31-8.48.1-11.15-2.65-1.98-2.05-2.03-4.49-2.09-7.17.02-65.34.02-130.68 0-196.02.08-2.41.04-4.62 1.62-6.61 2.04-2.57 5.54-3.18 8.63-3.29z" fill="#fff"/><path d="M259.25 100.9c-6.53 26.19-13.38 52.44-19.97 78.63-.42 2.42.38 5.1.68 7.5 3.83 24.99 7.7 49.97 11.47 74.96-9.48-6.67-18.97-13.31-28.41-20.02-31.72-22.4-63.52-44.7-95.25-67.09 31.71-17.92 63.52-35.7 95.24-53.6 12.06-6.84 24.14-13.63 36.24-20.38z" fill="#f9ed33"/></svg>
