<svg xmlns="http://www.w3.org/2000/svg" viewBox="0 0 849 575" width="1132" height="575pt"><path d="M748.46 56.65c12.52-2.43 25.7 1 34.7 10.19 14.13 14.3 14.16 40.05.04 54.35-9 9.21-22.42 12.82-34.95 10.25-11.74-2.19-21.84-10.41-26.35-21.46-5.58-13.44-3.73-30.76 6.25-41.72 5.31-6.04 12.45-10.03 20.31-11.61z"/><path d="M378.7 57.81c40.76-.14 81.63-.02 122.4-.06 24.85 70.48 49.74 140.95 74.61 211.42 16.61-47.23 33.35-94.42 49.96-141.66 28.87-.02 57.74-.01 86.61-.01 26.86 76.16 53.81 152.31 80.6 228.49-29.69.03-59.37 0-89.06.01-2.63-10.26-5.2-20.53-7.9-30.76-17.97.03-35.93 0-53.9.01-2.65 10.25-5.24 20.51-7.9 30.75-9.25.01-18.5-.02-27.75.01 2.94 8.42 5.94 16.82 8.88 25.24-41.98.01-83.96-.01-125.94 0-3.79-14.57-7.46-29.18-11.25-43.75-25.47 0-50.95-.01-76.42.01-3.72 14.58-7.46 29.17-11.22 43.74-41.99-.01-83.98.01-125.97-.01 1.86-5.16 3.67-10.33 5.5-15.5-10.86.02-21.73 0-32.59.01-2.92-11.77-6.02-23.49-8.99-35.25-20.5.01-41 0-61.5 0-3.05 11.75-6.01 23.51-9.07 35.26-33.81-.02-67.62 0-101.43-.01 30.58-86.85 61.29-173.65 91.89-260.49 32.89-.03 65.78.01 98.67-.02 19.21 54.27 38.33 108.57 57.5 162.86 12.78-36.38 25.67-72.73 38.48-109.1 11.94-33.67 23.71-67.58 35.79-101.19z" fill="#d41217"/><path d="M748.51 63.81c9.74-2.73 20.5-.2 27.69 6.98 12.85 12.57 12.2 37.1-2.07 48.38-10.89 8.93-28.43 8.08-38.21-2.11-8.85-9.1-10.88-23.98-6.44-35.62 3.11-8.53 10.25-15.22 19.03-17.63z" class="hole" fill="#fff"/><path d="M741.75 73.5c7.02.16 14.18-.41 21.16.41 4.4.61 8.54 2.77 9.88 7.27 1.09 4.03.92 9.48-2.09 12.69-2.2 2.33-5.15 2.84-8.09 3.7 4.04 6.06 7.82 12.3 11.78 18.42-2.73.01-5.47.01-8.2.02-3.69-6-7.25-12.07-10.98-18.03l-6.21.03V116h-7.25V73.5z"/><path d="M749 79.76c3.36 0 6.73-.11 10.09.04 2.42.2 4.91.55 6.42 2.68 1.74 3.2.46 7.65-3.25 8.7-4.22 1.04-8.92.43-13.26.56V79.76zM440.13 162.13c7.61 32.62 15.27 65.26 22.92 97.87-15.21-.01-30.41.01-45.62-.01 7.57-32.62 15.12-65.24 22.7-97.86zM197.8 189.5c6.23 26.15 12.27 52.34 18.43 78.5h-36.64c6.07-26.16 12.1-52.34 18.21-78.5zM669.16 201.38c5.35 23.05 10.78 46.08 16.18 69.11-10.73.02-21.45.02-32.18 0 5.12-22.08 10.23-44.16 15.35-66.24.22-.96.43-1.91.65-2.87z" class="hole" fill="#fff"/><path d="M221 408.49v26.26c3.57-4.36 7.41-8.48 11.09-12.75 2.91 0 5.82 0 8.73.01-3.97 4.47-7.94 8.94-11.96 13.37 4.35 6.33 8.85 12.56 13.22 18.87-2.77 0-5.54 0-8.31.01-3.23-4.57-6.37-9.21-9.56-13.8l-3.18 3.06c-.04 3.58-.03 7.16-.03 10.73h-7.25V408.5c2.42 0 4.83 0 7.25-.01zM357 408.49v45.76h-7.25V408.5c2.42 0 4.83 0 7.25-.01zM604 408.49c2.42.01 4.84.01 7.25.01 0 8.75.01 17.5-.01 26.25 3.58-4.35 7.41-8.48 11.09-12.74 2.92-.01 5.83-.01 8.74 0-3.96 4.46-7.93 8.92-11.94 13.35 4.3 6.36 8.83 12.58 13.22 18.88-2.77.01-5.55.01-8.32.02-3.23-4.58-6.39-9.2-9.59-13.81-1.06 1.04-2.12 2.09-3.18 3.13-.01 3.55-.01 7.11-.01 10.67H604v-45.76zM516.5 408.5h7.25v45.75h-7.25V408.5zM282.35 410.3c2.24-1.23 5.74-.56 6.38 2.21.89 3.1-1.67 5.45-4.72 4.98-3.62-.33-4.48-5.24-1.66-7.19zM638.43 410.46c2.86-1.88 7.14-.15 6.7 3.61-.2 3-3.58 4.16-6.08 3.09-2.56-1.13-2.85-5.1-.62-6.7zM116.25 411h7.5c0 6.74-.01 13.49.01 20.23 5.45-6.85 11.18-13.45 16.75-20.21 3.07-.02 6.13-.02 9.2-.02-5.43 6.35-10.78 12.77-16.14 19.17 5.65 8.04 11.35 16.04 17 24.08-2.96 0-5.93 0-8.89.01-4.38-6.23-8.72-12.5-13.12-18.72-1.58 1.74-3.18 3.45-4.8 5.14-.02 4.53-.01 9.05-.01 13.57h-7.5V411zM460.35 414.35c2.37-.19 4.77-.11 7.15-.11V422h5.75v5.25h-5.75c.18 6.56-.37 13.26.27 19.77.54 2.39 3.99 1.44 5.75 1.75-.01 1.81-.02 3.63-.02 5.45-3.37.39-6.92 1.23-9.97-.74-2.46-1.59-3.18-4.77-3.26-7.51-.09-6.24.02-12.48-.02-18.72H455V422h5.25c0-2.55-.1-5.12.1-7.65zM655.6 414.36c2.37-.21 4.77-.12 7.15-.12V422h5.75v5.25h-5.75c.03 5.6-.05 11.19-.01 16.78.12 1.5-.11 3.4 1.28 4.39 1.53.36 3.2.27 4.76.31-.02 1.82-.03 3.65-.04 5.48-3.39.4-7.08 1.27-10.09-.83-2.45-1.71-3.04-4.73-3.14-7.53-.08-6.19.03-12.4-.01-18.6h-5.25V422h5.24c0-2.54-.09-5.11.11-7.64zM438.75 414.25H446V422h5.75v5.25H446c.17 6.5-.34 13.13.24 19.59.54 2.62 3.86 1.68 5.76 1.85v5.51c-3.27.39-6.72 1.22-9.73-.57-2.7-1.64-3.36-4.64-3.49-7.59-.12-6.26.02-12.53-.03-18.79h-5.25V422h5.25v-7.75zM164.2 422.14c3.59-1.04 7.6-.86 11.06.61 4.47 2.06 7.5 6.46 8.26 11.29.63 5.15.42 10.41-2.64 14.8-4.88 7.44-17.24 7.91-23 1.33-4.02-4.58-4.64-11.18-3.51-16.95 1.09-5.17 4.63-9.63 9.83-11.08zM191.25 422h7.05l-.15 3.48c1.23-1.16 2.49-2.58 4.02-3.32 2.03-.89 3.98-.54 6.14-.52-.1 2.29-.24 4.59-.33 6.88-4.11-.14-6.83-.07-9.56 3.31.17 7.47.05 14.95.08 22.42h-7.25V422zM270.43 425.56c3.69 4.45 3.64 9.45 3.62 14.94-7.09.01-14.19-.02-21.28.02.93 2.92 1.55 5.58 4.47 7.16 4.56 2.37 9 .7 12.59-2.5 1.33 1.21 2.64 2.43 3.94 3.67-6.22 7.9-19.45 8.08-25.31-.27-3.94-5.86-3.58-15.08.19-20.95 4.6-7.16 15.98-8.42 21.78-2.07zM281.25 422h7.25c0 10.75.01 21.5 0 32.25h-7.25V422zM297.75 422h6.74c.01 1.13.02 2.26.02 3.39 3.96-3.22 8.38-4.95 13.48-3.32 4.47 1.3 6.1 5.61 6.23 9.89.11 7.43-.01 14.86.03 22.29H317c-.09-7.41.17-14.84-.1-22.24-.18-3.82-3.52-4.96-6.86-4.42-2.31.32-3.5 1.85-5.09 3.33.11 7.78.02 15.56.05 23.33h-7.25V422zM365.75 422H373c.07 7.02-.14 14.05.07 21.07.14 2.43.77 4.67 3.34 5.47 2.84.76 7.8-.24 8.69-3.51.4-7.64.03-15.37.15-23.03h7.25c0 10.75.01 21.5 0 32.25h-6.7l-.27-2.81c-4.32 3.4-9.9 4.54-14.92 1.96-3.77-2.26-4.6-6.19-4.81-10.3-.16-7.03.01-14.07-.05-21.1zM408.48 422.65c5.49-2.19 12.65-1.41 16.75 3.14 4.45 4.5 4.91 11.29 3.89 17.21-1.1 5.48-5.03 10.09-10.59 11.32-6.79 1.61-14.15-.99-17.14-7.57-3.62-8.05-2-20.41 7.09-24.1zM487.48 422.65c7.26-2.88 15.78-.51 19.3 6.73 2.81 6.14 2.56 15.09-1.89 20.44-6.14 7.45-19.78 6.42-24.18-2.42-4.08-8.01-2.51-21.02 6.77-24.75zM532.5 422h7.25c.07 7.02-.14 14.06.07 21.07.15 2.46.76 4.73 3.38 5.48 2.79.75 7.92-.3 8.66-3.58.37-7.63.02-15.33.14-22.97h7.25v32.25c-2.23 0-4.46 0-6.69.01-.1-.94-.2-1.88-.29-2.82-4.31 3.36-9.73 4.51-14.78 2.06-3.69-2.18-4.68-5.99-4.92-10.01-.2-7.16 0-14.33-.07-21.49zM575.48 422.65c5.51-2.2 12.69-1.4 16.79 3.18 4.41 4.5 4.86 11.27 3.85 17.17-1.1 5.48-5.03 10.08-10.58 11.32-6.8 1.61-14.15-.99-17.15-7.57-3.62-8.05-2-20.41 7.09-24.1zM637.5 422h7.25v32.25h-7.25c-.01-10.75 0-21.5 0-32.25zM675 422h7.25c.16 7.48-.33 15.06.24 22.51.36 6.81 13.06 4.95 12.01-1.47.04-7.01-.03-14.03 0-21.04h7.25v32.25c-2.23 0-4.45 0-6.68.01-.11-.95-.21-1.91-.32-2.86-4.32 3.52-10.07 4.61-15.09 1.88-3.62-2.33-4.39-6.19-4.61-10.22-.14-7.02 0-14.04-.05-21.06zM730.44 423.52c3.22 1.84 4.23 4.78 5.03 8.2-2.33.02-4.67.03-7.01.06-.86-1.38-1.56-3.54-3.18-4.17-2.45-1.17-6.43-.79-8.03 1.62-.42 1.59-.65 3.63 1.2 4.35 4.56 2.23 10.24 1.9 14.48 5.54 4.02 3.67 2.96 10.45-1.55 13.23-5.26 3.5-14.01 3.24-18.94-.8-2.47-1.94-3.22-4.59-4-7.5 2.29-.04 4.58-.05 6.88-.05.87 1.53 1.52 3.54 3.18 4.39 2.54 1.25 6.17 1.29 8.53-.4 1.92-1.17 1.59-4.67-.48-5.58-4.41-2.13-9.55-1.85-13.79-5.13-3.37-2.52-3.94-7.58-1.43-10.9 4.09-5.68 13.43-6.2 19.11-2.86z"/><path d="M165.36 428.33c3.02-1.65 7.28-.89 9.25 2.04 2.42 3.43 2.27 8.68 1.38 12.6-1.02 4.09-4.6 6.52-8.79 5.61-4.05-.81-5.77-4.82-6.06-8.55-.24-4.11.21-9.43 4.22-11.7zM265.29 429.65c1.13 1.54 1.45 3.78 2 5.58-4.81.03-9.62.05-14.43-.03.84-2 1.44-4.71 3.16-6.13 2.51-2.34 7.08-2.08 9.27.58zM411.28 428.24c2.44-1.26 5.63-.96 7.79.72 2.32 2.01 3.16 5.02 3.22 8 .08 3.17-.09 6.59-2.12 9.2-2.68 3.53-8.63 3.47-11.23-.13-2.42-3.21-2.45-8.22-1.66-11.99.44-2.43 1.81-4.6 4-5.8zM490.28 428.24c2.44-1.26 5.63-.96 7.79.72 2.32 2.01 3.16 5.02 3.22 8 .08 3.17-.09 6.59-2.12 9.2-2.68 3.53-8.63 3.47-11.23-.13-2.42-3.21-2.45-8.22-1.66-11.99.44-2.43 1.81-4.6 4-5.8zM578.28 428.24c2.44-1.26 5.63-.96 7.79.72 2.32 2.01 3.16 5.02 3.22 8 .08 3.17-.09 6.59-2.12 9.2-2.68 3.53-8.63 3.47-11.23-.13-2.42-3.21-2.45-8.22-1.66-11.99.44-2.43 1.81-4.59 4-5.8z" class="hole" fill="#fff"/><path d="M272.5 482.66c3.53-1.68 7.47-1.02 10.42 1.46 4.75 4.11 4.51 12.49-.6 16.22-3.88 2.95-9.26 2.43-12.65-1.02-4.81-4.88-3.49-13.76 2.83-16.66zM430.5 483h4.5v37h-4.22l.06-2.64c-3.58 3.02-7.73 4.31-12.12 2.02-5.4-3.3-6.4-10.63-5.39-16.35.8-4.65 3.72-8.86 8.7-9.47 3.4-.55 5.9.93 8.54 2.79-.12-4.44-.07-8.9-.07-13.35z"/><path d="M273.22 484.22c3.72-1.77 8.26-.26 10.33 3.24 2.6 4.22.89 10.38-3.72 12.37-3.67 1.68-8.27.13-10.25-3.37-2.56-4.26-.93-10.16 3.64-12.24z" class="hole" fill="#fff"/><path d="M323.51 484.54c1.72-.32 3.37.52 3.44 2.42.28 2.44-3.23 3.37-4.59 1.81-1.36-1.01-.58-3.99 1.15-4.23zM291.75 485.01c5.67.26 12.02-.76 17.48.9 5.13 1.56 7.02 8.28 4.26 12.6-.93 1.18-2.24 2.15-3.41 3.1 1.95 1.35 3.86 2.28 4.81 4.6 2.12 5.08-.11 11.14-5.46 12.95-5.56 1.59-11.93.56-17.68.84v-34.99zM484.51 485.62c4.8-2.14 12.54-1.51 15.17 3.7 2.25 4.31.69 8.65-1.92 12.34-3.85 5.23-8.67 9.77-13.04 14.58 5.85.02 11.69.01 17.53.01V520c-7.66-.02-15.33.06-22.99-.05.31-1.56.13-3.21 1.21-4.4 4.29-5.06 9.06-9.74 13.24-14.89 2.12-2.75 3.49-5.89 1.88-9.29-1.66-3.65-7.07-3.97-9.99-1.79-1.82 1.32-2.05 3.68-2.73 5.67l-4.43-.03c.7-4.13 2.05-7.71 6.07-9.6zM514.18 485.05c4.17-1.27 9.91-.63 12.42 3.39 3 4.57 2.34 10.37 2.43 15.56.02 4.88-.04 9.75-3.35 13.68-2.95 3.12-8.44 3.49-12.26 2-3.9-1.56-5.55-5.82-6.07-9.69-.56-4.82-.54-10.21-.03-15.03.59-4.3 2.35-8.55 6.86-9.91zM552.51 486.49c4.37 3.34 4.3 9.12 1.58 13.51-3.81 6-9.38 10.94-14.11 16.23 5.84.04 11.68.02 17.52.02V520h-22.74c-.01-1.12-.02-2.23-.04-3.35 3.9-4.41 7.88-8.75 11.83-13.11 1.96-2.23 4.13-4.67 4.86-7.61.43-2.19-.18-4.91-1.96-6.36-2.43-1.89-6.37-1.75-8.76.13-1.64 1.24-1.95 3.71-2.56 5.55-1.48 0-2.96-.01-4.44-.02.53-2.16.85-4.53 2.2-6.36 3.46-5.06 11.81-5.67 16.62-2.38zM579.71 486.29c4.51 3.12 4.71 8.96 2.04 13.41-3.75 6.15-9.5 11.15-14.26 16.53 5.84.03 11.67.02 17.51.02V520c-7.66-.03-15.33.08-22.99-.07.33-1.68.08-3.22 1.31-4.53 4.18-4.83 8.72-9.39 12.81-14.31 2.25-2.82 3.87-5.99 2.27-9.6-1.55-3.68-6.92-4.1-9.89-2.02-2.04 1.4-2.15 3.62-2.89 5.81-1.48-.03-2.96-.05-4.44-.08.59-2.26.88-4.73 2.41-6.59 3.49-4.76 11.36-5.29 16.12-2.32zM275.16 486.13c3.21-.75 7.08 1.35 5.08 5.03-.83-1.17-1.63-2.36-2.43-3.55-1.75.36-3.61.23-4.07 2.4-.63 3.51-.26 6.28 3.95 6.35 1.1-.89 1.78-4.11 3.43-2.27-.46 4.58-6.79 5.29-8.83 1.56-1.33-3.02-1.15-8.63 2.87-9.52z"/><path d="M515.51 488.72c2.14-.81 5.04-.72 6.7 1.05 2.09 2.05 2.27 5.46 2.48 8.21.13 4.14.25 8.4-.41 12.51-.44 2.43-1.31 4.85-3.77 5.89-2.15.72-5 .52-6.59-1.27-2.16-2.44-2.36-5.99-2.44-9.09.02-3.68-.16-7.41.24-11.06.36-2.37 1.28-5.37 3.79-6.24zM296.5 488.75c3.38.07 7.03-.34 10.32.47 4.32 1.23 4.3 8.22.34 9.96-3.15 1.39-7.28.67-10.66.82v-11.25z" class="hole" fill="#fff"/><path d="M322 494h4.5v26H322v-26zM350.24 495.74c2.05 1.55 2.35 3.68 3.12 5.97-1.45.02-2.9.02-4.35.02-.96-1.51-1.66-3.47-3.5-4.11-2.1-.68-5.13-.61-6.72 1.15-1.34 1.39-1.12 3.77.7 4.7 3.42 1.65 8.55 1.83 11.58 4.43 3.41 2.67 2.71 8.16-.67 10.54-4 2.88-10.67 2.76-14.61-.19-2.12-1.46-2.65-3.9-3.58-6.16 1.44-.04 2.88-.08 4.33-.11.88 1.34 1.72 3.42 3.26 4.1 2.38 1.01 5.57 1.04 7.74-.53 1.99-1.18 1.55-4.74-.59-5.57-3.61-1.77-8.35-1.71-11.53-4.42-2.75-2.33-2.46-6.7 0-9.13 3.64-3.77 10.8-3.9 14.82-.69zM359 494c1.41 0 2.82 0 4.23.01l-.09 2.88c2.98-2.38 5.91-4.05 9.91-3.25 3.78.63 5.93 3.52 6.14 7.25.19 6.36-.01 12.74.06 19.11H375c-.03-5.35.06-10.7 0-16.05-.12-2.09-.09-4.53-1.97-5.9-3.45-2.11-9.02-.09-9.69 4.08-.26 5.94 0 11.92-.09 17.87H359v-26zM391.46 494.52c3.93-1.74 9.16-1.35 12.46 1.55 3.2 2.69 4.49 6.84 4.38 10.92.07 3.9-.97 7.71-3.84 10.47-4.97 4.83-14.2 3.92-17.71-2.25-3.77-6.36-2.69-17.29 4.71-20.69zM459.88 497.07c2.61 3.36 2.52 7.13 2.75 11.17-5.98.03-11.97-.03-17.95.04.78 3.43 1.44 6.52 5.08 7.94 4 1.51 7-.16 9.98-2.75.88.75 1.77 1.5 2.65 2.25-2.4 2.41-4.77 4.41-8.33 4.7-5.58.8-11.08-2.2-12.85-7.63-1.56-5.28-.99-12.32 3.21-16.32 4.09-4.05 11.87-4.15 15.46.6z"/><path d="M394.49 497.51c3-.91 6.36.38 7.89 3.13 1.9 3.32 1.88 7.83.67 11.37-1.09 3.28-4.29 5.24-7.71 4.69-3.8-.66-5.85-4.08-6.13-7.69-.38-4.35.4-10.04 5.28-11.5zM422.46 497.49c2.81-.86 6.95.38 7.88 3.42.31 3.82.3 8.4.01 12.22-1.29 3.23-5.55 4.45-8.61 3.11-3.46-1.5-4.37-5.89-4.28-9.29.09-3.67.94-8.26 5-9.46zM456.08 498.89c1.4 1.36 1.72 3.75 2.24 5.58-4.52.05-9.05.04-13.58 0 .6-1.56 1.11-3.29 2.02-4.7 1.98-2.99 6.82-3.43 9.32-.88zM296.5 503.76c3.59.13 7.64-.5 11.1.56 4.66 1.74 4.56 9.37.01 11.27-3.4 1.18-7.54.51-11.11.66v-12.49z" class="hole" fill="#fff"/></svg>
