<svg xmlns="http://www.w3.org/2000/svg" viewBox="0 0 613 222" width="613pt" height="296"><path d="M0 0h15.51c-.11 29.92-.08 59.87-.01 89.79-5.17-.04-10.33-.01-15.5-.02V0zM201.04 8.15c-.01 6.36-.01 12.72-.01 19.09 5.83-.03 11.65.02 17.48-.03-.09 4.42-.07 8.84-.05 13.26-5.91-.04-11.82 0-17.73-.03.12 9.21-.02 18.42.05 27.63.04 3.19 1.36 6.86 4.57 8.1 3.86 1.68 7.77.26 11.51-.98 1.35 4.4 2.86 8.74 4.17 13.14-6.72 2.37-13.93 3.39-20.94 1.71-5.59-1.24-10.23-5.34-12.5-10.55-1.6-3.6-2.09-7.58-2.06-11.49.04-9.18.01-18.37.02-27.55-4.01 0-8.01 0-12.02.03.03-4.43.05-8.85-.04-13.27 4.03.04 8.05.01 12.08.07-.03-5.79-.02-11.58-.02-17.37 5.16-.59 10.33-1.13 15.49-1.76zM326.03 8.14v19.09c9.85.02 19.69-.06 29.54.05-.04-5.79-.01-11.58-.03-17.38 5.18-.53 10.34-1.05 15.49-1.78v19.12c5.82-.02 11.65.01 17.47-.04-.07 4.43-.06 8.84-.03 13.27-5.91-.04-11.83 0-17.74-.03.12 9.2-.02 18.42.05 27.62.08 3.25 1.3 6.79 4.54 8.1 3.89 1.7 7.77.27 11.53-.97 1.36 4.39 2.87 8.74 4.18 13.15-7.69 2.72-17.22 3.83-24.82.33-7.1-3.59-10.45-10.93-10.65-18.63-.05-9.87.01-19.73 0-29.6-9.95.01-19.89.02-29.84 0 .14 9.2-.01 18.42.05 27.62.08 3.25 1.32 6.79 4.56 8.1 4.03 1.71 7.64.27 11.53-.96 1.36 4.39 2.86 8.73 4.16 13.15-6.58 2.29-13.35 3.26-20.25 1.86-4.21-.88-7.82-3.02-10.53-6.36-3.65-4.44-4.76-10.23-4.71-15.85.04-9.19.02-18.37.02-27.56-4.01.01-8.02 0-12.02.03.03-4.43.05-8.85-.03-13.27 4.02.04 8.04.01 12.06.08-.02-5.79 0-11.58-.01-17.37 5.16-.59 10.33-1.12 15.48-1.77zM269.77 24.79c7.45 1.24 14.73 4.96 18.95 11.4 5.44 8 6.22 18.19 5.54 27.58-16.71 0-33.41.02-50.11-.01.98 3.01 1.68 5.83 3.91 8.22 3.35 3.71 8.04 5.48 12.95 5.82 7.17.65 14.09-1.44 19.85-5.71 3.19 3.32 6.44 6.54 9.73 9.78-11.66 10.68-30.61 12.81-44.8 6.32-8.52-3.77-14.13-11.51-16.2-20.45-2.76-12.25-.52-26.3 8.99-35.14 8.4-7.73 20.24-9.59 31.19-7.81zM131.47 25.6c12.08-1.84 25.31 1.97 32.78 12.06 9.48 12.47 8.63 31.99-2.13 43.44-6.51 6.85-15.81 9.89-25.12 9.71-9.58.02-19.35-3.72-25.41-11.34-8.66-10.72-9.41-27.51-2.47-39.28 4.71-8.15 13.14-13.22 22.35-14.59zM425.03 25.2c6.82.13 13.48 2.86 18.01 8.05.54.42 1.08.84 1.63 1.25.17-2.44.37-4.89.54-7.34 4.87.12 9.75.1 14.62 0-.1 20.89-.1 41.79.01 62.68-4.84-.1-9.69-.1-14.53-.01-.13-2.84-.37-5.67-.65-8.49-2.51 2.69-4.78 5.36-8.13 7.06-8.82 4.93-20.05 4.19-29 0-6.67-3.17-11.58-8.95-14.03-15.87-2.61-7.43-3.03-15.88-1.35-23.56 1.48-7.14 5.57-14.01 11.7-18.07 6.01-4.25 13.91-5.94 21.18-5.7zM574.01 25.2c6.83.13 13.51 2.84 18.03 8.06.54.42 1.09.83 1.63 1.24.18-2.45.37-4.9.54-7.35 4.88.12 9.75.11 14.63.02-.11 20.89-.11 41.78 0 62.67-4.84-.1-9.69-.1-14.53-.01-.13-2.84-.38-5.66-.66-8.49-4.36 5.36-9.76 8.9-16.65 10.05-10.69 1.75-23.69-1.96-30.27-11-5.82-7.66-7.25-18.06-6.29-27.4.98-8.08 4.24-15.63 10.68-20.81 6.37-5.19 14.79-7.24 22.89-6.98zM463.87 26.19c5.68.06 11.37.03 17.05.05 3.85 9.71 8.21 19.12 11.64 29.01 2.4 6.17 4.14 12.44 7.05 18.37 4.11-10.04 7.28-20.46 11.47-30.47 2.34-5.63 4.65-11.28 6.96-16.92 5.67-.01 11.35.04 17.03-.06-9.21 21.12-18.06 42.4-27.07 63.6h-16.95c-9.06-21.19-17.97-42.45-27.18-63.58zM29.49 27.21c5.12.04 10.24.06 15.35-.05-.15 10.61-.03 21.23-.08 31.84.04 5.26 1.12 10.36 5.15 14.03 4.05 3.94 10.29 4.53 15.54 3.16 7.35-2.36 11.88-9.6 11.8-17.18-.06-10.62.05-21.23-.09-31.84 5.11.1 10.23.06 15.34.03-.08 20.86-.09 41.73 0 62.59-4.6-.03-9.19-.01-13.79-.02-.32-2.75-.63-5.5-1.04-8.23-2.27 1.73-4.48 3.63-6.89 5.1-9.6 6.15-23.67 5.59-32.27-2.12-6.15-5.85-8.83-14.18-8.97-22.51-.02-11.6.08-23.2-.05-34.8z"/><path d="M272.65 40.39c4.04 2.42 5.81 6.23 6.74 10.69-11.57-.02-23.15.02-34.72-.02 1.46-3.59 2.91-6.9 6.11-9.3 5.81-4.58 15.53-5.09 21.87-1.37zM131.64 39.96c7.12-2.26 15.04-.18 19.54 5.89 5.78 7.69 5.36 19.02-1.27 26.06-6.09 6.07-17.13 6.41-23.73.97-10.26-8.73-7.94-28.54 5.46-32.92zM420.19 40.18c5.79-1.44 12.67-.66 17.34 3.32 8.68 7.04 8.88 22.21.51 29.56-5.56 5.16-14.88 5.63-21.5 2.4-7.26-3.68-10.62-11.57-9.65-19.47.62-7.68 5.81-13.94 13.3-15.81zM569.19 40.18c6.03-1.49 13.16-.59 17.85 3.76 8.36 7.36 8.17 22.52-.51 29.56-5.98 5.04-15.69 5.17-22.27 1.25-6.45-4-9.26-11.37-8.37-18.76.61-7.69 5.81-13.92 13.3-15.81z" class="hole" fill="#fff"/><path d="M600.5 104.61c4-1.28 9.33.57 11.02 4.58 1.08 3.02 1.13 6.91-.84 9.59-3.7 5.27-13.43 4.64-15.79-1.6-2.06-5.12.13-10.98 5.61-12.57zM0 105.24c5.17-.02 10.33.01 15.5-.04-.04 17.4-.16 34.81.06 52.2 7.53-8.11 14.33-16.89 21.65-25.18 6.42.04 12.84-.04 19.25.05-8.89 9.77-17.68 19.57-26.54 29.36 9.98 11.06 20.25 21.88 30.16 33-6.53.26-13.07.1-19.61.15-7.63-9.23-15.81-18.01-23.53-27.17-.5-.24-1-.48-1.49-.73.03 9.31-.06 18.61.05 27.92-5.17-.05-10.33-.02-15.5-.04v-89.52zM192.36 132.8c3.67 2.06 5.99 5.27 7.86 8.95 2.73-3.26 5.16-6.39 8.97-8.49 5.25-2.85 10.99-3.02 16.82-2.6 6.09.62 11.83 2.77 16.02 7.39 4.61 5.41 6.54 12.94 6.73 19.92.07 12.29-.08 24.58.07 36.87-5.11-.12-10.22-.07-15.33-.04.1-10.61.03-21.23.05-31.84-.15-5.04-.34-10.63-3.92-14.58-4.38-4.82-12.03-4.61-16.96-.74-4.4 3.49-5.94 8.92-5.91 14.36.05 10.94-.07 21.89.08 32.84-5.11-.11-10.23-.07-15.34-.04.1-10.61.03-21.23.05-31.84-.07-5.39-.71-10.83-4.62-14.88-4.22-4.44-11.96-4.65-16.48-.59-4.33 3.65-5.72 9.03-5.69 14.5.06 10.95-.07 21.9.08 32.85-5.11-.11-10.23-.08-15.34-.05.09-21.19.09-42.39-.01-63.58 4.71.04 9.42.06 14.13-.06.42 2.38.82 4.79 1.4 7.14 6-8.63 18.46-10.34 27.34-5.49zM330.18 143.78c5.45 8.15 6.79 18.91 4.75 28.37-1.36 6.56-4.53 12.65-9.57 17.11-7.66 7.06-19.62 8.96-29.52 6.63-5.22-1.04-9.24-3.73-13.02-7.36-.1 11.16-.02 22.31-.05 33.47h-15.54c-.05-29.95.09-59.9-.07-89.84 4.83.1 9.67.13 14.51-.02.25 2.55.6 5.08 1 7.61 2.98-2.57 5.43-5.28 9.09-6.94 13.05-6.17 30.59-1.19 38.42 10.97zM413.95 145c6.97 11.72 6.5 28.39-1.36 39.59-5.86 8.26-15.62 12.38-25.59 12.22-8.08.04-15.5-2.38-21.18-8.29-.11 11.16-.02 22.32-.05 33.48h-15.54c-.05-29.94.09-59.9-.07-89.84 4.84.1 9.69.12 14.53-.01.25 2.7.6 5.39.92 8.08 2.67-2.73 4.99-5.42 8.51-7.1 13.59-6.87 32.21-1.37 39.83 11.87zM476.17 132.91c3.4 1.67 5.79 4.21 8.49 6.77.16-2.49.3-4.98.41-7.46 4.92.02 9.85.05 14.77-.06-.12 20.89-.1 41.79-.01 62.68-4.84-.1-9.68-.1-14.52-.03-.13-2.83-.37-5.65-.65-8.47-2.37 2.5-4.43 5.01-7.51 6.7-9.39 5.65-22.29 4.61-31.58-.7-7.95-4.53-12.4-12.73-13.81-21.57-1.47-9.21-.4-20.15 5.15-27.94 4.2-6.35 11.41-10.41 18.78-11.84 6.76-1.37 14.21-1.26 20.48 1.92zM569.81 137.19c5.78 5.54 8.41 13.96 8.64 21.79.05 11.94-.07 23.88.05 35.82-5.11-.04-10.23-.07-15.34.04.15-10.94.03-21.9.08-32.84-.01-5.15-1.3-10.39-5.08-14.09-6.32-6.08-17.88-4.71-22.85 2.45-2.93 4.01-3.83 8.72-3.86 13.6.01 10.28-.04 20.56.05 30.84-5.11-.03-10.23-.08-15.34.03.11-21.22.11-42.45.01-63.66 4.62.1 9.25.06 13.88.06.32 2.7.64 5.4.91 8.1 2.56-1.83 5.03-3.92 7.72-5.53 9.48-5.86 23.21-4.6 31.13 3.39zM595.49 131.21c5.18.05 10.36.01 15.54.02v63.54c-5.17.01-10.35-.03-15.53.03.08-21.2.09-42.4-.01-63.59zM69.5 132.2c5.11.04 10.23.07 15.34-.04-.15 10.28-.01 20.56-.09 30.84-.03 5.09.63 10.17 4.22 14.07 5.68 6.58 17.28 6.27 23.11.03 3.78-3.77 5.24-8.86 5.16-14.1-.05-10.28.06-20.56-.08-30.84 5.11.12 10.22.07 15.33.04-.06 20.86-.08 41.73.01 62.6-4.6-.04-9.19-.02-13.79-.04-.32-2.75-.63-5.49-1.05-8.23-2.07 1.58-4.1 3.31-6.28 4.73-9.66 6.55-24.07 6.13-32.87-1.75-6.15-5.82-8.83-14.19-8.97-22.51-.02-11.6.07-23.2-.04-34.8z"/><path d="M298.51 145.6c5.41-1.1 11.76.23 15.87 4.04 6.9 6 7.67 17.8 2.28 25.01-4.36 5.97-12.66 8.58-19.69 6.34-7.15-2.02-12.13-8.64-12.72-15.96-.75-9.11 4.93-17.93 14.26-19.43zM381.5 145.57c5.42-1.08 11.78.21 15.91 4.04 7.43 6.54 7.79 19.63.9 26.69-5.54 5.86-14.79 7.15-21.85 3.31-7.58-4.12-10.96-13.5-8.51-21.65 1.82-6.52 6.86-11.22 13.55-12.39zM460.19 145.18c5.54-1.38 12.22-.74 16.79 2.94 9.44 6.9 9.57 23.08.55 30.38-5.97 5.03-15.71 5.18-22.27 1.25-6.46-3.99-9.27-11.4-8.36-18.79.59-7.65 5.83-13.92 13.29-15.78z" class="hole" fill="#fff"/></svg>
