<svg aria-hidden="true" class="c-vierityspalkki" xmlns="http://www.w3.org/2000/svg" viewBox="0 0 451 24" width="451pt" height="32"><path d="M.01.86C2.45.78 4.88.74 7.32.73c2.09 4.52 4.11 9.07 6.22 13.57 2.05-4.54 4.01-9.15 6.21-13.63 2.44.06 4.88.11 7.32.19-3.58 7.69-7.37 15.28-11.12 22.89l-4.84-.03C7.32 16.15 3.51 8.57.01.86zM33.7.71c1.98.02 3.95.06 5.93.1.22 7.59.13 15.2.06 22.79-1.97.1-3.93.18-5.9.26-.55-7.63-.35-15.5-.09-23.15zM49.49.85C56.98.68 64.52.7 72.01.84c-.01 1.76-.03 3.52-.05 5.27-5.47.27-10.98.09-16.46.15 0 1.08 0 2.16.01 3.24 3.46.04 6.96-.17 10.41.11 1.36.84.77 3.6.69 4.99-3.5.87-7.5.22-11.11.39v3.51c5.53.02 11.06-.07 16.57.08-.06 1.81-.16 3.62-.37 5.42H49.63c-.29-7.71-.06-15.44-.14-23.15zM81.86.79C87.25.72 92.65.76 98.04.73c2.12.08 4.24-.15 5.95 1.35 2.61 2.06 2.8 6.67 1.62 9.51-1.13 2.45-3.19 2.81-5.48 3.67 2.07 2.68 4.03 5.42 5.88 8.26-2.38.17-4.76.25-7.15.27-2.05-2.95-4.16-5.85-6.25-8.78-1.54 0-3.07-.01-4.61-.01 0 2.85 0 5.71.01 8.56-2.04.12-4.07.18-6.11.22-.26-7.64-.2-15.34-.04-22.99zM116.05.8c1.98-.02 3.97-.01 5.95.02-.01 7.64.02 15.29-.02 22.94-1.99-.03-3.98-.06-5.96-.13-.02-7.61-.07-15.22.03-22.83zM128.23.89c7.97-.32 16.01-.1 23.99-.09 0 1.79-.02 3.57-.06 5.35-2.97.1-5.94.12-8.91.11-.03 5.81.07 11.63-.08 17.45-1.96.02-3.93.03-5.89.03-.06-5.83 0-11.65-.05-17.48-3.06.03-6.12.02-9.18-.22-.02-1.73-.03-3.44.18-5.15zM154.94.87c2.44-.09 4.88-.14 7.32-.18 1.97 2.74 3.82 5.56 5.68 8.37 1.88-2.79 3.73-5.6 5.64-8.38 2.45.04 4.89.1 7.33.21-2.96 4.92-6.58 9.45-9.91 14.13.01 2.89 0 5.78-.03 8.66-1.98.04-3.97.06-5.95.06-.02-2.87-.02-5.74-.02-8.61-3.32-4.77-7.03-9.31-10.06-14.26zM193.91.78c5.36-.1 10.74-.06 16.1.06-.01 1.76-.03 3.52-.05 5.27-4.96.31-9.92-.02-14.88.2-1.86-.07-2.36 2.68-.17 3.07 4.08.44 8.35-.29 12.38.39 6.65.67 6.48 13.27-.12 13.87-6.45.28-12.95.06-19.41.06.04-1.74.08-3.48.13-5.21 5.62-.22 11.56.52 17.08-.41 1.6-.14 1.45-2.67-.25-2.87-4.5-.77-9.69.57-14.02-.86-3.72-1.54-3.78-6.99-2.63-10.18.96-2.55 3.32-3.31 5.84-3.39zM222.01.79c6.01-.03 12.03-.11 18.04-.01 2.89.02 5.33 1.47 5.97 4.4.66 3.3.4 8.05-3.38 9.32-4.68 1.05-9.84.27-14.64.5 0 2.87 0 5.75-.02 8.63-1.98.07-3.97.1-5.96.13-.04-7.66-.02-15.31-.01-22.97zM261.97.79c4.36-.09 8.8-.13 13.16.03 3.38.09 5.52 2.86 5.58 6.1.12 5.58.04 11.18-.04 16.76-1.94.04-3.88.07-5.83.09-.06-2.5-.11-5.01-.11-7.52h-12.45c-.01 2.5-.08 5-.19 7.5-2.02-.01-4.05-.05-6.07-.12.1-5.83-.3-11.74.19-17.55.23-3.11 2.72-5.19 5.76-5.29zM290.53.83c1.99-.04 3.97-.07 5.96-.08.03 5.91 0 11.83.01 17.75 5.55.01 11.1-.03 16.64.03.05 1.88.18 3.68-.53 5.47h-21.87c-.5-7.7-.16-15.46-.21-23.17zM321.01.77c1.98 0 3.96.01 5.94.05.06 3.12.06 6.25.03 9.38 2.8-3.22 5.7-6.37 8.63-9.48 2.55.02 5.11.05 7.66.13-3.01 4.33-7.14 7.48-10.46 11.53 3.48 3.75 7.16 7.31 10.53 11.14-2.61.14-5.49.55-8.08-.01-2.91-2.81-5.49-5.97-8.27-8.91.01 3.01.01 6.02-.01 9.03-1.98.07-3.97.1-5.96.13-.04-7.67-.02-15.33-.01-22.99zM350.81.78c1.96-.01 3.93 0 5.9.04.04 3.11.04 6.22.06 9.33 2.83-3.12 5.75-6.18 8.54-9.35 2.63-.07 5.25-.04 7.89.09-3.21 4.12-7.14 7.67-10.68 11.5 3.66 3.56 7.15 7.29 10.57 11.07-2.6.26-5.2.33-7.82.31-2.86-3.04-5.63-6.14-8.5-9.17-.02 3.04-.02 6.08-.05 9.12-1.96.02-3.92.03-5.88.04-.17-7.66-.11-15.33-.03-22.98zM380.7.71c1.98.02 3.95.06 5.93.1.22 7.59.13 15.2.05 22.79-1.96.1-3.92.18-5.89.26-.55-7.63-.35-15.5-.09-23.15zM414.25.84c7.49-.14 15.02-.17 22.51.01l-.03 5.24c-5.47.32-10.99.1-16.48.17V9.5c3.64.01 7.28 0 10.92-.02.25 1.83.3 3.63.22 5.47-3.71.06-7.42.05-11.13.05.01 2.9-.01 5.81-.09 8.71-1.96.02-3.93.03-5.89.03-.06-7.63-.02-15.27-.03-22.9zM444.7.7c1.6.01 3.21.05 4.82.11l1.48.81v21.75c-2.06.24-4.13.4-6.19.56-.58-7.65-.37-15.56-.11-23.23z" fill="currentColor"/><path d="M88 6.26c3.63.05 7.29-.2 10.91.1 1.67.97 1.93 1.6.3 2.98-3.71.35-7.48.11-11.21.15V6.26zM228 6.26c3.63.05 7.3-.2 10.91.1 1.75 1.02 1.96 1.71.16 3.03-3.67.28-7.39.05-11.07.1V6.26zM273.68 6.4c1.45.85.93 2.86 1.21 4.33-4.22.03-8.44.02-12.66.02-.01-1.3 0-2.6.02-3.9 3.55-1.1 7.74-.61 11.43-.45z" fill="transparent" class="hole"/><path d="M396.66 17.04c2.51-.03 5.03-.04 7.54-.03.31 2.27.29 4.41.04 6.69-2.48.04-4.96.07-7.44.12-.34-2.27-.34-4.49-.14-6.78z" fill="currentColor"/></svg>
