<svg aria-hidden="true" class="c-itewiki" xmlns="http://www.w3.org/2000/svg" viewBox="0 0 800 211" width="150" height="41"><path d="M52.81 0h106.01c-2.33 2.96-5.07 5.47-7.77 8.08-30.8 30.54-62.31 61.89-93.12 92.3C40.34 82.91 23.11 64.99 5.41 47.63c9.29-9.37 18.71-18.85 28.05-28.17C39.99 13.07 46.04 6.2 52.81 0zM163.68 5.62c15.78 15.49 31.34 31.24 47.12 46.74.14 35.53.09 71.08.03 106.61-11.98-11.94-23.63-24.25-35.79-36.01-21.22-21.8-42.89-43.13-64.14-64.91 17.55-17.6 35.25-34.77 52.78-52.43zM659.43 31.19c10.46-.15 20.97-.02 31.44-.06.07 29.54-.12 59.12.1 88.66 8.43-14.8 18.65-28.71 28.08-42.91 12.74 0 25.48-.01 38.21 0-12.19 13.65-24.4 27.36-36.44 41.15 13.87 20.07 27.76 40.16 41.5 60.31-13.04-.08-26.09.12-39.12-.1-7.93-13.88-16.12-27.62-24.23-41.4-2.82 3.24-5.5 6.6-8.13 10 .08 10.49.01 20.99.04 31.48-10.48.05-20.96-.04-31.44.05-.11-49.01-.09-98.18-.01-147.18zM621.48 33.64c4.28-1.19 9.22-1.18 13.41.35 7.34 2.98 11.11 11.49 8.98 19.02-1.79 7.17-8.64 11.64-15.87 11.52-7.53.42-14.84-4.14-16.6-11.69-2.12-8.05 2.02-16.66 10.08-19.2zM778.15 33.36c5.83-1.18 12.41-.74 16.95 3.53 3.09 2.69 4.53 6.25 4.9 10.29v3.65c-.51 2.57-1.1 5.25-2.81 7.32-5 6.76-15.54 8.15-22.7 4.34-5.31-2.77-8.3-8.57-7.89-14.5-.13-6.87 4.89-13.08 11.55-14.63zM256.49 38.68c3.07-.8 6.67-.23 9.36 1.45 5.49 3.39 6.43 12.25 2.33 17.04-3.1 3.6-7.69 4.28-12.19 3.48-4.81-1.07-8.14-5.8-8.15-10.64-.27-5.38 3.38-10.19 8.65-11.33zM311.5 48.94c-.01 9.67.02 19.35-.02 29.02 8.72.1 17.44 0 26.15.06-.01 4.61-.01 9.23 0 13.85-8.72.09-17.46-.14-26.17.12.09 15.33.01 30.67.04 46.01.05 5.78-.34 11.29.91 17 .85 4.25 3.46 8.3 7.73 9.7 4.86 1.36 10.67.38 15.55-.45.15 4.59.65 9.16.78 13.76-6.17 2.13-13 2.59-19.47 2.19-6.56-.43-12.81-3.04-17.04-8.18-5.45-6.08-6.11-15.24-6.45-23.01.01-19.01-.06-38.02.03-57.02-5.17-.24-10.36-.06-15.53-.11C278 87.25 278 82.63 278 78c5.18-.02 10.35.04 15.52-.04-.04-8.05-.01-16.1-.02-24.15 5.08-1.42 10.18-2.74 15.27-4.09l2.73-.78zM0 52.39c12.43 12.09 24.37 24.73 36.83 36.79 7.21 7.78 14.96 15.03 22.27 22.71 13.85 13.66 27.33 27.68 41.14 41.37-7.56 8.11-15.89 15.44-23.49 23.49-9.86 9.66-19.59 19.44-29.43 29.13-8.65-8.75-17.38-17.42-26.07-26.13-6.99-7.11-14.37-13.81-21.25-21.04V52.39zM381.01 76.06c10.41-1.18 20.87.17 29.62 6.29 8.59 5.68 13.59 15.11 16.2 24.83 1.87 8 2.7 16.16 1.31 24.31-23.5.07-47.01-.1-70.5.09.51 8.6 2.11 17.18 7.95 23.85 6.39 7.47 15.81 10.56 25.4 10.83 9.87.24 19.72-1.33 28.81-5.22 1.21 4.32 2.02 8.73 3.28 13.04-8.12 3.69-17.21 5.48-26.08 6-9.55.69-19.62.2-28.58-3.47-9.2-3.68-17.11-10.45-21.8-19.22-5.82-10.55-7.4-23.57-6.05-35.41 1.14-11.37 5.27-22.86 12.86-31.53 6.98-8.04 16.96-13.35 27.58-14.39zM450.32 76.88c10.79.04 21.6-.12 32.39.09 4.52 25.05 10.26 49.96 13.91 75.15 5.04-25.32 12.04-50.27 18.57-75.25 8.29.01 16.59 0 24.89.01 6.25 25 12.93 49.7 17.83 75.02 1.05-7.66 2.38-15.26 3.52-22.9 3.15-17.43 7.42-34.64 10.88-52.01 10.35-.27 20.74-.04 31.1-.12-10.04 33.9-20.69 67.67-31.04 101.48-9.9-.03-19.79-.01-29.69-.02-3.77-13.91-7.68-27.81-11.1-41.81-2.05-8.5-3.45-17.1-5.13-25.67-3.26 22.79-10.46 45.44-16.98 67.54-9.91-.13-19.82-.02-29.73-.06-.84-3.42-1.77-6.8-2.82-10.17-8.85-30.42-17.71-60.86-26.6-91.28zM611.84 76.88c10.56.06 21.14-.15 31.7.11-.11 33.78.02 67.57-.06 101.35-10.55-.02-21.09.01-31.64-.01-.01-33.82-.01-67.63 0-101.45zM767.51 76.88c10.54 0 21.07-.01 31.61 0 .01 33.82.01 67.63 0 101.45-10.54.01-21.07 0-31.61 0-.01-33.82-.01-67.64 0-101.45zM250.17 78.01c6.17-.01 12.34-.02 18.5 0-.08 33.45.14 66.95-.1 100.39-6.14-.14-12.27-.02-18.41-.08.01-33.44.01-66.88.01-100.31z" fill="currentColor"/><path d="M391.03 89.21c5.69.77 10.76 4.06 14.13 8.67 4.24 5.73 5.85 13.44 5.89 20.45-17.74 0-35.48.02-53.22-.01 1.68-9.89 5.01-18.99 13.41-25.08 5.79-4.26 12.82-5.06 19.79-4.03z" fill="transparent" class="hole"/><path d="M153.19 111c17.37 17.73 35.07 35.07 52.33 52.92-10.17 10.68-20.9 20.84-31.12 31.48-5.28 5.17-10.37 10.56-15.77 15.6H52.3c11.28-10.93 22.39-22.09 33.45-33.25 13.37-12.97 26.53-26.13 39.72-39.28 9.11-9.3 18.65-18.12 27.72-27.47z" fill="currentColor"/></svg>
