<svg xmlns="http://www.w3.org/2000/svg" width="1132" height="766.987" viewBox="0 0 1132 766.98669"><path d="M7854.82 4818.68c0-186.08-128.2-314.32-291-314.32-181.08 0-292.96 141.48-292.96 314.32 0 185.18 128.24 314.19 292.96 314.19 162.8 0 291-129.01 291-314.19m81.25 0c0 228.95-172.93 380.38-372.25 380.38-201.42 0-374.34-151.43-374.34-380.38 0-216.65 155.65-380.41 374.34-380.41 199.32 0 372.25 151.54 372.25 380.41m-447.39 21.4v123.11h83.39c41.76 0 91.5-6.24 91.5-57 0-61.07-45.78-66.11-97.74-66.11zm0-59.01h64.93l108.83-180.02h78.23l-117.72 185.27c63.09 6.96 109.65 38.51 109.65 114.87 0 85.22-51.75 120.85-153.46 120.85h-159.58v-420.99h69.12v180.02" transform="matrix(.13333 0 0 -.13333 0 766.987)"/><path d="m1286.48 1403.31-49.15-52.11v-135.23h-75.35v433.67h75.35v-203.43l41.7 51.53 126.89 151.9h91.14l-161.14-192.11 170.37-241.56h-89.35l-130.46 187.34M1610.53 1373.83c0-33.16 6.85-59.12 20.55-77.89 13.71-18.76 32.77-28.14 57.19-28.14 24.43 0 43.44 9.53 57.04 28.59 13.6 19.06 20.4 46.96 20.4 83.7 0 32.56-6.99 58.38-21 77.44-13.99 19.07-33.01 28.6-57.03 28.6-23.64 0-42.4-9.39-56.3-28.16-13.9-18.76-20.85-46.8-20.85-84.14zm-72.38 6.26c0 31.56 6.26 60.01 18.77 85.33s30.08 44.78 52.72 58.38c22.64 13.6 48.65 20.4 78.04 20.4 43.48 0 78.78-13.99 105.88-42 27.11-27.99 41.75-65.13 43.94-111.39l.29-16.98c0-31.77-6.11-60.16-18.31-85.18-12.22-25.02-29.69-44.38-52.42-58.09-22.74-13.69-49-20.55-78.79-20.55-45.47 0-81.86 15.14-109.16 45.42-27.3 30.29-40.96 70.65-40.96 121.09v3.57M2079.93 1472.12c-9.53 1.6-19.36 2.39-29.49 2.39-33.16 0-55.5-12.71-67.01-38.13v-220.41h-72.38v322.28h69.1l1.79-36.05c17.47 28.01 41.7 42 72.67 42 10.33 0 18.87-1.38 25.62-4.17l-.3-67.91M2242.55 1354.17l-32.17-33.06v-105.14H2138v457.5h72.38v-263.9l22.64 28.3 89.06 100.38h86.97l-119.74-134.33 132.55-187.95h-83.7l-95.61 138.2M2601.74 1486.13c-19.86 0-35.88-6.96-48.11-20.86-12.2-13.9-20-33.25-23.38-58.08h137.91v5.36c-1.59 24.23-8.04 42.54-19.35 54.95-11.33 12.42-27.01 18.63-47.07 18.63zm8.64-276.12c-45.87 0-83.06 14.45-111.55 43.34-28.49 28.89-42.74 67.37-42.74 115.41v8.95c0 32.17 6.21 60.91 18.62 86.22 12.41 25.32 29.83 45.03 52.27 59.13 22.43 14.09 47.45 21.14 75.06 21.14 43.88 0 77.78-13.99 101.71-42 23.94-27.99 35.9-67.61 35.9-118.84v-29.19h-210.59c2.19-26.61 11.08-47.65 26.66-63.14 15.59-15.49 35.2-23.23 58.83-23.23 33.16 0 60.17 13.41 81.02 40.2l39.02-37.22c-12.91-19.26-30.14-34.21-51.68-44.83-21.54-10.62-45.72-15.94-72.53-15.94M2884.99 1215.97h-72.37v322.28h72.37zm-76.85 406.27c0 11.2 3.53 20.51 10.57 27.91 7.05 7.4 17.13 11.11 30.24 11.11 13.1 0 23.24-3.71 30.39-11.11 7.14-7.4 10.72-16.71 10.72-27.91 0-11.02-3.58-20.17-10.72-27.47-7.15-7.3-17.29-10.95-30.39-10.95-13.11 0-23.19 3.65-30.24 10.95-7.04 7.3-10.57 16.45-10.57 27.47M3043.13 1538.25l2.08-37.24c23.83 28.8 55.11 43.19 93.83 43.19 67.11 0 101.27-38.42 102.46-115.26v-212.97h-72.38v208.79c0 20.46-4.41 35.6-13.25 45.43-8.84 9.82-23.28 14.75-43.33 14.75-29.2 0-50.94-13.22-65.24-39.62v-229.35h-72.38v322.28h68.21M3568.52 1215.97h-72.38v457.5h72.38v-457.5M3854.75 1247.54c-21.25-25.02-51.43-37.53-90.55-37.53-34.95 0-61.41 10.23-79.38 30.69-17.96 20.45-26.95 50.04-26.95 88.75v208.8h72.37v-207.9c0-40.91 16.99-61.36 50.93-61.36 35.16 0 58.88 12.61 71.19 37.82v231.44h72.39v-322.28h-68.22l-1.78 31.57M4069.49 1373.83c0-33.16 6.85-59.12 20.55-77.89 13.7-18.76 32.76-28.14 57.19-28.14 24.42 0 43.43 9.53 57.03 28.59 13.61 19.06 20.41 46.96 20.41 83.7 0 32.56-6.99 58.38-21 77.44-14 19.07-33.02 28.6-57.04 28.6-23.63 0-42.39-9.39-56.3-28.16-13.89-18.76-20.84-46.8-20.84-84.14zm-72.38 6.26c0 31.56 6.25 60.01 18.77 85.33 12.5 25.32 30.08 44.78 52.71 58.38 22.64 13.6 48.66 20.4 78.04 20.4 43.49 0 78.78-13.99 105.89-42 27.11-27.99 41.74-65.13 43.93-111.39l.3-16.98c0-31.77-6.11-60.16-18.31-85.18-12.23-25.02-29.69-44.38-52.42-58.09-22.75-13.69-49.01-20.55-78.79-20.55-45.47 0-81.86 15.14-109.16 45.42-27.31 30.29-40.96 70.65-40.96 121.09v3.57M4460.85 1616.58v-78.33h56.88v-53.62h-56.88v-179.9c0-12.31 2.43-21.2 7.29-26.66 4.87-5.46 13.56-8.19 26.07-8.19 8.34 0 16.78.99 25.32 2.99v-56c-16.48-4.57-32.37-6.86-47.65-6.86-55.61 0-83.4 30.69-83.4 92.04v182.58h-53.03v53.62h53.03v78.33h72.37M4675.89 1616.58v-78.33h56.88v-53.62h-56.88v-179.9c0-12.31 2.43-21.2 7.29-26.66 4.87-5.46 13.56-8.19 26.07-8.19 8.34 0 16.78.99 25.32 2.99v-56c-16.48-4.57-32.37-6.86-47.66-6.86-55.6 0-83.39 30.69-83.39 92.04v182.58h-53.03v53.62h53.03v78.33h72.37M4859.05 1373.83c0-33.16 6.85-59.12 20.56-77.89 13.69-18.76 32.75-28.14 57.19-28.14 24.41 0 43.43 9.53 57.03 28.59 13.6 19.06 20.41 46.96 20.41 83.7 0 32.56-7 58.38-21.01 77.44-13.99 19.07-33.02 28.6-57.04 28.6-23.63 0-42.39-9.39-56.29-28.16-13.9-18.76-20.85-46.8-20.85-84.14zm-72.37 6.26c0 31.56 6.25 60.01 18.76 85.33 12.51 25.32 30.09 44.78 52.72 58.38 22.64 13.6 48.65 20.4 78.03 20.4 43.5 0 78.79-13.99 105.89-42 27.11-27.99 41.75-65.13 43.94-111.39l.29-16.98c0-31.77-6.1-60.16-18.31-85.18-12.22-25.02-29.69-44.38-52.42-58.09-22.75-13.69-49-20.55-78.78-20.55-45.48 0-81.87 15.14-109.17 45.42-27.3 30.29-40.95 70.65-40.95 121.09v3.57M5236.72 1215.97h-72.38v457.5h72.38v-457.5M5522.94 1247.54c-21.25-25.02-51.44-37.53-90.55-37.53-34.95 0-61.4 10.23-79.37 30.69-17.98 20.45-26.97 50.04-26.97 88.75v208.8h72.39v-207.9c0-40.91 16.97-61.36 50.94-61.36 35.13 0 58.86 12.61 71.18 37.82v231.44h72.38v-322.28h-68.21l-1.79 31.57M5737.68 1373.83c0-33.16 6.85-59.12 20.56-77.89 13.69-18.76 32.76-28.14 57.19-28.14 24.41 0 43.43 9.53 57.03 28.59 13.6 19.06 20.41 46.96 20.41 83.7 0 32.56-7 58.38-21.01 77.44-13.99 19.07-33 28.6-57.04 28.6-23.62 0-42.39-9.39-56.29-28.16-13.89-18.76-20.85-46.8-20.85-84.14zm-72.37 6.26c0 31.56 6.25 60.01 18.76 85.33 12.51 25.32 30.09 44.78 52.73 58.38 22.63 13.6 48.64 20.4 78.02 20.4 43.5 0 78.79-13.99 105.89-42 27.11-27.99 41.75-65.13 43.94-111.39l.29-16.98c0-31.77-6.1-60.16-18.31-85.18-12.22-25.02-29.69-44.38-52.42-58.09-22.75-13.69-49-20.55-78.78-20.55-45.48 0-81.87 15.14-109.17 45.42-27.3 30.29-40.95 70.65-40.95 121.09v3.57M6143.05 1354.17l-32.17-33.06v-105.14h-72.38v457.5h72.38v-263.9l22.64 28.3 89.06 100.38h86.97l-119.75-134.33 132.55-187.95h-83.7l-95.6 138.2M6445.96 1215.97h-72.39v322.28h72.39zm-76.86 406.27c0 11.2 3.53 20.51 10.58 27.91 7.05 7.4 17.13 11.11 30.23 11.11 13.11 0 23.23-3.71 30.38-11.11 7.15-7.4 10.73-16.71 10.73-27.91 0-11.02-3.58-20.17-10.73-27.47-7.15-7.3-17.27-10.95-30.38-10.95-13.1 0-23.18 3.65-30.23 10.95-7.05 7.3-10.58 16.45-10.58 27.47M6627.62 1616.58v-78.33h56.89v-53.62h-56.89v-179.9c0-12.31 2.43-21.2 7.3-26.66 4.86-5.46 13.56-8.19 26.06-8.19 8.34 0 16.78.99 25.32 2.99v-56c-16.49-4.57-32.37-6.86-47.66-6.86-55.59 0-83.4 30.69-83.4 92.04v182.58h-53.01v53.62h53.01v78.33h72.38M6947.21 1247.54c-21.25-25.02-51.43-37.53-90.55-37.53-34.95 0-61.41 10.23-79.38 30.69-17.97 20.45-26.95 50.04-26.95 88.75v208.8h72.37v-207.9c0-40.91 16.99-61.36 50.93-61.36 35.16 0 58.88 12.61 71.19 37.82v231.44h72.39v-322.28h-68.22l-1.78 31.57M7283.77 1303.54c0 12.91-5.32 22.73-15.94 29.48-10.62 6.76-28.25 12.72-52.87 17.87-24.62 5.17-45.18 11.72-61.66 19.67-36.13 17.47-54.2 42.78-54.2 75.95 0 27.8 11.71 51.03 35.14 69.7 23.44 18.66 53.22 27.99 89.35 27.99 38.53 0 69.65-9.53 93.38-28.59 23.73-19.06 35.6-43.78 35.6-74.17h-72.38c0 13.91-5.16 25.47-15.48 34.71-10.34 9.23-24.04 13.84-41.12 13.84-15.88 0-28.83-3.67-38.86-11.01-10.03-7.35-15.04-17.18-15.04-29.49 0-11.13 4.66-19.76 14-25.92 9.33-6.15 28.19-12.35 56.58-18.61 28.4-6.25 50.69-13.71 66.88-22.34 16.18-8.64 28.19-19.01 36.03-31.12 7.84-12.12 11.77-26.82 11.77-44.08 0-29-12.01-52.48-36.04-70.45-24.03-17.97-55.5-26.96-94.42-26.96-26.4 0-49.94 4.77-70.58 14.3-20.66 9.53-36.74 22.64-48.27 39.32-11.51 16.68-17.26 34.65-17.26 53.9h70.29c.99-17.07 7.44-30.22 19.36-39.46 11.91-9.23 27.69-13.85 47.36-13.85 19.06 0 33.55 3.63 43.48 10.87 9.93 7.25 14.9 16.73 14.9 28.45" transform="matrix(.13333 0 0 -.13333 0 766.987)"/><path d="M4400.18 5180.54h-612.49L2647 1948.18h1256.22l112.29 437.87h766.31l112.28-437.87h1256.27L5009.61 5180.54h-612.32zm-228-2023.9 228.99 987.55 231.37-987.55z" transform="matrix(.13333 0 0 -.13333 0 766.987)"/><path d="M1977.33 4706.23h-493.05L565.988 2103.95H1577.26l90.41 352.51h616.93l90.37-352.51h1011.34l-918.25 2602.28h-493.08zM1793.81 3076.9l184.3 795.08 186.25-795.08zM6690.84 4483.1h-432.65l-805.96-2283.73h887.56l79.31 309.39h541.49l79.23-309.39h887.61L7121.54 4483.1h-432.62zm-161-1429.88 161.69 697.76 163.56-697.76z" transform="matrix(.13333 0 0 -.13333 0 766.987)"/><path d="M1838.81 820.191c0-14.039-3.97-24.761-11.91-32.152-7.94-7.391-19.16-11.078-33.67-11.078-14.4 0-25.94 4.84-34.63 14.531-8.67 9.68-13 22.867-13 39.578v15.149c0 16.16 4.38 29.082 13.15 38.75 8.76 9.691 20.25 14.543 34.48 14.543 14.69 0 25.98-3.77 33.88-11.293 7.89-7.528 11.85-18.137 11.85-31.809h-20.11c0 9.129-2.18 15.66-6.55 19.59-4.35 3.922-10.71 5.879-19.07 5.879-8.62 0-15.42-3.168-20.37-9.527-4.96-6.364-7.44-15.2-7.44-26.532v-15.601c0-11.047 2.48-19.758 7.44-26.098 4.95-6.359 11.75-9.539 20.37-9.539 8.45 0 14.81 1.938 19.07 5.809 4.27 3.879 6.41 10.48 6.41 19.8zm-125.7 18.25c0-15.781 3.66-30.382 11-43.832 7.35-13.429 17.34-23.949 29.95-31.57 12.62-7.609 26.28-11.41 40.97-11.41 14.69 0 28.31 3.801 40.89 11.41 12.58 7.621 22.54 18.141 29.88 31.57 7.34 13.45 11.02 28.051 11.02 43.832 0 15.59-3.63 30.028-10.88 43.329-7.26 13.3-17.19 23.781-29.81 31.449-12.62 7.652-26.33 11.48-41.1 11.48-14.69 0-28.37-3.777-41.04-11.347-12.66-7.563-22.64-18.043-29.95-31.442-7.29-13.39-10.93-27.879-10.93-43.469zm-15.84-.07c0 18.539 4.28 35.758 12.87 51.629 8.58 15.879 20.47 28.391 35.66 37.52 15.2 9.128 31.6 13.699 49.23 13.699 17.63 0 34-4.571 49.15-13.699 15.15-9.129 27.01-21.641 35.6-37.52 8.58-15.871 12.87-33.09 12.87-51.629 0-18.082-4.13-35.031-12.4-50.812-8.26-15.789-19.98-28.477-35.17-38.067-15.2-9.59-31.88-14.39-50.05-14.39-18.09 0-34.73 4.75-49.91 14.25-15.2 9.5-26.98 22.148-35.33 37.937-8.34 15.781-12.52 32.813-12.52 51.082M1992.92 871.012V596.941h48.48c35.51 0 63.15 11.039 82.91 33.141 19.75 22.098 29.64 53.57 29.64 94.41v20.418c0 39.699-9.32 70.57-27.96 92.582-18.64 22.028-45.08 33.199-79.32 33.52zm-46.08-311.75v349.429h98.63c30.4 0 57.27-6.722 80.64-20.16 23.35-13.441 41.4-32.562 54.11-57.359 12.73-24.801 19.16-53.281 19.32-85.43V723.41c0-32.961-6.36-61.828-19.07-86.629-12.73-24.801-30.88-43.84-54.48-57.121-23.6-13.281-51.08-20.078-82.44-20.398h-96.71M2422.49 584.949c-17.28-20.328-42.64-30.48-76.07-30.48-27.68 0-48.76 8.031-63.24 24.113-14.48 16.078-21.8 39.879-21.96 71.387V818.93h44.41V651.18c0-39.36 15.99-59.039 47.99-59.039 33.92 0 56.48 12.64 67.68 37.922V818.93h44.39V559.262h-42.23l-.97 25.687M2575.13 818.93l1.44-32.641c19.84 24.961 45.75 37.441 77.76 37.441 54.87 0 82.55-30.96 83.03-92.878v-171.59h-44.4v171.84c-.16 18.707-4.43 32.55-12.83 41.507-8.41 8.961-21.49 13.442-39.24 13.442-14.41 0-27.04-3.84-37.92-11.512-10.89-7.687-19.37-17.769-25.44-30.25V559.262h-44.4V818.93h42M2989.59 829.969c0-15.36 9.43-34.559 28.32-57.598l28.31 19.918c10.88 7.68 18.32 15 22.32 21.961 4 6.961 6 15.391 6 25.309 0 10.73-3.99 19.64-11.99 26.773-8.01 7.109-18.09 10.68-30.25 10.68-13.11 0-23.51-4.453-31.2-13.321-7.67-8.882-11.51-20.121-11.51-33.722zm40.08-239.27c23.51 0 45.03 8.961 64.55 26.883l-85.2 101.988-7.92-5.761c-26.72-19.68-40.07-39.918-40.07-60.707 0-18.891 6.12-34 18.35-45.364 12.25-11.359 29.01-17.039 50.29-17.039zm-113.04 62.403c0 16.8 4.68 32.238 14.04 46.32 9.36 14.066 27.24 30.48 53.64 49.199-15.52 18.871-25.92 34.07-31.2 45.59-5.28 11.519-7.92 22.961-7.92 34.32 0 26.551 7.84 47.348 23.52 62.391 15.67 15.039 36.95 22.566 63.84 22.566 23.99 0 43.83-6.996 59.51-21.008 15.68-14 23.53-31.64 23.53-52.921 0-14.067-3.57-27.079-10.69-38.989-7.12-11.918-19.56-24.441-37.31-37.558l-25.69-18.953 77.76-92.879c10.88 20.8 16.32 43.91 16.32 69.351h40.08c0-40.793-9.84-74.629-29.52-101.511l49.92-59.758h-53.28l-23.28 27.597c-11.84-10.558-25.72-18.589-41.64-24.121-15.92-5.519-32.12-8.269-48.59-8.269-34.08 0-61.44 9.031-82.08 27.113-20.64 18.078-30.96 41.918-30.96 71.52M3406.21 722.691v-125.75h76.08c21.43 0 38.35 5.551 50.75 16.68 12.4 11.117 18.6 26.43 18.6 45.949 0 42.078-22.88 63.121-68.64 63.121zm0 36.961h69.59c20.17 0 36.28 5.047 48.36 15.149 12.08 10.109 18.12 23.82 18.12 41.129 0 19.242-5.6 33.23-16.8 41.961-11.2 8.738-28.24 13.121-51.11 13.121h-68.16zm-46.08-200.39v349.429h114.24c37.92 0 66.43-7.851 85.55-23.519 19.11-15.68 28.67-38.883 28.67-69.602 0-16.32-4.63-30.761-13.91-43.32-9.28-12.559-21.93-22.281-37.92-29.16 18.87-5.27 33.8-15.32 44.75-30.121 10.96-14.789 16.45-32.438 16.45-52.918 0-31.352-10.17-55.992-30.48-73.91-20.32-17.922-49.04-26.879-86.16-26.879h-121.19M3784.67 779.102c-6.72 1.109-14.01 1.679-21.84 1.679-29.12 0-48.87-12.41-59.28-37.199v-184.32h-44.4V818.93h43.2l.73-30c14.55 23.191 35.19 34.8 61.91 34.8 8.64 0 15.2-1.121 19.68-3.359v-41.269M3912.1 593.102c13.92 0 27.12 3.597 39.6 10.796 12.48 7.204 21.51 16.563 27.12 28.082v53.282h-34.81c-54.39 0-81.59-15.93-81.59-47.77 0-13.91 4.64-24.793 13.92-32.633 9.28-7.839 21.2-11.757 35.76-11.757zm73.67-33.84c-2.56 5.117-4.64 14.238-6.23 27.367-20.64-21.449-45.28-32.16-73.92-32.16-25.6 0-46.6 7.23-62.99 21.722-16.41 14.469-24.6 32.829-24.6 55.059 0 27.051 10.27 48.039 30.84 63 20.55 14.961 49.47 22.441 86.75 22.441h43.2v20.399c0 15.519-4.65 27.879-13.93 37.082-9.27 9.199-22.96 13.797-41.03 13.797-15.84 0-29.12-4-39.84-12-10.72-8-16.08-17.668-16.08-29.028h-44.64c0 12.961 4.6 25.469 13.8 37.559 9.2 12.07 21.68 21.629 37.44 28.672 15.76 7.039 33.08 10.558 51.96 10.558 29.92 0 53.35-7.488 70.32-22.441 16.95-14.957 25.76-35.559 26.39-61.789V619.969c0-23.828 3.04-42.789 9.12-56.867v-3.84h-46.56M4126.41 686.219c0-29.449 6.07-52.489 18.24-69.117 12.16-16.653 28.95-24.961 50.39-24.961 28.16 0 48.72 12.64 61.68 37.922v119.269c-13.28 24.477-33.68 36.719-61.19 36.719-21.77 0-38.72-8.403-50.88-25.199-12.17-16.793-18.24-41.68-18.24-74.633zm-44.4 5.031c0 39.852 9.44 71.879 28.31 96.121 18.88 24.238 43.61 36.359 74.16 36.359 30.4 0 54.48-10.41 72.24-31.199v135.348h44.39V559.262h-40.79l-2.16 27.84c-17.76-21.762-42.48-32.633-74.16-32.633-30.07 0-54.6 12.312-73.55 36.953-18.97 24.637-28.44 56.797-28.44 96.469v3.359M4521.19 628.141c0 12-4.52 21.32-13.56 27.961-9.05 6.64-24.8 12.359-47.28 17.16-22.48 4.797-40.32 10.547-53.51 17.269-13.21 6.731-22.96 14.731-29.28 24.008-6.33 9.27-9.48 20.313-9.48 33.109 0 21.282 8.99 39.282 27 54 18 14.723 40.99 22.082 68.99 22.082 29.44 0 53.31-7.601 71.63-22.8 18.32-15.2 27.48-34.641 27.48-58.321h-44.64c0 12.161-5.15 22.641-15.47 31.45-10.32 8.793-23.32 13.191-39 13.191-16.16 0-28.8-3.52-37.92-10.559-9.12-7.039-13.68-16.242-13.68-27.589 0-10.731 4.24-18.813 12.73-24.243 8.47-5.437 23.78-10.648 45.95-15.609 22.16-4.961 40.12-10.879 53.88-17.75 13.76-6.891 23.95-15.168 30.6-24.852 6.64-9.668 9.96-21.468 9.96-35.398 0-23.191-9.28-41.789-27.85-55.789-18.55-14-42.63-20.992-72.23-20.992-20.8 0-39.2 3.679-55.2 11.031-15.99 7.359-28.52 17.641-37.56 30.84-9.04 13.199-13.55 27.48-13.55 42.832h44.39c.8-14.871 6.76-26.68 17.88-35.391 11.12-8.73 25.81-13.082 44.04-13.082 16.8 0 30.28 3.403 40.44 10.203 10.15 6.797 15.24 15.879 15.24 27.239M4683.66 881.809V818.93h48.48v-34.321h-48.48V623.371c0-10.41 2.16-18.223 6.48-23.422 4.32-5.211 11.68-7.808 22.08-7.808 5.11 0 12.16.961 21.12 2.879v-35.79c-11.68-3.179-23.04-4.761-34.08-4.761-19.85 0-34.8 5.992-44.88 18-10.08 11.992-15.12 29.031-15.12 51.113v161.027h-47.28v34.321h47.28v62.879h44.4M4909.49 779.102c-6.72 1.109-14 1.679-21.83 1.679-29.12 0-48.88-12.41-59.28-37.199v-184.32h-44.41V818.93h43.21l.72-30c14.55 23.191 35.2 34.8 61.91 34.8 8.65 0 15.2-1.121 19.68-3.359v-41.269M5052.52 787.25c-17.92 0-32.96-6.52-45.12-19.559-12.16-13.039-19.68-31.32-22.56-54.832h130.08v3.36c-1.28 22.551-7.36 40.031-18.24 52.441-10.88 12.391-25.6 18.59-44.16 18.59zm5.53-232.781c-35.21 0-63.84 11.551-85.92 34.672-22.08 23.121-33.13 54.039-33.13 92.757v8.153c0 25.758 4.93 48.758 14.77 69.008 9.83 20.23 23.59 36.07 41.28 47.511 17.67 11.442 36.83 17.16 57.47 17.16 33.76 0 60-11.121 78.72-33.351 18.72-22.25 28.08-54.09 28.08-95.52v-18.48h-175.91c.63-25.598 8.11-46.289 22.44-62.039 14.32-15.758 32.51-23.641 54.59-23.641 15.68 0 28.95 3.199 39.84 9.602 10.88 6.39 20.4 14.879 28.56 25.441l27.12-21.121c-21.76-33.441-54.4-50.152-97.91-50.152M5312.91 787.25c-17.92 0-32.96-6.52-45.12-19.559-12.16-13.039-19.67-31.32-22.56-54.832h130.08v3.36c-1.28 22.551-7.36 40.031-18.24 52.441-10.88 12.391-25.6 18.59-44.16 18.59zm5.53-232.781c-35.21 0-63.84 11.551-85.92 34.672-22.08 23.121-33.13 54.039-33.13 92.757v8.153c0 25.758 4.93 48.758 14.77 69.008 9.83 20.23 23.59 36.07 41.28 47.511 17.68 11.442 36.84 17.16 57.47 17.16 33.76 0 60-11.121 78.72-33.351 18.72-22.25 28.08-54.09 28.08-95.52v-18.48H5243.8c.63-25.598 8.11-46.289 22.44-62.039 14.32-15.758 32.51-23.641 54.59-23.641 15.68 0 28.96 3.199 39.84 9.602 10.88 6.39 20.4 14.879 28.56 25.441l27.12-21.121c-21.76-33.441-54.4-50.152-97.91-50.152M5531.31 881.809V818.93h48.48v-34.321h-48.48V623.371c0-10.41 2.16-18.223 6.47-23.422 4.33-5.211 11.68-7.808 22.08-7.808 5.12 0 12.16.961 21.13 2.879v-35.79c-11.68-3.179-23.04-4.761-34.09-4.761-19.84 0-34.79 5.992-44.87 18-10.09 11.992-15.13 29.031-15.13 51.113v161.027h-47.27v34.321h47.27v62.879h44.41M5977.68 559.262h-228.94v31.918l120.95 134.39c17.92 20.321 30.28 36.852 37.08 49.559 6.79 12.73 10.2 25.883 10.2 39.48 0 18.243-5.53 33.2-16.56 44.883-11.05 11.68-25.76 17.52-44.16 17.52-22.08 0-39.24-6.282-51.48-18.84-12.24-12.563-18.35-30.043-18.35-52.442h-44.41c0 32.149 10.36 58.161 31.09 77.989 20.71 19.84 48.43 29.769 83.15 29.769 32.48 0 58.15-8.519 77.04-25.566 18.88-17.043 28.31-39.711 28.31-68.031 0-34.399-21.91-75.352-65.75-122.871l-93.59-101.52h175.42v-36.238M6199.43 769.012c0 37.597-5.28 65-15.84 82.199-10.55 17.191-27.27 25.801-50.15 25.801-22.73 0-39.28-8.563-49.68-25.68-10.4-17.133-15.76-43.441-16.08-78.961v-71.039c0-37.75 5.47-65.633 16.44-83.633 10.96-18 27.56-27 49.8-27 21.92 0 38.19 8.473 48.83 25.442 10.64 16.961 16.2 43.679 16.68 80.148zm44.4-60.711c0-52.012-8.88-90.641-26.63-115.922-17.77-25.277-45.53-37.91-83.28-37.91-37.28 0-64.89 12.351-82.8 37.07-17.92 24.723-27.2 61.641-27.84 110.762v59.281c0 51.348 8.88 89.508 26.64 114.469 17.76 24.961 45.6 37.437 83.52 37.437 37.59 0 65.27-12.039 83.03-36.117 17.76-24.082 26.88-61.242 27.36-111.48v-57.59M6529.66 559.262h-228.95v31.918l120.95 134.39c17.92 20.321 30.28 36.852 37.08 49.559 6.8 12.73 10.2 25.883 10.2 39.48 0 18.243-5.52 33.2-16.56 44.883-11.04 11.68-25.76 17.52-44.16 17.52-22.08 0-39.24-6.282-51.47-18.84-12.25-12.563-18.36-30.043-18.36-52.442h-44.41c0 32.149 10.37 58.161 31.09 77.989 20.71 19.84 48.44 29.769 83.15 29.769 32.48 0 58.16-8.519 77.04-25.566 18.88-17.043 28.31-39.711 28.31-68.031 0-34.399-21.91-75.352-65.75-122.871l-93.59-101.52h175.43v-36.238M6641.25 755.57h33.36c20.96.321 37.44 5.84 49.44 16.559 11.99 10.723 18 25.203 18 43.441 0 40.961-20.4 61.442-61.2 61.442-19.2 0-34.52-5.481-45.96-16.442-11.44-10.968-17.16-25.48-17.16-43.558h-44.39c0 27.679 10.11 50.679 30.35 69 20.24 18.308 45.96 27.476 77.16 27.476 32.96 0 58.8-8.726 77.52-26.156 18.72-17.441 28.07-41.684 28.07-72.723 0-15.199-4.92-29.918-14.75-44.16-9.84-14.23-23.24-24.879-40.21-31.918 19.2-6.07 34.05-16.16 44.53-30.23 10.47-14.09 15.72-31.281 15.72-51.61 0-31.351-10.25-56.242-30.72-74.632-20.48-18.399-47.12-27.59-79.92-27.59-32.8 0-59.48 8.871-80.04 26.633-20.55 17.757-30.84 41.199-30.84 70.32h44.64c0-18.402 6-33.121 18-44.16 12-11.043 28.08-16.563 48.24-16.563 21.44 0 37.84 5.602 49.19 16.801 11.37 11.199 17.04 27.281 17.04 48.242 0 20.317-6.24 35.906-18.72 46.789-12.47 10.879-30.48 16.481-53.99 16.801h-33.36v36.238" transform="matrix(.13333 0 0 -.13333 0 766.987)"/></svg>
