<svg class="c-fi-registrar" xmlns="http://www.w3.org/2000/svg" width="510.24" height="510.24" viewBox="0 0 510.24 510.24"><path d="M255.12,0C114.45,0,0,114.45,0,255.12S114.45,510.24,255.12,510.24,510.24,395.79,510.24,255.12,395.77,0,255.12,0"/><path class="hole" d="M343.88,271.65H300.64V131.31h43.24Z"/><rect class="hole" x="300.64" y="70.09" width="43.35" height="34.96"/><path class="hole" d="M236.09,121.38q0-8.51,4.11-14T253.52,102a78.09,78.09,0,0,1,20,3.1v-35a123.84,123.84,0,0,0-24.67-2.42q-29.35,0-42.67,12.48t-13.33,39.56v11.62L169,142.93v20.84h23.82V271.65h43.24V163.78h37.43V131.31H236.09Z"/><circle class="hole" cx="151.83" cy="254.46" r="17.2"/><rect class="hole" x="44.12" y="299.66" width="422" height="10"/><path class="hole" d="M89.89,340.65h8.64l12.36,33.06,12.48-33.06h8.28l-16.8,42h-8.34Z"/><path class="hole" d="M166.21,382.65l-3.72-8.88H142l-3.72,8.88h-8.34l18.42-42h8.34l18.18,42Zm-16.47-52.32a4.25,4.25,0,0,1,0,5.73,3.62,3.62,0,0,1-2.73,1.17,3.69,3.69,0,0,1-2.79-1.17,4.25,4.25,0,0,1,0-5.73,3.73,3.73,0,0,1,2.79-1.14A3.66,3.66,0,0,1,149.74,330.33Zm-4.89,36.54h14.76l-7.32-17.64Zm15.78-36.54a4.3,4.3,0,0,1,0,5.73,3.62,3.62,0,0,1-2.73,1.17,3.68,3.68,0,0,1-2.79-1.17,4.25,4.25,0,0,1,0-5.73,3.73,3.73,0,0,1,2.79-1.14A3.64,3.64,0,0,1,160.63,330.33Z"/><path class="hole" d="M181.15,340.65h8v34.74h18.12v7.26H181.15Z"/><path class="hole" d="M214.81,340.65h8v42h-8Z"/><path class="hole" d="M229.69,340.65h34.26v7.14H250.87v34.86h-8.1V347.79H229.69Z"/><path class="hole" d="M267.17,340.65h34.26v7.14H288.35v34.86h-8.1V347.79H267.17Z"/><path class="hole" d="M335.15,382.65l-3.72-8.88H310.91l-3.72,8.88h-8.34l18.42-42h8.34l18.18,42Zm-16.47-52.32a4.25,4.25,0,0,1,0,5.73,3.62,3.62,0,0,1-2.73,1.17,3.69,3.69,0,0,1-2.79-1.17,4.25,4.25,0,0,1,0-5.73,3.73,3.73,0,0,1,2.79-1.14A3.66,3.66,0,0,1,318.68,330.33Zm-4.89,36.54h14.76l-7.32-17.64Zm15.78-36.54a4.3,4.3,0,0,1,0,5.73,3.62,3.62,0,0,1-2.73,1.17,3.68,3.68,0,0,1-2.79-1.17,4.25,4.25,0,0,1,0-5.73,3.73,3.73,0,0,1,2.79-1.14A3.64,3.64,0,0,1,329.57,330.33Z"/><path class="hole" d="M367.55,379.44q-3.6,3.57-9.84,3.57a16.07,16.07,0,0,1-13-6.3l3.78-6a16.89,16.89,0,0,0,4.47,3.45,9.74,9.74,0,0,0,4.47,1.23,5.32,5.32,0,0,0,4.11-1.59,6.43,6.43,0,0,0,1.47-4.53V347.79H348.59v-7.14h22.56v28.8Q371.15,375.87,367.55,379.44Z"/><path class="hole" d="M411.71,382.65,408,373.77H387.47l-3.72,8.88h-8.34l18.42-42h8.34l18.18,42Zm-16.47-52.32a4.25,4.25,0,0,1,0,5.73,3.62,3.62,0,0,1-2.73,1.17,3.69,3.69,0,0,1-2.79-1.17,4.25,4.25,0,0,1,0-5.73,3.73,3.73,0,0,1,2.79-1.14A3.66,3.66,0,0,1,395.24,330.33Zm-4.89,36.54h14.76l-7.32-17.64Zm15.78-36.54a4.3,4.3,0,0,1,0,5.73,3.62,3.62,0,0,1-2.73,1.17,3.68,3.68,0,0,1-2.79-1.17,4.25,4.25,0,0,1,0-5.73,3.73,3.73,0,0,1,2.79-1.14A3.64,3.64,0,0,1,406.13,330.33Z"/></svg>
