<svg class="c-green-web-foundation" xmlns="http://www.w3.org/2000/svg" viewBox="0 0 1340 782" width="1340pt" height="782pt"><path d="M18.92 4.21c31.35.04 62.81.04 94.16 0 3.34-.12 5.98 1.12 8.41 3.32 6.87 6 7.03 18.1.28 24.24-3.46 3.42-7.99 4.57-12.74 4.6-8.88.06-17.75-.13-26.63.04-.11 56.86-.01 113.73-.05 170.59-.08 4.57.38 9.37-.42 13.88-1.26 6.36-6.52 11.31-12.89 12.35-6.57 1.17-13.46-1.56-16.89-7.39-3.21-4.99-2.3-11.2-2.42-16.84-.01-57.53.07-115.08-.04-172.6-9.9-.27-19.86.3-29.74-.25-9.59-.71-16.42-10.28-14.42-19.57 1.2-6.22 6.61-12.65 13.39-12.37zM171.07 4.22c4-.34 6.66 3.16 8.48 6.22 2.77 4.75 1.87 10.29 1.99 15.56.05 24.06-.15 48.14.1 72.2 16.36.01 32.74.17 49.09-.08.23-2.38.48-4.73.52-7.11-.1-23.67.01-47.36-.07-71.02.06-3.52.06-6.74 2-9.82 1.4-2.16 3.52-4.96 6.07-5.72 4.56-.5 9.24-.2 13.82-.23 3.86-.32 6.24 2.67 8.17 5.54 3.12 5.1 2.49 10.53 2.54 16.24-.06 63.47.04 127.64-.05 191.04-.03 8.79-6.78 16.24-15.7 16.44-8.73.53-16.93-6.5-16.79-15.43-.08-24.32 0-48.72-.03-73.05.09-4.78.09-9.53-.44-14.29-16.38-.09-32.78-.11-49.16.01-.18 28.78-.04 57.57-.06 86.35.11 6.07-3.29 12.01-8.79 14.68-7.24 3.61-16.62 1.51-21.1-5.38-3.61-5.21-2.8-11.36-2.88-17.37.03-63.01-.01-126.02.02-189.03-.09-6.2 2.26-12.15 7.75-15.38 4.71-.79 9.74-.28 14.52-.37zM320 4.22c22.02.01 44.04.06 66.06-.03 8.75-.62 15.16 8.78 14.36 16.87-.47 8.62-7.81 15.22-16.36 15.25-17.24.16-34.52-.06-51.76.09-.02 20.6-.21 41.22.09 61.82 15.22.06 30.46-.03 45.67.02 8.88-.24 16.04 8.01 15.56 16.69-.06 8.4-7.1 15.71-15.57 15.71-15.24.09-30.49-.09-45.73.07-.13 22.85-.08 45.7-.03 68.55 17.25.18 34.51-.03 51.76.08 4.89.06 9.56 2.14 12.7 5.92 5.3 6.4 4.92 16.56-1.16 22.33-3.67 3.72-8.5 4.79-13.57 4.78-21.64-.06-43.44 0-65.06-.02-6.22.02-12.04-2.59-15.26-8.06-3.12-5.07-2.24-10.6-2.34-16.29.02-59.33 0-118.67.01-178 .04-3.93-.19-7.9.11-11.81.5-5.82 4.53-11.59 10.1-13.56 3.34-.74 7.01-.35 10.42-.41z" fill="#d9d4d4"/><path d="M96.63 279.37c11.04 5.05 20.7 13.95 26.13 24.84 3.46 7.62-.02 16.43-6.8 20.82-5.31 3.06-11.5 2.96-16.68-.31-4.77-2.87-5.94-7.85-10.35-11.61-6.67-6.02-16.24-7.95-24.71-4.9-8.69 2.78-15.25 10.72-16.56 19.72-.33 3.33-.14 6.73-.16 10.07-.01 34.66.01 69.34-.01 104 .06 4.71-.44 9.02 1.16 13.54 2.86 8.65 10.54 15.4 19.59 16.8 4.34.5 8.8.37 12.89-1.31 8.91-3.36 15.66-12.35 15.64-21.98.03-13.19.01-26.4 0-39.59-6.28-.1-12.58.18-18.84-.1-6.5-.38-12.51-4.86-14.36-11.16-2.14-6.19-.11-13.54 4.96-17.7 3.55-2.98 7.92-3.91 12.47-3.9 10.34.04 20.69.01 31.03.01 4.7.04 9.22 1.32 12.59 4.73 3.45 3.3 5.01 7.86 5 12.57.01 17.33-.01 34.76.01 52.1.04 7.23-1.03 14.43-3.46 21.25-3.98 11.47-11.81 21.28-21.75 28.17-9.58 6.52-20.9 9.82-32.45 10.01-11.73-.32-23.24-3.8-32.8-10.68-10.37-7.26-18.2-18.13-21.81-30.26-2.73-8.33-2.66-16.84-2.6-25.5.01-35.64-.02-71.41.01-107.03.06-15.86 6.25-31.4 17.88-42.3 16.77-15.97 43.03-19.99 63.98-10.3zM576.73 275.34c4.13 1.78 6.89 5.14 8.77 9.13 3.33 7.02 6.65 14.05 9.98 21.08 18.16 37.11 35.8 74.47 54.09 111.52.17-39.02.02-78.05.08-117.07.09-4.93-.55-10.67 1.11-15.32 1.57-4.68 5.36-8.34 10.04-9.85 7.17-2.61 16.33.76 19.65 7.75 2.51 4.62 1.85 9.36 1.93 14.42-.02 61.33-.01 122.67-.01 184-.03 3.62.24 7.39-.32 10.97-.95 5.62-5.07 10.41-10.34 12.46-7.13 2.93-16.26-.49-19.76-7.35-4.01-8.08-7.67-16.35-11.65-24.44-17.99-36.82-35.94-73.64-53.61-110.6-.06 2.37-.15 4.74-.16 7.1.03 37.62-.01 75.24.02 112.86-.02 3.34.18 6.86-.36 10.17-.97 5.87-5.63 10.96-11.36 12.54-7.4 2.43-16.41-1.68-19.4-8.9-2.08-4.98-1.57-10.54-1.61-15.81.01-60 0-120 0-180 .06-5.59-.55-12.05 1.81-17.26 3.55-7.62 13.57-11 21.1-7.4zM800.08 277.89c5.49 4.98 5.76 12.4 7.51 19.17 9.83 40.77 19.98 81.45 29.84 122.21 3.24-13.7 6.55-27.39 9.69-41.11 6.86-28.09 13.88-56.12 20.56-84.26 1.16-4.89 1.69-10.26 4.95-14.3 5.64-6.71 16.9-7.66 23.42-1.69 2.88 2.54 4.37 5.94 5.18 9.62 2.24 10.29 4.9 20.48 7.26 30.74 8.35 33.52 16.38 67.17 24.76 100.67 2.74-11.26 5.47-22.55 8.04-33.85 7.72-32.45 16.1-64.79 23.55-97.3 1.24-4.86 3.53-9.37 8.03-11.93 4.88-2.95 11.17-2.65 16.05.1 5.93 3.09 9.62 10.45 8.1 17.03C981 359.3 964.97 425.64 949 491.97c-.87 3.49-2.13 6.73-4.83 9.22-6.47 6.09-17.38 5.44-23.24-1.17-3-3.25-3.6-7.17-4.62-11.31-7.11-30.67-15.04-61.14-22.24-91.8-3.3-12.18-5.38-24.68-9-36.76-.97 6.31-2.82 12.35-4.29 18.54-8.68 36.57-18.16 72.78-26.66 109.38-.96 3.73-1.57 7.93-3.91 11.06-2.55 3.69-6.94 5.71-11.29 6.24-7.85.62-15.47-4.15-17.2-12.06-16.07-65.99-31.96-132.57-48.01-198.61-1.12-5.66-.51-11.01 3.64-15.29 5.72-6.6 16.32-7.82 22.73-1.52zM175.94 275.43c14.02-.03 28.07 0 42.1 0 11.73-.11 23.33 3.91 32.8 10.77 10.95 7.9 18.96 19.76 22.05 32.93 2.5 9.74 1.57 18.9 1.76 28.87.17 7.72-.7 15.39-3.17 22.73-4.48 13.96-14.63 25.38-27.54 32.18 9.8 27.41 20.26 54.62 30.2 81.99 1.56 4.7.46 9.84-2.49 13.75-3.92 5.41-11.51 8.13-17.9 5.97-5.2-1.59-9.4-5.9-11.2-11-10.47-28.04-20.88-56.12-31.41-84.15-6.2-.02-12.41-.02-18.61 0-.02 26.51.01 53.09-.01 79.59.01 7.13-4.89 13.73-11.77 15.65-6.98 2.27-15.34-1.2-18.79-7.66-1.8-3.11-2.05-6.46-2.18-9.98-.01-62.02 0-124.05-.01-186.07.05-4.21-.28-8.72.5-12.85 1.43-7.24 8.17-13.03 15.67-12.72zM317.93 275.44c23.27-.03 46.6-.04 69.86.01 6.71-.01 12.56 4.78 14.59 11.05 1.98 5.84.29 12.5-3.99 16.87-3.02 2.9-7.1 4.57-11.29 4.53-17.42-.01-34.83-.01-52.24 0-.06 20.63-.02 41.26-.02 61.89 12.72.01 25.44.02 38.16 0 4.15.01 8.26-.3 12.26.98 3.97 1.25 7.34 4.03 9.16 7.79 3.34 6.38 2.14 14.78-3.29 19.64-3.29 3.18-7.6 4.36-12.1 4.3-14.72.01-29.47-.02-44.19.01 0 22.97-.05 45.94.02 68.9 15.38.01 30.76.01 46.14 0 3.25.03 6.63-.19 9.85.32 5.72 1.32 10.26 5.96 11.78 11.59 2.03 7.28-1.48 15.71-8.41 18.95-3.99 2.11-7.87 1.51-12.22 1.58-21.3-.03-42.78-.01-64.09-.01-5.57.1-10.82-3.24-13.57-8-1.72-3.04-2.11-6.33-2.13-9.77.05-64.63-.03-129.52.04-194.13-.23-8.82 6.71-16.6 15.68-16.5zM445.98 275.4c22.35.05 44.73 0 67.08.03 6.61-.28 12.86 4.31 14.97 10.5 1.91 5.02 1.07 10.76-1.88 15.19-2.79 3.87-7.26 6.54-12.07 6.74-17.83.23-35.7-.28-53.52.26.03 20.54.02 41.09.01 61.64 12.48.07 24.95.03 37.43.03 5.37.05 10.52-.54 15.5 1.92 7.14 3.47 10.63 12.75 7.75 20.1-2.21 6.38-8.44 10.72-15.19 10.65-15.15.13-30.32-.05-45.47.08 0 22.95-.05 45.9.02 68.85 17.77.09 35.57-.02 53.34.05 4.61-.03 8.8 2.52 11.65 6.01 4.39 5.63 4.58 13.77.56 19.65-3.04 4.17-7.86 6.92-13.09 6.75-23.02-.03-46.13-.02-69.16 0-6.18.11-11.81-3.83-14.36-9.36-1.89-3.69-1.22-8.42-1.31-12.49.01-63.69.01-127.38 0-191.07-.15-6.64 4.7-12.83 10.93-14.82 2.16-.7 4.56-.67 6.81-.71zM1038.21 275.44c23.18-.04 46.44-.02 69.62-.01 6.49-.08 12.39 4.07 14.63 10.14 2.61 6.07.87 13.52-3.92 17.99-3.06 2.96-7.23 4.45-11.47 4.36-17.26-.07-34.54.01-51.81-.04-.24 20.63-.05 41.28-.1 61.91 12.62.01 25.23.02 37.84 0 4.78.02 9.31-.39 13.87 1.4 9.63 3.84 12.8 16.31 6.86 24.64-3.08 4.44-8.36 6.71-13.68 6.66-14.96.06-29.92-.05-44.88.04.01 22.96-.1 45.93.06 68.89 17.61.02 35.25-.03 52.86.01 6.95-.08 12.99 4.93 14.87 11.52 3.06 9.43-3.87 20.23-13.89 20.84-23.65.1-47.46.02-71.13.04-8.51-.17-15.12-7.31-15.22-15.73-.06-63.29 0-126.79-.03-190.1.04-3.78-.35-8.12.85-11.72 1.99-6.27 8.05-10.87 14.67-10.84zM1164.2 275.44c14.58-.03 29.17-.04 43.75.01 23.82.35 45.62 17.43 52.55 40.08 3.52 10.57 2.75 20.56 2.68 31.52-.52 14.85-7.06 28.61-17.34 39.19 6 6.5 11.06 13.58 13.96 22.01 2.7 7.31 3.67 14.99 3.47 22.75-.25 10.5.88 20.02-2.04 30.22-3.43 13.37-11.94 24.98-23.23 32.81-9.58 6.51-21.39 10.27-33.01 9.82-13.68-.05-27.4.01-41.08-.02-6.34-.03-12.23-4.44-14.34-10.38-1.61-4.14-1.08-9.04-1.15-13.45.01-60.33.01-120.67 0-181 .05-4.06-.38-8.78.96-12.64 2.03-6.35 8.09-10.99 14.82-10.92z" fill="#70ba2b"/><path d="M192.56 307.9c7.48-.01 14.97 0 22.45-.03 5.85.02 11.66 1.16 16.48 4.64 6.12 4.36 10.5 11.81 10.31 19.44 0 7.03.02 14.07-.01 21.1.06 12.59-11.21 23.64-23.75 23.58-8.5 0-17.01-.01-25.51-.02.01-22.9-.05-45.81.03-68.71zM1181.31 307.9c7.57 0 15.14-.01 22.71-.02 6.08.08 12.11 1.36 16.94 5.25 6.38 4.94 10.08 12.78 9.65 20.86-.35 7.56 1.14 14.63-2.23 21.41-3.81 8.66-12.85 14.52-22.32 14.41-8.27-.01-16.53-.02-24.79-.02.02-20.63-.07-41.26.04-61.89zM1181.25 402.55c7.25-.1 14.5-.01 21.75-.07 4.02-.03 7.95.27 11.74 1.72 9.29 3.35 15.9 12.87 15.86 22.74-.02 6.71-.01 13.42-.01 20.13-.02 9.08-5.68 17.72-13.81 21.66-3.98 2-8.36 2.75-12.79 2.71-7.56-.03-15.11-.02-22.67-.02-.13-22.95 0-45.91-.07-68.87z" class="hole" fill="#fff"/><path d="M195 545.65c11.23.01 22.48 3.33 31.87 9.49 11.86 7.93 20.73 20.01 24.08 33.94 2.42 8.71 1.71 17.02 1.79 25.92.02 34.67-.03 69.33.02 104 .24 18.77-8.86 36.75-24.16 47.62-8.89 6.34-19.7 9.97-30.59 10.53-15.22.7-30.7-4.87-41.8-15.36-9.66-8.93-15.91-21.22-17.73-34.22-.49-4.47-.27-9.08-.3-13.57.01-35 .01-70 0-105 .03-4.55-.19-9.22.32-13.74 2.09-14.82 9.99-28.75 22-37.76 9.78-7.55 22.17-11.68 34.5-11.85zM295.02 545.95c6.96-1.37 14.26 2.3 17.46 8.59 2.46 4.59 1.82 10.4 1.88 15.46-.03 49.67.01 99.38-.02 149.06-.03 4.65.94 9.22 3.36 13.23 4.33 7.49 12.7 12.15 21.3 12.28 8.58-.14 16.9-4.92 21.24-12.35 2.62-4.3 3.57-9.19 3.52-14.18-.05-49.34.01-98.7-.03-148.04.06-5.04-.59-10.84 1.79-15.44 3.44-7.19 12.5-10.71 19.94-7.97 6.55 2.3 10.86 8.39 10.83 15.36.1 51.78 0 104.2.05 156.05.05 5.55-.46 11.06-1.92 16.43-5.03 19.77-21.33 35.99-41.14 40.9-21.89 5.99-46.35-2.57-59.91-20.71-7.56-9.85-11.72-22.2-11.83-34.61.03-49.66.01-99.35.01-149.01.06-4.22-.36-8.75.52-12.89 1.45-6.21 6.7-11.04 12.95-12.16zM450.61 546.43c5.01 1.7 8.49 5.6 10.67 10.3 11.25 24.24 23.27 48.11 34.72 72.27 9.63 19.92 19.2 39.9 29.08 59.7.21-41.91.01-83.85.1-125.77-.09-6.58 3.13-12.69 9.16-15.59 7.42-3.76 16.94-.95 21.15 6.18 3.19 5.24 2.35 11.63 2.45 17.48-.02 62.66-.01 125.38-.01 188.04.06 5.43-1.46 10.6-5.72 14.2-5.72 5.27-14.88 5.28-20.86.44-3.69-2.9-5.32-7.61-7.34-11.7-8.17-17.68-16.95-35.06-25.38-52.6-12.34-24.95-24.23-50.12-36.36-75.16-.14 38.25-.02 76.52-.06 114.78-.08 5.13.41 10.63-.62 15.65-1.06 5.15-4.76 9.4-9.62 11.34-6.37 2.65-14.09.85-18.58-4.41-3.17-3.52-4.03-7.91-4.05-12.52.01-63.01.02-126.05-.01-189.06.07-5.08-.5-11.12 1.92-15.75 3.41-6.93 12.11-10.3 19.36-7.82zM804 550c2.76 2.56 3.74 5.79 4.76 9.29 16.96 61.68 34 123.33 50.97 185.01 1.34 5.07 3.32 10.3 3.78 15.52.46 5.76-2.2 11.46-7.11 14.57-6.12 4.15-14.8 3.5-20.13-1.66-3.31-3.07-4.54-6.99-5.74-11.2-2.72-10.76-5.86-21.41-8.71-32.14-19.43-.09-38.88-.09-58.32.01-2.65 9.14-5.32 18.31-7.55 27.57-1.05 4-2.03 8.34-3.97 12.02-2.75 5.33-9.11 8.47-15.01 8.11-6.13-.35-11.85-4.2-14.09-10-1.75-4.07-1.34-8.21-.22-12.37 18.04-65.34 36.01-130.72 53.98-196.07 1.11-3.91 2.72-7.46 6.14-9.86 6.38-4.58 15.41-4.08 21.22 1.2zM1015.05 545.72c7.76.68 14.7 7.2 14.67 15.21.06 66.68 0 133.43.03 200.12.38 7.7-5.44 14.36-12.85 15.84-6.97 1.45-14.23-1.91-17.63-8.15-2.77-4.58-1.81-10.56-1.95-15.74.01-60.67 0-121.33 0-182 .06-4.14-.31-8.45.34-12.54 1.63-7.89 9.4-13.47 17.39-12.74zM1120 545.66c12.76.34 25.46 4.86 35.32 13.02 11.06 9.01 18.54 22.21 20.45 36.36.81 5.35.61 10.58.59 15.96v101c.04 5.94.23 11.75-.85 17.63-2.73 16.4-12.97 31.16-27.29 39.58-17.3 10.35-39.62 10.64-57.18.74-14.51-8.04-25.17-22.52-28.26-38.85-1.29-6.03-1.16-11.98-1.11-18.1.02-37 0-74.01.01-111.01.21-15.47 6.93-30.52 18.3-41 10.75-9.98 25.37-15.53 40.02-15.33zM1229.5 546.54c5.3 1.91 8.56 6.17 10.85 11.12 7.8 17.04 16.2 33.79 24.32 50.68 10.88 22.73 21.83 45.43 32.93 68.05 1.91 4.02 3.81 8.03 5.95 11.92.22-38.09.03-76.21.1-114.31.1-5.19-.46-10.76.62-15.85 1.41-6.2 6.54-11 12.76-12.17 6.52-1.34 13.23 1.66 16.85 7.17 2.72 3.55 1.76 8.62 1.9 12.85-.02 65.66-.03 131.42.01 197.08.19 4.32-2.15 7.72-5.3 10.42-5.32 4.63-13.3 4.93-19.19 1.18-3.5-2.14-5.29-5.41-6.98-9.02-8.02-17.48-16.62-34.67-25-51.98-13.04-26.28-25.48-52.87-38.43-79.2-.16 4.51-.18 9.01-.14 13.52.01 34.67-.01 69.33.01 104-.03 3.82.23 7.78-.31 11.57-1.03 6.77-6.69 12.42-13.47 13.43-6.4 1.06-13.14-1.92-16.55-7.46-2.3-3.6-2.49-8.38-2.64-12.52 0-61.01.01-122.01-.01-183.02.03-5.63-.31-11.81 1.07-17.29 2.33-8.53 12.52-13.18 20.65-10.17zM42 547.05c20.34.04 40.73.01 61.07 0 4.52-.03 8.9 1.53 12.13 4.74 6.45 6.13 6.24 18.05-.56 23.86-3.17 3.03-7.28 4.13-11.58 4.15-17.1.1-34.21-.07-51.32.07-.11 20.57-.1 41.18 0 61.76 15.1.15 30.22-.08 45.32.08 6.62.07 12.6 4.07 14.94 10.3 3.14 7.51-.22 16.83-7.49 20.51-4.45 2.35-9.65 1.84-14.51 1.87-12.75-.01-25.51-.07-38.26.02-.15 24.2-.02 48.4-.07 72.59-.05 4.59.22 9.22-.14 13.79-.53 5.78-3.83 11.15-9.25 13.5-7.01 3.28-15.88 1.14-20.36-5.22-3.75-5.11-3.16-12.07-3.2-18.07.05-58.66.01-117.34.02-176 .06-5.14-.41-10.8.76-15.81 1.11-4.8 4.53-8.75 9.04-10.68 4.1-1.88 9.04-1.43 13.46-1.46zM611.98 547.03c12.67.06 25.35.05 38.02.01 10.89-.06 22.05 2.82 31.28 8.68 13.68 8.47 23.59 22.96 26.18 38.88 1.19 6.54.84 12.8.86 19.4.01 34.67-.02 69.34.02 104.01.31 21.9-12.55 42.59-32.27 52.07-8.77 4.41-18.33 5.88-28.07 5.81-12.35-.04-24.71.03-37.06-.02-6.07.05-11.87-2.48-14.99-7.85-3.03-5-2.26-10.44-2.33-16.02.02-60 .01-120 .01-180 .01-3.66-.22-7.41.22-11.04.68-5.27 4.07-9.99 8.9-12.24 2.93-1.45 6.01-1.68 9.23-1.69zM870.94 547.04c27.01.04 54.05.04 81.06.01 5.18.05 10.15-.58 14.84 2.07 7.04 3.7 10.22 12.74 7.35 20.1-2.06 6.1-7.83 10.25-14.24 10.5-9.72.41-19.52-.29-29.25.36-.13 56.63-.01 113.29-.06 169.92-.06 4.59.26 9.25-.22 13.82-.98 7.19-7.29 12.61-14.39 13.32-6.38.65-12.84-2.62-15.87-8.32-2.76-4.82-1.94-10.49-2.03-15.82.02-51.32 0-102.67.01-154-.05-6.39.17-12.77-.21-19.15-9.32-.14-18.65.1-27.97-.07-4.73-.07-9.24-1.74-12.34-5.41-4.81-5.54-5.34-13.95-1.32-20.08 3.15-5 8.87-7.33 14.64-7.25z" fill="#d9d4d4"/><path d="M190.98 578.81c10.16-1.94 21 3.19 25.93 12.28 3.76 6.64 3.39 13.54 3.36 20.91-.02 32.67-.01 65.33 0 98-.01 7.32.51 14.53-3.04 21.22-3.85 7.65-11.75 12.54-20.21 13.28-10.3.7-20.49-5.55-24.43-15.13-2.67-6.1-1.99-11.91-2.03-18.37v-99c.05-5.71-.56-11.52 1.45-16.98 2.91-8.27 10.31-14.69 18.97-16.21zM1115.95 578.61c8.84-1.17 18.12 2.95 23.21 10.25 3.15 4.42 4.51 9.7 4.52 15.08 0 35.69-.01 71.37 0 107.06-.05 6.54.6 12.42-2.05 18.61-3.07 7.44-9.88 12.67-17.66 14.39-11.07 2.52-23.31-3.9-27.62-14.39-2.81-6.49-2.04-12.74-2.12-19.61-.01-35 .03-70.02-.02-105.02.01-3.74.44-7.41 1.83-10.91 3.18-8.29 11.11-14.4 19.91-15.46zM626.41 579.84c6.53-.08 13.06.03 19.59-.05 4.36 0 8.6-.02 12.78 1.38 7.5 2.42 13.61 8.66 15.81 16.23 1.59 5.05 1.15 10.37 1.18 15.6-.03 34.96.03 70.13-.03 105.07-.06 9.05-4.83 17.5-12.79 21.9-4.31 2.39-9.07 3.17-13.95 3.05-7.56-.11-15.11.05-22.67-.08-.06-50.31 0-100.63-.03-150.94-.04-4.06 0-8.1.11-12.16zM792.67 624.07c7.12 23.92 13.09 48.21 19.87 72.24-13.19.11-26.4.1-39.59 0 .97-5.23 2.53-10.3 3.96-15.41 5.01-19.01 10.31-37.95 15.76-56.83z" class="hole" fill="#fff"/></svg>
