<svg xmlns="http://www.w3.org/2000/svg" viewBox="0 0 725.4 176.4"><g fill="#27AAE1"><path d="M70.8 7.1L0 176.4h46.5l49.3-127 22.5 57.5H95.7l14.3 37.4h22.8l12.4 32.1h46.2L117.9.5zM216.9 176.3V6.3L257.8.6v175.7h-40.9zM457.6 109c-7.8 42.2-41.7 66.8-84.9 66.8-50 0-89.4-38.4-89.4-87.9 0-49.2 39.4-87.9 89.4-87.9 41.5 0 76.6 24.6 84.7 64.6l-40.7 9.5c-5.3-24.4-22.4-36.2-44-36.2-26.6 0-48 21.4-48 50s21.4 50.2 48 50.2c21.4 0 38.4-12.1 44.2-37.2l40.7 8.1zM657.5 109c-7.8 42.2-41.7 66.8-84.9 66.8-50 0-89.4-38.4-89.4-87.9 0-49.2 39.4-87.9 89.4-87.9 41.5 0 76.6 24.6 84.7 64.6l-40.7 9.5c-5.3-24.4-22.4-36.2-44-36.2-26.6 0-48 21.4-48 50s21.4 50.2 48 50.2c21.4 0 38.4-12.1 44.2-37.2l40.7 8.1zM684.5 175.8V5.7L725.4 0v175.7h-40.9z"/></g></svg>