<svg xmlns="http://www.w3.org/2000/svg" width="290.662" height="40.048" viewBox="0 0 290.662 40.048"><path d="M0 28.778c2.225-.034 2.657-.4 3.587-2.99L9.599 9.313l-.266-.83h3.72l6.477 17.3c.963 2.592 1.3 2.99 3.389 2.99v.9h-9.87v-.9c2.624 0 3.356-.266 3.356-1.229a5.625 5.625 0 0 0-.465-1.761l-1.591-4.118H6.743l-1.627 4.418a4.248 4.248 0 0 0-.333 1.4c0 .963.664 1.4 3.321 1.3v.9h-8.1Zm13.718-8.769-3.189-8.4-3.156 8.4ZM38.797 29.674v-.9c1.329 0 1.893-.266 1.893-.9 0-.532-1.262-2.06-1.893-2.691l-2.823-2.956c-1.429-1.495-2.16-1.993-3.588-1.993v5.48c0 2.359.3 3.156 3.089 3.056v.9h-10v-.9c2.89.066 3.222-.532 3.222-2.857V12.468c0-2.292-.765-2.658-3.222-2.558v-.9h10v.9c-2.857-.034-3.089.8-3.089 2.857v6.411a9.574 9.574 0 0 0 4.29-2.688c2.225-2.225 3.753-4.65 3.753-5.547 0-.764-.6-1.03-2.292-1.03v-.9h9.434v.9c-3.422-.034-4.186.6-5.481 2.392l-2.757 3.753a19.185 19.185 0 0 1-2.957 2.754l.066.066c.83-.033 2.425 1.429 3.953 3.156l3.481 3.956c2.292 2.624 2.525 2.79 5.415 2.79v.9ZM54.443 12.468c-.931-2.292-1.3-2.558-3.422-2.558v-.9h10.23v.9c-2.722.033-3.189.73-3.189 1.429a5.878 5.878 0 0 0 .532 1.992l5.013 12.324 4.883-11.758a7.121 7.121 0 0 0 .764-2.557c0-1.1-.864-1.429-2.989-1.429v-.9h8.071v.9c-2.358 0-2.789 1.229-3.853 3.786l-6.876 16.509h-2.026ZM72.145 28.778c2.227-.034 2.658-.4 3.589-2.99l6.012-16.475-.266-.83h3.72l6.477 17.3c.963 2.592 1.3 2.99 3.388 2.99v.9H85.2v-.9c2.623 0 3.356-.266 3.356-1.229a5.637 5.637 0 0 0-.467-1.761l-1.594-4.118h-7.606l-1.627 4.418a4.276 4.276 0 0 0-.333 1.4c0 .963.665 1.4 3.322 1.3v.9h-8.105Zm13.719-8.769-3.189-8.4-3.155 8.4ZM168.208 25.59c0 2.624.4 3.189 2.89 3.189v.9h-9.134v-.9c2.125 0 2.557-.83 2.557-2.591V12.335c0-1.827-.665-2.425-2.557-2.425v-.9h15.811v4.151h-.9c-.166-2.225-.764-2.657-3.454-2.657h-5.215v7.341h5.215c2.027 0 2.491-.332 2.691-2.125h.9v6.111h-.9c-.232-2.059-.731-2.491-2.857-2.491h-5.049ZM181.694 9.014h9.266v.9c-2.225 0-2.856.5-2.856 2.857V25.69c0 2.491.464 3.155 2.856 3.089v.9h-9.266v-.9c2.623.066 2.723-.963 2.723-2.857V12.401c0-1.793-.431-2.525-2.723-2.491ZM194.35 29.674v-.9c2.657 0 3.221-.233 3.221-2.857v-13.15c0-2.259-.232-2.923-3.221-2.857v-.9h10.895v.9c-3.588 0-3.986.133-3.986 2.624v14.017c0 1.362.266 1.627 1.793 1.627h3.422c2.822 0 3.023-.133 5.514-3.521h1l-2.557 5.016ZM212.454 8.449h.9a.751.751 0 0 0 .532.464 8.12 8.12 0 0 0 1.627.1h14.051c1.694 0 1.959-.067 2.158-.565h.9l.6 5.713h-.968c-.464-3.454-1.129-3.654-3.122-3.654h-4.75v15.646c0 2.26.366 2.624 3.854 2.624v.9h-11.399v-.9c3.321 0 3.853-.432 3.853-2.624V10.508h-4.749c-1.96 0-2.624.2-3.122 3.654h-.965ZM235.903 29.674v-.9c2.691 0 3.355-.432 3.355-2.291V12.169c0-2.193-1.1-2.259-3.355-2.259v-.9h16.974l.3 4.982h-.9l-.167-.7c-.664-2.724-1.195-2.79-3.321-2.79h-5.846v7.74h5.148c1.927 0 2.292-.232 2.491-2.525h.9v6.677h-.9c-.231-2.359-.664-2.657-2.491-2.657h-5.148v6.053c0 2.06.266 2.392 1.959 2.392h3.688c3.355 0 4.019-.465 4.915-3.72h.9l-.5 5.215ZM263.805 25.489c0 2.857.366 3.388 3.388 3.288v.9H257.03v-.901c2.79.1 3.089-.664 3.089-2.857V12.601c0-2.159-.365-2.691-3.089-2.691v-.9c.765 0 2.458-.133 4.751-.233 1.76-.066 3.387-.066 4.052-.066 6.709 0 9 2.923 9 5.945 0 2.458-1.4 4.252-4.185 5.414a31.483 31.483 0 0 1 2.491 2.292l2.159 2.159c2.956 2.956 5.215 4.284 7.972 4.584v.93c-6.543.167-8.172-1-11.161-3.986l-1.76-1.76a25.678 25.678 0 0 0-3.588-3.19 17.347 17.347 0 0 1-2.956 0Zm0-5.314c.232.033.864.1 1.063.1 4.418-.2 5.945-1.893 5.945-5.281 0-3.355-1.793-5.348-5.414-5.348a10.126 10.126 0 0 0-1.595.133ZM106.036 31.149c0-5 .694-7.911 4.334-9.115 2.6-.858 5.959-.452 7.991-1.073 1.69-.518 2.96-1.3 3.25-3.162 0 5-.7 7.91-4.334 9.113-2.6.859-5.96.454-7.99 1.075-1.693.517-2.96 1.3-3.251 3.162ZM121.61 26.699c0 5-.7 7.91-4.334 9.113-2.6.859-5.96.454-7.99 1.075-1.693.518-2.96 1.3-3.251 3.161 0-5 .694-7.91 4.334-9.113 2.6-.859 5.959-.454 7.991-1.075 1.69-.517 2.96-1.3 3.25-3.161ZM137.184 13.349c0-5 .7-7.911 4.335-9.113 2.6-.858 5.958-.454 7.99-1.074 1.691-.518 2.96-1.3 3.249-3.162 0 5-.694 7.911-4.334 9.113-2.6.86-5.959.454-7.99 1.076-1.691.517-2.96 1.3-3.251 3.16ZM152.757 8.9c0 5-.694 7.911-4.334 9.113-2.6.859-5.959.455-7.99 1.075-1.691.518-2.96 1.3-3.251 3.161 0-5 .7-7.91 4.335-9.112 2.6-.86 5.958-.455 7.99-1.075 1.691-.517 2.96-1.3 3.249-3.162Z"/><path d="M146.084 40.048c-6.674 0-11.124-4.449-11.16-11.125 0-.77.009-14.861.011-15.574C134.96 2.225 132.735 0 112.71 0c8.9 0 11.125 2.225 11.124 13.349v15.574c.001 8.901 2.225 11.125 22.25 11.125Z"/><path d="M146.084 40.048c-11.124 0-16.487-2.192-16.524-11.125l-.005-15.574c0-11.124-3.5-13.349-16.844-13.349 20.025 0 22.25 2.225 22.225 13.349 0 .713-.015 14.8-.011 15.574.035 6.676 4.484 11.125 11.159 11.125ZM290.664 29.025a2.962 2.962 0 1 1-2.963-2.962 2.921 2.921 0 0 1 2.963 2.962Zm-5.463 0a2.5 2.5 0 1 0 2.5-2.539 2.479 2.479 0 0 0-2.503 2.539Zm1.847 1.711h-.42v-3.425h1.313c.771 0 1.114.334 1.114.947a.922.922 0 0 1-.859.956l1.019 1.52h-.494l-.962-1.52h-.71Zm.559-1.88c.517 0 1.025-.015 1.025-.6 0-.478-.4-.589-.81-.589h-.774v1.186Z"/></svg>