<svg width="68" height="56" viewBox="0 0 68 56" fill="none" xmlns="http://www.w3.org/2000/svg">
<g clip-path="url(#clip0_491_354)">
<path fill-rule="evenodd" clip-rule="evenodd" d="M19.6801 5.42553L20.391 7.63038L22.6666 7.64206L20.832 9.0158L21.5264 11.2268L19.6801 9.87026L17.8325 11.2268L18.5262 9.01511L16.6923 7.64206L18.9672 7.63038L19.6801 5.42553ZM33.6332 0.129089L34.4245 2.57846L36.9535 2.59014L34.9135 4.11636L35.6842 6.5726L33.6332 5.06561L31.5815 6.5726L32.3522 4.11636L30.3142 2.59014L32.8419 2.57846L33.6332 0.129089ZM47.9874 4.1562L48.7786 6.60557L51.3077 6.61794L49.2677 8.14416L50.0384 10.6004L47.9874 9.09272L45.9357 10.6004L46.7064 8.14416L44.6684 6.61794L47.1961 6.60557L47.9874 4.1562Z" fill="#1C1E26"/>
<path fill-rule="evenodd" clip-rule="evenodd" d="M12.4131 39.5529H16.0253L7.99859 16.2268L0 39.5529H3.61156L4.4722 37.1832H11.5257L12.4131 39.5529ZM7.99859 27.1178L10.4356 34.2283H5.56158L7.99859 27.1178ZM23.0774 36.1282V19.0725H19.7221V39.5536H30.5018V36.1295H23.0774V36.1282ZM45.525 29.3412C47.2442 28.903 48.8783 27.5279 48.8783 24.8354C48.8783 18.9262 42.1992 19.1 42.1992 19.1H35.5207V39.5508H42.1992C43.5475 39.5508 49.1667 39.2871 49.1667 33.6699C49.1667 33.6699 49.3096 30.1297 45.525 29.3412ZM38.8465 22.4945H42.1992C42.1992 22.4945 45.525 22.318 45.525 25.0689C45.525 27.6144 42.1992 27.6144 42.1992 27.6144H38.8465V22.4945ZM42.1992 36.1563H38.8465V31.0364H42.1992C42.1992 31.0364 45.8107 30.8317 45.8107 33.5826C45.8107 35.806 43.6024 36.157 42.1992 36.157V36.1563ZM64.3884 39.5529H68L60.2411 16.2268L51.9753 39.5529H55.5869L56.4476 37.1832H63.4996L64.3884 39.5529ZM59.9739 27.1178L62.4103 34.2283H57.5369L59.9739 27.1178ZM18.8408 55.2197H17.7789V51.5765H13.5464V55.2204H12.4845V47.2142H13.5464V50.7846H17.7789V47.2142H18.8401V55.219L18.8408 55.2197ZM28.0922 51.2207C28.0922 51.8217 27.9995 52.3726 27.8127 52.874C27.6387 53.353 27.3703 53.7921 27.0235 54.1653C26.6792 54.5298 26.2616 54.817 25.7981 55.0081C25.3228 55.2059 24.7994 55.3049 24.2224 55.3049C23.6455 55.3049 23.1186 55.2059 22.6461 55.0081C22.184 54.8163 21.7678 54.5288 21.4248 54.1647C21.078 53.7916 20.8096 53.3527 20.6356 52.874C20.4488 52.3726 20.3567 51.819 20.3567 51.2207C20.3567 50.6232 20.4488 50.0716 20.6356 49.5723C20.8092 49.0918 21.0779 48.6512 21.4255 48.2768C21.7674 47.91 22.1835 47.6201 22.6461 47.4265C23.1214 47.2238 23.6455 47.1249 24.2217 47.1249C24.7987 47.1249 25.3248 47.2266 25.7981 47.4272C26.2762 47.6264 26.6842 47.9121 27.0235 48.2768C27.3711 48.6512 27.6397 49.0918 27.8134 49.5723C27.9995 50.0716 28.0922 50.6204 28.0922 51.2207ZM27.0029 51.2207C27.0029 50.7289 26.9383 50.288 26.8071 49.8971C26.6901 49.5328 26.4999 49.1962 26.248 48.9081C26.0083 48.6374 25.715 48.4272 25.3716 48.2816C25.0071 48.1315 24.6159 48.057 24.2217 48.0625C23.8 48.0625 23.4215 48.1353 23.0774 48.2816C22.734 48.4279 22.4407 48.6347 22.1962 48.9081C21.9558 49.1759 21.7689 49.5056 21.6377 49.8971C21.5059 50.2887 21.4413 50.7282 21.4413 51.2207C21.4413 51.7132 21.5059 52.1535 21.637 52.5443C21.7689 52.931 21.9558 53.2607 22.1962 53.5334C22.4407 53.802 22.7333 54.0094 23.0774 54.153C23.4208 54.2945 23.8021 54.3652 24.2217 54.3652C24.6421 54.3652 25.0295 54.2945 25.3716 54.153C25.715 54.0074 26.0062 53.8027 26.248 53.5334C26.4884 53.2628 26.6752 52.9331 26.8071 52.5443C26.9383 52.1535 27.0029 51.7132 27.0029 51.2207ZM34.9135 47.2142V48.1236H32.3728V55.2204H31.3164V48.123H28.7709V47.2142H34.9135ZM40.9072 47.2142V48.0955H37.1362V50.7571H40.1894V51.6047H37.1362V54.3371H40.912L40.9072 55.2197H36.0723V47.2156H40.9072V47.2142ZM43.4527 54.3089H46.8472V55.2197H42.3956V47.2156H43.4527V54.3089ZM49.074 54.3089H52.4685V55.2197H48.0197V47.2156H49.074V54.3089Z" fill="#1C1E26"/>
<path d="M54.7022 47.2192H53.641V55.1591H54.7029L54.7022 47.2192Z" fill="#1C1E26"/>
</g>
<defs>
<clipPath id="clip0_491_354">
<rect width="68" height="55.1758" fill="white" transform="translate(0 0.129089)"/>
</clipPath>
</defs>
</svg>
