<svg width="113" height="60" viewBox="0 0 113 60" fill="none" xmlns="http://www.w3.org/2000/svg"><path d="M.5 59.971 6.9.106c.423-.042.715-.093 1.006-.093C11.818.008 15.726.02 19.635 0c.733-.003 1.174.085 1.264.994.925 9.366 1.88 18.73 2.856 28.093.968 9.275 1.977 18.549 2.958 27.822.103.965.127 1.94.191 2.988h-7.608c-.361-3.457-.756-6.85-1.045-10.25-.085-1.002-.326-1.437-1.43-1.386-2.014.09-4.038.054-6.054.013-.816-.015-1.208.147-1.288 1.09-.266 3.111-.672 6.208-.968 9.317-.088.922-.333 1.36-1.392 1.316-2.174-.088-4.352-.026-6.619-.026Zm16.698-19.61c-1.105-10.494-2.195-20.836-3.282-31.18-.056 0-.116.005-.173.007-1.084 10.365-2.165 20.73-3.258 31.173h6.713ZM38.14 52.18h9.157v7.709H30.504V.111h7.636V52.18Zm20.507 7.77h-7.75V.053c2.367 0 4.755-.015 7.14.028.205.003.48.382.582.64.1.262.028.592.028.89V59.95Zm16.985-13.705c1.662-15.373 3.327-30.746 4.992-46.14h8.132a574359.11 574359.11 0 0 0-7.303 59.797h-11.85C67.16 39.954 64.723 20.074 62.273.098h8.132c1.668 15.417 3.33 30.784 4.995 46.152.078 0 .158-.003.235-.005h-.002Zm32.547-14.272h-7.98v20.21h5.878c1.761 0 3.521.008 5.282-.002.568-.005 1.017.036 1.009.793-.023 2.262-.007 4.526-.007 6.896H92.356V.13h19.21v7.643h-11.413v16.346h8.023v7.854h.003Z" fill="currentColor"/></svg>