<svg width="60" height="28" viewBox="0 0 60 28" fill="none" xmlns="http://www.w3.org/2000/svg"><path d="M15.464 10.228v12.244H12.65a1.594 1.594 0 01-1.589-1.593c-1.034 1.286-2.725 2.06-4.78 2.06-2.974 0-5.145-1.417-5.845-2.95v-3.99c.948-1.958 3.425-2.922 6.21-3.258 2.754-.307 3.803-.526 4.095-.95v-.453c-.394-.701-1.34-1.315-2.944-1.315-1.749 0-3.003 1.037-3.644 2.206l-4.11-1.972C1.123 7.714 4.11 5.713 7.856 5.713c3.629.015 6.66 1.783 7.608 4.515zm-4.708 4.792c-.554.497-1.807.833-3.308 1.11-1.56.307-2.084.585-2.332 1.009v1.14c.364.423 1.078.76 2.42.76 1.369 0 2.608-.527 3.22-1.258v-2.76zM18.306.073h4.838v22.4h-4.838V.072zM42.806 11.952v4.836a4.6 4.6 0 01-.525 2.207c-1.239 2.294-3.687 3.988-6.879 3.988-1.836 0-3.367-.613-4.504-1.65v6.356H26.06V6.239h3.148c.772 0 1.413.629 1.413 1.418 1.166-1.17 2.755-1.9 4.781-1.9 3.192 0 5.64 1.695 6.88 3.989.35.672.524 1.432.524 2.206zm-4.839.175c-.393-.832-1.588-1.987-3.585-1.987-1.807 0-2.944.891-3.483 1.622v5.245c.554.731 1.676 1.651 3.483 1.651 1.997 0 3.192-1.198 3.585-2.03v-4.5zM60.15 10.228v10.71c0 .847-.684 1.534-1.53 1.534h-2.87v-1.593c-1.035 1.286-2.726 2.06-4.781 2.06-2.974 0-5.145-1.417-5.845-2.95v-3.99c.948-1.958 3.425-2.922 6.21-3.258 2.754-.307 3.789-.526 4.11-.95v-.453c-.395-.701-1.342-1.315-2.945-1.315-1.749 0-3.002 1.037-3.644 2.206l-4.124-1.972c1.078-2.543 4.066-4.544 7.811-4.544 3.63.015 6.661 1.783 7.608 4.515zM55.43 15.02c-.554.497-1.808.833-3.308 1.11-1.56.307-2.085.585-2.333 1.009v1.14c.365.423 1.08.76 2.42.76 1.37 0 2.609-.527 3.206-1.258l.015-2.76z" fill="currentColor"></path></svg>
