<svg width="71" height="34" viewBox="0 0 71 34" fill="none" xmlns="http://www.w3.org/2000/svg">
<g clip-path="url(#clip0_491_373)">
<path d="M17.9912 12.8288V27.1134H14.7082C14.2162 27.1119 13.7448 26.9154 13.3974 26.5671C13.0499 26.2188 12.8546 25.7469 12.8543 25.2549C11.648 26.7553 9.67517 27.6583 7.27767 27.6583C3.808 27.6583 1.27517 26.0051 0.4585 24.2166V19.5616C1.5645 17.2773 4.45433 16.1526 7.7035 15.7606C10.9165 15.4024 12.1403 15.1469 12.481 14.6523V14.1238C12.0213 13.3059 10.9177 12.5896 9.04633 12.5896C7.00583 12.5896 5.54283 13.7994 4.795 15.1633L0 12.8626C1.26 9.89577 4.74483 7.56127 9.11517 7.56127C13.349 7.57877 16.8852 9.64144 17.9912 12.8288ZM12.4985 18.4194C11.8522 18.9993 10.3903 19.3913 8.63917 19.7144C6.81917 20.0726 6.20783 20.3969 5.9185 20.8916V22.2216C6.34317 22.7151 7.17617 23.1083 8.74183 23.1083C10.339 23.1083 11.7845 22.4934 12.4985 21.6406V18.4194ZM21.3068 0.981269H26.9512V27.1146H21.3068V0.980103V0.981269ZM49.8902 14.8401V20.4821C49.9042 21.3781 49.6936 22.2633 49.2777 23.0569C47.8322 25.7333 44.9762 27.7096 41.2522 27.7096C39.1102 27.7096 37.324 26.9944 35.9975 25.7846V33.1999H30.3532V8.17494H34.0258C34.9265 8.17494 35.6743 8.90877 35.6743 9.82927C37.0347 8.46427 38.8885 7.6126 41.2522 7.6126C44.9762 7.6126 47.8322 9.5901 49.2788 12.2664C49.6872 13.0504 49.8902 13.9371 49.8902 14.8401ZM44.2447 15.0443C43.7862 14.0736 42.392 12.7261 40.0622 12.7261C37.954 12.7261 36.6275 13.7656 35.9987 14.6184V20.7376C36.645 21.5904 37.954 22.6638 40.0622 22.6638C42.392 22.6638 43.7862 21.2661 44.2447 20.2954V15.0454V15.0443ZM70.1248 12.8288V25.3238C70.1248 26.3119 69.3268 27.1134 68.3398 27.1134H64.9915V25.2549C63.784 26.7553 61.8112 27.6583 59.4137 27.6583C55.944 27.6583 53.4112 26.0051 52.5945 24.2166V19.5616C53.7005 17.2773 56.5903 16.1526 59.8395 15.7606C63.0525 15.4024 64.26 15.1469 64.6345 14.6523V14.1238C64.1737 13.3059 63.0688 12.5896 61.1987 12.5896C59.1582 12.5896 57.6963 13.7994 56.9473 15.1633L52.136 12.8626C53.3937 9.89577 56.8797 7.56127 61.2488 7.56127C65.4838 7.57877 69.02 9.64144 70.1248 12.8288ZM64.6182 18.4194C63.9718 18.9993 62.5088 19.3913 60.7588 19.7144C58.9388 20.0726 58.3263 20.3969 58.037 20.8916V22.2216C58.4628 22.7151 59.297 23.1083 60.8603 23.1083C62.4587 23.1083 63.9042 22.4934 64.6007 21.6406L64.6182 18.4194Z" fill="#212121"/>
</g>
<defs>
<clipPath id="clip0_491_373">
<rect width="70.1248" height="32.2198" fill="white" transform="translate(0 0.980103)"/>
</clipPath>
</defs>
</svg>
