<svg xmlns="http://www.w3.org/2000/svg" width="152" height="25.75" x="0" y="0" viewBox="0 0 271.4 46" xml:space="preserve"><path fill="currentColor" d="M173 14.2h.2l2.1 2.1c1.4 1.5 2.8 3.1 4.2 4.6 1 1.1 2.1 2.2 3.1 3.3.9 1 1.8 2.1 2.8 3.2l4.8 5.1c1.1 1.2 2.3 2.5 3.4 3.7 1.4 1.6 2.8 3.1 4.2 4.7 1.2 1.4 2.5 2.7 3.8 4.1.3.4.7.9 1.1 1 .9.2 1.9.1 2.8 0v-1.6c0-2.5.1-5 .1-7.6v-7.7c0-2.1.1-4.3.1-6.4v-8.4c0-.7-.1-1.4 0-2.1l.3-3c.1-1 .5-2.1 1.1-2.9.9-1.1 2.2-1.7 3.6-1.8 1.1-.1 2.1-.1 3.2-.2V1.6h-20.8v2.6c.2 0 .5.1.7.1 1.1.1 2.2 0 3.3.2 1.2.2 2.3.7 3 1.8.4.7.8 1.3.9 2.2.3 1.3.4 2.5.4 3.8v18.5c0 .3 0 .5-.1 1-.3-.3-.6-.5-.8-.7l-3.3-3.6c-1.1-1.2-2.2-2.3-3.4-3.5-1.2-1.2-2.3-2.5-3.4-3.8-.6-.7-1.2-1.3-1.9-1.9-1.1-1.2-2.2-2.4-3.4-3.6l-.3-.3c-.6-.7-1.2-1.5-1.9-2.2-.6-.7-1.3-1.3-1.9-2-.6-.7-1.2-1.4-1.9-2.1-1.1-1.2-2.2-2.4-3.3-3.5-.8-.8-1.6-1.7-2.3-2.5-.2-.2-.5-.3-.8-.3H160.5v2.7h1c1.3 0 2.5.1 3.7.5 1.3.4 2.2 1.3 2.7 2.5.8 1.9.7 3.9.8 5.9.1 2 0 4.1 0 6.2 0 2 .1 4.1 0 6.2 0 2.8-.1 5.6-.1 8.4 0 1.4-.2 2.8-.5 4.1-.4 1.5-1.2 2.6-2.8 3.2-1 .3-1.9.5-2.9.5-.6 0-1.3.2-2 .2v1.2c0 .4 0 .8.1 1.3h20.7v-2.5c-1.4-.2-2.7-.2-3.9-.5-1.1-.2-2.2-.7-2.9-1.7-.8-1.1-1.1-2.3-1.2-3.6-.2-1.9-.1-3.8-.2-5.6v-4.9-4.1-6.2c-.1-.5 0-1 0-1.4zM135.9 12.3v.9c.1 1.4-.1 2.7-.6 4-.1.3-.3.6-.6.9-.9 1.1-2.3 1.3-3.6 1.5-.6.1-1.2.1-1.8.2-1.3.1-2.7.1-4.1.2v-4.8-4.7c0-1.5 0-3.1.1-4.7.5 0 .9.1 1.3.1 3 0 6-.1 9 0 1.4.1 2.8.2 4.1.7.8.3 1.6.7 2.2 1.2.9.8 1.4 2 1.7 3.1.3 1 .6 2 .8 3h2.2c0-.1.1-.2 0-.3-.1-1.7-.2-3.4-.4-5.1-.1-.8-.2-1.7-.2-2.5-.1-1.1-.2-2.2-.2-3.3 0-.8-.1-1-.9-1-.9 0-1.8.1-2.7.1h-33.4c-.3 0-.7 0-1 .1v2.6h.4c1.2.1 2.3.1 3.4.3.6.1 1.2.3 1.7.5 1.1.5 1.7 1.5 2.1 2.6.3 1.1.5 2.2.5 3.3.1 1.7.2 3.5.2 5.2v5.5c0 1.8.1 3.6.1 5.4 0 1.8-.1 3.7-.1 5.5 0 1.6-.2 3.3-.4 4.9-.2.9-.4 1.7-1.1 2.4-.9 1.1-2.1 1.6-3.5 1.7l-3.3.3v2.5h40.4c.1-2.1.2-4.1.3-6.1.1-2 .3-4.1.4-6.1h-2.1c-.4 1.2-.6 2.4-1 3.5-.6 1.7-1.6 3-3.4 3.6-1.4.5-2.8.7-4.3.8-1.6.1-3.3.1-4.9.1-1.6 0-3.2.1-4.7-.4-1.1-.3-1.9-1-2.4-2-.3-.7-.6-1.4-.7-2.2-.1-.9-.3-1.9-.4-2.8-.1-1.3 0-2.6 0-4v-4.8h1.1c.9 0 1.9.1 2.8.1 1.4.1 2.8.2 4.2.7.6.2 1.1.5 1.5 1.1.7.9.9 1.9 1 3 0 .9.1 1.8.2 2.7h2.5V12.5h-2.2c.1-.3 0-.3-.2-.2zM54.5 13.8c.1-.6.2-1.1.4-1.6.3-1 .6-2.2 1.1-3.2.6-1.3 1.7-2.2 3.2-2.6 1.5-.4 3.1-.7 4.7-.7 2.7 0 5.3-.1 7.9-.1.7 0 .8.2.8.8 0 1-.1 2-.1 3v11.5c0 2.2.1 4.5 0 6.7 0 1.8 0 3.6-.1 5.5-.1 1.7-.1 3.4-.6 5-.2.7-.6 1.4-1.1 2-1.1 1.3-2.7 1.5-4.3 1.7-.7.1-1.5.2-2.3.2 0 .9-.1 1.7.1 2.5h20.1c1.8 0 3.5 0 5.3-.1h.1l.1-.1v-2.4c-.7-.1-1.3-.1-1.9-.2-1.1-.2-2.3-.1-3.3-.7-.6-.3-1.2-.6-1.6-1.2-.7-1-1-2.2-1.1-3.4-.2-2-.3-4.1-.3-6.1-.1-3.9 0-7.9 0-11.8V9.2v-3c0-.6.1-.6.7-.6h1c2.5 0 5.1 0 7.6.1 1.6 0 3.1.3 4.6.9.9.4 1.8 1 2.3 1.9.7 1.2 1 2.4 1.3 3.7l.3 1.2c.1.2.3.4.5.4.6 0 1.2 0 1.9-.1-.3-4.1-.6-8.1-1-12.2H53.5c-.3 4.1-.7 8.1-1 12.2.4.1 1.2.1 2 .1z"></path><path d="M173 14.2c0 .4-.1.9-.1 1.3V30.7c0 1.9 0 3.8.2 5.6.1 1.3.4 2.5 1.2 3.6.7 1 1.8 1.5 2.9 1.7 1.3.2 2.6.3 3.9.5v2.5h-20.7c0-.5-.1-.9-.1-1.3v-1.2c.7-.1 1.3-.2 2-.2 1 0 2-.2 2.9-.5 1.6-.5 2.4-1.7 2.8-3.2.4-1.3.5-2.7.5-4.1 0-2.8.1-5.6.1-8.4v-6.2c0-2.1.1-4.1 0-6.2-.1-2-.1-4-.8-5.9-.5-1.2-1.4-2.1-2.7-2.5-1.2-.4-2.5-.5-3.7-.5h-1V1.7H172.6c.3 0 .6.1.8.3.8.8 1.5 1.7 2.3 2.5 1.1 1.2 2.2 2.4 3.3 3.5.6.7 1.2 1.4 1.9 2.1.6.7 1.3 1.3 1.9 2 .7.7 1.3 1.5 1.9 2.2l.3.3c1.1 1.2 2.2 2.4 3.4 3.6.6.7 1.3 1.3 1.9 1.9 1.2 1.3 2.3 2.5 3.4 3.8 1.1 1.2 2.2 2.3 3.4 3.5l3.3 3.6c.2.2.4.4.8.7 0-.4.1-.7.1-1V17v-4.8c0-1.3-.2-2.6-.4-3.8-.2-.8-.5-1.5-.9-2.2-.7-1.1-1.8-1.5-3-1.8-1.1-.2-2.2-.2-3.3-.2-.2 0-.4 0-.7-.1V1.5h20.8v2.7c-1.1 0-2.2.1-3.2.2-1.4.1-2.7.7-3.6 1.8-.6.8-1 1.8-1.1 2.9-.1 1-.3 2-.3 3-.1.7 0 1.4 0 2.1v8.4c0 2.1-.1 4.3-.1 6.4v7.7c0 2.5 0 5-.1 7.6v1.6c-.9.1-1.9.2-2.8 0-.4-.1-.8-.6-1.1-1-1.3-1.4-2.5-2.7-3.8-4.1-1.4-1.6-2.8-3.1-4.2-4.7-1.1-1.2-2.3-2.5-3.4-3.7l-4.8-5.1c-.9-1-1.8-2.1-2.8-3.2-1-1.1-2.1-2.2-3.1-3.3-1.4-1.5-2.8-3.1-4.2-4.6l-2.1-2.1c0 .1 0 .1-.1.1zM135.9 12.3c.2 0 .3-.1.4-.1h2.2v19.3H136c-.1-1-.1-1.8-.2-2.7 0-1.1-.3-2.1-1-3-.4-.5-.9-.9-1.5-1.1-1.3-.5-2.8-.6-4.2-.7-.9 0-1.9-.1-2.8-.1h-1.1v4.8c0 1.3-.1 2.6 0 4 0 .9.3 1.9.4 2.8.1.8.4 1.5.7 2.2.5 1.1 1.3 1.7 2.4 2 1.5.5 3.1.4 4.7.4s3.3 0 4.9-.1c1.4-.1 2.9-.3 4.3-.8 1.7-.7 2.8-1.9 3.4-3.6.4-1.1.7-2.3 1-3.5h2.1c-.1 2.1-.3 4.1-.4 6.1-.1 2-.2 4-.3 6.1H108v-2.5l3.3-.3c1.4-.1 2.6-.6 3.5-1.7.6-.7.9-1.5 1.1-2.4.3-1.6.4-3.2.4-4.9 0-1.8.1-3.7.1-5.5 0-1.8-.1-3.6-.1-5.4 0-1.8.1-3.7 0-5.5 0-1.7-.2-3.5-.2-5.2-.1-1.1-.2-2.2-.5-3.3-.4-1.2-1-2.1-2.1-2.6-.5-.2-1.1-.4-1.7-.5-1.1-.1-2.3-.2-3.4-.3h-.4V1.6c.3 0 .6-.1 1-.1h33.4c.9 0 1.8 0 2.7-.1.8 0 .9.2.9 1 0 1.1.1 2.2.2 3.3.1.8.2 1.7.2 2.5.1 1.7.2 3.4.4 5.1v.3h-2.2c-.3-1-.5-2.1-.8-3-.4-1.2-.8-2.3-1.7-3.1-.6-.5-1.4-.9-2.2-1.2-1.3-.5-2.7-.6-4.1-.7-3-.2-6-.1-9 0-.4 0-.8 0-1.3-.1-.1 1.6-.1 3.1-.1 4.7v9.5c1.4-.1 2.7-.1 4.1-.2.6 0 1.2-.1 1.8-.2 1.3-.2 2.6-.4 3.6-1.5.2-.3.5-.6.6-.9.4-1.3.6-2.6.6-4-.2 0-.2-.2-.2-.6zM54.5 13.8h-2.4c.3-4.1.7-8.1 1-12.2h47.3c.3 4.1.6 8.1 1 12.2-.7 0-1.3.1-1.9.1-.2 0-.4-.2-.5-.4-.2-.4-.2-.8-.3-1.2-.3-1.3-.7-2.5-1.3-3.7-.5-.9-1.3-1.5-2.3-1.9-1.5-.6-3-.8-4.6-.9-2.5-.1-5.1-.1-7.6-.1h-1c-.6 0-.6 0-.7.6v24.1c0 2 .1 4.1.3 6.1.1 1.2.4 2.3 1.1 3.4.4.6 1.1.9 1.6 1.2 1 .6 2.2.5 3.3.7.6.1 1.2.1 1.9.2v2.4l-.1.1h-.1c-1.8 0-3.5.1-5.3.1H63.8c-.2-.9-.1-1.7-.1-2.5.8-.1 1.5-.2 2.3-.2 1.6-.1 3.2-.3 4.3-1.7.5-.6.9-1.3 1.1-2 .5-1.6.5-3.3.6-5 .1-1.8.1-3.6.1-5.5V21 9.5c0-1 0-2 .1-3 0-.7-.1-.8-.8-.8-2.7 0-5.3.1-7.9.1-1.6 0-3.1.2-4.7.7-1.1.3-2.2 1.2-2.8 2.5-.5 1-.7 2.2-1 3.3-.2.5-.3.9-.5 1.5zM53.3 41.8c-1.1-.1-2.2-.2-3.3-.7-.8-.4-1.6-.9-2.2-1.6-1.5-1.9-2.5-4.1-3.5-6.3-.7-1.4-1.3-2.8-1.9-4.2-.4-.8-.8-1.7-1.2-2.5-.5-1.1-.9-2.2-1.4-3.2-.7-1.6-1.5-3.1-2.3-4.7-.2-.5-.5-.9-.7-1.3-.5-1.2-1.1-2.4-1.6-3.6-.5-1.1-1.1-2.2-1.6-3.3-.8-1.7-1.5-3.3-2.3-5-.5-1.2-1.1-2.4-1.7-3.6L28.7 0h-2.5c-.4.9-.9 1.8-1.3 2.7-.7 1.4-1.3 2.8-2 4.2-.6 1.4-1.2 2.8-1.9 4.1-.8 1.8-1.7 3.5-2.5 5.2-.7 1.5-1.4 3.1-2.2 4.7-.4.9-.9 1.7-1.3 2.5-.5 1.1-.9 2.2-1.5 3.3-1.1 2.4-2.3 4.8-3.4 7.2-.7 1.4-1.4 2.9-2.2 4.3-.4.7-.9 1.4-1.5 1.9-.9.7-2 1.4-3.2 1.5-.9.1-2 .3-3.2.4v2.5h20.5V42c-.6-.1-1.2-.2-1.7-.2-.9.1-1.7-.1-2.5-.3-.4-.1-.9-.2-1.3-.4-1-.4-1.5-1.3-1.4-2.3.1-.7.3-1.5.6-2.2l2.4-5.4c.2-.4.5-.6 1-.6h15.1c.5 0 .7.2.9.6.3.7.6 1.3.9 2 .6 1.3 1.3 2.6 1.7 4 .6 1.8.2 3.5-1.9 4.1-.9.3-1.8.5-2.8.5-.6 0-1.2.1-1.8.2v2.5h24.8V42c-.4-.1-.8-.2-1.2-.2zM18.9 26.6c2.1-4.4 4.1-8.8 6.2-13.3.7 1.5 1.4 2.9 2.1 4.4.7 1.5 1.4 3 2 4.5.7 1.5 1.5 2.9 2.1 4.5-4.2-.1-8.2-.1-12.4-.1zM268.4 41.6c-1.5-.2-2.8-1-3.8-2.1-1.2-1.4-2.1-3.1-2.9-4.8-.6-1.4-1.2-2.8-1.9-4.2l-2.1-4.5c-.8-1.7-1.6-3.3-2.4-4.9-.6-1.3-1.3-2.6-1.9-4-.6-1.4-1.2-2.8-1.9-4.1-.7-1.4-1.4-2.8-2-4.2-.7-1.4-1.3-2.9-2-4.3-.3-.7-.7-1.4-1-2.1-.4-.8-.7-1.6-1.1-2.5h-2.6c-.7 1.6-1.4 3.1-2.1 4.7-.9 1.9-1.8 3.7-2.7 5.6-.9 1.8-1.7 3.7-2.6 5.6l-1.5 3.3c-.8 1.7-1.6 3.4-2.4 5-.6 1.4-1.3 2.8-1.9 4.1-.9 2-1.9 3.9-2.8 5.8-.7 1.5-1.5 2.9-2.3 4.4-.9 1.6-2.3 2.5-4 2.9-1.1.3-2.3.3-3.4.4-.2 0-.4.1-.5.1v2.5h20.5c-.1-.9.1-1.7-.1-2.5-.7-.1-1.2-.2-1.8-.2-1.2 0-2.4-.1-3.5-.6s-1.6-.8-1.5-2.1c.1-1 .4-1.9.7-2.8.3-.9.8-1.7 1.1-2.5.5-1.1 1-2.1 1.4-3.2h16.5c.3.7.6 1.3.9 2 .7 1.6 1.4 3.2 2 4.9.6 1.5.3 2.6-1 3.4-.6.4-1.3.5-2 .7-.7.2-1.4.2-2.1.2-.5.1-1 .1-1.6.2.2.8-.2 1.7.2 2.5h24.8v-2.5c-.7.1-1.7 0-2.7-.2zm-32.7-15c2.1-4.4 4.1-8.7 6.1-13.1.1.1.3.2.4.3l6 12.8h-12.5z"></path></svg>
