<svg xmlns="http://www.w3.org/2000/svg" width="90" height="55.63" viewBox="0 0 288.417 181.045"><path fill="#fff" class="text" d="M44.052 59.074c0-4.354-2.395-7.837-9.579-7.837H23.912v16.656h8.927c8.491 0 11.213-3.158 11.213-7.838v-.981zm-.435-31.243c0-4.245-2.613-6.967-11.104-6.967-.872 0-7.839.109-8.601.109v15.458h10.561c7.184 0 9.144-3.048 9.144-6.859v-1.741zM29.9 85.855c-5.552 0-15.785-.437-20.901-1.306-5.116-.872-6.859-2.396-6.859-8.274V12.373c0-5.879 1.743-7.403 6.75-8.165 4.572-.763 15.241-1.306 20.684-1.306 21.445 0 35.379 5.007 35.379 23.297v1.85c0 6.858-3.484 12.736-8.382 15.458 4.898 2.83 8.818 8.818 8.818 15.785v1.415c0 21.012-18.072 25.148-35.489 25.148m62.86-.98H76.322c-1.198 0-2.395-1.198-2.395-2.396V5.255c0-1.198 1.197-2.179 2.395-2.179H92.76c1.197 0 2.177.981 2.177 2.179v77.224c0 1.198-.98 2.396-2.177 2.396m119.757.867c-3.739 0-8.491.114-14.912.114-16.655 0-26.019-10.669-26.019-28.523v-8.165c0-17.744 9.363-28.63 26.019-28.63 6.421 0 11.608.024 14.912.024 1.415.326 2.179.871 2.179 2.286V35.97c0 1.198-.98 2.07-2.069 2.07-.109 0-7.402.133-12.737.133-4.68 0-7.401 2.939-7.401 10.995v8.165c0 8.056 2.722 10.887 7.401 10.887 5.335 0 12.572-.055 12.68-.055 1.09 0 2.07.872 2.07 2.07l.057 13.222c-.001 1.414-.415 2.285-2.18 2.285m72.349-.867h-20.141c-1.195 0-2.393-.654-3.373-2.396l-13.826-24.82v24.82c0 1.198-.98 2.396-2.178 2.396H229.02c-1.197 0-2.396-1.198-2.396-2.396V4.919c0-1.198 1.198-2.178 2.396-2.178h16.328c1.198 0 2.178.98 2.178 2.178v43.487l14.915-24.929c.978-1.742 2.067-1.96 3.156-1.96h18.834c.977 0 1.523.545 1.523 1.306 0 .327-.108.654-.327.98l-18.832 28.195 19.268 30.481c.217.326.217.655.217.872.001.761-.545 1.524-1.414 1.524M44.052 152.546c0-4.355-2.395-7.838-9.579-7.838H23.912v16.656h8.927c8.491 0 11.213-3.159 11.213-7.839v-.979zm-.435-31.243c0-4.245-2.613-6.968-11.104-6.968-.872 0-7.839.109-8.601.109v15.458h10.561c7.184 0 9.144-3.048 9.144-6.858v-1.741zM29.9 179.324c-5.552 0-15.785-.435-20.901-1.304-5.116-.872-6.859-2.396-6.859-8.274v-63.901c0-5.88 1.743-7.404 6.75-8.165 4.572-.764 15.241-1.307 20.684-1.307 21.445 0 35.379 5.01 35.379 23.298v1.85c0 6.858-3.484 12.736-8.382 15.458 4.898 2.83 8.818 8.817 8.818 15.784v1.415c0 21.009-18.072 25.146-35.489 25.146m74.667-48.126c-2.722 0-7.077.109-9.036.436v44.198c0 1.197-.98 2.395-2.178 2.395H77.025c-1.198 0-2.395-1.198-2.395-2.395v-58.416c0-1.741.894-3.591 3.918-3.591 7.044 0 14.697.065 26.019.065 1.305 0 2.612.761 2.612 2.176v12.954c-.001 1.199-.979 2.178-2.612 2.178m43.101 48.007h-.652c-17.201 0-28.086-9.905-28.086-26.671v-35.27c0-1.198.979-2.396 2.286-2.396h16.328c1.307 0 2.287 1.198 2.287 2.396v35.27c0 5.227 2.069 9.254 7.186 9.254h.652c5.116 0 7.186-4.027 7.186-9.254v-35.27c0-1.198.98-2.396 2.285-2.396h16.329c1.307 0 2.286 1.198 2.286 2.396v35.27c-.001 16.766-10.887 26.671-28.087 26.671m61.533-.978h-16.219c-1.198 0-2.396-1.198-2.396-2.396v-47.576c0-1.197 1.197-2.286 2.396-2.286h16.219c1.198 0 2.396 1.089 2.396 2.286v47.576c-.001 1.198-1.198 2.396-2.396 2.396m72.979 0h-16.33c-1.306 0-2.284-1.198-2.284-2.396v-37.883c0-4.137-.329-7.076-5.443-7.076h-4.138c-5.117 0-5.442 2.939-5.442 7.076v37.883c0 1.198-.98 2.396-2.287 2.396h-16.327c-1.307 0-2.287-1.198-2.287-2.396v-37.883c0-16.764 3.796-23.949 20.997-23.949h15.438c17.199 0 20.392 7.185 20.392 23.949v37.883c-.002 1.198-.983 2.396-2.289 2.396"/><path fill="#fff" d="M207.011 116.677h-13.93c-1.198 0-2.502-.996-2.502-2.216V97.582c0-1.218 1.304-2.216 2.502-2.216h16.415c1.198 0 2.394.998 2.394 2.216v16.879c0 1.22-1.195 2.216-2.394 2.216h-2.485z"/><path fill="#fff" class="text" d="M139.736 70.642c-1.218.222-3.101.332-4.873.332-4.983 0-7.973-.885-7.973-5.426v-.996c0-4.651 2.547-6.534 7.973-6.534h4.873v12.624zm20.597 9.413V43.4c0-18.715-11.96-24.031-28.017-24.031-7.087 0-11.369.051-18.03.051-2.63 0-3.356.327-3.232 3.048v12.045c0 1.44.466 2.467 2.326 2.467 3.21 0 11.738-.003 18.936-.003 3.765 0 6.866.996 6.866 6.423v3.1h-4.319c-17.607 0-28.238 4.873-28.238 18.161v.886c0 13.843 9.302 20.265 28.238 20.265 9.191 0 17.428-.351 21.509-.351 3.356 0 3.961-1.451 3.961-5.406"/></svg>