<svg width="100" height="34" viewBox="0 0 100 34" fill="none" xmlns="http://www.w3.org/2000/svg">
<g clip-path="url(#clip0_506_246)">
<path d="M34.3924 32.9594L29.6912 22.0218H29.6045V32.886C29.6045 33.3685 29.5505 33.4218 29.0566 33.4218H27.2554C26.8778 33.4218 26.7742 33.3157 26.7742 32.9491V15.2279C26.7742 14.8715 26.8912 14.7582 27.259 14.7551H29.0893C29.214 14.7409 29.3397 14.7712 29.4443 14.8406C29.5488 14.91 29.6255 15.0141 29.6609 15.1345C31.1869 18.8115 32.7172 22.486 34.2524 26.1588C34.299 26.2679 34.3621 26.3679 34.4524 26.5345C34.5396 26.3709 34.6027 26.2751 34.6499 26.1685L39.2002 15.2812C39.4142 14.7648 39.4275 14.7545 40.0027 14.7545H41.7196C42.0542 14.7545 42.1409 14.8479 42.1409 15.1848V32.9891C42.1409 33.3424 42.0608 33.4188 41.6966 33.4224H39.8651C39.3972 33.4224 39.3099 33.3357 39.3099 32.8757V22.0321L39.2269 22.0018C38.3712 23.7903 37.6463 25.6321 36.8609 27.4503C36.076 29.2685 35.2972 31.1139 34.5221 32.946L34.3924 32.9594ZM72.1887 24.1V15.363C72.1887 14.8873 72.2754 14.8006 72.7602 14.8006C75.1154 14.8006 77.4748 14.7606 79.8299 14.8006C82.7469 14.8636 85.0827 16.7788 85.2433 19.8757C85.3233 21.3812 85.0093 22.7667 84.0002 23.9424C83.5364 24.4689 82.9671 24.8922 82.3293 25.1848C81.9554 25.3648 81.9287 25.4545 82.119 25.8212C83.3221 28.1412 84.5257 30.4612 85.7312 32.7818C86.0118 33.3242 85.9984 33.3545 85.3802 33.3545H83.2887C83.1491 33.3658 83.0095 33.333 82.8895 33.2607C82.7696 33.1884 82.6754 33.0802 82.6202 32.9515C81.4608 30.717 80.2814 28.4848 79.1318 26.2509C79.0691 26.1017 78.9613 25.9759 78.8235 25.8911C78.6856 25.8063 78.5247 25.7668 78.3633 25.7782H75.6705C75.0487 25.7782 75.0021 25.8309 75.0021 26.4436V32.8485C75.0021 33.3242 74.9621 33.3642 74.4742 33.3642H72.6433C72.2724 33.3642 72.1718 33.2612 72.1718 32.8854L72.1887 24.0988V24.1ZM77.7984 17.6388H75.5099C75.1287 17.6388 75.0184 17.7448 75.0184 18.1315V22.4612C75.0184 22.8539 75.1324 22.9642 75.5366 22.9642H79.596C80.1108 22.9688 80.6197 22.8548 81.0833 22.6309C81.4137 22.4911 81.7034 22.2699 81.9254 21.9881C82.1474 21.7062 82.2945 21.3728 82.353 21.0188C82.4122 20.6726 82.4336 20.3211 82.4166 19.9703C82.3868 19.326 82.1055 18.719 81.633 18.28C81.1595 17.8403 80.5329 17.603 79.8869 17.6188L77.7984 17.6388ZM58.2608 24.1267V15.44C58.2608 14.8533 58.3008 14.817 58.899 14.817H69.8621C70.3566 14.817 70.4136 14.8703 70.4136 15.3503V17.1182C70.4136 17.5812 70.3433 17.6479 69.8851 17.6479H61.639C61.1408 17.6479 61.1008 17.6842 61.1008 18.1842V22.1939C61.1008 22.6467 61.1815 22.7273 61.6324 22.7273H66.9281C67.3493 22.7273 67.4196 22.8 67.4196 23.2267V25.0248C67.4196 25.4479 67.3427 25.5279 66.9251 25.5279H61.6287C61.1712 25.5279 61.1008 25.6006 61.1008 26.0612V30.0939C61.1008 30.5503 61.1681 30.6133 61.6354 30.6133H69.8821C70.3633 30.6133 70.4099 30.66 70.4136 31.1297V32.9582C70.4136 33.3612 70.3433 33.4309 69.9524 33.4309H58.7324C58.3378 33.4309 58.2645 33.3479 58.2645 32.9279L58.2608 24.1254V24.1267ZM87.513 24.1V15.3103C87.513 14.8612 87.573 14.8012 88.0239 14.8012H99.1342C99.5815 14.8012 99.6518 14.8709 99.6518 15.3073V17.1357C99.6518 17.5551 99.5748 17.6321 99.1542 17.6321H90.9075C90.3766 17.6321 90.3427 17.6654 90.3427 18.1982V22.2212C90.3427 22.6345 90.4299 22.7212 90.8475 22.7242H96.1736C96.5808 22.7242 96.6748 22.8176 96.6748 23.2273V25.0521C96.6748 25.4218 96.5675 25.5248 96.1966 25.5248H90.8705C90.4166 25.5248 90.3427 25.5982 90.3427 26.0545V30.1079C90.3427 30.5309 90.4166 30.6006 90.8475 30.6006H99.0905C99.6148 30.6006 99.6518 30.637 99.6518 31.1733V32.9151C99.6518 33.3582 99.5918 33.4182 99.1342 33.4182H88.0542C87.556 33.4182 87.513 33.3751 87.513 32.8854V24.1ZM43.976 24.0697V15.3667C43.976 14.8273 44.0493 14.7545 44.5839 14.7545H51.2833C52.4227 14.7363 53.5457 15.0218 54.5378 15.5806C55.1098 15.8915 55.6123 16.3159 56.0145 16.8278C56.4168 17.3397 56.7103 17.9283 56.8772 18.5576C57.2476 19.8322 57.1946 21.1925 56.7263 22.4345C56.0312 24.2994 54.5778 25.2751 52.6966 25.6982C52.276 25.7794 51.8481 25.8176 51.4202 25.8115H47.3572C46.8996 25.8115 46.7996 25.9085 46.7996 26.3576V32.8321C46.7996 33.3521 46.7293 33.4218 46.2015 33.4218H44.5305C44.0863 33.4218 43.9893 33.3285 43.9893 32.8885L43.976 24.0697ZM49.6124 17.6351V17.5951H47.3705C46.9463 17.5951 46.819 17.7188 46.819 18.1345V22.4145C46.819 22.9006 46.913 22.9976 47.4039 22.9976H51.3269C51.878 23.0134 52.4251 22.8992 52.9239 22.6642C53.2593 22.5229 53.553 22.2981 53.777 22.0113C54.001 21.7245 54.148 21.3851 54.2039 21.0254C54.2645 20.6697 54.2827 20.3073 54.2572 19.9467C54.1602 18.6145 53.2748 17.7848 51.8881 17.6485C51.1263 17.5757 50.3778 17.6351 49.6124 17.6351ZM23.5251 33.4054H22.439C22.3054 33.4205 22.1708 33.3866 22.0603 33.3101C21.9497 33.2335 21.8707 33.1195 21.8378 32.9891C21.6136 32.363 21.3863 31.7406 21.1693 31.1145C21.1364 30.9532 21.0427 30.8107 20.9077 30.7164C20.7727 30.6221 20.6067 30.5833 20.4439 30.6079H15.456C15.2936 30.5887 15.1297 30.6297 14.9954 30.723C14.8611 30.8163 14.7656 30.9556 14.7269 31.1145C14.5069 31.7303 14.2863 32.3497 14.059 32.966C14.0331 33.1044 13.9545 33.2272 13.8397 33.3086C13.7249 33.3901 13.583 33.4237 13.4439 33.4024H11.239C10.8778 33.4024 10.8209 33.3194 10.9548 32.9691C11.8924 30.4824 12.8348 27.9957 13.7815 25.5091L17.7342 15.1079C17.7418 15.0799 17.753 15.053 17.7675 15.0279L17.9681 14.7751C18.053 14.8539 18.1239 14.946 18.179 15.0479C19.4795 18.4752 20.7746 21.9045 22.0645 25.3357L24.9051 32.883C24.9318 32.9527 24.9615 33.0224 24.9815 33.0957C25.0384 33.3091 24.9815 33.4291 24.7342 33.4291C24.3166 33.4024 23.9257 33.4054 23.5251 33.4054ZM17.9948 28.1703H19.8827C20.1566 28.1703 20.2172 28.0836 20.113 27.837C19.4691 26.1223 18.8232 24.4083 18.1754 22.6951C18.1268 22.6091 18.0674 22.5296 17.9984 22.4588C17.9206 22.5327 17.8542 22.6179 17.8015 22.7115C17.1596 24.3879 16.5227 26.0642 15.8899 27.7406C15.7627 28.0739 15.8263 28.177 16.1905 28.177C16.7924 28.1733 17.3936 28.1703 17.9948 28.1703ZM5.07055 25.4327V18.1054C5.07055 17.6527 4.98691 17.5727 4.53903 17.5697H0.787518C0.375397 17.5751 0.259033 17.463 0.259033 17.0503V15.2818C0.259033 14.8757 0.389336 14.7454 0.783882 14.7454H12.2081C12.5815 14.7454 12.7087 14.8685 12.7124 15.2351V17.1067C12.7124 17.44 12.5918 17.566 12.2409 17.566H8.43479C8.00449 17.566 7.91358 17.6563 7.91358 18.0824V32.957C7.91358 33.1873 7.80691 33.3103 7.58024 33.3103H5.43055C5.3858 33.3142 5.34074 33.3082 5.29853 33.2928C5.25633 33.2775 5.218 33.253 5.18624 33.2213C5.15448 33.1895 5.13005 33.1512 5.11467 33.109C5.09929 33.0668 5.09333 33.0217 5.09721 32.977V32.7206L5.06994 25.4333L5.07055 25.4327ZM7.57903 6.6721V0.623619C7.57903 0.263619 7.60934 0.247256 7.94327 0.247256H12.4942C13.2215 0.253316 13.9384 0.422407 14.5924 0.739983C15.7554 1.30301 16.2063 2.30544 16.3166 3.50423C16.3553 3.93193 16.3294 4.36304 16.2396 4.78301C16.1684 5.11993 16.0291 5.43877 15.8304 5.72002C15.6316 6.00128 15.3776 6.23904 15.0839 6.41877C14.813 6.58847 14.8166 6.7521 15.0839 6.9315C15.4568 7.16268 15.7661 7.48333 15.9837 7.86434C16.2013 8.24534 16.3203 8.67466 16.3299 9.11332C16.3966 10.2254 16.1427 11.2345 15.3045 12.0236C14.6176 12.6889 13.7013 13.0645 12.7451 13.0727C11.1542 13.0963 9.56024 13.0727 7.96691 13.0727C7.59903 13.0727 7.57903 13.0497 7.57903 12.68V6.6715V6.6721ZM11.3512 5.6721H12.7209C13.1205 5.68528 13.5107 5.54867 13.8148 5.28907C14.1182 5.03011 14.3135 4.66681 14.3621 4.27089C14.5154 3.0715 13.9978 2.30907 12.8045 2.19574C11.8324 2.10241 10.8439 2.17574 9.86509 2.16907C9.63418 2.16907 9.53055 2.26907 9.53055 2.50241V5.38301C9.53055 5.59271 9.62085 5.6921 9.84146 5.68907C10.339 5.67271 10.8439 5.67938 11.3512 5.67938V5.67271V5.6721ZM11.3815 7.63756H9.8954C9.62146 7.63756 9.51782 7.73089 9.52085 8.00059V10.7685C9.52085 11.0382 9.62449 11.1442 9.8954 11.1412C10.8475 11.1412 11.8033 11.1412 12.7554 11.1145C13.0488 11.1177 13.3374 11.0405 13.5901 10.8914C13.8427 10.7423 14.0497 10.5268 14.1887 10.2685C14.3104 10.0677 14.3898 9.84429 14.4222 9.61181C14.4546 9.37933 14.4393 9.14268 14.3772 8.91632C14.3151 8.68996 14.2075 8.47863 14.061 8.29524C13.9145 8.11185 13.7322 7.96024 13.5251 7.84968C13.2481 7.70099 12.9361 7.63 12.6221 7.64423L11.3821 7.63756H11.3815ZM48.3075 0.14665L55.1269 8.13998L55.2178 8.10665V0.643013C55.2178 0.243013 55.2372 0.223013 55.6354 0.223013H56.7542C56.9845 0.223013 57.0887 0.319983 57.0718 0.556347V12.7751C57.0718 12.9048 57.0718 13.0351 57.0554 13.1618L56.9784 13.1982L50.1754 5.24241L50.1021 5.27271V12.646C50.1021 13.0854 50.1021 13.0988 49.6572 13.1024H48.5415C48.3245 13.1024 48.2075 13.0157 48.2305 12.7957V0.187256L48.3075 0.147256V0.14665ZM60.0833 6.6721V0.64968C60.0833 0.253316 60.0833 0.24665 60.4784 0.24665H68.0627C68.4305 0.24665 68.4639 0.273316 68.4639 0.626044V1.82544C68.4639 2.0921 68.3736 2.18847 68.096 2.18847H62.4863C62.0487 2.18847 62.0221 2.21513 62.0221 2.6612V5.19938C62.0221 5.69938 62.0451 5.71938 62.5596 5.71938H65.9681C66.3724 5.71938 66.3954 5.74241 66.3954 6.15877V7.2721C66.3954 7.6418 66.339 7.65514 66.0111 7.65514H62.4396C62.0651 7.65514 62.0287 7.68847 62.0287 8.05756V10.7788C62.0287 11.1121 62.0718 11.1551 62.4093 11.1551H67.9893C68.4536 11.1551 68.4639 11.1551 68.4639 11.6412V12.6109C68.4639 13.1 68.4639 13.1103 67.976 13.1103H60.5081C60.0972 13.1103 60.0839 13.1103 60.0839 12.697V6.67271L60.0833 6.6721ZM88.133 13.22C86.6847 13.2533 85.2449 12.9892 83.9027 12.4442C83.1578 12.1412 83.1111 12.0939 83.5087 11.4442C83.6657 11.1848 83.7924 10.9048 83.9263 10.6351C84.0299 10.4291 84.1402 10.3721 84.3772 10.4854C85.8397 11.2152 87.5063 11.4278 89.1051 11.0885C89.7166 10.9612 90.2348 10.6921 90.4414 10.026C90.5334 9.80301 90.5447 9.55489 90.4733 9.32444C90.402 9.09399 90.2524 8.89565 90.0505 8.76362C89.4866 8.43196 88.9006 8.13936 88.2966 7.88786C87.5378 7.55453 86.736 7.32786 85.9978 6.96483C85.0524 6.49877 84.2639 5.81332 83.9396 4.77392C83.3948 3.0418 83.9396 0.633922 86.6293 0.240589C88.1673 -0.0191526 89.7475 0.170671 91.1802 0.787256C91.4166 0.889074 91.6408 1.01756 91.8481 1.17029C91.89 1.21375 91.92 1.26721 91.9352 1.32557C91.9505 1.38393 91.9506 1.44523 91.9354 1.50362C91.7348 1.93271 91.5045 2.34604 91.2669 2.76544C91.2447 2.81884 91.205 2.86314 91.1544 2.89109C91.1038 2.91905 91.0452 2.92902 90.9881 2.91938C90.9501 2.91276 90.914 2.89763 90.8827 2.87513C89.942 2.41663 88.92 2.14847 87.8754 2.08604C87.5347 2.05754 87.1916 2.07774 86.8566 2.14604C85.7439 2.38544 85.3293 3.36483 85.8912 4.35089C86.073 4.70113 86.3671 4.98026 86.7263 5.14362C87.3117 5.38997 87.9069 5.61218 88.5105 5.80968C89.433 6.08455 90.3108 6.49161 91.1166 7.01817C93.1851 8.47029 92.7105 11.7679 90.4887 12.7067C89.7433 13.026 88.9439 13.2006 88.133 13.22ZM35.7069 13.2394C34.3791 13.2072 33.0669 12.9458 31.8281 12.4667H31.8008C31.036 12.0667 31.0796 12.0873 31.4269 11.4679C31.5784 11.206 31.7184 10.9357 31.8475 10.6582C31.9578 10.4254 32.0651 10.3721 32.3324 10.4951C33.8489 11.248 35.5834 11.438 37.2269 11.0315C37.4906 10.9872 37.7367 10.8702 37.9375 10.6937C38.1382 10.5171 38.2857 10.288 38.3633 10.0321C38.446 9.81353 38.4568 9.57428 38.3943 9.3491C38.3317 9.12393 38.199 8.92457 38.0154 8.77998C37.4341 8.36372 36.7886 8.04538 36.1045 7.83756C35.3427 7.54786 34.5712 7.26483 33.8354 6.91817C33.1874 6.60456 32.6366 6.12115 32.2415 5.51938C31.7425 4.80995 31.5364 3.93546 31.6658 3.07787C31.7953 2.22029 32.2505 1.44565 32.9366 0.915135C33.3915 0.562825 33.9286 0.331958 34.4972 0.244226C36.1146 -0.0424074 37.7809 0.177295 39.2687 0.873317C40.0202 1.23695 40.0202 1.23695 39.636 1.96907C39.5027 2.21877 39.3657 2.46907 39.2384 2.72544C39.1384 2.9218 39.0142 2.98483 38.8008 2.87513C37.8106 2.39958 36.7346 2.12892 35.6372 2.07938C35.3508 2.06317 35.0635 2.0889 34.7845 2.15574C33.6584 2.40544 33.2475 3.38786 33.8324 4.38362C34.0346 4.74449 34.3488 5.02976 34.7275 5.19635C35.2324 5.41635 35.7505 5.60604 36.2748 5.77938C37.1539 6.02997 37.9972 6.39254 38.7839 6.85816C39.2045 7.11437 39.5632 7.46055 39.8342 7.87184C40.1052 8.28314 40.2817 8.74933 40.3512 9.23695C40.4201 9.72441 40.3797 10.2211 40.2329 10.691C40.0862 11.1609 39.8367 11.5923 39.5027 11.9539C38.8279 12.6269 37.939 13.0428 36.9899 13.1297C36.5657 13.1897 36.1348 13.206 35.7069 13.2394ZM76.0215 13.2163C74.6799 13.2178 73.3497 12.9704 72.0984 12.4866C71.3366 12.2103 71.3136 12.12 71.6705 11.4176C71.8075 11.1545 71.9518 10.8982 72.0784 10.6351C72.2057 10.3721 72.2857 10.3685 72.5227 10.4848C73.9878 11.2103 75.6544 11.4216 77.2542 11.0848C77.8287 10.9648 78.3402 10.7285 78.5505 10.0848C78.6561 9.84758 78.6759 9.58098 78.6065 9.33074C78.537 9.08051 78.3827 8.86223 78.1699 8.71332C77.6033 8.30754 76.9699 8.00435 76.2984 7.81756C75.3699 7.56384 74.4822 7.17917 73.6621 6.67513C72.8233 6.10241 72.1754 5.39271 71.9681 4.36726C71.8195 3.64452 71.8762 2.89459 72.1318 2.20241C72.3045 1.71868 72.603 1.28967 72.9964 0.959478C73.3899 0.629285 73.8642 0.409814 74.3705 0.323619C76.1034 -0.091125 77.9267 0.111413 79.5263 0.896347C80.3815 1.32301 80.2245 1.25271 79.8602 1.95574C79.7433 2.18604 79.6196 2.4121 79.5027 2.63816C79.3227 2.9715 79.2724 2.9715 78.9251 2.82847C77.7632 2.26591 76.4729 2.02125 75.1857 2.11938C74.4075 2.19877 73.8996 2.63513 73.8093 3.34423C73.7656 3.64491 73.8098 3.95183 73.9367 4.22791C74.0636 4.50399 74.2678 4.73741 74.5245 4.89998C75.0372 5.22423 75.5893 5.4818 76.1681 5.66604C77.111 5.93916 78.0217 6.31304 78.8845 6.7812C79.8305 7.35756 80.5021 8.14726 80.5724 9.28241C80.6821 11.0509 79.9039 12.34 78.1633 12.9127C77.4704 13.129 76.7471 13.2319 76.0215 13.2163ZM28.2481 4.82665C28.2481 6.15877 28.2784 7.47089 28.2481 8.79332C28.2489 9.90155 27.8203 10.967 27.0524 11.766C26.2829 12.5664 25.2344 13.0392 24.1251 13.086C22.9154 13.1527 21.7857 12.9497 20.8208 12.1636C20.3074 11.7557 19.8927 11.2372 19.6075 10.6467C19.3223 10.0563 19.1739 9.40906 19.1736 8.75332C19.1233 6.04544 19.1736 3.33453 19.1736 0.623619C19.1736 0.290286 19.2299 0.227256 19.5742 0.223619C19.9184 0.220589 20.356 0.223619 20.7469 0.223619C21.1378 0.223619 21.1215 0.256953 21.1215 0.599983V8.26059C21.1215 8.67392 21.1845 9.08483 21.3081 9.47877C21.4263 9.90968 21.6705 10.2951 22.0099 10.586C22.3493 10.877 22.7681 11.06 23.213 11.1109C24.4627 11.3048 25.5754 10.8115 26.0263 9.75574C26.196 9.34423 26.2869 8.90483 26.2936 8.45998C26.3202 5.86604 26.3202 3.2612 26.3202 0.656953C26.3202 0.243619 26.3402 0.223619 26.7548 0.223619H27.8439C28.2081 0.223619 28.2651 0.223619 28.2651 0.633316L28.2481 4.82665ZM43.0287 6.67816V0.713316C43.0287 0.327256 43.076 0.280589 43.4499 0.280589H44.6827C44.7263 0.269562 44.772 0.269554 44.8156 0.280567C44.8593 0.29158 44.8995 0.313268 44.9327 0.34368C44.9658 0.374092 44.9909 0.412274 45.0057 0.454791C45.0205 0.497309 45.0244 0.542829 45.0172 0.587256V12.597C45.0172 13.103 44.9972 13.126 44.4857 13.126H43.5439C43.0893 13.126 43.0463 13.083 43.0463 12.6436L43.0287 6.67816Z" fill="#222222"/>
</g>
<defs>
<clipPath id="clip0_506_246">
<rect width="99.3927" height="33.3176" fill="white" transform="translate(0.259033 0.113281)"/>
</clipPath>
</defs>
</svg>
