<svg fill="#fff" xmlns="http://www.w3.org/2000/svg" width="120" height="82.5" viewBox="0 0 203.1 141.7"><path d="M88.7 53.4c1.5-2 2.3-4.3 2.5-7 0-1.1-.3-2.1-1.1-2.9l-.1-.1-.1-.1c-.1-.1-.2-.2-.3-.2-.9-.8-1.8-1.5-3.1-1.7-.3-.1-.7-.1-1-.1l.3-.3.3-.3c.2-.2.4-.4.6-.7l.6-.9.2-.3c.3-.4.5-.8.8-1.2l.4-.6c.5-.7 1.1-1.6 1.5-2.5.5-1 1.2-2.3 1.3-3.8 0-.6-.1-1-.8-1.3-.7-.3-1.5-.3-2.5-.1-.4.1-.8.3-1.1.5l-.5.2-.1.1c-1 .7-2 1.5-3.1 2.7-1.1 1.2-2 2.3-2.8 3.5-.8 1.2-1.6 2.4-2.3 3.7-.2.3-.3.6-.5.9.1-.2.1-.5.1-.7V40c.1-.4.1-.8.2-1.2.1-.3.1-.6.1-.9 0-.3.1-.6.1-.8 0-.2.1-.4.1-.6v-.3c.2-.9.3-1.9.3-2.9 0-.4 0-.9-.4-1.3-.1-.1-.2-.3-.4-.4-.2-.1-.5-.2-.6-.2-.8 0-1.4.6-1.5 1.2v.8c0 .5-.1 1-.2 1.5l-.2 1.2c-.3 1.5-.5 3.1-.7 4.6-.1.4-.1.8-.1 1.2l-.1.9c-.1 1.2-.1 2.4-.4 3.6-.4 1.5-.5 3-.4 4.7 0 .2.1.4.3.5l.1.1c.1.1.3.2.4.3.2.1.4.1.6.1.5 0 1-.4 1.2-.9v-.6c.1-.4.1-.7.1-1.1 0-.6.1-1.2.2-1.7 0-.2.1-.3.1-.4.1-.3.2-.6.2-.9.2-1.4.8-2.7 1.4-3.8l.1-.1c1.1-2.2 2.4-4.3 3.8-6.3.1-.1.2-.2.3-.4l.7-.8c.4-.5.8-.9 1.2-1.4.8-.9 1.8-1.6 2.6-2.2h.1c-.1.5-.2.9-.3 1.2-.2.6-.4 1.2-.6 1.6l-.2 1.2c-.2.3-.4.6-.5.9l-.2.3c-.1.3-.3.7-.6.9-.3.3-.5.6-.7.9-.1.1-.1.2-.2.3-.3.5-.6.9-1 1.2 0 0-.1.1-.1.2v.1c-.1.1-.2.3-.3.4l-.1.2c-.1.1-.2.2-.2.3-.1.1-.2.3-.3.4-.1.1-.1.2-.2.3l-.3.1c-.1.2-.3.5-.1.9.2.6.6.9 1.2.9.3 0 .6-.1.9-.4l.1-.1c.1 0 .1-.1.2-.1.1-.1.3-.2.4-.3.7-.2 1.4-.2 2 .1.7.3 1 .9 1.4 1.6l.1.1v.5c.1.3.1.7.1 1.1.1 1.1 0 2.1-.4 2.9-.1.2-.1.3-.2.5s-.1.3-.2.5c-.1.1-.1.3-.2.4-.1.1-.1.3-.2.4 0 .1 0 .1-.1.1v.1c-.1.2-.2.4-.3.5l-.3.4c-.6.7-1.1 1.4-1.9 1.8-.7.3-1.5.3-2.1 0-.3-.2-.8-.5-.9-1.1-.2-.7-.6-2.4.1-3.1.1-.1.1-.2.2-.3v-.2c.1-.2.1-.4.1-.5h.1l-.2-.2c-.1-.1-.1-.2-.3-.3 0 0-.1-.1-.3-.1h-.1c-.1 0-.4 0-.6.3-.5.7-.6 1.3-.7 2l.1.6c-.3 1.4.2 2.8 1.1 3.8 1.1 1.2 2.4 1.3 3.8 1.4h.1c.7 0 1.4-.2 2.2-.7.9-.5 1.6-1.2 2.3-2.1z"/><path d="M103.5 42c-.4-.4-.9-.4-1.5-.2-.1.1-.2.2-.4.3l-.2.2c-.8.7-1.4 1.6-1.9 2.4-.4.7-.9 1.5-1.6 2.4l-.1.2c-.4.7-1.1 1.3-1.8 1.8-.1 0-.1.1-.1.1l-.1-.1c-.1-.4-.2-.8-.2-1.1 0-1.9.2-3.4.7-4.9.2-.4.2-.9.2-1.4 0-.4-.3-.7-.7-.7-.1 0-.3 0-.5-.1-.3-.1-.6-.1-1-.1-.3.1-1 .2-1.1 1.1 0 .1-.1.3-.1.5-.6 1.2-.8 2.5-1 3.8-.3 1.7.2 3.3 1.5 4.6.2.3.5.4.8.4 1.3 0 2.2-.3 3-1 .4-.4.9-.9 1.3-1.6.3-.4.5-.8.8-1.2l.1-.1c0 .2-.1.3-.2.5s-.1.5-.2.7c0 .1-.1.3-.1.4 0 .2-.1.3-.2.5.2.2.1.4.1.6l-.7 2.4v.3c0 .1-.1.1-.1.2v.1c-.1.2-.1.4-.1.7 0 .3-.1.6-.2.9l-.1.1c-.2.5-.4 1.1-.5 1.6v.1c-.1.5-1.1 3.6-1.3 3.9l-.1.1c0 .1-.1.2-.1.3-.1.2-.1.3-.2.5-.5 1.7-1.9 3.3-3.4 3.8-1 .4-2.1.3-3-.3-.9-.6-1.4-1.4-1.6-2.4-.1-.7-.1-1.3 0-1.8.1-.7.3-1.2.6-1.6.2-.3.4-.6.5-.9.1-.2.2-.4.4-.6l.1-.1c.4-.7.8-1 1.3-1.2.2 0 .4-.1.5-.3.1-.2.2-.4.2-.6 0-.1 0-.4-.2-.5-.2-.2-.4-.2-.6-.2-1 .2-1.7.6-2.1 1.3l-.2.3c-.2.2-.3.5-.4.7-.1.1-.2.2-.2.4-.2.2-.3.5-.4.7-.8 1.3-1.1 2.6-1.1 3.9 0 1.4.8 2.9 1.9 3.9 1.1 1 2.4 1.5 3.7 1.5h.4c3.9-.3 5.9-4 7-6.7.5-1.3 1-2.6 1.3-3.9.1-.2.1-.5.2-.7 0-.2.1-.3.1-.5l.3-1c.2-.9.6-2.1.7-2.7l.2-.6c.3-.9.5-1.7.7-2.4.1-.3.2-.7.3-1.1l.1-.4c0-.1.1-.2.1-.3 0-.2.1-.3.1-.5l.2-.8c0-.2.1-.3.1-.5.1-.3.2-.7.3-1 0-.2.1-.3.1-.4v-.4c0-.1 0-.2.1-.3 0-.5-.3-.8-.4-1zm84 19l-.5-.2c-.4-.2-1-.4-1.6-.5-.3-.1-.7-.1-1-.1-1.2 0-2.8.5-3.8 2.8-.8 1.7-.1 3 .3 3.7.3.5.8 1 1.2 1.3l.4.4c.3.2.6.5.8.8.4.6 1 .9 1.6.9.6 0 1.2-.3 1.6-.8 1.1-1 1.5-2.3 1.9-3.3.1-.2.2-.4.2-.6.1-.2.2-.4.3-.7l.2-.2V64c-.2-.7-.1-2.3-1.6-3z"/><path d="M201.5 83.3c-2.2-5.1-6.4 3.6-7.2 5.2-1.9 3.4-9.3 13.4-10.5 4.2-.7-5.7 2.7-11.5 2.3-17-.3-4-6.5-3.6-8.6-1.1-1.7 2-1.7 4.6-2.5 7-.9 2.9-2.4 5.8-3.7 8.6-1.1 2.2-2.2 4.8-3.7 6.8-1.5 1.9-2.9 3.9-3.4 1.2-1-5.3 2-12 3-17.2.8-4.2 5.6-17-.3-19.3-5.6-2.1-10.1 7.6-12.5 11.1-4 5.7-7.4 11.8-10.6 18 0-3.5 1.5-20.8-6.3-17.4-4.2 1.8-7.2 11.7-8.6 15.3.3-3.3 3.1-15.3-.1-17.4-.7-.5-3.2-.9-4.1-.8-3.5.3-3.8 3.1-4.3 6-1.1 5.8-3 10.5-5.8 15.9-1 2-2.1 5-4.1 6.3-3.2 2.1-1.8-1.2-1.6-3.8.6-5.5 1.9-10.7 3-16.1.8-3.8 5.3-20.1-3.9-16.8-4.8 1.8-7.7 8.3-10.5 12.3-3.6 5.2-6.6 11-9.5 16.6 0-3.5 1.5-20.8-6.3-17.4-4.3 1.6-7.3 11.5-8.7 15.1.3-3.6.4-7.1.8-10.7.3-3.5 1.2-6.2-2.9-7.1-.4-.1-.8-.3-1.2-.3-1.3-.1-2.9.9-3.7.9-1.5-.1-3.2-1.8-5-1.9-2.7-.3-9.9.1-11.5 2.6-.8 1.2-.1 4 1.2 4.6 2 1 3.5-1.6 5.4-2.3 1.5-.6 3.8-.9 5.4-.5 3.8.8 3.5 4.1 3.3 7.4-.3 4.8-1.2 9.9-3.3 14.2-3.9 7.8-11.2 14.1-18.7 18.2-4.4 2.4-9.2 5.3-12.9.7-2-2.5-3.7-6-4.1-9.2-1.2-9.6 1.9-18 4.8-27.1 2.8-8.5 7.6-15.8 13.3-22.6 1.7-2.1 13.7-10.9 10.1-13.7-2.4-1.9-9.2 2.1-11.3 3.5-2 1.3-8 7.9-10.7 5.6-2.2-1.8 1.2-9.7 2.2-11.5 2.1-3.6 8.9-3.5 12.8-5.3 4.2-2 8.6-3.9 12.6-6.4C65.3 24.2 74.7 14.6 71 7 67.6-.2 57.3 1.2 51.3 4c-10.9 5.1-17.2 12.8-24 22.4-1.3 1.7-2.6 5.2-4.3 6.5-1.6 1.2-4.6 1.1-6.7 1.4-4.6.7-8 1.7-11.8 4.6-1.5 1.1-3 2.4-3.3 4.3-.2 1.6.2 3.7 2 3.4 1.1-.2 3.1-2.6 4.3-3.3 2.3-1.4 4.8-2.6 7.5-3.2 1.2-.2 4.9-1 5.5.1.6 1-1.3 6-1.6 7.1-.9 3.9-1.6 8.1.2 11.9 2 4.3 3.2 6.9 1.4 11.6-1.9 4.9-4.3 9.6-6.2 14.5C12 91.1 12 98.8 12.8 105c1.1 8.5 7.7 15.1 15.9 16.8 8.7 1.8 17.8-3.9 24.6-8.9 3.9-2.8 6.7-6.9 9.5-10.8.4 3.1 2.3 8.6 6.6 7.1 2.7-.9 2.8-4.2 3.5-6.5 1.9-6 3.9-12.2 6.6-18 .3 5.7-1.4 11.5-.2 17.1 1.2 5.8 6.8 7 9.2 1 1.9-4.6 3.1-9.2 5.5-13.8 2.6-4.9 5.4-9.7 8.5-14.4-1.3 7-4.2 15-3.4 22.1.5 3.9 3 9 7.4 9.4 5.9.6 9.6-6.6 11.8-11 .4 3.2-.3 6.5.8 9.6 1.6 4.8 6.6 6.3 8.6 1 2.6-7 4.4-14.3 7.5-21.2.3 5.6-1.5 11.6-.2 17.1 1.3 5.8 6.8 7 9.2 1 1.9-4.6 3.1-9.2 5.5-13.8 2.6-4.9 5.4-9.8 8.5-14.4-1.4 7-4.2 15.1-3.3 22.2.6 4.4 3.6 9.9 8.7 9.3 5.7-.7 8.9-7.8 11.1-12.3 1.8 7.8 9.5 11.3 16.1 6.5 3.6-2.6 5.8-6.1 7.9-9.9 1.2-1.7 3.4-4.5 2.8-6.9zM36.8 31.6c1.1-5.9 5.5-15.2 10.2-19.1 4-3.4 12.4-7.6 17.7-5.6 8.3 3.1-6.1 15.4-9.4 17.2C49.9 27 43 31 36.8 31.6zM198.6 116c-.4-.8-1.6-1.2-3.8-1.3-62.1-1.4-119.6 4.6-171 17.6-2.9.7-4.8 2-5.2 3.5-.2.7 0 1.4.5 1.9.7.7 1.9 1 3.4 1 .9 0 1.9-.2 3-.4 48.6-12.3 103.9-17.9 164.3-16.6h.2c2.7 0 7.3-2.2 8.4-4.1.5-.7.4-1.3.2-1.6z"/></svg>