<svg xmlns="http://www.w3.org/2000/svg" width="758.7" height="160.4" viewBox="0 0 758.7 160.4"><path fill="currentColor" d="M221.7 41.7s-17.6 82.1-18.6 87.5c-.5 2.6-.7 4.8-.3 7.5.3 2.5 1.6 4.6 4 5.7 1 .5 2.6.9 2.6.9l-3.3 15.3s-2.8.7-4.1.9c-4.4.8-8.8 1.2-13.2.7-8.4-1-15.4-5.3-18.4-13.4-.7-1.8-1.1-3.8-1.7-5.7-.1-.3-.3-.7-.6-.8-.4-.2-.8 0-1.1.5-1.4 2.1-2.8 4.3-4.4 6.3-4.9 6-9.9 10.4-17.4 12.4-4.8 1.2-12.6 1.3-17.5.4-4.6-.9-8.9-2.5-12.7-5.3-4.7-3.4-7.3-7.1-9.6-13.4-1.7-4.7-2.1-9.6-1.5-14.5.9-7 2.3-13.9 3.8-20.8 1.6-6.8 2.8-12.7 4.8-19.8 1.4-5 3-9.8 5-14.8s7.2-14.4 12.1-19.3c3.3-3.3 9.8-8.6 18.8-11.1 5.6-1.4 12.4-2.2 18.6-1.6 5.3.5 9 1.5 13.1 5 1.7 1.5 3 3.4 3.4 4 .4.6.6.8.8 1 0 0 4.8-5.5 6.2-7.1.3-.3.6-.4 1.3-.4l29.9-.1zm-83.6 93.1c2.9 3.9 8.7 6.2 15.9 3.9 4.7-1.5 6.7-2.8 9.8-6.8 2.2-2.9 4.2-10.2 5.1-13.9.9-3.7 2.1-9.3 3.1-14 1.7-7.5 3.2-15.1 4.9-22.6 1.2-5.4 2.3-10.8 3.5-16.3.3-1.5.7-3 .2-4.6-1.5-4.4-6.3-7.6-11-7.5-6.1 0-10.7 2.4-14 5.9-2.6 2.8-5.3 6.2-8.2 13.3-5.1 12.2-7.9 21.4-10.5 35.5-4.1 20.9-.6 24.7 1.2 27.1zM421.9 41.7s-17.6 82.1-18.6 87.5c-.5 2.6-.7 4.8-.3 7.5.3 2.5 1.6 4.6 4 5.7 1 .5 2.6.9 2.6.9l-3.3 15.3s-2.8.7-4.1.9c-4.4.8-8.8 1.2-13.2.7-8.4-1-15.4-5.3-18.4-13.4-.7-1.8-1.1-3.8-1.7-5.7-.1-.3-.3-.7-.6-.8-.4-.2-.8 0-1.1.5-1.4 2.1-2.8 4.3-4.4 6.3-4.9 6-9.9 10.4-17.4 12.4-4.8 1.2-12.6 1.3-17.5.4-4.6-.9-8.9-2.5-12.7-5.3-4.7-3.4-7.3-7.1-9.6-13.4-1.7-4.7-2.1-9.6-1.5-14.5.9-7 2.3-13.9 3.8-20.8 1.6-6.8 2.8-12.7 4.8-19.8 1.4-5 3-9.8 5-14.8s7.2-14.4 12.1-19.3c3.3-3.3 9.8-8.6 18.8-11.1 5.6-1.4 12.4-2.2 18.6-1.6 5.3.5 9 1.5 13.1 5 1.7 1.5 3 3.4 3.4 4 .4.6.6.8.8 1 0 0 4.8-5.5 6.2-7.1.3-.3.6-.4 1.3-.4l29.9-.1zm-83.6 93.1c2.9 3.9 8.7 6.2 15.9 3.9 4.7-1.5 6.7-2.8 9.8-6.8 2.2-2.9 4.2-10.2 5.1-13.9.9-3.7 2.1-9.3 3.1-14 1.7-7.5 3.2-15.1 4.9-22.6 1.2-5.4 2.3-10.8 3.5-16.3.3-1.5.7-3 .2-4.6-1.5-4.4-6.3-7.6-11-7.5-6.1 0-10.7 2.4-14 5.9-2.6 2.8-5.3 6.2-8.2 13.3-5.1 12.2-7.9 21.4-10.5 35.5-4.1 20.9-.6 24.7 1.2 27.1zM642.9 41.7s-17.6 82.1-18.6 87.5c-.5 2.6-.7 4.8-.3 7.5.3 2.5 1.6 4.6 4 5.7 1 .5 2.6.9 2.6.9l-3.3 15.3s-2.8.7-4.1.9c-4.4.8-8.8 1.2-13.2.7-8.4-1-15.4-5.3-18.4-13.4-.7-1.8-1.1-3.8-1.7-5.7-.1-.3-.3-.7-.6-.8-.4-.2-.8 0-1.1.5-1.4 2.1-2.8 4.3-4.4 6.3-4.9 6-9.9 10.4-17.4 12.4-4.8 1.2-12.6 1.3-17.5.4-4.6-.9-8.9-2.5-12.7-5.3-4.7-3.4-7.3-7.1-9.6-13.4-1.7-4.7-2.1-9.6-1.5-14.5.9-7 2.3-13.9 3.8-20.8 1.6-6.8 2.8-12.7 4.8-19.8 1.4-5 3-9.8 5-14.8s7.2-14.4 12.1-19.3c3.3-3.3 9.8-8.6 18.8-11.1 5.6-1.4 12.4-2.2 18.6-1.6 5.3.5 9 1.5 13.1 5 1.7 1.5 3 3.4 3.4 4 .4.6.6.8.8 1 0 0 4.8-5.5 6.2-7.1.3-.3.6-.4 1.3-.4l29.9-.1zm-83.6 93.1c2.9 3.9 8.7 6.2 15.9 3.9 4.7-1.5 6.7-2.8 9.8-6.8 2.2-2.9 4.2-10.2 5.1-13.9.9-3.7 2.1-9.3 3.1-14 1.7-7.5 3.2-15.1 4.9-22.6 1.2-5.4 2.3-10.8 3.5-16.3.3-1.5.7-3 .2-4.6-1.5-4.4-6.3-7.6-11-7.5-6.1 0-10.7 2.4-14 5.9-2.6 2.8-5.3 6.2-8.2 13.3-5.1 12.2-7.9 21.4-10.5 35.5-4.1 20.9-.6 24.7 1.2 27.1zM98.2 135.5c-1.3 2-5.6 7.6-8.5 10.3-8.1 7.6-17.3 11.8-24.9 13.3-7.3 1.4-12 1.7-20.3.9-5.7-.5-10.5-1.5-16-3.5-5.6-2.1-11-5.5-15.9-9.9-4-3.6-8.6-9.3-10.8-16.9C-.4 122-.3 115.6.2 107.6c.3-5.4 1.2-10.8 2.1-16.1C3.8 83 7.5 65.7 7.5 65.7s2.5-11.3 4.1-19c1.4-6.4 4.6-14.5 8.2-19.9 6.1-9.2 13-14.9 20-18.7C47 4.2 54.9 1.4 61.6.7c5.8-.7 10-.9 15.7-.4 6.1.5 10.2 1.5 13.8 2.9 5.4 1.9 11.8 5.3 15.7 9.3 5.7 5.8 8.1 13.7 8.8 18.3.6 4 .2 9.5-.7 13.4-.8 3.6-1.8 5.7-3.5 7-2.2 1.7-5.1 2-7.9 2H83.7c3.8-10.3 5.6-22.5 1-27.9-5-5.9-22-6.1-29.9 10.6-1.6 3.4-3.6 12.2-6.1 23.8-2.8 12.8-9.6 44.8-10.2 51.1-2 18.9 7 26.1 17.6 30.3 6.1 2.5 16.5 3.3 25-.9 9.6-4.8 16.3-15.5 19-19.2.7-.9.9-.5.8.1S99 133.5 99 133.9c-.1.4-.4 1-.8 1.6zM213.8 158.7l24.9-117.1h28.5c1 0 1.2.3 1.3.7.6 2.4 3 11.5 3 11.5.3.9.3.9 1.5-.3 3.1-3.2 6-5.9 9.6-8.4 4.5-3.1 10.3-5.3 15.7-6.1 5.1-.8 10 .2 12.9 1.7 4 2 6.5 6.4 7.2 10.4.8 4.4.7 9.4-1.1 14.6-1.4 4-3 5.5-4.1 6.3-1.3 1-2.3 1.6-5.4 2.1-2.5.3-6.5.4-8.7.4H289c2.4-4.1 5.4-13.4 3.4-16.2-1.6-2.3-4.3-2.1-7.3-.2-3.2 1.9-9.4 8.3-12.4 12.9-3.1 4.8-5.2 10.1-6.7 15.6-1.5 5.6-2.7 11.2-4 16.9-1.4 6.1-11.5 54-11.6 54.7-.1.4-.3.6-.8.6-10.8-.1-35.8-.1-35.8-.1zM688.6 42c.1.6 3.1 12.4 3.2 12.8.1.2.1.2.2.1l1.4-1.4c3.2-3 8.7-7.2 13.3-9.6 4.8-2.4 9.9-4 14-4.5 5.4-.6 11.6.1 16.5 2.5 4.5 2.2 7.8 5.6 9.8 10.2 2.6 5.7 3.2 11.8 2.7 17.9-.5 6.8-1.9 13.5-3.3 20.2-1.5 7.5-3.2 14.9-4.8 22.4-1 4.6-2 9.2-2.9 13.8-.6 2.9-1.2 5.8-1 8.8.1 1.7.4 3.4 1.3 4.9 1.1 2 2.9 2.9 5.1 3.2 4.9.7 8.6-.6 12.6-3.2.5-.3 1.1-.8 1.5-1 .3-.2.4 0 .4.2 0 .1-2.1 10.1-2.5 11.6-.2.5-.8 1.1-1.2 1.3-.8.5-4.8 3-7.6 4.2-3.8 1.6-7.7 2.7-11.8 3.2-3.5.4-6.9.6-10.4.2-6.4-.9-12-3.4-15.9-8.9-2-2.8-3.2-6-4-9.4-1.3-6-1.1-11.9-.1-17.9 1.3-7.3 3.1-14.6 4.6-21.8 1.3-6.3 2.8-12.7 4.1-19 1.1-5.1 1.3-6.1 2.4-11.4.6-2.6 1-5.4-.2-8-1.3-2.8-4.5-4.5-7.4-4.3-3 .2-5.1 1.3-7.5 3-3.9 2.8-6.8 6.4-9.2 10.5-3.3 5.6-5.4 11.7-6.8 18-1.9 7.9-3.6 15.8-5.3 23.7-1.8 8.3-7.9 37.4-9.2 43.7-.1.6-.3.8-1 .8h-35.4c.4-2 25-117.1 25-117.1H688c.5-.1.5-.1.6.3zM536 47.6c-.1-2.1-.3-3.2-2-4.6-1.4-1.2-3.4-1.4-6-1.4h-21.5s.6 9.5-.2 18.7c-1.3 16.9-6.2 34.2-12.9 45.5-6.9 11.6-14.3 20.7-22.4 27.3-8 6.6-14.8 9.4-14.8 9.4s20.5-98.1 20.8-99.2c.4-1.7.3-1.8-1.5-1.8h-43s-4.4 20.6-4.6 21.5c-.2.8-.2.9.7 1.1 1.6.4 3.1 1.2 4.5 2.9s2.1 4.2 1.6 7.1c-1 5.1-1.1 5.5-1.8 8.9-.7 3.4-16 75.3-16 75.3s8.8 1.8 17.3 1.8c5.2 0 12-.9 22.8-4.6 8.6-2.9 21.3-10.2 31.2-18.9 11.1-9.8 17.7-16.6 24.5-26.5 7-10.2 16.5-27.2 20.6-42.2 2.2-8.3 2.9-16.1 2.7-20.3z"></path></svg>
