<svg xmlns="http://www.w3.org/2000/svg" viewBox="0 0 800 414" width="180" height="93"><path d="M288.74 0h8.52l2 .39c8.49 1.58 16.42 5.7 22.54 11.8 7.73 7.28 13.52 16.94 15.84 27.33.57 3.07.49 6.32.2 9.42-2.48 16.1-10.38 31.44-21.36 43.4 3.36 4.47 6.72 8.8 9.38 13.75 5.23 9.92 9.53 20.29 13.19 30.89 1.27 3.53 1.61 7.39 3.67 10.39 3.95 6.28 7.38 12.83 10.08 19.75.15-6.78 2.31-13.28 7.49-17.87 5.85-5.03 14.38-7.36 21.92-5.45 9.24 1.61 16.2 9.2 21.79 16.19 17.66 24.69 35.53 49.25 53.06 74.03-.14-21.68-.02-43.35-.06-65.02.09-7.84 2.03-15.57 8.41-20.66 8.2-6.35 20.54-7.12 29.72-2.51 7.87 4.03 12.97 12.3 12.89 21.17-.04 54.49 0 109-.02 163.5 3.3-.07 6.6-.08 9.9-.06-.18-49.47-.02-98.97-.08-148.44.08-5.85-.21-11.28 1.28-16.98 1.35-5.61 4.06-10.74 8.83-14.15 5.66-4.02 13.25-5.55 20.06-5.87 23.32.04 46.75-.07 70.05.05 10.84 1.22 19 11.41 19.96 21.92.88 10.08-5.41 20.59-15.01 24.06-3.31 1.28-6.51 1.07-9.99 1.13-14.79-.07-29.57.07-44.36-.08.02 14.98 0 29.95.02 44.92 15.78-.01 31.56.02 47.34-.02 6.19-.13 12.44 2.78 16.46 7.48 7.36 8.79 7.52 23.3-.01 32.02-4.62 5.41-11.5 7.56-18.45 7.54-15.13-.05-30.27.01-45.41-.04.09 15.33.12 30.67-.01 46 20.81.04 41.61.02 62.42.01 4.72.03 9.45.8 14 2.01V174c.09-5.73-.64-10.93 1.64-16.38 3.88-10.77 16.79-16.46 27.58-13.83 9.23 1.65 16.15 9.21 21.73 16.22 17.73 24.98 35.66 49.84 53.23 74.93-.15-21.98 0-43.96-.08-65.94-.04-7.4 1.96-15.17 7.78-20.15 10.15-8.44 27.34-8.01 36.56 1.7 3.7 3.79 5.74 8.68 6.56 13.87v195.36c-1.08 5.54-3.78 10.43-8.18 14-7.83 6.65-19.82 6.9-28.61 2.05-7.2-3.87-12.32-10.46-17.13-16.88-16.68-22.09-33.63-44-50.18-66.19.24 19.07.01 38.16.12 57.24.1 6.19-.9 13.36-4.49 18.57-3.36 4.88-8.74 7.72-14.48 8.75-8.49 1.94-17.65-.03-23.95-6.22-5.89 4.34-13.93 5.86-21.1 5.92-49.98-.05-100.03 0-150.02-.02-10.92-.51-19.05-8.41-25.37-16.56-17.57-22.99-35.37-45.83-52.75-68.95.31 18.83.04 37.68.15 56.51-.05 7.03-.94 14.73-5.75 20.24-4.42 5.15-10.69 7.04-17.23 7.71-5.46.38-11.29-.38-16.28-2.7-3.38-1.55-5.7-4.16-7.97-7.01-7.04 15.46-18.66 29.5-33.35 38.21-9.46 5.61-20.1 8.7-31.04 9.55h-10.04c-12.94-1.13-24.74-6.28-34.48-14.85-8.83-7.78-15.81-17.83-21.17-28.25-3.54 2.65-7.12 4.59-11.69 4.56-18.31.08-36.69-.02-55.01.04-9.21-.16-17.84-.74-25.5-6.41-5.65 4.21-12.53 5.94-19.5 5.94-30.66-.03-61.35.04-92.01-.03-5.8-.32-12.71-1.8-16.99-6.02-4.36-4.31-5.42-10.47-6-16.31V168.52c.73-6.05 1.79-11.87 5.75-16.72 3.75-4.57 10.58-6.4 16.24-6.78 24.97-.06 50.04.02 75.02-.04 6.37-.12 12.53 3.76 15.87 9.08 5.69 8.84 5.61 20.77-.38 29.44-3.67 5.46-10.01 8.4-16.49 8.5H50.83c.11 14.65.11 29.35-.01 44 15.06.01 30.14-.01 45.19 0 7.1.08 13.76 3.36 17.47 9.53 4.23 7.27 4.44 16.81 1.95 24.7-1.19 3.79-3.52 7.15-6.9 9.28-4.11 2.69-9.74 3.3-14.53 3.38-14.38-.06-28.77.06-43.16-.07.11 15.33.05 30.66.04 45.99 19.7-.18 39.41-.02 59.12-.08 5.26.08 10.19-.09 15.27 1.31-.2-53.33-.01-106.7-.1-160.04-.02-6.49.7-12.77 4.63-18.17 3.12-4.43 7.49-7.15 12.52-8.97-5.82-5.24-9.48-12.18-11.56-19.66-1.42-5.87-2.34-11.7-1.06-17.7 1.46-10.1 6.95-18.65 14.17-25.64 10.22-9.54 22.61-17.74 35.98-22.04 1.82-.41 2.4-2.04 3.52-3.38 8.34-11.81 21.24-19.98 35.41-22.76 7.89-1.74 17 .08 24.38-3.49 9.54-4.5 14.85-13.01 22.91-19.08 6.42-5.04 14.68-7.86 22.67-9.11z" fill="#040404"/><path d="M288.98 9.28c5.76-.73 11.66-.83 17 1.73 9.34 4.09 16.22 13.55 20.59 22.46 2.96 5.82 2.88 11.97 2.12 18.31-2.33 12.45-9.63 23.43-17.73 32.91-1-1.24-2.01-2.48-3.02-3.72 1.07-4.76 3.55-11.06.73-15.56-1.31-2.58-4.85-2.08-6.72-.43-4.5 4.2-5.44 10.07-7.5 15.47-5.15 10.92-14.43 17.77-24.65 23.58 11.77 1.37 22.65-6.7 30.92-14.15 13.99 15.71 24.48 34.63 30.57 54.75-11.89 10.34-24.98 19.37-38.83 26.85-23.4 12.63-49.34 21.05-76.18 19.9-.86-5.63-2.33-11.18-3.92-16.64-2.08-6.61-4.21-12.84-8.4-18.46 12.35-7.05 23.2-17.9 29.2-30.88-7.6 6.7-15.05 14.16-24.56 18.17-2.66 1.18-5.29 1.51-8.18 1.52 9.71-7.31 17.75-16.63 19.52-29.06 1.19-5.92.49-11.83-3.41-16.61-1.92 11.73-7.09 23.08-15.78 31.33-9.47 8.9-22.75 13.93-35.77 12.42-5.9-.52-12.54-3.14-16.11-8.08-3.13-4.18-5.7-8.88-7.29-13.87-2.81-8.64-2.26-18.31 2.55-26.16 6.41-10.96 17.93-17.69 29.07-23.01-3.03 5.99-5.89 12.1-8.56 18.26 11.56-7.61 20.67-18.09 27.64-29.98 2.83-4.74 6.52-8.85 11.12-11.94 9.58-6.64 22.16-9.55 33.6-10.69 9.86-.96 19.38-7.65 26.63-14.04 6.97-6.63 15.82-12.44 25.35-14.38z" class="do-not-fill" fill="#fff"/><path fill="#f28832" class="do-not-fill black" d="M161.68 153.28c4.57 3.17 6.34 8.31 6.37 13.7 0 56.59-.03 113.37.01 169.94 18.03-.01 36.06.07 54.09-.04-6.99-27.1-9.22-54.96-8.35-82.88.08-16.84 2-33.7 5.23-50.22 9.9.81 19.68.88 29.44-1.23 23.05-4.66 45.27-16.28 64.56-29.49 7.21-4.97 14.37-10.29 20.78-16.28 1-.77 2.15-2.16 3.45-2.35 5.34 8.64 9.17 18.87 13.12 28.2 3.59 8.32 6.8 16.82 10.63 25.03.21-13.22.03-26.45.1-39.66.07-4.12.75-8.14 3.55-11.33 5.26-6.08 15.44-6.57 21.93-2.27 4.84 3.21 8.86 8.02 12.25 12.68 20.61 28.74 41.28 57.46 61.89 86.2 1.56 2.15 3.12 4.29 4.76 6.38.12-27.55.01-55.11.05-82.66.07-4.63-.31-9.45.44-14.02.69-4.23 3.35-7.87 7.2-9.76 6.89-3.34 16.21-2.71 21.87 2.75 3.59 3.46 4.81 8.16 4.8 13.02-.08 56.63.05 113.27-.07 169.9 8.71.08 17.43 0 26.14.06.09-50.98.01-101.97.04-152.95.06-7.31-.58-14.98 2.05-21.95 1.43-3.79 4.13-6.6 7.83-8.23 5.52-2.41 12.21-2.64 18.16-2.87 19-.06 38 .03 57-.05 3.3.04 6.59 0 9.64 1.43 4.09 1.87 6.86 5.59 8.28 9.77 2.59 6.93-1.26 15.84-8.03 18.79-2.57 1.14-5.13 1.14-7.89 1.19-17.6-.06-35.2-.03-52.8-.03.01 20.3.07 40.61-.02 60.91 17.6-.08 35.22-.01 52.82-.05 5.3.05 10.91 1.38 13.98 6.09 3.66 5.48 3.62 14.26-.41 19.55-3.12 4.02-7.69 5.01-12.54 5.1-17.93.02-35.91-.03-53.85 0 .07 20.92.06 41.84 0 62.76 22.94.03 45.88 0 68.82.01 8.55.15 16.6.68 24.02 5.41.15-54.27.02-108.55.06-162.83.03-6.85-1.1-15.61 2.01-21.9 4.2-8.02 15.6-9.47 22.89-5.06 5.12 3.24 9.31 8.2 12.84 13.06 16.28 23.04 32.72 45.97 49.05 68.96 5.96 8.12 11.5 16.57 17.68 24.51.03-27.85.01-55.72.01-83.57.03-4.32-.21-8.75.31-13.04.54-4.53 3.25-8.72 7.39-10.74 7.06-3.46 16.73-2.63 22.27 3.26 3.77 4 4.48 9.24 4.53 14.52-.03 58.64-.01 117.35-.01 176-.08 4.7.54 10.41-1.32 14.8-2.93 7.1-11.75 10.81-18.96 8.52-7.63-2.02-12.46-7.99-17.12-13.92-22.39-29.33-44.64-58.78-67.05-88.1-.11 27.9 0 55.81-.05 83.71-.14 4.57-.51 9.28-3.72 12.83-3.85 4.47-11.17 5.27-16.66 4.53-5.92-.79-10.56-4.35-13.7-9.31-1.54 2.01-2.93 3.94-5.18 5.22-5.26 3.16-12.29 3.69-18.29 3.8-45.66-.01-91.34-.02-137 0-6.51-.04-12.41.56-18.31-2.77-6.55-3.68-11.51-11.05-16.05-16.89-21.05-27.41-42.02-54.9-63.14-82.25.09 26.95.01 53.89.05 80.83-.1 4.76-.07 10.4-3.24 14.29-2.81 3.54-6.96 4.82-11.31 5.24-4.63.39-9.92-.18-13.98-2.59-4.15-2.51-5.91-7.26-6.06-11.92-.16-7.26.1-14.53-.13-21.8-2.63 8.15-5.11 16.31-8.38 24.23-5.39 12.96-13.08 25.94-24.1 34.88-12.35 10.45-29.15 16.52-45.36 15.3-12.82-.96-24.45-7.16-33.29-16.33-9.17-9.27-14.81-20.28-20.46-31.85-3.63 5.07-7.43 9.62-14.23 9.66-18.95.03-38.03-.02-57.01.02-4.77 0-9.42-.47-13.91-2.18-3.7-1.43-6.65-4.19-9.6-6.75-1.55 1.98-2.91 3.87-5.18 5.09-5.38 2.96-12.27 3.64-18.31 3.8-27.64-.03-55.39.01-83-.02-4.49-.17-9.59-.41-13.72-2.34-2.59-1.21-4.15-3.29-4.94-6-1.67-5.87-1.37-12.66-1.39-18.73.01-52 .01-104 0-156-.02-7.19-.26-15.27 1.72-22.24.99-3.37 3.31-6.22 6.7-7.35 3.66-1.19 7.8-1.4 11.63-1.49 21.33-.01 42.67.05 64-.02 4.4.01 8.44.11 11.83 3.28 6.34 6.06 6.57 17.83.5 24.15-2.83 2.93-6.45 3.32-10.31 3.38-17.24.03-34.48-.12-51.72.07.15 20.2-.08 40.41.11 60.61 16.86-.13 33.73.01 50.59-.08 3.81.04 7.92.15 10.98 2.75 3.99 3.33 4.8 9.06 4.63 13.96-.22 3.77-.79 8.15-3.71 10.85-2.69 2.55-7.43 2.43-10.9 2.57-17.22-.04-34.44.04-51.66-.04.01 20.83.02 41.67-.01 62.5 23.55.06 47.11.03 70.67.01 7.71.14 15.13 1.58 20.88 7.1-.18-5.68-.12-11.33-.13-17.01 0-50.67.01-101.33 0-152 .03-3.99-.22-8.08.26-12.04.65-5 4.17-9.22 8.71-11.26 5.96-2.67 13.52-1.99 18.96 1.58z" /><path class="do-not-fill" d="M188.94 151.66c9.66 12.27 14.22 29.01 17.45 44.05.72 2.72 2.51 4.56 4.64 6.28-2.49 10.94-3.64 21.9-4.75 33.02-.85 15.38-1.67 30.59-.52 45.99.5 16.06 2.62 32.11 5.98 47.83-11.91-.2-23.83-.05-35.74-.08 0-54.92-.01-109.84.01-164.76.03-4.06-1.51-7.4-3.17-10.99 5.47.31 10.7-.79 16.1-1.34z" fill="#f0f0f0"/><path d="M240.39 239.39c9.55 10.45 21.26 20.51 34.81 25.22 8.74 3.1 18.15 2.64 26.78-.59 12.83-4.77 23.48-14.34 31.93-24.89.03 12.99 1.18 25.87.55 38.87-.43 7.7-.3 15.36-1.27 23.02-1.66 18.72-5.12 37.08-14.65 53.53-4.39 7.43-10.31 14.33-18.62 17.38-10.29 3.97-22.43 2.05-31.08-4.74-8.26-6.45-13.52-16.14-17.29-25.73-8.16-21-10.41-43.14-11.47-65.46-.09-12.21-.11-24.41.31-36.61z" fill="#040404"/><path d="M248.27 258.89c4.55 4.61 9.41 8.73 15.33 11.49 10.84 5.26 24.12 5.87 35.88 4.23 10.52-1.66 19.3-7.26 26.52-14.91-.03 7.1.06 14.21-.05 21.31-1.21 21.39-2.03 42.89-11.18 62.71-3.14 6.82-7.41 14-13.75 18.28-8.3 5.51-19.7 4.53-27.32-1.71-7.6-6.13-12.15-15.66-15.46-24.64-8.59-23.98-10.08-51.48-9.97-76.76zm155.59 32.6c17.38 23.12 35.18 45.96 52.75 68.95 6.32 8.15 14.45 16.05 25.37 16.56 49.99.02 100.04-.03 150.02.02 7.17-.06 15.21-1.58 21.1-5.92 6.3 6.19 15.46 8.16 23.95 6.22 5.74-1.03 11.12-3.87 14.48-8.75 3.59-5.21 4.59-12.38 4.49-18.57-.11-19.08.12-38.17-.12-57.24 16.55 22.19 33.5 44.1 50.18 66.19 4.81 6.42 9.93 13.01 17.13 16.88 8.79 4.85 20.78 4.6 28.61-2.05 4.4-3.57 7.1-8.46 8.18-14V414H292.39c10.94-.85 21.58-3.94 31.04-9.55 14.69-8.71 26.31-22.75 33.35-38.21 2.27 2.85 4.59 5.46 7.97 7.01 4.99 2.32 10.82 3.08 16.28 2.7 6.54-.67 12.81-2.56 17.23-7.71 4.81-5.51 5.7-13.21 5.75-20.24-.11-18.83.16-37.68-.15-56.51zM0 352.67c.58 5.84 1.64 12 6 16.31 4.28 4.22 11.19 5.7 16.99 6.02 30.66.07 61.35 0 92.01.03 6.97 0 13.85-1.73 19.5-5.94 7.66 5.67 16.29 6.25 25.5 6.41 18.32-.06 36.7.04 55.01-.04 4.57.03 8.15-1.91 11.69-4.56 5.36 10.42 12.34 20.47 21.17 28.25 9.74 8.57 21.54 13.72 34.48 14.85H0v-61.33z" class="do-not-fill" fill="#f0f0f0"/></svg>
