<svg width="220" height="70" viewBox="0 0 485.3 154.7" xmlns="http://www.w3.org/2000/svg"><path d="m213.1 55.9c.9.9 2.1 1.3 3.6 1.3h5.3c1.5 0 2.8-.4 3.6-1.3.9-.9 1.3-2.1 1.3-3.7v-1.5c0-1.6-.4-2.8-1.3-3.7s-2.1-1.3-3.6-1.3h-5.3c-1.5 0-2.8.5-3.6 1.3-.9.9-1.3 2.1-1.3 3.7v1.5c-.1 1.6.4 2.8 1.3 3.7m-7.5.9a2.732 2.732 0 0 0 2.7-2.7v-4.8c0-.7-.2-1.3-.7-1.8s-1.7-.9-3.5-1.3c-1.9-.3-5.1-.5-9.8-.5-9.1 0-15.5 1.7-19.2 5.1-3.6 3.4-5.4 9.1-5.4 17.2v38.4c0 .8.2 1.4.7 1.9s1.1.7 1.9.7h9.6c.7 0 1.4-.2 1.9-.7s.8-1.1.8-1.9v-27.1h15.5c.8 0 1.4-.2 1.9-.7s.7-1.1.7-1.9v-5.2c0-.8-.2-1.4-.7-1.9s-1.1-.8-1.9-.8h-15.5v-.7c0-4.9.9-8.1 2.6-9.7s5.4-2.3 11.1-2.3l5.9.7zm7 51.6c.5.5 1.1.7 1.9.7h9.6c.7 0 1.4-.2 1.9-.7s.8-1.1.8-1.9v-41.4c0-.8-.2-1.4-.7-1.9s-1.1-.8-1.9-.8h-9.6c-.7 0-1.4.2-1.9.7s-.8 1.1-.8 1.9v41.4c0 .8.2 1.5.7 2m23 0c.5.5 1.1.7 1.9.7h9.6c.7 0 1.4-.2 1.9-.7s.8-1.1.8-1.9v-29.3c2.9-4.2 6-6.2 9.1-6.2 5 0 7.5 3.4 7.5 10.4v25c0 .8.2 1.4.8 1.9.5.5 1.1.8 1.9.8h9.6c.7 0 1.4-.2 1.9-.7s.8-1.1.8-1.9v-25c0-1.3-.1-2.5-.3-3.8 3.2-4.4 6.4-6.7 9.4-6.7 5 0 7.5 3.4 7.5 10.4v25c0 .8.3 1.4.8 1.9s1.1.8 1.9.8h9.6c.8 0 1.4-.2 1.9-.7s.7-1.1.7-1.9v-25c0-7.2-1.6-12.4-4.9-15.9-3.3-3.4-7.7-5.1-13.3-5.1s-11.1 2.8-16.4 8.4c-3.4-5.6-8.5-8.4-15.2-8.4-2.8 0-5.2.5-7.2 1.6s-4 2.7-6.1 4.7v-2.8c0-.8-.2-1.4-.7-1.9s-1.1-.8-1.9-.8h-9.6a2.732 2.732 0 0 0 -2.7 2.7v42.4c0 .8.2 1.5.7 2m118.8-23.2c0 5-.8 8.6-2.5 10.9-1.6 2.3-4.4 3.4-8.3 3.4-2.5 0-5.6-.6-9.3-1.8v-22.8c4.1-2.6 7.7-3.9 10.8-3.9s5.4 1.1 7 3.4c1.5 2.2 2.3 5.9 2.3 10.8m15.3.1c0-8-2-14.1-6-18.4s-9-6.4-15-6.4-11.2 1.6-15.8 4.9v-1.4c0-.8-.3-1.4-.8-1.9s-1.1-.8-1.9-.8h-8.2c-.7 0-1.4.3-1.9.8s-.7 1.2-.7 1.9v57.1c0 .8.2 1.4.7 1.9s1.1.8 1.9.8h9.6a2.732 2.732 0 0 0 2.7-2.7v-13.4c4.6 1.5 8.8 2.2 12.4 2.2 7 0 12.6-2.1 16.8-6.4 4.1-4.1 6.2-10.2 6.2-18.2m38.7-4.6h-20c.3-6.9 3.7-10.3 10-10.3 6.4 0 9.7 3.4 10 10.3m15.1 6.4v-2.5c0-7.8-2.2-13.8-6.6-17.9-4.4-4.2-10.5-6.3-18.4-6.3s-14 2.1-18.5 6.4c-4.4 4.3-6.7 10.4-6.7 18.4s2.2 14.1 6.6 18.3 10.6 6.4 18.5 6.4c15.7 0 23.5-4.1 23.5-12.5 0-.8-.2-1.4-.8-1.9-.5-.5-1.1-.8-1.9-.8h-6.4c-2.1 0-3.8.9-5.2 2.7-1.4 1.7-4 2.6-7.8 2.6s-6.6-.8-8.3-2.4-2.7-4.2-3-7.8h32.3c.8 0 1.4-.3 1.9-.8.5-.4.8-1.1.8-1.9m47.5 19.1c4.3-2.6 6.4-6.3 6.4-11.3 0-.8-.3-1.4-.8-1.9s-1.1-.8-1.9-.8h-6.4c-1.9 0-3.6 1.1-4.9 3.2-1.7 2.7-4.7 4.1-9.1 4.1s-7.4-1.1-9.2-3.4c-1.8-2.2-2.6-5.9-2.6-10.9s.8-8.7 2.6-10.9c1.7-2.2 4.7-3.3 9-3.3s7.3 1.4 9 4.1c1.3 2.1 3 3.2 4.9 3.2h6.4c.8 0 1.4-.2 1.9-.7s.7-1.1.7-1.9c0-5-2.1-8.8-6.4-11.3-4.2-2.6-10.3-3.8-18.2-3.8s-14.1 2.1-18.5 6.3-6.7 10.4-6.7 18.5 2.2 14.3 6.7 18.5 10.7 6.3 18.7 6.3c8-.2 14.1-1.5 18.4-4" fill="#325c87"/><path d="m46.8 126.2 34.9-35.4-21.5-21.9-34.9 35.5zm20.8-10.9-15.8 16 7.2 7.3c14.3 14.5 27.6 1 27.6 1l2.5-2.5z" fill="#325c87"/><path d="m93.8 132.3 40.8-41.4s13.3-13.5-1-28l-7.2-7.3-54.1 54.9zm6-103.6-34.9 35.4 21.5 21.8 34.9-35.4z" fill="#b1b2b4"/><path d="m52.8 22.5-40.7 41.4s-13.3 13.5 1 28l7.2 7.3 54.1-54.9z" fill="#325c87"/><path d="m79 39.6 15.8-16-7.2-7.3c-14.3-14.5-27.6-1-27.6-1l-2.5 2.5z" fill="#b1b2b4"/></svg>
