<svg xmlns="http://www.w3.org/2000/svg" viewBox="0 0 2362 753">
<path fill="black" d="M1806.8,629.7l-65.7-60C1760.1,592.6,1782.2,612.8,1806.8,629.7z"></path>
<path fill="black" d="M1823.1,563.5c-18.2,3.1-40,3.9-57.1,3.9c17.2,0,39.5-0.7,58.1-3.9c39.8-11.2,46.9-34.7,46.9-34.7l70.4-215.3h-1l-70.4,215.3C1870.1,528.8,1862.9,552.3,1823.1,563.5z"></path>
<path fill="black" d="M1961.9,248.2h1c0,0,9.2-72.4,65.3-119.4c39.1-32.7,94-37.7,123.7-37.7c-29.5-0.1-85.2,4.6-124.8,37.7C1971.1,175.8,1961.9,248.2,1961.9,248.2z"></path>
<path fill="black" d="M2244.6,159.4L2244.6,159.4c-2.9-0.1-11.3-0.4-22.3-0.4C2235.4,159,2244.6,159.4,2244.6,159.4z"></path>
<polygon fill="black" points="1861.9,313.5 1862.9,313.5 1884.4,248.2 1883.3,248.2"></polygon>
<path fill="black" d="M2245.1,159.4c-0.2,0-0.4,0-0.6,0c0,0-9.1-0.4-22.2-0.4c-27.8,0-72.4,1.9-87.9,12.7c-23.5,16.3-25.1,39.3-36.2,76l83.2,0.5l-22.4,65.3h-1h-70.4l-90.8,234.7c0,0-27.6,55.1-82.7,70.4c-49.2,13.7-91.6,15-100.2,15.2c-0.4,0-0.7,0-1,0C1864,667.4,1925.2,687,1991,687c179.5,0,325-145.5,325-325C2316,285.4,2289.5,215,2245.1,159.4z"></path>
<path fill="black" d="M1739.6,566.7c3,0.2,13.2,0.6,26.4,0.7c17,0,38.9-0.8,57.1-3.9c39.8-11.2,46.9-34.7,46.9-34.7l70.4-215.3h-77.6h-1l21.4-65.3h1h77.6c0,0,9.2-72.4,65.3-119.4c39.5-33.1,95.3-37.8,124.8-37.7c10,0,17.2,0.6,19.9,0.8C2120.2,57.3,2058,37,1991,37c-179.5,0-325,145.5-325,325c0,77.6,27.2,148.9,72.6,204.7c0,0,0.1,0,0.2,0c0,0,0-0.1,0-0.1S1739,566.7,1739.6,566.7z"></path>
<path fill="black" d="M1914,618.6c55.1-15.3,82.7-70.4,82.7-70.4l90.8-234.7h70.4h1l22.4-65.3l-83.2-0.5c11.2-36.7,12.8-59.7,36.2-76c15.5-10.8,60.1-12.6,87.9-12.7c11,0,22.7,0.4,22.9,0.4c0.3,0-16.9-23.5-39.3-42.8S2172.6,92,2171.9,92c-2.8-0.3-9.9-0.8-19.9-0.8c-29.8,0-84.7,5-123.7,37.7c-56.1,46.9-65.3,119.4-65.3,119.4h-1h-77.6l-21.4,65.3h77.6h1l-70.4,215.3c0,0-7.1,23.5-46.9,34.7c-18.6,3.2-40.9,3.9-58.1,3.9c-13.3,0-23.5-0.5-26.4-0.7c-0.6,0-0.9,0-0.9,0s0,0,0,0.1c0.7,1,11.7,15.9,33.3,35.6c17.3,16.3,40.1,31.5,40.1,31.5s0.2,0,0.6,0c0.3,0,0.6,0,1,0C1822.3,633.7,1864.8,632.3,1914,618.6z"></path>
<path fill="black" d="M63.5,575.8h52.8l-2.7,10.6H75L66.7,620h30.7l-2.9,10.6H63.8L53.5,672h41.6l-2.7,10.6H36.7L63.5,575.8z"></path>
<path fill="black" d="M128.1,646.6l-15-32.5h14.1l9.9,23l20.5-23h13.9l-30.1,32.5l16.6,36h-14.1L132.4,656l-23.7,26.6H94.8L128.1,646.6z"></path>
<path fill="black" d="M216.1,676.3c-9,5.4-17.2,8.2-24.6,8.2c-15.6,0-23.4-8.2-23.4-24.6c0-6.8,1-13.2,2.9-19c1.9-5.9,4.6-10.9,8-15.1c3.4-4.2,7.4-7.5,12.1-9.9c4.6-2.4,9.6-3.6,15-3.6c9,0,16.1,2.4,21.4,7.2l-3.7,6.7c-5.2-2.8-10.8-4.2-16.6-4.2c-3.6,0-6.9,1-9.9,3c-3,2-5.6,4.6-7.8,7.9c-2.2,3.3-3.9,7.1-5.1,11.4c-1.2,4.3-1.8,8.7-1.8,13.3c0,11.4,4.5,17.1,13.4,17.1c4.8,0,10.7-1.8,17.8-5.3L216.1,676.3z"></path>
<path fill="black" d="M277.9,675.7c-9.5,5.9-18.4,8.8-26.7,8.8c-7.3,0-12.9-2-17-6c-4.1-4-6.1-9.6-6.1-16.7
    c0-7.1,1.1-13.8,3.4-19.8c2.3-6.1,5.4-11.3,9.4-15.8c4-4.4,8.7-7.9,14-10.3c5.3-2.5,11-3.7,17.1-3.7c5.1,0,9.4,1.4,12.8,4.1
    c3.4,2.7,5.1,6.3,5.1,10.8v1.3c-0.2,3.8-1.3,7.2-3.1,10.1c-1.9,2.9-4.7,5.4-8.5,7.7c-3.8,2.2-8.6,4.2-14.6,5.8
    c-5.9,1.6-13.1,3-21.5,4.3c0,0.3,0,0.7-0.1,1.1c-0.1,0.4-0.1,0.9-0.1,1.4c0,10.6,4.3,15.8,12.8,15.8c5.3,0,12.1-1.8,20.3-5.4
    L277.9,675.7z M276.9,628.8c0-5.2-2.8-7.8-8.3-7.8c-5.4,0-10.3,2.2-14.6,6.6c-4.3,4.4-7.5,10.6-9.6,18.7
    c21.1-2.7,31.9-8.3,32.5-16.8V628.8z"></path>
<path fill="black" d="M315.6,573.8h13.9l-21.9,87.8c-0.6,2.6-1,4.6-1,6.2c0,4.8,1.9,7.2,5.8,7.2c3,0,6-0.5,9.1-1.6l1.6,6.1
    c-6.3,3.3-11.6,5-16,5c-9.8,0-14.7-4.4-14.7-13.1c0-1.3,0.1-2.7,0.2-4.2c0.2-1.5,0.5-3.1,1-5L315.6,573.8z"></path>
<path fill="black" d="M355.3,573.8h13.9l-21.9,87.8c-0.6,2.6-1,4.6-1,6.2c0,4.8,1.9,7.2,5.8,7.2c3,0,6-0.5,9.1-1.6l1.6,6.1
    c-6.3,3.3-11.6,5-16,5c-9.8,0-14.7-4.4-14.7-13.1c0-1.3,0.1-2.7,0.2-4.2c0.2-1.5,0.5-3.1,1-5L355.3,573.8z"></path>
<path fill="black" d="M422,675.7c-9.5,5.9-18.4,8.8-26.7,8.8c-7.3,0-12.9-2-17-6c-4.1-4-6.1-9.6-6.1-16.7
    c0-7.1,1.1-13.8,3.4-19.8c2.3-6.1,5.4-11.3,9.4-15.8c4-4.4,8.7-7.9,14-10.3c5.3-2.5,11-3.7,17.1-3.7c5.1,0,9.4,1.4,12.8,4.1
    c3.4,2.7,5.1,6.3,5.1,10.8v1.3c-0.2,3.8-1.3,7.2-3.1,10.1c-1.9,2.9-4.7,5.4-8.5,7.7c-3.8,2.2-8.6,4.2-14.6,5.8
    c-5.9,1.6-13.1,3-21.5,4.3c0,0.3,0,0.7-0.1,1.1c-0.1,0.4-0.1,0.9-0.1,1.4c0,10.6,4.3,15.8,12.8,15.8c5.3,0,12.1-1.8,20.3-5.4
    L422,675.7z M421,628.8c0-5.2-2.8-7.8-8.3-7.8c-5.4,0-10.3,2.2-14.6,6.6c-4.3,4.4-7.5,10.6-9.6,18.7c21.1-2.7,31.9-8.3,32.5-16.8
    V628.8z"></path>
<path fill="black" d="M450.5,614.1h13.4l-1.8,6.9c5.1-2.9,9.7-5.1,13.6-6.6c3.9-1.5,7.4-2.2,10.2-2.2c5.8,0,10.2,1.3,13.4,4
    c3.1,2.7,4.7,6.2,4.7,10.7c0,1.5-0.1,3-0.3,4.5c-0.2,1.5-0.5,3.1-1,5l-11.5,46.2h-13.9l11-44.3c0.4-1.5,0.7-2.9,0.8-4.2
    c0.1-1.3,0.2-2.4,0.3-3.4c0-5.4-3-8.2-9-8.2c-4.7,0-11.6,2.5-20.6,7.4l-13.1,52.6h-13.4L450.5,614.1z"></path>
<path fill="black" d="M559.4,676.3c-9,5.4-17.2,8.2-24.6,8.2c-15.6,0-23.4-8.2-23.4-24.6c0-6.8,1-13.2,2.9-19
    c1.9-5.9,4.6-10.9,8-15.1c3.4-4.2,7.4-7.5,12.1-9.9c4.6-2.4,9.6-3.6,15-3.6c9,0,16.1,2.4,21.4,7.2l-3.7,6.7
    c-5.2-2.8-10.8-4.2-16.6-4.2c-3.6,0-6.9,1-9.9,3c-3,2-5.6,4.6-7.8,7.9c-2.2,3.3-3.9,7.1-5.1,11.4c-1.2,4.3-1.8,8.7-1.8,13.3
    c0,11.4,4.5,17.1,13.4,17.1c4.8,0,10.7-1.8,17.8-5.3L559.4,676.3z"></path>
<path fill="black" d="M621.2,675.7c-9.5,5.9-18.4,8.8-26.7,8.8c-7.3,0-12.9-2-17-6c-4.1-4-6.1-9.6-6.1-16.7
    c0-7.1,1.1-13.8,3.4-19.8c2.3-6.1,5.4-11.3,9.4-15.8c4-4.4,8.7-7.9,14-10.3c5.3-2.5,11-3.7,17.1-3.7c5.1,0,9.4,1.4,12.8,4.1
    c3.4,2.7,5.1,6.3,5.1,10.8v1.3c-0.2,3.8-1.3,7.2-3.1,10.1c-1.9,2.9-4.7,5.4-8.5,7.7c-3.8,2.2-8.6,4.2-14.6,5.8
    c-5.9,1.6-13.1,3-21.5,4.3c0,0.3,0,0.7-0.1,1.1c-0.1,0.4-0.1,0.9-0.1,1.4c0,10.6,4.3,15.8,12.8,15.8c5.3,0,12.1-1.8,20.3-5.4
    L621.2,675.7z M620.2,628.8c0-5.2-2.8-7.8-8.3-7.8c-5.4,0-10.3,2.2-14.6,6.6c-4.3,4.4-7.5,10.6-9.6,18.7
    c21.1-2.7,31.9-8.3,32.5-16.8V628.8z"></path>
<path fill="black" d="M681.5,614.1h13.8l-17.1,68.5h-13.8L681.5,614.1z M687.1,594.9c-1.7-1.9-2.6-4.1-2.6-6.6
    c0-2.6,0.9-4.7,2.6-6.6c1.8-1.8,3.9-2.7,6.3-2.7c2.6,0,4.7,0.9,6.4,2.7c1.7,1.8,2.6,4,2.6,6.6c0,2.6-0.9,4.7-2.6,6.6
    c-1.7,1.8-3.8,2.7-6.4,2.7C691.1,597.6,688.9,596.7,687.1,594.9z"></path>
<path fill="black" d="M712.4,614.1h13.4l-1.8,6.9c5.1-2.9,9.7-5.1,13.6-6.6c3.9-1.5,7.4-2.2,10.2-2.2c5.8,0,10.2,1.3,13.4,4
    c3.1,2.7,4.7,6.2,4.7,10.7c0,1.5-0.1,3-0.3,4.5c-0.2,1.5-0.5,3.1-1,5l-11.5,46.2h-13.9l11-44.3c0.4-1.5,0.7-2.9,0.8-4.2
    c0.1-1.3,0.2-2.4,0.3-3.4c0-5.4-3-8.2-9-8.2c-4.7,0-11.6,2.5-20.6,7.4l-13.1,52.6h-13.4L712.4,614.1z"></path>
<path fill="black" d="M822.2,597.3h13.6l-4.2,16.8h17.3l-2.2,9.3h-17.3l-9.4,37.9c-0.7,2.9-1.1,5.3-1.1,7.2
    c0,4.2,1.9,6.2,5.6,6.2c2.8,0,5.7-0.5,8.8-1.4l1,7.7c-6.3,2.3-11.5,3.5-15.7,3.5c-9.4,0-14.1-4.2-14.1-12.5c0-2.5,0.5-5.6,1.4-9.4
    L822.2,597.3z"></path>
<path fill="black" d="M857.7,614.1h13.4l-11,44.2c-0.9,3.6-1.3,6-1.3,7c0,5.7,3.2,8.5,9.6,8.5c4.8,0,11.3-2.5,19.5-7.5l13-52.2
    h13.8l-17.1,68.5h-13.6l1.8-7.4c-9.5,6.2-17.1,9.3-22.7,9.3c-5.7,0-10.1-1.3-13.3-3.8c-3.2-2.6-4.8-6.2-4.8-10.9
    c0-3,0.4-5.9,1.1-8.8L857.7,614.1z"></path>
<path fill="black" d="M941.5,573.8h13.6l-11.4,45.4c8.7-4.7,15.8-7,21.1-7c6.9,0,12.2,1.8,15.8,5.4c3.6,3.6,5.4,8.7,5.4,15.4
    c0,8.3-1.1,15.7-3.2,22.1c-2.1,6.4-4.9,11.8-8.3,16.2c-3.4,4.4-7.4,7.7-11.8,9.9c-4.5,2.2-9,3.4-13.6,3.4c-7,0-13.5-2.8-19.5-8.5
    l-1.8,6.6h-13.4L941.5,573.8z M931.6,667.8c7,4.2,12.7,6.2,17,6.2c10,0,17.2-8.6,21.6-25.8c1.2-4.9,1.8-9.2,1.8-12.8
    c0-8.7-3.6-13.1-10.9-13.1c-4.2,0-10.8,2.2-19.8,6.7L931.6,667.8z"></path>
<path fill="black" d="M1042.8,675.7c-9.5,5.9-18.4,8.8-26.7,8.8c-7.3,0-12.9-2-17-6c-4.1-4-6.1-9.6-6.1-16.7
    c0-7.1,1.1-13.8,3.4-19.8c2.3-6.1,5.4-11.3,9.4-15.8c4-4.4,8.7-7.9,14-10.3c5.3-2.5,11-3.7,17.1-3.7c5.1,0,9.4,1.4,12.8,4.1
    c3.4,2.7,5.1,6.3,5.1,10.8v1.3c-0.2,3.8-1.3,7.2-3.1,10.1c-1.9,2.9-4.7,5.4-8.5,7.7c-3.8,2.2-8.6,4.2-14.6,5.8
    c-5.9,1.6-13.1,3-21.5,4.3c0,0.3,0,0.7-0.1,1.1c-0.1,0.4-0.1,0.9-0.1,1.4c0,10.6,4.3,15.8,12.8,15.8c5.3,0,12.1-1.8,20.3-5.4
    L1042.8,675.7z M1041.8,628.8c0-5.2-2.8-7.8-8.3-7.8c-5.4,0-10.3,2.2-14.6,6.6c-4.3,4.4-7.5,10.6-9.6,18.7
    c21.1-2.7,31.9-8.3,32.5-16.8V628.8z"></path>
<path fill="black" d="M1113.2,573.8h13.6l-11.4,45.4c8.7-4.7,15.8-7,21.1-7c6.9,0,12.2,1.8,15.8,5.4c3.6,3.6,5.4,8.7,5.4,15.4
    c0,8.3-1.1,15.7-3.2,22.1c-2.1,6.4-4.9,11.8-8.3,16.2c-3.4,4.4-7.4,7.7-11.8,9.9c-4.5,2.2-9,3.4-13.6,3.4c-7,0-13.5-2.8-19.5-8.5
    l-1.8,6.6h-13.4L1113.2,573.8z M1103.3,667.8c7,4.2,12.7,6.2,17,6.2c10,0,17.2-8.6,21.6-25.8c1.2-4.9,1.8-9.2,1.8-12.8
    c0-8.7-3.6-13.1-10.9-13.1c-4.2,0-10.8,2.2-19.8,6.7L1103.3,667.8z"></path>
<path fill="black" d="M1214.5,675.7c-9.5,5.9-18.4,8.8-26.7,8.8c-7.3,0-12.9-2-17-6c-4.1-4-6.1-9.6-6.1-16.7
    c0-7.1,1.1-13.8,3.4-19.8c2.3-6.1,5.4-11.3,9.4-15.8c4-4.4,8.7-7.9,14-10.3c5.3-2.5,11-3.7,17.1-3.7c5.1,0,9.4,1.4,12.8,4.1
    c3.4,2.7,5.1,6.3,5.1,10.8v1.3c-0.2,3.8-1.3,7.2-3.1,10.1c-1.9,2.9-4.7,5.4-8.5,7.7c-3.8,2.2-8.6,4.2-14.6,5.8
    c-5.9,1.6-13.1,3-21.5,4.3c0,0.3,0,0.7-0.1,1.1c-0.1,0.4-0.1,0.9-0.1,1.4c0,10.6,4.3,15.8,12.8,15.8c5.3,0,12.1-1.8,20.3-5.4
    L1214.5,675.7z M1213.5,628.8c0-5.2-2.8-7.8-8.3-7.8c-5.4,0-10.3,2.2-14.6,6.6c-4.3,4.4-7.5,10.6-9.6,18.7
    c21.1-2.7,31.9-8.3,32.5-16.8V628.8z"></path>
<path fill="black" d="M1243,614.1h13.4l-1.8,6.9c5.1-2.9,9.7-5.1,13.6-6.6c3.9-1.5,7.4-2.2,10.2-2.2c5.8,0,10.2,1.3,13.4,4
    c3.1,2.7,4.7,6.2,4.7,10.7c0,1.5-0.1,3-0.3,4.5c-0.2,1.5-0.5,3.1-1,5l-11.5,46.2h-13.9l11-44.3c0.4-1.5,0.7-2.9,0.8-4.2
    c0.1-1.3,0.2-2.4,0.3-3.4c0-5.4-3-8.2-9-8.2c-4.7,0-11.6,2.5-20.6,7.4l-13.1,52.6h-13.4L1243,614.1z"></path>
<path fill="black" d="M1346.6,676.2c-8.1,5.5-15.4,8.3-21.8,8.3c-14.3,0-21.4-7.5-21.4-22.6c0-6.5,0.8-12.7,2.4-18.7
<path fill="none" d="M1823.1,563.5c-18.2,3.1-40,3.9-57.1,3.9c17.2,0,39.5-0.7,58.1-3.9c39.8-11.2,46.9-34.7,46.9-34.7l70.4-215.3
			h-1l-70.4,215.3C1870.1,528.8,1862.9,552.3,1823.1,563.5z"></path>
<path fill="none" d="M1961.9,248.2h1c0,0,9.2-72.4,65.3-119.4c39.1-32.7,94-37.7,123.7-37.7c-29.5-0.1-85.2,4.6-124.8,37.7
			C1971.1,175.8,1961.9,248.2,1961.9,248.2z"></path>
<path fill="none" d="M2244.6,159.4L2244.6,159.4c-2.9-0.1-11.3-0.4-22.3-0.4C2235.4,159,2244.6,159.4,2244.6,159.4z"></path>
<polygon fill="none" points="1861.9,313.5 1862.9,313.5 1884.4,248.2 1883.3,248.2 		"></polygon>
<path fill="#126BB2" d="M2245.1,159.4c-0.2,0-0.4,0-0.6,0c0,0-9.1-0.4-22.2-0.4c-27.8,0-72.4,1.9-87.9,12.7
			c-23.5,16.3-25.1,39.3-36.2,76l83.2,0.5l-22.4,65.3h-1h-70.4l-90.8,234.7c0,0-27.6,55.1-82.7,70.4c-49.2,13.7-91.6,15-100.2,15.2
			c-0.4,0-0.7,0-1,0C1864,667.4,1925.2,687,1991,687c179.5,0,325-145.5,325-325C2316,285.4,2289.5,215,2245.1,159.4z"></path>
<path fill="#1D9667" d="M1739.6,566.7c3,0.2,13.2,0.6,26.4,0.7c17,0,38.9-0.8,57.1-3.9c39.8-11.2,46.9-34.7,46.9-34.7l70.4-215.3
			h-77.6h-1l21.4-65.3h1h77.6c0,0,9.2-72.4,65.3-119.4c39.5-33.1,95.3-37.8,124.8-37.7c10,0,17.2,0.6,19.9,0.8
			C2120.2,57.3,2058,37,1991,37c-179.5,0-325,145.5-325,325c0,77.6,27.2,148.9,72.6,204.7c0,0,0.1,0,0.2,0c0,0,0-0.1,0-0.1
			S1739,566.7,1739.6,566.7z"></path>
<path fill="#FFFFFF" d="M1914,618.6c55.1-15.3,82.7-70.4,82.7-70.4l90.8-234.7h70.4h1l22.4-65.3l-83.2-0.5
			c11.2-36.7,12.8-59.7,36.2-76c15.5-10.8,60.1-12.6,87.9-12.7c11,0,22.7,0.4,22.9,0.4c0.3,0-16.9-23.5-39.3-42.8
			S2172.6,92,2171.9,92c-2.8-0.3-9.9-0.8-19.9-0.8c-29.8,0-84.7,5-123.7,37.7c-56.1,46.9-65.3,119.4-65.3,119.4h-1h-77.6l-21.4,65.3
			h77.6h1l-70.4,215.3c0,0-7.1,23.5-46.9,34.7c-18.6,3.2-40.9,3.9-58.1,3.9c-13.3,0-23.5-0.5-26.4-0.7c-0.6,0-0.9,0-0.9,0s0,0,0,0.1
			c0.7,1,11.7,15.9,33.3,35.6c17.3,16.3,40.1,31.5,40.1,31.5s0.2,0,0.6,0c0.3,0,0.6,0,1,0C1822.3,633.7,1864.8,632.3,1914,618.6z"></path>
<path fill="#126BB2" d="M63.5,575.8h52.8l-2.7,10.6H75L66.7,620h30.7l-2.9,10.6H63.8L53.5,672h41.6l-2.7,10.6H36.7L63.5,575.8z"></path>
<path fill="#126BB2" d="M128.1,646.6l-15-32.5h14.1l9.9,23l20.5-23h13.9l-30.1,32.5l16.6,36h-14.1L132.4,656l-23.7,26.6H94.8
		L128.1,646.6z"></path>
<path fill="#126BB2" d="M216.1,676.3c-9,5.4-17.2,8.2-24.6,8.2c-15.6,0-23.4-8.2-23.4-24.6c0-6.8,1-13.2,2.9-19
		c1.9-5.9,4.6-10.9,8-15.1c3.4-4.2,7.4-7.5,12.1-9.9c4.6-2.4,9.6-3.6,15-3.6c9,0,16.1,2.4,21.4,7.2l-3.7,6.7
		c-5.2-2.8-10.8-4.2-16.6-4.2c-3.6,0-6.9,1-9.9,3c-3,2-5.6,4.6-7.8,7.9c-2.2,3.3-3.9,7.1-5.1,11.4c-1.2,4.3-1.8,8.7-1.8,13.3
		c0,11.4,4.5,17.1,13.4,17.1c4.8,0,10.7-1.8,17.8-5.3L216.1,676.3z"></path>
<path fill="#126BB2" d="M277.9,675.7c-9.5,5.9-18.4,8.8-26.7,8.8c-7.3,0-12.9-2-17-6c-4.1-4-6.1-9.6-6.1-16.7
		c0-7.1,1.1-13.8,3.4-19.8c2.3-6.1,5.4-11.3,9.4-15.8c4-4.4,8.7-7.9,14-10.3c5.3-2.5,11-3.7,17.1-3.7c5.1,0,9.4,1.4,12.8,4.1
		c3.4,2.7,5.1,6.3,5.1,10.8v1.3c-0.2,3.8-1.3,7.2-3.1,10.1c-1.9,2.9-4.7,5.4-8.5,7.7c-3.8,2.2-8.6,4.2-14.6,5.8
		c-5.9,1.6-13.1,3-21.5,4.3c0,0.3,0,0.7-0.1,1.1c-0.1,0.4-0.1,0.9-0.1,1.4c0,10.6,4.3,15.8,12.8,15.8c5.3,0,12.1-1.8,20.3-5.4
		L277.9,675.7z M276.9,628.8c0-5.2-2.8-7.8-8.3-7.8c-5.4,0-10.3,2.2-14.6,6.6c-4.3,4.4-7.5,10.6-9.6,18.7
		c21.1-2.7,31.9-8.3,32.5-16.8V628.8z"></path>
<path fill="#126BB2" d="M315.6,573.8h13.9l-21.9,87.8c-0.6,2.6-1,4.6-1,6.2c0,4.8,1.9,7.2,5.8,7.2c3,0,6-0.5,9.1-1.6l1.6,6.1
		c-6.3,3.3-11.6,5-16,5c-9.8,0-14.7-4.4-14.7-13.1c0-1.3,0.1-2.7,0.2-4.2c0.2-1.5,0.5-3.1,1-5L315.6,573.8z"></path>
<path fill="#126BB2" d="M355.3,573.8h13.9l-21.9,87.8c-0.6,2.6-1,4.6-1,6.2c0,4.8,1.9,7.2,5.8,7.2c3,0,6-0.5,9.1-1.6l1.6,6.1
		c-6.3,3.3-11.6,5-16,5c-9.8,0-14.7-4.4-14.7-13.1c0-1.3,0.1-2.7,0.2-4.2c0.2-1.5,0.5-3.1,1-5L355.3,573.8z"></path>
<path fill="#126BB2" d="M422,675.7c-9.5,5.9-18.4,8.8-26.7,8.8c-7.3,0-12.9-2-17-6c-4.1-4-6.1-9.6-6.1-16.7
		c0-7.1,1.1-13.8,3.4-19.8c2.3-6.1,5.4-11.3,9.4-15.8c4-4.4,8.7-7.9,14-10.3c5.3-2.5,11-3.7,17.1-3.7c5.1,0,9.4,1.4,12.8,4.1
		c3.4,2.7,5.1,6.3,5.1,10.8v1.3c-0.2,3.8-1.3,7.2-3.1,10.1c-1.9,2.9-4.7,5.4-8.5,7.7c-3.8,2.2-8.6,4.2-14.6,5.8
		c-5.9,1.6-13.1,3-21.5,4.3c0,0.3,0,0.7-0.1,1.1c-0.1,0.4-0.1,0.9-0.1,1.4c0,10.6,4.3,15.8,12.8,15.8c5.3,0,12.1-1.8,20.3-5.4
		L422,675.7z M421,628.8c0-5.2-2.8-7.8-8.3-7.8c-5.4,0-10.3,2.2-14.6,6.6c-4.3,4.4-7.5,10.6-9.6,18.7c21.1-2.7,31.9-8.3,32.5-16.8
		V628.8z"></path>
<path fill="#126BB2" d="M450.5,614.1h13.4l-1.8,6.9c5.1-2.9,9.7-5.1,13.6-6.6c3.9-1.5,7.4-2.2,10.2-2.2c5.8,0,10.2,1.3,13.4,4
		c3.1,2.7,4.7,6.2,4.7,10.7c0,1.5-0.1,3-0.3,4.5c-0.2,1.5-0.5,3.1-1,5l-11.5,46.2h-13.9l11-44.3c0.4-1.5,0.7-2.9,0.8-4.2
		c0.1-1.3,0.2-2.4,0.3-3.4c0-5.4-3-8.2-9-8.2c-4.7,0-11.6,2.5-20.6,7.4l-13.1,52.6h-13.4L450.5,614.1z"></path>
<path fill="#126BB2" d="M559.4,676.3c-9,5.4-17.2,8.2-24.6,8.2c-15.6,0-23.4-8.2-23.4-24.6c0-6.8,1-13.2,2.9-19
		c1.9-5.9,4.6-10.9,8-15.1c3.4-4.2,7.4-7.5,12.1-9.9c4.6-2.4,9.6-3.6,15-3.6c9,0,16.1,2.4,21.4,7.2l-3.7,6.7
		c-5.2-2.8-10.8-4.2-16.6-4.2c-3.6,0-6.9,1-9.9,3c-3,2-5.6,4.6-7.8,7.9c-2.2,3.3-3.9,7.1-5.1,11.4c-1.2,4.3-1.8,8.7-1.8,13.3
		c0,11.4,4.5,17.1,13.4,17.1c4.8,0,10.7-1.8,17.8-5.3L559.4,676.3z"></path>
<path fill="#126BB2" d="M621.2,675.7c-9.5,5.9-18.4,8.8-26.7,8.8c-7.3,0-12.9-2-17-6c-4.1-4-6.1-9.6-6.1-16.7
		c0-7.1,1.1-13.8,3.4-19.8c2.3-6.1,5.4-11.3,9.4-15.8c4-4.4,8.7-7.9,14-10.3c5.3-2.5,11-3.7,17.1-3.7c5.1,0,9.4,1.4,12.8,4.1
		c3.4,2.7,5.1,6.3,5.1,10.8v1.3c-0.2,3.8-1.3,7.2-3.1,10.1c-1.9,2.9-4.7,5.4-8.5,7.7c-3.8,2.2-8.6,4.2-14.6,5.8
		c-5.9,1.6-13.1,3-21.5,4.3c0,0.3,0,0.7-0.1,1.1c-0.1,0.4-0.1,0.9-0.1,1.4c0,10.6,4.3,15.8,12.8,15.8c5.3,0,12.1-1.8,20.3-5.4
		L621.2,675.7z M620.2,628.8c0-5.2-2.8-7.8-8.3-7.8c-5.4,0-10.3,2.2-14.6,6.6c-4.3,4.4-7.5,10.6-9.6,18.7
		c21.1-2.7,31.9-8.3,32.5-16.8V628.8z"></path>
<path fill="#126BB2" d="M681.5,614.1h13.8l-17.1,68.5h-13.8L681.5,614.1z M687.1,594.9c-1.7-1.9-2.6-4.1-2.6-6.6
		c0-2.6,0.9-4.7,2.6-6.6c1.8-1.8,3.9-2.7,6.3-2.7c2.6,0,4.7,0.9,6.4,2.7c1.7,1.8,2.6,4,2.6,6.6c0,2.6-0.9,4.7-2.6,6.6
		c-1.7,1.8-3.8,2.7-6.4,2.7C691.1,597.6,688.9,596.7,687.1,594.9z"></path>
<path fill="#126BB2" d="M712.4,614.1h13.4l-1.8,6.9c5.1-2.9,9.7-5.1,13.6-6.6c3.9-1.5,7.4-2.2,10.2-2.2c5.8,0,10.2,1.3,13.4,4
		c3.1,2.7,4.7,6.2,4.7,10.7c0,1.5-0.1,3-0.3,4.5c-0.2,1.5-0.5,3.1-1,5l-11.5,46.2h-13.9l11-44.3c0.4-1.5,0.7-2.9,0.8-4.2
		c0.1-1.3,0.2-2.4,0.3-3.4c0-5.4-3-8.2-9-8.2c-4.7,0-11.6,2.5-20.6,7.4l-13.1,52.6h-13.4L712.4,614.1z"></path>
<path fill="#126BB2" d="M822.2,597.3h13.6l-4.2,16.8h17.3l-2.2,9.3h-17.3l-9.4,37.9c-0.7,2.9-1.1,5.3-1.1,7.2
		c0,4.2,1.9,6.2,5.6,6.2c2.8,0,5.7-0.5,8.8-1.4l1,7.7c-6.3,2.3-11.5,3.5-15.7,3.5c-9.4,0-14.1-4.2-14.1-12.5c0-2.5,0.5-5.6,1.4-9.4
		L822.2,597.3z"></path>
<path fill="#126BB2" d="M857.7,614.1h13.4l-11,44.2c-0.9,3.6-1.3,6-1.3,7c0,5.7,3.2,8.5,9.6,8.5c4.8,0,11.3-2.5,19.5-7.5l13-52.2
		h13.8l-17.1,68.5h-13.6l1.8-7.4c-9.5,6.2-17.1,9.3-22.7,9.3c-5.7,0-10.1-1.3-13.3-3.8c-3.2-2.6-4.8-6.2-4.8-10.9
		c0-3,0.4-5.9,1.1-8.8L857.7,614.1z"></path>
<path fill="#126BB2" d="M941.5,573.8h13.6l-11.4,45.4c8.7-4.7,15.8-7,21.1-7c6.9,0,12.2,1.8,15.8,5.4c3.6,3.6,5.4,8.7,5.4,15.4
		c0,8.3-1.1,15.7-3.2,22.1c-2.1,6.4-4.9,11.8-8.3,16.2c-3.4,4.4-7.4,7.7-11.8,9.9c-4.5,2.2-9,3.4-13.6,3.4c-7,0-13.5-2.8-19.5-8.5
		l-1.8,6.6h-13.4L941.5,573.8z M931.6,667.8c7,4.2,12.7,6.2,17,6.2c10,0,17.2-8.6,21.6-25.8c1.2-4.9,1.8-9.2,1.8-12.8
		c0-8.7-3.6-13.1-10.9-13.1c-4.2,0-10.8,2.2-19.8,6.7L931.6,667.8z"></path>
<path fill="#126BB2" d="M1042.8,675.7c-9.5,5.9-18.4,8.8-26.7,8.8c-7.3,0-12.9-2-17-6c-4.1-4-6.1-9.6-6.1-16.7
		c0-7.1,1.1-13.8,3.4-19.8c2.3-6.1,5.4-11.3,9.4-15.8c4-4.4,8.7-7.9,14-10.3c5.3-2.5,11-3.7,17.1-3.7c5.1,0,9.4,1.4,12.8,4.1
		c3.4,2.7,5.1,6.3,5.1,10.8v1.3c-0.2,3.8-1.3,7.2-3.1,10.1c-1.9,2.9-4.7,5.4-8.5,7.7c-3.8,2.2-8.6,4.2-14.6,5.8
		c-5.9,1.6-13.1,3-21.5,4.3c0,0.3,0,0.7-0.1,1.1c-0.1,0.4-0.1,0.9-0.1,1.4c0,10.6,4.3,15.8,12.8,15.8c5.3,0,12.1-1.8,20.3-5.4
		L1042.8,675.7z M1041.8,628.8c0-5.2-2.8-7.8-8.3-7.8c-5.4,0-10.3,2.2-14.6,6.6c-4.3,4.4-7.5,10.6-9.6,18.7
		c21.1-2.7,31.9-8.3,32.5-16.8V628.8z"></path>
<path fill="#126BB2" d="M1113.2,573.8h13.6l-11.4,45.4c8.7-4.7,15.8-7,21.1-7c6.9,0,12.2,1.8,15.8,5.4c3.6,3.6,5.4,8.7,5.4,15.4
		c0,8.3-1.1,15.7-3.2,22.1c-2.1,6.4-4.9,11.8-8.3,16.2c-3.4,4.4-7.4,7.7-11.8,9.9c-4.5,2.2-9,3.4-13.6,3.4c-7,0-13.5-2.8-19.5-8.5
		l-1.8,6.6h-13.4L1113.2,573.8z M1103.3,667.8c7,4.2,12.7,6.2,17,6.2c10,0,17.2-8.6,21.6-25.8c1.2-4.9,1.8-9.2,1.8-12.8
		c0-8.7-3.6-13.1-10.9-13.1c-4.2,0-10.8,2.2-19.8,6.7L1103.3,667.8z"></path>
<path fill="#126BB2" d="M1214.5,675.7c-9.5,5.9-18.4,8.8-26.7,8.8c-7.3,0-12.9-2-17-6c-4.1-4-6.1-9.6-6.1-16.7
		c0-7.1,1.1-13.8,3.4-19.8c2.3-6.1,5.4-11.3,9.4-15.8c4-4.4,8.7-7.9,14-10.3c5.3-2.5,11-3.7,17.1-3.7c5.1,0,9.4,1.4,12.8,4.1
		c3.4,2.7,5.1,6.3,5.1,10.8v1.3c-0.2,3.8-1.3,7.2-3.1,10.1c-1.9,2.9-4.7,5.4-8.5,7.7c-3.8,2.2-8.6,4.2-14.6,5.8
		c-5.9,1.6-13.1,3-21.5,4.3c0,0.3,0,0.7-0.1,1.1c-0.1,0.4-0.1,0.9-0.1,1.4c0,10.6,4.3,15.8,12.8,15.8c5.3,0,12.1-1.8,20.3-5.4
		L1214.5,675.7z M1213.5,628.8c0-5.2-2.8-7.8-8.3-7.8c-5.4,0-10.3,2.2-14.6,6.6c-4.3,4.4-7.5,10.6-9.6,18.7
		c21.1-2.7,31.9-8.3,32.5-16.8V628.8z"></path>
<path fill="#126BB2" d="M1243,614.1h13.4l-1.8,6.9c5.1-2.9,9.7-5.1,13.6-6.6c3.9-1.5,7.4-2.2,10.2-2.2c5.8,0,10.2,1.3,13.4,4
		c3.1,2.7,4.7,6.2,4.7,10.7c0,1.5-0.1,3-0.3,4.5c-0.2,1.5-0.5,3.1-1,5l-11.5,46.2h-13.9l11-44.3c0.4-1.5,0.7-2.9,0.8-4.2
		c0.1-1.3,0.2-2.4,0.3-3.4c0-5.4-3-8.2-9-8.2c-4.7,0-11.6,2.5-20.6,7.4l-13.1,52.6h-13.4L1243,614.1z"></path>
<path fill="#126BB2" d="M1346.6,676.2c-8.1,5.5-15.4,8.3-21.8,8.3c-14.3,0-21.4-7.5-21.4-22.6c0-6.5,0.8-12.7,2.4-18.7
		c1.6-6,4-11.3,7.2-15.8c3.2-4.6,7.1-8.3,11.8-11c4.7-2.8,10.2-4.2,16.5-4.2c7.3,0,13.8,2.2,19.7,6.6l11.2-45h13.4l-27,108.8H1345
		L1346.6,676.2z M1358.8,627.5c-6.3-3.4-12.3-5.1-17.9-5.1c-3.3,0-6.4,1-9.2,3.1c-2.8,2.1-5.3,4.9-7.4,8.3
		c-2.1,3.5-3.7,7.4-4.9,11.8c-1.2,4.4-1.8,9-1.8,13.8c0,9.7,3.5,14.6,10.6,14.6c5.1,0,12-2.2,20.6-6.7L1358.8,627.5z"></path>
<path fill="#126BB2" d="M1392.4,614.1h13.8l-17.1,68.5h-13.8L1392.4,614.1z M1398,594.9c-1.7-1.9-2.6-4.1-2.6-6.6
		c0-2.6,0.9-4.7,2.6-6.6c1.8-1.8,3.9-2.7,6.3-2.7c2.6,0,4.7,0.9,6.4,2.7c1.7,1.8,2.6,4,2.6,6.6c0,2.6-0.9,4.7-2.6,6.6
		c-1.7,1.8-3.8,2.7-6.4,2.7C1401.9,597.6,1399.8,596.7,1398,594.9z"></path>
<path fill="#126BB2" d="M1423.3,614.1h13.4l-1.8,6.9c5.1-2.9,9.7-5.1,13.6-6.6c3.9-1.5,7.4-2.2,10.2-2.2c5.8,0,10.2,1.3,13.4,4
		c3.1,2.7,4.7,6.2,4.7,10.7c0,1.5-0.1,3-0.3,4.5c-0.2,1.5-0.5,3.1-1,5l-11.5,46.2h-13.9l11-44.3c0.4-1.5,0.7-2.9,0.8-4.2
		c0.1-1.3,0.2-2.4,0.3-3.4c0-5.4-3-8.2-9-8.2c-4.7,0-11.6,2.5-20.6,7.4l-13.1,52.6h-13.4L1423.3,614.1z"></path>
<path fill="#126BB2" d="M1480.5,705.4c5.8,3.7,11.9,5.6,18.6,5.6c13.1,0,21.8-8.6,26.1-25.8l2.2-9.1c-8.1,5.5-15.4,8.3-21.8,8.3
		c-14.3,0-21.4-7.5-21.4-22.6c0-6.5,0.8-12.7,2.4-18.7c1.6-6,4-11.3,7.2-15.8c3.2-4.6,7.1-8.3,11.8-11c4.7-2.8,10.2-4.2,16.5-4.2
		c7.3,0,13.8,2.2,19.7,6.6l1.1-4.6h13.4l-17.6,70.4c-6.1,24.2-19.3,36.3-39.5,36.3c-7.8,0-15.1-2.5-21.9-7.4L1480.5,705.4z
		 M1539.6,627.5c-6.3-3.4-12.3-5.1-17.9-5.1c-3.2,0-6.2,1-9,3c-2.8,2-5.3,4.7-7.4,8.2c-2.1,3.4-3.7,7.4-5,11.8
		c-1.2,4.5-1.8,9.2-1.8,14.1c0,9.7,3.5,14.6,10.6,14.6c5.2,0,12.1-2.2,20.6-6.7L1539.6,627.5z"></path>
<path fill="#126BB2" d="M147.9,57.2h226.2l-15,60.4H210.3l-26.7,106.6h117l-14.9,60.5h-117l-51.4,206h-78L147.9,57.2z"></path>
<path fill="#126BB2" d="M418.9,57.2h78L388.4,490.8h-78L418.9,57.2z"></path>
<path fill="#126BB2" d="M576.9,57.2h64.4l96.2,290.5l72.1-290.5h68.9L770.6,490.8h-57.9l-100.1-299l-74.1,299h-70.2L576.9,57.2z"></path>
<path fill="#126BB2" d="M860.9,398.5c44.2,23.4,85.4,35.1,123.5,35.1c26,0,46.1-6.7,60.4-20.1c14.3-13.4,21.5-30.3,21.5-50.7
		c0-14.3-4.4-27-13.3-38c-8.9-11-25.2-22.9-49.1-35.4c-57.2-30.3-85.8-67.2-85.8-110.5c0-19.1,3.7-36.6,11.1-52.6
		c7.4-16,17.9-29.8,31.5-41.3c13.6-11.5,30.1-20.5,49.4-27c19.3-6.5,40.6-9.8,64-9.8c49.8,0,93.6,13.6,131.3,40.9l-27.3,46.2
		c-36.4-17.8-71.1-26.7-104-26.7c-24.7,0-43.4,4.8-56.2,14.3c-12.8,9.5-19.2,24.1-19.2,43.6c0,6.1,0.9,11.5,2.6,16.3
		c1.7,4.8,5.1,9.5,10.1,14.3c5,4.8,11.7,9.9,20.1,15.3c8.4,5.4,19.6,11.8,33.5,19.2c55.9,29.9,83.8,68.7,83.8,116.3
		c0,20.8-3.9,40.3-11.7,58.5c-7.8,18.2-19,34.1-33.5,47.8c-14.5,13.6-32.3,24.5-53.3,32.5c-21,8-44.5,12-70.5,12
		c-49.8,0-98.4-16.9-145.6-50.7L860.9,398.5z"></path>
<path fill="#126BB2" d="M1278.2,57.2h234.7l-15,60.4h-157.3l-28,110.5h125.5l-15,60.4h-124.8L1262,430.3h169l-14.9,60.5h-246.4
		L1278.2,57.2z"></path>
</svg>