<svg width="183" height="29" viewBox="0 0 183 29" fill="none" xmlns="http://www.w3.org/2000/svg"><path d="M27.476 18.525c0-1.46.226-2.761.755-4.067.53-1.228 1.21-2.377 2.113-3.298.907-.922 1.962-1.69 3.246-2.224a10.571 10.571 0 014.153-.845c1.512 0 2.869.308 4.153.845 1.21.538 2.34 1.306 3.171 2.224.907.921 1.587 2.07 2.113 3.298.529 1.229.756 2.608.756 4.067s-.227 2.761-.756 4.066c-.53 1.229-1.21 2.378-2.113 3.3-.907.92-1.962 1.688-3.17 2.223-1.21.537-2.642.844-4.154.844-1.511 0-2.868-.307-4.153-.844-1.284-.538-2.34-1.306-3.246-2.224-.907-.921-1.587-1.993-2.113-3.299-.529-1.228-.755-2.607-.755-4.066zm10.192 5.218c.755 0 1.36-.153 1.961-.46a4.36 4.36 0 001.436-1.152c.378-.461.68-1.075.907-1.69.227-.614.302-1.228.302-1.916s-.075-1.305-.302-1.917c-.227-.614-.453-1.151-.907-1.689-.378-.46-.907-.845-1.436-1.152a4.125 4.125 0 00-1.961-.46c-.753 0-1.36.153-1.962.46a4.36 4.36 0 00-1.436 1.152c-.378.46-.68.998-.906 1.69-.227.614-.303 1.228-.303 1.916s.076 1.305.303 1.916a7.26 7.26 0 00.906 1.69c.378.46.832.921 1.436 1.151.605.308 1.285.461 1.962.461zM101.343 18.525c0-1.46.226-2.761.755-4.067.529-1.228 1.21-2.377 2.113-3.298.907-.922 1.962-1.69 3.246-2.224a10.575 10.575 0 014.154-.845c1.511 0 2.868.308 4.153.845 1.209.538 2.339 1.306 3.17 2.224.907.921 1.587 2.07 2.113 3.298.529 1.229.756 2.608.756 4.067s-.227 2.761-.756 4.066c-.529 1.229-1.209 2.378-2.113 3.3a10.237 10.237 0 01-3.17 2.223c-1.209.537-2.642.844-4.153.844-1.512 0-2.869-.307-4.154-.844-1.284-.538-2.339-1.306-3.246-2.224-.907-.921-1.587-1.993-2.113-3.299-.529-1.228-.755-2.607-.755-4.066zm10.192 5.218a4.11 4.11 0 001.962-.46 4.354 4.354 0 001.435-1.152c.378-.461.68-1.075.907-1.69.151-.614.302-1.228.302-1.916s-.075-1.305-.302-1.917c-.227-.614-.453-1.151-.907-1.689-.377-.46-.906-.845-1.435-1.152a4.126 4.126 0 00-1.962-.46c-.753 0-1.36.153-1.962.46a4.354 4.354 0 00-1.435 1.152c-.378.46-.681.998-.907 1.69-.227.614-.303 1.228-.303 1.916s.076 1.305.303 1.916a7.23 7.23 0 00.907 1.69c.377.46.831.921 1.435 1.151a4.35 4.35 0 001.962.461zM137.735 8.44v11.928c0 1.993-1.587 3.606-3.473 3.606s-3.473-1.613-3.473-3.606V8.44h-6.039v11.851c0 4.758 3.775 8.67 8.382 8.67h2.037c4.682 0 8.382-3.912 8.382-8.67V8.441h-5.816zM8.832 8.21c0-1.229.302-2.147.831-2.685.605-.537 1.512-.844 2.717-.844h.454V0h-.227c-1.284 0-2.49.154-3.7.46-1.133.308-2.188.769-3.019 1.46-.907.69-1.587 1.535-2.037 2.607-.53 1.075-.756 2.377-.756 3.99v.46H0v4.681h3.02v14.73h5.736V13.583h4.078V8.9H8.832V8.21zM25.007 24.002c-1.738 0-3.02-1.075-3.02-3.605V1.753L16.021 0v20.473c0 5.142 2.641 8.517 8.003 8.517.68 0 1.285-.076 1.81-.076v-4.912h-.83M96.361 10.51c-1.36-1.305-3.095-1.993-5.359-1.993-1.057 0-2.112.23-3.17.614a5.794 5.794 0 00-2.49 1.69V1.916L79.452 0v28.386h5.888V17.952c0-.614.076-1.152.227-1.612.151-.538.378-.922.755-1.383.303-.383.756-.69 1.21-.92.529-.231 1.058-.385 1.662-.385.983 0 1.738.307 2.34.922.604.614.83 1.535.83 2.607v11.201h5.889V16.337c.075-2.53-.605-4.527-1.886-5.829M58.593 28.386l3.93-8.924 3.93 8.924h3.157L76.95 8.44h-5.702l-3.949 10.002-4.776-9.627-4.777 9.627L53.53 8.44h-5.699l7.604 19.946h3.158zM156.668 16.516c-1.446-.387-2.585-.775-3.423-1.005-.838-.31-1.215-.774-1.215-1.392 0-.464.226-.774.607-1.081.381-.23 1.065-.387 1.902-.387.989 0 1.902.153 2.661.464.151.076.226.153.381.153l2.89-3.788c-.683-.387-1.37-.617-2.053-.851-1.215-.387-2.585-.54-4.26-.54-1.14 0-2.207.153-3.196.463-.988.31-1.826.694-2.509 1.235-.684.54-1.294 1.158-1.672 1.933-.381.774-.608 1.545-.608 2.473 0 .85.151 1.699.532 2.32.306.694.762 1.234 1.294 1.698.532.464 1.216.851 1.902 1.159.683.31 1.445.54 2.129.774.913.23 1.596.464 2.207.694.608.23 1.064.387 1.369.54.306.154.533.388.684.618.151.23.151.464.151.695 0 .617-.306 1.081-.838 1.315-.532.23-1.294.31-2.128.31-.913 0-1.902-.23-2.891-.617-.913-.31-1.596-.775-2.207-1.236l-2.966 3.709c.913.927 2.129 1.622 3.574 2.086 1.521.464 3.117.694 4.792.694 1.064 0 2.053-.154 3.117-.387a8.624 8.624 0 002.74-1.158c.762-.541 1.445-1.159 1.901-1.933.457-.774.684-1.699.684-2.783 0-1.622-.457-2.938-1.294-3.865-.914-1.005-2.283-1.78-4.261-2.32M179.88 22.735c-.447.301-.967.605-1.71.906-.967.454-2.154.678-3.64.678-1.486 0-2.749-.377-3.564-1.206-.891-.832-1.338-1.737-1.338-2.793H183v-.982c0-1.66-.223-3.171-.595-4.53-.372-1.36-.967-2.567-1.782-3.55-.819-.981-1.782-1.736-2.897-2.338-1.115-.528-2.453-.832-4.011-.832-1.559 0-2.897.301-4.087.832-1.187.605-2.23 1.36-3.045 2.265-.819.983-1.486 2.038-1.93 3.321a11.74 11.74 0 00-.668 3.926c0 1.584.224 3.02.668 4.303.447 1.283 1.114 2.416 2.006 3.322a9.998 9.998 0 003.268 2.188c1.262.528 2.749.755 4.307.755 1.187 0 2.302-.15 3.193-.378.967-.227 1.71-.527 2.453-.831.667-.301 1.262-.605 1.634-.906.371-.3.667-.528.891-.605l-2.525-3.548v.003zm-9.953-7.473c.148-.455.447-.832.743-1.207.296-.377.743-.678 1.263-.905a4.411 4.411 0 011.782-.378c.667 0 1.262.15 1.709.378.448.227.891.528 1.187.905.296.378.596.755.744 1.207.148.45.223.831.223 1.282h-7.947c0-.454.075-.831.296-1.283z" fill="currentColor"></path></svg>
