<svg width="110" height="20" fill="#000" xmlns="http://www.w3.org/2000/svg" viewBox="0 0 302.8 57.8"><path d="M.8.7h32.5v3.7H6v25.5h20.5v3.8H6v23.1H.8V.7zM45.4 53h28.8v3.7H40.1V.7h5.3V53zM110.6 0h5.4v45.4c0 2.1-.8 4-2.3 5.7-1.6 1.8-3.6 3.1-6.3 4.2-2.7 1-5.5 1.5-8.6 1.5h-.6c-3.1 0-6-.5-8.5-1.5-2.6-1-4.7-2.4-6.3-4.2-1.6-1.8-2.4-3.7-2.4-5.7V0h5.3v45.4c0 1.4.5 2.6 1.6 3.8 1.1 1.2 2.5 2.1 4.3 2.8 1.8.7 3.7 1 5.9 1h.6c2.1 0 4.1-.3 5.9-1 1.8-.7 3.2-1.6 4.3-2.8 1-1.2 1.6-2.5 1.6-3.8V0zM163.5 56.8h-5.4V11.6l-12.5 21.6h-4.2l-13.2-22.8v46.3h-5.3V.7h5.5l15.2 26.2L158.9.7h4.7v56.1zM170.4.7h32.5v3.7h-27.2v25.5h20.5v3.8h-20.5V53h27.2v3.7h-32.5V.7zM239.2.7h5.4v56.1h-4.8L215 11v45.8h-5.3V.7h5.5l23.9 44.5V.7zM251.4.7h5.3v56.1h-5.3V.7zM301.9 56.8h-5.5l-4.9-16.5H274l-5 16.5h-5.5L280.4.7h4.6l16.9 56.1zm-11.6-20.3l-7.6-25.4-7.6 25.4h15.2z"></path></svg>
