<svg class="logo" fill="none" height="31" viewBox="0 0 200 31" width="200" xmlns="http://www.w3.org/2000/svg"><path d="m0 .369141h200v29.8245h-200z"></path><path d="m32.4333.988281v2.081539h-23.91619v9.00088h19.14319v1.9227h-19.14319v15.3904h-8.51711v-28.395519z" fill="currentColor"></path><path d="m101.739 16.4314 13.795 12.9523h-11.4l-13.1121-12.7409h-5.2177v12.7409h-8.5171v-28.393466h19.8008c7.1861 0 17.2991.894346 17.2991 7.826286 0 5.07118-6.409 7.02798-12.648 7.61488zm-15.9345-1.8704h10.9666c4.4249 0 8.0549-1.2897 8.0549-5.74478 0-4.45505-4.325-5.74474-8.0549-5.74474h-10.9666v11.48922z" fill="currentColor"></path><path d="m149.465.988281h2.285v17.726219c0 4.9161-3.36 11.479-14.562 11.479-12.856 0-17.749-5.2569-17.749-11.4273v-17.777919h8.518v17.568219c0 4.2857 2.394 8.7215 11.037 8.7215 7.824 0 10.471-4.6033 10.471-8.7215z" fill="currentColor"></path><path d="m190.408.990234h9.591v28.394966h-8.517v-25.84304l-11.255 18.59044-4.39 7.2529h-.705l-15.072-25.11894v25.11894h-2.283v-28.395266h9.766l11.38 18.970066z" fill="currentColor"></path><path d="m66.1296 4.69076c-3.6089-2.78696-8.4053-4.321619-13.5065-4.321619s-9.9473 1.546339-13.5824 4.354029c-3.6627 2.82931-5.6794 6.59533-5.6794 10.60483s2.0019 7.7363 5.637 10.5449c3.6086 2.7861 8.405 4.3207 13.5057 4.3207 5.1006 0 9.9481-1.5463 13.5835-4.354 3.6627-2.8293 5.6794-6.5953 5.6794-10.6042s-2.0021-7.73635-5.6373-10.54493zm-1.3951 19.87694c-1.6929 1.3084-4.0653 1.9995-6.8625 1.9995h-.0008c-4.5602-.0009-9.6716-1.8462-13.6738-4.9371-3.9757-3.0705-6.3495-6.976-6.3495-10.4468-.0003-2.10814.8801-3.90236 2.5452-5.18854 1.6926-1.3075 4.0656-1.99862 6.8628-1.99862 4.5601 0 9.6716 1.8462 13.6738 4.93712 3.9762 3.07104 6.3497 6.97754 6.3494 10.44854 0 2.1073-.88 3.9009-2.5446 5.1862z" fill="currentColor"></path></svg>
