<svg class="is-bigger" width="107" height="18" viewBox="0 0 107 18" fill="none" xmlns="http://www.w3.org/2000/svg"><path d="M64.574 0c-4.961 0-9 4.039-9 9s4.039 9 9 9 9-4.039 9-9-4.039-9-9-9zm0 14.4a5.401 5.401 0 01-5.4-5.4c0-2.981 2.419-5.4 5.4-5.4 2.981 0 5.4 2.419 5.4 5.4 0 2.981-2.419 5.4-5.4 5.4zM28.125 0c-4.961 0-9 4.039-9 9s4.039 9 9 9 9-4.039 9-9-4.039-9-9-9zm0 14.4a5.401 5.401 0 01-5.4-5.4c0-2.981 2.419-5.4 5.4-5.4 2.981 0 5.4 2.419 5.4 5.4 0 2.981-2.419 5.4-5.4 5.4zm12.6 3.06h3.6V10.8h7.897V7.2h-7.897V4.14h8.1V.54h-11.7v16.92zm65.699-13.32V.54h-11.7v16.92h11.7v-3.6h-8.1V10.8h7.74V7.2h-7.74V4.14h8.1zm-15.75 2.655C90.65 3.353 87.794.54 84.318.54h-7.144v16.92h3.6v-4.32h2.992l2.61 4.32h4.208l-3.105-5.141a6.1 6.1 0 001.361-1.046 6.24 6.24 0 001.834-4.478zm-4.388 1.946a2.662 2.662 0 01-1.912.799h-3.6v-5.4h3.544c1.507 0 2.745 1.204 2.756 2.678 0 .73-.27 1.406-.788 1.923zm-73.079 2.824h-.54v1.395A5.338 5.338 0 019 14.4a5.334 5.334 0 01-3.814-1.586A5.334 5.334 0 013.6 9c0-1.44.562-2.801 1.586-3.814A5.334 5.334 0 019 3.6c1.44 0 2.801.562 3.814 1.586l2.542-2.542A8.862 8.862 0 009 0a8.943 8.943 0 00-6.367 2.632A8.943 8.943 0 000 9c0 2.408.934 4.669 2.632 6.367A8.942 8.942 0 009 18a8.942 8.942 0 006.367-2.633c.214-.213.417-.45.608-.686-.091-1.102-.551-3.116-2.768-3.116zm-.484-4.522H8.39v3.577h4.827c1.36 0 2.418.607 3.06 1.688V11.07c0-1.159-.293-2.104-.878-2.813-.651-.787-1.607-1.214-2.677-1.214z" fill="currentColor"></path></svg>
