<svg width="101" height="18" viewBox="0 0 101 18" fill="none" xmlns="http://www.w3.org/2000/svg">
<path d="M61.0775 0.901062C56.4157 0.901062 52.6207 4.59062 52.6207 9.12291C52.6207 13.6552 56.4157 17.3448 61.0775 17.3448C65.7393 17.3448 69.5342 13.6552 69.5342 9.12291C69.5342 4.59062 65.7393 0.901062 61.0775 0.901062ZM61.0775 14.056C58.2762 14.056 56.0034 11.8464 56.0034 9.12291C56.0034 6.39942 58.2762 4.1898 61.0775 4.1898C63.8788 4.1898 66.1515 6.39942 66.1515 9.12291C66.1515 11.8464 63.8788 14.056 61.0775 14.056ZM26.8287 0.901062C22.1669 0.901062 18.372 4.59062 18.372 9.12291C18.372 13.6552 22.1669 17.3448 26.8287 17.3448C31.4905 17.3448 35.2855 13.6552 35.2855 9.12291C35.2855 4.59062 31.4905 0.901062 26.8287 0.901062ZM26.8287 14.056C24.0274 14.056 21.7547 11.8464 21.7547 9.12291C21.7547 6.39942 24.0274 4.1898 26.8287 4.1898C29.63 4.1898 31.9028 6.39942 31.9028 9.12291C31.9028 11.8464 29.63 14.056 26.8287 14.056ZM38.6682 16.8514H42.0509V10.7673H49.4717V7.47854H42.0509V4.68311H49.6619V1.39437H38.6682V16.8514ZM100.401 4.68311V1.39437H89.4076V16.8514H100.401V13.5627H92.7903V10.7673H100.063V7.47854H92.7903V4.68311H100.401ZM85.6021 7.10856C85.5809 3.9637 82.8959 1.39437 79.6295 1.39437H72.9169V16.8514H76.2996V12.905H79.1115L81.564 16.8514H85.5175L82.5999 12.1547C83.065 11.8978 83.4984 11.5792 83.879 11.1989C84.9995 10.1095 85.6126 8.65015 85.6021 7.10856ZM81.4794 8.88653C81.0037 9.35929 80.3589 9.61622 79.6823 9.61622H76.2996V4.68311H79.6295C81.046 4.68311 82.2088 5.78278 82.2194 7.12911C82.2194 7.79714 81.9657 8.41377 81.4794 8.88653ZM12.8116 11.4661H12.3042V12.7405C11.3634 13.5935 10.1478 14.056 8.85812 14.056C7.50504 14.056 6.22595 13.5422 5.27457 12.6069C4.31261 11.682 3.78407 10.4384 3.78407 9.12291C3.78407 7.80741 4.31261 6.56386 5.27457 5.6389C6.22595 4.70367 7.50504 4.1898 8.85812 4.1898C10.2112 4.1898 11.4903 4.70367 12.4417 5.6389L14.8307 3.31623C13.2451 1.75408 11.1203 0.901062 8.85812 0.901062C6.59594 0.901062 4.47118 1.75408 2.87497 3.30595C1.27876 4.85783 0.401367 6.92357 0.401367 9.12291C0.401367 11.3223 1.27876 13.388 2.87497 14.9399C4.47118 16.4917 6.59594 17.3448 8.85812 17.3448C11.1203 17.3448 13.2451 16.4917 14.8413 14.9399C15.0421 14.7446 15.2324 14.5288 15.4121 14.313C15.3265 13.3058 14.8941 11.4661 12.8116 11.4661ZM12.356 7.33466H8.28623V10.6028H12.8212C14.1002 10.6028 15.0939 11.1578 15.6965 12.1444V11.0139C15.6965 9.95537 15.4216 9.09208 14.8719 8.44461C14.2599 7.72519 13.3613 7.33466 12.356 7.33466Z" fill="#1C1E26"/>
</svg>
