<svg width="90" height="35" viewBox="0 0 90 35" fill="none" xmlns="http://www.w3.org/2000/svg">
<g clip-path="url(#clip0_491_358)">
<mask id="mask0_491_358" style="mask-type:luminance" maskUnits="userSpaceOnUse" x="0" y="0" width="90" height="35">
<path d="M3.05176e-05 0.23053H89.4513V34.2748H3.05176e-05V0.23053Z" fill="white"/>
</mask>
<g mask="url(#mask0_491_358)">
<path d="M13.1461 15.194C12.8355 15.3557 12.5298 15.4993 12.2197 15.6243C11.5473 15.8967 10.8397 16.0726 10.1179 16.1467C9.72388 16.1933 9.2887 16.2114 8.82059 16.2114C7.87669 16.2114 7.0151 16.0541 6.23693 15.735C5.46975 15.4286 4.77897 14.9582 4.21303 14.3569C3.64394 13.7556 3.20382 13.0249 2.88882 12.1593C2.57382 11.2948 2.42126 10.3092 2.42126 9.20411C2.42126 8.09844 2.57382 7.19615 2.87016 6.34538C3.17144 5.499 3.60223 4.77213 4.16254 4.17572C4.7223 3.5793 5.40333 3.12103 6.19961 2.79761C6.99644 2.47364 7.88547 2.31631 8.87217 2.31631C9.54772 2.31631 10.1311 2.36729 10.6222 2.47364C11.1128 2.57999 11.5387 2.70935 11.9047 2.85736C12.2658 3.0103 12.5715 3.16269 12.8267 3.32495C13.0764 3.48666 13.3036 3.62535 13.5072 3.73608C13.6597 3.82434 13.8035 3.87038 13.933 3.87038C14.1509 3.87038 14.3314 3.75965 14.4703 3.54203L15.142 2.46925C14.7668 2.12752 14.3622 1.81936 13.933 1.54832C13.4893 1.26873 13.0176 1.03632 12.5254 0.854886C11.9893 0.657261 11.436 0.510077 10.8725 0.415251C10.2359 0.310098 9.59149 0.259117 8.94626 0.262859C7.57979 0.262859 6.34833 0.47555 5.24583 0.909703C4.14388 1.34057 3.20382 1.9463 2.43059 2.73293C1.65187 3.51462 1.05534 4.45802 0.638271 5.55437C0.221198 6.65072 0.00881958 7.86711 0.00881958 9.19972C0.00881958 10.5318 0.221746 11.7202 0.6476 12.8166C1.07345 13.9129 1.67108 14.8519 2.43498 15.638C3.19943 16.4241 4.1115 17.0304 5.16736 17.4651C6.22321 17.8998 7.38553 18.1174 8.65431 18.1174C9.3765 18.1174 10.0482 18.0801 10.6683 18.0017C11.2555 17.9298 11.8363 17.8123 12.4052 17.6504C12.9469 17.493 13.4517 17.294 13.9286 17.0583C14.407 16.8198 14.8653 16.543 15.2989 16.2306V9.52698H13.252L13.1505 15.1797L13.1461 15.1934V15.194ZM27.9439 5.77145C27.9439 6.27138 27.8561 6.7291 27.6805 7.14078C27.5044 7.55246 27.2448 7.90822 26.8974 8.20479C26.55 8.5008 26.1242 8.73213 25.61 8.89384C25.1007 9.0561 24.5036 9.13942 23.8319 9.13942H21.4151V2.70497H23.9384C25.2631 2.70497 26.263 2.96425 26.9347 3.47789C27.6059 3.99537 27.939 4.75897 27.939 5.77145M29.9031 7.29372C30.0968 6.75201 30.194 6.18057 30.1901 5.60535C30.1901 4.88341 30.065 4.23163 29.8197 3.64837C29.5723 3.06234 29.1803 2.54844 28.6804 2.1546C28.1711 1.74293 27.5181 1.42827 26.7306 1.20626C25.9436 0.98864 25.0129 0.877361 23.934 0.877361H19.1086V17.9277H21.4058V10.8135H23.1564C23.4708 10.8135 23.7117 10.8552 23.8692 10.9385C24.0267 11.0218 24.1749 11.1605 24.3088 11.3497L28.7408 17.442C28.9394 17.7655 29.25 17.9277 29.6715 17.9277H31.7185L26.7399 11.1556C26.5177 10.8366 26.263 10.5965 25.976 10.4298C26.6335 10.2769 27.2261 10.0549 27.7447 9.76379C28.243 9.48809 28.6896 9.12807 29.0646 8.69979C29.4254 8.28442 29.7063 7.80607 29.8932 7.28879M47.1567 9.4168C47.1567 10.4622 47.013 11.4012 46.726 12.2289C46.4389 13.0567 46.0361 13.76 45.5131 14.3339C44.9858 14.9118 44.3352 15.3638 43.6094 15.6566C42.8642 15.962 42.0306 16.1144 41.1092 16.1144C40.1872 16.1144 39.3679 15.962 38.6177 15.6566C37.8884 15.3656 37.2346 14.9134 36.7052 14.3339C36.1773 13.76 35.7696 13.0567 35.4825 12.2289C35.1955 11.4012 35.0523 10.4622 35.0523 9.4168C35.0523 8.37143 35.1955 7.42803 35.4825 6.59535C35.7696 5.76213 36.1773 5.05937 36.7052 4.48105C37.2378 3.90416 37.8907 3.45112 38.6177 3.15392C39.363 2.84366 40.1922 2.69126 41.1092 2.69126C42.0257 2.69126 42.8642 2.84366 43.6094 3.15392C44.3552 3.46364 44.9896 3.90327 45.5126 4.48105C46.0361 5.05499 46.4433 5.76268 46.726 6.59535C47.013 7.42803 47.1567 8.3665 47.1567 9.4168ZM49.5275 9.4168C49.5275 8.13955 49.3239 6.96537 48.9211 5.90136C48.5133 4.83243 47.9442 3.91205 47.2078 3.13967C46.4713 2.36729 45.5823 1.76595 44.5451 1.33618C43.5079 0.910251 42.3637 0.693175 41.1092 0.693175C39.8541 0.693175 38.7105 0.905866 37.6777 1.33563C36.6449 1.76595 35.7608 2.36729 35.0199 3.13967C34.2835 3.91259 33.7094 4.83298 33.3061 5.90136C32.8989 6.9703 32.6997 8.1401 32.6997 9.4168C32.6997 10.6935 32.9033 11.8638 33.3061 12.9322C33.7138 14.0012 34.2829 14.9166 35.0199 15.6841C35.7608 16.452 36.6449 17.049 37.6777 17.4744C38.7105 17.8998 39.8541 18.113 41.1092 18.113C42.3637 18.113 43.5074 17.8998 44.5446 17.4744C45.5817 17.049 46.4669 16.452 47.2078 15.6846C47.9486 14.9166 48.5183 13.9962 48.9211 12.9322C49.3283 11.8633 49.5275 10.6935 49.5275 9.4168ZM66.1627 9.4168C66.1627 10.4622 66.0189 11.4012 65.7319 12.2289C65.4449 13.0567 65.0421 13.76 64.5185 14.3339C63.9914 14.9118 63.341 15.3639 62.6153 15.6566C61.8701 15.962 61.0365 16.1144 60.1146 16.1144C59.1931 16.1144 58.3738 15.962 57.6236 15.6566C56.8944 15.3656 56.2405 14.9133 55.7111 14.3339C55.1832 13.76 54.7755 13.0567 54.4885 12.2289C54.2014 11.4012 54.0577 10.4622 54.0577 9.4168C54.0577 8.37143 54.2014 7.42803 54.4885 6.59535C54.7755 5.76213 55.1832 5.05937 55.7111 4.48105C56.2437 3.90412 56.8965 3.45107 57.6236 3.15392C58.3689 2.84366 59.1981 2.69126 60.1146 2.69126C61.0316 2.69126 61.8701 2.84366 62.6153 3.15392C63.3611 3.46364 63.9955 3.90327 64.5185 4.48105C65.0421 5.05499 65.4492 5.76268 65.7319 6.59535C66.0189 7.42803 66.1627 8.3665 66.1627 9.4168ZM68.5334 9.4168C68.5334 8.13955 68.3298 6.96537 67.927 5.90136C67.5242 4.83243 66.9496 3.91205 66.2137 3.13967C65.4723 2.36729 64.5882 1.76595 63.551 1.33618C62.5133 0.910251 61.3696 0.693175 60.1146 0.693175C58.86 0.693175 57.7158 0.905866 56.6836 1.33563C55.6508 1.76595 54.7661 2.36729 54.0253 3.13967C53.2894 3.91259 52.7148 4.83298 52.312 5.90136C51.9048 6.9703 51.7056 8.1401 51.7056 9.4168C51.7056 10.6935 51.9092 11.8638 52.312 12.9322C52.7197 14.0012 53.2888 14.9166 54.0253 15.6841C54.7661 16.452 55.6508 17.049 56.6836 17.4744C57.7158 17.8998 58.86 18.113 60.1146 18.113C61.3696 18.113 62.5133 17.8998 63.551 17.4744C64.5882 17.049 65.4723 16.452 66.2137 15.6846C66.9546 14.9166 67.5242 13.9962 67.927 12.9322C68.3342 11.8633 68.5334 10.6935 68.5334 9.4168ZM89.4474 18.2051V0.234902C89.4474 0.234902 89.0677 0.160899 88.8454 0.521596C88.7669 0.64658 87.952 2.09924 87.063 3.68565C87.0256 3.7317 86.9839 3.77829 86.9472 3.84736L85.4468 6.57178L84.6686 7.95975L84.6873 7.9455L81.168 14.329C80.9538 14.7322 80.7711 15.1514 80.6214 15.5826C80.5418 15.3689 80.46 15.1561 80.3761 14.944C80.2948 14.7362 80.1972 14.5351 80.0841 14.3427L74.3702 4.18065C74.3329 4.11103 74.2632 4.00962 74.1941 3.90273C73.2584 2.23793 72.3743 0.660284 72.2909 0.525982C72.0686 0.165284 71.6889 0.239288 71.6889 0.239288V18.21H73.7122V7.98278C73.7122 7.81613 73.7078 7.63578 73.6941 7.4368C73.6837 7.23438 73.6667 7.03237 73.6431 6.83107L79.621 17.5254C79.8202 17.8817 80.0984 18.062 80.4546 18.062H80.7882C81.1449 18.062 81.4226 17.8811 81.6218 17.5248L87.4702 6.86286C87.4564 7.06239 87.4422 7.25645 87.4334 7.44612C87.4241 7.63578 87.4241 7.81613 87.4241 7.98278V18.21H89.4474V18.2051ZM48.8953 23.973C48.8953 23.973 49.0248 23.7745 49.6822 24.1813C50.3309 24.5793 50.3682 24.8802 50.3682 24.8802L47.4503 29.5983C47.4503 29.5983 47.1447 29.8384 46.7605 29.5748C46.4823 29.3851 46.4686 29.4224 46.4686 29.4224L44.6719 31.9988C43.695 33.5485 42.2825 34.2096 42.2825 34.2096C42.2825 34.2096 42.0739 34.3395 41.9214 34.2331C41.7403 34.1125 41.9027 33.9738 41.9027 33.9738C41.9027 33.9738 43.1902 33.2152 44.1439 31.6704L45.7925 29.0014L46.3758 28.0623L48.9046 23.973H48.8953Z" fill="#1C1E26"/>
<path d="M46.4532 28.7004L49.1203 24.4866L46.5926 28.7563L46.4532 28.7004ZM10.3846 27.4884C10.3846 28.3951 9.86107 28.9318 8.8151 28.9318H8.12034V30.7265H7.60175V26.1843H8.91223C9.81498 26.1843 10.3846 26.5724 10.3846 27.4884ZM8.12034 26.647V28.4784H8.81455C9.56473 28.4784 9.84736 28.1501 9.84736 27.5443C9.84736 26.8964 9.48626 26.642 8.79644 26.642H8.12034V26.647ZM13.6658 26.1843L15.1381 30.7265H14.5916L14.1701 29.4037H12.341L11.9195 30.7265H11.3872L12.8596 26.1843H13.6658ZM12.4892 28.946H14.0219L13.5357 27.4144C13.5033 27.285 13.2904 26.6239 13.2723 26.5406H13.2443C13.23 26.619 13.0171 27.2807 12.9847 27.4013L12.4941 28.9416L12.4892 28.946ZM17.7569 26.1843C18.7014 26.1843 19.276 26.5543 19.276 27.461C19.276 28.2054 18.7941 28.6407 18.2525 28.7004V28.7278C18.433 28.8117 18.5949 28.9597 18.8035 29.3111L19.6414 30.7309H19.0263L18.202 29.2787C18.0264 28.9827 17.8272 28.844 17.4941 28.844H17.1374V30.7314H16.6182V26.1887H17.7619L17.7575 26.1843H17.7569ZM17.1368 28.3951H17.7196C18.3496 28.3951 18.7431 28.1501 18.7431 27.5213C18.7431 26.892 18.3727 26.647 17.6872 26.647H17.1363V28.3956L17.1368 28.3951ZM22.0281 26.647H20.8153V26.1892H23.7556V26.647H22.5472V30.7265H22.0286L22.0281 26.647ZM27.9483 29.2141V26.1892H28.4675V29.1494C28.4675 30.2457 27.8331 30.7961 26.814 30.7961C25.7955 30.7961 25.2395 30.2084 25.2395 29.2283V26.1892H25.7581V29.1494C25.7581 29.9678 26.1933 30.329 26.8744 30.329C27.5549 30.329 27.9533 30.0237 27.9533 29.2141H27.9483ZM31.618 26.1843C32.5625 26.1843 33.1371 26.5543 33.1371 27.461C33.1371 28.2054 32.6552 28.6407 32.1136 28.7004V28.7278C32.2941 28.8117 32.456 28.9597 32.6646 29.3111L33.5025 30.7309H32.8868L32.0625 29.2787C31.8869 28.9827 31.6872 28.844 31.3541 28.844H30.9974V30.7314H30.4788V26.1887H31.6224L31.618 26.1843ZM30.9979 28.3951H31.5807C32.2107 28.3951 32.6042 28.1501 32.6042 27.5213C32.6042 26.892 32.2338 26.647 31.5483 26.647H30.9974V28.3956L30.9979 28.3951ZM35.2164 26.1843H35.735V30.7265H35.2164V26.1843ZM38.5003 26.647H37.2875V26.1892H40.2278V26.647H39.0183V30.7265H38.4997L38.5003 26.647ZM56.6797 29.4454C56.6797 30.1854 56.2396 30.7265 55.1563 30.7265H53.7761V26.1843H55.1657C55.8648 26.1843 56.4575 26.4896 56.4575 27.3453C56.4575 27.8957 56.2028 28.2794 55.8417 28.3677V28.3951C56.3137 28.4554 56.6841 28.7887 56.6841 29.4454H56.6797ZM55.0636 26.6376H54.281V28.2104H55.0916C55.67 28.2104 55.9389 27.9653 55.9389 27.3963C55.9389 26.8273 55.6008 26.6376 55.0636 26.6376ZM56.1518 29.4772C56.1518 28.8347 55.698 28.6681 55.1657 28.6681H54.2766V30.2731H55.1931C55.8555 30.2731 56.1518 30.0325 56.1518 29.4772ZM60.5519 26.1843L62.0243 30.7265H61.4783L61.0568 29.4037H59.2277L58.8063 30.7265H58.2739L59.7463 26.1843H60.5519ZM59.3759 28.946H60.9086L60.4224 27.4144C60.39 27.285 60.1771 26.6239 60.1585 26.5406H60.1305C60.1167 26.619 59.9038 27.2807 59.8714 27.4013L59.3803 28.9416L59.3759 28.946ZM64.9992 26.1843C65.9437 26.1843 66.5183 26.5543 66.5183 27.461C66.5183 28.2054 66.0364 28.6407 65.4948 28.7004V28.7278C65.6753 28.8117 65.8372 28.9597 66.0458 29.3111L66.8838 30.7309H66.268L65.4438 29.2787C65.2676 28.9827 65.0689 28.844 64.7353 28.844H64.3786V30.7314H63.86V26.1887H65.0036L64.9992 26.1843ZM64.3786 28.3951H64.9619C65.5919 28.3951 65.9854 28.1501 65.9854 27.5213C65.9854 26.892 65.615 26.647 64.9296 26.647H64.3786V28.3951ZM71.8568 29.4454C71.8568 30.1854 71.4172 30.7265 70.3334 30.7265H68.9532V26.1843H70.3427C71.0419 26.1843 71.6346 26.4896 71.6346 27.3453C71.6346 27.8957 71.3799 28.2794 71.0188 28.3677V28.3951C71.4913 28.4554 71.8617 28.7887 71.8617 29.4454H71.8568ZM70.2407 26.6376H69.4581V28.2104H70.2686C70.8476 28.2104 71.116 27.9653 71.116 27.3963C71.116 26.8273 70.7779 26.6376 70.2407 26.6376ZM71.3289 29.4772C71.3289 28.8347 70.875 28.6681 70.3427 28.6681H69.4537V30.2731H70.3707C71.0325 30.2731 71.3289 30.0325 71.3289 29.4772ZM74.0338 30.7265V26.1843H76.4468V26.642H74.5524V28.1917H76.2196V28.6494H74.5524V30.2638H76.539V30.7221H74.0338V30.7265ZM79.7603 26.1843C80.7053 26.1843 81.2794 26.5543 81.2794 27.461C81.2794 28.2054 80.7981 28.6407 80.2559 28.7004V28.7278C80.4364 28.8117 80.5989 28.9597 80.8069 29.3111L81.6454 30.7309H81.0291L80.2049 29.2787C80.0292 28.9827 79.83 28.844 79.4964 28.844H79.1402V30.7314H78.6216V26.1887H79.7653L79.7603 26.1843ZM79.1402 28.3951H79.7236C80.3536 28.3951 80.7471 28.1501 80.7471 27.5213C80.7471 26.892 80.3766 26.647 79.6912 26.647H79.1402V28.3951ZM85.6559 29.5698C85.6559 28.5387 83.4888 28.775 83.4888 27.341C83.4888 26.6557 84.0765 26.124 84.8964 26.124C85.4106 26.124 85.8134 26.2907 86.0724 26.5077L85.753 26.9106C85.5029 26.7051 85.1878 26.5951 84.864 26.6004C84.3311 26.6004 84.0167 26.8964 84.0167 27.313C84.0167 28.3627 86.1838 28.1407 86.1838 29.5424C86.1838 30.2271 85.6372 30.8005 84.6648 30.8005C83.9794 30.8005 83.5025 30.5554 83.2435 30.3197L83.5486 29.9031C83.8038 30.1114 84.1649 30.329 84.7109 30.329C85.3272 30.329 85.6559 29.9908 85.6559 29.5698Z" fill="#1C1E26"/>
</g>
</g>
<defs>
<clipPath id="clip0_491_358">
<rect width="89.4512" height="34.0443" fill="white" transform="translate(3.05176e-05 0.23053)"/>
</clipPath>
</defs>
</svg>
