<svg width="164" height="63" viewBox="0 0 164 63" fill="none" xmlns="http://www.w3.org/2000/svg"><path d="M24.455 27.745c-.566.295-1.123.557-1.688.785a14 14 0 0 1-3.83.953c-.718.085-1.511.118-2.364.118-1.72 0-3.29-.287-4.708-.869a10.322 10.322 0 0 1-3.688-2.514c-1.037-1.097-1.839-2.43-2.413-4.009-.574-1.577-.852-3.375-.852-5.391 0-2.017.278-3.663.818-5.215.549-1.544 1.334-2.87 2.355-3.958 1.02-1.088 2.261-1.924 3.712-2.514 1.452-.591 3.072-.878 4.87-.878 1.231 0 2.294.093 3.189.287.894.194 1.67.43 2.337.7.658.279 1.215.557 1.68.853.455.295.869.548 1.24.75.278.161.54.245.776.245.397 0 .726-.202.979-.599l1.224-1.957a15.804 15.804 0 0 0-2.203-1.68 13.694 13.694 0 0 0-2.565-1.265 16.724 16.724 0 0 0-3.012-.802 20.775 20.775 0 0 0-3.51-.278c-2.49 0-4.734.388-6.743 1.18-2.008.786-3.721 1.891-5.13 3.326C3.51 6.439 2.423 8.16 1.663 10.16c-.76 2-1.147 4.219-1.147 6.65 0 2.43.388 4.598 1.164 6.598.776 2 1.865 3.713 3.257 5.147 1.393 1.434 3.055 2.54 4.979 3.333 1.924.793 4.042 1.19 6.354 1.19 1.316 0 2.54-.068 3.67-.211a20.77 20.77 0 0 0 3.165-.641c.987-.287 1.907-.65 2.776-1.08a18.04 18.04 0 0 0 2.497-1.51V17.407h-3.73l-.185 10.312-.008.025ZM51.42 10.556c0 .912-.16 1.747-.48 2.498a5.219 5.219 0 0 1-1.427 1.941c-.633.54-1.409.962-2.346 1.257-.928.296-2.016.448-3.24.448h-4.404V4.962h4.598c2.414 0 4.236.473 5.46 1.41 1.223.944 1.83 2.337 1.83 4.184m3.579 2.777a8.977 8.977 0 0 0 .523-3.08c0-1.317-.228-2.506-.675-3.57a6.87 6.87 0 0 0-2.076-2.725c-.928-.751-2.118-1.325-3.553-1.73-1.434-.397-3.13-.6-5.096-.6H35.32v31.104h4.186V19.754h3.19c.573 0 1.012.076 1.299.228.287.152.557.405.801.75l8.076 11.114c.362.59.928.886 1.696.886h3.73l-9.072-12.354c-.405-.582-.869-1.02-1.392-1.324 1.198-.279 2.278-.684 3.223-1.215a8.968 8.968 0 0 0 2.405-1.941 8.148 8.148 0 0 0 1.51-2.574M86.43 17.206c0 1.907-.262 3.62-.785 5.13-.523 1.51-1.257 2.793-2.21 3.84a9.517 9.517 0 0 1-3.469 2.413c-1.358.557-2.877.835-4.556.835-1.68 0-3.173-.278-4.54-.835a9.48 9.48 0 0 1-3.485-2.413c-.962-1.047-1.705-2.33-2.228-3.84-.523-1.51-.784-3.223-.784-5.13s.261-3.628.784-5.147c.523-1.52 1.266-2.802 2.228-3.857a9.778 9.778 0 0 1 3.485-2.421c1.358-.566 2.869-.844 4.54-.844 1.67 0 3.198.278 4.556.844 1.359.565 2.515 1.367 3.468 2.421.954 1.047 1.696 2.338 2.211 3.857.523 1.519.785 3.231.785 5.147Zm4.32 0c0-2.33-.371-4.472-1.105-6.413-.743-1.95-1.78-3.629-3.122-5.038-1.342-1.409-2.962-2.506-4.852-3.29-1.89-.777-3.975-1.173-6.261-1.173-2.287 0-4.371.388-6.253 1.172-1.882.785-3.493 1.882-4.843 3.291-1.342 1.41-2.388 3.089-3.123 5.038-.742 1.95-1.105 4.084-1.105 6.413 0 2.329.371 4.464 1.105 6.413.743 1.95 1.78 3.62 3.123 5.02 1.35 1.401 2.961 2.49 4.843 3.266 1.882.776 3.966 1.165 6.253 1.165 2.286 0 4.37-.389 6.26-1.165 1.89-.776 3.503-1.865 4.853-3.265 1.35-1.401 2.388-3.08 3.122-5.021.742-1.95 1.105-4.084 1.105-6.413ZM121.063 17.206c0 1.907-.262 3.62-.785 5.13-.523 1.51-1.257 2.793-2.211 3.84a9.51 9.51 0 0 1-3.468 2.413c-1.358.557-2.877.835-4.557.835-1.679 0-3.172-.278-4.539-.835a9.481 9.481 0 0 1-3.485-2.413c-.962-1.047-1.705-2.33-2.228-3.84-.523-1.51-.785-3.223-.785-5.13s.262-3.628.785-5.147c.523-1.52 1.266-2.802 2.228-3.857a9.775 9.775 0 0 1 3.485-2.421c1.358-.566 2.869-.844 4.539-.844 1.671 0 3.199.278 4.557.844 1.359.565 2.515 1.367 3.468 2.421.954 1.047 1.696 2.338 2.211 3.857.523 1.519.785 3.231.785 5.147Zm4.32 0c0-2.33-.371-4.472-1.105-6.413-.734-1.95-1.781-3.629-3.122-5.038-1.351-1.409-2.962-2.506-4.852-3.29-1.891-.777-3.975-1.173-6.262-1.173-2.286 0-4.371.388-6.252 1.172-1.882.785-3.494 1.882-4.844 3.291-1.341 1.41-2.388 3.089-3.122 5.038-.742 1.95-1.105 4.084-1.105 6.413 0 2.329.371 4.464 1.105 6.413.743 1.95 1.78 3.62 3.122 5.02 1.35 1.401 2.962 2.49 4.844 3.266 1.881.776 3.966 1.165 6.252 1.165 2.287 0 4.371-.389 6.262-1.165 1.89-.776 3.501-1.865 4.852-3.265 1.35-1.401 2.388-3.08 3.122-5.021.742-1.95 1.105-4.084 1.105-6.413ZM163.493 33.238V.456s-.692-.135-1.097.523c-.143.228-1.628 2.878-3.248 5.772-.068.084-.144.169-.211.295l-2.734 4.97-1.418 2.532.034-.026-6.413 11.645a16.214 16.214 0 0 0-.996 2.287 61.717 61.717 0 0 0-.447-1.165 7.717 7.717 0 0 0-.532-1.097L136.019 7.654c-.068-.127-.195-.312-.321-.507-1.705-3.037-3.316-5.915-3.468-6.16-.405-.658-1.097-.523-1.097-.523v32.783h3.687V14.59c0-.304-.008-.633-.033-.996a16.954 16.954 0 0 0-.093-1.105l10.893 19.509c.363.65.87.979 1.519.979h.608c.65 0 1.156-.33 1.519-.98l10.657-19.45c-.025.364-.051.718-.067 1.064-.017.346-.017.675-.017.979v18.657h3.687v-.009ZM89.598 43.76s.236-.362 1.434.38c1.182.726 1.25 1.275 1.25 1.275l-5.317 8.607s-.557.438-1.257-.043c-.507-.346-.532-.278-.532-.278l-3.274 4.7c-1.78 2.827-4.354 4.033-4.354 4.033s-.38.237-.658.043c-.33-.22-.034-.473-.034-.473s2.346-1.384 4.084-4.202l3.004-4.869 1.063-1.713 4.608-7.46h-.017Z" fill="currentColor"/><path d="m85.148 52.384 4.86-7.687-4.606 7.789-.254-.102ZM19.423 50.173c0 1.654-.954 2.633-2.86 2.633h-1.266v3.274h-.945v-8.286h2.388c1.645 0 2.683.709 2.683 2.38Zm-4.126-1.535v3.341h1.265c1.367 0 1.882-.599 1.882-1.704 0-1.182-.658-1.646-1.915-1.646h-1.232v.009ZM25.402 47.794l2.683 8.286h-.996l-.768-2.413h-3.333l-.768 2.413h-.97l2.683-8.286h1.469Zm-2.144 5.038h2.793l-.886-2.794c-.059-.236-.447-1.442-.48-1.594h-.051c-.026.143-.414 1.35-.473 1.57l-.894 2.81-.009.008ZM32.857 47.794c1.721 0 2.768.675 2.768 2.329 0 1.358-.878 2.152-1.865 2.261v.05c.329.153.624.423 1.004 1.064l1.527 2.59H35.17l-1.502-2.649c-.32-.54-.683-.793-1.29-.793h-.65v3.443h-.946v-8.287h2.084l-.008-.008Zm-1.13 4.033h1.062c1.148 0 1.865-.447 1.865-1.594 0-1.148-.675-1.595-1.924-1.595h-1.004v3.19ZM40.64 48.638h-2.21v-.835h5.358v.835h-2.202v7.442h-.945v-7.442ZM51.428 53.321v-5.518h.946v5.4c0 2-1.156 3.004-3.013 3.004-1.856 0-2.869-1.072-2.869-2.86v-5.544h.945v5.4c0 1.493.793 2.152 2.034 2.152 1.24 0 1.966-.557 1.966-2.034h-.008ZM58.115 47.794c1.721 0 2.768.675 2.768 2.329 0 1.358-.878 2.152-1.865 2.261v.05c.329.153.624.423 1.004 1.064l1.527 2.59h-1.122l-1.502-2.649c-.32-.54-.684-.793-1.291-.793h-.65v3.443h-.945v-8.287h2.084l-.008-.008Zm-1.13 4.033h1.062c1.148 0 1.865-.447 1.865-1.594 0-1.148-.675-1.595-1.924-1.595h-1.004v3.19ZM64.672 47.794h.945v8.286h-.945v-8.286ZM70.656 48.638h-2.21v-.835h5.358v.835H71.6v7.442h-.945v-7.442ZM103.783 53.743c0 1.35-.802 2.337-2.776 2.337h-2.515v-8.286h2.532c1.274 0 2.354.557 2.354 2.118 0 1.004-.464 1.704-1.122 1.865v.05c.86.11 1.535.718 1.535 1.916h-.008Zm-2.945-5.122h-1.426v2.869h1.477c1.054 0 1.544-.447 1.544-1.485s-.616-1.384-1.595-1.384Zm1.983 5.18c0-1.172-.827-1.476-1.797-1.476h-1.62v2.928h1.67c1.207 0 1.747-.438 1.747-1.451ZM110.839 47.794l2.683 8.286h-.995l-.768-2.413h-3.333l-.768 2.413h-.97l2.683-8.286h1.468Zm-2.143 5.038h2.793l-.886-2.794c-.059-.236-.447-1.442-.481-1.594h-.051c-.025.143-.413 1.35-.472 1.57l-.895 2.81-.008.008ZM118.943 47.794c1.721 0 2.768.675 2.768 2.329 0 1.358-.878 2.152-1.865 2.261v.05c.329.153.624.423 1.004 1.064l1.527 2.59h-1.122l-1.502-2.649c-.321-.54-.683-.793-1.291-.793h-.65v3.443h-.945v-8.287h2.084l-.008-.008Zm-1.131 4.033h1.063c1.148 0 1.865-.447 1.865-1.594 0-1.148-.675-1.595-1.924-1.595h-1.004v3.19ZM131.439 53.743c0 1.35-.801 2.337-2.776 2.337h-2.515v-8.286h2.532c1.274 0 2.354.557 2.354 2.118 0 1.004-.464 1.704-1.122 1.865v.05c.861.11 1.536.718 1.536 1.916h-.009Zm-2.945-5.122h-1.426v2.869h1.477c1.055 0 1.544-.447 1.544-1.485s-.616-1.384-1.595-1.384Zm1.983 5.18c0-1.172-.827-1.476-1.797-1.476h-1.62v2.928h1.671c1.206 0 1.746-.438 1.746-1.451ZM135.406 56.08v-8.286h4.397v.835h-3.452v2.827h3.038v.835h-3.038v2.945h3.62v.836h-4.565v.008ZM145.841 47.794c1.722 0 2.768.675 2.768 2.329 0 1.358-.877 2.152-1.865 2.261v.05c.329.153.625.423 1.004 1.064l1.528 2.59h-1.123l-1.502-2.649c-.32-.54-.683-.793-1.291-.793h-.649v3.443h-.945v-8.287h2.084l-.009-.008Zm-1.13 4.033h1.063c1.148 0 1.865-.447 1.865-1.594 0-1.148-.675-1.595-1.924-1.595h-1.004v3.19ZM156.584 53.97c0-1.881-3.949-1.45-3.949-4.066 0-1.25 1.071-2.22 2.565-2.22.937 0 1.671.304 2.143.7l-.582.735a2.486 2.486 0 0 0-1.62-.566c-.971 0-1.544.54-1.544 1.3 0 1.915 3.949 1.51 3.949 4.067 0 1.249-.996 2.295-2.768 2.295-1.249 0-2.118-.447-2.59-.877l.556-.76c.465.38 1.123.777 2.118.777 1.123 0 1.722-.616 1.722-1.384Z" fill="currentColor"/></svg>