<svg xmlns="http://www.w3.org/2000/svg" width="755" height="286" viewBox="0 0 755 286"><path d="M0 36h46c-.66 28.58 1.33 57.87-1 86h15c-2.33-28.17-.34-57.42-1-86h46c-.05 12.66.06 25.35 0 38-.06 12.65.12 25.36 0 38s.25 26.5 0 39 .56 25.88 0 38c-.56 12.12 1.21 27.71 0 39s5.74 30.09-7 31c-12.75.91-26.19-.68-39 0 2.33-35.83.34-72.75 1-109H45c1.66 35.33 1.67 73.07 0 108-4.19 4.19-15.8-.18-22 1-6.2 1.18-16.88-.08-23-1v28h755V0H0v36M728 1c15.67-4.11 29.17 9.22 25.8 24.25-3.37 15.03-22.71 18.49-33.05 9C710.4 24.77 713.59 4.78 728 1M207 37c7.12 73.81 16.78 146.87 26 222-11.93.45-25.21-.61-37 0s-6.8-13.14-8.79-21.23c-1.99-8.09.63-17.8-1.21-26.77h-19c-.79 16.51-2.17 31.37-3 48-14.58-.65-29.86 1.31-44-1 10.06-74.3 18.16-147.21 26-222 20.25.66 41.2-1.32 61 1m88-1v193h27v30h-72a4963.6 4963.6 0 0 0 0-223h45m88 0c-2.33 63.83-.33 128.75-1 193h28c-3.43 7.28 6.34 28.19-4.01 29.99-10.35 1.8-23.05-.9-33.99.01-10.94.91-23.88-.68-35 0V36h46m111 0c-2.28 9.17-.37 19.41-1 29-9.68-.3-23.46-2.89-22 9 1.46 11.89-.67 19.97 0 31 .67 11.03-.32 20.36 0 31s-.19 20.55 0 31-.18 20.67 0 31c.18 10.33-.28 20.79 0 31s-1.02 20.31 1 30h-45c2.02-9.72.72-19.79 1-30s-.18-20.66 0-31-.19-20.53 0-31c.19-10.47-.33-20.32 0-31s-.69-19.87 0-31c.69-11.13-1.52-18.88 0-31 1.52-12.12-13.25-9.18-23-9V36h89m86 0v30c-8.84-2.28-18.75-.37-28-1v57h28v30c-8.84-2.28-18.75-.37-28-1v78h28v30h-72V36h72m61 0c4.07 26.84 6.26 54.16 12 80 4.93-27.06 6.52-52.53 10-80h40c-2.49 18.25-7.26 36.93-9.2 55.25-1.94 18.32-10.9 37.12-8.4 55.5 2.49 18.38 7.57 36.94 10.4 55.5 2.83 18.56 5.85 37.5 10.2 56.75h-45c-2.75-33.38-8.95-66.13-11-100-4.74 5.66-3.19 16.43-4.8 24.25-1.61 7.81-1.42 17.01-2.4 25-.98 7.99-2.67 15.89-3.4 24.5-.74 8.61-2.1 16.89-2.4 26.25-13.42-1.66-28.61-1.66-42 0 3.82-19.76 6.7-36.93 9.2-56.25 2.5-19.31 8.83-37.43 10.44-56.45 1.62-19.02-5.96-37.15-8.04-55.05-2.08-17.89-7.18-37.01-10.6-55.25h45Z" fill="none" fill-opacity="0" stroke="#000" stroke-opacity=".01" stroke-width=".3"/><path d="M728 1c-14.41 3.78-17.6 23.77-7.25 33.25 10.34 9.49 29.68 6.03 33.05-9C757.17 10.22 743.67-3.11 728 1m4 2c21.43-2.24 25.63 32.51 3.75 34.76C713.87 40 711.17 5.18 732 3Z" fill="none" fill-opacity="0" stroke="#000" stroke-opacity=".82" stroke-width=".3"/><path d="M732 3c-20.83 2.18-18.13 37 3.75 34.76C757.63 35.51 753.43.76 732 3m9 9c-.61 3.69.69 8.49-5 9 2 4.56 6.5 6.28 8 10-7.91.85-6.12-9.76-14-9 1.82 2.58.67 6.02 1 9-8.33-1.02-2.05-15.39-4-22 6.38-.47 10 .53 14 3Z" fill="none" fill-opacity="0" stroke="#000" stroke-opacity=".06" stroke-width=".3"/><path d="M741 12c-4-2.47-7.62-3.47-14-3 1.95 6.61-4.33 20.98 4 22-.33-2.98.82-6.42-1-9 7.88-.76 6.09 9.85 14 9-1.5-3.72-6-5.44-8-10 5.69-.51 4.39-5.31 5-9m-3 1c-.74 1.94-.68 3.98 0 6-2.7.19-4.65 2.47-8 2v-9c3.09-.01 5.48.2 8 1Z" fill="none" fill-opacity="0" stroke="#000" stroke-opacity=".8" stroke-width=".3"/><path d="M738 13c-2.52-.8-4.91-1.01-8-1v9c3.35.47 5.3-1.81 8-2-.68-2.02-.74-4.06 0-6Z" fill="none" fill-opacity="0" stroke="#000" stroke-opacity=".16" stroke-width=".3"/><path d="M0 37c2.33 72.76.33 147.48 1 221h44c1.67-34.93 1.66-72.67 0-108h15c-.66 36.25 1.33 73.17-1 109 12.81-.68 26.25.91 39 0 12.74-.91 5.79-19.71 7-31s-.56-26.88 0-39c.56-12.12-.25-25.5 0-38s-.12-26.36 0-39-.06-25.35 0-38c.06-12.65-.05-25.34 0-38H59c.66 28.58-1.33 57.83 1 86H45c2.33-28.13.34-57.42 1-86H0v1ZM207 37c-19.8-2.32-40.75-.34-61-1-7.84 74.79-15.94 147.7-26 222 14.14 2.31 29.42.35 44 1 .83-16.63 2.21-31.49 3-48h19c1.84 8.97-.78 18.68 1.21 26.77s-3 21.84 8.79 21.23c11.79-.61 25.07.45 37 0-9.22-75.13-18.88-148.19-26-222m-31 43c2.95 15.53 3.39 33.33 4.79 50.23 1.39 16.9 1.41 34.3 3.21 51.77-4.81-1.63-11.21-1.61-16 0 4.19-34.18 4.81-68.09 8-102Z" fill="none" fill-opacity="0" stroke="#000" stroke-opacity=".98" stroke-width=".3"/><path d="M295 36h-45a4963.6 4963.6 0 0 1 0 223h72v-30h-27V36Z" fill="none" fill-opacity="0" stroke="#000" stroke-opacity=".99" stroke-width=".3"/><path d="M383 36h-46v223c11.12-.68 24.06.91 35 0 10.94-.91 23.64 1.79 33.99-.01 10.35-1.8.58-22.71 4.01-29.99h-28c.67-64.25-1.33-129.17 1-193Z" fill="none" fill-opacity="0" stroke="#000" stroke-opacity=".98" stroke-width=".3"/><path d="M494 36h-89v29c9.75-.18 24.52-3.12 23 9-1.52 12.12.69 19.87 0 31-.69 11.13.33 20.32 0 31s.19 20.53 0 31c-.19 10.47.18 20.66 0 31s.28 20.79 0 31 1.02 20.28-1 30h45c-2.02-9.69-.72-19.79-1-30s.18-20.67 0-31c-.18-10.33.19-20.55 0-31s.32-20.36 0-31 .67-19.97 0-31c-.67-11.03 1.46-19.11 0-31s12.32-9.3 22-9c.63-9.59-1.28-19.83 1-29ZM580 36h-72v223h72v-30h-28v-78c9.25.63 19.16-1.28 28 1v-30h-28V65c9.25.63 19.16-1.28 28 1V36Z" fill="none" fill-opacity="0" stroke="#000" stroke-opacity=".99" stroke-width=".3"/><path d="M641 36h-45c3.42 18.24 8.52 37.36 10.6 55.25 2.08 17.9 9.66 36.03 8.04 55.05-1.61 19.02-7.94 37.14-10.44 56.45-2.5 19.32-5.38 36.49-9.2 56.25 13.39-1.66 28.58-1.66 42 0 .3-9.36 1.66-17.64 2.4-26.25.73-8.61 2.42-16.51 3.4-24.5.98-7.99.79-17.19 2.4-25 1.61-7.82.06-18.59 4.8-24.25 2.05 33.87 8.25 66.62 11 100h45c-4.35-19.25-7.37-38.19-10.2-56.75-2.83-18.56-7.91-37.12-10.4-55.5-2.5-18.38 6.46-37.18 8.4-55.5 1.94-18.32 6.71-37 9.2-55.25h-40c-3.48 27.47-5.07 52.94-10 80-5.74-25.84-7.93-53.16-12-80Z" fill="none" fill-opacity="0" stroke="#000" stroke-opacity=".98" stroke-width=".3"/><path d="M0 258c6.12.92 16.8 2.18 23 1 6.2-1.18 17.81 3.19 22-1H1C.33 184.48 2.33 109.76 0 37v221Z" fill="none" fill-opacity="0" stroke="#000" stroke-opacity=".25" stroke-width=".3"/><path d="M176 80c-3.19 33.91-3.81 67.82-8 102 4.79-1.61 11.19-1.63 16 0-1.8-17.47-1.82-34.87-3.21-51.77-1.4-16.9-1.84-34.7-4.79-50.23Z" fill="none" fill-opacity="0" stroke="#000" stroke-opacity=".07" stroke-width=".3"/><path d="M728 1c-14.41 3.78-17.6 23.77-7.25 33.25 10.34 9.49 29.68 6.03 33.05-9C757.17 10.22 743.67-3.11 728 1m4 2c21.43-2.24 25.63 32.51 3.75 34.76C713.87 40 711.17 5.18 732 3Z" fill-opacity=".82" stroke="None"/><path d="M732 3c-20.83 2.18-18.13 37 3.75 34.76C757.63 35.51 753.43.76 732 3m9 9c-.61 3.69.69 8.49-5 9 2 4.56 6.5 6.28 8 10-7.91.85-6.12-9.76-14-9 1.82 2.58.67 6.02 1 9-8.33-1.02-2.05-15.39-4-22 6.38-.47 10 .53 14 3Z" fill-opacity=".06" stroke="None"/><path d="M741 12c-4-2.47-7.62-3.47-14-3 1.95 6.61-4.33 20.98 4 22-.33-2.98.82-6.42-1-9 7.88-.76 6.09 9.85 14 9-1.5-3.72-6-5.44-8-10 5.69-.51 4.39-5.31 5-9m-3 1c-.74 1.94-.68 3.98 0 6-2.7.19-4.65 2.47-8 2v-9c3.09-.01 5.48.2 8 1Z" fill-opacity=".8" stroke="None"/><path d="M0 37c2.33 72.76.33 147.48 1 221h44c1.67-34.93 1.66-72.67 0-108h15c-.66 36.25 1.33 73.17-1 109 12.81-.68 26.25.91 39 0 12.74-.91 5.79-19.71 7-31s-.56-26.88 0-39c.56-12.12-.25-25.5 0-38s-.12-26.36 0-39-.06-25.35 0-38c.06-12.65-.05-25.34 0-38H59c.66 28.58-1.33 57.83 1 86H45c2.33-28.13.34-57.42 1-86H0v1ZM207 37c-19.8-2.32-40.75-.34-61-1-7.84 74.79-15.94 147.7-26 222 14.14 2.31 29.42.35 44 1 .83-16.63 2.21-31.49 3-48h19c1.84 8.97-.78 18.68 1.21 26.77s-3 21.84 8.79 21.23c11.79-.61 25.07.45 37 0-9.22-75.13-18.88-148.19-26-222m-31 43c2.95 15.53 3.39 33.33 4.79 50.23 1.39 16.9 1.41 34.3 3.21 51.77-4.81-1.63-11.21-1.61-16 0 4.19-34.18 4.81-68.09 8-102Z" fill-opacity=".98" stroke="None"/><path d="M295 36h-45a4963.6 4963.6 0 0 1 0 223h72v-30h-27V36Z" fill-opacity=".99" stroke="None"/><path d="M383 36h-46v223c11.12-.68 24.06.91 35 0 10.94-.91 23.64 1.79 33.99-.01 10.35-1.8.58-22.71 4.01-29.99h-28c.67-64.25-1.33-129.17 1-193Z" fill-opacity=".98" stroke="None"/><path d="M494 36h-89v29c9.75-.18 24.52-3.12 23 9-1.52 12.12.69 19.87 0 31-.69 11.13.33 20.32 0 31s.19 20.53 0 31c-.19 10.47.18 20.66 0 31s.28 20.79 0 31 1.02 20.28-1 30h45c-2.02-9.69-.72-19.79-1-30s.18-20.67 0-31c-.18-10.33.19-20.55 0-31s.32-20.36 0-31 .67-19.97 0-31c-.67-11.03 1.46-19.11 0-31s12.32-9.3 22-9c.63-9.59-1.28-19.83 1-29ZM580 36h-72v223h72v-30h-28v-78c9.25.63 19.16-1.28 28 1v-30h-28V65c9.25.63 19.16-1.28 28 1V36Z" fill-opacity=".99" stroke="None"/><path d="M641 36h-45c3.42 18.24 8.52 37.36 10.6 55.25 2.08 17.9 9.66 36.03 8.04 55.05-1.61 19.02-7.94 37.14-10.44 56.45-2.5 19.32-5.38 36.49-9.2 56.25 13.39-1.66 28.58-1.66 42 0 .3-9.36 1.66-17.64 2.4-26.25.73-8.61 2.42-16.51 3.4-24.5.98-7.99.79-17.19 2.4-25 1.61-7.82.06-18.59 4.8-24.25 2.05 33.87 8.25 66.62 11 100h45c-4.35-19.25-7.37-38.19-10.2-56.75-2.83-18.56-7.91-37.12-10.4-55.5-2.5-18.38 6.46-37.18 8.4-55.5 1.94-18.32 6.71-37 9.2-55.25h-40c-3.48 27.47-5.07 52.94-10 80-5.74-25.84-7.93-53.16-12-80Z" fill-opacity=".98" stroke="None"/><path d="M0 258c6.12.92 16.8 2.18 23 1 6.2-1.18 17.81 3.19 22-1H1C.33 184.48 2.33 109.76 0 37v221Z" fill-opacity=".25" stroke="None"/><path d="M176 80c-3.19 33.91-3.81 67.82-8 102 4.79-1.61 11.19-1.63 16 0-1.8-17.47-1.82-34.87-3.21-51.77-1.4-16.9-1.84-34.7-4.79-50.23Z" fill-opacity=".07" stroke="None"/></svg>