<svg width="180" height="56" xmlns="http://www.w3.org/2000/svg" viewBox="0 0 881.5 239"><path fill="currentColor" d="M390.7 239h-1.3c-5.3-5.5-10.5-10.9-15.7-16.3l-.1.1c-1.4-1.4-2.8-2.9-4.3-4.4-.9 6.4 0 13.2-.3 19.8h-4.2v-29.8h.6c.8.8 1.5 1.5 2.4 2.3 0 0 .1.3.1.5.1 0 .1-.1.2-.1l2 2-.1.1c.2.1.5.1.6.1 4.8 5.3 10.3 10 14.8 15.7 1.3-6.3.1-13.2.5-19.7h4.9c-.1 10-.1 19.8-.1 29.7zM306.8 209.2h11.8c.2.3.4.5.6.8 2-.2 3 1.5 4.5 2.5.1.4.2.9.3 1.4.2.1.5.2.8.4v7.5c-.3.2-.5.3-.8.5-.1.5-.2.9-.2 1.3-.4.4-.8.8-1.2 1.1 0 .1.1.1.1.2-.3.1-.5.1-.8.2-.4.5-.8 1-1.1 1.4.5.8.9 1.6 1.2 2.3-.1 0-.1.1-.2.1.3.1.5.3.8.4l.3 1.5.6.3c.5.9.9 1.8 1.5 2.8.1 0 .3.1.6.3.1.5.1 1 .2 1.5 1 .4 1.2 1.3 1.8 2.1-1.9.7-3.7.5-5.6.2l-.6-1.8c-.2-.1-.4-.2-.7-.3-.1-.5-.2-1-.2-1.5-.2-.1-.5-.2-.8-.3-.1-.3-.1-.6-.2-.9-.3-.1-.5-.3-.7-.4-.1-.5-.2-1-.4-1.5-.2-.1-.4-.2-.7-.4-.2-1.6-1.5-2.5-2.4-3.7h-4.5V238h-4.2c.2-9.5.2-19.1.2-28.8zm11.9 12.7c.6-.6 1.2-1.3 2-2.2v-3c-.1 0-.1.1-.2.1-.8-1.1-1.7-2.6-3.4-2.6-.2-.3-.4-.5-.5-.7H311v9.6c3-.1 5.4.3 7.7-1.2zM144 227.4v10.8h-4.1v-28.9h11.8c.1.2.3.4.3.4 2 .7 3.3 1.4 4.8 2.8.1.4.2.9.3 1.5.2.1.5.2.8.4v7.6c-.3.2-.6.3-.8.4 0 1.2-.8 1.8-1.4 2.6v-.1c-.6.5-1.1.9-1.8 1.5.5.8.9 1.6 1.4 2.4l-.1.1c.3.1.5.3.8.4.1.5.1 1 .2 1.5.2.1.5.2.5.2.4.6.8 1.1 1.1 1.5l.1-.1c.1.4.2.9.2 1.3.2.1.5.2.7.3-.1 0-.1.1-.2.1.6 1.1 1.3 2.2 2 3.3-.4.7-3.3.9-5.4.2-.2-.5-.3-1-.5-1.6-.2-.1-.5-.2-.7-.4 0-1.5-1.1-2.2-1.8-3.2 0 0-.1 0-.1.1-.1-.5-.1-.9-.2-1.5-.2-.1-.5-.2-.6-.2-.8-1.5-1.3-2.8-2.6-3.8-1.6.4-3.1.4-4.7.4zm9.7-7.6V217c-.8-1.1-1.2-1.7-2.2-2.6-.4-.1-.9-.2-1.3-.2-.2-.3-.4-.5-.5-.7h-5.6v9.7h5.5c0-.1 0-.1-.1-.2 1.8-.7 2.9-1.6 4.2-3.2zM697.5 237.3c-.3 0-.6-.1-.9-.1-.2-.2-.3-.5-.5-.8-1.3-.2-1.5-.8-2.5-1.6-.8-2.2-2.6-3.4-2.2-6.2-.3-.2-.5-.4-.8-.6v-6.6c.3-.2.5-.4.8-.6.1-1 .1-2.1.2-3.2.3-.2.5-.3.8-.5.1-.5.2-1 .2-1.4.7-.8 1.3-1.5 2.1-2.2l1.2-.9c0-.1-.1-.1-.1-.2.5-.1 1-.2 1.6-.4.1-.2.3-.4.5-.7 3.2.2 6.8-.8 9.7 1.1.1.1.2.4.3.7.5.1.9.2 1.2.3.9.9 1.5 1.7 2.1 3.1h.1c.4.7.7 1.4 1.1 2.1.1 0 .1-.1.2-.1.1.8.1 1.6.2 2.4.2.2.5.4.8.7-.2 2.2.7 4.9-.8 6.8-.1.8-.1 1.7-.2 2.5-.1 0-.1-.1-.2-.1-.3.7-.7 1.4-1 2.1-.8 1.5-1.3 3.2-3.4 3.4-.1.2-.2.5-.4.7-.3 0-.6.1-.9.1-.2.2-.3.5-.5.9H698c-.2-.2-.3-.5-.5-.7zm-.9-7.8c.1.6.2 1 .2 1.3l2.2 2.2c.4.1.9.1 1.3.2.2.2.4.5.6.7h2.5c.2-.3.4-.5.5-.8.5-.1 1-.1 1.4-.2 1.4-1.3 2.4-2.5 3-4.2.1 0 .2 0 .3.1v-8.3c-.3-.2-.5-.4-.7-.6-.1-.5-.2-1-.2-1.3-1.4-1.5-2.6-2.4-4.3-3 0-.1 0-.1.1-.2h-2.4c0 .1 0 .1.1.2-1.7.6-2.9 1.5-4.2 3-.1.4-.1.9-.2 1.3-.3.2-.5.3-.8.5v8.6c0 .2.3.4.6.5zM589.6 228.6c-.3-.2-.5-.3-.8-.5v-6.6c.2-.2.5-.4.8-.7.1-1 .1-2.1.2-3.2.3-.2.6-.3.8-.4.1-.5.2-1.1.2-1.4.8-.8 1.4-1.5 2.2-2.4.1 0 .3-.1.6-.1.1-.3.2-.5.3-.8.5-.1 1-.2 1.6-.4.1-.2.3-.4.5-.7h8.2c0 .1 0 .2-.1.2.5.3 1 .6 1.6.9 0 .1.1.3.3.6.5.1 1 .2 1.2.3 1.1 1 1.6 1.8 2.2 3.1h.1c.3.7.7 1.3 1 2 .1 0 .1-.1.2-.1.1.8.1 1.7.2 2.5 1.2 1.1 1.2 6.3 0 7.6-.1.8-.1 1.6-.2 2.5-.2.2-.5.3-.7.5l-.3 1.5s-.1 0-.1-.1c-.7 1.3-1.1 2.2-2.3 3.3-.3.2-1.3-.1-1.4.9-.3.1-.6.1-1 .2-.1.2-.3.5-.6.9h-8.1c-.2-.4-.3-.6-.5-.9-.3 0-.6-.1-.9-.1 0-.1.1-.1.1-.2-1.2-.6-2-1.1-3-2.2 0-.2-.1-.6-.3-1.2-.2-.1-.4-.3-.7-.5 0 0 .1 0 .1-.1-.3-.4-.6-.9-.9-1.3-.1 0-.1.1-.2.1-.2-1-.3-2.1-.3-3.2zm5.2 2.2 2.2 2.2s0-.1.1-.1c.7.3 1.4.6 2 .9 0 .1 0 .1-.1.2h2.4c.2-.3.4-.5.5-.8.5-.1 1-.1 1.4-.2 1.4-1.3 2.5-2.4 3-4.2.1 0 .2 0 .3.1v-8.4c-.3-.2-.5-.4-.7-.5-.1-.6-.2-1.1-.2-1.4-1.4-1.5-2.6-2.4-4.3-3 0-.1 0-.1.1-.2h-2.4c0 .1 0 .1.1.2-1.7.6-2.9 1.5-4.2 3-.1.3-.1.8-.2 1.3-.3.2-.5.4-.8.6v8.5c.3.2.6.4.8.5-.1.6-.1 1 0 1.3zM480.7 231.1c-.3.2-.5.3-.8.4-.1.5-.1 1-.2 1.6-.2.1-.5.3-.7.4-.2.5-.3 1-.5 1.4l-.5-.5c-.4.4-.8.7-1.2 1.1.2.2.3.4.5.5-.5.1-.9.2-1.4.3-.1.2-.2.5-.3.7-.3 0-.6.1-.9.1-.2.2-.3.5-.6.9h-7.6c-.7-.5-1.2-.8-1.7-1.2l-.1.1c-.1-.2-.3-.5-.4-.7-.5-.1-1-.2-1.4-.4l.5-.5-1-1c-.1.1-.2.3-.4.4-1.1-2.2-2.8-3.8-2.5-6.3-.2-.2-.5-.4-.8-.7v-6.6c.2-.1.4-.3.8-.5.1-1 .1-2.1.2-3.2.2-.2.5-.3.8-.5.1-.5.3-1.1.4-1.5 1.7-1.6 2.9-3.4 5.2-4 0-.1 0-.2-.1-.3 3.2.1 6.6-1 9.7 1.1.1.2.2.5.3.7.5.1 1 .2 1.2.2.8.9 1.5 1.2 1.8 2.6.2.1.5.3.7.4.1.5.1.9.2 1.4.2.2.5.4.8.6.1.9.1 1.7.2 2.5.3.2.5.4.8.6v6.3c-.3.2-.5.5-.8.7-.1 1.1-.1 1.9-.2 2.9zM464.6 220c-.3.2-.5.3-.8.5v8.6c.3.2.6.3.8.5.1 2.5 2.8 3.6 4.6 4.3 0 .1 0 .1-.1.2h2.3c.2-.3.4-.5.5-.7.6-.1 1.1-.2 1.5-.2.8-.8 1.5-1.5 2.2-2.3 0-.3.1-.8.2-1.3.3-.2.6-.4.8-.5v-8.5c-.3-.2-.6-.3-.8-.5-.1-.5-.1-1-.2-1.3-1.4-1.7-2.7-2.5-4.4-3.1 0-.1 0-.1.1-.2H469c0 .1 0 .2.1.2-.7.3-1.5.6-2.2.9.1 0 .1.1.2.1-.7.6-1.4 1.3-2.2 2-.1.3-.2.8-.3 1.3zM172.1 221.1c4.6.1 9.1-.1 13.7.1v4h-13.7v8.9h15.7v4.1c-6.6.1-13.2 0-19.9 0v-29h18.9v4h-14.7v7.9zM290.5 238.1h-8.3c-.2-.4-.3-.6-.4-.9-.6-.1-1.1-.1-1.4-.2-.9-.8-1.6-1.4-2.5-2.2 0 0-.1-.3-.1-.5-.3-.1-.5-.2-.6-.2-.4-.8-.7-1.5-1-2.3-.1 0-.2 0-.2.1-.5-7.5-.2-15.1-.2-22.7h4.2v20.4c1.2 1.3 2.2 2.3 3.1 3.4.5.1 1 .1 1.6.2.2.2.4.5.6.8h2.4c0-.1 0-.1-.1-.2 2.2-.5 3.6-1.1 5.2-3.1.6-6.9.1-14 .3-21.3h4.7v20.5c-.1 0-.2 0-.3-.1-.4 1.6-.7 3.1-1.8 4.2 0 0 .1 0 .1.1-1 1-2.1 2-3.3 3.1-.3 0-.8.1-1.4.1-.2.2-.4.5-.6.8zM247 227.4c.3-.1.5-.3.8-.4 0-.6.1-1.1.1-1.6.3-.1.5-.2.8-.3l.3-2.4c.3-.2.5-.4.8-.5.1-.5.1-1.1.2-1.6.3-.1.5-.3.8-.4.3-1-.1-2.2 1.1-2.8.1-.6.1-1.1.2-1.7.2-.2.4-.3.7-.5.1-.5.2-1 .2-1.6.2-.1.5-.2.8-.4.1-.8.1-1.5.2-2.3.3-.2.5-.4.8-.5.1-.6.1-1.1.2-1.8h1.9c.1.6.2 1.1.2 1.7.2.1.5.3.8.5.1.5.1 1 .2 1.6 1 .6.8 1.8 1 2.9.2.1.5.2.8.4 0 .5.1 1.1.1 1.7 1.6.5.3 2.5 1.8 3.3.1.5.1 1 .2 1.6 1.3.6.8 1.9 1.2 2.9.2.1.4.2.7.4.1.5.1 1 .2 1.6.2.1.5.3.8.5.1.6.1 1.1.2 1.7.2.1.5.3.8.5.1.8.1 1.5.2 2.3.2.1.5.3.8.4.1.5.2 1 .2 1.5.1 0 .2 0 .3-.1.5 1.5.7 3 1.7 4.1-.1.1-.1.2-.2.3h-4.8c-.7-1.1-1.6-2.1-1.3-3.6l-.9-.6c-.1-.8-.1-1.6-.2-2.4l-.3.3c-.5-.3-.9-.6-1.4-.8l.6-.6h-10.3c-.3 1-.6 2-1 3-.1 0-.2 0-.3-.1-.1.5-.2 1.1-.2 1.7-.2.1-.5.3-.8.4-.1.8-.2 1.6-.2 2.6h-4.7c-.5-.8.2-.9.6-1.1.3-1-.2-2.3 1-2.9.1-.6.1-1.1.2-1.6.2-.2.5-.3.8-.5.1-.5.2-1 .3-1.7 1-.9.7-2.1 1-3.1zm11.9-1.2c-.1-.6-.2-1.2-.2-1.7-.2-.2-.5-.3-.6-.5-.4-1.1.1-2.4-1.2-3-.1-.6-.1-1.1-.2-1.6-.5-.4-.9-.8-1.5-1.4-.2.9-.3 1.5-.4 2.2-.3.2-.5.3-.8.5-.1.8-.1 1.6-.2 2.4-.3.2-.5.3-.8.4 0 .5-.1 1.1-.1 1.6-.3.2-.5.3-.8.5 0 .5 0 1-.1 1.5 2.6-.1 5.2.2 7.7-.4-.3-.2-.5-.3-.8-.5zM357.8 238.2H353c-.7-1.1-1.6-2.2-1.3-3.6-.3-.2-.5-.4-.8-.6-.1-.8-.2-1.6-.2-2.2-.5-.5-.8-.9-1.3-1.3h-10.2c-.2.8-.4 1.6-.5 2.5-.2.1-.5.3-.7.4 0 .6-.1 1.2-.2 1.8-.3.1-.5.3-.8.4-.1.8-.2 1.6-.3 2.5-1.6.6-3.2.3-4.7.2-.1-.8-.1-.8.7-1.2.2-1-.1-2.2 1-2.8.1-.6.1-1.1.2-1.7.3-.1.5-.3.8-.5.1-.5.1-1 .2-1.6 1.2-.6.9-1.8 1.2-2.9.2-.1.4-.3.7-.5.1-.5.2-1 .3-1.6.3-.1.5-.2.8-.4.1-.8.1-1.5.2-2.3.3-.2.6-.4.8-.6.1-.6.1-1.1.2-1.6.3-.1.5-.3.8-.4.2-1-.2-2.2 1-2.8.1-.6.2-1.1.3-1.7.2-.2.5-.3.7-.5.1-.5.1-1 .2-1.5 1.1-.6.7-1.8 1.1-2.9.2-.1.4-.3.7-.5.1-.6.1-1.2.2-1.8.6 0 1.1 0 1.8-.1l.3 1.8c.2.1.4.3.7.5.1.5.2 1 .3 1.6 1 .6.9 1.8 1 2.8.2.1.5.3.8.4.1.5.1 1.1.2 1.7.2.1.5.3.8.5.1.7.1 1.5.2 2.4.3.1.5.3.8.4.1.5.2 1 .2 1.6 1.5.7.2 2.7 1.8 3.4.1.5.1 1 .2 1.6.2.1.5.3.8.4.1.5.1 1.1.2 1.7 1.1.6.8 1.8 1 2.9l.8.4c0 .5.1 1 .1 1.7.2.1.5.3.6.4.2 1 .6 2.2 1.1 3.6zm-10.3-13.8c-.5-.4-.5-.4-1-2.9-.2-.2-.5-.4-.7-.5 0-.6-.1-1.1-.1-1.7-.7 0-.6-1.4-1.7-.9 0 .6-.1 1.2-.1 1.8-.3.2-.5.4-.8.5-.1.8-.2 1.5-.2 2.3-.3.2-.5.3-.8.5-.1.6-.1 1.1-.1 1.6-.3.2-.5.3-.8.5 0 .5-.1.9-.1 1.4 2.4.4 6.7.2 7.3-.1-.4-.9-.6-1.6-.9-2.5zM439.9 225.4c-.1.3-.2.6-.3.8h-.6c-.3-.4-.7-.8-1-1.1h-.1l-.9-1.2c-.1 0-.1 0-.2.1-.1-.8-.2-1.6-.3-2.6-.9-.7-.8-1.7-.7-2.8.2-.2.5-.4.7-.6.1-.8.2-1.7.3-2.2.8-.9 1.4-1.6 2.2-2.5 0 0 .3-.1.6-.1.1-.2.2-.5.2-.7.8-.3 1.5-.6 2.2-.9 0-.1-.1-.2-.1-.3h6.7c0 .1 0 .1-.1.2.7.3 1.3.6 2.2 1.1 0 .1.1.3.2.6.3.1.5.1.8.2.1.4 0 1.2.8.9 2.2 2.7 1.4 6.4 1.2 9.7-.2.2-.4.3-.7.5l-.3 1.5c-.2.1-.5.2-.7.4-.1.3-.1.5-.2.8-.2.1-.5.2-.7.4-.2 1.7-1.5 2.4-2.5 3.7 0 0-.2.1-.4.1l.1.1c-.7.8-1.4 1.5-2.3 2.4 3 .4 5.8.1 8.9.2v4.2c-5.9 0-11.8.1-17.8-.1 1.3-3.8 7.1-6.1 8.8-10 .2-.1.5-.2.8-.4.1-.5.2-.9.2-1.2.6-.6 1.1-1.2 1.7-1.9.2-.8 0-2 1.1-2.6v-3.6c-.1 0-.2.1-.2.1-.3-.6-.7-1.3-1.1-2.1-.3-.1-.8-.2-1.3-.3-.1-.2-.3-.4-.6-.8h-2.2s0 .1.1.1c-1.3.6-2.4.8-3.3 2.2-.1 2-.7 4.2.9 6.1-.4.5-.8.9-1.2 1.4-.3 0-.5.1-.9.2zM567.8 225c-.3-.3-.6-.8-1-1.4 0-.5-.1-1.3-.2-2.2-.2-.1-.4-.3-.7-.6v-2.3c.2-.1.4-.3.7-.5.1-.8.1-1.6.2-2.3.7-.8 1.4-1.5 2.2-2.4 0 0 .3-.1.6-.1.1-.2.2-.5.2-.7.8-.3 1.4-.6 2.1-.8 0-.1-.1-.2-.1-.3 3.6.1 7.3-.7 9.7 2.1v-.1c.3.4.6.7.9 1.1.3.4.6.8.9 1.3.1 0 .2 0 .2-.1v8.3c-.3.2-.6.3-.8.4-.1.5-.2 1-.2 1.4-1.6 1.7-2.4 3.8-4.3 5.5 0 0-.2 0-.5.1-.1.2-.1.5-.1.7-.6.6-1.2 1.1-2 1.9 3.2.5 5.8.1 9 .2v4c-1.4.3-16.5.3-18-.2 2.9-4.2 8.1-6.8 10.1-11.5.2-.1.5-.2.7-.3.1-.3.1-.5.2-.8.3-.1.5-.2.8-.3.2-1-.1-2.2 1-2.8v-3.7c-.2-.1-.5-.3-.7-.5-.1-.4-.2-.9-.4-1.4-.5-.1-1.1-.2-1.7-.4-.2-.2-.4-.5-.6-.7h-2.2s0 .1.1.1c-1.3.6-2.3 1-3.2 2.2v4.7c.5.6.8 1 1.1 1.3-.9.8-1.6 1.5-2.5 2.3h-.3c-.4-.5-.8-.8-1.2-1.2zM623.1 231.2h.2c.8-.9 1.5-1.6 2.2-2.3.1 0 .1.1.2.1 0-.2.1-.5.1-.8.2-.1.5-.2.8-.4.1-.4.2-.9.3-1.4.4-.3 1.2-.4.9-1.2.4-.1.6-.2.8-.3.3-1 0-2.2 1.2-2.9v-3.6c-.1 0-.1 0-.2.1-.4-.7-.7-1.3-1.2-2.1-.3-.1-.8-.2-1.3-.3-.1-.2-.3-.4-.6-.7-2.2-.1-4 .5-5.3 2.1-.2 2.1-1 4.4.8 6.2-.5.5-.8.9-1.3 1.4 0 0-.3.1-.6.1-.1.2-.2.5-.4.9-1.3-.3-1.6-1.7-2.7-2.4-.1-.8-.2-1.6-.3-2.5-.9-.7-.8-1.7-.7-2.8.2-.2.4-.4.7-.6.1-.8.2-1.6.3-2.3.8-.9 1.4-1.6 2.2-2.5 0 0 .3-.1.6-.1.1-.2.2-.5.2-.7.7-.3 1.4-.6 2.1-.8 0-.1-.1-.2-.1-.3 3.3.1 6.2-.6 8.8 1.2l.2.6c.2.1.5.1.7.2.1.2.1.5.2.8.2.1.5.2.6.2 2.4 2.9 1.8 8.1-.1 11.8 0 0-.2.1-.5.3-.1.2-.1.5-.2.8-.3.1-.5.3-.8.4-.1.5-.2.9-.3 1.3-1.6 1.7-3.1 3.3-4.8 5 2.9.6 5.9.1 8.9.2v4c-1.2.4-16.6.3-18-.2 2.1-2 4.2-4.2 6.4-6.5zM211.6 210.6l1.2 1.2c-.2.2-.5.5-.9.8 0 .4-.1.9-.2 1.6h-2.6c-.2-.3-.3-.6-.5-.9-1.3-.3-3.2.5-4-.9h-1.4c-.2.2-.4.5-.6.8-.5.1-1.1.1-1.5.1l-1.3 1.3v3.2c1 1.1 1.5 1.4 2.6 2.3.2 0 .7.1 1.2.1.1.2.3.5.5.8.8.1 1.5.2 2.4.3.1.3.3.5.4.7.5.1 1 .2 1.4.2.9.7 1.6 1.4 2.5 2.1 0 .1.1.4.2.7.3.1.5.2.7.2.1.3.1.5.2.8.3.1.5.2.9.4v6.4c-.3.2-.6.3-.9.5-.1.5-.1 1-.2 1.4-.4.4-.8.7-1.2 1.1l-1.2.9s0 .1.1.1c-.5.1-.9.2-1.5.3-.1.2-.3.5-.5.9h-9.2c-.2-.4-.4-.6-.6-.9-.6 0-1.2-.1-1.8-.1-.1-.2-.2-.5-.4-.8-.5-.1-1-.2-1.7-.3v-1.8c.2-.1.5-.3.8-.4l.3-1.5c.9-.2 1.5 0 1.8.5 1.9 1.4 3.7.8 5.5 2.1.4 0 .8 0 1.2.1 0-.1 0-.2-.1-.2 1.9-.6 4.5-.7 4.5-3.3.2-.1.4-.3.7-.5v-1.4c-.2-.1-.5-.3-.7-.5-.1-.5-.2-1-.3-1.4-1.1-.8-2.5-1-3.3-2.3-.7-.1-1.5-.1-2.3-.2-.1-.3-.3-.5-.4-.8-.5-.1-1-.1-1.5-.2-.1-.2-.3-.5-.4-.8-.5-.1-.9-.2-1.3-.2-1-.9-1.5-1.4-2.5-2.5 0-.3-.1-.8-.2-1.3-.2-.1-.5-.2-.7-.4v-4.4c.3-.2.5-.4.8-.5.1-.5.1-1 .2-1.4.7-.6.9-1.3 1.9-1.6.1-.3.2-.5.3-.8.5-.1 1-.2 1.6-.3.1-.2.2-.5.4-.8h8.6c.2.3.4.5.6.8l2.4.3v.4zM514.8 212.7c.6-.4 1-.8 1.6-1.2.8 5.8.1 11.6.3 17.5 1 .1 1.9.1 2.9.2v3.1c-1 .1-1.8.1-2.9.1v5.8h-5v-5.8h-11.2c.1-.8.1-1.3.1-1.6 1.8-1.9 3-3.3 4.2-5.4.2-.1.4-.1.7-.2.1-.3.1-.5.1-.6.6-.7 1.2-1.2 1.8-1.8.3-2.2 3-2.8 3.4-5.1l.1.1c1.2-1.9 3.3-3 3.9-5.1zm-3.1 16.2v-5.7h-.7c-.5.7-1 1.3-1.5 2-.1 0-.3.1-.5.1-.7 1.2-1.4 2.3-2.2 3.6h4.9zM654.8 238.1h-5v-5.8h-11.2c.1-.8.1-1.3.2-1.6 1.8-1.9 3-3.3 4.2-5.4.1 0 .3-.1.6-.2.1-.2.1-.5.1-.6l1.8-1.8c.3-2.3 3-2.8 3.4-5.1l.1.1c.3-.4.6-.8 1-1.2.9-1.2 2.5-2.2 2.9-3.9.5-.4.9-.7 1.6-1.2.9 5.8 0 11.7.4 17.5 1 .1 1.9.1 2.9.2v3.1c-1 .1-1.9.1-2.9.2-.1 1.9-.1 3.7-.1 5.7zm-5.8-14.9c-.6.7-1 1.4-1.6 2.1-.1 0-.3.1-.5.1-.7 1.2-1.4 2.3-2.2 3.6h4.8v-5.7c-.1-.1-.3-.1-.5-.1zM397.8 209.2c6.6.1 13.2-.5 19.7.2v3.6c-2.5.4-5.1 0-7.7.2v24.7h-5v-24.8h-7v-3.9zM238.6 209.5v3.6c-2.5.5-5.1 0-7.7.3V238c-1.7.4-3.3.4-5.1 0v-24.7h-6.9v-4.2c6.6.3 13.1-.4 19.7.4zM726.1 230c.3.1.8.2 1.4.4.1-.7.2-1.3.3-1.9.2-.1.5-.3.8-.4.1-.5.1-1 .2-1.6.3-.1.5-.3.8-.4.2-1-.1-2.2 1-2.8.1-.6.2-1.2.4-1.9h4.7c.3.9 0 1.6-.7 2.1-.2.7 0 1.6-1 1.9-.1.3-.1.6-.2.9-.3.2-.5.3-.8.5-.1.5-.1.9-.2 1.4-.2.1-.5.3-.7.5-.1.5-.1.9-.2 1.5-.2.1-.4.2-.7.4l-.3 1.5c-.1 0-.1-.1-.2-.1-.4.7-.7 1.4-1.1 2.1-.3.7-.6 1.4-1 2.2-.1 0-.3.1-.6.2-.1.6-.1 1.1-.2 1.7H726c-.1-.6-.2-1.1-.4-1.7-.2-.1-.5-.3-.8-.4-.1-.5-.2-.9-.3-1.5-.2-.1-.5-.3-.8-.5-.1-.5-.1-.9-.2-1.5-.2-.2-.5-.3-.8-.5-.1-.5-.2-1-.2-1.6-.2-.1-.5-.3-.7-.4 0-.3-.1-.5-.1-.8-.2-.2-.5-.3-.8-.5l-.3-1.5c-.2-.1-.4-.3-.7-.4-.1-.5-.2-.9-.3-1.5-.2-.1-.4-.2-.7-.4-.1-.5-.2-1-.4-1.6-.2-.1-.5-.2-.8-.4 0-.6-.1-1.2-.1-1.8h5l.3 1.8c.2.1.4.3.7.5l.3 1.5c.2.1.4.3.7.4.1.5.2 1 .4 1.6.1 0 .2-.1.2-.1.2 1 .5 1.9.9 3.1zM489.6 238.2v-22.7c-1-.1-1.9-.1-2.9-.2v-4h7v26.9h-4.1zM683.7 238.2h-4v-22.8c-1.1-.1-2-.1-3-.2v-3.9h7.1c-.1 9-.1 17.9-.1 26.9zM546.6 231.2h-7.9v-3h7.9v3zM347.7.3c7.4-.6 14.7.4 22.1.4 3 .8 9.9-1.7 10.6 2.1 3 8.3 11.6 13 17.1 19.5 2.4 2.5 10.4-7.7 13.4-9.2 3.2-2.7 7-5.3 8.4-9.4 1.9-4.2 12.9-.9 17.2-1.8 5.4.2 10.6-.2 16 .3-8.9 15.2-.9 54.3-1.1 73.6.9 13.9 1.1 28 2.5 41.9 0 9.9 1.8 18.5 6.9 27.1-1.9.5-26.3.5-29.2-.1 5.8-11 3.8-23.4 2.9-35.3-1.4-28.8-2.9-57.7-5.3-86.4-10.3 6.3-19.4 15.4-29.4 22.7-1.6 1.2-1.7 1.2-3.3-.2-9-7.8-17.6-15.4-26.7-23.4-3.8 21.1-4.1 42.9-6.6 64.2-.7 18.9-7.7 39-.5 57.2-2.2.6-27.3-.1-29.3-.8 4.5-6.8 7.8-14.1 7.8-22.4 1.4-16.1 3.2-32 5.1-48.1 1-12.7 2.1-25.5 3.3-38.1.8-11.3 3.7-23.3-1.9-33.8zM798.3 190c-8.8-1.4-16.3-3.8-25.1-5.5 9.4-14.3 10.2-32.5 14.6-48.8-7.2-22.5-18.3-43.8-26.9-66-6.4 21.4-10.6 43.9-15.6 65.8-2.9 13.5-8.6 27.3-6.1 41.1-8.5-2-16.7-3.7-25-5.9 5.5-6.9 7-15.5 9.1-24 3.2-15.5 7.1-30.9 10.5-46.3 3.2-13.5 6.4-26.9 9.6-40.4 1.6-9.6 5.7-18.8 2.9-28.5 9.6 1.9 19.3 3.8 28.6 6.7-4.4 8.6-.2 16.7 3.4 24.7 5.5 13.4 10.7 26.7 16.7 40 4.4-11 5.3-23.6 8.7-35.1 2.4-7.7 3.6-15 1.8-23.1 8.5 2.3 16.9 3.8 25.4 6.1-6.7 7.2-7.3 16.1-9.6 25-3.7 14.1-6.7 28.3-9.8 42.6-3.6 13.5-6.3 27.3-9.6 40.8-2.2 10.2-6.4 20.3-3.6 30.8zM324.7 144c-10.1 1.8-19.4 2.6-29.6 3.1 3.5-12.6-5.1-23.1-10.2-33.8-5.5-10.3-9.7-21.5-15.9-31.3-4.4 8.3-11.1 15.7-13.8 24.6 1.7 14.7.7 30.6 7.8 43.9-8.6 1.1-16.9 2.3-25.6 2.6 4.1-9.4 1.4-19.2.4-28.9-1.3-15-3-30-4.5-45-1.4-12.7-2.6-25.5-3.9-38.3-2-10.2-.1-21-7.1-29.8 15-2.6 30-3 45-5.3 19.5-2.5 43.8-5.6 32.9 22.8-5.3 11.5-14.4 22.4-18.2 33.9 14.1 27.4 22.9 57.7 42.7 81.5zM244.4 23.8c1.2 18.7 3.5 37.2 5.5 55.9 8.1-11.1 14.6-23.3 22-35 3.4-5.9 8.3-12.2 7.4-19.5-1.4-9.1-27.4-.5-34.9-1.4zM122.4 176.6c-8.1 2.6-15.8 4.6-24 6.7 1.4-12.6-4.1-24-7-36-5.1-17.8-10.2-35.7-15.2-53.6-5.9-10.9-18.5-1.1-25.4 3.8-4.9 2.8-10.6 3.3-16.3 3.4 4.4 18.5 10.2 36.8 15.6 55.2 3.7 12.8 5.6 26.4 13.8 37.3-8.2 2.3-16.2 4.6-24.1 6.9-.8-1.4-.4-2.5-.1-3.6 1.3-6.9-2.4-14-3.8-20.7-4.4-15.3-8.8-30.7-13.2-46-3.9-14.7-8.1-29.2-12.3-43.8C7.9 78.1 6.5 69.4 0 63.4c.5-.5.8-.9 1.2-1C9 60.4 16.8 57 24.7 56c-.4 5.7-.5 11.2 1.5 16.5 1.9 3.6.6 10.9 5.7 11.4 14.3 1.5 23-16.3 37.5-12.4-2-9-3.8-18.6-10.7-25.3 8-3.3 16.6-5 24.9-7.4-1 8.5.5 16.6 3.5 24.5 3.8 14.5 8.5 28.8 12.3 43.3 4.9 17.1 9.9 34.1 14.8 51.2 1.9 5.7 3 12 7.3 16.5.6.6 1.3 1.2.9 2.3zM470.5 86.7c-1.8-42.3 22-86.5 70.1-77.8 55.4 7.7 58.4 84.2 30.9 121.4-14 19.1-39.8 25.2-62 18.7-26.8-6.8-40.5-36.3-39-62.3zm100.9-12.5c4.3-47.8-53-73.5-76.5-27-16.8 32.8-8.5 96.3 40 87.8 26.4-5.7 37.1-36.5 36.5-60.8zM717.8 82.5c-.3 43.3-25.7 91.3-75.6 79.6-53.3-10.1-51.4-81-27.8-117.9 14-23.3 44.6-28.7 68.6-19.3 23.8 8.1 35.7 33.7 34.8 57.6zM615.4 99.6c-1 59.4 66.5 65.6 81.9 9.8 5.3-19.3 6.7-41.8-5.8-58.7-10.3-14.5-32.1-19.6-47.8-11.3-20.5 11.8-27.7 38-28.3 60.2zM163.4 169.8c-8.6 1.7-17.1 3.3-25.8 5 2.8-10.1 1.6-20.3-1.1-30.5-2.5-13.7-4.9-27.7-3.1-41.7 2.4-34.4 22.6-81.9 61.8-84.7-2.8 11.1 1 22.2 3 33 2.4 12.9 5 25.8 7.4 38.8 2.8 13.5 5.5 27.1 7.9 40.7 2.3 8.9 2.3 18.6 8 26.2 1 1.3.7 1.8-1 2.1-7.8 1.2-15.4 3.6-23.3 4 2.7-14.1-2.5-28.5-5.1-42.5-13.2 2.2-27.1 4.1-40.2 7.9 3.3 14.3 3.9 29.1 11.5 41.7zm27.9-66c-3.1-16.8-6.4-33.7-9.7-50.6-1.2-2.2-.9-15.4-4.2-12.8-19.6 17-28.6 46.2-27.7 71.4 13.9-1.9 27.8-5.3 41.6-8zM857.3 57.7c8.3 2.5 16.2 4.9 24.1 7.3-12.1 22.6-16.9 50-25.6 74.7-3.9 13.2-7.9 26.3-12.1 39.4-2 7.6-5.1 14.9-3.1 22.8-8.6-1.4-16.5-4.8-25-7.2 8.5-8.9 9.5-21.5 13.8-32.5 4.3-15.6 9.6-30.9 14.1-46.4 4-14.6 9.1-28.9 13.2-43.4 1.3-5 1.4-9.5.6-14.7z"></path></svg>
