<svg width="131" height="42" viewBox="0 0 131 42" fill="none" xmlns="http://www.w3.org/2000/svg">
<g clip-path="url(#clip0_506_286)">
<path d="M130.897 26.7675V16.819H129.007V21.3414L124.973 16.559V26.5104H126.863V21.9932L130.897 26.7675ZM121.226 26.4874H123.253L119.49 16.5222L115.709 26.5017H117.737L118.029 25.6959H120.934L121.226 26.4874ZM120.419 24.2963H118.543L119.49 21.7941L120.419 24.2963ZM114.793 26.5017L112.278 23.5739C112.562 23.426 112.825 23.2379 113.056 23.0148C113.285 22.7908 113.485 22.5399 113.654 22.2675C113.991 21.7087 114.169 21.0682 114.168 20.4153C114.172 19.935 114.079 19.4588 113.893 19.0158C113.715 18.5896 113.457 18.2011 113.134 17.8711C112.812 17.5433 112.43 17.2812 112.008 17.0992C111.574 16.9106 111.106 16.8152 110.632 16.819H108.228V26.5017H110.115V23.9995L112.27 26.5017H114.793ZM112.278 20.4096C112.279 20.631 112.234 20.8502 112.146 21.0533C111.976 21.4493 111.664 21.767 111.271 21.9431C111.072 22.0324 110.856 22.0781 110.638 22.0771H110.115V18.7414H110.63C110.848 18.7409 111.063 18.7863 111.263 18.876C111.656 19.0522 111.968 19.3699 112.138 19.7659C112.226 19.9684 112.271 20.1881 112.27 20.4096H112.278ZM104.75 26.5012H106.778L103.014 16.5222L99.2333 26.5017H101.264L101.555 25.6959H104.459L104.75 26.5012ZM103.944 24.3102H102.07L103.014 21.8085L103.944 24.3107V24.3102ZM95.8078 26.5017H97.8355L94.0718 16.5222L90.3047 26.5017H92.3329L92.6274 25.6959H95.53L95.8078 26.5017ZM95.002 24.3102H93.125L94.0718 21.8085L95.002 24.3107V24.3102ZM87.1709 26.798L90.938 16.819H88.9098L87.1709 21.5123L85.4211 16.819H83.3934L87.1709 26.798ZM87.6857 12.2299H89.7162L85.9497 2.25099L82.1688 12.2299H84.1993L84.4909 11.424H87.3941L87.6857 12.2294V12.2299ZM86.8793 10.0383H85.0058L85.9497 7.5367L86.8793 10.0389V10.0383ZM87.6524 1.66599C87.7355 1.58381 87.801 1.48561 87.845 1.37733C87.889 1.26906 87.9105 1.15298 87.9083 1.03613C87.9102 0.918546 87.8885 0.801777 87.8446 0.692709C87.8006 0.58364 87.7353 0.484481 87.6524 0.401082C87.5753 0.312784 87.4801 0.242113 87.3733 0.193874C87.2665 0.145635 87.1506 0.120959 87.0334 0.121524C86.9163 0.121371 86.8005 0.146232 86.6938 0.194444C86.587 0.242655 86.4918 0.313106 86.4145 0.401082C86.3319 0.484693 86.2667 0.58389 86.2227 0.692909C86.1788 0.801928 86.157 0.918594 86.1585 1.03613C86.1585 1.21214 86.2097 1.38471 86.3058 1.53082C86.4018 1.6775 86.5387 1.79197 86.6986 1.85869C86.8585 1.92655 87.0351 1.94447 87.2054 1.91007C87.3756 1.87568 87.5314 1.79059 87.6524 1.66599ZM85.4982 1.66599C85.581 1.58361 85.6463 1.48537 85.6903 1.37715C85.7343 1.26892 85.756 1.15293 85.7541 1.03613C85.7561 0.918528 85.7345 0.801722 85.6906 0.692635C85.6466 0.583549 85.5812 0.484404 85.4982 0.401082C85.421 0.312882 85.3258 0.242202 85.219 0.193777C85.1123 0.145352 84.9964 0.1203 84.8792 0.1203C84.762 0.1203 84.6461 0.145352 84.5394 0.193777C84.4326 0.242202 84.3375 0.312882 84.2603 0.401082C84.1774 0.484481 84.112 0.58364 84.068 0.692709C84.0241 0.801777 84.0024 0.918546 84.0043 1.03613C84.0043 1.21214 84.0555 1.38471 84.1516 1.53082C84.2476 1.6775 84.3839 1.79197 84.5444 1.85869C84.7043 1.92655 84.8809 1.94447 85.0511 1.91007C85.2214 1.87568 85.3772 1.79059 85.4982 1.66599ZM76.4183 7.72135L80.4494 12.4957V2.54723H78.5564V7.06962L74.5252 2.28723V12.2299H76.416L76.4183 7.72135ZM69.9747 12.2299H71.8706V2.54723H69.9827L69.9747 12.2299ZM70.0684 31.2755C69.8459 31.1516 69.608 31.0576 69.3609 30.9959C69.1287 30.9379 68.8904 30.9078 68.6511 30.9062C68.2852 30.9032 67.9224 30.9726 67.5835 31.1104C67.2579 31.2395 66.96 31.4294 66.7057 31.6701C66.4578 31.9083 66.2576 32.1936 66.1172 32.5099C65.971 32.8344 65.8968 33.1866 65.8998 33.5425C65.8923 33.8901 65.9618 34.235 66.1034 34.5525C66.2334 34.835 66.4071 35.095 66.6177 35.3222C66.8265 35.5511 67.0623 35.7536 67.3194 35.9239C67.5783 36.097 67.8314 36.265 68.0816 36.4243C68.2772 36.5394 68.4584 36.6544 68.6321 36.7717C68.7926 36.8805 68.945 37.0013 69.0888 37.1324C69.2182 37.2463 69.3275 37.3832 69.4104 37.5351C69.4822 37.6688 69.5224 37.8172 69.5276 37.969C69.5329 38.1207 69.5032 38.2716 69.4408 38.41C69.3831 38.5355 69.2985 38.6469 69.1929 38.7361C68.9791 38.918 68.7108 39.0235 68.4303 39.0361C68.1499 39.0487 67.8732 38.9677 67.6439 38.8057C67.4437 38.663 67.299 38.4556 67.2343 38.2184L65.5834 39.2653C65.7319 39.5705 65.9319 39.8478 66.1747 40.085C66.5822 40.4835 67.0914 40.7621 67.6467 40.8903C67.882 40.9444 68.1213 40.9726 68.3623 40.9749C69.1706 40.9806 69.949 40.6691 70.5303 40.1075C70.8083 39.8389 71.0324 39.5196 71.1907 39.167C71.3465 38.8046 71.4287 38.4149 71.4324 38.0204C71.4362 37.626 71.3614 37.2348 71.2125 36.8695C71.0753 36.5554 70.8898 36.2646 70.6626 36.0079C70.437 35.7596 70.1829 35.5387 69.9056 35.3498C69.6307 35.1623 69.3557 34.9891 69.0997 34.8263C68.7836 34.6437 68.4795 34.441 68.1892 34.2195C68.0758 34.1456 67.9818 34.0455 67.9152 33.9277C67.8486 33.8099 67.8114 33.6777 67.8066 33.5425C67.8086 33.4464 67.8321 33.3519 67.8754 33.2661C67.9187 33.1803 67.9807 33.1053 68.0569 33.0466C68.2248 32.9057 68.4365 32.8303 68.6539 32.8338C68.83 32.839 69.002 32.8879 69.1544 32.977C69.2399 33.0233 69.3142 33.0879 69.3717 33.1663C69.4293 33.2447 69.4688 33.3348 69.4874 33.4303L71.1987 32.5375C70.9686 32.0077 70.5728 31.5669 70.0707 31.2813L70.0684 31.2755ZM68.7092 24.8445C68.8668 24.4681 68.9463 24.0636 68.9427 23.6556V16.819H67.0692V23.6584C67.0692 23.9552 66.953 24.2394 66.7465 24.4499C66.5406 24.6599 66.2605 24.7778 65.9682 24.7778C65.8226 24.7807 65.6779 24.7528 65.5438 24.6959C65.4097 24.639 65.2891 24.5544 65.19 24.4476C65.0859 24.3424 65.0041 24.2174 64.9492 24.0799C64.8944 23.9425 64.8677 23.7954 64.8707 23.6475V16.8196H62.9805V23.6584C62.9765 24.0668 63.057 24.4724 63.217 24.8474C63.5176 25.5676 64.0844 26.1441 64.7994 26.4569C65.1684 26.6155 65.5658 26.6973 65.9674 26.6973C66.369 26.6973 66.7664 26.6155 67.1354 26.4569C67.4886 26.303 67.8089 26.0825 68.0787 25.8075C68.3502 25.53 68.5677 25.2044 68.7201 24.8474L68.7092 24.8445ZM62.9966 12.2299H68.0678V10.3075H64.8874V2.54781H62.9966V12.2299ZM61.6403 31.0909V37.9302C61.6443 38.1546 61.5822 38.3755 61.4614 38.563C61.3406 38.7511 61.1669 38.8978 60.9632 38.984C60.759 39.0703 60.5347 39.0928 60.3184 39.0473C60.1014 39.0017 59.9032 38.8914 59.7501 38.7309C59.5428 38.5165 59.4281 38.2291 59.4309 37.9308V31.0903H57.5407V37.9297C57.5384 38.3381 57.6189 38.743 57.7777 39.1186C57.9289 39.4761 58.1463 39.8019 58.4185 40.0787C58.6932 40.3606 59.0215 40.5846 59.3842 40.7376C59.7469 40.8905 60.1365 40.9693 60.5301 40.9693C60.9237 40.9693 61.3133 40.8905 61.676 40.7376C62.0387 40.5846 62.367 40.3606 62.6417 40.0787C62.9123 39.8011 63.1288 39.4755 63.2802 39.1186C63.439 38.7425 63.5196 38.338 63.5172 37.9297V31.0903L61.6403 31.0909ZM59.5522 26.5017H61.5799L57.8133 16.5222L54.0353 26.5017H56.0635L56.3551 25.6959H59.2606L59.5522 26.5017ZM58.7458 24.3102H56.8694L57.8128 21.8085L58.7458 24.3107V24.3102ZM55.1966 12.2299H60.2701V10.3075H57.0868V8.31497H60.2701V6.40639H57.0868V4.4702H60.2701V2.54723H55.1966V12.2299ZM50.5937 26.5012H53.108L50.5937 23.5744C50.8793 23.4272 51.1415 23.2386 51.372 23.0148C51.6013 22.7915 51.8019 22.5405 51.9691 22.2675C52.306 21.7085 52.484 21.0681 52.4839 20.4153C52.4892 19.9348 52.3954 19.4584 52.2084 19.0158C51.854 18.1566 51.1789 17.4691 50.3262 17.0992C49.8923 16.9109 49.4239 16.8155 48.9509 16.819H46.5568V26.5017H48.4476V23.9995L50.5932 26.5017L50.5937 26.5012ZM50.5937 20.4096C50.5943 20.631 50.5494 20.8502 50.4614 21.0533C50.2942 21.4508 49.9811 21.7692 49.5865 21.9431C49.3884 22.0324 49.1734 22.0781 48.9561 22.0771H48.4418V18.7414H48.9561C49.1735 18.7409 49.3875 18.7863 49.5865 18.876C49.9809 19.0501 50.2938 19.3685 50.4608 19.7659C50.5494 19.9684 50.5949 20.1881 50.5937 20.4096ZM50.6512 12.2299H52.5247V2.54723H50.6512V6.40639H48.4499V2.54723H46.5574V12.2299H48.4476V8.3121H50.6484L50.6512 12.2294V12.2299ZM39.9205 15.8676H29.0413L37.6812 7.08055L35.0783 3.47104L26.0646 12.6412V1.85064L21.7142 2.5248V19.8752L17.744 15.8509C18.8944 13.3965 19.8706 9.22152 16.5964 5.89157C14.4117 3.66661 11.4131 3.40661 11.4131 3.40661L0.896912 1.84489L2.43275 12.5434C2.43275 12.5434 2.68585 15.5932 4.87284 17.8153C8.15793 21.1735 12.2851 20.1438 14.6953 18.9715L18.6655 23.0205H1.56302L0.899788 27.4445H11.512L2.49833 36.6118L6.04744 39.259L14.6873 30.4725V41.5484L19.0428 40.8098V23.4065L20.1185 24.5034L23.5497 28.0324C22.314 30.0173 21.7765 32.358 22.0225 34.6831C22.2642 37.0044 23.2775 39.1775 24.9003 40.8547C25.1206 41.0784 25.3519 41.2878 25.5854 41.4897L27.9657 38.1316C27.8993 38.0733 27.8359 38.0117 27.7758 37.9469C26.9144 37.0615 26.3374 35.9387 26.1192 34.7228C25.8985 33.5036 26.0451 32.2462 26.5403 31.1104L36.1263 40.9047L39.9044 41.5179L39.3016 37.6754L29.6712 27.9312C30.7811 27.4331 32.0167 27.2866 33.2123 27.5113C34.5 27.7551 35.673 28.4125 36.5532 29.3836L39.8549 26.9631C39.6562 26.7217 39.4468 26.4893 39.2274 26.2665C37.6037 24.6287 35.4689 23.5953 33.1772 23.3375C30.8897 23.0844 28.5847 23.6246 26.6478 24.8675L22.1352 20.2974H39.194L39.9205 15.8676ZM13.6306 14.7989C12.5958 15.8538 9.61094 16.9197 7.57753 14.8575C6.57895 13.8417 6.40523 12.1937 6.40523 12.1937L5.52514 6.5548L11.0634 7.45847C11.0634 7.45847 12.6843 7.63506 13.6829 8.6509C15.7106 10.7102 14.6625 13.7462 13.6254 14.8069L13.6306 14.7989ZM12.219 13.3631C12.5268 13.0479 12.7354 12.6493 12.8189 12.2167C12.903 11.7828 12.8588 11.3339 12.6918 10.9248C12.5262 10.5178 12.244 10.1688 11.8808 9.92157C11.5204 9.67661 11.0947 9.54555 10.659 9.54537C10.2241 9.54537 9.79904 9.67595 9.43722 9.92157C9.07397 10.1688 8.79181 10.5178 8.62616 10.9248C8.45933 11.334 8.41536 11.7829 8.49961 12.2167C8.58295 12.6492 8.79135 13.0478 9.09899 13.3631C9.30377 13.5719 9.54651 13.7382 9.81457 13.8509C10.2177 14.0218 10.6632 14.0667 11.0924 13.9796C11.5215 13.8925 11.9143 13.6776 12.219 13.3631ZM50.5799 35.6127L46.5568 30.8309V40.7816H48.4476V36.265L50.5851 38.8086L52.7255 36.265V40.773H54.6162V30.8309L50.5799 35.6127ZM70.9623 18.7414H72.5471V26.5012H74.4372V18.7414H76.0335V16.819H70.9623V18.7414ZM78.8204 31.0909H73.7498V40.773H78.8204V38.8512H75.6371V36.8592H78.8204V34.9506H75.6371V33.0127H78.8204V31.0909ZM78.5454 26.5017L78.8371 25.6959H81.7397L82.0313 26.5012H84.0618L80.2895 16.5222L76.512 26.5017H78.5454ZM79.3513 24.3102L80.2953 21.8085L81.2254 24.3107H79.3513V24.3102ZM81.2777 33.9733C80.7626 35.2282 80.7626 36.6356 81.2777 37.8905C81.7779 39.0905 82.7251 40.0489 83.9192 40.563C84.5283 40.8218 85.1832 40.9552 85.845 40.9552C86.5068 40.9552 87.1618 40.8218 87.7709 40.563C88.9604 40.0483 89.9021 39.0896 90.3956 37.8911C90.9108 36.636 90.9108 35.2284 90.3956 33.9733C90.1464 33.3777 89.7882 32.8338 89.3395 32.3696C88.8919 31.9108 88.3591 31.5439 87.7709 31.2893C87.1617 31.0308 86.5067 30.8976 85.845 30.8976C85.1833 30.8976 84.5283 31.0308 83.9192 31.2893C82.724 31.8077 81.7769 32.77 81.2777 33.9733ZM82.7935 35.9319C82.791 35.5194 82.8734 35.1107 83.0356 34.7314C83.1925 34.3641 83.4165 34.0292 83.696 33.7438C83.9741 33.4615 84.304 33.2354 84.6675 33.0777C85.0412 32.9191 85.4431 32.8373 85.849 32.8373C86.255 32.8373 86.6568 32.9191 87.0305 33.0777C87.3943 33.2349 87.7243 33.4611 88.0021 33.7438C88.2813 34.034 88.5025 34.3749 88.6538 34.7481C88.9703 35.5183 88.9703 36.3823 88.6538 37.1525C88.5 37.5202 88.2779 37.8553 87.9992 38.1402C87.7215 38.4226 87.3918 38.6486 87.0282 38.8057C86.654 38.9627 86.2523 39.0435 85.8465 39.0435C85.4406 39.0435 85.0389 38.9627 84.6647 38.8057C84.3013 38.6479 83.9715 38.422 83.6931 38.1402C83.4137 37.8545 83.1898 37.5194 83.0328 37.152C82.8705 36.7717 82.7881 36.3621 82.7906 35.9486" fill="#1D1D1B"/>
</g>
<defs>
<clipPath id="clip0_506_286">
<rect width="130" height="41.2456" fill="white" transform="translate(0.896912 0.1203)"/>
</clipPath>
</defs>
</svg>
