<svg xmlns="http://www.w3.org/2000/svg" width="120" height="96" viewBox="0 0 386 306.5"><path fill-rule="evenodd" clip-rule="evenodd" d="M46.9 148.6l13.7 39.1H33.2l13.7-39.1zM71.7 217H92L46.9 88.7 2 217h20.3l4.8-13h39.6l5 13zm59.8-18.8v-93.8h-18.8V217h60.5v-18.8zm107.4.2h-18.8v-28.2h18.8s20.3-1.1 20.3 14c0 12.2-12.4 14.2-20.3 14.2zm-18.8-75.2h18.8s18.7-1 18.7 14.2c0 14-18.7 14-18.7 14h-18.8v-28.2zm37.5 37.7c9.7-2.4 18.8-10 18.8-24.8 0-32.5-37.5-31.5-37.5-31.5h-37.5V217h37.5c7.6 0 39.1-1.4 39.1-32.4 0 .1.8-19.4-20.4-23.7zm81.1-12.3l13.7 39.1H325l13.7-39.1zm24.8 68.4h20.3L340.2 88.7 293.8 217H314l4.8-13h39.6l5.1 13zm-255.8 86.2h-5.9v-20H78v20h-5.9v-44H78v19.6h23.8v-19.6h5.9zm45.9-22c0-2.7-.4-5.1-1.1-7.3-.7-2.2-1.8-4-3.1-5.4-1.4-1.5-3-2.6-4.9-3.4-1.9-.8-4.1-1.2-6.5-1.2-2.4 0-4.5.4-6.4 1.2-1.9.8-3.6 1.9-4.9 3.4-1.4 1.5-2.4 3.3-3.1 5.4-.7 2.2-1.1 4.6-1.1 7.3s.4 5.1 1.1 7.3c.7 2.1 1.8 3.9 3.1 5.4 1.4 1.5 3 2.6 4.9 3.4 1.9.8 4.1 1.2 6.4 1.2 2.4 0 4.5-.4 6.5-1.2 1.9-.8 3.6-1.9 4.9-3.4 1.4-1.5 2.4-3.3 3.1-5.4.7-2.2 1.1-4.6 1.1-7.3zm6.1 0c0 3.3-.5 6.3-1.6 9.1-1 2.7-2.5 5.1-4.4 7.1-1.9 2-4.2 3.5-6.9 4.6-2.7 1.1-5.6 1.6-8.9 1.6-3.2 0-6.2-.5-8.9-1.6s-4.9-2.7-6.9-4.6c-1.9-2-3.4-4.4-4.4-7.1-1-2.8-1.6-5.8-1.6-9.1s.5-6.3 1.6-9.1c1-2.8 2.5-5.1 4.4-7.1 1.9-2 4.2-3.6 6.9-4.7s5.6-1.7 8.9-1.7c3.2 0 6.2.6 8.9 1.7s5 2.7 6.9 4.7c1.9 2 3.4 4.4 4.4 7.1 1.1 2.8 1.6 5.8 1.6 9.1zm38.3-22v5h-14.3v39h-5.9v-39h-14.3v-5zm33.6 0v4.8h-21.1v14.7h17.1v4.6h-17.1v15.1h21.2l-.1 4.8h-27.1v-44zm14.3 39H265v5h-25v-44h5.9zm31.6 0h19v5h-24.9v-44h5.9zm25.6-39h6v44h-6z"/><path class="stars" fill="#d71923" d="M107.8 30.5l4 12.1 12.8.1-10.3 7.6 3.9 12.1-10.4-7.4-10.3 7.4 3.9-12.1-10.3-7.6 12.7-.1zm78.4-29.1l4.4 13.5h14.2l-11.4 8.4 4.3 13.5-11.5-8.2-11.6 8.2 4.4-13.5-11.5-8.4h14.2zm80.5 22.1l4.5 13.5 14.2.1-11.5 8.4 4.4 13.5-11.6-8.3-11.5 8.3 4.4-13.5-11.5-8.4 14.2-.1z"/></svg>