<svg width="67" height="70" viewBox="0 0 67 70" fill="none" xmlns="http://www.w3.org/2000/svg">
<path d="M7.46226 60.0265C7.12423 59.8415 6.86273 59.58 6.67139 59.242C6.48005 58.8976 6.38438 58.5021 6.38438 58.0365V54.9623H7.45589V58.1131C7.45589 58.4958 7.56431 58.7891 7.77479 58.9932C7.99164 59.1973 8.26589 59.3058 8.60393 59.3058C8.94834 59.3058 9.22897 59.2037 9.43944 58.9932C9.64992 58.7891 9.75834 58.4958 9.75834 58.1131V54.9623H10.8298V58.0365C10.8298 58.4958 10.7342 58.8976 10.5428 59.242C10.3515 59.5864 10.0836 59.8479 9.74559 60.0265C9.40755 60.2114 9.03125 60.3007 8.60393 60.3007C8.1766 60.3007 7.79392 60.2114 7.46226 60.0265ZM11.9269 54.9623H12.9984V60.2051H11.9269V54.9623ZM16.7231 60.2051L15.1414 58.0302V60.2051H14.0699V54.9623H15.1414V57.9473L16.5573 56.2698H17.8457L16.3532 58.0174L17.9477 60.1987H16.7231V60.2051ZM19.1659 60.0265C18.847 59.8479 18.5919 59.5992 18.4069 59.2866C18.222 58.9741 18.1263 58.6233 18.1263 58.2406C18.1263 57.858 18.222 57.5135 18.4069 57.201C18.5919 56.8885 18.847 56.6398 19.1723 56.4612C19.4976 56.2826 19.8483 56.1933 20.231 56.1933C20.6137 56.1933 20.9645 56.2826 21.2898 56.4612C21.6151 56.6398 21.8702 56.8885 22.0615 57.201C22.2529 57.5135 22.3485 57.858 22.3485 58.2406C22.3485 58.6233 22.2529 58.9677 22.0615 59.2866C21.8702 59.5992 21.6151 59.8479 21.2898 60.0265C20.9645 60.2051 20.6137 60.2944 20.2246 60.2944C19.842 60.2944 19.4848 60.2051 19.1659 60.0265ZM20.9581 59.006C21.1495 58.8019 21.2451 58.5532 21.2451 58.2406C21.2451 57.9281 21.1495 57.6794 20.9581 57.4689C20.7668 57.2648 20.5244 57.1564 20.231 57.1564C19.9313 57.1564 19.6889 57.2584 19.4976 57.4625C19.3062 57.6666 19.2105 57.9217 19.2105 58.2343C19.2105 58.5468 19.3062 58.8019 19.4976 58.9996C19.6889 59.1973 19.9313 59.2994 20.231 59.2994C20.5244 59.3058 20.7668 59.2101 20.9581 59.006ZM28.8605 56.6206C29.122 56.9076 29.2559 57.2903 29.2559 57.7687V60.2051H28.1844V57.9217C28.1844 57.6921 28.1206 57.5008 27.9931 57.3669C27.8655 57.2265 27.6933 57.1628 27.4828 57.1628C27.2723 57.1628 27.1001 57.2329 26.9598 57.3669C26.8259 57.5072 26.7557 57.6794 26.7557 57.8962V60.2051H25.6842V57.9217C25.6842 57.6921 25.6204 57.5008 25.4929 57.3669C25.3653 57.2265 25.1995 57.1628 24.9826 57.1628C24.7658 57.1628 24.5936 57.2329 24.4596 57.3669C24.3257 57.5072 24.2619 57.6921 24.2619 57.9217V60.2114H23.1904V56.2826H24.1726V56.6334C24.3066 56.4931 24.466 56.391 24.6574 56.3145C24.8487 56.2379 25.0592 56.1997 25.2824 56.1997C25.799 56.1997 26.1881 56.3846 26.4496 56.7609C26.6027 56.5887 26.794 56.4484 27.0172 56.3464C27.2404 56.2443 27.4892 56.1933 27.7571 56.1933C28.229 56.1869 28.5926 56.3336 28.8605 56.6206ZM30.3465 55.5555C30.2126 55.4279 30.1424 55.2749 30.1424 55.0899C30.1424 54.8986 30.2126 54.7391 30.3465 54.6116C30.4805 54.484 30.6463 54.4202 30.8376 54.4202C31.029 54.4202 31.1884 54.484 31.3224 54.6116C31.4563 54.7391 31.5201 54.8986 31.5201 55.0899C31.5201 55.2749 31.4563 55.4343 31.3224 55.5555C31.1884 55.6831 31.029 55.7468 30.8376 55.7468C30.6463 55.7405 30.4805 55.6767 30.3465 55.5555ZM30.2955 56.2762H31.367V60.2051H30.2955V56.2762ZM35.6658 56.6206C35.9273 56.9076 36.0612 57.2903 36.0612 57.7687V60.2051H34.9961V57.909C34.9961 57.6794 34.9259 57.4944 34.792 57.3541C34.6581 57.2138 34.4795 57.1436 34.2626 57.1436C34.0458 57.1436 33.8672 57.2138 33.7269 57.3541C33.5866 57.4944 33.5164 57.6794 33.5164 57.909V60.2051H32.4449V56.2762H33.4271V56.6334C33.5674 56.4931 33.7333 56.3846 33.931 56.3081C34.1287 56.2316 34.3455 56.1869 34.5752 56.1869C35.0407 56.1869 35.3979 56.3336 35.6658 56.6206ZM37.1519 55.5555C37.0179 55.4279 36.9478 55.2749 36.9478 55.0899C36.9478 54.8986 37.0179 54.7391 37.1519 54.6116C37.2858 54.484 37.4516 54.4202 37.643 54.4202C37.8343 54.4202 37.9938 54.484 38.1277 54.6116C38.2616 54.7391 38.3254 54.8986 38.3254 55.0899C38.3254 55.2749 38.2616 55.4343 38.1277 55.5555C37.9938 55.6831 37.8343 55.7468 37.643 55.7468C37.4516 55.7405 37.2858 55.6767 37.1519 55.5555ZM37.1008 56.2762H38.1723V60.2051H37.1008V56.2762ZM39.5946 60.0966C39.314 59.9627 39.0844 59.7777 38.9058 59.5354L39.4479 58.8848C39.7924 59.242 40.1623 59.4142 40.5513 59.4142C40.6917 59.4142 40.8128 59.3887 40.9085 59.3313C41.0042 59.2739 41.0488 59.1973 41.0488 59.0889C41.0488 59.006 41.0169 58.9422 40.9595 58.8976C40.8958 58.8529 40.7937 58.7955 40.647 58.7317L40.2261 58.5595C39.8689 58.4128 39.5946 58.247 39.4224 58.0684C39.2439 57.8898 39.1546 57.6539 39.1546 57.3605C39.1546 56.9905 39.2885 56.6972 39.5564 56.4931C39.8243 56.2826 40.1687 56.1805 40.6024 56.1805C41.1891 56.1805 41.6611 56.3783 42.0183 56.7737L41.4762 57.4306C41.2147 57.1819 40.9149 57.0543 40.596 57.0543C40.4621 57.0543 40.36 57.0798 40.2835 57.1245C40.2069 57.1691 40.175 57.2393 40.175 57.3286C40.175 57.4051 40.2069 57.4625 40.2643 57.5135C40.3281 57.5646 40.4302 57.6156 40.5832 57.6794L40.9659 57.8388C41.3486 57.9919 41.6292 58.1577 41.8014 58.3363C41.98 58.5149 42.0693 58.7509 42.0693 59.0379C42.0693 59.4269 41.9226 59.7395 41.6356 59.9627C41.3486 60.1859 40.9787 60.2944 40.5386 60.2944C40.1878 60.3007 39.8753 60.2369 39.5946 60.0966ZM45.4688 59.3313V60.2051C45.2137 60.2688 44.9713 60.3007 44.7289 60.3007C44.2315 60.3007 43.8424 60.1795 43.5681 59.9308C43.2939 59.6821 43.1536 59.3121 43.1536 58.821V57.1755H42.5413V56.2698H43.16V55.3578H44.2315V56.2698H45.3412V57.1755H44.2315V58.7254C44.2315 58.9486 44.2889 59.108 44.4037 59.1973C44.5185 59.293 44.7034 59.3377 44.9585 59.3377L45.4688 59.3313ZM49.8313 58.6042H47.076C47.1398 58.8529 47.2674 59.0443 47.4587 59.1782C47.6501 59.3121 47.8924 59.3823 48.1794 59.3823C48.5685 59.3823 48.932 59.2484 49.2765 58.9869L49.7229 59.7203C49.2573 60.1094 48.7343 60.3071 48.1475 60.3071C47.7394 60.3071 47.3694 60.2178 47.0442 60.0392C46.7189 59.8606 46.4574 59.6119 46.2724 59.2994C46.0875 58.9869 45.9918 58.6361 45.9918 58.2534C45.9918 57.8707 46.0811 57.5263 46.2597 57.2074C46.4382 56.8949 46.687 56.6461 46.9995 56.4675C47.312 56.289 47.6628 56.1997 48.0455 56.1997C48.4027 56.1997 48.7279 56.2826 49.0086 56.442C49.2892 56.6015 49.5061 56.8247 49.6655 57.099C49.8186 57.3796 49.9015 57.6857 49.9015 58.0238C49.9015 58.2024 49.876 58.4001 49.8313 58.6042ZM47.4141 57.2712C47.2419 57.4115 47.1334 57.6092 47.0697 57.8516H48.8555C48.8491 57.6092 48.7662 57.4179 48.6004 57.2712C48.4346 57.1309 48.2368 57.0543 48.0072 57.0543C47.784 57.0543 47.5863 57.1245 47.4141 57.2712ZM53.1798 56.2762V57.2202H52.8928C52.5675 57.2202 52.3124 57.3031 52.121 57.4753C51.9297 57.6475 51.834 57.9026 51.834 58.2406V60.2051H50.7689V56.2762H51.7511V56.7418C51.8851 56.576 52.0445 56.4484 52.2295 56.3591C52.4144 56.2698 52.6185 56.2252 52.8354 56.2252C52.9629 56.2252 53.0841 56.2443 53.1798 56.2762ZM53.875 55.5555C53.7411 55.4279 53.6709 55.2749 53.6709 55.0899C53.6709 54.8986 53.7411 54.7391 53.875 54.6116C54.0089 54.484 54.1748 54.4202 54.3661 54.4202C54.5574 54.4202 54.7169 54.484 54.8508 54.6116C54.9848 54.7391 55.0485 54.8986 55.0485 55.0899C55.0485 55.2749 54.9848 55.4343 54.8508 55.5555C54.7169 55.6831 54.5574 55.7468 54.3661 55.7468C54.1748 55.7468 54.0089 55.6767 53.875 55.5555ZM53.824 56.2762H54.8955V60.2051H53.824V56.2762ZM56.777 60.0265C56.4581 59.8479 56.203 59.5992 56.018 59.2866C55.833 58.9741 55.7374 58.6233 55.7374 58.2406C55.7374 57.858 55.833 57.5135 56.018 57.201C56.203 56.8885 56.4581 56.6398 56.7834 56.4612C57.1023 56.2826 57.4594 56.1933 57.8421 56.1933C58.2248 56.1933 58.5756 56.2826 58.9009 56.4612C59.2261 56.6398 59.4813 56.8885 59.6726 57.201C59.8639 57.5135 59.9596 57.858 59.9596 58.2406C59.9596 58.6233 59.8639 58.9677 59.6726 59.2866C59.4813 59.5992 59.2261 59.8479 58.9009 60.0265C58.5756 60.2051 58.2248 60.2944 57.8357 60.2944C57.4467 60.2944 57.0959 60.2051 56.777 60.0265ZM56.4517 55.5108C56.3178 55.3897 56.254 55.243 56.254 55.0835C56.254 54.9113 56.3178 54.7582 56.4453 54.6371C56.5729 54.5159 56.726 54.4521 56.8918 54.4521C57.064 54.4521 57.2171 54.5159 57.3446 54.6371C57.4722 54.7582 57.536 54.9049 57.536 55.0835C57.536 55.2494 57.4722 55.3897 57.3446 55.5108C57.2171 55.632 57.064 55.6958 56.8918 55.6958C56.7323 55.6958 56.5856 55.632 56.4517 55.5108ZM58.5692 59.006C58.7605 58.8019 58.8562 58.5532 58.8562 58.2406C58.8562 57.9281 58.7605 57.6794 58.5692 57.4689C58.3779 57.2584 58.1355 57.1564 57.8421 57.1564C57.5423 57.1564 57.3 57.2584 57.1086 57.4625C56.9173 57.6666 56.8216 57.9217 56.8216 58.2343C56.8216 58.5468 56.9173 58.8019 57.1086 58.9996C57.3 59.1973 57.5423 59.2994 57.8421 59.2994C58.1355 59.3058 58.3779 59.2101 58.5692 59.006ZM58.346 55.5108C58.212 55.3897 58.1483 55.243 58.1483 55.0835C58.1483 54.9113 58.212 54.7582 58.346 54.6371C58.4735 54.5159 58.6266 54.4521 58.7924 54.4521C58.9646 54.4521 59.1177 54.5159 59.2453 54.6371C59.3728 54.7582 59.4366 54.9049 59.4366 55.0835C59.4366 55.2494 59.3728 55.3897 59.2453 55.5108C59.1177 55.632 58.9646 55.6958 58.7924 55.6958C58.6266 55.6958 58.4735 55.632 58.346 55.5108ZM1.07788 69.0641C0.739848 68.8791 0.47835 68.6176 0.28701 68.2796C0.09567 67.9352 0 67.5398 0 67.0742V64H1.0715V67.1507C1.0715 67.5334 1.17993 67.8268 1.3904 68.0309C1.60726 68.235 1.88151 68.3434 2.21955 68.3434C2.56396 68.3434 2.84459 68.2413 3.05506 68.0309C3.26554 67.8268 3.37396 67.5334 3.37396 67.1507V64H4.44547V67.0742C4.44547 67.5334 4.3498 67.9352 4.15846 68.2796C3.96712 68.624 3.69924 68.8855 3.36759 69.0641C3.02955 69.2491 2.65325 69.3384 2.22592 69.3384C1.79222 69.3384 1.40954 69.2491 1.07788 69.0641ZM8.07455 68.3689V69.2427C7.81943 69.3065 7.57707 69.3384 7.3347 69.3384C6.83722 69.3384 6.44816 69.2172 6.17391 68.9684C5.89965 68.7197 5.75934 68.3498 5.75934 67.8587V66.2131H5.14067V65.3075H5.75934V64.3954H6.83084V65.3075H7.94061V66.2131H6.83084V67.763C6.83084 67.9862 6.88824 68.1457 7.00305 68.235C7.11785 68.3243 7.30281 68.3753 7.55793 68.3753L8.07455 68.3689ZM11.3337 65.3138V66.2578H11.0467C10.7214 66.2578 10.4663 66.3407 10.275 66.5129C10.0836 66.6851 9.98795 66.9402 9.98795 67.2783V69.2427H8.91645V65.3138H9.89866V65.7794C10.0326 65.6136 10.192 65.486 10.377 65.3968C10.562 65.3075 10.7661 65.2628 10.9829 65.2628C11.1169 65.2628 11.2317 65.282 11.3337 65.3138ZM12.0289 64.5867C11.895 64.4592 11.8248 64.3061 11.8248 64.1212C11.8248 63.9298 11.895 63.7704 12.0289 63.6428C12.1629 63.5152 12.3287 63.4515 12.52 63.4515C12.7114 63.4515 12.8708 63.5152 13.0047 63.6428C13.1387 63.7704 13.2025 63.9298 13.2025 64.1212C13.2025 64.3061 13.1387 64.4656 13.0047 64.5867C12.8708 64.7143 12.7114 64.7781 12.52 64.7781C12.3223 64.7781 12.1629 64.7143 12.0289 64.5867ZM11.9779 65.3138H13.0494V69.2427H11.9779V65.3138ZM16.7805 69.2427L15.1988 67.0678V69.2427H14.1273V64H15.1988V66.9849L16.6147 65.3075H17.9031L16.4106 67.055L18.0051 69.2363H16.7805V69.2427ZM22.0232 67.6418H19.2679C19.3317 67.8906 19.4593 68.0819 19.6506 68.2158C19.842 68.3498 20.0843 68.4199 20.3713 68.4199C20.7604 68.4199 21.1239 68.286 21.4684 68.0245L21.9148 68.758C21.4492 69.147 20.9262 69.3447 20.3395 69.3447C19.9313 69.3447 19.5613 69.2554 19.2361 69.0769C18.9108 68.8983 18.6493 68.6495 18.4643 68.337C18.2794 68.0245 18.1837 67.6737 18.1837 67.291C18.1837 66.9083 18.273 66.5639 18.4516 66.245C18.6301 65.9325 18.8789 65.6838 19.1914 65.5052C19.5039 65.3266 19.8547 65.2373 20.2374 65.2373C20.5946 65.2373 20.9199 65.3202 21.2005 65.4797C21.4811 65.6391 21.698 65.8624 21.8574 66.1366C22.0105 66.4172 22.0934 66.7234 22.0934 67.0614C22.0934 67.24 22.0679 67.4377 22.0232 67.6418ZM19.606 66.3024C19.4338 66.4427 19.3253 66.6405 19.2616 66.8828H21.0474C21.041 66.6405 20.9581 66.4491 20.7923 66.3024C20.6265 66.1621 20.4287 66.0856 20.1991 66.0856C19.9759 66.092 19.7782 66.1621 19.606 66.3024ZM23.2606 69.1343C22.9799 69.0003 22.7503 68.8154 22.5718 68.573L23.1139 67.9224C23.4583 68.2796 23.8282 68.4518 24.2173 68.4518C24.3576 68.4518 24.4788 68.4263 24.5744 68.3689C24.6701 68.3115 24.7148 68.235 24.7148 68.1265C24.7148 68.0436 24.6829 67.9798 24.6255 67.9352C24.5617 67.8906 24.4596 67.8332 24.3129 67.7694L23.892 67.5972C23.5348 67.4505 23.2606 67.2846 23.0884 67.1061C22.9098 66.9275 22.8205 66.6915 22.8205 66.3981C22.8205 66.0282 22.9544 65.7348 23.2223 65.5307C23.4902 65.3202 23.8346 65.2182 24.2683 65.2182C24.8551 65.2182 25.3271 65.4159 25.6842 65.8113L25.1421 66.4683C24.8806 66.2195 24.5808 66.092 24.2619 66.092C24.128 66.092 24.0259 66.1175 23.9494 66.1621C23.8729 66.2068 23.841 66.2769 23.841 66.3662C23.841 66.4427 23.8729 66.5002 23.9303 66.5512C23.994 66.6022 24.0961 66.6532 24.2492 66.717L24.6318 66.8765C25.0145 67.0295 25.2952 67.1953 25.4674 67.3739C25.646 67.5525 25.7352 67.7885 25.7352 68.0755C25.7352 68.4646 25.5886 68.7771 25.3015 68.9939C25.0145 69.2172 24.6446 69.3256 24.2045 69.3256C23.8537 69.3384 23.5412 69.2682 23.2606 69.1343ZM32.2344 65.6583C32.4959 65.9453 32.6299 66.3279 32.6299 66.8063V69.2427H31.5584V66.953C31.5584 66.7234 31.4946 66.532 31.367 66.3981C31.2395 66.2578 31.0673 66.194 30.8568 66.194C30.6463 66.194 30.4741 66.2642 30.3338 66.3981C30.1998 66.5384 30.1297 66.7106 30.1297 66.9275V69.2363H29.0582V66.9466C29.0582 66.717 28.9944 66.5257 28.8668 66.3917C28.7393 66.2514 28.5735 66.1876 28.3566 66.1876C28.1397 66.1876 27.9675 66.2578 27.8336 66.3917C27.6997 66.532 27.6359 66.717 27.6359 66.9466V69.2363H26.5644V65.3075H27.553V65.6583C27.6869 65.5179 27.8464 65.4159 28.0377 65.3394C28.229 65.2628 28.4395 65.2245 28.6627 65.2245C29.1794 65.2245 29.5684 65.4095 29.8299 65.7858C29.983 65.6136 30.1743 65.4733 30.3976 65.3712C30.6208 65.2692 30.8695 65.2182 31.1374 65.2182C31.603 65.2246 31.9666 65.3712 32.2344 65.6583ZM33.7333 64.5867C33.5993 64.4592 33.5292 64.3061 33.5292 64.1212C33.5292 63.9298 33.5993 63.7704 33.7333 63.6428C33.8672 63.5152 34.033 63.4515 34.2244 63.4515C34.4157 63.4515 34.5752 63.5152 34.7091 63.6428C34.843 63.7704 34.9068 63.9298 34.9068 64.1212C34.9068 64.3061 34.843 64.4656 34.7091 64.5867C34.5752 64.7079 34.4157 64.7781 34.2244 64.7781C34.0266 64.7781 33.8672 64.7143 33.7333 64.5867ZM33.6759 65.3138H34.7474V69.2427H33.6759V65.3138ZM39.0461 65.6583C39.3076 65.9453 39.4416 66.3279 39.4416 66.8063V69.2427H38.3764V66.9466C38.3764 66.717 38.3063 66.532 38.1723 66.3917C38.0384 66.2514 37.8598 66.1812 37.643 66.1812C37.4261 66.1812 37.2475 66.2514 37.1072 66.3917C36.9669 66.532 36.8967 66.717 36.8967 66.9466V69.2427H35.8252V65.3138H36.8075V65.671C36.9478 65.5307 37.1136 65.4223 37.3113 65.3457C37.509 65.2692 37.7259 65.2245 37.9555 65.2245C38.4211 65.2245 38.7846 65.3712 39.0461 65.6583ZM40.5386 64.5867C40.4046 64.4592 40.3345 64.3061 40.3345 64.1212C40.3345 63.9298 40.4046 63.7704 40.5386 63.6428C40.6725 63.5152 40.8384 63.4515 41.0297 63.4515C41.221 63.4515 41.3805 63.5152 41.5144 63.6428C41.6484 63.7704 41.7121 63.9298 41.7121 64.1212C41.7121 64.3061 41.6484 64.4656 41.5144 64.5867C41.3805 64.7079 41.221 64.7781 41.0297 64.7781C40.832 64.7781 40.6725 64.7143 40.5386 64.5867ZM40.4876 65.3138H41.5591V69.2427H40.4876V65.3138ZM42.975 69.1343C42.6944 69.0003 42.4647 68.8154 42.2862 68.573L42.8283 67.9224C43.1727 68.2796 43.5426 68.4518 43.9317 68.4518C44.072 68.4518 44.1932 68.4263 44.2889 68.3689C44.3845 68.3115 44.4292 68.235 44.4292 68.1265C44.4292 68.0436 44.3973 67.9798 44.3399 67.9352C44.2761 67.8906 44.174 67.8332 44.0274 67.7694L43.6064 67.5972C43.2492 67.4505 42.975 67.2846 42.8028 67.1061C42.6242 66.9275 42.5349 66.6915 42.5349 66.3981C42.5349 66.0282 42.6688 65.7348 42.9367 65.5307C43.2046 65.3202 43.549 65.2182 43.9827 65.2182C44.5695 65.2182 45.0415 65.4159 45.3986 65.8113L44.8565 66.4683C44.595 66.2195 44.2952 66.092 43.9763 66.092C43.8424 66.092 43.7403 66.1175 43.6638 66.1621C43.5873 66.2068 43.5554 66.2769 43.5554 66.3662C43.5554 66.4427 43.5873 66.5002 43.6447 66.5512C43.7085 66.6022 43.8105 66.6532 43.9636 66.717L44.3463 66.8765C44.7289 67.0295 45.0096 67.1953 45.1818 67.3739C45.3604 67.5525 45.4496 67.7885 45.4496 68.0755C45.4496 68.4646 45.303 68.7771 45.0159 68.9939C44.7289 69.2172 44.359 69.3256 43.9189 69.3256C43.5681 69.3384 43.2556 69.2682 42.975 69.1343ZM48.8555 68.3689V69.2427C48.6004 69.3065 48.358 69.3384 48.1157 69.3384C47.6182 69.3384 47.2291 69.2172 46.9549 68.9684C46.6806 68.7197 46.5403 68.3498 46.5403 67.8587V66.2131H45.9216V65.3075H46.5403V64.3954H47.6118V65.3075H48.7279V66.2131H47.6182V67.763C47.6182 67.9862 47.6756 68.1457 47.7904 68.235C47.9052 68.3243 48.0901 68.3753 48.3453 68.3753L48.8555 68.3689ZM53.2117 67.6418H50.4564C50.5202 67.8906 50.6477 68.0819 50.8391 68.2158C51.0304 68.3498 51.2728 68.4199 51.5598 68.4199C51.9488 68.4199 52.3124 68.286 52.6568 68.0245L53.1033 68.758C52.6377 69.147 52.1147 69.3447 51.5279 69.3447C51.1197 69.3447 50.7498 69.2554 50.4245 69.0769C50.0992 68.8983 49.8377 68.6495 49.6528 68.337C49.4678 68.0245 49.3721 67.6737 49.3721 67.291C49.3721 66.9083 49.4614 66.5639 49.64 66.245C49.8186 65.9325 50.0673 65.6838 50.3798 65.5052C50.6924 65.3266 51.0432 65.2373 51.4258 65.2373C51.783 65.2373 52.1083 65.3202 52.3889 65.4797C52.6696 65.6391 52.8864 65.8624 53.0459 66.1366C53.1989 66.4172 53.2818 66.7234 53.2818 67.0614C53.2882 67.24 53.2627 67.4377 53.2117 67.6418ZM50.8008 66.3024C50.6286 66.4427 50.5202 66.6405 50.4564 66.8828H52.2422C52.2358 66.6405 52.1529 66.4491 51.9871 66.3024C51.8213 66.1621 51.6236 66.0856 51.3939 66.0856C51.1707 66.092 50.9666 66.1621 50.8008 66.3024ZM56.5665 65.3138V66.2578H56.2795C55.9542 66.2578 55.6991 66.3407 55.5078 66.5129C55.3164 66.6851 55.2208 66.9402 55.2208 67.2783V69.2427H54.1492V65.3138H55.1315V65.7794C55.2654 65.6136 55.4249 65.486 55.6098 65.3968C55.7948 65.3075 55.9989 65.2628 56.2157 65.2628C56.3497 65.2628 56.4645 65.282 56.5665 65.3138ZM57.2617 64.5867C57.1278 64.4592 57.0576 64.3061 57.0576 64.1212C57.0576 63.9298 57.1278 63.7704 57.2617 63.6428C57.3957 63.5152 57.5615 63.4515 57.7528 63.4515C57.9442 63.4515 58.1036 63.5152 58.2375 63.6428C58.3715 63.7704 58.4353 63.9298 58.4353 64.1212C58.4353 64.3061 58.3715 64.4656 58.2375 64.5867C58.1036 64.7079 57.9442 64.7781 57.7528 64.7781C57.5615 64.7781 57.3957 64.7143 57.2617 64.5867ZM57.2107 65.3138H58.2822V69.2427H57.2107V65.3138ZM62.9573 67.6418H60.202C60.2658 67.8906 60.3933 68.0819 60.5847 68.2158C60.776 68.3498 61.0184 68.4199 61.3054 68.4199C61.6944 68.4199 62.058 68.286 62.4024 68.0245L62.8488 68.758C62.3833 69.147 61.8602 69.3447 61.2735 69.3447C60.8653 69.3447 60.4954 69.2554 60.1701 69.0769C59.8448 68.8983 59.5833 68.6495 59.3983 68.337C59.2134 68.0245 59.1177 67.6737 59.1177 67.291C59.1177 66.9083 59.207 66.5639 59.3856 66.245C59.5642 65.9325 59.8129 65.6838 60.1254 65.5052C60.438 65.3266 60.7887 65.2373 61.1714 65.2373C61.5286 65.2373 61.8539 65.3202 62.1345 65.4797C62.4151 65.6391 62.632 65.8624 62.7914 66.1366C62.9445 66.4172 63.0274 66.7234 63.0274 67.0614C63.0274 67.24 63.0083 67.4377 62.9573 67.6418ZM60.5464 66.3024C60.3742 66.4427 60.2658 66.6405 60.202 66.8828H61.9878C61.9814 66.6405 61.8985 66.4491 61.7327 66.3024C61.5669 66.1621 61.3691 66.0856 61.1395 66.0856C60.9099 66.092 60.7122 66.1621 60.5464 66.3024ZM66.4014 68.3689V69.2427C66.1463 69.3065 65.9039 69.3384 65.6615 69.3384C65.1641 69.3384 64.775 69.2172 64.5007 68.9684C64.2265 68.7197 64.0862 68.3498 64.0862 67.8587V66.2131H63.4675V65.3075H64.0862V64.3954H65.1577V65.3075H66.2675V66.2131H65.1577V67.763C65.1577 67.9862 65.2151 68.1457 65.3299 68.235C65.4447 68.3243 65.6297 68.3753 65.8848 68.3753L66.4014 68.3689Z" fill="black"/>
<path d="M48.594 39.451C44.4802 43.5712 39.0015 45.8354 33.1784 45.8354C27.3552 45.8354 21.8765 43.5649 17.7627 39.451C16.6848 38.3668 15.7281 37.1932 14.9118 35.9431C15.001 36.0388 15.0903 36.1281 15.186 36.2238C18.4388 39.4766 22.7695 41.2752 27.3744 41.2752C29.3516 41.2752 31.2777 40.9435 33.0891 40.3057C34.9323 40.969 36.9095 41.3198 38.9377 41.3198C43.5554 41.3198 47.8988 39.5212 51.1643 36.2557C51.2472 36.1727 51.3302 36.0898 51.4131 36.0005C50.5967 37.2315 49.6591 38.3859 48.594 39.451ZM53.7857 16.8857C51.6363 14.1049 48.2751 12.3063 44.4929 12.3063C43.1599 12.3063 41.8397 12.5359 40.5896 12.976C40.2643 12.5869 39.9199 12.2106 39.5564 11.847C37.9682 10.2589 36.125 9.02159 34.1223 8.16694C35.6722 7.70134 37.2858 7.45898 38.9313 7.45898C43.3577 7.45898 47.5225 9.18104 50.6541 12.3126C51.7894 13.4479 52.7397 14.7235 53.4923 16.0948C53.6007 16.3563 53.6964 16.6178 53.7857 16.8857ZM39.5627 36.2238C39.9263 35.8602 40.2707 35.4839 40.596 35.0949C41.8269 35.5286 43.1472 35.7646 44.4993 35.7646C48.2751 35.7646 51.6427 33.966 53.7921 31.1852C53.7028 31.453 53.6007 31.7145 53.4987 31.976C52.7461 33.3473 51.7957 34.6229 50.6605 35.7582C47.5289 38.8898 43.364 40.6118 38.9377 40.6118C37.2794 40.6118 35.6658 40.3631 34.1287 39.9039C36.1314 39.0492 37.9746 37.8119 39.5627 36.2238ZM54.7615 20.9229C53.7219 19.2647 51.8787 18.1549 49.7803 18.1549C47.4141 18.1549 45.3667 19.5644 44.4419 21.5863C44.0273 18.6588 42.8729 15.9098 41.0679 13.5564C42.1713 13.1992 43.3258 13.0078 44.4993 13.0078C48.9193 13.0078 52.7397 15.6228 54.4936 19.3858C54.5957 19.9025 54.6914 20.4127 54.7615 20.9229ZM44.6141 24.0354C44.6141 21.1844 46.9293 18.8692 49.7803 18.8692C52.6313 18.8692 54.9465 21.1844 54.9465 24.0354C54.9465 26.8864 52.6313 29.2016 49.7803 29.2016C46.9293 29.2016 44.6141 26.88 44.6141 24.0354ZM44.4355 26.4782C45.3667 28.5 47.4077 29.9095 49.7739 29.9095C51.8723 29.9095 53.7155 28.8062 54.7551 27.1415C54.685 27.6581 54.5893 28.1684 54.4809 28.6722C52.7269 32.4352 48.9065 35.0502 44.4866 35.0502C43.3002 35.0502 42.1522 34.8589 41.0616 34.5017C42.8729 32.1546 44.0273 29.4057 44.4355 26.4782ZM26.3156 34.7823C27.6422 34.2211 29.3707 33.1113 30.4677 31.8612C29.8873 32.212 29.2878 32.3332 28.8222 32.4225C27.9229 33.1751 26.9152 33.7746 25.8437 34.2019C25.3972 33.6279 24.989 33.022 24.6127 32.3842C24.2045 32.3459 23.6815 32.1737 23.6815 32.1737C24.1152 32.9774 24.5999 33.7364 25.1357 34.4507C24.0642 34.7951 22.9353 34.9737 21.7809 34.9737C17.3928 34.9737 13.5979 32.3778 11.8503 28.6339C11.71 27.977 11.5952 27.3137 11.5187 26.6376C12.52 28.449 14.4462 29.6736 16.6593 29.6736C17.4183 29.6736 18.1518 29.5332 18.8534 29.2526C18.8534 29.2526 18.139 28.9592 17.8201 28.8317C17.4438 28.9273 17.0548 28.9592 16.6593 28.9592C13.8147 28.9592 11.4995 26.644 11.4995 23.7994C11.4995 22.4409 12.0225 21.1589 12.9728 20.1831C13.7127 19.4305 14.6375 18.933 15.6516 18.7289C15.8685 18.3654 16.5254 17.9253 16.5254 17.9253C14.9819 17.9572 13.5405 18.5822 12.4626 19.6856C12.1246 20.03 11.8376 20.4127 11.5952 20.8145C11.6653 20.3425 11.7483 19.877 11.8503 19.4177C13.1769 16.5604 15.709 14.3281 18.8789 13.4607L18.6939 12.7782C16.1874 13.4671 14.0571 14.9531 12.5455 16.9176C12.6348 16.6561 12.7305 16.3882 12.8325 16.1267C13.5851 14.749 14.5355 13.4734 15.6707 12.3382C18.7896 9.21931 22.9417 7.49725 27.3552 7.49725C28.9625 7.49725 30.5315 7.72686 32.0303 8.16694C31.1183 8.56237 30.2445 9.03435 29.409 9.58923C29.409 9.58923 29.9128 9.71679 30.1935 9.92727C31.1119 9.35962 32.075 8.88765 33.0699 8.51135C35.2895 9.32773 37.3177 10.6225 39.0397 12.3382C39.3331 12.6315 39.6074 12.9313 39.8753 13.2375C39.4607 13.416 39.0525 13.6138 38.6634 13.837C36.9541 14.8128 35.5892 16.0693 34.5624 17.7467C34.5624 17.7467 34.7729 18.2697 34.7537 18.7736C35.4553 17.2365 37.4133 15.3677 39.0206 14.4493C39.4479 14.2005 39.8944 13.9901 40.3536 13.8051C42.6433 16.7071 43.887 20.266 43.887 24.0227C43.887 27.7729 42.6433 31.3382 40.3536 34.2402C38.0193 33.2963 36.0803 31.6189 34.5369 28.7169C34.4795 29.208 34.0904 29.4758 34.0904 29.4758C35.3788 31.8485 37.4899 33.7938 39.8816 34.8142C39.6138 35.1204 39.3395 35.4201 39.0461 35.7135C37.3241 37.4356 35.2959 38.7239 33.0763 39.5403C30.4741 38.5645 28.1397 36.9317 26.3156 34.7823ZM12.5583 31.1405C14.6949 33.9086 18.037 35.6944 21.7936 35.6944C23.1139 35.6944 24.4022 35.4775 25.614 35.0566C27.3616 37.1677 29.5684 38.8196 32.0494 39.8975C30.5506 40.3376 28.9816 40.5672 27.3744 40.5672C22.9608 40.5672 18.8087 38.8451 15.6899 35.7263C14.5482 34.5846 13.5979 33.309 12.8517 31.9378C12.7432 31.6699 12.6476 31.4084 12.5583 31.1405ZM17.7627 8.61978C21.8829 4.49959 27.3552 2.2354 33.1784 2.2354C39.0015 2.2354 44.4802 4.50596 48.594 8.61978C49.6591 9.6849 50.5967 10.8393 51.4067 12.0639C51.3238 11.981 51.2409 11.8917 51.1579 11.8088C47.8924 8.54324 43.549 6.74464 38.9313 6.74464C36.9159 6.74464 34.9451 7.08906 33.0827 7.75875C31.2713 7.12095 29.3452 6.79567 27.368 6.79567C22.7631 6.79567 18.4324 8.58789 15.1796 11.847C15.0903 11.9363 14.9947 12.032 14.9054 12.1277C15.7281 10.8712 16.6785 9.69766 17.7627 8.61978ZM49.8505 7.36331C45.3986 2.91146 39.4798 0.455933 33.1784 0.455933C26.8769 0.455933 20.9581 2.91146 16.5063 7.36331C12.0544 11.8152 9.59888 17.7339 9.59888 24.0354C9.59888 30.3369 12.0544 36.2557 16.5063 40.7075C20.9581 45.1594 26.8833 47.6149 33.1784 47.6149C39.4734 47.6149 45.3986 45.1594 49.8505 40.7075C54.3023 36.2557 56.7578 30.3305 56.7578 24.0354C56.7578 17.7403 54.3023 11.8152 49.8505 7.36331ZM26.0031 11.1072L26.6855 11.458C26.7302 11.4771 26.7748 11.4835 26.8195 11.4644C27.0682 11.3623 27.4382 11.3113 27.5848 11.458C27.6741 11.5473 27.7379 11.7195 27.6741 11.9172C27.6678 11.9363 27.6741 11.9555 27.6933 11.9682L27.9803 12.1149C28.0249 12.0703 28.0951 11.9874 28.178 11.9044C28.6308 11.4133 29.1283 10.8776 29.4217 10.6607C29.275 10.5714 29.0071 10.514 28.8796 10.597L28.8349 10.6288L28.7903 10.597C28.7265 10.5523 28.6308 10.5268 28.516 10.5268C28.3693 10.5268 28.2482 10.5714 28.1971 10.6097C28.3056 10.7309 28.414 10.8712 28.3757 11.0051C28.3502 11.0944 28.2737 11.1518 28.1461 11.1774C28.1142 11.1837 28.0887 11.1837 28.0696 11.1837C28.0185 11.1837 27.9803 11.171 27.9548 11.1391C27.9101 11.0944 27.9165 11.0307 27.9229 10.9796C27.9293 10.8967 27.9293 10.8457 27.8655 10.7947C27.8081 10.7437 27.7315 10.7755 27.655 10.8138C27.5976 10.8393 27.5466 10.8648 27.4892 10.8648C27.4382 10.8648 27.3616 10.8393 27.3233 10.7309C27.2915 10.6544 27.3042 10.5778 27.3489 10.514C27.419 10.412 27.5721 10.361 27.6933 10.361C27.7507 10.361 27.7953 10.3674 27.84 10.3865C27.8463 10.3674 27.8527 10.3355 27.8527 10.2844C27.8463 10.1888 27.8081 10.074 27.7379 10.0293L27.6869 9.99743L27.706 9.94002C27.7252 9.87624 27.7443 9.63388 27.6614 9.52545C27.6359 9.48719 27.5976 9.47443 27.5466 9.47443C27.4828 9.47443 27.3744 9.49994 27.183 9.6275L27.1256 9.66577L27.081 9.61475C27.0874 9.62112 27.0682 9.61475 27.0363 9.61475C27.0108 9.61475 26.7812 9.62112 26.6792 9.85711C26.8195 9.92727 26.9534 10.074 26.947 10.2207C26.947 10.2717 26.9215 10.3992 26.7302 10.4439C26.5133 10.4949 26.4687 10.3482 26.4432 10.2653C26.424 10.1951 26.4113 10.1569 26.3666 10.125C26.322 10.0995 26.3029 10.1059 26.2582 10.1441C26.2263 10.1696 26.1817 10.2079 26.1243 10.2079C26.0414 10.2079 25.9776 10.1441 25.9393 10.0931C25.85 9.97829 25.8692 9.889 25.8883 9.84435C25.9393 9.73593 26.0796 9.69766 26.1753 9.69766C26.2136 9.69766 26.2518 9.70404 26.2837 9.71042C26.3029 9.67215 26.3156 9.61475 26.3029 9.54459C26.2901 9.47443 26.2455 9.34687 26.0733 9.30222L26.0095 9.28309L26.0159 9.17466C26.0286 9.02159 26.0477 8.76647 25.7352 8.65167C25.7288 9.00883 25.5949 9.49994 25.4737 9.93365C25.3908 10.2398 25.2888 10.6161 25.3079 10.7118L26.0031 11.1072ZM23.8728 15.1062C24.6701 15.1062 25.2951 14.1686 26.2327 14.883L26.2455 14.7427C25.8054 14.2643 25.2058 14.1368 24.6063 14.4046C24.0195 14.6661 23.5539 14.4174 23.5539 13.9773C23.5539 13.7987 23.6624 13.5564 23.9175 13.4543C23.3754 13.4097 22.8715 13.7732 22.8715 14.2005C22.8715 14.7235 23.2797 15.1062 23.8728 15.1062ZM22.9927 12.3382L23.6305 12.1085L24.2173 12.0767C24.2173 12.0767 24.3576 11.7896 24.3703 11.7578L24.3129 11.5728C24.3129 11.5728 24.3448 11.4452 24.4214 11.3368C23.5858 11.3368 23.943 11.3368 23.6369 11.3368L22.9927 11.1072L22.8779 11.3177C22.9353 11.3687 23.031 11.4899 23.031 11.7131C23.031 11.9172 22.9672 12.0129 22.8779 12.1149C22.9034 12.1659 22.9927 12.3382 22.9927 12.3382ZM28.5989 11.981C30.844 11.93 32.8913 11.8853 32.936 11.8853C33.0062 11.8789 33.4143 11.7131 33.6057 11.6111C33.4143 11.5154 33.0317 11.3432 32.936 11.3432C32.8658 11.3432 31.1948 11.3432 29.2112 11.3368C29.0071 11.5473 28.7775 11.7896 28.5989 11.981ZM19.4146 12.1723L19.5422 12.1341V11.3815L19.4146 11.3432C19.185 11.2794 18.9554 11.4516 18.9554 11.6876V11.8215C18.9554 12.0639 19.185 12.2361 19.4146 12.1723ZM22.61 13.18L22.5271 13.0142V12.0639C22.6228 11.9937 22.6865 11.8662 22.6865 11.7259C22.6865 11.5792 22.6228 11.458 22.5271 11.3878V10.4375L22.61 10.2717V10.2079H22.0041V10.2717L22.087 10.4375V13.0206L22.0041 13.1864V13.2502H22.61V13.18ZM20.1417 16.1203C20.129 16.2925 20.2119 16.4583 20.3522 16.554C20.5308 16.6688 20.9007 16.8857 21.1048 17.026L22.2465 15.795C22.1253 15.693 21.9658 15.4761 21.9276 15.3167H20.18C20.1736 15.5718 20.1608 15.8971 20.1417 16.1203ZM30.2381 14.5258C30.2381 15.5208 30.8695 16.0374 31.6157 16.5604C31.7178 16.4711 31.8517 16.3691 32.0048 16.267C31.2522 15.7568 30.6973 15.3422 30.6973 14.5258C30.6973 13.0334 31.9538 12.9186 32.3428 12.9186C33.1465 12.9186 33.9565 13.416 33.9565 14.5258C33.9565 15.2912 33.3569 15.7759 32.9296 16.0502C32.5023 16.3244 32.0048 16.6178 31.6795 16.9558H31.6731C31.5966 16.9367 31.5201 16.9303 31.4499 16.9303C30.3593 16.8538 30.0914 17.7786 30.5251 18.0911C30.5315 18.461 30.7866 18.7608 30.9907 18.7544C31.0864 18.8501 31.2012 18.9394 31.3415 19.0287C31.4563 19.0159 31.6476 18.9458 31.6476 18.9458C31.5647 18.6843 31.2076 18.0401 31.839 17.3576C32.1706 17.0005 32.7957 16.6305 33.3888 16.216C34.0777 15.744 34.4221 15.1827 34.4221 14.5322C34.4221 13.1099 33.3442 12.4657 32.3492 12.4657C31.3734 12.453 30.2381 12.9951 30.2381 14.5258ZM21.3216 12.4785H21.7426V11.0243L21.3216 10.8967V12.4785ZM19.8675 12.4785H20.2884V11.0243L19.8675 10.8967V12.4785ZM20.5882 12.4785H21.0091V11.0243L20.5882 10.8967V12.4785ZM20.3522 14.0092C20.3331 14.3026 20.3012 14.6406 20.2884 14.9786H21.749C21.6661 14.6023 21.5704 14.1176 21.5066 13.7668L21.6852 12.7846L20.0907 12.7655L20.3012 13.5436C20.3458 13.6967 20.3586 13.8497 20.3522 14.0092ZM22.4888 16.0246L21.4683 17.1791C22.1061 17.5936 22.6929 18.0273 22.8715 18.1421C23.235 17.9061 23.5922 17.5362 23.8218 17.2237C23.6624 17.0643 23.4455 16.7964 23.3435 16.554C23.0501 16.3754 22.795 16.2096 22.4888 16.0246ZM20.8497 25.4386C20.7731 25.5215 20.7221 25.5789 20.6902 25.6746C20.4032 25.7639 20.1736 26.0126 20.1609 26.3506C21.0027 26.1593 21.4173 26.1657 22.1635 26.2741C22.2082 26.3379 22.2018 26.3889 22.2018 26.3889C22.2018 26.3889 21.4237 26.3953 20.9517 26.6057C20.9262 26.6823 20.9198 26.778 20.9326 26.8545C20.7476 27.1415 20.7795 27.4285 20.9964 27.6964C21.7872 26.5101 23.5284 26.4718 23.1011 27.8048C23.5157 27.8813 23.7836 27.5242 23.9558 27.116C24.128 26.7078 23.892 26.0891 24.6765 25.9743C24.9954 25.9233 25.2951 25.8595 25.7033 25.7383C25.6906 25.598 25.5439 25.2855 25.4291 25.1516C25.6587 25.1516 25.9712 25.4194 26.0796 25.598C26.1817 25.5534 26.3029 25.4896 26.4049 25.4386C26.3666 25.2983 26.086 24.9538 25.9457 24.8263C26.1817 24.8518 26.5963 25.1005 26.7302 25.2664C26.8195 25.209 26.9088 25.1516 26.9917 25.0942C26.947 24.9538 26.7238 24.6413 26.5389 24.5074C26.7366 24.5074 27.1575 24.7306 27.2915 24.8646C27.3808 24.788 27.47 24.7051 27.5466 24.6158C27.2022 23.7038 27.7953 23.2382 28.8094 22.7726C28.8604 22.7471 29.0837 22.6578 29.2686 22.5621C29.1921 22.2241 29.0964 21.4587 29.1347 21.0696C28.6117 20.9166 27.7953 20.8209 27.3935 20.8209C26.7493 21.076 25.4546 22.0136 25.0847 22.5621C25.9074 23.1297 25.4801 25.6427 23.1202 25.3238C22.5207 25.2409 22.2783 24.6796 21.9212 24.4627C21.8446 24.4755 21.749 24.5138 21.6597 24.5712C21.3599 24.4564 20.9964 24.5329 20.7859 24.8263C21.4811 24.9475 21.8893 25.3046 22.1635 25.6554C22.1572 25.6873 22.1444 25.7256 22.1444 25.7256C22.1444 25.7256 21.2706 25.4386 20.8497 25.4386ZM31.8135 22.5557C31.7752 22.4537 31.7433 22.3452 31.7242 22.2241C31.5839 22.173 31.2267 22.1284 31.0991 22.1093C31.1374 21.9498 31.4946 21.8924 31.6795 21.8733C31.6731 21.7521 31.6668 21.6245 31.6731 21.5033C31.5456 21.4651 31.2331 21.4013 31.1246 21.3885C31.1629 21.2227 31.5073 21.1844 31.6987 21.1717C31.7178 21.0441 31.7369 20.9357 31.7688 20.84C31.8262 20.8464 31.89 20.8464 31.9538 20.8464C32.2217 20.8464 32.4513 20.84 32.7191 20.738C33.4973 20.4255 34.0394 19.7175 34.0394 18.9011C34.0394 18.0528 33.4654 17.364 32.9169 16.9048L32.5342 17.1854C33.0572 17.6 33.5419 18.1549 33.5419 18.8629C33.5419 19.4305 33.1528 19.9535 32.5469 20.1959C32.1005 20.3744 31.5137 20.3744 31.0162 19.9535C29.9511 18.9458 28.0696 17.1599 27.8719 16.9686C26.8259 17.836 25.5056 18.021 24.1471 17.3576C23.2797 18.5631 21.6533 19.2073 20.7987 19.2583C19.8483 19.3157 19.0957 18.831 18.8342 18.021C18.7513 18.0146 18.6493 18.0337 18.5472 18.0656C18.2857 17.8743 17.903 17.8615 17.6288 18.0975C18.2028 18.3016 18.5536 18.7863 18.7832 19.2392C18.7704 19.2647 18.7641 19.2838 18.7449 19.3029C18.375 19.0095 17.9732 18.8182 17.565 18.7162C17.4757 18.7736 17.4056 18.8246 17.3545 18.9011C17.0484 18.9075 16.755 19.1052 16.6593 19.4305C17.6224 19.2838 18.3814 19.6729 18.6365 19.8387C18.6493 19.877 18.6493 19.9152 18.6429 19.9407C18.426 19.9088 17.9604 19.928 17.5459 20.0619C17.514 20.1448 17.5076 20.2405 17.514 20.3425C17.2525 20.5785 17.1759 20.9867 17.3928 21.312C18.1008 20.1831 19.657 20.2341 19.4975 21.0122C19.4274 21.1908 19.2616 21.312 19.0575 21.4077C19.4401 21.6883 20.1927 21.3439 20.6775 20.553C21.041 19.9599 22.5335 19.743 23.0373 20.4574C23.1904 20.4382 23.3307 20.3936 23.4647 20.3362C23.4264 20.1831 23.2032 19.8196 23.0118 19.6601C23.3562 19.692 23.6815 19.9535 23.8282 20.1385C23.943 20.081 24.0132 20.0364 24.1088 19.9535C24.0706 19.8004 23.8728 19.5262 23.7262 19.3667C23.9239 19.3731 24.281 19.5644 24.4022 19.692C24.4724 19.6218 24.5999 19.4815 24.651 19.4177C26.0924 20.7316 27.9739 20.2277 29.5429 20.8081C29.3707 21.8095 29.6258 23.5634 30.4422 24.2714C31.8709 23.5571 32.8212 25.1835 32.4704 26.4909C32.3492 26.9565 31.7943 27.1032 30.9397 26.8226C30.8312 26.9055 30.7611 27.0522 30.7483 27.2053C30.4868 27.3584 30.321 27.6709 30.3975 28.0089C30.8057 27.6709 31.3479 27.5561 31.9091 27.6262C31.9091 27.6581 31.9091 27.7028 31.9091 27.7028C31.9091 27.7028 30.9843 27.9069 30.7292 28.2704C30.7292 28.3469 30.7611 28.4426 30.8185 28.5383C30.742 28.838 30.8504 29.1825 31.1565 29.361C31.2458 28.3342 32.126 28.1237 32.126 28.1237C32.126 28.1237 32.1515 28.162 32.177 28.1875C31.9538 28.3406 31.7688 28.7041 31.7561 29.0166C31.7943 29.0549 31.8517 29.0932 31.9219 29.1251C31.9346 29.4503 32.1643 29.7629 32.5278 29.8266C32.2472 29.023 32.5469 28.5 32.7765 28.2832C33.0062 28.0663 33.2932 27.977 33.5164 28.2194C33.6567 28.398 33.6567 28.6276 33.5929 28.8763C33.9437 28.6977 34.1032 28.2513 33.9565 27.9706C33.6376 27.3456 33.5483 26.6695 33.5865 26.0509C33.4845 26.0126 33.2549 25.9679 33.1146 25.9679C33.1784 25.8404 33.4717 25.7447 33.6184 25.7383C33.6376 25.6044 33.6631 25.4386 33.695 25.311C33.5802 25.2409 33.3187 25.1452 33.1465 25.1133C33.2485 24.973 33.5993 24.9794 33.7843 24.9921C33.8289 24.8454 33.8799 24.6923 33.931 24.5712C33.8672 24.4882 33.6376 24.3543 33.4717 24.3097C33.5993 24.1949 33.9246 24.214 34.0968 24.2714C34.1542 24.1757 34.2116 24.0992 34.2626 24.0545C33.8162 23.5507 32.4385 22.7279 31.8135 22.5557ZM25.1548 11.9682C25.1803 11.9044 25.2441 11.8726 25.3079 11.8981L25.8118 12.0894C25.8437 12.1022 25.8692 12.1341 25.8628 12.1723L25.8564 12.2744L25.4227 12.4274C25.3462 12.4402 25.276 12.3956 25.2569 12.3254L25.2377 12.2233C25.225 12.1596 25.1931 12.1022 25.1421 12.0639L25.1166 12.0448L25.1548 11.9682ZM24.7147 11.8981C24.6446 12.0384 24.3703 12.5104 24.2492 12.74C24.2236 12.791 24.23 12.8548 24.2747 12.893L24.4469 13.0525C24.4724 13.078 24.5106 13.0844 24.5425 13.0652C24.6382 13.0206 24.8487 12.9313 24.8933 12.9122C24.9252 12.9377 24.9699 13.0461 24.9762 13.1035C24.8933 13.1482 24.6446 13.2693 24.5744 13.3331C24.5425 13.4862 24.5489 13.5755 24.6255 13.6903C24.8997 13.6903 24.9826 13.7987 24.9826 14.0602H25.1867C25.2569 13.703 25.4036 13.4415 25.7926 13.4415C26.1498 13.4415 26.5261 13.8115 26.5261 14.5194C26.5261 15.3231 26.3029 15.7121 25.7862 15.7121C25.3781 15.7121 25.2377 15.3805 25.174 14.985C25.1293 14.985 25.0336 14.9786 25.0209 14.9786C24.466 15.2784 24.1471 16.318 23.6943 16.4392C23.7325 16.5094 23.7836 16.5795 23.8346 16.6433C23.8856 16.7071 23.9749 16.7326 24.0578 16.7007C24.2492 16.6306 24.4915 16.4902 24.6255 16.3499C24.6127 16.5987 24.4788 16.8155 24.2874 17.0324C24.3703 17.0834 24.4596 17.1344 24.5553 17.1727C24.6318 17.2046 24.7275 17.1918 24.7849 17.128C24.9188 16.9877 25.0719 16.7645 25.174 16.5859C25.2059 16.8474 25.1803 17.0961 25.0719 17.3449C25.1548 17.364 25.2314 17.3768 25.3079 17.3895C25.4355 17.4087 25.5694 17.3449 25.6332 17.2301C25.7225 17.0515 25.7735 16.8283 25.8118 16.6497C25.9074 16.892 25.9712 17.1153 25.9776 17.4023C26.0669 17.3959 26.1562 17.3832 26.2391 17.3704C26.373 17.3449 26.4751 17.2365 26.4815 17.1025C26.4942 16.892 26.5006 16.6369 26.4815 16.452C26.6537 16.7198 26.7876 17.0451 26.8514 17.1918C26.947 17.1535 27.0619 17.0898 27.1639 17.0324C27.2851 16.9622 27.3297 16.8155 27.2787 16.688C27.2022 16.503 27.132 16.3244 27.0746 16.1139C27.2149 16.2861 27.4063 16.4265 27.5848 16.5221C27.6805 16.5731 27.7953 16.5476 27.8655 16.4647C27.9293 16.3882 27.9867 16.3116 28.0441 16.2351C27.8591 16.0629 27.5721 15.7249 27.5019 15.4825C27.6167 15.5973 27.8591 15.744 28.0632 15.8333C28.1652 15.8779 28.2737 15.8269 28.3119 15.7249C28.3502 15.6292 28.3821 15.5335 28.4076 15.4315C28.2163 15.3103 27.8527 15.0679 27.7507 14.8638C27.8463 14.9276 28.0568 15.0042 28.2418 15.0488C28.3693 15.0807 28.4905 14.9914 28.4969 14.8575C28.4969 14.7809 28.4969 14.7044 28.4905 14.6279C28.2354 14.5768 27.9356 14.4174 27.8081 14.2324C27.9548 14.3026 28.3056 14.3345 28.4331 14.2771C28.414 14.1878 28.3885 14.1049 28.3502 14.0219C28.1206 13.9645 27.9484 13.8178 27.84 13.6265C28.0186 13.6967 28.1589 13.6967 28.2226 13.6775L28.0632 13.314C27.8336 13.129 27.6869 12.7017 27.8272 12.4211C27.8272 12.4211 27.5721 12.2871 27.4063 12.1978C27.3361 12.1596 27.3106 12.083 27.3425 12.0129C27.4509 11.7641 27.4828 11.509 26.8833 11.7705C26.8004 11.8088 26.6664 11.8152 26.5707 11.7641C25.9074 11.4197 25.2122 11.0689 25.1166 11.0179C24.9188 11.171 24.7658 11.3432 24.6637 11.5855C24.6956 11.694 24.7721 11.7769 24.7147 11.8981ZM21.1686 30.3815L21.4811 29.833L21.5002 29.7947L21.5831 29.6544L22.0742 28.7998L22.6036 27.875C22.6483 27.7857 22.6738 27.6836 22.6164 27.5497C22.5654 27.4349 22.4697 27.3456 22.3485 27.3201C22.138 27.2754 21.9276 27.4158 21.8893 27.6262C21.8574 27.8176 21.9722 27.9962 22.1444 28.0536L21.8255 28.6084C21.7809 28.685 21.6852 28.7169 21.6023 28.6722C21.2642 28.4936 20.0078 27.8941 19.319 27.6964C19.2233 27.7857 19.134 28.0536 19.134 28.1939C19.9631 28.551 20.8816 29.1187 21.2324 29.3929C21.2961 29.444 21.3089 29.5269 21.2706 29.597L20.7221 30.5601C20.6838 30.6303 20.6583 30.7068 20.6711 30.7961C20.703 31.0002 20.8752 31.1533 21.092 31.1278C21.226 31.115 21.3472 31.0257 21.3982 30.8981C21.4875 30.6749 21.3727 30.4517 21.1686 30.3815ZM30.372 29.1506C29.4919 29.7884 27.993 30.2285 26.9598 30.2285C24.8359 30.2285 23.0437 29.4248 22.3485 29.0677C22.3485 29.0677 22.2783 29.3419 22.4569 29.6417C22.1125 29.6289 21.8829 29.8777 21.8829 29.8777C23.3371 30.879 25.04 31.5423 27.0746 31.5423C29.1156 31.5423 30.6208 30.9109 31.705 30.0307C31.0098 29.9223 30.5825 29.6034 30.372 29.1506Z" fill="black"/>
</svg>
