<svg xmlns="http://www.w3.org/2000/svg" width="130" height="107" viewBox="0 0 10000 8258" shape-rendering="geometricPrecision" text-rendering="geometricPrecision" image-rendering="optimizeQuality" fill-rule="evenodd" clip-rule="evenodd"><defs><style>.fil1{fill:none}.fil3{fill:#ae2220}.fil0{fill:#39702b;fill-rule:nonzero}</style><clipPath id="id0"><path d="M7367 777c0 3443-482 4156-2367 4836-1885-680-2367-1393-2367-4737l819-720 814 626 1458-3 824-623 819 621z"/></clipPath><clipPath id="id1"><path d="M7367 777c0 3443-482 4156-2367 4836-1885-680-2367-1393-2367-4737l819-720 814 626 1458-3 824-623 819 621z"/></clipPath><clipPath id="id2"><path d="M7367 777c0 3443-482 4156-2367 4836-1885-680-2367-1393-2367-4737l819-720 814 626 1458-3 824-623 819 621z"/></clipPath></defs><g id="Layer_x0020_1"><g id="_865745888"><path class="fil0" d="M2064 6636c-5 0-9 0-9-7v-27c0-156 0-210 4-252 3-35 9-67 49-74 12-3 24-5 42-6 18-2 24-8 24-14 0-9-3-17-29-17-59 0-163 5-219 5-30 0-151-5-231-5-15 0-28 5-28 14 0 4 1 15 22 17 17 1 21 1 41 4 51 8 62 32 65 76 3 42 5 69 5 273v225c0 127-2 211-8 267-3 41-15 74-50 79-16 3-24 3-39 4-18 2-23 8-23 17s14 13 29 13c41 0 199-4 205-4 8 0 186 4 262 4 21 0 25-7 25-13 0-9-7-15-25-17-11-1-32-1-52-6-41-4-57-30-62-69-6-55-7-95-7-221v-139c0-7 4-9 9-9h398c5 0 9 3 9 9v100c0 127-1 202-7 257-5 43-14 68-47 74-12 3-23 3-39 4-17 0-24 9-24 15 0 8 3 15 28 15 70 0 177-4 198-4s171 4 263 4c16 0 30-3 30-13 0-9-7-15-26-17-12-1-37-1-55-4-41-6-53-28-58-73-6-53-7-146-7-273v-230c0-204 0-234 4-276 5-42 15-62 50-66 15-3 17-3 42-6 17 0 21-8 21-16 0-9-3-15-27-15-59 0-228 5-234 5-7 0-139-5-219-5-21 0-27 6-27 15 0 5 8 16 26 16 16 1 36 3 47 4 45 8 55 32 58 65 3 42 3 59 3 263v27c0 7-4 7-9 7h-398z"/><path class="fil0" d="M3522 6979c5 0 11 3 12 8l83 185c8 17-6 19-18 23-9 3-18 6-18 15 0 8 9 14 27 14 80 1 237 3 390 4 15 0 27-4 27-15 0-7-9-15-26-15-7 0-18-1-30-3-51-7-75-42-122-139-91-199-325-690-358-764-26-51-38-71-53-71-16 0-31 20-63 89l-363 773c-39 89-74 108-138 115-17 0-25 6-25 15s6 15 28 15c64 0 152-4 167-4 77 0 122 4 189 4 18 0 26-6 26-16 0-6-5-12-25-14-34-3-92-4-92-48 0-17 9-47 23-80l32-77c1-5 6-14 15-14h312zm-270-119c-3 0-6-2-4-6l111-269c3-6 3-9 8-1l119 270c2 3 2 6-7 6h-227zm-32-497c39 0 70-32 70-73s-29-69-69-69c-48 0-70 38-70 72 0 31 22 70 69 70zm431 0c40 0 71-32 71-73s-30-69-70-69c-47 0-70 38-70 72 0 31 23 70 69 70z"/><path class="fil0" d="M5179 6276c-6-37-12-55-29-55-12 0-24 12-50 49l-371 605-393-598c-29-42-41-56-54-56-14 0-23 12-30 56l-120 788c-15 100-33 123-72 130-15 2-26 2-39 3-19 2-25 6-25 14 0 13 14 16 28 16 52 0 116-4 163-4 43 0 119 4 178 4 24 0 30-6 30-16 0-8-8-14-26-14-18-1-31-3-48-6-36-7-48-27-48-68 0-19 0-45 4-110l33-331c22 32 74 126 99 166 62 98 131 219 187 307 42 62 48 72 63 72 11 0 21-7 59-75l275-482 41 441c6 65 3 70-23 79-7 3-14 7-14 13s5 17 28 17c179 9 259 7 391 7 22 0 28-3 28-13 0-9-4-14-24-17-22-1-37-1-62-9-45-12-62-45-72-130l-107-783z"/><path class="fil0" d="M5544 6848c0 72-2 145-2 195-4 92-9 143-53 151-15 3-25 3-39 4-23 0-27 8-27 14 0 9 6 16 32 16 77 0 141-4 205-4 143 0 240 7 442 7 50 0 61-1 71-34 6-26 20-132 20-189 0-17-2-27-12-27-9 0-15 7-18 22-12 61-27 92-65 108-38 13-91 15-126 15-154 0-170-21-172-114-1-52 0-114 0-158v-95c0-8 2-11 9-11 43 0 145 2 188 5 71 4 86 28 93 69 2 9 2 18 3 26 2 15 8 21 15 21 9 0 14-5 14-23 0-15 1-84 3-113 1-48 11-106 11-121 0-7-2-16-11-16-6 0-12 4-18 16-17 26-35 30-109 34-53 1-146 1-187 1-9 0-11-3-11-12v-276c0-9 3-14 11-14 42 0 152 3 202 6 65 6 82 24 89 54 5 20 5 31 8 49 1 12 7 18 15 18 9 0 15-11 15-21 5-82 6-109 8-142 3-30 7-47 10-64 2-7-1-13-9-13-4 0-12 1-21 4-23 5-51 6-77 6-21 0-368 2-393 2-57 0-120-5-202-5-21 0-29 6-29 14 0 7 3 15 23 17 14 1 29 1 41 4 32 6 45 27 48 60 3 43 5 67 5 284v230zm887 0c0 72-1 145-1 195-5 92-9 143-53 151-15 3-26 3-39 4-23 0-27 8-27 14 0 9 6 16 31 16 77 0 142-4 206-4 143 0 240 7 442 7 50 0 60-1 71-34 6-26 20-132 20-189 0-17-2-27-12-27s-16 7-19 22c-12 61-27 92-65 108-37 13-90 15-125 15-154 0-170-21-172-114-1-52 0-114 0-158v-95c0-8 2-11 9-11 42 0 145 2 187 5 71 4 86 28 94 69 1 9 1 18 3 26 1 15 7 21 15 21 9 0 14-5 14-23 0-15 1-84 3-113 1-48 10-106 10-121 0-7-1-16-10-16-6 0-12 4-18 16-17 26-35 30-109 34-53 1-147 1-187 1-9 0-11-3-11-12v-276c0-9 3-14 11-14 42 0 152 3 202 6 65 6 81 24 89 54 5 20 5 31 8 49 1 12 7 18 15 18 9 0 15-11 15-21 4-82 6-109 7-142 3-30 8-47 11-64 1-7-2-13-9-13-5 0-12 1-21 4-23 5-52 6-77 6-21 0-369 2-393 2-57 0-121-5-202-5-21 0-29 6-29 14 0 7 3 15 23 17 13 1 28 1 40 4 32 6 46 27 49 60 3 43 4 67 4 284v230zm851 189c-4 120-16 151-72 158-17 2-24 2-38 3-18 2-24 8-24 15 0 11 7 15 30 15 45 0 156-4 193-4 95 1 136 4 174 4 24 0 33-4 33-15 0-7-6-12-29-15-27-1-42-3-68-9-40-10-43-48-46-139l-14-424c116 106 233 205 305 270 65 59 172 151 266 230 107 87 154 120 177 120 19 0 28-13 28-89 2-262 6-530 19-776 4-83 19-102 64-108 10-2 14-2 31-3 19-2 22-11 22-17 0-8-6-14-28-14-55 0-126 5-159 5-61 0-154-5-204-5-14 0-26 5-26 15 0 6 6 14 25 16 21 1 37 3 54 6 59 9 68 43 71 116l7 462c-39-35-110-95-259-227-168-148-376-326-441-377-38-29-44-29-52-29-19 0-24 23-25 67-6 175-6 478-14 749z"/></g><g id="_865731712"><path class="fil0" d="M221 7897c0-117 0-128 2-153 1-23 4-41 32-45 6-1 14-1 19-2 11-1 15-4 15-9s-2-9-16-9c-27 0-126 3-131 3-2 0-92-3-122-3-16 0-20 4-20 8 0 6 7 9 16 10 7 1 15 1 28 3 23 4 28 17 30 35 2 24 2 45 2 162v132c0 74-1 124-5 155-2 22-5 40-32 44-9 2-10 2-17 2-10 1-16 4-16 10s7 8 16 8c25 0 119-3 120-3 5 0 95 3 149 3 10 0 14-5 14-9 0-3-3-8-13-9-9 0-22 0-33-2-27-4-33-22-35-41-3-31-3-101-3-158v-62c56 82 131 186 177 231 41 39 78 50 183 50h79c7 0 15-2 15-8s-3-9-15-10c-15-2-26-4-39-12-13-7-32-20-73-62-57-61-181-210-209-254 20-21 103-105 138-138 38-33 63-56 104-63 9-2 15-3 26-4 9-1 14-5 14-9 0-5-3-8-17-8-10 0-68 2-115 2s-48-2-84-2c-9 0-14 4-14 8 0 5 7 8 15 9 20 3 22 8 22 17 0 12-16 32-39 57-66 73-123 129-168 170v-44zm529 132c0 42-1 83-1 112-3 53-5 82-30 87-9 2-15 2-23 2-13 0-16 5-16 8 0 5 4 10 19 10 44 0 81-3 118-3 82 0 138 4 254 4 29 0 35 0 41-19 3-15 11-76 11-109 0-10-1-16-7-16-5 0-9 5-10 13-7 35-16 53-38 62-21 8-52 9-72 9-88 0-98-12-99-65v-146c0-5 1-6 6-6 24 0 83 1 107 2 41 3 50 17 54 40 1 5 1 11 2 15 1 9 4 12 8 12 6 0 8-2 8-13 0-9 1-48 2-65 1-28 6-61 6-69 0-5-1-10-6-10-3 0-7 3-10 10-10 14-20 17-63 19-30 1-84 1-108 1-5 0-6-2-6-7v-159c0-5 2-8 6-8 25 0 88 2 117 4 37 3 47 13 51 31 3 11 3 17 4 28 1 6 5 10 9 10 5 0 9-6 9-12 2-47 3-63 4-82 2-17 4-27 6-36 1-5-1-8-5-8-3 0-7 1-12 3-13 2-30 3-45 3-12 0-211 1-225 1-33 0-70-3-116-3-13 0-17 4-17 8s2 9 13 10c8 1 17 1 23 2 19 4 27 16 28 35 2 24 3 38 3 163v132zm621 229c40 0 94-4 140-30 60-33 87-85 87-145 0-76-31-118-143-188l-45-28c-43-27-59-50-59-83 0-32 21-68 86-68 52 0 93 26 109 54 9 16 11 33 12 41 2 13 6 15 10 15 7 0 9-5 9-18 0-70 2-83 3-110 0-7-2-10-10-12-13-3-27-6-39-8-35-7-59-9-94-9-126 0-202 73-203 160 0 69 25 119 118 184l48 32c66 44 76 68 76 99 0 30-21 63-92 63-63 0-126-37-137-102-1-7-1-13-2-20-1-8-4-12-8-12s-9 3-11 17c-2 23-4 51-4 116 0 14 4 25 18 30 30 13 70 22 131 22zm505-361c0-117 0-128 2-153 1-23 3-41 32-45 6-1 14-1 19-2 11-1 15-4 15-9s-2-9-17-9c-27 0-125 3-130 3-2 0-92-3-122-3-16 0-20 4-20 8 0 6 7 9 15 10s16 1 29 3c23 4 28 17 30 35 2 24 2 45 2 162v132c0 74-1 124-5 155-2 22-5 40-32 44-9 2-10 2-17 2-10 1-16 4-16 10s7 8 16 8c25 0 118-3 120-3 5 0 95 3 149 3 10 0 14-5 14-9 0-3-3-8-13-9-9 0-22 0-33-2-27-4-33-22-35-41-3-31-3-101-3-158v-62c56 82 131 186 177 231 41 39 78 50 183 50h78c8 0 16-2 16-8s-3-9-16-10c-14-2-25-4-39-12-13-7-31-20-72-62-57-61-181-210-209-254 20-21 103-105 138-138 38-33 63-56 104-63 9-2 15-3 26-4 9-1 14-5 14-9 0-5-3-8-17-8-10 0-68 2-116 2-46 0-47-2-83-2-9 0-14 4-14 8 0 5 7 8 15 9 20 3 22 8 22 17 0 12-16 32-39 57-66 73-123 129-168 170v-44zm529 132c0 75-1 127-6 158-1 22-8 37-25 41-10 2-18 2-25 2-9 0-13 5-13 9 0 6 5 9 18 9 25 0 115-3 117-3 4 0 93 3 147 3 13 0 17-5 17-8 0-4-4-10-17-10-8 0-21 0-32-3-23-5-29-18-30-37-4-33-5-104-5-161v-132c0-117 0-135 3-160 3-26 10-33 31-38 9-1 10-1 18-2 9-1 15-3 15-9 0-5-2-9-15-9-30 0-128 3-132 3-3 0-86-3-117-3-14 0-17 5-17 9 0 5 4 8 15 9 10 1 19 1 24 3 19 3 24 17 26 37 3 23 3 43 3 160v132z"/><path class="fil0" d="M3017 8105c3 0 7 1 7 4l48 107c4 9-3 10-10 13-6 1-11 3-11 8s5 8 16 8c46 1 136 2 224 3 9 0 15-3 15-9 0-4-5-9-14-9-5 0-11 0-18-1-29-5-43-25-70-80-52-115-187-397-206-439-14-30-21-41-30-41-10 0-18 11-36 51l-209 444c-22 52-42 62-80 66-9 0-13 4-13 9s3 9 15 9c37 0 88-3 96-3 45 0 71 3 109 3 10 0 15-4 15-10 0-3-3-7-14-8-20-1-53-2-53-27 0-10 5-27 13-46l18-45c1-2 4-7 9-7h179zm-155-69c-2 0-3-1-3-3l65-155c1-3 1-5 4-1l69 156c0 1 0 3-5 3h-130zm525-7c0 75-1 127-5 158-2 22-9 37-25 41-11 2-18 2-25 2-9 0-13 5-13 9 0 6 5 9 18 9 24 0 114-3 116-3 4 0 94 3 148 3 13 0 16-5 16-8 0-4-3-10-16-10-9 0-22 0-32-3-24-5-29-18-31-37-3-33-4-104-4-161v-132c0-117 0-135 2-160 4-26 11-33 32-38 8-1 9-1 17-2 10-1 16-3 16-9 0-5-2-9-16-9-29 0-128 3-132 3-2 0-86-3-116-3-15 0-18 5-18 9 0 5 5 8 15 9 11 1 19 1 25 3 19 3 24 17 26 37 2 23 2 43 2 160v132zm530-132c0-117 0-128 1-153 1-23 4-41 32-45 6-1 14-1 20-2 10-1 14-4 14-9s-1-9-16-9c-27 0-126 3-130 3-3 0-92-3-123-3-15 0-20 4-20 8 0 6 7 9 16 10 8 1 16 1 29 3 22 4 27 17 29 35 3 24 3 45 3 162v132c0 74-2 124-6 155-1 22-5 40-32 44-8 2-10 2-17 2-10 1-16 4-16 10s7 8 16 8c25 0 119-3 121-3 4 0 94 3 148 3 10 0 15-5 15-9 0-3-4-8-13-9-10 0-23 0-33-2-28-4-34-22-36-41-2-31-2-101-2-158v-62c55 82 131 186 177 231 40 39 78 50 183 50h78c8 0 15-2 15-8s-3-9-15-10c-15-2-25-4-39-12-13-7-31-20-72-62-58-61-182-210-209-254 20-21 102-105 138-138 37-33 62-56 104-63 8-2 14-3 25-4 9-1 15-5 15-9 0-5-4-8-18-8-9 0-67 2-115 2-47 0-48-2-83-2-10 0-14 4-14 8 0 5 7 8 14 9 20 3 22 8 22 17 0 12-15 32-39 57-66 73-122 129-167 170v-44z"/><path class="fil0" d="M4680 8105c3 0 6 1 7 4l48 107c4 9-3 10-10 13-6 1-11 3-11 8s5 8 16 8c46 1 136 2 224 3 8 0 15-3 15-9 0-4-5-9-14-9-5 0-11 0-18-1-29-5-43-25-70-80-52-115-187-397-206-439-15-30-21-41-30-41-10 0-18 11-37 51l-208 444c-22 52-42 62-80 66-9 0-14 4-14 9s4 9 16 9c37 0 88-3 96-3 45 0 71 3 109 3 10 0 15-4 15-10 0-3-3-7-14-8-20-1-53-2-53-27 0-10 5-27 13-46l18-45c1-2 3-7 9-7h179zm-155-69c-2 0-3-1-3-3l65-155c1-3 1-5 4-1l68 156c1 1 1 3-4 3h-130zm525-7c0 73 0 100-3 143-3 33-7 53-28 56-11 2-17 2-24 2-12 2-13 6-13 10s5 8 16 8c17 0 66-3 129-3 97 0 97 3 139 3 16 0 17-5 17-9s-5-8-17-9c-7 0-16 0-27-2-30-5-35-18-37-39-4-32-4-77-4-150v-54c0-5 0-6 5-6 24 0 86 1 111 3 40 2 48 14 51 38 1 6 2 10 3 15 1 10 4 13 8 13 6 0 8-7 8-15s-1-48 0-65c3-27 6-57 6-66 0-4 0-10-5-10-3 0-7 3-10 8-11 17-19 19-63 21-30 0-84 1-108 0-6 0-6-3-6-8v-165c0-5 1-8 7-8 23 0 95 2 123 4 36 3 47 13 51 31 3 10 3 15 3 24 1 7 4 12 9 12 6 0 9-2 10-13 1-35 2-58 4-78 2-17 5-35 6-41 1-3 0-7-5-7-2 0-8 2-13 4-7 2-28 5-44 5-11 0-219 1-233 1-32 0-76-3-121-3-15 0-20 3-20 9 0 5 6 7 14 9 10 1 20 1 28 3 21 3 29 16 30 43 2 23 3 29 3 154v132zm503 0c0 42-1 83-1 112-3 53-6 82-31 87-8 2-14 2-22 2-13 0-16 5-16 8 0 5 4 10 18 10 45 0 82-3 118-3 83 0 138 4 255 4 28 0 34 0 40-19 4-15 12-76 12-109 0-10-1-16-7-16-5 0-9 5-11 13-7 35-15 53-37 62-22 8-52 9-72 9-88 0-98-12-99-65-1-31 0-66 0-91v-55c0-5 1-6 5-6 25 0 84 1 108 2 41 3 49 17 54 40 1 5 1 11 1 15 1 9 5 12 9 12 5 0 8-2 8-13 0-9 1-48 2-65 1-28 6-61 6-69 0-5-1-10-6-10-4 0-7 3-11 10-9 14-20 17-62 19-31 1-84 1-108 1-5 0-6-2-6-7v-159c0-5 2-8 6-8 24 0 88 2 116 4 38 3 47 13 52 31 2 11 2 17 4 28 1 6 4 10 9 10s8-6 8-12c3-47 4-63 5-82 1-17 4-27 6-36 1-5-1-8-5-8-3 0-7 1-13 3-13 2-29 3-44 3-12 0-212 1-225 1-33 0-70-3-117-3-12 0-16 4-16 8s1 9 13 10c8 1 16 1 23 2 18 4 26 16 28 35 2 24 3 38 3 163v132zm620 229c41 0 95-4 141-30 60-33 87-85 87-145 0-76-32-118-144-188l-44-28c-43-27-59-50-59-83 0-32 21-68 86-68 52 0 93 26 109 54 8 16 11 33 12 41 1 13 6 15 10 15 6 0 9-5 9-18 0-70 2-83 2-110 0-7-1-10-9-12-13-3-27-6-39-8-36-7-59-9-95-9-126 0-201 73-202 160 0 69 25 119 118 184l48 32c66 44 76 68 76 99 0 30-22 63-92 63-63 0-127-37-137-102-2-7-2-13-3-20 0-8-3-12-7-12-5 0-9 3-11 17-2 23-4 51-4 116 0 14 3 25 17 30 31 13 70 22 131 22zm634-518c62 0 104 4 132 5 41 5 50 21 53 45 0 4 1 8 1 18 1 8 4 13 8 13 5 0 9-4 10-16 1-18 6-96 6-105 0-22 1-26-8-26-4 0-10 2-25 4-10 2-24 4-47 4h-347c-29 0-77-4-89-6s-18-5-22-5-9 5-10 16c-7 35-14 74-18 110-1 9 1 16 7 16 5 0 8-6 10-11 2-6 4-12 6-17 9-30 24-41 67-43 38-3 88-2 118-2v289c0 74 0 127-4 159-3 22-8 36-25 40-10 2-17 2-25 2-9 1-16 4-16 10s5 8 18 8c24 0 107-3 118-3 12 0 93 3 147 3 14 0 18-3 18-7 0-5-3-9-17-11-13 0-22-1-31-3-24-4-30-23-32-42-2-32-3-99-3-156v-289zm346 289c0 75-1 127-5 158-2 22-9 37-25 41-11 2-18 2-25 2-9 0-13 5-13 9 0 6 5 9 18 9 24 0 114-3 116-3 5 0 94 3 148 3 13 0 16-5 16-8 0-4-3-10-16-10-9 0-22 0-32-3-24-5-29-18-31-37-3-33-4-104-4-161v-132c0-117 0-135 3-160 3-26 10-33 31-38 8-1 9-1 17-2 10-1 16-3 16-9 0-5-2-9-16-9-29 0-127 3-132 3-2 0-86-3-116-3-15 0-17 5-17 9 0 5 4 8 14 9 11 1 19 1 25 3 19 3 24 17 26 37 2 23 2 43 2 160v132zm529 184c15 35 21 45 31 45 11 0 19-9 42-53 21-41 54-106 104-212 45-96 75-160 106-224 22-44 32-58 50-66 12-5 24-5 33-6 11-1 15-4 15-9s-5-9-17-9c-25 0-78 3-91 3-11 0-50-3-105-3-12 0-16 4-16 9 0 4 3 7 15 9 7 1 21 2 31 4 16 2 20 6 20 16 0 7-3 16-11 38-37 87-98 231-129 296-35-84-82-190-117-278-14-33-17-46-17-56 0-7 2-16 26-18 7-1 10-1 19-2 7-1 11-5 11-9 0-5-4-9-17-9-66 0-110 3-139 3-31 0-77-3-120-3-9 0-15 4-15 9 0 3 3 8 11 9 5 1 18 1 18 2 26 5 33 9 55 58l207 456zm562-108c3 0 6 1 7 4l48 107c4 9-4 10-11 13-5 1-10 3-10 8s5 8 16 8c46 1 136 2 223 3 9 0 16-3 16-9 0-4-5-9-15-9-4 0-10 0-17-1-30-5-43-25-70-80-52-115-187-397-206-439-15-30-22-41-30-41-10 0-19 11-37 51l-208 444c-23 52-43 62-80 66-9 0-14 4-14 9s4 9 16 9c37 0 87-3 96-3 44 0 70 3 109 3 10 0 14-4 14-10 0-3-2-7-14-8-19-1-52-2-52-27 0-10 5-27 13-46l18-45c1-2 3-7 8-7h180zm-155-69c-2 0-4-1-3-3l64-155c2-3 2-5 5-1l68 156c1 1 1 3-4 3h-130z"/><path class="fil0" d="M8882 8105c3 0 6 1 7 4l48 107c4 9-4 10-11 13-5 1-10 3-10 8s5 8 15 8c46 1 137 2 224 3 9 0 16-3 16-9 0-4-5-9-15-9-4 0-10 0-17-1-30-5-44-25-70-80-52-115-187-397-206-439-15-30-22-41-30-41-10 0-19 11-37 51l-208 444c-23 52-43 62-80 66-10 0-14 4-14 9s4 9 16 9c37 0 87-3 96-3 44 0 70 3 109 3 10 0 14-4 14-10 0-3-2-7-14-8-20-1-53-2-53-27 0-10 6-27 13-46l19-45c1-2 3-7 8-7h180zm-155-69c-2 0-4-1-3-3l64-155c2-3 2-5 5-1l68 156c1 1 1 3-4 3h-130zm671-129c0-127 1-138 3-163 2-27 8-40 30-44 11-2 14-2 23-3 7 0 14-3 14-10 0-4-4-8-18-8-27 0-128 3-132 3-33 0-71-3-118-3-16 0-22 3-22 9s7 8 16 9c11 1 21 2 28 4 18 5 25 17 27 38 2 24 3 33 3 158v132c0 42-1 83-1 113-3 69-6 81-37 87-9 1-11 1-19 1-10 0-14 5-14 8 0 7 6 10 18 10 44 0 83-3 120-3 82 0 154 4 271 4 29 0 34 0 41-19 8-22 19-98 19-117 0-10-2-15-7-15-7 0-9 7-11 15-10 42-26 60-48 69-22 8-42 8-86 8-65 0-79-2-90-18-12-16-10-71-10-142v-123zm372 122c0 75-1 127-5 158-2 22-9 37-25 41-11 2-19 2-26 2-8 0-13 5-13 9 0 6 6 9 19 9 24 0 114-3 116-3 4 0 94 3 148 3 13 0 16-5 16-8 0-4-3-10-16-10-9 0-22 0-33-3-23-5-28-18-30-37-3-33-4-104-4-161v-132c0-117 0-135 2-160 4-26 11-33 32-38 8-1 9-1 17-2 9-1 16-3 16-9 0-5-2-9-16-9-30 0-128 3-132 3-3 0-86-3-116-3-15 0-18 5-18 9 0 5 5 8 15 9s19 1 24 3c19 3 25 17 26 37 3 23 3 43 3 160v132z"/></g><path class="fil1" d="M7367 777c0 3443-482 4156-2367 4836-1885-680-2367-1393-2367-4737l819-720 814 626 1458-3 824-623 819 621z"/><path d="M7500 793c0 1742-124 2799-492 3514-375 731-989 1095-1963 1446l-45 17-45-17c-974-351-1587-715-1963-1433-367-703-492-1735-492-3428v-60L3446 0l865 665 1368-3L6548 5l952 722v66z" fill="#fecc00" fill-rule="nonzero"/><path class="fil1" d="M7367 777c0 3443-482 4156-2367 4836-1885-680-2367-1393-2367-4737l819-720 814 626 1458-3 824-623 819 621z"/><g clip-path="url(#id2)"><path class="fil3" d="M2201 86h2799v2799H2201z"/><path d="M2201 2885h2799v2799H2201zM5000 86h2799v2799H5000z" fill="#39702b"/><path class="fil3" d="M5000 2885h2799v2799H5000z"/></g><path class="fil1" d="M7367 777c0 3443-482 4156-2367 4836-1885-680-2367-1393-2367-4737l819-720 814 626 1458-3 824-623 819 621z" stroke="#ffd500" stroke-width="7.62"/><path d="M6239 2225l452 548-425 1195-187-471-362 1082-281-1617 384-165 82-237-730 225 144 852-317 197-316-205 145-843-731-226 81 237 385 165-280 1617-362-1082-187 471-425-1195 452-548v-775l-435-129 435-130 728 596 511-108 543 114 696-576 434 130-434 128v750zM4592 4164l52-309 353 252 355-256 53 313-406 337-407-337z" fill="#ffd500"/></g></svg>