<svg class="is-bigger" xmlns="http://www.w3.org/2000/svg" width="241" height="64" viewBox="0 0 241 64" xml:space="preserve"><path d="m29.5 0-9.3 9.3L35 24.1l9.3-9.3L29.5 0zM0 29.5l9.3 9.3L24.1 24l-9.3-9.3L0 29.5zM35 35l9.3 9.3 14.8-14.8-9.3-9.3L35 35zm-20.2 9.3 14.8 14.8 9.3-9.3L24.1 35l-9.3 9.3z" fill="currentColor" /><path d="M240.3 19.8c0-3.7-.8-6.4-2.5-8.1-1.7-1.8-4.3-2.7-7.8-2.7s-6.1.9-7.8 2.6-2.6 4.4-2.6 8c0 3.8.8 6.6 2.5 8.4s4.3 2.7 7.8 2.7 6.1-.9 7.8-2.7c1.8-1.8 2.6-4.5 2.6-8.2m-4.7 0c0 2.5-.5 4.3-1.4 5.5s-2.3 1.8-4.2 1.8-3.3-.6-4.2-1.8c-.9-1.2-1.3-3.1-1.3-5.6 0-2.4.5-4.1 1.4-5.3s2.3-1.8 4.2-1.8 3.3.6 4.2 1.8c.8 1.1 1.3 2.9 1.3 5.4m-4.9-12.5h3.4V3.6h-3.4v3.7zm-5 0h3.4V3.6h-3.4v3.7zm-13.6 5.8h6.7V9.5h-18v3.6h6.7v17.1h4.5V13.1h.1zm-26.8 4.4c-.5-.4-.7-.9-.7-1.7 0-.9.3-1.6.8-2.1.5-.4 1.4-.6 2.5-.6h10.8V9.4h-11.4c-2.5 0-4.4.5-5.5 1.5-1.2 1-1.7 2.6-1.7 4.8 0 2.1.6 3.6 1.7 4.5 1.1 1 2.9 1.4 5.2 1.4h5.2c1.1 0 1.9.2 2.4.6s.7 1 .7 1.8-.3 1.4-.8 1.8-1.4.5-2.6.5H181V30h11.6c2.5 0 4.3-.5 5.5-1.5s1.8-2.6 1.8-4.7-.5-3.6-1.5-4.5-2.7-1.4-5.1-1.4h-5.8c-1.1.2-1.8 0-2.2-.4m-12.8 12.7h4.6V9.4h-4.6v20.8zm-11 0h7.4v-3.6h-7.2c-1.8 0-3-.4-3.8-1.2-.8-.8-1.1-2.1-1.2-3.9h12.1v-3.6h-12.1c.1-1.6.5-2.8 1.3-3.6s2-1.2 3.6-1.2h7.2V9.4h-7.2c-3.3 0-5.8.9-7.4 2.6-1.6 1.7-2.4 4.5-2.4 8.1 0 1.9.3 3.5.8 4.9s1.3 2.5 2.4 3.3c.8.7 1.7 1.1 2.6 1.4 1 .3 2.3.5 3.9.5m-17.2-17.1h6.7V9.5h-18v3.6h6.7v17.1h4.5V13.1h.1zM126 30.2h5.1V9.4h-4.5l.2 14.9-8.5-14.9h-5.5v20.7h4.5l-.3-15.6 9 15.7zm-21.7 0h4.6V9.4h-4.6v20.8zm.8 8.1h-4.6V59h4.6V38.3zm-9.3-8.1h4.6V9.4h-4.6v20.8zm-1.9 0-8.4-10.6 8.3-10.1h-5.2l-8.2 10v-10H76v20.7h4.4V19.9l7.9 10.3h5.6zm-14 8.1h-4.4v12.3c0 1.6.1 2.9.4 3.8.3.9.8 1.7 1.5 2.4.7.8 1.6 1.4 2.5 1.7s2.4.5 4.3.5h5.5v-3.4h-5.1c-1.1 0-1.9-.1-2.5-.3s-1.1-.6-1.5-1c-.3-.3-.4-.7-.6-1.2-.1-.5-.2-1.3-.2-2.6l.1-12.2zm16.7 0H92V59h4.6V38.3zm28.5.1h-18V42h6.7v17.1h4.5V42h6.7v-3.6h.1zm19.2 0h-18V42h6.7v17.1h4.5V42h6.7v-3.6h.1zm3.3 2.1c-1.7 1.7-2.6 4.4-2.6 8 0 3.8.8 6.6 2.5 8.4 1.7 1.8 4.3 2.7 7.8 2.7s6.1-.9 7.8-2.7 2.5-4.5 2.5-8.2-.8-6.4-2.5-8.1c-1.7-1.8-4.3-2.6-7.8-2.6-3.3-.1-5.9.8-7.7 2.5m2.3 8c0-2.4.5-4.1 1.4-5.3s2.3-1.8 4.2-1.8 3.3.6 4.2 1.8 1.4 3 1.4 5.5-.5 4.3-1.4 5.5-2.3 1.8-4.2 1.8-3.3-.6-4.2-1.8c-1-1.2-1.4-3.1-1.4-5.7" fill="currentColor" /></svg>
