<svg class="is-bigger" width="131" height="31" viewBox="0 0 131 31" fill="none" xmlns="http://www.w3.org/2000/svg"><g clip-path="url(#prefix__clip0_491_366)"><mask id="prefix__a" style="mask-type:luminance" maskUnits="userSpaceOnUse" x="0" y="0" width="131" height="31"><path d="M.286.831h129.773V31H.286V.831z" fill="#fff"/></mask><g mask="url(#prefix__a)" fill="#1C1E26"><path d="M36.303 16.613V9.218h1.777v5.944h3.06v1.451h-4.837zm12.412-3.698c0 .813-.157 1.502-.468 2.069a3.198 3.198 0 01-1.261 1.289 3.634 3.634 0 01-1.783.44 3.588 3.588 0 01-1.785-.445 3.234 3.234 0 01-1.26-1.291c-.31-.565-.464-1.254-.464-2.065 0-.81.153-1.503.465-2.07.31-.564.73-.996 1.26-1.289a3.634 3.634 0 011.784-.44c.66 0 1.255.148 1.783.44.53.293.95.725 1.261 1.29.311.566.468 1.255.468 2.069v.003zm-1.818-.003c0-.48-.068-.887-.203-1.22-.136-.334-.328-.585-.58-.755a1.59 1.59 0 00-.91-.257c-.355 0-.656.086-.909.257-.252.17-.447.422-.584.755-.136.333-.202.74-.202 1.22s.068.89.202 1.22c.135.333.33.585.584.755.253.17.556.257.908.257.351 0 .658-.086.91-.257.253-.17.448-.422.582-.755.137-.333.203-.74.203-1.22zM54.2 9.218h1.775v4.77c0 .55-.132 1.031-.392 1.438a2.58 2.58 0 01-1.092.946c-.468.224-1.01.333-1.626.333-.617 0-1.171-.112-1.64-.333a2.564 2.564 0 01-1.086-.946c-.258-.41-.387-.887-.387-1.438v-4.77h1.777v4.614c0 .254.056.483.167.684.112.201.269.356.468.47.202.112.435.17.7.17.266 0 .499-.055.699-.17.2-.114.356-.269.468-.47.11-.201.169-.427.169-.684V9.218zm9.148 0v7.395h-1.51l-2.925-4.268h-.048v4.268h-1.778V9.218h1.53l2.895 4.261h.061V9.22h1.775zm6.213 7.395h1.911L68.99 9.218h-2.367l-2.482 7.395h1.911l.483-1.553h2.541l.486 1.553zm-2.602-2.91l.816-2.621h.059l.819 2.62h-1.694zm7.085-4.485h-1.778v7.395h1.778V9.218zm5.087 2.217a.851.851 0 00-.318-.62c-.187-.148-.456-.222-.802-.222-.23 0-.422.031-.574.092a.753.753 0 00-.344.247.612.612 0 00-.118.358.53.53 0 00.066.292.683.683 0 00.214.221c.094.064.21.12.344.168.134.049.286.092.453.127l.632.145c.332.069.655.176.963.318.278.132.513.29.703.473.19.183.334.394.433.633.098.239.149.506.151.801-.002.467-.119.867-.351 1.202-.233.336-.567.59-1.002.768-.434.178-.958.267-1.57.267-.612 0-1.15-.092-1.608-.277a2.292 2.292 0 01-1.067-.844c-.253-.379-.384-.857-.392-1.434h1.702c.015.24.078.437.19.595.11.158.267.28.465.361.197.081.427.122.687.122.24 0 .443-.033.612-.097a.876.876 0 00.39-.272.62.62 0 00.139-.396.542.542 0 00-.13-.359 1.006 1.006 0 00-.386-.259 4.005 4.005 0 00-.662-.203l-.769-.181c-.637-.148-1.138-.384-1.505-.714-.366-.331-.548-.774-.546-1.335 0-.458.12-.86.367-1.203a2.426 2.426 0 011.024-.805c.435-.194.933-.29 1.491-.29.56 0 1.065.096 1.485.29a2.3 2.3 0 01.978.813c.233.348.352.753.357 1.213H79.13v.005zm6.238.798h-3.406v1.363h3.406v-1.363zm1.24 4.38V9.218h1.777v2.967h2.898V9.218h1.775v7.395h-1.775v-2.971h-2.898v2.971h-1.778zm12.033-8.1a.777.777 0 00.569-.23.754.754 0 00.235-.557.746.746 0 00-.235-.554.786.786 0 00-.57-.23.807.807 0 00-.576.23.74.74 0 00-.237.554c0 .216.08.402.237.556.16.156.352.232.577.232zm-2.24 0a.778.778 0 00.569-.23.754.754 0 00.235-.557.746.746 0 00-.236-.554.787.787 0 00-.568-.23.807.807 0 00-.577.23.74.74 0 00-.24.554c0 .216.08.402.24.556.16.156.351.232.577.232zm2.87 8.1h1.911L98.7 9.218h-2.367l-2.483 7.395h1.912l.483-1.553h2.541l.486 1.553zm-2.603-2.91l.817-2.621h.058l.82 2.62h-1.695zm5.308-4.485h2.2l1.868 4.579h.086L108 9.218h2.2v7.395h-1.73V12.07h-.063l-1.765 4.495h-1.107l-1.768-4.52h-.061v4.568h-1.729V9.218zm9.338 7.395V9.218h5.128v1.452h-3.35v1.515h3.087v1.457h-3.087v1.52h3.35v1.451h-5.128zm6.24 0V9.218h5.131v1.452h-3.351v1.515h3.088v1.457h-3.088v1.52h3.351v1.451h-5.131zm12.504-7.395v7.395h-1.509l-2.926-4.268h-.048v4.268h-1.777V9.218h1.529l2.896 4.261h.06V9.22h1.775zM36.265 25.512V20.33h1.243v2.192h.069l1.704-2.192h1.467l-1.828 2.311 1.86 2.87h-1.489l-1.283-2.037-.5.633v1.404h-1.243zm9.423-2.591c0 .57-.108 1.052-.326 1.449a2.23 2.23 0 01-.885.902 2.531 2.531 0 01-1.249.308c-.46 0-.88-.105-1.251-.31a2.228 2.228 0 01-.883-.905c-.217-.396-.326-.878-.326-1.447 0-.57.109-1.052.326-1.449.218-.396.51-.696.883-.902a2.54 2.54 0 011.251-.308c.463 0 .878.105 1.25.308.375.209.682.523.884.902.218.397.326.88.326 1.45v.002zm-1.272-.003a2.28 2.28 0 00-.141-.854 1.135 1.135 0 00-.407-.529c-.177-.12-.39-.18-.637-.18-.248 0-.46.06-.637.18a1.142 1.142 0 00-.41.529c-.096.234-.142.519-.142.854 0 .336.048.623.142.855.096.233.23.409.41.529.176.119.39.18.637.18s.46-.059.637-.181a1.11 1.11 0 00.407-.528c.096-.235.142-.52.142-.855zm5.01-2.588h1.244v3.343c0 .387-.091.722-.273 1.01a1.818 1.818 0 01-.766.663 2.642 2.642 0 01-1.141.234c-.432 0-.82-.079-1.148-.234a1.767 1.767 0 01-.761-.664c-.182-.284-.27-.622-.27-1.01V20.33h1.246v3.234c0 .178.038.338.117.478.078.14.186.249.328.328.15.082.32.123.49.12a.977.977 0 00.489-.12.841.841 0 00.329-.328.97.97 0 00.118-.478V20.33h-.002zm1.916 5.182V20.33h1.245v4.165h2.144v1.017h-3.389zm7.045-5.182h1.244v3.343c0 .387-.091.722-.273 1.01a1.827 1.827 0 01-.764.663 2.637 2.637 0 01-1.14.234c-.432 0-.82-.079-1.148-.234a1.765 1.765 0 01-.761-.664 1.834 1.834 0 01-.273-1.01V20.33h1.247v3.234c0 .178.037.338.116.478.078.14.187.249.328.328.142.078.306.12.49.12a.98.98 0 00.489-.12.85.85 0 00.328-.328c.079-.14.12-.3.12-.478V20.33h-.003zm1.747 1.017V20.33h4.357v1.017h-1.563v4.165H61.7v-4.165h-1.565zm7.978-1.017h1.244v3.343c0 .387-.09.722-.273 1.01a1.831 1.831 0 01-.763.663 2.641 2.641 0 01-1.14.234c-.434 0-.82-.079-1.149-.234a1.778 1.778 0 01-.764-.664c-.182-.284-.27-.622-.27-1.01V20.33h1.244v3.234c0 .178.038.338.116.478.078.14.188.249.329.328.15.082.32.123.49.12a.977.977 0 00.489-.12.836.836 0 00.328-.328c.079-.14.12-.3.12-.478V20.33zm4.703 1.554a.603.603 0 00-.222-.435c-.132-.105-.32-.155-.562-.155-.162 0-.296.02-.402.064a.532.532 0 00-.24.172.438.438 0 00-.083.252.39.39 0 00.045.206c.038.063.09.116.152.155.065.043.147.084.24.117.094.033.2.063.316.089l.442.102c.256.056.48.13.676.223.194.092.359.204.493.33.134.128.235.278.303.443.068.168.104.354.106.562 0 .328-.083.607-.247.841a1.536 1.536 0 01-.7.54c-.304.124-.671.187-1.1.187-.43 0-.807-.066-1.128-.196a1.606 1.606 0 01-.75-.592c-.176-.264-.267-.6-.272-1.004h1.193a.77.77 0 00.135.417.727.727 0 00.326.254c.139.059.298.087.483.087.166 0 .31-.023.43-.069.118-.046.21-.11.272-.19a.459.459 0 00.1-.278.378.378 0 00-.092-.251.709.709 0 00-.27-.183 2.934 2.934 0 00-.463-.143l-.539-.127c-.447-.101-.796-.27-1.054-.5-.256-.23-.385-.542-.382-.936 0-.32.083-.603.256-.842.171-.241.412-.43.718-.564a2.557 2.557 0 011.044-.203c.392 0 .745.068 1.042.203.293.134.523.325.685.57.162.244.245.528.25.849h-1.193l-.008.005zm1.788 3.628V20.33h1.246v2.192h.069l1.704-2.192h1.467l-1.829 2.311 1.862 2.87h-1.49l-1.284-2.036-.499.633v1.404h-1.246zm7.987-5.182h1.245v3.343c0 .387-.092.722-.274 1.01a1.828 1.828 0 01-.763.663 2.641 2.641 0 01-1.14.234c-.433 0-.82-.079-1.149-.234a1.778 1.778 0 01-.763-.664 1.834 1.834 0 01-.273-1.01V20.33h1.246v3.234c0 .178.038.338.117.478.078.14.187.249.328.328.15.082.32.123.49.12.188 0 .35-.041.489-.12a.833.833 0 00.328-.328c.079-.14.12-.3.12-.478V20.33zm6.302 0v5.182h-1.057l-2.051-2.99h-.033v2.99h-1.244V20.33h1.072l2.028 2.985h.043V20.33h1.242zm.506 1.017V20.33h4.356v1.017h-1.563v4.165h-1.228v-4.165h-1.565zm7.79 4.165h1.34l-1.74-5.182H95.13l-1.74 5.182h1.338l.339-1.089h1.78l.339 1.089h.002zm-1.823-2.04l.571-1.835h.04l.575 1.836h-1.186zm2.832-3.142h1.39l1.09 2.169h.046l1.089-2.169h1.391l-1.883 3.45v1.732h-1.239V23.78l-1.884-3.45zm5.423 5.182V20.33h1.244v2.08h2.034v-2.08h1.241v5.182h-1.241v-2.083h-2.034v2.083h-1.244zm5.025-4.165V20.33h4.357v1.017h-1.563v4.165h-1.229v-4.165h-1.565zm4.605-1.017h1.39l1.09 2.169h.046l1.089-2.169h1.391l-1.884 3.45v1.732h-1.239V23.78l-1.883-3.45zm5.423 0h1.543l1.307 3.209h.06l1.31-3.209h1.543v5.182h-1.214v-3.184h-.043l-1.236 3.15h-.777l-1.236-3.168h-.043v3.2h-1.214v-5.18zm9.568-.493a.55.55 0 00.4-.163.536.536 0 00.164-.389.533.533 0 00-.164-.389.556.556 0 00-.4-.16.567.567 0 00-.53.337.534.534 0 00-.041.213c0 .152.055.282.166.388a.566.566 0 00.405.163zm-1.57 0a.55.55 0 00.4-.163.536.536 0 00.122-.6.556.556 0 00-.522-.338.561.561 0 00-.404.16.52.52 0 00-.168.39c0 .152.056.282.168.388a.56.56 0 00.404.163zm2.01 5.675h1.338l-1.74-5.182h-1.659l-1.74 5.182h1.341l.338-1.089h1.781l.338 1.089h.003zm-1.823-2.04l.571-1.835h.041l.574 1.836h-1.186zM17.24 2.7a1.863 1.863 0 01-1.859 1.868A1.863 1.863 0 0113.523 2.7 1.864 1.864 0 0115.38.831a1.863 1.863 0 011.858 1.87zm0 26.431A1.864 1.864 0 0115.38 31a1.862 1.862 0 01-1.858-1.869 1.863 1.863 0 011.858-1.868 1.863 1.863 0 011.858 1.869zM4.001 16.19a1.864 1.864 0 01-1.858 1.869 1.862 1.862 0 01-1.858-1.87 1.864 1.864 0 011.858-1.867 1.865 1.865 0 011.858 1.868zm26.298 0a1.862 1.862 0 01-1.859 1.869 1.862 1.862 0 01-1.858-1.87 1.864 1.864 0 011.858-1.867 1.865 1.865 0 011.859 1.868zM12.06 2.957a1.872 1.872 0 01-1.006 2.44 1.855 1.855 0 01-2.427-1.012 1.872 1.872 0 011.006-2.44 1.855 1.855 0 012.427 1.012zm10.061 24.42a1.872 1.872 0 01-1.006 2.44 1.855 1.855 0 01-2.427-1.011 1.872 1.872 0 011.006-2.441 1.856 1.856 0 012.427 1.012zM4.966 20.513a1.872 1.872 0 01-1.006 2.441 1.854 1.854 0 01-2.428-1.012 1.872 1.872 0 011.006-2.44 1.854 1.854 0 012.428 1.011zm24.297-10.118a1.872 1.872 0 01-1.007 2.441 1.857 1.857 0 01-2.427-1.012 1.872 1.872 0 011.007-2.44 1.855 1.855 0 012.427 1.011zM3.947 9.114a1.872 1.872 0 01.003 3.451 1.855 1.855 0 01-2.43-1.012 1.872 1.872 0 011.003-2.438 1.855 1.855 0 011.424-.001zm24.29 10.115a1.872 1.872 0 01.002 3.451 1.858 1.858 0 01-1.424.002 1.872 1.872 0 01-.003-3.451 1.855 1.855 0 011.424-.002zm-16.96 7.342a1.872 1.872 0 01.003 3.451 1.857 1.857 0 01-1.424.002 1.873 1.873 0 01-.003-3.452 1.856 1.856 0 011.425 0zM21.341 2.146a1.872 1.872 0 01.003 3.45 1.855 1.855 0 01-2.43-1.01 1.872 1.872 0 011.003-2.44 1.856 1.856 0 011.424 0zM7.376 5.186a1.874 1.874 0 01-.602 3.047 1.85 1.85 0 01-2.026-.405 1.874 1.874 0 01.603-3.047 1.85 1.85 0 012.025.406zm18.587 18.69a1.874 1.874 0 01-.602 3.047 1.851 1.851 0 01-2.025-.405 1.874 1.874 0 01.602-3.047 1.85 1.85 0 012.025.406zm-18.461.26a1.874 1.874 0 01-.602 3.047 1.85 1.85 0 01-2.025-.405 1.874 1.874 0 01.602-3.047 1.851 1.851 0 012.025.405zM26.097 5.44a1.874 1.874 0 01-.602 3.047 1.85 1.85 0 01-2.026-.405 1.874 1.874 0 01.603-3.047 1.85 1.85 0 012.025.405zM16.57 7.985A1.151 1.151 0 0115.42 9.14a1.15 1.15 0 01-1.147-1.154 1.15 1.15 0 011.148-1.154 1.15 1.15 0 011.148 1.154zm-.003 16.408a1.149 1.149 0 11-2.296 0 1.15 1.15 0 011.148-1.155 1.15 1.15 0 011.148 1.155zm8.094-8.204a1.15 1.15 0 01-1.962.815 1.15 1.15 0 01-.334-.815 1.15 1.15 0 011.148-1.154 1.15 1.15 0 011.148 1.154zm-16.254 0a1.15 1.15 0 01-1.588 1.065 1.15 1.15 0 01-.708-1.065 1.15 1.15 0 011.149-1.154 1.15 1.15 0 011.147 1.154zm2.048-6.64a1.16 1.16 0 010 1.632c-.447.45-1.175.45-1.623 0a1.157 1.157 0 01.372-1.882 1.145 1.145 0 011.251.25zM21.991 21.15a1.16 1.16 0 010 1.633c-.448.45-1.176.45-1.624 0a1.157 1.157 0 010-1.633c.45-.45 1.176-.45 1.624 0zm-.046-11.557a1.16 1.16 0 010 1.632 1.145 1.145 0 01-1.96-.816c0-.305.122-.598.337-.816.45-.45 1.175-.45 1.623 0zM10.453 21.151a1.16 1.16 0 010 1.633c-.448.45-1.176.45-1.624 0a1.157 1.157 0 01.373-1.883 1.146 1.146 0 011.251.25zm-2.14-9.192a1.156 1.156 0 01-.437 2.22 1.146 1.146 0 01-1.062-.713 1.156 1.156 0 01.62-1.507 1.145 1.145 0 01.88 0zm15.074 6.28a1.157 1.157 0 01.002 2.131 1.145 1.145 0 01-1.502-.625 1.156 1.156 0 011.06-1.594c.15 0 .3.03.44.087zM18.947 7.58a1.156 1.156 0 01-.438 2.22 1.145 1.145 0 01-1.062-.713 1.156 1.156 0 011.06-1.595c.15 0 .3.03.44.088zm-6.22 15.098a1.156 1.156 0 01-.438 2.221 1.145 1.145 0 01-1.063-.713 1.156 1.156 0 011.06-1.595c.151 0 .3.03.44.087zM7.41 18.246a1.144 1.144 0 011.5.625 1.155 1.155 0 01-1.063 1.595 1.144 1.144 0 01-1.06-.713 1.155 1.155 0 01.623-1.507zm15.078-6.277a1.144 1.144 0 011.5.625 1.155 1.155 0 01-1.063 1.596 1.144 1.144 0 01-1.06-.714 1.156 1.156 0 01.623-1.507zM11.85 7.589a1.145 1.145 0 011.5.625 1.155 1.155 0 01-1.062 1.595 1.145 1.145 0 01-1.06-.713 1.155 1.155 0 01.622-1.508zm6.22 15.098a1.144 1.144 0 011.5.625 1.155 1.155 0 01-1.062 1.595 1.144 1.144 0 01-1.06-.712 1.156 1.156 0 01.622-1.508z"/></g></g><defs><clipPath id="prefix__clip0_491_366"><path fill="#fff" transform="translate(.286 .831)" d="M0 0h129.773v30.169H0z"/></clipPath></defs></svg>
