<svg width="237" height="55" viewBox="0 0 237 55" fill="none" xmlns="http://www.w3.org/2000/svg"><path d="M65.662 28.772V15.29h3.24v10.836h5.578v2.646h-8.818zM88.291 22.029c0 1.483-.286 2.739-.853 3.772-.567 1.03-1.337 1.817-2.3 2.35-.968.533-2.051.802-3.25.802-1.198 0-2.29-.269-3.254-.811s-1.729-1.326-2.296-2.354c-.567-1.03-.848-2.285-.848-3.764 0-1.478.28-2.739.848-3.773.567-1.029 1.332-1.816 2.296-2.35.963-.532 2.051-.801 3.254-.801 1.203 0 2.287.269 3.25.802.968.533 1.733 1.32 2.3 2.35.567 1.033.853 2.289.853 3.772v.005zm-3.314-.005c0-.876-.125-1.617-.37-2.225-.248-.607-.598-1.066-1.06-1.376-.46-.31-1.013-.468-1.659-.468-.645 0-1.194.157-1.655.468-.46.31-.816.77-1.065 1.376-.249.608-.368 1.35-.368 2.225 0 .876.124 1.622.368 2.225.245.607.6 1.066 1.065 1.376.461.31 1.014.468 1.655.468.64 0 1.199-.157 1.66-.468.46-.31.816-.77 1.06-1.376.249-.607.369-1.349.369-2.225zM98.29 15.29h3.236v8.695c0 1.005-.24 1.881-.715 2.623-.475.741-1.139 1.32-1.991 1.724-.853.408-1.84.607-2.964.607-1.125 0-2.135-.204-2.988-.607-.852-.408-1.512-.983-1.982-1.724-.47-.747-.705-1.618-.705-2.623V15.29h3.24v8.412c0 .463.102.88.305 1.246.203.367.489.65.853.858.368.204.793.31 1.277.31.484 0 .908-.101 1.272-.31s.65-.491.853-.858c.203-.366.309-.778.309-1.246V15.29zM114.968 15.29v13.482h-2.752l-5.334-7.781h-.087v7.781h-3.241V15.29h2.789l5.278 7.768h.111V15.29h3.236zM126.294 28.772h3.485l-4.527-13.482h-4.315l-4.526 13.482h3.485l.88-2.832h4.633l.885 2.832zm-4.743-5.307l1.488-4.778h.107l1.493 4.778h-3.088zM134.467 15.29h-3.241v13.482h3.241V15.29zM143.742 19.331c-.046-.482-.235-.857-.581-1.13-.341-.27-.83-.404-1.461-.404-.42 0-.77.056-1.047.167-.281.111-.488.26-.627.45-.138.19-.212.407-.216.653-.009.2.032.38.12.533.087.153.221.287.391.403.171.116.383.218.627.306.245.088.521.167.826.232l1.152.264a8.052 8.052 0 011.756.58c.507.24.936.528 1.282.862.346.333.608.718.788 1.154.18.435.272.922.277 1.46-.005.852-.217 1.58-.641 2.192-.424.611-1.033 1.075-1.826 1.4-.792.324-1.747.486-2.862.486-1.116 0-2.098-.167-2.932-.505-.834-.338-1.48-.853-1.945-1.539-.461-.69-.701-1.562-.715-2.614h3.103c.027.436.142.797.345 1.085.203.287.489.51.848.658.36.148.78.222 1.254.222.438 0 .807-.06 1.116-.176.309-.12.544-.282.71-.496.166-.208.253-.45.253-.723a.987.987 0 00-.235-.653c-.152-.181-.387-.339-.705-.473a7.307 7.307 0 00-1.208-.37l-1.401-.33c-1.162-.269-2.075-.7-2.743-1.302-.668-.603-1-1.41-.996-2.433 0-.835.217-1.567.669-2.193.451-.63 1.069-1.117 1.867-1.469.793-.352 1.701-.528 2.719-.528 1.019 0 1.941.176 2.706.528.766.352 1.36.848 1.784 1.483.424.635.641 1.372.65 2.211h-3.102v.01zM155.114 20.787h-6.209v2.484h6.209v-2.484zM157.373 28.772V15.29h3.241v5.409h5.283v-5.41h3.236v13.483h-3.236v-5.418h-5.283v5.418h-3.241zM179.311 14.006c.406 0 .751-.139 1.037-.422.286-.282.429-.62.429-1.015a1.36 1.36 0 00-.429-1.01 1.432 1.432 0 00-1.037-.417c-.406 0-.761.139-1.051.417-.29.278-.433.616-.433 1.01s.147.733.433 1.015c.29.283.641.422 1.051.422zM175.227 14.006c.405 0 .751-.139 1.037-.422.286-.282.429-.62.429-1.015a1.36 1.36 0 00-.429-1.01 1.434 1.434 0 00-1.037-.417c-.406 0-.761.139-1.051.417a1.35 1.35 0 00-.438 1.01c0 .394.147.733.438 1.015.29.283.64.422 1.051.422zM180.459 28.772h3.485l-4.527-13.482h-4.315l-4.527 13.482h3.485l.881-2.832h4.633l.885 2.832zm-4.744-5.307l1.489-4.778h.106l1.494 4.778h-3.089zM185.391 15.29h4.011l3.406 8.347h.157l3.407-8.347h4.01v13.482h-3.153V20.49h-.115l-3.218 8.194h-2.019l-3.222-8.24h-.111v8.328h-3.153V15.29zM202.415 28.772V15.29h9.349v2.646h-6.108v2.762h5.628v2.656h-5.628v2.772h6.108v2.646h-9.349zM213.792 28.772V15.29h9.353v2.646h-6.108v2.762h5.629v2.656h-5.629v2.772h6.108v2.646h-9.353zM236.587 15.29v13.482h-2.752l-5.333-7.781h-.088v7.781h-3.24V15.29h2.788l5.279 7.768h.11V15.29h3.236zM65.593 44.994v-9.446h2.267v3.995h.125l3.107-3.995h2.674l-3.333 4.213 3.393 5.233H71.11L68.77 41.28l-.909 1.154v2.559h-2.267zM82.773 40.271c0 1.038-.198 1.919-.595 2.642a4.067 4.067 0 01-1.613 1.645c-.678.376-1.438.56-2.277.56-.84 0-1.604-.19-2.282-.565-.678-.375-1.212-.926-1.609-1.65-.396-.722-.595-1.599-.595-2.637s.199-1.918.595-2.641c.397-.723.931-1.27 1.609-1.646.678-.375 1.438-.56 2.282-.56.843 0 1.6.19 2.277.56a4.067 4.067 0 011.613 1.646c.397.723.595 1.603.595 2.641v.005zm-2.319-.005c0-.616-.087-1.135-.258-1.557-.175-.426-.42-.746-.742-.964-.323-.218-.71-.329-1.162-.329-.451 0-.839.111-1.161.33-.323.217-.572.541-.747.963-.175.426-.258.946-.258 1.557 0 .612.087 1.136.258 1.558.175.426.42.746.747.964.322.218.71.329 1.161.329.452 0 .84-.107 1.162-.33.323-.217.572-.537.742-.963.175-.427.258-.946.258-1.558zM89.586 35.548h2.268v6.095c0 .704-.166 1.316-.498 1.84-.331.519-.797.922-1.396 1.21-.595.282-1.291.426-2.08.426-.788 0-1.493-.144-2.092-.427-.595-.282-1.06-.686-1.388-1.21-.332-.518-.493-1.135-.493-1.84v-6.094h2.273v5.895c0 .325.069.617.212.872s.34.454.599.598a1.8 1.8 0 00.894.218c.341 0 .636-.075.89-.218.258-.144.456-.343.6-.598.142-.255.216-.547.216-.872v-5.895h-.005zM93.08 44.994v-9.446h2.269v7.592h3.909v1.854H93.08zM105.923 35.548h2.268v6.095c0 .704-.166 1.316-.497 1.84a3.33 3.33 0 01-1.393 1.21c-.594.282-1.29.426-2.079.426-.788 0-1.493-.144-2.092-.427-.595-.282-1.061-.686-1.388-1.21-.332-.518-.498-1.135-.498-1.84v-6.094h2.273v5.895c0 .325.069.617.212.872s.341.454.599.598c.258.143.558.218.894.218.337 0 .637-.075.89-.218.254-.144.456-.343.599-.598.143-.255.217-.547.217-.872v-5.895h-.005zM109.109 37.402v-1.854h7.942v1.854h-2.849v7.592h-2.24v-7.592h-2.853zM123.653 35.548h2.268v6.095c0 .704-.166 1.316-.498 1.84-.332.519-.798.922-1.392 1.21-.595.282-1.291.426-2.079.426-.789 0-1.494-.144-2.093-.427a3.242 3.242 0 01-1.392-1.21c-.332-.518-.494-1.135-.494-1.84v-6.094h2.268v5.895c0 .325.07.617.212.872.143.255.342.454.6.598a1.8 1.8 0 00.894.218c.341 0 .636-.075.89-.218.258-.144.456-.343.599-.598.143-.255.217-.547.217-.872v-5.895zM132.227 38.38c-.033-.338-.166-.602-.406-.793-.24-.19-.581-.282-1.023-.282-.295 0-.54.037-.733.116a.969.969 0 00-.438.315.798.798 0 00-.152.459.711.711 0 00.083.375.845.845 0 00.276.283c.12.079.268.153.438.213.171.06.364.116.576.162l.807.186c.466.102.876.236 1.231.407.355.167.655.371.899.603.244.232.429.505.553.806.124.306.189.645.194 1.025 0 .597-.153 1.107-.452 1.534-.295.426-.724.755-1.277.982-.553.227-1.222.343-2.005.343-.784 0-1.471-.12-2.056-.357a2.928 2.928 0 01-1.365-1.08c-.322-.481-.488-1.093-.498-1.83h2.176c.019.306.097.556.245.76.142.204.341.357.594.463.254.107.544.158.881.158.304 0 .567-.042.783-.125.217-.084.383-.2.498-.348a.837.837 0 00.18-.505.69.69 0 00-.166-.459c-.106-.13-.272-.236-.493-.333a5.347 5.347 0 00-.844-.26l-.982-.232c-.816-.185-1.452-.491-1.922-.913-.466-.417-.701-.987-.696-1.705 0-.584.152-1.099.466-1.535.313-.44.751-.783 1.309-1.028.557-.246 1.189-.371 1.904-.371.714 0 1.359.125 1.899.37.535.246.954.594 1.249 1.039.295.445.447.964.456 1.548h-2.175l-.014.009zM135.486 44.994v-9.446h2.272v3.995h.125l3.107-3.995h2.674l-3.333 4.213 3.393 5.233h-2.716l-2.341-3.713-.909 1.154v2.559h-2.272zM150.048 35.548h2.268v6.095c0 .704-.166 1.316-.498 1.84-.332.519-.797.922-1.392 1.21-.595.282-1.291.426-2.079.426-.788 0-1.493-.144-2.093-.427a3.242 3.242 0 01-1.392-1.21c-.332-.518-.498-1.135-.498-1.84v-6.094h2.273v5.895c0 .325.069.617.212.872s.341.454.599.598a1.8 1.8 0 00.894.218c.342 0 .637-.075.89-.218.258-.144.457-.343.599-.598.143-.255.217-.547.217-.872v-5.895zM161.536 35.548v9.446h-1.927l-3.739-5.45h-.06v5.45h-2.268v-9.446h1.955l3.697 5.441h.078v-5.44h2.264zM162.458 37.402v-1.854h7.942v1.854h-2.849v7.592h-2.24v-7.592h-2.853zM176.66 44.994h2.443l-3.171-9.446h-3.024l-3.172 9.446h2.439l.618-1.984h3.245l.618 1.984h.004zm-3.323-3.717l1.041-3.347h.074l1.047 3.347h-2.162zM178.5 35.548h2.535l1.987 3.953h.083l1.986-3.953h2.536l-3.434 6.29v3.156h-2.259v-3.157l-3.434-6.289zM188.387 44.994v-9.446h2.268v3.791h3.707v-3.79h2.263v9.445h-2.263v-3.796h-3.707v3.796h-2.268zM197.547 37.402v-1.854h7.943v1.854h-2.849v7.592h-2.24v-7.592h-2.854zM205.942 35.548h2.535l1.987 3.953h.083l1.987-3.953h2.535l-3.434 6.29v3.156h-2.259v-3.157l-3.434-6.289zM215.83 35.548h2.812l2.383 5.85h.11l2.388-5.85h2.812v9.446h-2.212V39.19h-.079l-2.254 5.742h-1.415l-2.254-5.775h-.079v5.836h-2.212v-9.446zM233.273 34.649a.995.995 0 00.728-.297c.198-.199.3-.435.3-.709a.967.967 0 00-.3-.709 1 1 0 00-.728-.292c-.286 0-.535.097-.738.292a.945.945 0 00-.304.71c0 .277.101.514.304.708.203.195.447.297.738.297zM230.41 34.649a.997.997 0 00.729-.297.974.974 0 00.299-.709.966.966 0 00-.299-.709 1.005 1.005 0 00-.729-.292c-.286 0-.535.097-.737.292a.946.946 0 00-.305.71c0 .277.102.514.305.708.202.195.447.297.737.297zM234.075 44.994h2.439l-3.172-9.446h-3.024l-3.172 9.446h2.444l.617-1.984h3.246l.617 1.984h.005zm-3.324-3.717l1.042-3.347h.074l1.046 3.347h-2.162z" fill="currentColor"></path><path d="M30.908 3.407a3.397 3.397 0 01-3.388 3.406 3.397 3.397 0 01-3.388-3.406A3.397 3.397 0 0127.52 0a3.397 3.397 0 013.388 3.407zM30.908 51.593A3.397 3.397 0 0127.52 55a3.397 3.397 0 01-3.388-3.407 3.397 3.397 0 013.388-3.406 3.397 3.397 0 013.388 3.407zM6.776 27.998a3.397 3.397 0 01-3.388 3.407A3.397 3.397 0 010 27.998a3.397 3.397 0 013.388-3.406 3.397 3.397 0 013.388 3.406zM54.718 27.998a3.397 3.397 0 01-3.388 3.407 3.397 3.397 0 01-3.388-3.407 3.397 3.397 0 013.388-3.406 3.397 3.397 0 013.388 3.406M21.468 3.875a3.413 3.413 0 01-1.835 4.449 3.382 3.382 0 01-4.425-1.845 3.413 3.413 0 011.834-4.449 3.381 3.381 0 014.426 1.845M39.81 48.395a3.413 3.413 0 01-1.835 4.45A3.381 3.381 0 0133.55 51a3.413 3.413 0 011.835-4.45 3.382 3.382 0 014.425 1.846zM8.533 35.882a3.413 3.413 0 01-1.835 4.45 3.382 3.382 0 01-4.425-1.846 3.413 3.413 0 011.834-4.449 3.382 3.382 0 014.426 1.845zM52.828 17.436a3.413 3.413 0 01-1.835 4.45 3.382 3.382 0 01-4.425-1.845 3.413 3.413 0 011.835-4.45 3.382 3.382 0 014.425 1.845zM6.675 15.1a3.413 3.413 0 011.835 4.45 3.382 3.382 0 01-4.426 1.844 3.413 3.413 0 01-1.834-4.45A3.382 3.382 0 016.675 15.1zM50.956 33.541a3.413 3.413 0 011.835 4.45 3.382 3.382 0 01-4.425 1.844 3.413 3.413 0 01-1.835-4.449 3.381 3.381 0 014.425-1.845zM20.039 46.926a3.413 3.413 0 011.834 4.45 3.382 3.382 0 01-4.425 1.844 3.414 3.414 0 01-1.835-4.449 3.381 3.381 0 014.426-1.845zM38.386 2.396a3.413 3.413 0 011.834 4.45 3.382 3.382 0 01-4.425 1.844 3.413 3.413 0 01-1.835-4.45 3.382 3.382 0 014.425-1.844zM12.926 7.94a3.417 3.417 0 010 4.815 3.373 3.373 0 01-4.79 0 3.417 3.417 0 010-4.816 3.373 3.373 0 014.79 0zM46.812 42.014a3.417 3.417 0 010 4.815 3.373 3.373 0 01-4.79 0 3.417 3.417 0 010-4.816 3.373 3.373 0 014.79 0zM13.156 42.486a3.417 3.417 0 010 4.816 3.373 3.373 0 01-4.79 0 3.417 3.417 0 010-4.816 3.373 3.373 0 014.79 0zM47.056 8.403a3.417 3.417 0 010 4.815 3.373 3.373 0 01-4.79 0 3.417 3.417 0 010-4.815 3.373 3.373 0 014.79 0z" fill="currentColor"></path><path d="M29.687 13.042a2.097 2.097 0 01-2.093 2.104 2.097 2.097 0 01-2.093-2.104c0-1.163.936-2.104 2.093-2.104s2.093.94 2.093 2.104zM29.682 42.955a2.097 2.097 0 01-2.093 2.104 2.097 2.097 0 01-2.092-2.104c0-1.164.935-2.105 2.092-2.105 1.158 0 2.093.941 2.093 2.105zM44.438 27.998a2.097 2.097 0 01-2.093 2.104 2.097 2.097 0 01-2.093-2.104c0-1.163.936-2.104 2.093-2.104s2.093.94 2.093 2.104M14.806 27.998a2.097 2.097 0 01-2.092 2.104 2.097 2.097 0 01-2.093-2.104c0-1.163.936-2.104 2.093-2.104s2.092.94 2.092 2.104M18.54 15.892c.816.82.816 2.155 0 2.976-.816.82-2.143.82-2.959 0a2.11 2.11 0 010-2.976 2.087 2.087 0 012.96 0zM39.57 37.045c.816.82.816 2.155 0 2.976-.816.82-2.143.82-2.96 0a2.11 2.11 0 010-2.976c.821-.82 2.144-.82 2.96 0zM39.487 15.976c.816.82.816 2.155 0 2.975-.816.82-2.143.82-2.96 0a2.114 2.114 0 010-2.975c.821-.82 2.144-.82 2.96 0zM18.536 37.045c.816.82.816 2.155 0 2.976-.816.82-2.144.82-2.96 0a2.11 2.11 0 010-2.976 2.087 2.087 0 012.96 0zM14.636 20.286a2.107 2.107 0 011.134 2.748 2.088 2.088 0 01-2.734 1.14 2.108 2.108 0 01-1.134-2.748 2.088 2.088 0 012.734-1.14zM42.115 31.734a2.108 2.108 0 011.134 2.748 2.088 2.088 0 01-2.734 1.14 2.107 2.107 0 01-1.134-2.748 2.088 2.088 0 012.734-1.14M34.02 12.305a2.107 2.107 0 011.134 2.748 2.087 2.087 0 01-2.734 1.14 2.108 2.108 0 01-1.134-2.748 2.088 2.088 0 012.734-1.14M22.68 39.83a2.108 2.108 0 011.134 2.75 2.088 2.088 0 01-2.733 1.14 2.107 2.107 0 01-1.134-2.75 2.088 2.088 0 012.733-1.14M12.99 31.748a2.087 2.087 0 012.734 1.14 2.106 2.106 0 01-1.134 2.748 2.087 2.087 0 01-2.734-1.14 2.106 2.106 0 011.134-2.748zM40.478 20.305a2.087 2.087 0 012.734 1.14 2.106 2.106 0 01-1.134 2.748 2.086 2.086 0 01-2.734-1.14 2.106 2.106 0 011.134-2.748M21.085 12.319a2.087 2.087 0 012.734 1.14 2.106 2.106 0 01-1.134 2.748 2.086 2.086 0 01-2.734-1.14 2.106 2.106 0 011.134-2.748zM32.425 39.844a2.087 2.087 0 012.734 1.14 2.106 2.106 0 01-1.134 2.749 2.087 2.087 0 01-2.734-1.14 2.106 2.106 0 011.134-2.749" fill="currentColor"></path></svg>
