<svg width="131" height="31" viewBox="0 0 131 31" fill="none" xmlns="http://www.w3.org/2000/svg">
<g clip-path="url(#clip0_491_366)">
<mask id="mask0_491_366" style="mask-type:luminance" maskUnits="userSpaceOnUse" x="0" y="0" width="131" height="31">
<path d="M0.285645 0.831238H130.059V31H0.285645V0.831238Z" fill="white"/>
</mask>
<g mask="url(#mask0_491_366)">
<path d="M36.3027 16.6133V9.21816H38.08V15.162H41.1396V16.6133H36.3027ZM48.7153 12.9147C48.7153 13.7281 48.5584 14.4171 48.2474 14.9837C47.9364 15.5487 47.514 15.9804 46.9858 16.2727C46.4548 16.5651 45.8608 16.7126 45.2031 16.7126C44.5459 16.7126 43.947 16.5651 43.4182 16.2678C42.8894 15.9705 42.4698 15.5404 42.1588 14.9766C41.8478 14.4116 41.6936 13.7232 41.6936 12.9119C41.6936 12.1012 41.8472 11.4095 42.1588 10.8423C42.4698 10.2779 42.8894 9.84622 43.4182 9.55331C43.9464 9.26149 44.5432 9.11394 45.2031 9.11394C45.863 9.11394 46.4575 9.26149 46.9858 9.55386C47.5167 9.84622 47.9364 10.2779 48.2474 10.8429C48.5584 11.4095 48.7153 12.0985 48.7153 12.9119V12.9147ZM46.8975 12.9119C46.8975 12.4314 46.8289 12.025 46.6945 11.6915C46.5585 11.3585 46.3665 11.1067 46.1131 10.9367C45.8608 10.7666 45.5574 10.68 45.2031 10.68C44.8493 10.68 44.5481 10.7661 44.2953 10.9367C44.043 11.1067 43.8477 11.359 43.7111 11.6915C43.5745 12.025 43.5092 12.432 43.5092 12.9119C43.5092 13.3924 43.5773 13.8016 43.7111 14.1324C43.8455 14.4653 44.0402 14.7171 44.2953 14.8871C44.5481 15.0572 44.8515 15.1439 45.2031 15.1439C45.5541 15.1439 45.8608 15.0577 46.1136 14.8871C46.3659 14.7171 46.5612 14.4648 46.6951 14.1324C46.8316 13.7994 46.8975 13.3924 46.8975 12.9119ZM54.2 9.21816H55.975V13.9876C55.975 14.5388 55.8433 15.0193 55.5828 15.4263C55.3222 15.8328 54.958 16.1504 54.4907 16.372C54.0228 16.5958 53.4814 16.705 52.8649 16.705C52.2478 16.705 51.6937 16.5931 51.2259 16.372C50.7585 16.1482 50.3965 15.8328 50.1387 15.4263C49.8809 15.0166 49.752 14.5388 49.752 13.9876V9.21816H51.5292V13.8323C51.5292 14.0863 51.5851 14.315 51.6965 14.5158C51.8078 14.7171 51.9647 14.8723 52.1644 14.9864C52.3662 15.0983 52.5994 15.1565 52.8649 15.1565C53.1303 15.1565 53.3629 15.1011 53.5626 14.9864C53.7622 14.8718 53.9191 14.7171 54.0305 14.5158C54.1418 14.315 54.2 14.089 54.2 13.8323V9.21816ZM63.3482 9.21816V16.6133H61.8387L58.9129 12.3453H58.8651V16.6133H57.0874V9.21816H58.6172L61.5123 13.4791H61.5732V9.21816H63.3482ZM69.5608 16.6133H71.4724L68.9892 9.21816H66.6224L64.1397 16.6133H66.0513L66.534 15.0599H69.0754L69.5608 16.6133ZM66.9592 13.7023L67.7754 11.0815H67.834L68.653 13.7023H66.9592ZM74.0439 9.21816H72.2661V16.6133H74.0439V9.21816ZM79.1314 11.4347C79.1062 11.1704 79.0025 10.9647 78.8127 10.8149C78.6257 10.6668 78.3575 10.5933 78.0113 10.5933C77.781 10.5933 77.589 10.624 77.437 10.6849C77.2829 10.7458 77.1694 10.8275 77.0931 10.9317C77.0174 11.036 76.9768 11.155 76.9746 11.2899C76.9697 11.3996 76.9922 11.4984 77.0405 11.5823C77.0882 11.6662 77.1617 11.7397 77.2549 11.8033C77.3487 11.867 77.465 11.9229 77.5989 11.9712C77.7332 12.0195 77.8846 12.0628 78.0519 12.0985L78.6838 12.2433C79.0161 12.312 79.3393 12.4187 79.647 12.5614C79.9251 12.6931 80.1605 12.851 80.3503 13.0342C80.54 13.2169 80.6838 13.4281 80.7825 13.6672C80.8812 13.9058 80.9317 14.173 80.9344 14.4681C80.9317 14.9354 80.8154 15.3347 80.5828 15.6704C80.3503 16.0056 80.0162 16.2601 79.5812 16.4384C79.1468 16.6161 78.6229 16.705 78.0113 16.705C77.3992 16.705 76.8605 16.6133 76.4031 16.4279C75.9456 16.2425 75.5913 15.9601 75.3362 15.5838C75.0833 15.2053 74.9517 14.727 74.944 14.1499H76.6461C76.6609 14.3891 76.724 14.5871 76.8353 14.7451C76.9467 14.9025 77.1035 15.0248 77.3005 15.106C77.4979 15.1872 77.7283 15.2278 77.9883 15.2278C78.2286 15.2278 78.431 15.1949 78.6005 15.1312C78.77 15.0654 78.8989 14.9766 78.9899 14.8592C79.081 14.7451 79.1287 14.6123 79.1287 14.4626C79.1305 14.3315 79.0847 14.2043 78.9998 14.1044C78.9164 14.0051 78.7875 13.9185 78.6131 13.845C78.3985 13.7583 78.1768 13.6904 77.9505 13.642L77.182 13.461C76.5446 13.3134 76.0438 13.077 75.6774 12.7468C75.311 12.416 75.1289 11.9734 75.1311 11.4123C75.1311 10.9542 75.2501 10.5527 75.498 10.2093C75.7454 9.86377 76.0844 9.59664 76.5221 9.40356C76.9571 9.21048 77.4551 9.11394 78.0135 9.11394C78.5725 9.11394 79.0782 9.21048 79.4978 9.40356C79.918 9.59664 80.2438 9.86871 80.4764 10.217C80.709 10.5653 80.828 10.9696 80.8329 11.4298H79.1314V11.4353V11.4347ZM85.3692 12.2334H81.9635V13.5959H85.3692V12.2334ZM86.6083 16.6133V9.21816H88.3861V12.1851H91.284V9.21761H93.059V16.6133H91.284V13.6415H88.3861V16.6133H86.6083ZM98.6419 8.51385C98.8646 8.51385 99.0538 8.43761 99.2107 8.28238C99.3675 8.12769 99.446 7.94229 99.446 7.72563C99.4474 7.622 99.4272 7.51922 99.3867 7.42384C99.3462 7.32845 99.2862 7.24255 99.2107 7.17162C99.136 7.0973 99.0472 7.03876 98.9495 6.99946C98.8518 6.96017 98.7472 6.94093 98.6419 6.94288C98.4192 6.94288 98.2244 7.01913 98.0653 7.17162C97.9063 7.32411 97.8278 7.50951 97.8278 7.72563C97.8278 7.94175 97.9085 8.12769 98.0653 8.28238C98.2244 8.43761 98.417 8.51385 98.6419 8.51385ZM96.4017 8.51385C96.6238 8.51385 96.8136 8.43761 96.9705 8.28238C97.1274 8.12769 97.2058 7.94229 97.2058 7.72563C97.2072 7.622 97.187 7.51922 97.1465 7.42384C97.106 7.32845 97.0461 7.24255 96.9705 7.17162C96.8958 7.09736 96.807 7.03884 96.7093 6.99955C96.6116 6.96026 96.507 6.94099 96.4017 6.94288C96.179 6.94288 95.9843 7.01913 95.8252 7.17162C95.7485 7.2419 95.6874 7.32756 95.646 7.42302C95.6046 7.51848 95.5838 7.62159 95.5849 7.72563C95.5849 7.94175 95.6656 8.12769 95.8252 8.28238C95.9843 8.43761 96.1762 8.51385 96.4017 8.51385ZM99.2716 16.6133H101.183L98.7 9.21816H96.3331L93.85 16.6133H95.7616L96.2448 15.0599H98.7861L99.2716 16.6133ZM96.6694 13.7023L97.4861 11.0815H97.5443L98.3638 13.7023H96.6694ZM101.977 9.21816H104.177L106.045 13.7967H106.131L108 9.21816H110.2V16.6133H108.47V12.0705H108.407L106.642 16.5651H105.535L103.767 12.0452H103.706V16.6133H101.977V9.21816ZM111.315 16.6133V9.21816H116.443V10.6696H113.093V12.1846H116.18V13.6415H113.093V15.162H116.443V16.6133H111.315ZM117.555 16.6133V9.21816H122.686V10.6696H119.335V12.1846H122.423V13.6415H119.335V15.162H122.686V16.6133H117.555ZM130.059 9.21816V16.6133H128.55L125.624 12.3453H125.576V16.6133H123.799V9.21816H125.328L128.224 13.4791H128.284V9.21816H130.059ZM36.2649 25.5115V20.3301H37.5084V22.5215H37.577L39.2812 20.3301H40.748L38.9197 22.6411L40.7809 25.5115H39.2911L38.0075 23.4743L37.5089 24.1073V25.5109H36.2654L36.2649 25.5115ZM45.6885 22.9208C45.6885 23.4902 45.5799 23.9734 45.3621 24.37C45.1604 24.7498 44.8531 25.0631 44.4774 25.2723C44.1055 25.4786 43.6886 25.5795 43.2284 25.5795C42.7676 25.5795 42.3486 25.4753 41.9767 25.2696C41.6048 25.0639 41.3119 24.7617 41.0941 24.3645C40.8769 23.9685 40.7677 23.4874 40.7677 22.9181C40.7677 22.3487 40.8769 21.866 41.0941 21.4694C41.3119 21.0728 41.6048 20.7728 41.9767 20.5666C42.3486 20.3609 42.7654 20.2594 43.2284 20.2594C43.6908 20.2594 44.106 20.3636 44.4774 20.5666C44.8532 20.7759 45.1604 21.0895 45.3621 21.4694C45.5799 21.866 45.6885 22.3487 45.6885 22.9181V22.9208ZM44.4165 22.9181C44.4165 22.5802 44.3688 22.2955 44.275 22.064C44.179 21.8304 44.0446 21.6548 43.868 21.5352C43.6908 21.4157 43.4785 21.3548 43.2306 21.3548C42.9832 21.3548 42.7704 21.4157 42.5938 21.5358C42.4166 21.6548 42.28 21.8325 42.184 22.064C42.088 22.2977 42.0425 22.5829 42.0425 22.9181C42.0425 23.2538 42.0902 23.5412 42.184 23.7727C42.28 24.0063 42.4144 24.1819 42.5938 24.3015C42.7704 24.421 42.9832 24.4819 43.2306 24.4819C43.4785 24.4819 43.6913 24.4232 43.868 24.3009C44.0451 24.1819 44.1817 24.0063 44.275 23.7727C44.371 23.5385 44.4165 23.2538 44.4165 22.9181ZM49.4256 20.3301H50.6697V23.6734C50.6697 24.0596 50.5786 24.3952 50.3965 24.6827C50.2149 24.9674 49.9593 25.1884 49.6308 25.3464C49.3044 25.5011 48.9226 25.5801 48.4898 25.5801C48.0576 25.5801 47.6709 25.5011 47.3423 25.3458C47.0159 25.1912 46.7609 24.9696 46.581 24.6821C46.3989 24.398 46.3105 24.0596 46.3105 23.6728V20.3301H47.5573V23.5637C47.5573 23.742 47.5952 23.9021 47.6736 24.042C47.7521 24.1819 47.8601 24.291 48.0022 24.37C48.1525 24.4517 48.3215 24.4929 48.4926 24.4896C48.6796 24.4896 48.8414 24.4485 48.9808 24.37C49.1223 24.291 49.2309 24.1819 49.3099 24.042C49.3878 23.9021 49.4284 23.742 49.4284 23.5637V20.3301H49.4256ZM51.3421 25.5115V20.3301H52.5867V24.4945H54.7309V25.5115H51.3421ZM58.3868 20.3301H59.6309V23.6734C59.6309 24.0596 59.5398 24.3952 59.3583 24.6827C59.1712 24.9715 58.9063 25.2015 58.5942 25.3464C58.2684 25.5011 57.8866 25.5801 57.4538 25.5801C57.0216 25.5801 56.6348 25.5011 56.3063 25.3458C55.9799 25.1912 55.7243 24.9696 55.5449 24.6821C55.3628 24.398 55.2718 24.0596 55.2718 23.6728V20.3301H56.5186V23.5637C56.5186 23.742 56.5564 23.9021 56.6348 24.042C56.7133 24.1819 56.8219 24.291 56.9634 24.37C57.1049 24.4485 57.2695 24.4896 57.4538 24.4896C57.6386 24.4896 57.8032 24.4485 57.942 24.37C58.0813 24.291 58.1921 24.1819 58.2705 24.042C58.349 23.9021 58.3896 23.742 58.3896 23.5637V20.3301H58.3868ZM60.1344 21.3471V20.3301H64.4908V21.3471H62.9281V25.5115H61.6994V21.3471H60.1344ZM68.1121 20.3301H69.3562V23.6734C69.3562 24.0596 69.2651 24.3952 69.083 24.6827C68.9009 24.9674 68.6453 25.1884 68.3195 25.3464C67.9931 25.5011 67.6113 25.5801 67.1791 25.5801C66.7463 25.5801 66.3596 25.5011 66.0311 25.3458C65.7176 25.2032 65.4524 24.9726 65.2675 24.6821C65.0854 24.398 64.9965 24.0596 64.9965 23.6728V20.3301H66.2406V23.5637C66.2406 23.742 66.279 23.9021 66.3569 24.042C66.4353 24.1819 66.5445 24.291 66.686 24.37C66.8363 24.4517 67.0053 24.4929 67.1764 24.4896C67.3634 24.4896 67.5252 24.4485 67.6646 24.37C67.8061 24.291 67.9147 24.1819 67.9931 24.042C68.0716 23.9021 68.1121 23.742 68.1121 23.5637V20.3301ZM72.8152 21.8836C72.7971 21.6982 72.7241 21.5534 72.5925 21.4486C72.4608 21.3444 72.2738 21.2939 72.0313 21.2939C71.8695 21.2939 71.7351 21.3142 71.6293 21.3575C71.5345 21.3912 71.4511 21.4511 71.389 21.5303C71.3359 21.6036 71.3067 21.6916 71.3057 21.7821C71.3017 21.8535 71.3174 21.9247 71.3512 21.9878C71.3887 22.0508 71.4405 22.104 71.5026 22.143C71.5684 22.1863 71.6496 22.2269 71.7428 22.2598C71.8366 22.2928 71.9425 22.3235 72.0588 22.3487L72.5014 22.4507C72.757 22.5067 72.9819 22.5802 73.1767 22.674C73.3714 22.7656 73.5359 22.8775 73.6698 23.0047C73.8036 23.132 73.9051 23.2817 73.9731 23.4469C74.0411 23.6147 74.0768 23.8006 74.0795 24.0091C74.0795 24.3366 73.9956 24.6163 73.8316 24.8505C73.6698 25.0842 73.4345 25.2647 73.1311 25.3892C72.8278 25.5137 72.4608 25.5773 72.0313 25.5773C71.6013 25.5773 71.2245 25.5115 70.9036 25.3815C70.5997 25.2645 70.3386 25.0579 70.1548 24.7891C69.9782 24.5252 69.8872 24.1896 69.8817 23.7853H71.0753C71.0857 23.9531 71.1285 24.0903 71.2097 24.2022C71.2876 24.3141 71.3967 24.398 71.5355 24.4561C71.6748 24.5148 71.8339 24.5428 72.0187 24.5428C72.1855 24.5428 72.3297 24.5198 72.4482 24.4742C72.5673 24.4282 72.6583 24.3645 72.7214 24.2833C72.7838 24.2043 72.8185 24.107 72.8201 24.0063C72.8215 23.9141 72.7891 23.8246 72.7291 23.7546C72.6709 23.6833 72.5799 23.6251 72.4586 23.5719C72.3085 23.5117 72.1537 23.464 71.9957 23.4293L71.457 23.302C71.0095 23.2006 70.6606 23.0327 70.4028 22.8012C70.1472 22.5725 70.0183 22.2598 70.021 21.866C70.021 21.5457 70.1044 21.2632 70.2766 21.024C70.4483 20.7827 70.6886 20.5945 70.9946 20.4601C71.3002 20.3252 71.6468 20.2566 72.039 20.2566C72.4307 20.2566 72.7845 20.3252 73.0807 20.4596C73.3741 20.5945 73.604 20.7854 73.7658 21.0295C73.9276 21.2736 74.011 21.5583 74.0159 21.8786H72.8229L72.8152 21.8836ZM74.6028 25.5115V20.3301H75.8491V22.5215H75.9176L77.6219 20.3301H79.0886L77.2604 22.6411L79.1216 25.5115H77.6318L76.3477 23.4748L75.8491 24.1078V25.5115H74.6028ZM82.5904 20.3301H83.8345V23.6734C83.8345 24.0596 83.7434 24.3952 83.5613 24.6827C83.3792 24.9674 83.1241 25.1884 82.7978 25.3464C82.4714 25.5011 82.0896 25.5801 81.6574 25.5801C81.2251 25.5801 80.8384 25.5011 80.5093 25.3458C80.1959 25.2032 79.9307 24.9726 79.7458 24.6821C79.5637 24.398 79.4726 24.0596 79.4726 23.6728V20.3301H80.7194V23.5637C80.7194 23.742 80.7573 23.9021 80.8357 24.042C80.9141 24.1819 81.0227 24.291 81.1643 24.37C81.3146 24.4517 81.4836 24.4929 81.6546 24.4896C81.8422 24.4896 82.004 24.4485 82.1428 24.37C82.2843 24.291 82.3935 24.1819 82.4714 24.042C82.5498 23.9021 82.5904 23.742 82.5904 23.5637V20.3301ZM88.8918 20.3301V25.5115H87.8348L85.7839 22.522H85.751V25.5115H84.507V20.3301H85.5793L87.6072 23.3147H87.65V20.3307L88.8918 20.3301ZM89.3976 21.3471V20.3301H93.754V21.3471H92.1912V25.5115H90.9625V21.3471H89.3976ZM97.1877 25.5115H98.5278L96.7884 20.3301H95.1297L93.3897 25.5115H94.7276L95.0666 24.4232H96.8465L97.1855 25.5115H97.1877ZM95.365 23.4726L95.936 21.6367H95.9766L96.5509 23.4726H95.365ZM98.197 20.3301H99.5875L100.677 22.4985H100.723L101.812 20.3301H103.203L101.32 23.7804V25.5115H100.081V23.7798L98.197 20.3301ZM103.62 25.5115V20.3301H104.864V22.4096H106.898V20.3307H108.139V25.5115H106.898V23.4293H104.864V25.5115H103.62ZM108.645 21.3471V20.3301H113.002V21.3471H111.439V25.5115H110.21V21.3471H108.645ZM113.25 20.3301H114.64L115.73 22.4985H115.776L116.865 20.3301H118.256L116.372 23.7804V25.5115H115.133V23.7798L113.25 20.3301ZM118.673 20.3301H120.216L121.523 23.539H121.583L122.893 20.3301H124.436V25.5115H123.222V22.3279H123.179L121.943 25.4775H121.166L119.93 22.3098H119.887V25.5109H118.673V20.3301ZM128.241 19.837C128.315 19.8384 128.389 19.8247 128.458 19.7967C128.526 19.7687 128.589 19.727 128.641 19.6741C128.749 19.565 128.805 19.4355 128.805 19.2852C128.806 19.2126 128.792 19.1406 128.763 19.0737C128.735 19.0068 128.693 18.9464 128.641 18.8963C128.588 18.8441 128.526 18.803 128.457 18.7754C128.389 18.7479 128.315 18.7345 128.241 18.7361C128.084 18.7361 127.948 18.7893 127.836 18.8963C127.783 18.9458 127.74 19.0061 127.711 19.0732C127.683 19.1403 127.669 19.2128 127.67 19.2858C127.67 19.4377 127.725 19.5677 127.836 19.6741C127.948 19.7811 128.082 19.837 128.241 19.837ZM126.671 19.837C126.745 19.8384 126.819 19.8247 126.888 19.7967C126.956 19.7687 127.019 19.727 127.071 19.6741C127.123 19.6238 127.165 19.5634 127.193 19.4965C127.221 19.4297 127.235 19.3578 127.235 19.2852C127.235 19.2126 127.221 19.1406 127.193 19.0737C127.165 19.0068 127.123 18.9464 127.071 18.8963C127.018 18.8441 126.956 18.8031 126.887 18.7755C126.818 18.748 126.745 18.7346 126.671 18.7361C126.514 18.7361 126.377 18.7893 126.267 18.8963C126.213 18.9458 126.17 19.0061 126.141 19.0732C126.113 19.1403 126.098 19.2127 126.099 19.2858C126.099 19.4377 126.155 19.5677 126.267 19.6741C126.377 19.7811 126.512 19.837 126.671 19.837ZM128.681 25.5115H130.019L128.279 20.3301H126.62L124.88 25.5115H126.221L126.559 24.4232H128.34L128.678 25.5115H128.681ZM126.858 23.4726L127.429 21.6367H127.47L128.044 23.4726H126.858Z" fill="#1C1E26"/>
<path d="M17.2394 2.70006C17.2401 2.94475 17.1925 3.18718 17.0995 3.4135C17.0064 3.63982 16.8697 3.84559 16.6971 4.01908C16.5246 4.19257 16.3195 4.33036 16.0937 4.4246C15.8679 4.51884 15.6257 4.56768 15.381 4.56833C15.1363 4.56768 14.8941 4.51884 14.6683 4.4246C14.4425 4.33036 14.2374 4.19257 14.0649 4.01908C13.8923 3.84559 13.7556 3.63982 13.6626 3.4135C13.5695 3.18718 13.522 2.94475 13.5226 2.70006C13.5219 2.45531 13.5694 2.21283 13.6624 1.98644C13.7554 1.76006 13.8921 1.55422 14.0647 1.38068C14.2373 1.20714 14.4423 1.06929 14.6682 0.975015C14.8941 0.880741 15.1363 0.831885 15.381 0.831238C15.6258 0.831885 15.868 0.880741 16.0938 0.975015C16.3197 1.06929 16.5248 1.20714 16.6973 1.38068C16.8699 1.55422 17.0066 1.76006 17.0996 1.98644C17.1926 2.21283 17.2401 2.45531 17.2394 2.70006ZM17.2394 29.1312C17.2401 29.3759 17.1926 29.6184 17.0996 29.8448C17.0066 30.0712 16.8699 30.277 16.6973 30.4506C16.5248 30.6241 16.3197 30.762 16.0938 30.8562C15.868 30.9505 15.6258 30.9994 15.381 31C15.1363 30.9994 14.8941 30.9505 14.6682 30.8562C14.4423 30.762 14.2373 30.6241 14.0647 30.4506C13.8921 30.277 13.7554 30.0712 13.6624 29.8448C13.5694 29.6184 13.5219 29.3759 13.5226 29.1312C13.522 28.8865 13.5695 28.6441 13.6626 28.4178C13.7556 28.1914 13.8923 27.9857 14.0649 27.8122C14.2374 27.6387 14.4425 27.5009 14.6683 27.4067C14.8941 27.3124 15.1363 27.2636 15.381 27.2629C15.6258 27.2636 15.868 27.3124 16.0938 27.4067C16.3197 27.501 16.5248 27.6388 16.6973 27.8124C16.8699 27.9859 17.0066 28.1918 17.0996 28.4181C17.1926 28.6445 17.2401 28.887 17.2394 29.1317V29.1312ZM4.00245 16.1888C4.00317 16.4335 3.95567 16.676 3.86266 16.9024C3.76965 17.1288 3.63295 17.3346 3.46038 17.5082C3.2878 17.6817 3.08273 17.8196 2.85687 17.9138C2.63101 18.0081 2.38879 18.057 2.14405 18.0576C1.89931 18.057 1.65709 18.0081 1.43123 17.9138C1.20537 17.8196 1.0003 17.6817 0.827723 17.5082C0.655148 17.3346 0.518451 17.1288 0.425442 16.9024C0.332432 16.676 0.284931 16.4335 0.285653 16.1888C0.285003 15.9441 0.332557 15.7017 0.425599 15.4753C0.518641 15.249 0.655349 15.0433 0.827918 14.8698C1.00049 14.6963 1.20553 14.5585 1.43136 14.4642C1.65718 14.37 1.89935 14.3212 2.14405 14.3205C2.38875 14.3212 2.63092 14.37 2.85674 14.4642C3.08256 14.5585 3.28761 14.6963 3.46018 14.8698C3.63275 15.0433 3.76946 15.249 3.8625 15.4753C3.95554 15.7017 4.00309 15.9441 4.00245 16.1888ZM30.2997 16.1888C30.3005 16.4335 30.253 16.676 30.16 16.9024C30.0669 17.1288 29.9302 17.3346 29.7577 17.5082C29.5851 17.6817 29.38 17.8196 29.1542 17.9138C28.9283 18.0081 28.6861 18.057 28.4413 18.0576C28.1966 18.057 27.9544 18.0081 27.7285 17.9138C27.5027 17.8196 27.2976 17.6817 27.125 17.5082C26.9524 17.3346 26.8158 17.1288 26.7227 16.9024C26.6297 16.676 26.5822 16.4335 26.583 16.1888C26.5823 15.9441 26.6299 15.7017 26.7229 15.4753C26.8159 15.249 26.9526 15.0433 27.1252 14.8698C27.2978 14.6963 27.5028 14.5585 27.7287 14.4642C27.9545 14.37 28.1967 14.3212 28.4413 14.3205C28.686 14.3212 28.9282 14.37 29.154 14.4642C29.3799 14.5585 29.5849 14.6963 29.7575 14.8698C29.93 15.0433 30.0668 15.249 30.1598 15.4753C30.2528 15.7017 30.3004 15.9441 30.2997 16.1888ZM12.0613 2.95677C12.25 3.414 12.25 3.9273 12.0614 4.38455C11.8728 4.84181 11.5109 5.20584 11.0548 5.39715C10.8291 5.49067 10.587 5.53867 10.3427 5.53839C10.0983 5.53811 9.85644 5.48956 9.6309 5.39552C9.40536 5.30148 9.20062 5.16381 9.02844 4.99041C8.85627 4.81702 8.72004 4.61132 8.62759 4.38512C8.43893 3.92795 8.43883 3.41471 8.62732 2.95747C8.8158 2.50023 9.17756 2.13615 9.63358 1.94474C9.85936 1.85106 10.1014 1.80293 10.3459 1.80313C10.5903 1.80333 10.8323 1.85185 11.0579 1.94591C11.2835 2.03996 11.4883 2.17768 11.6605 2.35116C11.8328 2.52464 11.969 2.73046 12.0613 2.95677ZM22.1224 27.377C22.3112 27.8343 22.3113 28.3478 22.1227 28.8051C21.9341 29.2625 21.5721 29.6266 21.1158 29.8179C20.8901 29.9115 20.6481 29.9596 20.4037 29.9594C20.1593 29.9591 19.9174 29.9106 19.6918 29.8165C19.4663 29.7225 19.2615 29.5848 19.0894 29.4114C18.9172 29.2379 18.781 29.0322 18.6886 28.8059C18.4998 28.3486 18.4997 27.8352 18.6883 27.3778C18.8769 26.9204 19.2389 26.5563 19.6951 26.365C19.9209 26.2715 20.163 26.2235 20.4074 26.2238C20.6517 26.2241 20.8936 26.2727 21.1192 26.3668C21.3447 26.4609 21.5495 26.5987 21.7216 26.7721C21.8938 26.9456 22.03 27.1508 22.1224 27.377ZM4.9662 20.5133C5.155 20.9706 5.15511 21.4841 4.96651 21.9415C4.7779 22.3988 4.41592 22.763 3.95966 22.9543C3.73387 23.0478 3.49184 23.0958 3.24745 23.0954C3.00307 23.0951 2.76116 23.0465 2.53561 22.9524C2.31007 22.8583 2.10534 22.7206 1.93318 22.5472C1.76103 22.3737 1.62484 22.1679 1.53245 21.9417C1.34378 21.4845 1.34368 20.9713 1.53217 20.514C1.72066 20.0568 2.08241 19.6927 2.53844 19.5013C2.76422 19.4077 3.00628 19.3596 3.2507 19.3599C3.49511 19.3601 3.73708 19.4087 3.96268 19.5027C4.18828 19.5967 4.39308 19.7344 4.56529 19.9079C4.73751 20.0813 4.87376 20.2871 4.9662 20.5133ZM29.263 10.3953C29.4518 10.8526 29.452 11.366 29.2633 11.8234C29.0747 12.2808 28.7128 12.6449 28.2565 12.8362C28.0307 12.9297 27.7887 12.9777 27.5444 12.9775C27.3 12.9772 27.0581 12.9286 26.8326 12.8346C26.607 12.7406 26.4023 12.6029 26.2301 12.4295C26.058 12.2561 25.9217 12.0504 25.8293 11.8242C25.6405 11.3669 25.6404 10.8535 25.829 10.3961C26.0176 9.93869 26.3796 9.57456 26.8358 9.38326C27.0616 9.28974 27.3036 9.24174 27.5479 9.24202C27.7923 9.2423 28.0342 9.29085 28.2597 9.38489C28.4853 9.47893 28.69 9.6166 28.8622 9.79C29.0344 9.96339 29.1706 10.1691 29.263 10.3953ZM3.94705 9.11394C4.4033 9.30524 4.76529 9.66937 4.95389 10.1267C5.1425 10.5841 5.14239 11.0976 4.95358 11.5549C4.86109 11.7811 4.7248 11.9868 4.55256 12.1602C4.38032 12.3336 4.17552 12.4712 3.94993 12.5652C3.72433 12.6592 3.48238 12.7077 3.23799 12.7079C2.9936 12.7081 2.75157 12.66 2.52582 12.5663C2.06966 12.3749 1.7078 12.0108 1.5193 11.5534C1.33081 11.096 1.33099 10.5826 1.51983 10.1254C1.61233 9.89927 1.74859 9.69362 1.92079 9.52028C2.09299 9.34695 2.29774 9.20934 2.52327 9.11535C2.74881 9.02137 2.99068 8.97286 3.23502 8.97262C3.47935 8.97237 3.72133 9.0204 3.94705 9.11394ZM28.2362 19.2293C28.6925 19.4206 29.0544 19.7847 29.243 20.2421C29.4317 20.6994 29.4315 21.2129 29.2427 21.6702C29.1502 21.8963 29.014 22.102 28.8418 22.2753C28.6696 22.4487 28.4648 22.5863 28.2393 22.6803C28.0138 22.7742 27.7719 22.8227 27.5276 22.823C27.2832 22.8232 27.0412 22.7752 26.8155 22.6817C26.3594 22.4904 25.9975 22.1263 25.8089 21.6691C25.6203 21.2118 25.6204 20.6985 25.809 20.2413C25.9014 20.015 26.0376 19.8093 26.2097 19.6359C26.3819 19.4624 26.5866 19.3247 26.8122 19.2307C27.0378 19.1366 27.2797 19.0881 27.5241 19.0878C27.7684 19.0876 28.0105 19.1357 28.2362 19.2293ZM11.2775 26.5712C11.7337 26.7626 12.0955 27.1268 12.284 27.5842C12.4725 28.0416 12.4723 28.5549 12.2835 29.0122C12.191 29.2383 12.0547 29.444 11.8825 29.6173C11.7103 29.7906 11.5056 29.9282 11.2801 30.0222C11.0545 30.1162 10.8126 30.1647 10.5683 30.165C10.324 30.1652 10.082 30.1172 9.85629 30.0236C9.40026 29.8322 9.03847 29.4682 8.84989 29.011C8.66132 28.5538 8.66126 28.0405 8.84974 27.5833C8.94213 27.357 9.07834 27.1511 9.25055 26.9777C9.42276 26.8042 9.62756 26.6665 9.85318 26.5724C10.0788 26.4784 10.3208 26.4298 10.5652 26.4296C10.8097 26.4294 11.0517 26.4776 11.2775 26.5712ZM21.3413 2.1455C21.7974 2.3369 22.1593 2.70108 22.3478 3.15844C22.5363 3.61581 22.5361 4.1292 22.3473 4.58643C22.2548 4.81258 22.1185 5.01822 21.9463 5.19156C21.7741 5.3649 21.5693 5.50251 21.3438 5.59649C21.1183 5.69048 20.8764 5.73899 20.6321 5.73923C20.3877 5.73947 20.1458 5.69144 19.92 5.5979C19.4638 5.4066 19.1018 5.04248 18.9132 4.5851C18.7246 4.12772 18.7247 3.61427 18.9135 3.15698C19.006 2.93083 19.1423 2.72518 19.3145 2.55185C19.4867 2.37851 19.6914 2.2409 19.9169 2.14691C20.1425 2.05293 20.3844 2.00442 20.6287 2.00418C20.873 2.00393 21.115 2.05196 21.3407 2.1455H21.3413ZM7.37586 5.18651C7.72446 5.53762 7.92009 6.01232 7.92009 6.50708C7.92009 7.00185 7.72446 7.47655 7.37586 7.82765C7.20386 8.00109 6.99922 8.13876 6.77374 8.23271C6.54827 8.32665 6.30642 8.37502 6.06215 8.37502C5.81788 8.37502 5.57603 8.32665 5.35056 8.23271C5.12508 8.13876 4.92044 8.00109 4.74844 7.82765C4.39967 7.47652 4.20394 7.00171 4.20394 6.50681C4.20394 6.01191 4.39967 5.53709 4.74844 5.18596C4.92044 5.01252 5.12508 4.87486 5.35056 4.78091C5.57603 4.68696 5.81788 4.63859 6.06215 4.63859C6.30642 4.63859 6.54827 4.68696 6.77374 4.78091C6.99922 4.87486 7.20386 5.01307 7.37586 5.18651ZM25.9631 23.8769C26.3117 24.228 26.5073 24.7027 26.5073 25.1975C26.5073 25.6922 26.3117 26.1669 25.9631 26.518C25.7911 26.6915 25.5865 26.8291 25.361 26.9231C25.1355 27.017 24.8937 27.0654 24.6494 27.0654C24.4051 27.0654 24.1633 27.017 23.9378 26.9231C23.7123 26.8291 23.5077 26.6915 23.3357 26.518C22.9869 26.1669 22.7912 25.6921 22.7912 25.1972C22.7912 24.7023 22.9869 24.2275 23.3357 23.8763C23.5077 23.7029 23.7123 23.5652 23.9378 23.4713C24.1633 23.3773 24.4051 23.329 24.6494 23.329C24.8937 23.329 25.1355 23.3773 25.361 23.4713C25.5865 23.5652 25.7911 23.7035 25.9631 23.8769ZM7.50202 24.1358C7.85079 24.4869 8.04652 24.9617 8.04652 25.4566C8.04652 25.9515 7.85079 26.4264 7.50202 26.7775C7.33002 26.9509 7.12538 27.0886 6.8999 27.1825C6.67443 27.2765 6.43258 27.3249 6.18831 27.3249C5.94404 27.3249 5.7022 27.2765 5.47672 27.1825C5.25124 27.0886 5.0466 26.9509 4.8746 26.7775C4.52584 26.4264 4.3301 25.9515 4.3301 25.4566C4.3301 24.9617 4.52584 24.4869 4.8746 24.1358C5.0466 23.9624 5.25124 23.8247 5.47672 23.7307C5.7022 23.6368 5.94404 23.5884 6.18831 23.5884C6.43258 23.5884 6.67443 23.6368 6.8999 23.7307C7.12538 23.8247 7.33002 23.9624 7.50202 24.1358ZM26.097 5.44048C26.4456 5.79158 26.6412 6.26628 26.6412 6.76105C26.6412 7.25582 26.4456 7.73051 26.097 8.08162C25.925 8.25506 25.7203 8.39273 25.4948 8.48667C25.2694 8.58062 25.0275 8.62899 24.7832 8.62899C24.539 8.62899 24.2971 8.58062 24.0717 8.48667C23.8462 8.39273 23.6415 8.25506 23.4695 8.08162C23.1209 7.73051 22.9253 7.25582 22.9253 6.76105C22.9253 6.26628 23.1209 5.79158 23.4695 5.44048C23.6415 5.26704 23.8462 5.12937 24.0717 5.03542C24.2971 4.94148 24.539 4.89311 24.7832 4.89311C25.0275 4.89311 25.2694 4.94148 25.4948 5.03542C25.7203 5.12937 25.925 5.26704 26.097 5.44048Z" fill="#1C1E26"/>
<path d="M16.5696 7.98509C16.5701 8.13628 16.5408 8.28609 16.4834 8.42594C16.4259 8.5658 16.3415 8.69296 16.2348 8.80015C16.1282 8.90733 16.0015 8.99245 15.8619 9.05063C15.7224 9.1088 15.5727 9.13889 15.4215 9.13918C15.2703 9.13889 15.1207 9.1088 14.9811 9.05063C14.8416 8.99245 14.7149 8.90733 14.6082 8.80015C14.5016 8.69296 14.4172 8.5658 14.3597 8.42594C14.3023 8.28609 14.273 8.13628 14.2735 7.98509C14.2735 7.34715 14.7869 6.83099 15.4215 6.83099C16.0562 6.83099 16.5696 7.34661 16.5696 7.98509ZM16.5669 24.3931C16.5674 24.5443 16.5381 24.6941 16.4806 24.8339C16.4232 24.9738 16.3387 25.1009 16.2321 25.2081C16.1255 25.3153 15.9987 25.4004 15.8592 25.4586C15.7196 25.5168 15.57 25.5469 15.4188 25.5472C15.2677 25.5468 15.1181 25.5167 14.9786 25.4584C14.8391 25.4002 14.7124 25.3151 14.6059 25.2079C14.4993 25.1007 14.4149 24.9736 14.3575 24.8338C14.3001 24.694 14.2708 24.5442 14.2713 24.3931C14.2713 23.7546 14.7842 23.2384 15.4188 23.2384C16.054 23.2384 16.5669 23.7546 16.5669 24.3931ZM24.6609 16.1888C24.6614 16.34 24.6321 16.4898 24.5746 16.6297C24.5172 16.7695 24.4327 16.8967 24.3261 17.0039C24.2195 17.111 24.0928 17.1962 23.9532 17.2543C23.8137 17.3125 23.664 17.3426 23.5128 17.3429C23.3616 17.3426 23.212 17.3125 23.0724 17.2543C22.9329 17.1962 22.8061 17.111 22.6995 17.0039C22.5929 16.8967 22.5084 16.7695 22.451 16.6297C22.3936 16.4898 22.3642 16.34 22.3647 16.1888C22.3647 15.5509 22.8782 15.0347 23.5128 15.0347C24.1474 15.0347 24.6609 15.5503 24.6609 16.1888ZM8.40703 16.1888C8.40753 16.3399 8.37824 16.4897 8.32083 16.6295C8.26343 16.7693 8.17902 16.8965 8.07245 17.0037C7.96588 17.1108 7.83923 17.196 7.69974 17.2542C7.56026 17.3124 7.41066 17.3425 7.25952 17.3429C7.10832 17.3426 6.95867 17.3125 6.81912 17.2543C6.67957 17.1962 6.55285 17.111 6.44622 17.0039C6.33959 16.8967 6.25514 16.7695 6.1977 16.6297C6.14026 16.4898 6.11095 16.34 6.11146 16.1888C6.11146 15.5509 6.62487 15.0347 7.25952 15.0347C7.89416 15.0347 8.40703 15.5503 8.40703 16.1888ZM10.4552 9.54838C10.9028 9.99817 10.9028 10.7304 10.4552 11.1808C10.0076 11.6306 9.27973 11.6306 8.83213 11.1808C8.61642 10.9639 8.49533 10.6705 8.49533 10.3646C8.49533 10.0587 8.61642 9.76525 8.83213 9.54838C8.93852 9.44137 9.06501 9.35646 9.20433 9.29851C9.34365 9.24057 9.49306 9.21074 9.64395 9.21074C9.79484 9.21074 9.94424 9.24057 10.0836 9.29851C10.2229 9.35646 10.3488 9.44137 10.4552 9.54838ZM21.9907 21.1513C22.4383 21.6011 22.4383 22.3334 21.9907 22.7837C21.5431 23.2335 20.8152 23.2335 20.367 22.7837C20.1513 22.5668 20.0302 22.2734 20.0302 21.9675C20.0302 21.6616 20.1513 21.3682 20.367 21.1513C20.8174 20.7015 21.5431 20.7015 21.9907 21.1513ZM21.9451 9.59445C22.3927 10.0442 22.3927 10.7765 21.9451 11.2263C21.4975 11.6761 20.7696 11.6761 20.3215 11.2263C20.1065 11.0092 19.9859 10.716 19.9859 10.4104C19.9859 10.1048 20.1065 9.81158 20.3215 9.59445C20.7718 9.14466 21.4975 9.14466 21.9451 9.59445ZM10.453 21.1513C10.9006 21.6011 10.9006 22.3334 10.453 22.7837C10.0054 23.2335 9.27698 23.2335 8.82939 22.7837C8.61368 22.5668 8.49258 22.2734 8.49258 21.9675C8.49258 21.6616 8.61368 21.3682 8.82939 21.1513C8.93578 21.0443 9.06227 20.9594 9.20159 20.9014C9.34091 20.8435 9.49031 20.8136 9.6412 20.8136C9.79209 20.8136 9.9415 20.8435 10.0808 20.9014C10.2201 20.9594 10.3466 21.0443 10.453 21.1513ZM8.31378 11.9586C8.59567 12.0766 8.81937 12.3014 8.93594 12.5839C9.05251 12.8663 9.05246 13.1835 8.9358 13.4659C8.87878 13.6058 8.79467 13.7329 8.68831 13.8401C8.58195 13.9473 8.45544 14.0324 8.31606 14.0906C8.17668 14.1487 8.02718 14.1787 7.87617 14.1788C7.72515 14.1789 7.57561 14.1491 7.43614 14.0912C7.15434 13.9732 6.93074 13.7483 6.81418 13.4659C6.69763 13.1835 6.69761 12.8664 6.81411 12.5839C6.87114 12.4441 6.95525 12.3169 7.06161 12.2097C7.16797 12.1025 7.29448 12.0174 7.43386 11.9593C7.57324 11.9012 7.72274 11.8712 7.87375 11.8711C8.02476 11.8709 8.17431 11.9007 8.31378 11.9586ZM23.3866 18.2381C23.6684 18.3562 23.892 18.581 24.0086 18.8634C24.1252 19.1459 24.1252 19.463 24.0087 19.7454C23.9517 19.8853 23.8675 20.0124 23.7612 20.1196C23.6548 20.2268 23.5283 20.3119 23.3889 20.3701C23.2495 20.4282 23.1 20.4582 22.949 20.4583C22.798 20.4584 22.6485 20.4286 22.509 20.3707C22.2271 20.2528 22.0034 20.028 21.8868 19.7455C21.7703 19.463 21.7703 19.1458 21.887 18.8634C21.944 18.7236 22.0281 18.5964 22.1345 18.4892C22.2408 18.382 22.3674 18.2969 22.5067 18.2388C22.6461 18.1807 22.7956 18.1507 22.9466 18.1506C23.0976 18.1504 23.2472 18.1802 23.3866 18.2381ZM18.9464 7.58083C19.2282 7.6988 19.4519 7.92362 19.5685 8.2061C19.6851 8.48857 19.685 8.80572 19.5684 9.08817C19.5114 9.22805 19.4273 9.35527 19.321 9.46251C19.2146 9.56975 19.0881 9.65489 18.9487 9.71301C18.8093 9.77114 18.6598 9.8011 18.5088 9.80118C18.3577 9.80127 18.2082 9.77146 18.0687 9.71348C17.7869 9.59539 17.5633 9.37057 17.4468 9.08813C17.3302 8.80569 17.3302 8.4886 17.4467 8.20614C17.5037 8.06631 17.5878 7.93913 17.6942 7.83193C17.8005 7.72474 17.9271 7.63963 18.0664 7.58151C18.2058 7.52339 18.3553 7.49341 18.5063 7.49329C18.6573 7.49318 18.8069 7.52292 18.9464 7.58083ZM12.7261 22.6789C13.0082 22.797 13.232 23.022 13.3486 23.3047C13.4651 23.5874 13.465 23.9048 13.3481 24.1874C13.2911 24.3271 13.207 24.4542 13.1007 24.5614C12.9944 24.6686 12.8679 24.7536 12.7286 24.8117C12.5893 24.8699 12.4398 24.8999 12.2889 24.9C12.1379 24.9002 11.9884 24.8705 11.849 24.8127C11.5668 24.6947 11.3429 24.4697 11.2263 24.187C11.1098 23.9042 11.11 23.5868 11.227 23.3042C11.284 23.1645 11.3681 23.0374 11.4744 22.9302C11.5807 22.8231 11.7072 22.738 11.8465 22.6799C11.9858 22.6218 12.1353 22.5918 12.2862 22.5916C12.4372 22.5914 12.5867 22.6211 12.7261 22.6789ZM7.41091 18.2458C7.55037 18.1878 7.69992 18.158 7.85096 18.1581C8.00199 18.1581 8.15151 18.1881 8.29091 18.2462C8.43031 18.3044 8.55683 18.3895 8.66318 18.4967C8.76953 18.604 8.85361 18.7312 8.91057 18.8711C9.02738 19.1535 9.0275 19.4707 8.91092 19.7532C8.79433 20.0358 8.57054 20.2606 8.28855 20.3784C8.14908 20.4364 7.99953 20.4662 7.8485 20.4661C7.69746 20.466 7.54794 20.4361 7.40854 20.3779C7.26914 20.3198 7.14262 20.2347 7.03627 20.1274C6.92992 20.0202 6.84584 19.893 6.78888 19.7531C6.67207 19.4707 6.67195 19.1535 6.78854 18.8709C6.90512 18.5884 7.12892 18.3636 7.41091 18.2458ZM22.4887 11.969C22.6282 11.911 22.7777 11.8812 22.9288 11.8813C23.0798 11.8814 23.2293 11.9114 23.3687 11.9695C23.5081 12.0276 23.6346 12.1127 23.741 12.22C23.8473 12.3272 23.9314 12.4544 23.9884 12.5943C24.1052 12.8768 24.1053 13.194 23.9887 13.4765C23.8721 13.759 23.6483 13.9838 23.3664 14.1017C23.2269 14.1597 23.0773 14.1896 22.9263 14.1895C22.7752 14.1895 22.6257 14.1595 22.4863 14.1014C22.3468 14.0433 22.2203 13.9581 22.114 13.8508C22.0076 13.7436 21.9236 13.6163 21.8667 13.4764C21.7499 13.1939 21.7498 12.8767 21.8663 12.5942C21.9829 12.3117 22.2067 12.0869 22.4887 11.969ZM11.8512 7.5885C11.9907 7.53053 12.1402 7.50072 12.2913 7.5008C12.4423 7.50089 12.5918 7.53085 12.7312 7.58898C12.8706 7.6471 12.9971 7.73224 13.1035 7.83948C13.2098 7.94672 13.2939 8.07394 13.3509 8.21382C13.4677 8.49625 13.4678 8.81346 13.3512 9.09598C13.2346 9.3785 13.0108 9.6033 12.7288 9.72116C12.5894 9.77921 12.4398 9.80908 12.2888 9.80903C12.1377 9.80899 11.9882 9.77904 11.8487 9.7209C11.7093 9.66277 11.5828 9.57761 11.4765 9.47033C11.3701 9.36305 11.2861 9.23577 11.2292 9.09585C11.1124 8.81342 11.1122 8.49621 11.2288 8.21369C11.3454 7.93117 11.5692 7.70636 11.8512 7.5885ZM18.0715 22.6866C18.2109 22.6286 18.3605 22.5988 18.5115 22.5989C18.6625 22.599 18.8121 22.629 18.9515 22.6871C19.0909 22.7452 19.2174 22.8303 19.3237 22.9376C19.4301 23.0448 19.5142 23.172 19.5711 23.3119C19.6881 23.5944 19.6883 23.9118 19.5717 24.1944C19.4551 24.4771 19.2312 24.702 18.9491 24.8198C18.8096 24.8778 18.6601 24.9076 18.509 24.9075C18.358 24.9074 18.2085 24.8775 18.0691 24.8193C17.9297 24.7612 17.8032 24.6761 17.6968 24.5688C17.5905 24.4616 17.5064 24.3344 17.4494 24.1945C17.3325 23.912 17.3322 23.5947 17.4488 23.312C17.5654 23.0294 17.7893 22.8045 18.0715 22.6866Z" fill="#1C1E26"/>
</g>
</g>
<defs>
<clipPath id="clip0_491_366">
<rect width="129.773" height="30.1688" fill="white" transform="translate(0.285645 0.831238)"/>
</clipPath>
</defs>
</svg>
