<svg width="89" height="30" viewBox="0 0 89 30" fill="none" xmlns="http://www.w3.org/2000/svg">
<g clip-path="url(#clip0_491_351)">
<path d="M0 29.7654H19.6148V20.3339H10.6639V0.381439H0V29.7654Z" fill="#1C1E26"/>
<path d="M33.2786 0.381439H22.6147V29.7654H33.2786V0.381439Z" fill="#1C1E26"/>
<path d="M36.2787 29.7654H46.6698L46.4366 17.4513C46.9031 18.6588 47.8374 19.75 48.4606 20.8801L53.5195 29.7654H65.8958L55.7385 14.6844L64.9227 0.381439H53.2857L48.1484 9.81294C47.5646 10.8646 46.9031 11.9169 46.6698 13.1249V0.381439H36.2787V29.7654Z" fill="#1C1E26"/>
<path d="M68.8958 29.7654H88.9388V21.7371H79.6374V18.8534H87.849V11.2162H79.6374V8.40972H88.6271V0.381439H68.8958V29.7654Z" fill="#1C1E26"/>
</g>
<defs>
<clipPath id="clip0_491_351">
<rect width="88.9388" height="29.384" fill="white" transform="translate(0 0.381439)"/>
</clipPath>
</defs>
</svg>
