<svg width="112" height="111" viewBox="0 0 112 111" fill="none" xmlns="http://www.w3.org/2000/svg"><path fill-rule="evenodd" clip-rule="evenodd" d="M52.06 4.621L3.878 24.731v79.921l5.738 4.274H97.34l6.577-7.38-1.742-76.816L52.06 4.621z" fill="none"></path><path fill-rule="evenodd" clip-rule="evenodd" d="M1.4 61.656c-.136.02-.235.041-.336.047a.653.653 0 01-.633-.495 3.332 3.332 0 01-.073-.478c-.029-.522-.04-1.043-.075-1.562-.03-.437-.087-.87-.128-1.308-.009-.105-.009-.21-.009-.315 0-1.037.006-2.074-.002-3.111-.003-.417-.044-.83-.067-1.247-.02-.347-.052-.69-.067-1.037-.012-.269.009-.537-.003-.805a3.862 3.862 0 01.412-1.908c.18-.364.224-.749.279-1.13.032-.222.084-.411.287-.52.11-.057.14-.139.137-.253-.003-.163 0-.326 0-.489-.006-.216.066-.396.255-.498.14-.073.174-.172.163-.312-.018-.172-.038-.344-.053-.516-.008-.081-.02-.163-.014-.242.05-.632.046-1.276.232-1.882.096-.314.09-.594.061-.909a3.717 3.717 0 01.073-1.104c.08-.379.032-.731-.032-1.098a2.112 2.112 0 01-.012-.542c.026-.405.093-.816-.05-1.206-.147-.408-.08-.813-.034-1.221.035-.297.099-.592.104-.889.015-.804-.002-1.608.01-2.412.008-.697.06-1.39.06-2.086 0-.697-.032-1.346-.07-2.017-.026-.471-.107-.94-.127-1.41-.012-.332.055-.667.058-1.002 0-.242-.05-.48-.061-.723-.006-.113.032-.227.046-.34.052-.411.12-.82.157-1.233.038-.413.046-.83.078-1.247.006-.064.032-.145.079-.183.168-.137.33-.31.528-.373 1.077-.362 2.096-.86 3.132-1.323.238-.108.473-.233.752-.233.092 0 .191-.073.275-.131.447-.303.886-.62 1.341-.915.22-.14.462-.254.706-.344.444-.16.873-.335 1.248-.635.122-.096.284-.166.438-.192.374-.067.68-.277 1.013-.426.255-.113.546-.145.821-.218.087-.023.177-.044.262-.076.464-.186.928-.37 1.39-.562.63-.263 1.25-.557 1.89-.787.284-.102.499-.262.716-.454a.835.835 0 01.395-.207c.729-.12 1.387-.452 2.084-.676.424-.137.81-.364 1.271-.414.247-.026.47-.233.723-.306.473-.137.862-.425 1.289-.644.325-.166.68-.277 1.019-.414.116-.046.243-.078.348-.148.38-.256.813-.364 1.24-.492.481-.143.951-.324 1.436-.452.465-.122.929-.23 1.359-.455.153-.078.313-.148.47-.221.281-.134.569-.233.882-.274.505-.067.952-.32 1.402-.539.592-.288 1.178-.583 1.77-.868.102-.05.218-.067.329-.102.667-.21 1.312-.47 1.907-.848.461-.291 1-.4 1.512-.568.38-.125.76-.239 1.117-.431a16.2 16.2 0 011.344-.638c.218-.094.459-.143.694-.19a3.946 3.946 0 001.518-.612 4.14 4.14 0 01.813-.44c.508-.206 1.033-.37 1.547-.562.191-.073.374-.169.56-.26.89-.422 1.773-.864 2.673-1.267.668-.297 1.355-.559 2.043-.812.31-.114.642-.166.964-.248.055-.015.119-.018.163-.05.476-.36 1.08-.428 1.593-.713.215-.12.479-.137.717-.216.206-.07.415-.143.6-.25.27-.158.5-.181.802-.036.441.216.923.347 1.384.525.598.233 1.19.475 1.785.717.639.259 1.278.524 1.913.79.105.043.2.113.3.171.321.184.65.338 1.02.402.187.032.367.125.535.216a.88.88 0 00.641.108c.157-.172.122-.376.093-.586-.107-.723-.066-1.43.262-2.095.09-.18.24-.34.397-.475.253-.212.537-.221.836-.073.255.126.523.23.79.324.284.099.58.134.882.128.383-.009.766-.012 1.15 0 .626.017 1.245.006 1.843-.213.246-.09.493-.09.743 0 .095.035.2.064.301.07.636.03 1.269.058 1.904.07.253.003.503-.05.755-.064.584-.03 1.062.19 1.416.65.239.309.387.644.227 1.06a3.584 3.584 0 00-.212 1.043c-.035.56-.168 1.113-.235 1.673-.035.297-.078.614-.017.903.136.644.118 1.29.13 1.937 0 .134.04.271.084.4.085.25.323.311.537.367.212.055.352-.097.438-.266.2-.384.529-.635.877-.859.22-.14.476-.23.717-.332.369-.157.752-.291 1.112-.47.365-.183.72-.162 1.042.039.383.242.798.343 1.228.428.853.169 1.712.332 2.53.63.778.282 1.533.626 2.308.908.604.222 1.152.574 1.79.717.27.061.526.224.767.373.598.376 1.26.609 1.913.857.209.078.447.119.67.122a.349.349 0 00.349-.289c.052-.27.116-.541.136-.812.023-.312 0-.63.006-.944.017-.673.02-1.346.075-2.017.053-.617.172-1.229.256-1.844.011-.09.014-.186.014-.277v-4.58c0-.093.015-.198-.02-.276-.119-.271-.035-.534.043-.781.186-.61.828-1.052 1.46-1.099.607-.043 1.208-.13 1.815-.198.093-.009.185.003.278-.006.932-.105 1.855.12 2.787.073.749-.038 1.5-.052 2.252-.07.137-.003.273.035.41.05l1.332.157 1.198.131c.047.006.093.012.14.009.467-.044.908.1 1.361.186.305.059.615.082.926.09.464.015.929.015 1.393 0 .284-.008.572-.049.853-.101.27-.05.5-.024.758.11.351.181.641.408.845.738.142.23.278.463.29.757.032.717.078 1.43.136 2.145.055.687.134 1.375.203 2.065.003.035 0 .07.003.105a2992 2992 0 01.07 2.995c.006.21.006.42 0 .63-.015.43.044.85.128 1.273.049.247.069.504.081.757.029.638.014 1.28.081 1.912.119 1.139.018 2.278.067 3.414.017.426.113.848.122 1.273.012.615-.02 1.23-.044 1.842-.014.346-.063.69-.078 1.037-.012.248.081.37.311.434.386.108.777.19 1.161.303.667.198 1.265.673 1.242 1.506-.012.362.067.708.113 1.064.055.422.017.86.012 1.288 0 .148-.05.297-.05.445-.005.688-.011 1.376 0 2.063.012.638.067 1.276.061 1.912-.006.46-.101.917-.116 1.378-.014.39-.003.79.052 1.177.064.434.16.86.146 1.305-.018.56-.012 1.119 0 1.678.014.743.023 1.486.075 2.226.038.504.174.996.221 1.5.046.505.2.991.197 1.507-.006 1.01-.009 2.025.073 3.03.104 1.337.014 2.675.063 4.009.015.367.085.731.119 1.098.035.332.076.668.082 1.003.011.629.02 1.258 0 1.888-.018.495-.084.987-.128 1.483-.006.081-.006.163-.006.244v1.539c0 .614-.046 1.22-.191 1.82-.07.29-.079.595-.085.895-.029 1.699-.11 3.397-.055 5.093.047 1.384.079 2.768.035 4.149a122.154 122.154 0 00-.049 3.73c0 .87.006 1.742.072 2.61.128 1.698.021 3.397.064 5.093.015.614.035 1.23.073 1.84.032.543.081 1.082.139 1.62.061.595.134 1.19.212 1.784a.852.852 0 00.145.35c.113.166.168.337.212.539.09.422.139.824.07 1.261-.082.513-.076 1.04-.082 1.559-.003.361-.04.714-.127 1.063-.015.056-.015.117-.018.172-.023.918-.029 1.836-.075 2.75-.029.54-.122 1.076-.183 1.612-.032.285-.084.574-.084.86 0 .777-.032 1.55-.142 2.319-.012.078-.003.163-.003.244v2.762c0 .595-.163 1.16-.311 1.728-.032.125-.145.236-.235.338-.247.277-.485.565-.763.807-.175.151-.401.259-.671.169-.081-.026-.203.015-.287.058-.259.128-.508.271-.804.295-.392.034-.685.308-1.045.422-.206.064-.415.131-.618.207-.357.128-.717.247-1.063.396-.348.152-.705.195-1.077.198-.359 0-.38.012-.371.373.012.411.035.825.075 1.233.009.099.093.206.169.285.127.131.113.227-.006.356a4.54 4.54 0 01-1.1.833 7.237 7.237 0 00-1.739 1.302c-.479.493-1.065.798-1.753.953-.435.096-.911.151-1.28.463-.026.023-.07.029-.087.055-.212.324-.537.277-.862.312-.763.088-1.53-.006-2.287.073-.674.07-1.341.047-2.012.053-1.985.011-3.973-.053-5.956.02-1.924.07-3.851-.029-5.77.07-1.622.081-3.245.017-4.865.049-.397.009-.8-.008-1.198.015-2.737.143-5.475.015-8.209.061-.438.009-.873.058-1.312.061-.386.003-.775 0-1.16 0-14.107.006-28.213.006-42.317.006-1.904-.128-3.814-.009-5.715-.087-.89-.038-1.785.017-2.67-.067-.72-.067-1.437.008-2.148-.067-.903-.099-1.805-.024-2.708-.061a5.619 5.619 0 01-.79-.079c-.139-.026-.298-.09-.391-.192-.34-.382-.772-.621-1.222-.822-.206-.093-.328-.251-.48-.388-.162-.151-.31-.308-.542-.355-.084-.017-.192-.073-.23-.143-.147-.282-.438-.393-.664-.577-.14-.11-.32-.18-.493-.233a1.244 1.244 0 01-.668-.451 1.24 1.24 0 00-.575-.434c-.122-.041-.235-.076-.29-.216-.017-.041-.087-.082-.14-.087-.356-.059-.49-.347-.571-.63-.058-.207-.157-.44-.03-.673.036-.064.01-.16.01-.242 0-.594.008-1.188 0-1.783-.015-.743-.041-1.483-.07-2.226-.012-.3-.05-.597-.052-.897 0-.207.035-.41.055-.618.014-.174-.076-.274-.227-.35-.298-.145-.528-.36-.618-.701a8.874 8.874 0 01-.27-1.63c-.017-.264-.05-.526-.075-.792-.02-.206-.052-.41-.061-.617-.03-.778-.006-1.56-.081-2.331-.108-1.116-.015-2.232-.064-3.345C.567 89.478.5 89.055.46 88.63c-.009-.093 0-.187-.012-.28-.037-.367-.087-.731-.122-1.098-.034-.356-.078-.714-.08-1.07-.012-1.165-.015-2.33 0-3.496.005-.402.083-.8.127-1.2.006-.047.006-.093.006-.14.023-.603.008-1.21.078-1.806.11-.941.03-1.883.058-2.824.006-.198.052-.381.107-.57.11-.385.218-.77.256-1.178.05-.547.186-1.086.281-1.628.024-.126.05-.25.053-.373.003-1.352.005-2.704 0-4.056 0-.23-.073-.46-.061-.688.032-.658.09-1.314.13-1.97.03-.45.061-.9.07-1.351.012-.548-.006-1.095.006-1.643.009-.417.043-.83.067-1.247.005-.114 0-.227 0-.356H1.4zm3.997 26.592c.038 0 .067.012.081 0 .079-.052.172-.122.241-.026.044.058.047.163.038.245-.012.125-.058.245-.075.37-.067.443-.163.88-.053 1.337.073.294.116.62 0 .912-.127.315-.124.635-.116.959.018.824.064 1.646.064 2.47 0 .638.047 1.273-.055 1.914-.099.624.104 1.239.174 1.856.055.481.18.953.166 1.443-.027.847-.047 1.692-.073 2.54a.682.682 0 01-.023.172c-.079.358-.125.696-.012 1.081.087.288.232.463.441.626.697.551 1.4 1.09 2.09 1.644.189.151.4.224.633.241.357.03.711.053 1.068.07.52.027 1.036.053 1.556.07.856.032 1.71.015 2.566.056 1.898.087 3.8.026 5.7.067 3.257.07 6.516.014 9.776.02 1.262 0 2.525.029 3.785.05 1.852.032 3.706.017 5.561-.032 2.702-.073 5.41 0 8.116-.024 2.702-.02 5.401.032 8.103-.049 3.512-.105 7.027.049 10.542-.079 2.293-.084 4.59.026 6.885-.061 2.084-.079 4.171 0 6.258-.082 1.504-.061 3.01.038 4.516-.061 1.28-.084 2.57-.052 3.855-.084 1.054-.027 2.104.023 3.16-.053 1.13-.081 2.268.015 3.403-.076.577-.046 1.16-.008 1.741-.008.081 0 .163 0 .244-.006.493-.044.987-.146 1.474-.123a3.14 3.14 0 001.846-.472c.166-.101.358-.16.517-.268.238-.16.462-.343.682-.527.131-.108.18-.236.131-.428a1.022 1.022 0 010-.554c.154-.443.116-.894.119-1.343 0-.198.026-.384.107-.574.07-.163.079-.355.102-.539.046-.364.09-.731.125-1.098.014-.149.029-.303.008-.452-.084-.615-.191-1.227-.264-1.844-.029-.25-.006-.513.015-.766.026-.333.116-.665.107-.994-.014-.553-.096-1.104-.122-1.655a5.738 5.738 0 00-.197-1.258.265.265 0 010-.137c.055-.257.148-.513.165-.773.035-.518.076-1.037-.037-1.558a2.751 2.751 0 01-.029-.796c.04-.48.197-.947.168-1.439a33.205 33.205 0 01-.067-1.946c0-.545.038-1.09.067-1.632.014-.3.046-.597.064-.897a2.94 2.94 0 00-.006-.42c-.041-.46-.11-.917-.122-1.375-.012-.414.064-.83.058-1.247-.02-1.765.096-3.531-.133-5.29-.009-.068 0-.14.005-.21.018-.196.058-.388.058-.583.003-3.31.009-6.62 0-9.93-.003-1.174-.043-2.345-.069-3.52 0-.078-.026-.156-.044-.235-.029-.12-.084-.236-.09-.359-.038-.786 0-1.576-.058-2.365-.081-1.204-.049-2.416-.067-3.625-.037-2.546.029-5.096.053-7.645 0-.137.02-.277.032-.414 0-.043.017-.096-.003-.128-.143-.224-.105-.472-.096-.714.011-.405.026-.81.072-1.212.035-.306.128-.606.178-.912a.696.696 0 00-.03-.335.67.67 0 01-.037-.393c.064-.291.067-.594.09-.895.008-.093-.023-.198.011-.276.096-.216.015-.4-.052-.598a1.746 1.746 0 01-.093-.469c-.014-.303.006-.606-.009-.909-.008-.23-.052-.457-.069-.687-.026-.37-.102-.746-.05-1.104.082-.577.131-1.148.125-1.728 0-.134.015-.283.073-.402.148-.312.197-.641.197-.973 0-.429-.049-.854-.061-1.282-.011-.478.006-.956-.008-1.434a3.156 3.156 0 00-.087-.612c-.067-.28-.143-.539-.064-.845.081-.32.072-.664.084-.999.011-.338-.003-.676.003-1.014a5.875 5.875 0 00-.131-1.308c-.049-.245-.09-.51-.043-.752.092-.495.061-.935-.39-1.235-.496-.332-.99-.69-1.532-.93-.76-.334-1.524-.652-2.244-1.072a1.569 1.569 0 00-.386-.142c-.299-.082-.603-.14-.897-.233a8.558 8.558 0 01-1.892-.834c-.615-.373-1.312-.556-1.977-.813-.438-.169-.89-.303-1.277-.582a1.013 1.013 0 00-.537-.204 1.996 1.996 0 01-.627-.175c-1.114-.501-2.223-1.017-3.335-1.527-.136-.061-.272-.122-.412-.178-.479-.192-.972-.355-1.436-.582-.491-.24-1.014-.373-1.524-.54-.49-.16-1.016-.267-1.457-.518-.72-.408-1.484-.682-2.259-.93-.804-.256-1.558-.617-2.307-.996-.4-.204-.801-.39-1.24-.5a5.622 5.622 0 01-.87-.327c-.441-.192-.871-.414-1.312-.606-.485-.21-.978-.4-1.469-.597-.287-.117-.569-.242-.859-.344-.302-.105-.618-.17-.92-.277-.543-.19-1.074-.402-1.614-.597-.755-.274-1.51-.542-2.267-.81-.598-.213-1.187-.443-1.744-.749-.494-.274-.999-.522-1.498-.787a1.276 1.276 0 00-.56-.151c-.163-.006-.36-.058-.47-.163-.21-.201-.453-.318-.697-.449-.142-.076-.282-.16-.42-.236-.16-.087-.314-.198-.485-.256-.543-.187-1.089-.359-1.635-.534-.174-.055-.345-.122-.522-.166a7.04 7.04 0 01-1.42-.524c-.713-.353-1.44-.679-2.159-1.02-.215-.102-.418-.084-.633.006-.336.143-.673.306-1.024.4a8.46 8.46 0 00-1.887.754c-.592.32-1.228.513-1.857.728-.607.207-1.237.353-1.786.708a2.255 2.255 0 01-.403.198c-.351.14-.703.289-1.062.402-.392.123-.799.198-1.196.312-.163.047-.32.122-.473.198-.186.09-.354.213-.546.289-.65.262-1.309.504-1.96.763-.414.166-.85.303-1.224.536-.523.326-1.077.577-1.628.833-.383.178-.787.32-1.188.458-.595.204-1.21.355-1.785.62-.52.242-1.042.484-1.57.708-.467.195-.94.373-1.352.68a1.676 1.676 0 01-.468.218c-.844.297-1.698.568-2.537.885-.461.175-.893.42-1.34.627-.27.125-.514.312-.83.323a.867.867 0 00-.358.11c-.876.461-1.89.584-2.734 1.12-.017.011-.046.009-.067.014-.595.213-1.193.414-1.782.641-.426.166-.85.341-1.225.62a1.284 1.284 0 01-.595.26c-.63.07-1.201.297-1.753.592-.6.32-1.219.6-1.869.804a3.163 3.163 0 00-.569.247c-.488.263-.99.484-1.53.612-.493.117-.978.248-1.416.513-.334.204-.67.408-1.022.58-.267.128-.551.245-.841.291a2.32 2.32 0 00-.688.204c-.537.271-1.071.548-1.617.801-.29.134-.598.225-.897.341-.366.14-.743.25-1.004.577-.22.277-.488.49-.874.487-.064 0-.14.029-.194.067-.053.035-.116.099-.12.154-.005.224.01.446.021.67.009.149.061.306.032.446-.12.6-.038 1.206-.064 1.81-.003.092-.003.186-.014.276-.041.379-.1.755-.122 1.133-.02.373-.006.746-.003 1.12 0 .224-.082.436-.018.678.082.306.064.641.085.965a.842.842 0 01-.015.171c-.017.137-.055.274-.052.408.017.778.067 1.556.06 2.331-.008 1.605-.04 3.208-.063 4.813v.28c0 .07-.009.14-.018.207-.063.57-.156 1.142-.182 1.716-.024.507.023 1.02.04 1.527.04 1.054.108 2.106.145 3.158.07 1.917.067 3.837.082 5.757.011 1.562.008 3.123 0 4.685-.006.615.026 1.227-.053 1.844-.078.595-.066 1.204-.078 1.807-.003.218.058.434.064.652.035 1.477.032 2.955.05 4.429.034 2.651.104 5.308-.047 7.96-.044.751.06 1.509-.07 2.26-.017.103-.006.21 0 .315.018.23.055.458.061.688.009.454.003.909 0 1.363 0 .094.017.196-.014.277-.151.379-.125.775-.125 1.169 0 .606-.003 1.212 0 1.818 0 .136.023.273.052.407.09.423.02.842-.009 1.265-.029.428-.081.865-.026 1.285.073.539.081 1.063-.116 1.567a1.924 1.924 0 00-.11.947c.017.149.058.291.093.46l.014.01z" fill="#000"></path><path fill-rule="evenodd" clip-rule="evenodd" d="M65.348 95.148c0-.85-.055-1.707.014-2.55a19.42 19.42 0 00.038-2.784c-.093-1.582-.035-3.165-.043-4.744-.003-.629.023-1.27.185-1.89.053-.199.047-.411.087-.615a4.841 4.841 0 01.555-1.518c.383-.659 1.001-1.032 1.686-1.297.58-.224 1.184-.347 1.8-.434.209-.03.415-.125.603-.23.418-.23.883-.236 1.33-.32.36-.068.72-.129 1.077-.21.354-.085.688-.102 1.045.038.36.14.737.247 1.137.25.192 0 .384.073.575.096.366.044.731.096 1.097.1.45.002.897-.053 1.347-.059.299 0 .595.055.894.061.194.003.386-.052.58-.055.207-.006.415.012.619.032.261.026.522.081.783.096.67.032 1.341.023 2.009.079 1.042.09 2.078.215 3.027.713.703.368 1.225.886 1.49 1.658.144.429.24.86.287 1.311.052.516.133 1.026.2 1.539.011.09.003.186.003.28 0 .874.006 1.748 0 2.622-.006.443 0 .877.165 1.296.108.274.114.563.12.854.01.58 0 1.162.078 1.736.101.766.06 1.533.046 2.296-.009.571-.128 1.142-.189 1.716-.034.32-.049.644-.078.968-.012.136-.04.27-.058.407-.029.24-.052.481-.081.723-.04.364-.081.731-.128 1.096-.046.364-.084.73-.154 1.092-.171.894-.595 1.655-1.315 2.217-.258.201-.574.344-.885.455-.647.233-1.32.364-2.008.448-1.176.143-2.354.14-3.53.129-1.309-.012-2.618-.102-3.924-.05-1.17.047-2.34.029-3.506.055-.241.006-.494.102-.717.056-.537-.114-.993.09-1.449.294-.25.111-.444.067-.632-.102-.19-.169-.363-.367-.578-.495a3.146 3.146 0 00-.76-.303c-.88-.245-1.623-.697-2.05-1.518-.284-.545-.528-1.122-.586-1.76-.035-.376-.128-.746-.189-1.122-.017-.102-.014-.21-.014-.311V95.15l-.003-.003zm12.539-4.434c-.061-1.29.104-2.9-.076-4.499-.049-.43-.177-.853-.267-1.279a.455.455 0 00-.362-.373c-.146-.038-.282-.105-.43-.122-.618-.076-.938.11-1.138.664-.212.583-.293 1.21-.299 1.833a77.08 77.08 0 00.05 3.275c.04 1.334-.032 2.671-.056 4.006-.011.603-.011 1.203.137 1.794.09.356.14.723.334 1.05.075.128.148.227.31.238.241.015.48.059.72.061.42.01.583-.113.726-.498a5.573 5.573 0 00.35-1.996c-.005-1.281 0-2.563 0-4.157v.003zM51.57 23.996c.508.032.943.059 1.381.088.247.017.482-.03.703-.143.325-.17.661-.19 1-.044.358.152.727.195 1.115.193 1.429-.012 2.857 0 4.285-.006.217 0 .435-.027.65-.064.586-.111 1.158.442 1.019 1.139-.137.687-.241 1.38-.337 2.074-.05.353-.064.714-.07 1.072-.003.204.047.411.064.618.03.347.058.69.07 1.037.017.487-.032.965-.12 1.448-.09.496-.075 1.014-.083 1.524-.01.565-.03 1.13.121 1.693.085.306.076.64.082.964.008.787.058 1.565.255 2.334.113.443.125.912.16 1.372.011.17-.04.341-.064.513a19.91 19.91 0 01-.255 1.597c-.131.617-.195 1.25-.305 1.87-.151.85-.346 1.693-.819 2.436-.362.568-.88.95-1.506 1.168-.354.125-.732.187-1.094.291a.875.875 0 00-.355.193.701.701 0 01-.594.221l-.755-.067h-.035c-.554.073-1.112.03-1.666.088-.59.06-1.17.282-1.765.18a1.738 1.738 0 00-.873.062c-.128.04-.276.02-.416.017-.705-.017-1.398.084-2.092.19-.206.031-.427-.053-.642-.082-.113-.015-.235-.053-.34-.026a5.924 5.924 0 01-2.133.104c-.598-.078-1.17.067-1.756.035-.212-.011-.406-.011-.586-.13-.029-.021-.052-.059-.084-.062-.5-.073-.848-.443-1.277-.644-.198-.093-.404-.16-.61-.236-.41-.148-.79-.364-1.233-.431-.218-.032-.43-.175-.619-.306-.24-.169-.406-.4-.418-.723-.005-.18-.09-.355-.121-.536-.059-.329-.131-.658-.146-.987-.029-.74-.066-1.474-.203-2.206-.05-.26-.011-.533-.011-.801 0-.385-.038-.772.005-1.154.114-.987.064-1.975.053-2.96-.01-.606-.128-1.212-.183-1.82-.023-.266-.04-.54 0-.802.122-.755.244-1.515.177-2.273a18.5 18.5 0 01-.047-1.879c.006-.46.1-.918.12-1.375.011-.286-.03-.574-.064-.863-.035-.297-.088-.591-.134-.885-.023-.149-.067-.297-.064-.443a4.76 4.76 0 01.076-.79c.037-.186.066-.352.008-.542a.696.696 0 01.09-.6.743.743 0 00.096-.282c.038-.271.171-.402.412-.315.186.064.314.012.453-.07.273-.16.543-.186.86-.108.693.172 1.398.25 2.12.236 1.522-.029 3.043-.006 4.564-.011.368 0 .734-.056 1.103-.064.36-.01.389.017.38.367-.009.346-.064.69-.064 1.037-.006 5.011 0 10.022-.003 15.03 0 .409.076.802.238 1.178.189.434.665.632 1.164.553.537-.084.865-.405.96-.938.044-.236.041-.48.076-.72.142-.96.061-1.928.055-2.89a5.807 5.807 0 00-.165-1.436c-.105-.4-.18-.83-.052-1.267.075-.26.066-.548.087-.825.029-.393.05-.784.072-1.177.148-2.407.038-4.816.067-7.226.006-.428-.05-.853-.06-1.282-.004-.128.046-.259.078-.422v-.009zM74.955 61.14a.387.387 0 00.22-.276c.117-.432.256-.86.396-1.285.281-.866.569-1.728.85-2.59.13-.402.25-.81.38-1.215.174-.536.352-1.072.531-1.606.224-.652.459-1.3.677-1.955.05-.148.139-.212.27-.221.185-.012.386-.044.554.012.189.064.345.023.496-.047.302-.137.619-.149.938-.19.705-.087 1.408-.055 2.113-.058.148 0 .293.044.441.061.238.03.479.059.72.076.459.03.932-.006 1.379.09.333.073.647.065.978.056.58-.015 1.16-.006 1.741-.003.102 0 .206.009.349.015-.015.104-.015.192-.041.273-.316.927-.644 1.848-.958 2.774-.165.49-.308.988-.47 1.48-.116.35-.247.69-.369 1.037-.302.86-.592 1.72-.902 2.573-.125.347-.276.685-.439 1.017-.203.416-.377.845-.461 1.3a2.04 2.04 0 000 .608c.13.97.592 1.839.882 2.76.267.853.543 1.707.825 2.557.409 1.236.827 2.465 1.233 3.7.285.863.555 1.728.845 2.59.046.135.16.248.255.391-.058.178-.186.24-.389.19a.418.418 0 00-.223.014c-.27.088-.534.093-.813.015a2.4 2.4 0 00-.647-.076c-2.438-.006-4.877-.003-7.315-.003h-.209c-.455.015-.473 0-.597-.42-.241-.804-.485-1.605-.73-2.409-.19-.626-.37-1.256-.574-1.876-.252-.767-.537-1.521-.784-2.29-.272-.842-.522-1.69-.774-2.538-.067-.219-.11-.446-.172-.667-.014-.05-.06-.09-.116-.163-.078.105-.162.16-.122.303.035.13.038.273.038.413 0 2.96 0 5.92.003 8.878 0 .148.023.297.046.446.041.25-.133.413-.389.367a2.047 2.047 0 00-.374-.041c-.5-.006-.998-.012-1.498 0-.635.015-1.268.05-1.904.064-.16.003-.319-.055-.476-.05-.287.01-.572.041-.856.067-.125.012-.25.05-.374.053-.276.006-.546.006-.816.108-.154.058-.345.052-.514.029-.371-.052-.743-.07-1.111-.198-.296-.105-.656-.056-.987-.038-.224.012-.334-.032-.354-.248a2.433 2.433 0 010-.384c.017-.254.06-.504.06-.758.006-1.352.006-2.704 0-4.056 0-.241-.043-.48-.063-.722-.026-.3-.035-.6-.076-.897-.064-.49-.154-.977-.223-1.466-.047-.317-.108-.638-.114-.959a9.319 9.319 0 00-.124-1.168c-.064-.41-.055-.833.098-1.235.041-.108.055-.224.09-.332.102-.298.015-.595-.02-.883-.052-.405-.084-.801.012-1.203.017-.08.003-.164.008-.245.05-.758.087-1.518.346-2.246a1.45 1.45 0 00.07-.475c.005-1.807 0-3.613 0-5.42v-.244c.008-.289.028-.32.327-.312.369.009.735.047 1.103.061.088.003.207-.006.256-.061.162-.178.377-.23.589-.262.453-.073.911-.108 1.367-.16.47-.056.909.116 1.364.174.102.012.21.038.305.018.508-.108 1.019-.105 1.495.09.397.163.763.222 1.193.152.418-.07.856-.02 1.286-.012.252.006.322.122.278.382-.02.113-.02.23-.02.346 0 2.063.009 4.126-.006 6.189-.006.644-.084 1.29-.13 1.934-.01.114 0 .149.13.303l-.003-.003zM48.624 88.464c.066-.102.16-.193.197-.303.261-.784.514-1.57.76-2.357.224-.714.43-1.434.662-2.145.279-.853.587-1.696.871-2.546.177-.522.343-1.05.508-1.573.073-.228.122-.286.363-.28.322.008.641.061.964.064 2.391.006 4.783.006 7.175 0 .38 0 .757-.044 1.137-.067a.994.994 0 01.21.006c.159.026.203.11.147.274-.229.652-.464 1.302-.693 1.954-.198.566-.39 1.131-.592 1.696-.079.219-.117.414.055.615.101.116.09.268.046.428-.122.443-.33.842-.592 1.206-.371.513-.59 1.093-.83 1.667-.241.571-.468 1.15-.729 1.713-.223.478-.36.944-.136 1.463.07.163.104.364.09.542-.052.544.165 1.017.342 1.506.206.562.38 1.136.57 1.704.133.405.27.807.4 1.212.194.589.38 1.183.577 1.769.198.588.418 1.168.61 1.76.224.69.42 1.387.641 2.077.169.525.354 1.046.543 1.6-.058.029-.122.072-.191.087-.079.018-.163.006-.244.006h-9.09c-.419 0-.45-.047-.57-.443a214.825 214.825 0 00-.931-3.03c-.384-1.218-.778-2.433-1.167-3.648-.157-.492-.325-.982-.473-1.477a45.742 45.742 0 01-.421-1.53c-.032-.128-.07-.218-.247-.204-.012.07-.035.146-.035.219 0 2.983-.003 5.967 0 8.95 0 .289.055.574.064.863.006.268-.029.3-.302.303-.731.003-1.463 0-2.194 0h-6.827c-.261-.009-.284-.029-.287-.318-.003-.466 0-.932 0-1.398 0-.51-.038-1.011-.116-1.518-.076-.484.005-.994.029-1.492.014-.3.066-.597.084-.894.029-.504-.003-1.011 0-1.518.006-.501 0-1.003 0-1.504v-1.538c0-1.026.014-2.051-.006-3.077a8.17 8.17 0 00-.142-1.302c-.055-.291-.232-.56-.273-.85a3.985 3.985 0 01-.018-1.1c.076-.535.212-1.063.163-1.613-.023-.242-.055-.481-.067-.723-.035-.702.122-1.372.328-2.037.052-.171.082-.36.084-.541.012-.513 0-1.026.006-1.539 0-.294.03-.326.32-.32.415.011.827.055 1.242.06.203 0 .424-.01.61-.084.533-.212 1.062-.128 1.599-.035.09.015.177.053.267.053.984.026 1.965.05 2.949.073.336.005.673.008 1.01 0 .392-.012.78-.044 1.172-.067.418-.026.378.142.369.416-.015.405-.061.807-.064 1.212-.006 1.993 0 3.986-.006 5.979 0 .428-.046.854-.064 1.282-.002.096.018.195.027.291l.104.03.012-.01zM38.215 75.245c-.18-.088-.19-.242-.163-.414.023-.157.064-.32.055-.478-.04-.69.12-1.352.247-2.022.133-.699.255-1.401.389-2.1.096-.507.206-1.014.302-1.521.113-.61.214-1.22.325-1.833.096-.53.206-1.06.299-1.59.072-.408.122-.82.185-1.227.047-.283.12-.565.148-.85.035-.333.09-.677.038-1a3.076 3.076 0 01.047-1.198c.101-.437.168-.88.255-1.32a7.78 7.78 0 01.154-.673c.107-.375.226-.748.348-1.121.122-.373.253-.74.377-1.11a8.87 8.87 0 00.334-1.224c.12-.667.259-1.329.392-1.993.09-.451.183-.9.285-1.349a.317.317 0 01.133-.192c.18-.096.366-.204.563-.245.279-.058.572-.067.856-.081.21-.012.418 0 .627-.003 1.042-.024 2.081-.047 3.123-.067.372-.01.726.052 1.051.259.29.184.601.213.929.11.084-.026.183-.02.276-.02h7.349c.058 0 .116-.003.174 0 .195.018.287.111.305.31.05.526.116 1.048.32 1.546.063.155.025.344.06.513.05.248.12.49.18.731.116.481.224.962.351 1.44.076.288.2.565.273.853.13.525.227 1.055.354 1.58.064.256.18.497.25.751.052.187.096.385.09.577-.015.358.072.688.218 1.008.095.216.156.434.139.673-.047.594.099 1.168.191 1.748.05.306.059.62.088.93.023.241.055.48.084.72.017.148.06.296.052.442-.038.679.119 1.329.247 1.987.136.7.252 1.401.386 2.1.098.52.214 1.035.319 1.554.081.405.145.813.223 1.218.149.766.302 1.532.45 2.298.035.175-.063.297-.226.292-.392-.02-.78-.062-1.173-.059-.6.006-1.201.032-1.8.07-.226.015-.446.1-.673.134-.499.076-1.001.123-1.494.219-.302.058-.584.05-.886.003-.232-.035-.479.026-.72.046a6.861 6.861 0 01-.243.012c-.392.023-.781.04-1.173.07-.313.023-.58-.084-.766-.323-.198-.251-.441-.266-.714-.222-.218.035-.302-.017-.32-.221-.029-.332-.04-.668-.075-1.002-.032-.31-.081-.615-.119-.924-.032-.274-.061-.55-.084-.825-.03-.346-.05-.69-.076-1.037-.02-.277-.049-.55-.07-.827-.014-.193-.142-.213-.295-.213h-2.45c-.038.093-.096.175-.105.26-.055.503-.092 1.01-.148 1.514-.06.56-.139 1.12-.2 1.678-.038.344-.058.691-.075 1.038-.012.224-.038.437-.175.545-.693 0-1.329-.01-1.962 0-.647.011-1.297.107-1.936.046-.638-.061-1.27-.009-1.907-.05-.641-.04-1.285.018-1.927.021-.624 0-1.257-.099-1.88.03l-.006.008zm12.57-10.22c0-.112.015-.234 0-.353-.034-.24-.098-.472-.127-.711-.084-.659-.093-1.326-.203-1.984-.088-.522-.102-1.055-.151-1.585a9.778 9.778 0 00-.082-.653c-.087-.556-.174-1.11-.27-1.666-.017-.102-.075-.199-.119-.312-.197.151-.229.314-.226.498.003.315.026.632-.006.944-.072.673-.183 1.343-.267 2.016-.078.618-.133 1.236-.22 1.853-.085.592-.2 1.177-.29 1.766-.012.067.034.14.046.18h1.921l-.006.006zM16.76 57.367c-.03-.078-.068-.13-.068-.186.01-1.57.024-3.14.032-4.711.003-.484 0-.484.473-.487 1.486 0 2.973-.011 4.459.006.502.006.98-.116 1.468-.178.102-.011.204-.038.308-.038.87-.002 1.742-.005 2.612 0 .172 0 .343.07.511.062.32-.015.639-.062.958-.094.113-.011.226-.037.342-.037.825-.003 1.65-.006 2.473 0 .149 0 .297.035.439.072.31.082.615.178.923.263a.312.312 0 00.136.008c.56-.137 1.132-.035 1.695-.067.241-.014.48-.043.72-.064.093-.008.192-.023.279 0 .557.152 1.123.035 1.683.064.354.018.38.024.375.38-.018.859-.061 1.715-.064 2.575 0 .684.046 1.366.06 2.05.01.368-.008.38-.365.38h-3.866c-.125 0-.247-.035-.372-.059-.377-.07-.618.187-.447.534.218.436.21.865.113 1.313-.02.09-.005.187-.005.28 0 1.084-.006 2.168 0 3.252.003.475-.04.944-.13 1.41-.018.09-.01.186-.01.28 0 .606-.008 1.212 0 1.818.01.51.026 1.02.073 1.526.038.388.122.772.2 1.154.058.286.09.56.012.854-.084.32-.055.673-.16.982-.14.41-.128.818-.128 1.232v2.622c0 .117.01.23.024.347.029.233-.11.379-.337.352-.191-.023-.386-.055-.58-.058-1.01-.006-2.02 0-3.03-.006-.384 0-.755.05-1.127.134-.212.05-.432.047-.647.079-.282.04-.572.067-.842.154-.162.053-.29.02-.43-.02-.165-.05-.325-.12-.49-.163-.096-.026-.218-.056-.302-.018-.264.117-.517.03-.737-.064-.32-.137-.633-.102-.955-.072-.232.02-.296-.012-.302-.234-.026-.824-.058-1.646-.067-2.47-.011-1.05-.058-2.101.012-3.144.102-1.57.017-3.14.058-4.708a1.258 1.258 0 00-.11-.606c-.169-.353-.166-.726-.035-1.099.15-.434.122-.877.04-1.32-.014-.078-.04-.16-.031-.238.06-.502.127-1.003.191-1.507.009-.07.012-.14.012-.21v-1.888c0-.364-.064-.43-.427-.43H16.75l.01-.007zM27.455 41.908c.252-.02.505-.059.755-.056.322.003.641.056.963.059.253 0 .502-.047.755-.064.325-.024.638.06.955.105.363.046.74.037 1.103-.012.522-.076.839.017 1.106.48a.417.417 0 01.052.228c-.009.183-.05.364-.05.548a9.97 9.97 0 01-.194 1.855c-.055.295-.064.598-.084.895-.03.382-.044.763-.073 1.142-.02.242-.35.457-.615.332-.31-.142-.595-.087-.906-.064-.473.038-.952 0-1.428.015-.284.008-.572.055-.856.093-.226.03-.453.108-.676.099-.366-.015-.729-.085-1.092-.131-.34-.044-.679-.12-1.021-.128-.709-.02-1.417 0-2.125-.01-.337-.002-.665.018-.99.117-.087.027-.182.024-.275.024-.29 0-.58.017-.871 0-.528-.032-1.054-.088-1.58-.131-.092-.01-.185-.006-.278-.006h-2.682c-.093 0-.191.011-.275-.012-.114-.032-.204-.099-.186-.25.023-.196.043-.39.046-.586.006-.688.006-1.375 0-2.063a.83.83 0 00-.072-.367 1.214 1.214 0 01-.134-.635c.009-.347.009-.69 0-1.037-.006-.292-.006-.577.157-.842.05-.082.052-.198.052-.3 0-1.9.006-3.8 0-5.7 0-.191-.07-.384-.099-.576-.04-.262-.098-.524-.101-.784 0-.475.058-.947.05-1.422a4.243 4.243 0 00-.134-.917 2.297 2.297 0 01.046-1.23c.13-.434.238-.883.163-1.331-.087-.51-.038-1.02-.061-1.53a3.891 3.891 0 01.122-1.098c.023-.1.017-.207.017-.312v-1.958a.84.84 0 01.244-.624c.157-.16.34-.189.505-.093.514.297 1.07.187 1.596.14.308-.026.59.026.883.047.16.011.322.06.476.046.33-.032.656-.108.986-.143.224-.023.453-.017.677-.017.392 0 .792.058 1.178.003.467-.067.914-.067 1.37.047.087.023.18.043.27.043.322-.006.61.088.88.254.119.073.232.099.388.05.308-.094.46.104.43.428-.046.506-.043 1.016-.06 1.526 0 .024 0 .05.01.067.358.615.175 1.253.085 1.888-.044.297-.09.595-.093.895-.009 1.818-.011 3.636.003 5.454 0 .317.093.635.154.953.081.416.197.827.194 1.261 0 .382.006.766.07 1.142.14.822.02 1.646.081 2.468.032.443-.029.903-.122 1.343-.066.323.026.414.314.379l-.003.003zM80.383 36.262c-.055-.131-.096-.236-.142-.335-.244-.51-.607-.926-1.019-1.305-.154-.14-.296-.294-.444-.443-.282-.286-.174-.627.067-.804a1.43 1.43 0 01.334-.184c.563-.215 1.105-.5 1.706-.609.874-.157 1.687-.5 2.523-.784.299-.101.577-.262.873-.372a9.766 9.766 0 011.016-.32c.52-.13.978-.377 1.425-.656.05-.03.093-.082.145-.09.093-.015.215-.039.282.005.113.07.102.207.02.309-.084.105-.191.192-.287.288-.316.318-.63.638-.952.95-.25.242-.508.472-.763.705-.436.397-.877.787-1.315 1.18l-.233.21c-.197.178-.211.34-.026.527.616.618 1.112 1.323 1.559 2.069.105.178.192.373.247.571.098.34-.102.705-.447.828-.357.125-.723.22-1.08.346-.433.152-.87.277-1.326.32-.61.059-1.173.31-1.768.429-.348.07-.703.11-1.054.16-.18.026-.362.044-.543.076-.177.032-.226.16-.116.3.064.082.146.151.218.227.668.697 1.22 1.474 1.608 2.36.145.335.078.592-.215.778a2.466 2.466 0 01-.525.245c-.4.137-.801.28-1.213.376-.323.073-.636.175-.975.198-.36.026-.712.16-1.069.242-.345.081-.69.157-1.036.233-.267.058-.537.113-.807.166-.548.11-1.103.198-1.645.332-.32.079-.619.23-.93.35-.052.02-.104.046-.156.06-.177.05-.316-.043-.276-.218.064-.285.122-.577.407-.769a51.55 51.55 0 001.793-1.282c.12-.087.198-.224.305-.33.189-.183.383-.36.583-.532.227-.195.47-.37.683-.58.101-.102.046-.245-.02-.382-.32-.667-.871-1.133-1.37-1.649a1.087 1.087 0 01-.233-.332.519.519 0 01.293-.705c.497-.207.987-.425 1.492-.609.256-.093.54-.102.804-.169.334-.084.668-.166.987-.294.726-.289 1.504-.437 2.189-.825.127-.072.252-.157.423-.265l.003.003zM18.957 89.283c.156-.463.458-.69.873-.825.4-.128.781-.326 1.179-.472.235-.087.482-.137.725-.2.241-.065.49-.109.726-.193.488-.17.952-.396 1.477-.446.122-.012.232-.096.354-.128.233-.058.47-.093.703-.154.104-.03.2-.097.322-.155-.052-.076-.072-.131-.116-.163-.749-.58-1.33-1.311-1.86-2.086a2.674 2.674 0 01-.244-.46.598.598 0 01.203-.735 3.1 3.1 0 01.52-.262c.388-.166.777-.332 1.172-.478.29-.105.586-.221.888-.25.404-.038.743-.23 1.112-.35.348-.11.682-.253 1.053-.312.325-.05.63-.207.95-.3.461-.137.931-.242 1.387-.399.302-.102.583-.268.874-.408.052-.023.098-.061.15-.084.186-.085.288-.03.297.18.014.365-.096.653-.407.892-.548.42-1.082.865-1.576 1.346-.276.268-.467.626-.763.891-.212.193-.41.4-.607.606-.162.17-.157.225-.05.423.309.56.779.964 1.26 1.358.143.116.273.253.407.381.316.306.177.676-.102.842-.305.184-.624.35-.946.501a5.485 5.485 0 01-.856.335c-.932.263-1.788.72-2.682 1.073-.296.116-.563.303-.842.46-.11.061-.212.134-.325.207-.05.148 0 .262.084.408.36.6.903 1.005 1.431 1.427.047.035.081.082.125.123.45.405.345.705-.096.973a7.884 7.884 0 01-1.97.891c-.526.149-1.02.411-1.533.604a8.367 8.367 0 00-1.57.772c-.305.192-.67.294-1.02.416-.495.175-.922.464-1.346.76-.075.053-.15.126-.235.138-.09.011-.23-.012-.267-.07-.04-.061 0-.193.032-.28.023-.061.09-.102.142-.151.427-.408.813-.851 1.147-1.344.133-.198.336-.35.505-.527.505-.527 1.01-1.055 1.509-1.588.154-.163.15-.253 0-.416-.096-.103-.203-.19-.308-.28-.078-.067-.171-.123-.235-.201-.41-.498-.83-.99-1.216-1.506-.177-.24-.29-.525-.43-.787l-.005.003zM72.334 26.645c.273.032.552.105.822.081.444-.04.882.073 1.332-.035.374-.087.778-.046 1.167-.064.16-.006.319-.017.479-.026.232-.012.333-.093.36-.33.031-.261.072-.527.066-.792-.005-.311-.055-.62-.081-.93-.02-.264-.052-.53-.046-.794.002-.248.319-.46.566-.39.406.113.803.279 1.219.352.705.125 1.274.562 1.936.783.751.25 1.477.569 2.26.726.39.079.758.268 1.133.41.453.172.917.298 1.399.341.066.006.13.047.197.062.116.023.215.075.189.2-.026.135-.137.26-.27.21-.27-.096-.52.05-.781.012a.563.563 0 00-.24.024c-.43.145-.877.169-1.327.183-.578.02-1.156.044-1.73.073-.23.012-.459.04-.685.073-.233.032-.325.13-.317.37.012.416.061.83.064 1.247.003.673-.116 1.328-.278 1.978-.079.309-.566.53-.874.4-.412-.176-.816-.365-1.228-.534-.188-.079-.4-.102-.586-.184-.177-.075-.331-.2-.502-.29-.233-.126-.462-.263-.706-.356-.659-.254-1.274-.595-1.9-.91-.81-.407-1.615-.838-2.482-1.118-.064-.02-.137-.02-.2-.044-.073-.026-.19-.061-.192-.105-.012-.076.029-.175.081-.242.194-.25.438-.407.778-.355.125.02.255.003.383.003v-.026l-.006-.003zM34.12 98.166c.031.178.002.277-.128.408-.305.306-.682.297-1.051.323-.357.03-.72.015-1.08.003a3.36 3.36 0 00-1.222.178c-.223.075-.473.075-.711.105-.25.032-.505.043-.752.087-.252.047-.313.143-.33.405a5.59 5.59 0 00.162 1.672c.06.245.107.499.107.749 0 .335-.325.571-.647.498-.592-.131-1.184-.259-1.77-.41-.288-.073-.56-.204-.842-.303-.833-.289-1.675-.545-2.552-.676-.592-.088-1.152-.292-1.726-.437a3.45 3.45 0 00-.956-.123c-.116.003-.235.009-.348-.008-.186-.033-.302-.146-.27-.257.044-.151.148-.218.31-.224.172-.006.343-.064.512-.056.383.021.72-.151 1.068-.247.418-.117.842-.1 1.257-.178.606-.114 1.222-.183 1.831-.291.276-.05.34-.155.305-.446-.058-.478-.134-.956-.2-1.434a.752.752 0 01-.003-.14c.02-.37.038-.737.07-1.107.014-.183.04-.367.092-.541.082-.283.48-.507.781-.44.212.046.418.12.621.195.32.122.636.242.981.303.32.058.65.16.903.405.064.061.157.11.24.128.697.128 1.33.431 1.98.69.93.365 1.832.805 2.81 1.029.099.023.206.02.305.044.087.02.168.064.244.096h.008zM15.065 93.365c-.241-.09-.282-.291-.276-.443.03-.612-.06-1.206-.148-1.806-.011-.079-.006-.163-.006-.245 0-.536.01-1.072-.002-1.608a14.785 14.785 0 00-.073-1.072c-.023-.245-.14-.286-.4-.283-.497.006-.99-.02-1.487-.047a8.217 8.217 0 01-.89-.081 3.804 3.804 0 01-.761-.201c-.383-.152-.505-.446-.36-.84.101-.28.24-.544.36-.818.072-.166.145-.332.203-.504.148-.44.354-.84.644-1.206.163-.207.215-.501.334-.746.151-.309.316-.61.482-.912.081-.152.174-.297.255-.452.31-.594.633-1.183.923-1.789.169-.35.279-.728.433-1.09a.533.533 0 01.223-.23c.026-.014.128.097.195.152.255.218.284.504.278.822-.008.373-.075.73-.122 1.095-.055.414-.07.845-.008 1.253.072.49.035.973.055 1.457v.174c0 .385.026.414.386.481.113.02.223.05.337.07.42.076.838 0 1.256-.04a4.66 4.66 0 01.83-.018c.273.023.468.4.378.708-.105.364-.25.717-.351 1.08-.145.517-.444.96-.653 1.443-.23.536-.439 1.081-.65 1.626-.288.725-.462 1.492-.79 2.208-.215.472-.363.99-.403 1.524-.01.12-.125.227-.19.335l-.002.003zM89.096 48.136c-.17-.236-.305-.42-.432-.606a.247.247 0 01-.035-.164c.087-.556.168-1.112.279-1.663.095-.49.153-.973.055-1.469a.759.759 0 01.006-.268c.043-.306.095-.611.136-.917.044-.335-.023-.405-.366-.507a5.456 5.456 0 00-1.878-.207c-.07.003-.139 0-.209.011-.473.076-.786-.27-.635-.722.113-.338.232-.679.392-.997.342-.675.716-1.334 1.068-2.007.191-.364.34-.758.554-1.107.253-.408.296-.892.528-1.305.204-.359.39-.729.552-1.108.136-.314.23-.646.345-.973.061-.169.061-.373.285-.463.142.137.226.268.165.504-.058.219-.04.46-.032.694.012.346.044.69.064 1.037.006.078-.006.16-.017.242-.01.055-.041.11-.047.166-.026.428-.046.853-.075 1.282-.009.148-.038.294-.05.443-.005.078.006.16.01.238.005.16.031.32.01.478-.028.23.08.411.305.434.128.012.256 0 .384.003a8.51 8.51 0 012.693.501c.392.143.552.49.418.889a1.891 1.891 0 01-.133.318c-.27.504-.537 1.014-.822 1.509-.107.19-.258.35-.383.53-.128.19-.244.385-.366.577-.508.807-1.01 1.623-1.53 2.424-.4.618-.786 1.244-1.067 1.929-.03.07-.085.13-.172.27v.004zM18.306 101.587c-.121.175-.232.247-.368.108-.256-.26-.598-.274-.92-.327-.14-.023-.293.056-.439.044-.435-.026-.85.096-1.277.125-.07.006-.139.024-.206.018-.403-.041-.76.137-1.135.233-.229.058-.464.084-.7.116-.202.029-.408.059-.614.07-.157.009-.241.07-.239.23 0 .108-.005.219-.136.251-.142.035-.212-.073-.273-.169-.264-.405-.516-.819-.783-1.224-.311-.469-.621-.941-.955-1.395-.143-.195-.334-.356-.511-.522-.102-.096-.169-.204-.108-.338.061-.137.186-.145.325-.122.073.011.183 0 .224-.047.209-.242.441-.48.592-.76.157-.294.27-.606.476-.877.12-.16.168-.376.247-.565.032-.073.052-.155.087-.225.203-.41.453-.804.598-1.235.104-.306.334-.624.157-.99a.298.298 0 010-.208c.023-.067.075-.148.136-.174.09-.041.16.005.223.102.427.64.865 1.279 1.3 1.914.628.912 1.243 1.83 1.888 2.73.415.58.867 1.133 1.303 1.698.05.065.084.14.13.204.198.268.398.536.595.805.128.174.256.352.386.533l-.003-.003zM87.126 25.213c.165-.195.302-.195.424-.055.319.361.746.344 1.17.346.075 0 .15.035.229.041.145.009.29.085.432-.02a.229.229 0 01.13-.038c.396.018.787.038 1.182.058a.346.346 0 00.134-.02c.325-.125.659-.14 1.001-.175.351-.035.705-.052 1.06-.087.078-.01.156-.114.211-.19.061-.087.093-.192.163-.34.119.157.215.256.276.372.183.347.342.705.53 1.05.207.372.436.733.654 1.098.012.02.038.032.046.052.157.408.456.717.706 1.064.16.22.145.247-.087.471-.267-.157-.474-.043-.645.184-.165.221-.328.443-.482.67-.084.123-.145.262-.232.385-.194.268-.424.498-.508.848-.052.212-.226.399-.357.588a6.311 6.311 0 00-.592 1.104c-.096.228-.162.423-.075.656.014.04.026.102.005.134-.06.09-.127.224-.209.239-.072.011-.194-.1-.25-.184-.112-.172-.197-.364-.287-.547-.29-.592-.658-1.137-1.004-1.696-.458-.743-.859-1.518-1.294-2.279-.195-.34-.398-.675-.607-1.005-.235-.367-.493-.722-.726-1.092-.11-.175-.17-.376-.281-.55-.227-.36-.467-.709-.711-1.073l-.006-.009z" fill="#000"></path></svg>
