<svg width="57" height="56" viewBox="0 0 57 56" fill="none" xmlns="http://www.w3.org/2000/svg">
<g clip-path="url(#clip0_491_377)">
<path fill-rule="evenodd" clip-rule="evenodd" d="M0.69827 31.1084C0.63027 31.1185 0.58077 31.1291 0.53027 31.1321C0.457474 31.132 0.386787 31.1074 0.329443 31.0622C0.272098 31.0169 0.231384 30.9536 0.21377 30.8824C0.195831 30.803 0.183632 30.7224 0.17727 30.6412C0.16277 30.3779 0.15727 30.115 0.13977 29.8532C0.12477 29.6327 0.0962702 29.4142 0.0757702 29.1933C0.0712702 29.1403 0.0712702 29.0873 0.0712702 29.0344C0.0712702 28.5112 0.0742702 27.988 0.0702702 27.4648C0.0687701 27.2545 0.0482702 27.0461 0.0367702 26.8357C0.0267702 26.6607 0.0107702 26.4876 0.00327015 26.3126C-0.00272985 26.1768 0.00777015 26.0416 0.00177015 25.9064C-0.0123854 25.5731 0.0585469 25.2416 0.20777 24.9438C0.29777 24.7602 0.31977 24.566 0.34727 24.3737C0.36327 24.2617 0.38927 24.1664 0.49077 24.1114C0.54577 24.0826 0.56077 24.0413 0.55927 23.9838C0.55777 23.9015 0.55927 23.8193 0.55927 23.7371C0.55627 23.6281 0.59227 23.5373 0.68677 23.4858C0.75677 23.449 0.77377 23.399 0.76827 23.3284C0.75927 23.2416 0.74927 23.1549 0.74177 23.0681C0.73777 23.0272 0.73177 22.9859 0.73477 22.946C0.75977 22.6272 0.75777 22.3022 0.85077 21.9965C0.89877 21.8381 0.89577 21.6968 0.88127 21.5379C0.86583 21.3515 0.878133 21.1637 0.91777 20.981C0.95777 20.7897 0.93377 20.6122 0.90177 20.427C0.888136 20.3365 0.88612 20.2446 0.89577 20.1536C0.90877 19.9492 0.94227 19.7419 0.87077 19.5451C0.79727 19.3393 0.83077 19.135 0.85377 18.9291C0.87127 18.7793 0.90327 18.6305 0.90577 18.4806C0.91327 18.075 0.90477 17.6694 0.91077 17.2638C0.91477 16.9121 0.94077 16.5625 0.94077 16.2114C0.94077 15.8597 0.92477 15.5323 0.90577 15.1938C0.89277 14.9562 0.85227 14.7195 0.84227 14.4824C0.83627 14.3149 0.86977 14.1459 0.87127 13.9769C0.87127 13.8548 0.84627 13.7348 0.84077 13.6122C0.83777 13.5552 0.85677 13.4976 0.86377 13.4406C0.88977 13.2333 0.92377 13.0269 0.94227 12.8186C0.96127 12.6102 0.96527 12.3998 0.98127 12.1895C0.98427 12.1572 0.99727 12.1163 1.02077 12.0971C1.10477 12.028 1.18577 11.9407 1.28477 11.909C1.82327 11.7263 2.33277 11.4751 2.85077 11.2415C2.96977 11.187 3.08727 11.1239 3.22677 11.1239C3.27277 11.1239 3.32227 11.0871 3.36427 11.0579C3.58777 10.905 3.80727 10.7451 4.03477 10.5962C4.14477 10.5256 4.26577 10.4681 4.38777 10.4227C4.60977 10.342 4.82427 10.2537 5.01177 10.1023C5.07277 10.0539 5.15377 10.0186 5.23077 10.0055C5.41777 9.97166 5.57077 9.86571 5.73727 9.79054C5.86477 9.73353 6.01027 9.71739 6.14777 9.68056C6.19127 9.66895 6.23627 9.65836 6.27877 9.64221C6.51077 9.54838 6.74277 9.45555 6.97377 9.35868C7.28877 9.226 7.59877 9.07767 7.91877 8.96164C8.06077 8.91018 8.16827 8.82946 8.27677 8.73259C8.332 8.68036 8.40027 8.64426 8.47427 8.62816C8.83877 8.56762 9.16777 8.40012 9.51627 8.28712C9.72827 8.218 9.92127 8.10348 10.1518 8.07825C10.2753 8.06513 10.3868 7.9607 10.5133 7.92387C10.7498 7.85475 10.9443 7.70946 11.1578 7.59897C11.3203 7.51522 11.4978 7.45922 11.6673 7.39011C11.7253 7.3669 11.7888 7.35075 11.8413 7.31544C12.0313 7.18629 12.2478 7.1318 12.4613 7.06722C12.7018 6.99508 12.9368 6.90376 13.1793 6.83919C13.4118 6.77764 13.6438 6.72315 13.8588 6.60964C13.9353 6.57029 14.0153 6.53497 14.0938 6.49814C14.2343 6.43054 14.3783 6.38059 14.5348 6.35991C14.7873 6.32611 15.0108 6.19847 15.2358 6.08798C15.5318 5.94268 15.8248 5.79385 16.1208 5.65007C16.1718 5.62485 16.2298 5.61627 16.2853 5.59861C16.6188 5.49266 16.9413 5.36149 17.2388 5.17079C17.4693 5.02398 17.7388 4.96899 17.9948 4.88423C18.1848 4.82117 18.3748 4.76366 18.5533 4.66679C18.7723 4.54917 18.9965 4.44177 19.2253 4.34492C19.3343 4.29749 19.4548 4.27277 19.5723 4.24906C19.8439 4.2008 20.1024 4.09562 20.3313 3.9403C20.4581 3.85123 20.5945 3.77677 20.7378 3.71832C20.9918 3.61439 21.2543 3.53166 21.5113 3.43479C21.6068 3.39796 21.6983 3.34953 21.7913 3.30362C22.2363 3.09072 22.6778 2.86773 23.1278 2.66441C23.4618 2.51457 23.8053 2.38239 24.1493 2.25476C24.3043 2.19724 24.4703 2.17101 24.6313 2.12964C24.6588 2.12207 24.6908 2.12056 24.7128 2.10441C24.9508 1.92279 25.2528 1.88848 25.5093 1.7447C25.6168 1.68416 25.7488 1.67558 25.8678 1.63573C25.9708 1.60041 26.0753 1.56358 26.1678 1.5096C26.3028 1.42989 26.4178 1.41829 26.5688 1.49144C26.7893 1.60041 27.0303 1.6665 27.2608 1.7563C27.5598 1.87385 27.8558 1.99594 28.1533 2.11803C28.4728 2.2487 28.7923 2.38239 29.1098 2.51659C29.1623 2.53829 29.2098 2.5736 29.2598 2.60286C29.4203 2.69569 29.5848 2.77339 29.7698 2.80567C29.8633 2.82182 29.9533 2.86874 30.0373 2.91465C30.1333 2.97342 30.248 2.99291 30.3578 2.96913C30.4363 2.88236 30.4188 2.77944 30.4043 2.67349C30.3508 2.30874 30.3713 1.95205 30.5353 1.61656C30.5803 1.52575 30.6553 1.44503 30.7338 1.37692C30.8603 1.26996 31.0023 1.26542 31.1518 1.34009C31.2793 1.40366 31.4133 1.45612 31.5468 1.50355C31.6888 1.55349 31.8368 1.57115 31.9878 1.56812C32.1793 1.56358 32.3708 1.56207 32.5628 1.56812C32.8758 1.5767 33.1853 1.57115 33.4843 1.46066C33.6073 1.41526 33.7308 1.41526 33.8558 1.46066C33.9033 1.47832 33.9558 1.49295 34.0063 1.49598C34.3243 1.51112 34.6408 1.52524 34.9583 1.5313C35.0848 1.53281 35.2098 1.50607 35.3358 1.49901C35.6278 1.48387 35.8668 1.59486 36.0438 1.82694C36.1633 1.98283 36.2373 2.15184 36.1573 2.36171C36.0962 2.53081 36.0605 2.70816 36.0513 2.88791C36.0338 3.17043 35.9673 3.44942 35.9338 3.73194C35.9163 3.88178 35.8948 4.04171 35.9253 4.18751C35.9933 4.51241 35.9843 4.83832 35.9903 5.16474C35.9903 5.23234 36.0103 5.30146 36.0323 5.36654C36.0748 5.49266 36.1938 5.52344 36.3008 5.55169C36.4068 5.57944 36.4768 5.50275 36.5198 5.41749C36.6198 5.22376 36.7843 5.09713 36.9583 4.98412C37.0683 4.91349 37.1963 4.86809 37.3168 4.81663C37.5013 4.73742 37.6928 4.66982 37.8728 4.57951C38.0553 4.48719 38.2328 4.49778 38.3938 4.59919C38.5853 4.72128 38.7928 4.77223 39.0078 4.81511C39.4343 4.90038 39.8638 4.98261 40.2728 5.13295C40.6618 5.27522 41.0393 5.44877 41.4268 5.59104C41.7288 5.70304 42.0028 5.88063 42.3218 5.95277C42.4568 5.98355 42.5848 6.06578 42.7053 6.14095C43.0043 6.33065 43.3353 6.4482 43.6618 6.57331C43.7663 6.61266 43.8853 6.63335 43.9968 6.63486C44.0383 6.63549 44.0787 6.62115 44.1107 6.59442C44.1426 6.5677 44.1641 6.53034 44.1713 6.48906C44.1973 6.35285 44.2293 6.21612 44.2393 6.0794C44.2508 5.922 44.2393 5.76157 44.2423 5.60315C44.2508 5.26362 44.2523 4.92409 44.2798 4.58557C44.3063 4.27429 44.3658 3.96553 44.4078 3.65526C44.4133 3.60985 44.4148 3.56142 44.4148 3.51551V1.20488C44.4148 1.15796 44.4223 1.10499 44.4048 1.06564C44.3453 0.928917 44.3873 0.796232 44.4263 0.67162C44.5193 0.363872 44.8403 0.140881 45.1563 0.117169C45.4598 0.0954756 45.7603 0.0515837 46.0638 0.0172774C46.1103 0.0127369 46.1563 0.0187909 46.2028 0.0142504C46.6688 -0.0387226 47.1303 0.0747909 47.5963 0.0510792C47.9708 0.0319081 48.3463 0.024845 48.7223 0.0157639C48.7908 0.0142504 48.8588 0.0334216 48.9273 0.0409891L49.5933 0.120196L50.1923 0.186286C50.2158 0.189313 50.2388 0.19234 50.2623 0.190827C50.4958 0.168629 50.7163 0.241277 50.9428 0.284665C51.0953 0.314431 51.2503 0.326034 51.4058 0.33007C51.6378 0.337638 51.8703 0.337638 52.1023 0.33007C52.2443 0.326034 52.3883 0.305349 52.5288 0.279115C52.6638 0.25389 52.7788 0.267007 52.9078 0.334611C53.0833 0.425926 53.2283 0.540449 53.3303 0.706935C53.4013 0.822971 53.4693 0.940521 53.4753 1.08885C53.4913 1.45057 53.5143 1.81029 53.5433 2.17101C53.5708 2.5176 53.6103 2.8647 53.6448 3.21281C53.6463 3.23047 53.6448 3.24812 53.6463 3.26578C53.6582 3.76944 53.6699 4.2731 53.6813 4.77677C53.6843 4.88272 53.6843 4.98867 53.6813 5.09461C53.6738 5.31155 53.7033 5.52344 53.7453 5.73685C53.7698 5.86146 53.7798 5.99112 53.7858 6.11875C53.8003 6.44063 53.7928 6.76452 53.8263 7.08337C53.8858 7.658 53.8353 8.23263 53.8598 8.80575C53.8683 9.02067 53.9163 9.23357 53.9208 9.44798C53.9268 9.75825 53.9108 10.0685 53.8988 10.3773C53.8918 10.5518 53.8673 10.7254 53.8598 10.9004C53.8538 11.0256 53.9003 11.0871 54.0153 11.1194C54.2083 11.1739 54.4038 11.2153 54.5958 11.2723C54.9293 11.3722 55.2283 11.6118 55.2168 12.0321C55.2108 12.2147 55.2503 12.3892 55.2733 12.5688C55.3008 12.7817 55.2818 13.0027 55.2793 13.2186C55.2793 13.2933 55.2543 13.3685 55.2543 13.4432C55.2518 13.7903 55.2488 14.1374 55.2543 14.4839C55.2603 14.8058 55.2878 15.1277 55.2848 15.4486C55.2818 15.6806 55.2343 15.9112 55.2268 16.1438C55.2198 16.3405 55.2253 16.5423 55.2528 16.7376C55.2848 16.9565 55.3328 17.1714 55.3258 17.3959C55.3168 17.6785 55.3198 17.9605 55.3258 18.2425C55.3328 18.6173 55.3373 18.9922 55.3633 19.3655C55.3823 19.6198 55.4503 19.868 55.4738 20.1223C55.4968 20.3771 55.5738 20.6222 55.5723 20.8826C55.5693 21.3921 55.5678 21.9042 55.6088 22.4112C55.6608 23.0857 55.6158 23.7608 55.6403 24.4338C55.6478 24.6189 55.6828 24.8026 55.6998 24.9877C55.7173 25.1552 55.7378 25.3247 55.7408 25.4937C55.7463 25.8111 55.7508 26.1284 55.7408 26.4463C55.7318 26.696 55.6988 26.9442 55.6768 27.1944C55.6738 27.2353 55.6738 27.2767 55.6738 27.3175V28.094C55.6738 28.4037 55.6508 28.7095 55.5783 29.0122C55.5433 29.1585 55.5388 29.3123 55.5358 29.4637C55.5213 30.3208 55.4808 31.1775 55.5083 32.0331C55.5318 32.7314 55.5478 33.4296 55.5258 34.1263C55.5081 34.7534 55.4999 35.3808 55.5013 36.0081C55.5013 36.447 55.5043 36.887 55.5373 37.3249C55.6013 38.1815 55.5478 39.0387 55.5693 39.8943C55.5768 40.2041 55.5868 40.5149 55.6058 40.8226C55.6218 41.0966 55.6463 41.3685 55.6753 41.6399C55.7058 41.9401 55.7423 42.2403 55.7813 42.5399C55.792 42.6035 55.8168 42.6639 55.8538 42.7165C55.9103 42.8003 55.9378 42.8865 55.9598 42.9884C56.0048 43.2014 56.0293 43.4042 55.9948 43.6246C55.9538 43.8834 55.9568 44.1493 55.9538 44.4112C55.9523 44.5933 55.9338 44.7714 55.8903 44.9474C55.8828 44.9757 55.8828 45.0065 55.8813 45.0342C55.8698 45.4974 55.8668 45.9605 55.8438 46.4216C55.8293 46.694 55.7828 46.9645 55.7523 47.2349C55.7363 47.3787 55.7103 47.5245 55.7103 47.6687C55.7103 48.0607 55.6943 48.4507 55.6393 48.8387C55.6333 48.878 55.6378 48.9209 55.6378 48.9618V50.3552C55.6378 50.6554 55.5563 50.9404 55.4823 51.227C55.4663 51.2901 55.4098 51.3461 55.3648 51.3975C55.2413 51.5373 55.1223 51.6826 54.9833 51.8047C54.8958 51.8808 54.7828 51.9353 54.6478 51.8899C54.6073 51.8768 54.5463 51.8975 54.5043 51.9192C54.3748 51.9838 54.2503 52.0559 54.1023 52.068C53.9063 52.0852 53.7598 52.2234 53.5798 52.2809C53.4768 52.3132 53.3723 52.347 53.2708 52.3854C53.0923 52.4499 52.9123 52.51 52.7393 52.5851C52.5653 52.6618 52.3868 52.6835 52.2008 52.685C52.0213 52.685 52.0108 52.6911 52.0153 52.8732C52.0213 53.0806 52.0328 53.2894 52.0528 53.4953C52.0573 53.5452 52.0993 53.5992 52.1373 53.639C52.2008 53.7051 52.1938 53.7536 52.1343 53.8186C51.9732 53.9862 51.7878 54.1279 51.5843 54.2389C51.2633 54.4125 50.9702 54.6339 50.7148 54.8958C50.4753 55.1445 50.1823 55.2984 49.8383 55.3766C49.6208 55.425 49.3828 55.4527 49.1983 55.6101C49.1853 55.6217 49.1633 55.6248 49.1548 55.6379C49.0488 55.8013 48.8863 55.7776 48.7238 55.7953C48.3423 55.8397 47.9588 55.7923 47.5803 55.8321C47.2433 55.8674 46.9098 55.8558 46.5743 55.8589C45.5818 55.8644 44.5878 55.8321 43.5963 55.869C42.6343 55.9043 41.6708 55.8543 40.7113 55.9043C39.9003 55.9451 39.0888 55.9128 38.2788 55.929C38.0803 55.9335 37.8788 55.925 37.6798 55.9366C36.3113 56.0087 34.9423 55.9441 33.5753 55.9673C33.3563 55.9719 33.1388 55.9966 32.9193 55.9981C32.7263 55.9996 32.5318 55.9981 32.3393 55.9981C25.2858 56.0011 18.2328 56.0011 11.1808 56.0011C10.2288 55.9366 9.27377 55.9966 8.32327 55.9572C7.87827 55.9381 7.43077 55.9658 6.98827 55.9234C6.62827 55.8896 6.26977 55.9275 5.91427 55.8896C5.46277 55.8397 5.01177 55.8775 4.56027 55.8589C4.42784 55.855 4.29584 55.8417 4.16527 55.819C4.09577 55.8059 4.01627 55.7736 3.96977 55.7221C3.79977 55.5294 3.58377 55.4088 3.35877 55.3074C3.25577 55.2605 3.19477 55.1808 3.11877 55.1117C3.03777 55.0355 2.96377 54.9563 2.84777 54.9326C2.80577 54.924 2.75177 54.8958 2.73277 54.8605C2.65927 54.7182 2.51377 54.6622 2.40077 54.5693C2.33077 54.5139 2.24077 54.4785 2.15427 54.4518C2.021 54.4155 1.90349 54.3354 1.82027 54.2243C1.74802 54.1242 1.64797 54.048 1.53277 54.0053C1.47177 53.9846 1.41527 53.967 1.38777 53.8963C1.37927 53.8757 1.34427 53.855 1.31777 53.8524C1.13977 53.8227 1.07277 53.6774 1.03227 53.5346C1.00327 53.4302 0.95377 53.3126 1.01727 53.1951C1.03527 53.1628 1.02227 53.1144 1.02227 53.073C1.02227 52.7733 1.02627 52.4736 1.02227 52.1735C1.01477 51.7986 1.00177 51.4253 0.98727 51.0504C0.98127 50.8991 0.96227 50.7492 0.96127 50.5979C0.96127 50.4935 0.97877 50.391 0.98877 50.2861C0.99577 50.1983 0.95077 50.1479 0.87527 50.1095C0.72627 50.0364 0.61127 49.9279 0.56627 49.7559C0.496023 49.4866 0.450827 49.2113 0.43127 48.9335C0.42277 48.8003 0.40627 48.6682 0.39377 48.534C0.38377 48.43 0.36777 48.3271 0.36327 48.2227C0.34827 47.8302 0.36027 47.4357 0.32277 47.0467C0.26877 46.4837 0.31527 45.9206 0.29077 45.3591C0.28177 45.1447 0.24827 44.9313 0.22827 44.7169C0.22377 44.67 0.22827 44.6225 0.22227 44.5756C0.20377 44.3905 0.17877 44.2068 0.16127 44.0217C0.14427 43.8421 0.12227 43.6615 0.12127 43.4819C0.11527 42.8941 0.11377 42.3064 0.12127 41.7181C0.12377 41.5153 0.16277 41.3145 0.18477 41.1127C0.18777 41.089 0.18777 41.0658 0.18777 41.0421C0.19927 40.7379 0.19177 40.4316 0.22677 40.1309C0.28177 39.6562 0.24177 39.181 0.25577 38.7062C0.25877 38.6063 0.28177 38.514 0.30927 38.4187C0.36427 38.2244 0.41827 38.0302 0.43727 37.8243C0.46227 37.5484 0.53027 37.2764 0.57777 37.003C0.58977 36.9394 0.60277 36.8769 0.60427 36.8148C0.60577 36.1327 0.60677 35.4506 0.60427 34.7686C0.60427 34.6525 0.56777 34.5365 0.57377 34.4215C0.58977 34.0895 0.61877 33.7585 0.63877 33.4276C0.65377 33.2006 0.66927 32.9735 0.67377 32.746C0.67977 32.4695 0.67077 32.1936 0.67677 31.9171C0.68127 31.7067 0.69827 31.4984 0.71027 31.288C0.71277 31.2305 0.71027 31.1735 0.71027 31.1084H0.69827ZM2.69677 44.5242C2.71577 44.5242 2.73027 44.5302 2.73727 44.5242C2.77677 44.4979 2.82327 44.4626 2.85777 44.511C2.87977 44.5403 2.88127 44.5933 2.87677 44.6347C2.87077 44.6977 2.84777 44.7583 2.83927 44.8213C2.80577 45.0448 2.75777 45.2653 2.81277 45.4958C2.84927 45.6442 2.87077 45.8086 2.81277 45.9559C2.74927 46.1149 2.75077 46.2763 2.75477 46.4398C2.76377 46.8555 2.78677 47.2702 2.78677 47.6859C2.78677 48.0078 2.81027 48.3281 2.75927 48.6515C2.70977 48.9663 2.81127 49.2766 2.84627 49.5879C2.87377 49.8305 2.93627 50.0687 2.92927 50.3159C2.91577 50.7432 2.90577 51.1695 2.89277 51.5973C2.89261 51.6266 2.88875 51.6558 2.88127 51.6841C2.84177 51.8647 2.81877 52.0352 2.87527 52.2295C2.91877 52.3748 2.99127 52.463 3.09577 52.5453C3.44427 52.8233 3.79577 53.0952 4.14077 53.3747C4.23527 53.4509 4.34077 53.4877 4.45727 53.4963C4.63577 53.5114 4.81277 53.523 4.99127 53.5316C5.25127 53.5452 5.50927 53.5583 5.76927 53.5669C6.19727 53.583 6.62427 53.5745 7.05227 53.5951C8.00127 53.639 8.95227 53.6083 9.90227 53.629C11.5308 53.6643 13.1603 53.636 14.7903 53.639C15.4213 53.639 16.0528 53.6537 16.6828 53.6643C17.6088 53.6804 18.5358 53.6728 19.4633 53.6481C20.8143 53.6113 22.1683 53.6481 23.5213 53.636C24.8723 53.6259 26.2218 53.6522 27.5728 53.6113C29.3288 53.5583 31.0863 53.636 32.8438 53.5714C33.9903 53.5291 35.1388 53.5846 36.2863 53.5407C37.3283 53.5008 38.3718 53.5407 39.4153 53.4993C40.1673 53.4685 40.9203 53.5185 41.6733 53.4685C42.3133 53.4261 42.9583 53.4423 43.6008 53.4261C44.1278 53.4125 44.6528 53.4377 45.1808 53.3994C45.7458 53.3585 46.3148 53.407 46.8823 53.3611C47.1708 53.3379 47.4623 53.357 47.7528 53.357C47.7933 53.357 47.8343 53.357 47.8748 53.354C48.1213 53.3318 48.3683 53.2803 48.6118 53.2919C48.9365 53.3109 49.259 53.2277 49.5348 53.0538C49.6178 53.0029 49.7138 52.9731 49.7933 52.9186C49.9123 52.8379 50.0243 52.7456 50.1343 52.6527C50.1998 52.5983 50.2243 52.5337 50.1998 52.4368C50.1743 52.3454 50.1743 52.2487 50.1998 52.1573C50.2768 51.9338 50.2578 51.7063 50.2593 51.4798C50.2593 51.3799 50.2723 51.286 50.3128 51.1902C50.3478 51.1079 50.3523 51.0111 50.3638 50.9183C50.3868 50.7346 50.4088 50.5495 50.4263 50.3643C50.4333 50.2891 50.4408 50.2114 50.4303 50.1363C50.3883 49.826 50.3348 49.5172 50.2983 49.206C50.2838 49.0798 50.2953 48.9472 50.3058 48.8195C50.3188 48.6515 50.3638 48.484 50.3593 48.318C50.3523 48.039 50.3113 47.7611 50.2983 47.4831C50.2889 47.2685 50.2558 47.0556 50.1998 46.8484C50.1938 46.8258 50.1938 46.8019 50.1998 46.7793C50.2273 46.6496 50.2738 46.5205 50.2823 46.3893C50.2998 46.128 50.3203 45.8661 50.2638 45.6033C50.2397 45.4709 50.2348 45.3356 50.2493 45.2017C50.2693 44.9595 50.3478 44.7239 50.3333 44.4757C50.3126 44.1489 50.3014 43.8215 50.2998 43.494C50.2998 43.219 50.3188 42.9441 50.3333 42.6706C50.3403 42.5193 50.3563 42.3694 50.3653 42.2181C50.3693 42.1475 50.3683 42.0766 50.3623 42.0062C50.3418 41.7741 50.3073 41.5436 50.3013 41.3125C50.2953 41.1036 50.3333 40.8937 50.3303 40.6834C50.3203 39.7929 50.3783 38.902 50.2638 38.0145C50.2593 37.9802 50.2638 37.9439 50.2663 37.9086C50.2753 37.8097 50.2953 37.7128 50.2953 37.6145C50.2968 35.9446 50.2998 34.2747 50.2953 32.6047C50.2938 32.0125 50.2738 31.4217 50.2608 30.8289C50.2608 30.7895 50.2478 30.7502 50.2388 30.7103C50.2243 30.6498 50.1968 30.5913 50.1938 30.5292C50.1748 30.1327 50.1938 29.7341 50.1648 29.3361C50.1243 28.7286 50.1403 28.1172 50.1313 27.5072C50.1128 26.2228 50.1458 24.9363 50.1578 23.6503C50.1578 23.5812 50.1678 23.5105 50.1738 23.4414C50.1738 23.4197 50.1823 23.393 50.1723 23.3768C50.1008 23.2638 50.1198 23.1387 50.1243 23.0166C50.1298 22.8123 50.1373 22.608 50.1603 22.4052C50.1778 22.2508 50.2243 22.0994 50.2493 21.9451C50.258 21.8883 50.2529 21.8303 50.2343 21.7761C50.2085 21.7133 50.2021 21.6442 50.2158 21.5778C50.2478 21.431 50.2493 21.2781 50.2608 21.1262C50.2648 21.0793 50.2493 21.0264 50.2663 20.987C50.3143 20.878 50.2738 20.7852 50.2403 20.6853C50.2141 20.609 50.1984 20.5294 50.1938 20.4487C50.1868 20.2958 50.1968 20.143 50.1893 19.9901C50.1853 19.8741 50.1633 19.7595 50.1548 19.6435C50.1418 19.4568 50.1038 19.2672 50.1298 19.0865C50.1708 18.7954 50.1953 18.5074 50.1923 18.2148C50.1923 18.1472 50.1998 18.072 50.2288 18.0119C50.3028 17.8545 50.3273 17.6886 50.3273 17.5211C50.3273 17.3046 50.3028 17.0902 50.2968 16.8743C50.2913 16.6331 50.2998 16.392 50.2928 16.1508C50.2883 16.0467 50.2738 15.9433 50.2493 15.8421C50.2158 15.7008 50.1778 15.5701 50.2173 15.4158C50.2578 15.2543 50.2533 15.0808 50.2593 14.9118C50.2648 14.7412 50.2578 14.5707 50.2608 14.4002C50.2635 14.1785 50.2415 13.9571 50.1953 13.7403C50.1708 13.6167 50.1503 13.483 50.1738 13.3609C50.2198 13.1112 50.2043 12.8892 49.9788 12.7379C49.7308 12.5704 49.4838 12.3897 49.2128 12.2687C48.8328 12.1002 48.4508 11.9397 48.0908 11.7278C48.0298 11.6955 47.9649 11.6714 47.8978 11.6562C47.7483 11.6148 47.5963 11.5856 47.4493 11.5386C47.1182 11.4375 46.8006 11.2962 46.5033 11.1179C46.1958 10.9297 45.8473 10.8374 45.5148 10.7077C45.2958 10.6225 45.0698 10.5549 44.8763 10.4141C44.7985 10.3544 44.7052 10.3186 44.6078 10.3112C44.4992 10.2993 44.3933 10.2694 44.2943 10.2229C43.7373 9.97014 43.1828 9.70982 42.6268 9.45252C42.5588 9.42175 42.4908 9.39097 42.4208 9.36272C42.1813 9.26585 41.9348 9.18362 41.7028 9.0691C41.4573 8.94802 41.1958 8.88092 40.9408 8.79667C40.6958 8.71594 40.4328 8.66196 40.2123 8.53533C39.8523 8.32949 39.4703 8.19126 39.0828 8.06614C38.6808 7.93699 38.3038 7.75486 37.9293 7.56366C37.7293 7.46074 37.5288 7.3669 37.3093 7.3114C37.16 7.26862 37.0145 7.21344 36.8743 7.14643C36.6538 7.04957 36.4388 6.93757 36.2183 6.8407C35.9758 6.73475 35.7293 6.6389 35.4838 6.53951C35.3403 6.48048 35.1993 6.41742 35.0543 6.36596C34.9033 6.31299 34.7453 6.2802 34.5943 6.22621C34.3228 6.13036 34.0573 6.0234 33.7873 5.92502C33.4098 5.78679 33.0323 5.65158 32.6538 5.51638C32.3548 5.40892 32.0603 5.29288 31.7818 5.1385C31.5348 5.00027 31.2823 4.87515 31.0328 4.74146C30.9465 4.69471 30.8507 4.66865 30.7528 4.66528C30.6713 4.66225 30.5728 4.63602 30.5178 4.58304C30.4128 4.48164 30.2913 4.42261 30.1693 4.35652C30.0983 4.31818 30.0283 4.2758 29.9593 4.23746C29.8793 4.19357 29.8023 4.13757 29.7168 4.1083C29.4453 4.01396 29.1723 3.92719 28.8993 3.8389C28.8123 3.81115 28.7268 3.77735 28.6383 3.75515C28.3929 3.69303 28.1548 3.6044 27.9283 3.49079C27.5718 3.3127 27.2083 3.14823 26.8488 2.9762C26.7413 2.92474 26.6398 2.93382 26.5323 2.97922C26.3643 3.05137 26.1958 3.1336 26.0203 3.18103C25.6918 3.26911 25.375 3.39683 25.0768 3.56142C24.7808 3.72286 24.4628 3.82023 24.1483 3.9287C23.8448 4.03313 23.5298 4.10679 23.2553 4.28589C23.1916 4.32587 23.1241 4.35933 23.0538 4.38578C22.8783 4.45641 22.7023 4.53158 22.5228 4.58859C22.3268 4.65065 22.1233 4.68848 21.9248 4.746C21.8433 4.76971 21.7648 4.80755 21.6883 4.84589C21.5953 4.8913 21.5113 4.95335 21.4153 4.99169C21.0903 5.12387 20.7608 5.24596 20.4353 5.37663C20.2283 5.46038 20.0103 5.52949 19.8233 5.64704C19.5618 5.81151 19.2848 5.93814 19.0093 6.0673C18.8178 6.1571 18.6158 6.22874 18.4153 6.29836C18.1178 6.40128 17.8103 6.47746 17.5228 6.61115C17.2628 6.73324 17.0018 6.85533 16.7378 6.96834C16.5043 7.06672 16.2678 7.15652 16.0618 7.3114C15.9899 7.36004 15.9109 7.39714 15.8278 7.42139C15.4058 7.57122 14.9788 7.70794 14.5593 7.86787C14.3288 7.95616 14.1128 8.07976 13.8893 8.1842C13.7543 8.24726 13.6323 8.3416 13.4743 8.34715C13.4113 8.35227 13.3502 8.37121 13.2953 8.40265C12.8573 8.63522 12.3503 8.69728 11.9283 8.96769C11.9198 8.97324 11.9053 8.97223 11.8948 8.97476C11.5973 9.08222 11.2983 9.18362 11.0038 9.29814C10.7908 9.38189 10.5788 9.47018 10.3913 9.61094C10.3049 9.67966 10.2024 9.72482 10.0938 9.74211C9.77877 9.77742 9.49327 9.89194 9.21727 10.0408C8.91727 10.2022 8.60777 10.3435 8.28277 10.4464C8.18412 10.4784 8.08883 10.5202 7.99827 10.571C7.75427 10.7037 7.50327 10.8152 7.23327 10.8798C6.98677 10.9388 6.74427 11.0049 6.52527 11.1386C6.35827 11.2415 6.19027 11.3444 6.01427 11.4312C5.88077 11.4958 5.73877 11.5548 5.59377 11.578C5.47451 11.5941 5.35845 11.6288 5.24977 11.6809C4.98127 11.8176 4.71427 11.9574 4.44127 12.085C4.29627 12.1526 4.14227 12.1985 3.99277 12.2571C3.80977 12.3277 3.62127 12.3832 3.49077 12.5482C3.38077 12.6879 3.24677 12.7954 3.05377 12.7939C3.02177 12.7939 2.98377 12.8085 2.95677 12.8277C2.93027 12.8453 2.89877 12.8776 2.89677 12.9054C2.89427 13.0184 2.90177 13.1304 2.90727 13.2434C2.91177 13.3185 2.93777 13.3977 2.92327 13.4684C2.86327 13.7711 2.90427 14.0768 2.89127 14.3815C2.88977 14.4279 2.88977 14.4754 2.88427 14.5208C2.86377 14.712 2.83427 14.9017 2.82327 15.0924C2.81327 15.2806 2.82027 15.4687 2.82177 15.6574C2.82177 15.7704 2.78077 15.8774 2.81277 15.9995C2.85377 16.1539 2.84477 16.3229 2.85527 16.4863C2.85569 16.5153 2.85318 16.5442 2.84777 16.5726C2.83927 16.6417 2.82027 16.7108 2.82177 16.7784C2.83027 17.1709 2.85527 17.5634 2.85177 17.9544C2.84777 18.7642 2.83177 19.5729 2.82027 20.3826V20.5239C2.82027 20.5592 2.81577 20.5945 2.81127 20.6283C2.77977 20.9159 2.73327 21.2044 2.72027 21.494C2.70827 21.7498 2.73177 22.0086 2.74027 22.2644C2.76027 22.7962 2.79427 23.3269 2.81277 23.8576C2.84777 24.8248 2.84627 25.7934 2.85377 26.7621C2.85927 27.5501 2.85777 28.3376 2.85377 29.1257C2.85077 29.4359 2.86677 29.7447 2.82727 30.056C2.78827 30.3562 2.79427 30.6634 2.78827 30.9676C2.78677 31.0776 2.81727 31.1866 2.82027 31.2966C2.83777 32.0417 2.83627 32.7874 2.84527 33.531C2.86227 34.8685 2.89727 36.2089 2.82177 37.5469C2.79977 37.9257 2.85177 38.3082 2.78677 38.687C2.77827 38.739 2.78377 38.793 2.78677 38.846C2.79577 38.962 2.81427 39.077 2.81727 39.1931C2.82177 39.4221 2.81877 39.6517 2.81727 39.8807C2.81727 39.9281 2.82577 39.9796 2.81027 40.0205C2.73477 40.2117 2.74777 40.4114 2.74777 40.6102C2.74777 40.9159 2.74627 41.2217 2.74777 41.5274C2.74777 41.596 2.75927 41.6651 2.77377 41.7327C2.81877 41.9461 2.78377 42.1575 2.76927 42.3709C2.75477 42.5869 2.72877 42.8073 2.75627 43.0192C2.79277 43.2912 2.79677 43.5555 2.69827 43.8098C2.6405 43.9619 2.62159 44.1262 2.64327 44.2875C2.65177 44.3627 2.67227 44.4344 2.68977 44.5196L2.69677 44.5242Z" fill="#1C1E26"/>
<path fill-rule="evenodd" clip-rule="evenodd" d="M32.6804 48.0026C32.6804 47.5738 32.6529 47.1414 32.6874 46.7161C32.7271 46.249 32.7334 45.7796 32.7064 45.3116C32.6599 44.5134 32.6889 43.7148 32.6849 42.9182C32.6834 42.6009 32.6964 42.2775 32.7775 41.9647C32.804 41.8643 32.801 41.7573 32.821 41.6544C32.8703 41.3852 32.9641 41.1264 33.0985 40.8886C33.2901 40.5561 33.5991 40.3679 33.9417 40.2342C34.2317 40.1212 34.5338 40.0592 34.8419 40.0153C34.9464 40.0001 35.0494 39.9522 35.1434 39.8992C35.3525 39.7832 35.585 39.7802 35.8086 39.7378C35.9886 39.7035 36.1686 39.6727 36.3472 39.6319C36.5242 39.589 36.6912 39.5804 36.8698 39.651C37.0498 39.7217 37.2383 39.7756 37.4384 39.7772C37.5344 39.7772 37.6304 39.814 37.7259 39.8256C37.909 39.8478 38.0915 39.874 38.2745 39.876C38.4996 39.877 38.7231 39.8493 38.9482 39.8463C39.0977 39.8463 39.2457 39.874 39.3953 39.877C39.4923 39.8786 39.5883 39.8508 39.6853 39.8493C39.7888 39.8463 39.8929 39.8553 39.9949 39.8654C40.1254 39.8786 40.2559 39.9063 40.3865 39.9139C40.7215 39.93 41.0571 39.9255 41.3912 39.9537C41.9123 39.9991 42.4304 40.0622 42.9049 40.3134C43.2565 40.4991 43.5176 40.7604 43.6501 41.1499C43.7221 41.3663 43.7701 41.5838 43.7936 41.8113C43.8196 42.0716 43.8601 42.3289 43.8936 42.5877C43.8991 42.6332 43.8951 42.6816 43.8951 42.729C43.8951 43.1699 43.8981 43.6109 43.8951 44.0518C43.8921 44.2753 43.8951 44.4943 43.9777 44.7057C44.0317 44.8439 44.0347 44.9897 44.0377 45.1365C44.0427 45.4291 44.0377 45.7227 44.0767 46.0123C44.1272 46.3988 44.1067 46.7857 44.0997 47.1707C44.0952 47.4587 44.0357 47.7468 44.0052 48.0364C43.9882 48.1978 43.9807 48.3613 43.9662 48.5248C43.9602 48.5934 43.9462 48.661 43.9372 48.7301C43.9227 48.8512 43.9111 48.9728 43.8966 49.0948C43.8766 49.2785 43.8561 49.4636 43.8326 49.6478C43.8096 49.8314 43.7906 50.0161 43.7556 50.1987C43.6701 50.6497 43.4581 51.0337 43.098 51.3172C42.969 51.4186 42.8109 51.4907 42.6554 51.5467C42.3318 51.6643 41.9953 51.7304 41.6512 51.7728C41.0631 51.8449 40.474 51.8434 39.8859 51.8378C39.2312 51.8318 38.5766 51.7864 37.9235 51.8126C37.3384 51.8363 36.7532 51.8272 36.1701 51.8404C36.0496 51.8434 35.9231 51.8918 35.8116 51.8686C35.543 51.8111 35.315 51.914 35.0869 52.0169C34.9619 52.0729 34.8649 52.0507 34.7709 51.9655C34.6758 51.8802 34.5893 51.7803 34.4818 51.7157C34.3622 51.6483 34.2345 51.5969 34.1017 51.5629C33.6616 51.4393 33.2901 51.2112 33.0765 50.797C32.9345 50.5221 32.8125 50.231 32.7835 49.9091C32.766 49.7194 32.7194 49.5328 32.6889 49.3431C32.6804 49.2916 32.6819 49.2371 32.6819 49.1862V48.0036L32.6804 48.0026ZM38.9512 45.7656C38.9207 45.1148 39.0032 44.3026 38.9132 43.4959C38.8887 43.2789 38.8246 43.0655 38.7796 42.8506C38.7721 42.8043 38.7507 42.7615 38.7184 42.7279C38.686 42.6942 38.6442 42.6714 38.5986 42.6624C38.5256 42.6432 38.4576 42.6094 38.3836 42.6009C38.0745 42.5625 37.9145 42.6564 37.8144 42.9359C37.7084 43.23 37.6679 43.5463 37.6649 43.8606C37.6617 44.4115 37.67 44.9624 37.6899 45.5129C37.7099 46.1859 37.6739 46.8604 37.6619 47.5339C37.6564 47.8381 37.6564 48.1408 37.7304 48.439C37.7754 48.6186 37.8004 48.8037 37.8975 48.9687C37.935 49.0333 37.9715 49.0832 38.0525 49.0888C38.173 49.0964 38.2925 49.1186 38.4126 49.1196C38.6226 49.1246 38.7041 49.0626 38.7756 48.8683C38.8945 48.5463 38.9538 48.205 38.9507 47.8613C38.9482 47.2151 38.9507 46.5683 38.9507 45.7641L38.9512 45.7656ZM25.7901 12.1061C26.0441 12.1222 26.2617 12.1359 26.4807 12.1505C26.6042 12.1591 26.7218 12.1354 26.8323 12.0783C26.9948 11.9926 27.1629 11.9825 27.3324 12.0561C27.5114 12.1328 27.696 12.1545 27.89 12.1535C28.6046 12.1475 29.3188 12.1535 30.0329 12.1505C30.1414 12.1505 30.2505 12.1369 30.358 12.1182C30.651 12.0622 30.9371 12.3412 30.8676 12.6928C30.7991 13.0394 30.7471 13.389 30.699 13.7392C30.674 13.9173 30.667 14.0994 30.664 14.28C30.6625 14.3829 30.6875 14.4874 30.696 14.5918C30.7111 14.7668 30.7251 14.9399 30.7311 15.115C30.7396 15.3606 30.7151 15.6018 30.671 15.8455C30.626 16.0957 30.6335 16.357 30.6295 16.6143C30.6245 16.8994 30.6145 17.1844 30.69 17.4685C30.7326 17.6228 30.7281 17.7914 30.7311 17.9548C30.7351 18.3519 30.7601 18.7444 30.8586 19.1323C30.9151 19.3558 30.9211 19.5924 30.9386 19.8245C30.9441 19.9103 30.9186 19.9965 30.9066 20.0833C30.8749 20.3535 30.8324 20.6223 30.7791 20.889C30.7136 21.2003 30.6815 21.5196 30.6265 21.8324C30.551 22.2613 30.4535 22.6866 30.217 23.0614C30.0359 23.348 29.7769 23.5407 29.4638 23.6507C29.2868 23.7137 29.0977 23.745 28.9167 23.7975C28.8508 23.8155 28.79 23.8489 28.7392 23.8948C28.7018 23.9357 28.6554 23.967 28.6038 23.9864C28.5522 24.0058 28.4968 24.0126 28.4421 24.0063L28.0645 23.9725H28.047C27.77 24.0094 27.4909 23.9877 27.2139 24.0169C26.9188 24.0472 26.6287 24.1592 26.3312 24.1077C26.1854 24.0804 26.0351 24.0912 25.8946 24.139C25.8306 24.1592 25.7566 24.1491 25.6866 24.1476C25.334 24.139 24.9874 24.19 24.6404 24.2435C24.5373 24.2591 24.4268 24.2167 24.3193 24.2021C24.2628 24.1945 24.2018 24.1754 24.1493 24.189C23.7998 24.2715 23.4383 24.2893 23.0825 24.2414C22.7835 24.2021 22.4974 24.2752 22.2044 24.2591C22.0984 24.2535 22.0013 24.2536 21.9113 24.1935C21.8968 24.1829 21.8853 24.1637 21.8693 24.1622C21.6193 24.1254 21.4452 23.9387 21.2307 23.8373C21.1317 23.7904 21.0286 23.7566 20.9256 23.7183C20.7206 23.6436 20.5305 23.5346 20.309 23.5008C20.2 23.4847 20.094 23.4125 19.9994 23.3465C19.8794 23.2612 19.7964 23.1447 19.7904 22.9817C19.7879 22.8909 19.7454 22.8026 19.7299 22.7113C19.7004 22.5453 19.6644 22.3793 19.6569 22.2133C19.6424 21.84 19.6239 21.4697 19.5554 21.1004C19.5303 20.9692 19.5499 20.8315 19.5499 20.6963C19.5499 20.5021 19.5308 20.3068 19.5524 20.1141C19.6094 19.6161 19.5844 19.1177 19.5789 18.6208C19.5739 18.315 19.5148 18.0093 19.4873 17.7026C19.4758 17.5684 19.4673 17.4301 19.4873 17.2979C19.5484 16.917 19.6094 16.5336 19.5759 16.1512C19.5521 15.8358 19.5443 15.5194 19.5524 15.2032C19.5554 14.9712 19.6024 14.7401 19.6124 14.5095C19.6179 14.3653 19.5974 14.22 19.5804 14.0742C19.5629 13.9243 19.5363 13.776 19.5133 13.6277C19.5018 13.5525 19.4798 13.4778 19.4813 13.4042C19.483 13.2705 19.4957 13.1372 19.5193 13.0056C19.5378 12.9118 19.5524 12.828 19.5233 12.7322C19.5077 12.6816 19.5036 12.628 19.5114 12.5756C19.5192 12.5232 19.5387 12.4732 19.5684 12.4295C19.5937 12.3858 19.61 12.3374 19.6164 12.2872C19.6354 12.1505 19.7019 12.0844 19.8224 12.1283C19.9154 12.1606 19.9794 12.1343 20.049 12.093C20.1855 12.0123 20.3205 11.9991 20.479 12.0385C20.8256 12.1253 21.1782 12.1646 21.5392 12.1575C22.3004 12.1429 23.061 12.1545 23.8217 12.152C24.0057 12.152 24.1888 12.1237 24.3733 12.1197C24.5533 12.1147 24.5678 12.1283 24.5633 12.3049C24.5588 12.4794 24.5313 12.653 24.5313 12.828C24.5283 15.3561 24.5313 17.8842 24.5298 20.4107C24.5298 20.6171 24.5678 20.8154 24.6489 21.005C24.7434 21.224 24.9814 21.3239 25.231 21.284C25.4995 21.2417 25.6636 21.0797 25.7111 20.8108C25.7331 20.6917 25.7316 20.5686 25.7491 20.4476C25.8201 19.9632 25.7796 19.4749 25.7766 18.9895C25.7791 18.7455 25.7514 18.5022 25.6941 18.2651C25.6416 18.0633 25.604 17.8463 25.6681 17.6259C25.7056 17.4947 25.7011 17.3494 25.7116 17.2097C25.7261 17.0114 25.7366 16.8141 25.7476 16.6159C25.8216 15.4015 25.7666 14.1862 25.7811 12.9703C25.7841 12.7544 25.7561 12.54 25.7511 12.3235C25.7491 12.259 25.7741 12.1929 25.7901 12.1106V12.1061ZM37.4849 30.8454C37.5129 30.8327 37.5374 30.8134 37.5565 30.7892C37.5757 30.765 37.5888 30.7365 37.5949 30.7062C37.6534 30.4882 37.7229 30.2723 37.7929 30.0579C37.9335 29.621 38.0775 29.1861 38.218 28.7512C38.283 28.5484 38.3431 28.3426 38.4081 28.1382C38.4951 27.8678 38.5841 27.5974 38.6736 27.328C38.7856 26.9991 38.9032 26.6721 39.0122 26.3417C39.0372 26.267 39.0817 26.2347 39.1472 26.2302C39.2397 26.2241 39.3402 26.208 39.4243 26.2363C39.5188 26.2685 39.5968 26.2479 39.6723 26.2125C39.8233 26.1434 39.9819 26.1374 40.1414 26.1167C40.494 26.0728 40.8455 26.0889 41.1981 26.0874C41.2721 26.0874 41.3446 26.1096 41.4187 26.1182C41.5377 26.1333 41.6582 26.148 41.7787 26.1565C42.0083 26.1717 42.2448 26.1535 42.4684 26.2019C42.6349 26.2388 42.7919 26.2347 42.9575 26.2302C43.2475 26.2226 43.5376 26.2272 43.8281 26.2287C43.8791 26.2287 43.9312 26.2332 44.0027 26.2363C43.9952 26.2887 43.9952 26.3331 43.9822 26.374C43.8241 26.8417 43.6601 27.3063 43.5031 27.7735C43.4206 28.0207 43.349 28.2719 43.268 28.5201C43.21 28.6967 43.1445 28.8683 43.0835 29.0433C42.9325 29.4772 42.7874 29.9111 42.6324 30.3414C42.5699 30.5165 42.4944 30.687 42.4129 30.8545C42.3113 31.0644 42.2243 31.2808 42.1823 31.5103C42.1671 31.612 42.1671 31.7154 42.1823 31.8171C42.2473 32.3065 42.4784 32.7449 42.6234 33.2095C42.7569 33.6399 42.895 34.0707 43.036 34.4995C43.2405 35.1231 43.4496 35.7431 43.6526 36.3662C43.7951 36.8016 43.9302 37.238 44.0752 37.6729C44.0982 37.741 44.1552 37.798 44.2027 37.8701C44.1737 37.9599 44.1097 37.9912 44.0082 37.966C43.971 37.9581 43.9325 37.9605 43.8966 37.973C43.7616 38.0174 43.6296 38.02 43.4901 37.9806C43.3844 37.9531 43.2756 37.9402 43.1665 37.9423C41.9473 37.9392 40.7275 37.9408 39.5083 37.9408H39.4038C39.1762 37.9483 39.1672 37.9408 39.1052 37.7289C38.9847 37.3232 38.8627 36.9191 38.7401 36.5135C38.6451 36.1977 38.5551 35.8799 38.4531 35.5671C38.327 35.1801 38.1845 34.7997 38.061 34.4117C37.925 33.987 37.7999 33.5591 37.6739 33.1313C37.6404 33.0208 37.6189 32.9063 37.5879 32.7948C37.5809 32.7696 37.5579 32.7494 37.5299 32.7126C37.4909 32.7656 37.4489 32.7933 37.4689 32.8654C37.4864 32.931 37.4879 33.0032 37.4879 33.0738C37.4879 34.5671 37.4879 36.0605 37.4894 37.5528C37.4894 37.6275 37.5009 37.7026 37.5124 37.7778C37.5329 37.9039 37.4459 37.9862 37.3179 37.963C37.2563 37.9503 37.1937 37.9434 37.1308 37.9423C36.8808 37.9392 36.6317 37.9362 36.3817 37.9423C36.0641 37.9498 35.7475 37.9675 35.4295 37.9746C35.3495 37.9761 35.27 37.9468 35.1914 37.9493C35.0479 37.9544 34.9054 37.97 34.7633 37.9831C34.7008 37.9892 34.6383 38.0084 34.5763 38.0099C34.4383 38.0129 34.3033 38.0129 34.1682 38.0644C34.0912 38.0936 33.9957 38.0906 33.9112 38.079C33.7256 38.0528 33.5396 38.0437 33.3556 37.9791C33.2075 37.9261 33.0275 37.9508 32.862 37.9599C32.75 37.966 32.6949 37.9438 32.6849 37.8348C32.6799 37.7703 32.6799 37.7056 32.6849 37.6411C32.6934 37.5129 32.7149 37.3868 32.7149 37.2587C32.7179 36.5766 32.7179 35.8945 32.7149 35.2124C32.7149 35.0908 32.6934 34.9702 32.6834 34.8481C32.6704 34.6968 32.6659 34.5454 32.6454 34.3956C32.6134 34.1484 32.5684 33.9027 32.5339 33.656C32.5104 33.4961 32.4799 33.3341 32.4769 33.1722C32.4685 32.9746 32.4478 32.7778 32.4149 32.5829C32.3829 32.3761 32.3874 32.1627 32.4639 31.9599C32.4844 31.9054 32.4914 31.8468 32.5089 31.7924C32.5599 31.642 32.5164 31.4922 32.4989 31.3469C32.4729 31.1426 32.4569 30.9428 32.5049 30.74C32.5134 30.6996 32.5064 30.6572 32.5089 30.6164C32.5339 30.2339 32.5524 29.8505 32.6819 29.4832C32.7067 29.4059 32.7186 29.3249 32.7169 29.2436C32.7194 28.332 32.7169 27.4208 32.7169 26.5092V26.3861C32.7209 26.2403 32.7309 26.2246 32.8805 26.2287C33.065 26.2332 33.248 26.2524 33.4321 26.2595C33.4761 26.261 33.5356 26.2564 33.5601 26.2287C33.6411 26.1389 33.7486 26.1126 33.8547 26.0965C34.0812 26.0597 34.3103 26.042 34.5383 26.0158C34.7734 25.9875 34.9929 26.0743 35.2204 26.1036C35.2715 26.1096 35.3255 26.1227 35.373 26.1126C35.627 26.0582 35.8826 26.0597 36.1206 26.1581C36.3192 26.2403 36.5022 26.2701 36.7172 26.2347C36.9263 26.1994 37.1453 26.2246 37.3604 26.2287C37.4864 26.2317 37.5214 26.2902 37.4994 26.4214C37.4894 26.4784 37.4894 26.5374 37.4894 26.596C37.4894 27.6368 37.4939 28.6775 37.4864 29.7183C37.4834 30.0432 37.4444 30.3692 37.4214 30.6941C37.4164 30.7516 37.4214 30.7692 37.4864 30.8469L37.4849 30.8454ZM24.3168 44.6305C24.3498 44.579 24.3968 44.5331 24.4153 44.4776C24.5458 44.0821 24.6724 43.6855 24.7954 43.2885C24.9074 42.9283 25.0104 42.565 25.1264 42.2063C25.266 41.776 25.42 41.3507 25.562 40.9219C25.6506 40.6585 25.7336 40.3921 25.8161 40.1283C25.8526 40.0133 25.8771 39.984 25.9976 39.987C26.1587 39.9911 26.3182 40.0178 26.4797 40.0193C27.6755 40.0223 28.8717 40.0223 30.0679 40.0193C30.258 40.0193 30.4465 39.9971 30.6365 39.9855C30.6716 39.9828 30.7068 39.9838 30.7416 39.9885C30.8211 40.0017 30.8431 40.044 30.8151 40.1268C30.7005 40.4557 30.583 40.7836 30.4685 41.1126C30.3695 41.3981 30.2735 41.6832 30.1724 41.9682C30.1329 42.0787 30.1139 42.1771 30.2 42.2785C30.2505 42.337 30.245 42.4137 30.223 42.4944C30.1619 42.7179 30.0579 42.9192 29.9269 43.1028C29.7414 43.3617 29.6318 43.6543 29.5118 43.9439C29.3913 44.2319 29.2778 44.524 29.1472 44.8081C29.0357 45.0492 28.9672 45.2843 29.0792 45.5462C29.1142 45.6284 29.1312 45.7298 29.1242 45.8196C29.0982 46.0941 29.2068 46.3327 29.2953 46.5794C29.3983 46.8629 29.4853 47.1525 29.5803 47.4391C29.6468 47.6434 29.7154 47.8462 29.7804 48.0505C29.8774 48.3477 29.9704 48.6474 30.0689 48.943C30.1679 49.2396 30.278 49.5323 30.374 49.8309C30.486 50.179 30.584 50.5307 30.6945 50.8788C30.7791 51.1436 30.8716 51.4065 30.9661 51.686C30.9371 51.7006 30.9051 51.7223 30.8706 51.7299C30.8311 51.739 30.7891 51.7329 30.7486 51.7329H26.2027C25.9931 51.7329 25.9776 51.7092 25.9176 51.5094C25.7661 50.9987 25.6109 50.4891 25.452 49.9808C25.26 49.3663 25.0629 48.7533 24.8684 48.1403C24.7899 47.8921 24.7059 47.6449 24.6319 47.3952C24.5573 47.1391 24.4871 46.8818 24.4213 46.6233C24.4053 46.5587 24.3863 46.5133 24.2978 46.5204C24.2918 46.5557 24.2803 46.594 24.2803 46.6308C24.2803 48.1358 24.2788 49.6412 24.2803 51.1462C24.2803 51.292 24.3078 51.4357 24.3123 51.5815C24.3153 51.7168 24.2978 51.7329 24.1613 51.7344C23.7957 51.7359 23.4296 51.7344 23.064 51.7344H19.6499C19.5193 51.7299 19.5078 51.7198 19.5063 51.574C19.5048 51.3389 19.5063 51.1038 19.5063 50.8687C19.5063 50.6114 19.4873 50.3586 19.4483 50.1028C19.4103 49.8587 19.4508 49.6014 19.4628 49.3501C19.4698 49.1988 19.4958 49.0489 19.5048 48.8991C19.5193 48.6448 19.5033 48.389 19.5048 48.1333C19.5078 47.8805 19.5048 47.6272 19.5048 47.3745V46.5986C19.5048 46.0809 19.5118 45.5638 19.5018 45.0462C19.4956 44.8257 19.4719 44.606 19.4308 44.3893C19.4033 44.2425 19.3148 44.1068 19.2943 43.9605C19.2659 43.7768 19.2629 43.5901 19.2853 43.4056C19.3233 43.1356 19.3913 42.8693 19.3668 42.5918C19.3553 42.4697 19.3393 42.3491 19.3333 42.227C19.3158 41.8729 19.3943 41.5348 19.4973 41.1994C19.5233 41.1131 19.5383 41.0177 19.5393 40.9264C19.5454 40.6676 19.5393 40.4088 19.5423 40.15C19.5423 40.0017 19.5574 39.9855 19.7024 39.9885C19.9099 39.9941 20.116 40.0163 20.3235 40.0188C20.425 40.0188 20.5355 40.0138 20.6286 39.9764C20.8951 39.8695 21.1597 39.9119 21.4282 39.9588C21.4732 39.9663 21.5167 39.9855 21.5617 39.9855C22.0538 39.9986 22.5444 40.0107 23.0365 40.0223C23.2046 40.0249 23.3731 40.0264 23.5416 40.0223C23.7377 40.0163 23.9317 40.0001 24.1278 39.9885C24.3368 39.9754 24.3168 40.0602 24.3123 40.1984C24.3048 40.4027 24.2818 40.6055 24.2803 40.8099C24.2773 41.8153 24.2803 42.8208 24.2773 43.8263C24.2773 44.0422 24.2543 44.2572 24.2453 44.4731C24.2443 44.5215 24.2543 44.5715 24.2588 44.6199L24.3108 44.635L24.3168 44.6305ZM19.1113 37.9614C19.0212 37.917 19.0162 37.8394 19.0297 37.7526C19.0413 37.6734 19.0618 37.5911 19.0573 37.5114C19.0373 37.1633 19.1173 36.8293 19.1808 36.4913C19.2473 36.1387 19.3083 35.7845 19.3753 35.4319C19.4233 35.1761 19.4783 34.9203 19.5263 34.6645C19.5829 34.3568 19.6334 34.049 19.6889 33.7397C19.7369 33.4724 19.7919 33.205 19.8384 32.9376C19.8744 32.7317 19.8994 32.5239 19.9309 32.3186C19.9544 32.1758 19.9909 32.0335 20.0049 31.8897C20.0224 31.7217 20.05 31.5482 20.0239 31.3852C19.9924 31.1842 20.0004 30.9788 20.0475 30.7808C20.098 30.5604 20.1315 30.3369 20.175 30.1149C20.1957 30.0006 20.2213 29.8873 20.252 29.7754C20.3055 29.5862 20.365 29.398 20.426 29.2098C20.487 29.0216 20.5525 28.8365 20.6146 28.6498C20.6848 28.4482 20.7406 28.2419 20.7816 28.0323C20.8416 27.6958 20.9111 27.3618 20.9776 27.0268C21.0226 26.7993 21.0692 26.5728 21.1202 26.3462C21.1293 26.3066 21.1531 26.2719 21.1867 26.2494C21.2767 26.2009 21.3697 26.1465 21.4682 26.1258C21.6078 26.0965 21.7543 26.092 21.8963 26.0849C22.0013 26.0788 22.1054 26.0849 22.2099 26.0834C22.731 26.0713 23.2506 26.0597 23.7717 26.0496C23.9577 26.0445 24.1348 26.0758 24.2973 26.1803C24.4423 26.2731 24.5978 26.2877 24.7619 26.2357C24.8039 26.2226 24.8534 26.2257 24.8999 26.2257H28.5751C28.6041 26.2257 28.6331 26.2241 28.6621 26.2257C28.7597 26.2347 28.8057 26.2817 28.8147 26.3821C28.8397 26.6474 28.8727 26.9108 28.9747 27.162C29.0062 27.2402 28.9872 27.3356 29.0047 27.4208C29.0297 27.5459 29.0647 27.668 29.0947 27.7896C29.1527 28.0323 29.2068 28.275 29.2703 28.5161C29.3083 28.6614 29.3703 28.8012 29.4068 28.9464C29.4718 29.2113 29.5203 29.4787 29.5838 29.7436C29.6158 29.8727 29.6738 29.9943 29.7089 30.1224C29.7349 30.2168 29.7569 30.3167 29.7539 30.4135C29.7464 30.5942 29.7899 30.7606 29.8629 30.9221C29.9104 31.0311 29.9409 31.141 29.9324 31.2616C29.9089 31.5613 29.9819 31.8509 30.0279 32.1435C30.0529 32.2979 30.0574 32.4563 30.0719 32.6127C30.0834 32.7343 30.0994 32.8548 30.1139 32.9759C30.1224 33.0506 30.1439 33.1253 30.1399 33.1989C30.1209 33.5415 30.1994 33.8694 30.2635 34.2014C30.3315 34.5545 30.3895 34.9082 30.4565 35.2608C30.5055 35.5232 30.5635 35.783 30.616 36.0448C30.6565 36.2492 30.6885 36.455 30.7276 36.6593C30.8021 37.0458 30.8786 37.4322 30.9526 37.8187C30.9701 37.907 30.9211 37.9685 30.8396 37.966C30.6435 37.9559 30.4495 37.9347 30.253 37.9362C29.9529 37.9392 29.6523 37.9524 29.3528 37.9715C29.2398 37.9791 29.1297 38.022 29.0162 38.0391C28.7667 38.0775 28.5156 38.1012 28.2691 38.1496C28.118 38.1789 27.977 38.1748 27.826 38.1511C27.71 38.1335 27.5864 38.1643 27.4659 38.1743C27.4254 38.1771 27.3849 38.1791 27.3444 38.1804C27.1483 38.192 26.9538 38.2006 26.7578 38.2157C26.6012 38.2273 26.4677 38.1733 26.3747 38.0528C26.2757 37.9261 26.1542 37.9186 26.0176 37.9408C25.9086 37.9584 25.8666 37.9322 25.8576 37.8293C25.8431 37.6618 25.8376 37.4923 25.8201 37.3237C25.8041 37.1674 25.7796 37.0135 25.7606 36.8576C25.7446 36.7194 25.7301 36.5801 25.7186 36.4414C25.7036 36.2668 25.6936 36.0933 25.6806 35.9182C25.6706 35.7785 25.6561 35.6407 25.6456 35.501C25.6385 35.4036 25.5745 35.3935 25.498 35.3935H24.2728C24.2538 35.4404 24.2248 35.4818 24.2203 35.5247C24.1928 35.7785 24.1743 36.0342 24.1463 36.2885C24.1163 36.571 24.0767 36.8535 24.0462 37.1351C24.0272 37.3086 24.0172 37.4837 24.0087 37.6587C24.0027 37.7717 23.9897 37.8792 23.9212 37.9337C23.5746 37.9337 23.2566 37.9286 22.94 37.9337C22.6165 37.9392 22.2914 37.9877 21.9718 37.9569C21.6528 37.9261 21.3367 37.9524 21.0181 37.9317C20.6976 37.9115 20.3755 37.9408 20.0545 37.9423C19.7424 37.9423 19.4258 37.8923 19.1143 37.9574L19.1113 37.9614ZM25.3975 32.8054C25.3975 32.7489 25.405 32.6873 25.3975 32.6273C25.3805 32.5062 25.3485 32.3892 25.334 32.2686C25.292 31.9361 25.2875 31.5996 25.2325 31.2677C25.1885 31.0043 25.1815 30.7354 25.157 30.468C25.147 30.3578 25.1333 30.2479 25.1159 30.1386C25.0724 29.8581 25.0289 29.5786 24.9809 29.2981C24.9724 29.2466 24.9434 29.1977 24.9214 29.1407C24.8229 29.2169 24.8069 29.2991 24.8084 29.3919C24.8099 29.5508 24.8214 29.7108 24.8054 29.8682C24.7694 30.2077 24.7139 30.5457 24.6719 30.8853C24.6329 31.197 24.6053 31.5088 24.5618 31.8201C24.5193 32.1188 24.4618 32.4139 24.4168 32.7111C24.4108 32.7449 24.4338 32.7817 24.4398 32.8019H25.4005L25.3975 32.8054ZM8.38165 28.9419C8.36665 28.9026 8.34764 28.8763 8.34764 28.8481C8.35265 28.056 8.35965 27.2639 8.36365 26.4714C8.36515 26.2272 8.36365 26.2272 8.60019 26.2257C9.34334 26.2257 10.087 26.2201 10.8301 26.2287C11.0812 26.2317 11.3202 26.1702 11.5643 26.1389C11.6153 26.1333 11.6663 26.1197 11.7183 26.1197C12.1534 26.1187 12.5895 26.1172 13.0246 26.1197C13.1106 26.1197 13.1961 26.155 13.2801 26.151C13.4401 26.1434 13.5997 26.1197 13.7592 26.1036C13.8157 26.098 13.8722 26.0849 13.9302 26.0849C14.3428 26.0834 14.7554 26.0819 15.167 26.0849C15.2415 26.0849 15.3155 26.1026 15.3865 26.1212C15.5416 26.1626 15.6941 26.211 15.8481 26.2539C15.8702 26.2603 15.8934 26.2617 15.9161 26.2579C16.1962 26.1888 16.4822 26.2403 16.7638 26.2241C16.8843 26.2171 17.0039 26.2025 17.1239 26.1919C17.1704 26.1878 17.2199 26.1803 17.2634 26.1919C17.542 26.2685 17.825 26.2095 18.1051 26.2241C18.2821 26.2332 18.2951 26.2363 18.2926 26.4159C18.2836 26.8492 18.2621 27.2811 18.2606 27.715C18.2606 28.06 18.2836 28.4041 18.2906 28.7492C18.2956 28.9348 18.2866 28.9409 18.1081 28.9409H16.1747C16.1122 28.9409 16.0512 28.9232 15.9887 28.9111C15.8001 28.8758 15.6796 29.0055 15.7651 29.1805C15.8741 29.4005 15.8701 29.6169 15.8216 29.843C15.8116 29.8884 15.8191 29.9373 15.8191 29.9842C15.8191 30.5311 15.8161 31.078 15.8191 31.6249C15.8206 31.8645 15.7991 32.1011 15.7541 32.3362C15.7451 32.3816 15.7491 32.4301 15.7491 32.4775C15.7491 32.7832 15.7451 33.0889 15.7491 33.3947C15.7541 33.652 15.7621 33.9093 15.7856 34.1645C15.8046 34.3603 15.8466 34.554 15.8856 34.7467C15.9146 34.891 15.9306 35.0293 15.8916 35.1776C15.8496 35.339 15.8641 35.5171 15.8116 35.673C15.7416 35.8799 15.7476 36.0857 15.7476 36.2946V37.6174C15.7476 37.6764 15.7526 37.7334 15.7596 37.7924C15.7741 37.91 15.7046 37.9836 15.5911 37.97C15.4956 37.9584 15.398 37.9423 15.301 37.9408C14.7959 37.9377 14.2908 37.9408 13.7857 37.9377C13.5937 37.9377 13.4081 37.963 13.2221 38.0053C13.1161 38.0306 13.0061 38.029 12.8985 38.0452C12.7575 38.0654 12.6125 38.079 12.4775 38.1229C12.3964 38.1496 12.3324 38.133 12.2624 38.1128C12.1799 38.0876 12.0999 38.0523 12.0174 38.0306C11.9694 38.0174 11.9083 38.0023 11.8663 38.0215C11.7343 38.0805 11.6078 38.0366 11.4978 37.9892C11.3377 37.9201 11.1812 37.9377 11.0202 37.9529C10.9041 37.963 10.8721 37.9468 10.8691 37.8348C10.8561 37.4191 10.8401 37.0044 10.8356 36.5887C10.8301 36.059 10.8066 35.5287 10.8416 35.0025C10.8926 34.2104 10.8501 33.4184 10.8706 32.6273C10.8777 32.5224 10.8588 32.4173 10.8156 32.3216C10.7311 32.1435 10.7326 31.9553 10.7981 31.7671C10.8731 31.5482 10.8591 31.3247 10.8181 31.1012C10.8111 31.0618 10.7981 31.0205 10.8026 30.9811C10.8326 30.7279 10.8661 30.4751 10.8981 30.2208C10.9026 30.1855 10.9041 30.1502 10.9041 30.1149V29.1624C10.9041 28.9787 10.8721 28.9454 10.6906 28.9454H8.37665L8.38165 28.9419ZM13.7302 21.1428C13.8562 21.1327 13.9828 21.113 14.1078 21.1145C14.2688 21.116 14.4283 21.1428 14.5894 21.1443C14.7159 21.1443 14.8404 21.1206 14.9669 21.112C15.1295 21.0999 15.286 21.1423 15.4445 21.165C15.6261 21.1882 15.8146 21.1836 15.9962 21.1589C16.2572 21.1206 16.4157 21.1675 16.5493 21.4011C16.5686 21.4361 16.5777 21.476 16.5753 21.5161C16.5708 21.6084 16.5503 21.6997 16.5503 21.7926C16.547 22.1069 16.5145 22.4202 16.4532 22.7284C16.4257 22.8773 16.4212 23.0301 16.4112 23.18C16.3962 23.3727 16.3892 23.5649 16.3747 23.7561C16.3647 23.8782 16.1997 23.9867 16.0672 23.9236C15.9121 23.852 15.7696 23.8797 15.6141 23.8913C15.3775 23.9105 15.138 23.8913 14.8999 23.8989C14.7579 23.9029 14.6139 23.9266 14.4719 23.9458C14.3588 23.9609 14.2453 24.0003 14.1338 23.9957C13.9507 23.9882 13.7692 23.9529 13.5877 23.9297C13.4176 23.9075 13.2481 23.8691 13.0771 23.8651C12.7225 23.855 12.3684 23.8651 12.0144 23.86C11.8458 23.859 11.6818 23.8691 11.5193 23.9191C11.4758 23.9327 11.4283 23.9312 11.3817 23.9312C11.2367 23.9312 11.0917 23.9397 10.9462 23.9312C10.6821 23.915 10.4191 23.8868 10.156 23.8651C10.11 23.86 10.0635 23.8621 10.017 23.8621H8.67571C8.6292 23.8621 8.58019 23.8676 8.53818 23.856C8.48117 23.8399 8.43616 23.8061 8.44516 23.7299C8.45667 23.631 8.46667 23.5331 8.46817 23.4342C8.47117 23.0871 8.47117 22.7405 8.46817 22.3934C8.47029 22.3298 8.45797 22.2664 8.43216 22.2083C8.38142 22.1096 8.35825 21.9989 8.36515 21.8879C8.36965 21.7129 8.36965 21.5398 8.36515 21.3648C8.36215 21.2174 8.36215 21.0737 8.44366 20.94C8.46867 20.8986 8.46967 20.8401 8.46967 20.7886C8.46967 19.8301 8.47267 18.8715 8.46967 17.9129C8.46967 17.8166 8.43466 17.7192 8.42016 17.6223C8.40016 17.4902 8.37115 17.358 8.36965 17.2268C8.36965 16.9872 8.39865 16.749 8.39465 16.5094C8.38913 16.3532 8.36666 16.1981 8.32764 16.0468C8.27921 15.8417 8.28716 15.6271 8.35065 15.4262C8.41566 15.2073 8.46967 14.9808 8.43216 14.7547C8.38865 14.4974 8.41316 14.2401 8.40166 13.9828C8.39577 13.7962 8.41632 13.6097 8.46267 13.4289C8.47417 13.3785 8.47117 13.3245 8.47117 13.2715V12.2837C8.46901 12.2256 8.47873 12.1676 8.49972 12.1135C8.52071 12.0593 8.55253 12.0101 8.59319 11.9689C8.67171 11.8881 8.76323 11.8735 8.84574 11.9219C9.10279 12.0718 9.38085 12.0163 9.6439 11.9926C9.79793 11.9795 9.93896 12.0057 10.0855 12.0163C10.1655 12.0218 10.2465 12.0466 10.3235 12.0395C10.4886 12.0234 10.6516 11.985 10.8166 11.9674C10.9287 11.9557 11.0432 11.9588 11.1552 11.9588C11.3512 11.9588 11.5513 11.988 11.7443 11.9603C11.9779 11.9265 12.2014 11.9265 12.4294 11.984C12.473 11.9956 12.5195 12.0057 12.5645 12.0057C12.7255 12.0027 12.8695 12.0501 13.0046 12.1338C13.0641 12.1707 13.1206 12.1838 13.1986 12.1591C13.3526 12.1116 13.4286 12.2115 13.4136 12.375C13.3906 12.6303 13.3921 12.8876 13.3836 13.1449C13.3836 13.157 13.3836 13.1701 13.3886 13.1787C13.5677 13.4889 13.4762 13.8108 13.4311 14.1312C13.4091 14.281 13.3861 14.4314 13.3846 14.5827C13.3801 15.4999 13.3791 16.4171 13.3861 17.3343C13.3861 17.4942 13.4326 17.6546 13.4632 17.8151C13.5037 18.0249 13.5617 18.2323 13.5602 18.4512C13.5602 18.644 13.5632 18.8377 13.5952 19.0274C13.6652 19.4421 13.6052 19.8578 13.6357 20.2725C13.6517 20.496 13.6212 20.7281 13.5747 20.9501C13.5417 21.113 13.5877 21.1589 13.7317 21.1413L13.7302 21.1428ZM40.1994 18.2943C40.1719 18.2283 40.1514 18.1753 40.1284 18.1253C40.0064 17.868 39.8248 17.6582 39.6188 17.467C39.5418 17.3963 39.4708 17.3186 39.3968 17.2435C39.2557 17.0992 39.3097 16.9271 39.4303 16.8378C39.4816 16.7995 39.5378 16.7683 39.5973 16.745C39.8789 16.6365 40.1499 16.4928 40.4505 16.4378C40.8876 16.3586 41.2941 16.1855 41.7122 16.0422C41.8617 15.9913 42.0008 15.9101 42.1488 15.8546C42.3151 15.7915 42.4847 15.7376 42.6569 15.6931C42.917 15.6275 43.146 15.5029 43.3695 15.3622C43.3945 15.347 43.416 15.3208 43.4421 15.3168C43.4886 15.3092 43.5496 15.2971 43.5831 15.3193C43.6396 15.3546 43.6341 15.4237 43.5931 15.4752C43.5511 15.5281 43.4976 15.572 43.4496 15.6205C43.2915 15.7809 43.1345 15.9423 42.9735 16.0997C42.8484 16.2218 42.7194 16.3379 42.5919 16.4554C42.3738 16.6557 42.1533 16.8525 41.9343 17.0507L41.8177 17.1567C41.7192 17.2465 41.7122 17.3282 41.8047 17.4226C42.1128 17.7343 42.3608 18.09 42.5844 18.4664C42.6369 18.5562 42.6804 18.6546 42.7079 18.7545C42.7569 18.926 42.6569 19.1101 42.4844 19.1722C42.3058 19.2352 42.1228 19.2832 41.9443 19.3467C41.7277 19.4234 41.5092 19.4865 41.2811 19.5082C40.9761 19.5379 40.6945 19.6646 40.397 19.7246C40.2229 19.7599 40.0454 19.7801 39.8699 19.8053C39.7798 19.8185 39.6888 19.8275 39.5983 19.8437C39.5098 19.8598 39.4853 19.9244 39.5403 19.995C39.5723 20.0364 39.6133 20.0712 39.6493 20.1096C39.9834 20.4612 40.2594 20.8532 40.4535 21.3002C40.526 21.4692 40.4925 21.5988 40.3459 21.6927C40.2635 21.7442 40.1754 21.7856 40.0834 21.8163C39.8834 21.8854 39.6828 21.9576 39.4768 22.006C39.3152 22.0428 39.1587 22.0943 38.9892 22.1059C38.8091 22.119 38.6331 22.1866 38.4546 22.228C38.282 22.2688 38.1095 22.3072 37.9365 22.3455C37.8029 22.3748 37.6679 22.4025 37.5329 22.4293C37.2588 22.4848 36.9813 22.5292 36.7102 22.5968C36.5502 22.6366 36.4007 22.7128 36.2451 22.7733C36.2191 22.7834 36.1931 22.7965 36.1671 22.8036C36.0786 22.8288 36.0091 22.7819 36.0291 22.6936C36.0611 22.5498 36.0901 22.4025 36.2326 22.3057C36.5361 22.0965 36.835 21.8809 37.1293 21.6589C37.1893 21.615 37.2283 21.5459 37.2818 21.4924C37.3764 21.4001 37.4734 21.3108 37.5734 21.224C37.6869 21.1256 37.8084 21.0373 37.915 20.9314C37.9655 20.8799 37.938 20.8078 37.905 20.7387C37.7449 20.4022 37.4694 20.1671 37.2198 19.9067C37.1709 19.8588 37.1314 19.802 37.1033 19.7392C37.0883 19.7064 37.0801 19.6707 37.0795 19.6345C37.0788 19.5984 37.0855 19.5624 37.0993 19.529C37.113 19.4956 37.1335 19.4654 37.1595 19.4404C37.1854 19.4153 37.2161 19.396 37.2498 19.3836C37.4984 19.2791 37.7434 19.1692 37.996 19.0763C38.124 19.0294 38.266 19.0249 38.3981 18.9911C38.5651 18.9487 38.7321 18.9073 38.8917 18.8427C39.2547 18.6969 39.6438 18.6223 39.9864 18.4265C40.0499 18.3902 40.1124 18.3473 40.1979 18.2928L40.1994 18.2943ZM9.48037 45.0437C9.55838 44.8101 9.70941 44.6956 9.91695 44.6275C10.117 44.5629 10.3075 44.463 10.5066 44.3893C10.6241 44.3454 10.7476 44.3202 10.8691 44.2884C10.9897 44.2556 11.1142 44.2334 11.2322 44.1911C11.4763 44.1053 11.7083 43.9913 11.9709 43.9661C12.0319 43.96 12.0869 43.9176 12.1479 43.9015C12.2644 43.8722 12.3829 43.8546 12.4995 43.8238C12.5515 43.8086 12.5995 43.7748 12.6605 43.7456C12.6345 43.7072 12.6245 43.6795 12.6025 43.6633C12.2279 43.3707 11.9374 43.0019 11.6723 42.611C11.6242 42.5378 11.5834 42.4601 11.5503 42.3789C11.5218 42.3148 11.5163 42.2427 11.5349 42.175C11.5534 42.1073 11.5947 42.0483 11.6518 42.0081C11.7342 41.9559 11.8212 41.9116 11.9118 41.8759C12.1059 41.7921 12.3004 41.7084 12.498 41.6347C12.643 41.5818 12.791 41.5232 12.942 41.5086C13.1441 41.4894 13.3136 41.3926 13.4982 41.332C13.6722 41.2765 13.8392 41.2044 14.0248 41.1746C14.1873 41.1494 14.3398 41.0702 14.4999 41.0233C14.7304 40.9542 14.9654 40.9012 15.1935 40.822C15.3445 40.7705 15.4851 40.6868 15.6306 40.6161C15.6566 40.6045 15.6796 40.5854 15.7056 40.5738C15.7986 40.5309 15.8496 40.5586 15.8541 40.6646C15.8611 40.8487 15.8061 40.994 15.6506 41.1146C15.3765 41.3265 15.1095 41.551 14.8624 41.7937C14.7244 41.9289 14.6289 42.1095 14.4809 42.2432C14.3748 42.3405 14.2758 42.445 14.1773 42.5489C14.0963 42.6347 14.0988 42.6624 14.1523 42.7623C14.3068 43.0448 14.5419 43.2486 14.7824 43.4474C14.8539 43.5059 14.9189 43.5751 14.986 43.6396C15.144 43.794 15.0745 43.9807 14.9349 44.0644C14.7824 44.1573 14.6229 44.241 14.4618 44.3172C14.3241 44.3855 14.1809 44.442 14.0338 44.4862C13.5677 44.6189 13.1396 44.8494 12.6925 45.0275C12.5445 45.0861 12.4109 45.1804 12.2714 45.2596C12.2164 45.2904 12.1654 45.3272 12.1089 45.364C12.0839 45.4387 12.1089 45.4962 12.1509 45.5699C12.3309 45.8726 12.6025 46.0769 12.8665 46.2898C12.89 46.3075 12.907 46.3312 12.929 46.3519C13.1541 46.5562 13.1016 46.7075 12.881 46.8427C12.5747 47.0375 12.2431 47.1888 11.8958 47.2923C11.6328 47.3674 11.3857 47.4996 11.1292 47.597C10.8547 47.6988 10.5915 47.8293 10.344 47.9865C10.1915 48.0833 10.009 48.1348 9.83394 48.1963C9.58639 48.2846 9.37285 48.4304 9.16081 48.5797C9.1233 48.6065 9.08579 48.6433 9.04328 48.6494C8.99827 48.6549 8.92826 48.6433 8.90976 48.6141C8.88975 48.5833 8.90976 48.5167 8.92576 48.4728C8.93726 48.442 8.97077 48.4213 8.99677 48.3966C9.21031 48.1908 9.40335 47.9673 9.57039 47.7186C9.6369 47.6187 9.73842 47.542 9.82294 47.4527C10.0755 47.1868 10.328 46.9204 10.5776 46.6515C10.6546 46.5693 10.6526 46.5239 10.5776 46.4417C10.5296 46.3897 10.4761 46.3458 10.4236 46.3004C10.3845 46.2666 10.338 46.2383 10.306 46.199C10.101 45.9477 9.89095 45.6995 9.69791 45.4392C9.60939 45.3181 9.55288 45.1743 9.48287 45.0422L9.48037 45.0437ZM36.1741 13.4425C36.3107 13.4587 36.4502 13.4955 36.5852 13.4834C36.8073 13.4632 37.0263 13.5202 37.2513 13.4657C37.4384 13.4218 37.6404 13.4425 37.835 13.4334C37.915 13.4304 37.9945 13.4249 38.0745 13.4203C38.1905 13.4143 38.241 13.3734 38.2545 13.2538C38.27 13.1222 38.2905 12.988 38.2875 12.8543C38.285 12.6974 38.26 12.5415 38.247 12.3851C38.237 12.2519 38.221 12.1177 38.224 11.9845C38.225 11.8594 38.3836 11.7524 38.5071 11.7877C38.7101 11.8448 38.9087 11.9285 39.1167 11.9653C39.4693 12.0284 39.7538 12.2489 40.0849 12.3604C40.4605 12.4865 40.8235 12.6474 41.2151 12.7266C41.4102 12.7665 41.5942 12.8618 41.7817 12.9335C42.0083 13.0203 42.2403 13.0838 42.4814 13.1055C42.5144 13.1085 42.5464 13.1292 42.5799 13.1368C42.6379 13.1484 42.6874 13.1746 42.6744 13.2377C42.6614 13.3058 42.6059 13.3689 42.5394 13.3436C42.4044 13.2952 42.2793 13.3689 42.1488 13.3497C42.1084 13.3449 42.0675 13.3491 42.0288 13.3618C41.8137 13.435 41.5902 13.4471 41.3651 13.4541C41.0761 13.4642 40.787 13.4763 40.5 13.491C40.385 13.497 40.2704 13.5111 40.1574 13.5278C40.0409 13.5439 39.9949 13.5934 39.9989 13.7145C40.0049 13.9243 40.0294 14.1332 40.0309 14.3436C40.0324 14.6831 39.9729 15.0136 39.8919 15.3415C39.8523 15.4974 39.6088 15.6089 39.4548 15.5433C39.2487 15.4545 39.0467 15.3591 38.8407 15.2739C38.7466 15.234 38.6406 15.2224 38.5476 15.181C38.4591 15.1432 38.3821 15.0801 38.2965 15.0347C38.18 14.9712 38.0655 14.9021 37.9435 14.8551C37.6139 14.727 37.3063 14.555 36.9933 14.396C36.5882 14.1907 36.1856 13.9733 35.752 13.832C35.72 13.8219 35.6835 13.8219 35.652 13.8098C35.6155 13.7967 35.557 13.779 35.556 13.7568C35.55 13.7185 35.5705 13.6685 35.5965 13.6347C35.6935 13.5086 35.8156 13.4294 35.9856 13.4556C36.0481 13.4657 36.1131 13.4572 36.1771 13.4572V13.444L36.1741 13.4425ZM17.0634 49.5252C17.0789 49.615 17.0644 49.6649 16.9993 49.731C16.8468 49.8854 16.6583 49.8809 16.4737 49.894C16.2952 49.9091 16.1137 49.9016 15.9336 49.8955C15.7262 49.8871 15.519 49.9175 15.3225 49.9853C15.211 50.0231 15.086 50.0231 14.9669 50.0383C14.8419 50.0544 14.7144 50.06 14.5909 50.0822C14.4649 50.1059 14.4343 50.1543 14.4258 50.2865C14.4106 50.5702 14.4379 50.8546 14.5069 51.13C14.5369 51.2536 14.5604 51.3818 14.5604 51.5079C14.5604 51.6769 14.3978 51.796 14.2368 51.7591C13.9407 51.693 13.6447 51.6285 13.3516 51.5523C13.2076 51.5155 13.0716 51.4494 12.9305 51.3994C12.514 51.2536 12.0929 51.1245 11.6543 51.0584C11.3582 51.014 11.0782 50.9111 10.7911 50.8379C10.6354 50.7948 10.4745 50.7739 10.313 50.7759C10.255 50.7774 10.1955 50.7804 10.139 50.7718C10.046 50.7552 9.98797 50.6982 10.004 50.6422C10.026 50.566 10.078 50.5322 10.159 50.5292C10.245 50.5261 10.3305 50.4969 10.4151 50.5009C10.6066 50.5115 10.7751 50.4247 10.9492 50.3763C11.1582 50.3173 11.3702 50.3258 11.5778 50.2865C11.8808 50.229 12.1889 50.1942 12.4935 50.1397C12.6315 50.1145 12.6635 50.0615 12.646 49.9147C12.617 49.6735 12.579 49.4324 12.546 49.1912C12.5433 49.1678 12.5428 49.1441 12.5445 49.1206C12.5545 48.9339 12.5635 48.7488 12.5795 48.5621C12.5865 48.4698 12.5995 48.3769 12.6255 48.2892C12.6665 48.1464 12.8655 48.0334 13.0161 48.0672C13.1221 48.0904 13.2251 48.1277 13.3266 48.1656C13.4867 48.2271 13.6447 48.2876 13.8172 48.3184C13.9773 48.3477 14.1423 48.3991 14.2688 48.5227C14.3008 48.5535 14.3473 48.5782 14.3888 48.5873C14.7374 48.6519 15.054 48.8048 15.379 48.9354C15.8441 49.1196 16.2952 49.3415 16.7843 49.4546C16.8338 49.4662 16.8873 49.4646 16.9368 49.4768C16.9803 49.4868 17.0209 49.509 17.0589 49.5252H17.0634ZM7.53398 47.1031C7.41346 47.0577 7.39296 46.9562 7.39596 46.8796C7.41096 46.5708 7.36595 46.2711 7.32194 45.9684C7.31644 45.9286 7.31894 45.8862 7.31894 45.8448C7.31894 45.5744 7.32394 45.304 7.31794 45.0336C7.31227 44.8529 7.3001 44.6725 7.28144 44.4928C7.26993 44.3692 7.21142 44.3485 7.0814 44.35C6.83285 44.353 6.5863 44.3399 6.33775 44.3263C6.18876 44.3208 6.04018 44.3072 5.89266 44.2854C5.76267 44.265 5.63513 44.231 5.51209 44.184C5.32055 44.1073 5.25954 43.959 5.33205 43.7602C5.38256 43.619 5.45207 43.4858 5.51209 43.3475C5.54809 43.2638 5.5846 43.18 5.61361 43.0933C5.68762 42.8713 5.79064 42.6695 5.93567 42.4848C6.01719 42.3804 6.04319 42.2321 6.1027 42.1085C6.17822 41.9526 6.26073 41.8007 6.34375 41.6484C6.38426 41.5717 6.43077 41.4985 6.47127 41.4203C6.62631 41.1206 6.78784 40.8235 6.93287 40.5178C7.01738 40.3412 7.07239 40.1505 7.14941 39.9679C7.17391 39.9186 7.21284 39.878 7.26093 39.8518C7.27393 39.8448 7.32494 39.9008 7.35845 39.9285C7.48598 40.0385 7.50048 40.1828 7.49748 40.3432C7.49348 40.5314 7.45997 40.7115 7.43647 40.8956C7.40896 41.1045 7.40146 41.3219 7.43246 41.5278C7.46847 41.775 7.44997 42.0187 7.45997 42.2628V42.3506C7.45997 42.5449 7.47297 42.5595 7.65301 42.5933C7.70952 42.6034 7.76453 42.6185 7.82154 42.6286C8.03158 42.667 8.24062 42.6286 8.44966 42.6084C8.58748 42.593 8.72639 42.5899 8.86475 42.5994C9.00127 42.611 9.09879 42.8012 9.05378 42.9565C9.00127 43.1402 8.92876 43.3183 8.87825 43.5014C8.80574 43.7622 8.65621 43.9857 8.55169 44.2294C8.43666 44.4998 8.33214 44.7748 8.22662 45.0497C8.08259 45.4155 7.99558 45.8024 7.83154 46.1637C7.72402 46.4018 7.65001 46.6631 7.63 46.9325C7.625 46.9931 7.56749 47.0471 7.53498 47.1015L7.53398 47.1031ZM44.5568 24.2848C44.4718 24.1658 44.4042 24.0729 44.3407 23.9791C44.3255 23.9544 44.3193 23.9252 44.3232 23.8964C44.3667 23.6159 44.4072 23.3354 44.4628 23.0574C44.5103 22.8102 44.5393 22.5665 44.4903 22.3163C44.4833 22.2714 44.4843 22.2256 44.4933 22.181C44.5148 22.0267 44.5408 21.8728 44.5613 21.7184C44.5833 21.5494 44.5498 21.5141 44.3782 21.4626C44.0736 21.373 43.7558 21.3376 43.4391 21.3582C43.404 21.3597 43.3695 21.3582 43.3345 21.3637C43.098 21.4021 42.9415 21.2275 43.017 20.9995C43.0735 20.829 43.133 20.6569 43.213 20.4965C43.384 20.156 43.5711 19.8235 43.7471 19.484C43.8426 19.3003 43.9171 19.1016 44.0242 18.9255C44.1507 18.7196 44.1722 18.4755 44.2882 18.2671C44.3902 18.086 44.4833 17.8993 44.5643 17.7081C44.6323 17.5497 44.6793 17.3822 44.7368 17.2172C44.7673 17.132 44.7673 17.029 44.8793 16.9836C44.9504 17.0528 44.9924 17.1188 44.9619 17.2379C44.9328 17.3484 44.9419 17.47 44.9459 17.588C44.9519 17.7626 44.9679 17.9361 44.9779 18.1112C44.9809 18.1506 44.9749 18.1919 44.9694 18.2333C44.9644 18.261 44.9489 18.2888 44.9459 18.317C44.9328 18.533 44.9229 18.7474 44.9083 18.9638C44.9038 19.0385 44.8893 19.1121 44.8833 19.1873C44.8808 19.2267 44.8863 19.268 44.8883 19.3074C44.8908 19.3881 44.9038 19.4688 44.8933 19.5485C44.8793 19.6646 44.9333 19.7559 45.0459 19.7675C45.1099 19.7735 45.1739 19.7675 45.2379 19.769C45.6974 19.7793 46.1522 19.8647 46.5847 20.0218C46.7807 20.0939 46.8607 20.269 46.7937 20.4703C46.7764 20.5257 46.7542 20.5794 46.7272 20.6307C46.5922 20.885 46.4586 21.1423 46.3161 21.392C46.2626 21.4879 46.1871 21.5686 46.1246 21.6594C46.0606 21.7552 46.0026 21.8536 45.9415 21.9505C45.6875 22.3576 45.4365 22.7693 45.1764 23.1734C44.9764 23.4852 44.7833 23.801 44.6428 24.1466C44.6278 24.1819 44.6003 24.2122 44.5568 24.2828V24.2848ZM9.1548 51.2511C9.09429 51.3394 9.03878 51.3757 8.97077 51.3056C8.84274 51.1744 8.67171 51.1674 8.51068 51.1406C8.44066 51.129 8.36415 51.1689 8.29113 51.1628C8.07359 51.1497 7.86605 51.2112 7.65251 51.2259C7.6175 51.2289 7.58299 51.238 7.54949 51.235C7.34795 51.2143 7.16941 51.3041 6.98188 51.3525C6.86735 51.3818 6.74983 51.3949 6.63181 51.411C6.53079 51.4257 6.42777 51.4408 6.32475 51.4463C6.24623 51.4509 6.20422 51.4817 6.20522 51.5624C6.20522 51.6169 6.20272 51.6729 6.13721 51.689C6.0662 51.7067 6.03119 51.6522 6.00068 51.6037C5.86866 51.3994 5.74263 51.1906 5.60911 50.9862C5.45357 50.7496 5.29854 50.5115 5.13151 50.2825C5.06 50.1841 4.96448 50.1028 4.87596 50.0191C4.82495 49.9707 4.79144 49.9162 4.82195 49.8486C4.85246 49.7795 4.91497 49.7754 4.98448 49.787C5.02099 49.7926 5.076 49.787 5.0965 49.7633C5.20102 49.6412 5.31705 49.5212 5.39256 49.3799C5.47108 49.2316 5.52759 49.0742 5.63061 48.9374C5.69062 48.8567 5.71463 48.7477 5.75413 48.6524C5.77014 48.6156 5.78014 48.5742 5.79764 48.5389C5.89916 48.332 6.02419 48.1333 6.0967 47.9158C6.14871 47.7614 6.26373 47.601 6.17522 47.4164C6.16272 47.3825 6.16272 47.3453 6.17522 47.3114C6.18672 47.2776 6.21272 47.2368 6.24323 47.2236C6.28824 47.203 6.32325 47.2262 6.35475 47.2751C6.56829 47.598 6.78734 47.9204 7.00488 48.2407C7.31894 48.7008 7.6265 49.164 7.94907 49.618C8.15661 49.9106 8.38265 50.1896 8.60069 50.4747C8.6257 50.5075 8.6427 50.5453 8.66571 50.5776C8.76473 50.7128 8.86475 50.848 8.96327 50.9837C9.02728 51.0715 9.09129 51.1613 9.1563 51.2526L9.1548 51.2511ZM43.5716 12.7201C43.6541 12.6217 43.7226 12.6217 43.7836 12.6923C43.9432 12.8745 44.1567 12.8659 44.3687 12.8669C44.4062 12.8669 44.4438 12.8845 44.4833 12.8876C44.5558 12.8921 44.6283 12.9305 44.6993 12.8775C44.7186 12.8646 44.7412 12.8579 44.7643 12.8583C44.9624 12.8674 45.1579 12.8775 45.3554 12.8876C45.3782 12.8887 45.401 12.8853 45.4224 12.8775C45.585 12.8144 45.752 12.8068 45.923 12.7892C46.0986 12.7715 46.2756 12.763 46.4532 12.7453C46.4922 12.7403 46.5312 12.6878 46.5587 12.6494C46.5892 12.6055 46.6052 12.5526 46.6402 12.4779C46.6997 12.5571 46.7477 12.6071 46.7782 12.6656C46.8697 12.8406 46.9492 13.0213 47.0433 13.1953C47.1468 13.383 47.2613 13.5651 47.3703 13.7493C47.3763 13.7594 47.3893 13.7654 47.3933 13.7755C47.4719 13.9813 47.6214 14.1372 47.7464 14.3123C47.8264 14.4233 47.8189 14.4369 47.7029 14.5499C47.5694 14.4707 47.4658 14.5282 47.3803 14.6427C47.2978 14.7542 47.2163 14.8662 47.1393 14.9808C47.0973 15.0428 47.0668 15.1129 47.0233 15.175C46.9262 15.3102 46.8112 15.4262 46.7692 15.6028C46.7432 15.7098 46.6562 15.8041 46.5907 15.8995C46.4739 16.0748 46.3747 16.2613 46.2946 16.4564C46.2466 16.5715 46.2136 16.6698 46.2571 16.7874C46.2641 16.8076 46.2701 16.8388 46.2596 16.855C46.2296 16.9004 46.1961 16.968 46.1551 16.9756C46.1191 16.9811 46.0581 16.9251 46.0301 16.8827C45.9741 16.796 45.9315 16.6991 45.8865 16.6068C45.7415 16.3081 45.5575 16.0332 45.3844 15.7511C45.1554 15.3763 44.9549 14.9853 44.7373 14.6014C44.6398 14.4298 44.5383 14.2608 44.4338 14.0943C44.3162 13.9092 44.1872 13.7301 44.0707 13.5434C44.0157 13.4551 43.9857 13.3537 43.9302 13.2659C43.8166 13.0843 43.6966 12.9083 43.5746 12.7246L43.5716 12.7201Z" fill="#1C1E26"/>
</g>
<defs>
<clipPath id="clip0_491_377">
<rect width="56.011" height="56.0011" fill="white"/>
</clipPath>
</defs>
</svg>
