<svg class="is-bigger" width="57" height="56" viewBox="0 0 57 56" fill="none" xmlns="http://www.w3.org/2000/svg"><g clip-path="url(#prefix__clip0_491_377)" fill-rule="evenodd" clip-rule="evenodd" fill="#1C1E26"><path d="M.698 31.108c-.068.01-.117.021-.168.024a.325.325 0 01-.316-.25c-.018-.079-.03-.16-.037-.24-.014-.264-.02-.527-.037-.789-.015-.22-.044-.439-.064-.66-.005-.053-.005-.106-.005-.159 0-.523.003-1.046 0-1.57-.002-.21-.023-.418-.034-.628-.01-.175-.026-.348-.034-.523-.006-.136.005-.271-.001-.407a1.963 1.963 0 01.206-.962c.09-.184.112-.378.14-.57.015-.112.041-.208.143-.263.055-.028.07-.07.068-.127v-.247c-.003-.109.033-.2.128-.251.07-.037.087-.087.081-.158-.009-.086-.019-.173-.026-.26-.004-.04-.01-.082-.007-.122.025-.319.023-.644.116-.95.048-.158.045-.3.03-.458a1.891 1.891 0 01.037-.557c.04-.191.016-.369-.016-.554a1.075 1.075 0 01-.006-.273c.013-.205.046-.412-.025-.609-.074-.206-.04-.41-.017-.616.017-.15.05-.298.052-.448.007-.406-.001-.812.005-1.217.004-.352.03-.701.03-1.053 0-.351-.016-.679-.035-1.017-.013-.238-.054-.475-.064-.712-.006-.167.028-.336.03-.505 0-.122-.026-.242-.031-.365-.003-.057.016-.114.023-.171.026-.208.06-.414.078-.622.02-.209.023-.42.04-.63.002-.032.015-.073.039-.092.084-.069.165-.156.264-.188.538-.183 1.048-.434 1.566-.668.119-.054.236-.117.376-.117.046 0 .095-.037.137-.066.224-.153.443-.313.67-.462.11-.07.232-.128.354-.173.222-.081.436-.17.624-.32a.5.5 0 01.219-.098c.187-.033.34-.14.506-.214.128-.057.273-.074.41-.11.044-.012.09-.023.132-.039.232-.094.464-.186.695-.283.315-.133.625-.281.945-.397a1.08 1.08 0 00.358-.23.416.416 0 01.197-.104c.365-.06.694-.228 1.042-.34.212-.07.405-.185.636-.21.123-.013.235-.117.361-.154.237-.07.431-.215.645-.325.162-.084.34-.14.51-.209.057-.023.12-.04.173-.075.19-.129.407-.183.62-.248.24-.072.476-.163.718-.228.233-.061.465-.116.68-.23.076-.039.156-.074.235-.11.14-.068.284-.118.44-.14.253-.033.477-.16.702-.271.296-.145.589-.294.885-.438.05-.025.109-.034.164-.051.334-.106.656-.238.954-.428.23-.147.5-.202.756-.287.19-.063.38-.12.558-.217.22-.118.444-.225.672-.322.11-.048.23-.072.347-.096.272-.048.53-.153.76-.309.126-.089.262-.163.406-.222.254-.104.516-.186.773-.283.096-.037.187-.085.28-.131.445-.213.887-.436 1.337-.64.334-.15.677-.282 1.021-.41.155-.057.321-.083.482-.124.028-.008.06-.01.082-.026.238-.181.54-.216.796-.36.108-.06.24-.068.359-.108.103-.036.207-.072.3-.126a.379.379 0 01.4-.019c.221.11.462.175.693.265.299.118.595.24.892.362.32.13.64.264.957.399.052.021.1.057.15.086.16.093.325.17.51.203a.899.899 0 01.267.109c.096.058.211.078.32.054.08-.087.062-.19.047-.296-.053-.364-.033-.721.131-1.056a.809.809 0 01.199-.24c.126-.107.268-.112.418-.037.127.064.261.116.395.164.142.05.29.067.44.064.192-.004.384-.006.576 0 .313.009.622.003.921-.107a.524.524 0 01.372 0c.047.017.1.032.15.035.318.015.635.03.952.035.127.002.252-.025.378-.032a.795.795 0 01.708.328c.12.156.193.325.113.535-.06.169-.096.346-.106.526-.017.282-.084.561-.117.844-.018.15-.04.31-.009.456.068.324.06.65.065.977 0 .067.02.136.042.202.043.126.162.156.269.185.106.027.176-.05.219-.135.1-.193.264-.32.438-.433.11-.07.238-.116.359-.167.184-.08.376-.147.556-.237a.502.502 0 01.52.02c.192.121.4.172.615.215.426.085.856.168 1.265.318.389.142.766.316 1.154.458.302.112.576.29.895.362.135.03.263.113.383.188.3.19.63.307.957.432.104.04.223.06.335.062a.174.174 0 00.174-.146c.026-.136.058-.273.068-.41.012-.157 0-.317.003-.476.009-.34.01-.679.038-1.017.026-.312.086-.62.128-.93.005-.046.007-.095.007-.14V1.205c0-.047.007-.1-.01-.14-.06-.136-.018-.269.021-.393.093-.308.414-.531.73-.555.304-.022.604-.065.908-.1.046-.004.092.002.139-.003.466-.053.927.06 1.393.037.375-.02.75-.026 1.126-.035.069-.002.137.017.205.025l.666.08.6.065c.023.003.046.006.07.005.233-.022.453.05.68.094.152.03.307.041.463.045.232.008.464.008.696 0 .142-.004.286-.025.427-.05a.545.545 0 01.379.055c.175.09.32.205.422.372.071.116.14.234.145.382.016.362.04.721.068 1.082.028.347.067.694.102 1.042l.001.053.035 1.51c.003.107.003.213 0 .319-.007.217.022.428.064.642.025.124.035.254.04.382.015.322.008.646.041.964.06.575.01 1.15.034 1.723.008.215.056.428.06.642.007.31-.01.62-.021.93-.007.174-.032.347-.04.522-.005.126.041.187.156.22.193.054.389.095.58.152.334.1.633.34.622.76-.006.183.033.357.056.537.028.213.009.434.006.65 0 .074-.025.15-.025.224-.002.347-.005.694 0 1.04.006.323.034.645.03.966-.002.232-.05.462-.057.695-.007.197-.002.398.026.594.032.218.08.433.073.658a15.93 15.93 0 000 .846c.007.375.011.75.037 1.123.02.255.087.503.11.757.024.255.1.5.1.76-.004.51-.005 1.022.036 1.53.052.674.007 1.349.031 2.022.008.185.043.369.06.554.017.167.038.337.04.506.006.317.01.634 0 .952-.008.25-.041.498-.063.748-.003.041-.003.083-.003.123v.777c0 .31-.023.615-.096.918-.035.146-.04.3-.042.452-.015.857-.055 1.713-.028 2.57.024.697.04 1.396.018 2.092a61.811 61.811 0 00-.025 1.882c0 .439.003.879.036 1.317.064.856.01 1.714.032 2.57.008.31.018.62.037.928.016.274.04.545.07.817.03.3.066.6.105.9.011.063.036.124.073.177a.74.74 0 01.106.271c.045.213.07.416.035.637-.041.258-.038.524-.041.786-.002.182-.02.36-.064.536-.007.029-.007.06-.009.087-.011.463-.014.927-.037 1.388-.015.272-.061.543-.092.813-.016.144-.042.29-.042.434 0 .392-.016.782-.07 1.17-.007.039-.002.082-.002.123v1.393c0 .3-.082.585-.156.872-.016.063-.072.12-.117.17-.124.14-.243.286-.382.408-.087.076-.2.13-.335.085-.04-.013-.102.008-.144.03-.13.064-.254.136-.402.148-.196.017-.342.155-.522.213a5.668 5.668 0 00-.31.104c-.178.065-.358.125-.53.2a1.328 1.328 0 01-.54.1c-.179 0-.19.006-.185.188.006.208.018.416.038.622.004.05.046.104.084.144.064.066.057.115-.003.18-.16.167-.346.309-.55.42a3.62 3.62 0 00-.87.657c-.239.248-.532.402-.876.48-.217.049-.455.077-.64.234-.013.012-.035.015-.043.028-.106.163-.269.14-.431.157-.382.045-.765-.003-1.144.037-.337.035-.67.024-1.006.027-.992.005-1.986-.027-2.978.01-.962.035-1.925-.015-2.885.035-.81.041-1.622.009-2.432.025-.199.005-.4-.004-.6.008-1.368.072-2.737.007-4.104.03-.219.005-.436.03-.656.031-.193.002-.387 0-.58 0-7.053.003-14.106.003-21.158.003-.952-.064-1.907-.004-2.858-.044-.445-.019-.892.009-1.335-.034-.36-.033-.718.005-1.074-.033-.451-.05-.902-.013-1.354-.031a2.785 2.785 0 01-.395-.04.364.364 0 01-.195-.097c-.17-.193-.386-.313-.611-.415-.103-.047-.164-.126-.24-.195-.081-.077-.155-.156-.271-.18-.042-.008-.096-.036-.115-.072-.074-.142-.22-.198-.332-.29a.76.76 0 00-.247-.118.622.622 0 01-.334-.228.62.62 0 00-.287-.219c-.061-.02-.118-.038-.145-.109-.009-.02-.044-.041-.07-.044-.178-.03-.245-.175-.286-.317-.029-.105-.078-.222-.015-.34.018-.032.005-.08.005-.122 0-.3.004-.6 0-.9-.007-.374-.02-.748-.035-1.123-.006-.15-.025-.3-.026-.452 0-.105.018-.207.028-.312.007-.088-.038-.138-.114-.177a.54.54 0 01-.309-.353 4.514 4.514 0 01-.135-.822c-.008-.134-.025-.266-.037-.4-.01-.104-.026-.207-.03-.311-.016-.393-.004-.787-.041-1.176-.054-.563-.008-1.126-.032-1.688-.01-.214-.043-.428-.063-.642-.004-.047 0-.094-.006-.141-.018-.185-.043-.37-.06-.554-.018-.18-.04-.36-.04-.54a76.817 76.817 0 010-1.764c.002-.203.04-.404.063-.605.003-.024.003-.047.003-.07.011-.305.004-.611.039-.912.055-.475.015-.95.029-1.425.003-.1.026-.192.053-.287.055-.195.11-.389.128-.595.025-.276.093-.548.14-.821.013-.064.026-.126.027-.188.002-.682.003-1.364 0-2.046 0-.116-.036-.233-.03-.347.016-.332.045-.663.065-.994.015-.227.03-.454.035-.682.006-.277-.003-.552.003-.829.004-.21.021-.419.033-.629.003-.058 0-.114 0-.18H.698zm1.999 13.416c.019 0 .033.006.04 0 .04-.026.086-.061.12-.013.023.03.024.082.02.124-.006.063-.03.123-.038.186-.033.224-.081.444-.026.675.036.148.058.313 0 .46-.064.159-.062.32-.058.484.009.416.032.83.032 1.246 0 .322.023.642-.028.965-.05.315.052.626.087.937.028.242.09.48.083.728l-.036 1.281c0 .03-.004.059-.012.087-.04.18-.062.351-.006.546a.59.59 0 00.22.315c.35.278.7.55 1.046.83.094.076.2.113.316.121.179.015.356.027.534.036.26.013.518.026.778.035.428.016.855.008 1.283.028.95.044 1.9.013 2.85.034 1.629.035 3.258.007 4.888.01.631 0 1.263.015 1.893.025.926.016 1.853.009 2.78-.016 1.351-.037 2.705 0 4.058-.012 1.351-.01 2.7.016 4.052-.025 1.756-.053 3.513.025 5.27-.04 1.147-.042 2.296.014 3.443-.03 1.042-.04 2.086 0 3.13-.042.751-.03 1.504.02 2.257-.03.64-.043 1.285-.027 1.928-.043.527-.014 1.052.012 1.58-.027.565-.04 1.134.008 1.701-.038.289-.023.58-.004.87-.004.041 0 .082 0 .123-.003.246-.022.493-.074.737-.062a1.56 1.56 0 00.923-.238c.083-.051.179-.08.258-.135.12-.081.231-.173.341-.266.066-.055.09-.12.066-.216a.52.52 0 010-.28c.077-.223.058-.45.06-.677 0-.1.012-.194.053-.29.035-.082.04-.179.05-.272.024-.183.046-.368.063-.554.007-.075.015-.153.004-.228-.042-.31-.095-.619-.132-.93-.014-.126-.003-.259.008-.387.013-.168.058-.335.053-.501-.007-.279-.048-.557-.06-.835a2.923 2.923 0 00-.1-.635.135.135 0 010-.069c.028-.13.075-.259.083-.39.018-.261.038-.523-.018-.786a1.4 1.4 0 01-.015-.401c.02-.242.099-.478.084-.726-.02-.327-.032-.654-.033-.982 0-.275.019-.55.033-.823.007-.152.023-.302.032-.453.004-.07.003-.141-.003-.212-.02-.232-.055-.462-.06-.694-.007-.208.031-.418.028-.629-.01-.89.048-1.781-.066-2.669-.005-.034 0-.07.002-.105.01-.1.03-.196.03-.294 0-1.67.004-3.34 0-5.01-.002-.592-.022-1.183-.035-1.776 0-.04-.013-.079-.022-.119-.015-.06-.042-.119-.045-.18-.02-.397 0-.796-.03-1.194-.04-.607-.024-1.219-.033-1.829-.018-1.284.015-2.57.027-3.857 0-.069.01-.14.016-.209 0-.021.008-.048-.002-.064-.071-.113-.052-.238-.048-.36.006-.205.013-.409.036-.612.018-.154.064-.306.09-.46a.355.355 0 00-.016-.169.34.34 0 01-.018-.198c.032-.147.033-.3.045-.452.004-.047-.012-.1.005-.139.048-.109.008-.202-.026-.302a.883.883 0 01-.046-.236c-.007-.153.003-.306-.005-.459-.004-.116-.026-.23-.034-.346-.013-.187-.051-.377-.025-.557.04-.292.065-.58.062-.872a.48.48 0 01.037-.203c.074-.157.098-.323.098-.49 0-.217-.024-.432-.03-.648-.006-.24.003-.482-.004-.723a1.607 1.607 0 00-.044-.309c-.033-.141-.071-.272-.032-.426.04-.162.036-.335.042-.504.006-.17-.001-.341.002-.512a2.992 2.992 0 00-.066-.66 1.015 1.015 0 01-.021-.38c.046-.249.03-.47-.195-.622-.248-.168-.495-.348-.766-.47-.38-.168-.762-.328-1.122-.54a.781.781 0 00-.193-.072c-.15-.041-.302-.07-.449-.117a4.256 4.256 0 01-.946-.421c-.307-.188-.656-.28-.988-.41-.22-.085-.445-.153-.639-.294a.504.504 0 00-.268-.103.991.991 0 01-.314-.088c-.557-.253-1.111-.513-1.667-.77-.068-.031-.136-.062-.206-.09-.24-.097-.486-.18-.718-.294-.246-.121-.507-.188-.762-.272-.245-.081-.508-.135-.729-.262-.36-.206-.742-.344-1.13-.469a7.788 7.788 0 01-1.153-.502c-.2-.103-.4-.197-.62-.253a2.792 2.792 0 01-.435-.165c-.22-.096-.435-.208-.656-.305-.242-.106-.489-.202-.734-.301-.144-.06-.285-.123-.43-.174-.15-.053-.309-.086-.46-.14-.271-.096-.537-.203-.807-.301-.377-.138-.755-.273-1.133-.409a5.89 5.89 0 01-.872-.378c-.247-.138-.5-.263-.75-.397a.633.633 0 00-.28-.076.38.38 0 01-.234-.082c-.105-.101-.227-.16-.349-.226l-.21-.12c-.08-.043-.157-.1-.242-.129-.272-.094-.545-.18-.818-.27-.087-.027-.172-.06-.26-.083a3.499 3.499 0 01-.71-.264c-.357-.178-.72-.343-1.08-.515a.363.363 0 00-.317.003c-.168.072-.336.155-.512.202a4.207 4.207 0 00-.943.38c-.296.162-.614.26-.929.368-.303.104-.618.178-.893.357-.063.04-.13.073-.201.1-.176.07-.352.146-.531.203-.196.062-.4.1-.598.157-.082.024-.16.062-.237.1-.093.045-.177.107-.273.146-.325.132-.654.254-.98.385-.207.083-.425.152-.612.27-.261.165-.538.291-.814.42a6.14 6.14 0 01-.594.231c-.297.103-.605.18-.892.313-.26.122-.521.244-.785.357-.234.099-.47.189-.676.343a.835.835 0 01-.234.11c-.422.15-.85.287-1.269.447-.23.088-.446.212-.67.316-.135.063-.257.158-.415.163a.43.43 0 00-.179.056c-.438.232-.945.294-1.367.565-.008.005-.023.004-.033.007-.298.107-.597.209-.891.323a2.54 2.54 0 00-.613.313.64.64 0 01-.297.131c-.315.035-.6.15-.877.299-.3.161-.61.303-.934.405a1.575 1.575 0 00-.285.125 3.126 3.126 0 01-.765.309c-.246.059-.489.125-.708.259a6.27 6.27 0 01-.51.292 1.55 1.55 0 01-.421.147c-.12.016-.236.05-.344.103-.269.137-.536.276-.809.404-.145.068-.299.113-.448.172-.183.07-.372.126-.502.291-.11.14-.244.247-.437.246a.182.182 0 00-.097.034c-.027.017-.058.05-.06.077-.003.113.005.225.01.338.005.075.03.155.016.225-.06.303-.019.609-.032.914-.001.046-.001.093-.007.139-.02.191-.05.38-.06.571-.01.189-.004.377-.002.565 0 .113-.041.22-.01.342.042.155.033.324.043.487a.428.428 0 01-.007.087c-.009.069-.028.138-.026.205.008.393.033.785.03 1.176-.004.81-.02 1.619-.032 2.429v.14c0 .036-.004.072-.009.105-.031.288-.078.576-.09.866-.013.256.01.515.02.77.02.532.053 1.063.072 1.594.035.967.033 1.935.04 2.904.006.788.005 1.576 0 2.364-.002.31.014.619-.026.93-.039.3-.033.607-.039.912-.001.11.03.219.032.329.018.745.016 1.49.025 2.234.017 1.337.052 2.678-.023 4.016-.022.379.03.761-.035 1.14-.009.052-.003.106 0 .159.009.116.027.231.03.347.005.23.002.459 0 .688 0 .047.009.099-.007.14-.075.19-.062.39-.062.59 0 .305-.002.61 0 .916 0 .069.011.138.026.206.045.213.01.425-.005.638-.014.216-.04.436-.013.648.037.272.04.537-.058.79a.979.979 0 00-.055.479c.009.075.03.146.047.232l.007.004z"/><path d="M32.68 48.003c0-.43-.027-.862.007-1.287.04-.467.046-.936.02-1.404-.047-.799-.018-1.597-.022-2.394-.002-.317.011-.64.093-.953.026-.1.023-.208.043-.31.05-.27.143-.529.278-.766.191-.333.5-.521.843-.655a4.02 4.02 0 01.9-.219.898.898 0 00.301-.116c.21-.116.442-.119.666-.161.18-.035.36-.065.538-.106a.825.825 0 01.523.019c.18.07.368.125.568.126.096 0 .192.037.288.049.183.022.366.048.549.05.225.001.448-.027.673-.03.15 0 .298.028.447.031.097.002.193-.026.29-.028.104-.003.208.006.31.016.13.014.26.041.392.049.334.016.67.011 1.004.04.521.045 1.04.108 1.514.36.352.185.613.446.745.836.072.216.12.434.144.661.026.26.066.518.1.777.005.045.001.094.001.141 0 .44.003.882 0 1.323-.003.223 0 .442.083.654.054.138.057.284.06.43.005.293 0 .587.039.876.05.387.03.774.023 1.159-.005.288-.064.576-.095.865-.017.162-.024.325-.039.489-.006.068-.02.136-.029.205l-.04.365c-.02.184-.04.369-.064.553-.023.183-.042.368-.077.55-.086.452-.298.836-.658 1.12a1.588 1.588 0 01-.443.229 4.55 4.55 0 01-1.004.226c-.588.072-1.177.07-1.765.065-.655-.006-1.31-.052-1.963-.025-.585.023-1.17.014-1.753.027-.12.003-.247.052-.358.029-.269-.058-.497.045-.725.148-.125.056-.222.034-.316-.052-.095-.085-.182-.185-.29-.25a1.564 1.564 0 00-.38-.152c-.44-.124-.81-.352-1.024-.766-.142-.275-.264-.566-.294-.888-.017-.19-.064-.376-.094-.566-.009-.051-.007-.106-.007-.157v-1.182l-.002-.001zm6.271-2.237c-.03-.651.052-1.463-.038-2.27-.024-.217-.088-.43-.133-.645a.23.23 0 00-.181-.189c-.073-.019-.141-.053-.215-.061-.31-.038-.47.055-.57.335-.106.294-.146.61-.15.925-.002.55.006 1.101.026 1.652.02.673-.016 1.347-.028 2.02-.006.305-.006.608.068.906.045.18.07.365.168.53.037.064.073.114.154.12.121.007.24.03.36.03.21.006.292-.056.364-.25.118-.323.178-.664.175-1.008-.003-.646 0-1.293 0-2.097v.002zm-13.16-33.66l.69.044a.654.654 0 00.351-.072.554.554 0 01.5-.022c.18.077.364.099.558.098.715-.006 1.429 0 2.143-.004.108 0 .217-.013.325-.032.293-.056.58.223.51.575-.069.346-.12.696-.169 1.046a4.43 4.43 0 00-.035.541c-.002.103.023.207.032.312.015.175.03.348.035.523.009.246-.016.487-.06.73-.045.25-.037.512-.041.77-.005.284-.015.57.06.854.043.154.038.322.041.486.004.397.03.79.128 1.177.056.224.062.46.08.692.005.086-.02.172-.032.26-.032.27-.075.538-.128.805-.065.311-.098.63-.152.943-.076.43-.174.855-.41 1.23-.181.286-.44.479-.753.589-.177.063-.366.094-.547.146a.436.436 0 00-.178.098.35.35 0 01-.297.111l-.378-.034h-.017c-.277.037-.556.016-.833.045-.295.03-.585.142-.883.09a.862.862 0 00-.436.032c-.064.02-.138.01-.208.009-.353-.009-.7.042-1.047.096-.103.015-.213-.027-.32-.042-.057-.008-.118-.027-.17-.013-.35.082-.712.1-1.067.052-.3-.039-.586.034-.879.018-.106-.006-.203-.005-.293-.066-.014-.01-.026-.03-.042-.03-.25-.038-.424-.224-.638-.326-.1-.047-.202-.08-.305-.119-.205-.074-.395-.183-.617-.217-.109-.016-.215-.088-.31-.155a.454.454 0 01-.209-.364c-.002-.091-.045-.18-.06-.27-.03-.167-.066-.333-.073-.499a7.7 7.7 0 00-.102-1.113c-.025-.13-.005-.269-.005-.404 0-.194-.02-.39.002-.582.057-.498.032-.996.027-1.493-.005-.306-.064-.612-.092-.918a1.739 1.739 0 010-.405c.061-.381.122-.764.089-1.147a9.4 9.4 0 01-.024-.948c.003-.232.05-.463.06-.694.006-.144-.015-.289-.032-.435-.017-.15-.044-.298-.067-.446-.011-.075-.033-.15-.032-.224.002-.133.015-.267.038-.398a.532.532 0 00.004-.274.355.355 0 01.045-.302.38.38 0 00.048-.143c.02-.137.086-.203.206-.159.093.033.157.006.227-.035a.536.536 0 01.43-.054c.347.086.7.126 1.06.119.761-.015 1.522-.003 2.283-.006.184 0 .367-.028.551-.032.18-.005.195.008.19.185-.004.174-.032.348-.032.523-.003 2.528 0 5.056-.001 7.583 0 .206.038.404.119.594.094.219.332.319.582.279a.538.538 0 00.48-.473c.022-.12.02-.242.038-.363.071-.485.03-.973.028-1.459a2.955 2.955 0 00-.083-.724c-.052-.202-.09-.419-.026-.64.038-.13.033-.276.044-.415.014-.199.025-.396.036-.594.074-1.214.019-2.43.033-3.646.003-.216-.025-.43-.03-.647-.002-.064.023-.13.04-.212v-.005zm11.694 18.74a.193.193 0 00.11-.14c.058-.218.128-.434.198-.648.14-.437.285-.872.425-1.307.065-.203.125-.408.19-.613.087-.27.176-.54.266-.81.112-.329.23-.656.338-.986.025-.075.07-.107.135-.112.093-.006.193-.022.277.006a.312.312 0 00.248-.024c.151-.069.31-.075.47-.095.352-.044.703-.028 1.056-.03.074 0 .147.023.22.031.12.015.24.03.36.039.23.015.467-.003.69.045.167.037.324.033.49.028.29-.007.58-.003.87-.001.051 0 .103.004.175.007-.008.053-.008.097-.02.138-.159.468-.323.932-.48 1.4-.082.247-.154.498-.235.746-.058.177-.123.348-.184.523-.152.434-.297.868-.452 1.298a5.079 5.079 0 01-.22.514 2.58 2.58 0 00-.23.655 1.038 1.038 0 000 .307c.065.49.296.928.441 1.392.134.43.272.862.413 1.29.204.624.414 1.244.617 1.867.142.436.277.872.422 1.307.023.068.08.125.128.197-.03.09-.093.121-.195.096a.208.208 0 00-.111.007.673.673 0 01-.407.008 1.194 1.194 0 00-.324-.039c-1.219-.003-2.438-.001-3.658-.001h-.104c-.228.007-.237 0-.299-.212-.12-.406-.242-.81-.365-1.215-.095-.316-.185-.634-.287-.947-.126-.387-.269-.767-.392-1.155-.136-.425-.261-.853-.387-1.28-.034-.111-.055-.226-.086-.337-.007-.025-.03-.046-.058-.082-.04.053-.081.08-.061.152a.82.82 0 01.019.209l.001 4.479c0 .075.012.15.023.225.02.126-.066.208-.194.185a1.014 1.014 0 00-.187-.02c-.25-.004-.5-.007-.75 0-.317.007-.633.025-.952.032-.08.001-.159-.028-.238-.026-.143.005-.286.021-.428.034-.062.006-.125.025-.187.027-.138.003-.273.003-.408.054a.544.544 0 01-.257.015c-.185-.026-.371-.035-.555-.1-.148-.053-.328-.028-.494-.02-.112.007-.167-.015-.177-.124a1.253 1.253 0 010-.194c.008-.128.03-.254.03-.382.003-.682.003-1.364 0-2.047 0-.121-.022-.242-.032-.364-.013-.151-.017-.303-.038-.452-.032-.248-.077-.493-.111-.74-.024-.16-.054-.322-.057-.484a4.753 4.753 0 00-.062-.59 1.22 1.22 0 01.049-.622c.02-.055.027-.113.045-.168.05-.15.007-.3-.01-.445-.026-.204-.042-.404.006-.607.008-.04.001-.083.004-.124.025-.382.043-.765.173-1.133a.734.734 0 00.035-.24c.002-.911 0-1.822 0-2.734v-.123c.004-.146.014-.161.163-.157.185.004.368.023.552.03.044.002.104-.003.128-.03.081-.09.189-.116.295-.133.226-.036.455-.054.683-.08.235-.028.455.058.682.088.052.006.105.019.153.009.254-.055.51-.053.748.045.198.082.381.112.596.077.21-.036.428-.01.643-.006.126.003.161.061.14.192-.01.057-.01.116-.01.175 0 1.04.004 2.081-.004 3.122-.003.325-.042.651-.065.976-.005.058 0 .075.065.153l-.001-.002zM24.317 44.63c.033-.051.08-.097.098-.152.13-.396.257-.793.38-1.19.112-.36.215-.723.331-1.082.14-.43.294-.855.436-1.284.089-.264.172-.53.254-.794.037-.115.061-.144.182-.141.16.004.32.03.482.032 1.195.003 2.392.003 3.588 0 .19 0 .378-.022.569-.033a.499.499 0 01.105.003c.08.013.101.055.073.138-.114.329-.232.657-.347.986-.099.285-.195.57-.296.855-.04.11-.058.21.028.31.05.059.045.136.023.216a1.915 1.915 0 01-.296.609c-.186.259-.295.551-.415.84-.12.289-.234.581-.365.865-.111.241-.18.476-.068.738a.608.608 0 01.045.274c-.026.274.083.513.171.76.103.283.19.573.285.86.067.203.135.406.2.61.097.298.19.597.289.893.099.297.209.59.305.888.112.348.21.7.32 1.048.085.265.178.528.272.807-.029.015-.06.036-.095.044-.04.009-.082.003-.122.003h-4.546c-.21 0-.225-.024-.285-.224-.152-.51-.307-1.02-.466-1.528-.192-.615-.39-1.228-.584-1.84-.078-.249-.162-.496-.236-.746a23.397 23.397 0 01-.21-.772c-.017-.064-.036-.11-.124-.103-.006.036-.018.074-.018.11v4.516c0 .146.028.29.032.435.003.136-.014.152-.15.153-.366.002-.732 0-1.098 0H19.65c-.13-.004-.142-.014-.144-.16v-.705c0-.258-.019-.51-.058-.766-.038-.244.003-.502.015-.753.007-.151.033-.301.042-.45.014-.255-.002-.511 0-.767.003-.253 0-.506 0-.759V46.6c0-.518.007-1.035-.003-1.553-.006-.22-.03-.44-.071-.657-.028-.147-.116-.282-.137-.428a2.03 2.03 0 01-.009-.555c.038-.27.106-.537.082-.814-.012-.122-.028-.243-.034-.365-.017-.354.061-.692.164-1.028.026-.086.041-.181.042-.273.006-.258 0-.517.003-.776 0-.148.015-.164.16-.161.208.005.414.027.621.03a.835.835 0 00.306-.043c.266-.106.53-.064.8-.017.044.007.088.026.133.026.492.014.982.026 1.474.037.169.003.337.004.506 0 .196-.006.39-.022.586-.033.209-.014.189.071.184.21-.007.204-.03.407-.032.61-.003 1.006 0 2.012-.003 3.017 0 .216-.023.431-.032.647 0 .049.01.099.014.147l.052.015.006-.005zm-5.206-6.669c-.09-.044-.095-.122-.081-.208.011-.08.032-.162.027-.242-.02-.348.06-.682.124-1.02.066-.352.127-.706.194-1.06.048-.255.103-.51.151-.767.057-.307.107-.615.163-.924.048-.268.103-.535.15-.802.035-.206.06-.414.092-.62.023-.142.06-.285.074-.428.017-.168.045-.342.019-.505a1.565 1.565 0 01.023-.604c.051-.22.084-.444.128-.666a3.93 3.93 0 01.077-.34c.053-.189.113-.377.174-.565.061-.188.127-.373.189-.56a4.51 4.51 0 00.167-.618c.06-.336.13-.67.196-1.005.045-.228.091-.454.142-.68a.16.16 0 01.067-.098c.09-.048.183-.102.281-.123.14-.03.286-.034.428-.041.105-.006.21 0 .314-.002.521-.012 1.04-.023 1.562-.033a.894.894 0 01.525.13c.145.093.3.108.465.056.042-.013.091-.01.138-.01h3.675c.03 0 .058-.002.087 0 .098.009.144.056.153.156.025.265.058.529.16.78.031.078.012.174.03.259.025.125.06.247.09.369.058.242.112.485.175.726.038.145.1.285.137.43.065.265.113.533.177.798.032.129.09.25.125.378.026.095.048.195.045.291-.008.181.036.348.109.51a.71.71 0 01.07.339c-.024.3.049.589.095.882.025.154.03.312.044.469.011.121.027.242.042.363.008.075.03.15.026.223-.02.343.06.67.123 1.002.068.353.127.707.193 1.06.05.262.108.522.16.784.04.204.073.41.112.614.074.387.15.773.225 1.16.017.088-.032.15-.113.147-.197-.01-.39-.031-.587-.03-.3.003-.6.016-.9.035-.113.008-.223.051-.337.068-.25.038-.5.062-.747.11-.151.03-.292.026-.443.002-.116-.018-.24.013-.36.023-.04.003-.081.005-.122.006-.196.012-.39.02-.586.036a.422.422 0 01-.383-.163c-.1-.127-.22-.134-.357-.112-.11.017-.151-.009-.16-.112-.015-.167-.02-.337-.038-.505-.016-.157-.04-.31-.06-.466-.015-.139-.03-.278-.041-.417-.015-.174-.025-.348-.038-.523-.01-.14-.025-.277-.035-.417-.008-.097-.072-.107-.148-.107h-1.225c-.02.046-.048.088-.053.13-.027.255-.046.51-.074.764-.03.283-.07.566-.1.847a8.684 8.684 0 00-.037.524c-.006.113-.02.22-.088.275-.346 0-.664-.005-.981 0-.324.005-.649.054-.968.023-.32-.03-.635-.005-.954-.025-.32-.02-.643.009-.963.01-.313 0-.63-.05-.94.015l-.004.004zm6.287-5.156c0-.056.007-.118 0-.178-.017-.12-.05-.238-.064-.358-.042-.333-.046-.67-.101-1.001-.044-.264-.052-.533-.076-.8-.01-.11-.024-.22-.041-.33-.044-.28-.087-.56-.135-.84-.009-.051-.038-.1-.06-.157-.098.076-.114.158-.113.25.002.16.013.32-.003.477-.036.34-.091.678-.133 1.017-.04.312-.067.624-.11.935-.043.299-.1.594-.145.891-.006.034.017.07.023.09h.96l-.002.004zM8.382 28.942c-.015-.04-.034-.066-.034-.094.005-.792.012-1.584.016-2.377.001-.244 0-.244.236-.245.743 0 1.487-.006 2.23.003.251.003.49-.059.734-.09.051-.006.102-.02.154-.02.435 0 .871-.002 1.307 0 .086 0 .171.036.255.032.16-.008.32-.031.48-.047.056-.006.112-.02.17-.02.413 0 .825-.002 1.237 0 .075 0 .149.019.22.037.155.042.307.09.461.133a.153.153 0 00.068.004c.28-.07.566-.018.848-.034.12-.007.24-.021.36-.032.046-.004.096-.012.14 0 .278.076.561.017.841.032.177.01.19.012.188.192-.01.433-.03.865-.032 1.299 0 .345.023.69.03 1.034.005.186-.004.192-.183.192h-1.933c-.063 0-.124-.018-.186-.03-.189-.035-.31.095-.224.27.11.22.105.436.057.662-.01.045-.003.094-.003.141 0 .547-.003 1.094 0 1.64.002.24-.02.477-.065.712-.009.046-.005.094-.005.142 0 .305-.004.61 0 .917.005.257.013.514.037.77.019.195.06.389.1.582a.922.922 0 01.006.43c-.042.162-.028.34-.08.496-.07.207-.064.413-.064.622v1.322c0 .06.005.116.012.175.014.118-.055.192-.169.178-.095-.012-.193-.028-.29-.03-.505-.002-1.01 0-1.515-.002-.192 0-.378.025-.564.067-.106.026-.216.024-.323.04-.141.02-.286.034-.421.078-.082.027-.146.01-.216-.01-.082-.025-.162-.06-.245-.082-.048-.014-.109-.029-.15-.01-.133.06-.26.016-.37-.032-.16-.069-.316-.051-.477-.036-.116.01-.148-.006-.15-.118-.014-.416-.03-.83-.034-1.246-.006-.53-.03-1.06.006-1.587.05-.792.008-1.584.029-2.375a.639.639 0 00-.055-.305.711.711 0 01-.018-.555c.075-.219.061-.442.02-.666-.007-.04-.02-.08-.015-.12.03-.253.063-.506.095-.76a.836.836 0 00.006-.106v-.953c0-.183-.032-.217-.213-.217H8.377l.005-.003zm5.348-7.8c.126-.01.253-.029.378-.027.16.001.32.028.481.03.127 0 .251-.024.378-.033.162-.012.319.03.477.053.182.023.37.019.552-.006.261-.038.42.009.553.242.02.035.029.075.026.115-.004.092-.025.184-.025.277a5.07 5.07 0 01-.097.935c-.027.15-.032.302-.042.452-.015.193-.022.385-.036.576-.01.122-.175.23-.308.168-.155-.072-.297-.044-.453-.033-.237.02-.476 0-.714.008-.142.004-.286.028-.428.047-.113.015-.227.054-.338.05-.183-.008-.365-.043-.546-.066-.17-.023-.34-.06-.51-.065-.355-.01-.71 0-1.064-.005a1.623 1.623 0 00-.495.06c-.043.013-.09.011-.137.011-.145 0-.29.009-.436 0-.264-.016-.527-.044-.79-.066-.046-.005-.093-.003-.139-.003H8.676c-.047 0-.096.006-.138-.006-.057-.016-.102-.05-.093-.126a2.94 2.94 0 00.023-.296c.003-.347.003-.694 0-1.04a.422.422 0 00-.036-.186.617.617 0 01-.067-.32c.005-.175.005-.348 0-.523-.003-.148-.003-.291.079-.425.025-.041.026-.1.026-.151 0-.959.003-1.918 0-2.876 0-.096-.035-.194-.05-.29-.02-.133-.049-.265-.05-.396 0-.24.029-.478.025-.718a2.157 2.157 0 00-.067-.462c-.049-.205-.04-.42.023-.62.065-.22.119-.446.081-.672-.043-.258-.019-.515-.03-.772a1.98 1.98 0 01.06-.554c.012-.05.01-.104.01-.158v-.987a.427.427 0 01.121-.315c.079-.08.17-.095.253-.047.257.15.535.094.798.07.154-.013.295.014.441.024.08.006.161.03.238.024.166-.017.329-.055.494-.073.112-.011.226-.008.338-.008.196 0 .396.029.59.001a1.73 1.73 0 01.684.024c.044.012.09.022.136.022a.79.79 0 01.44.128c.06.037.116.05.194.025.154-.047.23.052.215.216-.023.255-.022.513-.03.77 0 .012 0 .025.005.034.179.31.087.632.042.952-.022.15-.045.3-.046.452-.005.917-.006 1.834.001 2.751 0 .16.047.32.077.481.04.21.099.417.097.636 0 .193.003.387.035.576.07.415.01.83.04 1.245.017.224-.014.456-.06.678-.033.163.013.209.157.191l-.002.002zm26.47-2.848c-.028-.066-.049-.119-.072-.169a2.181 2.181 0 00-.51-.658c-.076-.07-.147-.148-.221-.223-.141-.145-.087-.317.033-.406a.715.715 0 01.167-.093c.282-.108.553-.252.853-.307.438-.08.844-.252 1.262-.396.15-.05.289-.132.437-.187a4.86 4.86 0 01.508-.162c.26-.066.489-.19.713-.33.025-.016.046-.042.072-.046.047-.008.108-.02.141.002.057.036.051.105.01.156-.042.053-.095.097-.143.146-.159.16-.316.321-.477.479-.125.122-.254.238-.381.355-.218.2-.439.398-.658.596l-.116.106c-.099.09-.106.171-.013.266.308.311.556.667.78 1.043.052.09.095.189.123.288a.35.35 0 01-.224.418c-.178.063-.361.111-.54.175-.216.076-.435.14-.663.161-.305.03-.587.157-.884.217-.174.035-.352.055-.527.08-.09.014-.181.023-.272.039-.088.016-.113.08-.058.151.032.041.073.076.11.115.333.351.61.743.803 1.19.073.17.04.299-.107.393a1.23 1.23 0 01-.263.123c-.2.07-.4.142-.606.19-.162.037-.318.088-.488.1-.18.013-.356.08-.534.122a37.236 37.236 0 01-.922.201c-.274.056-.552.1-.823.168-.16.04-.31.116-.465.176-.026.01-.052.024-.078.03-.088.026-.158-.021-.138-.11.032-.143.061-.29.204-.387.303-.21.602-.425.896-.647.06-.044.1-.113.153-.167.094-.092.191-.181.291-.268.114-.098.235-.187.342-.293.05-.051.023-.123-.01-.192-.16-.337-.436-.572-.685-.832a.547.547 0 01-.117-.168.263.263 0 01.147-.355c.248-.105.493-.215.746-.308.128-.047.27-.051.402-.085.167-.042.334-.084.494-.148.363-.146.752-.22 1.094-.416.064-.037.126-.08.212-.134l.001.001zM9.48 45.044c.078-.234.23-.348.437-.416.2-.065.39-.165.59-.239.117-.044.24-.069.362-.1.12-.033.245-.056.363-.098.244-.086.476-.2.739-.225.06-.006.116-.048.177-.065.116-.029.235-.046.351-.077.053-.015.1-.05.162-.078-.027-.039-.037-.067-.059-.083-.374-.292-.665-.661-.93-1.052a1.351 1.351 0 01-.122-.232.304.304 0 01.102-.37c.082-.053.17-.097.26-.133.194-.084.388-.168.586-.241.145-.053.293-.112.444-.126.202-.02.372-.116.556-.177.174-.056.341-.128.527-.157.162-.026.315-.105.475-.152.23-.069.465-.122.694-.201.15-.052.291-.135.437-.206.026-.011.049-.03.075-.042.093-.043.144-.015.148.09a.5.5 0 01-.203.45 8.817 8.817 0 00-.789.68c-.138.135-.233.316-.381.45-.106.096-.205.201-.304.305-.08.086-.078.113-.025.213.155.283.39.487.63.685.072.059.137.128.204.193.158.154.088.34-.051.424a5.11 5.11 0 01-.473.253c-.138.069-.281.125-.428.17-.466.132-.894.362-1.341.54-.149.06-.282.153-.422.233-.055.03-.106.067-.162.104-.025.075 0 .132.042.206.18.303.451.507.716.72.023.017.04.041.062.062.225.204.173.356-.048.49a3.925 3.925 0 01-.985.45c-.263.075-.51.208-.767.305a4.167 4.167 0 00-.785.39c-.152.096-.335.148-.51.21-.248.088-.461.233-.673.383-.038.026-.075.063-.118.07-.045.005-.115-.007-.133-.036-.02-.03 0-.097.016-.141.011-.031.045-.052.07-.076.214-.206.407-.43.574-.678.067-.1.168-.177.253-.266.252-.266.505-.533.755-.802.077-.082.075-.127 0-.21-.048-.051-.102-.095-.154-.14-.04-.034-.086-.063-.118-.102-.205-.251-.415-.5-.608-.76-.089-.12-.145-.265-.215-.397l-.003.002zm26.694-31.601c.137.016.276.053.411.04.222-.02.441.037.666-.017.187-.044.39-.023.584-.033.08-.003.16-.008.24-.013.115-.006.166-.047.18-.166.015-.132.035-.266.032-.4-.002-.157-.027-.313-.04-.469-.01-.133-.026-.267-.023-.4.001-.126.16-.233.283-.197.203.057.402.14.61.177.352.063.637.284.968.395.376.127.739.287 1.13.367.195.04.38.135.567.207.226.086.458.15.7.171.032.003.064.024.098.032.058.011.107.038.094.1-.013.069-.068.132-.135.107-.135-.049-.26.025-.39.006a.28.28 0 00-.12.012c-.215.073-.439.085-.664.092-.289.01-.578.022-.865.037-.115.006-.23.02-.343.037-.116.016-.162.065-.158.186.006.21.03.42.032.63.001.34-.058.67-.14.998-.039.155-.282.267-.436.201-.206-.088-.408-.184-.614-.27-.094-.039-.2-.05-.293-.092-.089-.038-.166-.1-.252-.146-.116-.064-.23-.133-.352-.18-.33-.128-.638-.3-.95-.459-.406-.205-.808-.423-1.242-.564-.032-.01-.069-.01-.1-.022-.037-.013-.095-.031-.096-.053-.006-.038.015-.088.04-.122.098-.126.22-.206.39-.18.062.01.127.002.191.002v-.013l-.003-.002zm-19.11 36.082c.015.09 0 .14-.065.206-.152.154-.34.15-.525.163-.179.015-.36.008-.54.002a1.667 1.667 0 00-.611.09c-.112.037-.237.037-.356.052-.125.016-.253.022-.376.044-.126.024-.157.072-.165.204-.015.284.012.569.08.844.03.124.054.252.054.378a.263.263 0 01-.323.251c-.296-.066-.592-.13-.885-.207-.144-.036-.28-.103-.421-.153a7.049 7.049 0 00-1.277-.34c-.296-.045-.576-.148-.863-.221a1.712 1.712 0 00-.478-.062c-.058.001-.118.004-.174-.004-.093-.017-.151-.074-.135-.13.022-.076.074-.11.155-.113.086-.003.171-.032.256-.028.192.01.36-.076.534-.125.21-.059.421-.05.629-.09.303-.057.61-.092.915-.146.139-.026.17-.078.153-.225-.029-.242-.067-.483-.1-.724a.379.379 0 01-.002-.07c.01-.187.02-.372.035-.559.007-.092.02-.185.046-.273.041-.143.24-.256.391-.222.106.023.21.06.31.099.16.061.319.122.491.152.16.03.325.081.452.205.032.03.078.055.12.064.348.065.665.218.99.348.465.185.916.407 1.405.52.05.011.103.01.153.022.043.01.084.032.122.048h.004zm-9.53-2.422c-.12-.045-.141-.147-.138-.223.015-.31-.03-.609-.074-.912-.006-.04-.003-.082-.003-.123 0-.27.005-.541-.001-.811a7.52 7.52 0 00-.037-.541c-.011-.124-.07-.145-.2-.143-.248.003-.495-.01-.743-.024a4.072 4.072 0 01-.445-.04 1.886 1.886 0 01-.38-.102c-.192-.077-.253-.225-.181-.424.05-.141.12-.274.18-.413.036-.083.073-.167.102-.254.074-.222.177-.424.322-.608.081-.105.107-.253.167-.377.075-.155.158-.307.24-.46.041-.076.088-.15.128-.228.155-.3.317-.596.462-.902.084-.177.14-.367.216-.55a.268.268 0 01.112-.116c.013-.007.064.049.097.077.128.11.142.254.14.414-.005.188-.038.368-.062.553a2.289 2.289 0 00-.004.632c.036.247.018.49.028.735v.088c0 .194.013.209.193.242.057.01.112.025.169.036.21.038.419 0 .628-.02.137-.016.276-.02.415-.01.136.012.234.202.189.358-.053.183-.125.361-.176.544-.072.261-.222.485-.326.728-.115.27-.22.546-.325.82-.144.367-.231.753-.395 1.115-.108.238-.182.5-.202.768-.005.061-.063.115-.095.17l-.001.001zm37.023-22.818c-.085-.12-.153-.212-.216-.306a.126.126 0 01-.018-.083c.044-.28.084-.56.14-.839.047-.247.076-.49.027-.74a.385.385 0 01.003-.136c.022-.154.048-.308.068-.463.022-.169-.011-.204-.183-.255a2.705 2.705 0 00-.939-.105c-.035.002-.07 0-.105.006-.236.038-.393-.137-.317-.364.056-.171.116-.343.196-.503.171-.341.358-.674.534-1.013.096-.184.17-.382.277-.559.127-.205.148-.45.264-.658.102-.181.195-.368.276-.559.068-.158.115-.326.173-.49.03-.086.03-.189.142-.234.071.069.113.135.083.254-.03.11-.02.232-.016.35.006.175.022.348.032.523.003.04-.003.08-.009.122-.005.028-.02.056-.023.084-.013.216-.023.43-.038.647-.004.075-.019.148-.025.223-.002.04.003.081.005.12.003.081.016.162.005.242-.014.116.04.207.153.218.064.006.128 0 .192.002.46.01.914.096 1.347.253.196.072.276.247.209.448a.956.956 0 01-.067.16c-.135.255-.268.512-.41.762-.054.096-.13.177-.192.267-.064.096-.122.195-.184.292-.254.407-.505.818-.765 1.222-.2.312-.393.628-.533.974-.015.035-.043.065-.086.136v.002zM9.155 51.25c-.06.088-.116.125-.184.055-.128-.132-.3-.139-.46-.165-.07-.012-.147.028-.22.022-.217-.013-.425.048-.638.063-.035.003-.07.012-.104.009-.201-.02-.38.07-.567.117-.115.03-.232.043-.35.059-.101.015-.204.03-.307.035-.079.005-.12.036-.12.116 0 .055-.002.11-.068.127-.07.018-.106-.037-.136-.085-.132-.205-.258-.413-.392-.618-.155-.236-.31-.474-.477-.703-.072-.099-.168-.18-.256-.264-.051-.048-.085-.103-.054-.17.03-.07.093-.074.162-.062.037.006.092 0 .112-.024.105-.122.221-.242.297-.383.078-.148.135-.306.238-.443.06-.08.084-.19.123-.285.016-.036.026-.078.044-.113.101-.207.226-.406.299-.623.052-.155.167-.315.078-.5a.152.152 0 010-.105c.012-.033.038-.074.068-.087.045-.021.08.002.112.051.213.323.432.645.65.966.314.46.622.923.944 1.377.208.293.434.572.652.857.025.032.042.07.065.103.099.135.199.27.297.406.064.087.128.177.193.269l-.001-.002zm34.417-38.53c.082-.1.15-.1.212-.029.16.182.373.174.585.175.037 0 .075.017.114.02.073.005.145.043.216-.01a.113.113 0 01.065-.019l.591.03a.172.172 0 00.067-.01c.163-.064.33-.071.501-.089.176-.018.353-.026.53-.044.04-.005.078-.057.106-.096.03-.043.046-.096.081-.171.06.08.108.13.138.188.092.175.171.355.265.53.104.187.218.37.327.553.006.01.02.016.023.026.079.206.228.362.353.537.08.111.073.125-.043.238-.134-.08-.237-.022-.323.093a9.154 9.154 0 00-.24.338c-.043.062-.073.132-.117.194-.097.135-.212.251-.254.428-.026.107-.113.201-.178.296a3.188 3.188 0 00-.296.557c-.048.116-.081.214-.038.331.007.02.013.052.003.068-.03.045-.064.113-.105.12-.036.006-.097-.05-.125-.092-.056-.087-.099-.184-.144-.276-.145-.299-.329-.574-.502-.856-.229-.375-.43-.766-.647-1.15-.097-.171-.199-.34-.303-.507-.118-.185-.247-.364-.363-.55-.055-.089-.085-.19-.14-.278-.114-.182-.234-.358-.356-.541l-.003-.005z"/></g><defs><clipPath id="prefix__clip0_491_377"><path fill="#fff" d="M0 0h56.011v56.001H0z"/></clipPath></defs></svg>
