<svg width="130" height="15" viewBox="0 0 130 15" fill="none" xmlns="http://www.w3.org/2000/svg">
<g clip-path="url(#clip0_491_347)">
<path d="M130 12.0558C129.753 12.3206 129.406 12.7064 129.202 12.9882C129.159 13.0475 129.243 13.1994 129.202 13.2547C129.048 13.4593 128.455 14.0766 128.27 14.1871C128.212 14.2212 128.087 14.1497 128.004 14.1871C127.888 14.2399 127.832 14.4316 127.738 14.4535C127.074 14.6062 126.779 14.2025 126.673 14.1871C125.856 14.0677 125.38 14.1026 124.543 13.9207C124.301 13.8679 123.966 13.9816 123.744 13.9207C123.523 13.8598 123.007 13.3091 122.679 13.3879C122.146 12.7243 121.505 12.0055 121.747 11.1234C121.82 10.8602 122.941 10.1138 123.212 10.191C123.352 10.2308 124.037 10.6889 124.143 10.857C124.217 10.9723 124.152 11.2728 124.543 11.523C124.596 11.5571 124.725 11.484 124.809 11.523C124.924 11.5766 124.981 11.7683 125.075 11.7894C126.044 12.0063 127.104 11.4036 126.806 10.3242C126.525 9.3097 124.82 9.94242 124.277 9.39173C123.79 9.42991 121.835 8.48854 121.747 8.1929C121.824 7.53906 121.066 6.5514 121.215 6.06163C121.248 5.9536 121.458 5.89675 121.481 5.79522C121.536 5.55643 121.42 5.21773 121.481 4.99599C121.508 4.89772 121.695 4.8433 121.747 4.72959C121.785 4.64674 121.713 4.52084 121.747 4.46318C122.153 3.78091 123.04 3.27815 123.744 2.99793C123.858 2.95326 123.913 2.75345 124.01 2.73152C124.339 2.65842 126.074 2.65924 126.406 2.73152C126.599 2.77295 127.158 3.35287 127.471 3.26434C128.26 4.34541 130.168 4.73933 129.734 6.32804C129.673 6.5514 128.719 7.0436 128.536 6.99406L125.874 5.39561C125.168 5.38667 124.532 5.2088 124.41 6.06163C124.212 7.43591 124.597 6.81781 125.341 6.99406C126.045 7.16056 126.977 7.61297 127.738 7.79328C127.975 7.84933 128.314 7.73155 128.536 7.79328C128.664 7.82821 129.354 8.28386 129.468 8.4593L130 9.92455V12.0558Z" fill="#1C1E26"/>
<path d="M9.94 6.99487C10.3702 7.0631 10.1405 6.86005 10.2062 6.59526C10.4578 5.57674 10.6916 4.70685 11.2711 3.93118C11.4075 3.74924 12.3872 2.75508 12.4691 2.73234C12.6477 2.68279 13.6217 2.68279 13.8003 2.73234C13.9878 2.78432 14.4082 3.47633 14.5989 3.53156C15.0592 3.66396 15.7142 3.64771 16.0632 4.19759C16.1005 4.25607 16.0226 4.39089 16.0632 4.46399C16.577 5.39399 16.8976 6.23545 17.3943 7.12808L17.6605 9.12614L18.193 8.46012C18.5753 6.92908 19.8829 5.14464 20.8552 3.93118C21.0663 3.66802 21.8171 2.87285 22.0533 2.73234C22.1109 2.69823 22.2367 2.7697 22.3195 2.73234C22.4347 2.67955 22.4907 2.48705 22.5857 2.46593C22.8178 2.41395 23.6847 2.41395 23.9168 2.46593C24.0118 2.48705 24.0678 2.67955 24.1831 2.73234C24.2659 2.7697 24.3917 2.69823 24.4493 2.73234C24.7155 2.89072 24.9679 3.3342 25.248 3.53156C25.3032 3.57055 25.4468 3.48852 25.5142 3.53156C26.0686 3.88488 26.4038 5.53775 26.8453 5.66283C27.0823 5.73025 27.7 5.17712 28.1764 5.39642C28.5344 5.23479 28.5108 4.83274 28.5758 4.7304C28.6772 4.56958 29.4029 4.08712 29.5076 4.06438C30.0376 3.94986 30.7527 4.3048 31.1049 3.79797C31.2421 4.13911 31.7461 4.03839 31.7705 4.06438C31.8021 4.09849 31.8086 4.83031 31.7705 4.99681C31.7486 5.09184 31.2575 5.70426 31.238 5.79604C31.178 6.07544 31.1715 7.68526 31.238 7.9273C31.2502 7.97279 31.8581 8.58114 31.9036 8.59332C32.1292 8.65505 32.475 8.5316 32.7023 8.59332C32.807 8.62175 32.8638 8.83131 32.9685 8.85973C33.139 8.90522 33.3451 8.80937 33.501 8.85973C33.6089 8.89466 33.6633 9.09771 33.7672 9.12614C34.0659 9.20899 34.5553 8.70947 34.8321 8.59332C34.9757 8.53322 35.1852 8.63962 35.2314 8.59332C35.2777 8.54703 35.1714 8.33748 35.2314 8.19371C35.2915 8.04995 35.5926 8.00609 35.4976 7.66089C35.4692 7.55693 35.2663 7.50251 35.2314 7.39449C35.1795 7.23367 35.2826 7.0233 35.2314 6.86167C35.1981 6.75689 35.005 6.7041 34.9652 6.59526C34.8191 6.19321 34.9563 5.76274 34.2996 5.39642C34.0261 5.24373 33.6682 5.58242 33.9003 4.46399C33.9198 4.36815 34.1186 4.31211 34.1665 4.19759C34.2266 4.05382 34.1203 3.84427 34.1665 3.79797C34.2128 3.75168 34.4222 3.85808 34.5659 3.79797C34.7241 3.73137 35.2647 3.28709 35.3645 3.26516C35.9725 3.12952 36.1048 3.38374 36.4294 3.53156C36.5122 3.56893 36.638 3.49745 36.6957 3.53156C36.8418 3.61847 37.5406 4.31779 37.6274 4.46399C37.6615 4.52166 37.5901 4.64756 37.6274 4.7304C37.6802 4.84574 37.8726 4.90178 37.8937 4.99681C37.9562 5.27622 37.9562 6.58227 37.8937 6.86167C37.8709 6.96401 37.6567 7.02168 37.6274 7.12808C37.5309 7.47896 37.8693 7.55368 37.8937 7.66089C37.9416 7.87613 37.9464 8.80044 37.8937 8.99294C37.8604 9.11477 37.4846 9.34463 37.3612 9.52575C37.3182 9.58911 37.401 9.73693 37.3612 9.79216C37.1478 10.0862 36.4595 10.7685 36.1632 10.991C36.1096 11.0308 35.9603 10.9471 35.897 10.991C35.6235 11.1819 35.1697 11.6984 34.8321 11.7902C34.6105 11.8511 34.2753 11.7374 34.0334 11.7902C33.9287 11.813 33.8654 12.042 33.7672 12.0566C33.4044 12.1094 32.5172 12.1184 32.1698 12.0566C32.0708 12.0388 32.0124 11.8211 31.9036 11.7902C31.7315 11.7407 31.5156 11.8479 31.3711 11.7902C31.2673 11.7488 31.2145 11.575 31.1049 11.5238C31.0229 11.4856 30.8963 11.5579 30.8387 11.5238C30.3825 11.2517 30.2778 10.7124 30.1731 10.5914C29.4337 9.73612 28.3932 9.18868 28.5758 7.9273L28.1764 6.99487C28.0247 7.35063 27.5393 7.14513 27.5109 7.39449C27.4411 8.01259 27.7227 8.02152 27.7771 8.19371C27.8315 8.3659 27.7187 8.57952 27.7771 8.72653C28.0027 9.29265 28.5522 9.6882 28.842 10.325C28.8948 10.4403 29.0863 10.4964 29.1082 10.5914C29.3128 11.4816 28.5555 12.2767 27.9102 12.8559C27.773 12.5147 27.269 12.6154 27.2447 12.5895C27.1951 12.5367 27.3145 12.3157 27.2447 12.1898C26.9679 11.6944 25.9898 10.8456 25.6473 10.325C25.5743 10.2145 25.4549 9.63946 25.3811 9.52575C25.1741 9.20493 24.8291 9.01487 24.4493 9.12614C24.3202 9.16432 23.8016 9.60454 23.6506 9.65896C23.0995 9.85795 22.1117 9.95704 21.5208 10.1918C20.8098 10.4744 20.0834 11.0698 19.391 11.2574C19.1946 11.3102 18.7944 11.1997 18.7254 11.2574C18.6565 11.3151 19.4243 12.2353 19.2579 12.9891C19.2319 13.1068 18.8456 13.2238 18.9917 13.6551C18.5737 13.5828 16.6963 13.7558 16.5956 13.6551C16.5494 13.6088 16.6557 13.3992 16.5956 13.2555C16.5185 13.0703 16.1468 12.6463 16.0632 12.4562C15.3384 10.8034 14.702 9.16513 14.4658 7.39449C13.9391 6.74715 14.1566 5.19662 13.1347 6.32885C13.1761 7.362 12.3636 8.19777 12.0698 8.99294C11.9083 9.4291 11.9148 10.1885 11.8036 10.5914C11.7857 10.6547 10.9351 11.5059 10.8718 11.5238C10.2963 11.6822 10.1105 11.3955 9.80689 11.2574C9.7241 11.22 9.59829 11.2915 9.54066 11.2574C9.39944 11.1738 8.36538 10.1406 8.34265 10.0586C8.28015 9.83196 8.40515 9.48596 8.34265 9.25935C8.16327 8.60632 4.96694 5.78223 4.61549 4.7304C4.55381 4.54522 4.67475 4.1253 4.61549 4.06438C4.55137 3.99859 3.86227 4.21627 3.68371 3.79797L3.01814 4.7304C3.19671 5.17388 2.78438 5.41104 2.75192 5.52963C2.65533 5.88051 2.99704 5.9601 3.01814 6.06244C3.06765 6.30855 2.95564 6.64806 3.01814 6.86167C3.35904 8.0199 4.16746 9.48839 4.34927 10.5914C4.41664 10.9999 4.27784 11.5214 4.34927 11.9234C4.36713 12.0217 4.58222 12.0802 4.61549 12.1898C4.71127 12.5058 4.25512 13.5682 3.94993 13.6551C3.4191 13.8062 3.29005 13.4317 3.15125 13.3887C2.6602 13.2352 2.32173 13.8029 1.82013 13.6551C1.75682 13.6364 0.906195 12.786 0.888338 12.7227C0.84045 12.5562 0.938661 12.3482 0.888338 12.1898C0.749544 11.7553 0.721136 11.6213 0.622113 11.1242C0.437054 10.1966 0.446794 9.71013 0.355888 8.72653C0.346959 8.63069 0.096967 8.55515 0.089662 8.46012C0.0231057 7.55287 -0.0734822 4.95295 0.089662 4.19759C0.110765 4.10012 0.560427 3.55187 0.622113 3.39836C0.683799 3.24485 0.557992 3.01256 0.622113 2.86554C0.668378 2.75914 0.839639 2.70716 0.888338 2.59914C1.13914 2.0452 1.2406 1.50507 1.82013 1.13389C1.88019 1.09571 2.01817 1.1745 2.08635 1.13389C2.61312 0.820372 3.00678 0.442689 3.68371 0.601072C3.78597 0.624627 3.84279 0.836616 3.94993 0.867481C4.122 0.917026 4.33791 0.809813 4.48238 0.867481C5.22668 1.16475 7.64381 3.65746 8.34265 4.46399C8.38567 4.51354 8.29801 4.67761 8.34265 4.7304C8.94734 5.44597 9.89293 5.95279 9.94 6.99487ZM20.5882 7.7941C20.8877 8.04751 22.4096 7.13051 22.8511 7.26128C24.0037 6.47262 23.2229 6.02265 22.5849 5.13002C22.3495 5.13002 22.5159 5.3883 22.3187 5.66283C22.02 6.07869 21.4559 6.44338 21.1207 6.86167C20.9729 7.04604 20.5395 7.75268 20.5882 7.7941Z" fill="#1C1E26"/>
<path d="M64.7792 2.46593C64.6323 2.89235 65.0276 3.0288 65.0455 3.13195C65.1388 3.67776 65.1412 5.78954 65.0455 6.32885C65.0146 6.50185 64.3856 6.94776 65.0455 7.39448L65.3117 9.12614L65.8441 8.46012C65.3661 8.10924 65.737 8.1596 65.8441 7.9273C65.8831 7.84283 65.81 7.7145 65.8441 7.66089C65.9139 7.55043 66.4594 7.00949 66.5097 6.99487C67.043 6.84136 67.267 7.34575 67.5746 7.26128C67.6347 7.24504 68.1403 6.72765 68.2402 6.59526C69.0835 5.48089 70.0664 4.26256 71.3018 3.53156C71.8975 3.17906 72.3943 2.78757 73.1653 2.99875C73.4681 3.08159 73.9267 4.14804 73.8309 4.46399C73.8009 4.56308 73.6174 4.61669 73.5647 4.7304C73.5265 4.81244 73.5988 4.93914 73.5647 4.99681C73.3618 5.33794 72.2133 6.39951 71.8342 6.72846C71.1727 7.3027 70.0339 7.91593 69.4382 8.59332C69.2028 8.86136 68.935 8.94339 69.0388 9.39255L70.5031 9.65896C70.7758 10.0171 71.6321 10.009 72.1004 9.92536C72.1451 9.91724 72.7481 9.71338 72.8991 9.65896C73.0038 9.62078 73.0558 9.43803 73.1653 9.39255C73.3017 9.33569 73.7814 9.51113 73.5647 8.99294C73.5168 8.8776 73.3147 8.81993 73.2984 8.72653C73.158 7.9273 73.5095 7.49276 73.5647 7.12808C73.6272 6.71466 73.4941 6.19808 73.5647 5.79603C73.5809 5.70263 73.783 5.64496 73.8309 5.52963C73.891 5.38586 73.7846 5.17631 73.8309 5.13001C73.8772 5.08372 74.0874 5.19012 74.2302 5.13001C74.5841 4.98138 75.0346 4.44125 75.5614 4.5972C75.6076 4.611 76.2139 5.21773 76.2269 5.26322C76.2732 5.42566 76.1823 5.62872 76.2269 5.79603C76.2562 5.90487 76.4932 5.97553 76.4932 6.06244C76.4932 6.14935 76.244 6.22651 76.2269 6.32885C76.1352 6.87873 76.067 7.20524 75.9607 7.66089C75.8105 8.3058 76.1474 8.47799 76.2269 8.72653C76.2773 8.88491 76.179 9.09284 76.2269 9.25934C76.2407 9.30726 76.7886 9.86364 76.8925 9.92536C76.9501 9.95948 77.0759 9.888 77.1587 9.92536C77.274 9.97816 77.33 10.1698 77.4249 10.1918C78.028 10.3307 78.1684 10.0716 78.4898 9.92536C78.5726 9.888 78.6984 9.95948 78.7561 9.92536C79.0255 9.76454 79.2755 9.31051 79.5547 9.12614C79.6651 9.05304 80.2398 8.93283 80.3534 8.85973C81.2941 8.25219 80.3331 7.93217 79.9541 7.39448C79.9135 7.33763 79.9963 7.19143 79.9541 7.12808C79.7382 6.80644 79.3502 6.48317 79.1554 6.06244C79.2244 5.57186 79.0564 4.90828 79.1554 4.46399C79.1765 4.36977 79.3681 4.31292 79.4216 4.19758C79.4606 4.11311 79.3875 3.98397 79.4216 3.93118C79.7569 3.40729 80.0271 3.63065 80.3534 3.53156C80.4597 3.49907 80.5141 3.29521 80.6196 3.26515C80.9216 3.17743 81.9005 3.88894 82.0839 4.19758C82.3599 4.66136 82.2454 5.14707 82.3501 5.52963C82.3948 5.69369 83.0644 5.9601 83.415 6.59526C83.7657 7.23042 84.1358 7.60647 83.9475 8.46012C83.9264 8.55759 83.7259 8.61282 83.6812 8.72653C83.6106 8.90522 83.4881 9.41529 83.415 9.52575C82.8412 10.3932 80.9183 11.8316 80.0872 12.323C79.9062 12.4303 79.4038 12.8242 79.2885 12.8559C79.0669 12.9168 78.7317 12.8031 78.4898 12.8559C78.3851 12.8786 78.3218 13.1076 78.2236 13.1223C77.8608 13.1751 76.9737 13.184 76.6263 13.1223C76.5272 13.1044 76.4688 12.8867 76.36 12.8559C76.188 12.8063 75.9721 12.9135 75.8276 12.8559C75.4096 12.6894 74.3666 11.6806 73.964 11.7902C73.8431 11.8235 73.3171 12.267 73.1653 12.323C72.5639 12.5456 71.4836 12.6788 70.7693 12.5894C70.6719 12.5773 70.6054 12.3409 70.5031 12.323C70.1768 12.2654 69.7417 12.3929 69.4382 12.323C69.3343 12.2995 69.2758 12.081 69.172 12.0566C68.7572 11.9584 68.301 12.0639 67.8408 11.7902C67.5754 11.6318 66.8961 10.7246 66.7759 10.7246C66.7288 10.7246 66.1225 11.3451 66.1104 11.3906C66.0227 11.7074 66.5998 12.2572 66.6428 12.4562C66.7629 13.0126 66.5584 13.8468 66.6428 14.4543C66.0609 14.5388 65.5284 14.8905 64.9123 14.7207C64.8669 14.7085 64.2598 14.1002 64.2468 14.0547C63.8823 12.7836 63.9294 13.4195 63.0488 12.8559C62.8978 12.7592 62.3832 11.9811 62.3832 11.9234C62.3832 11.6936 63.1819 10.9244 63.1819 10.8578C63.1819 10.7701 62.9449 10.701 62.9157 10.5914C62.8101 10.1966 62.7485 9.65896 62.6494 9.25934C62.2452 7.62434 62.2314 5.84477 61.8508 4.19758C61.8272 4.09768 61.4311 3.92793 61.5845 3.39836C61.6243 3.26028 61.9952 3.1685 61.8508 2.73234C62.7168 2.57152 63.1372 2.02895 64.1137 2.19952C64.2184 2.21739 64.3523 2.61294 64.7792 2.46593Z" fill="#1C1E26"/>
<path d="M108.438 10.7238L110.035 8.99212C110.057 8.32529 110.692 6.94289 111.1 6.32803C111.275 6.06325 113.456 3.84508 113.629 3.79716C113.968 3.70375 114.554 3.85645 114.96 3.79716C115.059 3.78254 115.124 3.54943 115.227 3.53075C115.468 3.48689 116.05 3.48689 116.291 3.53075C116.39 3.54862 116.451 3.76792 116.558 3.79716C116.754 3.84995 117.168 3.74192 117.223 3.79716C117.273 3.8467 117.153 4.07087 117.223 4.19677C117.326 4.38114 117.654 4.54602 117.756 4.72958C118.183 5.50688 118.476 6.57333 118.821 7.39367C119.274 8.4723 119.881 9.37305 120.418 10.3242C120.745 10.9033 121.414 11.7472 121.217 12.4554C121.059 13.0224 120.039 13.2441 119.486 13.1215C119.389 13.1003 119.334 12.8997 119.22 12.855C118.542 12.5854 117.918 12.3027 117.489 11.6562C117.455 11.605 116.973 10.6499 116.957 10.5906C116.872 10.2787 117.096 9.54037 116.558 9.39173C116.257 9.30807 115.77 9.81084 115.493 9.92455C114.129 10.4809 113.001 11.0795 111.499 11.523C111.23 11.6026 110.429 12.7828 110.168 12.855C109.801 12.9566 109.633 12.509 109.37 12.3222C109.315 12.2832 109.172 12.3653 109.103 12.3222C108.685 12.0566 108.714 11.4946 108.305 11.2566C108.06 11.1145 108.229 11.7317 108.172 11.7894C108.125 11.8357 107.916 11.7293 107.772 11.7894C107.657 11.8373 107.599 12.0396 107.506 12.0558C107.137 12.1208 106.01 12.1208 105.642 12.0558C105.543 12.0379 105.482 11.8154 105.376 11.7894C103.173 11.2436 102.263 10.8034 100.983 8.99212C100.766 8.68429 100.324 8.5722 100.451 8.05969C99.7124 8.24163 100.021 8.82318 99.9186 9.25853C99.8934 9.36412 99.6669 9.42666 99.6523 9.52494C99.5825 10.0058 99.7627 10.723 99.6523 11.1234C99.6296 11.2054 98.5988 12.2353 98.4543 12.3222C98.3951 12.358 98.266 12.2832 98.1881 12.3222C98.025 12.4043 97.9949 12.682 97.6556 12.5886C97.5518 12.5602 97.4974 12.3572 97.3894 12.3222C97.232 12.2711 97.0242 12.3701 96.857 12.3222C96.7279 12.2857 96.1914 11.4475 96.1914 11.3898C96.1914 11.3005 96.4406 11.2257 96.4576 11.1234C96.538 10.6393 96.3594 9.97897 96.4576 9.52494C96.4795 9.42422 96.9584 8.84267 96.9901 8.72571C97.2717 7.69175 97.3505 6.3524 97.7888 5.2624C97.8529 5.10402 98.2262 4.34459 98.3212 4.19677C98.4697 3.9661 99.2903 3.46496 99.5192 3.53075C99.9421 3.7338 100.253 4.09768 100.584 4.32997C101.817 5.19417 101.548 5.57267 102.315 6.59444C102.863 7.32544 104.264 8.5722 104.977 8.99212C106.493 9.88475 105.402 8.83374 105.509 8.4593C105.769 7.55449 106 5.20067 105.776 4.19677C105.751 4.08955 105.413 4.01483 105.509 3.66395C105.527 3.6006 106.378 2.74939 106.441 2.73152C107.016 2.57314 108.267 2.77944 108.438 3.39754C108.508 3.65339 108.491 4.94482 108.438 5.2624C108.421 5.36474 108.172 5.44028 108.172 5.52881C108.172 5.61734 108.421 5.69288 108.438 5.79522C108.676 7.2296 108.027 8.56976 108.172 9.79134C108.22 10.2048 108.512 10.303 108.438 10.7238ZM115.625 7.79409C115.736 7.69581 114.636 6.19645 114.427 6.19564C114.199 6.19483 113.868 7.24422 113.495 7.39448C113.637 7.84039 112.339 9.04735 112.43 9.12614C112.802 9.44615 113.421 8.38377 113.628 8.32691C113.854 8.26518 114.201 8.38864 114.427 8.32691C114.675 8.2595 115.179 7.67145 115.625 7.79409Z" fill="#1C1E26"/>
<path d="M44.8131 8.59252C45.5696 8.64775 46.0039 9.30483 46.8098 9.12533C46.9032 9.10421 47.5176 8.61201 47.6085 8.59252C48.1401 8.47718 49.1685 8.66562 49.339 9.25854C49.3869 9.42585 49.2878 9.63378 49.339 9.79135C49.3739 9.89857 49.5727 9.95217 49.6052 10.0578C49.714 10.4143 49.287 11.3021 48.9396 11.523C48.8869 11.5563 48.7586 11.484 48.6734 11.523C48.5582 11.5758 48.5013 11.7683 48.4072 11.7894C48.0817 11.8625 46.3431 11.8609 46.0112 11.7894C45.7011 11.7228 45.1954 11.1478 44.9463 10.9902C44.2352 10.5418 43.2369 10.1309 42.5502 9.65815C42.3278 9.50464 41.6428 8.55109 41.3522 8.85892C41.2832 8.93202 41.5121 9.59236 41.086 9.79135C41.327 10.3981 41.5129 11.471 41.3522 12.189C41.3311 12.2841 41.1387 12.3401 41.086 12.4554C41.0486 12.5383 41.1201 12.6642 41.086 12.7218C41.0129 12.8453 40.2175 13.6356 40.1542 13.6543C39.7013 13.7891 38.7671 13.0029 38.69 12.7218C38.5739 12.3003 38.6072 9.02624 38.69 8.45931C38.7046 8.36022 38.9359 8.29605 38.9562 8.1929C39.25 6.72278 39.1128 5.04474 39.4886 3.66396C39.5162 3.56243 39.7151 3.50801 39.7549 3.39755C40.1932 2.18978 40.9983 1.35482 42.0178 0.600264C42.5218 0.658744 43.1419 0.515793 43.6151 0.600264C43.715 0.618133 43.775 0.839869 43.8814 0.866672C44.4406 1.00637 45.2807 1.12333 45.7449 1.39949C46.2969 1.72844 46.8545 2.48137 46.6767 3.13114C46.8382 3.42842 47.4283 4.25038 47.4754 4.46319C47.6694 5.33389 46.8593 6.02021 46.6767 6.86086L44.8131 8.59252ZM41.6192 6.46206C41.9861 6.78857 44.4422 4.5371 44.5477 4.19759C44.6273 3.94093 44.021 3.30333 43.8822 3.26516C43.3457 3.11815 42.3019 3.38456 42.1517 3.93118C42.0908 4.15373 42.2069 4.49243 42.1517 4.73041C42.1273 4.83518 41.9066 4.89447 41.8855 4.99681C41.7873 5.47765 42.047 5.96579 41.6192 6.46206Z" fill="#1C1E26"/>
<path d="M94.0624 3.53156C94.1087 3.57785 94.0024 3.78741 94.0624 3.93117C94.1282 4.08874 94.5738 4.63374 94.5949 4.7304C94.6939 5.18849 94.4959 5.87157 94.5949 6.32885C94.6428 6.5514 95.3457 7.43834 95.3936 7.66089C95.5072 8.18721 95.2946 8.971 95.3936 9.52575C95.4114 9.62403 95.6265 9.68251 95.6598 9.79216C95.8189 10.3144 95.2945 10.7238 95.1273 11.1242C95.0673 11.268 95.1736 11.4775 95.1273 11.5238C95.0811 11.5701 94.8717 11.4637 94.728 11.5238C94.6127 11.5717 94.5551 11.774 94.4618 11.7902C94.2085 11.8349 93.3401 11.8479 93.1307 11.7902C92.9846 11.7496 92.7467 11.2996 92.5982 11.2574C90.6746 10.7051 90.1218 10.5816 88.3386 9.39254C88.2785 9.35274 87.8508 9.26909 87.673 9.12613C87.8175 9.5623 87.4466 9.65489 87.4068 9.79216C87.3459 10.0041 87.4498 10.3396 87.4068 10.5914C87.389 10.6937 87.1406 10.7693 87.1406 10.8578C87.1406 10.922 87.6243 11.7553 87.673 11.9234C87.751 12.1931 87.0067 13.3123 86.7412 13.3887C86.0919 13.5755 86.0181 13.0467 85.6763 12.8559C85.5814 12.8031 85.2527 12.6349 85.1439 12.5894C85.0002 12.5293 84.7908 12.6357 84.7446 12.5894C84.6983 12.5431 84.8046 12.3336 84.7446 12.1898C84.6967 12.0745 84.4946 12.0168 84.4783 11.9234C84.4248 11.6188 84.4313 10.9065 84.4783 10.5914C84.4929 10.4915 84.734 10.4216 84.7446 10.325C84.8428 9.40067 84.6147 8.28549 84.7446 7.39448C84.7592 7.2962 84.9881 7.23285 85.0108 7.12807C85.0635 6.88684 84.9499 6.54977 85.0108 6.32885C85.0376 6.23057 85.2251 6.17615 85.277 6.06244C85.3143 5.97959 85.2429 5.8537 85.277 5.79603C85.6625 5.14788 86.5643 4.93426 87.2737 5.13001C87.4474 5.17793 88.0529 5.98365 88.3386 6.19564C88.3962 6.23869 88.548 6.15341 88.6048 6.19564C89.7915 7.08259 90.8499 8.26518 92.4651 8.59332C92.5519 8.51616 91.9562 7.76973 91.9326 7.66089C91.8653 7.349 92 6.90715 91.9326 6.59525C91.8848 6.37271 91.1819 5.48576 91.134 5.26321C90.983 4.56795 91.2525 3.91899 91.4002 3.26515C91.9797 3.43084 92.3799 2.85498 92.8644 2.99874C92.9975 3.03854 93.4951 3.46171 93.6631 3.53156C93.8068 3.59166 94.0162 3.48526 94.0624 3.53156Z" fill="#1C1E26"/>
<path d="M51.735 3.79797C51.8072 4.68086 52.709 5.37368 52.5337 6.32885C53.2009 7.22392 53.0677 8.83131 53.3323 9.79216C53.3989 10.0334 54.4468 10.7603 54.6635 11.1242C54.6976 11.1819 54.6261 11.3078 54.6635 11.3906C54.7162 11.5059 54.9086 11.562 54.9297 11.657C54.9825 11.8926 54.9873 13.0459 54.9297 13.2555C54.7917 13.7574 53.8802 14.1237 53.3323 13.7883C53.0905 13.6397 52.2009 12.7218 52.0012 12.4562C51.9071 12.3312 51.6019 11.8682 51.4688 11.657C50.5491 10.1934 50.3649 8.53972 49.8714 6.86167C49.8251 6.70572 48.8471 5.67664 48.8065 5.52963C48.7489 5.31926 48.7619 4.451 48.8065 4.19759C48.8227 4.10418 49.0248 4.04651 49.0727 3.93118C49.1328 3.78742 49.0265 3.57786 49.0727 3.53157C49.119 3.48527 49.3284 3.59167 49.4721 3.53157C49.5833 3.48527 49.6368 3.29602 49.7383 3.26516C50.2569 3.10759 50.3949 3.48527 50.537 3.53157C50.7001 3.58517 50.9152 3.47552 51.0694 3.53157C51.2236 3.58761 51.2959 3.93849 51.735 3.79797Z" fill="#1C1E26"/>
</g>
<defs>
<clipPath id="clip0_491_347">
<rect width="130" height="14.2027" fill="white" transform="translate(0 0.563751)"/>
</clipPath>
</defs>
</svg>
