<svg class="is-biggest" viewBox="0 0 130 15" width="130" height="15" fill="none" xmlns="http://www.w3.org/2000/svg"><g clip-path="url(#prefix__clip0_491_347)" fill="#1C1E26"><path d="M130 12.056c-.247.265-.594.65-.798.932-.043.06.041.211 0 .267-.154.204-.747.822-.932.932-.058.034-.183-.037-.266 0-.116.053-.172.245-.266.267-.664.152-.959-.252-1.065-.267-.817-.12-1.293-.084-2.13-.266-.242-.053-.577.06-.799 0-.221-.061-.737-.612-1.065-.533-.533-.664-1.174-1.383-.932-2.265.073-.263 1.194-1.01 1.465-.932.14.04.825.498.931.666.074.115.009.416.4.666.053.034.182-.039.266 0 .115.054.172.245.266.266.969.217 2.029-.385 1.731-1.465-.281-1.014-1.986-.382-2.529-.932-.487.038-2.442-.903-2.53-1.2.077-.653-.681-1.64-.532-2.13.033-.108.243-.165.266-.267.055-.239-.061-.577 0-.799.027-.098.214-.153.266-.266.038-.083-.034-.21 0-.267.406-.682 1.293-1.185 1.997-1.465.114-.045.169-.245.266-.266.329-.074 2.064-.073 2.396 0 .193.04.752.62 1.065.532.789 1.081 2.697 1.475 2.263 3.064-.061.223-1.015.716-1.198.666l-2.662-1.598c-.706-.01-1.342-.187-1.464.666-.198 1.374.187.756.931.932.704.167 1.636.619 2.397.8.237.055.576-.062.798 0 .128.034.818.49.932.665L130 9.925v2.13zM9.94 6.995c.43.068.2-.135.266-.4.252-1.018.486-1.888 1.065-2.664.136-.182 1.116-1.176 1.198-1.199.179-.05 1.153-.05 1.331 0 .188.052.608.744.799.8.46.132 1.115.116 1.464.666.038.058-.04.193 0 .266.514.93.835 1.771 1.331 2.664l.267 1.998.532-.666c.382-1.53 1.69-3.315 2.662-4.529.211-.263.962-1.058 1.198-1.199.058-.034.184.038.267 0 .115-.052.17-.245.266-.266.232-.052 1.099-.052 1.33 0 .096.021.152.214.267.266.083.038.209-.034.266 0 .266.159.519.602.799.8.055.039.199-.043.266 0 .555.353.89 2.006 1.331 2.13.237.068.855-.485 1.331-.266.358-.161.335-.563.4-.666.101-.16.827-.643.932-.666.53-.114 1.245.24 1.597-.266.137.341.641.24.665.266.032.034.039.766 0 .933-.021.095-.512.707-.532.799-.06.28-.066 1.89 0 2.131.012.046.62.654.666.666.225.062.571-.061.798 0 .105.029.162.238.267.267.17.045.376-.05.532 0 .108.035.162.238.266.266.299.083.788-.417 1.065-.533.144-.06.353.047.4 0 .046-.046-.06-.256 0-.4.06-.143.36-.187.266-.532-.029-.104-.232-.158-.267-.267-.052-.16.052-.37 0-.532-.033-.105-.226-.158-.266-.267-.146-.402-.009-.832-.665-1.199-.274-.152-.632.186-.4-.932.02-.096.219-.152.267-.266.06-.144-.047-.354 0-.4.046-.046.255.06.399 0 .158-.067.699-.51.798-.533.608-.135.74.119 1.065.267.083.037.209-.035.267 0 .146.086.845.786.931.932.034.058-.037.184 0 .266.053.116.246.172.267.267.062.28.062 1.585 0 1.865-.023.102-.237.16-.267.266-.096.351.242.426.267.533.048.215.052 1.14 0 1.332-.034.122-.41.352-.533.533-.043.063.04.21 0 .266-.213.294-.901.976-1.198 1.199-.053.04-.203-.044-.266 0-.273.19-.727.707-1.065.8-.221.06-.557-.054-.799 0-.104.022-.168.251-.266.266-.363.052-1.25.061-1.597 0-.1-.018-.158-.236-.266-.267-.172-.05-.388.058-.533 0-.104-.041-.156-.215-.266-.266-.082-.038-.209.034-.266 0-.456-.272-.561-.812-.666-.933-.74-.855-1.78-1.402-1.597-2.664l-.4-.932c-.151.356-.637.15-.665.4-.07.618.212.627.266.799.054.172-.058.386 0 .533.226.566.775.961 1.065 1.598.053.115.244.171.266.266.205.89-.553 1.686-1.198 2.265-.137-.341-.641-.24-.665-.267-.05-.052.07-.273 0-.4-.277-.495-1.255-1.343-1.598-1.864-.073-.11-.192-.686-.266-.8-.207-.32-.552-.51-.932-.399-.129.038-.647.479-.798.533-.552.199-1.54.298-2.13.533-.711.282-1.438.878-2.13 1.065-.196.053-.597-.057-.666 0-.069.058.7.978.533 1.732-.026.118-.412.235-.266.666-.418-.072-2.296.1-2.396 0-.047-.046.06-.256 0-.4-.078-.185-.45-.609-.533-.799-.725-1.653-1.361-3.29-1.597-5.062-.527-.647-.31-2.197-1.331-1.065.041 1.033-.771 1.869-1.065 2.664-.162.436-.155 1.195-.266 1.598-.018.064-.869.915-.932.933-.576.158-.761-.128-1.065-.267-.083-.037-.209.034-.266 0-.142-.083-1.176-1.116-1.198-1.198-.063-.227.062-.573 0-.8-.18-.653-3.376-3.477-3.728-4.529-.061-.185.06-.605 0-.666-.064-.065-.753.152-.931-.266l-.666.932c.179.444-.234.681-.266.8-.097.35.245.43.266.532.05.247-.062.586 0 .8.341 1.158 1.15 2.626 1.331 3.73.068.408-.071.93 0 1.331.018.099.233.157.266.267.096.316-.36 1.378-.665 1.465-.53.151-.66-.223-.799-.266-.49-.154-.83.414-1.33.266-.064-.019-.915-.869-.933-.932-.048-.167.05-.375 0-.533a7.481 7.481 0 01-.266-1.066C.437 10.197.447 9.71.356 8.727.347 8.63.097 8.555.09 8.46c-.067-.907-.163-3.507 0-4.262.02-.098.47-.646.532-.8.062-.153-.064-.385 0-.532.046-.107.218-.159.266-.267.251-.554.353-1.094.932-1.465.06-.038.198.04.266 0C2.613.82 3.006.443 3.684.6c.102.024.159.236.266.266.172.05.388-.057.532 0 .745.298 3.162 2.79 3.86 3.597.044.05-.044.214 0 .266.605.716 1.55 1.223 1.598 2.265zm10.648.8c.3.253 1.822-.664 2.263-.534 1.153-.788.372-1.238-.266-2.131-.236 0-.07.258-.266.533-.299.416-.863.78-1.198 1.199-.148.184-.581.89-.533.932zM64.78 2.466c-.148.426.248.563.266.666.093.546.095 2.658 0 3.197-.031.173-.66.619 0 1.065l.266 1.732.532-.666c-.478-.35-.107-.3 0-.533.04-.084-.034-.212 0-.266.07-.11.615-.652.666-.666.533-.154.757.35 1.065.266.06-.016.565-.533.665-.666.844-1.114 1.826-2.332 3.062-3.063.595-.353 1.092-.744 1.863-.533.303.083.762 1.149.666 1.465-.03.1-.214.153-.266.266-.038.082.034.21 0 .267-.203.34-1.352 1.403-1.73 1.731-.662.575-1.801 1.188-2.397 1.865-.235.268-.503.35-.4.8l1.465.266c.273.358 1.13.35 1.597.266.045-.008.648-.212.8-.266.104-.038.156-.221.265-.266.137-.057.616.118.4-.4-.048-.115-.25-.173-.267-.266-.14-.8.212-1.234.267-1.599.062-.413-.07-.93 0-1.332.016-.093.218-.151.266-.266.06-.144-.046-.354 0-.4.046-.046.256.06.4 0 .353-.149.804-.689 1.33-.533.047.014.653.62.666.666.046.163-.045.366 0 .533.03.109.266.18.266.266 0 .087-.249.165-.266.267-.092.55-.16.876-.266 1.332-.15.645.186.817.266 1.066.05.158-.048.366 0 .532.014.048.562.605.665.666.058.034.184-.037.267 0 .115.053.171.245.266.267.603.139.743-.12 1.065-.267.083-.037.208.034.266 0 .27-.16.52-.614.799-.799.11-.073.685-.193.798-.266.941-.608-.02-.928-.399-1.466-.04-.056.042-.203 0-.266-.216-.322-.604-.645-.799-1.066.07-.49-.099-1.154 0-1.598.022-.094.213-.151.267-.266.039-.085-.034-.214 0-.267.335-.524.605-.3.931-.4.107-.032.161-.236.267-.266.302-.088 1.28.624 1.464.933.276.463.161.95.266 1.332.045.164.714.43 1.065 1.065.35.635.72 1.011.532 1.865-.02.098-.221.153-.266.267-.07.178-.193.688-.266.799-.574.867-2.497 2.306-3.328 2.797-.18.107-.683.501-.799.533-.221.06-.556-.053-.798 0-.105.023-.168.252-.266.266-.363.053-1.25.062-1.598 0-.099-.018-.157-.235-.266-.266-.172-.05-.388.058-.532 0-.418-.167-1.461-1.175-1.864-1.066-.12.034-.647.477-.799.533-.601.223-1.681.356-2.396.266-.097-.012-.164-.248-.266-.266-.326-.058-.761.07-1.065 0-.104-.024-.162-.242-.266-.266-.415-.099-.871.007-1.331-.267-.266-.158-.945-1.065-1.065-1.065-.047 0-.653.62-.666.666-.087.316.49.866.533 1.065.12.557-.085 1.39 0 1.998-.582.085-1.115.436-1.73.267-.046-.012-.653-.62-.666-.666-.365-1.271-.318-.636-1.198-1.2-.151-.096-.666-.874-.666-.932 0-.23.799-.999.799-1.065 0-.088-.237-.157-.266-.267-.106-.394-.167-.932-.267-1.332-.404-1.635-.418-3.414-.798-5.061-.024-.1-.42-.27-.267-.8.04-.138.411-.23.267-.666.866-.16 1.286-.703 2.263-.532.104.017.238.413.665.266zM108.438 10.724l1.597-1.732c.022-.667.657-2.05 1.065-2.664.175-.265 2.356-2.483 2.529-2.53.339-.094.925.058 1.331 0 .099-.015.164-.249.267-.267a4.318 4.318 0 011.064 0c.099.018.16.237.267.266.196.053.61-.055.665 0 .05.05-.07.274 0 .4.103.184.431.349.533.533.427.777.72 1.843 1.065 2.664.453 1.078 1.06 1.979 1.597 2.93.327.58.996 1.423.799 2.131-.158.567-1.178.79-1.731.666-.097-.02-.152-.221-.266-.266-.678-.27-1.302-.552-1.731-1.199a23.978 23.978 0 01-.532-1.065c-.085-.312.139-1.05-.399-1.2-.301-.083-.788.42-1.065.534-1.364.556-2.492 1.154-3.994 1.598-.269.08-1.07 1.26-1.331 1.332-.367.102-.535-.346-.798-.533-.055-.039-.198.043-.267 0-.418-.265-.389-.827-.798-1.065-.245-.143-.076.475-.133.532-.047.047-.256-.06-.4 0-.115.048-.173.25-.266.267-.369.065-1.496.065-1.864 0-.099-.018-.16-.24-.266-.267-2.203-.545-3.113-.986-4.393-2.797-.217-.308-.659-.42-.532-.932-.739.182-.43.763-.532 1.199-.026.105-.252.168-.267.266-.07.48.11 1.198 0 1.598-.022.082-1.053 1.112-1.198 1.2-.059.035-.188-.04-.266 0-.163.081-.193.359-.532.266-.104-.029-.159-.232-.267-.267-.157-.05-.365.048-.532 0-.13-.036-.666-.874-.666-.932 0-.09.25-.164.267-.267.08-.484-.099-1.144 0-1.598.022-.1.5-.682.532-.8.282-1.033.36-2.373.799-3.463.064-.158.437-.917.532-1.065.149-.23.97-.732 1.198-.666.423.203.734.567 1.065.799 1.233.864.964 1.243 1.731 2.264.548.731 1.949 1.978 2.662 2.398 1.516.893.425-.158.532-.533.26-.905.491-3.258.267-4.262-.025-.107-.363-.182-.267-.533.018-.063.869-.915.932-.932.575-.159 1.826.047 1.997.666.07.255.053 1.547 0 1.864-.017.103-.266.178-.266.267 0 .088.249.164.266.266.238 1.435-.411 2.775-.266 3.996.048.414.34.512.266.933zm7.187-2.93c.111-.098-.989-1.598-1.198-1.598-.228-.001-.559 1.048-.932 1.198.142.446-1.156 1.653-1.065 1.732.372.32.991-.742 1.198-.8.226-.06.573.063.799 0 .248-.067.752-.655 1.198-.532zM44.813 8.593c.757.055 1.19.712 1.997.532.093-.02.708-.513.798-.532.532-.116 1.56.073 1.731.666.048.167-.051.375 0 .532.035.108.234.161.266.267.109.356-.318 1.244-.665 1.465-.053.033-.181-.039-.267 0-.115.053-.172.245-.266.266-.325.074-2.064.072-2.396 0-.31-.066-.816-.641-1.065-.799-.71-.448-1.71-.86-2.396-1.332-.222-.153-.907-1.107-1.198-.8-.069.074.16.734-.266.933.241.607.427 1.68.266 2.398-.02.095-.213.151-.266.266-.037.083.034.21 0 .267-.073.123-.868.914-.932.932-.453.135-1.387-.651-1.464-.932-.116-.422-.083-3.696 0-4.263.015-.099.246-.163.266-.266.294-1.47.157-3.148.533-4.529.027-.102.226-.156.266-.266.438-1.208 1.243-2.043 2.263-2.798.504.059 1.124-.084 1.597 0 .1.018.16.24.266.267.56.14 1.4.256 1.864.532.552.33 1.11 1.082.932 1.732.161.297.751 1.12.798 1.332.194.87-.616 1.557-.798 2.398l-1.864 1.732zm-3.194-2.13c.367.326 2.823-1.926 2.929-2.265.08-.257-.527-.895-.666-.933-.536-.147-1.58.12-1.73.666-.061.223.055.561 0 .8-.025.104-.245.163-.267.266-.098.48.162.969-.266 1.465zM94.062 3.532c.047.046-.06.255 0 .4.066.157.512.702.533.798.099.458-.1 1.142 0 1.599.048.222.75 1.11.799 1.332.113.526-.1 1.31 0 1.865.017.098.232.157.266.266.159.522-.365.932-.533 1.332-.06.144.047.353 0 .4-.046.046-.255-.06-.399 0-.115.048-.173.25-.266.266-.254.045-1.122.058-1.331 0-.146-.04-.384-.49-.533-.533-1.923-.552-2.476-.675-4.26-1.864-.06-.04-.487-.124-.665-.267.144.436-.226.529-.266.666-.061.212.043.548 0 .8-.018.102-.266.177-.266.266 0 .064.483.897.532 1.065.078.27-.666 1.39-.932 1.466-.65.187-.723-.342-1.065-.533a9.269 9.269 0 00-.532-.267c-.144-.06-.353.047-.4 0-.046-.046.06-.255 0-.4-.047-.114-.25-.172-.266-.266-.053-.304-.047-1.017 0-1.332.015-.1.256-.17.267-.266.098-.924-.13-2.04 0-2.93.014-.099.243-.162.266-.267.053-.241-.061-.578 0-.8.027-.097.214-.152.266-.266.037-.082-.034-.208 0-.266.385-.648 1.287-.862 1.997-.666.173.048.779.854 1.065 1.066.057.043.209-.043.266 0 1.186.887 2.245 2.07 3.86 2.397.087-.077-.509-.823-.532-.932-.068-.312.067-.754 0-1.066-.048-.222-.751-1.11-.799-1.332-.151-.695.118-1.344.266-1.998.58.166.98-.41 1.464-.266.133.04.631.463.8.533.143.06.352-.047.398 0zM51.735 3.798c.072.883.974 1.576.799 2.53.667.896.534 2.503.798 3.464.067.241 1.115.968 1.331 1.332.035.058-.037.184 0 .267.053.115.246.171.267.266.053.236.057 1.389 0 1.598-.138.502-1.05.869-1.598.533-.242-.148-1.131-1.066-1.33-1.332-.095-.125-.4-.588-.533-.799-.92-1.464-1.104-3.117-1.598-4.795-.046-.156-1.024-1.185-1.065-1.332-.057-.21-.044-1.079 0-1.332.017-.094.219-.151.267-.267.06-.144-.047-.353 0-.4.046-.046.255.06.4 0 .11-.046.164-.235.265-.266.519-.157.657.22.799.267.163.053.378-.056.532 0 .155.056.227.406.666.266z"/></g><defs><clipPath id="prefix__clip0_491_347"><path fill="#fff" transform="translate(0 .564)" d="M0 0h130v14.203H0z"/></clipPath></defs></svg>
