<svg enable-background="new 0 0 1920 1198" viewBox="0 0 1920 1198" xmlns="http://www.w3.org/2000/svg"><path fill="currentColor" d="m1273.9 311.7c0-89.7 8.5-121 55-169.3h-220.1c46.6 48.2 55 79.6 55 169.3v295.7c0 89.7-8.5 121-55 169.3h220.1c-46.6-48.2-55-79.6-55-169.3z"></path><path d="m1722.5 311.7c0-89.7 8.5-121 55-169.3h-220.1c46.6 48.2 55 79.6 55 169.3v295.7c0 89.7-8.5 121-55 169.3h220.1c-46.6-48.2-55-79.6-55-169.3z"></path><path d="m1443.2 601.8c28.8-86.3 57.6-115.1 143.9-143.9-86.3-28.8-115.1-57.6-143.9-143.9-28.8 86.3-57.6 115.1-143.9 143.9 86.3 28.8 115.1 57.6 143.9 143.9z"></path><path d="m284.9 634.2c-28.5 85.5-57 114-142.5 142.5h284.9c-85.4-28.6-113.9-57-142.4-142.5z"></path><path d="m809.5 649.7c40.6 92.3 97.3 127 275.1 127-65.2-16.9-108.3-50.8-143.9-127l-231.6-507.3c-28.8 53.3-71.9 127.8-14.4 257.3z"></path><path d="m510.7 649.7c33.9 76.2 3.4 110-49.1 127h324.2c-65.2-16.9-108.3-50.8-143.9-127l-231.7-507.3c-28.8 53.3-72 127.8-14.4 257.3z"></path><path d="m682.6 1011.7c-7.7 0-12.3 4.8-13.5 8.2v-7.2h-4.1v39.6h4.4v-22.9c0-8.4 5.8-13.4 12.5-13.4 7.5 0 11.9 5.2 11.9 12.1v24.2h4.4v-25.1c.1-8.6-5.7-15.5-15.6-15.5z"></path><path d="m938.2 994.4-34.7 45v.1h30.2v12.7h4.5v-12.7h8.6v-4.4h-8.6zm-4.6 40.7h-21.5l21.5-28.4z"></path><path d="m650.5 1036.2c0 7.4-4.5 12.6-12.1 12.6-7.7 0-12.1-5.2-12.1-12.6v-23.6h-4.4v23.6c0 9.2 5.4 17 16.5 17s16.5-7.8 16.5-17v-23.6h-4.4z"></path><path d="m481.3 1007.7v5.5l14.8-10.3v49.3h4.6v-57.8h-.1z"></path><path d="m606 1032.6c0 10.1-6.1 15.8-14.7 15.8-7.3 0-12.5-5.4-14.1-9.8l-3.8 2.8c2.4 5.6 8.6 11.7 17.9 11.7 12.2 0 19.5-8.6 19.5-20.6v-42.5h-4.8z"></path><path d="m1018.6 1018.2h-39.1v-28.2h-4.8v62.2h4.8v-29.6h39.1v29.6h4.7v-62.2h-4.7z"></path><path d="m436.5 1024.9h35.1v4.2h-35.1z"></path><path d="m1087.2 1040.8v-50.8h-4.4v50.8c0 8.3 4.7 12.1 11.6 12.1h.4v-4.4c-4.9 0-7.6-2.7-7.6-7.7z"></path><path d="m811.6 1012.8c0-8.8-7.3-18.3-19.4-18.3-11.3 0-18.5 9.1-18.5 18.3 0 3.7 1.8 9.1 5.1 12.5l3.5-2.9c-2.5-2.6-3.7-6.8-3.7-9.5 0-7.4 5.6-13.8 13.7-13.8 9.9 0 14.5 7.9 14.5 13.8 0 6.9-4.4 12.1-9.2 16.8l-22.4 22.7h35.9v-4.4h-25.1l16.5-16.8c4.8-5.2 9.1-10.8 9.1-18.4z"></path><path d="m726.7 1011.7c-11.7 0-20.5 9-20.5 20.7 0 11.9 9.4 20.8 20.9 20.8 7.5 0 14.3-3.8 18-10.1l-3.6-2.4c-2.9 5.1-8.5 8.1-14.3 8.1-7.6 0-15.4-5.4-16.1-14.9h36c1-13-8.7-22.2-20.4-22.2zm-15.5 18c1.1-8.1 7.5-13.6 15.6-13.6 8.4 0 14.9 6 15.4 13.6z"></path><path d="m838.8 994.4c-12.8 0-19.7 10.4-19.7 29.4s6.9 29.3 19.7 29.3 19.8-10.2 19.8-29.3c.1-18.9-7-29.4-19.8-29.4zm0 54.2c-10.3 0-14.9-8.9-14.9-24.7s4.6-24.9 14.9-24.9 15 9.1 15 24.9-4.7 24.7-15 24.7z"></path><path d="m409.6 1017.3c-1.2 0-2.5.3-3.4.6l19.4-22.6h-31.8v4.3h23.2l-18 20.7 2.7 3c1.4-1.1 4.4-2 6.7-2 8.3 0 13.7 6.9 13.7 13.6 0 6.9-5 13.6-13.8 13.6-6 0-10.5-3.1-13.2-7.5l-3.8 2.5c3.4 5.3 8.6 9.5 17 9.5 12.5 0 18.6-9.9 18.6-18.1.1-9.7-8.5-17.6-17.3-17.6z"></path><path d="m895 1031c4.8-5 9.1-10.6 9.1-18.2 0-8.8-7.3-18.3-19.4-18.3-11.3 0-18.5 9.1-18.5 18.3 0 3.7 1.8 9.1 5.1 12.5l3.5-2.9c-2.5-2.6-3.7-6.8-3.7-9.5 0-7.4 5.6-13.8 13.7-13.8 9.9 0 14.5 7.9 14.5 13.8 0 6.9-4.4 12.1-9.2 16.8l-22.4 22.7h35.9v-4.4h-25.1z"></path><path d="m548.7 1012.8c0-8.8-7.3-18.3-19.4-18.3-11.3 0-18.5 9.1-18.5 18.3 0 3.7 1.8 9.1 5.1 12.5l3.5-2.9c-2.5-2.6-3.7-6.8-3.7-9.5 0-7.4 5.6-13.8 13.7-13.8 9.9 0 14.5 7.9 14.5 13.8 0 6.9-4.4 12.1-9.2 16.8l-22.4 22.7h35.9v-4.4h-25.2l16.5-16.8c4.9-5.2 9.2-10.8 9.2-18.4z"></path><path d="m1054.4 1011.7c-11.7 0-20.5 9-20.5 20.7 0 11.9 9.4 20.8 20.9 20.8 7.5 0 14.3-3.8 18-10.1l-3.6-2.4c-2.9 5.1-8.5 8.1-14.3 8.1-7.6 0-15.4-5.4-16.1-14.9h36c1-13-8.7-22.2-20.4-22.2zm-15.5 18c1.1-8.1 7.5-13.6 15.6-13.6 8.4 0 14.9 6 15.4 13.6z"></path><path d="m1363.8 1011.7c-7.7 0-12.3 4.8-13.5 8.2v-7.2h-4.1v39.6h4.4v-22.9c0-8.4 5.8-13.4 12.5-13.4 7.5 0 11.9 5.2 11.9 12.1v24.2h4.4v-25.1c.1-8.6-5.7-15.5-15.6-15.5z"></path><path d="m1330.7 1012.7h4.4v39.6h-4.4z"></path><path d="m1333 993.7c-2 0-3.7 1.7-3.7 3.7 0 2.1 1.7 3.7 3.7 3.7s3.7-1.6 3.7-3.7c0-2-1.7-3.7-3.7-3.7z"></path><path d="m1248.6 1045.1c-2.2 0-4 1.8-4 4 0 2 1.4 3.6 3.2 3.9l-3.3 9.3h3.5l4.3-11.7c.3-.6.4-1.1.4-1.6-.1-2.1-1.8-3.9-4.1-3.9z"></path><path d="m1114.6 1029.7c-5.1-1.1-9.7-2.4-9.7-7.5 0-3.8 3.4-6.5 8.4-6.5 4.2 0 7.7 2.2 9.1 6.4l3.6-2.2c-2-5.2-6.5-8.3-12.7-8.3-7.9 0-13 4.7-13 10.6 0 7.9 6.8 10.3 12.5 11.6 6.7 1.5 9.9 3.7 9.9 7.9s-3.5 7.1-9.8 7.1c-4.6 0-8.5-2.6-10.4-6.6l-3.8 2.2c2.4 4.9 7.1 8.7 14.2 8.7 9.7 0 14.4-5.5 14.4-11.5 0-5-2.7-9.7-12.7-11.9z"></path><path d="m1528.7 1019.8c-3.6-5.1-9.4-8.1-15.8-8.1-11.1 0-20.6 8.4-20.6 20.8s9.5 20.7 20.6 20.7c6.4 0 12.2-3 15.8-8.1v7.1h4.4v-62.2h-4.4zm-15.9 29c-8.6 0-15.9-6.5-15.9-16.3s7.3-16.4 15.9-16.4 15.8 6.6 15.8 16.4c.1 9.8-7.2 16.3-15.8 16.3z"></path><path d="m1394.1 1040.8v-50.8h-4.4v50.8c0 8.3 4.7 12.1 11.6 12.1h.4v-4.4c-4.9 0-7.6-2.7-7.6-7.7z"></path><path d="m1233.2 993.7c-2 0-3.7 1.7-3.7 3.7 0 2.1 1.7 3.7 3.7 3.7s3.7-1.6 3.7-3.7c0-2-1.7-3.7-3.7-3.7z"></path><path d="m1468.6 1011.7c-7.7 0-12.3 4.8-13.5 8.2v-7.2h-4.1v39.6h4.4v-22.9c0-8.4 5.8-13.4 12.5-13.4 7.5 0 11.9 5.2 11.9 12.1v24.2h4.4v-25.1c.1-8.6-5.7-15.5-15.6-15.5z"></path><path d="m1424.1 1011.7c-8.4 0-13.5 4.5-15.8 10.2l3.6 2.3c1.8-4.6 5.8-8.3 12.3-8.3 7.7 0 11.7 5.1 11.7 9.3 0 2.4-1.7 4-4.4 4h-11.5c-7.5 0-13.1 4.4-13.1 11.4 0 7.1 6 12.5 15.1 12.5 8.8 0 13.4-5.8 14.4-8.7v7.7h4.1v-25.9c0-7.5-6-14.5-16.4-14.5zm12 23.2c0 7.7-4.9 14-14.1 14-6.3 0-10.4-3.5-10.4-8.2 0-4.4 3.4-7.5 8.4-7.5h16.1z"></path><path d="m1285.2 1052.2h4.7v-28.1h29.9v-4.4h-29.9v-25.3h32.5v-4.4h-37.2z"></path><path d="m1134.7 1012.7h4.4v39.6h-4.4z"></path><path d="m1167.8 1011.7c-7.7 0-12.3 4.8-13.5 8.2v-7.2h-4.1v39.6h4.4v-22.9c0-8.4 5.8-13.4 12.5-13.4 7.5 0 11.9 5.2 11.9 12.1v24.2h4.4v-25.1c-0-8.6-5.8-15.5-15.6-15.5z"></path><path d="m1230.9 1012.7h4.4v39.6h-4.4z"></path><path d="m1136.9 993.7c-2 0-3.7 1.7-3.7 3.7 0 2.1 1.7 3.7 3.7 3.7s3.7-1.6 3.7-3.7c-0-2-1.7-3.7-3.7-3.7z"></path><path d="m1224.1 1012.7h-6.5l-19.1 16.3v-39h-4.5v62.2h4.5v-21.2l21.1 21.2h6.4l-22.3-22.3z"></path><path d="m548.4 861.3c0-3.7-3-6.7-6.7-6.7-3.6 0-6.6 3-6.6 6.7s3 6.6 6.6 6.6c3.7-.1 6.7-2.9 6.7-6.6z"></path><path d="m1506.8 882.6h8.7v55.8h-8.7z"></path><path d="m1517.8 861.3c0-3.7-3-6.7-6.7-6.7-3.6 0-6.6 3-6.6 6.7s3 6.6 6.6 6.6c3.8-.1 6.7-2.9 6.7-6.6z"></path><path d="m511.6 938.4h9v-86.8h-9l-35.1 69.8-35.1-69.8h-9v86.8h9v-67.6l35.1 69.4h.1l35-69.4z"></path><path d="m537.4 882.6h8.7v55.8h-8.7z"></path><path d="m386.8 920.9c-3.7 6.3-10.8 10.2-18.4 10.2-9.1 0-18.7-6.3-20.2-17.7h47.9c2.2-18-11-32.1-28.3-32.1-17.4 0-29 13.5-29 29.3 0 15.9 12.8 29.3 29.6 29.3 10.8 0 20.3-5.5 25.4-14.3zm-18.9-31.1c10.8 0 18.1 7.8 18.7 15.5h-37.9c1.9-8.8 8.8-15.5 19.2-15.5z"></path><path d="m911 881.2c-17.4 0-29 13.5-29 29.3 0 15.9 12.8 29.3 29.6 29.3 10.8 0 20.3-5.5 25.4-14.3l-7.1-4.6c-3.7 6.3-10.8 10.2-18.4 10.2-9.1 0-18.7-6.3-20.2-17.7h47.9c2.3-18-11-32.2-28.2-32.2zm-19.2 24.1c2-8.8 8.8-15.5 19.2-15.5 10.8 0 18.1 7.8 18.7 15.5z"></path><path d="m608.7 861.3c0-3.7-3-6.7-6.7-6.7-3.6 0-6.6 3-6.6 6.7s3 6.6 6.6 6.6c3.7-.1 6.7-2.9 6.7-6.6z"></path><path d="m597.6 942.2c0 9.4-5 16.5-14.4 16.5v8.4c14.1 0 23.1-10.7 23.1-24.9v-59.6h-8.7z"></path><path d="m307.5 881.2c-8.9 0-14.8 4.5-17.4 8.3v-37.9h-8.7-67.2v8.9h28.9v77.9h9.7v-77.9h28.6v77.9h8.7v-31.4c0-10.5 6.8-17.4 15.9-17.4 8.9 0 14.9 6.1 14.9 15.6v33.1h8.7v-35c0-12.4-8.6-22.1-22.1-22.1z"></path><path d="m1682.9 881.2c-9.9 0-16.1 5.6-18.1 9.5v-8.2h-7.9v55.8h8.7v-31.3c0-10.5 6.8-17.4 15.9-17.4 8.9 0 14.9 6.1 14.9 15.6v33.1h8.7v-35c-.2-12.4-8.7-22.1-22.2-22.1z"></path><path d="m1447.4 920.9c-3.7 6.3-10.8 10.2-18.4 10.2-9.1 0-18.7-6.3-20.2-17.7h47.9c2.2-18-11-32.1-28.3-32.1-17.4 0-29 13.5-29 29.3 0 15.9 12.8 29.3 29.6 29.3 10.8 0 20.3-5.5 25.4-14.3zm-19-31.1c10.8 0 18.1 7.8 18.7 15.5h-37.9c2-8.8 8.8-15.5 19.2-15.5z"></path><path d="m1363.7 881.2c-7.9 0-15.1 3.3-20.2 9.1v-7.7h-8.7v84.4h8.7v-36.2c5.1 5.6 12.3 8.9 20.2 8.9 16.2 0 29.5-12.2 29.5-29.1 0-17.1-13.3-29.4-29.5-29.4zm0 49.9c-11.3 0-20.2-8.6-20.2-20.5 0-12 8.9-20.7 20.2-20.7 11.4 0 20.2 8.7 20.2 20.7 0 11.9-8.8 20.5-20.2 20.5z"></path><path d="m1496.9 930.9h-5.6c-6.1 0-11.9-3.2-11.9-11.9v-28.4h17.5v-8.1h-17.5v-13.6h-6.2v.2c0 11-5.8 15.1-12.3 15.1h-.2v6.3h10v28.5c0 13.8 8.7 20 20 20h6.2z"></path><path d="m1298.8 889.7c8.9 0 14.3 6.1 14.3 15.6v33.1h8.7v-35c0-12.5-8.3-22.2-21.8-22.2-11.3 0-16.9 6.6-19.1 10.9-3.5-6.6-10.2-10.9-19.2-10.9-9.9 0-15.9 5.6-17.9 9.5v-8.2h-7.9v55.8h8.7v-31.3c0-10.5 6.6-17.4 15.6-17.4 8.9 0 14.6 6.1 14.6 15.6v33.1h8.7v-31.3c0-10.5 6.3-17.3 15.3-17.3z"></path><path d="m1573.5 854.6c-3.6 0-6.6 3-6.6 6.7s3 6.6 6.6 6.6c3.7 0 6.7-2.9 6.7-6.6 0-3.8-3-6.7-6.7-6.7z"></path><path d="m1541.8 868.9h-6.2v.2c0 11-5.8 15.1-12.3 15.1h-.2v6.3h10v28.5c0 13.8 8.7 20 20 20h6.2v-8.1h-5.6c-6.1 0-11.9-3.2-11.9-11.9v-28.4h17.5v-8.1h-17.5z"></path><path d="m1617.4 881.2c-16.2 0-29.5 12.3-29.5 29.4 0 17 13.3 29.1 29.5 29.1 16.4 0 29.5-12.2 29.5-29.1 0-17.1-13.1-29.4-29.5-29.4zm0 49.9c-11.4 0-20.2-8.6-20.2-20.5 0-12 8.8-20.7 20.2-20.7 11.3 0 20.2 8.7 20.2 20.7-0 11.9-8.9 20.5-20.2 20.5z"></path><path d="m1196.4 939.8c16.4 0 29.5-12.2 29.5-29.1 0-17.1-13.1-29.4-29.5-29.4-16.2 0-29.5 12.3-29.5 29.4 0 16.9 13.3 29.1 29.5 29.1zm0-49.9c11.3 0 20.2 8.7 20.2 20.7 0 11.9-8.9 20.5-20.2 20.5-11.4 0-20.2-8.6-20.2-20.5 0-12 8.8-20.7 20.2-20.7z"></path><path d="m1569.2 882.6h8.7v55.8h-8.7z"></path><path d="m588.8 890v-8.8h-3.8c-7.8 0-14.8 4.2-17.2 10.3v-8.9h-7.9v55.8h8.7v-30.9c0-10.2 6.2-17.5 16.5-17.5z"></path><path d="m868.9 938.4v-86.8h-9.3v38.1h-50.8v-38.1h-9.3v86.8h9.3v-40.1h50.8v40.1z"></path><path d="m741.1 881.2c-11.3 0-16.9 6.6-19.1 10.9-3.5-6.6-10.2-10.9-19.2-10.9-9.9 0-15.9 5.6-17.9 9.5v-8.2h-7.9v55.8h8.7v-31.3c0-10.5 6.6-17.4 15.6-17.4 8.9 0 14.6 6.1 14.6 15.6v33.1h8.7v-31.3c0-10.5 6.3-17.4 15.4-17.4 8.9 0 14.3 6.1 14.3 15.6v33.1h8.7v-35c-.1-12.4-8.4-22.1-21.9-22.1z"></path><path d="m640.7 881.2c-11.8 0-19.1 6.3-22.6 14.6l6.8 4.5c2.4-6.1 7.3-10.7 15.7-10.7 9.5 0 14.3 5.6 14.3 9.9 0 3.5-2.6 6-6.7 6h-13.4c-10.7 0-18.7 6.3-18.7 16.2s8.6 18 21.7 18c9.5 0 16.5-5.6 18.2-9.5v8.2h7.9v-36.5c.1-11.3-8.7-20.7-23.2-20.7zm14.6 32.8c0 10.3-6.4 17.4-17.5 17.4-8.1 0-12.4-4.3-12.4-9.5 0-5 3.8-8.6 9.5-8.6h20.3v.7z"></path><path d="m957.5 919.9v-68.3h-8.7v68.3c0 12.8 6.9 19.3 18.6 19.3h.7v-8.4c-6.6 0-10.6-3.8-10.6-10.9z"></path><path d="m976.8 882.6h8.7v55.8h-8.7z"></path><path d="m1038.7 905.3v33.1h8.7v-35c0-12.5-8.6-22.2-22.1-22.2-9.9 0-16.1 5.6-18.1 9.5v-8.2h-7.9v55.8h8.7v-31.3c0-10.5 6.8-17.4 15.9-17.4 8.8.1 14.8 6.1 14.8 15.7z"></path><path d="m981.2 867.8c3.7 0 6.7-2.9 6.7-6.6s-3-6.7-6.7-6.7c-3.6 0-6.6 3-6.6 6.7 0 3.8 3 6.6 6.6 6.6z"></path><path d="m1124.1 939.6c15.9 0 29-7.6 36.6-19.2l-7.7-5.1c-5.7 8.7-16.1 15.1-28.9 15.1-20 0-34.7-15.7-34.7-35.5s14.8-35.5 34.7-35.5c12.8 0 23.2 6.4 28.9 15.1l7.7-5.1c-7.6-11.7-20.7-19.2-36.6-19.2-25 0-44.5 19.8-44.5 44.6s19.5 44.8 44.5 44.8z"></path></svg>
