<svg width="500" height="50" viewBox="0 0 500 50" fill="none" xmlns="http://www.w3.org/2000/svg"><path d="M500 38.1v4.65c0 3.4-2.75 6.2-6.2 6.2h-2.15V38.1c0-4.05-.8-7.95-2.4-11.65-4.65-10.6-15.1-17.5-26.7-17.5h-29.1v2.5c0 4.05.8 7.95 2.4 11.65.1.25.25.5.35.8h-3.35c-3.55 0-6.65-2.5-7.25-6-.35-2.1-.55-4.25-.55-6.45V.65h37.45c14.9 0 28.4 8.85 34.35 22.5 2.05 4.75 3.15 9.8 3.15 15v-.05ZM454.75 40.6h13c4.6 0 8.35 3.75 8.35 8.35h-13c-4.6 0-8.35-3.75-8.35-8.35Z" fill="currentColor"></path><path d="M40.7 49.55c-5 0-9.7-2.45-12.55-6.6L8.35 14.2V49H0V5.95C0 3.4 1.65 1.15 4.05.4c2.45-.75 5.05.15 6.5 2.25L35 38.2c1.3 1.9 3.35 2.95 5.65 2.95 2.3 0 4.35-1.1 5.65-2.95L70.8 2.65c1.45-2.1 4.05-3 6.5-2.25s4.05 3 4.05 5.55V49H73V14.2L53.25 42.95c-2.85 4.15-7.55 6.6-12.55 6.6ZM353.4 48.95h-9.65l24.5-42.7c2.25-3.9 6.3-6.25 10.8-6.25 4.5 0 8.55 2.35 10.8 6.25l24.5 42.7h-9.65l-22.1-38.5c-1.05-1.85-2.85-2.05-3.55-2.05-.7 0-2.5.2-3.55 2.05l-22.1 38.5ZM312.25 49.6c-4.5 0-8.55-2.35-10.8-6.25L277 .7h9.65l22.05 38.45c1.05 1.85 2.85 2.05 3.55 2.05.7 0 2.5-.2 3.55-2.05L337.9.7h9.65L323.1 43.3c-2.25 3.9-6.3 6.25-10.8 6.25l-.05.05ZM111.5.7h-9v48.25h9V.7ZM220.15 29.9h22.4l3.3-8.4h-25.7V9.1h42.5l3.3-8.4H211.8v48.25h54.15V40.6h-45.8V29.9ZM191.95 35.4c0 11.45-11.15 14.25-30.3 14.25-13.8 0-25.5-3.35-29.6-6.15L135 36s9.2 5.45 26.65 5.45c19.15 0 21.95-3.25 21.95-6 0-5.7-9.5-5.8-22.25-6.65-13.95-.95-30-1.95-30-14.4 0-11.6 11.15-14.4 30.3-14.4 13.8 0 23.4 2.45 27.5 5.4l-2.9 7.3s-5.4-4.5-24.6-4.5c-19.2 0-21.95 3.45-21.95 6.1 0 5.55 12.45 5.8 22.2 6.5 14.2.95 30.05-.2 30.05 14.55v.05Z" fill="currentColor"></path></svg>
