<svg xmlns="http://www.w3.org/2000/svg" viewBox="0 0 210.6 80.3"><path d="M0 .7h26.9l14.5 31.6L55.8.7h26.7v48.7H68l.3-36.4h-2.4L47.5 49.4H35.2L16.9 13h-2.6l.4 36.4H0V.7zM89.4 49.4V.7h33.3c6.6 0 10.9.1 12.8.4 4.8.6 8.1 2.2 9.8 4.7 1.7 2.5 2.5 6.9 2.5 13.2 0 6-.7 10.2-2.1 12.7-1 1.6-2.3 2.9-4 3.7-1.7.9-4.1 1.5-7 1.8-2.1.2-6.1.4-11.8.4h-18.6v11.9H89.4zm14.8-24h18.5c3.4 0 5.4-.1 6.2-.1.7-.1 1.4-.3 2-.6.8-.4 1.3-1 1.6-1.8.3-.8.4-2.1.4-3.8 0-1.7-.2-3-.5-3.8-.4-.8-1-1.4-1.9-1.7-.7-.3-3.3-.4-7.8-.5h-18.5v12.3zM151 33.3h14.4c0 2.4.5 3.9 1.5 4.6.7.5 1.6.7 2.8.8 1.1.1 4.7.1 10.7.2 6.3 0 10-.1 11.3-.1 1.3-.1 2.3-.2 3-.6 1.1-.5 1.6-1.7 1.6-3.7 0-1.4-.4-2.4-1.2-2.9-.8-.5-2.3-.8-4.7-.8-1.8 0-5.7-.1-11.6-.4-6.1-.3-10-.5-11.8-.5-3.6-.1-6.3-.5-8.2-1-1.9-.6-3.4-1.5-4.5-2.7-1.8-2.1-2.7-5.6-2.7-10.5 0-5.5 1-9.4 3.1-11.6 1.6-1.8 4-2.9 7.3-3.4s10-.7 20.1-.7c7.2 0 12.2.2 15.1.6 4.5.6 7.5 1.9 9.2 3.7 1.7 1.9 2.5 5 2.5 9.4V16h-14.4c0-1.4-.2-2.3-.3-2.8-.2-.5-.5-.9-1.1-1.2-.6-.4-1.8-.6-3.4-.7-1.6-.1-5-.2-10.3-.2-6.3 0-10.1.2-11.5.6-1.4.4-2.1 1.5-2.1 3.3 0 1.7.7 2.8 2.1 3.1 1.1.3 6.4.6 15.7.9 7.9.2 13.1.5 15.8.8 2.7.3 4.8.9 6.3 1.8 1.8 1.1 3 2.5 3.8 4.4.7 1.9 1.1 4.5 1.1 8 0 4.6-.6 8-1.9 10.2-.9 1.6-2.2 2.9-3.9 3.7-1.7.8-4 1.4-7 1.6-3.2.3-9.2.4-17.9.4-7.3 0-12.7-.2-16.2-.6-3.5-.4-6.1-1.1-7.9-2-1.8-1-3.1-2.4-3.8-4.1-.7-1.7-1.1-4.3-1.1-7.8v-2.1z"></path><path d="M2.9 80H.4V59.8H4l12.1 17.5 12.1-17.5H32V80h-2.4V62.3L17.2 80h-1.9L2.9 62.3V80zM54.2 80.3c-2.2 0-3.8-.1-4.8-.3-1-.2-1.9-.6-2.5-1.1-.7-.6-1.2-1.3-1.6-2.3-.3-.9-.5-2.2-.5-3.7v-5.5c0-1.7.2-3 .5-4s.8-1.8 1.5-2.3c.6-.5 1.5-.9 2.5-1.1 1.1-.2 2.6-.3 4.8-.3h6.7c2.1 0 3.7.1 4.8.3s1.9.6 2.5 1.1c.7.6 1.2 1.3 1.5 2.3.3 1 .5 2.3.5 3.8v5.6c0 1.6-.2 2.8-.5 3.8s-.8 1.7-1.5 2.3c-.6.5-1.5.9-2.5 1.1-1 .2-2.6.3-4.8.3h-6.6zm7.9-18.5H53c-1.3 0-2.3.1-3 .3-.7.2-1.3.6-1.7 1.1-.3.4-.5.8-.6 1.3-.1.5-.2 1.4-.2 2.6V72.4c0 1.2.1 2.1.2 2.6s.3 1 .6 1.3c.4.5.9.9 1.7 1.1.7.2 1.7.3 3 .3h9.1c1.3 0 2.3-.1 3-.3.7-.2 1.3-.6 1.7-1.1.3-.4.5-.8.6-1.3.1-.5.2-1.3.2-2.3v-5.9c0-1.1-.1-1.8-.2-2.3-.1-.5-.3-.9-.6-1.3-.4-.5-.9-.9-1.7-1.1-.7-.2-1.7-.3-3-.3zM93.8 80h-2.5V62.1h-10v-2.2h22.5v2.2h-10V80zM124.2 80.3c-2.2 0-3.8-.1-4.8-.3-1-.2-1.9-.6-2.5-1.1-.7-.6-1.2-1.3-1.6-2.3-.3-.9-.5-2.2-.5-3.7v-5.5c0-1.7.2-3 .5-4s.8-1.8 1.5-2.3c.6-.5 1.5-.9 2.5-1.1 1.1-.2 2.6-.3 4.8-.3h6.7c2.1 0 3.7.1 4.8.3 1.1.2 1.9.6 2.5 1.1.7.6 1.2 1.3 1.5 2.3.3 1 .5 2.3.5 3.8v5.6c0 1.6-.2 2.8-.5 3.8s-.8 1.7-1.5 2.3c-.6.5-1.5.9-2.5 1.1-1 .2-2.6.3-4.8.3h-6.6zm7.9-18.5H123c-1.3 0-2.3.1-3 .3-.7.2-1.3.6-1.7 1.1-.3.4-.5.8-.6 1.3-.1.5-.2 1.4-.2 2.6V72.4c0 1.2.1 2.1.2 2.6s.3 1 .6 1.3c.4.5.9.9 1.7 1.1.7.2 1.7.3 3 .3h9.1c1.3 0 2.3-.1 3-.3.7-.2 1.3-.6 1.7-1.1.3-.4.5-.8.6-1.3.1-.5.2-1.3.2-2.3v-5.9c0-1.1-.1-1.8-.2-2.3-.1-.5-.3-.9-.6-1.3-.4-.5-.9-.9-1.7-1.1-.7-.2-1.7-.3-3-.3zM155.5 80H153V59.8h14.4c3.2 0 5.3.3 6.4 1 1 .7 1.6 1.9 1.6 3.8V67c0 1.2-.3 2.2-.8 2.7-.5.6-1.4 1-2.8 1.3 1.1.1 1.9.5 2.5 1.2.6.7.8 1.6.8 2.8v5h-2.5v-4.5c0-1.3-.3-2.2-.9-2.7-.6-.5-1.9-.7-4-.7h-12.2V80zm12.7-18h-12.7v7.7h12.7c1.8 0 3-.2 3.6-.7.6-.4.9-1.4.9-2.7v-1c0-1.4-.3-2.3-.9-2.7-.5-.3-1.7-.6-3.6-.6zM187.7 73.4h2.4V74.6c0 1.3.4 2.1 1.2 2.6.8.5 2.4.7 4.7.7h5.3c2.7 0 4.5-.3 5.4-.8.8-.5 1.2-1.6 1.2-3.1 0-1.3-.3-2.1-.9-2.6-.6-.5-1.8-.7-3.6-.7h-8.5c-2.7 0-4.6-.4-5.7-1.3-1.1-.8-1.6-2.3-1.6-4.3 0-2.1.6-3.5 1.9-4.4 1.2-.8 3.5-1.3 6.8-1.3h4.6c2.5 0 4.3.1 5.3.3s1.8.5 2.4 1c.5.4.8.9 1 1.6.2.6.3 1.5.3 2.4v.6h-2.4V65c0-1.3-.3-2.2-1-2.7-.6-.5-2-.7-4-.7h-6.9c-2.1 0-3.5.2-4.2.7-.7.5-1.1 1.4-1.1 2.6 0 1.3.4 2.2 1.1 2.7.7.5 2.2.7 4.4.7h7.2c1.6 0 2.8.1 3.6.2.8.1 1.4.3 1.9.6.7.4 1.2 1 1.5 1.7.3.7.4 1.8.4 3.2 0 2.2-.6 3.8-1.8 4.7-1.2.9-3.4 1.3-6.5 1.3h-6.8c-2.7 0-4.6-.4-5.8-1.2-1.2-.8-1.7-2.2-1.7-4.1v-1.3c-.1.2-.1.1-.1 0z"></path></svg>
