<svg width="260" height="50" viewBox="0 0 1000 190" fill="none" xmlns="http://www.w3.org/2000/svg">
<path d="M930.059 105.985s-.211-.105-.369-.105l-374.512.105-.475 1.634-9.644 31.885 386.634-25.034-1.37-8.169s-.106-.21-.211-.369" fill="black"/>
<path d="m537.735 139.978 10.224-33.993-356.382.106L226.941.685V.316l-.211-.21S226.519 0 226.361 0c-.211 0-.369 0-.369.105L18.129 173.708l519.606-33.73Z" fill="black"/>
<path d="m717.717 28.881.211-.58c3.373-8.485 1.739-15.125-4.901-20.132-6.641-4.901-17.445-7.326-32.571-7.326-14.072 0-26.405 2.583-36.998 7.8-10.488 5.112-17.445 11.858-20.607 20.238-2.688 7.01-1.845 12.333 2.582 16.074 4.427 3.848 12.649 6.378 24.771 7.431l16.496 1.529c7.431.685 12.122 1.634 14.072 3.004 2.108 1.265 2.582 3.373 1.37 6.06-1.265 3.374-4.163 5.903-8.748 7.695-4.533 1.845-10.33 2.688-17.445 2.688-9.065 0-15.601-1.16-19.448-3.742-3.847-2.477-4.743-6.06-3.004-10.804l.369-.79h-24.771l-.685 1.739c-3.742 9.54-2.214 16.76 4.427 21.871 6.641 5.113 18.025 7.695 34.099 7.695 16.075 0 30.463-2.424 41.215-7.22 10.593-4.901 17.813-11.964 21.397-21.397 2.899-7.22 2.214-12.913-2.108-16.865-4.163-3.953-12.333-6.64-24.191-7.8l-17.445-1.634c-8.38-.79-13.281-1.845-15.02-2.899-1.845-1.16-2.214-2.898-1.265-5.48 1.265-3.005 4.058-5.377 8.485-7.01 4.322-1.74 9.908-2.688 16.76-2.688 7.431 0 12.701 1.054 15.811 3.267 3.162 2.003 4.058 5.218 3.004 9.329h24.086l.052-.053Z" fill="black"/>
<path d="m752.61 57.92 15.969-9.38 20.08 38.472h46.907l15.6-17.76h42.585l-2.003-17.024h-25.561l22.662-25.93 2.899 25.93 2.003 17.023 1.844 17.761h26.985L911.406 3.004h-23.242l-73.047 78-24.455-45.377 55.392-32.623h-31.201L761.57 35.258l12.543-32.254h-24.296l-32.782 84.008h24.191L752.61 57.92Z" fill="black"/>
<path d="M608.359 25.613c3.004-7.694 2.214-13.386-2.424-17.075-4.638-3.637-13.492-5.481-26.405-5.481h-59.45l-32.939 84.008h24.296l12.069-30.937h27.933c6.746 0 10.699 1.16 12.122 3.584 1.265 2.319.474 7.431-2.424 15.126l-2.319 5.692a13.516 13.516 0 0 0-.791 3.478c-.105 1.16 0 2.214.211 3.004h27.248c-1.74-2.793-.791-9.54 2.688-19.869.369-1.054.685-1.739.843-2.319 2.003-5.797 2.53-9.908 1.739-12.069-.79-2.319-3.109-4.216-6.746-5.85l-10.119-10.224c-3.479 1.528-8.854 2.214-16.18 2.214h-27.353l7.431-19.079h26.299c8.38 0 13.598.685 15.917 2.108 2.213 1.265 2.582 3.742 1.264 7.115-1.37 3.637-3.847 6.061-7.431 7.695l10.119 10.224a40.135 40.135 0 0 0 15.021-8.169c4.322-3.847 7.431-8.169 9.434-13.123" fill="black"/>
<path d="M423.368 3.004h-24.191l-18.499 47.327c-5.006 12.807-4.532 22.451 1.16 28.987 5.797 6.64 16.865 9.908 33.045 9.908 16.18 0 29.883-3.268 40.845-9.908 10.91-6.536 18.974-16.18 23.981-28.987l18.499-47.327h-24.086l-17.656 45.114c-1.844 4.9-3.584 8.38-5.217 10.698a24.526 24.526 0 0 1-6.061 6.061c-3.004 2.319-6.536 4.058-10.488 5.218-3.848 1.054-8.275 1.633-12.913 1.633-8.854 0-14.546-1.844-17.128-5.586-2.583-3.742-2.214-9.75 1.054-18.024l17.708-45.114h-.053Z" fill="black"/>
<path d="M379.363 3.004H348.32l-55.602 60.187-7.695-60.187h-31.411l-32.835 84.008h23.295l22.347-56.971 6.482 56.971h20.291l51.861-56.076-21.872 56.076h23.295l32.887-84.008Z" fill="black"/>
<path d="M973.437 10.33v20.765h3.636v-8.17h2.899c1.95 0 3.268.212 4.058.686 1.318.79 1.95 2.371 1.95 4.743v2.319s.106.158.158.21v.212h3.426l-.105-.264s-.158-.527-.211-1.054V26.72c0-1.054-.369-2.108-1.107-3.215-.738-1.106-1.95-1.791-3.584-2.055 1.265-.21 2.267-.527 3.004-1.001 1.371-.896 2.003-2.214 2.003-4.111 0-2.635-1.054-4.375-3.215-5.27-1.212-.475-3.109-.738-5.639-.738h-7.273Zm12.596 6.324c0 1.581-.685 2.688-2.161 3.268-.79.316-1.95.474-3.478.474h-3.321v-7.537h3.11c2.003 0 3.478.264 4.427.791.949.527 1.37 1.528 1.37 3.057m13.967 4.11c0-5.217-1.845-9.644-5.534-13.333-3.689-3.69-8.169-5.481-13.387-5.481s-9.645 1.844-13.281 5.48c-3.689 3.69-5.534 8.117-5.534 13.335 0 5.217 1.845 9.697 5.481 13.386 3.689 3.69 8.116 5.534 13.334 5.534s9.698-1.845 13.387-5.534c3.689-3.69 5.534-8.169 5.534-13.386ZM981.026 4.533c4.48 0 8.327 1.582 11.49 4.796 3.162 3.163 4.743 7.01 4.743 11.49s-1.581 8.38-4.743 11.594c-3.163 3.215-7.01 4.796-11.49 4.796s-8.327-1.581-11.489-4.796c-3.162-3.162-4.691-7.062-4.691-11.594 0-4.533 1.581-8.328 4.743-11.49 3.163-3.162 7.01-4.796 11.49-4.796" fill="black"/>
</svg>