<svg width="180" height="72" xmlns="http://www.w3.org/2000/svg" viewBox="0 0 873.52 320"><path fill="currentColor" d="M154.77 56.6c1.1 3.37-.76 6.99-4.14 8.09-3.39 1.1-7.02-.75-8.12-4.12-1.1-3.37.76-6.99 4.14-8.09 3.39-1.1 7.02.75 8.12 4.12zM166.51 41.91c.42 3.97-2.47 7.52-6.46 7.94-3.99.42-7.56-2.46-7.98-6.43-.42-3.97 2.47-7.52 6.46-7.94 3.99-.42 7.56 2.46 7.98 6.43zM152.73 24.21c1.34 4.1-.92 8.51-5.04 9.84s-8.54-.91-9.88-5.01c-1.34-4.1.92-8.51 5.04-9.84s8.54.91 9.88 5.01zM151.11 9.03c-.47-4.49 2.8-8.52 7.32-8.99 4.51-.47 8.56 2.79 9.03 7.28.47 4.49-2.8 8.52-7.32 8.99-4.52.47-8.56-2.79-9.03-7.28zM165.23 71.52c.34 3.27-2.04 6.19-5.32 6.54-3.28.34-6.22-2.03-6.56-5.29-.34-3.27 2.04-6.19 5.32-6.54 3.28-.34 6.22 2.03 6.56 5.29zM133.36 59.78c1.78 3.07.71 7-2.37 8.77-3.08 1.78-7.02.73-8.8-2.34-1.78-3.07-.71-7 2.37-8.77 3.08-1.78 7.02-.73 8.8 2.34zM141.79 42.97c1.23 3.8-.85 7.87-4.67 9.11-3.81 1.24-7.9-.84-9.14-4.63-1.23-3.8.85-7.87 4.67-9.11 3.81-1.24 7.9.84 9.14 4.63zM124.64 28.52c2.16 3.73.87 8.51-2.88 10.67s-8.54.89-10.7-2.85c-2.16-3.73-.87-8.51 2.88-10.67s8.54-.89 10.7 2.85zM119.9 14.01c-1.4-4.3.97-8.91 5.29-10.31 4.32-1.4 8.95.95 10.35 5.25 1.4 4.3-.97 8.91-5.29 10.31-4.32 1.4-8.95-.95-10.35-5.25zM146.7 72.19c1.02 3.12-.7 6.48-3.84 7.5-3.14 1.02-6.5-.69-7.52-3.81-1.02-3.12.7-6.48 3.84-7.5 3.14-1.02 6.5.69 7.52 3.81zM113.09 67.34c2.37 2.63 2.15 6.7-.49 9.07-2.65 2.38-6.72 2.17-9.09-.46s-2.15-6.7.49-9.07c2.65-2.38 6.72-2.17 9.09.46zM117.84 49.14c2 3.46.8 7.88-2.67 9.88-3.47 2-7.9.82-9.9-2.63-2-3.46-.8-7.88 2.67-9.88 3.47-2 7.91-.82 9.9 2.63zM98.06 38.57c2.89 3.2 2.62 8.15-.6 11.04-3.22 2.89-8.17 2.65-11.06-.56-2.89-3.2-2.62-8.15.6-11.04 3.22-2.89 8.17-2.64 11.06.56zM90.41 25.37c-2.26-3.91-.91-8.92 3.03-11.19 3.93-2.27 8.95-.93 11.21 2.98 2.26 3.91.91 8.92-3.03 11.19-3.93 2.27-8.95.93-11.21-2.98zM128.72 76.71c1.64 2.84.66 6.49-2.2 8.13-2.86 1.65-6.51.68-8.15-2.16-1.64-2.84-.66-6.49 2.2-8.13 2.86-1.65 6.51-.68 8.15 2.17zM94.83 78.95c2.87 2.08 3.5 6.1 1.4 8.98-2.09 2.88-6.12 3.52-8.99 1.44s-3.5-6.1-1.4-8.98c2.09-2.88 6.12-3.52 8.99-1.44zM95.7 60.16c2.67 2.97 2.42 7.54-.56 10.22-2.98 2.68-7.56 2.45-10.23-.52-2.67-2.96-2.42-7.54.56-10.22 2.98-2.68 7.56-2.45 10.23.52zM74.15 53.93c3.49 2.53 4.26 7.42 1.71 10.92s-7.44 4.29-10.94 1.75c-3.49-2.53-4.26-7.42-1.71-10.93 2.55-3.5 7.44-4.29 10.94-1.75zM63.92 42.61c-3.02-3.36-2.74-8.54.63-11.57 3.38-3.04 8.56-2.77 11.59.58 3.02 3.36 2.74 8.54-.64 11.57-3.38 3.04-8.56 2.77-11.59-.58zM112.07 84.86c2.2 2.44 1.99 6.21-.46 8.41-2.45 2.21-6.22 2.02-8.42-.42s-1.99-6.21.46-8.41c2.45-2.21 6.22-2.02 8.42.42zM79.39 94.1c3.24 1.44 4.69 5.24 3.24 8.49-1.45 3.25-5.25 4.72-8.49 3.28s-4.69-5.24-3.24-8.49c1.45-3.25 5.25-4.72 8.49-3.28zM76.33 75.54c3.23 2.34 3.94 6.87 1.58 10.11-2.36 3.24-6.89 3.97-10.11 1.62-3.23-2.34-3.94-6.87-1.58-10.11 2.36-3.24 6.89-3.97 10.12-1.62zM53.95 73.93c3.94 1.75 5.71 6.38 3.94 10.33-1.76 3.95-6.39 5.74-10.33 3.99-3.94-1.75-5.71-6.38-3.94-10.33 1.76-3.95 6.39-5.74 10.33-3.99zM41.59 64.98c-3.66-2.65-4.46-7.78-1.78-11.45 2.67-3.67 7.8-4.49 11.46-1.84 3.66 2.65 4.46 7.78 1.78 11.45-2.67 3.67-7.8 4.49-11.46 1.84zM97.47 96.3c2.66 1.93 3.24 5.66 1.3 8.32-1.94 2.67-5.67 3.27-8.33 1.34s-3.24-5.66-1.3-8.32c1.94-2.67 5.67-3.27 8.33-1.34zM67.43 112.13c3.47.73 5.68 4.15 4.93 7.63s-4.16 5.71-7.63 4.97c-3.47-.73-5.68-4.15-4.93-7.63.74-3.48 4.16-5.71 7.62-4.97zM60.58 94.61c3.65 1.62 5.28 5.9 3.65 9.56-1.63 3.66-5.91 5.31-9.56 3.69-3.65-1.62-5.28-5.9-3.65-9.56 1.63-3.66 5.91-5.31 9.56-3.69zM38.36 97.69c4.22.89 6.91 5.05 6 9.29-.9 4.24-5.06 6.94-9.28 6.05-4.22-.89-6.91-5.05-6-9.29.9-4.23 5.06-6.94 9.28-6.05zM24.41 91.5c-4.13-1.84-5.98-6.68-4.13-10.83 1.85-4.14 6.7-6.02 10.82-4.18 4.13 1.84 5.98 6.68 4.13 10.83-1.85 4.15-6.7 6.02-10.82 4.18zM85.58 110.52c3 1.33 4.35 4.86 3 7.87s-4.86 4.37-7.87 3.04c-3-1.33-4.35-4.86-3-7.87 1.34-3.01 4.87-4.37 7.87-3.04zM59.48 132.25a6.41 6.41 0 016.41 6.44c0 3.56-2.88 6.45-6.42 6.45a6.41 6.41 0 01-6.41-6.44c0-3.56 2.88-6.45 6.42-6.45zM49.14 116.54c3.9.83 6.39 4.68 5.56 8.6-.84 3.92-4.68 6.43-8.58 5.6-3.9-.83-6.39-4.68-5.56-8.6.83-3.92 4.68-6.43 8.58-5.6zM28.05 124.17c4.31 0 7.81 3.5 7.8 7.83 0 4.33-3.5 7.84-7.82 7.85-4.31 0-7.81-3.5-7.8-7.83 0-4.33 3.5-7.84 7.82-7.85zM13.11 121.02c-4.42-.94-7.24-5.3-6.29-9.74.95-4.44 5.3-7.28 9.72-6.34 4.42.94 7.24 5.3 6.29 9.74-.95 4.44-5.3 7.28-9.72 6.34zM76.9 126.9c3.21.68 5.26 3.85 4.57 7.08-.69 3.23-3.85 5.29-7.06 4.61-3.21-.68-5.26-3.85-4.57-7.07.69-3.23 3.85-5.29 7.06-4.61zM55.89 153.58a6.409 6.409 0 017.61 4.97c.74 3.48-1.48 6.91-4.94 7.65a6.409 6.409 0 01-7.61-4.97c-.74-3.48 1.48-6.91 4.94-7.65zM42.51 140.37c3.99 0 7.22 3.25 7.22 7.25 0 4.01-3.24 7.26-7.23 7.26s-7.22-3.25-7.22-7.25c0-4.01 3.24-7.26 7.23-7.26zM23.46 152.22c4.22-.9 8.36 1.8 9.26 6.04.9 4.24-1.8 8.4-6.01 9.3-4.22.9-8.36-1.8-9.26-6.04-.9-4.24 1.8-8.4 6.01-9.3zM8.2 152.24c-4.52 0-8.18-3.68-8.17-8.22 0-4.54 3.67-8.22 8.19-8.22s8.18 3.68 8.18 8.22c0 4.54-3.67 8.22-8.19 8.22zM71.82 144.73c3.28 0 5.95 2.67 5.94 5.97 0 3.3-2.67 5.97-5.95 5.98-3.28 0-5.95-2.67-5.94-5.97 0-3.3 2.67-5.97 5.95-5.98zM56.82 175.2c3.24-1.44 7.03.02 8.48 3.27 1.45 3.25 0 7.06-3.24 8.51-3.24 1.45-7.03-.02-8.48-3.27-1.45-3.25 0-7.06 3.25-8.51zM40.98 165.06c3.9-.83 7.74 1.67 8.57 5.59.83 3.92-1.66 7.77-5.56 8.6-3.9.83-7.74-1.67-8.57-5.59-.83-3.92 1.66-7.77 5.56-8.6zM24.81 180.61c3.94-1.76 8.56.03 10.32 3.98 1.76 3.96 0 8.59-3.95 10.35-3.94 1.76-8.56-.03-10.32-3.98-1.76-3.96 0-8.59 3.95-10.35zM9.89 183.8c-4.42.94-8.76-1.9-9.71-6.34-.94-4.44 1.88-8.8 6.3-9.75 4.42-.94 8.76 1.9 9.7 6.34.94 4.44-1.88 8.8-6.3 9.75zM70.55 163.23c3.21-.68 6.37 1.38 7.06 4.6.68 3.23-1.36 6.4-4.58 7.08-3.21.68-6.37-1.38-7.06-4.6-.68-3.23 1.37-6.4 4.58-7.08zM62.21 196.15c2.87-2.09 6.88-1.44 8.97 1.44 2.09 2.88 1.46 6.91-1.41 8.99-2.87 2.09-6.88 1.44-8.97-1.44-2.09-2.88-1.46-6.91 1.41-8.99zM44.61 189.52c3.64-1.62 7.92.03 9.55 3.69 1.63 3.66 0 7.95-3.65 9.57-3.65 1.63-7.92-.03-9.55-3.69-1.63-3.66 0-7.95 3.65-9.57zM32.03 208.1c3.49-2.54 8.38-1.75 10.92 1.75 2.54 3.51 1.78 8.4-1.71 10.94-3.49 2.54-8.38 1.75-10.92-1.75-2.54-3.51-1.78-8.41 1.71-10.94zM18.1 214.32c-4.13 1.84-8.97-.03-10.81-4.18-1.84-4.15 0-9 4.13-10.84 4.13-1.84 8.97.03 10.81 4.18 1.84 4.15 0 9-4.13 10.84zM73.16 181.59c3-1.34 6.52.02 7.86 3.04 1.34 3.01 0 6.54-3.01 7.88-3 1.34-6.52-.02-7.86-3.04-1.34-3.01 0-6.54 3.01-7.88zM71.85 215.52c2.37-2.64 6.43-2.84 9.08-.46 2.64 2.38 2.86 6.45.49 9.09-2.37 2.64-6.43 2.84-9.08.46s-2.86-6.45-.49-9.09zM53.25 212.7c3.23-2.35 7.75-1.62 10.11 1.62 2.35 3.24 1.65 7.78-1.58 10.12-3.23 2.35-7.75 1.62-10.11-1.62-2.35-3.24-1.65-7.77 1.58-10.12zM44.81 233.48c2.88-3.21 7.83-3.46 11.04-.56 3.22 2.9 3.48 7.85.6 11.06-2.88 3.21-7.83 3.46-11.04.56-3.22-2.9-3.49-7.85-.6-11.06zM32.48 242.47c-3.65 2.66-8.78 1.83-11.44-1.84-2.67-3.67-1.86-8.81 1.79-11.46 3.65-2.66 8.78-1.83 11.44 1.84 2.67 3.68 1.86 8.81-1.79 11.47zM79.53 199c2.66-1.93 6.38-1.33 8.32 1.34 1.94 2.67 1.36 6.4-1.3 8.33s-6.38 1.33-8.32-1.34c-1.94-2.67-1.35-6.4 1.3-8.33zM85.3 232.47c1.77-3.07 5.7-4.12 8.78-2.33 3.08 1.78 4.14 5.72 2.37 8.79-1.77 3.07-5.7 4.12-8.78 2.34-3.08-1.78-4.14-5.72-2.37-8.79zM66.53 233.57c2.67-2.97 7.25-3.2 10.22-.51 2.98 2.68 3.23 7.26.56 10.23s-7.25 3.2-10.22.51c-2.98-2.68-3.23-7.26-.56-10.23zM62.59 255.66c2.15-3.74 6.94-5.01 10.69-2.84 3.75 2.17 5.04 6.96 2.89 10.69-2.15 3.74-6.94 5.01-10.69 2.84-3.75-2.17-5.04-6.96-2.89-10.69zM52.39 267.01c-3.02 3.36-8.2 3.62-11.58.58-3.37-3.04-3.65-8.23-.63-11.59 3.02-3.36 8.2-3.62 11.58-.58 3.37 3.04 3.65 8.23.63 11.59zM89.38 214.71c2.2-2.44 5.96-2.63 8.41-.42s2.66 5.98.46 8.42c-2.2 2.44-5.96 2.63-8.41.42s-2.66-5.98-.46-8.42zM101.99 246.24c1.09-3.37 4.72-5.21 8.11-4.11 3.38 1.1 5.24 4.73 4.15 8.1-1.09 3.37-4.72 5.21-8.11 4.11-3.38-1.1-5.24-4.73-4.15-8.1zM83.85 251.23c1.99-3.46 6.42-4.63 9.89-2.63 3.47 2.01 4.67 6.43 2.67 9.89-1.99 3.46-6.42 4.63-9.89 2.63-3.47-2.01-4.67-6.43-2.67-9.89zM84.59 273.65c1.33-4.1 5.74-6.34 9.86-5 4.12 1.34 6.38 5.76 5.05 9.86s-5.75 6.34-9.86 5c-4.12-1.34-6.38-5.75-5.05-9.86zM76.98 286.88c-2.26 3.91-7.27 5.25-11.2 2.97s-5.29-7.29-3.03-11.2c2.26-3.91 7.27-5.25 11.2-2.97 3.93 2.27 5.29 7.29 3.03 11.2zM102.28 228.03c1.64-2.84 5.29-3.81 8.14-2.16a5.962 5.962 0 012.2 8.14c-1.64 2.84-5.29 3.81-8.14 2.16-2.86-1.65-3.84-5.3-2.2-8.14zM121.17 256.25c.37-3.53 3.53-6.08 7.07-5.71 3.54.38 6.11 3.54 5.74 7.06-.37 3.53-3.53 6.08-7.07 5.71-3.54-.37-6.11-3.54-5.74-7.06zM104.46 264.9c1.23-3.8 5.32-5.87 9.13-4.63 3.81 1.24 5.9 5.32 4.67 9.12-1.23 3.8-5.32 5.87-9.13 4.63-3.81-1.24-5.9-5.32-4.67-9.12zM109.85 286.68c.45-4.29 4.3-7.4 8.61-6.94 4.31.45 7.44 4.3 6.99 8.59-.45 4.29-4.3 7.4-8.61 6.94-4.31-.46-7.44-4.3-6.99-8.59zM105.15 301.2c-1.39 4.3-6.02 6.64-10.34 5.24-4.32-1.41-6.69-6.03-5.29-10.33 1.39-4.3 6.02-6.64 10.34-5.24 4.32 1.41 6.68 6.03 5.29 10.33zM117.67 238.37c1.01-3.12 4.38-4.83 7.51-3.81 3.14 1.02 4.86 4.38 3.84 7.51-1.01 3.12-4.38 4.83-7.51 3.81-3.14-1.02-4.86-4.38-3.84-7.51zM142.01 262.05a6.415 6.415 0 015.73-7.05c3.54-.37 6.71 2.19 7.09 5.71a6.415 6.415 0 01-5.73 7.05c-3.54.37-6.71-2.19-7.09-5.72zM127.47 273.98c.42-3.97 3.98-6.85 7.97-6.43 3.99.42 6.88 3.98 6.47 7.95-.42 3.97-3.98 6.85-7.97 6.43-3.99-.42-6.88-3.98-6.47-7.95zM137.26 294.16c-.45-4.29 2.67-8.13 6.98-8.58 4.31-.45 8.17 2.66 8.62 6.95.45 4.29-2.67 8.13-6.98 8.58-4.31.45-8.17-2.66-8.62-6.95zM135.69 309.34c-.47 4.49-4.51 7.75-9.03 7.27-4.51-.48-7.79-4.51-7.32-9 .47-4.49 4.51-7.75 9.02-7.27 4.51.48 7.79 4.51 7.32 9zM134.87 245.29c.34-3.27 3.28-5.63 6.56-5.29 3.28.35 5.66 3.27 5.32 6.54-.34 3.27-3.28 5.63-6.56 5.29-3.28-.35-5.66-3.28-5.32-6.54zM163.61 263.39c-1.1-3.37.76-6.99 4.14-8.09 3.39-1.1 7.02.75 8.12 4.12 1.1 3.37-.76 6.99-4.14 8.09-3.39 1.1-7.02-.75-8.12-4.12zM151.86 278.09c-.42-3.97 2.47-7.52 6.46-7.94 3.99-.42 7.56 2.46 7.98 6.43.42 3.97-2.47 7.53-6.46 7.94-3.99.42-7.56-2.46-7.98-6.43zM165.64 295.79c-1.34-4.1.92-8.51 5.04-9.84 4.12-1.34 8.54.91 9.88 5.01 1.34 4.1-.92 8.51-5.04 9.84s-8.54-.91-9.88-5.01zM167.26 310.97c.47 4.49-2.8 8.52-7.32 8.99-4.52.47-8.56-2.79-9.03-7.28-.47-4.49 2.8-8.52 7.32-8.99 4.51-.47 8.56 2.79 9.03 7.28zM153.14 248.48c-.34-3.27 2.04-6.19 5.32-6.54 3.28-.34 6.22 2.03 6.56 5.29.34 3.27-2.03 6.19-5.32 6.54-3.28.34-6.22-2.03-6.56-5.29zM185.01 260.21c-1.78-3.07-.71-7 2.37-8.78 3.08-1.78 7.02-.73 8.8 2.34 1.77 3.07.71 7-2.37 8.77-3.08 1.78-7.02.73-8.8-2.34zM176.57 277.03c-1.23-3.8.85-7.87 4.67-9.11 3.81-1.24 7.9.84 9.14 4.63 1.23 3.8-.85 7.87-4.67 9.11-3.81 1.24-7.9-.84-9.14-4.63zM193.73 291.48c-2.16-3.73-.87-8.51 2.88-10.67s8.54-.89 10.7 2.84.87 8.51-2.88 10.67-8.54.89-10.7-2.84zM198.47 305.99c1.4 4.3-.97 8.91-5.29 10.31-4.32 1.4-8.95-.95-10.35-5.25-1.4-4.3.97-8.91 5.29-10.31s8.95.95 10.35 5.25zM171.67 247.8c-1.02-3.12.7-6.48 3.84-7.5 3.14-1.02 6.51.69 7.52 3.81 1.02 3.12-.7 6.48-3.84 7.5-3.14 1.02-6.51-.69-7.52-3.81zM205.28 252.65c-2.37-2.63-2.15-6.7.49-9.08 2.65-2.38 6.72-2.17 9.09.46s2.15 6.7-.49 9.08c-2.65 2.38-6.72 2.18-9.09-.46zM200.53 270.85c-2-3.46-.8-7.88 2.67-9.88 3.47-2 7.91-.83 9.9 2.63 2 3.46.8 7.88-2.67 9.88-3.47 2-7.91.82-9.9-2.63zM220.32 281.42c-2.89-3.2-2.62-8.15.6-11.04 3.22-2.9 8.17-2.65 11.06.56 2.89 3.2 2.62 8.15-.6 11.04-3.22 2.89-8.17 2.65-11.06-.56zM227.96 294.63c2.26 3.91.91 8.92-3.03 11.19-3.93 2.27-8.95.93-11.22-2.98-2.26-3.91-.91-8.92 3.03-11.19 3.93-2.27 8.95-.93 11.21 2.98zM189.65 243.29c-1.64-2.84-.66-6.48 2.2-8.13 2.86-1.65 6.51-.68 8.15 2.17 1.64 2.84.66 6.48-2.2 8.13-2.86 1.65-6.51.68-8.15-2.17zM223.54 241.05c-2.87-2.08-3.5-6.1-1.4-8.98 2.09-2.88 6.12-3.52 8.99-1.44s3.5 6.1 1.4 8.98c-2.09 2.88-6.12 3.52-8.99 1.44zM222.67 259.84c-2.67-2.97-2.42-7.54.56-10.22 2.98-2.68 7.56-2.45 10.23.51 2.67 2.97 2.42 7.54-.56 10.22-2.98 2.68-7.56 2.45-10.23-.51zM244.23 266.06c-3.49-2.53-4.26-7.42-1.71-10.93 2.55-3.5 7.44-4.29 10.94-1.75 3.49 2.53 4.26 7.42 1.71 10.93-2.55 3.5-7.44 4.29-10.94 1.75zM254.45 277.39c3.03 3.36 2.74 8.54-.63 11.57-3.38 3.04-8.56 2.78-11.59-.58-3.03-3.36-2.74-8.54.63-11.57 3.38-3.03 8.56-2.78 11.59.58zM206.3 235.13c-2.2-2.44-1.99-6.21.46-8.41 2.45-2.21 6.22-2.02 8.42.42s1.99 6.21-.46 8.41c-2.45 2.21-6.22 2.02-8.42-.42zM238.98 225.89c-3.24-1.44-4.69-5.24-3.24-8.49s5.25-4.72 8.49-3.28 4.69 5.24 3.24 8.49-5.25 4.72-8.49 3.28zM242.04 244.45c-3.23-2.34-3.94-6.87-1.58-10.11 2.36-3.24 6.89-3.97 10.12-1.63 3.23 2.34 3.94 6.87 1.58 10.11-2.36 3.24-6.89 3.97-10.12 1.63zM264.42 246.06c-3.94-1.75-5.71-6.38-3.94-10.33 1.76-3.95 6.39-5.74 10.33-3.99 3.94 1.75 5.71 6.38 3.94 10.33-1.76 3.95-6.39 5.74-10.33 3.99zM276.78 255.01c3.66 2.65 4.46 7.78 1.79 11.45-2.67 3.67-7.8 4.5-11.46 1.84-3.66-2.65-4.46-7.78-1.79-11.45 2.67-3.67 7.8-4.49 11.46-1.84zM220.89 223.69c-2.66-1.93-3.24-5.66-1.3-8.32 1.94-2.67 5.67-3.27 8.33-1.34s3.24 5.66 1.3 8.32c-1.94 2.67-5.67 3.27-8.33 1.34zM250.94 207.86c-3.47-.73-5.68-4.15-4.94-7.63.74-3.48 4.16-5.71 7.63-4.97 3.47.73 5.68 4.15 4.94 7.63-.74 3.48-4.16 5.71-7.63 4.97zM257.79 225.38c-3.65-1.62-5.28-5.9-3.65-9.56 1.63-3.66 5.91-5.31 9.56-3.69 3.65 1.62 5.28 5.9 3.65 9.56-1.63 3.66-5.91 5.31-9.56 3.69zM280.01 222.3c-4.22-.89-6.91-5.05-6-9.29.9-4.24 5.06-6.94 9.28-6.05 4.22.89 6.91 5.05 6 9.29-.9 4.24-5.06 6.94-9.28 6.05zM293.96 228.49c4.13 1.84 5.98 6.68 4.13 10.83-1.85 4.15-6.7 6.02-10.82 4.18-4.13-1.84-5.98-6.69-4.13-10.83 1.85-4.15 6.7-6.02 10.82-4.18zM232.79 209.47c-3-1.33-4.35-4.86-3-7.87a5.974 5.974 0 017.87-3.04c3 1.33 4.35 4.86 3 7.87a5.974 5.974 0 01-7.87 3.04zM258.89 187.74a6.41 6.41 0 01-6.41-6.44c0-3.56 2.88-6.45 6.42-6.45a6.41 6.41 0 016.41 6.44c0 3.56-2.88 6.45-6.42 6.45zM269.23 203.45c-3.9-.83-6.39-4.68-5.56-8.6.83-3.92 4.68-6.43 8.58-5.6 3.9.83 6.39 4.68 5.56 8.6-.83 3.92-4.68 6.43-8.58 5.6zM290.33 195.81c-4.31 0-7.81-3.5-7.8-7.84 0-4.33 3.5-7.84 7.82-7.85 4.31 0 7.81 3.5 7.8 7.83 0 4.33-3.5 7.84-7.82 7.85zM305.26 198.97c4.42.94 7.24 5.3 6.29 9.74-.95 4.44-5.3 7.28-9.72 6.34-4.42-.94-7.24-5.3-6.29-9.74.95-4.44 5.3-7.28 9.72-6.34zM241.47 193.09c-3.21-.68-5.26-3.85-4.57-7.08.69-3.23 3.85-5.29 7.06-4.61 3.21.68 5.26 3.85 4.57 7.08-.69 3.23-3.85 5.29-7.06 4.61zM262.48 166.4a6.409 6.409 0 01-7.61-4.97c-.74-3.48 1.48-6.91 4.94-7.65a6.41 6.41 0 017.61 4.96c.74 3.48-1.48 6.91-4.94 7.65zM275.86 179.62c-3.99 0-7.22-3.25-7.22-7.25 0-4.01 3.24-7.26 7.23-7.26s7.22 3.25 7.22 7.25c0 4.01-3.24 7.26-7.23 7.26zM294.91 167.76c-4.22.9-8.37-1.8-9.26-6.04-.9-4.24 1.8-8.4 6.01-9.3 4.22-.9 8.37 1.8 9.26 6.04.9 4.24-1.8 8.4-6.01 9.3zM310.17 167.74c4.52 0 8.18 3.68 8.18 8.22 0 4.54-3.67 8.22-8.19 8.22s-8.18-3.68-8.18-8.22c0-4.54 3.67-8.22 8.19-8.22zM246.55 175.25c-3.28 0-5.95-2.67-5.95-5.97s2.67-5.97 5.95-5.98c3.28 0 5.95 2.67 5.94 5.97 0 3.3-2.66 5.97-5.95 5.98zM261.55 144.78c-3.24 1.44-7.03-.02-8.48-3.27-1.44-3.25 0-7.06 3.25-8.51 3.24-1.45 7.03.02 8.48 3.27 1.45 3.25 0 7.06-3.25 8.51zM277.39 154.93c-3.9.83-7.74-1.67-8.57-5.59-.83-3.92 1.66-7.77 5.56-8.61 3.9-.83 7.74 1.67 8.57 5.59.83 3.92-1.66 7.77-5.56 8.6zM293.56 139.37c-3.94 1.76-8.56-.03-10.32-3.98-1.76-3.96 0-8.59 3.95-10.35 3.94-1.76 8.56.03 10.32 3.98s0 8.59-3.95 10.35zM308.48 136.18c4.42-.94 8.76 1.89 9.71 6.34.94 4.44-1.88 8.81-6.3 9.75-4.42.94-8.77-1.89-9.71-6.34-.94-4.44 1.88-8.8 6.3-9.75zM247.81 156.76c-3.21.68-6.37-1.38-7.06-4.6-.68-3.23 1.36-6.4 4.58-7.08s6.37 1.38 7.06 4.6c.68 3.23-1.36 6.4-4.58 7.08zM256.15 123.83c-2.87 2.09-6.88 1.44-8.97-1.44-2.09-2.88-1.46-6.91 1.41-9s6.88-1.44 8.97 1.44c2.09 2.88 1.46 6.91-1.41 8.99zM273.75 130.46c-3.64 1.63-7.92-.03-9.55-3.69-1.63-3.66 0-7.95 3.65-9.57 3.65-1.63 7.92.03 9.55 3.69 1.63 3.66 0 7.95-3.65 9.57zM286.34 111.89c-3.49 2.54-8.38 1.75-10.92-1.75-2.54-3.51-1.78-8.41 1.71-10.94 3.49-2.54 8.38-1.75 10.92 1.75 2.54 3.51 1.78 8.41-1.71 10.94zM300.27 105.66c4.13-1.84 8.97.03 10.81 4.18 1.84 4.15 0 9-4.13 10.84-4.13 1.84-8.97-.03-10.81-4.18-1.84-4.15 0-9 4.13-10.84zM245.2 138.4c-3 1.34-6.52-.02-7.86-3.04-1.34-3.01 0-6.54 3-7.88 3-1.34 6.52.02 7.86 3.04 1.34 3.01 0 6.54-3 7.88zM246.51 104.46c-2.37 2.64-6.43 2.84-9.08.46-2.64-2.38-2.87-6.45-.5-9.09 2.37-2.64 6.43-2.84 9.08-.46 2.64 2.38 2.87 6.45.5 9.09zM265.11 107.29c-3.23 2.35-7.75 1.62-10.11-1.62-2.35-3.24-1.65-7.78 1.58-10.12 3.23-2.35 7.75-1.62 10.11 1.62 2.36 3.24 1.65 7.78-1.58 10.12zM273.55 86.5c-2.88 3.21-7.83 3.46-11.04.56s-3.49-7.85-.6-11.06c2.88-3.21 7.83-3.46 11.04-.56 3.22 2.9 3.49 7.85.6 11.06zM285.88 77.51c3.65-2.66 8.78-1.83 11.44 1.84 2.67 3.67 1.87 8.81-1.79 11.46-3.65 2.66-8.78 1.83-11.44-1.84-2.67-3.67-1.87-8.81 1.79-11.47zM238.83 120.98c-2.66 1.93-6.38 1.33-8.32-1.33-1.94-2.67-1.36-6.4 1.3-8.33 2.66-1.93 6.38-1.33 8.32 1.33 1.94 2.67 1.36 6.4-1.3 8.33zM233.06 87.52c-1.77 3.07-5.7 4.12-8.78 2.33-3.08-1.78-4.14-5.72-2.37-8.79 1.77-3.07 5.7-4.12 8.78-2.34 3.08 1.78 4.14 5.72 2.37 8.79zM251.84 86.41c-2.67 2.97-7.25 3.2-10.22.52-2.98-2.68-3.23-7.26-.56-10.23 2.67-2.97 7.25-3.2 10.22-.52 2.98 2.68 3.23 7.26.56 10.23zM255.77 64.33c-2.15 3.74-6.94 5.01-10.69 2.84-3.75-2.17-5.04-6.96-2.89-10.69 2.15-3.74 6.94-5.01 10.69-2.84 3.75 2.17 5.04 6.96 2.89 10.69zM265.97 52.97c3.02-3.36 8.2-3.62 11.58-.58 3.37 3.04 3.65 8.23.63 11.59-3.02 3.36-8.2 3.62-11.58.58-3.37-3.04-3.66-8.23-.63-11.59zM228.98 105.28c-2.2 2.44-5.96 2.63-8.41.42s-2.66-5.98-.46-8.42c2.2-2.44 5.96-2.63 8.41-.42s2.66 5.98.46 8.42zM216.38 73.74c-1.09 3.37-4.72 5.21-8.11 4.11-3.38-1.1-5.24-4.73-4.15-8.1 1.09-3.37 4.72-5.21 8.11-4.11 3.38 1.1 5.24 4.73 4.15 8.1zM234.51 68.76c-1.99 3.46-6.42 4.63-9.89 2.63-3.47-2.01-4.67-6.43-2.67-9.89 1.99-3.46 6.42-4.63 9.89-2.63 3.47 2.01 4.67 6.43 2.67 9.89zM233.77 46.33c-1.33 4.1-5.75 6.34-9.86 5-4.12-1.34-6.38-5.76-5.05-9.86s5.74-6.34 9.86-5c4.12 1.34 6.38 5.75 5.05 9.86zM241.38 33.11c2.26-3.91 7.27-5.25 11.2-2.97 3.93 2.27 5.29 7.29 3.03 11.2-2.26 3.91-7.27 5.25-11.2 2.97-3.93-2.27-5.29-7.29-3.03-11.2zM216.08 91.96c-1.64 2.84-5.29 3.81-8.14 2.16a5.962 5.962 0 01-2.2-8.14c1.64-2.85 5.29-3.81 8.14-2.16 2.86 1.65 3.84 5.3 2.2 8.14zM197.19 63.73c-.37 3.53-3.53 6.08-7.07 5.71-3.54-.38-6.11-3.54-5.74-7.06.37-3.53 3.53-6.08 7.07-5.71 3.54.38 6.11 3.54 5.74 7.06zM213.89 55.09c-1.23 3.8-5.32 5.87-9.13 4.63-3.81-1.24-5.9-5.32-4.67-9.12 1.23-3.8 5.32-5.87 9.13-4.63 3.81 1.24 5.9 5.32 4.67 9.12zM208.51 33.31c-.45 4.29-4.3 7.4-8.61 6.94-4.31-.46-7.44-4.3-6.99-8.59.45-4.29 4.3-7.4 8.61-6.94 4.31.46 7.44 4.3 6.99 8.59zM213.2 18.79c1.39-4.3 6.02-6.64 10.34-5.24 4.32 1.41 6.69 6.03 5.29 10.33-1.39 4.3-6.02 6.64-10.34 5.24-4.32-1.41-6.69-6.03-5.29-10.33zM200.69 81.62c-1.01 3.12-4.38 4.83-7.51 3.81-3.14-1.02-4.86-4.38-3.84-7.51 1.01-3.12 4.38-4.83 7.51-3.81 3.14 1.02 4.86 4.38 3.84 7.51zM176.35 57.93a6.415 6.415 0 01-5.73 7.05c-3.54.37-6.71-2.19-7.09-5.71a6.415 6.415 0 015.73-7.05c3.54-.37 6.71 2.19 7.09 5.72zM190.89 46c-.42 3.97-3.98 6.85-7.97 6.43-3.99-.42-6.88-3.98-6.47-7.95.42-3.97 3.98-6.85 7.97-6.43 3.99.42 6.88 3.98 6.47 7.95zM181.09 25.82c.45 4.29-2.67 8.13-6.98 8.58-4.31.45-8.17-2.66-8.62-6.95-.45-4.29 2.67-8.13 6.98-8.58 4.31-.45 8.17 2.66 8.62 6.95zM182.66 10.64c.47-4.49 4.51-7.75 9.02-7.27 4.51.48 7.79 4.51 7.32 9-.47 4.49-4.51 7.75-9.02 7.27-4.51-.48-7.79-4.51-7.32-9zM183.49 74.7c-.34 3.27-3.28 5.63-6.56 5.29-3.28-.35-5.66-3.27-5.32-6.54.34-3.27 3.28-5.63 6.56-5.29 3.28.35 5.66 3.27 5.32 6.54zM126.23 148.52c0-3.93-3.2-7.11-7.14-7.11s-7.15 3.19-7.15 7.11 3.2 7.11 7.15 7.11 7.14-3.19 7.14-7.11zM129.87 126.74c0-3.93-3.2-7.11-7.15-7.11s-7.15 3.18-7.15 7.11 3.2 7.11 7.15 7.11 7.15-3.18 7.15-7.11zM148.1 142.75c0-3.93-3.2-7.11-7.14-7.11s-7.15 3.18-7.15 7.11 3.2 7.11 7.15 7.11 7.14-3.18 7.14-7.11zM166.33 158.77c0-3.93-3.2-7.11-7.14-7.11s-7.15 3.18-7.15 7.11 3.2 7.11 7.15 7.11 7.14-3.18 7.14-7.11zM199.43 192.08c0-3.93 3.2-7.11 7.15-7.11s7.15 3.19 7.15 7.11-3.2 7.11-7.15 7.11-7.15-3.19-7.15-7.11zM195.79 170.3c0-3.93 3.2-7.11 7.14-7.11s7.15 3.18 7.15 7.11-3.2 7.11-7.15 7.11-7.14-3.18-7.14-7.11zM192.14 148.52c0-3.93 3.2-7.11 7.14-7.11s7.15 3.18 7.15 7.11-3.2 7.11-7.15 7.11-7.14-3.18-7.14-7.11zM188.49 126.74c0-3.93 3.2-7.11 7.15-7.11s7.15 3.19 7.15 7.11-3.2 7.11-7.15 7.11-7.15-3.18-7.15-7.11zM170.27 142.75c0-3.93 3.2-7.11 7.14-7.11s7.15 3.18 7.15 7.11-3.2 7.11-7.15 7.11-7.14-3.18-7.14-7.11zM118.94 192.08c0-3.93-3.2-7.11-7.15-7.11s-7.14 3.18-7.14 7.11 3.2 7.11 7.14 7.11 7.15-3.18 7.15-7.11zM122.58 170.3c0-3.93-3.2-7.11-7.14-7.11s-7.15 3.18-7.15 7.11 3.2 7.11 7.15 7.11 7.14-3.18 7.14-7.11zM413.99 184.24l-6.86-48.21h-6.77l-12.24 34.3c-1.21 3.43-1.95 5.47-2.69 8.71h-.09c-.46-2.5-1.58-5.66-2.87-9.27l-11.87-33.75h-6.12l-7.05 48.21h5.01l3.89-30.22c.65-5.01 1.11-8.9 1.3-12.61h.09c.46 2.6 1.95 6.4 3.15 9.92l11.59 32.91h5.66l12.42-35.14c1.11-3.15 1.95-5.84 2.41-7.7h.09c.28 2.5.65 6.4 1.48 12.52l4.26 30.32h5.19zM471.83 166.07v-30.04h-4.91v30.22c0 8.44-3.8 14.56-14.74 14.56-9.09 0-14.65-4.17-14.65-13.26v-31.52h-5.01v31.89c0 11.22 6.95 16.97 19.19 16.97 14.46 0 20.12-8.81 20.12-18.82zM518.7 170.24c0-15.85-25.96-10.2-25.96-21.97 0-5.28 4.08-8.71 12.61-8.71 3.06 0 7.51.65 10.29 1.48l.28-4.73c-2.87-.56-7.04-.93-10.2-.93-11.12 0-18.08 5.28-18.08 13.54 0 15.2 25.87 9.92 25.87 21.69 0 7.42-6.86 9.92-12.89 9.92-4.54 0-8.81-.83-11.87-2.13l-.28 5.19c2.69.74 7.32 1.3 11.31 1.3 9.73 0 18.91-5.28 18.91-14.65zM540.2 184.24v-48.21h-5.01v48.21h5.01zM565.97 184.24v-48.21h-5.01v48.21h5.01zM621.69 184.24l-23.92-24.94 23.08-23.27h-6.49l-22.62 23.55v-23.55h-5.01v48.21h5.01v-24.66l22.9 24.66h7.05zM669.79 184.24l-23.92-24.94 23.09-23.27h-6.49l-22.63 23.55v-23.55h-5v48.21h5v-24.66l22.9 24.66h7.05zM687.95 184.24v-48.21h-5.01v48.21h5.01zM735.69 140.02v-3.99h-35.51v3.99h15.21v44.22h5v-44.22h15.3zM784.07 184.24l-19.19-48.21h-5.28l-19.47 48.21h5.1l4.64-11.68h24.11l4.54 11.68h5.56zm-11.68-15.57h-20.95l7.42-18.64c1.21-3.15 2.32-6.3 3.06-8.9h.09c.74 2.41 1.85 5.65 3.06 8.71l7.32 18.82zM820.87 184.24v-3.98h-18.82v-44.23h-5.01v48.21h23.83zM873.52 159.86c0-15.39-7.7-24.48-22.16-24.48-12.7 0-23.18 8.99-23.18 25.12 0 13.91 6.31 24.38 21.79 24.38 13.35 0 23.55-8.81 23.55-25.03zm-5.38.74c0 13.07-7.6 20.12-17.71 20.12-12.89 0-16.97-9.83-16.97-20.86 0-13.26 8.16-20.4 17.34-20.4 10.85 0 17.34 7.42 17.34 21.14z"></path></svg>
