<svg width="130" height="52" viewBox="0 0 130 52" fill="none" xmlns="http://www.w3.org/2000/svg">
<g clip-path="url(#clip0_491_367)">
<path d="M23.0335 10.5944C23.1972 11.0939 22.9204 11.6306 22.4173 11.7936C21.9128 11.9567 21.3726 11.6825 21.2089 11.1829C21.0452 10.6833 21.322 10.1467 21.825 9.98361C22.3295 9.82054 22.8698 10.0948 23.0335 10.5944ZM24.7806 8.41669C24.8432 9.00521 24.4131 9.53147 23.8192 9.59373C23.2254 9.65599 22.6941 9.22905 22.6316 8.64053C22.5691 8.05201 22.9992 7.52576 23.593 7.46349C24.1868 7.40123 24.7181 7.82817 24.7806 8.41669ZM22.7299 5.79281C22.9293 6.4006 22.5929 7.05435 21.9798 7.25151C21.3666 7.44867 20.7088 7.11661 20.5094 6.50882C20.31 5.90103 20.6463 5.24728 21.2595 5.05012C21.8726 4.85296 22.5304 5.18502 22.7299 5.79281ZM22.4888 3.5425C22.4188 2.87689 22.9055 2.27948 23.5782 2.20981C24.2493 2.14013 24.8521 2.6234 24.922 3.28901C24.992 3.95461 24.5053 4.55203 23.8326 4.6217C23.16 4.69137 22.5587 4.2081 22.4888 3.5425ZM24.5902 12.8061C24.6408 13.2909 24.2866 13.7237 23.7984 13.7756C23.3103 13.826 22.8727 13.4747 22.8221 12.9914C22.7715 12.5067 23.1257 12.0738 23.6139 12.0219C24.102 11.9715 24.5396 12.3229 24.5902 12.8061ZM19.8472 11.0658C20.1121 11.5209 19.9528 12.1035 19.4944 12.3659C19.0361 12.6297 18.4497 12.4741 18.1848 12.019C17.9199 11.5639 18.0791 10.9813 18.5375 10.7189C18.9959 10.455 19.5823 10.6107 19.8472 11.0658ZM21.1017 8.57383C21.2848 9.13714 20.9752 9.74049 20.4067 9.92431C19.8397 10.1081 19.231 9.79979 19.0465 9.23795C18.8634 8.67463 19.173 8.07129 19.7415 7.88747C20.3085 7.70365 20.9172 8.01199 21.1017 8.57383ZM18.5494 6.43173C18.8709 6.98467 18.6789 7.69327 18.1208 8.01347C17.5627 8.33367 16.8499 8.14541 16.5284 7.59098C16.2069 7.03804 16.3989 6.32944 16.957 6.00924C17.5151 5.68904 18.228 5.87731 18.5494 6.43173ZM17.844 4.28074C17.6356 3.6433 17.9884 2.95991 18.6313 2.75237C19.2742 2.54483 19.9632 2.8932 20.1716 3.53064C20.3799 4.16808 20.0272 4.85147 19.3843 5.05901C18.7414 5.26655 18.0524 4.91818 17.844 4.28074ZM21.8325 12.9055C21.9843 13.368 21.7283 13.8661 21.261 14.0173C20.7937 14.1685 20.2936 13.915 20.1418 13.4525C19.99 12.9899 20.246 12.4919 20.7133 12.3406C21.1806 12.1894 21.6807 12.4429 21.8325 12.9055ZM16.8305 12.1865C17.1832 12.5764 17.1505 13.1797 16.7576 13.531C16.3632 13.8838 15.7575 13.8527 15.4048 13.4628C15.0521 13.073 15.0848 12.4696 15.4777 12.1183C15.8721 11.7655 16.4778 11.7966 16.8305 12.1865ZM17.5374 9.48848C17.8351 10.0014 17.6565 10.6566 17.1401 10.9531C16.6236 11.2496 15.9644 11.0747 15.6667 10.5632C15.3691 10.0503 15.5477 9.39508 16.0641 9.0986C16.5805 8.80212 17.2413 8.97704 17.5374 9.48848ZM14.5937 7.92156C15.0238 8.39594 14.9836 9.12973 14.5044 9.55815C14.0252 9.98657 13.2885 9.95099 12.8584 9.47514C12.4283 9.00076 12.4685 8.26696 12.9477 7.83855C13.4269 7.41013 14.1636 7.44719 14.5937 7.92156ZM13.4552 5.96477C13.1189 5.38514 13.3198 4.64245 13.9061 4.30594C14.491 3.96944 15.2381 4.16808 15.5744 4.7477C15.9108 5.32733 15.7099 6.07002 15.1235 6.40653C14.5386 6.74304 13.7915 6.5444 13.4552 5.96477ZM19.1566 13.5755C19.4007 13.9965 19.2548 14.5376 18.8292 14.7807C18.4036 15.0253 17.8604 14.8815 17.6163 14.4605C17.3722 14.0395 17.5181 13.4984 17.9437 13.2553C18.3693 13.0107 18.9125 13.1545 19.1566 13.577V13.5755ZM14.113 13.9076C14.5401 14.2159 14.6339 14.8118 14.3214 15.2388C14.0103 15.6657 13.4106 15.7606 12.9834 15.4522C12.5563 15.1439 12.4626 14.548 12.7751 14.121C13.0861 13.6941 13.6859 13.5992 14.113 13.9076ZM14.2425 11.1221C14.6398 11.5624 14.6026 12.2398 14.1591 12.6371C13.7156 13.0344 13.034 13.0003 12.6367 12.56C12.2393 12.1213 12.2765 11.4423 12.72 11.045C13.1635 10.6477 13.8451 10.6818 14.2425 11.1221ZM11.0353 10.1986C11.5547 10.5736 11.6693 11.2985 11.2898 11.8174C10.9103 12.3362 10.1826 12.4533 9.6617 12.0768C9.14231 11.7017 9.02772 10.9768 9.40722 10.4565C9.78671 9.93765 10.5145 9.82054 11.0353 10.1971V10.1986ZM9.51288 8.52046C9.06343 8.02237 9.10511 7.25447 9.60664 6.8053C10.1097 6.35465 10.8806 6.39467 11.3315 6.89128C11.7809 7.38937 11.7393 8.15727 11.2363 8.60644C10.7332 9.05709 9.96233 9.01707 9.51139 8.52046H9.51288ZM16.6787 14.7837C17.0061 15.1454 16.9749 15.7043 16.6103 16.0304C16.2456 16.358 15.6846 16.3298 15.3572 15.9681C15.0298 15.6064 15.061 15.0475 15.4256 14.7214C15.7902 14.3938 16.3513 14.422 16.6787 14.7837ZM11.8152 16.1534C12.2974 16.3669 12.5132 16.9302 12.2974 17.412C12.0816 17.8938 11.516 18.1117 11.0339 17.8982C10.5517 17.6848 10.3359 17.1214 10.5517 16.6397C10.7675 16.1579 11.333 15.94 11.8152 16.1534ZM11.3598 13.4021C11.8405 13.7489 11.9461 14.4205 11.5949 14.9008C11.2437 15.3811 10.5695 15.4893 10.0903 15.1409C9.60962 14.7941 9.50395 14.1225 9.85517 13.6422C10.2064 13.1619 10.8806 13.0537 11.3613 13.4021H11.3598ZM8.02911 13.1634C8.61548 13.4228 8.87889 14.1092 8.61548 14.6947C8.35355 15.2803 7.6645 15.5456 7.07813 15.2862C6.49177 15.0268 6.22835 14.3404 6.49177 13.7549C6.7537 13.1693 7.44275 12.904 8.02911 13.1634ZM6.18966 11.8366C5.64497 11.4438 5.52591 10.6833 5.92476 10.1393C6.32211 9.59521 7.08558 9.47365 7.63027 9.86649C8.17496 10.2593 8.29402 11.0198 7.89517 11.5639C7.49782 12.1079 6.73435 12.2295 6.18966 11.8366ZM14.5059 16.4796C14.9018 16.7657 14.9881 17.3186 14.6994 17.7129C14.4106 18.1087 13.8555 18.1977 13.4597 17.9116C13.0638 17.6255 12.9775 17.0725 13.2662 16.6782C13.5549 16.2824 14.11 16.1935 14.5059 16.4796ZM10.0353 18.8262C10.5517 18.9344 10.8806 19.4414 10.7689 19.9573C10.6573 20.4732 10.1498 20.8038 9.63343 20.6941C9.11701 20.5859 8.78811 20.0789 8.89973 19.563C9.00986 19.0471 9.51883 18.7165 10.0338 18.8262H10.0353ZM9.01581 16.229C9.55902 16.4692 9.8016 17.1037 9.55902 17.6462C9.31643 18.1888 8.67947 18.4334 8.13627 18.1932C7.59306 17.9531 7.35048 17.3186 7.59306 16.776C7.83564 16.2335 8.47261 15.9889 9.01581 16.229ZM5.70896 16.6856C6.337 16.8176 6.73733 17.4342 6.6019 18.0628C6.46796 18.6913 5.84886 19.0916 5.22082 18.9596C4.59279 18.8277 4.19245 18.211 4.32788 17.5825C4.46182 16.9554 5.08093 16.5537 5.70896 16.6856ZM3.63288 15.768C3.01824 15.4952 2.74292 14.7777 3.01824 14.1625C3.29356 13.5488 4.01535 13.2701 4.62851 13.5429C5.24314 13.8157 5.51847 14.5331 5.24314 15.1483C4.96782 15.7636 4.24603 16.0408 3.63288 15.768ZM12.7364 18.5876C13.1829 18.7847 13.3838 19.308 13.1829 19.7542C12.9819 20.2004 12.4596 20.402 12.0116 20.2049C11.5652 20.0077 11.3642 19.4844 11.5652 19.0382C11.7646 18.592 12.2899 18.3904 12.7364 18.5876ZM8.85211 21.8089C8.97776 21.8089 9.10217 21.8336 9.2182 21.8816C9.33423 21.9296 9.4396 22 9.52824 22.0887C9.61688 22.1775 9.68705 22.2827 9.73473 22.3985C9.78241 22.5143 9.80665 22.6384 9.80606 22.7635C9.80606 23.2913 9.37745 23.7197 8.85062 23.7197C8.72497 23.7197 8.60055 23.695 8.48452 23.6469C8.36849 23.5989 8.26313 23.5285 8.17449 23.4398C8.08584 23.3511 8.01567 23.2458 7.96799 23.13C7.92031 23.0142 7.89607 22.8902 7.89666 22.765C7.89666 22.2373 8.32527 21.8089 8.85211 21.8089ZM7.31327 19.48C7.89368 19.603 8.26425 20.1737 8.14073 20.7549C8.01572 21.336 7.44424 21.7081 6.86383 21.585C6.28342 21.462 5.91285 20.8912 6.03637 20.3101C6.1599 19.729 6.73286 19.3569 7.31327 19.48ZM4.17459 20.6111C4.81602 20.6111 5.3369 21.1299 5.33541 21.7718C5.33541 22.4137 4.81453 22.934 4.17162 22.9355C3.53019 22.9355 3.00931 22.4166 3.0108 21.7748C3.0108 21.1329 3.53168 20.6125 4.17459 20.6111ZM1.95118 20.1441C1.29338 20.0048 0.873698 19.3584 1.01508 18.7002C1.15646 18.042 1.80384 17.621 2.46164 17.7604C3.11944 17.8997 3.53912 18.5461 3.39774 19.2042C3.25636 19.8624 2.60898 20.2834 1.95118 20.1441ZM11.4446 21.0158C11.9223 21.1166 12.2274 21.5865 12.1247 22.0653C12.022 22.5441 11.5518 22.8495 11.074 22.7487C10.5963 22.6479 10.2912 22.178 10.3939 21.7006C10.4966 21.2218 10.9669 20.9164 11.4446 21.0172V21.0158ZM8.31783 24.9709C8.44079 24.9448 8.5677 24.9432 8.69127 24.9662C8.81485 24.9891 8.93265 25.0362 9.0379 25.1047C9.14315 25.1731 9.23377 25.2616 9.30456 25.3651C9.37535 25.4686 9.4249 25.585 9.45037 25.7076C9.5605 26.2235 9.23012 26.732 8.71519 26.8417C8.59223 26.8677 8.46532 26.8693 8.34174 26.8464C8.21817 26.8234 8.10037 26.7763 7.99512 26.7079C7.88987 26.6394 7.79925 26.5509 7.72846 26.4474C7.65767 26.3439 7.60812 26.2275 7.58264 26.1049C7.47252 25.589 7.8029 25.0806 8.31783 24.9709ZM6.32658 23.0126C6.92038 23.0126 7.40108 23.4944 7.40108 24.0873C7.40108 24.6818 6.91889 25.1636 6.32509 25.1636C5.73128 25.1636 5.25059 24.6818 5.25059 24.0888C5.25059 23.4944 5.73277 23.0126 6.32658 23.0126ZM3.4915 24.7692C4.11953 24.6358 4.73566 25.0361 4.8696 25.6646C5.00354 26.2932 4.60172 26.9099 3.97517 27.0433C3.34714 27.1767 2.73101 26.7764 2.59707 26.1479C2.46313 25.5193 2.86495 24.9027 3.4915 24.7692ZM1.22046 24.7722C0.547775 24.7722 0.00308269 24.2267 0.00457092 23.5537C0.00457092 22.8806 0.550752 22.3351 1.22343 22.3351C1.89611 22.3351 2.44081 22.8806 2.44081 23.5537C2.44081 24.2267 1.89462 24.7722 1.22194 24.7722H1.22046ZM10.6886 23.6589C11.1767 23.6589 11.5741 24.0547 11.5726 24.5439C11.5726 25.0331 11.1752 25.4289 10.6871 25.4304C10.199 25.4304 9.8016 25.0346 9.80309 24.5454C9.80309 24.0562 10.2004 23.6604 10.6886 23.6589ZM8.45624 28.1758C8.93842 27.9624 9.50246 28.1788 9.71826 28.6606C9.93405 29.1424 9.71826 29.7072 9.23607 29.9221C8.75388 30.1371 8.18984 29.9192 7.97405 29.4374C7.75826 28.9556 7.97405 28.3908 8.45772 28.1758H8.45624ZM6.09888 26.6727C6.67929 26.5496 7.25077 26.9202 7.37429 27.5013C7.49782 28.0824 7.12725 28.6532 6.54684 28.7762C5.96643 28.8993 5.39494 28.5287 5.27142 27.9475C5.1479 27.3664 5.51847 26.7957 6.09888 26.6727ZM3.69241 28.9778C4.27877 28.7169 4.96633 28.9823 5.22826 29.5678C5.49019 30.1549 5.22826 30.8412 4.64041 31.1021C4.05405 31.363 3.36649 31.0977 3.10456 30.5121C2.84263 29.9251 3.10456 29.2387 3.69241 28.9778ZM1.47197 29.4507C0.814169 29.5901 0.168276 29.1691 0.0268944 28.5109C-0.112999 27.8527 0.306682 27.2063 0.96448 27.0655C1.62228 26.9262 2.26817 27.3472 2.40806 28.0054C2.54796 28.6636 2.12828 29.3099 1.47048 29.4507H1.47197ZM10.4996 26.4014C10.9773 26.3006 11.4476 26.606 11.5503 27.0833C11.6515 27.5621 11.3479 28.032 10.8687 28.1329C10.3909 28.2337 9.92066 27.9283 9.81797 27.4509C9.71677 26.9721 10.0219 26.5022 10.4996 26.4014ZM9.25839 31.2815C9.68552 30.9717 10.2823 31.068 10.5933 31.495C10.9044 31.9219 10.8106 32.5193 10.3835 32.8277C9.95637 33.1375 9.35959 33.0411 9.04855 32.6142C8.73751 32.1873 8.83127 31.5898 9.25839 31.2815ZM6.63911 30.2987C7.18082 30.0585 7.81778 30.3031 8.06037 30.8457C8.30295 31.3882 8.06037 32.0242 7.51716 32.2643C6.97396 32.506 6.33848 32.2599 6.0959 31.7173C5.85332 31.1748 6.0959 30.5388 6.63911 30.2987ZM4.76691 33.053C5.2863 32.6765 6.01405 32.7936 6.39206 33.3124C6.77007 33.8327 6.65696 34.5576 6.13757 34.9342C5.61818 35.3107 4.89043 35.1936 4.51242 34.6748C4.13441 34.1544 4.24752 33.428 4.76691 33.053ZM2.6938 33.9751C2.07917 34.2478 1.35886 33.9706 1.08503 33.3554C0.811192 32.7402 1.08503 32.0212 1.69967 31.7485C2.31431 31.4757 3.03461 31.7529 3.30844 32.3681C3.58228 32.9833 3.30844 33.7023 2.6938 33.9751ZM10.888 29.1231C11.3345 28.9245 11.8583 29.1261 12.0578 29.5738C12.2572 30.02 12.0578 30.5433 11.6098 30.7419C11.1633 30.9405 10.6395 30.7389 10.44 30.2913C10.2406 29.845 10.44 29.3217 10.888 29.1231ZM10.693 34.153C11.0458 33.7616 11.65 33.7319 12.0444 34.0848C12.4373 34.4376 12.47 35.0409 12.1173 35.4323C11.7646 35.8236 11.1604 35.8533 10.766 35.5005C10.3716 35.1477 10.3403 34.5443 10.693 34.153ZM7.92494 33.7349C8.40564 33.3865 9.07832 33.4948 9.42954 33.9751C9.77927 34.4554 9.6751 35.1284 9.1944 35.4753C8.7137 35.8236 8.04102 35.7154 7.6898 35.2351C7.34006 34.7548 7.44424 34.0833 7.92494 33.7349ZM6.66887 36.8154C7.09748 36.3395 7.83416 36.3025 8.31188 36.7324C8.79109 37.1623 8.82978 37.8961 8.40117 38.3719C7.97256 38.8478 7.23589 38.8848 6.75816 38.4549C6.27895 38.025 6.23877 37.2912 6.66887 36.8154ZM4.83388 38.1481C4.29068 38.5424 3.52721 38.4193 3.13134 37.8753C2.73399 37.3313 2.85453 36.5693 3.39774 36.1764C3.94094 35.7821 4.70441 35.9052 5.10027 36.4492C5.49763 36.9947 5.37709 37.7552 4.83388 38.1495V38.1481ZM11.836 31.704C12.2319 31.4179 12.7855 31.5068 13.0742 31.9026C13.3629 32.2984 13.2766 32.8514 12.8807 33.1375C12.4849 33.4236 11.9313 33.3347 11.6425 32.9388C11.3538 32.543 11.4416 31.9901 11.836 31.704ZM12.6947 36.6656C12.9581 36.2105 13.543 36.0549 14.0014 36.3202C14.4598 36.5841 14.6175 37.1682 14.3541 37.6233C14.0907 38.0784 13.5058 38.234 13.0474 37.9702C12.5891 37.7063 12.4313 37.1222 12.6947 36.6671V36.6656ZM9.90131 36.8287C10.2987 36.3884 10.9803 36.3543 11.4223 36.7531C11.8658 37.1504 11.903 37.8293 11.5056 38.2696C11.1083 38.7099 10.4267 38.744 9.98465 38.3452C9.54116 37.9479 9.50395 37.269 9.90131 36.8287ZM9.31495 40.1034C9.63492 39.549 10.3478 39.3607 10.9059 39.6824C11.464 40.0041 11.6559 40.7141 11.336 41.2671C11.016 41.8215 10.3031 42.0098 9.74505 41.6881C9.18696 41.3664 8.99498 40.6563 9.31495 40.1034ZM7.79695 41.7859C7.3475 42.284 6.5766 42.3226 6.07358 41.8719C5.57204 41.4212 5.53037 40.6519 5.97982 40.1538C6.42927 39.6557 7.20017 39.6171 7.70319 40.0678C8.20473 40.5185 8.2464 41.2878 7.79695 41.7859ZM13.3019 34.0329C13.6293 33.6712 14.1889 33.643 14.5535 33.9706C14.9181 34.2982 14.9494 34.8571 14.622 35.2188C14.2946 35.5805 13.735 35.6087 13.3704 35.2811C13.0058 34.9535 12.9745 34.3946 13.3019 34.0329ZM15.1786 38.7069C15.3408 38.2074 15.881 37.9346 16.3855 38.0977C16.8886 38.2607 17.1654 38.7988 17.0031 39.2984C16.8409 39.798 16.3007 40.0708 15.7962 39.9077C15.2932 39.7446 15.0164 39.2065 15.1786 38.7069ZM12.4789 39.4467C12.7751 38.9337 13.4344 38.7603 13.9508 39.0568C14.4672 39.3548 14.6458 40.01 14.3481 40.5229C14.052 41.0358 13.3927 41.2093 12.8763 40.9128C12.3599 40.6148 12.1813 39.9596 12.4789 39.4467ZM12.5891 42.7702C12.787 42.1625 13.4433 41.8304 14.0565 42.029C14.6696 42.2277 15.0059 42.8829 14.808 43.4907C14.6101 44.0985 13.9523 44.4306 13.3406 44.2319C12.7275 44.0333 12.3911 43.3795 12.5891 42.7702ZM11.4565 44.7315C11.1202 45.3111 10.3746 45.5098 9.78969 45.1718C9.20482 44.8338 9.00242 44.0911 9.33876 43.5115C9.6751 42.9318 10.4207 42.7332 11.0056 43.0712C11.5905 43.4077 11.7929 44.1519 11.4565 44.7315ZM15.2217 36.0075C15.4658 35.5864 16.009 35.4427 16.4332 35.6873C16.5342 35.7451 16.6228 35.8221 16.694 35.9141C16.7651 36.006 16.8174 36.111 16.8478 36.223C16.8782 36.3351 16.8861 36.452 16.8712 36.5671C16.8562 36.6822 16.8186 36.7933 16.7606 36.8939C16.5165 37.3149 15.9733 37.4587 15.5491 37.2141C15.1235 36.9695 14.9777 36.4285 15.2217 36.0075ZM18.033 40.1908C18.0881 39.6675 18.5584 39.2895 19.0852 39.3444C19.612 39.4007 19.9945 39.8692 19.9394 40.391C19.8844 40.9143 19.4141 41.2923 18.8873 41.2374C18.3604 41.1826 17.9779 40.7127 18.033 40.1908ZM15.5462 41.4731C15.7292 40.9098 16.3379 40.6029 16.9049 40.7868C17.4719 40.9706 17.783 41.5754 17.5999 42.1387C17.4169 42.7021 16.8082 43.0089 16.2412 42.8251C15.6742 42.6413 15.3631 42.0364 15.5462 41.4731ZM16.3483 44.7018C16.4153 44.0659 16.9883 43.6048 17.6297 43.673C18.2711 43.7397 18.7369 44.3105 18.67 44.9464C18.603 45.5824 18.03 46.0434 17.3886 45.9752C16.7472 45.907 16.2814 45.3378 16.3483 44.7018ZM15.6489 46.8543C15.442 47.4917 14.7529 47.8386 14.11 47.6311C13.4671 47.4221 13.1144 46.7372 13.3228 46.0998C13.5296 45.4623 14.2187 45.1154 14.8616 45.323C15.5045 45.532 15.8557 46.2169 15.6489 46.8543ZM17.5121 37.5403C17.6624 37.0778 18.164 36.8243 18.6298 36.9755C19.0971 37.1267 19.3531 37.6248 19.2013 38.0888C19.051 38.5513 18.5494 38.8048 18.0836 38.6536C17.6163 38.5024 17.3603 38.0043 17.5121 37.5403ZM21.1345 41.0506C21.1214 40.9262 21.1331 40.8004 21.1689 40.6805C21.2047 40.5606 21.2639 40.4489 21.3431 40.3518C21.4223 40.2547 21.52 40.1742 21.6305 40.1147C21.7411 40.0553 21.8623 40.0182 21.9872 40.0055C22.5141 39.9507 22.9858 40.3302 23.0424 40.852C23.0555 40.9764 23.0438 41.1022 23.008 41.2221C22.9722 41.342 22.913 41.4537 22.8337 41.5508C22.7545 41.6479 22.6569 41.7285 22.5463 41.7879C22.4358 41.8473 22.3146 41.8844 22.1896 41.8971C21.6628 41.952 21.191 41.5725 21.1345 41.0492V41.0506ZM18.9706 42.8192C19.0331 42.2306 19.5629 41.8037 20.1567 41.866C20.7505 41.9282 21.1806 42.456 21.1196 43.0445C21.0571 43.633 20.5273 44.0599 19.9335 43.9977C19.3397 43.9354 18.9096 43.4077 18.9706 42.8192ZM20.4276 45.8107C20.3606 45.1747 20.8249 44.6055 21.4664 44.5388C22.1078 44.4721 22.6822 44.9331 22.7492 45.569C22.8162 46.205 22.3519 46.7743 21.7104 46.841C21.069 46.9077 20.4945 46.4466 20.4276 45.8107ZM20.1939 48.061C20.124 48.7266 19.5227 49.2099 18.85 49.1387C18.1789 49.0676 17.6907 48.4701 17.7607 47.8045C17.8306 47.1389 18.4319 46.6557 19.103 46.7268C19.7742 46.798 20.2624 47.3954 20.1924 48.061H20.1939ZM20.0719 38.5661C20.1225 38.0814 20.56 37.7315 21.0482 37.7819C21.5363 37.8338 21.8905 38.2667 21.8399 38.7514C21.7893 39.2362 21.3518 39.586 20.8636 39.5356C20.3755 39.4837 20.0213 39.0494 20.0719 38.5661ZM24.3491 41.2493C24.1854 40.7497 24.4622 40.2131 24.9652 40.05C25.4697 39.8869 26.0099 40.1612 26.1736 40.6608C26.3373 41.1603 26.0605 41.697 25.5575 41.86C25.053 42.0231 24.5128 41.7489 24.3491 41.2493ZM22.6004 43.4284C22.5379 42.8399 22.968 42.3137 23.5618 42.2514C24.1556 42.1891 24.6869 42.6161 24.7494 43.2046C24.8119 43.7931 24.3818 44.3209 23.788 44.3816C23.1942 44.4439 22.6629 44.017 22.6004 43.4284ZM24.6512 46.0523C24.4517 45.4445 24.7881 44.7908 25.4012 44.5936C26.0144 44.395 26.6722 44.7285 26.8716 45.3363C27.071 45.9441 26.7347 46.5978 26.1215 46.795C25.5084 46.9922 24.8506 46.6601 24.6512 46.0523ZM24.8923 48.3026C24.9622 48.9682 24.4756 49.5656 23.8029 49.6353C23.1302 49.705 22.529 49.2217 22.459 48.5561C22.3891 47.8905 22.8757 47.2931 23.5484 47.2234C24.2196 47.1538 24.8223 47.637 24.8923 48.3026ZM22.7909 39.039C22.7403 38.5542 23.0945 38.1214 23.5826 38.0695C24.0708 38.0191 24.5083 38.3704 24.5589 38.8537C24.6095 39.3384 24.2568 39.7713 23.7672 39.8232C23.279 39.8736 22.8415 39.5223 22.7909 39.039ZM27.5339 40.7779C27.269 40.3228 27.4282 39.7402 27.8866 39.4763C28.345 39.2124 28.9313 39.3681 29.1962 39.8232C29.4596 40.2783 29.3019 40.8609 28.8435 41.1233C28.3851 41.3871 27.7988 41.2315 27.5339 40.7764V40.7779ZM26.2778 43.2713C26.0948 42.708 26.4043 42.1046 26.9728 41.9208C27.5398 41.737 28.1485 42.0453 28.3331 42.6072C28.5161 43.1705 28.2066 43.7738 27.6381 43.9577C27.071 44.1415 26.4623 43.8331 26.2778 43.2713ZM28.8316 45.4134C28.5102 44.8605 28.7021 44.1519 29.2602 43.8317C29.8183 43.5115 30.5312 43.6997 30.8526 44.2527C31.1741 44.8056 30.9821 45.5142 30.424 45.8344C29.8659 46.1546 29.1531 45.9663 28.8316 45.4134ZM29.537 47.5644C29.7454 48.2018 29.3927 48.8852 28.7498 49.0928C28.1068 49.3003 27.4178 48.9519 27.2094 48.3145C27.0011 47.677 27.3538 46.9937 27.9967 46.7861C28.6396 46.5786 29.3287 46.9269 29.537 47.5644ZM25.5486 38.9382C25.3968 38.4757 25.6527 37.9776 26.1201 37.8264C26.5874 37.6752 27.0889 37.9287 27.2392 38.3912C27.391 38.8537 27.135 39.3518 26.6677 39.503C26.2004 39.6542 25.6989 39.4007 25.5486 38.9382ZM30.5505 39.6572C30.1978 39.2673 30.2305 38.6639 30.6234 38.3111C31.0178 37.9583 31.6235 37.9894 31.9762 38.3793C32.329 38.7692 32.2962 39.3725 31.9033 39.7254C31.5089 40.0782 30.9032 40.0485 30.5505 39.6572ZM29.8436 42.3552C29.546 41.8423 29.7246 41.187 30.241 40.8905C30.7574 40.5941 31.4182 40.7675 31.7143 41.2804C32.012 41.7933 31.8334 42.4486 31.317 42.745C30.8005 43.0415 30.1398 42.8666 29.8436 42.3552ZM32.7888 43.9221C32.3587 43.4477 32.3989 42.7139 32.8781 42.2855C33.3573 41.8556 34.094 41.8927 34.5241 42.3685C34.9542 42.8429 34.914 43.5767 34.4348 44.0051C33.9556 44.4335 33.2189 44.3979 32.7888 43.9221ZM33.9258 45.8804C34.2622 46.46 34.0613 47.2027 33.4749 47.5392C32.89 47.8757 32.1429 47.677 31.8051 47.0974C31.4688 46.5178 31.6697 45.7751 32.256 45.4386C32.8409 45.1021 33.588 45.3007 33.9243 45.8804H33.9258ZM28.2244 38.2696C27.9803 37.8486 28.1262 37.309 28.5518 37.0644C28.9775 36.8198 29.5207 36.9636 29.7647 37.3861C30.0088 37.8071 29.863 38.3467 29.4373 38.5913C29.0117 38.8359 28.4685 38.6921 28.2244 38.2696ZM33.268 37.9376C32.8409 37.6292 32.7471 37.0333 33.0597 36.6064C33.3707 36.1794 33.9705 36.0845 34.3976 36.3929C34.8247 36.7012 34.9185 37.2972 34.6059 37.7241C34.2949 38.151 33.6951 38.2459 33.268 37.9376ZM33.1386 40.723C32.7412 40.2827 32.7784 39.6053 33.2219 39.208C33.6654 38.8107 34.347 38.8448 34.7444 39.2836C35.1417 39.7239 35.1045 40.4013 34.661 40.7986C34.2175 41.1959 33.5359 41.1618 33.1386 40.723ZM36.3472 41.6451C35.8278 41.27 35.7132 40.5451 36.0927 40.0248C36.4722 39.506 37.1999 39.3889 37.7208 39.7654C38.2402 40.1404 38.3548 40.8653 37.9753 41.3857C37.5958 41.9045 36.8681 42.0216 36.3472 41.6451ZM37.8682 43.3247C38.3191 43.8228 38.2759 44.5907 37.7744 45.0398C37.2714 45.4905 36.5005 45.4519 36.0495 44.9538C35.5986 44.4558 35.6418 43.6879 36.1433 43.2387C36.6463 42.7895 37.4172 42.8266 37.8682 43.3247ZM30.7023 37.06C30.3749 36.6983 30.4062 36.1394 30.7708 35.8133C31.1354 35.4856 31.6965 35.5138 32.0239 35.8755C32.3513 36.2372 32.32 36.7961 31.9554 37.1222C31.5908 37.4498 31.0297 37.4217 30.7023 37.06ZM35.5659 35.6902C35.0837 35.4767 34.8679 34.9134 35.0837 34.4316C35.2995 33.9499 35.865 33.7319 36.3472 33.9454C36.8294 34.1589 37.0452 34.7222 36.8294 35.204C36.6136 35.6858 36.048 35.9037 35.5659 35.6902ZM36.0213 38.4416C35.5406 38.0947 35.4349 37.4232 35.7861 36.9429C36.1373 36.4626 36.8115 36.3543 37.2922 36.7012C37.7729 37.0481 37.8786 37.7196 37.5273 38.2C37.1761 38.6803 36.502 38.7885 36.0213 38.4416ZM39.3519 38.6803C38.7656 38.4208 38.5021 37.7345 38.7656 37.1489C39.0275 36.5634 39.7165 36.298 40.3029 36.5574C40.8893 36.8169 41.1527 37.5032 40.8893 38.0888C40.6273 38.6743 39.9383 38.9397 39.3519 38.6803ZM41.1914 40.007C41.7361 40.3999 41.8551 41.1603 41.4578 41.7044C41.0604 42.2484 40.2969 42.3715 39.7522 41.9771C39.2076 41.5843 39.0885 40.8238 39.4859 40.2798C39.8832 39.7357 40.6467 39.6142 41.1914 40.007ZM32.8736 35.3641C32.4778 35.078 32.3915 34.525 32.6802 34.1307C32.9689 33.7349 33.524 33.646 33.9199 33.9321C34.3157 34.2182 34.4021 34.7711 34.1133 35.1654C33.8246 35.5612 33.2695 35.6502 32.8736 35.3641ZM37.3458 33.0174C36.8294 32.9092 36.5005 32.4022 36.6106 31.8863C36.7207 31.3705 37.2297 31.0399 37.7461 31.1496C38.2625 31.2578 38.5914 31.7648 38.4813 32.2807C38.3712 32.7965 37.8622 33.1271 37.3458 33.0174ZM38.3652 35.6146C37.822 35.3745 37.5794 34.74 37.822 34.1974C38.0646 33.6549 38.7016 33.4103 39.2448 33.6504C39.788 33.8906 40.0306 34.525 39.788 35.0676C39.5454 35.6102 38.9084 35.8548 38.3652 35.6146ZM41.6721 35.158C41.044 35.0261 40.6437 34.4094 40.7791 33.7809C40.9131 33.1523 41.5322 32.7521 42.1602 32.884C42.7882 33.0159 43.1886 33.6326 43.0531 34.2612C42.9192 34.8897 42.3001 35.29 41.6721 35.158ZM43.7481 36.0756C44.3628 36.3484 44.6381 37.0659 44.3628 37.6811C44.0875 38.2963 43.3657 38.5735 42.7525 38.3008C42.1379 38.028 41.8626 37.309 42.1379 36.6953C42.4132 36.0801 43.135 35.8029 43.7481 36.0756ZM34.6446 33.2561C34.1982 33.0589 33.9973 32.5356 34.1982 32.0894C34.2938 31.8752 34.4707 31.7074 34.6903 31.6229C34.9098 31.5385 35.1541 31.5442 35.3694 31.6388C35.8159 31.8359 36.0168 32.3592 35.8159 32.8054C35.7203 33.0197 35.5433 33.1874 35.3238 33.2719C35.1042 33.3564 34.86 33.3507 34.6446 33.2561ZM38.5289 30.0348C38.4033 30.0348 38.2789 30.0101 38.1628 29.962C38.0468 29.914 37.9414 29.8436 37.8528 29.7549C37.7642 29.6662 37.694 29.5609 37.6463 29.4451C37.5986 29.3293 37.5744 29.2053 37.575 29.0801C37.575 28.5524 38.0036 28.124 38.5304 28.124C38.6561 28.124 38.7805 28.1487 38.8965 28.1967C39.0125 28.2447 39.1179 28.3151 39.2065 28.4038C39.2952 28.4925 39.3654 28.5978 39.413 28.7136C39.4607 28.8294 39.485 28.9535 39.4844 29.0786C39.4844 29.6064 39.0558 30.0348 38.5289 30.0348ZM40.0678 32.3637C39.4873 32.2406 39.1168 31.6699 39.2403 31.0888C39.3638 30.5077 39.9368 30.1356 40.5172 30.2586C41.0976 30.3817 41.4682 30.9524 41.3447 31.5335C41.2211 32.1146 40.6482 32.4867 40.0678 32.3637ZM43.2079 31.2311C42.5665 31.2311 42.0456 30.7123 42.0471 30.0689C42.0471 29.427 42.568 28.9067 43.2109 28.9052C43.8523 28.9052 44.3732 29.424 44.3717 30.0659C44.3717 30.7078 43.8508 31.2281 43.2079 31.2296V31.2311ZM45.4299 31.6995C46.0877 31.8389 46.5073 32.4852 46.3659 33.1434C46.2246 33.8016 45.5772 34.2226 44.9194 34.0833C44.2616 33.9439 43.8419 33.2976 43.9833 32.6394C44.1247 31.9812 44.7721 31.5602 45.4299 31.6995ZM35.9364 30.8279C35.4587 30.7271 35.1536 30.2572 35.2563 29.7783C35.359 29.2995 35.8293 28.9941 36.307 29.0949C36.7847 29.1957 37.0898 29.6657 36.9871 30.1445C36.8844 30.6233 36.4142 30.9287 35.9364 30.8279ZM39.0632 26.8713C38.9402 26.8974 38.8133 26.899 38.6898 26.876C38.5662 26.853 38.4484 26.806 38.3431 26.7375C38.2379 26.669 38.1473 26.5805 38.0765 26.477C38.0057 26.3736 37.9561 26.2572 37.9307 26.1346C37.8205 25.6187 38.1509 25.1102 38.6658 25.0005C38.7887 24.9744 38.9155 24.9728 39.039 24.9957C39.1625 25.0186 39.2802 25.0655 39.3854 25.1338C39.4907 25.2021 39.5813 25.2905 39.6522 25.3938C39.723 25.4971 39.7727 25.6133 39.7984 25.7358C39.9085 26.2517 39.5781 26.7601 39.0632 26.8698V26.8713ZM41.0545 28.8311C40.4606 28.8311 39.9799 28.3493 39.9799 27.7563C39.9799 27.1619 40.4621 26.6801 41.0559 26.6801C41.6497 26.6801 42.1304 27.1619 42.1304 27.7548C42.1304 28.3493 41.6483 28.8311 41.0545 28.8311ZM43.8895 27.0729C43.2615 27.2063 42.6439 26.8061 42.5114 26.1775C42.3775 25.549 42.7793 24.9323 43.4059 24.7989C44.0339 24.6655 44.6515 25.0657 44.784 25.6943C44.9179 26.3228 44.5161 26.9395 43.8895 27.0729ZM46.1606 27.07C46.8333 27.07 47.3779 27.6155 47.3779 28.2885C47.3779 28.9615 46.8318 29.507 46.1591 29.507C45.4864 29.507 44.9417 28.9615 44.9417 28.2885C44.9417 27.6155 45.4879 27.07 46.1606 27.07ZM36.6924 28.1833C36.2043 28.1833 35.807 27.7874 35.807 27.2982C35.807 26.809 36.2043 26.4132 36.6924 26.4118C37.1806 26.4118 37.5779 26.8076 37.5765 27.2968C37.5765 27.786 37.1806 28.1818 36.691 28.1833H36.6924ZM38.9248 23.6663C38.4426 23.8798 37.8786 23.6634 37.6628 23.1816C37.4485 22.6998 37.6628 22.135 38.1465 21.92C38.6286 21.7051 39.1927 21.923 39.4085 22.4048C39.6243 22.8866 39.4085 23.4514 38.9248 23.6663ZM41.2822 25.171C40.7017 25.294 40.1303 24.9234 40.0067 24.3423C39.8832 23.7612 40.2538 23.1905 40.8342 23.0659C41.4146 22.9429 41.9861 23.3135 42.1096 23.8946C42.2331 24.4757 41.8626 25.0465 41.2822 25.1695V25.171ZM43.6886 22.8643C43.1023 23.1252 42.4147 22.8599 42.1528 22.2743C41.8908 21.6873 42.1528 21.0009 42.7406 20.74C43.327 20.4791 44.0145 20.7445 44.2765 21.33C44.5384 21.9156 44.2765 22.6034 43.6886 22.8643ZM45.9091 22.3914C46.5669 22.2521 47.2128 22.6716 47.3541 23.3313C47.494 23.9895 47.0743 24.6373 46.4166 24.7767C45.7588 24.916 45.1114 24.4965 44.9715 23.8368C44.8316 23.1786 45.2513 22.5323 45.9091 22.3914ZM36.88 25.4423C36.4022 25.5431 35.932 25.2377 35.8293 24.7603C35.7281 24.2815 36.0317 23.8116 36.5109 23.7108C36.9901 23.61 37.4589 23.9154 37.5616 24.3927C37.6628 24.8715 37.3592 25.3415 36.88 25.4423ZM38.1211 20.5607C37.694 20.8705 37.0972 20.7741 36.7862 20.3472C36.4752 19.9203 36.5689 19.3228 36.996 19.013C37.4232 18.7032 38.0199 18.7995 38.331 19.2265C38.642 19.6534 38.5483 20.2508 38.1211 20.5592V20.5607ZM40.7404 21.5435C40.1987 21.7851 39.5618 21.5391 39.3192 20.9965C39.0766 20.4539 39.3192 19.818 39.8624 19.5778C40.4056 19.3362 41.0411 19.5823 41.2836 20.1248C41.5262 20.6674 41.2836 21.3034 40.7404 21.5435ZM42.6141 18.7907C42.0947 19.1672 41.367 19.0501 40.989 18.5312C40.611 18.0109 40.7241 17.2845 41.2435 16.9095C41.7629 16.5329 42.4906 16.65 42.8686 17.1689C43.2466 17.6892 43.1335 18.4156 42.6141 18.7907ZM44.6872 17.8671C45.3019 17.5943 46.0222 17.8716 46.296 18.4868C46.5698 19.102 46.296 19.8209 45.6814 20.0937C45.0667 20.3665 44.3464 20.0892 44.0726 19.474C43.7988 18.8588 44.0726 18.1399 44.6872 17.8671ZM36.4915 22.7205C36.0451 22.9192 35.5212 22.7176 35.3218 22.2699C35.1224 21.8237 35.3218 21.3004 35.7683 21.1017C36.2147 20.9031 36.7386 21.1047 36.938 21.5524C37.1374 21.9986 36.938 22.5219 36.4915 22.7205ZM36.6865 17.6892C36.3338 18.0806 35.7296 18.1102 35.3352 17.7574C34.9423 17.4046 34.9081 16.8012 35.2608 16.4099C35.6135 16.0185 36.2177 15.9889 36.6121 16.3417C37.005 16.6945 37.0392 17.2979 36.6865 17.6892ZM39.4546 18.1087C38.9739 18.4571 38.3012 18.3489 37.95 17.8686C37.6003 17.3883 37.7044 16.7153 38.1851 16.3684C38.6658 16.02 39.3385 16.1282 39.6897 16.6085C40.041 17.0888 39.9353 17.7619 39.4546 18.1087ZM40.7107 15.0268C40.2821 15.5026 39.5454 15.5397 39.0677 15.1098C38.5899 14.6799 38.5483 13.9461 38.9784 13.4703C39.407 12.9944 40.1437 12.9573 40.6214 13.3872C41.1006 13.8171 41.1408 14.5509 40.7107 15.0268ZM42.5457 13.6941C43.0889 13.2998 43.8523 13.4228 44.2482 13.9669C44.6456 14.5109 44.5265 15.2729 43.9818 15.6657C43.4386 16.06 42.6751 15.937 42.2793 15.3929C41.8819 14.8489 42.001 14.0869 42.5457 13.6926V13.6941ZM35.5435 20.1382C35.1477 20.4243 34.594 20.3353 34.3053 19.941C34.0166 19.5452 34.1029 18.9923 34.4988 18.7062C34.8947 18.42 35.4483 18.509 35.737 18.9033C36.0257 19.2991 35.9394 19.8521 35.5435 20.1382ZM34.6848 15.178C34.4214 15.6331 33.8365 15.7888 33.3782 15.5234C32.9198 15.2595 32.762 14.6755 33.0254 14.2204C33.2889 13.7653 33.8737 13.6096 34.3321 13.8735C34.7905 14.1373 34.9482 14.7214 34.6848 15.1765V15.178ZM37.4797 15.0135C37.0824 15.4537 36.4008 15.4878 35.9588 15.0905C35.5153 14.6932 35.4781 14.0143 35.8754 13.574C36.2728 13.1337 36.9544 13.0996 37.3964 13.4969C37.8399 13.8942 37.8771 14.5732 37.4797 15.0135ZM38.0646 11.7403C37.7446 12.2947 37.0318 12.483 36.4737 12.1613C35.9156 11.8396 35.7236 11.1295 36.0436 10.5766C36.3635 10.0221 37.0764 9.83388 37.6345 10.1556C38.1926 10.4773 38.3846 11.1873 38.0646 11.7403ZM39.5826 10.0562C40.032 9.55815 40.8029 9.51961 41.306 9.97026C41.8075 10.4209 41.8492 11.1903 41.3997 11.6884C40.9503 12.1865 40.1794 12.225 39.6763 11.7744C39.1748 11.3237 39.1317 10.5543 39.5826 10.0562ZM34.0776 17.8108C33.7502 18.1725 33.1906 18.2006 32.826 17.873C32.4614 17.5454 32.4302 16.9865 32.7576 16.6248C33.085 16.2631 33.6446 16.235 34.0092 16.5626C34.3738 16.8902 34.405 17.4491 34.0776 17.8108ZM32.2025 13.1352C32.0402 13.6348 31.5 13.9076 30.9955 13.7445C30.4925 13.5814 30.2157 13.0433 30.3779 12.5437C30.5401 12.0442 31.0803 11.7714 31.5848 11.9345C32.0879 12.0975 32.3647 12.6357 32.2025 13.1352ZM34.9006 12.397C34.6045 12.9099 33.9452 13.0833 33.4288 12.7869C32.9123 12.4889 32.7338 11.8337 33.0314 11.3207C33.3276 10.8078 33.9868 10.6344 34.5033 10.9309C35.0197 11.2288 35.1983 11.8841 34.9006 12.397ZM34.7905 9.07192C34.5926 9.67971 33.9348 10.0118 33.3231 9.81313C32.7099 9.61448 32.3736 8.95925 32.5715 8.35146C32.7695 7.74367 33.4258 7.41161 34.0389 7.61025C34.6521 7.8089 34.9884 8.46264 34.7905 9.07192ZM35.923 7.11216C36.2594 6.53254 37.005 6.33389 37.5899 6.67188C38.1747 7.00839 38.3771 7.75257 38.0408 8.33219C37.7044 8.91182 36.9588 9.11046 36.374 8.77247C35.7891 8.43596 35.5867 7.69179 35.923 7.11216ZM32.1578 15.8362C31.9137 16.2572 31.3705 16.401 30.9464 16.1564C30.8453 16.0986 30.7567 16.0215 30.6856 15.9296C30.6144 15.8376 30.5622 15.7327 30.5318 15.6206C30.5014 15.5085 30.4934 15.3916 30.5084 15.2765C30.5233 15.1614 30.5609 15.0504 30.619 14.9497C30.863 14.5272 31.4063 14.3849 31.8304 14.6295C32.256 14.8741 32.4019 15.4152 32.1578 15.8362ZM29.3465 11.6513C29.2915 12.1746 28.8212 12.5526 28.2944 12.4978C27.7675 12.4415 27.3851 11.973 27.4401 11.4512C27.4952 10.9279 27.9655 10.5499 28.4923 10.6047C29.0191 10.6611 29.4016 11.1295 29.3465 11.6513ZM31.8319 10.3705C31.6488 10.9338 31.0401 11.2407 30.4731 11.0569C29.9061 10.8731 29.5951 10.2682 29.7781 9.70491C29.9612 9.14159 30.5699 8.83473 31.1369 9.01855C31.7039 9.20237 32.0149 9.8072 31.8319 10.3705ZM31.0312 7.14181C30.9642 7.77777 30.3913 8.2388 29.7498 8.17061C29.1084 8.10242 28.6426 7.53317 28.7096 6.89721C28.7765 6.26125 29.3495 5.80022 29.9909 5.86841C30.6324 5.9366 31.0982 6.50585 31.0312 7.14181ZM31.7292 4.98934C31.9361 4.3519 32.6251 4.00501 33.268 4.21255C33.9109 4.42157 34.2637 5.10645 34.0553 5.74389C33.8484 6.38133 33.1594 6.72822 32.5165 6.52068C31.8736 6.31166 31.5208 5.62678 31.7292 4.98934ZM29.8674 14.3034C29.7171 14.7659 29.2156 15.0194 28.7498 14.8682C28.2825 14.717 28.0265 14.2189 28.1783 13.7549C28.3286 13.2924 28.8301 13.0389 29.2959 13.1901C29.7632 13.3413 30.0192 13.8394 29.8674 14.3034ZM26.2451 10.7915C26.2581 10.916 26.2464 11.0417 26.2106 11.1616C26.1748 11.2816 26.1156 11.3933 26.0364 11.4903C25.9572 11.5874 25.8595 11.668 25.749 11.7274C25.6385 11.7868 25.5173 11.8239 25.3923 11.8366C24.8655 11.8915 24.3937 11.512 24.3372 10.9902C24.3241 10.8657 24.3358 10.74 24.3716 10.62C24.4074 10.5001 24.4666 10.3884 24.5458 10.2913C24.625 10.1943 24.7227 10.1137 24.8332 10.0543C24.9437 9.99485 25.065 9.95774 25.1899 9.94506C25.7167 9.89021 26.1885 10.2697 26.2451 10.793V10.7915ZM28.409 9.023C28.3464 9.61152 27.8166 10.0385 27.2228 9.97619C26.629 9.91393 26.1989 9.38619 26.2599 8.79767C26.3225 8.20915 26.8523 7.78221 27.4461 7.84448C28.0399 7.90674 28.47 8.43448 28.409 9.023ZM26.9505 6.03148C27.0175 6.66744 26.5531 7.23668 25.9117 7.30339C25.2703 7.3701 24.6958 6.90907 24.6288 6.27311C24.5619 5.63716 25.0262 5.06791 25.6676 5.0012C26.3091 4.93449 26.8835 5.39552 26.9505 6.03148ZM27.1841 3.78117C27.2541 3.11556 27.8553 2.63229 28.5265 2.70345C29.1977 2.77461 29.6859 3.37202 29.6159 4.03763C29.546 4.70323 28.9447 5.1865 28.2735 5.11534C27.6023 5.04419 27.1142 4.44677 27.1841 3.78117ZM27.3077 13.2775C27.2571 13.7623 26.8195 14.1121 26.3314 14.0617C25.8432 14.0099 25.489 13.577 25.5396 13.0922C25.5902 12.6075 26.0278 12.2576 26.5159 12.308C27.0041 12.3599 27.3583 12.7928 27.3077 13.2775ZM18.7861 24.2207C18.7861 23.6382 18.3098 23.1667 17.7235 23.1667C17.1371 23.1667 16.6594 23.6396 16.6594 24.2207C16.6594 24.8019 17.1356 25.2747 17.7235 25.2747C18.3113 25.2747 18.7861 24.8019 18.7861 24.2207ZM19.3278 20.992C19.3278 20.4095 18.8515 19.938 18.2637 19.938C17.6758 19.938 17.1996 20.4095 17.1996 20.992C17.1996 21.5746 17.6758 22.046 18.2637 22.046C18.8515 22.046 19.3278 21.5746 19.3278 20.992ZM22.0408 23.3654C22.0408 22.7828 21.5646 22.3114 20.9782 22.3114C20.3919 22.3114 19.9141 22.7828 19.9141 23.3654C19.9141 23.948 20.3904 24.4194 20.9782 24.4194C21.5661 24.4194 22.0408 23.948 22.0408 23.3654ZM24.7539 25.7402C24.7539 25.1576 24.2776 24.6862 23.6913 24.6862C23.1049 24.6862 22.6272 25.1576 22.6272 25.7402C22.6272 26.3228 23.1034 26.7942 23.6913 26.7942C24.2791 26.7942 24.7539 26.3228 24.7539 25.7402ZM29.6799 30.6782C29.6799 30.0956 30.1561 29.6242 30.744 29.6242C31.3318 29.6242 31.8081 30.0971 31.8081 30.6782C31.8081 31.2593 31.3318 31.7322 30.744 31.7322C30.1561 31.7322 29.6799 31.2593 29.6799 30.6782ZM29.1382 27.4495C29.1382 26.8669 29.6144 26.3955 30.2008 26.3955C30.7871 26.3955 31.2649 26.8669 31.2649 27.4495C31.2649 28.032 30.7886 28.5035 30.2008 28.5035C29.6129 28.5035 29.1382 28.032 29.1382 27.4495ZM28.595 24.2207C28.595 23.6382 29.0712 23.1667 29.6576 23.1667C30.2439 23.1667 30.7217 23.6382 30.7217 24.2207C30.7217 24.8033 30.2454 25.2747 29.6576 25.2747C29.0697 25.2747 28.595 24.8033 28.595 24.2207ZM28.0518 20.992C28.0518 20.4095 28.528 19.938 29.1159 19.938C29.7037 19.938 30.1799 20.4109 30.1799 20.992C30.1799 21.5731 29.7037 22.046 29.1159 22.046C28.528 22.046 28.0518 21.5746 28.0518 20.992ZM25.3402 23.3654C25.3402 22.7828 25.8165 22.3114 26.4028 22.3114C26.9892 22.3114 27.4669 22.7828 27.4669 23.3654C27.4669 23.948 26.9907 24.4194 26.4028 24.4194C25.815 24.4194 25.3402 23.948 25.3402 23.3654ZM17.7011 30.6782C17.7011 30.0956 17.2249 29.6242 16.637 29.6242C16.0492 29.6242 15.5744 30.0956 15.5744 30.6782C15.5744 31.2608 16.0507 31.7322 16.637 31.7322C17.2234 31.7322 17.7011 31.2608 17.7011 30.6782ZM18.2428 27.4495C18.2428 26.8669 17.7666 26.3955 17.1802 26.3955C16.5939 26.3955 16.1162 26.8669 16.1162 27.4495C16.1162 28.032 16.5924 28.5035 17.1802 28.5035C17.7681 28.5035 18.2428 28.032 18.2428 27.4495ZM61.6114 29.5159L60.5905 22.3692H59.5829L57.7613 27.4539C57.5813 27.9624 57.4711 28.2648 57.361 28.7451H57.3476C57.2791 28.3745 57.1125 27.906 56.9205 27.3709L55.154 22.3677H54.2432L53.194 29.5145H53.9396L54.5185 25.0346C54.6152 24.2919 54.6837 23.7152 54.712 23.1653H54.7253C54.7938 23.5507 55.0155 24.114 55.1941 24.6358L56.919 29.5145H57.7613L59.6097 24.3052C59.7749 23.8383 59.8999 23.4395 59.9684 23.1638H59.9818C60.0234 23.5344 60.0785 24.1125 60.202 25.0198L60.836 29.5145H61.6084L61.6114 29.5159ZM70.2193 26.8224V22.3692H69.4886V26.8491C69.4886 28.1002 68.9231 29.0075 67.2949 29.0075C65.9421 29.0075 65.1147 28.3893 65.1147 27.0418V22.3692H64.3691V27.0966C64.3691 28.7599 65.4034 29.6123 67.225 29.6123C69.377 29.6123 70.2193 28.3063 70.2193 26.8224ZM77.1947 27.4406C77.1947 25.0909 73.3312 25.9285 73.3312 24.1837C73.3312 23.401 73.9384 22.8925 75.2079 22.8925C75.6633 22.8925 76.3255 22.9889 76.7393 23.1119L76.7809 22.4107C76.3538 22.3277 75.7332 22.2729 75.2629 22.2729C73.608 22.2729 72.5722 23.0556 72.5722 24.28C72.5722 26.5333 76.4223 25.7506 76.4223 27.4954C76.4223 28.5954 75.4013 28.966 74.5039 28.966C73.8283 28.966 73.1928 28.8429 72.7374 28.6502L72.6957 29.4196C73.0961 29.5293 73.7851 29.6123 74.3789 29.6123C75.827 29.6123 77.1932 28.8296 77.1932 27.4406H77.1947ZM80.3944 29.5159V22.3692H79.6488V29.5159H80.3944ZM84.2295 29.5159V22.3692H83.4839V29.5159H84.2295ZM92.522 29.5159L88.9621 25.8188L92.3969 22.3692H91.4311L88.0647 25.8603V22.3692H87.3191V29.5159H88.0647V25.8603L91.4728 29.5159H92.522ZM99.6804 29.5159L96.1205 25.8188L99.5568 22.3692H98.591L95.2231 25.8603V22.3692H94.479V29.5159H95.2231V25.8603L98.6311 29.5159H99.6804ZM102.383 29.5159V22.3692H101.637V29.5159H102.383ZM109.488 22.9607V22.3692H104.203V22.9607H106.467V29.5159H107.211V22.9607H109.488ZM116.688 29.5159L113.832 22.3692H113.046L110.149 29.5159H110.908L111.598 27.7845H115.186L115.862 29.5159H116.689H116.688ZM114.95 27.2078H111.832L112.936 24.4446C113.116 23.9776 113.281 23.5107 113.391 23.1252H113.405C113.515 23.4825 113.68 23.9628 113.86 24.4164L114.95 27.2063V27.2078ZM122.165 29.5159V28.9259H119.364V22.3692H118.618V29.5159H122.165ZM130 25.9018C130 23.6204 128.854 22.2729 126.702 22.2729C124.812 22.2729 123.252 23.6055 123.252 25.9967C123.252 28.0587 124.192 29.6108 126.495 29.6108C128.482 29.6108 130 28.3048 130 25.9003V25.9018ZM129.199 26.0115C129.199 27.949 128.068 28.9941 126.564 28.9941C124.645 28.9941 124.038 27.5369 124.038 25.9018C124.038 23.9361 125.253 22.8777 126.619 22.8777C128.234 22.8777 129.199 23.9776 129.199 26.0115Z" fill="#1C1E26"/>
</g>
<defs>
<clipPath id="clip0_491_367">
<rect width="130" height="51.4389" fill="white" transform="translate(0 0.203125)"/>
</clipPath>
</defs>
</svg>
