<svg xmlns="http://www.w3.org/2000/svg" viewBox="0 0 979.4 769.2"><path d="M45.7 486.2V592H0V399.4h45.7l57.6 106.2V399.4H149V592h-47.1L45.7 486.2zM253.1 592h-49.4V399.4h49.4V592zM307.9 399.4h49.4v151h61.4V592H307.9V399.4zM563.9 592l-37.7-73.6-15.7 25.4V592h-49.7V399.4h49.7v80.2l49.9-80.2h55.4L560.2 483l57.9 109h-54.2zM754.8 592l-37.7-73.6-15.7 25.4V592h-49.7V399.4h49.7v80.2l49.9-80.2h55.4L751.1 483 809 592h-54.2zM956.8 399.4c13.4 0 22.5 9.1 22.5 22.5v147.5c0 13.4-9.1 22.5-22.5 22.5h-99c-13.4 0-22.5-9.1-22.5-22.5V421.9c0-13.4 9.1-22.5 22.5-22.5h99zm-27.1 44.8c0-1.7-1.4-3.1-3.1-3.1h-39.1c-1.1 0-2.6 1.4-2.6 3.1v103.6c0 1.4 1.4 2.6 2.6 2.6h39.1c1.7 0 3.1-1.1 3.1-2.6V444.2z"/><g><path d="M91.8 768.6V650.8h53.6c7.9 0 13.3 5.4 13.3 12.9v30.5c0 8.7-5.2 14-13.4 15.5 8.2 1.7 13.6 7.2 13.6 15v30.7c0 7.9-5.4 13.1-13.3 13.1H91.8zm43.6-95.6c0-1.6-.9-2.6-2.4-2.6h-17.6V700H133c1.6 0 2.4-1 2.4-2.6V673zm0 47.8c0-1.4-.9-2.4-2.4-2.4h-17.6v31.1H133c1.6 0 2.4-1 2.4-2.3v-26.4zM271.2 650.8c8.2 0 13.8 5.8 13.8 14v51.3c0 7.2-4.2 12.4-10.6 13.6l11 38.9h-23.2L251.6 730h-8.9v38.6H219V650.8h52.2zm-9.4 21.8c0-.9-.7-1.7-1.4-1.7h-17.8V711h17.8c.7 0 1.4-.9 1.4-1.6v-36.8zM345 650.8h55.7v20.1h-32.1v28.4h27.1V719h-27.1v29.5h32.1v20.1H345V650.8zM553.9 650.8l-17.8 117.8H516L502.3 695l-14.1 73.6H468l-18-117.8h22.7l8.2 75.4 11.9-75.4h19.5l11.9 74.7 8.7-74.7h21zM630.9 768.6H608V650.8h22.9v117.8zM714.1 703.4v65.3h-20.8V650.8h20.6l27.1 68.1v-68.1h20.8v117.8H741l-26.9-65.2zM856 696.6h31.3l.1 58.6c0 8.2-5.8 14-14.1 14h-36.1c-8.4 0-14-5.8-14-14v-90.9c0-8.4 5.6-14.1 14-14.1h50.4v20.9h-39.4c-.7 0-1.4.9-1.4 1.9v73.5c0 1 .7 1.7 1.4 1.7h16.2c1 0 1.6-.7 1.6-1.7v-30.2h-10v-19.7z"/></g><path d="M874 324L735.3 83.7l-51 88.3L585 0l-75.4 130.7-40-69.2-36.6 63.4-50.6-87.6-92 159.4-56.9-98.5L94.2 339.4h278.5l-35.2-60.9h184.1l-21.5-37.3h144.3l-21.5 37.7h-53.5l21.1 34.9-168.6.1 16.5 25.4h446.8L874 324z"/></svg>