<svg xmlns="http://www.w3.org/2000/svg" width="220" height="29" viewBox="0 0 276.3 37"><path fill-rule="evenodd" clip-rule="evenodd" fill="#5E93CA" d="M2.6 35h10.3V10.8h.1L32.2 35h15.9V1.7H37.8v24.2h-.1L18.5 1.7H2.6zm58.9-18.4c-.1-2.1.3-3.7 1.2-4.9.9-1.2 2.6-1.8 5.2-1.8h12c2.6 0 4.4.6 5.2 1.8.9 1.2 1.3 2.8 1.2 4.9v3.6c.1 2.4-.3 4.1-1.1 5.2-.8 1-2.4 1.6-4.7 1.5H67.3c-2.4 0-3.9-.5-4.7-1.5-.8-1-1.2-2.8-1.1-5.2v-3.6zm-10.6 6.7c0 3.2.6 5.7 1.8 7.5 1.2 1.8 2.8 3 5 3.6 2.2.7 4.8 1 7.9 1H82c3.1 0 5.7-.3 7.9-1s3.9-1.9 5-3.6c1.2-1.8 1.8-4.2 1.8-7.5v-10c0-3.2-.6-5.7-1.8-7.5-1.2-1.8-2.8-3-5-3.6-2.2-.7-4.8-1-7.9-1H65.7c-3.1 0-5.7.3-7.9 1s-3.9 1.9-5 3.6C51.6 7.6 51 10 51 13.3v10zM110.3 10h18.2c2.2 0 3.7.4 4.7 1.2 1 .9 1.4 2.4 1.4 4.8v4.5c0 2.3-.4 3.9-1.4 4.8-1 .9-2.5 1.3-4.7 1.2h-18.2V10zm-10.2 25H131c5.1 0 8.6-.9 10.8-2.7 2.1-1.8 3.1-4.8 3.1-8.9V13.3c.1-4.1-1-7.1-3.1-8.9-2.1-1.8-5.7-2.7-10.8-2.7h-30.9V35zm47.7 0h37.1v-8H158v-5.3h24.9v-6.9H158V9.4h26.3V1.7h-36.5zm39.4-12.1c-.1 4.2.8 7.3 2.6 9.4 1.8 2.1 4.9 3.1 9.3 3.1h19.2c4.4 0 7.6-1 9.3-3.1 1.8-2.1 2.6-5.2 2.6-9.4v-9.1c.1-4.2-.8-7.3-2.6-9.4-1.8-2.1-4.9-3.1-9.3-3.1h-19.2c-4.4 0-7.6 1-9.3 3.1-1.8 2.1-2.6 5.2-2.6 9.4v9.1zm38.5 1.7c-.1 2.8-.8 4.7-2.3 5.7-1.5 1-3.3 1.4-5.5 1.4h-18.3c-2.2.1-4.1-.4-5.5-1.4-1.5-1-2.2-2.9-2.3-5.7V12.1c.1-2.8.8-4.7 2.3-5.7 1.5-1 3.3-1.4 5.5-1.4h18.3c2.2-.1 4.1.4 5.5 1.4 1.5 1 2.2 2.9 2.3 5.7v12.5zm7.8 10.4h4.5V5.7L268.6 35h6.7V1.7h-4.5V31L240.2 1.7h-6.7z"/></svg>