<svg xmlns="http://www.w3.org/2000/svg" width="150" height="31.6" viewBox="0 0 150 31.6"><path d="M129.71 15.81l-.06.13v-.06zm1.29-3.02c-.13.33-.28.67-.42 1l.25-.59c.06-.15.12-.29.17-.43M69.56 15.8l-.06.14zm1.19-2.87c-.11.28-.23.56-.35.84l.23-.55.12-.29m-1.87 4.51l.11-.27c-.09.2-.16.38-.22.52l.06-.13v-.12m60.63-1.03l-.23.56.22-.54m-.26.62a5 5 0 0 1-.21.5l.05-.11zM15.8 25a9.07 9.07 0 0 1-8.91-9.2 9.07 9.07 0 0 1 8.91-9.17 9.06 9.06 0 0 1 8.87 9.17A9.06 9.06 0 0 1 15.8 25M22 1.26a14.72 14.72 0 0 0-2.2-.74 15.68 15.68 0 0 0-8 0 14.72 14.72 0 0 0-2.18.74 15.81 15.81 0 1 0 12.38 0m35.18 5v-5c0-.33-.18-.72-.82-.72h-21c-.3 0-.79 0-.79.74v5a.78.78 0 0 0 .79.8h7v23.2c0 .82.6.8.8.8h5.28c.56 0 .81-.12.81-.8V7.06h7.08a.78.78 0 0 0 .8-.8"/><path d="M75.57 18.68h-6.79s-.42 0-.26-.37l.06-.15s3.16-7.61 3.33-8v-.23c.19-.46.38 0 .38 0L75.75 18l.11.27a.17.17 0 0 1 0 .08c0 .11 0 .29-.33.29m12.35 1a1.27 1.27 0 0 0-1.33-.93H83.1L75.61 1.26s-.32-.74-.79-.74h-5.25c-.48 0-.8.74-.8.74S56.54 29.81 56.5 29.94c-.17.54-.17 1.14.54 1.14h5.19c1 0 1.07-.26 1.4-1.14.19-.52 2.22-5.28 2.22-5.28h12.69c.53 1.25 2.06 4.85 2.22 5.28.33.88.44 1.14 1.4 1.14h5.19c.72 0 .71-.6.54-1.14 0 0-1-2.38-2.28-5.28h3.55c1 0 .68-.55.53-.88S88 19.85 87.92 19.7m47.81-1.02h-6.8s-.42 0-.26-.37l.06-.15 3.32-8v-.23c.19-.46.39 0 .39 0l3.47 8.07.11.27v.08c0 .11 0 .29-.33.29m14.12 5.1c-.11-.25-1.71-3.93-1.77-4.08a1.27 1.27 0 0 0-1.33-.93h-3.49l-7.5-17.51s-.32-.74-.79-.74h-5.24c-.48 0-.8.74-.8.74s-12.19 28.59-12.23 28.72c-.17.54-.18 1.14.54 1.14h5.18c1 0 1.08-.26 1.41-1.14.19-.52 2.21-5.28 2.21-5.28h12.7c.53 1.25 2.06 4.85 2.22 5.28.33.88.44 1.14 1.4 1.14h5.19c.71 0 .7-.6.53-1.14 0 0-1-2.38-2.27-5.28h3.55c1 0 .67-.55.53-.88M117.79.52h-5.19c-1 0-1.08.27-1.4 1.15-.2.51-8.28 19.78-8.34 19.92v.08c-.19.46-.38 0-.39 0L93.66.83c-.2-.23-.47-.31-1-.31h-5.19c-.71 0-.7.61-.53 1.15l12.28 28.67s.32.74.79.74h5.24c.49 0 .81-.74.81-.74s12.22-28.55 12.26-28.67c.17-.54.18-1.15-.53-1.15"/></svg>
