<svg width="100" height="22" viewBox="0 0 100 22" fill="none" xmlns="http://www.w3.org/2000/svg">
<path d="M10.6124 16.8926C7.2533 16.8926 4.62298 14.0573 4.62298 10.7324C4.62298 7.40748 7.2533 4.57221 10.6124 4.57221C13.9373 4.57221 16.5676 7.40748 16.5676 10.7324C16.579 14.0573 13.9486 16.8926 10.6124 16.8926ZM14.7685 0.96264C14.3016 0.757681 13.812 0.598265 13.311 0.461625C12.457 0.233892 11.5461 0.120026 10.6237 0.120026C9.69004 0.120026 8.7905 0.245279 7.92511 0.461625C7.4241 0.598265 6.93447 0.757681 6.45623 0.96264C2.66448 2.57954 0 6.35991 0 10.7324C0 16.5737 4.74823 21.3447 10.6124 21.3447C16.4537 21.3447 21.2247 16.5737 21.2247 10.7324C21.2361 6.35991 18.5602 2.57954 14.7685 0.96264ZM37.6556 4.3217V0.96264V0.939866C37.6556 0.723519 37.5418 0.461625 37.1091 0.461625H23.0352C22.8302 0.461625 22.5114 0.461628 22.5 0.96264C22.5 0.96264 22.5 0.962638 22.5 0.974024V4.3217C22.5 4.3217 22.5 4.85687 23.0352 4.85687H27.7379V20.4566C27.7379 21.0031 28.1364 21.0031 28.273 21.0031H31.8143C32.1901 21.0031 32.3609 20.9234 32.3609 20.4566V4.85687H37.1205C37.1205 4.85687 37.6556 4.85687 37.6556 4.3217ZM78.3743 0.461625H74.89C74.2409 0.461625 74.1726 0.643813 73.9449 1.23592C73.8196 1.57752 68.3199 14.6722 68.3199 14.6722C68.1946 14.9796 68.058 14.6722 68.058 14.6722L62.1597 0.666587C62.0345 0.51856 61.8523 0.461625 61.4879 0.461625H58.0036C57.5253 0.461625 57.5253 0.871546 57.6392 1.23592C57.6506 1.25869 65.8831 20.5021 65.8831 20.5021C65.8831 20.5021 66.0995 21.0031 66.4183 21.0031H69.9368C70.2556 21.0031 70.472 20.5021 70.472 20.5021C70.472 20.5021 78.6817 1.32701 78.7159 1.23592C78.8525 0.871546 78.8525 0.461625 78.3743 0.461625ZM50.0215 12.6681H45.4555C45.4555 12.6681 45.1708 12.6681 45.2847 12.4176C45.2961 12.3834 47.619 6.7926 47.619 6.7926C47.7442 6.48516 47.8809 6.7926 47.8809 6.7926C47.8809 6.7926 50.2379 12.4404 50.2493 12.4745C50.2607 12.5429 50.2607 12.6681 50.0215 12.6681ZM58.311 13.3513C58.1402 12.9869 57.9808 12.725 57.4229 12.725H55.0772L50.0443 0.96264C50.0443 0.96264 49.828 0.461625 49.5091 0.461625H45.9907C45.6718 0.461625 45.4555 0.96264 45.4555 0.96264C45.4555 0.96264 37.2457 20.1378 37.2116 20.2288C37.0977 20.5932 37.0977 21.0031 37.5759 21.0031H41.0603C41.7093 21.0031 41.7776 20.821 42.0053 20.2288C42.1306 19.8872 43.497 16.6876 43.497 16.6876H52.0142C52.3672 17.5302 53.4034 19.9442 53.5059 20.2288C53.7222 20.821 53.8019 21.0031 54.4509 21.0031H57.9353C58.4135 21.0031 58.4135 20.5932 58.2996 20.2288C58.2883 20.2061 57.6051 18.6347 56.7738 16.6876H56.7852H59.1536C59.7913 16.6876 59.6091 16.3232 59.5066 16.0955C59.4269 15.9133 58.3566 13.4424 58.311 13.3513ZM90.41 12.6681H85.8439C85.8439 12.6681 85.5593 12.6681 85.6731 12.4176C85.6845 12.3834 88.0074 6.7926 88.0074 6.7926C88.1327 6.48516 88.2693 6.7926 88.2693 6.7926C88.2693 6.7926 90.6263 12.4404 90.6377 12.4745C90.6491 12.5429 90.6491 12.6681 90.41 12.6681ZM98.6995 13.3513C98.5287 12.9869 98.3693 12.725 97.8113 12.725H95.4657L90.4328 0.96264C90.4328 0.96264 90.2164 0.461625 89.8976 0.461625H86.3791C86.0603 0.461625 85.8439 0.96264 85.8439 0.96264C85.8439 0.96264 77.6342 20.1378 77.6 20.2288C77.4861 20.5932 77.4861 21.0031 77.9644 21.0031H81.4487C82.0977 21.0031 82.1661 20.821 82.3938 20.2288C82.519 19.8872 83.8854 16.6876 83.8854 16.6876H92.4026C92.7556 17.5302 93.7918 19.9442 93.8943 20.2288C94.1106 20.821 94.1903 21.0031 94.8394 21.0031H98.3237C98.8019 21.0031 98.8019 20.5932 98.6881 20.2288C98.6767 20.2061 97.9935 18.6347 97.1623 16.6876H97.1736H99.5421C100.18 16.6876 99.9975 16.3232 99.8951 16.0955C99.8153 15.9133 98.745 13.4424 98.6995 13.3513Z" fill="#1C1E26"/>
</svg>
