<svg width="186" height="40" viewBox="0 0 186 40" fill="none" xmlns="http://www.w3.org/2000/svg"><path d="M19.615 32.57h-3.276v-.1c.1-.234.76-8.772 6.22-18.851C26.825 5.745 31.48.453 31.48.453h.87s-.07 31.783.03 32.017v.1H19.614h.001zM42.757 32.57h2.883v-.088c-.088-.206-.676-1.5-4.558-10.236L35.318 9.217h-.763s.06 23.058-.028 23.265v.089h8.233-.003z" fill="currentColor"></path><path d="M14.358 34.692l33.885 1.513-1.753 3.248H22.576c-7.01 0-8.218-4.761-8.218-4.761zM68.367 20.664c0 4.39-1.886 7.838-5.215 10.019-2.032 1.355-4.743 2.004-7.807 2.004-1.472 0-2.887-.03-3.83-.06a51.046 51.046 0 01-2.121-.147V9.733c.59-.06 1.326-.147 2.68-.206a84.99 84.99 0 013.625-.09c3.506 0 6.068.707 7.983 1.886 3.564 2.21 4.685 5.952 4.685 9.312v.03zm-5.656.118c0-2.092-.707-3.978-2.18-5.156-1.032-.796-2.416-1.267-4.184-1.267-.56 0-1.12.06-1.502.089v13.14c0 .06.03.06.058.06.442.058.913.088 1.355.088a6.433 6.433 0 003.713-1.15c1.59-1.148 2.74-3.034 2.74-5.775v-.03zM76.643 29.297c-.707 1.71-1.238 3.006-1.326 3.212v.089h-5.598v-.09c.09-.206.677-1.502 4.566-10.252L80.06 9.203h.766l5.715 13.053c3.83 8.752 4.39 10.047 4.478 10.253v.089h-6.127v-.09c-.06-.206-.59-1.502-1.267-3.21h-6.982zm5.391-4.36v-.06c-1.179-2.975-1.62-4.33-1.826-5.096h-.03c-.206.766-.677 2.121-1.885 5.097v.059h3.741zM106.794 26.527c0 3.83-3.241 6.423-7.72 6.423-1.59 0-3.476-.265-4.595-.796.03-1.709.06-2.298.147-4.862h.06c.382.206.765.353 1.178.5.707.237 1.561.384 2.592.384 1.414 0 2.445-.649 2.445-1.975 0-.796-.56-1.532-1.502-2.298A29.245 29.245 0 0197.1 21.84c-1.267-1.267-2.594-3.065-2.594-5.599 0-3.447 2.298-6.777 7.896-6.777 1.06 0 2.445.148 3.27.413-.059 1.797-.089 2.298-.147 4.832h-.059a9.01 9.01 0 00-1.149-.353 6.565 6.565 0 00-1.415-.147c-1.561 0-2.68.736-2.68 2.004 0 .766.323 1.237.825 1.798.5.558 1.502 1.355 2.74 2.504 1.826 1.709 3.005 3.388 3.005 5.982v.03h.001zM123.124 22.05c0 3.947-.118 5.862-1.267 7.808-.619 1.06-2.004 2.21-2.976 2.652-1.119.502-2.445.707-4.064.707a12.91 12.91 0 01-2.328-.236c-.736-.117-1.415-.266-1.945-.472v-5.097h.03c.442.236.943.442 1.443.56.53.147 1.268.236 1.679.236.738 0 1.415-.09 1.974-.324a2.846 2.846 0 001.474-1.326c.441-.825.588-1.768.588-4.507V9.617h5.392V22.05v-.002zM151.914 20.988c0 6.777-5.098 11.963-12.05 11.963-6.951 0-12.078-5.186-12.078-11.815s5.272-11.815 12.285-11.815c7.012 0 11.843 5.038 11.843 11.639v.03-.002zm-5.568.089c0-3.771-2.681-6.748-6.394-6.748-3.712 0-6.598 2.888-6.598 6.806s2.681 6.806 6.598 6.806c3.918 0 6.394-3.005 6.394-6.835v-.03.001zM156.531 19.338V9.615h5.479v8.987h.059l3.564-4.714c2.092-2.769 2.947-3.89 3.183-4.213v-.058h6.511v.058c-.207.236-1.238 1.532-3.802 4.596l-5.066 5.952 6.038 7.189c3.183 3.771 4.096 4.803 4.332 5.097v.089h-6.923v-.03c-.177-.236-1.268-1.591-3.801-4.803l-4.036-5.098h-.059v9.93h-5.479v-13.26.002zM185.5 22.284v10.314h-5.48V9.615h5.48V22.284zM.5 19.338V9.704c.766-.088 2.534-.177 3.86-.177.912 0 2.12.03 3.21.148 1.267.148 2.74.501 4.007 1.208 2.032 1.15 3.712 3.211 3.712 6.482 0 1.562-.383 2.917-.972 4.007-.736 1.296-1.768 2.269-2.917 2.888-.766.412-1.65.706-2.563.913-1.032.236-2.122.323-3.182.354v7.072H.5v-13.26zm9.515-1.944c0-1.121-.53-2.064-1.355-2.622-.59-.383-1.296-.59-2.121-.59-.236 0-.53 0-.884.03v6.718c.147 0 .707 0 .943-.03.796-.058 1.532-.294 2.062-.648a2.951 2.951 0 001.002-1.15c.236-.5.353-1.031.353-1.679v-.029z" fill="currentColor"></path></svg>
