<svg class="is-bigger" width="130" height="28" viewBox="0 0 130 28" fill="none" xmlns="http://www.w3.org/2000/svg"><g clip-path="url(#prefix__clip0_491_371)"><g clip-path="url(#prefix__clip1_491_371)" fill="#1C1E26"><path d="M13.71 22.764h-2.29v-.07c.07-.163.53-6.13 4.347-13.175C18.75 4.015 22.002.317 22.002.317h.608s-.049 22.213.021 22.377v.07H13.71zm16.174 0h2.015v-.061c-.062-.145-.473-1.049-3.186-7.155l-4.028-9.106h-.534s.042 16.116-.02 16.26v.063h5.755l-.002-.001zM10.035 24.247l23.683 1.058-1.225 2.27H15.779c-4.9 0-5.744-3.328-5.744-3.328zm37.748-9.804c0 3.068-1.318 5.478-3.645 7.002-1.42.947-3.314 1.4-5.456 1.4-1.029 0-2.018-.02-2.677-.041a35.65 35.65 0 01-1.482-.103V6.803c.412-.042.926-.103 1.873-.144.844-.04 1.688-.06 2.533-.063 2.45 0 4.241.494 5.58 1.318 2.49 1.545 3.274 4.16 3.274 6.508v.021zm-3.953.082c0-1.462-.494-2.78-1.523-3.604-.722-.556-1.689-.885-2.925-.885-.391 0-.782.042-1.05.062v9.184c0 .042.021.042.041.042.309.04.638.061.947.061a4.496 4.496 0 002.595-.803c1.111-.803 1.915-2.12 1.915-4.037v-.02zm9.738 5.951c-.494 1.196-.866 2.101-.927 2.245v.063h-3.913v-.063c.063-.144.474-1.05 3.192-7.166l4.036-9.123h.535l3.995 9.123c2.677 6.117 3.068 7.022 3.13 7.166v.063h-4.283v-.063c-.042-.144-.412-1.05-.885-2.244h-4.88zm3.768-3.047v-.042c-.824-2.08-1.133-3.026-1.277-3.562h-.02c-.145.536-.474 1.483-1.318 3.563v.041h2.615zM74.64 18.54c0 2.677-2.265 4.49-5.396 4.49-1.111 0-2.43-.186-3.211-.557.02-1.194.042-1.606.102-3.398h.042c.267.144.535.247.824.35.494.165 1.09.268 1.811.268.989 0 1.71-.454 1.71-1.38 0-.557-.392-1.071-1.05-1.607a20.46 20.46 0 01-1.607-1.441c-.886-.886-1.813-2.143-1.813-3.914 0-2.409 1.606-4.736 5.518-4.736.741 0 1.71.103 2.286.288-.041 1.256-.062 1.606-.103 3.378h-.041c-.262-.1-.53-.183-.803-.247a4.592 4.592 0 00-.99-.103c-1.09 0-1.872.514-1.872 1.4 0 .536.225.865.576 1.257.35.39 1.05.947 1.915 1.75 1.277 1.195 2.1 2.368 2.1 4.181v.021h.002zm11.413-3.129c0 2.759-.082 4.097-.885 5.458-.433.74-1.4 1.544-2.08 1.853-.782.35-1.709.494-2.84.494a9.023 9.023 0 01-1.628-.165c-.514-.082-.989-.186-1.359-.33V19.16h.02c.31.165.66.309 1.01.391.37.103.886.165 1.173.165.516 0 .989-.063 1.38-.226a1.99 1.99 0 001.03-.927c.308-.577.41-1.236.41-3.15v-8.69h3.77v8.69zm20.122-.742c0 4.737-3.563 8.361-8.422 8.361-4.858 0-8.441-3.624-8.441-8.258 0-4.633 3.685-8.257 8.586-8.257s8.277 3.52 8.277 8.134v.021-.001zm-3.891.062c0-2.635-1.874-4.716-4.47-4.716-2.593 0-4.61 2.018-4.61 4.757 0 2.738 1.873 4.757 4.61 4.757 2.739 0 4.47-2.1 4.47-4.777v-.02zm7.118-1.215V6.72h3.83v6.281h.041l2.491-3.294c1.462-1.936 2.06-2.72 2.225-2.945v-.04h4.55v.04c-.144.165-.865 1.07-2.657 3.212l-3.541 4.16 4.22 5.025c2.225 2.636 2.863 3.357 3.028 3.562v.063h-4.838v-.021c-.124-.165-.887-1.112-2.657-3.357l-2.821-3.563h-.041v6.94h-3.83v-9.267zm20.248 2.059v7.209h-3.831V6.72h3.831v8.855zM.349 13.515V6.783c.536-.061 1.772-.123 2.698-.123.638 0 1.482.02 2.244.103.885.104 1.915.35 2.8.844 1.42.804 2.595 2.245 2.595 4.53 0 1.093-.268 2.04-.68 2.801a5.182 5.182 0 01-2.038 2.019c-.536.288-1.153.493-1.792.638-.72.165-1.483.226-2.224.247v4.943H.35V13.516zM7 12.158c0-.783-.37-1.443-.946-1.832-.413-.268-.906-.413-1.483-.413-.165 0-.37 0-.618.021v4.696c.103 0 .495 0 .66-.021.556-.041 1.07-.206 1.44-.453.3-.202.542-.48.701-.804.165-.35.247-.72.247-1.174v-.02z"/></g></g><defs><clipPath id="prefix__clip0_491_371"><path fill="#fff" d="M0 0h130v27.957H0z"/></clipPath><clipPath id="prefix__clip1_491_371"><path fill="#fff" d="M0 0h130v27.957H0z"/></clipPath></defs></svg>
