<svg class="is-bigger" width="120" height="30" viewBox="0 0 120 30" fill="none" xmlns="http://www.w3.org/2000/svg"><g clip-path="url(#prefix__clip0_491_345)"><path d="M29.061 14.724C28.991 6.74 22.428.324 14.403.394 6.38.464-.07 6.994.001 14.978c.07 7.984 6.633 14.4 14.658 14.33 8.024-.07 14.473-6.6 14.403-14.584zM107.644 9.404v2.308h4.818V20.3h2.518v-8.587h4.817V9.404h-12.153zm-61.443 2.57a3.26 3.26 0 00-.147-.871 2.056 2.056 0 00-.462-.79c-.212-.225-.5-.41-.86-.55a4.936 4.936 0 00-1.176-.274 13.124 13.124 0 00-1.598-.083h-7.896v10.893h2.519v-3.794h4.555c.758 0 1.41-.031 1.936-.091.555-.065 1.009-.159 1.386-.288.422-.144.748-.33 1-.565.25-.237.437-.52.552-.836.104-.281.166-.597.183-.936.016-.286.022-.6.022-.933 0-.333-.006-.616-.016-.881h.002zm-2.5 1.553a.655.655 0 01-.656.653h-6.466v-2.474h6.466c.363 0 .657.292.657.653v1.168zm13.366 2.885a6.7 6.7 0 001.387-.287c.423-.145.748-.33 1-.566.25-.237.437-.52.552-.835.104-.282.164-.597.183-.937a21.143 21.143 0 00.008-1.814 3.26 3.26 0 00-.147-.872 2.078 2.078 0 00-.463-.79c-.211-.225-.5-.41-.859-.55a4.934 4.934 0 00-1.176-.273 13.143 13.143 0 00-1.598-.084h-7.896v10.893h2.518v-3.794h3.514l2.962 3.794h3.16l-3.165-3.883s.013 0 .019-.002h.001zm-4.184-2.233h-2.311v-2.475h6.465c.364 0 .657.292.657.654v1.165a.655.655 0 01-.657.654h-4.155l.001.002zm37.21 1.581a2.908 2.908 0 00-.299-.71 2.354 2.354 0 00-.644-.705c.126-.141.237-.308.333-.496.098-.197.179-.426.235-.68.057-.25.086-.536.086-.849 0-.415-.04-.792-.119-1.123a2.038 2.038 0 00-.584-1.03c-.278-.266-.66-.464-1.135-.591-.428-.113-.96-.17-1.625-.17H77.65v10.893h7.877c.627 0 1.177-.028 1.635-.087.48-.06.9-.155 1.244-.282.379-.14.695-.325.938-.55.243-.224.437-.496.57-.798.121-.28.203-.592.241-.933.035-.3.052-.632.052-.988 0-.332-.038-.635-.112-.902l-.001.001zm-2.416 1.694a.655.655 0 01-.657.653h-6.843v-2.474h6.843c.363 0 .657.292.657.654v1.167zm0-4.468c0 .247-.294.448-.657.448h-6.843V11.74h6.843c.363 0 .657.201.657.448v.798zm-11.89.299a7.532 7.532 0 00-.16-1.375 3.627 3.627 0 00-.473-1.178 2.7 2.7 0 00-.987-.903c-.388-.216-.876-.377-1.45-.478-.54-.096-1.204-.145-1.974-.145h-3.626c-.77 0-1.435.05-1.975.145-.573.102-1.06.262-1.45.478-.42.232-.752.535-.988.9-.22.339-.38.737-.478 1.181-.09.409-.142.872-.157 1.376-.012.47-.018.996-.018 1.565 0 .568.006 1.095.018 1.565.015.504.067.967.157 1.376.098.444.259.842.478 1.181.236.364.569.668.989.9.388.215.876.377 1.45.478.54.096 1.204.144 1.974.144h3.626c.77 0 1.435-.048 1.975-.144.573-.102 1.061-.263 1.45-.478a2.7 2.7 0 00.986-.903c.217-.338.376-.735.474-1.178.09-.409.144-.87.16-1.375.014-.471.022-.999.022-1.568 0-.568-.008-1.096-.023-1.568v.004zm-2.496 4.25c0 .36-.298.651-.668.651h-7.385a.659.659 0 01-.667-.65v-5.373a.66.66 0 01.667-.65h7.385c.37 0 .668.29.668.65v5.373zm32.49-4.25a7.552 7.552 0 00-.159-1.375 3.639 3.639 0 00-.474-1.178 2.7 2.7 0 00-.987-.903c-.388-.216-.876-.377-1.449-.478-.54-.096-1.205-.145-1.976-.145h-3.625c-.77 0-1.435.05-1.975.145-.573.102-1.061.262-1.45.478-.42.232-.753.535-.988.9-.22.339-.38.737-.478 1.181-.09.409-.143.872-.157 1.376-.013.47-.019.996-.019 1.565 0 .568.007 1.095.02 1.565.013.504.066.967.156 1.376.097.444.258.842.478 1.181.235.364.568.668.988.9.389.215.877.377 1.45.478.54.096 1.203.144 1.975.144h3.625c.771 0 1.436-.048 1.976-.144.573-.102 1.061-.263 1.449-.478.422-.234.753-.537.987-.903.216-.338.376-.735.474-1.178.09-.409.143-.87.159-1.375a53.222 53.222 0 000-3.136v.004zm-2.496 4.25c0 .36-.299.651-.668.651h-7.385a.659.659 0 01-.668-.65v-5.373a.66.66 0 01.668-.65h7.385c.369 0 .668.29.668.65v5.373z" fill="#1C1E26"/><path class="do-not-fill" d="M19.544 6.881c-1.992 0-3.608 1.602-3.608 3.578 0 1.976 1.616 3.578 3.608 3.578 1.993 0 3.609-1.603 3.609-3.578 0-1.976-1.616-3.578-3.609-3.578zm0 5.313c-.966 0-1.75-.777-1.75-1.735 0-.958.784-1.735 1.75-1.735.967 0 1.75.777 1.75 1.735 0 .958-.783 1.735-1.75 1.735zM15.466 8.53h-1.921v3.86h1.921V8.53zm-2.433 4.81l-3.566 1.546.77 1.746 3.566-1.547-.77-1.746zm.974 2.209l-3.565 1.547.77 1.745 3.565-1.547-.77-1.745zM9.467 6.88c-1.992 0-3.608 1.602-3.608 3.578 0 1.976 1.616 3.578 3.608 3.578s3.608-1.603 3.608-3.578c0-1.976-1.615-3.578-3.608-3.578zm0 5.313c-.966 0-1.75-.777-1.75-1.735 0-.958.784-1.735 1.75-1.735s1.75.777 1.75 1.735c0 .958-.784 1.735-1.75 1.735zm5.31 5.967c-1.992 0-3.607 1.602-3.607 3.578 0 1.975 1.615 3.578 3.608 3.578 1.992 0 3.608-1.603 3.608-3.578 0-1.976-1.616-3.578-3.608-3.578zm0 5.313c-.966 0-1.75-.777-1.75-1.735 0-.958.784-1.735 1.75-1.735.967 0 1.75.777 1.75 1.735 0 .958-.783 1.735-1.75 1.735z" fill="#fff"/></g><defs><clipPath id="prefix__clip0_491_345"><path fill="#fff" transform="translate(0 .393)" d="M0 0h119.797v28.915H0z"/></clipPath></defs></svg>
