<svg xmlns="http://www.w3.org/2000/svg" width="2373" height="575" viewBox="0 0 2373 575"><path d="M0 272c3.04-51.05 17.97-89.68 38.57-127.77 20.6-38.09 68.07-85.92 105.2-105.81C180.9 18.54 221.27 2.81 273 0H0v272Z" fill="none" fill-opacity="0" stroke="#000" stroke-opacity=".01" stroke-width=".3"/><path d="M0 272v38c5.16 36.26 11.27 65.7 25.71 95.3 14.45 29.61 29.47 57.94 59.04 86.95 29.57 29.01 56.72 44.2 85.17 57.88 28.44 13.68 60.77 20.18 97.08 24.87h43c50.13-5.7 90.56-19.98 128.75-42.39 38.2-22.41 84.4-72.01 102.82-109.38 18.42-37.37 33.98-82.3 34.43-137.23.45-54.93-18.15-98.23-36.7-136.3-18.56-38.06-62.64-84.43-101.07-107.28C399.8 19.58 360.37 5.8 309 0h-36c-51.73 2.81-92.1 18.54-129.23 38.42-37.13 19.89-84.6 67.72-105.2 105.81C17.97 182.32 3.04 220.95 0 272m194 1c-4.29.17-8.71.17-13 0-31.01-1.2-66.51-32.95-64-64-.16-4.6-1.33-10.65-1-16 1.18-19.33 14.39-40.88 32.25-51.75 17.85-10.88 33.24-14.46 56-9.49 22.75 4.96 36.98 17.32 48.06 38.94 11.07 21.61 8.58 50.28-3.88 69.07-12.47 18.78-31.61 32.34-54.43 33.23m240-127c3.33 2.48 6.56 5.72 9 9 14.59 19.58 21.75 50.63 11.21 74.23-10.53 23.6-32.58 42.7-60.21 43.77-4.29.17-8.71.17-13 0-26.15-1.01-49.18-18.52-59.7-42.3-10.52-23.77-6.05-56.86 10.7-75.7 2.78-3.13 5.55-6.63 9-9 5.98-4.11 19.5-12.28 27.57-13.79 8.07-1.51 19.78-4.95 32.51-2.15 12.73 2.81 23.5 8.92 32.92 15.94m-127 17c2.87 4.1-1.06 13.7 0 19 1.06 5.3-.15 14.43 0 20s.8 13.78 0 19c-.8 5.22 2.57 15.56-1 19-5.31.48-13.92.52-19 0s-14.67 2.33-18-1c-3.43-3.43-.35-12.85-1-18s-.23-13.53 0-19c.23-5.47-1.26-13.79 0-19 1.26-5.21-2.93-15.81 0-20 1.98-2.83 15.29-1.13 19-1 3.71.13 17.91-1.98 20 1m-47 96c2.97 13.38 10.74 23.59 14 36-24.48 8.13-46.85 22.86-72 29-3.39-6.44-5.09-14.13-8.32-20.68-3.23-6.55-9.5-13.09-1.45-15.53 8.05-2.44 11.64-5.75 18.47-8.1 6.82-2.34 10.59-6.19 17.38-7.61 6.78-1.43 11.8-7 16.63-8.38 4.83-1.39 9.38-3.25 15.29-4.7m15 44c9.3 4.7 6.84 13.25 11.77 20.23s8.5 15.47-2 19.54c-10.49 4.07-16.31 5.23-25.78 10.22-9.46 5-15.67 5.13-24.67 11.33-9 6.2-17.12 1.56-18.62-8.02-1.49-9.58-11.78-17.66-5.47-24.07s15.65-4.1 22.47-9.54c6.81-5.44 15.11-5.79 22.3-9.69 7.2-3.9 14.78-5.82 20-10m10 52c5.39-.35 11.41.68 16 1 12.93-.51 28.23 6.31 38 15 3.44 3.06 7.42 6.19 10 10 21.79 32.21 21.26 72.58-8.08 99.92-29.34 27.34-79.83 20.37-102.84-7-23.01-27.38-23.97-67.17-1.08-92.92 3.11-3.5 6.27-7.22 10-10 12.67-9.44 26.45-15.26 38-16Z" fill="none" fill-opacity="0" stroke="#000" stroke-width=".3"/><path d="M310 575h2063V0H309c51.37 5.8 90.8 19.58 129.23 42.42 38.43 22.85 82.51 69.22 101.07 107.28 18.55 38.07 37.15 81.37 36.7 136.3-.45 54.93-16.01 99.86-34.43 137.23-18.42 37.37-64.62 86.97-102.82 109.38C400.56 555.02 360.13 569.3 310 575m1007-396c16.15-2.43 42.65 2.81 60 1s40.13.32 52.75 1.26c12.63.94 23.11 3.56 33 7.13 9.9 3.58 19.05 12.29 25.44 21.86 6.39 9.57 9.31 17.68 11.58 29.98 2.28 12.3.95 29.57 2.23 45.77 1.28 16.2-1.67 38.8-2.26 51.75-.6 12.96-4.83 21.49-9.44 31.55-4.62 10.06-13.79 19.73-24.55 23.89-10.77 4.16-19.16 8.19-32.5 9.2-13.34 1.01-30.84 2.93-48.25 2.61-17.41-.32-46.62.82-63.02-.98-16.41-1.8-24.15-.14-36.73-3.42-12.59-3.27-19.13-5.26-29.17-12.69-10.04-7.43-17.28-16.79-20.67-27.66-3.39-10.87-5.16-20.9-5.48-35.33-.32-14.42-1.2-44.02-.92-58.93.27-14.9 2.24-24.89 4.79-36.24 2.55-11.35 6.73-18.83 16.95-29 10.23-10.17 18.52-12.67 30.5-15.94 11.98-3.28 21.98-3.74 35.75-5.81m594 0c18.76-1.06 47.13 2.33 66 1 18.88-1.33 36.96-.5 50.75 1.4 13.8 1.89 21.81 4.15 32.5 8.79 10.7 4.64 20.46 15.86 25.33 25.58 4.86 9.72 6.92 19.78 8.02 32.98 1.11 13.2 1.84 40.55 1.4 57.25-.44 16.7-.54 30.31-3.39 43.75-2.86 13.45-6.56 21.5-17.36 32.5-10.81 11-16.72 12.48-30.17 16.88-13.44 4.4-21.01 2.35-38.1 3.89-17.1 1.55-46.63 2.42-64.98 1.98-18.35-.44-37.2-1.2-51.25-2.8-14.05-1.61-22.01-5.21-32.52-9.78-10.51-4.56-20.28-14.01-24.42-24.67-4.14-10.66-8.49-17.72-8.74-31.83-.26-14.12-3.22-40.9-2.07-57.92 1.15-17.02 1.69-31.22 4.76-44.25 3.07-13.03 5.72-21.96 15.99-32 10.28-10.04 17.58-13.72 30.15-16.87 12.57-3.14 23.96-5.08 38.1-5.88M725 324v77h-50c1.67-72.08 1.66-145.95 0-218 24.72.01 54.82-.02 79 0s56.79-.03 79 0 32.97 2.92 48.7 6.31c15.72 3.38 23.86 13.31 29.36 25.77 5.51 12.47 6.17 39.48 4.73 56.15-1.45 16.66-5.26 26.03-17.82 36.74s-20.35 10.32-37.22 13.83c-16.86 3.51-33.97 2.48-56.75 2.2-22.78-.28-55.33.21-79 0m405-1c21.52 26.14 42.33 51.13 63 78-11.4.2-25.92-.27-37 0-11.08.27-25.7 1.78-30.1-5.9-4.4-7.68-8.24-10.62-12.81-17.2-4.56-6.58-8.94-10.74-13.22-16.82-4.27-6.08-8.44-10.99-13.44-16.85-5-5.86-6.64-11.03-13-17-6.36-5.97-22.48-2.56-33.43-3.23-10.95-.67-26.62.5-38 0v77h-50V183c24.47 2.42 54.56.21 79 1 24.44.79 57.79-.71 80.07-.93 22.29-.22 32.96 2.35 49.18 6.13 16.21 3.78 23.48 15.32 28.94 28.05 5.46 12.73 3.56 46.13 2.21 60.5-1.36 14.37-9.28 27.1-22.15 34.84-12.88 7.73-23.33 7.23-39.25 10.41m635-42c5.38 5.94 12.05 11.64 14.58 16.77 2.53 5.13 4.18 10.83 5.81 17.98 1.64 7.16 1.84 19.79.22 27-1.63 7.21-.07 13.28-3.4 19.48-3.32 6.2-3.09 9.49-8.51 15.47-5.42 5.99-11.58 10.24-16.62 12.43-5.04 2.18-10.79 5.03-17 6-6.2.97-11.21 2.78-18.83 3.13-7.62.36-16.65 1.32-27.25 1.74-10.6.42-24.35-.33-36 0-11.65.33-24.72-.44-37 0-12.28.44-22.96-.88-36 0s-22.71-1.84-37 0-11.3-13.98-11-26c.3-12.02-.11-23.85 0-36 .11-12.15.01-24.74 0-37-.01-12.26.14-23.56 0-36-.14-12.44.36-24.23 0-37s.81-23.6 0-37c-.81-13.4 15.71-8.64 27-9 11.29-.36 25.36.13 37 0s24.34-.02 36 0 25.66-.17 37 0 25.59-.46 36 0 17.29 1.7 25.25 2.2c7.96.5 12.33 4.63 18.05 6.51 5.73 1.89 10.39 5.85 14.89 11.54 4.5 5.69 6.76 10.16 8 17 1.24 6.85 2.83 14.17 2.81 22.75-.02 8.58-2.37 15.97-4.71 22.3s-2.92 11.44-9.29 15.7m607-98v47c-31.91-.66-64.53 1.33-96-1 .65 57.24-1.32 115.2 1 172-11.09 1.05-19.65-1.4-31 0-11.35 1.4-22.19.75-20-12 2.19-12.75-1.02-20.43 0-32s-.45-19.99 0-31c.45-11.01-.21-21.17 0-32 .21-10.83-.11-21.25 0-32s-.08-21.27 0-32h-95v-47h241Z" stroke="none" fill="none" fill-opacity="0" stroke-opacity="0" stroke-width=".3"/><path d="M116 193c.25 4.63 1.43 10.63 1 16-2.51 31.05 32.99 62.8 64 64 3.97-.31 9.1-.3 13 0 22.82-.89 41.96-14.45 54.43-33.23 12.46-18.79 14.95-47.46 3.88-69.07-11.08-21.62-25.31-33.98-48.06-38.94-22.76-4.97-38.15-1.39-56 9.49-17.86 10.87-31.07 32.42-32.25 51.75m99 29c-.89 1.71-3 5.24-6 7-13 7.63-31.76 9.82-44.75-2.26-12.99-12.08-14.13-35.71-.5-48.99 13.64-13.28 33.51-13.44 46.5-2.56 12.98 10.89 15.56 34.33 4.75 46.81ZM341 146c-1.73 1.8-6.96 7.47-9 9-16.75 18.84-21.22 51.93-10.7 75.7 10.52 23.78 33.55 41.29 59.7 42.3 3.97-.31 9.1-.3 13 0 27.63-1.07 49.68-20.17 60.21-43.77 10.54-23.6 3.38-54.65-11.21-74.23-1.89-1.64-7.47-7.24-9-9-9.42-7.02-20.19-13.13-32.92-15.94-12.73-2.8-24.44.64-32.51 2.15-8.07 1.51-21.59 9.68-27.57 13.79m50 21c22.3 1.17 39.92 31.26 25.69 52.69-14.22 21.44-46.19 20.67-58.99-1.39-12.79-22.07 5.12-52.78 33.3-51.3Z" fill="none" fill-opacity="0" stroke="#000" stroke-opacity=".03" stroke-width=".3"/><path d="M332 155c2.04-1.53 7.27-7.2 9-9-3.45 2.37-6.22 5.87-9 9Z" fill="none" fill-opacity="0" stroke="#6A6A6A" stroke-opacity=".5" stroke-width=".3"/><path d="M443 155c-2.44-3.28-5.67-6.52-9-9 1.53 1.76 7.11 7.36 9 9Z" fill="none" fill-opacity="0" stroke="#6A6A6A" stroke-opacity=".53" stroke-width=".3"/><path d="M268 163c2.33 24.43.34 50.82 1 76 12.26.83 24.77-1.11 37 0-.01-25.17-.83-51.65 1-76-2.09-2.98-16.29-.87-20-1-3.71-.13-17.02-1.83-19 1Z" fill="none" fill-opacity="0" stroke="#000" stroke-opacity=".01" stroke-width=".3"/><path d="M269 239c-.66-25.18 1.33-51.57-1-76-2.93 4.19 1.26 14.79 0 20-1.26 5.21.23 13.53 0 19-.23 5.47-.65 13.85 0 19s-2.43 14.57 1 18Z" fill="none" fill-opacity="0" stroke="#FFF" stroke-opacity=".45" stroke-width=".3"/><path d="M306 239v1c3.57-3.44.2-13.78 1-19 .8-5.22.15-13.43 0-19s1.06-14.7 0-20c-1.06-5.3 2.87-14.9 0-19-1.83 24.35-1.01 50.83-1 76Z" fill="none" fill-opacity="0" stroke="#FFF" stroke-opacity=".29" stroke-width=".3"/><path d="M209 229c1.42-1.29 4.48-5.25 6-7 10.81-12.48 8.23-35.92-4.75-46.81-12.99-10.88-32.86-10.72-46.5 2.56-13.63 13.28-12.49 36.91.5 48.99C177.24 238.82 196 236.63 209 229ZM391 167c-28.18-1.48-46.09 29.23-33.3 51.3 12.8 22.06 44.77 22.83 58.99 1.39 14.23-21.43-3.39-51.52-25.69-52.69Z" fill="none" fill-opacity="0" stroke="#000" stroke-width=".3"/><path d="M1317 179c-13.77 2.07-23.77 2.53-35.75 5.81-11.98 3.27-20.27 5.77-30.5 15.94-10.22 10.17-14.4 17.65-16.95 29-2.55 11.35-4.52 21.34-4.79 36.24-.28 14.91.6 44.51.92 58.93.32 14.43 2.09 24.46 5.48 35.33 3.39 10.87 10.63 20.23 20.67 27.66 10.04 7.43 16.58 9.42 29.17 12.69 12.58 3.28 20.32 1.62 36.73 3.42 16.4 1.8 45.61.66 63.02.98 17.41.32 34.91-1.6 48.25-2.61 13.34-1.01 21.73-5.04 32.5-9.2 10.76-4.16 19.93-13.83 24.55-23.89 4.61-10.06 8.84-18.59 9.44-31.55.59-12.95 3.54-35.55 2.26-51.75-1.28-16.2.05-33.47-2.23-45.77-2.27-12.3-5.19-20.41-11.58-29.98s-15.54-18.28-25.44-21.86c-9.89-3.57-20.37-6.19-33-7.13-12.62-.94-35.4-3.07-52.75-1.26-17.35 1.81-43.85-3.43-60-1m-27 46c14-1.69 31.37 2.33 47 1 15.63-1.33 35.43.56 51 0s36.44.16 51 0c14.56-.16 12.37 10.8 12 25-.37 14.2 1.16 35.48 0 50-1.16 14.52 2.44 35.07.6 47.75-1.83 12.69-18.7 9.94-32.6 10.25-13.9.31-36.25-.01-51 0s-35.77.29-50 0c-14.23-.29-32.13 3.38-37.19-8.25-5.06-11.64-.65-30.26-1.81-44.75-1.16-14.49.7-37.23 0-51-.7-13.77-1.31-28.52 11-30ZM1911 179c-14.14.8-25.53 2.74-38.1 5.88-12.57 3.15-19.87 6.83-30.15 16.87-10.27 10.04-12.92 18.97-15.99 32-3.07 13.03-3.61 27.23-4.76 44.25s1.81 43.8 2.07 57.92c.25 14.11 4.6 21.17 8.74 31.83 4.14 10.66 13.91 20.11 24.42 24.67 10.51 4.57 18.47 8.17 32.52 9.78 14.05 1.6 32.9 2.36 51.25 2.8 18.35.44 47.88-.43 64.98-1.98 17.09-1.54 24.66.51 38.1-3.89 13.45-4.4 19.36-5.88 30.17-16.88 10.8-11 14.5-19.05 17.36-32.5 2.85-13.44 2.95-27.05 3.39-43.75.44-16.7-.29-44.05-1.4-57.25-1.1-13.2-3.16-23.26-8.02-32.98-4.87-9.72-14.63-20.94-25.33-25.58-10.69-4.64-18.7-6.9-32.5-8.79-13.79-1.9-31.87-2.73-50.75-1.4-18.87 1.33-47.24-2.06-66-1m-27 46c19.34-3.87 42.29 2.22 63 0s45.35 2.11 66 0 34.62 1.32 32 22c-2.62 20.68 2.54 46.58 0 66s8.29 40.96-11.08 44.93c-19.37 3.98-43.1-.64-63.92 1.07-20.81 1.71-44.8-2.13-66 0-21.2 2.13-34.22-3.45-32-24 2.22-20.55-1.69-47.11 0-66s-5.82-40.44 12-44ZM725 324c23.67.21 56.22-.28 79 0s39.89 1.31 56.75-2.2c16.87-3.51 24.66-3.12 37.22-13.83 12.56-10.71 16.37-20.08 17.82-36.74 1.44-16.67.78-43.68-4.73-56.15-5.5-12.46-13.64-22.39-29.36-25.77-15.73-3.39-26.49-6.28-48.7-6.31-22.21-.03-54.82.02-79 0s-54.28.01-79 0c1.66 72.05 1.67 145.92 0 218h50v-77m0-45v-50c19.65-.48 39.35.63 59 0s39.37 1.22 59 0c19.63-1.22 22.71 5.34 23 24 .29 18.66-2.69 27.43-23 26-20.31-1.43-39 .74-59 0s-39.08.56-59 0ZM1130 323c15.92-3.18 26.37-2.68 39.25-10.41 12.87-7.74 20.79-20.47 22.15-34.84 1.35-14.37 3.25-47.77-2.21-60.5-5.46-12.73-12.73-24.27-28.94-28.05-16.22-3.78-26.89-6.35-49.18-6.13-22.28.22-55.63 1.72-80.07.93-24.44-.79-54.53 1.42-79-1v218h50v-77c11.38.5 27.05-.67 38 0s27.07-2.74 33.43 3.23c6.36 5.97 8 11.14 13 17 5 5.86 9.17 10.77 13.44 16.85 4.28 6.08 8.66 10.24 13.22 16.82 4.57 6.58 8.41 9.52 12.81 17.2s19.02 6.17 30.1 5.9c11.08-.27 25.6.2 37 0-20.67-26.87-41.48-51.86-63-78m-128-44v-50c19.45-.47 39.63.62 59 0 19.37-.62 41 1.18 60 0s21.86 5.96 22 24c.14 18.04-1.18 26.96-21 26-19.82-.96-40.1.5-60 0s-40.07.37-60 0Z" fill="none" fill-opacity="0" stroke="#000" stroke-opacity=".99" stroke-width=".3"/><path d="M1765 281c6.37-4.26 6.95-9.37 9.29-15.7 2.34-6.33 4.69-13.72 4.71-22.3.02-8.58-1.57-15.9-2.81-22.75-1.24-6.84-3.5-11.31-8-17-4.5-5.69-9.16-9.65-14.89-11.54-5.72-1.88-10.09-6.01-18.05-6.51-7.96-.5-14.84-1.74-25.25-2.2-10.41-.46-24.66.17-36 0s-25.34.02-37 0-24.36-.13-36 0-25.71-.36-37 0-27.81-4.4-27 9c.81 13.4-.36 24.23 0 37s-.14 24.56 0 37c.14 12.44-.01 23.74 0 36 .01 12.26.11 24.85 0 37-.11 12.15.3 23.98 0 36s-3.29 27.84 11 26c14.29-1.84 23.96.88 37 0s23.72.44 36 0c12.28-.44 25.35.33 37 0 11.65-.33 25.4.42 36 0 10.6-.42 19.63-1.38 27.25-1.74 7.62-.35 12.63-2.16 18.83-3.13 6.21-.97 11.96-3.82 17-6 5.04-2.19 11.2-6.44 16.62-12.43 5.42-5.98 5.19-9.27 8.51-15.47 3.33-6.2 1.77-12.27 3.4-19.48 1.62-7.21 1.42-19.84-.22-27-1.63-7.15-3.28-12.85-5.81-17.98-2.53-5.13-9.2-10.83-14.58-16.77m-178-17v-34c19.72-.11 39.27.15 59 0 19.73-.15 39.2.29 59 0 19.8-.29 31.6-2.41 31 18-.6 20.41-12.84 14.53-32 15-19.16.47-39.72-.44-59 0s-39.18-1.16-58 1m0 93v-50c20.11 1.56 40.38 1.36 61 1 20.62-.36 41.17 1.08 62 0s26.54 1.53 27 23c.46 21.47-5.95 27.04-27 25-21.05-2.04-41.26.87-62 0-20.74-.87-40.83-.18-61 1ZM2372 183h-241v47h95c-.08 10.73.11 21.25 0 32s.21 21.17 0 32c-.21 10.83.45 20.99 0 32-.45 11.01 1.02 19.43 0 31s2.19 19.25 0 32 8.65 13.4 20 12c11.35-1.4 19.91 1.05 31 0-2.32-56.8-.35-114.76-1-172 31.47 2.33 64.09.34 96 1v-47Z" fill="none" fill-opacity="0" stroke="#000" stroke-opacity=".98" stroke-width=".3"/><path d="M117 209c.43-5.37-.75-11.37-1-16-.33 5.35.84 11.4 1 16Z" fill="none" fill-opacity="0" stroke="#FFF" stroke-opacity=".23" stroke-width=".3"/><path d="M209 229c3-1.76 5.11-5.29 6-7-1.52 1.75-4.58 5.71-6 7Z" fill="none" fill-opacity="0" stroke="#6E6E6E" stroke-opacity=".52" stroke-width=".3"/><path d="M1290 225c-12.31 1.48-11.7 16.23-11 30 .7 13.77-1.16 36.51 0 51 1.16 14.49-3.25 33.11 1.81 44.75 5.06 11.63 22.96 7.96 37.19 8.25 14.23.29 35.25.01 50 0s37.1.31 51 0c13.9-.31 30.77 2.44 32.6-10.25 1.84-12.68-1.76-33.23-.6-47.75 1.16-14.52-.37-35.8 0-50 .37-14.2 2.56-25.16-12-25-14.56.16-35.43-.56-51 0s-35.37-1.33-51 0c-15.63 1.33-33-2.69-47-1ZM1884 225c-17.82 3.56-10.31 25.11-12 44-1.69 18.89 2.22 45.45 0 66-2.22 20.55 10.8 26.13 32 24 21.2-2.13 45.19 1.71 66 0 20.82-1.71 44.55 2.91 63.92-1.07 19.37-3.97 8.54-25.51 11.08-44.93 2.54-19.42-2.62-45.32 0-66s-11.35-24.11-32-22c-20.65 2.11-45.29-2.22-66 0s-43.66-3.87-63 0Z" fill="none" fill-opacity="0" stroke="#000" stroke-opacity=".01" stroke-width=".3"/><path d="M725 279c19.92.56 39-.74 59 0s38.69-1.43 59 0c20.31 1.43 23.29-7.34 23-26-.29-18.66-3.37-25.22-23-24-19.63 1.22-39.35-.63-59 0s-39.35-.48-59 0v50ZM1002 279c19.93.37 40.1-.5 60 0s40.18-.96 60 0 21.14-7.96 21-26c-.14-18.04-3-25.18-22-24-19 1.18-40.63-.62-60 0-19.37.62-39.55-.47-59 0v50Z" fill="none" fill-opacity="0" stroke="#000" stroke-opacity=".02" stroke-width=".3"/><path d="M1587 264c18.82-2.16 38.72-.56 58-1 19.28-.44 39.84.47 59 0 19.16-.47 31.4 5.41 32-15 .6-20.41-11.2-18.29-31-18-19.8.29-39.27-.15-59 0-19.73.15-39.28-.11-59 0v34Z" fill="none" fill-opacity="0" stroke="#000" stroke-opacity=".01" stroke-width=".3"/><path d="M306 240v-1c-12.23-1.11-24.74.83-37 0 3.33 3.33 12.92.48 18 1s13.69.48 19 0Z" fill="none" fill-opacity="0" stroke="#FFF" stroke-opacity=".12" stroke-width=".3"/><path d="M260 259c-5.91 1.45-10.46 3.31-15.29 4.7-4.83 1.38-9.85 6.95-16.63 8.38-6.79 1.42-10.56 5.27-17.38 7.61-6.83 2.35-10.42 5.66-18.47 8.1-8.05 2.44-1.78 8.98 1.45 15.53 3.23 6.55 4.93 14.24 8.32 20.68 25.15-6.14 47.52-20.87 72-29-3.26-12.41-11.03-22.62-14-36Z" fill="none" fill-opacity="0" stroke="#000" stroke-opacity=".04" stroke-width=".3"/><path d="M181 273c4.29.17 8.71.17 13 0-3.9-.3-9.03-.31-13 0ZM381 273c4.29.17 8.71.17 13 0-3.9-.3-9.03-.31-13 0Z" fill="none" fill-opacity="0" stroke="#FFF" stroke-opacity=".31" stroke-width=".3"/><path d="M275 303c-5.22 4.18-12.8 6.1-20 10-7.19 3.9-15.49 4.25-22.3 9.69-6.82 5.44-16.16 3.13-22.47 9.54-6.31 6.41 3.98 14.49 5.47 24.07 1.5 9.58 9.62 14.22 18.62 8.02 9-6.2 15.21-6.33 24.67-11.33 9.47-4.99 15.29-6.15 25.78-10.22 10.5-4.07 6.93-12.56 2-19.54-4.93-6.98-2.47-15.53-11.77-20.23Z" fill="none" fill-opacity="0" stroke="#000" stroke-opacity=".04" stroke-width=".3"/><path d="M1587 357c20.17-1.18 40.26-1.87 61-1 20.74.87 40.95-2.04 62 0 21.05 2.04 27.46-3.53 27-25-.46-21.47-6.17-24.08-27-23-20.83 1.08-41.38-.36-62 0-20.62.36-40.89.56-61-1v50ZM0 575h267c-36.31-4.69-68.64-11.19-97.08-24.87-28.45-13.68-55.6-28.87-85.17-57.88s-44.59-57.34-59.04-86.95C11.27 375.7 5.16 346.26 0 310v265Z" fill="none" fill-opacity="0" stroke="#000" stroke-opacity=".01" stroke-width=".3"/><path d="M247 371c-2.09 2.41-7.48 8.11-10 10-22.89 25.75-21.93 65.54 1.08 92.92 23.01 27.37 73.5 34.34 102.84 7 29.34-27.34 29.87-67.71 8.08-99.92-2.14-2.04-8.2-7.6-10-10-9.77-8.69-25.07-15.51-38-15-5.36.21-11.43-.74-16-1-11.55.74-25.33 6.56-38 16m44 21c21.75-2.37 44.86 26.37 32.69 48.69-12.16 22.33-39.86 27.88-56.61 7.23-16.75-20.66-2.37-53.06 23.92-55.92Z" fill="none" fill-opacity="0" stroke="#000" stroke-opacity=".03" stroke-width=".3"/><path d="M301 356c-4.59-.32-10.61-1.35-16-1 4.57.26 10.64 1.21 16 1Z" fill="none" fill-opacity="0" stroke="#FFF" stroke-opacity=".25" stroke-width=".3"/><path d="M237 381c2.52-1.89 7.91-7.59 10-10-3.73 2.78-6.89 6.5-10 10Z" fill="none" fill-opacity="0" stroke="#696969" stroke-opacity=".51" stroke-width=".3"/><path d="M349 381c-2.58-3.81-6.56-6.94-10-10 1.8 2.4 7.86 7.96 10 10Z" fill="none" fill-opacity="0" stroke="#696969" stroke-opacity=".54" stroke-width=".3"/><path d="M291 392c-26.29 2.86-40.67 35.26-23.92 55.92 16.75 20.65 44.45 15.1 56.61-7.23 12.17-22.32-10.94-51.06-32.69-48.69Z" fill="none" fill-opacity="0" stroke="#000" stroke-width=".3"/><path d="M0 272c3.04-51.05 17.97-89.68 38.57-127.77 20.6-38.09 68.07-85.92 105.2-105.81C180.9 18.54 221.27 2.81 273 0H0v272Z" fill-opacity=".01" stroke="None"/><path d="M0 272v38c5.16 36.26 11.27 65.7 25.71 95.3 14.45 29.61 29.47 57.94 59.04 86.95 29.57 29.01 56.72 44.2 85.17 57.88 28.44 13.68 60.77 20.18 97.08 24.87h43c50.13-5.7 90.56-19.98 128.75-42.39 38.2-22.41 84.4-72.01 102.82-109.38 18.42-37.37 33.98-82.3 34.43-137.23.45-54.93-18.15-98.23-36.7-136.3-18.56-38.06-62.64-84.43-101.07-107.28C399.8 19.58 360.37 5.8 309 0h-36c-51.73 2.81-92.1 18.54-129.23 38.42-37.13 19.89-84.6 67.72-105.2 105.81C17.97 182.32 3.04 220.95 0 272m194 1c-4.29.17-8.71.17-13 0-31.01-1.2-66.51-32.95-64-64-.16-4.6-1.33-10.65-1-16 1.18-19.33 14.39-40.88 32.25-51.75 17.85-10.88 33.24-14.46 56-9.49 22.75 4.96 36.98 17.32 48.06 38.94 11.07 21.61 8.58 50.28-3.88 69.07-12.47 18.78-31.61 32.34-54.43 33.23m240-127c3.33 2.48 6.56 5.72 9 9 14.59 19.58 21.75 50.63 11.21 74.23-10.53 23.6-32.58 42.7-60.21 43.77-4.29.17-8.71.17-13 0-26.15-1.01-49.18-18.52-59.7-42.3-10.52-23.77-6.05-56.86 10.7-75.7 2.78-3.13 5.55-6.63 9-9 5.98-4.11 19.5-12.28 27.57-13.79 8.07-1.51 19.78-4.95 32.51-2.15 12.73 2.81 23.5 8.92 32.92 15.94m-127 17c2.87 4.1-1.06 13.7 0 19 1.06 5.3-.15 14.43 0 20s.8 13.78 0 19c-.8 5.22 2.57 15.56-1 19-5.31.48-13.92.52-19 0s-14.67 2.33-18-1c-3.43-3.43-.35-12.85-1-18s-.23-13.53 0-19c.23-5.47-1.26-13.79 0-19 1.26-5.21-2.93-15.81 0-20 1.98-2.83 15.29-1.13 19-1 3.71.13 17.91-1.98 20 1m-47 96c2.97 13.38 10.74 23.59 14 36-24.48 8.13-46.85 22.86-72 29-3.39-6.44-5.09-14.13-8.32-20.68-3.23-6.55-9.5-13.09-1.45-15.53 8.05-2.44 11.64-5.75 18.47-8.1 6.82-2.34 10.59-6.19 17.38-7.61 6.78-1.43 11.8-7 16.63-8.38 4.83-1.39 9.38-3.25 15.29-4.7m15 44c9.3 4.7 6.84 13.25 11.77 20.23s8.5 15.47-2 19.54c-10.49 4.07-16.31 5.23-25.78 10.22-9.46 5-15.67 5.13-24.67 11.33-9 6.2-17.12 1.56-18.62-8.02-1.49-9.58-11.78-17.66-5.47-24.07s15.65-4.1 22.47-9.54c6.81-5.44 15.11-5.79 22.3-9.69 7.2-3.9 14.78-5.82 20-10m10 52c5.39-.35 11.41.68 16 1 12.93-.51 28.23 6.31 38 15 3.44 3.06 7.42 6.19 10 10 21.79 32.21 21.26 72.58-8.08 99.92-29.34 27.34-79.83 20.37-102.84-7-23.01-27.38-23.97-67.17-1.08-92.92 3.11-3.5 6.27-7.22 10-10 12.67-9.44 26.45-15.26 38-16Z" stroke="None"/><path d="M116 193c.25 4.63 1.43 10.63 1 16-2.51 31.05 32.99 62.8 64 64 3.97-.31 9.1-.3 13 0 22.82-.89 41.96-14.45 54.43-33.23 12.46-18.79 14.95-47.46 3.88-69.07-11.08-21.62-25.31-33.98-48.06-38.94-22.76-4.97-38.15-1.39-56 9.49-17.86 10.87-31.07 32.42-32.25 51.75m99 29c-.89 1.71-3 5.24-6 7-13 7.63-31.76 9.82-44.75-2.26-12.99-12.08-14.13-35.71-.5-48.99 13.64-13.28 33.51-13.44 46.5-2.56 12.98 10.89 15.56 34.33 4.75 46.81ZM341 146c-1.73 1.8-6.96 7.47-9 9-16.75 18.84-21.22 51.93-10.7 75.7 10.52 23.78 33.55 41.29 59.7 42.3 3.97-.31 9.1-.3 13 0 27.63-1.07 49.68-20.17 60.21-43.77 10.54-23.6 3.38-54.65-11.21-74.23-1.89-1.64-7.47-7.24-9-9-9.42-7.02-20.19-13.13-32.92-15.94-12.73-2.8-24.44.64-32.51 2.15-8.07 1.51-21.59 9.68-27.57 13.79m50 21c22.3 1.17 39.92 31.26 25.69 52.69-14.22 21.44-46.19 20.67-58.99-1.39-12.79-22.07 5.12-52.78 33.3-51.3Z" fill-opacity=".03" stroke="None"/><path d="M332 155c2.04-1.53 7.27-7.2 9-9-3.45 2.37-6.22 5.87-9 9Z" fill="#6A6A6A" fill-opacity=".5" stroke="None"/><path d="M443 155c-2.44-3.28-5.67-6.52-9-9 1.53 1.76 7.11 7.36 9 9Z" fill="#6A6A6A" fill-opacity=".53" stroke="None"/><path d="M268 163c2.33 24.43.34 50.82 1 76 12.26.83 24.77-1.11 37 0-.01-25.17-.83-51.65 1-76-2.09-2.98-16.29-.87-20-1-3.71-.13-17.02-1.83-19 1Z" fill-opacity=".01" stroke="None"/><path d="M269 239c-.66-25.18 1.33-51.57-1-76-2.93 4.19 1.26 14.79 0 20-1.26 5.21.23 13.53 0 19-.23 5.47-.65 13.85 0 19s-2.43 14.57 1 18Z" fill="#FFF" fill-opacity=".45" stroke="None"/><path d="M306 239v1c3.57-3.44.2-13.78 1-19 .8-5.22.15-13.43 0-19s1.06-14.7 0-20c-1.06-5.3 2.87-14.9 0-19-1.83 24.35-1.01 50.83-1 76Z" fill="#FFF" fill-opacity=".29" stroke="None"/><path d="M209 229c1.42-1.29 4.48-5.25 6-7 10.81-12.48 8.23-35.92-4.75-46.81-12.99-10.88-32.86-10.72-46.5 2.56-13.63 13.28-12.49 36.91.5 48.99C177.24 238.82 196 236.63 209 229ZM391 167c-28.18-1.48-46.09 29.23-33.3 51.3 12.8 22.06 44.77 22.83 58.99 1.39 14.23-21.43-3.39-51.52-25.69-52.69Z" stroke="None"/><path d="M1317 179c-13.77 2.07-23.77 2.53-35.75 5.81-11.98 3.27-20.27 5.77-30.5 15.94-10.22 10.17-14.4 17.65-16.95 29-2.55 11.35-4.52 21.34-4.79 36.24-.28 14.91.6 44.51.92 58.93.32 14.43 2.09 24.46 5.48 35.33 3.39 10.87 10.63 20.23 20.67 27.66 10.04 7.43 16.58 9.42 29.17 12.69 12.58 3.28 20.32 1.62 36.73 3.42 16.4 1.8 45.61.66 63.02.98 17.41.32 34.91-1.6 48.25-2.61 13.34-1.01 21.73-5.04 32.5-9.2 10.76-4.16 19.93-13.83 24.55-23.89 4.61-10.06 8.84-18.59 9.44-31.55.59-12.95 3.54-35.55 2.26-51.75-1.28-16.2.05-33.47-2.23-45.77-2.27-12.3-5.19-20.41-11.58-29.98s-15.54-18.28-25.44-21.86c-9.89-3.57-20.37-6.19-33-7.13-12.62-.94-35.4-3.07-52.75-1.26-17.35 1.81-43.85-3.43-60-1m-27 46c14-1.69 31.37 2.33 47 1 15.63-1.33 35.43.56 51 0s36.44.16 51 0c14.56-.16 12.37 10.8 12 25-.37 14.2 1.16 35.48 0 50-1.16 14.52 2.44 35.07.6 47.75-1.83 12.69-18.7 9.94-32.6 10.25-13.9.31-36.25-.01-51 0s-35.77.29-50 0c-14.23-.29-32.13 3.38-37.19-8.25-5.06-11.64-.65-30.26-1.81-44.75-1.16-14.49.7-37.23 0-51-.7-13.77-1.31-28.52 11-30ZM1911 179c-14.14.8-25.53 2.74-38.1 5.88-12.57 3.15-19.87 6.83-30.15 16.87-10.27 10.04-12.92 18.97-15.99 32-3.07 13.03-3.61 27.23-4.76 44.25s1.81 43.8 2.07 57.92c.25 14.11 4.6 21.17 8.74 31.83 4.14 10.66 13.91 20.11 24.42 24.67 10.51 4.57 18.47 8.17 32.52 9.78 14.05 1.6 32.9 2.36 51.25 2.8 18.35.44 47.88-.43 64.98-1.98 17.09-1.54 24.66.51 38.1-3.89 13.45-4.4 19.36-5.88 30.17-16.88 10.8-11 14.5-19.05 17.36-32.5 2.85-13.44 2.95-27.05 3.39-43.75.44-16.7-.29-44.05-1.4-57.25-1.1-13.2-3.16-23.26-8.02-32.98-4.87-9.72-14.63-20.94-25.33-25.58-10.69-4.64-18.7-6.9-32.5-8.79-13.79-1.9-31.87-2.73-50.75-1.4-18.87 1.33-47.24-2.06-66-1m-27 46c19.34-3.87 42.29 2.22 63 0s45.35 2.11 66 0 34.62 1.32 32 22c-2.62 20.68 2.54 46.58 0 66s8.29 40.96-11.08 44.93c-19.37 3.98-43.1-.64-63.92 1.07-20.81 1.71-44.8-2.13-66 0-21.2 2.13-34.22-3.45-32-24 2.22-20.55-1.69-47.11 0-66s-5.82-40.44 12-44ZM725 324c23.67.21 56.22-.28 79 0s39.89 1.31 56.75-2.2c16.87-3.51 24.66-3.12 37.22-13.83 12.56-10.71 16.37-20.08 17.82-36.74 1.44-16.67.78-43.68-4.73-56.15-5.5-12.46-13.64-22.39-29.36-25.77-15.73-3.39-26.49-6.28-48.7-6.31-22.21-.03-54.82.02-79 0s-54.28.01-79 0c1.66 72.05 1.67 145.92 0 218h50v-77m0-45v-50c19.65-.48 39.35.63 59 0s39.37 1.22 59 0c19.63-1.22 22.71 5.34 23 24 .29 18.66-2.69 27.43-23 26-20.31-1.43-39 .74-59 0s-39.08.56-59 0ZM1130 323c15.92-3.18 26.37-2.68 39.25-10.41 12.87-7.74 20.79-20.47 22.15-34.84 1.35-14.37 3.25-47.77-2.21-60.5-5.46-12.73-12.73-24.27-28.94-28.05-16.22-3.78-26.89-6.35-49.18-6.13-22.28.22-55.63 1.72-80.07.93-24.44-.79-54.53 1.42-79-1v218h50v-77c11.38.5 27.05-.67 38 0s27.07-2.74 33.43 3.23c6.36 5.97 8 11.14 13 17 5 5.86 9.17 10.77 13.44 16.85 4.28 6.08 8.66 10.24 13.22 16.82 4.57 6.58 8.41 9.52 12.81 17.2s19.02 6.17 30.1 5.9c11.08-.27 25.6.2 37 0-20.67-26.87-41.48-51.86-63-78m-128-44v-50c19.45-.47 39.63.62 59 0 19.37-.62 41 1.18 60 0s21.86 5.96 22 24c.14 18.04-1.18 26.96-21 26-19.82-.96-40.1.5-60 0s-40.07.37-60 0Z" fill-opacity=".99" stroke="None"/><path d="M1765 281c6.37-4.26 6.95-9.37 9.29-15.7 2.34-6.33 4.69-13.72 4.71-22.3.02-8.58-1.57-15.9-2.81-22.75-1.24-6.84-3.5-11.31-8-17-4.5-5.69-9.16-9.65-14.89-11.54-5.72-1.88-10.09-6.01-18.05-6.51-7.96-.5-14.84-1.74-25.25-2.2-10.41-.46-24.66.17-36 0s-25.34.02-37 0-24.36-.13-36 0-25.71-.36-37 0-27.81-4.4-27 9c.81 13.4-.36 24.23 0 37s-.14 24.56 0 37c.14 12.44-.01 23.74 0 36 .01 12.26.11 24.85 0 37-.11 12.15.3 23.98 0 36s-3.29 27.84 11 26c14.29-1.84 23.96.88 37 0s23.72.44 36 0c12.28-.44 25.35.33 37 0 11.65-.33 25.4.42 36 0 10.6-.42 19.63-1.38 27.25-1.74 7.62-.35 12.63-2.16 18.83-3.13 6.21-.97 11.96-3.82 17-6 5.04-2.19 11.2-6.44 16.62-12.43 5.42-5.98 5.19-9.27 8.51-15.47 3.33-6.2 1.77-12.27 3.4-19.48 1.62-7.21 1.42-19.84-.22-27-1.63-7.15-3.28-12.85-5.81-17.98-2.53-5.13-9.2-10.83-14.58-16.77m-178-17v-34c19.72-.11 39.27.15 59 0 19.73-.15 39.2.29 59 0 19.8-.29 31.6-2.41 31 18-.6 20.41-12.84 14.53-32 15-19.16.47-39.72-.44-59 0s-39.18-1.16-58 1m0 93v-50c20.11 1.56 40.38 1.36 61 1 20.62-.36 41.17 1.08 62 0s26.54 1.53 27 23c.46 21.47-5.95 27.04-27 25-21.05-2.04-41.26.87-62 0-20.74-.87-40.83-.18-61 1ZM2372 183h-241v47h95c-.08 10.73.11 21.25 0 32s.21 21.17 0 32c-.21 10.83.45 20.99 0 32-.45 11.01 1.02 19.43 0 31s2.19 19.25 0 32 8.65 13.4 20 12c11.35-1.4 19.91 1.05 31 0-2.32-56.8-.35-114.76-1-172 31.47 2.33 64.09.34 96 1v-47Z" fill-opacity=".98" stroke="None"/><path d="M117 209c.43-5.37-.75-11.37-1-16-.33 5.35.84 11.4 1 16Z" fill="#FFF" fill-opacity=".23" stroke="None"/><path d="M209 229c3-1.76 5.11-5.29 6-7-1.52 1.75-4.58 5.71-6 7Z" fill="#6E6E6E" fill-opacity=".52" stroke="None"/><path d="M1290 225c-12.31 1.48-11.7 16.23-11 30 .7 13.77-1.16 36.51 0 51 1.16 14.49-3.25 33.11 1.81 44.75 5.06 11.63 22.96 7.96 37.19 8.25 14.23.29 35.25.01 50 0s37.1.31 51 0c13.9-.31 30.77 2.44 32.6-10.25 1.84-12.68-1.76-33.23-.6-47.75 1.16-14.52-.37-35.8 0-50 .37-14.2 2.56-25.16-12-25-14.56.16-35.43-.56-51 0s-35.37-1.33-51 0c-15.63 1.33-33-2.69-47-1ZM1884 225c-17.82 3.56-10.31 25.11-12 44-1.69 18.89 2.22 45.45 0 66-2.22 20.55 10.8 26.13 32 24 21.2-2.13 45.19 1.71 66 0 20.82-1.71 44.55 2.91 63.92-1.07 19.37-3.97 8.54-25.51 11.08-44.93 2.54-19.42-2.62-45.32 0-66s-11.35-24.11-32-22c-20.65 2.11-45.29-2.22-66 0s-43.66-3.87-63 0Z" fill-opacity=".01" stroke="None"/><path d="M725 279c19.92.56 39-.74 59 0s38.69-1.43 59 0c20.31 1.43 23.29-7.34 23-26-.29-18.66-3.37-25.22-23-24-19.63 1.22-39.35-.63-59 0s-39.35-.48-59 0v50ZM1002 279c19.93.37 40.1-.5 60 0s40.18-.96 60 0 21.14-7.96 21-26c-.14-18.04-3-25.18-22-24-19 1.18-40.63-.62-60 0-19.37.62-39.55-.47-59 0v50Z" fill-opacity=".02" stroke="None"/><path d="M1587 264c18.82-2.16 38.72-.56 58-1 19.28-.44 39.84.47 59 0 19.16-.47 31.4 5.41 32-15 .6-20.41-11.2-18.29-31-18-19.8.29-39.27-.15-59 0-19.73.15-39.28-.11-59 0v34Z" fill-opacity=".01" stroke="None"/><path d="M306 240v-1c-12.23-1.11-24.74.83-37 0 3.33 3.33 12.92.48 18 1s13.69.48 19 0Z" fill="#FFF" fill-opacity=".12" stroke="None"/><path d="M260 259c-5.91 1.45-10.46 3.31-15.29 4.7-4.83 1.38-9.85 6.95-16.63 8.38-6.79 1.42-10.56 5.27-17.38 7.61-6.83 2.35-10.42 5.66-18.47 8.1-8.05 2.44-1.78 8.98 1.45 15.53 3.23 6.55 4.93 14.24 8.32 20.68 25.15-6.14 47.52-20.87 72-29-3.26-12.41-11.03-22.62-14-36Z" fill-opacity=".04" stroke="None"/><path d="M181 273c4.29.17 8.71.17 13 0-3.9-.3-9.03-.31-13 0ZM381 273c4.29.17 8.71.17 13 0-3.9-.3-9.03-.31-13 0Z" fill="#FFF" fill-opacity=".31" stroke="None"/><path d="M275 303c-5.22 4.18-12.8 6.1-20 10-7.19 3.9-15.49 4.25-22.3 9.69-6.82 5.44-16.16 3.13-22.47 9.54-6.31 6.41 3.98 14.49 5.47 24.07 1.5 9.58 9.62 14.22 18.62 8.02 9-6.2 15.21-6.33 24.67-11.33 9.47-4.99 15.29-6.15 25.78-10.22 10.5-4.07 6.93-12.56 2-19.54-4.93-6.98-2.47-15.53-11.77-20.23Z" fill-opacity=".04" stroke="None"/><path d="M1587 357c20.17-1.18 40.26-1.87 61-1 20.74.87 40.95-2.04 62 0 21.05 2.04 27.46-3.53 27-25-.46-21.47-6.17-24.08-27-23-20.83 1.08-41.38-.36-62 0-20.62.36-40.89.56-61-1v50ZM0 575h267c-36.31-4.69-68.64-11.19-97.08-24.87-28.45-13.68-55.6-28.87-85.17-57.88s-44.59-57.34-59.04-86.95C11.27 375.7 5.16 346.26 0 310v265Z" fill-opacity=".01" stroke="None"/><path d="M247 371c-2.09 2.41-7.48 8.11-10 10-22.89 25.75-21.93 65.54 1.08 92.92 23.01 27.37 73.5 34.34 102.84 7 29.34-27.34 29.87-67.71 8.08-99.92-2.14-2.04-8.2-7.6-10-10-9.77-8.69-25.07-15.51-38-15-5.36.21-11.43-.74-16-1-11.55.74-25.33 6.56-38 16m44 21c21.75-2.37 44.86 26.37 32.69 48.69-12.16 22.33-39.86 27.88-56.61 7.23-16.75-20.66-2.37-53.06 23.92-55.92Z" fill-opacity=".03" stroke="None"/><path d="M301 356c-4.59-.32-10.61-1.35-16-1 4.57.26 10.64 1.21 16 1Z" fill="#FFF" fill-opacity=".25" stroke="None"/><path d="M237 381c2.52-1.89 7.91-7.59 10-10-3.73 2.78-6.89 6.5-10 10Z" fill="#696969" fill-opacity=".51" stroke="None"/><path d="M349 381c-2.58-3.81-6.56-6.94-10-10 1.8 2.4 7.86 7.96 10 10Z" fill="#696969" fill-opacity=".54" stroke="None"/><path d="M291 392c-26.29 2.86-40.67 35.26-23.92 55.92 16.75 20.65 44.45 15.1 56.61-7.23 12.17-22.32-10.94-51.06-32.69-48.69Z" stroke="None"/></svg>