<svg class="is-bigger" xmlns="http://www.w3.org/2000/svg" xmlns:xlink="http://www.w3.org/1999/xlink" width="139" height="21" viewBox="0 0 139 21"><defs><path id="a" d="M0 21h139V0H0z"/></defs><g fill="none" fill-rule="evenodd"><path fill="#000" d="M59.5 7C55.925 7 53 9.866 53 13.394v1.212C53 18.135 55.925 21 59.5 21s6.5-2.865 6.5-6.394v-1.212C66 9.866 63.075 7 59.5 7m0 11.024c-1.95 0-3.575-1.543-3.575-3.528v-1.213c0-1.984 1.625-3.527 3.575-3.527 1.95 0 3.575 1.543 3.575 3.527v1.213c0 1.985-1.625 3.528-3.575 3.528M93.5 7c-3.467 0-6.284 2.688-6.5 6.048v1.905c.216 3.36 3.033 6.047 6.5 6.047a6.564 6.564 0 0 0 5.417-2.912l.215-.335-2.815-1.009-.109.112c-.65.784-1.625 1.232-2.708 1.232-1.625 0-3.034-1.12-3.467-2.688H100v-2.127C100 9.912 97.075 7 93.5 7m0 2.8c1.733 0 3.14 1.12 3.466 2.8h-7.042c.434-1.568 1.842-2.8 3.576-2.8M76.445 15.749 71.399 1H68v20h2.961V8.933l4.168 11.956h2.632l4.278-12.18V21H85V1h-3.29z"/><mask id="b" fill="#fff"><use xlink:href="#a"/></mask><path fill="#000" mask="url(#b)" d="M47 4h3V0h-3zM44 9.984h3V21H50V7h-6zM120 4h3V0h-3zM117 9.984h3.055V21H123V7h-6zM24.075 8.102C22.992 7.441 21.8 7 20.5 7 16.925 7 14 9.866 14 13.394v1.211C14 18.134 16.925 21 20.5 21c1.3 0 2.492-.332 3.575-1.102v.882H27V7.44h-2.925v.662Zm0 6.503c0 1.986-1.625 3.529-3.575 3.529-1.95 0-3.575-1.543-3.575-3.529v-1.211c0-1.985 1.625-3.528 3.575-3.528 1.95 0 3.575 1.543 3.575 3.528v1.211ZM39.075 7.574C37.992 6.885 36.8 6.426 35.5 6.426c-3.575 0-6.5 2.984-6.5 6.656v1.261C29 18.016 31.925 21 35.5 21c1.3 0 2.492-.345 3.575-1.148V21H42V0h-2.925v7.574Zm0 6.77c0 2.066-1.625 3.672-3.575 3.672-1.95 0-3.575-1.606-3.575-3.673v-1.261c0-2.066 1.625-3.672 3.575-3.672 1.95 0 3.575 1.606 3.575 3.672v1.261ZM112.075 7.574c-1.083-.689-2.275-1.148-3.575-1.148-3.575 0-6.5 2.984-6.5 6.656v1.261c0 3.673 2.925 6.657 6.5 6.657 1.3 0 2.492-.345 3.575-1.148V21H115V0h-2.925v7.574Zm-3.683 10.442c-1.95 0-3.575-1.606-3.575-3.673v-1.261c0-2.066 1.625-3.672 3.575-3.672 1.95 0 3.575 1.606 3.575 3.557v1.492c0 1.95-1.625 3.557-3.575 3.557ZM136.076 7.33v.772C134.993 7.441 133.8 7 132.5 7c-3.575 0-6.5 2.866-6.5 6.394v1.212c0 3.528 2.925 6.394 6.5 6.394 1.3 0 2.493-.33 3.576-1.102v.882H139V7.44l-2.924-.11ZM132.5 9.757c1.951 0 3.576 1.543 3.576 3.527v1.213c0 1.984-1.625 3.528-3.576 3.528-1.95 0-3.575-1.544-3.575-3.528v-1.213c-.107-1.874 1.518-3.527 3.575-3.527ZM6.885 0c-1.377 0-2.64.34-3.787 1.135V.227H0v20.546h3.098v-7.265L9.868 21H14l-6.311-6.81c3.442-.341 6.081-3.18 6.081-6.471V6.697C13.885 2.951 10.787 0 6.885 0ZM3.098 6.584c0-2.043 1.722-3.633 3.787-3.633 2.066 0 3.787 1.59 3.787 3.633v1.021c0 2.044-1.721 3.633-3.787 3.633-2.065 0-3.787-1.59-3.787-3.633V6.584Z"/></g></svg>
