<svg fill="none" width="226" height="67" xmlns="http://www.w3.org/2000/svg" viewBox="1 0.53 218.55 65.47"><path d="M16.64 15.87c-.374.794-1.35 1.162-2.606 1.162h-2.606v-6.755h2.606c1.21 0 2.187.37 2.607 1.16v4.432Zm9.078 13.058-3.352-6.319a10.18 10.18 0 0 0 4.328-4.183V8.276c-2.187-3.669-5.958-5.563-10.24-5.563H1V36.5h12.336v-7.572h-1.908v-4.88h1.208l5.82 12.452h8.984v-7.572h-1.722ZM43.293 30.6c-.467.418-1.258.697-2.328.697-1.21 0-1.956-.557-2.234-.93v-3.132c.185-.326 1.024-.837 2.234-.837 1.062 0 1.858.326 2.328.744V30.6Zm11.32 5.9v-6.875h-1.678v-13.8c-1.21-2.65-4.7-6.505-11.821-6.505-7.166 0-10.15 3.903-10.985 5.156v4.371h8.657v-1.396c.324-.511 1.163-.93 2.28-.93 1.062 0 1.858.419 2.235.975v4.629c-1.489-1.023-3.26-1.675-5.91-1.675-4.842 0-7.355 2.914-8.008 4.414v8.525c.605 1.349 3.166 3.858 8.007 3.858 2.792 0 4.886-.882 6.37-2.276v1.531l10.853-.002Zm26.174-6.876L75.2 21.305l4.982-4.32h1.489v-6.923H69.616v6.922h1.712L67.8 20.052h-.188V2.023h-11.31v6.878h1.675v20.723h-1.674V36.5h12.893v-6.875h-1.584v-1.746l1.513-1.317 2.12 3.063V36.5h10.89v-6.875h-1.348Zm12.79-9.108v-3.25c.28-.56 1.062-1.023 2.235-1.023 1.118 0 2.047.464 2.28 1.023v3.25h-4.515Zm4.512 6.854v1.977c-.233.508-1.162.974-2.28.974-1.165 0-1.956-.466-2.234-.974v-3.858h13.406V14.775c-.797-1.253-4.051-5.455-11.171-5.455-7.167 0-10.707 3.855-11.917 6.504V30.74c1.21 2.65 4.748 6.504 11.916 6.504 7.121 0 10.381-3.95 11.172-5.203v-4.67h-8.892Zm28.087-17.825c-2.98 0-5.167 1.3-6.563 3.02v-2.49h-10.617v6.91h1.675v12.64h-1.675v6.887h12.66v-6.888h-1.348V17.403a3.651 3.651 0 0 1 2.251-.65c1.21 0 2.001.605 2.187.976v11.895h-1.365v6.888h12.714v-6.888h-1.675v-13.8c-.839-2.65-3.4-6.274-8.228-6.274m22.471-4.925h-9.682v5.45h-2.42v6.91h2.42v15.66c.746 2.275 3.352 4.55 8.658 4.55a15.657 15.657 0 0 0 4.796-.696v-6.411c-.605.047-.887.047-1.118.047-1.77 0-2.327-.373-2.654-.604V16.984h3.772v-6.91h-3.772V4.626ZM168.431 30.6c-.464.418-1.255.697-2.328.697-1.21 0-1.953-.557-2.232-.93v-3.132c.186-.326 1.022-.837 2.232-.837 1.062 0 1.858.326 2.328.744V30.6Zm11.06 5.9v-6.875h-1.423v-13.8c-1.21-2.65-4.703-6.505-11.824-6.505-7.166 0-10.147 3.903-10.985 5.156v4.371h8.657v-1.396c.327-.511 1.166-.93 2.28-.93 1.062 0 1.858.419 2.235.975v4.629c-1.489-1.023-3.256-1.675-5.911-1.675-4.841 0-7.354 2.914-8.004 4.414v8.525c.602 1.349 3.163 3.858 8.004 3.858 2.793 0 4.887-.882 6.37-2.276v1.531l10.601-.002ZM191.758.537h-8.985v7.527h8.985V.537Zm.558 9.537h-11.309v6.91h1.675v18.958a2.316 2.316 0 0 1-2.235 1.534v7.06c7.166 0 10.707-3.902 11.869-6.549V10.074ZM208.458 30.6c-.465.418-1.256.697-2.325.697-1.211 0-1.956-.557-2.235-.93v-3.132c.186-.326 1.024-.837 2.235-.837 1.061 0 1.857.326 2.325.744V30.6Zm11.059 5.9v-6.875h-1.412v-13.8c-1.21-2.65-4.703-6.505-11.824-6.505-7.166 0-10.146 3.903-10.985 5.156v4.371h8.658v-1.396c.326-.511 1.165-.93 2.282-.93 1.062 0 1.858.419 2.232.975v4.629c-1.489-1.023-3.256-1.675-5.91-1.675-4.842 0-7.355 2.914-8.005 4.414v8.525c.605 1.349 3.163 3.858 8.005 3.858 2.792 0 4.888-.882 6.369-2.276v1.531l10.59-.002ZM8.397 62.5a.24.24 0 0 1-.238-.153l-2.244-4.896c-.023-.045-.057-.068-.102-.068h-2.04c-.057 0-.085.028-.085.085v4.828a.211.211 0 0 1-.068.153.184.184 0 0 1-.136.051H1.92a.249.249 0 0 1-.153-.051.248.248 0 0 1-.05-.153V50.804c0-.057.016-.102.05-.136a.212.212 0 0 1 .153-.068h4.675c.691 0 1.303.147 1.836.442a3 3 0 0 1 1.241 1.224c.295.521.442 1.122.442 1.802 0 .782-.204 1.45-.612 2.006-.397.544-.952.924-1.666 1.139-.023 0-.04.011-.05.034a.072.072 0 0 0 0 .068l2.396 4.947a.26.26 0 0 1 .034.102c0 .09-.062.136-.187.136H8.397ZM3.773 52.3c-.057 0-.085.028-.085.085v3.383c0 .057.028.085.085.085h2.55c.544 0 .98-.159 1.31-.476.34-.329.51-.76.51-1.292 0-.533-.17-.963-.51-1.292-.33-.329-.766-.493-1.31-.493h-2.55Zm11.497 1.377c.714 0 1.343.125 1.887.374.544.25.963.595 1.258 1.037.294.43.442.924.442 1.479v5.729a.211.211 0 0 1-.068.153.184.184 0 0 1-.136.051h-1.564a.248.248 0 0 1-.153-.051.248.248 0 0 1-.051-.153v-.544c0-.034-.012-.051-.034-.051-.023-.011-.046-.006-.068.017-.556.612-1.36.918-2.414.918-.85 0-1.553-.215-2.108-.646-.544-.43-.816-1.071-.816-1.921 0-.884.306-1.57.918-2.057.623-.499 1.496-.748 2.618-.748H16.8c.056 0 .085-.028.085-.085v-.408c0-.442-.13-.782-.391-1.02-.26-.25-.652-.374-1.173-.374-.43 0-.782.08-1.054.238a.974.974 0 0 0-.493.629c-.034.136-.113.193-.238.17l-1.65-.204a.603.603 0 0 1-.152-.051c-.034-.034-.046-.074-.034-.119.09-.691.459-1.258 1.105-1.7.657-.442 1.479-.663 2.465-.663Zm-.408 7.395c.555 0 1.031-.147 1.428-.442.396-.295.595-.669.595-1.122v-.799c0-.057-.029-.085-.085-.085h-1.428c-.6 0-1.077.113-1.428.34-.34.227-.51.55-.51.969 0 .363.13.646.39.85.273.193.619.289 1.038.289ZM21.04 62.5a.248.248 0 0 1-.153-.051.248.248 0 0 1-.051-.153V50.804c0-.057.017-.102.05-.136a.211.211 0 0 1 .154-.068h1.564c.056 0 .102.023.136.068.045.034.068.08.068.136v6.137c0 .034.011.057.034.068.022.011.045 0 .068-.034l2.754-3.043a.357.357 0 0 1 .255-.119h1.802c.113 0 .17.04.17.119a.29.29 0 0 1-.051.136l-2.16 2.584c-.033.034-.039.074-.016.119l2.55 5.491a.26.26 0 0 1 .034.102c0 .09-.063.136-.187.136h-1.65a.24.24 0 0 1-.237-.153l-1.853-4.318c-.012-.023-.034-.034-.068-.034-.023-.011-.04-.006-.051.017l-1.36 1.564a.273.273 0 0 0-.034.119v2.601a.211.211 0 0 1-.068.153.184.184 0 0 1-.136.051H21.04Zm15.39-5.321c.046.283.068.6.068.952l-.017.527c0 .136-.068.204-.204.204h-5.32c-.057 0-.086.028-.086.085.034.374.085.629.153.765.272.816.935 1.23 1.99 1.241.77 0 1.382-.317 1.835-.952.046-.068.102-.102.17-.102.046 0 .085.017.12.051l1.053.867c.102.08.12.17.051.272a3.46 3.46 0 0 1-1.41 1.156c-.579.272-1.225.408-1.939.408-.884 0-1.637-.198-2.26-.595-.613-.397-1.06-.952-1.344-1.666-.26-.612-.39-1.462-.39-2.55 0-.657.067-1.19.203-1.598.227-.793.652-1.417 1.275-1.87.635-.465 1.394-.697 2.278-.697 2.233 0 3.491 1.167 3.774 3.502Zm-3.774-1.802c-.419 0-.77.108-1.054.323-.272.204-.464.493-.578.867a2.953 2.953 0 0 0-.136.748c-.022.057 0 .085.068.085h3.451c.057 0 .085-.028.085-.085a3.21 3.21 0 0 0-.102-.646c-.102-.408-.306-.725-.612-.952-.294-.227-.668-.34-1.122-.34Zm9.81-1.7c.918 0 1.649.272 2.193.816.555.544.833 1.286.833 2.227v5.576a.211.211 0 0 1-.068.153.184.184 0 0 1-.136.051h-1.564a.248.248 0 0 1-.153-.051.248.248 0 0 1-.051-.153v-5.168c0-.521-.148-.94-.442-1.258-.295-.329-.686-.493-1.173-.493-.488 0-.884.159-1.19.476-.295.317-.442.737-.442 1.258v5.185a.211.211 0 0 1-.068.153.184.184 0 0 1-.136.051h-1.564a.248.248 0 0 1-.153-.051.248.248 0 0 1-.051-.153v-8.279c0-.057.017-.102.05-.136a.211.211 0 0 1 .154-.068h1.564c.056 0 .102.023.136.068.045.034.068.08.068.136v.544c0 .034.01.057.034.068.022.011.04 0 .05-.034.465-.612 1.168-.918 2.109-.918Zm9.247 0c.918 0 1.649.272 2.193.816.555.544.833 1.286.833 2.227v5.576a.211.211 0 0 1-.068.153.184.184 0 0 1-.136.051h-1.564a.249.249 0 0 1-.153-.051.248.248 0 0 1-.051-.153v-5.168c0-.521-.148-.94-.442-1.258-.295-.329-.686-.493-1.173-.493-.488 0-.884.159-1.19.476-.295.317-.442.737-.442 1.258v5.185a.211.211 0 0 1-.068.153.184.184 0 0 1-.136.051h-1.564a.249.249 0 0 1-.153-.051.248.248 0 0 1-.051-.153v-8.279c0-.057.017-.102.05-.136a.212.212 0 0 1 .154-.068h1.564c.056 0 .102.023.136.068.045.034.068.08.068.136v.544c0 .034.011.057.034.068.022.011.04 0 .05-.034.465-.612 1.168-.918 2.109-.918Zm10.216.34c0-.057.017-.102.05-.136a.211.211 0 0 1 .154-.068h1.547c.056 0 .102.023.136.068.045.034.068.08.068.136v8.279a.211.211 0 0 1-.068.153.184.184 0 0 1-.136.051h-1.547a.248.248 0 0 1-.153-.051.248.248 0 0 1-.051-.153v-.544c0-.034-.012-.057-.034-.068-.023-.011-.046 0-.068.034-.465.6-1.162.901-2.091.901-.862 0-1.587-.25-2.176-.748-.578-.499-.867-1.207-.867-2.125v-5.729c0-.057.017-.102.05-.136a.211.211 0 0 1 .154-.068h1.564c.056 0 .102.023.136.068.045.034.068.08.068.136v5.168c0 .533.136.958.408 1.275.283.317.674.476 1.173.476.51 0 .918-.159 1.224-.476.306-.317.459-.742.459-1.275v-5.168Zm7.293 8.585c-.714 0-1.343-.102-1.887-.306-.533-.215-.946-.504-1.241-.867a1.958 1.958 0 0 1-.442-1.241v-.153c0-.057.017-.102.051-.136a.211.211 0 0 1 .153-.068h1.496c.057 0 .102.023.136.068.045.034.068.08.068.136v.034c0 .283.153.533.459.748.317.204.714.306 1.19.306.453 0 .822-.09 1.105-.272.283-.193.425-.43.425-.714a.613.613 0 0 0-.357-.578c-.227-.136-.6-.278-1.122-.425l-.646-.204a9.553 9.553 0 0 1-1.462-.544 2.966 2.966 0 0 1-1.003-.782c-.272-.34-.408-.77-.408-1.292 0-.793.312-1.422.935-1.887.623-.476 1.445-.714 2.465-.714.691 0 1.298.113 1.819.34.521.215.924.521 1.207.918.283.385.425.827.425 1.326a.211.211 0 0 1-.068.153.184.184 0 0 1-.136.051H70.94a.248.248 0 0 1-.153-.051.248.248 0 0 1-.051-.153c0-.295-.147-.538-.442-.731-.283-.204-.674-.306-1.173-.306-.442 0-.805.085-1.088.255-.272.159-.408.385-.408.68 0 .272.13.482.391.629.272.136.72.289 1.343.459l.374.102c.6.181 1.105.368 1.513.561.408.181.754.442 1.037.782.283.329.425.76.425 1.292 0 .805-.317 1.44-.952 1.904-.635.453-1.479.68-2.533.68Zm5.358-.102a.248.248 0 0 1-.153-.051.248.248 0 0 1-.051-.153V50.804c0-.057.017-.102.05-.136a.211.211 0 0 1 .154-.068h1.564c.056 0 .102.023.136.068.045.034.068.08.068.136v11.492a.211.211 0 0 1-.068.153.184.184 0 0 1-.136.051H74.58Zm4.985-9.877c-.351 0-.64-.113-.867-.34-.227-.227-.34-.516-.34-.867s.114-.64.34-.867c.227-.227.516-.34.867-.34.352 0 .64.113.867.34.227.227.34.516.34.867s-.113.64-.34.867c-.227.227-.516.34-.867.34ZM78.75 62.5a.249.249 0 0 1-.153-.051.248.248 0 0 1-.05-.153V54c0-.057.016-.102.05-.136a.212.212 0 0 1 .153-.068h1.564c.057 0 .102.023.136.068a.16.16 0 0 1 .068.136v8.296a.211.211 0 0 1-.068.153.184.184 0 0 1-.136.051H78.75Zm5.15-9.877c-.352 0-.641-.113-.868-.34-.227-.227-.34-.516-.34-.867s.114-.64.34-.867c.227-.227.516-.34.867-.34.352 0 .64.113.867.34.227.227.34.516.34.867s-.113.64-.34.867c-.227.227-.516.34-.867.34Zm-.817 9.877a.249.249 0 0 1-.153-.051.248.248 0 0 1-.05-.153V54c0-.057.016-.102.05-.136a.212.212 0 0 1 .153-.068h1.564c.057 0 .102.023.136.068a.16.16 0 0 1 .068.136v8.296a.211.211 0 0 1-.068.153.184.184 0 0 1-.136.051h-1.564Zm8.634-7.293a.211.211 0 0 1-.068.153.184.184 0 0 1-.136.051H89.78c-.056 0-.085.028-.085.085v4.097c0 .43.09.742.272.935.193.193.493.289.901.289h.51c.057 0 .102.023.136.068.045.034.068.08.068.136v1.275c0 .125-.068.198-.204.221l-.884.017c-.895 0-1.564-.153-2.006-.459-.442-.306-.668-.884-.68-1.734v-4.845c0-.057-.028-.085-.085-.085h-.969a.248.248 0 0 1-.153-.051.248.248 0 0 1-.05-.153v-1.19c0-.057.016-.102.05-.136a.211.211 0 0 1 .153-.068h.97c.056 0 .084-.028.084-.085v-1.989c0-.057.017-.102.051-.136a.211.211 0 0 1 .153-.068h1.48c.056 0 .101.023.135.068.045.034.068.08.068.136v1.989c0 .057.028.085.085.085h1.734c.057 0 .102.023.136.068a.16.16 0 0 1 .068.136v1.19Zm5.275 7.429c-.896 0-1.666-.227-2.313-.68-.634-.453-1.082-1.082-1.343-1.887a6.418 6.418 0 0 1-.288-1.938c0-.725.09-1.371.272-1.938.26-.793.714-1.411 1.36-1.853.645-.442 1.422-.663 2.328-.663.862 0 1.604.221 2.228.663.634.442 1.082 1.054 1.343 1.836.204.544.306 1.19.306 1.938 0 .714-.097 1.36-.289 1.938-.261.805-.709 1.44-1.344 1.904-.634.453-1.388.68-2.26.68Zm0-1.7c.419 0 .776-.119 1.07-.357.306-.238.528-.572.663-1.003.114-.374.17-.85.17-1.428 0-.612-.056-1.088-.17-1.428-.124-.43-.34-.76-.645-.986-.306-.238-.68-.357-1.123-.357-.419 0-.781.119-1.087.357-.306.227-.528.555-.663.986-.114.397-.17.873-.17 1.428 0 .555.056 1.031.17 1.428.124.43.34.765.646 1.003.317.238.697.357 1.139.357Zm9.922-7.259c.918 0 1.649.272 2.193.816.555.544.833 1.286.833 2.227v5.576a.213.213 0 0 1-.068.153.185.185 0 0 1-.136.051h-1.564a.247.247 0 0 1-.153-.051.248.248 0 0 1-.051-.153v-5.168c0-.521-.148-.94-.442-1.258-.295-.329-.686-.493-1.173-.493-.488 0-.884.159-1.19.476-.295.317-.442.737-.442 1.258v5.185a.213.213 0 0 1-.068.153.185.185 0 0 1-.136.051h-1.564a.247.247 0 0 1-.153-.051.248.248 0 0 1-.051-.153v-8.279c0-.057.017-.102.051-.136a.21.21 0 0 1 .153-.068h1.564c.056 0 .102.023.136.068.045.034.068.08.068.136v.544c0 .034.011.057.034.068.022.011.039 0 .051-.034.464-.612 1.167-.918 2.108-.918Zm9.539-1.054c-.351 0-.64-.113-.867-.34-.226-.227-.34-.516-.34-.867s.114-.64.34-.867c.227-.227.516-.34.867-.34.352 0 .641.113.867.34.227.227.34.516.34.867s-.113.64-.34.867c-.226.227-.515.34-.867.34Zm-2.771 13.362c-.136 0-.204-.068-.204-.204v-1.258c0-.136.074-.198.221-.187.646.011 1.105-.108 1.377-.357.272-.238.408-.635.408-1.19l-.017-8.772c0-.057.017-.102.051-.136a.214.214 0 0 1 .153-.068h1.564c.057 0 .102.023.136.068a.16.16 0 0 1 .068.136v8.755c0 .827-.119 1.473-.357 1.938-.226.465-.612.799-1.156 1.003-.532.204-1.28.295-2.244.272Zm9.299-12.308c.714 0 1.343.125 1.887.374.544.25.963.595 1.258 1.037.294.43.442.924.442 1.479v5.729a.213.213 0 0 1-.068.153.185.185 0 0 1-.136.051H124.8a.247.247 0 0 1-.153-.051.248.248 0 0 1-.051-.153v-.544c0-.034-.012-.051-.034-.051-.023-.011-.046-.006-.068.017-.556.612-1.36.918-2.414.918-.85 0-1.553-.215-2.108-.646-.544-.43-.816-1.071-.816-1.921 0-.884.306-1.57.918-2.057.623-.499 1.496-.748 2.618-.748h1.819c.056 0 .085-.028.085-.085v-.408c0-.442-.131-.782-.391-1.02-.261-.25-.652-.374-1.173-.374-.431 0-.782.08-1.054.238a.973.973 0 0 0-.493.629c-.034.136-.114.193-.238.17l-1.649-.204a.595.595 0 0 1-.153-.051c-.034-.034-.046-.074-.034-.119.09-.691.459-1.258 1.105-1.7.657-.442 1.479-.663 2.465-.663Zm-.408 7.395c.555 0 1.031-.147 1.428-.442.396-.295.595-.669.595-1.122v-.799c0-.057-.029-.085-.085-.085h-1.428c-.601 0-1.077.113-1.428.34-.34.227-.51.55-.51.969 0 .363.13.646.391.85.272.193.617.289 1.037.289Zm2.091-8.534c-.352 0-.641-.113-.867-.34-.227-.227-.34-.516-.34-.867s.113-.64.34-.867c.226-.227.515-.34.867-.34.351 0 .634.113.85.34.226.227.34.516.34.867s-.114.64-.34.867c-.227.227-.51.34-.85.34Zm-3.23 0c-.352 0-.641-.113-.867-.34-.227-.227-.34-.516-.34-.867s.113-.64.34-.867c.226-.227.515-.34.867-.34.351 0 .634.113.85.34.226.227.34.516.34.867s-.114.64-.34.867c-.227.227-.51.34-.85.34Zm10.344 10.064c-.714 0-1.343-.102-1.887-.306-.533-.215-.947-.504-1.241-.867a1.956 1.956 0 0 1-.442-1.241v-.153c0-.057.017-.102.051-.136a.21.21 0 0 1 .153-.068h1.496c.056 0 .102.023.136.068.045.034.068.08.068.136v.034c0 .283.153.533.459.748.317.204.714.306 1.19.306.453 0 .821-.09 1.105-.272.283-.193.425-.43.425-.714a.613.613 0 0 0-.357-.578c-.227-.136-.601-.278-1.122-.425l-.646-.204a9.529 9.529 0 0 1-1.462-.544 2.963 2.963 0 0 1-1.003-.782c-.272-.34-.408-.77-.408-1.292 0-.793.311-1.422.935-1.887.623-.476 1.445-.714 2.465-.714.691 0 1.297.113 1.819.34.521.215.923.521 1.207.918.283.385.425.827.425 1.326a.213.213 0 0 1-.068.153.185.185 0 0 1-.136.051h-1.445a.247.247 0 0 1-.153-.051.248.248 0 0 1-.051-.153c0-.295-.148-.538-.442-.731-.284-.204-.675-.306-1.173-.306-.442 0-.805.085-1.088.255-.272.159-.408.385-.408.68 0 .272.13.482.391.629.272.136.719.289 1.343.459l.374.102c.6.181 1.105.368 1.513.561a2.83 2.83 0 0 1 1.037.782c.283.329.425.76.425 1.292 0 .805-.318 1.44-.952 1.904-.635.453-1.479.68-2.533.68Zm12.48-5.423c.046.283.068.6.068.952l-.017.527c0 .136-.068.204-.204.204h-5.321c-.056 0-.085.028-.085.085.034.374.085.629.153.765.272.816.935 1.23 1.989 1.241.771 0 1.383-.317 1.836-.952.046-.068.102-.102.17-.102.046 0 .085.017.119.051l1.054.867c.102.08.119.17.051.272a3.454 3.454 0 0 1-1.411 1.156c-.578.272-1.224.408-1.938.408-.884 0-1.637-.198-2.261-.595-.612-.397-1.059-.952-1.343-1.666-.26-.612-.391-1.462-.391-2.55 0-.657.068-1.19.204-1.598.227-.793.652-1.417 1.275-1.87.635-.465 1.394-.697 2.278-.697 2.233 0 3.491 1.167 3.774 3.502Zm-3.774-1.802c-.419 0-.77.108-1.054.323-.272.204-.464.493-.578.867a2.966 2.966 0 0 0-.136.748c-.022.057 0 .085.068.085h3.451c.057 0 .085-.028.085-.085a3.112 3.112 0 0 0-.102-.646c-.102-.408-.306-.725-.612-.952-.294-.227-.668-.34-1.122-.34Zm9.81-1.7c.918 0 1.649.272 2.193.816.555.544.833 1.286.833 2.227v5.576a.213.213 0 0 1-.068.153.185.185 0 0 1-.136.051h-1.564a.247.247 0 0 1-.153-.051.248.248 0 0 1-.051-.153v-5.168c0-.521-.148-.94-.442-1.258-.295-.329-.686-.493-1.173-.493-.488 0-.884.159-1.19.476-.295.317-.442.737-.442 1.258v5.185a.213.213 0 0 1-.068.153.185.185 0 0 1-.136.051h-1.564a.247.247 0 0 1-.153-.051.248.248 0 0 1-.051-.153v-8.279c0-.057.017-.102.051-.136a.21.21 0 0 1 .153-.068h1.564c.056 0 .102.023.136.068.045.034.068.08.068.136v.544c0 .034.011.057.034.068.022.011.039 0 .051-.034.464-.612 1.167-.918 2.108-.918Zm5.286 8.823a.247.247 0 0 1-.153-.051.248.248 0 0 1-.051-.153V50.804c0-.057.017-.102.051-.136a.21.21 0 0 1 .153-.068h1.564c.056 0 .102.023.136.068.045.034.068.08.068.136v11.492a.213.213 0 0 1-.068.153.185.185 0 0 1-.136.051h-1.564Zm11.19-5.321c.045.283.068.6.068.952l-.017.527c0 .136-.068.204-.204.204h-5.321c-.057 0-.085.028-.085.085.034.374.085.629.153.765.272.816.935 1.23 1.989 1.241.771 0 1.383-.317 1.836-.952.045-.068.102-.102.17-.102.045 0 .085.017.119.051l1.054.867c.102.08.119.17.051.272a3.46 3.46 0 0 1-1.411 1.156c-.578.272-1.224.408-1.938.408-.884 0-1.638-.198-2.261-.595-.612-.397-1.06-.952-1.343-1.666-.261-.612-.391-1.462-.391-2.55 0-.657.068-1.19.204-1.598.227-.793.652-1.417 1.275-1.87.635-.465 1.394-.697 2.278-.697 2.233 0 3.491 1.167 3.774 3.502Zm-3.774-1.802c-.419 0-.771.108-1.054.323-.272.204-.465.493-.578.867a2.966 2.966 0 0 0-.136.748c-.023.057 0 .085.068.085h3.451c.057 0 .085-.028.085-.085a3.254 3.254 0 0 0-.102-.646c-.102-.408-.306-.725-.612-.952-.295-.227-.669-.34-1.122-.34Zm9.809-1.7c.918 0 1.649.272 2.193.816.556.544.833 1.286.833 2.227v5.576a.209.209 0 0 1-.068.153.183.183 0 0 1-.136.051h-1.564a.251.251 0 0 1-.153-.051.248.248 0 0 1-.051-.153v-5.168c0-.521-.147-.94-.442-1.258-.294-.329-.685-.493-1.173-.493-.487 0-.884.159-1.19.476-.294.317-.442.737-.442 1.258v5.185a.209.209 0 0 1-.068.153.183.183 0 0 1-.136.051h-1.564a.251.251 0 0 1-.153-.051.248.248 0 0 1-.051-.153V50.804c0-.057.017-.102.051-.136a.214.214 0 0 1 .153-.068h1.564c.057 0 .102.023.136.068a.16.16 0 0 1 .068.136v3.757c0 .034.012.057.034.068.023.011.04 0 .051-.034.465-.612 1.168-.918 2.108-.918Zm9.689 1.53a.209.209 0 0 1-.068.153.183.183 0 0 1-.136.051h-1.734c-.056 0-.085.028-.085.085v4.097c0 .43.091.742.272.935.193.193.493.289.901.289h.51c.057 0 .102.023.136.068a.16.16 0 0 1 .068.136v1.275c0 .125-.068.198-.204.221l-.884.017c-.895 0-1.564-.153-2.006-.459-.442-.306-.668-.884-.68-1.734v-4.845c0-.057-.028-.085-.085-.085h-.969a.251.251 0 0 1-.153-.051.248.248 0 0 1-.051-.153v-1.19c0-.057.017-.102.051-.136a.214.214 0 0 1 .153-.068h.969c.057 0 .085-.028.085-.085v-1.989c0-.057.017-.102.051-.136a.214.214 0 0 1 .153-.068h1.479c.057 0 .102.023.136.068a.16.16 0 0 1 .068.136v1.989c0 .057.029.085.085.085h1.734c.057 0 .102.023.136.068a.16.16 0 0 1 .068.136v1.19Zm2.874-2.584c-.351 0-.64-.113-.867-.34-.227-.227-.34-.516-.34-.867s.113-.64.34-.867c.227-.227.516-.34.867-.34s.64.113.867.34c.227.227.34.516.34.867s-.113.64-.34.867c-.227.227-.516.34-.867.34Zm-.816 9.877a.247.247 0 0 1-.153-.051.248.248 0 0 1-.051-.153V54c0-.057.017-.102.051-.136a.21.21 0 0 1 .153-.068h1.564c.057 0 .102.023.136.068.045.034.068.08.068.136v8.296a.213.213 0 0 1-.068.153.183.183 0 0 1-.136.051h-1.564Z" fill="#000"/></svg>