<svg class="is-bigger" width="130" height="52" viewBox="0 0 130 52" fill="none" xmlns="http://www.w3.org/2000/svg"><path d="M59.52.205l-9.828 9.722v19.77h19.985l9.827-9.722V.205H59.52zm.561 3.243l5.753 5.692H54.326l5.754-5.692h.001zm-7.673 8.378h6.316v7.036l-6.316 6.248V11.826zm15.348 15.186H54.328l6.316-6.249h7.112v6.249zm0-8.937H61.44v-6.249h6.316v6.249zm1.359-9.49l-5.753-5.692H74.87l-5.754 5.691h-.001zm7.673 10.277l-6.316 6.248V11.04l6.316-6.25v14.072zM2.786 44.388v6.57H.098V35.604H6.13c2.869 0 4.902 1.408 4.902 4.09 0 2.123-1.175 3.129-2.462 3.576 1.581.582 2.17 1.788 2.17 3.755v.358c0 1.386.067 2.705.225 3.576H8.3c-.226-.626-.27-1.81-.27-3.597v-.358c0-1.9-.702-2.615-2.914-2.615H2.787l-.001-.002zm0-2.168h2.553c1.671 0 2.96-.447 2.96-2.302 0-1.498-1.061-2.146-2.53-2.146H2.787v4.446l-.001.002zM21.9 48.121c0 .782.044 2.1.157 2.838h-2.349c-.09-.358-.158-1.029-.18-1.52-.453 1.006-1.582 1.72-3.322 1.72-2.868 0-3.84-1.81-3.84-3.508 0-1.944 1.332-3.732 5.422-3.732h1.491v-.917c0-.983-.294-1.855-1.852-1.855-1.468 0-1.897.715-2.033 1.699h-2.575c.136-1.855 1.243-3.599 4.655-3.599 2.643 0 4.428.938 4.428 3.71v5.164H21.9zm-4.089-2.458c-2.327 0-2.756.938-2.756 1.81 0 .873.542 1.654 1.808 1.654 1.965 0 2.508-1.318 2.508-3.218v-.246h-1.56zM26.62 44.455c.904-1.095 2.711-3.264 4.067-4.984h3.027c-1.175 1.385-2.643 2.972-3.91 4.425 1.333 2.123 2.938 4.805 4.293 7.062h-3.073c-.814-1.476-2.101-3.732-2.982-5.297-.136.156-1.287 1.341-1.423 1.497v3.8h-2.666V34.687h2.666v9.766l.001.002z" fill="#1E1E1E"/><path d="M36.516 45.796c-.023 1.699.678 3.285 2.508 3.285 1.559 0 2.033-1.006 2.215-1.542h2.62c-.496 1.744-1.783 3.62-4.925 3.62-3.682 0-5.106-2.614-5.106-5.943 0-2.838 1.424-5.967 5.241-5.967 3.818 0 4.947 2.77 4.947 5.631 0 .112-.023.76-.045.917h-7.455v-.001zm4.902-1.788c-.068-1.497-.678-2.75-2.395-2.75-1.92 0-2.396 1.61-2.462 2.75h4.857zM45.666 43.047c0-2.37-.023-3.085-.045-3.576h2.598c.045.2.09 1.073.09 1.587.475-.938 1.558-1.81 3.299-1.81 2.349 0 3.683 1.429 3.683 4.223v7.487h-2.667V43.94c0-1.409-.407-2.503-1.943-2.503-1.627 0-2.35 1.05-2.35 3.196v6.325h-2.665v-7.913zM57.458 43.047c0-2.37-.023-3.085-.044-3.576h2.598c.044.2.09 1.073.09 1.587.474-.938 1.558-1.81 3.298-1.81 2.35 0 3.683 1.429 3.683 4.223v7.487h-2.666V43.94c0-1.409-.407-2.503-1.944-2.503-1.626 0-2.349 1.05-2.349 3.196v6.325h-2.666v-7.913zM78.65 47.607c0 1.587.023 2.77.045 3.352H76.12c-.068-.335-.09-.894-.113-1.541-.655 1.229-1.74 1.743-3.276 1.743-2.146 0-3.57-1.252-3.57-4v-7.687h2.643v7.219c0 1.318.452 2.28 1.876 2.28 1.423 0 2.304-.895 2.304-3.085v-6.414h2.666v8.134-.001zM82.74 47.495c.18 1.095.971 1.72 2.214 1.72 1.243 0 1.852-.558 1.852-1.363 0-.85-.7-1.23-2.53-1.744-3.005-.826-3.727-1.877-3.727-3.487 0-1.476.948-3.375 4.224-3.375 3.005 0 4.224 1.541 4.36 3.42h-2.598c-.112-.715-.52-1.476-1.875-1.476-.993 0-1.513.447-1.513 1.206 0 .693.451 1.029 2.236 1.497 3.094.782 4.043 1.877 4.043 3.71 0 2.28-1.897 3.554-4.563 3.554-2.666 0-4.474-1.207-4.721-3.665h2.598v.003zM90.986 50.96V34.687h2.666V50.96h-2.666zM95.843 37.349V34.69h2.666v2.659h-2.666zm0 2.122h2.666v11.487h-2.666V39.47zM100.7 37.349V34.69h2.666v2.659H100.7zm0 2.122h2.666v11.487H100.7V39.47zM117.757 41.55v-2.08h-2.169v-3.196h-2.643v3.197h-3.999v-3.197h-2.643v3.197h-1.717v2.078h1.717v6.66c0 2.057.768 2.883 2.824 2.883.429 0 1.22-.044 1.763-.223v-1.855c-.316.044-.475.067-.768.067-.971 0-1.174-.358-1.174-1.206v-6.326h3.998v6.66c0 2.057.768 2.883 2.824 2.883.429 0 1.22-.044 1.763-.223v-1.855c-.316.044-.475.067-.768.067-.971 0-1.174-.358-1.174-1.206v-6.326h2.169-.003zM129.098 45.036c0 3.353-1.558 6.124-5.422 6.124s-5.332-2.929-5.332-6.058c0-2.905 1.649-5.855 5.467-5.855 3.591 0 5.285 2.615 5.285 5.788l.002.002zm-8.043.022c0 2.503.927 4.023 2.734 4.023s2.621-1.497 2.621-4.023c0-2.347-.88-3.71-2.711-3.71-1.717 0-2.643 1.475-2.643 3.71h-.001z" fill="#1E1E1E"/></svg>
