<svg width="221" height="129" fill="none" xmlns="http://www.w3.org/2000/svg" viewBox="0 0 221 129"><path d="m41.68 29.374-30.61 99 23-1.84 13.32-41.66s8.61 19.31 23.23 21.24c18.11 2.38 34.68-11.65 34.68-11.65a36.167 36.167 0 0 0 24 4.22c13.9-2.23 28.89-13.07 28.89-13.07s14 8.66 29.78.5c25.55-13.14 32.2-39.59 32.2-39.59l-8.84-1.29s-9.28 16.34-18.66 23.83c-13.11 10.51-20.81 2.91-20.81 2.91a220.67 220.67 0 0 0 15.29-23.33 136.721 136.721 0 0 0 9.61-22.22l-13.28.92c-2.21 6-4.826 11.844-7.83 17.49a98.586 98.586 0 0 1-9.65 14.23 35.689 35.689 0 0 1-1-12.74c.69-7.27 3.77-16.4 3.77-16.4l-16.77 2.4s-4.56 11.07-5 22.31c-.43 10.19 3.2 20.66 3.2 20.66s-6.72 6.34-13.77 8.33c-13 3.66-15-1.14-15-1.14s14.47-13.15 19.28-25.78c4.36-11.46.46-19.77.46-19.77s-4.84-9.4-21-1.79c-9.07 4.27-17.75 16-20.92 25.25a41.12 41.12 0 0 0-1.24 23s-6.53 7.8-24.62 5.94c-4.67-.48-10.33-4.7-14-9.14a30.941 30.941 0 0 1-4.7-7.87s19.06-3.14 33.44-17.35c5.53-5.47 13.18-14.77 14.58-22.9 5.19-30.27-32.09-22.62-32.09-22.62l1.85-8.48-23.6 6.27-2.21 6.46a226.894 226.894 0 0 0-23.3 9.85C6.82 31.884 0 38.974 0 38.974l3.69 10.5s11.52-7.76 21.85-13.07a129.86 129.86 0 0 1 16.14-7.03Zm73.57 32.53a40.964 40.964 0 0 1 3.88-9.85s4.47-8.22 8.83-7c4.09 1.11.39 9.53.39 9.53a52.375 52.375 0 0 1-5.42 9.31 48.093 48.093 0 0 1-7.68 7.74 26.012 26.012 0 0 1 0-9.73ZM78.1 27.624c3.46 3.6 1 11.71 1 11.71a28 28 0 0 1-8 13.72 42.201 42.201 0 0 1-16.85 9.7l11.21-37.78s7.97-2.2 12.64 2.65Z" fill="currentColor"/></svg>
