<svg width="80" height="47" viewBox="0 0 80 47" fill="none" xmlns="http://www.w3.org/2000/svg">
<path d="M15.1433 10.6688L4.02333 46.6468L12.3817 45.9778L17.2071 30.8301C17.2071 30.8301 20.3732 37.855 25.6644 38.5563C32.2418 39.4214 38.2633 34.3229 38.2633 34.3229C40.905 35.8283 43.9873 36.3704 46.9841 35.8569C52.0328 35.0461 57.4842 31.1112 57.4842 31.1112C57.4842 31.1112 62.5714 34.2546 68.3065 31.2924C77.5834 26.4951 80 16.9013 80 16.9013L76.784 16.4328C76.784 16.4328 73.4305 22.3562 70.0174 25.0924C65.2533 28.9117 62.4549 26.1501 62.4549 26.1501C64.4837 23.4437 66.3395 20.612 68.0114 17.6718C69.4121 15.0892 70.5798 12.387 71.5006 9.59708L66.6779 9.93156C65.8747 12.1123 64.924 14.2359 63.8322 16.2875C62.8114 18.1106 61.633 19.8409 60.3106 21.4587C59.9098 19.9501 59.7867 18.3812 59.9472 16.8286C60.1985 14.1869 61.3175 10.8693 61.3175 10.8693L55.2234 11.7414C55.2234 11.7414 53.5624 15.7639 53.4066 19.8494C53.2464 23.5557 54.5694 27.3567 54.5694 27.3567C54.5694 27.3567 52.1265 29.6603 49.5654 30.3836C44.8407 31.7145 44.114 29.9694 44.114 29.9694C44.114 29.9694 49.3692 25.194 51.1169 20.6006C52.7052 16.4398 51.2833 13.4164 51.2833 13.4164C51.2833 13.4164 49.5251 10.0042 43.6525 12.7658C40.3568 14.3174 37.2021 18.5798 36.0498 21.942C35.1064 24.6283 34.9502 27.5283 35.5997 30.3004C35.5997 30.3004 33.2304 33.1347 26.6521 32.4587C24.9552 32.2836 22.9019 30.754 21.5649 29.1402C20.8593 28.2759 20.2849 27.3123 19.8601 26.2806C19.8601 26.2806 26.8228 25.1327 32.0527 19.9763C34.0622 17.9887 36.8422 14.609 37.3474 11.6538C39.2369 0.64593 25.6898 3.4303 25.6898 3.4303L26.3614 0.344727L17.7561 2.63002L16.9532 4.97484C14.0679 6.00766 11.2424 7.20031 8.48972 8.54725C2.47442 11.5812 0 14.1537 0 14.1537L1.3379 17.973C1.3379 17.973 5.5276 15.1536 9.28125 13.2238C11.1751 12.2401 13.1336 11.3865 15.1433 10.6688ZM41.883 22.491C42.1955 21.2415 42.6684 20.0394 43.2892 18.9107C43.2892 18.9107 44.9178 15.9241 46.4982 16.3671C47.9876 16.7699 46.64 19.8301 46.64 19.8301C46.1034 21.0229 45.4443 22.1567 44.6735 23.2134C43.8524 24.2544 42.9163 25.1993 41.883 26.0301C41.6585 24.8608 41.6585 23.6603 41.883 22.491ZM28.3674 10.0366C29.6247 11.3413 28.7307 14.2885 28.7307 14.2885C28.2632 16.1961 27.2536 17.9276 25.8238 19.2741C24.0849 20.9097 21.9883 22.1167 19.7008 22.7992L23.7889 9.06297C23.7889 9.06297 26.6845 8.27056 28.3674 10.0366Z" fill="#1C1E26"/>
</svg>
