<svg xmlns="http://www.w3.org/2000/svg" viewBox="0 0 148.4 28" width="300" height="56"><g fill="#2D3D69"><path fill-rule="evenodd" clip-rule="evenodd" d="M18.8 23.4c4-4.8 3.3-11.9-1.5-15.9L2.9 24.9c4.8 4 11.9 3.3 15.9-1.5M2.9 4.5c-4 4.8-3.3 11.9 1.5 15.9L18.8 3.1C14-.9 6.9-.3 2.9 4.5"/><path d="M30.1 17.8c-.7 0-1.7-.1-2.6-.9l.9-1.3c.5.4 1.1.8 1.8.8.5 0 .9-.2.9-.8 0-.4-.3-.6-.5-.7l-1.3-.7c-.9-.5-1.5-1.1-1.5-2.1 0-1.3 1.1-2.1 2.5-2.1.8 0 1.6.2 2.3.7l-.9 1.3c-.4-.4-1-.6-1.5-.6s-.9.2-.9.7c0 .4.3.6.6.8l1 .5c.9.4 1.7 1 1.7 2.1.2 1.3-.7 2.3-2.5 2.3m8.4-.1l-.7-1.7h-2.3l-.8 1.7h-1.8l3.7-7.8 3.7 7.8h-1.8zm-1.9-4.3l-.6 1.4h1.3l-.7-1.4zm9.8 4.3l-.8-1.7h-2.3l-.8 1.7h-1.8l3.7-7.8 3.7 7.8h-1.7zm-2-4.3l-.6 1.4h1.3l-.7-1.4zm8.6 4.3l-2.3-3.5v3.5H49v-7.5h2.5c1.6 0 2.8.7 2.8 2.2 0 1.2-.8 1.9-1.6 2.1l2.4 3.2H53zm-1.6-6.1h-.8v1.9h.8c.9 0 1.1-.6 1.1-1 .1-.5-.2-.9-1.1-.9m4.8-1.4h1.7v7.5h-1.7zm7.4 7.5l-2.3-2.9-.2.4v2.5h-1.7v-7.5h1.7v2.7l2.3-2.7h2l-2.9 3.4 3.3 4.1zm6 .1c-2.3 0-3.9-1.7-3.9-3.9s1.6-3.8 3.9-3.8 3.9 1.7 3.9 3.8c0 2.3-1.5 3.9-3.9 3.9m0-6.2c-1.4 0-2.3 1.1-2.3 2.4 0 1.3.9 2.4 2.3 2.4s2.3-1.1 2.3-2.4c0-1.3-.9-2.4-2.3-2.4m7.1 6.2c-.7 0-1.7-.1-2.6-.9l.9-1.3c.5.4 1.1.8 1.8.8.5 0 .9-.2.9-.8 0-.4-.3-.6-.5-.7l-1.3-.7c-.9-.5-1.5-1.1-1.5-2.1 0-1.3 1.1-2.1 2.5-2.1.8 0 1.6.2 2.3.7l-.9 1.3c-.4-.4-1-.6-1.5-.6s-.9.2-.9.7c0 .4.3.6.6.8l1 .5c.9.4 1.7 1 1.7 2.1.2 1.3-.7 2.3-2.5 2.3m8.1-.1l-2.3-2.9-.3.4v2.5h-1.7v-7.5h1.7v2.7l2.3-2.7h2.1l-3 3.4 3.4 4.1zm3.1-7.5h1.7v7.5h-1.7z"/></g><path fill="#5B78B2" d="M93.1 10.2h1.7v7.5h-1.7zm9.6 0V18l-4.9-4.6v4.2h-1.7V9.9l4.9 4.6v-4.2h1.7zm27.4 0h1.7v7.5h-1.7zM114.6 18c-2.3 0-3.9-1.7-3.9-3.9s1.6-3.8 3.9-3.8 3.9 1.7 3.9 3.8c0 2.2-1.5 3.9-3.9 3.9m0-6.3c-1.4 0-2.3 1.1-2.3 2.4 0 1.3.9 2.4 2.3 2.4s2.3-1.1 2.3-2.4c0-1.3-.9-2.4-2.3-2.4m12.8 6l-.9-4.1-2.3 4.4-2.3-4.4-.9 4.1h-1.8l2-7.8 3 5.3 3-5.3 2 7.8h-1.8zm11.9-7.5V18l-4.9-4.6v4.2h-1.7V9.8l4.9 4.6v-4.2h1.7zM109.2 16c-.4.4-.9.6-1.5.6-1.4 0-2.3-1.1-2.3-2.4 0-1.3.9-2.4 2.3-2.4.6 0 1.1.2 1.5.6l.7-1.4c-.6-.4-1.4-.6-2.3-.6-2.3 0-3.9 1.7-3.9 3.8 0 2.2 1.6 3.9 3.9 3.9.9 0 1.7-.2 2.3-.6l-.7-1.5zm35.5-1.9v1.2h1.5c-.4.7-1 1.2-2 1.2-1.4 0-2.3-1.1-2.3-2.4 0-1.3.9-2.4 2.3-2.4.6 0 1.1.2 1.5.6l.7-1.4c-.6-.4-1.4-.6-2.3-.6-2.3 0-3.9 1.7-3.9 3.8 0 2.2 1.6 3.9 3.9 3.9 2.4 0 3.9-1.7 3.9-3.9h-3.3z"/></svg>