<svg width="100" height="25" xmlns="http://www.w3.org/2000/svg" viewBox="0 0 76 19"><path d="M12.15 1.488C10.627.626 8.845.123 7.12.123c-3.427 0-5.902 2.27-5.902 5.743 0 3.314 1.839 4.04 4.632 4.835.953.272 2.7.704 2.7 1.952 0 1.203-1.112 1.725-2.157 1.725-1.52 0-3.193-.952-4.305-1.927L.54 16.195c1.747 1.224 3.859 1.951 6.015 1.951 1.725 0 3.519-.477 4.857-1.611 1.363-1.159 1.772-2.905 1.772-4.609 0-2.77-1.84-3.971-4.224-4.676l-1.135-.34c-.771-.249-1.973-.636-1.973-1.634 0-.953 1.088-1.43 1.907-1.43 1.088 0 2.133.454 2.95 1.135l1.441-3.493zm41.858 2.857L53.99.577H42.016v17.115h4.448v-6.376h4.667V7.548h-4.667V4.345zm21.387 13.347L68.95.577h-4.86l-6.582 17.115h4.721l1.18-2.973h6.129l1.113 2.973h4.743zm-7.058-6.378h-3.702l1.84-5.449 1.862 5.449zm-32.159 6.498L29.731.697h-4.858l-6.582 17.115h4.722l1.18-2.973h6.128l1.112 2.973h4.745zm-6.997-6.498h-3.7l1.84-5.448 1.86 5.448z" fill-rule="evenodd"/></svg>
