<svg xmlns="http://www.w3.org/2000/svg" viewBox="0 0 294.9 35.6"><path fill="currentColor" d="M10.4 18.4l3.7-10.1h.1l3.5 10.1h-7.3zM0 32.2c1.7-.1 3.4-.2 5.2-.2 1.8 0 3.7 0 5.5.2v-1c-1.5-.3-3.8-1.1-3.8-2.5 0-1.1.4-1.8.7-2.6L9.8 20h8.6l1.5 4.3c.4 1.2 1.4 3.4 1.4 4.5 0 1.5-1.4 2.2-4.4 2.4v1c2.4-.1 4.8-.2 7.2-.2 2.2 0 5.5 0 7.8.2v-1c-1.8 0-3.7-.8-4.4-2.6L18.1 3.2c-1.6.7-3.5 1.2-5.3 1.5l.8 2.1-8.5 19.7C4 29.2 3.2 30.8 0 31.2v1zM51.8 18.3c1.1.5 2.5.6 4.5.6 1.2 0 2.5-.2 3.7-.5 1.7 1.4 3 3.7 3 5.9 0 4.1-2.8 6.3-6.8 6.3-1.5 0-2.9-.3-4.3-.9V18.3zM41.5 32.2c1.8-.1 3.3-.2 6.9-.2 5.4 0 8.6.4 10.4.4 5.9 0 10.5-1.9 10.5-7.6 0-3.7-3.3-6.7-6.8-7.4v-.1c2.5-.9 4.5-3 4.5-5.7 0-5.1-5-7.8-9.6-7.8-5.4 0-10.8.3-16 .3V5c3.7.1 4.5 2.1 4.5 5.1v16c0 3.9-.3 4.7-4.5 5.1v1zM51.8 5.7c.9 0 1.8-.1 2.7-.1 3.9 0 6.4 1.9 6.4 6 0 3.3-2.2 5.8-5.7 5.8-1.4 0-2.5-.3-3.4-.6V5.7zM126.9 12.4c-1.2-4.2-5.3-7.6-9.5-7.6-2.6 0-4.6 1.4-4.6 4 0 6.2 16.6 5.5 16.6 16 0 4.9-4 8.1-10.2 8.1-2.9 0-5.7-1.2-8.6-1.2-.4 0-1.7.3-2.2.6-.4-3.2-.9-6.5-1.7-9.8h.9c1.2 4.3 6.1 8.6 10.5 8.6 3.8 0 6.3-1 6.3-4.4 0-7-16.8-6.3-16.8-15.7 0-5.3 3.3-7.7 9.9-7.7 3.4 0 6.4 1.3 8.6 1.3h1.5c0 .9-.1 1.8-.1 2.7 0 1.7.2 3.5.3 5.2h-.9zM150.2 18.4L154 8.3h.1l3.5 10.1h-7.4zm-10.4 13.8c1.7-.1 3.4-.2 5.2-.2 1.8 0 3.7 0 5.5.2v-1c-1.5-.3-3.8-1.1-3.8-2.5 0-1.1.4-1.8.7-2.6l2.2-6.1h8.6l1.5 4.3c.4 1.2 1.4 3.4 1.4 4.5 0 1.5-1.4 2.2-4.4 2.4v1c2.4-.1 4.8-.2 7.2-.2 2.2 0 5.5 0 7.8.2v-1c-1.8 0-3.7-.8-4.4-2.6L158 3.3c-1.6.7-3.5 1.2-5.3 1.5l.8 2.1-8.4 19.7c-1.2 2.7-1.9 4.3-5.1 4.7v.9zM207.1 13.2c-1.4-4.4-4.3-8.1-9.9-8.1-7.2 0-10.4 6.3-10.4 12.9 0 6.6 3.2 12.9 10.4 12.9 2.2 0 4.8-1 6.3-2.6V24c0-2.4-1-3-4.6-3.5v-1c1.9.1 4.3.2 7.1.2s5.1-.1 7-.2v1c-2.5.1-3.7 1.3-3.7 2.9V30c-4.5 1.4-7.7 2.9-12.1 2.9-9.7 0-16.5-5.5-16.5-14.8s6.8-14.8 16.5-14.8c3.5 0 6.8 1 10.1 1.6 0 3.1.3 5.4 1.1 8.4h-1.3zM231.8 18.4l3.7-10.1h.1l3.5 10.1h-7.3zm-10.4 13.8c1.7-.1 3.4-.2 5.2-.2 1.8 0 3.7 0 5.5.2v-1c-1.5-.3-3.8-1.1-3.8-2.5 0-1.1.4-1.8.7-2.6l2.2-6.1h8.6l1.5 4.3c.4 1.2 1.4 3.4 1.4 4.5 0 1.5-1.4 2.2-4.4 2.4v1c2.4-.1 4.8-.2 7.2-.2 2.2 0 5.5 0 7.8.2v-1c-1.8 0-3.7-.8-4.4-2.6l-9.3-25.3c-1.6.7-3.5 1.2-5.3 1.5l.8 2.1-8.4 19.7c-1.2 2.7-1.9 4.3-5.1 4.7v.9zM262.6 3.8c2.5.2 4.8.3 7.3.3 2.4 0 4.7-.1 7.1-.3v1c-1.4 0-2.7.3-2.7 1.7s4.3 6.6 5.2 8.1c1-1.8 4.8-6.1 4.8-7.9 0-1.5-2-1.9-3.2-1.9v-1c1.8.1 3.7.3 5.5.3 1.9 0 3.9-.1 5.8-.3v1c-4.7 0-8.2 6.2-12 11l8 11c1.5 2.2 3.7 4.4 6.6 4.4v1c-2.6-.1-5.3-.2-8-.2s-5.4 0-8.1.2v-1c1.8 0 3.7-.3 3.7-2.5 0-1.2-3.7-5.2-6.1-9-1.2 1.9-6 7.7-6 9.2 0 1.7 1.8 2.1 4.2 2.2v1c-2.2-.1-4.5-.2-6.7-.2-3.1 0-5.1 0-6.1.2V31c4.2-.2 7.2-4.1 9.5-7l4.3-5.5-7.5-9.9c-2-2.6-3.2-3.8-5.6-3.9v-.9zM86.8 0h1.5v35.6h-1.5z"></path></svg>
