<svg width="131" height="38" viewBox="0 0 131 38" fill="none" xmlns="http://www.w3.org/2000/svg">
<g clip-path="url(#clip0_491_352)">
<mask id="mask0_491_352" style="mask-type:luminance" maskUnits="userSpaceOnUse" x="0" y="0" width="131" height="38">
<path d="M130.401 0.078064H0.401367V37.3447H130.401V0.078064Z" fill="white"/>
</mask>
<g mask="url(#mask0_491_352)">
<path d="M9.50877 22.6997C9.77925 21.3583 9.20145 19.7546 8.01806 18.6726L6.39517 17.2C5.31017 16.1627 4.81532 15.4682 5.0397 14.3443C5.13258 13.8234 5.40756 13.3494 5.81842 13.002C6.22929 12.6545 6.75097 12.4548 7.29575 12.4366C9.64405 12.4366 8.29162 14.6901 9.87147 14.6901C10.1141 14.6841 10.3466 14.5939 10.5265 14.4358C10.7064 14.2777 10.8219 14.0622 10.8519 13.8287C10.9872 12.8331 10.2188 11.2741 7.77832 11.2741C4.79995 11.2741 3.16784 13.2653 2.86048 15.2147C2.58999 16.6009 3.31231 18.1956 4.3512 19.1555L5.97716 20.6727C6.59189 21.2361 7.51399 22.5328 7.28346 23.7012C7.14822 24.6551 6.15543 25.7878 4.84606 25.7878C1.77241 25.7878 3.35841 23.2332 1.68942 23.2332C1.38938 23.2206 1.09493 23.3149 0.861638 23.4983C0.628344 23.6816 0.472343 23.9416 0.423074 24.2289C0.198698 25.3974 1.50807 27.174 4.30509 27.174C6.47202 27.174 8.95552 25.6567 9.49646 22.7027" fill="#1C1E26"/>
<path d="M9.50877 22.6997C9.77925 21.3583 9.20145 19.7546 8.01806 18.6726L6.39517 17.2C5.31017 16.1627 4.81532 15.4682 5.0397 14.3443C5.13258 13.8234 5.40756 13.3494 5.81842 13.002C6.22929 12.6545 6.75097 12.4548 7.29575 12.4366C9.64405 12.4366 8.29162 14.6901 9.87147 14.6901C10.1141 14.6841 10.3466 14.5939 10.5265 14.4358C10.7064 14.2777 10.8219 14.0622 10.8519 13.8287C10.9872 12.8331 10.2188 11.2741 7.77832 11.2741C4.79995 11.2741 3.16784 13.2653 2.86048 15.2147C2.58999 16.6009 3.31231 18.1956 4.3512 19.1555L5.97716 20.6727C6.59189 21.2361 7.51399 22.5328 7.28346 23.7012C7.14822 24.6551 6.15543 25.7878 4.84606 25.7878C1.77241 25.7878 3.35841 23.2332 1.68942 23.2332C1.38938 23.2206 1.09493 23.3149 0.861638 23.4983C0.628344 23.6816 0.472343 23.9416 0.423074 24.2289C0.198698 25.3974 1.50807 27.174 4.30509 27.174C6.48431 27.162 8.96782 25.6447 9.50877 22.6997Z" stroke="#1C1E26" stroke-width="0.07"/>
<path d="M22.3535 19.1525C21.7173 22.6133 20.0729 25.4541 17.5095 25.4541C14.946 25.4541 14.322 22.6073 14.9583 19.1466C15.5946 15.6858 17.2974 12.8867 19.8485 12.8867C22.3535 12.8867 22.9929 15.6887 22.3535 19.1466V19.1525ZM20.0729 11.6079C16.5013 11.6079 13.0035 14.9882 12.2074 19.1525C11.4851 23.3257 13.7442 26.7358 17.3097 26.7358C20.8751 26.7358 24.3237 23.3168 25.086 19.1525C25.8483 14.9882 23.5983 11.6079 20.0729 11.6079Z" fill="#1C1E26"/>
<path d="M22.3535 19.1525C21.7173 22.6133 20.0729 25.4541 17.5095 25.4541C14.946 25.4541 14.322 22.6073 14.9583 19.1466C15.5946 15.6858 17.2974 12.8867 19.8485 12.8867C22.3535 12.8867 22.9929 15.6887 22.3535 19.1525ZM20.0729 11.6079C16.5013 11.6079 13.0035 14.9882 12.2074 19.1525C11.4851 23.3257 13.7442 26.7358 17.3097 26.7358C20.8751 26.7358 24.3237 23.3168 25.086 19.1525C25.8483 14.9882 23.5861 11.6079 20.0729 11.6079Z" stroke="#1C1E26" stroke-width="0.07"/>
<path d="M32.4963 13.2892H37.9397C38.5544 13.2892 38.5914 14.3294 38.4192 15.2982L36.8978 23.6834C36.6365 25.3676 37.2451 26.6314 38.7665 26.6314C39.5473 26.6314 40.7644 25.9995 41.6342 25.1589V24.1901C41.287 24.4882 40.3741 25.1172 39.8946 25.1172C39.2798 25.1172 39.2429 24.357 39.4182 23.3883L40.9396 14.9614C41.1978 13.2772 40.5923 11.8136 39.0708 11.8136H32.8006L33.5383 7.88485C34.4081 3.16317 35.8497 1.31207 38.1488 1.31207C42.0154 1.31207 40.0575 5.31237 41.9693 5.31237C44.2745 5.31237 44.0132 0.0899124 38.5391 0.0899124C34.7155 0.0899124 32.0107 2.91278 31.1009 7.88485L30.3601 11.8136H27.5385L27.2311 13.2892H30.0527L26.9791 30.593C26.2383 34.638 25.4576 36.1135 24.1544 36.1135C21.8092 36.1135 23.6319 33.1625 21.7662 33.1625C19.4179 33.1625 19.8113 37.3357 23.721 37.3357C26.2844 37.3357 28.4975 35.5651 29.4103 30.593L32.4963 13.2892Z" fill="#1C1E26"/>
<path d="M32.4963 13.2892H37.9397C38.5544 13.2892 38.5914 14.3294 38.4192 15.2982L36.8978 23.6834C36.6365 25.3676 37.2451 26.6314 38.7665 26.6314C39.5473 26.6314 40.7644 25.9995 41.6342 25.1589V24.1901C41.287 24.4882 40.3741 25.1172 39.8946 25.1172C39.2798 25.1172 39.2429 24.357 39.4182 23.3883L40.9396 14.9614C41.1978 13.2772 40.5923 11.8136 39.0708 11.8136H32.8006L33.5383 7.88485C34.4081 3.16317 35.8497 1.31207 38.1488 1.31207C42.0154 1.31207 40.0575 5.31237 41.9693 5.31237C44.2745 5.31237 44.0132 0.0899124 38.5391 0.0899124C34.7155 0.0899124 32.0107 2.91278 31.1009 7.88485L30.3601 11.8136H27.5385L27.2311 13.2892H30.0528L26.9791 30.593C26.2383 34.638 25.4576 36.1135 24.1544 36.1135C21.8092 36.1135 23.6319 33.1625 21.7662 33.1625C19.4179 33.1625 19.8113 37.3357 23.721 37.3357C26.2844 37.3357 28.4975 35.5651 29.4103 30.593L32.4963 13.2892Z" stroke="#1C1E26" stroke-width="0.07"/>
<path d="M50.4557 23.9189C49.2539 23.9189 49.0664 23.1051 49.0664 22.8548V15.9154C49.0627 15.6557 49.12 15.3987 49.234 15.1636C49.348 14.9287 49.5156 14.7219 49.7241 14.559C49.9517 14.4226 50.216 14.3551 50.4833 14.3652C50.716 14.3744 50.9441 14.4302 51.1534 14.5292C51.5068 14.7468 51.8849 15.0032 51.8849 15.8855V22.8399C51.8849 23.0635 51.7466 23.9338 50.4557 23.9338V23.9189ZM55.0385 22.6729V15.817C55.08 15.1694 54.9621 14.5216 54.6943 13.9271C53.7721 11.8166 50.972 11.8405 50.5141 11.8405C48.7651 11.8405 46.8472 12.3681 46.1587 14.1447C45.9345 14.7209 45.8372 15.3363 45.8729 15.9511V22.3122C45.8336 22.9612 45.9213 23.6115 46.1311 24.2289C46.3408 24.8027 46.7026 25.3127 47.1802 25.7077C47.6576 26.1029 48.234 26.369 48.8512 26.4795C49.3324 26.5768 49.8228 26.6238 50.3143 26.6196C50.886 26.6196 52.9207 26.6732 54.2086 25.1739C54.8971 24.3959 55.0385 23.6835 55.0385 22.6729Z" fill="#1C1E26"/>
<path d="M68.9037 26.3245L64.7482 18.0199L68.5011 12.1029H64.7204L61.9142 16.9646V6.71348H58.5332V26.3245H61.9142V19.075L65.0647 26.3245H68.9037Z" fill="#1C1E26"/>
<path d="M79.5294 22.2139C79.5294 21.0216 79.3297 20.3808 78.9854 19.9097C78.7265 19.5886 78.4282 19.2993 78.0971 19.0483L74.9466 16.908C74.2889 16.4639 73.9723 16.1866 73.9723 15.355C73.9402 15.1924 73.9471 15.0249 73.9925 14.8653C74.038 14.7058 74.1206 14.5584 74.2342 14.4348C74.3477 14.3112 74.489 14.2145 74.6471 14.1524C74.8054 14.0902 74.9761 14.0642 75.1464 14.0762C76.465 14.0762 76.4066 15.4086 76.4066 15.6322V16.6606H79.3573V15.0748C79.3921 14.4766 79.2536 13.8809 78.9577 13.3549C78.4997 12.5471 77.3225 11.8256 75.1771 11.8256C72.5399 11.8256 70.7633 12.6305 70.7357 15.4653C70.7357 17.1048 71.1076 17.9364 72.4846 18.8814L75.3462 20.8547C76.1791 21.4359 76.3513 21.6595 76.3513 22.6879C76.3513 23.4361 76.0623 23.8803 75.7765 24.0472C75.5453 24.1858 75.2766 24.2543 75.005 24.2439C74.7186 24.2689 74.433 24.1882 74.2051 24.0181C73.9772 23.848 73.8239 23.6008 73.7755 23.3258C73.7056 23.0329 73.6766 22.732 73.6895 22.4316V21.3197H70.5359V22.7923C70.5191 23.4166 70.6234 24.0385 70.8433 24.6254C71.5595 26.2918 73.3637 26.5988 74.9988 26.5988C77.089 26.5988 78.1217 26.0712 78.7487 25.32C79.5233 24.4049 79.5233 23.293 79.5233 22.208" fill="#1C1E26"/>
<path d="M88.3229 23.3256L87.9511 23.6238C87.6192 23.9325 87.1807 24.11 86.7215 24.1216C86.033 24.1514 85.8917 23.5403 85.8917 22.485C85.8917 21.3732 85.95 20.8158 86.3773 20.4283C86.408 20.4014 86.5494 20.2881 86.6662 20.2047L88.3255 19.1495L88.3229 23.3256ZM92.3893 26.3274C92.2481 26.2141 92.1891 26.1604 92.1623 26.0769C91.6457 25.3825 91.7315 23.6327 91.7315 22.8547V14.9375C91.7471 14.4614 91.6284 13.9903 91.3875 13.5753C90.3579 11.7689 87.8064 11.7867 87.3913 11.7867C85.5013 11.7867 84.2995 12.2578 83.7032 12.842C83.4343 13.1104 83.2226 13.4275 83.0801 13.7753C82.9377 14.1232 82.8675 14.4948 82.8733 14.8689V16.4816H85.9961V15.954C85.9592 15.5058 85.9976 15.0548 86.1099 14.6186C86.3681 14.0642 87.032 14.0642 87.1703 14.0642C87.432 14.0577 87.6903 14.1251 87.9139 14.2579C88.2857 14.5082 88.3723 14.9256 88.3723 15.7483V16.583L84.822 18.3059C84.2396 18.55 83.7162 18.9094 83.2852 19.3611C82.5414 20.1928 82.5997 21.248 82.5997 22.2763C82.5997 23.5283 82.5137 25.2215 83.7155 26.0829C84.2351 26.4369 84.8572 26.6216 85.4921 26.6105C85.9498 26.6166 86.4037 26.528 86.8234 26.3506C87.2431 26.1733 87.6192 25.9113 87.926 25.5822C88.1262 25.4152 88.2709 25.2215 88.4425 25.0545C88.5015 25.7491 88.5561 25.9995 88.8421 26.3065L92.3893 26.3274Z" fill="#1C1E26"/>
<path d="M104.823 26.3276V15.2149C104.859 14.749 104.821 14.2804 104.709 13.8258C104.364 12.4934 103.104 11.8256 101.758 11.8256C100.412 11.8256 99.7231 12.2967 98.8348 13.1313L98.8625 12.1029H95.3984V26.3276H98.807V16.0764C98.807 15.7991 98.6632 14.1597 100.267 14.1597C100.5 14.144 100.73 14.2027 100.925 14.3266C101.383 14.6038 101.442 14.9645 101.442 15.8528V26.3276H104.823Z" fill="#1C1E26"/>
<path d="M114.16 15.8528V17.6026H111.726V15.8528C111.726 15.4922 111.753 14.4369 112.987 14.4369C114.219 14.4369 114.16 15.5488 114.16 15.8528ZM117.542 19.9366V15.8826C117.542 14.7976 117.4 14.3535 117.141 13.8527C116.711 12.9912 115.396 11.8256 113.017 11.8256C111.299 11.8256 109.408 12.4367 108.692 14.1031C108.447 14.7141 108.32 15.364 108.32 16.0197V22.0202C108.34 22.6473 108.426 23.2707 108.579 23.8803C108.978 25.1591 109.98 26.6047 112.989 26.6047C114.935 26.6047 116.77 26.0473 117.342 24.0472C117.463 23.6327 117.511 23.2015 117.486 22.7714V21.6327H114.188C114.188 21.8265 114.215 22.8548 114.074 23.2423C114.012 23.4731 113.87 23.6763 113.672 23.8178C113.474 23.9594 113.232 24.0308 112.987 24.0203C112.726 24.0335 112.468 23.9612 112.255 23.8153C112.043 23.6693 111.886 23.458 111.812 23.2156C111.727 22.9077 111.699 22.588 111.726 22.2706V19.9366H117.542Z" fill="#1C1E26"/>
<path d="M130.417 26.3276V15.2149C130.454 14.7488 130.414 14.28 130.3 13.8258C129.959 12.4934 128.698 11.8256 127.352 11.8256C126.007 11.8256 125.318 12.2967 124.429 13.1313L124.457 12.1029H120.977V26.3276H124.387V16.0764C124.387 15.7991 124.242 14.1597 125.846 14.1597C126.078 14.144 126.31 14.2027 126.504 14.3266C126.962 14.6038 127.021 14.9645 127.021 15.8528V26.3276H130.417Z" fill="#1C1E26"/>
</g>
</g>
<defs>
<clipPath id="clip0_491_352">
<rect width="130" height="37.2667" fill="white" transform="translate(0.401367 0.078064)"/>
</clipPath>
</defs>
</svg>
