<svg class="is-bigger" xmlns="http://www.w3.org/2000/svg" width="239" height="53.55" viewBox="0 0 486.8 109.1" xml:space="preserve"><g fill="currentColor"><path d="m15.4 88.4 11.5 15.2c1.8 2.5.4 3.7-2.3 3.8v.9H45v-.9c-2.6-.1-5.1-2.3-8.2-6.4L23.4 83l6.5-6.9c5-5.3 7.9-7 11.5-7.4v-.9H26.6v.9c4.8.3 4.6 2.6.1 7.6L15.4 88.4V76c0-5.8.7-6.6 5.6-7.3v-.9H0v.9c4.9.7 5.5 1.5 5.5 7.3v24.2c0 5.8-.7 6.6-5.5 7.3v.9h21v-.9c-4.9-.7-5.6-1.5-5.6-7.3V88.4zM68.9 76c0-5.8.7-6.6 5.6-7.3v-.9h-21v.9c4.9.7 5.5 1.5 5.5 7.3v24.2c0 5.8-.7 6.6-5.5 7.3v.9h21v-.9c-4.9-.7-5.6-1.5-5.6-7.3V76zm31.7 12.7h1.8c1.7 2.5 3.5 4.9 6 8.9l1.4 2.2c2.2 3.7 3.6 6 4.9 8.5h14.8v-.9c-3.6-.6-4.4-1.2-7-5.1L113 87.8c6.2-1.2 10.2-4.1 10.2-9.7 0-8.1-8.3-10.5-19.8-10.5-.4 0-8.7.1-9.2.1h-9v.9c4.9.7 5.5 1.5 5.5 7.3v24.2c0 5.8-.7 6.6-5.5 7.3v.9h21.7v-.9c-5.6-.7-6.3-1.5-6.3-7.3V88.7zm0-1.9V69.7h2.1c5.7 0 9.7 2.4 9.7 8.6 0 6.2-4 8.6-9.7 8.6h-2.1v-.1zM148 76v20.2c0 10.1-1.2 10.7-2.9 10.7-2.9 0-5.7-6.3-7.1-9.3h-.6v10.7c1.5.4 4.5.8 6.6.8 6.6 0 13.9-2.5 13.9-13.6V76c0-5.8.7-6.6 5.5-7.3v-.9h-20.9v.9c4.9.7 5.5 1.5 5.5 7.3zm20.5 32.4h13.7v-.9c-3.5-.4-7.3-1.1-3.2-11.5l.4-1h14.4l3.1 7.9c1.1 2.7.5 4.2-2.7 4.6v.9h18.4v-.9c-3.1-.6-3.8-1.9-5.4-5.9L193 65.4h-.3c-1.2 1.5-3.6 2.5-5.6 2.9l-11.5 29.5c-3.2 8.2-3.9 9-7.1 9.6v1zm18.1-31.9 6.2 15.8h-12.4l6.2-15.8zm49 32.6c9 0 16.3-5.6 16.3-12.7 0-6.2-4.3-9.7-11.4-13.3l-6.2-3.1c-3.1-1.6-4.6-3.3-4.6-6 0-3.5 3-5.5 6.8-5.5 7 0 9.5 6.7 11.2 11.8h1.2V68.6c-2.5-1.3-7.8-2.3-12-2.3-8.4 0-14.8 4.9-14.8 11.6 0 5.4 4 9.4 10.1 12.4l5.2 2.6c4 2 6.6 4 6.6 7.6 0 3.9-3.2 6.4-8.2 6.4-8.6 0-10.9-7.8-12.6-14.3h-1.1v13.5c3.5 1.7 7.9 3 13.5 3zm24.2-.7h13.7v-.9c-3.5-.4-7.3-1.1-3.2-11.5l.4-1H285l3.1 7.9c1.1 2.7.5 4.2-2.7 4.6v.9h18.4v-.9c-3.1-.6-3.8-1.9-5.4-5.9l-14.2-36.2h-.2c-1.2 1.5-3.6 2.5-5.6 2.9l-11.5 29.5c-3.2 8.2-3.9 9-7.1 9.6v1zm18.1-31.9 6.2 15.8h-12.4l6.2-15.8zm6.1-16.2c0 2 1.7 3.6 3.7 3.6s3.7-1.6 3.7-3.6-1.7-3.7-3.7-3.7-3.7 1.7-3.7 3.7zm-12.4 0c0 2 1.6 3.6 3.6 3.6 2.1 0 3.8-1.6 3.8-3.6s-1.7-3.7-3.8-3.7c-2 0-3.6 1.7-3.6 3.7zm37.3 48.1h13.7v-.9c-3.5-.4-7.3-1.1-3.2-11.5l.4-1h14.4l3.1 7.9c1.1 2.7.5 4.2-2.7 4.6v.9H353v-.9c-3.1-.6-3.8-1.9-5.4-5.9l-14.2-36.2h-.3c-1.2 1.5-3.6 2.5-5.6 2.9L316 97.8c-3.2 8.2-3.9 9-7.1 9.6v1zM327 76.5l6.2 15.8h-12.4l6.2-15.8zm6.1-16.2c0 2 1.7 3.6 3.7 3.6s3.7-1.6 3.7-3.6-1.7-3.7-3.7-3.7-3.7 1.7-3.7 3.7zm-12.4 0c0 2 1.6 3.6 3.6 3.6 2.1 0 3.8-1.6 3.8-3.6s-1.7-3.7-3.8-3.7c-2 0-3.6 1.7-3.6 3.7zm46.1 48.1h22.1v-.9c-5.5-.7-6.2-1.5-6.2-7.3V69.9h1.9c8.6 0 10.8 5.9 13.2 14.5h1.2l-1-16.7c-4.5.1-12.1.1-16.6.1h-7.3c-4.5 0-12.1 0-16.7-.1l-1 16.7h1.2c2.3-8.6 4.6-14.5 13.2-14.5h1.9v30.3c0 5.8-.7 6.6-6.2 7.3v.9h.3zM424.9 76c0-5.8.7-6.6 5.6-7.3v-.9h-21v.9c4.9.7 5.5 1.5 5.5 7.3v24.2c0 5.8-.7 6.6-5.5 7.3v.9h21v-.9c-4.9-.7-5.6-1.5-5.6-7.3V76zm61.9 11.9c0-13.8-10.9-21.2-22.4-21.2-11.5 0-22.4 7.4-22.4 21.2 0 13.8 10.9 21.2 22.4 21.2 11.5 0 22.4-7.4 22.4-21.2zm-33.9 0c0-11.5 3.9-19 11.5-19 7.7 0 11.5 7.5 11.5 19s-3.9 19-11.5 19c-7.7 0-11.5-7.5-11.5-19zm14-27.6c0 2 1.7 3.6 3.7 3.6s3.7-1.6 3.7-3.6-1.7-3.7-3.7-3.7c-2.1 0-3.7 1.7-3.7 3.7zm-12.5 0c0 2 1.6 3.6 3.6 3.6 2.1 0 3.8-1.6 3.8-3.6s-1.7-3.7-3.8-3.7c-1.9 0-3.6 1.7-3.6 3.7zM17.7 42.7c9 0 16.3-5.6 16.3-12.7 0-6.2-4.3-9.7-11.4-13.3l-6.2-3.1c-3.1-1.6-4.6-3.3-4.6-6 0-3.5 3-5.5 6.8-5.5 7 0 9.5 6.7 11.2 11.8H31V2.3C28.5 1 23.2 0 19 0 10.5 0 4.2 4.9 4.2 11.6c0 5.4 4 9.4 10.1 12.4l5.2 2.6c4 2 6.6 4 6.6 7.6 0 3.9-3.2 6.4-8.2 6.4C9.3 40.5 7 32.8 5.3 26.3h-1v13.5c3.4 1.6 7.8 2.9 13.4 2.9zM48.8 9.6v16.8c0 12 7.2 16.3 18 16.3 9.3 0 15.6-4.6 15.6-17.4V9.6c0-5.8.7-6.6 5.5-7.3v-.8h-14v.9c4.9.7 5.5 1.5 5.5 7.3v15.9c0 8.7-2.7 14-10.4 14-7.9 0-10.3-5.4-10.3-14.2V9.6c0-5.8.7-6.6 5.6-7.3v-.8h-21v.9c4.9.6 5.5 1.5 5.5 7.2zM140 21.5C140 7.7 129.1.3 117.6.3c-11.5 0-22.4 7.4-22.4 21.2 0 13.8 10.9 21.2 22.4 21.2 11.5 0 22.4-7.4 22.4-21.2zm-34 0c0-11.5 3.9-19 11.5-19S129 10 129 21.5s-3.9 19-11.5 19S106 33 106 21.5zm95.8-20h-16.2l-9.4 25.2-9.7-25.2h-17.3v.9c4.9.7 5.5 1.5 5.5 7.3v24.2c0 5.8-.7 6.6-5.5 7.3v.8H163v-.9c-4.9-.7-5.6-1.5-5.6-7.3V6L171 40.4h2.8l12.6-33.6v27c0 5.8-.7 6.6-5.5 7.3v.9h20.9v-.9c-4.9-.7-5.5-1.5-5.5-7.3V9.6c0-5.8.7-6.6 5.5-7.3v-.8zM234 19.9h-6V3.5h2.2c11.8 0 14.8 4.1 17.1 12.8h1.2l-1-14.9c-4.6.1-9.9.1-14.4.1h-20.6v.9c4.9.7 5.5 1.5 5.5 7.3v24.2c0 5.8-.7 6.6-5.5 7.3v.8h21c4.8 0 10.3 0 15.3.1l1-14.9h-1.2c-2.4 8.6-5.4 12.8-15 12.8h-2.3c-2.7 0-3.4-.4-3.4-2.1V22.3h6c3.2 0 5.2 1.6 5.8 6.3h1v-15h-1c-.5 4.7-2.5 6.3-5.7 6.3zm63-10.3v23L276.2 1.5h-13.1v.7c1.3.4 2.3.9 4.3 3.9l.1.2v27.6c0 5.8-.7 6.6-5.5 7.3v.8h13.8v-.9c-4.9-.7-5.6-1.5-5.6-7.3V10.2L291.4 42h8.3V9.6c0-5.8.7-6.6 5.5-7.3v-.8h-13.8v.9c4.9.6 5.6 1.5 5.6 7.2z"></path></g></svg>
