<svg width="259" height="81" viewBox="0 0 259 81" fill="none" xmlns="http://www.w3.org/2000/svg"><g clip-path="url(#suomenuusiutuvat)"><path d="M227.37 48.23v6.294h4.128v3.302h-4.128v12.433h-3.438V57.826h-2.656v-3.302h1.873c.499 0 .783-.285.783-.787v-5.508h3.438Zm-12.23 12.562c.499 0 .659-.285.659-.632 0-2.05-1.591-2.805-3.855-2.805-1.411 0-2.883.254-2.883 1.734 0 1.222.901 1.703 1.967 1.703h4.112Zm.659 3.877v-1.102h-5.008c-1.529 0-2.625.408-2.625 1.702s.844 2.293 3.314 2.293c2.101 0 4.319-1.071 4.319-2.898v.005Zm-11.082.632c0-2.49 1.318-3.774 3.567-4.224.221-.031.314-.093.314-.223s-.093-.191-.283-.254c-1.189-.377-1.935-1.102-1.935-2.49 0-2.577 2.789-3.933 5.759-3.933 4.319 0 7.109 2.174 7.109 5.699V70.27h-3.449v-1.703c-.87.978-2.656 2.018-4.756 2.018-4.159 0-6.316-2.174-6.316-5.29l-.01.01V65.3Zm.18-10.767-6.135 15.736h-4.005l-6.315-15.736h3.69l4.2 11.419c.155.502.721.528.901 0l4.035-11.419h3.629Zm-18.576 0V70.27h-3.438v-1.796c-.659.755-2.311 2.111-4.916 2.111-3.407 0-6.284-1.884-6.284-5.885V54.534h3.448v9.353c0 2.05 1.41 3.562 3.722 3.562 2.475 0 4.035-1.672 4.035-3.562v-9.353h3.438-.005Zm-20.887-6.294v6.294h4.128v3.302h-4.128V70.27h-3.438V57.836h-2.656v-3.302h1.873c.499 0 .783-.285.783-.787V48.24h3.438Zm-8.287 6.294V70.27h-3.438v-1.796c-.659.755-2.311 2.111-4.916 2.111-3.407 0-6.285-1.884-6.285-5.885V54.534h3.449v9.353c0 2.05 1.41 3.562 3.721 3.562 2.476 0 4.036-1.672 4.036-3.562v-9.353h3.438-.005Zm-18.628 0V70.27h-3.448V54.534h3.448Zm-3.567-2.52V48.24h3.753v3.773h-3.753Zm-13.496 7.013c0 .978 1.097 1.537 3.063 1.765 2.218.285 3.001-.663 3.001-1.672 0-1.294-1.38-1.977-3.104-1.977-1.976 0-2.97.755-2.97 1.884h.01Zm9.106-.632c0 1.388-1.184 2.143-2.656 2.521-.314.062-.314.44.031.502 2.476.471 4.035 1.765 4.035 3.996 0 2.837-2.28 5.161-7.17 5.161-5.353 0-7.077-2.743-7.077-5.16h3.438c.062 1.252 1.41 2.08 3.567 2.08s3.691-.662 3.691-1.858c0-1.196-1.318-1.45-3.166-1.765l-1.904-.347c-3.794-.631-5.446-1.977-5.446-4.343 0-2.774 2.249-5.005 6.388-5.005 3.721 0 6.258 1.672 6.258 4.224h.011v-.006Zm-15.74-3.877v15.736h-3.439v-1.796c-.658.756-2.311 2.112-4.915 2.112-3.408 0-6.285-1.884-6.285-5.885V54.517h3.449v9.354c0 2.05 1.41 3.561 3.721 3.561 2.476 0 4.036-1.672 4.036-3.561v-9.354h3.438-.005Zm-18.448 0v15.736h-3.438v-1.796c-.659.756-2.311 2.112-4.916 2.112-3.407 0-6.284-1.884-6.284-5.885V54.517h3.448v9.354c0 2.05 1.41 3.561 3.722 3.561 2.475 0 4.035-1.672 4.035-3.561v-9.354h3.438-.005Zm104.102-21.025v9.503h-3.449v-8.872c0-2.205-1.441-4.027-4.411-4.027-2.79 0-4.473 2.143-4.473 4.027v8.872h-3.448V27.26h3.448v.663c0 .663.345.756.813.409.942-.694 2.476-1.387 4.545-1.387 4.159 0 6.975 2.552 6.975 6.548Zm-32.35.222h9.013c.535 0 .72-.316.627-.818-.313-1.796-2.444-2.955-4.694-2.955-2.563 0-4.632 1.19-4.946 3.773Zm13.336.85v1.102c0 .502-.283.786-.782.786h-12.585c.314 2.61 2.507 3.877 5.291 3.877 1.905 0 3.511-.786 4.097-2.111h3.856c-.844 3.27-4.2 5.098-7.953 5.098-6.825 0-8.822-4.255-8.822-8.22 0-3.965 2.131-8.147 8.519-8.147 5.322 0 8.384 3.364 8.384 7.62h-.01l.005-.006Zm-19.986-1.673v10.104h-3.439v-9.669c0-2.49-1.348-3.24-2.759-3.24-1.317 0-2.686.786-2.686 3.24v9.67h-3.449v-9.67c0-2.49-1.379-3.24-2.79-3.24-1.41 0-2.687.916-2.687 3.24v9.67h-3.448V27.26h3.448v.632c0 .528.314.694.721.347.659-.6 1.817-1.294 3.222-1.294 1.56 0 3.135.528 4.169 2.018.87-1.19 2.281-2.018 4.381-2.018 2.445 0 5.322 1.356 5.322 5.947h-.01.005Zm-38.604 2.205c0 2.956 1.621 4.876 5.384 4.876 3.762 0 5.384-1.977 5.384-4.876 0-2.898-1.663-4.845-5.384-4.845-3.722 0-5.384 2.112-5.384 4.845Zm14.206 0c0 4.058-2.249 8.22-8.822 8.22-6.573 0-8.822-4.255-8.822-8.22 0-3.965 2.414-8.147 8.822-8.147 6.408 0 8.822 4.193 8.822 8.147Zm-20.758-7.842v15.736h-3.439v-1.796c-.659.755-2.311 2.112-4.915 2.112-3.408 0-6.285-1.884-6.285-5.886V27.255h3.449v9.354c0 2.05 1.41 3.56 3.721 3.56 2.476 0 4.035-1.671 4.035-3.56v-9.354h3.439-.005Zm-35.562 8.841h3.69c.031 2.397 2.07 3.877 5.225 3.877s5.384-.916 5.384-2.986c0-1.735-1.215-2.744-3.51-3.122l-3.722-.662c-4.319-.725-6.419-2.806-6.419-6.046 0-3.561 2.383-6.517 8.174-6.517 4.787 0 8.04 2.552 8.04 6.579h-3.69c0-2.143-1.694-3.24-4.412-3.24s-4.41 1.164-4.41 3.183c0 1.703 1.245 2.397 3.566 2.806l3.598.631c4.2.756 6.48 2.987 6.48 6.351 0 3.562-2.851 6.351-9.012 6.351-6.162 0-8.982-3.017-8.982-7.21v.01-.005ZM53.43 17.027c-5.414 8.127-7.411 16.326-4.472 18.303 2.938 1.977 9.712-3.007 15.117-11.134C69.49 16.07 71.488 7.87 68.549 5.893 65.609 3.916 58.836 8.9 53.43 17.027Zm-19.816-.528c0 8.893 2.872 16.103 6.408 16.103 3.536 0 6.408-7.21 6.408-16.103S43.564.391 40.028.391c-3.536 0-6.408 7.21-6.408 16.103l-.005.005ZM17.37 27.266c4.545 6.579 10.588 10.259 13.486 8.23 2.898-2.03 1.58-9.007-2.96-15.58-4.545-6.58-10.588-10.26-13.485-8.23-2.898 2.028-1.58 9.006 2.96 15.58Zm-6.712 17.966c6.681 2.355 13.043 1.538 14.207-1.827 1.168-3.364-3.295-7.987-9.98-10.342C8.202 30.708 1.84 31.526.677 34.89c-1.168 3.365 3.294 7.987 9.98 10.342Zm4.916 17.263c5.95-1.713 9.99-5.885 9.013-9.302-.978-3.416-6.594-4.803-12.544-3.09s-9.99 5.886-9.013 9.302c.973 3.416 6.594 4.803 12.544 3.09Zm13.902 10.648c3.233-4.235 3.567-9.421.773-11.585-2.795-2.164-7.695-.492-10.933 3.742-3.232 4.235-3.567 9.421-.772 11.585 2.8 2.164 7.695.492 10.932-3.743Zm16.955-.192c0-4.446-2.872-8.054-6.408-8.054-3.536 0-6.408 3.608-6.408 8.054s2.872 8.054 6.408 8.054c3.536 0 6.408-3.608 6.408-8.054Zm12.189-1.998a6.375 6.375 0 0 1-9.023-.776c-2.28-2.723-1.936-6.781.772-9.074a6.375 6.375 0 0 1 9.023.776c2.28 2.723 1.935 6.78-.772 9.074Z" fill="currentColor"></path></g><defs><path fill="currentColor" d="M.5.39h231V81H.5z"></path></defs></svg>