<svg width="100" height="25" viewBox="0 0 100 25" fill="none" xmlns="http://www.w3.org/2000/svg">
<g clip-path="url(#clip0_491_342)">
<path d="M52.0533 9.66459H50.3703C50.2445 9.66459 50.1736 9.73544 50.1736 9.85957V15.8573C50.1736 16.105 50.0297 16.2473 49.7797 16.2473H48.6698C48.4187 16.2473 48.2753 16.105 48.2753 15.8573V9.85957C48.2753 9.73544 48.2038 9.66514 48.0786 9.66514H46.3951C46.1445 9.66514 46.0016 9.52343 46.0016 9.27627V8.46175C46.0011 8.21404 46.144 8.07178 46.3951 8.07178H52.0544C52.3049 8.07178 52.4484 8.21349 52.4484 8.46175V9.27572C52.4478 9.52288 52.3044 9.66459 52.0533 9.66459ZM63.9099 16.2467H62.7819C62.5308 16.2467 62.3885 16.105 62.3885 15.8567V13.1506C62.3885 13.027 62.3159 12.9562 62.1912 12.9562H59.9703C59.8451 12.9562 59.7736 13.027 59.7736 13.1506V15.8578C59.7736 16.1056 59.6302 16.2478 59.3791 16.2478H58.2511C58 16.2478 57.8566 16.1056 57.8566 15.8578V10.8328C57.8566 9.27627 59.1462 7.89603 61.0808 7.89603C63.0148 7.89603 64.3044 9.27627 64.3044 10.8328V15.8573C64.3044 16.105 64.161 16.2473 63.9099 16.2473V16.2467ZM62.3879 10.8504C62.3879 10.2309 61.922 9.57616 61.0802 9.57616C60.2379 9.57616 59.7725 10.2309 59.7725 10.8504V11.169C59.7725 11.2931 59.844 11.3634 59.9698 11.3634H62.1907C62.3159 11.3634 62.3874 11.2931 62.3874 11.169L62.3879 10.8504ZM75.7659 16.2467H74.6379C74.3868 16.2467 74.244 16.105 74.244 15.8567V13.1506C74.244 13.027 74.172 12.9562 74.0473 12.9562H71.8269C71.7017 12.9562 71.6302 13.027 71.6302 13.1506V15.8578C71.6302 16.1056 71.4868 16.2478 71.2363 16.2478H70.1082C69.8571 16.2478 69.7137 16.1056 69.7137 15.8578V8.46175C69.7137 8.21349 69.8571 8.07178 70.1082 8.07178H71.2363C71.4874 8.07178 71.6302 8.21349 71.6302 8.46175V11.1684C71.6302 11.2925 71.7017 11.3628 71.8269 11.3628H74.0473C74.1725 11.3628 74.244 11.2925 74.244 11.1684V8.4623C74.244 8.21404 74.3874 8.07233 74.6379 8.07233H75.7659C76.0165 8.07233 76.1604 8.21404 76.1604 8.4623V15.8573C76.1604 16.105 76.0165 16.2473 75.7659 16.2473V16.2467ZM87.622 9.66459H85.939C85.8137 9.66459 85.7423 9.73544 85.7423 9.85957V15.8573C85.7423 16.105 85.5989 16.2473 85.3478 16.2473H84.2379C83.9868 16.2473 83.8434 16.105 83.8434 15.8573V9.85957C83.8434 9.73544 83.772 9.66514 83.6467 9.66514H81.9632C81.7126 9.66514 81.5692 9.52343 81.5692 9.27627V8.46175C81.5692 8.21349 81.7121 8.07178 81.9632 8.07178H87.6225C87.8731 8.07178 88.0165 8.21349 88.0165 8.46175V9.27572C88.0165 9.52288 87.8731 9.66459 87.622 9.66459ZM96.6489 16.4236C94.7148 16.4236 93.4247 15.0433 93.4247 13.4686V10.8504C93.4247 9.27627 94.7148 7.89548 96.6489 7.89548C98.583 7.89548 99.8725 9.27627 99.8725 10.8504V13.4686C99.8725 15.0433 98.583 16.4236 96.6489 16.4236ZM97.9566 10.8504C97.9566 10.2309 97.4907 9.57616 96.6495 9.57616C95.8077 9.57616 95.3418 10.2309 95.3418 10.8504V13.4686C95.3418 14.0876 95.8077 14.7429 96.6495 14.7429C97.4912 14.7429 97.9566 14.0882 97.9566 13.4686V10.8504Z" fill="#1C1E26"/>
<path d="M12.128 0.17807H24.256V12.1592H12.128V0.17807Z" fill="#1C1E26"/>
<path d="M12.128 0.17807H0V12.1598L12.128 0.17807Z" fill="#1C1E26"/>
<path d="M34.8692 0.17807H36.3857V12.1592H34.8692V0.17807ZM31.8374 0.17807H33.3538V12.1592H31.8374V0.17807ZM28.8044 0.17807H30.3209V12.1592H28.8044V0.17807ZM25.7725 0.17807H27.289V12.1592H25.7725V0.17807Z" fill="#1C1E26"/>
<path d="M12.1286 12.1598V16.6251C12.1286 19.9338 9.41317 22.6163 6.06372 22.6163V24.1415H24.2566V12.1598H12.128H12.1286Z" fill="#1C1E26"/>
</g>
<defs>
<clipPath id="clip0_491_342">
<rect width="99.8725" height="23.9634" fill="white" transform="translate(0 0.17807)"/>
</clipPath>
</defs>
</svg>
