<svg xmlns="http://www.w3.org/2000/svg" xmlns:v="https://svgstorm.com" viewBox="0 0 360 359" width="360" height="359">
<g fill="None" fill-opacity="0.0" stroke="#000000" stroke-opacity="0.01" stroke-width="0.3"><path d=" M 0.00 359.00  L 171.00 359.00 C 171.00 358.50 171.00 358.00 171.00 358.00 C 136.15 356.96 114.65 346.30 89.23 333.43 C 63.82 320.56 33.76 286.40 21.07 260.93 C 8.39 235.45 0.43 206.11 1.66 172.32 C 2.90 138.54 11.38 117.17 24.57 91.23 C 37.77 65.29 68.26 36.12 92.25 23.81 C 116.25 11.51 138.08 2.26 171.00 1.00 C 170.98 1.00 171.00 0.00 171.00 0.00 L 0.00 0.00 L 0.00 359.00 Z"/>
</g>
<g fill="None" fill-opacity="0.0" stroke="#000000" stroke-opacity="0.42" stroke-width="0.3"><path d=" M 171.00 1.00  C 177.61 0.75 184.39 0.80 191.00 1.00 C 190.89 0.98 191.00 0.00 191.00 0.00 L 171.00 0.00 C 171.00 0.00 170.98 1.00 171.00 1.00 Z"/>
</g>
<g fill="None" fill-opacity="0.0" stroke="#000000" stroke-opacity="0.01" stroke-width="0.3"><path d=" M 191.00 1.00  C 222.59 1.95 246.01 12.34 269.30 24.71 C 292.59 37.09 321.77 64.48 334.57 88.77 C 347.37 113.06 356.07 134.28 358.35 167.70 C 360.64 201.12 352.75 234.34 339.87 259.92 C 326.99 285.49 296.83 320.22 271.70 333.70 C 246.58 347.19 223.14 356.39 190.00 358.00 C 189.90 358.02 190.00 359.00 190.00 359.00 L 360.00 359.00 L 360.00 0.00 L 191.00 0.00 C 191.00 0.00 190.89 0.98 191.00 1.00 Z"/>
</g>
<g fill="None" fill-opacity="0.0" stroke="#000000" stroke-opacity="0.84" stroke-width="0.3"><path d=" M 171.00 358.00  C 177.27 358.19 183.74 358.31 190.00 358.00 C 223.14 356.39 246.58 347.19 271.70 333.70 C 296.83 320.22 326.99 285.49 339.87 259.92 C 352.75 234.34 360.64 201.12 358.35 167.70 C 356.07 134.28 347.37 113.06 334.57 88.77 C 321.77 64.48 292.59 37.09 269.30 24.71 C 246.01 12.34 222.59 1.95 191.00 1.00 C 184.39 0.80 177.61 0.75 171.00 1.00 C 138.08 2.26 116.25 11.51 92.25 23.81 C 68.26 36.12 37.77 65.29 24.57 91.23 C 11.38 117.17 2.90 138.54 1.66 172.32 C 0.43 206.11 8.39 235.45 21.07 260.93 C 33.76 286.40 63.82 320.56 89.23 333.43 C 114.65 346.30 136.15 356.96 171.00 358.00 M 162.00 4.00  C 186.22 0.00 210.36 6.83 229.70 11.31 C 249.03 15.79 267.33 26.74 284.70 38.30 C 302.08 49.85 322.47 75.69 331.39 91.75 C 340.32 107.82 348.48 124.08 352.59 145.75 C 356.70 167.43 356.74 196.18 351.61 216.75 C 346.47 237.32 340.66 253.92 330.81 270.25 C 320.96 286.59 302.01 308.48 284.10 321.10 C 266.19 333.72 248.93 341.97 229.08 348.13 C 209.24 354.29 181.04 356.35 158.25 353.61 C 135.45 350.86 117.30 344.73 99.92 336.08 C 82.55 327.43 61.60 311.59 46.30 293.70 C 30.99 275.81 24.48 262.03 16.81 242.75 C 9.13 223.48 3.85 202.75 4.00 178.00 C 4.15 153.25 10.15 132.16 17.71 113.70 C 25.28 95.23 33.18 79.13 50.32 60.32 C 67.46 41.51 86.53 30.24 105.08 21.07 C 123.63 11.89 140.35 7.57 162.00 4.00 Z"/>
</g>
<g fill="None" fill-opacity="0.0" stroke="#000000" stroke-opacity="0.17" stroke-width="0.3">
</g>
<g fill="None" fill-opacity="0.0" stroke="#000000" stroke-opacity="0.98" stroke-width="0.3"><path d=" M 164.00 7.00  C 132.02 12.28 110.21 19.81 86.77 34.43 C 63.33 49.05 36.68 79.67 26.19 101.75 C 15.70 123.82 5.55 158.16 8.80 191.75 C 12.06 225.34 19.43 246.42 34.29 271.70 C 49.14 296.98 84.69 325.91 108.25 336.61 C 131.80 347.31 166.10 354.03 198.75 350.80 C 231.40 347.57 248.23 338.97 274.08 324.13 C 299.94 309.29 323.71 279.28 334.87 255.92 C 346.03 232.56 355.07 203.68 352.79 169.23 C 350.50 134.78 342.56 117.40 327.32 89.68 C 312.08 61.96 277.83 33.07 253.77 23.58 C 229.71 14.09 196.00 1.72 164.00 7.00 M 173.00 26.00  C 170.53 31.52 174.77 36.21 174.00 42.00 C 177.57 40.24 184.43 40.28 183.00 46.00 C 177.58 44.65 168.29 49.73 168.33 42.33 C 168.37 34.92 169.49 31.53 168.00 24.00 C 170.82 23.68 172.67 23.91 173.00 26.00 M 160.00 30.00  C 155.48 31.04 149.26 29.29 149.00 35.00 C 153.74 37.01 155.70 33.15 161.00 35.00 C 160.79 40.66 154.04 38.22 150.00 40.00 C 150.59 49.74 161.31 38.15 163.00 47.00 C 156.22 47.69 152.90 48.09 147.00 50.00 C 147.15 42.87 145.22 35.83 143.00 28.00 C 148.69 27.85 153.36 27.56 158.00 25.00 C 158.73 26.92 158.90 27.78 160.00 30.00 M 206.00 26.00  C 207.19 33.38 199.41 30.17 195.00 29.00 C 191.92 36.38 199.57 34.72 204.00 34.00 C 204.70 35.93 205.17 37.91 204.00 40.00 C 200.39 36.99 197.08 39.84 193.00 38.00 C 192.26 44.30 199.58 44.16 204.00 43.00 C 204.72 52.47 193.79 44.11 188.00 47.00 C 188.46 39.47 190.68 32.94 190.00 25.00 C 195.61 24.97 200.55 27.39 206.00 26.00 M 220.00 30.00  C 217.22 35.82 215.70 43.29 215.00 51.00 C 212.30 50.65 212.04 48.92 209.00 50.00 C 212.32 42.69 213.04 35.58 215.00 28.00 C 216.05 30.61 218.00 28.37 220.00 30.00 M 136.00 34.00  C 132.83 38.15 125.48 34.98 126.00 42.00 C 130.45 43.26 133.10 39.50 138.00 39.00 C 136.20 41.70 139.50 41.65 138.00 44.00 C 134.68 42.14 133.44 46.59 130.00 45.00 C 128.70 47.06 129.42 48.95 130.00 51.00 C 134.46 49.68 136.73 48.03 141.00 47.00 C 139.20 49.70 142.50 49.65 141.00 52.00 C 136.13 52.00 132.66 54.84 127.00 56.00 C 125.19 48.62 121.35 43.62 121.00 35.00 C 126.69 36.35 130.82 28.53 136.00 34.00 M 224.00 54.00  C 222.59 51.80 222.91 50.70 222.00 48.00 C 225.83 44.39 227.17 38.01 229.00 32.00 C 235.48 34.16 246.88 38.44 244.80 48.25 C 242.72 58.05 229.67 55.67 224.00 54.00 M 114.00 42.00  C 113.22 44.79 110.39 45.18 108.00 46.00 C 112.01 52.54 113.18 56.13 117.00 62.00 C 109.74 66.30 108.05 54.52 106.00 50.00 C 102.46 48.62 100.95 51.18 98.00 52.00 C 98.45 44.47 107.53 40.19 114.00 42.00 M 260.00 46.00  C 256.13 53.17 252.04 57.04 250.00 65.00 C 247.19 65.83 246.37 62.71 245.00 61.00 C 248.55 57.20 252.47 50.68 254.00 45.00 C 256.62 42.30 257.02 47.12 260.00 46.00 M 172.00 62.00  C 202.14 58.84 222.42 69.41 244.03 80.97 C 265.65 92.52 282.45 120.18 289.35 138.70 C 296.25 157.21 301.10 190.28 293.60 210.75 C 286.11 231.22 274.74 256.58 252.10 272.10 C 229.46 287.62 216.47 294.34 188.70 296.71 C 160.94 299.08 138.61 290.00 118.25 278.74 C 97.89 267.47 80.01 240.66 71.81 221.75 C 63.61 202.83 61.74 166.38 68.92 145.92 C 76.10 125.46 87.23 102.46 109.10 87.09 C 130.97 71.73 143.79 64.95 172.00 62.00 M 83.00 289.00  C 86.54 288.22 86.59 285.51 90.00 285.00 C 92.12 288.23 89.37 289.86 88.00 292.00 C 92.11 293.86 92.88 287.79 97.00 290.00 C 96.58 295.11 89.93 294.25 88.00 299.00 C 86.16 298.19 84.72 298.74 83.00 297.00 C 84.66 295.26 84.99 294.44 86.00 292.00 C 82.22 291.11 81.38 295.21 78.00 293.00 C 79.54 287.71 80.74 284.96 83.00 280.00 C 87.98 281.92 83.43 285.15 83.00 289.00 M 271.00 285.00  C 271.89 289.35 283.53 295.28 275.00 297.00 C 275.32 291.69 264.79 289.25 271.00 285.00 M 265.00 290.00  C 268.00 294.62 261.85 294.20 260.00 297.00 C 264.15 300.40 265.17 292.92 269.00 296.00 C 268.22 298.12 265.84 299.46 263.00 300.00 C 264.17 301.89 268.62 306.52 263.00 307.00 C 261.77 302.16 259.09 300.00 256.00 296.00 C 259.20 294.45 262.19 292.42 265.00 290.00 M 100.00 303.00  C 103.78 302.40 105.23 297.55 109.00 298.00 C 108.70 300.44 106.49 301.40 108.00 304.00 C 109.88 301.78 114.83 299.05 115.00 304.00 C 110.91 306.35 108.34 310.41 104.00 312.00 C 102.46 308.84 103.85 306.61 105.00 304.00 C 101.89 303.66 101.12 308.38 98.00 308.00 C 94.74 302.82 100.15 298.14 99.00 293.00 C 105.67 294.62 100.40 299.29 100.00 303.00 M 248.00 316.00  C 242.68 314.64 243.91 308.67 240.00 304.00 C 246.20 303.14 247.32 311.57 248.00 316.00 M 119.00 313.00  C 122.40 312.70 123.16 308.95 125.00 307.00 C 129.98 307.52 125.41 312.25 126.00 316.00 C 129.10 314.74 130.39 309.79 135.00 310.00 C 131.01 313.87 129.54 322.30 123.00 321.00 C 122.89 317.67 124.00 316.02 125.00 313.00 C 123.40 313.70 119.18 315.53 121.00 318.00 C 118.59 320.72 118.22 316.01 116.00 318.00 C 116.26 312.91 118.49 309.48 117.00 304.00 C 122.49 303.58 120.79 309.88 119.00 313.00 M 258.00 310.00  C 256.18 310.75 252.87 310.98 253.00 308.00 C 254.76 307.06 258.24 306.73 258.00 310.00 M 239.00 311.00  C 238.37 313.16 238.40 315.77 239.00 318.00 C 234.84 320.00 233.85 321.78 229.00 323.00 C 228.21 317.82 225.77 315.37 225.00 310.00 C 229.03 310.06 233.88 306.58 239.00 311.00 M 220.00 312.00  C 217.76 316.48 227.18 324.46 219.00 326.00 C 221.28 321.20 211.91 313.63 220.00 312.00 M 154.00 319.00  C 151.58 318.96 151.28 316.88 149.00 318.00 C 150.12 321.59 147.81 324.10 148.00 328.00 C 141.08 326.78 147.45 321.33 147.00 317.00 C 145.22 315.77 142.15 318.06 143.00 314.00 C 147.05 314.92 154.09 313.20 154.00 319.00 M 212.00 314.00  C 210.42 319.59 213.63 321.90 213.00 328.00 C 209.91 325.78 207.73 329.83 204.00 329.00 C 204.25 323.56 201.32 320.01 203.00 315.00 C 206.15 316.74 208.89 314.58 212.00 314.00 M 168.00 317.00  C 167.48 320.60 167.89 322.95 167.00 326.00 C 165.01 324.06 163.50 324.66 161.00 324.00 C 160.96 327.85 163.52 328.15 167.00 327.00 C 167.40 334.55 161.25 326.88 157.00 330.00 C 157.24 325.06 159.09 321.47 158.00 316.00 C 161.84 316.21 164.03 318.58 168.00 317.00 M 192.00 318.00  C 190.46 322.21 191.68 330.67 198.00 327.00 C 198.42 332.92 192.25 329.52 189.00 331.00 C 190.77 326.92 184.43 316.87 192.00 318.00 M 183.00 318.00  C 184.34 323.17 177.49 319.33 176.00 322.00 C 177.79 323.13 180.88 324.49 183.00 323.00 C 184.23 329.44 174.28 321.96 176.00 329.00 C 178.54 329.11 183.81 325.88 183.00 331.00 C 179.97 329.00 176.12 330.19 173.00 331.00 C 173.00 326.67 173.00 322.33 173.00 318.00 C 176.33 318.00 179.67 318.00 183.00 318.00 M 135.00 325.00  C 134.12 323.28 134.25 321.80 135.00 320.00 C 138.79 319.29 138.82 325.70 135.00 325.00 Z"/>
</g>
<g fill="None" fill-opacity="0.0" stroke="#000000" stroke-opacity="0.18" stroke-width="0.3"><path d=" M 173.00 26.00  C 172.67 23.91 170.82 23.68 168.00 24.00 C 169.49 31.53 168.37 34.92 168.33 42.33 C 168.29 49.73 177.58 44.65 183.00 46.00 C 184.43 40.28 177.57 40.24 174.00 42.00 C 174.77 36.21 170.53 31.52 173.00 26.00 Z"/>
</g>
<g fill="None" fill-opacity="0.0" stroke="#000000" stroke-opacity="0.14" stroke-width="0.3"><path d=" M 160.00 30.00  C 158.90 27.78 158.73 26.92 158.00 25.00 C 153.36 27.56 148.69 27.85 143.00 28.00 C 145.22 35.83 147.15 42.87 147.00 50.00 C 152.90 48.09 156.22 47.69 163.00 47.00 C 161.31 38.15 150.59 49.74 150.00 40.00 C 154.04 38.22 160.79 40.66 161.00 35.00 C 155.70 33.15 153.74 37.01 149.00 35.00 C 149.26 29.29 155.48 31.04 160.00 30.00 Z"/>
</g>
<g fill="None" fill-opacity="0.0" stroke="#000000" stroke-opacity="0.14" stroke-width="0.3"><path d=" M 206.00 26.00  C 200.55 27.39 195.61 24.97 190.00 25.00 C 190.68 32.94 188.46 39.47 188.00 47.00 C 193.79 44.11 204.72 52.47 204.00 43.00 C 199.58 44.16 192.26 44.30 193.00 38.00 C 197.08 39.84 200.39 36.99 204.00 40.00 C 205.17 37.91 204.70 35.93 204.00 34.00 C 199.57 34.72 191.92 36.38 195.00 29.00 C 199.41 30.17 207.19 33.38 206.00 26.00 Z"/>
</g>
<g fill="None" fill-opacity="0.0" stroke="#000000" stroke-opacity="0.15" stroke-width="0.3"><path d=" M 220.00 30.00  C 218.00 28.37 216.05 30.61 215.00 28.00 C 213.04 35.58 212.32 42.69 209.00 50.00 C 212.04 48.92 212.30 50.65 215.00 51.00 C 215.70 43.29 217.22 35.82 220.00 30.00 Z"/>
</g>
<g fill="None" fill-opacity="0.0" stroke="#000000" stroke-opacity="0.15" stroke-width="0.3"><path d=" M 136.00 34.00  C 130.82 28.53 126.69 36.35 121.00 35.00 C 121.35 43.62 125.19 48.62 127.00 56.00 C 132.66 54.84 136.13 52.00 141.00 52.00 C 142.50 49.65 139.20 49.70 141.00 47.00 C 136.73 48.03 134.46 49.68 130.00 51.00 C 129.42 48.95 128.70 47.06 130.00 45.00 C 133.44 46.59 134.68 42.14 138.00 44.00 C 139.50 41.65 136.20 41.70 138.00 39.00 C 133.10 39.50 130.45 43.26 126.00 42.00 C 125.48 34.98 132.83 38.15 136.00 34.00 Z"/>
</g>
<g fill="None" fill-opacity="0.0" stroke="#000000" stroke-opacity="0.11" stroke-width="0.3"><path d=" M 224.00 54.00  C 229.67 55.67 242.72 58.05 244.80 48.25 C 246.88 38.44 235.48 34.16 229.00 32.00 C 227.17 38.01 225.83 44.39 222.00 48.00 C 222.91 50.70 222.59 51.80 224.00 54.00 M 228.00 51.00  C 227.16 45.83 231.14 43.49 232.00 38.00 C 237.36 38.78 240.13 40.57 239.40 46.75 C 238.67 52.92 231.56 52.00 228.00 51.00 Z"/>
</g>
<g fill="None" fill-opacity="0.0" stroke="#000000" stroke-opacity="0.90" stroke-width="0.3"><path d=" M 228.00 51.00  C 231.56 52.00 238.67 52.92 239.40 46.75 C 240.13 40.57 237.36 38.78 232.00 38.00 C 231.14 43.49 227.16 45.83 228.00 51.00 Z"/>
</g>
<g fill="None" fill-opacity="0.0" stroke="#000000" stroke-opacity="0.15" stroke-width="0.3"><path d=" M 114.00 42.00  C 107.53 40.19 98.45 44.47 98.00 52.00 C 100.95 51.18 102.46 48.62 106.00 50.00 C 108.05 54.52 109.74 66.30 117.00 62.00 C 113.18 56.13 112.01 52.54 108.00 46.00 C 110.39 45.18 113.22 44.79 114.00 42.00 Z"/>
</g>
<g fill="None" fill-opacity="0.0" stroke="#000000" stroke-opacity="0.15" stroke-width="0.3"><path d=" M 260.00 46.00  C 257.02 47.12 256.62 42.30 254.00 45.00 C 252.47 50.68 248.55 57.20 245.00 61.00 C 246.37 62.71 247.19 65.83 250.00 65.00 C 252.04 57.04 256.13 53.17 260.00 46.00 Z"/>
</g>
<g fill="None" fill-opacity="0.0" stroke="#000000" stroke-opacity="0.04" stroke-width="0.3"><path d=" M 172.00 62.00  C 143.79 64.95 130.97 71.73 109.10 87.09 C 87.23 102.46 76.10 125.46 68.92 145.92 C 61.74 166.38 63.61 202.83 71.81 221.75 C 80.01 240.66 97.89 267.47 118.25 278.74 C 138.61 290.00 160.94 299.08 188.70 296.71 C 216.47 294.34 229.46 287.62 252.10 272.10 C 274.74 256.58 286.11 231.22 293.60 210.75 C 301.10 190.28 296.25 157.21 289.35 138.70 C 282.45 120.18 265.65 92.52 244.03 80.97 C 222.42 69.41 202.14 58.84 172.00 62.00 M 206.00 102.00  C 204.16 95.94 213.48 95.50 217.00 99.00 C 215.12 104.73 223.41 101.26 226.00 104.00 C 224.77 106.31 226.42 108.65 225.00 111.00 C 239.14 107.07 241.29 122.23 238.00 132.00 C 252.01 139.12 242.02 159.32 227.00 157.00 C 228.96 163.47 220.01 170.20 213.00 167.00 C 213.26 174.05 203.09 181.61 195.00 179.00 C 199.78 188.38 196.68 196.02 203.13 202.92 C 209.58 209.82 196.36 221.07 191.68 228.68 C 187.01 236.29 183.08 243.17 182.00 252.00 C 174.54 241.56 173.12 227.94 162.00 219.00 C 162.75 208.65 161.95 204.45 158.41 195.25 C 154.87 186.05 140.19 197.66 134.00 191.00 C 135.74 187.39 133.31 184.83 136.00 182.00 C 131.85 181.04 133.30 176.81 136.00 175.00 C 127.63 176.12 136.32 165.61 129.00 166.00 C 126.67 163.79 129.53 161.12 128.00 159.00 C 139.40 152.19 130.04 141.08 134.00 132.00 C 132.22 130.33 131.21 130.44 128.00 130.00 C 127.08 119.60 135.02 108.06 145.30 105.29 C 155.58 102.51 161.69 94.13 173.75 95.40 C 185.81 96.67 195.61 96.49 206.00 102.00 M 85.00 137.00  C 86.10 154.49 98.33 176.42 114.90 188.10 C 131.47 199.78 149.78 210.45 162.19 228.25 C 174.60 246.05 175.61 260.34 179.00 283.00 C 169.15 275.91 164.52 265.95 157.91 258.08 C 151.30 250.22 150.81 240.03 144.00 232.00 C 146.40 237.74 145.27 243.23 148.00 248.00 C 138.85 244.63 131.90 234.06 126.91 228.08 C 121.93 222.10 121.97 214.41 116.00 209.00 C 117.18 214.96 118.40 218.13 121.00 225.00 C 113.20 221.54 106.33 211.24 102.42 206.23 C 98.52 201.22 99.89 192.25 94.00 188.00 C 94.58 192.81 96.04 195.19 96.00 200.00 C 86.10 192.51 85.31 181.43 81.00 171.00 C 78.03 174.55 84.73 182.69 79.00 182.00 C 81.18 189.91 88.71 192.83 91.00 201.00 C 89.64 199.69 85.89 197.39 86.00 201.00 C 95.30 203.67 106.87 215.74 114.00 226.00 C 111.17 223.66 108.64 224.99 105.00 224.00 C 118.19 230.63 132.76 237.08 143.00 252.00 C 135.39 249.00 125.78 246.78 116.00 249.00 C 141.79 249.21 162.77 266.27 174.00 290.00 C 146.97 285.34 129.96 282.12 109.70 264.30 C 89.44 246.49 76.08 228.69 71.69 204.30 C 67.30 179.92 72.84 152.37 85.00 137.00 M 187.00 290.00  C 189.57 285.32 191.52 281.98 194.90 277.90 C 198.28 273.82 201.97 268.76 205.92 264.92 C 209.87 261.08 214.63 259.61 218.68 256.68 C 222.73 253.75 226.10 253.69 230.75 251.41 C 235.40 249.13 242.22 253.46 245.00 248.00 C 234.07 248.58 226.81 249.33 219.00 252.00 C 229.54 240.20 239.77 230.04 252.00 228.00 C 252.12 225.12 248.93 225.26 247.00 226.00 C 255.03 215.01 267.18 206.51 276.00 199.00 C 273.56 199.72 272.35 200.64 270.00 201.00 C 273.92 194.03 279.46 190.06 283.00 183.00 C 277.39 184.63 282.62 175.75 282.00 172.00 C 277.60 173.46 278.43 181.63 275.74 185.75 C 273.04 189.88 272.37 197.96 265.00 200.00 C 266.06 196.49 268.97 190.26 265.00 188.00 C 263.78 202.98 256.73 212.98 243.00 224.00 C 242.35 218.82 244.60 215.39 246.00 210.00 C 239.58 214.29 239.92 222.44 234.87 227.92 C 229.82 233.40 224.15 245.79 214.00 248.00 C 215.81 242.70 216.28 239.42 217.00 233.00 C 213.47 237.50 211.25 244.32 208.30 249.30 C 205.34 254.28 202.91 260.71 197.77 265.77 C 192.62 270.83 192.28 278.25 184.00 281.00 C 186.16 258.58 186.82 245.63 199.30 228.30 C 211.77 210.96 232.14 198.18 247.90 186.90 C 263.66 175.62 275.20 155.64 277.00 138.00 C 290.63 151.81 293.68 186.51 289.40 207.75 C 285.11 228.99 269.92 251.30 249.25 267.59 C 228.58 283.88 214.11 285.74 187.00 290.00 Z"/>
</g>
<g fill="None" fill-opacity="0.0" stroke="#000000" stroke-opacity="0.99" stroke-width="0.3"><path d=" M 206.00 102.00  C 195.61 96.49 185.81 96.67 173.75 95.40 C 161.69 94.13 155.58 102.51 145.30 105.29 C 135.02 108.06 127.08 119.60 128.00 130.00 C 131.21 130.44 132.22 130.33 134.00 132.00 C 130.04 141.08 139.40 152.19 128.00 159.00 C 129.53 161.12 126.67 163.79 129.00 166.00 C 136.32 165.61 127.63 176.12 136.00 175.00 C 133.30 176.81 131.85 181.04 136.00 182.00 C 133.31 184.83 135.74 187.39 134.00 191.00 C 140.19 197.66 154.87 186.05 158.41 195.25 C 161.95 204.45 162.75 208.65 162.00 219.00 C 173.12 227.94 174.54 241.56 182.00 252.00 C 183.08 243.17 187.01 236.29 191.68 228.68 C 196.36 221.07 209.58 209.82 203.13 202.92 C 196.68 196.02 199.78 188.38 195.00 179.00 C 203.09 181.61 213.26 174.05 213.00 167.00 C 220.01 170.20 228.96 163.47 227.00 157.00 C 242.02 159.32 252.01 139.12 238.00 132.00 C 241.29 122.23 239.14 107.07 225.00 111.00 C 226.42 108.65 224.77 106.31 226.00 104.00 C 223.41 101.26 215.12 104.73 217.00 99.00 C 213.48 95.50 204.16 95.94 206.00 102.00 Z"/>
</g>
<g fill="None" fill-opacity="0.0" stroke="#000000" stroke-opacity="0.97" stroke-width="0.3"><path d=" M 85.00 137.00  C 72.84 152.37 67.30 179.92 71.69 204.30 C 76.08 228.69 89.44 246.49 109.70 264.30 C 129.96 282.12 146.97 285.34 174.00 290.00 C 162.77 266.27 141.79 249.21 116.00 249.00 C 125.78 246.78 135.39 249.00 143.00 252.00 C 132.76 237.08 118.19 230.63 105.00 224.00 C 108.64 224.99 111.17 223.66 114.00 226.00 C 106.87 215.74 95.30 203.67 86.00 201.00 C 85.89 197.39 89.64 199.69 91.00 201.00 C 88.71 192.83 81.18 189.91 79.00 182.00 C 84.73 182.69 78.03 174.55 81.00 171.00 C 85.31 181.43 86.10 192.51 96.00 200.00 C 96.04 195.19 94.58 192.81 94.00 188.00 C 99.89 192.25 98.52 201.22 102.42 206.23 C 106.33 211.24 113.20 221.54 121.00 225.00 C 118.40 218.13 117.18 214.96 116.00 209.00 C 121.97 214.41 121.93 222.10 126.91 228.08 C 131.90 234.06 138.85 244.63 148.00 248.00 C 145.27 243.23 146.40 237.74 144.00 232.00 C 150.81 240.03 151.30 250.22 157.91 258.08 C 164.52 265.95 169.15 275.91 179.00 283.00 C 175.61 260.34 174.60 246.05 162.19 228.25 C 149.78 210.45 131.47 199.78 114.90 188.10 C 98.33 176.42 86.10 154.49 85.00 137.00 Z"/>
</g>
<g fill="None" fill-opacity="0.0" stroke="#000000" stroke-opacity="0.97" stroke-width="0.3"><path d=" M 187.00 290.00  C 214.11 285.74 228.58 283.88 249.25 267.59 C 269.92 251.30 285.11 228.99 289.40 207.75 C 293.68 186.51 290.63 151.81 277.00 138.00 C 275.20 155.64 263.66 175.62 247.90 186.90 C 232.14 198.18 211.77 210.96 199.30 228.30 C 186.82 245.63 186.16 258.58 184.00 281.00 C 192.28 278.25 192.62 270.83 197.77 265.77 C 202.91 260.71 205.34 254.28 208.30 249.30 C 211.25 244.32 213.47 237.50 217.00 233.00 C 216.28 239.42 215.81 242.70 214.00 248.00 C 224.15 245.79 229.82 233.40 234.87 227.92 C 239.92 222.44 239.58 214.29 246.00 210.00 C 244.60 215.39 242.35 218.82 243.00 224.00 C 256.73 212.98 263.78 202.98 265.00 188.00 C 268.97 190.26 266.06 196.49 265.00 200.00 C 272.37 197.96 273.04 189.88 275.74 185.75 C 278.43 181.63 277.60 173.46 282.00 172.00 C 282.62 175.75 277.39 184.63 283.00 183.00 C 279.46 190.06 273.92 194.03 270.00 201.00 C 272.35 200.64 273.56 199.72 276.00 199.00 C 267.18 206.51 255.03 215.01 247.00 226.00 C 248.93 225.26 252.12 225.12 252.00 228.00 C 239.77 230.04 229.54 240.20 219.00 252.00 C 226.81 249.33 234.07 248.58 245.00 248.00 C 242.22 253.46 235.40 249.13 230.75 251.41 C 226.10 253.69 222.73 253.75 218.68 256.68 C 214.63 259.61 209.87 261.08 205.92 264.92 C 201.97 268.76 198.28 273.82 194.90 277.90 C 191.52 281.98 189.57 285.32 187.00 290.00 M 257.00 224.00  C 257.30 227.25 254.71 226.00 253.00 227.00 C 252.70 223.75 255.29 225.00 257.00 224.00 Z"/>
</g>
<g fill="None" fill-opacity="0.0" stroke="#000000" stroke-opacity="0.42" stroke-width="0.3"><path d=" M 257.00 224.00  C 255.29 225.00 252.70 223.75 253.00 227.00 C 254.71 226.00 257.30 227.25 257.00 224.00 Z"/>
</g>
<g fill="None" fill-opacity="0.0" stroke="#000000" stroke-opacity="0.18" stroke-width="0.3"><path d=" M 83.00 289.00  C 83.43 285.15 87.98 281.92 83.00 280.00 C 80.74 284.96 79.54 287.71 78.00 293.00 C 81.38 295.21 82.22 291.11 86.00 292.00 C 84.99 294.44 84.66 295.26 83.00 297.00 C 84.72 298.74 86.16 298.19 88.00 299.00 C 89.93 294.25 96.58 295.11 97.00 290.00 C 92.88 287.79 92.11 293.86 88.00 292.00 C 89.37 289.86 92.12 288.23 90.00 285.00 C 86.59 285.51 86.54 288.22 83.00 289.00 Z"/>
</g>
<g fill="None" fill-opacity="0.0" stroke="#000000" stroke-opacity="0.22" stroke-width="0.3"><path d=" M 271.00 285.00  C 264.79 289.25 275.32 291.69 275.00 297.00 C 283.53 295.28 271.89 289.35 271.00 285.00 Z"/>
</g>
<g fill="None" fill-opacity="0.0" stroke="#000000" stroke-opacity="0.22" stroke-width="0.3"><path d=" M 265.00 290.00  C 262.19 292.42 259.20 294.45 256.00 296.00 C 259.09 300.00 261.77 302.16 263.00 307.00 C 268.62 306.52 264.17 301.89 263.00 300.00 C 265.84 299.46 268.22 298.12 269.00 296.00 C 265.17 292.92 264.15 300.40 260.00 297.00 C 261.85 294.20 268.00 294.62 265.00 290.00 Z"/>
</g>
<g fill="None" fill-opacity="0.0" stroke="#000000" stroke-opacity="0.19" stroke-width="0.3"><path d=" M 100.00 303.00  C 100.40 299.29 105.67 294.62 99.00 293.00 C 100.15 298.14 94.74 302.82 98.00 308.00 C 101.12 308.38 101.89 303.66 105.00 304.00 C 103.85 306.61 102.46 308.84 104.00 312.00 C 108.34 310.41 110.91 306.35 115.00 304.00 C 114.83 299.05 109.88 301.78 108.00 304.00 C 106.49 301.40 108.70 300.44 109.00 298.00 C 105.23 297.55 103.78 302.40 100.00 303.00 Z"/>
</g>
<g fill="None" fill-opacity="0.0" stroke="#000000" stroke-opacity="0.25" stroke-width="0.3"><path d=" M 248.00 316.00  C 247.32 311.57 246.20 303.14 240.00 304.00 C 243.91 308.67 242.68 314.64 248.00 316.00 Z"/>
</g>
<g fill="None" fill-opacity="0.0" stroke="#000000" stroke-opacity="0.18" stroke-width="0.3"><path d=" M 119.00 313.00  C 120.79 309.88 122.49 303.58 117.00 304.00 C 118.49 309.48 116.26 312.91 116.00 318.00 C 118.22 316.01 118.59 320.72 121.00 318.00 C 119.18 315.53 123.40 313.70 125.00 313.00 C 124.00 316.02 122.89 317.67 123.00 321.00 C 129.54 322.30 131.01 313.87 135.00 310.00 C 130.39 309.79 129.10 314.74 126.00 316.00 C 125.41 312.25 129.98 307.52 125.00 307.00 C 123.16 308.95 122.40 312.70 119.00 313.00 Z"/>
</g>
<g fill="None" fill-opacity="0.0" stroke="#000000" stroke-opacity="0.35" stroke-width="0.3"><path d=" M 258.00 310.00  C 258.24 306.73 254.76 307.06 253.00 308.00 C 252.87 310.98 256.18 310.75 258.00 310.00 Z"/>
</g>
<g fill="None" fill-opacity="0.0" stroke="#000000" stroke-opacity="0.16" stroke-width="0.3"><path d=" M 239.00 311.00  C 233.88 306.58 229.03 310.06 225.00 310.00 C 225.77 315.37 228.21 317.82 229.00 323.00 C 233.85 321.78 234.84 320.00 239.00 318.00 C 238.40 315.77 238.37 313.16 239.00 311.00 M 235.00 312.00  C 236.36 315.02 235.34 319.24 231.00 319.00 C 230.28 316.44 229.73 314.63 229.00 312.00 C 231.03 310.81 232.64 311.71 235.00 312.00 Z"/>
</g>
<g fill="None" fill-opacity="0.0" stroke="#000000" stroke-opacity="0.88" stroke-width="0.3"><path d=" M 235.00 312.00  C 232.64 311.71 231.03 310.81 229.00 312.00 C 229.73 314.63 230.28 316.44 231.00 319.00 C 235.34 319.24 236.36 315.02 235.00 312.00 Z"/>
</g>
<g fill="None" fill-opacity="0.0" stroke="#000000" stroke-opacity="0.24" stroke-width="0.3"><path d=" M 220.00 312.00  C 211.91 313.63 221.28 321.20 219.00 326.00 C 227.18 324.46 217.76 316.48 220.00 312.00 Z"/>
</g>
<g fill="None" fill-opacity="0.0" stroke="#000000" stroke-opacity="0.24" stroke-width="0.3"><path d=" M 154.00 319.00  C 154.09 313.20 147.05 314.92 143.00 314.00 C 142.15 318.06 145.22 315.77 147.00 317.00 C 147.45 321.33 141.08 326.78 148.00 328.00 C 147.81 324.10 150.12 321.59 149.00 318.00 C 151.28 316.88 151.58 318.96 154.00 319.00 Z"/>
</g>
<g fill="None" fill-opacity="0.0" stroke="#000000" stroke-opacity="0.15" stroke-width="0.3"><path d=" M 212.00 314.00  C 208.89 314.58 206.15 316.74 203.00 315.00 C 201.32 320.01 204.25 323.56 204.00 329.00 C 207.73 329.83 209.91 325.78 213.00 328.00 C 213.63 321.90 210.42 319.59 212.00 314.00 M 210.00 317.00  C 209.26 324.68 202.66 316.93 210.00 317.00 M 211.00 324.00  C 205.72 329.75 205.27 318.48 211.00 324.00 Z"/>
</g>
<g fill="None" fill-opacity="0.0" stroke="#000000" stroke-opacity="0.18" stroke-width="0.3"><path d=" M 168.00 317.00  C 164.03 318.58 161.84 316.21 158.00 316.00 C 159.09 321.47 157.24 325.06 157.00 330.00 C 161.25 326.88 167.40 334.55 167.00 327.00 C 163.52 328.15 160.96 327.85 161.00 324.00 C 163.50 324.66 165.01 324.06 167.00 326.00 C 167.89 322.95 167.48 320.60 168.00 317.00 M 166.00 323.00  C 163.96 322.39 161.22 322.62 162.00 319.00 C 163.85 320.18 166.89 319.73 166.00 323.00 Z"/>
</g>
<g fill="None" fill-opacity="0.0" stroke="#000000" stroke-opacity="0.20" stroke-width="0.3"><path d=" M 192.00 318.00  C 184.43 316.87 190.77 326.92 189.00 331.00 C 192.25 329.52 198.42 332.92 198.00 327.00 C 191.68 330.67 190.46 322.21 192.00 318.00 Z"/>
</g>
<g fill="None" fill-opacity="0.0" stroke="#000000" stroke-opacity="0.73" stroke-width="0.3"><path d=" M 210.00 317.00  C 202.66 316.93 209.26 324.68 210.00 317.00 Z"/>
</g>
<g fill="None" fill-opacity="0.0" stroke="#000000" stroke-opacity="0.11" stroke-width="0.3"><path d=" M 183.00 318.00  C 179.67 318.00 176.33 318.00 173.00 318.00 C 173.00 322.33 173.00 326.67 173.00 331.00 C 176.12 330.19 179.97 329.00 183.00 331.00 C 183.81 325.88 178.54 329.11 176.00 329.00 C 174.28 321.96 184.23 329.44 183.00 323.00 C 180.88 324.49 177.79 323.13 176.00 322.00 C 177.49 319.33 184.34 323.17 183.00 318.00 Z"/>
</g>
<g fill="None" fill-opacity="0.0" stroke="#000000" stroke-opacity="0.78" stroke-width="0.3"><path d=" M 166.00 323.00  C 166.89 319.73 163.85 320.18 162.00 319.00 C 161.22 322.62 163.96 322.39 166.00 323.00 Z"/>
</g>
<g fill="None" fill-opacity="0.0" stroke="#000000" stroke-opacity="0.31" stroke-width="0.3"><path d=" M 135.00 325.00  C 138.82 325.70 138.79 319.29 135.00 320.00 C 134.25 321.80 134.12 323.28 135.00 325.00 Z"/>
</g>
<g fill="None" fill-opacity="0.0" stroke="#000000" stroke-opacity="0.71" stroke-width="0.3"><path d=" M 211.00 324.00  C 205.27 318.48 205.72 329.75 211.00 324.00 Z"/>
</g>
<g fill="None" fill-opacity="0.0" stroke="#000000" stroke-opacity="0.22" stroke-width="0.3"><path d=" M 171.00 359.00  L 190.00 359.00 C 190.00 359.00 189.90 358.02 190.00 358.00 C 183.74 358.31 177.27 358.19 171.00 358.00 C 171.00 358.00 171.00 358.50 171.00 359.00 Z"/>
</g>
<g fill="#000000" fill-opacity="0.01" stroke="None">
<path d=" M 0.00 359.00  L 171.00 359.00 C 171.00 358.50 171.00 358.00 171.00 358.00 C 136.15 356.96 114.65 346.30 89.23 333.43 C 63.82 320.56 33.76 286.40 21.07 260.93 C 8.39 235.45 0.43 206.11 1.66 172.32 C 2.90 138.54 11.38 117.17 24.57 91.23 C 37.77 65.29 68.26 36.12 92.25 23.81 C 116.25 11.51 138.08 2.26 171.00 1.00 C 170.98 1.00 171.00 0.00 171.00 0.00 L 0.00 0.00 L 0.00 359.00 Z"/>
</g>
<g fill="#000000" fill-opacity="0.42" stroke="None">
<path d=" M 171.00 1.00  C 177.61 0.75 184.39 0.80 191.00 1.00 C 190.89 0.98 191.00 0.00 191.00 0.00 L 171.00 0.00 C 171.00 0.00 170.98 1.00 171.00 1.00 Z"/>
</g>
<g fill="#000000" fill-opacity="0.01" stroke="None">
<path d=" M 191.00 1.00  C 222.59 1.95 246.01 12.34 269.30 24.71 C 292.59 37.09 321.77 64.48 334.57 88.77 C 347.37 113.06 356.07 134.28 358.35 167.70 C 360.64 201.12 352.75 234.34 339.87 259.92 C 326.99 285.49 296.83 320.22 271.70 333.70 C 246.58 347.19 223.14 356.39 190.00 358.00 C 189.90 358.02 190.00 359.00 190.00 359.00 L 360.00 359.00 L 360.00 0.00 L 191.00 0.00 C 191.00 0.00 190.89 0.98 191.00 1.00 Z"/>
</g>
<g fill="#000000" fill-opacity="0.84" stroke="None">
<path d=" M 171.00 358.00  C 177.27 358.19 183.74 358.31 190.00 358.00 C 223.14 356.39 246.58 347.19 271.70 333.70 C 296.83 320.22 326.99 285.49 339.87 259.92 C 352.75 234.34 360.64 201.12 358.35 167.70 C 356.07 134.28 347.37 113.06 334.57 88.77 C 321.77 64.48 292.59 37.09 269.30 24.71 C 246.01 12.34 222.59 1.95 191.00 1.00 C 184.39 0.80 177.61 0.75 171.00 1.00 C 138.08 2.26 116.25 11.51 92.25 23.81 C 68.26 36.12 37.77 65.29 24.57 91.23 C 11.38 117.17 2.90 138.54 1.66 172.32 C 0.43 206.11 8.39 235.45 21.07 260.93 C 33.76 286.40 63.82 320.56 89.23 333.43 C 114.65 346.30 136.15 356.96 171.00 358.00 M 162.00 4.00  C 186.22 0.00 210.36 6.83 229.70 11.31 C 249.03 15.79 267.33 26.74 284.70 38.30 C 302.08 49.85 322.47 75.69 331.39 91.75 C 340.32 107.82 348.48 124.08 352.59 145.75 C 356.70 167.43 356.74 196.18 351.61 216.75 C 346.47 237.32 340.66 253.92 330.81 270.25 C 320.96 286.59 302.01 308.48 284.10 321.10 C 266.19 333.72 248.93 341.97 229.08 348.13 C 209.24 354.29 181.04 356.35 158.25 353.61 C 135.45 350.86 117.30 344.73 99.92 336.08 C 82.55 327.43 61.60 311.59 46.30 293.70 C 30.99 275.81 24.48 262.03 16.81 242.75 C 9.13 223.48 3.85 202.75 4.00 178.00 C 4.15 153.25 10.15 132.16 17.71 113.70 C 25.28 95.23 33.18 79.13 50.32 60.32 C 67.46 41.51 86.53 30.24 105.08 21.07 C 123.63 11.89 140.35 7.57 162.00 4.00 Z"/>
</g>
<g fill="#000000" fill-opacity="0.17" stroke="None">
<path d=" M 162.00 4.00  C 140.35 7.57 123.63 11.89 105.08 21.07 C 86.53 30.24 67.46 41.51 50.32 60.32 C 33.18 79.13 25.28 95.23 17.71 113.70 C 10.15 132.16 4.15 153.25 4.00 178.00 C 3.85 202.75 9.13 223.48 16.81 242.75 C 24.48 262.03 30.99 275.81 46.30 293.70 C 61.60 311.59 82.55 327.43 99.92 336.08 C 117.30 344.73 135.45 350.86 158.25 353.61 C 181.04 356.35 209.24 354.29 229.08 348.13 C 248.93 341.97 266.19 333.72 284.10 321.10 C 302.01 308.48 320.96 286.59 330.81 270.25 C 340.66 253.92 346.47 237.32 351.61 216.75 C 356.74 196.18 356.70 167.43 352.59 145.75 C 348.48 124.08 340.32 107.82 331.39 91.75 C 322.47 75.69 302.08 49.85 284.70 38.30 C 267.33 26.74 249.03 15.79 229.70 11.31 C 210.36 6.83 186.22 0.00 162.00 4.00 M 164.00 7.00  C 196.00 1.72 229.71 14.09 253.77 23.58 C 277.83 33.07 312.08 61.96 327.32 89.68 C 342.56 117.40 350.50 134.78 352.79 169.23 C 355.07 203.68 346.03 232.56 334.87 255.92 C 323.71 279.28 299.94 309.29 274.08 324.13 C 248.23 338.97 231.40 347.57 198.75 350.80 C 166.10 354.03 131.80 347.31 108.25 336.61 C 84.69 325.91 49.14 296.98 34.29 271.70 C 19.43 246.42 12.06 225.34 8.80 191.75 C 5.55 158.16 15.70 123.82 26.19 101.75 C 36.68 79.67 63.33 49.05 86.77 34.43 C 110.21 19.81 132.02 12.28 164.00 7.00 Z"/>
</g>
<g fill="#000000" fill-opacity="0.98" stroke="None">
<path d=" M 164.00 7.00  C 132.02 12.28 110.21 19.81 86.77 34.43 C 63.33 49.05 36.68 79.67 26.19 101.75 C 15.70 123.82 5.55 158.16 8.80 191.75 C 12.06 225.34 19.43 246.42 34.29 271.70 C 49.14 296.98 84.69 325.91 108.25 336.61 C 131.80 347.31 166.10 354.03 198.75 350.80 C 231.40 347.57 248.23 338.97 274.08 324.13 C 299.94 309.29 323.71 279.28 334.87 255.92 C 346.03 232.56 355.07 203.68 352.79 169.23 C 350.50 134.78 342.56 117.40 327.32 89.68 C 312.08 61.96 277.83 33.07 253.77 23.58 C 229.71 14.09 196.00 1.72 164.00 7.00 M 173.00 26.00  C 170.53 31.52 174.77 36.21 174.00 42.00 C 177.57 40.24 184.43 40.28 183.00 46.00 C 177.58 44.65 168.29 49.73 168.33 42.33 C 168.37 34.92 169.49 31.53 168.00 24.00 C 170.82 23.68 172.67 23.91 173.00 26.00 M 160.00 30.00  C 155.48 31.04 149.26 29.29 149.00 35.00 C 153.74 37.01 155.70 33.15 161.00 35.00 C 160.79 40.66 154.04 38.22 150.00 40.00 C 150.59 49.74 161.31 38.15 163.00 47.00 C 156.22 47.69 152.90 48.09 147.00 50.00 C 147.15 42.87 145.22 35.83 143.00 28.00 C 148.69 27.85 153.36 27.56 158.00 25.00 C 158.73 26.92 158.90 27.78 160.00 30.00 M 206.00 26.00  C 207.19 33.38 199.41 30.17 195.00 29.00 C 191.92 36.38 199.57 34.72 204.00 34.00 C 204.70 35.93 205.17 37.91 204.00 40.00 C 200.39 36.99 197.08 39.84 193.00 38.00 C 192.26 44.30 199.58 44.16 204.00 43.00 C 204.72 52.47 193.79 44.11 188.00 47.00 C 188.46 39.47 190.68 32.94 190.00 25.00 C 195.61 24.97 200.55 27.39 206.00 26.00 M 220.00 30.00  C 217.22 35.82 215.70 43.29 215.00 51.00 C 212.30 50.65 212.04 48.92 209.00 50.00 C 212.32 42.69 213.04 35.58 215.00 28.00 C 216.05 30.61 218.00 28.37 220.00 30.00 M 136.00 34.00  C 132.83 38.15 125.48 34.98 126.00 42.00 C 130.45 43.26 133.10 39.50 138.00 39.00 C 136.20 41.70 139.50 41.65 138.00 44.00 C 134.68 42.14 133.44 46.59 130.00 45.00 C 128.70 47.06 129.42 48.95 130.00 51.00 C 134.46 49.68 136.73 48.03 141.00 47.00 C 139.20 49.70 142.50 49.65 141.00 52.00 C 136.13 52.00 132.66 54.84 127.00 56.00 C 125.19 48.62 121.35 43.62 121.00 35.00 C 126.69 36.35 130.82 28.53 136.00 34.00 M 224.00 54.00  C 222.59 51.80 222.91 50.70 222.00 48.00 C 225.83 44.39 227.17 38.01 229.00 32.00 C 235.48 34.16 246.88 38.44 244.80 48.25 C 242.72 58.05 229.67 55.67 224.00 54.00 M 114.00 42.00  C 113.22 44.79 110.39 45.18 108.00 46.00 C 112.01 52.54 113.18 56.13 117.00 62.00 C 109.74 66.30 108.05 54.52 106.00 50.00 C 102.46 48.62 100.95 51.18 98.00 52.00 C 98.45 44.47 107.53 40.19 114.00 42.00 M 260.00 46.00  C 256.13 53.17 252.04 57.04 250.00 65.00 C 247.19 65.83 246.37 62.71 245.00 61.00 C 248.55 57.20 252.47 50.68 254.00 45.00 C 256.62 42.30 257.02 47.12 260.00 46.00 M 172.00 62.00  C 202.14 58.84 222.42 69.41 244.03 80.97 C 265.65 92.52 282.45 120.18 289.35 138.70 C 296.25 157.21 301.10 190.28 293.60 210.75 C 286.11 231.22 274.74 256.58 252.10 272.10 C 229.46 287.62 216.47 294.34 188.70 296.71 C 160.94 299.08 138.61 290.00 118.25 278.74 C 97.89 267.47 80.01 240.66 71.81 221.75 C 63.61 202.83 61.74 166.38 68.92 145.92 C 76.10 125.46 87.23 102.46 109.10 87.09 C 130.97 71.73 143.79 64.95 172.00 62.00 M 83.00 289.00  C 86.54 288.22 86.59 285.51 90.00 285.00 C 92.12 288.23 89.37 289.86 88.00 292.00 C 92.11 293.86 92.88 287.79 97.00 290.00 C 96.58 295.11 89.93 294.25 88.00 299.00 C 86.16 298.19 84.72 298.74 83.00 297.00 C 84.66 295.26 84.99 294.44 86.00 292.00 C 82.22 291.11 81.38 295.21 78.00 293.00 C 79.54 287.71 80.74 284.96 83.00 280.00 C 87.98 281.92 83.43 285.15 83.00 289.00 M 271.00 285.00  C 271.89 289.35 283.53 295.28 275.00 297.00 C 275.32 291.69 264.79 289.25 271.00 285.00 M 265.00 290.00  C 268.00 294.62 261.85 294.20 260.00 297.00 C 264.15 300.40 265.17 292.92 269.00 296.00 C 268.22 298.12 265.84 299.46 263.00 300.00 C 264.17 301.89 268.62 306.52 263.00 307.00 C 261.77 302.16 259.09 300.00 256.00 296.00 C 259.20 294.45 262.19 292.42 265.00 290.00 M 100.00 303.00  C 103.78 302.40 105.23 297.55 109.00 298.00 C 108.70 300.44 106.49 301.40 108.00 304.00 C 109.88 301.78 114.83 299.05 115.00 304.00 C 110.91 306.35 108.34 310.41 104.00 312.00 C 102.46 308.84 103.85 306.61 105.00 304.00 C 101.89 303.66 101.12 308.38 98.00 308.00 C 94.74 302.82 100.15 298.14 99.00 293.00 C 105.67 294.62 100.40 299.29 100.00 303.00 M 248.00 316.00  C 242.68 314.64 243.91 308.67 240.00 304.00 C 246.20 303.14 247.32 311.57 248.00 316.00 M 119.00 313.00  C 122.40 312.70 123.16 308.95 125.00 307.00 C 129.98 307.52 125.41 312.25 126.00 316.00 C 129.10 314.74 130.39 309.79 135.00 310.00 C 131.01 313.87 129.54 322.30 123.00 321.00 C 122.89 317.67 124.00 316.02 125.00 313.00 C 123.40 313.70 119.18 315.53 121.00 318.00 C 118.59 320.72 118.22 316.01 116.00 318.00 C 116.26 312.91 118.49 309.48 117.00 304.00 C 122.49 303.58 120.79 309.88 119.00 313.00 M 258.00 310.00  C 256.18 310.75 252.87 310.98 253.00 308.00 C 254.76 307.06 258.24 306.73 258.00 310.00 M 239.00 311.00  C 238.37 313.16 238.40 315.77 239.00 318.00 C 234.84 320.00 233.85 321.78 229.00 323.00 C 228.21 317.82 225.77 315.37 225.00 310.00 C 229.03 310.06 233.88 306.58 239.00 311.00 M 220.00 312.00  C 217.76 316.48 227.18 324.46 219.00 326.00 C 221.28 321.20 211.91 313.63 220.00 312.00 M 154.00 319.00  C 151.58 318.96 151.28 316.88 149.00 318.00 C 150.12 321.59 147.81 324.10 148.00 328.00 C 141.08 326.78 147.45 321.33 147.00 317.00 C 145.22 315.77 142.15 318.06 143.00 314.00 C 147.05 314.92 154.09 313.20 154.00 319.00 M 212.00 314.00  C 210.42 319.59 213.63 321.90 213.00 328.00 C 209.91 325.78 207.73 329.83 204.00 329.00 C 204.25 323.56 201.32 320.01 203.00 315.00 C 206.15 316.74 208.89 314.58 212.00 314.00 M 168.00 317.00  C 167.48 320.60 167.89 322.95 167.00 326.00 C 165.01 324.06 163.50 324.66 161.00 324.00 C 160.96 327.85 163.52 328.15 167.00 327.00 C 167.40 334.55 161.25 326.88 157.00 330.00 C 157.24 325.06 159.09 321.47 158.00 316.00 C 161.84 316.21 164.03 318.58 168.00 317.00 M 192.00 318.00  C 190.46 322.21 191.68 330.67 198.00 327.00 C 198.42 332.92 192.25 329.52 189.00 331.00 C 190.77 326.92 184.43 316.87 192.00 318.00 M 183.00 318.00  C 184.34 323.17 177.49 319.33 176.00 322.00 C 177.79 323.13 180.88 324.49 183.00 323.00 C 184.23 329.44 174.28 321.96 176.00 329.00 C 178.54 329.11 183.81 325.88 183.00 331.00 C 179.97 329.00 176.12 330.19 173.00 331.00 C 173.00 326.67 173.00 322.33 173.00 318.00 C 176.33 318.00 179.67 318.00 183.00 318.00 M 135.00 325.00  C 134.12 323.28 134.25 321.80 135.00 320.00 C 138.79 319.29 138.82 325.70 135.00 325.00 Z"/>
</g>
<g fill="#000000" fill-opacity="0.18" stroke="None">
<path d=" M 173.00 26.00  C 172.67 23.91 170.82 23.68 168.00 24.00 C 169.49 31.53 168.37 34.92 168.33 42.33 C 168.29 49.73 177.58 44.65 183.00 46.00 C 184.43 40.28 177.57 40.24 174.00 42.00 C 174.77 36.21 170.53 31.52 173.00 26.00 Z"/>
</g>
<g fill="#000000" fill-opacity="0.14" stroke="None">
<path d=" M 160.00 30.00  C 158.90 27.78 158.73 26.92 158.00 25.00 C 153.36 27.56 148.69 27.85 143.00 28.00 C 145.22 35.83 147.15 42.87 147.00 50.00 C 152.90 48.09 156.22 47.69 163.00 47.00 C 161.31 38.15 150.59 49.74 150.00 40.00 C 154.04 38.22 160.79 40.66 161.00 35.00 C 155.70 33.15 153.74 37.01 149.00 35.00 C 149.26 29.29 155.48 31.04 160.00 30.00 Z"/>
</g>
<g fill="#000000" fill-opacity="0.14" stroke="None">
<path d=" M 206.00 26.00  C 200.55 27.39 195.61 24.97 190.00 25.00 C 190.68 32.94 188.46 39.47 188.00 47.00 C 193.79 44.11 204.72 52.47 204.00 43.00 C 199.58 44.16 192.26 44.30 193.00 38.00 C 197.08 39.84 200.39 36.99 204.00 40.00 C 205.17 37.91 204.70 35.93 204.00 34.00 C 199.57 34.72 191.92 36.38 195.00 29.00 C 199.41 30.17 207.19 33.38 206.00 26.00 Z"/>
</g>
<g fill="#000000" fill-opacity="0.15" stroke="None">
<path d=" M 220.00 30.00  C 218.00 28.37 216.05 30.61 215.00 28.00 C 213.04 35.58 212.32 42.69 209.00 50.00 C 212.04 48.92 212.30 50.65 215.00 51.00 C 215.70 43.29 217.22 35.82 220.00 30.00 Z"/>
</g>
<g fill="#000000" fill-opacity="0.15" stroke="None">
<path d=" M 136.00 34.00  C 130.82 28.53 126.69 36.35 121.00 35.00 C 121.35 43.62 125.19 48.62 127.00 56.00 C 132.66 54.84 136.13 52.00 141.00 52.00 C 142.50 49.65 139.20 49.70 141.00 47.00 C 136.73 48.03 134.46 49.68 130.00 51.00 C 129.42 48.95 128.70 47.06 130.00 45.00 C 133.44 46.59 134.68 42.14 138.00 44.00 C 139.50 41.65 136.20 41.70 138.00 39.00 C 133.10 39.50 130.45 43.26 126.00 42.00 C 125.48 34.98 132.83 38.15 136.00 34.00 Z"/>
</g>
<g fill="#000000" fill-opacity="0.11" stroke="None">
<path d=" M 224.00 54.00  C 229.67 55.67 242.72 58.05 244.80 48.25 C 246.88 38.44 235.48 34.16 229.00 32.00 C 227.17 38.01 225.83 44.39 222.00 48.00 C 222.91 50.70 222.59 51.80 224.00 54.00 M 228.00 51.00  C 227.16 45.83 231.14 43.49 232.00 38.00 C 237.36 38.78 240.13 40.57 239.40 46.75 C 238.67 52.92 231.56 52.00 228.00 51.00 Z"/>
</g>
<g fill="#000000" fill-opacity="0.90" stroke="None">
<path d=" M 228.00 51.00  C 231.56 52.00 238.67 52.92 239.40 46.75 C 240.13 40.57 237.36 38.78 232.00 38.00 C 231.14 43.49 227.16 45.83 228.00 51.00 Z"/>
</g>
<g fill="#000000" fill-opacity="0.15" stroke="None">
<path d=" M 114.00 42.00  C 107.53 40.19 98.45 44.47 98.00 52.00 C 100.95 51.18 102.46 48.62 106.00 50.00 C 108.05 54.52 109.74 66.30 117.00 62.00 C 113.18 56.13 112.01 52.54 108.00 46.00 C 110.39 45.18 113.22 44.79 114.00 42.00 Z"/>
</g>
<g fill="#000000" fill-opacity="0.15" stroke="None">
<path d=" M 260.00 46.00  C 257.02 47.12 256.62 42.30 254.00 45.00 C 252.47 50.68 248.55 57.20 245.00 61.00 C 246.37 62.71 247.19 65.83 250.00 65.00 C 252.04 57.04 256.13 53.17 260.00 46.00 Z"/>
</g>
<g fill="#000000" fill-opacity="0.04" stroke="None">

</g>
<g fill="#000000" fill-opacity="0.99" stroke="None">
<path d=" M 206.00 102.00  C 195.61 96.49 185.81 96.67 173.75 95.40 C 161.69 94.13 155.58 102.51 145.30 105.29 C 135.02 108.06 127.08 119.60 128.00 130.00 C 131.21 130.44 132.22 130.33 134.00 132.00 C 130.04 141.08 139.40 152.19 128.00 159.00 C 129.53 161.12 126.67 163.79 129.00 166.00 C 136.32 165.61 127.63 176.12 136.00 175.00 C 133.30 176.81 131.85 181.04 136.00 182.00 C 133.31 184.83 135.74 187.39 134.00 191.00 C 140.19 197.66 154.87 186.05 158.41 195.25 C 161.95 204.45 162.75 208.65 162.00 219.00 C 173.12 227.94 174.54 241.56 182.00 252.00 C 183.08 243.17 187.01 236.29 191.68 228.68 C 196.36 221.07 209.58 209.82 203.13 202.92 C 196.68 196.02 199.78 188.38 195.00 179.00 C 203.09 181.61 213.26 174.05 213.00 167.00 C 220.01 170.20 228.96 163.47 227.00 157.00 C 242.02 159.32 252.01 139.12 238.00 132.00 C 241.29 122.23 239.14 107.07 225.00 111.00 C 226.42 108.65 224.77 106.31 226.00 104.00 C 223.41 101.26 215.12 104.73 217.00 99.00 C 213.48 95.50 204.16 95.94 206.00 102.00 Z"/>
</g>
<g fill="#000000" fill-opacity="0.97" stroke="None">
<path d=" M 85.00 137.00  C 72.84 152.37 67.30 179.92 71.69 204.30 C 76.08 228.69 89.44 246.49 109.70 264.30 C 129.96 282.12 146.97 285.34 174.00 290.00 C 162.77 266.27 141.79 249.21 116.00 249.00 C 125.78 246.78 135.39 249.00 143.00 252.00 C 132.76 237.08 118.19 230.63 105.00 224.00 C 108.64 224.99 111.17 223.66 114.00 226.00 C 106.87 215.74 95.30 203.67 86.00 201.00 C 85.89 197.39 89.64 199.69 91.00 201.00 C 88.71 192.83 81.18 189.91 79.00 182.00 C 84.73 182.69 78.03 174.55 81.00 171.00 C 85.31 181.43 86.10 192.51 96.00 200.00 C 96.04 195.19 94.58 192.81 94.00 188.00 C 99.89 192.25 98.52 201.22 102.42 206.23 C 106.33 211.24 113.20 221.54 121.00 225.00 C 118.40 218.13 117.18 214.96 116.00 209.00 C 121.97 214.41 121.93 222.10 126.91 228.08 C 131.90 234.06 138.85 244.63 148.00 248.00 C 145.27 243.23 146.40 237.74 144.00 232.00 C 150.81 240.03 151.30 250.22 157.91 258.08 C 164.52 265.95 169.15 275.91 179.00 283.00 C 175.61 260.34 174.60 246.05 162.19 228.25 C 149.78 210.45 131.47 199.78 114.90 188.10 C 98.33 176.42 86.10 154.49 85.00 137.00 Z"/>
</g>
<g fill="#000000" fill-opacity="0.97" stroke="None">
<path d=" M 187.00 290.00  C 214.11 285.74 228.58 283.88 249.25 267.59 C 269.92 251.30 285.11 228.99 289.40 207.75 C 293.68 186.51 290.63 151.81 277.00 138.00 C 275.20 155.64 263.66 175.62 247.90 186.90 C 232.14 198.18 211.77 210.96 199.30 228.30 C 186.82 245.63 186.16 258.58 184.00 281.00 C 192.28 278.25 192.62 270.83 197.77 265.77 C 202.91 260.71 205.34 254.28 208.30 249.30 C 211.25 244.32 213.47 237.50 217.00 233.00 C 216.28 239.42 215.81 242.70 214.00 248.00 C 224.15 245.79 229.82 233.40 234.87 227.92 C 239.92 222.44 239.58 214.29 246.00 210.00 C 244.60 215.39 242.35 218.82 243.00 224.00 C 256.73 212.98 263.78 202.98 265.00 188.00 C 268.97 190.26 266.06 196.49 265.00 200.00 C 272.37 197.96 273.04 189.88 275.74 185.75 C 278.43 181.63 277.60 173.46 282.00 172.00 C 282.62 175.75 277.39 184.63 283.00 183.00 C 279.46 190.06 273.92 194.03 270.00 201.00 C 272.35 200.64 273.56 199.72 276.00 199.00 C 267.18 206.51 255.03 215.01 247.00 226.00 C 248.93 225.26 252.12 225.12 252.00 228.00 C 239.77 230.04 229.54 240.20 219.00 252.00 C 226.81 249.33 234.07 248.58 245.00 248.00 C 242.22 253.46 235.40 249.13 230.75 251.41 C 226.10 253.69 222.73 253.75 218.68 256.68 C 214.63 259.61 209.87 261.08 205.92 264.92 C 201.97 268.76 198.28 273.82 194.90 277.90 C 191.52 281.98 189.57 285.32 187.00 290.00 M 257.00 224.00  C 257.30 227.25 254.71 226.00 253.00 227.00 C 252.70 223.75 255.29 225.00 257.00 224.00 Z"/>
</g>
<g fill="#000000" fill-opacity="0.42" stroke="None">
<path d=" M 257.00 224.00  C 255.29 225.00 252.70 223.75 253.00 227.00 C 254.71 226.00 257.30 227.25 257.00 224.00 Z"/>
</g>
<g fill="#000000" fill-opacity="0.18" stroke="None">
<path d=" M 83.00 289.00  C 83.43 285.15 87.98 281.92 83.00 280.00 C 80.74 284.96 79.54 287.71 78.00 293.00 C 81.38 295.21 82.22 291.11 86.00 292.00 C 84.99 294.44 84.66 295.26 83.00 297.00 C 84.72 298.74 86.16 298.19 88.00 299.00 C 89.93 294.25 96.58 295.11 97.00 290.00 C 92.88 287.79 92.11 293.86 88.00 292.00 C 89.37 289.86 92.12 288.23 90.00 285.00 C 86.59 285.51 86.54 288.22 83.00 289.00 Z"/>
</g>
<g fill="#000000" fill-opacity="0.22" stroke="None">
<path d=" M 271.00 285.00  C 264.79 289.25 275.32 291.69 275.00 297.00 C 283.53 295.28 271.89 289.35 271.00 285.00 Z"/>
</g>
<g fill="#000000" fill-opacity="0.22" stroke="None">
<path d=" M 265.00 290.00  C 262.19 292.42 259.20 294.45 256.00 296.00 C 259.09 300.00 261.77 302.16 263.00 307.00 C 268.62 306.52 264.17 301.89 263.00 300.00 C 265.84 299.46 268.22 298.12 269.00 296.00 C 265.17 292.92 264.15 300.40 260.00 297.00 C 261.85 294.20 268.00 294.62 265.00 290.00 Z"/>
</g>
<g fill="#000000" fill-opacity="0.19" stroke="None">
<path d=" M 100.00 303.00  C 100.40 299.29 105.67 294.62 99.00 293.00 C 100.15 298.14 94.74 302.82 98.00 308.00 C 101.12 308.38 101.89 303.66 105.00 304.00 C 103.85 306.61 102.46 308.84 104.00 312.00 C 108.34 310.41 110.91 306.35 115.00 304.00 C 114.83 299.05 109.88 301.78 108.00 304.00 C 106.49 301.40 108.70 300.44 109.00 298.00 C 105.23 297.55 103.78 302.40 100.00 303.00 Z"/>
</g>
<g fill="#000000" fill-opacity="0.25" stroke="None">
<path d=" M 248.00 316.00  C 247.32 311.57 246.20 303.14 240.00 304.00 C 243.91 308.67 242.68 314.64 248.00 316.00 Z"/>
</g>
<g fill="#000000" fill-opacity="0.18" stroke="None">
<path d=" M 119.00 313.00  C 120.79 309.88 122.49 303.58 117.00 304.00 C 118.49 309.48 116.26 312.91 116.00 318.00 C 118.22 316.01 118.59 320.72 121.00 318.00 C 119.18 315.53 123.40 313.70 125.00 313.00 C 124.00 316.02 122.89 317.67 123.00 321.00 C 129.54 322.30 131.01 313.87 135.00 310.00 C 130.39 309.79 129.10 314.74 126.00 316.00 C 125.41 312.25 129.98 307.52 125.00 307.00 C 123.16 308.95 122.40 312.70 119.00 313.00 Z"/>
</g>
<g fill="#000000" fill-opacity="0.35" stroke="None">
<path d=" M 258.00 310.00  C 258.24 306.73 254.76 307.06 253.00 308.00 C 252.87 310.98 256.18 310.75 258.00 310.00 Z"/>
</g>
<g fill="#000000" fill-opacity="0.16" stroke="None">
<path d=" M 239.00 311.00  C 233.88 306.58 229.03 310.06 225.00 310.00 C 225.77 315.37 228.21 317.82 229.00 323.00 C 233.85 321.78 234.84 320.00 239.00 318.00 C 238.40 315.77 238.37 313.16 239.00 311.00 M 235.00 312.00  C 236.36 315.02 235.34 319.24 231.00 319.00 C 230.28 316.44 229.73 314.63 229.00 312.00 C 231.03 310.81 232.64 311.71 235.00 312.00 Z"/>
</g>
<g fill="#000000" fill-opacity="0.88" stroke="None">
<path d=" M 235.00 312.00  C 232.64 311.71 231.03 310.81 229.00 312.00 C 229.73 314.63 230.28 316.44 231.00 319.00 C 235.34 319.24 236.36 315.02 235.00 312.00 Z"/>
</g>
<g fill="#000000" fill-opacity="0.24" stroke="None">
<path d=" M 220.00 312.00  C 211.91 313.63 221.28 321.20 219.00 326.00 C 227.18 324.46 217.76 316.48 220.00 312.00 Z"/>
</g>
<g fill="#000000" fill-opacity="0.24" stroke="None">
<path d=" M 154.00 319.00  C 154.09 313.20 147.05 314.92 143.00 314.00 C 142.15 318.06 145.22 315.77 147.00 317.00 C 147.45 321.33 141.08 326.78 148.00 328.00 C 147.81 324.10 150.12 321.59 149.00 318.00 C 151.28 316.88 151.58 318.96 154.00 319.00 Z"/>
</g>
<g fill="#000000" fill-opacity="0.15" stroke="None">
<path d=" M 212.00 314.00  C 208.89 314.58 206.15 316.74 203.00 315.00 C 201.32 320.01 204.25 323.56 204.00 329.00 C 207.73 329.83 209.91 325.78 213.00 328.00 C 213.63 321.90 210.42 319.59 212.00 314.00 M 210.00 317.00  C 209.26 324.68 202.66 316.93 210.00 317.00 M 211.00 324.00  C 205.72 329.75 205.27 318.48 211.00 324.00 Z"/>
</g>
<g fill="#000000" fill-opacity="0.18" stroke="None">
<path d=" M 168.00 317.00  C 164.03 318.58 161.84 316.21 158.00 316.00 C 159.09 321.47 157.24 325.06 157.00 330.00 C 161.25 326.88 167.40 334.55 167.00 327.00 C 163.52 328.15 160.96 327.85 161.00 324.00 C 163.50 324.66 165.01 324.06 167.00 326.00 C 167.89 322.95 167.48 320.60 168.00 317.00 M 166.00 323.00  C 163.96 322.39 161.22 322.62 162.00 319.00 C 163.85 320.18 166.89 319.73 166.00 323.00 Z"/>
</g>
<g fill="#000000" fill-opacity="0.20" stroke="None">
<path d=" M 192.00 318.00  C 184.43 316.87 190.77 326.92 189.00 331.00 C 192.25 329.52 198.42 332.92 198.00 327.00 C 191.68 330.67 190.46 322.21 192.00 318.00 Z"/>
</g>
<g fill="#000000" fill-opacity="0.73" stroke="None">
<path d=" M 210.00 317.00  C 202.66 316.93 209.26 324.68 210.00 317.00 Z"/>
</g>
<g fill="#000000" fill-opacity="0.11" stroke="None">
<path d=" M 183.00 318.00  C 179.67 318.00 176.33 318.00 173.00 318.00 C 173.00 322.33 173.00 326.67 173.00 331.00 C 176.12 330.19 179.97 329.00 183.00 331.00 C 183.81 325.88 178.54 329.11 176.00 329.00 C 174.28 321.96 184.23 329.44 183.00 323.00 C 180.88 324.49 177.79 323.13 176.00 322.00 C 177.49 319.33 184.34 323.17 183.00 318.00 Z"/>
</g>
<g fill="#000000" fill-opacity="0.78" stroke="None">
<path d=" M 166.00 323.00  C 166.89 319.73 163.85 320.18 162.00 319.00 C 161.22 322.62 163.96 322.39 166.00 323.00 Z"/>
</g>
<g fill="#000000" fill-opacity="0.31" stroke="None">
<path d=" M 135.00 325.00  C 138.82 325.70 138.79 319.29 135.00 320.00 C 134.25 321.80 134.12 323.28 135.00 325.00 Z"/>
</g>
<g fill="#000000" fill-opacity="0.71" stroke="None">
<path d=" M 211.00 324.00  C 205.27 318.48 205.72 329.75 211.00 324.00 Z"/>
</g>
<g fill="#000000" fill-opacity="0.22" stroke="None">
<path d=" M 171.00 359.00  L 190.00 359.00 C 190.00 359.00 189.90 358.02 190.00 358.00 C 183.74 358.31 177.27 358.19 171.00 358.00 C 171.00 358.00 171.00 358.50 171.00 359.00 Z"/>
</g>
</svg>
