<svg width="100" height="22" viewBox="0 0 100 22" fill="none" xmlns="http://www.w3.org/2000/svg">
<path d="M100 14.4756C100 13.3778 99.8596 11.1816 99.4388 10.2206C99.1427 9.3145 98.666 8.4748 98.0362 7.75012C97.4458 7.05281 96.6687 6.53011 95.792 6.24055C94.8677 5.83574 93.8597 5.64768 92.8481 5.69135C91.8364 5.64768 90.8284 5.83574 89.9041 6.24055C89.0533 6.58028 88.2871 7.09511 87.6575 7.75012C86.9776 8.4397 86.494 9.29144 86.2548 10.2206C85.7554 11.2482 85.515 12.378 85.5538 13.5153C85.511 14.6391 85.702 15.7598 86.115 16.8093C86.4596 17.7233 86.9836 18.5626 87.6575 19.2798C88.3009 19.9818 89.1241 20.5029 90.0421 20.7894C91.02 21.1818 92.0712 21.369 93.1277 21.3386C93.9416 21.3474 94.7501 21.2078 95.5117 20.9268C96.267 20.6701 96.9768 20.2997 97.6154 19.829C98.2356 19.3303 98.7582 18.7257 99.1579 18.0445C99.4507 17.5215 99.6857 16.9693 99.859 16.3975H95.9337C95.9188 16.5015 95.8694 16.5979 95.7932 16.6718C95.602 16.9788 95.3653 17.2563 95.091 17.4953C94.9858 17.6154 94.8572 17.7136 94.7127 17.7843C94.5682 17.855 94.4107 17.8968 94.2495 17.9071C93.9358 18.0196 93.6015 18.0664 93.2682 18.0445C92.8352 18.0191 92.4092 17.9265 92.006 17.7702C91.6268 17.6228 91.29 17.3874 91.0246 17.0842C90.7105 16.7436 90.4284 16.376 90.1819 15.9858C89.8961 15.5325 89.75 15.0081 89.7612 14.4756H100ZM89.6214 11.5933C89.8013 10.7902 90.2445 10.0666 90.8836 9.53278C91.4467 9.10577 92.1341 8.86546 92.8462 8.84672C93.5626 8.84197 94.2577 9.08494 94.8088 9.53278C95.1263 9.7857 95.389 10.0981 95.5817 10.4516C95.7743 10.8051 95.8929 11.1926 95.9306 11.5915L89.6214 11.5933Z" fill="#1C1E26"/>
<path d="M33.3783 4.17999C33.4614 4.03775 33.5856 3.92275 33.7354 3.84948C33.8851 3.77621 34.0537 3.74794 34.2198 3.76824H36.8847L38.0064 0.474212C36.6548 0.346721 35.2963 0.300818 33.9389 0.336762C30.8532 0.474213 29.4506 2.12122 29.4506 5.41525V20.9262H33.2372V9.12282H36.3229V6.1007H33.2372V5.41465C33.1256 5.00026 33.1759 4.56001 33.3783 4.17999Z" fill="#1C1E26"/>
<path d="M46.5635 16.9461C46.1294 17.3328 45.6197 17.6294 45.0653 17.818C44.5108 18.0067 43.9231 18.0836 43.3375 18.0439C43.0549 18.0701 42.7699 18.0344 42.5031 17.9395C42.2364 17.8446 41.9945 17.6929 41.795 17.4953C41.4773 16.905 41.3317 16.2405 41.3742 15.5746V6.1031H37.5876V15.574C37.5876 19.2798 39.411 21.2017 42.9173 21.2017C44.1796 21.2017 46.4237 20.9274 46.4237 20.9274L50.2104 20.2414V6.1031H46.4237V16.9461H46.5635Z" fill="#1C1E26"/>
<path d="M25.2456 7.75012C24.6553 7.05281 23.8782 6.53011 23.0015 6.24055C22.0772 5.83574 21.0691 5.64768 20.0575 5.69135C19.0459 5.64768 18.0378 5.83574 17.1136 6.24055C16.2623 6.58013 15.4957 7.09497 14.8657 7.75012C14.2359 8.4748 13.7592 9.3145 13.4631 10.2206C13.1177 11.2873 12.9292 12.3966 12.9031 13.5153C12.8603 14.6391 13.0513 15.7598 13.4643 16.8093C13.76 17.7153 14.2364 18.555 14.8657 19.2798C15.4948 19.9346 16.2604 20.4494 17.1105 20.7894C18.0544 21.1292 19.049 21.3148 20.0545 21.3386C21.0661 21.3822 22.0741 21.1942 22.9984 20.7894C23.8483 20.4493 24.6137 19.9345 25.2426 19.2798C25.8732 18.5553 26.3508 17.7156 26.6477 16.8093C26.9934 15.7429 27.1824 14.6338 27.2089 13.5153C27.2516 12.3914 27.0607 11.2707 26.6477 10.2212C26.4087 9.29188 25.9254 8.43994 25.2456 7.75012ZM23.1413 15.574C22.9938 16.1114 22.757 16.6214 22.4403 17.0836C22.1692 17.4714 21.7749 17.7609 21.3185 17.9071C20.8707 18.0773 20.3961 18.1701 19.9158 18.1814C19.4356 18.1701 18.961 18.0773 18.5132 17.9071C18.0924 17.7696 17.8121 17.3579 17.3914 17.0836C17.0485 16.6361 16.8091 16.121 16.6898 15.574C16.5087 14.9019 16.4145 14.2103 16.4095 13.5153C16.4244 12.8209 16.5184 12.1304 16.6898 11.4565C16.8373 10.9191 17.0741 10.4091 17.3908 9.94693C17.6619 9.55906 18.0562 9.26959 18.5126 9.12343C18.9604 8.95322 19.435 8.86041 19.9152 8.84912C20.3955 8.8604 20.8701 8.95321 21.3179 9.12343C21.7468 9.31775 22.1292 9.59811 22.4403 9.94633C22.7826 10.3932 23.0218 10.9074 23.1413 11.4535C23.3224 12.1256 23.4165 12.8172 23.4216 13.5123C23.3975 14.2068 23.3036 14.8974 23.1413 15.574Z" fill="#1C1E26"/>
<path d="M86.2554 5.8288C86.2554 5.8288 86.2554 5.69135 85.1336 5.8288C84.1911 5.98033 83.2866 6.30626 82.4688 6.78916C81.6346 7.27206 80.8783 7.87343 80.2246 8.57362V6.10311L76.4379 7.20151V21.0643H80.2246V20.1039C80.1828 18.6801 80.2768 17.2556 80.5055 15.8489C80.6176 14.7606 80.9006 13.6957 81.3445 12.6918C81.8374 11.6757 82.5008 10.7477 83.3072 9.94633C83.9958 9.33169 84.8077 8.86419 85.6912 8.57362C85.8713 8.50396 86.0599 8.45775 86.2524 8.43617L86.2554 5.8288Z" fill="#1C1E26"/>
<path d="M70.1262 16.9461C69.6921 17.3328 69.1824 17.6294 68.628 17.818C68.0735 18.0067 67.4858 18.0836 66.9001 18.0439C66.6176 18.0701 66.3326 18.0344 66.0658 17.9395C65.799 17.8446 65.5572 17.6929 65.3576 17.4953C65.04 16.905 64.8944 16.2405 64.9369 15.5746V6.1031H61.1502V15.574C61.1502 19.2798 62.9737 21.2017 66.48 21.2017C67.7422 21.2017 69.9864 20.9274 69.9864 20.9274L73.7731 20.2408V6.1031H70.1262V16.9461Z" fill="#1C1E26"/>
<path d="M56.5215 2.67163L52.7348 3.76944V16.3975C52.7016 17.0868 52.7487 17.7775 52.8753 18.4563C52.9765 18.9862 53.1661 19.4962 53.4365 19.9659C53.7416 20.3556 54.1229 20.6821 54.5582 20.9262C55.1943 21.1153 55.8562 21.2078 56.5209 21.2005V9.12283H59.6065V6.10311H56.5209L56.5215 2.67163Z" fill="#1C1E26"/>
<path d="M16.9707 0.338562H0V3.90749H6.592V20.9262H10.5173V3.90749H15.9869L16.9707 0.338562Z" fill="#1C1E26"/>
</svg>
