<svg xmlns="http://www.w3.org/2000/svg" width="163.275" height="34.987" viewBox="0 0 163.275 34.987"><path d="M163.046 23.553c0-1.829-.229-5.488-.915-7.089a11.991 11.991 0 0 0-2.287-4.116 8.126 8.126 0 0 0-3.659-2.515 10.606 10.606 0 0 0-4.8-.915 10.606 10.606 0 0 0-4.8.915 10.448 10.448 0 0 0-3.663 2.515 9.146 9.146 0 0 0-2.287 4.116 11.86 11.86 0 0 0-1.143 5.489 13.837 13.837 0 0 0 .915 5.488 12.448 12.448 0 0 0 2.515 4.116 8.823 8.823 0 0 0 3.888 2.515 12.306 12.306 0 0 0 5.031.915 10.682 10.682 0 0 0 3.887-.686 12.538 12.538 0 0 0 3.43-1.829 10.828 10.828 0 0 0 2.515-2.973 13.988 13.988 0 0 0 1.143-2.744h-6.4a.8.8 0 0 1-.229.457 6.063 6.063 0 0 1-1.145 1.372 1.977 1.977 0 0 1-1.372.686 3.892 3.892 0 0 1-1.6.229 6.677 6.677 0 0 1-2.058-.457 4.1 4.1 0 0 1-1.6-1.143 12.684 12.684 0 0 1-1.374-1.83 4.61 4.61 0 0 1-.686-2.516h16.694Zm-16.922-4.802a6.282 6.282 0 0 1 2.058-3.433 5.464 5.464 0 0 1 3.2-1.143 4.957 4.957 0 0 1 3.2 1.143 5.019 5.019 0 0 1 1.829 3.43ZM54.422 6.4a1.383 1.383 0 0 1 1.372-.686h4.345L61.968.226a53.927 53.927 0 0 0-6.632-.229c-5.031.229-7.318 2.973-7.318 8.461V34.3h6.174V14.635h5.031V9.6h-5.031V8.457a2.868 2.868 0 0 1 .23-2.057ZM75.92 27.669a7.089 7.089 0 0 1-5.26 1.829 3.123 3.123 0 0 1-2.515-.914 6.057 6.057 0 0 1-.686-3.2V9.604h-6.174v15.779c0 6.174 2.973 9.376 8.69 9.376 2.058 0 5.717-.457 5.717-.457l6.174-1.143V9.604h-6.174v18.065ZM41.162 12.348a8.126 8.126 0 0 0-3.659-2.515 10.606 10.606 0 0 0-4.8-.915 10.606 10.606 0 0 0-4.8.915 10.448 10.448 0 0 0-3.665 2.515 11.991 11.991 0 0 0-2.287 4.116 19.655 19.655 0 0 0-.913 5.489 13.837 13.837 0 0 0 .915 5.488 11.991 11.991 0 0 0 2.285 4.116 10.448 10.448 0 0 0 3.66 2.515 14.948 14.948 0 0 0 4.8.915 10.606 10.606 0 0 0 4.8-.915 10.448 10.448 0 0 0 3.659-2.515 11.991 11.991 0 0 0 2.291-4.116 19.655 19.655 0 0 0 .915-5.488 13.837 13.837 0 0 0-.915-5.488 9.146 9.146 0 0 0-2.286-4.117Zm-3.431 13.035a8.454 8.454 0 0 1-1.143 2.515 3.556 3.556 0 0 1-1.829 1.372 6.765 6.765 0 0 1-2.287.457 6.765 6.765 0 0 1-2.287-.457c-.686-.229-1.143-.915-1.829-1.372a6.43 6.43 0 0 1-1.144-2.515 13.841 13.841 0 0 1-.457-3.43 15.559 15.559 0 0 1 .457-3.43 8.453 8.453 0 0 1 1.143-2.515 3.556 3.556 0 0 1 1.829-1.372 6.766 6.766 0 0 1 2.287-.457 6.765 6.765 0 0 1 2.287.457 5.5 5.5 0 0 1 1.83 1.371 6.43 6.43 0 0 1 1.143 2.511 13.841 13.841 0 0 1 .457 3.43 17.652 17.652 0 0 1-.457 3.435ZM140.636 9.147s0-.229-1.829 0a12.257 12.257 0 0 0-4.345 1.6 15.971 15.971 0 0 0-3.659 2.973V9.604l-6.174 1.83V34.53h6.174v-1.6a38.138 38.138 0 0 1 .458-7.089 17.719 17.719 0 0 1 1.368-5.26 16.769 16.769 0 0 1 3.2-4.574 10.94 10.94 0 0 1 3.887-2.287 3.606 3.606 0 0 1 .915-.229ZM140.407 13.721ZM114.338 27.669a7.089 7.089 0 0 1-5.26 1.829 3.123 3.123 0 0 1-2.515-.914 6.057 6.057 0 0 1-.686-3.2V9.604h-6.174v15.779c0 6.174 2.973 9.376 8.69 9.376 2.058 0 5.717-.457 5.717-.457l6.174-1.144V9.604h-5.946ZM92.156 3.887l-6.174 1.829v21.039a15.142 15.142 0 0 0 .229 3.43 8.192 8.192 0 0 0 .915 2.515 6.164 6.164 0 0 0 1.829 1.6 10.6 10.6 0 0 0 3.2.457V14.635h5.031V9.604h-5.031Z"/><path d="M27.67 0H0v5.946h10.748V34.3h6.4V5.946h8.918Z"/></svg>