<svg width="120" height="101" viewBox="0 0 120 101" fill="none" xmlns="http://www.w3.org/2000/svg"><path d="M90.814 30.531h8.205S88.462.888 49.953.888C19.21.888.963 28.427.963 51.508c0 34.456 30.989 49.38 52.006 49.38 22.82 0 35.852-17.346 35.852-17.346l-1.806.036S74.847 97.857 52.969 97.857c-23.984 0-46.709-19.541-46.709-46.385C6.26 34.68 20.93 6.15 49.93 6.15c30.924 0 40.884 24.381 40.884 24.381z" fill="currentColor"></path><path d="M22.469 34.285h-1.074v1.013h1.074v1.945c0 .768.127 1.118.546 1.418.328.254.783.359 1.492.359h1.229v-1.014h-.669c-.355 0-.619-.077-.76-.231-.113-.127-.14-.273-.14-.76v-1.721h1.569V34.28h-1.57v-1.75H22.47v1.755zM31.556 38.011h-1.598c-.505 0-.81-.254-.81-.682v-3.044h-1.697v2.917c0 .664.214 1.127.646 1.44.433.292.838.378 1.825.378h3.33v-4.735h-1.696v3.726zM35.583 34.285v4.735h1.697v-3.727h.496c.837 0 1.087.205 1.087.878v.254h1.634v-.468c0-.718-.127-1.05-.505-1.313-.392-.273-.86-.36-1.898-.36h-2.512zM46.13 38.011h-1.597c-.505 0-.81-.254-.81-.682v-3.044h-1.697v2.917c0 .664.214 1.127.646 1.44.432.292.837.378 1.825.378h3.33v-4.735H46.13v3.726zM50.157 34.285v4.735h1.698v-3.727h1.47c.618 0 .873.187.873.664v3.063h1.697v-2.918c0-.663-.214-1.127-.646-1.44-.432-.291-.837-.377-1.825-.377h-3.267zM99.66 34.28h-8.267V65.9h8.267v-9.052h5.616c3.581 0 4.568.804 4.568 3.649V65.9h8.268v-5.122c0-3.462-.432-5.453-1.542-6.73-1.174-1.377-3.272-2.086-6.048-2.086h-2.284l11.726-9.148h-9.255l-11.044 9.148V34.28h-.005zM66.002 34.28h-8.268V65.9h8.268v-9.052h5.615c3.581 0 4.568.804 4.568 3.649V65.9h8.268v-5.122c0-3.462-.432-5.453-1.542-6.73-1.174-1.377-3.272-2.086-6.048-2.086H74.58l11.726-9.148H77.05l-11.044 9.148V34.28h-.004z" fill="currentColor"></path><path fill-rule="evenodd" clip-rule="evenodd" d="M31.774 51.867c-3.021 0-5.428.19-6.79.523-3.27.804-5.491 3.462-5.491 6.684 0 2.323 1.233 4.363 3.453 5.595 1.852 1.04 3.395 1.231 9.81 1.231h17.401V52.912c0-2.463-.123-3.367-.678-4.694-.987-2.372-3.148-4.172-5.801-4.836-1.975-.472-3.085-.567-8.082-.567H21.65v4.93h13.946c4.997 0 6.293.855 6.293 4.127H31.77l.005-.005zm10.12 4.93v4.172h-9.565c-3.208 0-4.441-.568-4.441-2.035 0-.95.678-1.755 1.788-1.99.452-.095 1.337-.142 2.653-.142h9.565v-.004z" fill="currentColor"></path></svg>
