<svg class="is-biggest" xmlns="http://www.w3.org/2000/svg" width="260" height="109.682" viewBox="0 0 260 109.682"><path d="M128.814 35.289a3.539 3.539 0 01-1.431-1.424 4.385 4.385 0 01-.517-2.177v-5.563h1.941v5.707a2.11 2.11 0 00.581 1.594 2.3 2.3 0 003.011 0 2.124 2.124 0 00.575-1.594v-5.707h1.941v5.563a4.342 4.342 0 01-.524 2.177 3.591 3.591 0 01-1.438 1.424 4.566 4.566 0 01-4.139 0zm8.2-9.163h1.941v9.487h-1.943zm8.8 9.487l-2.862-3.939v3.939h-1.939v-9.487h1.939v5.4l2.559-3.033h2.321l-2.7 3.163 2.889 3.953zm4.549-.33a3.618 3.618 0 01-1.373-1.346 3.656 3.656 0 01-.5-1.89 3.589 3.589 0 01.51-1.883 3.684 3.684 0 011.38-1.336 3.987 3.987 0 013.831 0 3.744 3.744 0 011.394 1.336 3.689 3.689 0 010 3.772 3.726 3.726 0 01-1.394 1.346 3.9 3.9 0 01-1.927.487 3.851 3.851 0 01-1.925-.49zm3.248-1.84a1.915 1.915 0 00.524-1.381 1.962 1.962 0 00-.524-1.394 1.841 1.841 0 00-2.637-.007 1.962 1.962 0 00-.519 1.4 1.911 1.911 0 00.519 1.387 1.876 1.876 0 002.637-.006zm14.394-4.319a2.949 2.949 0 01.719 2.076v4.413h-1.942v-4.134a1.428 1.428 0 00-.344-1.006 1.19 1.19 0 00-.919-.375 1.258 1.258 0 00-.942.375 1.316 1.316 0 00-.367.963v4.181h-1.939v-4.138a1.423 1.423 0 00-.345-1.006 1.193 1.193 0 00-.921-.375 1.256 1.256 0 00-.949.375 1.392 1.392 0 00-.359 1.006v4.139h-1.939v-7.115h1.774v.632a2.51 2.51 0 01.875-.581 3.041 3.041 0 011.137-.209 2.4 2.4 0 012.111 1.022 2.979 2.979 0 011.029-.749 3.257 3.257 0 011.344-.273 2.539 2.539 0 011.973.779zm2.808-1.934a1.123 1.123 0 01-.365-.847 1.14 1.14 0 01.365-.864 1.244 1.244 0 01.884-.345 1.217 1.217 0 01.878.345 1.145 1.145 0 01.359.864 1.128 1.128 0 01-.359.847 1.222 1.222 0 01-.878.344 1.249 1.249 0 01-.888-.344zm-.092 1.307h1.939v7.115h-1.939zm9.831.627a2.943 2.943 0 01.719 2.076v4.413h-1.927v-4.154a1.38 1.38 0 00-.367-1 1.262 1.262 0 00-.955-.381 1.313 1.313 0 00-.97.381 1.35 1.35 0 00-.382 1v4.154h-1.939v-7.115h1.783v.648a2.654 2.654 0 01.912-.59 3.134 3.134 0 011.172-.216 2.519 2.519 0 011.949.784zm2.81-1.934a1.123 1.123 0 01-.365-.847 1.14 1.14 0 01.365-.864 1.244 1.244 0 01.884-.345 1.217 1.217 0 01.878.345 1.145 1.145 0 01.359.864 1.128 1.128 0 01-.359.847 1.222 1.222 0 01-.878.344 1.249 1.249 0 01-.888-.344zm-.092 1.307h1.939v7.115h-1.939zm4.628 6.921a3.354 3.354 0 01-1.25-1.013l.976-1.179a2.771 2.771 0 002 .963 1.277 1.277 0 00.646-.149.481.481 0 00.259-.439.414.414 0 00-.165-.352 2.96 2.96 0 00-.568-.294l-.762-.317a4.388 4.388 0 01-1.459-.892 1.744 1.744 0 01-.482-1.277 1.888 1.888 0 01.726-1.576 2.992 2.992 0 011.89-.567 3.263 3.263 0 012.559 1.078l-.976 1.193a2.277 2.277 0 00-1.6-.676 1.03 1.03 0 00-.56.129.415.415 0 00-.2.374.424.424 0 00.166.338 2.152 2.152 0 00.583.294l.689.287a4.586 4.586 0 011.516.9 1.716 1.716 0 01.482 1.272 1.988 1.988 0 01-.783 1.667 3.169 3.169 0 01-1.992.6 3.856 3.856 0 01-1.7-.364zm10.75-1.385v1.58a5.477 5.477 0 01-1.336.172 3.042 3.042 0 01-2.1-.668 2.556 2.556 0 01-.746-2V30.14h-1.121v-1.638h1.121V26.85h1.939v1.652h2.012v1.638h-2.012v2.8a1.035 1.035 0 00.317.857 1.618 1.618 0 001.006.25zm7.991-1.323h-4.987a1.76 1.76 0 00.7 1.041 2.215 2.215 0 001.3.367 3.2 3.2 0 001.982-.719l.806 1.323a4.307 4.307 0 01-2.846 1.063 4.076 4.076 0 01-2-.489 3.575 3.575 0 01-1.392-1.343 3.661 3.661 0 01-.5-1.891 3.745 3.745 0 01.487-1.89 3.54 3.54 0 011.346-1.343 3.729 3.729 0 011.89-.49 3.428 3.428 0 011.738.438 3.128 3.128 0 011.186 1.193 3.364 3.364 0 01.425 1.675 4.6 4.6 0 01-.142 1.065zm-4.369-2.415a1.912 1.912 0 00-.618 1.049h3.235a1.363 1.363 0 00-.46-1.049 1.586 1.586 0 00-1.078-.388 1.622 1.622 0 00-1.084.388zm10.535-1.8v1.711h-.517a2.01 2.01 0 00-1.4.467 1.778 1.778 0 00-.517 1.387v3.551h-1.939v-7.115h1.783v.85a2.518 2.518 0 01.861-.692 2.481 2.481 0 011.093-.243 2.122 2.122 0 01.631.087zm1.358-1.307a1.119 1.119 0 01-.367-.847 1.136 1.136 0 01.367-.864 1.244 1.244 0 01.884-.345 1.216 1.216 0 01.877.345 1.145 1.145 0 01.359.864 1.128 1.128 0 01-.359.847 1.221 1.221 0 01-.877.344 1.249 1.249 0 01-.889-.342zm-.092 1.307h1.939v7.115h-1.939zm5.44 6.786a3.617 3.617 0 01-1.373-1.346 3.656 3.656 0 01-.5-1.89 3.589 3.589 0 01.51-1.883 3.684 3.684 0 011.38-1.336 3.987 3.987 0 013.831 0 3.744 3.744 0 011.394 1.336 3.689 3.689 0 010 3.772 3.726 3.726 0 01-1.394 1.346 3.9 3.9 0 01-1.927.487 3.851 3.851 0 01-1.926-.488zm-.583-8.171a1.035 1.035 0 01-.359-.769 1.067 1.067 0 01.352-.807 1.174 1.174 0 011.631 0 1.074 1.074 0 01.344.807 1.036 1.036 0 01-.344.774 1.154 1.154 0 01-1.624-.006zm3.831 6.331a1.915 1.915 0 00.524-1.381 1.962 1.962 0 00-.524-1.394 1.841 1.841 0 00-2.637-.007 1.962 1.962 0 00-.519 1.4 1.911 1.911 0 00.519 1.387 1.876 1.876 0 002.637-.006zm-.409-6.331a1.03 1.03 0 01-.359-.769 1.066 1.066 0 01.351-.807 1.16 1.16 0 01.813-.33 1.147 1.147 0 01.818.33 1.072 1.072 0 01.347.807 1.034 1.034 0 01-.347.774 1.153 1.153 0 01-1.623-.006zm-93.532 24.945a3.539 3.539 0 01-1.431-1.424 4.385 4.385 0 01-.517-2.177v-5.563h1.941v5.707a2.11 2.11 0 00.581 1.594 2.3 2.3 0 003.011 0 2.124 2.124 0 00.575-1.594v-5.707h1.941v5.563a4.342 4.342 0 01-.524 2.177 3.591 3.591 0 01-1.438 1.424 4.566 4.566 0 01-4.139 0zm12.769-1.257v1.581a5.486 5.486 0 01-1.336.172 3.042 3.042 0 01-2.1-.668 2.556 2.556 0 01-.746-2v-2.977h-1.121v-1.638h1.121v-1.652h1.939v1.652h2.012v1.638h-2.012v2.8a1.03 1.03 0 00.317.855 1.605 1.605 0 001.006.251zm5.994-5.534v1.715h-.517a2 2 0 00-1.4.467 1.778 1.778 0 00-.517 1.387v3.546h-1.939v-7.115h1.783v.85a2.455 2.455 0 011.954-.936 2.125 2.125 0 01.632.088zm1.357-1.307a1.12 1.12 0 01-.367-.848 1.135 1.135 0 01.367-.862 1.245 1.245 0 01.884-.345 1.216 1.216 0 01.877.345 1.144 1.144 0 01.359.862 1.128 1.128 0 01-.359.848 1.221 1.221 0 01-.877.344 1.249 1.249 0 01-.89-.342zm-.094 1.307h1.941v7.115h-1.941zm8.8 7.115l-2.862-3.939v3.939h-1.95v-9.487h1.939v5.4l2.559-3.033h2.329l-2.7 3.161 2.89 3.954zm9.615-2.9h-4.986a1.756 1.756 0 00.7 1.041 2.218 2.218 0 001.3.367 3.2 3.2 0 001.982-.719l.806 1.323a4.307 4.307 0 01-2.846 1.063 4.071 4.071 0 01-2-.489 3.58 3.58 0 01-1.394-1.343 3.665 3.665 0 01-.5-1.891 3.742 3.742 0 01.487-1.89 3.553 3.553 0 011.346-1.344 3.742 3.742 0 011.89-.489 3.428 3.428 0 011.738.438 3.118 3.118 0 011.186 1.194 3.345 3.345 0 01.425 1.675 4.6 4.6 0 01-.14 1.064zm-4.369-2.415a1.9 1.9 0 00-.617 1.049h3.234a1.363 1.363 0 00-.46-1.049 1.586 1.586 0 00-1.078-.388 1.622 1.622 0 00-1.085.387zm6.726 5.124a3.355 3.355 0 01-1.25-1.013l.976-1.179a2.771 2.771 0 002 .963 1.262 1.262 0 00.646-.151.479.479 0 00.259-.438.411.411 0 00-.165-.352 2.963 2.963 0 00-.568-.294l-.763-.317a4.381 4.381 0 01-1.458-.892 1.744 1.744 0 01-.482-1.277 1.888 1.888 0 01.726-1.576 2.992 2.992 0 011.89-.567 3.263 3.263 0 012.559 1.078l-.978 1.192a2.281 2.281 0 00-1.6-.675 1.027 1.027 0 00-.56.129.414.414 0 00-.2.372.428.428 0 00.165.34 2.23 2.23 0 00.584.294l.689.287a4.587 4.587 0 011.516.9 1.716 1.716 0 01.482 1.272 1.985 1.985 0 01-.784 1.667 3.165 3.165 0 01-1.991.6 3.856 3.856 0 01-1.699-.364zm16.357-6.3a2.955 2.955 0 01.719 2.077v4.414h-1.941V48.24a1.426 1.426 0 00-.344-1.006 1.191 1.191 0 00-.921-.375 1.26 1.26 0 00-.942.375 1.313 1.313 0 00-.367.962v4.183h-1.945V48.24a1.42 1.42 0 00-.345-1.006 1.19 1.19 0 00-.919-.375 1.254 1.254 0 00-.949.375 1.39 1.39 0 00-.359 1.006v4.139h-1.941v-7.115h1.783v.632a2.485 2.485 0 01.877-.581 3.006 3.006 0 011.135-.209 2.4 2.4 0 012.113 1.02 2.988 2.988 0 011.027-.747 3.263 3.263 0 011.346-.273 2.54 2.54 0 011.966.785zm2.809-1.932a1.12 1.12 0 01-.367-.848 1.135 1.135 0 01.367-.862 1.244 1.244 0 01.884-.345 1.216 1.216 0 01.877.345 1.144 1.144 0 01.359.862 1.128 1.128 0 01-.359.848 1.221 1.221 0 01-.877.344 1.249 1.249 0 01-.891-.341zm-.094 1.307h1.941v7.116h-1.947zm9.818.625a2.949 2.949 0 01.719 2.077v4.414h-1.933v-4.154a1.378 1.378 0 00-.367-1 1.265 1.265 0 00-.956-.381 1.309 1.309 0 00-.969.381 1.348 1.348 0 00-.382 1v4.154h-1.939v-7.115h1.783v.648a2.641 2.641 0 01.911-.59 3.113 3.113 0 011.174-.216 2.523 2.523 0 011.953.785zm2.795-1.932a1.124 1.124 0 01-.365-.848 1.139 1.139 0 01.365-.862 1.246 1.246 0 01.885-.345 1.216 1.216 0 01.877.345 1.144 1.144 0 01.359.862 1.128 1.128 0 01-.359.848 1.221 1.221 0 01-.877.344 1.25 1.25 0 01-.892-.341zm-.092 1.307h1.939v7.116h-1.946zm4.628 6.921a3.354 3.354 0 01-1.25-1.013l.976-1.179a2.771 2.771 0 002 .963 1.262 1.262 0 00.647-.151.479.479 0 00.259-.438.411.411 0 00-.165-.352 2.962 2.962 0 00-.568-.294l-.762-.317a4.388 4.388 0 01-1.459-.892 1.744 1.744 0 01-.482-1.277 1.888 1.888 0 01.726-1.576 2.992 2.992 0 011.89-.567 3.263 3.263 0 012.559 1.078l-.976 1.192a2.281 2.281 0 00-1.6-.675 1.032 1.032 0 00-.561.129.414.414 0 00-.2.372.425.425 0 00.166.34 2.193 2.193 0 00.583.294l.689.287a4.586 4.586 0 011.516.9 1.716 1.716 0 01.482 1.272 1.988 1.988 0 01-.783 1.667 3.17 3.17 0 01-1.992.6 3.856 3.856 0 01-1.7-.36zm10.75-1.387v1.582a5.478 5.478 0 01-1.336.172 3.042 3.042 0 01-2.1-.668 2.556 2.556 0 01-.746-2v-2.977h-1.121v-1.638h1.121v-1.652h1.939v1.652h2.012v1.638h-2.012v2.8a1.03 1.03 0 00.317.855 1.608 1.608 0 001.006.251zm7.991-1.321h-4.986a1.756 1.756 0 00.7 1.041 2.218 2.218 0 001.3.367 3.2 3.2 0 001.982-.719l.806 1.323a4.308 4.308 0 01-2.846 1.063 4.067 4.067 0 01-2-.489 3.57 3.57 0 01-1.394-1.343 3.665 3.665 0 01-.5-1.891 3.741 3.741 0 01.487-1.89 3.553 3.553 0 011.345-1.344 3.742 3.742 0 011.89-.489 3.428 3.428 0 011.738.438 3.118 3.118 0 011.186 1.194 3.36 3.36 0 01.425 1.675 4.6 4.6 0 01-.141 1.067zm-4.369-2.415a1.9 1.9 0 00-.617 1.049h3.234a1.363 1.363 0 00-.46-1.049 1.586 1.586 0 00-1.078-.388 1.622 1.622 0 00-1.087.39zm10.535-1.8v1.718h-.517a2 2 0 00-1.4.467 1.778 1.778 0 00-.517 1.387v3.546h-1.939v-7.115h1.783v.85a2.455 2.455 0 011.954-.936 2.119 2.119 0 01.624.088zm1.358-1.307a1.12 1.12 0 01-.367-.848 1.135 1.135 0 01.367-.862 1.245 1.245 0 01.884-.345 1.216 1.216 0 01.877.345 1.144 1.144 0 01.359.862 1.128 1.128 0 01-.359.848 1.221 1.221 0 01-.877.344 1.249 1.249 0 01-.891-.339zm-.092 1.307h1.939v7.118h-1.939zm10.506 4.213h-4.986a1.756 1.756 0 00.7 1.041 2.218 2.218 0 001.3.367 3.2 3.2 0 001.982-.719l.806 1.323a4.307 4.307 0 01-2.846 1.063 4.067 4.067 0 01-2-.489 3.57 3.57 0 01-1.394-1.343 3.664 3.664 0 01-.5-1.891 3.741 3.741 0 01.487-1.89 3.553 3.553 0 011.346-1.344 3.742 3.742 0 011.89-.489 3.428 3.428 0 011.738.438 3.118 3.118 0 011.186 1.194 3.36 3.36 0 01.425 1.675 4.6 4.6 0 01-.142 1.069zm-4.369-2.415a1.9 1.9 0 00-.617 1.049h3.234a1.363 1.363 0 00-.46-1.049 1.586 1.586 0 00-1.078-.388 1.622 1.622 0 00-1.087.392zm10.722 3.737v1.583a5.487 5.487 0 01-1.336.172 3.042 3.042 0 01-2.1-.668 2.551 2.551 0 01-.746-2v-2.977h-1.121v-1.638h1.121v-1.652h1.939v1.652h2.006v1.638h-2.012v2.8a1.03 1.03 0 00.317.855 1.605 1.605 0 001.006.251zM136.82 59.659v9.485h-1.941v-5.95l-2.313 4.025h-1.353l-2.313-4.025v5.95h-1.941v-9.485h1.955l2.975 5.2 2.977-5.2zm2.278 1.064a1.122 1.122 0 01-.367-.848 1.135 1.135 0 01.367-.862 1.246 1.246 0 01.884-.347 1.217 1.217 0 01.877.347 1.144 1.144 0 01.359.862 1.131 1.131 0 01-.359.848 1.221 1.221 0 01-.877.344 1.249 1.249 0 01-.893-.339zm-.092 1.307h1.926v7.114h-1.939zm9.831.625a2.946 2.946 0 01.719 2.077v4.412h-1.927v-4.153a1.378 1.378 0 00-.367-1 1.265 1.265 0 00-.956-.381 1.312 1.312 0 00-.969.381 1.348 1.348 0 00-.382 1v4.153h-1.939V62.03h1.783v.648a2.633 2.633 0 01.912-.59 3.1 3.1 0 011.172-.217 2.524 2.524 0 011.949.789zm2.809-1.932a1.122 1.122 0 01-.367-.848 1.135 1.135 0 01.367-.862 1.246 1.246 0 01.884-.347 1.22 1.22 0 01.878.347 1.148 1.148 0 01.358.862 1.135 1.135 0 01-.358.848 1.224 1.224 0 01-.878.344 1.249 1.249 0 01-.898-.339zm-.092 1.307h1.939v7.114h-1.939zm4.628 6.921a3.355 3.355 0 01-1.25-1.013l.976-1.179a2.771 2.771 0 002 .963 1.276 1.276 0 00.646-.151.479.479 0 00.259-.439.414.414 0 00-.165-.352 3.045 3.045 0 00-.568-.294l-.763-.315a4.427 4.427 0 01-1.458-.892 1.75 1.75 0 01-.482-1.279 1.887 1.887 0 01.726-1.574 2.983 2.983 0 011.89-.567 3.262 3.262 0 012.559 1.077l-.978 1.193a2.281 2.281 0 00-1.6-.675 1.04 1.04 0 00-.56.128.418.418 0 00-.2.374.423.423 0 00.165.338 2.146 2.146 0 00.584.294l.689.288a4.611 4.611 0 011.516.9 1.722 1.722 0 01.482 1.273 1.985 1.985 0 01-.784 1.667 3.165 3.165 0 01-1.991.6 3.856 3.856 0 01-1.703-.36zm10.75-1.387v1.58a5.423 5.423 0 01-1.336.173 3.049 3.049 0 01-2.1-.668 2.558 2.558 0 01-.746-2v-2.977h-1.121v-1.638h1.121v-1.655h1.939v1.652h2.012v1.638h-2.012v2.8a1.03 1.03 0 00.317.855 1.614 1.614 0 001.006.251zm5.994-5.534v1.711h-.517a2 2 0 00-1.4.467 1.777 1.777 0 00-.517 1.385v3.551h-1.939V62.03h1.779v.848a2.46 2.46 0 011.954-.935 2.125 2.125 0 01.63.092zm8.092 0l-1.969 7.029a4.158 4.158 0 01-1.105 2.026 2.778 2.778 0 01-1.9.618 8.482 8.482 0 01-1.566-.172v-1.624c.517.038.847.057.992.057a2.511 2.511 0 001.105-.186 1.036 1.036 0 00.5-.634h-1.02l-2.128-7.114h1.971l1.608 5.534 1.553-5.534zm7.877-.632a.948.948 0 00-.158.632h1.566v1.638h-1.571v5.476h-1.941v-5.476h-1.006V62.03h1.006v-.151a2.346 2.346 0 01.639-1.768 2.509 2.509 0 011.819-.617 5.711 5.711 0 011.35.142v1.6h-1.148a.738.738 0 00-.566.166zm4.059 7.417a3.61 3.61 0 01-1.371-1.344 3.651 3.651 0 01-.5-1.89 3.582 3.582 0 01.511-1.884 3.7 3.7 0 011.378-1.336 3.99 3.99 0 013.832 0 3.754 3.754 0 011.394 1.336 3.7 3.7 0 010 3.774 3.722 3.722 0 01-1.394 1.344 3.888 3.888 0 01-1.927.489 3.846 3.846 0 01-1.933-.485zm3.249-1.84a1.915 1.915 0 00.524-1.381 1.961 1.961 0 00-.524-1.392 1.841 1.841 0 00-2.638-.009 1.971 1.971 0 00-.517 1.4 1.919 1.919 0 00.517 1.388 1.876 1.876 0 002.638-.007zm8.515-4.944v1.711h-.517a2 2 0 00-1.4.467 1.777 1.777 0 00-.517 1.385v3.551h-1.939v-7.114h1.782v.848a2.5 2.5 0 01.862-.691 2.476 2.476 0 011.091-.244 2.128 2.128 0 01.629.091zm5.361-2.371h6.239v1.753h-4.3v2.371h3.514v1.753h-3.522v3.607h-1.941zm8.862 9.156a3.6 3.6 0 01-1.373-1.344 3.651 3.651 0 01-.5-1.89 3.581 3.581 0 01.512-1.884 3.7 3.7 0 011.378-1.336 3.99 3.99 0 013.832 0 3.755 3.755 0 011.394 1.336 3.7 3.7 0 010 3.774 3.722 3.722 0 01-1.394 1.344 3.885 3.885 0 01-1.927.489 3.837 3.837 0 01-1.931-.486zm3.248-1.84a1.915 1.915 0 00.524-1.381 1.961 1.961 0 00-.524-1.392 1.841 1.841 0 00-2.638-.009 1.971 1.971 0 00-.517 1.4 1.919 1.919 0 00.517 1.388 1.876 1.876 0 002.638-.007zm8.515-4.944v1.711h-.517a2 2 0 00-1.4.467 1.777 1.777 0 00-.517 1.385v3.551h-1.939v-7.114h1.783v.848a2.46 2.46 0 011.954-.935 2.125 2.125 0 01.626.09zm7.834 4.211h-4.987a1.755 1.755 0 00.7 1.043 2.218 2.218 0 001.3.367 3.2 3.2 0 001.983-.719l.8 1.323a4.308 4.308 0 01-2.846 1.063 4.087 4.087 0 01-2-.489 3.583 3.583 0 01-1.394-1.344 3.657 3.657 0 01-.5-1.891 3.736 3.736 0 01.489-1.89 3.546 3.546 0 011.344-1.343 3.747 3.747 0 011.89-.49 3.438 3.438 0 011.739.439 3.124 3.124 0 011.185 1.194 3.343 3.343 0 01.425 1.674 4.654 4.654 0 01-.134 1.066zm-4.37-2.415a1.919 1.919 0 00-.617 1.05h3.234a1.368 1.368 0 00-.46-1.05 1.591 1.591 0 00-1.078-.386 1.628 1.628 0 00-1.089.389zm6.23-3.1a1.122 1.122 0 01-.367-.848 1.135 1.135 0 01.367-.862 1.246 1.246 0 01.884-.347 1.217 1.217 0 01.877.347 1.144 1.144 0 01.359.862 1.131 1.131 0 01-.359.848 1.221 1.221 0 01-.877.344 1.249 1.249 0 01-.894-.344zm-.092 1.307h1.926v7.114h-1.939zm11.094 0v6.324a3.37 3.37 0 01-1.006 2.644 3.838 3.838 0 01-2.673.906 5.082 5.082 0 01-3.494-1.323l1.022-1.351a5.705 5.705 0 001.128.682 2.9 2.9 0 001.186.237 2.119 2.119 0 001.38-.422 1.535 1.535 0 00.517-1.259v-.389a2.5 2.5 0 01-.942.634 3.364 3.364 0 01-1.228.216 3.451 3.451 0 01-1.755-.446 3.125 3.125 0 01-1.213-1.25 3.776 3.776 0 01-.439-1.84 3.73 3.73 0 01.446-1.847 3.162 3.162 0 011.221-1.236 3.488 3.488 0 011.741-.439 3.239 3.239 0 011.358.274 2.464 2.464 0 01.969.777v-.892zm-2.442 4.757a1.858 1.858 0 00.533-1.422 1.738 1.738 0 00-.526-1.38 1.864 1.864 0 00-1.272-.46 1.844 1.844 0 00-1.316.5 1.78 1.78 0 00-.524 1.358 1.867 1.867 0 00.531 1.388 1.794 1.794 0 001.309.524 1.771 1.771 0 001.254-.508zm10.334-4.132a2.946 2.946 0 01.719 2.077v4.412h-1.927v-4.153a1.383 1.383 0 00-.365-1 1.267 1.267 0 00-.956-.381 1.313 1.313 0 00-.97.381 1.347 1.347 0 00-.381 1v4.153h-1.941v-7.114h1.783v.648a2.634 2.634 0 01.912-.59 3.106 3.106 0 011.172-.217 2.524 2.524 0 011.943.784zm-126.94 21.6h-3.464l-.374 1.668h-2.028l2.315-9.487h3.65l2.3 9.487h-2.028zm-.359-1.594l-1.006-4.47h-.719l-1.02 4.47zm6.756-4.484a.943.943 0 00-.158.631h1.566v1.64h-1.566v5.476h-1.941v-5.476h-1.018v-1.64h1.006v-.158a2.346 2.346 0 01.639-1.768 2.509 2.509 0 011.819-.618 5.632 5.632 0 011.35.144v1.6h-1.148a.738.738 0 00-.56.166zm5.361 0a.935.935 0 00-.159.631h1.567v1.64h-1.567v5.476h-1.941v-5.476h-1.006v-1.64h1.006v-.158a2.346 2.346 0 01.639-1.768 2.513 2.513 0 011.82-.618 5.64 5.64 0 011.35.144v1.6h-1.149a.737.737 0 00-.571.166zm9.745.631v7.116h-1.823v-.834a2.423 2.423 0 01-.955.749 3.186 3.186 0 01-1.3.257 3.309 3.309 0 01-3.005-1.81 4.332 4.332 0 010-3.823 3.307 3.307 0 013.005-1.812 3.109 3.109 0 011.321.273 2.489 2.489 0 01.963.777v-.892zm-2.444 5.024a1.9 1.9 0 00.531-1.459 1.929 1.929 0 00-.531-1.458 1.829 1.829 0 00-2.573.036 1.955 1.955 0 00-.531 1.422 1.932 1.932 0 00.531 1.417 1.765 1.765 0 001.309.539 1.792 1.792 0 001.254-.502zm4.619-6.331a1.119 1.119 0 01-.367-.847 1.138 1.138 0 01.367-.864 1.244 1.244 0 01.884-.345 1.214 1.214 0 01.877.345 1.147 1.147 0 01.359.864 1.127 1.127 0 01-.359.847 1.214 1.214 0 01-.877.345 1.244 1.244 0 01-.894-.351zm-.092 1.307h1.939v7.116h-1.945zm8.364 0v1.711h-.517a2 2 0 00-1.394.469 1.773 1.773 0 00-.517 1.385v3.551h-1.941v-7.116h1.783v.85a2.489 2.489 0 01.862-.691 2.457 2.457 0 011.091-.244 2.115 2.115 0 01.623.08zm1.969 6.921a3.373 3.373 0 01-1.25-1.012l.978-1.181a2.76 2.76 0 002 .963 1.272 1.272 0 00.646-.149.482.482 0 00.26-.439.414.414 0 00-.165-.352 2.983 2.983 0 00-.57-.294l-.762-.317a4.365 4.365 0 01-1.458-.892 1.739 1.739 0 01-.482-1.277 1.883 1.883 0 01.726-1.574 2.981 2.981 0 011.89-.568 3.26 3.26 0 012.557 1.078l-.976 1.193a2.276 2.276 0 00-1.6-.676 1.045 1.045 0 00-.561.129.44.44 0 00-.036.712 2.134 2.134 0 00.583.294l.689.287a4.619 4.619 0 011.517.9 1.725 1.725 0 01.482 1.273 1.987 1.987 0 01-.784 1.665 3.157 3.157 0 01-1.991.6 3.862 3.862 0 01-1.703-.369zm11.435-.135a3.728 3.728 0 01-1.374-5.12 3.694 3.694 0 011.38-1.336 3.987 3.987 0 013.831 0 3.759 3.759 0 011.4 1.336 3.7 3.7 0 010 3.772 3.741 3.741 0 01-1.4 1.346 3.893 3.893 0 01-1.925.487 3.852 3.852 0 01-1.922-.491zm3.248-1.84a1.915 1.915 0 00.524-1.381 1.956 1.956 0 00-.524-1.392 1.839 1.839 0 00-2.637-.009 1.971 1.971 0 00-.517 1.4 1.919 1.919 0 00.517 1.388 1.875 1.875 0 002.637-.007zm6.5-5.577a.944.944 0 00-.158.631h1.567v1.64h-1.567v5.476h-1.941v-5.476h-1.013v-1.64h1.006v-.158a2.346 2.346 0 01.639-1.768 2.512 2.512 0 011.819-.618 5.624 5.624 0 011.35.144v1.6h-1.148a.741.741 0 00-.561.166zm6.64-1.741h6.239v1.755h-4.3v2.371h3.522v1.753h-3.523v3.607h-1.941zm7.8 1.064a1.123 1.123 0 01-.365-.847 1.142 1.142 0 01.365-.864 1.245 1.245 0 01.885-.345 1.216 1.216 0 01.877.345 1.147 1.147 0 01.359.864 1.128 1.128 0 01-.359.847 1.216 1.216 0 01-.877.345 1.245 1.245 0 01-.895-.35zm-.092 1.307h1.93v7.116h-1.94zm9.815.627a2.944 2.944 0 01.719 2.077v4.412h-1.925v-4.159a1.38 1.38 0 00-.367-1 1.266 1.266 0 00-.956-.379 1.314 1.314 0 00-.97.379 1.355 1.355 0 00-.381 1v4.155h-1.939v-7.116h1.782v.648a2.675 2.675 0 01.912-.59 3.133 3.133 0 011.172-.216 2.524 2.524 0 011.943.784zm2.746-3h1.939v9.487h-1.939zm11.154 2.371v7.116h-1.812v-.834a2.414 2.414 0 01-.955.749 3.181 3.181 0 01-1.3.257 3.305 3.305 0 01-1.775-.482 3.343 3.343 0 01-1.229-1.328 4.319 4.319 0 010-3.823 3.356 3.356 0 011.229-1.33 3.318 3.318 0 011.775-.482 3.115 3.115 0 011.323.273 2.5 2.5 0 01.963.777v-.892zm-2.442 5.024a1.9 1.9 0 00.531-1.459 1.929 1.929 0 00-.531-1.458 1.831 1.831 0 00-2.575.036 1.955 1.955 0 00-.531 1.422 1.932 1.932 0 00.531 1.417 1.768 1.768 0 001.309.539 1.793 1.793 0 001.255-.499zm10.332-4.4a2.944 2.944 0 01.719 2.077v4.412h-1.925v-4.154a1.38 1.38 0 00-.367-1 1.266 1.266 0 00-.956-.379 1.314 1.314 0 00-.97.379 1.355 1.355 0 00-.381 1v4.155h-1.939v-7.116h1.782v.648a2.675 2.675 0 01.912-.59 3.133 3.133 0 011.172-.216 2.524 2.524 0 011.942.784zm9.846-3v9.487h-1.783v-.877a2.353 2.353 0 01-.956.776 3.133 3.133 0 01-1.328.273 3.309 3.309 0 01-3.005-1.81 4.331 4.331 0 010-3.823 3.307 3.307 0 013.005-1.812 2.739 2.739 0 012.127.85v-3.063zm-2.444 7.4a1.9 1.9 0 00.531-1.459 1.929 1.929 0 00-.531-1.458 1.838 1.838 0 00-2.573.028 1.931 1.931 0 00-.531 1.415 1.965 1.965 0 00.524 1.431 1.757 1.757 0 001.316.539 1.792 1.792 0 001.254-.498zm-150.1 6.868a50.712 50.712 0 01-71.718 0 51.269 51.269 0 01-6.632-8.156c.209.217.419.435.632.648a40.191 40.191 0 0041.649 9.5 40.247 40.247 0 0042.035-9.414c.195-.193.385-.391.575-.588a51.257 51.257 0 01-6.541 8.015m12.073-52.488a27.257 27.257 0 00-30.683-9.1q-1.138-1.355-2.4-2.626a40.079 40.079 0 00-12.641-8.558 38.645 38.645 0 0145.049 18.435 50.3 50.3 0 01.678 1.846M69.7 83.197q1.266-1.266 2.4-2.624a27.259 27.259 0 0030.684-9.1 49.537 49.537 0 01-.678 1.844 38.609 38.609 0 01-45.044 18.434 40.033 40.033 0 0012.637-8.556m35.354-35.585a13.658 13.658 0 00-24.012 1.546 39.655 39.655 0 00-7.84-18.67 25.632 25.632 0 0131.217 13.568q.379 1.76.635 3.556m-23.6 7.233a12.016 12.016 0 1112.016 12.016 12.03 12.03 0 01-12.016-12.016m-.408 5.688a13.658 13.658 0 0023.997 1.548q-.256 1.795-.635 3.556A25.619 25.619 0 0173.191 79.2a39.663 39.663 0 007.841-18.671M38.876 79.847a28.809 28.809 0 009.657-6.8 11.507 11.507 0 01-3.822 1.313 25.351 25.351 0 01-6.925 4.145 38.872 38.872 0 01-2.854-4.226 11.863 11.863 0 01-2.164-.483 40.451 40.451 0 003.389 5.293 25.5 25.5 0 01-30.89-13.526q-.49-2.293-.772-4.642a13.668 13.668 0 0017.051 6.078s-1.658-.676-2.4-.973a11.168 11.168 0 01-2.7.3 12.01 12.01 0 01-2.339-23.789 8.662 8.662 0 012.039-1.875 13.585 13.585 0 00-9.457 4.1 13.751 13.751 0 00-2.018 2.629 50.57 50.57 0 01.587-3.254 25.491 25.491 0 0116.353-13.858l-.436-1.593a27.047 27.047 0 00-14.3 9.623c.212-.615.433-1.229.669-1.836a38.589 38.589 0 016.607-8.818 38.193 38.193 0 0127.183-11.26 38.6 38.6 0 0110.876 1.556 40.132 40.132 0 00-6.1 3.308 6.6 6.6 0 011.829.79 38.33 38.33 0 016.695-3.3 38.341 38.341 0 0113.887 8.906q1.014 1.014 1.942 2.09a27.085 27.085 0 00-2.82 1.4 25.959 25.959 0 00-9.541 9.1 6.636 6.636 0 01.44 2.388c1.637-3.571 6.186-7.917 9.92-10.052a25.29 25.29 0 013.1-1.5 38.459 38.459 0 010 47.524c-5.428-2.194-9.933-6.094-13.532-12.85a2.689 2.689 0 01-1.044 1.765 28.382 28.382 0 0013.477 12.419q-.929 1.074-1.942 2.089a38.33 38.33 0 01-13.884 8.906A38.515 38.515 0 0138.876 79.85m-32-8.474a27.137 27.137 0 0030.367 9.1 40.162 40.162 0 0014.97 11.259 38.611 38.611 0 01-10.878 1.554 38.543 38.543 0 01-33.79-20.078 48.441 48.441 0 01-.669-1.834m12.106-52.398a50.712 50.712 0 0171.718 0 51.192 51.192 0 016.541 8.015c-.19-.2-.381-.395-.575-.59a40.263 40.263 0 00-42.041-9.416 40.2 40.2 0 00-41.643 9.5q-.32.322-.632.649a51.269 51.269 0 016.632-8.156m74.637-2.92a54.842 54.842 0 1016.062 38.779 54.483 54.483 0 00-16.062-38.779m-55.465 8.705l1.587.823a.369.369 0 00.31.011c.571-.232 1.442-.361 1.786-.01a1.053 1.053 0 01.2 1.071.1.1 0 00.045.118l.673.345c.1-.1.274-.3.456-.494a27.763 27.763 0 012.893-2.889 1.435 1.435 0 00-1.266-.145l-.109.074-.107-.077a1.149 1.149 0 00-.638-.162 1.3 1.3 0 00-.745.195c.259.278.5.615.409.924a.644.644 0 01-.539.408 1.059 1.059 0 01-.173.018.354.354 0 01-.273-.1.461.461 0 01-.08-.371.427.427 0 00-.126-.429c-.138-.118-.313-.04-.5.044a.923.923 0 01-.381.117.408.408 0 01-.391-.307.54.54 0 01.053-.51 1.01 1.01 0 01.8-.352.855.855 0 01.338.063.661.661 0 00.026-.23.751.751 0 00-.273-.594l-.125-.075.04-.141a1.464 1.464 0 00-.1-.968.3.3 0 00-.261-.121 1.65 1.65 0 00-.841.352l-.131.087-.109-.112c.011.013-.031 0-.108 0a.909.909 0 00-.827.564 1.063 1.063 0 01.629.844c0 .122-.058.416-.507.524a.488.488 0 01-.661-.421c-.041-.158-.075-.259-.185-.323s-.152-.043-.259.044a.507.507 0 01-.317.142.591.591 0 01-.426-.267.532.532 0 01-.115-.581.745.745 0 01.675-.338.8.8 0 01.249.037.67.67 0 00.047-.386.678.678 0 00-.536-.561l-.148-.04.013-.25a1.019 1.019 0 00-.659-1.218 13.921 13.921 0 01-.611 2.987 7.885 7.885 0 00-.386 1.816zm-4.96 9.309c1.853 0 3.3-2.174 5.482-.526l.037-.321a3.193 3.193 0 00-3.814-.783c-1.363.608-2.445.028-2.445-1a1.345 1.345 0 01.85-1.221 1.971 1.971 0 10-.109 3.85m-2.039-6.438l1.486-.531 1.365-.075s.332-.673.351-.746l-.138-.435a2.178 2.178 0 01.249-.548H32.64l-1.5-.531-.267.493a1.184 1.184 0 01.357.914 1.206 1.206 0 01-.359.929l.288.536m13.038-.831c5.214-.118 9.99-.222 10.088-.222a9.467 9.467 0 001.557-.634 7.545 7.545 0 00-1.556-.628l-8.666-.01a53.655 53.655 0 00-1.424 1.493m-21.368.443l.293-.082v-1.755l-.293-.082a.837.837 0 00-1.064.806v.308a.837.837 0 001.064.806m7.428 2.344l-.186-.385v-2.214a1.026 1.026 0 000-1.584v-2.216l.186-.385v-.153h-1.407v.153l.188.385v6.012l-.188.385v.153h1.407zm-5.736 6.834a1.107 1.107 0 00.5 1.006c.409.27 1.272.779 1.748 1.093l2.656-2.87a2.678 2.678 0 01-.745-1.105h-4.064c-.023.6-.053 1.354-.091 1.877m23.482-3.71c0 2.31 1.462 3.522 3.208 4.727.237-.2.554-.439.9-.681-1.753-1.194-3.039-2.153-3.039-4.047a3.793 3.793 0 017.584 0 4.417 4.417 0 01-2.393 3.545 16.148 16.148 0 00-2.908 2.1l-.014-.007a2.252 2.252 0 00-.521-.06c-2.539-.18-3.167 1.972-2.157 2.7.013.857.608 1.557 1.084 1.54a4.494 4.494 0 00.81.631 3.873 3.873 0 00.713-.19 3.153 3.153 0 01.445-3.694 24.974 24.974 0 013.612-2.648 4.728 4.728 0 002.4-3.917 4.621 4.621 0 00-4.828-4.814c-2.262 0-4.9 1.26-4.9 4.814m-20.731-4.763h.978v-3.38l-.978-.3zm-3.386 0h.976v-3.38l-.976-.3zm1.671 0h.976v-3.38l-.976-.3zm-.548 3.563c-.044.686-.124 1.466-.148 2.252h3.392c-.195-.871-.409-2-.568-2.823h-.007l.415-2.282-3.69-.04.494 1.817a3.27 3.27 0 01.112 1.076m4.973 4.69l-2.371 2.68c1.483.97 2.854 1.969 3.261 2.238a9.047 9.047 0 002.209-2.134 5.4 5.4 0 01-1.11-1.56c-.682-.409-1.279-.8-1.989-1.223M26.16 58.101a1.441 1.441 0 00-.374.554 1.722 1.722 0 00-1.23 1.576 10.657 10.657 0 014.665-.18.481.481 0 01.09.271 8.993 8.993 0 00-2.906.507 1.239 1.239 0 00-.041.584 1.549 1.549 0 00.142 1.955c1.839-2.762 5.886-2.853 4.895.251.959.178 1.583-.659 1.986-1.606s-.153-2.383 1.677-2.661a16.036 16.036 0 002.387-.547 3.35 3.35 0 00-.644-1.368 2.3 2.3 0 011.509 1.036c.239-.1.523-.247.759-.365a5.1 5.1 0 00-1.074-1.429 3.746 3.746 0 011.827 1.024c.209-.126.413-.263.612-.4a3.873 3.873 0 00-1.057-1.371 3.636 3.636 0 011.749.824 7.457 7.457 0 00.6-.581c-.8-2.116.577-3.2 2.931-4.284.118-.054.635-.271 1.074-.489a13.979 13.979 0 01-.307-3.467 17.852 17.852 0 00-4.049-.578 16.775 16.775 0 00-5.375 4.044c1.915 1.317.926 7.162-4.564 6.424-1.4-.188-1.959-1.492-2.795-2a1.9 1.9 0 00-.614.256 1.724 1.724 0 00-2.039.6 4.98 4.98 0 013.211 1.925l-.048.166a13.888 13.888 0 00-3-.666m25.5-6.7a4.261 4.261 0 01-.21-.777 9.753 9.753 0 00-1.451-.263c.092-.371.914-.507 1.353-.544a9.9 9.9 0 01-.016-.86 10.172 10.172 0 00-1.283-.26c.094-.382.887-.479 1.34-.509a4.736 4.736 0 01.156-.764c.141.011.283.02.425.02a4.45 4.45 0 001.783-.259 4.681 4.681 0 003.068-4.274 6.389 6.389 0 00-2.617-4.648l-.885.656a5.238 5.238 0 012.349 3.909 3.622 3.622 0 01-5.878 2.545c-2.482-2.339-6.848-6.49-7.309-6.945a7.638 7.638 0 01-8.657.9 11.852 11.852 0 01-7.783 4.426 4.287 4.287 0 01-4.575-2.874 1.885 1.885 0 00-.671.107 1.723 1.723 0 00-2.143.075 5.041 5.041 0 012.685 2.65c-.036.061-.051.1-.087.151a7.274 7.274 0 00-2.746-1.368 1.452 1.452 0 00-.489.436 1.721 1.721 0 00-1.614 1.236 6.876 6.876 0 014.6.956.586.586 0 01.021.232 6.523 6.523 0 00-2.55.283 1.7 1.7 0 00-.08.651 1.73 1.73 0 00-.277 2.258c1.65-2.624 5.268-2.512 4.889-.693a1.787 1.787 0 01-1.029.915c.9.648 2.641-.155 3.768-1.995.845-1.38 4.322-1.878 5.483-.225a3.5 3.5 0 001-.284 4.359 4.359 0 00-1.051-1.571 3.087 3.087 0 011.9 1.107 3.129 3.129 0 00.658-.423 4.205 4.205 0 00-.892-1.364 3.243 3.243 0 011.574.75c.159-.165.459-.483.583-.642 3.346 3.063 7.731 1.89 11.382 3.237-.4 2.332.193 6.412 2.094 8.056 3.326-1.66 5.53 2.123 4.721 5.162-.287 1.078-1.571 1.431-3.558.769a1.244 1.244 0 00-.45.894 1.722 1.722 0 00-.817 1.867 4.606 4.606 0 013.521-.9v.179s-2.154.479-2.741 1.32a1.284 1.284 0 00.215.622 1.72 1.72 0 00.78 1.92 3.164 3.164 0 012.259-2.883 1.484 1.484 0 00.125.149 2.675 2.675 0 00-.975 1.928 1.507 1.507 0 00.385.256 1.729 1.729 0 001.408 1.638 3.272 3.272 0 01.575-3.588c.534-.5 1.2-.716 1.714-.145a1.66 1.66 0 01.172 1.523 1.686 1.686 0 00.845-2.111 8.555 8.555 0 01-.858-4.464 4.227 4.227 0 00-1.1-.2c.148-.3.835-.516 1.176-.534.041-.314.109-.7.175-1a4.472 4.472 0 00-1.279-.456c.232-.332 1.06-.308 1.482-.276a10.331 10.331 0 01.342-.976 2.715 2.715 0 00-1.07-.612 1.817 1.817 0 011.449-.091 2.639 2.639 0 01.391-.511 17.022 17.022 0 00-5.7-3.5M36.18 26.779a.278.278 0 01.358-.162l1.174.439a.188.188 0 01.122.192l-.018.244-1 .354a.32.32 0 01-.379-.244l-.043-.232a.631.631 0 00-.223-.378l-.053-.044zm-1.027-.17c-.17.323-.8 1.421-1.084 1.954a.3.3 0 00.061.361l.4.372a.2.2 0 00.217.037c.227-.1.709-.313.82-.357a1.02 1.02 0 01.2.446 6.725 6.725 0 00-.941.541.939.939 0 00.122.83c.638 0 .828.256.828.867h.479c.165-.827.511-1.444 1.405-1.444.834 0 1.709.855 1.709 2.508 0 1.874-.513 2.771-1.719 2.771-.946 0-1.272-.776-1.419-1.688-.109 0-.325-.009-.359-.009-1.3.695-2.039 3.119-3.079 3.4a3.229 3.229 0 00.323.469.453.453 0 00.513.139 3.991 3.991 0 001.319-.811 2.66 2.66 0 01-.784 1.58 5.349 5.349 0 00.617.33.463.463 0 00.527-.105 7.08 7.08 0 00.9-1.26 3.309 3.309 0 01-.232 1.768c.186.043.372.077.556.1a.729.729 0 00.753-.369 5.624 5.624 0 00.412-1.353 5.074 5.074 0 01.391 1.748c.207-.018.411-.045.608-.08a.682.682 0 00.565-.622 9.389 9.389 0 000-1.509 12.58 12.58 0 01.862 1.718 6.15 6.15 0 00.727-.377.642.642 0 00.261-.807 9.208 9.208 0 01-.47-1.338 3.973 3.973 0 001.181.952.532.532 0 00.655-.132 6.436 6.436 0 00.411-.54 5.071 5.071 0 01-1.262-1.743 4.926 4.926 0 001.3.817.443.443 0 00.585-.25 5.992 5.992 0 00.226-.682 4.932 4.932 0 01-1.533-1.324 4.2 4.2 0 001.135.438.47.47 0 00.587-.44q.006-.264-.013-.529a2.724 2.724 0 01-1.584-.918 2.432 2.432 0 001.458.1 4.856 4.856 0 00-.186-.6 1.868 1.868 0 01-1.185-.922 1.492 1.492 0 00.9.115l-.377-.841a1.9 1.9 0 01-.551-2.072s-.6-.31-.972-.516a.342.342 0 01-.151-.438c.249-.571.332-1.174-1.064-.563a.933.933 0 01-.733-.009c-1.549-.8-3.166-1.62-3.389-1.741a3.13 3.13 0 00-1.05 1.32c.077.226.267.431.125.7m-8.245 43l.729-1.274.047-.082.189-.33 1.138-1.988 1.235-2.16a.793.793 0 00.024-.76.911.911 0 00-.619-.534.888.888 0 00-.463 1.712l-.737 1.29a.387.387 0 01-.519.151 39.9 39.9 0 00-5.318-2.273 2.021 2.021 0 00-.43 1.151 26.446 26.446 0 014.873 2.785.364.364 0 01.088.467l-1.283 2.242a.826.826 0 00-.112.554.888.888 0 101.161-.949m21.406-2.867a15.514 15.514 0 01-7.942 2.5 24.509 24.509 0 01-10.723-2.7 1.835 1.835 0 00.257 1.336 1.837 1.837 0 00-1.334.547 20.887 20.887 0 0012.076 3.875 16.573 16.573 0 0010.771-3.512 3.78 3.78 0 01-3.1-2.05" fill="#fff"></path></svg>
