<svg class="is-bigger" width="130" height="20" viewBox="0 0 130 20" fill="none" xmlns="http://www.w3.org/2000/svg"><g clip-path="url(#clip0_491_359)"><path d="M46.3291 11.1528V0.392902H48.333V10.9499C48.333 13.6553 49.8677 14.811 52.493 14.811C55.0035 14.811 56.5254 13.6553 56.5254 10.9499V0.392902H58.5167V11.1528C58.5167 15.002 55.8279 16.5391 52.417 16.5391C48.9545 16.5391 46.3291 15.0013 46.3291 11.1528ZM67.0269 4.53388C65.3654 4.53388 64.1986 5.24571 63.3362 6.4268H63.2854V4.8018H61.4845V19.9817H63.2854V14.9386H63.3362C64.2874 16.1578 65.4035 16.6278 66.9635 16.6278C70.0835 16.6278 71.9732 14.2775 71.9732 10.5813C71.9732 6.75735 69.944 4.53388 67.0269 4.53388ZM66.824 15.1035C64.1732 15.1035 63.1713 13.0838 63.1713 10.5931C63.1713 8.10412 64.3381 6.059 66.8493 6.059C69.0308 6.059 70.1215 8.01534 70.1215 10.5931C70.1215 13.1979 69.0308 15.1162 66.824 15.1035ZM73.8884 8.33241C73.8884 3.65796 76.6905 0.0369873 81.4339 0.0369873C85.15 0.0369873 87.3949 2.17168 87.8261 5.10619H85.8602C85.4798 3.12449 83.9071 1.76504 81.3832 1.76504C77.8827 1.76504 75.9295 4.5854 75.9295 8.32052C75.9295 12.207 78.0856 14.8364 81.4085 14.8364C84.4144 14.8364 85.8349 12.7913 86.0378 10.4544H88.0163C87.991 12.0295 87.23 13.8075 86.1012 14.9252C84.9851 16.0183 83.3617 16.5898 81.3324 16.5898C76.8173 16.6025 73.8884 13.1599 73.8884 8.33241ZM92.2144 0.392902H90.4134V16.2846H92.2144V0.392902ZM99.9629 4.5093C96.5258 4.5093 94.3951 7.21473 94.3951 10.5559C94.3951 13.8844 96.5258 16.6025 99.9629 16.6025C103.413 16.6025 105.505 13.8963 105.505 10.5559C105.505 7.21473 103.413 4.5093 99.9629 4.5093ZM99.9629 15.0908C97.5151 15.0908 96.2468 13.0964 96.2468 10.5559C96.2468 8.01534 97.5151 5.99558 99.9629 5.99558C102.411 5.99558 103.654 8.01534 103.654 10.5559C103.654 13.0838 102.411 15.0908 99.9629 15.0908ZM114.967 16.2846V14.7095H114.916C114.092 15.8272 113.115 16.5517 111.441 16.5517C109.082 16.5517 107.573 15.1289 107.573 12.7532V4.80101H109.374V12.7152C109.374 14.2014 110.325 15.0774 111.961 15.0774C113.787 15.0774 114.967 13.706 114.967 11.8765V4.80101H116.767V16.2973L114.967 16.2846ZM127.662 0.392902V6.4268H127.624C127.231 5.83383 126.695 5.34955 126.065 5.0188C125.436 4.68805 124.733 4.52153 124.022 4.53467C121.181 4.53467 118.974 6.75735 118.974 10.5813C118.986 14.2649 120.94 16.6278 124.06 16.6152C125.683 16.6152 126.761 16.0048 127.624 14.8871H127.662V16.2846H129.463V0.392902H127.662ZM124.136 15.1035C121.929 15.1035 120.813 13.1979 120.813 10.5931C120.813 8.01534 121.929 6.059 124.11 6.059C126.495 6.059 127.788 7.92577 127.788 10.5931C127.788 13.1979 126.71 15.1162 124.136 15.1035Z" fill="black"/><path d="M36.8931 10.0351C37.3048 10.0352 37.7125 10.1165 38.0929 10.2742C38.4732 10.432 38.8187 10.6632 39.1096 10.9546C39.4006 11.2459 39.6312 11.5918 39.7884 11.9724C39.9456 12.353 40.0263 12.7608 40.0257 13.1725C40.0245 14.0034 39.6942 14.8 39.1071 15.388C38.52 15.976 37.7239 16.3075 36.8931 16.31H14.4704V8.15485H15.9416V14.8499H36.9057C37.1259 14.8499 37.3438 14.8064 37.5471 14.7221C37.7505 14.6378 37.9352 14.5142 38.0907 14.3584C38.2462 14.2026 38.3694 14.0177 38.4534 13.8142C38.5373 13.6107 38.5803 13.3927 38.5799 13.1725C38.5799 12.2451 37.8316 11.496 36.9057 11.496H17.4002V10.0351H36.8931Z" fill="#1C1E26"/><path d="M22.4353 0.405585H14.4704V3.75943H15.9416V1.8665H22.4353C23.3612 1.8665 24.1095 2.61638 24.1095 3.54382C24.1095 4.47126 23.3612 5.22034 22.4353 5.22034H3.13269C2.72092 5.22044 2.31322 5.3017 1.93288 5.45947C1.55255 5.61724 1.20703 5.84842 0.916094 6.1398C0.625156 6.43118 0.394499 6.77704 0.23731 7.15762C0.0801208 7.53819 -0.000518327 7.94602 2.50694e-06 8.35778C0.00104692 9.18881 0.331256 9.98559 0.918363 10.5737C1.50547 11.1619 2.30166 11.4935 3.13269 11.496H12.9865V10.0351H3.13348C2.91336 10.0351 2.6954 9.99169 2.49208 9.90736C2.28875 9.82303 2.10406 9.69943 1.94856 9.54363C1.79306 9.38784 1.6698 9.2029 1.58586 8.99942C1.50191 8.79594 1.45891 8.5779 1.45933 8.35778C1.45933 7.43034 2.20762 6.68126 3.13348 6.68126H22.4234C22.8352 6.68115 23.2429 6.59989 23.6232 6.44213C24.0036 6.28436 24.3491 6.05318 24.64 5.7618C24.9309 5.47042 25.1616 5.12456 25.3188 4.74398C25.476 4.3634 25.5566 3.95558 25.5561 3.54382C25.5561 1.81577 24.1475 0.405585 22.4353 0.405585Z" fill="#1C1E26"/></g><defs><clipPath id="clip0_491_359"><rect width="129.463" height="19.9447" fill="white" transform="translate(0 0.0369873)"/></clipPath></defs></svg>
