<svg width="263" height="23" fill="none" viewBox="0 0 263 23" xmlns="http://www.w3.org/2000/svg"><path d="m17.203.423-5.88 15.285L5.474.423H0l8.932 22.01h4.85L22.646.423h-5.444ZM27.733.423l-8.932 22h5.473l2.041-5.37h7.619l2.07 5.37h5.444l-8.866-22h-4.849Zm.407 11.894 1.985-5.178 1.985 5.178h-3.97ZM63.384 5.169h5.945v17.264h5.076V5.17h5.945V.423H63.384v4.746ZM96.932 14.017c0 2.45-1.655 4.035-4.216 4.035-2.562 0-4.272-1.585-4.272-4.035V.423h-5.086v13.594c0 5.246 3.762 8.772 9.349 8.772 5.586 0 9.291-3.526 9.291-8.772V.423h-5.085v13.594h.019ZM119.256 14.017c0 2.45-1.655 4.035-4.216 4.035-2.562 0-4.272-1.585-4.272-4.035V.423h-5.086v13.594c0 5.246 3.762 8.772 9.358 8.772s9.291-3.526 9.291-8.772V.423h-5.085v13.594h.01ZM142.537 14.43 133.236.424h-5.227v22.01h5.085V8.407l9.301 14.026h5.227V.423h-5.085v14.008ZM178.285 13.902c0 2.565-1.172 4.218-2.977 4.218-1.645 0-2.921-1-3.261-2.537l-.095-.422h-4.848l.085.614c.576 4.237 3.837 7.081 8.119 7.081 4.82 0 8.063-3.603 8.063-8.954V.423h-5.086v13.48ZM193.19.423l-8.932 22h5.473l2.042-5.37h7.618l2.07 5.37h5.444l-8.866-22h-4.849Zm.407 11.894 1.985-5.178 1.985 5.178h-3.97ZM228.609.423h-6.881l-7.76 8.637V.423h-5.086v22.01h5.086V16.43l2.419-2.623 6.078 8.627h5.993l-8.696-12.335 8.847-9.675Z" fill="currentColor"/><path d="M239.128 0c-6.721 0-11.239 4.592-11.239 11.423s4.518 11.433 11.239 11.433c6.72 0 11.248-4.592 11.248-11.433 0-6.84-4.519-11.423-11.248-11.423Zm0 18.12c-3.743 0-6.163-2.623-6.163-6.687s2.42-6.687 6.163-6.687c3.743 0 6.162 2.623 6.162 6.687s-2.419 6.686-6.162 6.686ZM162.83.423l-11.711 22.01h6.143L168.974.423h-6.144ZM52.25 8.54c-2.061-.49-4.197-.989-4.197-1.834 0-1.153 1.53-1.96 3.733-1.96 1.834 0 3.356.855 4.017 2.18h5.123l-.132-.509C59.774 2.584 56.154.01 51.786.01c-5.255 0-8.78 2.69-8.78 6.697 0 4.65 4.706 5.706 8.487 6.561 2.647.596 4.925 1.115 4.925 2.527 0 1.412-1.9 2.325-4.632 2.325-2.987 0-4.971-1.354-5.047-3.449l-.02-.519h-4.857v.548c.103 4.88 4.092 8.157 9.934 8.157 5.841 0 9.679-2.844 9.679-7.071 0-5.073-5.331-6.332-9.216-7.254l-.01.01ZM263 5.002c0 2.73-2.199 5.03-5.016 5.03-2.818 0-4.974-2.27-4.974-5.001 0-2.732 2.185-5.031 5.002-5.031C260.83 0 263 2.258 263 5.002Zm-1.064 0a3.888 3.888 0 0 0-3.924-3.895 3.926 3.926 0 0 0-3.94 3.924 3.876 3.876 0 0 0 3.91 3.895 3.938 3.938 0 0 0 3.954-3.924Zm-2.729.664 1.047 1.594h-1.225l-.767-1.387h-1.092V7.26h-1.061V2.465h2.037c1.268 0 1.977.605 1.977 1.652 0 .752-.324 1.283-.914 1.549h-.002Zm-1.061-.65c.604 0 .959-.309.959-.856 0-.547-.355-.84-.959-.84h-.974v1.696h.974Z" fill="currentColor"/></svg>