<svg xmlns="http://www.w3.org/2000/svg" width="100" height="50.25" viewBox="0 0 200 100.5"><g fill="#fff"><path d="M26 52.5c1.8-3.2 3.4-6.3 4.9-9.3 1.5-3.1 2.9-6.2 4.2-9.3 1.3-3.2 2.4-6.4 3.5-9.8 1.1-3.4 2-7 3-10.8.2-.7.3-1.4.5-2.3.1-.9.3-1.7.5-2.5s.5-1.5.8-2c.3-.6.8-.8 1.3-.8.6 0 1.1.3 1.6.8.4.5.8 1.2 1.1 1.9.3.8.5 1.6.7 2.4.1.9.2 1.6.2 2.3 0 1.4-.2 2.8-.5 4.1-.3 1.4-.7 2.7-1.1 3.9-2.3 7.5-5.1 14.7-8.4 21.5C35 49.4 30.8 56 25.9 62.4c0 .7-.1 1.6-.1 2.6s-.1 1.9-.2 2.8c-.1.9-.3 1.7-.5 2.3-.2.6-.6.9-1 .9-.7 0-1.5-.4-2.4-1.3-.8-.8-1.6-1.8-2.4-3-.8-1.2-1.4-2.3-2-3.5-.6-1.2-.9-2.1-1.1-2.8-.4-1.7-.7-3.4-.9-5.4-.2-1.9-.4-3.8-.6-5.5-.8-5.8-2-11.4-3.5-17-1.5-5.5-3.3-11-5.5-16.4-.3-.7-.6-1.5-1.1-2.4-.2-.8-.6-1.7-1-2.7-.4-.9-.7-1.8-1-2.6-.4-.8-.5-1.4-.5-1.8 0-1.1.5-1.9 1.4-2.5.9-.6 2.1-.9 3.4-.9 1 0 2.1.2 3.2.5 1.1.4 2.2.9 3.3 1.6 1.1.7 2 1.7 2.9 2.8.9 1.1 1.6 2.5 2.1 4.1 2.2 6.6 3.9 13.2 5.3 19.9 1.4 6.7 2.1 13.5 2.3 20.4zm25.3 11.6c1.2.3 2.3.4 3.3.4 1.8 0 3.6-.3 5.2-.9 1.6-.6 3.1-1.4 4.5-2.4s2.7-2.3 3.8-3.7 2.2-3 3.1-4.7c.1-.3.3-.6.5-1s.3-.7.5-1.1c.2-.4.3-.7.4-.9.1-.3.2-.4.2-.4.2 0 .4.2.4.5.1.4.1.7.1 1 0 2.1-.5 4.2-1.6 6.3s-2.5 3.9-4.2 5.5c-1.8 1.6-3.7 2.9-5.9 3.9s-4.4 1.5-6.7 1.5c-4 0-7-1.1-9.1-3.2-2.1-2.2-3.1-5.2-3.1-9 0-2.6.3-5.2.8-7.8.5-2.6 1.3-5.2 2.2-7.7 1-2.5 2.2-4.9 3.6-7.3 1.4-2.3 3-4.5 4.8-6.4.4-.5.9-.9 1.4-1.3.5-.4 1-.6 1.6-.6.6 0 1.3.1 2 .4.7.3 1.4.6 2.1 1 .7.4 1.4.9 2 1.4.6.5 1.2 1 1.7 1.5.4.4.9 1 1.3 1.6.5.6.9 1.3 1.3 2s.7 1.4 1 2.1c.3.7.4 1.4.4 2 0 .5-.1 1.1-.3 1.8-.2.7-.4 1.3-.6 1.7-.7 1.8-1.6 3.4-2.7 4.9-1.1 1.5-2.4 2.7-3.8 3.8-1.4 1.1-3 2.1-4.7 2.8-1.7.8-3.5 1.4-5.3 1.9-.2 1.1-.4 2.3-.5 3.5-.1 1.2-.2 2.3-.2 3.5v1.7c.4.6.5 1.2.5 1.7zm9.4-29.5c-1.1 1.3-2.1 2.6-2.8 3.9-.8 1.2-1.5 2.4-2 3.5-.6 1.1-1 2.1-1.4 3.1-.4.9-.7 1.7-.9 2.4 1.1-.6 2.2-1.3 3.2-2.2 1-.9 2-1.8 2.8-2.9.8-1.1 1.5-2.3 2-3.6.5-1.3.7-2.7.7-4.3l-1.6.1z"/><path d="M80.9 46.8c.7-1.5 1.4-3.1 2.3-4.8.9-1.7 1.9-3.3 3-4.9 1.1-1.6 2.3-3.1 3.5-4.6 1.3-1.4 2.6-2.7 3.9-3.7.3-.2.7-.5 1.1-.8.4-.3.9-.6 1.5-.9.6-.3 1.3-.5 2-.7.7-.2 1.6-.3 2.5-.3.8 0 1.4.2 1.8.5.4.4.6 1 .6 2 0 1.1-.2 2.4-.5 3.9s-.8 2.9-1.3 4.3c-.6 1.4-1.2 2.8-1.9 4.1-.7 1.3-1.4 2.3-2.1 3.2-.4.5-1.1.8-1.8 1.1-.8.2-1.6.4-2.4.4-.4 0-.8 0-1.2-.1-.4-.1-.8-.1-1.1-.3-.4-.1-.6-.2-.9-.4-.2-.1-.3-.3-.3-.5 0-.1 0-.2.1-.3 2-3.3 3.4-6.9 4.1-10.7-1.4 1.5-2.7 3.1-4 4.9-1.3 1.8-2.5 3.6-3.6 5.6-1.1 1.9-2.1 3.9-3 6-.9 2-1.7 4-2.4 5.9l-1 3c-.3.9-.4 2-.4 3.4 0 1 0 2.1.1 3.3.1 1.2.2 2.2.2 2.9 0 .4-.1.6-.2.8-.1.2-.4.3-.8.3-.6 0-1.3-.2-2-.5s-1.4-.8-2-1.4c-.7-.6-1.2-1.2-1.7-1.8-.5-.7-.9-1.3-1.1-1.9-.3-.7-.4-1.4-.6-2.2l-.3-2.4c0-.8-.1-1.6-.1-2.3v-2c0-4.1.3-8.1.9-12 .6-3.9 1.5-7.5 2.8-10.9l.6-1.5c.2-.5.4-1 .7-1.5.3-.4.6-.8.9-1.1.3-.3.7-.4 1.2-.4.6 0 1.3.2 2 .7.7.5 1.4 1.1 2 1.9.6.8 1.1 1.6 1.5 2.6.4 1 .6 2 .6 2.9 0 .8-.1 1.5-.4 2.3-.6 1.5-1.1 3-1.5 4.5-.6 1.3-1 2.8-1.3 4.4zm27.9 17.3c1.2.3 2.3.4 3.3.4 1.8 0 3.6-.3 5.2-.9 1.6-.6 3.1-1.4 4.5-2.4s2.7-2.3 3.8-3.7c1.1-1.4 2.2-3 3.1-4.7.1-.3.3-.6.5-1s.3-.7.5-1.1c.2-.4.3-.7.4-.9.1-.3.2-.4.2-.4.2 0 .4.2.4.5.1.4.1.7.1 1 0 2.1-.5 4.2-1.6 6.3-1.1 2-2.5 3.9-4.2 5.5-1.8 1.6-3.7 2.9-5.9 3.9s-4.4 1.5-6.7 1.5c-4 0-7-1.1-9.1-3.2-2.1-2.2-3.1-5.2-3.1-9 0-2.6.3-5.2.8-7.8.5-2.6 1.3-5.2 2.2-7.7 1-2.5 2.2-4.9 3.6-7.3 1.4-2.3 3-4.5 4.8-6.4.4-.5.9-.9 1.4-1.3.5-.4 1-.6 1.6-.6.6 0 1.3.1 2 .4.7.3 1.4.6 2.1 1 .7.4 1.4.9 2 1.4.6.5 1.2 1 1.7 1.5.4.4.9 1 1.3 1.6.5.6.9 1.3 1.3 2s.7 1.4 1 2.1c.3.7.4 1.4.4 2 0 .5-.1 1.1-.3 1.8-.2.7-.4 1.3-.6 1.7-.7 1.8-1.6 3.4-2.7 4.9-1.1 1.5-2.4 2.7-3.8 3.8-1.4 1.1-3 2.1-4.7 2.8-1.7.8-3.5 1.4-5.3 1.9-.2 1.1-.4 2.3-.5 3.5-.1 1.2-.2 2.3-.2 3.5v1.7c.4.6.4 1.2.5 1.7zm9.4-29.5c-1.1 1.3-2.1 2.6-2.8 3.9-.8 1.2-1.5 2.4-2 3.5-.6 1.1-1 2.1-1.4 3.1-.4.9-.7 1.7-.9 2.4 1.1-.6 2.2-1.3 3.2-2.2 1-.9 2-1.8 2.8-2.9.8-1.1 1.5-2.3 2-3.6.5-1.3.7-2.7.7-4.3l-1.6.1z"/><path d="M156 55.8c.4-.4 1-1 1.9-1.7.9-.8 1.8-1.6 2.9-2.3 1.1-.8 2.1-1.5 3.2-2.1 1.1-.6 2-.9 2.7-.9.1 0 .3 0 .5.1.2 0 .5.1.7.2.3.1.5.2.7.4.2.2.3.4.3.6-1.6 1-3.2 2.1-4.8 3.3-1.6 1.3-3.1 2.6-4.6 3.9-1.5 1.4-2.8 2.8-4.1 4.2-1.3 1.4-2.3 2.7-3.3 4-.3.4-.5.7-.7 1.2l-.6 1.2c-.2.4-.5.6-.8.9-.3.2-.6.4-1.1.4-.7 0-1.4-.2-2.1-.7-.7-.5-1.3-1.1-1.9-1.8-.6-.7-1-1.5-1.3-2.4-.3-.9-.5-1.7-.5-2.6 0-.5 0-.9.1-1.4.1-.5.3-.9.5-1.4 1-1.9 2-3.8 2.8-5.9.9-2 1.6-4.1 2.3-6.2s1.2-4.2 1.7-6.4c.4-2.1.7-4.2.9-6.3-1.4 1.1-2.7 2.4-4 4.1-1.3 1.7-2.6 3.4-3.7 5.3-1.2 1.9-2.2 3.8-3.2 5.7-1 1.9-1.8 3.7-2.6 5.3-.3.6-.6 1.3-.9 2.1-.3.8-.7 1.7-1 2.6-.3.9-.6 1.9-.8 2.9-.2 1-.3 2.1-.4 3.1 0 .5-.1.9-.2 1.3s-.4.6-.9.6c-.6 0-1.2-.2-1.9-.6-.7-.4-1.3-.9-2-1.6s-1.2-1.3-1.6-2c-.5-.7-.8-1.3-1-1.8-.2-.6-.3-1.3-.3-2.2-.1-.9-.1-1.8-.1-2.6 0-4.3.4-8.6 1.2-13 .8-4.4 1.9-8.6 3.3-12.7.2-.5.3-1 .6-1.5.2-.5.4-1 .7-1.4.3-.4.5-.8.9-1 .3-.3.7-.4 1.1-.4.8 0 1.6.3 2.4.8.7.5 1.4 1.2 2 2 .6.8 1 1.6 1.4 2.6.3.9.5 1.8.5 2.5 0 .4 0 .8-.1 1.2-.1.4-.2.8-.4 1.1-.9 2.2-1.7 4.5-2.3 6.8-.6 2.3-1.2 4.6-1.7 7 .4-.9.8-2 1.5-3.3.6-1.3 1.3-2.7 2.2-4.1.8-1.4 1.7-2.9 2.7-4.3s2-2.7 3.1-3.8c1.1-1.1 2.2-2.1 3.3-2.8 1.1-.7 2.3-1.1 3.4-1.1.5 0 1 .2 1.7.6.6.4 1.3.9 1.8 1.4.6.6 1.1 1.1 1.6 1.7.5.6.8 1.1.9 1.5.3.8.4 1.9.4 3.2 0 1.3-.1 2.7-.4 4.3-.2 1.6-.5 3.1-.9 4.7-.3 1.6-.7 3-1 4.4-.1 1.2-.4 2.3-.7 3.1z"/><path d="M188.8 59.6c.2-1.1.6-2.2 1.1-3.4.5-1.2 1.2-2.3 1.9-3.3s1.5-1.9 2.3-2.5c.8-.7 1.6-1 2.5-1 .6 0 1.1.2 1.5.5.4.3.6.6.6.9-1.2.8-2.4 1.8-3.3 3-1 1.2-1.8 2.6-2.5 4.1-.7 1.5-1.2 3.1-1.6 4.8-.4 1.7-.6 3.3-.6 5 0 .3 0 .5.1.6 0 .2.1.3.1.5 0 .5-.4.8-1.3.8-1.2 0-2.3-.3-3.5-1-1.1-.6-2-1.4-2.7-2.2-.5-.6-.9-1.4-1.3-2.6-.4-1.1-.7-2.4-1-3.7-.3-1.3-.5-2.6-.7-3.8-.2-1.2-.3-2.3-.3-3.1-.3.7-.8 1.7-1.6 3-.7 1.3-1.5 2.5-2.4 3.8-.9 1.3-1.9 2.3-2.9 3.3-1 .9-2 1.4-3 1.4-.6 0-1.3-.1-1.9-.4-.6-.2-1.3-.6-1.9-1-.6-.4-1.2-.9-1.7-1.5s-1-1.2-1.3-1.9c-.3-.7-.6-1.5-.7-2.4-.2-.9-.2-3-.2-6.2s1-7.1 2.9-11.7c1.9-4.5 4.8-8.4 8.5-11.6.3-.3.8-.7 1.3-1.1.6-.4 1.2-.9 1.9-1.3s1.4-.8 2.1-1.1c.7-.3 1.4-.5 2-.5.8 0 1.4.4 1.8 1.1.4.7.6 1.7.6 2.9 0 .9-.1 1.7-.3 2.6-.2.9-.4 1.6-.6 2.2.7-.9 1.3-1.3 1.9-1.3.7 0 1.4.3 2.2.8.7.6 1.3 1.2 1.9 2 .6.8 1 1.6 1.3 2.5.3.9.5 1.6.5 2.3 0 .4-.1.9-.2 1.4-.6 2-1 4.1-1.3 6.2-.2 2.1-.4 4.2-.4 6.4 0 1.1 0 2.2.1 3.2-.1 1.2 0 2.3.1 3.3zm-18 1.5c3.1-3.7 5.5-7.7 7.2-12.1 1.7-4.4 2.8-9 3.1-13.7-1.9 1.6-3.5 3.2-4.8 5.1-1.3 1.8-2.4 3.7-3.3 5.7-.8 2-1.5 4-1.9 6-.4 2-.6 3.9-.5 5.7.1 1.6.2 2.7.2 3.3z"/></g><path d="M68 95c0 .7.2 1 .6 1.1.3.1.7.1 1.1.2.1.1 0 .6-.1.6-.8 0-1.7-.1-2.9-.1-1.3 0-2.4.1-2.8.1-.1-.1-.1-.6 0-.6.4-.1.8-.1 1.1-.2.5-.1.6-.4.6-1.2.1-.9.1-2.8 0-4.5v-4.2c0-.6-.1-.8-.5-.9-.2-.1-.7-.1-1.1-.2-.1-.1-.1-.6 0-.6.5 0 1.3.1 2.8.1 1 0 2-.1 2.6-.1.1.1.1.5 0 .6-.4 0-.7.1-1 .2-.4.1-.5.4-.5 1v4.2c0 1.9 0 3.2.1 4.5zm3.1-10.6c.7 0 1.3.1 2.4.1 1.4 0 2 0 2.6-.1.1.1.1.5 0 .6-1.1.2-1.6.3-2.5 1.3-1.1 1.2-2.4 2.7-3.2 3.6v.1c.8 1.4 3.5 4.5 4.8 5.6.3.3.6.4.8.5.4.1.8.2 1.3.2.1.1 0 .6-.1.6-.8.1-3.3.1-3.8-.1-.3-.1-.7-.4-1-.7-1-1-2.9-3.4-3.9-4.8 0-.1-.2-.3-.4-.3 0-.1 0-.3.1-.3.9-.4 2.5-2.1 3.9-3.8.4-.5.6-.9.6-1.1 0-.1-.1-.3-.4-.4-.3-.1-.6-.1-1.1-.2-.1-.2-.1-.7-.1-.8zm10.6 11c-1.2-1.3-1.8-3.1-1.8-4.8 0-1.6.5-3 1.5-4.2 1.2-1.3 3.1-2.2 5.2-2.2 4.1 0 6.3 2.9 6.3 6.3 0 1.6-.4 3-1.2 4.2-1.3 1.8-3.3 2.6-5.4 2.6-1.9-.1-3.5-.8-4.6-1.9zm7.3.2c1.1-1 1.5-2.7 1.5-4.5 0-2.1-.6-4.3-2.1-5.4-.6-.5-1.4-.7-2.3-.7-.6 0-1.3.2-1.7.4-1.3.8-1.9 2.6-1.9 4.7 0 2 .7 4.3 2.3 5.5.7.4 1.4.7 2.3.7.7 0 1.5-.2 1.9-.7zm8.5-11.2c.4 0 2.1.1 2.7.1 1.4 0 2.1-.1 3.9-.1 1.8 0 3.2.4 4.3 1.3 1.3 1.1 2 2.8 2 4.6 0 2.5-1.1 4.1-2.3 5.1-1.4 1.1-3.1 1.5-5.2 1.5-1.2 0-2.8-.1-4.7-.1h-.9c-.1-.1-.1-.6 0-.6.6-.1.9-.1 1.3-.2s.6-.3.7-1c.1-.9.1-2.6.1-4.7 0-1.7 0-3.4-.1-4.2 0-.6-.2-.8-.6-1-.3-.1-.7-.1-1.1-.2-.3.1-.2-.4-.1-.5zm4.4 11.3c.4.4 1.3.5 2 .5.9 0 1.8-.3 2.6-1.1.8-.9 1.4-2.2 1.4-4.4 0-2-.7-3.7-2.2-4.7-.8-.6-1.9-.8-3.1-.8-.4 0-.7 0-.9.1-.1 0-.2.2-.2.3v9.3c0 .3.2.6.4.8zm12.9-11.3c.6 0 1.6.1 2.8.1 1.5 0 2.3-.1 2.8-.1.1.1.1.5 0 .6-.4 0-.8.1-1 .2-.5.1-.5.4-.5 1V95c0 .5.1.9.7 1 .3.1.7.1 1.2.2.1.1 0 .6-.1.6-.6 0-1.6-.1-2.8-.1-1.5 0-2.3.1-3 .1-.1-.1-.1-.6 0-.6.4-.1.7-.1 1-.2.6-.1.7-.4.7-1 .1-.6.1-2.9.1-5 0-1.9 0-3-.1-4 0-.5-.1-.8-.5-.9-.3-.1-.6-.1-1.2-.2-.2.1-.2-.4-.1-.5zm18.5 12.5c-.7 0-1.8-.1-3.1-.1-1.7 0-2.7.1-3.3.1-.1-.1-.1-.6 0-.6.6-.1 1.1-.1 1.3-.2.6-.1.7-.4.8-1.4.1-1.8.1-5.9.1-9.1 0-.1-.1-.2-.1-.2h-2.3c-.4 0-.7.2-.9.6-.3.4-.5 1.1-.8 1.8-.1 0-.7-.1-.7-.2.1-.8.3-2.5.4-3.4 0 0 .1-.1.2-.1.5.2 1.1.3 1.7.3h7.4c1 0 1.6-.1 2.1-.3.1 0 .2.1.2.1-.2.8-.4 2.3-.5 3.5-.1.1-.6.1-.7 0-.1-.7-.2-1.4-.3-1.8-.2-.4-.4-.6-.8-.6h-2.5c-.1 0-.1.1-.1.2 0 2.9 0 8.3.1 9.4 0 .6.2.9.6 1 .3.1.7.1 1.4.2-.1.3-.1.8-.2.8z" fill="#fff"/></svg>
