<svg class="logo" xmlns="http://www.w3.org/2000/svg" width="416" height="130" viewBox="0 0 448 140"><path fill="none" stroke="currentColor" stroke-width=".9972" stroke-miterlimit="10" class="line" d="M16 94.5h176M256 94.5h176"></path><path d="M251.7 117.7 219.4 75c-.3-.4-.7-.7-1.2-.9-.5-.2-1-.2-1.5 0s-.9.5-1.2.9c-.3.4-.4.9-.4 1.4v53.5c-.2 2.5 3.5 3.1 4.4.9l9.7-19.6 19.6 9.8c2.1 1.3 4.6-1.5 2.9-3.3zM59.3 16.8c.2.4.3.8.1 1.3L44.8 61.3c-.3 1-1.1 1.6-2.3 1.6H32.3c-1.3 0-2-.5-2.3-1.6L15.4 18.1c-.2-.5-.1-.9.1-1.3s.6-.6 1.1-.6h12.1c.8 0 1.3.4 1.6 1.3l8.4 27.6c.2.6.4.6.6-.1l7.9-27.5c.2-.9.8-1.3 1.6-1.3h9.4c.5.1.8.3 1.1.6zM74.4 25c0 1.2-.7 1.8-2.1 1.8h-8.9c-.6 0-1.1-.1-1.3-.4-.2-.3-.3-.7-.3-1.2v-7.5c0-1 .4-1.4 1.2-1.4h10.2c.8 0 1.1.4 1.1 1.3V25zm0 36.1c0 .7-.2 1.1-.5 1.4-.3.3-.9.4-1.6.4h-8.9c-.6 0-1.1-.1-1.3-.4-.2-.3-.3-.6-.3-1.2V31c0-1 .4-1.4 1.2-1.4h10.2c.8 0 1.1.4 1.1 1.3v30.2zM90.7 52.7c.6.8 1.3 1.5 2.3 1.9s2.1.6 3.3.6c1.1 0 2.2-.3 3.2-.8s2.3-1.4 3.6-2.8c.2-.2.3-.3.5-.3.1 0 .4.1.8.2l5.7 2.3c.8.3.8.8.3 1.5-1.5 2.1-3 3.7-4.6 4.9-1.5 1.2-3.2 2-5 2.5-1.8.5-3.9.7-6.3.7-3.4 0-6.4-.7-9.1-2.1-2.7-1.4-4.8-3.4-6.3-5.9-1.4-2.4-2.1-5.3-2.1-8.6 0-3.6.8-6.7 2.4-9.4 1.6-2.7 3.8-4.8 6.4-6.3 2.7-1.5 5.5-2.2 8.6-2.2 3.3 0 6.2.7 8.8 2.1 2.6 1.4 4.6 3.5 6.1 6.1 1.5 2.7 2.2 5.9 2.2 9.7 0 .5-.1.9-.2 1.2-.1.2-.4.4-1 .4H90.8c-.3 0-.5.1-.7.3-.2.2-.3.4-.3.8.1 1.3.4 2.4.9 3.2zM98.3 42c.4 0 .7-.1.8-.2.1-.1.2-.3.2-.7 0-.5-.1-1.2-.4-1.9-.3-.8-.8-1.4-1.4-2-.6-.6-1.5-.9-2.5-.9-.8 0-1.6.2-2.4.6-.8.4-1.4 1-1.8 1.9-.4.8-.7 1.9-.7 3.2h8.2zM114.3 62.5c-.2-.3-.3-.6-.3-1.2V31c0-1 .4-1.4 1.2-1.4h9.8c.8 0 1.1.4 1.1 1.3v3.5c0 .3.1.5.4.5.3.1.5-.1.7-.3.7-1 1.5-2 2.6-2.8 1-.8 2.2-1.5 3.3-2 1.2-.5 2.2-.8 3.2-.8 1.5 0 2.3.4 2.3 1.3v9.6c0 .9-.4 1.2-1.3 1-1-.3-2-.4-3-.5-1-.1-1.8-.2-2.4-.2-.7 0-1.3.1-2 .3-.7.2-1.2.6-1.8 1-.5.4-.9.9-1.2 1.4-.3.5-.4 1-.4 1.6v16.7c0 1.2-.7 1.8-2.1 1.8h-8.9c-.6-.1-1-.2-1.2-.5zM153.6 25c0 1.2-.7 1.8-2.1 1.8h-8.9c-.6 0-1.1-.1-1.3-.4-.2-.3-.3-.7-.3-1.2v-7.5c0-1 .4-1.4 1.2-1.4h10.2c.8 0 1.1.4 1.1 1.3V25zm0 36.1c0 .7-.2 1.1-.5 1.4-.3.3-.9.4-1.6.4h-8.9c-.6 0-1.1-.1-1.3-.4-.2-.3-.3-.6-.3-1.2V31c0-1 .4-1.4 1.2-1.4h10.2c.8 0 1.1.4 1.1 1.3v30.2zM174.8 38.1c-.5 0-.8.3-.8.8V51c0 1.1.3 1.9 1 2.5s1.8.8 3.4.8h2.7c.3 0 .6.1.8.4s.3.5.3.9l-.1 5c0 1-.6 1.6-1.8 1.9-.9.1-1.9.2-2.8.3-.9.1-1.9.1-2.8.1h-2.9c-3 0-5.5-.7-7.5-2.2-2-1.4-3-3.5-3-6.2V39.2c0-.8-.3-1.1-.9-1.1h-3c-1 0-1.5-.5-1.5-1.4v-5.9c0-.8.5-1.2 1.4-1.2h3.7c.5 0 .7-.3.8-.8l1-9.3c.1-.8.5-1.3 1.1-1.3h9.2c.8 0 1.2.5 1.2 1.4v9.2c0 .5.2.7.7.7h5.8c.9 0 1.4.4 1.4 1.2v6c0 .9-.5 1.4-1.6 1.4h-5.8zM187.3 73c-.5-.2-.8-.5-.8-1.1v-6.4c0-.3.1-.5.4-.8.3-.3.7-.4 1.4-.4h4.5c.7 0 1.4-.1 1.9-.3.6-.2 1.1-.5 1.4-.8.4-.3.6-.7.8-1.1s.1-.8 0-1.2l-12.2-29.5c-.2-.5-.1-.9.1-1.3s.6-.6 1.1-.6h10.6c.4 0 .7.1 1 .4.3.3.5.5.6.9l5.3 15.1c.1.4.3.6.5.6s.4-.2.6-.6l5.4-15.1c.2-.3.4-.6.7-.9.3-.3.6-.4 1-.4h7c.5 0 .9.2 1.1.6s.2.8 0 1.3L207.4 61c-1.1 2.6-2.2 4.8-3.2 6.4-1.1 1.6-2.3 2.8-3.6 3.7-1.3.9-2.8 1.4-4.5 1.8-1.7.3-3.7.5-6.1.5-1.3-.1-2.2-.2-2.7-.4zM238.7 37.2c-1-.6-2.3-.9-3.8-.9-1.1 0-2 .2-2.8.6-.8.4-1.2.9-1.2 1.6 0 .3.1.6.4.9s1 .5 2.1.8l6.7 1.4c3.9.8 6.6 2.2 8.2 4.1 1.6 2 2.4 4.2 2.4 6.6 0 2.4-.7 4.5-2 6.2-1.3 1.7-3.2 3-5.6 3.8s-5.2 1.3-8.3 1.3c-4 0-7.4-.7-10.1-2-2.7-1.3-4.5-3-5.6-4.8-.2-.4-.3-.7-.3-1.1 0-.3.1-.6.4-.8l5.5-2.8c.5-.3 1-.4 1.2-.3s.5.2.7.4l1.7 1.7c.6.6 1.4 1 2.5 1.4 1 .4 2.4.5 4.1.5.9 0 1.7-.1 2.4-.3.7-.1 1.3-.4 1.7-.7.4-.3.6-.8.6-1.3 0-.4-.2-.8-.5-1.1-.4-.3-1.1-.6-2.4-.8l-6.4-1.1c-3.2-.6-5.7-1.7-7.5-3.3-1.8-1.6-2.7-3.8-2.8-6.7 0-2.2.6-4.1 1.7-5.9s2.9-3.1 5.1-4.1 5-1.5 8.2-1.5c3.4 0 6.4.6 8.8 1.9 2.4 1.2 4.1 2.6 5 4.2.2.3.4.6.5 1 .1.4 0 .7-.5.9l-5.8 2.8c-.4.2-.7.2-1 .1-.3-.1-.6-.3-.8-.6-.7-.9-1.5-1.5-2.5-2.1zM265.5 31.1v1.3c0 .3.1.4.3.4.2 0 .4-.1.6-.3.8-.8 1.7-1.4 2.5-1.9s1.8-.9 2.8-1.2c1-.3 2.2-.4 3.5-.4 2.3 0 4.4.6 6.3 1.9 1.8 1.2 3.3 3.1 4.4 5.6 1.1 2.5 1.6 5.7 1.6 9.7 0 4.2-.6 7.6-1.7 10.2-1.2 2.6-2.7 4.4-4.6 5.5-1.9 1.1-4.1 1.7-6.4 1.7-1.4 0-2.8-.2-4.1-.7-1.3-.4-2.6-1.3-4-2.5-.5-.5-.8-.7-1-.7s-.3.3-.3 1V72c0 .8-.4 1.3-1.1 1.3h-10.2c-.8 0-1.2-.5-1.2-1.4V31.2c0-.5.1-1 .3-1.2.2-.3.7-.4 1.4-.4h9.3c1.1 0 1.6.5 1.6 1.5zm1.8 24.1c.7.5 1.5.7 2.5.7s1.9-.3 2.7-.9c.8-.6 1.3-1.6 1.7-3.1.4-1.5.6-3.5.6-6.2 0-2.4-.2-4.3-.6-5.6-.4-1.3-.9-2.2-1.7-2.8-.8-.5-1.7-.8-2.8-.8-.8 0-1.5.2-2.2.5-.7.3-1.2.7-1.6 1.3-.4.5-.6 1.1-.6 1.8v13.3c.7.8 1.3 1.4 2 1.8zM304.8 62.6c-1.5.6-3.2.9-5.2.9-3.1 0-5.6-.9-7.4-2.6-1.8-1.8-2.7-3.9-2.7-6.5 0-2.5.8-4.6 2.4-6.5 1.6-1.8 3.8-3.3 6.7-4.3 2.9-1 6.3-1.5 10.2-1.5h.4c.2 0 .4-.1.6-.2.2-.1.3-.3.3-.7v-1.1c0-1.2-.3-2.1-.9-2.7-.6-.6-1.5-.9-2.8-.9-.9 0-1.8.2-2.7.6-.9.4-1.7 1.2-2.2 2.4-.2.3-.3.6-.5.7s-.6.1-1.2 0l-8.2-1.6c-.3-.1-.5-.2-.7-.5-.1-.2-.1-.7.2-1.5 1-2.7 2.8-4.6 5.6-5.8 2.7-1.2 6.2-1.7 10.3-1.7 3.9 0 6.9.4 9.1 1.3 2.2.9 3.7 2.1 4.6 3.6.9 1.6 1.4 3.4 1.4 5.4v21.9c0 .6-.1 1.1-.3 1.3-.2.3-.6.4-1.2.4H312c-.5 0-.9-.2-1.2-.7-.2-.4-.4-1-.5-1.5l-.1-.4c-.1-.8-.7-.8-1.7 0-.9.8-2.2 1.6-3.7 2.2zm4.5-14.9h-.3c-.5 0-1.2.1-2 .3-.8.2-1.6.5-2.4.9-.8.4-1.5.9-2 1.5-.6.6-.8 1.4-.8 2.3s.3 1.6.9 2.1c.6.5 1.5.8 2.6.8.8 0 1.5-.1 2.1-.4.6-.3 1-.5 1.4-.8.4-.3.7-.7 1-1 .3-.4.4-.8.4-1.2v-3.3c0-.8-.3-1.2-.9-1.2zM339 61.1c0 .7-.2 1.1-.5 1.4-.3.3-.9.4-1.6.4H328c-1.1 0-1.7-.5-1.7-1.6l.3-43.6c0-1 .4-1.4 1.2-1.4h10.1c.8 0 1.1.4 1.1 1.3v43.5zM378.9 62.3c-.2.4-.6.6-1.2.6H367c-.5 0-1-.1-1.3-.4-.3-.3-.6-.7-.8-1.2l-4.5-10.8c-.2-.4-.3-.7-.5-.7s-.5.1-.8.4l-3 2.8c-.2.2-.3.4-.4.6-.1.3-.2.6-.2 1.1V61c0 .7-.2 1.1-.5 1.4s-.8.4-1.5.4h-8.9c-.7 0-1.1-.1-1.4-.4-.2-.3-.3-.6-.3-1.2V17.7c0-1 .4-1.4 1.2-1.4h10.2c.8 0 1.1.4 1.1 1.3v23.6c0 .2.1.3.2.4.1.1.3 0 .6-.3l9.4-10.6c.7-.7 1.4-1.1 1.9-1.1h8.6c.7 0 1.1.2 1.3.6s0 .8-.4 1.3l-8.1 8.1c-.3.3-.5.6-.5.9 0 .3.1.7.4 1.3l10.1 19.4c.3.3.3.7 0 1.1zM417.2 62.3c-.2.4-.6.6-1.2.6h-10.7c-.5 0-1-.1-1.3-.4-.3-.3-.6-.7-.8-1.2l-4.5-10.8c-.2-.4-.3-.7-.5-.7s-.5.1-.8.4l-3 2.8c-.2.2-.3.4-.4.6-.1.3-.2.6-.2 1.1V61c0 .7-.2 1.1-.5 1.4s-.8.4-1.5.4h-8.9c-.7 0-1.1-.1-1.4-.4-.2-.3-.3-.6-.3-1.2V17.7c0-1 .4-1.4 1.2-1.4h10.2c.8 0 1.1.4 1.1 1.3v23.6c0 .2.1.3.2.4.1.1.3 0 .6-.3l9.4-10.6c.7-.7 1.4-1.1 1.9-1.1h8.6c.7 0 1.1.2 1.3.6s0 .8-.4 1.3l-8.1 8.1c-.3.3-.5.6-.5.9 0 .3.1.7.4 1.3l10.1 19.4c.2.3.2.7 0 1.1zM432 25c0 1.2-.7 1.8-2.1 1.8H421c-.6 0-1.1-.1-1.3-.4-.2-.3-.3-.7-.3-1.2v-7.5c0-1 .4-1.4 1.2-1.4h10.2c.8 0 1.1.4 1.1 1.3V25zm0 36.1c0 .7-.2 1.1-.5 1.4-.3.3-.9.4-1.6.4H421c-.6 0-1.1-.1-1.3-.4-.2-.3-.3-.6-.3-1.2V31c0-1 .4-1.4 1.2-1.4h10.2c.8 0 1.1.4 1.1 1.3v30.2z"></path></svg>