<svg width="91" height="24" viewBox="0 0 91 24" fill="none" xmlns="http://www.w3.org/2000/svg">
<path d="M32.1533 20.5158H32.1461V1.08864H28.9562V23.5046H40.8869V20.5158H32.1533ZM0 1.08864L7.96493 14.5279V23.5046H11.1536V13.6993L3.66973 1.08864H0ZM77.1401 8.74159H80.5775L73.8847 23.5064H70.4486L77.1401 8.74159ZM78.9813 4.68148L80.7291 0.82959L91 23.5046H87.508L78.9813 4.68148ZM15.4749 1.08985H19.1173L13.3218 10.7759H9.67937L15.4749 1.08985ZM58.0926 19.548L56.3466 23.7654L46.9693 1.08985H50.4601L58.0926 19.548ZM65.7269 1.08985H62.2361L56.4588 15.0291H59.9496L65.7263 1.08985H65.7269Z" fill="#1C1E26"/>
</svg>
