<svg class="checkmark-round" width="28" height="28" fill="none" xmlns="http://www.w3.org/2000/svg" viewBox="0 0 31 31" ><style>@media (max-width:600px){.checkmark-round{width:22px;height:22px}}</style><path d="M14.209 21.957a.65.65 0 0 1-.403-.14L7.347 16.65a.648.648 0 0 1 .403-1.151c.146 0 .29.05.403.14l5.934 4.747 8.644-11.73a.645.645 0 0 1 1.159.287.64.64 0 0 1-.12.481l-9.04 12.27a.644.644 0 0 1-.521.263z" fill="#000"/><path d="M15.5 30.999c-8.547 0-15.5-6.953-15.5-15.5s6.953-15.5 15.5-15.5S31 6.952 31 15.499s-6.953 15.5-15.5 15.5zm0-29.708c-7.834 0-14.208 6.374-14.208 14.208 0 7.834 6.374 14.208 14.208 14.208 7.834 0 14.208-6.374 14.208-14.208 0-7.834-6.374-14.208-14.208-14.208z" fill="#000"/></svg>
