<svg version="1.0" xmlns="http://www.w3.org/2000/svg" width="512" height="512" viewBox="0 0 512 512" style="background-color: #fff;"><path d="M0 256v256h512V0H0v256zm319.5-130.7c17.6 4.3 34.9 11.8 48.2 20.9 10.6 7.2 25.8 22.1 33.1 32.4 10.4 14.6 18.2 32.8 21.9 51.2 2.7 13.5 2.5 39.5-.6 53.1-3.8 17.5-9.6 31.3-18.7 45.1-18.8 28.5-47.3 48.1-82.4 56.8l-10.5 2.6-101.7.3-101.8.4V122.9l102.8.4c92.6.3 103.4.5 109.7 2z"/><path d="M204.4 196.9c-.2.2-.4 26.7-.4 58.8V314h37.3c30.1 0 38.4-.3 43.2-1.5 25.9-6.6 43.6-29.5 43.7-56.5 0-25.5-13.3-45.9-36.5-55.5l-7.2-3-39.8-.5c-21.9-.3-40.1-.3-40.3-.1z"/></svg>
