<svg width="275" height="104" viewBox="0 0 275 104" fill="none" xmlns="http://www.w3.org/2000/svg"><path d="M115.158 25.932c0 4.568-1.544 13.476-11.86 13.476-10.378 0-11.932-8.908-11.932-13.476V.909H71.59v26.42c0 16.814 11.849 26.859 31.708 26.859 19.808 0 31.636-10.045 31.636-26.859V.91h-19.776v25.023ZM274.462 15.7V.908h-61.247v53.279h61.247v-14.78h-41.836v-5.904h34.785V21.603h-34.785v-5.904h41.836Z" fill="#fff"/><path fill-rule="evenodd" clip-rule="evenodd" d="M.319.909H38.41c13.194 0 26.66 10.545 26.65 26.64 0 16-13.456 26.639-26.65 26.639H.319V.908Zm19.776 38.499h13.486c6.978 0 11.85-5.487 11.85-11.86 0-6.279-4.871-11.828-11.85-11.828H20.095v23.688ZM141.943.909h38.092c13.195 0 26.661 10.545 26.65 26.64 0 16-13.455 26.639-26.65 26.639h-38.092V.908Zm19.777 38.499h13.486c6.989 0 11.849-5.487 11.849-11.86 0-6.279-4.871-11.828-11.849-11.828H161.72v23.688Z" fill="#fff"/><path fill-rule="evenodd" clip-rule="evenodd" d="M128.857 55.252c.042-.03.021-.083-.052-.156l-.034.013h-.001c-.882.339-1.631.626-2.197.853-.357.133-.844 1.204-1.296 2.198-.327.719-.636 1.397-.863 1.65a1.426 1.426 0 0 1-.345.752.832.832 0 0 0-.156.782c-.125.125-.209.219-.24.302a1.928 1.928 0 0 1-.219.345c-.01.041-.01.062.01.073.021.01.011.052-.02.135a29.35 29.35 0 0 1-.991 2.378 13.385 13.385 0 0 0-.856 2.42c-.25.95-.542 1.888-.855 2.796a74.469 74.469 0 0 0-.907 2.816c-.146.167-.24.344-.282.553a.89.89 0 0 1-.344.521 4.235 4.235 0 0 1-.344 1.137c-.178.355-.324.74-.438 1.168a.397.397 0 0 1-.136.105c-.042.02-.073.062-.073.135a.812.812 0 0 1 0 .386c-.031.125-.063.23-.094.313-.136.334-.25.71-.344 1.137-.094.428-.167.845-.23 1.241.084.031.126.063.105.104-.011.042 0 .105.041.188-.26.584-.365 1.231-.323 1.94.042.71-.062 1.356-.323 1.94.073.073.094.126.062.178a.127.127 0 0 0-.01.156c-.198.25-.209.49-.021.72.188.23.313.51.376.855.281.115.584.177.897.177.323.01.594-.093.824-.292.073.146.177.199.312.178a8.3 8.3 0 0 1 .574-.344c.24-.147.47-.293.689-.449a.211.211 0 0 1 .093.188c.011.083.053.083.126.02.166-.03.239-.093.219-.166a.215.215 0 0 1 .041-.198c.386-.261.616-.574.699-.929.084-.354.324-.647.72-.886a1.884 1.884 0 0 1 .01-.637c.042-.198.199-.302.449-.313-.021-.125-.011-.219.031-.27a.325.325 0 0 0 .052-.23c.24-.271.397-.532.47-.782.083-.261.135-.522.177-.814.219-.303.386-.615.49-.95.115-.333.188-.677.23-1.032.459-.866.845-1.794 1.178-2.785.334-.99.71-1.898 1.148-2.722.146.584.26 1.116.344 1.606.073.49.271 1.012.584 1.554.177.063.334.178.48.355.146.167.271.365.396.563.078.124.153.248.225.37l.13.214c.115.188.219.334.302.428.067.006.123.236.164.406.03.124.053.216.066.168.012-.044.029.232.052.59.039.591.091 1.408.156 1.402.178.161.348.931.505 1.646.137.625.265 1.208.382 1.306.14.111.276.66.41 1.197.116.465.23.921.341 1.076.219.01.428 0 .615-.03.063-.011.136.291.209 1.658.015.268.06.217.105.165.049-.056.098-.112.114.21.016.298.044.681.071 1.058v.001c.025.347.05.69.065.954.018.306.045.624.069.923v.001c.017.2.033.392.045.568.073 1.085.386 1.429.48 1.366.102.068.181-.35.241-.666.069-.362.112-.59.135.207 0 .066.029-.083.075-.322.109-.558.314-1.606.467-1.555.129.07.31.258.442.395.124.129.203.212.152.105-.02-.041.199-.75.303-.27.142-.023.276-.438.401-.826.113-.352.219-.682.319-.677.114.006.229-.234.345-.477.095-.2.192-.401.291-.472.048-.055.096-.674.148-1.331.026-.339.053-.687.081-.974.041-.406.083.023.125.464.044.455.089.924.136.506.034-.296.069-.753.105-1.222.064-.84.131-1.714.198-1.761.176-.108.343-.442.504-.764.134-.27.264-.53.393-.644.008-.07.021-.41.038-.87.045-1.208.12-3.236.233-3.334.146-.125.271-.334.354-.605.021-.041 0-.188-.052-.438.064-.118.131.077.2.283.078.23.161.472.249.301.12-.225.206-1.079.266-1.667.028-.282.051-.504.068-.565.031-.146.052-1.064.052-1.283 0-.219.094-.323.292-.302a1.551 1.551 0 0 1 .062-.866c.105-.302.251-.553.438-.772a1.096 1.096 0 0 1 .011-1.074c.188-.344.344-.689.48-1.012-.032-.052-.042-.104-.021-.146.021-.042 0-.083-.063-.125a9.05 9.05 0 0 0 .814-2.451c.156-.866.323-1.67.501-2.42.083.813.26 1.596.552 2.357.292.751.438 1.554.459 2.389.094.031.167.146.24.354.063.209.104.376.136.501a.675.675 0 0 0 .104.156.262.262 0 0 1 .063.178c.031.866 1.429 8.75 1.919 9.731a2.1 2.1 0 0 1 .198.678c.021.23.083.407.188.532.323.511.532 1.054.636 1.659.104.594.271 1.22.522 1.856-.011.063.02.084.073.042.052-.042.104-.02.146.063 0 .073-.032.104-.094.094-.063-.01-.084.041-.073.135.208.355.302.668.281.95-.021.281.115.636.397 1.053.073-.063.135-.063.187 0 .053.062.105.073.167.052.063-.031.073-.073.042-.146-.031-.073 0-.115.104-.125.219-.084.397-.094.543-.021.015.051.034.159.056.287.054.313.129.747.225.777.209-.084.355-.209.418-.376-.261-.292-.24-.552.052-.782-.105-.188-.094-.344.01-.459a.711.711 0 0 0 .198-.438c.021.104.094.115.251.052.03-.045.06-.263.091-.489.034-.242.069-.494.107-.554a.887.887 0 0 0 .135-.334.455.455 0 0 0 .261.021c.066-.016.112-.032.144-.044l.023-.008c.063.115.073.198.052.26-.021.063.032.116.167.157.146-.062.219-.146.209-.24-.011-.094.052-.177.208-.24a10.77 10.77 0 0 1 .167-2.2c.125-.7.157-1.44.094-2.222 0-.365.042-.72.136-1.043.094-.334.104-.668.041-1.012a.694.694 0 0 0-.114-.177c-.052-.063-.073-.115-.052-.157-.053-.313-1.158-7.614-1.054-7.948.115-.333.094-.688-.063-1.063.02-.045.035-.098.051-.153l.033-.108c.021-.094.042-.188.063-.303a6.664 6.664 0 0 1-.199-1.157c-.041-.439 0-.825.136-1.148a3.65 3.65 0 0 1-.157-1.022c0-.162.003-.323.006-.485.002-.162.005-.323.005-.485 0-.162.003-.323.005-.484v-.001c.003-.162.005-.324.005-.485 0-.324-.031-.657-.094-1.001.136-.46.157-.97.063-1.523a5.033 5.033 0 0 1-.052-1.523 4.617 4.617 0 0 1-.021-1.512c.073-.48.031-.95-.136-1.42.063-.03.084-.072.073-.135a.192.192 0 0 1 .053-.177 2.303 2.303 0 0 1-.021-1.19c.094-.364.073-.75-.063-1.167l.136-.063a2.01 2.01 0 0 1-.042-.897c.063-.302.104-.584.146-.876a54.32 54.32 0 0 1-.073-3.17c.01-1.054.031-2.087.063-3.12a1.662 1.662 0 0 1-.261-.96c.01-.343.031-.656.073-.948a7.743 7.743 0 0 0-.323-.98 2.565 2.565 0 0 1-.188-1.033c-.376-.147-.626-.428-.783-.835a1.825 1.825 0 0 0-.782-.939c-.167-.104-.313-.135-.438-.093-.125.041-.271-.042-.448-.24-.178.01-.345-.01-.48-.073a3.268 3.268 0 0 0-.407-.157c-.302-.01-.626.01-.991.063l-.156.022c-.31.045-.613.088-.908.124-.261.281-.605.51-1.032.688-.126.125-.313.25-.574.397-.261.145-.48.323-.668.542a4.068 4.068 0 0 1-.751 1.481c-.365.459-.594.99-.688 1.606-.104.021-.156.042-.146.094 0 .052-.021.094-.083.115a.89.89 0 0 1-.115.48.865.865 0 0 0-.094.521c-.188.157-.292.324-.323.522-.021.198-.021.365.02.521a.571.571 0 0 0-.281.428c-.021.177-.125.344-.313.49a6.191 6.191 0 0 1-.72 1.982c-.354.615-.521 1.314-.5 2.086-.136.334-.272.647-.428.97-.157.323-.188.689-.094 1.085a6.95 6.95 0 0 0-.49 1.064 2.78 2.78 0 0 0-.178 1.137 5.488 5.488 0 0 0-.813 2.065 9.166 9.166 0 0 1-.657 2.159c.042.25.031.49-.063.71l-.116.29c-.05.124-.097.243-.145.356l-.058.186c-.102.322-.195.613-.265.867l-.282 1.033c-.166.271-.26.542-.302.834-.136.261-.229.532-.302.835a1.225 1.225 0 0 1-.522.73 1.186 1.186 0 0 0-.198-.553c-.125-.198-.094-.354.073-.459a2.377 2.377 0 0 1-.438-1.084 7.757 7.757 0 0 0-.271-1.2c-.23-.24-.386-.48-.48-.73-.043-.114-.049-.468-.056-.853-.008-.464-.016-.972-.09-1.16-.183-.112-.283-.719-.374-1.277-.071-.428-.136-.828-.231-.955a8.072 8.072 0 0 0-.751-.824 18.096 18.096 0 0 0-1.826-.647c0-.073.021-.125.063-.157Zm-8.991 40.168h-.084c-.031.021-.052.031-.083.031-.031 0-.052.01-.083.042a3.231 3.231 0 0 0-.491-1.178 11.722 11.722 0 0 1-.646-1.043c-.063-.167-.188-.334-.386-.501-.198-.167-.261-.323-.178-.48-.114.01-.187-.052-.229-.167-.042-.115-.136-.167-.271-.135.021-.063.041-.126.031-.167 0-.042.01-.115.031-.23-.302-.094-.479-.271-.532-.542-.052-.271-.208-.48-.49-.647-.083-.062-.073-.136.031-.23a2.191 2.191 0 0 0-.438-.354c-.177-.115-.208-.292-.073-.532.272.031.418.125.418.271 0 .157.062.271.177.344.073-.114.094-.26.052-.438a1.477 1.477 0 0 0-.24-.521 1.53 1.53 0 0 0-.407-.71 5.143 5.143 0 0 0-.782-.657c-.052-.041-.073-.083-.042-.125.021-.041.052-.104.073-.167a9.436 9.436 0 0 1-.751-1.084c-.187-.324-.5-.751-.918-1.273-.031-.02-.01-.052.042-.104.052-.042.063-.104.042-.167a2.326 2.326 0 0 0-.23-.073c-.041-.01-.073-.042-.104-.104.125-.198.125-.397-.021-.585-.146-.187-.125-.385.063-.584-.167-.125-.198-.27-.094-.448.104-.177.073-.303-.094-.386.303-.876.459-1.731.459-2.555 0-.825.115-1.638.344-2.452a.49.49 0 0 1 .146-.532c-.031-.02-.052-.03-.083-.03-.031 0-.073-.022-.125-.063.24-.292.313-.584.219-.887-.094-.302.021-.626.344-.99a4.353 4.353 0 0 1 .136-1.743c.156-.605.187-1.2.093-1.773a2.71 2.71 0 0 0 .365-.814c.063-.25.105-.51.126-.771.02-.261.052-.522.104-.783.042-.26.146-.532.302-.792a3.4 3.4 0 0 1 .219-1.492c.188-.5.261-.99.219-1.492.157-.27.24-.532.261-.792a2.63 2.63 0 0 1 .219-.824 6.222 6.222 0 0 1 .198-1.763c.146-.574.178-1.127.073-1.658.021-.063.032-.126.011-.178-.021-.052.031-.104.135-.156a5.354 5.354 0 0 1 .303-2.19c.052-.887.094-1.732.115-2.525a10.8 10.8 0 0 1 .323-2.367c-.136-.105-.188-.23-.136-.386.043-.128.072-.235.098-.333l.017-.064c-.146-.23-.188-.459-.146-.678.052-.219.052-.448.021-.678-.167.01-.24-.052-.229-.167a.471.471 0 0 0-.115-.333c-.104.052-.167.146-.177.281-.011.146 0 .261.031.376a4.392 4.392 0 0 1-.814-.428 11.018 11.018 0 0 0-.897-.521 5.093 5.093 0 0 0-.959-.376 2.28 2.28 0 0 0-.991-.052.766.766 0 0 1-.178.219c-.062.052-.041.104.063.146-.136-.01-.323.01-.553.073-.229.063-.365.042-.396-.063a1.15 1.15 0 0 0-.511.073c-.146.063-.334.073-.553.042-.052.136-.167.23-.365.282a1.032 1.032 0 0 1-.532.02 7.939 7.939 0 0 1-.981.846c-.333.24-.667.49-.98.75-.323.25-.605.522-.855.804-.251.281-.47.615-.647.99a3.117 3.117 0 0 0-.459.46 5.11 5.11 0 0 0-.261.385c-.083.136-.167.272-.25.418-.094.146-.261.323-.501.532-.077.135-.157.282-.242.437-.293.536-.633 1.157-1.03 1.66-.294.37-.295.656-.296.944-.001.214-.002.43-.121.682a2.141 2.141 0 0 0-.741.7 2.986 2.986 0 0 0-.407.875 5.23 5.23 0 0 0-1.095 1.241 8.334 8.334 0 0 1-.97 1.262c.031.021.01.063-.042.136-.052.073-.041.115.042.125-.052.042-.104.053-.146.021-.042-.031-.094-.02-.146.021a11.639 11.639 0 0 1-1.043 1.565c-.355.438-.772.907-1.252 1.408-.219.052-1.158.02-1.23-.094a1.041 1.041 0 0 0-.272-.292 5.052 5.052 0 0 0-.657-.167 1.365 1.365 0 0 1-.626-.26.659.659 0 0 1-.23-.262c-.04-.094-.145-.135-.312-.135-.104.01-.146 0-.125-.031.02-.021.01-.053-.042-.094-.47 0-.97-.052-1.523-.157a4.38 4.38 0 0 0-1.648.01c0 .084-.052.157-.177.22a1.561 1.561 0 0 1-.303.125c-.026.02-.052.044-.078.068a1.818 1.818 0 0 1-.078.067c-.052.042-.063.084-.042.105l-.047.017c-.071.026-.15.055-.234.097-.105.053-.261.042-.449-.01-.052.042-.073.104-.052.177.014.05.019.104.023.16l.008.08c-.118.05-.212.092-.281.123-.06.026-.102.045-.126.054a2.775 2.775 0 0 0-.218.113l-.063.034c.114.083.083.156-.073.229-.167.073-.198.167-.115.26l-.365.314a.393.393 0 0 1-.094.146c-.042.031-.073.104-.094.219.23.427.522.813.876 1.178.355.365.72.73 1.106 1.116.386.386.772.783 1.168 1.2.397.417.762.876 1.106 1.377-.029.057-.04.114-.05.163l-.002.014c-.01.052-.073.104-.178.157l.292.208a.593.593 0 0 1-.135.282.507.507 0 0 0-.094.313c-.48.459-2.691 3.515-3.056 4.182a12.736 12.736 0 0 0-.845 1.857c.271-.052.511-.24.699-.543.198-.302.427-.438.71-.406-.126.24-.293.459-.47.636-.188.188-.386.365-.605.553l.083.062c.052.042.084.042.084 0 0-.041.052-.083.156-.135.063.208-.083.407-.438.573.063.126.063.24.01.324a1.486 1.486 0 0 1-.198.271 1.165 1.165 0 0 0-.198.303c-.052.114-.031.219.052.323.071-.062.15-.116.235-.176l.047-.033c.104-.073.198-.073.292-.01.02-.157.115-.23.282-.24a.468.468 0 0 1 .03.438 2.81 2.81 0 0 1-.25.448 2.803 2.803 0 0 0-.25.449.713.713 0 0 0-.052.438c.167-.052.334-.156.522-.313.107-.09.205-.176.294-.255l.185-.162c.032.104-.052.219-.24.334-.187.115-.25.219-.198.302.031.063.073.073.146.042.073-.031.125-.031.188.01 0 .084-.01.178-.031.261-.021.084-.094.177-.198.271.062.126.125.188.187.167.073-.01.125 0 .188.042a3.15 3.15 0 0 0 .323-.313c.08-.09.168-.169.266-.257l.016-.014c.031-.021.042-.021.042 0 0 .02.01.02.041 0 .752-.689 1.44-1.314 2.087-1.888.35-.317 1.245-1.4 2.08-2.41.677-.819 1.315-1.59 1.591-1.867.615.49 1.356 1.096 2.232 1.815.866.72 1.575 1.356 2.107 1.91.063.082.063.156.031.208a.28.28 0 0 0-.052.208c.084.021.136-.01.167-.073.031-.062.063-.083.125-.041-.052.041 0 .073.146.073s.157.062.021.177a7.34 7.34 0 0 1 1.502 1.304c.407.49.866.96 1.377 1.408.115.167.282.313.49.448.209.136.303.313.282.553.143.072.248.112.307.136l.027.01c.052.021.114.052.167.094a60.518 60.518 0 0 1-.23 4.986 25.813 25.813 0 0 0 .021 4.84c.136.062.24.166.292.312.063.146.094.292.094.418.198.052.313.198.365.417.012.054.032.267.06.56v.001c.089.946.257 2.731.503 2.787.115.167.146.292.094.386.128.018.241 1.044.339 1.923.069.628.13 1.181.183 1.237.125.136.239.199.354.199a.496.496 0 0 0-.083-.126c-.032-.02-.052-.062-.084-.125.115.167.334.261.647.282.154.01.309-.675.462-1.354.157-.698.313-1.39.466-1.316.052.041.063.104.011.198-.052.094-.011.115.125.094.073-.157.25-.282.521-.386a.939.939 0 0 1-.281.375c.135.105.344.125.615.073a.446.446 0 0 0 .115-.135c.021-.042-.042-.105-.209-.188l.324-.271c-.052 0-.052-.021 0-.063.052-.042.041-.083-.042-.094.052 0 .104-.031.146-.083.042-.052.104-.073.188-.063 0 .042-.032.073-.105.084-.073.01-.114.052-.146.125.084-.031.199-.042.345-.031.146 0 .239.041.271.104l.605-1.971c.25-.032.5-.032.761.01s.47-.115.626-.47a.648.648 0 0 1-.136-.417c-.01-.177.084-1.773.272-1.888l-.334-.24.024-.212c.055-.469.108-.929.153-1.373.052-.51.104-1.053.136-1.617.563.407 1.105.866 1.627 1.367.521.5 1.064.834 1.617.98 0 .126.083.25.24.365.156.115.219.261.198.46.135-.032.219-.011.25.052.031.062.115.083.25.052.157-.23.167-.397.021-.522-.135-.125-.229-.26-.261-.407a.696.696 0 0 0 .167.094c.033.013.089.026.166.044.048.01.104.024.168.04a.583.583 0 0 0 .094.417.4.4 0 0 1 .052.386c.271-.01.449.062.543.23.083.166.114.312.093.416.053-.041.105-.052.146-.02.042.03.094.02.146-.021.084-.073.094-.136.053-.22-.042-.072-.011-.114.104-.114.135-.115.135-.157 0-.125-.136.031-.23 0-.292-.084a.597.597 0 0 1 .198-.104l.365-.115c.167.209.334.355.511.428.167.083.292.24.386.47.136-.074.209-.115.219-.126l.219-.188c-.219-.083-.229-.25-.104-.49ZM108.1 66.757c-.323.97-.511 1.93-.532 2.89a13.945 13.945 0 0 0-.855 3.003c-.083.49-.164.984-.245 1.476-.081.493-.162.986-.245 1.476l-.198.178a12.252 12.252 0 0 0-1.68-1.888c-.605-.543-1.147-1.21-1.637-1.982.135-.115.156-.209.073-.292-.084-.084-.104-.209-.052-.386-.167.052-.271.02-.313-.094a.561.561 0 0 0-.146-.24 47.886 47.886 0 0 0 3.39-3.577 91.696 91.696 0 0 1 3.108-3.463c-.125.96-.344 1.93-.668 2.9Zm11.442 18.327c-.073-.136-.166-.188-.292-.136.063.042.084.084.084.115s.01.083.042.135c.073 0 .104-.01.093-.041-.01-.021.021-.042.073-.073Zm6.186-11.349c.062-.094.115-.177.146-.26.031.062.031.146-.011.26a.546.546 0 0 1-.167.272c-.041-.084-.031-.178.032-.272ZM150.886 84c-.073-.073-.083-.115-.021-.146.063-.021.073-.063.052-.125a.463.463 0 0 1-.208-.042c-.063-.02-.146.02-.24.125l.062.125a.36.36 0 0 0 .199.021.19.19 0 0 1 .156.042Zm9.231 16.845c-.042-.031-.084-.063-.136-.094.042.125.115.24.209.355a1.202 1.202 0 0 1-.073-.261Zm20.089-16.261c.157.167.261.282.198.23a.63.63 0 0 1-.198-.23Zm2.096-16.25-.031-.032c.689.323.574.355.031.031Zm2.765 18.983a1.54 1.54 0 0 1-.178-.303c-.041-.094-.031-.198.032-.323-.345-.23-.47-.438-.397-.647.104.063.157.125.146.167 0 .042.021.052.084.021l.094-.042a27.29 27.29 0 0 1-.564-.646c-.061-.072.024.006.158.128.253.232.679.623.604.445.281.021.511.188.678.522.177.334.396.553.667.646-.086-.332-.56-1.072-1.021-1.791-.378-.59-.747-1.165-.888-1.494-.251-.579-3.647-4.444-5.2-6.211l-.002-.002a81.957 81.957 0 0 1-.732-.838.475.475 0 0 0-.073-.323.624.624 0 0 1-.115-.303l.313-.167c-.105-.062-.167-.125-.167-.188l-.006-.03c-.009-.046-.019-.098-.036-.157.386-.438.793-.835 1.22-1.179.428-.344.856-.678 1.263-.99.417-.314.813-.627 1.189-.93.386-.302.709-.635.97-1.021-.021-.115-.042-.188-.084-.23a.358.358 0 0 1-.083-.167l1.064-1.095c.094-.094.062-.188-.094-.282-.157-.104-.178-.177-.063-.24-.078-.058-.693.18-1.157.36-.278.108-.503.195-.522.183-.017-.01.034-.066.102-.141.139-.152.351-.384.211-.474.005-.044-.181.012-.356.065-.16.049-.311.095-.301.06.021-.073.01-.136-.042-.188-.198.02-.355 0-.459-.063-.056-.033.298-.275.625-.498.28-.192.54-.369.502-.388.031-.01.02-.052-.032-.105l-.125-.125c-.044-.029-.092-.058-.143-.089a4.608 4.608 0 0 1-.191-.12c-.114-.083-.177-.166-.167-.25-.34-.13-1.24.072-2.002.243-.451.101-.855.192-1.064.195a8.1 8.1 0 0 1-1.554-.104c-.063.032-.073.063-.052.084.02.03-.021.03-.126.01-.166-.031-.271-.01-.323.073a.556.556 0 0 1-.261.22 1.436 1.436 0 0 1-.646.156c-.23 0-.449.01-.678.052a1.002 1.002 0 0 0-.303.25c-.083.104-.229.115-.448.02a24.373 24.373 0 0 1-1.158-1.605c-.323-.501-.636-1.075-.939-1.721-.052-.052-.094-.073-.146-.052-.042.02-.094.01-.146-.053.084 0 .104-.041.052-.114-.052-.073-.062-.126-.031-.136-.344-.47-.636-.939-.887-1.419-.24-.48-.584-.949-1.011-1.418a3.245 3.245 0 0 0-.345-.939 2.43 2.43 0 0 0-.698-.824c-.24-.646-.595-1.324-1.075-2.044a16.358 16.358 0 0 1-1.158-2.065c-.229-.25-.386-.449-.459-.605-.056-.105-.107-.21-.157-.313l-.04-.082-.032-.064a5.699 5.699 0 0 0-.229-.428 4.164 4.164 0 0 0-.428-.532 4.583 4.583 0 0 0-.584-1.095 7.458 7.458 0 0 0-.803-.939 40.685 40.685 0 0 0-.939-.907 10.729 10.729 0 0 1-.928-1.002c-.084.006-.144-.256-.207-.529-.062-.272-.127-.556-.221-.597-.188-.084-.303-.198-.344-.334-.23 0-1.711-.334-1.857-.417a1.28 1.28 0 0 0-.511-.157c-.042.105-.167.105-.396 0-.119-.055.108.269.327.581l.002.003.088.126a2.211 2.211 0 0 0-.866-.084 4.407 4.407 0 0 0-.991.209c-.323.104-.636.23-.949.375a5.214 5.214 0 0 1-.553.209c-.077-.04-.166-.097-.25-.15-.156-.1-.292-.186-.292-.132 0 .053.091.202.185.356.131.213.267.434.17.416-.028.12-.204.064-.363.014-.147-.046-.278-.088-.263.017.031.23-.032.438-.198.647l.011.063c.017.1.038.215.072.344.042.167-.01.282-.167.355.136.813.188 1.616.146 2.409a62.462 62.462 0 0 0-.073 2.524c.198.74.25 1.481.146 2.232.104.063.146.126.125.178a.257.257 0 0 0 0 .177c-.089.343.129.98.321 1.54.1.293.193.565.232.765.056.317-.081.45-.231.596-.131.127-.272.263-.301.541.104.313.167.595.167.855 0 .261.073.543.209.835-.084.49-.042.99.114 1.512.157.522.199 1.033.115 1.513.136.292.219.573.25.844.032.272.042.532.042.793 0 .26.021.522.063.782.041.261.146.553.313.866a4.043 4.043 0 0 0-.042 1.773c.115.626.115 1.21 0 1.753.292.417.386 1.491.271 1.762-.115.282-.062.585.157.918a.319.319 0 0 1-.136.042c-.027-.01-.047-.002-.072.006l-.011.004a.5.5 0 0 1 .114.553 9.22 9.22 0 0 1 .157 2.493c-.063.814.031 1.69.271 2.618-.177.052-.219.177-.125.365.094.198.052.334-.125.428.177.23.177.428.02.594-.156.167-.177.355-.062.574a.162.162 0 0 1-.115.094c-.042 0-.125.01-.24.031-.031.063-.021.115.021.167.052.052.063.094.031.104-.469.449-.813.814-1.022 1.106-.208.292-.49.615-.834.95.021.072.041.124.062.176.021.053 0 .084-.052.115a5.484 5.484 0 0 0-.834.522c-.23.177-.386.396-.47.636a1.483 1.483 0 0 0-.281.48c-.063.177-.052.323.021.448a.372.372 0 0 0 .198-.313c.021-.146.167-.219.448-.198.115.261.073.438-.114.511a1.981 1.981 0 0 0-.47.272c.105.114.105.187.021.229-.292.115-.469.302-.542.553-.073.26-.261.407-.574.448.021.115.021.188.021.23 0 .041 0 .104.021.167-.136-.052-.23-.021-.282.083-.024.048.049.431.124.83.09.472.183.965.126.954l1.398.876c.563-.052 1.137-.292 1.7-.699a13.454 13.454 0 0 1 1.742-1.085c0 .564 0 1.106.021 1.627l.004.101c.005.132.006.16.02.172l.015.008c.033.013.101.041.253.324l.084.824c.177.146.26.303.239.48-.02.167-.073.303-.166.386.125.376.323.563.594.574.271 0 .522.041.772.115l.01-.032c.032-.062.126-.073.282-.052.156.021.271.052.355.094-.021-.073-.063-.115-.136-.146-.063-.02-.094-.063-.094-.104.084 0 .146.02.177.083a.243.243 0 0 0 .136.115c-.083 0-.104.031-.052.083.052.052.052.073-.011.063l.303.323c-.177.052-.25.094-.229.146.02.052.062.105.114.157.156.059.327 1.083.473 1.957.059.358.115.691.163.921.178.115.313.24.366.376.135.052.177.031.135-.073-.042-.094-.042-.167.021-.188.172-.044.48.396.78.824v.001c.263.375.519.741.67.761.189.022.17-.582.153-1.103-.007-.196-.013-.38-.007-.514a.637.637 0 0 0 .219-.115c.063-.053.223.491.397 1.085.198.677.415 1.419.531 1.419-.041-.094 0-.22.125-.366.345-.01.543-.125.605-.344.063-.219.199-.334.397-.354a1.02 1.02 0 0 1 .125-.397c.032-.059-.025-.429-.086-.829-.078-.509-.163-1.067-.081-1.09.282-1.554.282-6.32.261-7.969a57.211 57.211 0 0 1 .146-4.986.602.602 0 0 1 .177-.062c.063-.01.177-.042.344-.094 0-.24.105-.407.324-.5a1.41 1.41 0 0 0 .521-.366 12.1 12.1 0 0 0 1.492-1.168c.167-.155.346-.401.538-.664.324-.443.682-.932 1.068-1.11-.125-.135-.115-.197.042-.177.156.021.208.011.156-.052.063-.03.094-.01.125.063.021.073.073.104.157.094a.311.311 0 0 0-.042-.22c-.031-.062-.021-.135.042-.208.245-.197.415-.515.599-.86.254-.476.535-1.003 1.08-1.33.928-.563 1.732-1.043 2.389-1.419.501.62 1.472 1.726 2.106 2.447l.251.286c.605.678 1.262 1.419 1.961 2.222.021.031.042.031.042.01 0-.02.01-.02.041.01.105.105.188.22.261.324.073.104.177.219.303.355a.235.235 0 0 1 .187-.01c.063.02.136-.022.209-.136a.661.661 0 0 1-.177-.303.748.748 0 0 1-.011-.26c.063-.032.125-.022.188.02.063.052.115.042.146-.02.042-.053.532.427.824.73a.252.252 0 0 1-.021-.147c.125.136.282.303.459.49.177.188.344.324.511.407a.663.663 0 0 0-.021-.448c-.027-.083 1.289 1.292 2.514 2.573 1.079 1.128 2.088 2.183 2.044 2.1a3.316 3.316 0 0 1-.219-.49.45.45 0 0 1 .063-.428c.167.031.25.135.261.281.094-.041.187-.02.292.063.062.05.117.103.168.154.036.034.069.067.103.096.06-.06-.39-.64-.736-1.088-.2-.258-.365-.472-.38-.518-.034-.027-.068-.081-.108-.145a2.676 2.676 0 0 0-.069-.105Zm-16.616-13.487.615-.5c.058-.093-.072-.233-.188-.357-.094-.1-.178-.191-.146-.238.053-.104.105-.177.167-.209-.758-.904-1.112-1.482-1.5-2.115-.225-.368-.461-.754-.794-1.233-.739-1.082-1.293-1.81-2.031-2.779l-.504-.663c.013.418-.059.724-.127 1.014-.094.4-.18.768-.029 1.354.26 1.012.365 2.003.323 2.952.197.634.143 1.033.085 1.459-.04.295-.082.603-.043 1.013.041.495-.114 1.506-.27 2.522-.16 1.038-.32 2.082-.273 2.589l1.7-1.534c.213-.232.334-.401.436-.544.169-.236.289-.404.691-.676.559-.379 1.149-1.123 1.656-1.763l.232-.292Z" fill="url(#a)"/><defs><linearGradient id="a" x1="180.897" y1="82.095" x2="126.982" y2="28.61" gradientUnits="userSpaceOnUse"><stop stop-color="#7EFFE1"/><stop offset="1" stop-color="#00A57E"/></linearGradient></defs></svg>
