<svg class="ama-logo" version="1.1" id="prefix__Layer_1" xmlns="http://www.w3.org/2000/svg" x="0" y="0" viewBox="0 0 277.15 122.44" xml:space="preserve"><style>.prefix__st0 {
    fill: #fff; }
</style><path class="prefix__st0" d="M121.36 37.52c0 4.38-1.48 12.92-11.37 12.92-9.95 0-11.44-8.54-11.44-12.92V13.53H79.59v25.33c0 16.12 11.36 25.75 30.4 25.75 18.99 0 30.33-9.63 30.33-25.75V13.53h-18.96v23.99zM274.09 27.71V13.53h-58.72v51.08h58.72V50.44h-40.11v-5.66h33.35V33.37h-33.35v-5.66zM47.78 13.53H11.26v51.08h36.52c12.65 0 25.55-10.2 25.55-25.54.01-15.43-12.9-25.54-25.55-25.54zm-4.63 36.91H30.22V27.73h12.93c6.69 0 11.36 5.32 11.36 11.34 0 6.11-4.67 11.37-11.36 11.37zM183.56 13.53h-36.52v51.08h36.52c12.65 0 25.55-10.2 25.55-25.54.01-15.43-12.9-25.54-25.55-25.54zm-4.63 36.91H166V27.73h12.93c6.69 0 11.36 5.32 11.36 11.34 0 6.11-4.66 11.37-11.36 11.37z"/><linearGradient id="prefix__SVGID_1_" gradientUnits="userSpaceOnUse" x1="110.885" y1="104.574" x2="180.35" y2="52.229"><stop offset=".111" stop-color="#31ffe0"/><stop offset=".211" stop-color="#3cf0e2"/><stop offset=".404" stop-color="#59c7e8"/><stop offset=".671" stop-color="#8886f2"/><stop offset=".99" stop-color="#c62fff"/></linearGradient><path d="M125.88 97.29h-.08c-.03.02-.05.03-.08.03s-.05.01-.08.04c-.09-.43-.25-.81-.47-1.13-.22-.32-.43-.65-.62-1-.06-.16-.18-.32-.37-.48-.19-.16-.25-.31-.17-.46-.11.01-.18-.05-.22-.16-.04-.11-.13-.16-.26-.13.02-.06.04-.12.03-.16 0-.04.01-.11.03-.22-.29-.09-.46-.26-.51-.52-.05-.26-.2-.46-.47-.62-.08-.06-.07-.13.03-.22a2.14 2.14 0 00-.42-.34c-.17-.11-.2-.28-.07-.51.26.03.4.12.4.26 0 .15.06.26.17.33.07-.11.09-.25.05-.42-.04-.18-.12-.34-.23-.5-.06-.25-.19-.47-.39-.68-.2-.21-.45-.42-.75-.63-.05-.04-.07-.08-.04-.12.02-.04.05-.1.07-.16-.3-.38-.54-.73-.72-1.04-.18-.31-.48-.72-.88-1.22-.03-.02-.01-.05.04-.1.05-.04.06-.1.04-.16-.11-.04-.18-.06-.22-.07-.04-.01-.07-.04-.1-.1.12-.19.12-.38-.02-.56-.14-.18-.12-.37.06-.56-.16-.12-.19-.26-.09-.43.1-.17.07-.29-.09-.37.29-.84.44-1.66.44-2.45 0-.79.11-1.57.33-2.35-.06-.2-.01-.37.14-.51-.03-.02-.05-.03-.08-.03s-.07-.02-.12-.06c.23-.28.3-.56.21-.85-.09-.29.02-.6.33-.95-.07-.54-.03-1.09.13-1.67a4.1 4.1 0 00.09-1.7c.18-.28.29-.54.35-.78s.1-.49.12-.74c.02-.25.05-.5.1-.75.04-.25.14-.51.29-.76-.04-.48.03-.95.21-1.43s.25-.95.21-1.43c.15-.26.23-.51.25-.76.02-.25.09-.51.21-.79-.02-.58.05-1.14.19-1.69s.17-1.08.07-1.59c.02-.06.03-.12.01-.17-.02-.05.03-.1.13-.15-.05-.73.05-1.43.29-2.1.05-.85.09-1.66.11-2.42.02-.76.12-1.52.31-2.27-.13-.1-.18-.22-.13-.37.05-.15.08-.27.11-.38-.14-.22-.18-.44-.14-.65.05-.21.05-.43.02-.65-.16.01-.23-.05-.22-.16a.448.448 0 00-.11-.32c-.1.05-.16.14-.17.27-.01.14 0 .25.03.36-.24-.09-.5-.23-.78-.41-.28-.18-.57-.35-.86-.5-.29-.15-.6-.27-.92-.36-.32-.09-.63-.1-.95-.05-.05.09-.11.16-.17.21-.06.05-.04.1.06.14-.13-.01-.31.01-.53.07-.22.06-.35.04-.38-.06-.18-.01-.35.01-.49.07-.14.06-.32.07-.53.04-.05.13-.16.22-.35.27a.99.99 0 01-.51.02c-.31.31-.62.58-.94.81-.32.23-.64.47-.94.72-.31.24-.58.5-.82.77s-.45.59-.62.95c-.21.18-.35.32-.44.44-.09.12-.17.24-.25.37-.08.13-.16.26-.24.4-.09.14-.25.31-.48.51-.33.58-.73 1.39-1.22 2.01-.49.62-.13.99-.4 1.56-.28.16-.52.38-.71.67-.19.29-.32.57-.39.84-.44.37-.79.77-1.05 1.19-.26.42-.57.82-.93 1.21.03.02.01.06-.04.13s-.04.11.04.12c-.05.04-.1.05-.14.02-.04-.03-.09-.02-.14.02-.33.58-.66 1.08-1 1.5-.34.42-.74.87-1.2 1.35-.21.05-1.11.02-1.18-.09a.998.998 0 00-.26-.28c-.21-.07-.42-.12-.63-.16-.21-.03-.41-.11-.6-.25a.631.631 0 01-.22-.25c-.04-.09-.14-.13-.3-.13-.1.01-.14 0-.12-.03.02-.02.01-.05-.04-.09-.45 0-.93-.05-1.46-.15-.53-.1-1.05-.09-1.58.01 0 .08-.05.15-.17.21-.12.06-.21.1-.29.12-.05.04-.1.09-.15.13-.05.04-.06.08-.04.1-.08.03-.17.06-.27.11s-.25.04-.43-.01c-.05.04-.07.1-.05.17.02.07.02.15.03.23-.21.09-.34.15-.39.17-.05.02-.14.07-.27.14.11.08.08.15-.07.22-.16.07-.19.16-.11.25l-.35.3c-.02.06-.06.11-.09.14-.04.03-.07.1-.09.21.22.41.5.78.84 1.13.34.35.69.7 1.06 1.07.37.37.74.75 1.12 1.15.38.4.73.84 1.06 1.32-.03.06-.04.12-.05.17-.01.05-.07.1-.17.15l.28.2a.57.57 0 01-.13.27c-.06.08-.09.18-.09.3-.46.44-2.58 3.37-2.93 4.01-.35.64-.62 1.24-.81 1.78.26-.05.49-.23.67-.52.19-.29.41-.42.68-.39-.12.23-.28.44-.45.61-.18.18-.37.35-.58.53l.08.06c.05.04.08.04.08 0s.05-.08.15-.13c.06.2-.08.39-.42.55.06.12.06.23.01.31-.05.09-.11.17-.19.26s-.14.18-.19.29c-.05.11-.03.21.05.31.08-.07.17-.13.27-.2s.19-.07.28-.01c.02-.15.11-.22.27-.23.08.14.09.28.03.42-.06.14-.14.28-.24.43-.1.15-.18.29-.24.43s-.08.28-.05.42c.16-.05.32-.15.5-.3s.33-.29.46-.4c.03.1-.05.21-.23.32-.18.11-.24.21-.19.29.03.06.07.07.14.04.07-.03.12-.03.18.01 0 .08-.01.17-.03.25-.02.08-.09.17-.19.26.06.12.12.18.18.16.07-.01.12 0 .18.04.13-.11.23-.21.31-.3.08-.09.17-.17.27-.26.03-.02.04-.02.04 0s.01.02.04 0c.72-.66 1.38-1.26 2-1.81.61-.55 2.93-3.51 3.52-4.1.59.47 1.3 1.05 2.14 1.74.83.69 1.51 1.3 2.02 1.83.06.08.06.15.03.2-.04.05-.06.12-.05.2.08.02.13-.01.16-.07.03-.06.06-.08.12-.04-.05.04 0 .07.14.07s.15.06.02.17c.56.37 1.04.79 1.44 1.25.39.47.83.92 1.32 1.35.11.16.27.3.47.43.2.13.29.3.27.53.16.08.27.12.32.14.05.02.11.05.16.09-.01 1.62-.08 3.21-.22 4.78-.14 1.56-.13 3.11.02 4.64.13.06.23.16.28.3.06.14.09.28.09.4.19.05.3.19.35.4.05.22.23 3.14.54 3.21.11.16.14.28.09.37.21.03.38 2.9.5 3.03.12.13.23.19.34.19a.482.482 0 00-.08-.12c-.03-.02-.05-.06-.08-.12.11.16.32.25.62.27.3.02.6-2.7.89-2.56.05.04.06.1.01.19-.05.09-.01.11.12.09.07-.15.24-.27.5-.37a.9.9 0 01-.27.36c.13.1.33.12.59.07.05-.04.09-.09.11-.13.02-.04-.04-.1-.2-.18l.31-.26c-.05 0-.05-.02 0-.06.05-.04.04-.08-.04-.09.05 0 .1-.03.14-.08.04-.05.1-.07.18-.06 0 .04-.03.07-.1.08-.07.01-.11.05-.14.12.08-.03.19-.04.33-.03.14 0 .23.04.26.1l.58-1.89c.24-.03.48-.03.73.01s.45-.11.6-.45a.619.619 0 01-.13-.4c-.01-.17.08-1.7.26-1.81l-.32-.23c.06-.52.12-1.03.17-1.52.05-.49.1-1.01.13-1.55.54.39 1.06.83 1.56 1.31.5.48 1.02.8 1.55.94 0 .12.08.24.23.35.15.11.21.25.19.44.13-.03.21-.01.24.05.03.06.11.08.24.05.15-.22.16-.38.02-.5a.768.768 0 01-.25-.39c.05.04.11.07.16.09.05.02.16.04.32.08-.02.15.01.28.09.4s.1.24.05.37c.26-.01.43.06.52.22.08.16.11.3.09.4.05-.04.1-.05.14-.02.04.03.09.02.14-.02.08-.07.09-.13.05-.21-.04-.07-.01-.11.1-.11.13-.11.13-.15 0-.12s-.22 0-.28-.08c.05-.04.12-.08.19-.1l.35-.11c.16.2.32.34.49.41.16.08.28.23.37.45.13-.07.2-.11.21-.12.01-.01.08-.07.21-.18-.21-.08-.22-.24-.1-.47zM114.6 69.81c-.31.93-.49 1.85-.51 2.77a13.3 13.3 0 00-.82 2.88c-.16.94-.31 1.89-.47 2.83l-.19.17c-.49-.68-1.03-1.28-1.61-1.81-.58-.52-1.1-1.16-1.57-1.9.13-.11.15-.2.07-.28-.08-.08-.1-.2-.05-.37-.16.05-.26.02-.3-.09a.534.534 0 00-.14-.23c1.23-1.18 2.31-2.32 3.25-3.43.94-1.1 1.93-2.21 2.98-3.32-.12.92-.33 1.85-.64 2.78zm19.85-11.18c.07.07.09.12.05.15-.04.03-.06.08-.06.15.67.2 1.25.41 1.75.62.26.25.5.51.72.79.21.28.27 1.95.58 2.14.13.33.05 1.69.14 1.93.09.24.24.47.46.7.12.37.2.76.26 1.15.06.4.2.74.42 1.04-.16.1-.19.25-.07.44s.18.37.19.53c.26-.18.43-.41.5-.7s.16-.55.29-.8c.04-.28.13-.54.29-.8l.27-.99c.08-.29.19-.63.31-1.01.08-.19.16-.4.25-.62.09-.21.1-.44.06-.68.3-.68.51-1.37.63-2.07.12-.7.38-1.36.78-1.98-.02-.38.04-.75.17-1.09.13-.35.28-.69.47-1.02-.09-.38-.06-.73.09-1.04.15-.31.28-.61.41-.93-.02-.74.14-1.41.48-2 .34-.6.57-1.23.69-1.9.18-.14.28-.3.3-.47.02-.17.11-.31.27-.41-.04-.15-.04-.31-.02-.5.03-.19.13-.35.31-.5-.02-.19.01-.35.09-.5.08-.15.12-.3.11-.46.06-.02.08-.06.08-.11-.01-.05.04-.07.14-.09.09-.59.31-1.1.66-1.54.35-.44.58-.91.72-1.42.18-.21.39-.38.64-.52s.43-.26.55-.38c.41-.17.74-.39.99-.66.33-.04.67-.09 1.02-.14.35-.05.66-.07.95-.06.13.04.26.09.39.15s.29.08.46.07c.17.19.31.27.43.23.12-.04.26-.01.42.09.35.21.6.51.75.9.15.39.39.66.75.8-.01.33.05.66.18.99.13.33.24.65.31.94-.04.28-.06.58-.07.91-.01.33.07.63.25.92-.03.99-.05 1.98-.06 2.99-.01 1.01.02 2.02.07 3.04-.04.28-.08.55-.14.84-.05.28-.04.57.04.86l-.13.06c.13.4.15.77.06 1.12-.09.35-.09.73.02 1.14-.05.05-.06.11-.05.17.01.06-.01.1-.07.13.16.45.2.9.13 1.36-.07.45-.07.94.02 1.45-.06.45-.04.94.05 1.46.09.53.07 1.02-.06 1.46.06.33.09.65.09.96 0 .31-.01.62-.01.93 0 .31-.01.62-.01.93 0 .31.05.64.15.98-.13.31-.17.68-.13 1.1.04.42.1.79.19 1.11-.02.11-.04.2-.06.29-.03.09-.05.18-.08.25.15.36.17.7.06 1.02-.1.32.96 7.32 1.01 7.62-.02.04 0 .09.05.15s.09.12.11.17c.06.33.05.65-.04.97-.09.31-.13.65-.13 1 .06.75.03 1.46-.09 2.13-.12.67-.18 1.37-.16 2.11-.15.06-.21.14-.2.23.01.09-.06.17-.2.23-.13-.04-.18-.09-.16-.15s.01-.14-.05-.25c-.03.01-.08.03-.16.05-.08.02-.16.01-.25-.02-.02.11-.06.21-.13.32-.07.11-.13.91-.19 1-.15.06-.22.05-.24-.05-.02.17-.08.31-.19.42-.1.11-.11.26-.01.44-.28.22-.3.47-.05.75-.06.16-.2.28-.4.36-.13-.04-.22-.85-.27-1.02-.14-.07-.31-.06-.52.02-.1.01-.13.05-.1.12.03.07.02.11-.04.14-.06.02-.11.01-.16-.05-.05-.06-.11-.06-.18 0-.27-.4-.4-.74-.38-1.01.02-.27-.07-.57-.27-.91-.01-.09.01-.14.07-.13.06.01.09-.02.09-.09-.04-.08-.09-.1-.14-.06-.05.04-.08.02-.07-.04-.24-.61-.4-1.21-.5-1.78-.1-.58-.3-1.1-.61-1.59-.1-.12-.16-.29-.18-.51-.02-.22-.09-.43-.19-.65-.47-.94-1.81-8.5-1.84-9.33 0-.07-.02-.12-.06-.17-.04-.05-.08-.1-.1-.15-.03-.12-.07-.28-.13-.48-.07-.2-.14-.31-.23-.34-.02-.8-.16-1.57-.44-2.29-.28-.73-.45-1.48-.53-2.26-.17.72-.33 1.49-.48 2.32-.15.83-.41 1.61-.78 2.35.06.04.08.08.06.12-.02.04-.01.09.02.14-.13.31-.28.64-.46.97-.18.34-.19.68-.01 1.03-.18.21-.32.45-.42.74-.1.29-.12.56-.06.83-.19-.02-.28.08-.28.29 0 .21-.02 1.09-.05 1.23-.05.18-.15 1.82-.32 2.14-.16.31-.3-.8-.43-.56.05.24.07.38.05.42-.08.26-.2.46-.34.58-.15.13-.23 3.79-.26 4.03-.27.24-.55 1.16-.86 1.35-.1.07-.2 2.07-.29 2.86-.09.79-.17-1.72-.25-.93-.08.81-.15 2.13-.22 2.21-.21.15-.41.92-.61.91-.2-.01-.43 1.4-.69 1.44-.1-.46-.31.22-.29.26.1.21-.33-.35-.57-.48-.21-.07-.52 2.01-.52 1.8-.04-1.43-.15.58-.36.44-.09.06-.39-.27-.46-1.31-.03-.42-.08-.94-.11-1.43-.03-.53-.1-1.38-.13-1.93-.03-.6-.18.17-.21-.36-.07-1.31-.14-1.6-.2-1.59-.18.03-.38.04-.59.03-.23-.32-.47-1.98-.72-2.18-.24-.2-.53-2.54-.85-2.83-.1.01-.17-2.02-.2-1.91-.03.11-.11-.54-.22-.55-.08-.09-.18-.23-.29-.41-.11-.18-.22-.37-.34-.56-.12-.19-.24-.38-.38-.54-.14-.17-.29-.28-.46-.34-.3-.52-.49-1.02-.56-1.49-.08-.47-.19-.98-.33-1.54-.42.79-.78 1.66-1.1 2.61-.32.95-.69 1.84-1.13 2.67-.04.34-.11.67-.22.99-.1.32-.26.62-.47.91-.04.28-.09.53-.17.78-.07.24-.22.49-.45.75.01.09-.01.16-.05.22-.04.05-.05.14-.03.26-.24.01-.39.11-.43.3-.04.2-.04.4-.01.61-.38.23-.61.51-.69.85-.08.34-.3.64-.67.89-.04.05-.06.11-.04.19.02.07-.05.13-.21.16-.07.06-.11.06-.12-.02 0-.08-.03-.14-.09-.18-.21.15-.43.29-.66.43-.23.13-.42.24-.55.33-.13.02-.23-.03-.3-.17-.22.19-.48.29-.79.28-.3 0-.59-.06-.86-.17-.06-.33-.18-.6-.36-.82-.18-.22-.17-.45.02-.69a.12.12 0 01.01-.15c.03-.05.01-.1-.06-.17.25-.56.35-1.18.31-1.86-.04-.68.06-1.3.31-1.86-.04-.08-.05-.14-.04-.18.02-.04-.02-.07-.1-.1.06-.38.13-.78.22-1.19.09-.41.2-.77.33-1.09.03-.08.06-.18.09-.3s.03-.25 0-.37c0-.07.03-.11.07-.13s.09-.05.13-.1c.11-.41.25-.78.42-1.12.16-.34.27-.71.33-1.09.18-.14.29-.31.33-.5.04-.2.13-.37.27-.53.28-.93.57-1.83.87-2.7.3-.87.58-1.77.82-2.68.2-.8.47-1.57.82-2.32.35-.75.67-1.51.95-2.28.03-.08.04-.12.02-.13-.02-.01-.02-.03-.01-.07.11-.14.17-.25.21-.33.03-.08.11-.17.23-.29a.796.796 0 01.15-.75c.18-.2.29-.45.33-.72.52-.58 1.48-3.47 2.07-3.69.55-.22 1.28-.5 2.14-.83zm-8.88 28.75c-.07-.13-.16-.18-.28-.13.06.04.08.08.08.11s.01.08.04.13c.07 0 .1-.01.09-.04-.01-.02.02-.04.07-.07zm6.07-11.13c-.03.08-.08.16-.14.25-.06.09-.07.18-.03.26.07-.06.13-.15.16-.26.04-.11.04-.19.01-.25zm23.98 10.09c-.07-.07-.08-.11-.02-.14.06-.02.07-.06.05-.12-.07 0-.14-.01-.2-.04-.06-.02-.14.02-.23.12l.06.12c.09.03.15.03.19.02s.1 0 .15.04zm8.72 16.06c.05.03.09.06.13.09.02.12.05.2.07.25-.09-.11-.16-.22-.2-.34zm19.39-15.5c.15.16.25.27.19.22a.604.604 0 01-.19-.22zm-19.19 15.84c.01.02.02.04.04.05-.01.01-.02-.01-.04-.05zm21.2-31.42l-.03-.03c.66.31.55.34.03.03zm2.65 18.2c-.07-.1-.13-.19-.17-.29-.04-.09-.03-.19.03-.31-.33-.22-.45-.42-.38-.62.1.06.15.12.14.16 0 .04.02.05.08.02l.09-.04c-.19-.21-.37-.42-.54-.62-.17-.2.84.81.73.55.27.02.49.18.65.5.17.32.38.53.64.62-.15-.58-1.53-2.45-1.83-3.15-.3-.69-5.26-6.25-5.69-6.76a.45.45 0 00-.07-.31.606.606 0 01-.11-.29l.3-.16c-.1-.06-.16-.12-.16-.18-.01-.05-.02-.11-.04-.18.37-.42.76-.8 1.17-1.13.41-.33.82-.65 1.21-.95.4-.3.78-.6 1.14-.89.37-.29.68-.61.93-.98-.02-.11-.04-.18-.08-.22a.345.345 0 01-.08-.16l1.02-1.05c.09-.09.06-.18-.09-.27-.15-.1-.17-.17-.06-.23-.12-.09-1.56.55-1.61.52-.05-.03.5-.46.3-.59.01-.08-.65.19-.63.12.02-.07.01-.13-.04-.18-.19.02-.34 0-.44-.06-.1-.06 1.16-.81 1.08-.85.03-.01.02-.05-.03-.1l-.12-.12c-.09-.06-.2-.12-.32-.2-.11-.08-.17-.16-.16-.24-.52-.2-2.4.41-2.94.42-.54.01-1.04-.02-1.49-.1-.06.03-.07.06-.05.08.02.03-.02.03-.12.01-.16-.03-.26-.01-.31.07-.05.08-.13.16-.25.21-.2.1-.41.15-.62.15-.22 0-.43.01-.65.05-.11.06-.21.14-.29.24-.08.1-.22.11-.43.02-.43-.55-.8-1.07-1.11-1.54-.31-.48-.61-1.03-.9-1.65-.05-.05-.09-.07-.14-.05-.04.02-.09.01-.14-.05.08 0 .1-.04.05-.11s-.06-.12-.03-.13c-.33-.45-.61-.9-.85-1.36-.23-.46-.56-.91-.97-1.36-.05-.28-.16-.58-.33-.9-.17-.32-.39-.58-.67-.79-.23-.62-.57-1.27-1.03-1.96-.45-.69-.82-1.35-1.11-1.98-.22-.24-.37-.43-.44-.58-.08-.15-.15-.3-.22-.44s-.14-.28-.22-.41c-.08-.13-.22-.3-.41-.51a4.38 4.38 0 00-.56-1.05c-.22-.31-.48-.61-.77-.9-.29-.29-.59-.58-.9-.87-.31-.29-.6-.61-.89-.96-.16.01-.23-1-.41-1.08-.18-.08-.29-.19-.33-.32-.22 0-1.64-.32-1.78-.4-.14-.08-.3-.13-.49-.15-.04.1-.16.1-.38 0-.13-.06.17.35.4.68a2.12 2.12 0 00-.83-.08c-.33.03-.65.1-.95.2-.31.1-.61.22-.91.36-.19.08-.36.15-.53.2-.21-.11-.52-.35-.52-.27 0 .12.5.77.34.74-.05.22-.63-.18-.6.03.03.22-.03.42-.19.62.02.11.04.24.08.39.04.16-.01.27-.16.34.13.78.18 1.55.14 2.31-.04.76-.06 1.56-.07 2.42.19.71.24 1.42.14 2.14.1.06.14.12.12.17-.02.05-.02.11 0 .17-.13.5.42 1.65.53 2.21.1.57-.45.52-.51 1.09.1.3.16.57.16.82s.07.52.2.8c-.08.47-.04.95.11 1.45s.19.99.11 1.45c.13.28.21.55.24.81s.04.51.04.76.02.5.06.75c.04.25.14.53.3.83-.14.54-.15 1.1-.04 1.7.11.6.11 1.16 0 1.68.28.4.37 1.43.26 1.69-.11.27-.06.56.15.88-.06.03-.1.04-.13.04-.03-.01-.05 0-.08.01.15.16.18.33.11.53.16.81.21 1.61.15 2.39s.03 1.62.26 2.51c-.17.05-.21.17-.12.35.09.19.05.32-.12.41.17.22.17.41.02.57-.15.16-.17.34-.06.55-.03.06-.07.08-.11.09-.04 0-.12.01-.23.03-.03.06-.02.11.02.16.05.05.06.09.03.1-.45.43-.78.78-.98 1.06-.2.28-.47.59-.8.91.02.07.04.12.06.17.02.05 0 .08-.05.11-.31.16-.58.33-.8.5-.22.17-.37.38-.45.61-.12.14-.21.29-.27.46-.06.17-.05.31.02.43.11-.06.18-.16.19-.3.02-.14.16-.21.43-.19.11.25.07.42-.11.49-.18.08-.33.16-.45.26.1.11.1.18.02.22-.28.11-.45.29-.52.53-.07.25-.25.39-.55.43.02.11.02.18.02.22 0 .04 0 .1.02.16-.13-.05-.22-.02-.27.08-.05.1.34 1.73.24 1.71l1.34.84c.54-.05 1.09-.28 1.63-.67.54-.4 1.1-.74 1.67-1.04 0 .54 0 1.06.02 1.56s-.02.02.28.58l.08.79c.17.14.25.29.23.46-.02.16-.07.29-.16.37.12.36.31.54.57.55.26 0 .5.04.74.11l.01-.03c.03-.06.12-.07.27-.05.15.02.26.05.34.09-.02-.07-.06-.11-.13-.14-.06-.02-.09-.06-.09-.1.08 0 .14.02.17.08s.08.09.13.11c-.08 0-.1.03-.05.08s.05.07-.01.06l.29.31c-.17.05-.24.09-.22.14.02.05.06.1.11.15.21.08.45 2 .61 2.76.17.11.3.23.35.36.13.05.17.03.13-.07-.04-.09-.04-.16.02-.18.31-.08 1.08 1.48 1.39 1.52.25.03.12-1.08.14-1.55a.61.61 0 00.21-.11c.13-.11.68 2.4.89 2.4-.04-.09 0-.21.12-.35.33-.01.52-.12.58-.33.06-.21.19-.32.38-.34.01-.12.05-.25.12-.38.07-.13-.3-1.8-.16-1.84.27-1.49.27-6.06.25-7.64-.02-1.58.02-3.17.14-4.78.06-.03.11-.05.17-.06.06-.01.17-.04.33-.09 0-.23.1-.39.31-.48.21-.09.38-.21.5-.35.52-.35 1-.72 1.43-1.12.43-.4.95-1.43 1.54-1.7-.12-.13-.11-.19.04-.17.15.02.2.01.15-.05.06-.03.09-.01.12.06.02.07.07.1.15.09.01-.08 0-.15-.04-.21-.03-.06-.02-.13.04-.2.56-.45.71-1.56 1.61-2.1.89-.54 1.66-1 2.29-1.36.55.68 1.69 1.97 2.26 2.62.58.65 1.21 1.36 1.88 2.13.02.03.04.03.04.01 0-.02.01-.02.04.01.1.1.18.21.25.31s.17.21.29.34c.06-.03.12-.03.18-.01.06.02.13-.02.2-.13a.64.64 0 01-.17-.29.71.71 0 01-.01-.25c.06-.03.12-.02.18.02.06.05.11.04.14-.02.04-.05.51.41.79.7-.02-.05-.03-.1-.02-.14.12.13.27.29.44.47.17.18.33.31.49.39a.64.64 0 00-.02-.43c-.05-.15 4.46 4.65 4.37 4.48-.09-.17-.16-.32-.21-.47a.431.431 0 01.06-.41c.16.03.24.13.25.27.09-.04.18-.02.28.06.1.08.18.17.26.24.09-.09-1.03-1.42-1.07-1.54-.05-.04-.1-.14-.17-.24zm-28.35-35.63c-.01 0-.03.01-.04.01.01-.01.02-.01.04-.01zm13.01 22.22l-.59.48c-.53.66-1.19 1.55-1.81 1.97-.62.42-.54.58-1.08 1.17l-1.63 1.47c-.09-.96.6-3.94.52-4.9-.09-.96.28-1.34-.04-2.37.04-.91-.06-1.86-.31-2.83s.18-1.32.15-2.27c.97 1.28 1.57 2.04 2.43 3.3.87 1.25 1.05 1.84 2.2 3.21-.06.03-.11.1-.16.2-.07.1.42.41.32.57z" fill="url(#prefix__SVGID_1_)"/><linearGradient id="prefix__SVGID_2_" gradientUnits="userSpaceOnUse" x1="135.333" y1="106.284" x2="148.805" y2="100.558"><stop offset=".033" stop-color="#36f9e1"/><stop offset=".283" stop-color="#3deee2"/><stop offset=".72" stop-color="#4ed1e6"/><stop offset=".99" stop-color="#5bbce9"/></linearGradient><path d="M135.97 105.6c.04.02.06.01.07-.03.01-.04 0-.07-.03-.09.02 0 .04-.01.06-.02.01-.01.03-.03.06-.03.01-.08.05-.15.1-.19s.1-.1.13-.16c.04-.01.08-.05.13-.09s.07-.1.07-.16c.05-.01.11-.05.17-.09.06-.05.1-.11.11-.17.13-.06.24-.14.31-.26.07-.11.17-.2.29-.28.01-.01.02-.01.02.01 0 .01 0 .02.02.02.02-.07.06-.12.11-.17.05-.04.08-.1.09-.16.07-.01.14-.04.2-.11.06-.06.12-.12.18-.16.02-.06.06-.11.11-.15.05-.04.09-.09.1-.14.05-.02.09-.06.11-.12.02-.06.06-.1.13-.11.01-.04.02-.06.04-.07.02-.01.04-.03.04-.07.07-.03.12-.07.17-.13.04-.06.1-.1.16-.12.02-.02.04-.05.06-.08.02-.03.04-.05.07-.07.08-.13.18-.24.31-.34.12-.1.23-.22.34-.34v-.07c.01-.01.03-.02.04-.03.01-.01.02-.01.04 0l.12-.12c.03-.04.06-.09.07-.15.04-.04.07-.07.09-.11.03-.03.05-.08.06-.13-.02-.06-.05-.08-.12-.07-.06.01-.11.04-.14.08-.04-.03-.07-.03-.09 0-.02.03-.04.05-.07.07-.02-.02-.04-.02-.07.01-.02.03-.05.05-.09.07-.01.01-.03.01-.04.01-.01 0-.02 0-.04.02-.02.01-.03.02-.04.03-.01.02-.02.02-.04.02-.04.01-.09.02-.14.03-.06.01-.1.04-.11.08-.04-.01-.07.01-.11.04l-.08.08c-.02-.02-.04-.02-.05-.01-.01.02-.02.03-.04.05-.02.02-.05.02-.07.03-.03 0-.05.01-.06.02-.02.01-.03.02-.03.03 0 .01-.01.01-.03.01-.02 0-.02 0-.01.01s0 .01-.01.02c-.01-.01-.04-.02-.06-.01-.03.01-.05.02-.06.03-.02.01-.02.01-.02 0s0-.01-.02-.01c-.03 0-.06.01-.08.02-.03.01-.05.02-.07.02-.01 0-.03 0-.04-.01-.01-.01-.02-.01-.03-.01-.01.01-.02.01-.02.01l-.02-.01a.4.4 0 00-.19.02.31.31 0 01-.19.01c-.06.05-.12.1-.19.14a.95.95 0 01-.21.09c-.02-.01-.02-.03-.01-.04.02-.01.03-.03.03-.05-.02-.03-.05-.04-.08-.02a.36.36 0 01-.11.02.274.274 0 00-.13-.13c-.06-.03-.09-.07-.11-.14-.04 0-.1.01-.16.03-.06.02-.11.01-.16-.03v-.07c-.02-.01-.05-.02-.07-.01-.03.01-.05-.01-.06-.04l.04-.04c.01-.01.03-.03.04-.05.02.02.04.02.05 0 .01-.01.03-.02.05-.02v-.08c.04-.07.08-.12.13-.17.05-.04.08-.1.11-.18.01 0 .03-.01.03-.02.01-.01.02-.02.03-.02.02-.04.05-.07.08-.11.03-.04.06-.06.09-.08.01.01.01.01.01-.01 0-.01 0-.02.01-.04.04-.01.09-.04.14-.07.05-.03.09-.06.14-.08.02 0 .04-.01.04-.04.1-.05.21-.1.31-.16l.3-.15c.02.01.04 0 .04-.01.01-.01.03-.02.06-.02.16-.1.35-.17.57-.23.01-.06.04-.09.08-.09s.08 0 .13-.01c.03-.01.06-.01.08-.02.02-.01.05-.01.08-.02.08-.03.16-.06.25-.11.09-.04.18-.08.27-.11.03-.01.06-.01.08-.02.03 0 .06-.01.09-.03.04-.04.08-.07.14-.08.06-.01.1-.01.14-.01.15-.04.3-.07.45-.09.15-.02.31-.03.48-.02.05 0 .1 0 .16-.01.05 0 .1 0 .14.02.06.01.13.05.21.09.08.05.16.07.24.06.06.03.11.05.17.08s.11.05.17.08c.03.04.06.08.1.12.04.03.07.07.11.11.04.04.07.08.1.12.03.04.05.1.06.17 0 .04 0 .08.01.14.01.06.02.1.03.14 0 .01-.01.03-.04.06.01.01.03.02.04.03s.02.01.04.03c-.01.04-.03.08-.05.12-.02.04-.03.08-.03.12-.02.06-.05.11-.07.16-.03.05-.05.11-.06.17l-.12.24c-.04.08-.08.16-.1.25-.08.05-.14.14-.18.27-.05.04-.1.12-.13.21-.02-.01-.03-.01-.03.01s-.01.03-.04.02c-.06.11-.13.21-.21.29-.08.09-.16.17-.24.26.01.01.01.02.01.03-.07.03-.13.08-.16.15-.03.07-.09.13-.16.17.01.03.02.05.01.05s-.02.02-.02.04c-.01 0-.02 0-.03-.01 0 0-.01-.01-.02-.01-.06.04-.11.1-.14.16-.04.06-.09.12-.14.16 0 .03 0 .05-.01.06 0 .01 0 .02.01.04-.06-.02-.1 0-.13.05s-.07.09-.13.1c-.02.01-.02.03-.02.04 0 .01 0 .03-.02.03-.04.01-.06.02-.07.04-.01.02-.03.04-.07.04v.09c-.01.01-.03.01-.03 0-.01-.01-.02-.01-.03-.01-.02.01-.03.04-.03.07a.77.77 0 00-.22.19c-.06.08-.13.16-.21.22.1.01.21-.01.32-.04.11-.03.22-.06.34-.08l.03-.03c.01-.01.01-.02.01-.04.01-.01.03-.01.04-.01.01 0 .03.02.03.04.1-.02.18-.05.25-.08s.15-.06.23-.1c.02.01.03.02.03.02.01 0 .02-.01.03-.02.01 0 .02 0 .03.01 0 .01.01.01.02.01.01-.04.05-.06.09-.07a.19.19 0 01.13.01c.01 0 .02-.01.02-.02s0-.02.01-.02c.01.01.02.01.03 0 0-.01.01 0 .02.01.01-.01.01-.03.02-.03l.03-.03c.1.01.18.01.26-.03.08-.03.16-.06.26-.07.01 0 .01-.01.01-.02s0-.02.01-.02c.08 0 .17-.01.27-.02s.2-.02.3-.02c.04-.01.08-.03.12-.04a.1.1 0 01.11.04c.03-.01.05-.01.05-.02 0 0 .02 0 .04.02.01-.03.03-.05.06-.07.02.02.05.04.08.05.03.01.06.02.09.04.04-.04.07-.05.11-.01.04.04.06.08.07.12-.04 0-.08.01-.12.02-.04.01-.07.03-.09.07-.03-.01-.06-.01-.08.01-.02.02-.04.04-.07.06-.02 0-.02 0-.03-.01 0-.01-.01-.01-.02-.01s-.02.01-.02.02 0 .02-.01.03c.04.01.09.02.13.02.04 0 .08-.01.13-.02.04.05.03.09-.02.11-.05.02-.1.02-.13.02-.04.04-.06.09-.07.14-.01.06-.02.11-.04.15-.02.04-.04.08-.06.14a.12.12 0 01-.12.08c-.02.01-.02.03-.02.06 0 .02.01.05.02.08-.04.02-.08.04-.14.06-.06.02-.07.05-.05.11-.04.01-.07.02-.09.04-.03.02-.05.05-.06.08-.1.04-.2.09-.29.14-.09.06-.19.1-.28.12-.02.04-.02.06-.01.07-.04-.01-.07 0-.09.03-.02.01-.02.01-.02 0s0-.01-.02-.01c-.16.1-.32.18-.49.24-.17.06-.35.13-.53.22-.02.02-.02.03-.02.03-.1 0-.18.04-.24.12-.02.01-.02.01-.02 0s-.01-.01-.02-.02c-.04.02-.06.04-.06.04-.15.04-.29.09-.42.15-.13.07-.26.13-.38.18-.01 0-.01.01-.01.02s0 .02-.01.03c-.31.11-.59.22-.85.31-.25.1-.54.19-.86.29 0 .01.01.03.02.03.01.01.01.02.01.03-.08-.01-.16 0-.24.02-.08.02-.14 0-.19-.06-.01.02-.03.03-.04.02-.02-.01-.03-.01-.06-.01-.04-.04-.08-.05-.12-.04-.04.01-.09 0-.14-.01-.04-.03-.08-.05-.12-.07-.04-.01-.09-.03-.14-.04-.04-.04-.1-.09-.16-.13a.34.34 0 00-.18-.07c-.02-.04-.05-.07-.09-.11-.05-.03-.05-.07-.02-.12-.02.02-.04.02-.06-.01a.922.922 0 01-.05-.08c-.02.01-.03.04-.02.07.01.03 0 .05-.04.06.01-.02.01-.04-.01-.04l-.03-.03c-.01-.05 0-.09.03-.12-.02-.08-.04-.16-.06-.23-.03-.07-.04-.15-.03-.23-.01 0-.02 0-.02.01s0 .01-.02.02c-.04.01-.05-.01-.05-.04 0-.04.01-.07.01-.11.05-.01.07-.05.06-.1s-.04-.1-.03-.13zm10.01-.03c-.03.03-.06.04-.08.02-.01.08-.03.16-.06.22l-.09.21c.01.06.01.1 0 .12-.02.02-.02.05-.01.1-.04.04-.07.09-.11.13-.04.04-.05.09-.03.15-.01.03-.03.05-.04.07-.02.02-.02.05-.01.08-.05.01-.08.03-.09.05 0 .04-.01.07-.02.08-.01.01-.02.03-.02.08-.03 0-.04-.02-.04-.06-.03.01-.05.02-.06.04-.01.02-.02.03-.03.05 0 .01 0 .02.01.02 0 0 .01.01.01.03-.02.02-.05.04-.09.07-.04.02-.06.04-.08.07-.01-.03-.01-.05-.01-.07 0-.02-.01-.03-.05-.04a.31.31 0 00-.02.08c0 .03-.01.05-.02.07-.02 0-.04 0-.04.01-.01 0-.02.01-.03.01 0-.05.01-.11.03-.17.02-.06.01-.12-.02-.17-.02.03-.05.06-.08.08.03.04.03.09.01.13-.02.04-.03.1-.01.15h-.02c-.01.06-.02.11-.03.16-.02.04-.03.09-.06.14-.03 0-.04.01-.04.02-.02 0-.02-.01-.02-.02s-.01-.02-.02-.02c-.02.03-.04.06-.04.08l-.03.06c0 .03 0 .06-.01.08 0 .02-.02.03-.06.03.01-.01.02-.02.01-.03-.01-.01-.01-.03-.01-.05h.03c-.02-.04-.03-.08-.01-.12.02-.04.02-.08 0-.12.03-.03.04-.06.03-.11-.01-.04-.01-.08-.01-.13-.01-.03-.04-.05-.07-.06-.03-.01-.04-.03-.04-.07l-.01-.01h-.01v-.07c.01-.02.02-.04.01-.09-.01-.04 0-.08.02-.1-.01-.08-.01-.16-.01-.23s0-.16-.01-.24c.08-.12.12-.24.12-.37 0-.02-.01-.04-.02-.04-.01.06-.03.12-.06.18s-.04.13-.04.19c-.01 0-.01 0-.01.01s0 .01-.02.01c.01.1 0 .2-.02.28-.02.08-.02.18-.02.28a.39.39 0 00-.17.11c0 .02.01.03.02.03s.03 0 .03.02c-.01.02-.03.04-.05.06-.02.02-.03.05-.03.08 0 .01.01.01.03.01-.01.06-.03.13-.03.21-.01.08 0 .15.03.22.01.03.01.06-.02.08-.03.03-.05.02-.07-.02-.02.05-.03.12-.01.21.01.09-.01.14-.08.15 0-.01 0-.04-.01-.07 0-.03-.01-.05-.03-.05.01-.05.01-.11 0-.17-.01-.06-.01-.12-.01-.18-.01-.01 0-.03.02-.04-.01-.09-.01-.18-.01-.28 0-.1.01-.2.03-.3 0-.04 0-.06-.01-.07 0-.01 0-.03.02-.05a.097.097 0 01.01-.09c.02-.03.01-.06-.02-.09.04-.03.06-.07.04-.11a.1.1 0 01.04-.11c-.02-.04-.03-.07-.02-.11.01-.04.01-.07.02-.11l.03-.13c.01-.04 0-.07-.03-.09.01-.02.01-.04-.01-.04-.02-.01-.03-.03-.02-.05l.03-.12c0-.04.02-.07.06-.09 0-.06.02-.11.07-.14-.01-.01-.01-.03-.01-.04 0-.01 0-.02-.01-.04.03-.01.05-.01.05-.01.03-.06.04-.12.04-.19s.01-.14.02-.23c.05-.06.07-.12.06-.19s0-.13.03-.19c-.01-.09.01-.18.06-.28.05-.1.07-.2.07-.3.04-.01.06-.04.03-.08 0-.01.01-.01.02-.01.02-.08.05-.15.07-.2.03-.05.05-.12.06-.2.02-.02.04-.05.04-.09.01-.04.01-.07.02-.11.04-.04.05-.09.05-.16s.02-.11.07-.14c.01-.04.02-.08.03-.13 0-.05.01-.1.03-.15.01-.02.03-.04.03-.05.01-.02.02-.04.03-.08.01-.02.02-.04.03-.04l.04-.04c.01-.01.01-.03.01-.05 0-.02 0-.03.02-.04 0-.01 0-.01.01-.01s.01 0 .01-.01c.01-.02.02-.05.03-.08 0-.03.02-.05.05-.04.01-.06.02-.11.04-.14.02-.04.04-.08.04-.13h.03c-.01-.04 0-.06.01-.07.01-.01.03-.03.03-.05 0-.01 0-.01-.01-.02 0 0 0-.01.01-.03.01-.02.03-.05.03-.09a.12.12 0 01.08-.09c0-.04.01-.07.03-.09.03-.17.08-.32.16-.44s.14-.26.18-.43c0-.04.01-.08.02-.12.02-.04.03-.07.06-.11.02-.03.04-.07.06-.1.02-.03.03-.07.03-.12.01-.02.02-.05.02-.08s.01-.06.02-.08c-.07.04-.13.08-.19.13s-.13.09-.21.14c-.01 0-.02 0-.02.01 0 0 0 .01-.02.02-.04-.01-.07-.01-.09.03-.02.03-.05.06-.1.07-.04.03-.09.05-.13.07-.04.01-.07.04-.09.09-.06-.03-.1-.01-.12.05a.29.29 0 00-.15.09c-.04.04-.09.07-.15.08-.01.04-.04.06-.06.08-.03.01-.05.04-.06.07-.01.01-.02 0-.03-.01a.64.64 0 01-.19.18c-.07.04-.13.09-.19.16-.05-.01-.09.01-.13.05-.03.04-.08.04-.13.01 0-.02 0-.04.01-.04s.01-.01 0-.03a.09.09 0 00-.08-.04c-.03 0-.06-.01-.1-.04-.01-.04-.03-.06-.06-.07a.134.134 0 01-.07-.06c-.03.01-.05.03-.07.04-.02.02-.04.02-.06.02-.01 0-.03-.01-.04-.04.04-.04.08-.07.11-.08a.24.24 0 01.02-.15c.02-.04.04-.1.05-.16.04-.01.07-.04.09-.1.1-.06.16-.13.19-.2.04-.04.09-.07.13-.1.04-.03.08-.07.12-.13.07-.02.12-.06.15-.13.04-.06.09-.11.16-.14.06-.05.12-.11.18-.16.06-.06.13-.1.21-.14.04-.04.08-.07.12-.11a.42.42 0 01.14-.09c0-.01 0-.01.01-.02 0 0 0-.01-.01-.03.07-.02.12-.06.17-.11.05-.05.11-.09.17-.13v-.02c.1-.04.18-.1.25-.17s.15-.13.23-.2c.1-.01.19-.04.25-.07.06-.03.14-.06.24-.07-.01-.01-.01-.02-.01-.03.04.01.06.02.08.01.01-.01.03-.01.04.01.1-.03.19-.04.26-.04s.15-.01.23-.02c.01-.02.02-.02.02 0 0 .01 0 .02.01.02.02 0 .04-.01.06-.02.02-.02.05-.02.08-.01.07.02.16.06.26.1.1.04.19.09.28.12.01.01.02.03.03.03l.03.03c.01.01.01.02.02.01 0-.01.01-.01.03 0 .01.03.02.05.04.05s.03.01.05.03c-.01.01-.01.01 0 .02.04.04.07.07.08.09.01.03.01.08 0 .16 0 .07-.01.16-.02.24-.01.09-.03.17-.06.26.01.01.02.05.02.11-.04.13-.09.26-.13.41-.04.14-.07.28-.09.4-.04.08-.08.16-.12.23-.04.07-.07.16-.08.27-.02.02-.03.07-.03.16-.04.13-.1.27-.16.42-.06.14-.11.28-.15.39-.01.02-.02.03-.02.03-.08.17-.16.35-.23.54-.07.19-.15.38-.23.56-.02.09-.04.17-.08.25-.04.08-.07.16-.11.24-.06.15-.12.3-.17.44-.06.15-.12.29-.21.42.01.08-.01.15-.04.22-.03.06-.06.12-.08.18-.02.07-.05.13-.08.2s-.06.13-.1.19c.03.07.02.12-.03.14.03.02.04.04.04.04zm-11.79-3.84c-.44.75-.22 1.79.12 1.76.61-.05.54-.59.72-1.21.06.11.07.04.11.16l.03-.1c.03-.29.07-.57.13-.85.16-.39-.37.15-.31-.02.23-.65-.19-.17-.2-.27-.02-.29-.36.11-.6.53z" fill="url(#prefix__SVGID_2_)"/></svg>
